<svg xmlns="http://www.w3.org/2000/svg" version="1.1" style="font-family: 'Helvetica Neue', Helvetica, Arial, sans-serif; font-size: 24px; background-color: white;" width="1200" height="630"><g class="ChartTab"><g class="LineChart"><defs><clipPath id="boundsClip-73"><rect x="101.36800000000001" y="0" width="1180" height="1130"></rect></clipPath></defs><g class="AxisBoxView"><g class="HorizontalAxis"><text x="111.4" y="600" fill="#666" text-anchor="middle" font-size="21.6">1900</text><text x="300.2" y="600" fill="#666" text-anchor="middle" font-size="21.6">1950</text><text x="489" y="600" fill="#666" text-anchor="middle" font-size="21.6">2000</text><text x="677.8" y="600" fill="#666" text-anchor="middle" font-size="21.6">2050</text><text x="862.8" y="600" fill="#666" text-anchor="middle" font-size="21.6">2099</text></g><g class="VerticalAxis"><text x="106.37" y="572" fill="#666" dominant-baseline="middle" text-anchor="end" font-size="21.6">0</text><text x="106.37" y="456.3" fill="#666" dominant-baseline="middle" text-anchor="end" font-size="21.6">20 million</text><text x="106.37" y="340.6" fill="#666" dominant-baseline="middle" text-anchor="end" font-size="21.6">40 million</text><text x="106.37" y="224.9" fill="#666" dominant-baseline="middle" text-anchor="end" font-size="21.6">60 million</text><text x="106.37" y="109.2" fill="#666" dominant-baseline="middle" text-anchor="end" font-size="21.6">80 million</text></g><g class="AxisGridLines"><line x1="111.37" y1="572" x2="862.78" y2="572" stroke="#ccc"></line><line x1="111.37" y1="456.3" x2="862.78" y2="456.3" stroke="#ddd" stroke-dasharray="3,2"></line><line x1="111.37" y1="340.6" x2="862.78" y2="340.6" stroke="#ddd" stroke-dasharray="3,2"></line><line x1="111.37" y1="224.9" x2="862.78" y2="224.9" stroke="#ddd" stroke-dasharray="3,2"></line><line x1="111.37" y1="109.2" x2="862.78" y2="109.2" stroke="#ddd" stroke-dasharray="3,2"></line></g><g class="AxisGridLines"><line x1="111.4" y1="573.40" x2="111.4" y2="35.00" stroke="#ddd" stroke-dasharray="3,2"></line><line x1="300.2" y1="573.40" x2="300.2" y2="35.00" stroke="#ddd" stroke-dasharray="3,2"></line><line x1="489" y1="573.40" x2="489" y2="35.00" stroke="#ddd" stroke-dasharray="3,2"></line><line x1="677.8" y1="573.40" x2="677.8" y2="35.00" stroke="#ddd" stroke-dasharray="3,2"></line></g></g><g clip-path="url(#boundsClip-73)"><g class="HeightedLegend clickable"><g class="legendMark"><rect x="872.7839999999999" y="503.69999999999993" width="312.21600000000007" height="19.200000000000003" fill="#fff" opacity="0"></rect><rect x="872.7839999999999" y="512.05" width="10" height="2.5" fill="#3360a9"></rect><text font-size="19.20" x="887.8" y="519.1" fill="#333"><tspan x="887.7839999999999" y="519.06">Projected net change in population</tspan></text></g></g><g class="Lines"><rect x="111" y="35" width="751" height="538" fill="rgba(255,255,255,0)" opacity="0"></rect><g class="key-World_0"><path stroke="#3360a9" stroke-linecap="round" d="M111 515L115 514L119 514L123 513L127 513L130 514L134 514L138 515L142 515L145 516L149 517L153 518L157 517L161 516L164 514L168 511L172 507L176 501L179 495L183 488L187 480L191 472L194 465L198 458L202 452L206 446L210 440L213 435L217 431L221 427L225 424L228 423L232 423L236 425L240 429L244 434L247 442L251 451L255 463L259 476L262 491L266 500L270 502L274 497L278 485L281 466L285 439L289 403L293 359L296 276L300 302L304 306L308 305L312 302L315 296L319 289L323 280L327 271L330 262L334 253L338 244L342 234L346 222L349 208L353 193L357 178L361 163L364 152L368 145L372 140L376 137L380 133L383 132L387 132L391 134L395 137L398 139L402 138L406 133L410 124L413 115L417 107L421 96L425 84L429 69L432 54L436 41L440 35L444 38L447 47L451 59L455 70L459 81L463 90L466 99L470 108L474 116L478 122L481 125L485 124L489 123L493 121L497 118L500 115L504 110L508 106L512 101L515 97L519 93L523 90L527 88L531 86L534 85L538 86L542 88L546 89L549 90" fill="none" stroke-width="1.5"></path><g fill="#3360a9"><circle cx="111" cy="515" r="2"></circle><circle cx="115" cy="514" r="2"></circle><circle cx="119" cy="514" r="2"></circle><circle cx="123" cy="513" r="2"></circle><circle cx="127" cy="513" r="2"></circle><circle cx="130" cy="514" r="2"></circle><circle cx="134" cy="514" r="2"></circle><circle cx="138" cy="515" r="2"></circle><circle cx="142" cy="515" r="2"></circle><circle cx="145" cy="516" r="2"></circle><circle cx="149" cy="517" r="2"></circle><circle cx="153" cy="518" r="2"></circle><circle cx="157" cy="517" r="2"></circle><circle cx="161" cy="516" r="2"></circle><circle cx="164" cy="514" r="2"></circle><circle cx="168" cy="511" r="2"></circle><circle cx="172" cy="507" r="2"></circle><circle cx="176" cy="501" r="2"></circle><circle cx="179" cy="495" r="2"></circle><circle cx="183" cy="488" r="2"></circle><circle cx="187" cy="480" r="2"></circle><circle cx="191" cy="472" r="2"></circle><circle cx="194" cy="465" r="2"></circle><circle cx="198" cy="458" r="2"></circle><circle cx="202" cy="452" r="2"></circle><circle cx="206" cy="446" r="2"></circle><circle cx="210" cy="440" r="2"></circle><circle cx="213" cy="435" r="2"></circle><circle cx="217" cy="431" r="2"></circle><circle cx="221" cy="427" r="2"></circle><circle cx="225" cy="424" r="2"></circle><circle cx="228" cy="423" r="2"></circle><circle cx="232" cy="423" r="2"></circle><circle cx="236" cy="425" r="2"></circle><circle cx="240" cy="429" r="2"></circle><circle cx="244" cy="434" r="2"></circle><circle cx="247" cy="442" r="2"></circle><circle cx="251" cy="451" r="2"></circle><circle cx="255" cy="463" r="2"></circle><circle cx="259" cy="476" r="2"></circle><circle cx="262" cy="491" r="2"></circle><circle cx="266" cy="500" r="2"></circle><circle cx="270" cy="502" r="2"></circle><circle cx="274" cy="497" r="2"></circle><circle cx="278" cy="485" r="2"></circle><circle cx="281" cy="466" r="2"></circle><circle cx="285" cy="439" r="2"></circle><circle cx="289" cy="403" r="2"></circle><circle cx="293" cy="359" r="2"></circle><circle cx="296" cy="276" r="2"></circle><circle cx="300" cy="302" r="2"></circle><circle cx="304" cy="306" r="2"></circle><circle cx="308" cy="305" r="2"></circle><circle cx="312" cy="302" r="2"></circle><circle cx="315" cy="296" r="2"></circle><circle cx="319" cy="289" r="2"></circle><circle cx="323" cy="280" r="2"></circle><circle cx="327" cy="271" r="2"></circle><circle cx="330" cy="262" r="2"></circle><circle cx="334" cy="253" r="2"></circle><circle cx="338" cy="244" r="2"></circle><circle cx="342" cy="234" r="2"></circle><circle cx="346" cy="222" r="2"></circle><circle cx="349" cy="208" r="2"></circle><circle cx="353" cy="193" r="2"></circle><circle cx="357" cy="178" r="2"></circle><circle cx="361" cy="163" r="2"></circle><circle cx="364" cy="152" r="2"></circle><circle cx="368" cy="145" r="2"></circle><circle cx="372" cy="140" r="2"></circle><circle cx="376" cy="137" r="2"></circle><circle cx="380" cy="133" r="2"></circle><circle cx="383" cy="132" r="2"></circle><circle cx="387" cy="132" r="2"></circle><circle cx="391" cy="134" r="2"></circle><circle cx="395" cy="137" r="2"></circle><circle cx="398" cy="139" r="2"></circle><circle cx="402" cy="138" r="2"></circle><circle cx="406" cy="133" r="2"></circle><circle cx="410" cy="124" r="2"></circle><circle cx="413" cy="115" r="2"></circle><circle cx="417" cy="107" r="2"></circle><circle cx="421" cy="96" r="2"></circle><circle cx="425" cy="84" r="2"></circle><circle cx="429" cy="69" r="2"></circle><circle cx="432" cy="54" r="2"></circle><circle cx="436" cy="41" r="2"></circle><circle cx="440" cy="35" r="2"></circle><circle cx="444" cy="38" r="2"></circle><circle cx="447" cy="47" r="2"></circle><circle cx="451" cy="59" r="2"></circle><circle cx="455" cy="70" r="2"></circle><circle cx="459" cy="81" r="2"></circle><circle cx="463" cy="90" r="2"></circle><circle cx="466" cy="99" r="2"></circle><circle cx="470" cy="108" r="2"></circle><circle cx="474" cy="116" r="2"></circle><circle cx="478" cy="122" r="2"></circle><circle cx="481" cy="125" r="2"></circle><circle cx="485" cy="124" r="2"></circle><circle cx="489" cy="123" r="2"></circle><circle cx="493" cy="121" r="2"></circle><circle cx="497" cy="118" r="2"></circle><circle cx="500" cy="115" r="2"></circle><circle cx="504" cy="110" r="2"></circle><circle cx="508" cy="106" r="2"></circle><circle cx="512" cy="101" r="2"></circle><circle cx="515" cy="97" r="2"></circle><circle cx="519" cy="93" r="2"></circle><circle cx="523" cy="90" r="2"></circle><circle cx="527" cy="88" r="2"></circle><circle cx="531" cy="86" r="2"></circle><circle cx="534" cy="85" r="2"></circle><circle cx="538" cy="86" r="2"></circle><circle cx="542" cy="88" r="2"></circle><circle cx="546" cy="89" r="2"></circle><circle cx="549" cy="90" r="2"></circle></g></g><g class="key-World_1"><path stroke="#3360a9" stroke-linecap="round" d="M553 94L557 99L561 104L565 109L568 115L572 121L576 126L580 132L583 138L587 143L591 149L595 155L599 160L602 166L606 171L610 177L614 182L617 188L621 194L625 199L629 205L633 210L636 215L640 221L644 226L648 232L651 238L655 244L659 250L663 256L666 262L670 269L674 275L678 282L682 289L685 295L689 302L693 308L697 315L700 321L704 328L708 334L712 339L716 345L719 350L723 356L727 361L731 366L734 371L738 375L742 380L746 385L750 389L753 394L757 398L761 403L765 408L768 412L772 417L776 421L780 426L784 430L787 434L791 438L795 442L799 446L802 450L806 454L810 458L814 461L818 465L821 469L825 473L829 476L833 480L836 484L840 488L844 492L848 496L852 500L855 504L859 509L863 513" fill="none" stroke-width="1.5" stroke-dasharray="1,4"></path></g></g></g></g></g></svg>