<svg xmlns="http://www.w3.org/2000/svg" version="1.1" style="font-family: 'Helvetica Neue', Helvetica, Arial, sans-serif; font-size: 18px; background-color: white; text-rendering: optimizeLegibility; -webkit-font-smoothing: antialiased;" width="850" height="600"><g class="ChartTab"><g class="HeaderView"><g opacity="0.8" transform="translate(770, 15) scale(0.31)"><a xmlns:xlink="http://www.w3.org/1999/xlink" xlink:href="https://ourworldindata.org" target="_blank"><g><rect x="0" y="0" fill="#1B2543" width="211.2" height="130.1"/><rect x="0" y="112.2" fill="#E63912" width="211.2" height="17.9"/><g><rect x="1.2" y="12.3" fill="none" width="210.2" height="99.2"/><path fill="#FFFFFF" d="M37.8,32.2c0,12.7-7.7,19.4-17.1,19.4c-9.7,0-16.6-7.5-16.6-18.7c0-11.7,7.3-19.3,17.1-19.3 C31.3,13.7,37.8,21.3,37.8,32.2z M9.2,32.8c0,7.9,4.3,14.9,11.8,14.9c7.5,0,11.8-6.9,11.8-15.3c0-7.3-3.8-14.9-11.8-14.9 C13.1,17.5,9.2,24.8,9.2,32.8z"/><path fill="#FFFFFF" d="M62.7,43.8c0,2.7,0.1,5.1,0.2,7.2h-4.3l-0.3-4.3h-0.1c-1.3,2.1-4,4.9-8.8,4.9c-4.2,0-9.1-2.3-9.1-11.6 V24.6h4.8v14.6c0,5,1.5,8.4,5.9,8.4c3.2,0,5.5-2.2,6.3-4.4c0.3-0.7,0.4-1.6,0.4-2.5V24.6h4.8V43.8z"/><path fill="#FFFFFF" d="M67.3,32.8c0-3.1-0.1-5.8-0.2-8.2h4.2l0.2,5.2h0.2c1.2-3.5,4.1-5.8,7.3-5.8c0.5,0,0.9,0.1,1.4,0.2v4.5 c-0.5-0.1-1-0.2-1.6-0.2c-3.4,0-5.8,2.6-6.5,6.2c-0.1,0.7-0.2,1.4-0.2,2.2V51h-4.8V32.8z"/><path fill="#FFFFFF" d="M95.4,51l-9.4-36.8h5l4.4,18.6c1.1,4.6,2.1,9.2,2.7,12.7h0.1c0.6-3.7,1.8-8,3-12.8l4.9-18.5h5l4.5,18.7 c1,4.4,2,8.7,2.6,12.6h0.1c0.8-4,1.8-8.1,3-12.7l4.9-18.5h4.9L120.6,51h-5L111,31.9c-1.1-4.7-1.9-8.3-2.4-12h-0.1 c-0.7,3.7-1.5,7.3-2.8,12L100.4,51H95.4z"/><path fill="#FFFFFF" d="M154.9,37.6c0,9.8-6.8,14-13.2,14c-7.2,0-12.7-5.2-12.7-13.6c0-8.8,5.8-14,13.1-14 C149.8,24,154.9,29.5,154.9,37.6z M133.9,37.9c0,5.8,3.3,10.1,8,10.1c4.6,0,8-4.3,8-10.3c0-4.5-2.2-10.1-7.9-10.1 C136.3,27.6,133.9,32.8,133.9,37.9z"/><path fill="#FFFFFF" d="M158.2,32.8c0-3.1-0.1-5.8-0.2-8.2h4.2l0.2,5.2h0.2c1.2-3.5,4.1-5.8,7.3-5.8c0.5,0,0.9,0.1,1.4,0.2v4.5 c-0.5-0.1-1-0.2-1.6-0.2c-3.4,0-5.8,2.6-6.5,6.2c-0.1,0.7-0.2,1.4-0.2,2.2V51h-4.8V32.8z"/><path fill="#FFFFFF" d="M173.5,12.3h4.8V51h-4.8V12.3z"/><path fill="#FFFFFF" d="M206.5,12.3v31.9c0,2.3,0.1,5,0.2,6.8h-4.3l-0.2-4.6H202c-1.5,2.9-4.7,5.2-9,5.2 c-6.4,0-11.3-5.4-11.3-13.4c-0.1-8.8,5.4-14.2,11.9-14.2c4,0,6.8,1.9,8,4h0.1V12.3H206.5z M201.7,35.4c0-0.6-0.1-1.4-0.2-2 c-0.7-3.1-3.3-5.6-6.9-5.6c-5,0-7.9,4.4-7.9,10.2c0,5.3,2.6,9.8,7.8,9.8c3.2,0,6.2-2.1,7.1-5.7c0.2-0.7,0.2-1.3,0.2-2.1V35.4z"/><path fill="#FFFFFF" d="M42.8,64c0.1,1.6-1.1,2.9-3.1,2.9c-1.7,0-2.9-1.3-2.9-2.9c0-1.7,1.3-3,3-3C41.7,61,42.8,62.3,42.8,64z M37.4,97.8V71.4h4.8v26.4H37.4z"/><path fill="#FFFFFF" d="M47.5,78.6c0-2.7-0.1-5-0.2-7.1h4.3l0.3,4.4h0.1c1.3-2.5,4.4-5,8.8-5c3.7,0,9.4,2.2,9.4,11.2v15.8h-4.8 V82.6c0-4.3-1.6-7.8-6.1-7.8c-3.2,0-5.6,2.2-6.5,4.9c-0.2,0.6-0.3,1.4-0.3,2.2v15.9h-4.8V78.6z"/><path fill="#FFFFFF" d="M84,61.6c2.9-0.4,6.3-0.8,10.1-0.8c6.8,0,11.7,1.6,14.9,4.6c3.3,3,5.2,7.3,5.2,13.2c0,6-1.9,10.9-5.3,14.3 c-3.4,3.4-9.1,5.3-16.3,5.3c-3.4,0-6.2-0.2-8.6-0.4V61.6z M88.8,94.1c1.2,0.2,3,0.3,4.8,0.3c10.2,0,15.7-5.7,15.7-15.6 c0.1-8.7-4.9-14.2-14.9-14.2c-2.5,0-4.3,0.2-5.6,0.5V94.1z"/><path fill="#FFFFFF" d="M132.1,97.8l-0.4-3.3h-0.2c-1.5,2.1-4.3,3.9-8.1,3.9c-5.4,0-8.1-3.8-8.1-7.6c0-6.4,5.7-9.9,15.9-9.8v-0.5 c0-2.2-0.6-6.1-6-6.1c-2.5,0-5,0.8-6.9,2l-1.1-3.2c2.2-1.4,5.4-2.3,8.7-2.3c8.1,0,10.1,5.5,10.1,10.8v9.9c0,2.3,0.1,4.5,0.4,6.3 H132.1z M131.4,84.4c-5.3-0.1-11.2,0.8-11.2,5.9c0,3.1,2.1,4.6,4.5,4.6c3.4,0,5.6-2.2,6.4-4.4c0.2-0.5,0.3-1,0.3-1.5V84.4z"/><path fill="#FFFFFF" d="M146.6,63.9v7.6h6.9v3.7h-6.9v14.2c0,3.3,0.9,5.1,3.6,5.1c1.3,0,2.2-0.2,2.8-0.3l0.2,3.6 c-0.9,0.4-2.4,0.7-4.3,0.7c-2.2,0-4-0.7-5.2-2c-1.4-1.4-1.9-3.8-1.9-6.9V75.1h-4.1v-3.7h4.1v-6.3L146.6,63.9z"/><path fill="#FFFFFF" d="M171.4,97.8l-0.4-3.3h-0.2c-1.5,2.1-4.3,3.9-8.1,3.9c-5.4,0-8.1-3.8-8.1-7.6c0-6.4,5.7-9.9,15.9-9.8v-0.5 c0-2.2-0.6-6.1-6-6.1c-2.5,0-5,0.8-6.9,2l-1.1-3.2c2.2-1.4,5.4-2.3,8.7-2.3c8.1,0,10.1,5.5,10.1,10.8v9.9c0,2.3,0.1,4.5,0.4,6.3 H171.4z M170.7,84.4c-5.3-0.1-11.2,0.8-11.2,5.9c0,3.1,2.1,4.6,4.5,4.6c3.4,0,5.6-2.2,6.4-4.4c0.2-0.5,0.3-1,0.3-1.5V84.4z"/></g></g></a></g><a href="https://ourworldindata.org/grapher/agricultural-area-per-capita" target="_blank"><text font-size="27.00" x="15.0" y="36.6" fill="#555"><tspan x="15" y="36.6">Agricultural area per capita</tspan></text></a><text font-size="14.40" x="15.0" y="55.5" fill="#666"><tspan x="15" y="55.519999999999996">Agricultural land area per capita, measured in hectares per person. The UN Food and Agricultural Organization</tspan><tspan x="15" y="71.36">define 'agricultural area' as the sum of arable land, permanent crops, permanent meadows and pastures.</tspan></text></g><g class="LineChart"><defs><clipPath id="boundsClip-59"><rect x="99.586" y="0" width="830" height="925.2"></rect></clipPath></defs><g class="AxisBoxView"><g class="HorizontalAxis"><text x="109.6" y="556.5" fill="#666" text-anchor="middle" font-size="16.2">1961</text><text x="211.2" y="556.5" fill="#666" text-anchor="middle" font-size="16.2">1970</text><text x="324.2" y="556.5" fill="#666" text-anchor="middle" font-size="16.2">1980</text><text x="437.2" y="556.5" fill="#666" text-anchor="middle" font-size="16.2">1990</text><text x="550.1" y="556.5" fill="#666" text-anchor="middle" font-size="16.2">2000</text><text x="697" y="556.5" fill="#666" text-anchor="middle" font-size="16.2">2013</text></g><g class="VerticalAxis"><text x="104.59" y="535.3" fill="#666" dominant-baseline="middle" text-anchor="end" font-size="16.2">0 hectares</text><text x="104.59" y="478" fill="#666" dominant-baseline="middle" text-anchor="end" font-size="16.2">0.5 hectares</text><text x="104.59" y="420.7" fill="#666" dominant-baseline="middle" text-anchor="end" font-size="16.2">1 hectares</text><text x="104.59" y="363.3" fill="#666" dominant-baseline="middle" text-anchor="end" font-size="16.2">1.5 hectares</text><text x="104.59" y="306" fill="#666" dominant-baseline="middle" text-anchor="end" font-size="16.2">2 hectares</text><text x="104.59" y="248.7" fill="#666" dominant-baseline="middle" text-anchor="end" font-size="16.2">2.5 hectares</text><text x="104.59" y="191.4" fill="#666" dominant-baseline="middle" text-anchor="end" font-size="16.2">3 hectares</text><text x="104.59" y="134.1" fill="#666" dominant-baseline="middle" text-anchor="end" font-size="16.2">3.5 hectares</text></g><g class="AxisGridLines"><line x1="109.59" y1="535.3" x2="696.96" y2="535.3" stroke="#ccc"></line><line x1="109.59" y1="478" x2="696.96" y2="478" stroke="#ddd" stroke-dasharray="3,2"></line><line x1="109.59" y1="420.7" x2="696.96" y2="420.7" stroke="#ddd" stroke-dasharray="3,2"></line><line x1="109.59" y1="363.3" x2="696.96" y2="363.3" stroke="#ddd" stroke-dasharray="3,2"></line><line x1="109.59" y1="306" x2="696.96" y2="306" stroke="#ddd" stroke-dasharray="3,2"></line><line x1="109.59" y1="248.7" x2="696.96" y2="248.7" stroke="#ddd" stroke-dasharray="3,2"></line><line x1="109.59" y1="191.4" x2="696.96" y2="191.4" stroke="#ddd" stroke-dasharray="3,2"></line><line x1="109.59" y1="134.1" x2="696.96" y2="134.1" stroke="#ddd" stroke-dasharray="3,2"></line></g><g class="AxisGridLines"><line x1="211.2" y1="535.30" x2="211.2" y2="93.90" stroke="#ddd" stroke-dasharray="3,2"></line><line x1="324.2" y1="535.30" x2="324.2" y2="93.90" stroke="#ddd" stroke-dasharray="3,2"></line><line x1="437.2" y1="535.30" x2="437.2" y2="93.90" stroke="#ddd" stroke-dasharray="3,2"></line><line x1="550.1" y1="535.30" x2="550.1" y2="93.90" stroke="#ddd" stroke-dasharray="3,2"></line><line x1="663.1" y1="535.30" x2="663.1" y2="93.90" stroke="#ddd" stroke-dasharray="3,2"></line></g></g><g clip-path="url(#boundsClip-59)"><g class="HeightedLegend clickable"><g class="legendMark"><rect x="706.96" y="353.6" width="109.75200000000001" height="14.4" fill="#fff" opacity="0"></rect><rect x="706.96" y="359.55" width="10" height="2.5" fill="#df3c64"></rect><text font-size="14.40" x="722.0" y="365.1" fill="#333"><tspan x="721.96" y="365.12">South America</tspan></text></g><g class="legendMark"><rect x="706.96" y="376" width="128.04000000000002" height="14.4" fill="#fff" opacity="0"></rect><rect x="706.96" y="381.95" width="10" height="2.5" fill="#ed6c2d"></rect><text font-size="14.40" x="722.0" y="387.5" fill="#333"><tspan x="721.96" y="387.52">Northern America</tspan></text></g><g class="legendMark"><rect x="706.96" y="397.8" width="51.864000000000004" height="14.4" fill="#fff" opacity="0"></rect><rect x="706.96" y="403.75" width="10" height="2.5" fill="#3360a9"></rect><text font-size="14.40" x="722.0" y="409.3" fill="#333"><tspan x="721.96" y="409.32">Africa</tspan></text></g><g class="legendMark"><rect x="706.96" y="448.1" width="52.584" height="14.4" fill="#fff" opacity="0"></rect><rect x="706.96" y="454.05" width="10" height="2.5" fill="#ca2628"></rect><text font-size="14.40" x="722.0" y="459.6" fill="#333"><tspan x="721.96" y="459.62">World</tspan></text></g><g class="legendMark"><rect x="706.96" y="483" width="96.936" height="14.4" fill="#fff" opacity="0"></rect><rect x="706.96" y="488.95" width="10" height="2.5" fill="#b077b1"></rect><text font-size="14.40" x="722.0" y="494.5" fill="#333"><tspan x="721.96" y="494.52">Eastern Asia</tspan></text></g><g class="legendMark"><rect x="706.96" y="497.4" width="119.54400000000001" height="14.4" fill="#fff" opacity="0"></rect><rect x="706.96" y="503.34999999999997" width="10" height="2.5" fill="#34983f"></rect><text font-size="14.40" x="722.0" y="508.9" fill="#333"><tspan x="721.96" y="508.91999999999996">European Union</tspan></text></g><g class="legendMark"><rect x="706.96" y="511.79999999999995" width="105.864" height="14.4" fill="#fff" opacity="0"></rect><rect x="706.96" y="517.75" width="10" height="2.5" fill="#7ec7ce"></rect><text font-size="14.40" x="722.0" y="523.3" fill="#333"><tspan x="721.96" y="523.3199999999999">Southern Asia</tspan></text></g></g><g class="Lines"><rect x="110" y="94" width="587" height="441" fill="rgba(255,255,255,0)" opacity="0"></rect><g class="key-Southern-Asia_0"><path stroke="#7ec7ce" stroke-linecap="round" d="M110 474L121 475L132 477L144 478L155 479L166 480L177 481L189 482L200 484L211 485L223 486L234 487L245 488L256 489L268 490L279 491L290 492L302 493L313 494L324 495L336 496L347 497L358 498L369 499L381 499L392 500L403 501L415 502L426 502L437 503L449 504L460 504L471 505L482 506L494 506L505 507L516 507L528 508L539 508L550 509L561 509L573 510L584 510L595 510L607 512L618 512L629 513L641 513L652 513L663 514L674 514L686 514L697 515" fill="none" stroke-width="1.5"></path><g fill="#7ec7ce"><circle cx="110" cy="474" r="2"></circle><circle cx="121" cy="475" r="2"></circle><circle cx="132" cy="477" r="2"></circle><circle cx="144" cy="478" r="2"></circle><circle cx="155" cy="479" r="2"></circle><circle cx="166" cy="480" r="2"></circle><circle cx="177" cy="481" r="2"></circle><circle cx="189" cy="482" r="2"></circle><circle cx="200" cy="484" r="2"></circle><circle cx="211" cy="485" r="2"></circle><circle cx="223" cy="486" r="2"></circle><circle cx="234" cy="487" r="2"></circle><circle cx="245" cy="488" r="2"></circle><circle cx="256" cy="489" r="2"></circle><circle cx="268" cy="490" r="2"></circle><circle cx="279" cy="491" r="2"></circle><circle cx="290" cy="492" r="2"></circle><circle cx="302" cy="493" r="2"></circle><circle cx="313" cy="494" r="2"></circle><circle cx="324" cy="495" r="2"></circle><circle cx="336" cy="496" r="2"></circle><circle cx="347" cy="497" r="2"></circle><circle cx="358" cy="498" r="2"></circle><circle cx="369" cy="499" r="2"></circle><circle cx="381" cy="499" r="2"></circle><circle cx="392" cy="500" r="2"></circle><circle cx="403" cy="501" r="2"></circle><circle cx="415" cy="502" r="2"></circle><circle cx="426" cy="502" r="2"></circle><circle cx="437" cy="503" r="2"></circle><circle cx="449" cy="504" r="2"></circle><circle cx="460" cy="504" r="2"></circle><circle cx="471" cy="505" r="2"></circle><circle cx="482" cy="506" r="2"></circle><circle cx="494" cy="506" r="2"></circle><circle cx="505" cy="507" r="2"></circle><circle cx="516" cy="507" r="2"></circle><circle cx="528" cy="508" r="2"></circle><circle cx="539" cy="508" r="2"></circle><circle cx="550" cy="509" r="2"></circle><circle cx="561" cy="509" r="2"></circle><circle cx="573" cy="510" r="2"></circle><circle cx="584" cy="510" r="2"></circle><circle cx="595" cy="510" r="2"></circle><circle cx="607" cy="512" r="2"></circle><circle cx="618" cy="512" r="2"></circle><circle cx="629" cy="513" r="2"></circle><circle cx="641" cy="513" r="2"></circle><circle cx="652" cy="513" r="2"></circle><circle cx="663" cy="514" r="2"></circle><circle cx="674" cy="514" r="2"></circle><circle cx="686" cy="514" r="2"></circle><circle cx="697" cy="515" r="2"></circle></g></g><g class="key-Eastern-Asia_0"><path stroke="#b077b1" stroke-linecap="round" d="M110 465L121 466L132 466L144 467L155 468L166 469L177 471L189 472L200 473L211 474L223 475L234 476L245 476L256 477L268 478L279 479L290 480L302 480L313 480L324 481L336 481L347 481L358 480L369 480L381 480L392 480L403 481L415 481L426 482L437 482L449 482L460 483L471 483L482 484L494 484L505 484L516 484L528 484L539 485L550 485L561 485L573 486L584 487L595 488L607 488L618 488L629 489L641 489L652 489L663 489L674 490L686 490L697 490" fill="none" stroke-width="1.5"></path><g fill="#b077b1"><circle cx="110" cy="465" r="2"></circle><circle cx="121" cy="466" r="2"></circle><circle cx="132" cy="466" r="2"></circle><circle cx="144" cy="467" r="2"></circle><circle cx="155" cy="468" r="2"></circle><circle cx="166" cy="469" r="2"></circle><circle cx="177" cy="471" r="2"></circle><circle cx="189" cy="472" r="2"></circle><circle cx="200" cy="473" r="2"></circle><circle cx="211" cy="474" r="2"></circle><circle cx="223" cy="475" r="2"></circle><circle cx="234" cy="476" r="2"></circle><circle cx="245" cy="476" r="2"></circle><circle cx="256" cy="477" r="2"></circle><circle cx="268" cy="478" r="2"></circle><circle cx="279" cy="479" r="2"></circle><circle cx="290" cy="480" r="2"></circle><circle cx="302" cy="480" r="2"></circle><circle cx="313" cy="480" r="2"></circle><circle cx="324" cy="481" r="2"></circle><circle cx="336" cy="481" r="2"></circle><circle cx="347" cy="481" r="2"></circle><circle cx="358" cy="480" r="2"></circle><circle cx="369" cy="480" r="2"></circle><circle cx="381" cy="480" r="2"></circle><circle cx="392" cy="480" r="2"></circle><circle cx="403" cy="481" r="2"></circle><circle cx="415" cy="481" r="2"></circle><circle cx="426" cy="482" r="2"></circle><circle cx="437" cy="482" r="2"></circle><circle cx="449" cy="482" r="2"></circle><circle cx="460" cy="483" r="2"></circle><circle cx="471" cy="483" r="2"></circle><circle cx="482" cy="484" r="2"></circle><circle cx="494" cy="484" r="2"></circle><circle cx="505" cy="484" r="2"></circle><circle cx="516" cy="484" r="2"></circle><circle cx="528" cy="484" r="2"></circle><circle cx="539" cy="485" r="2"></circle><circle cx="550" cy="485" r="2"></circle><circle cx="561" cy="485" r="2"></circle><circle cx="573" cy="486" r="2"></circle><circle cx="584" cy="487" r="2"></circle><circle cx="595" cy="488" r="2"></circle><circle cx="607" cy="488" r="2"></circle><circle cx="618" cy="488" r="2"></circle><circle cx="629" cy="489" r="2"></circle><circle cx="641" cy="489" r="2"></circle><circle cx="652" cy="489" r="2"></circle><circle cx="663" cy="489" r="2"></circle><circle cx="674" cy="490" r="2"></circle><circle cx="686" cy="490" r="2"></circle><circle cx="697" cy="490" r="2"></circle></g></g><g class="key-Northern-America_0"><path stroke="#ed6c2d" stroke-linecap="round" d="M110 250L121 256L132 261L144 266L155 271L166 274L177 277L189 280L200 283L211 286L223 289L234 292L245 295L256 297L268 300L279 302L290 304L302 308L313 310L324 313L336 315L347 316L358 318L369 320L381 322L392 324L403 328L415 330L426 332L437 334L449 336L460 339L471 342L482 345L494 347L505 351L516 354L528 356L539 358L550 360L561 362L573 364L584 365L595 368L607 369L618 372L629 373L641 374L652 377L663 379L674 382L686 381L697 383" fill="none" stroke-width="1.5"></path><g fill="#ed6c2d"><circle cx="110" cy="250" r="2"></circle><circle cx="121" cy="256" r="2"></circle><circle cx="132" cy="261" r="2"></circle><circle cx="144" cy="266" r="2"></circle><circle cx="155" cy="271" r="2"></circle><circle cx="166" cy="274" r="2"></circle><circle cx="177" cy="277" r="2"></circle><circle cx="189" cy="280" r="2"></circle><circle cx="200" cy="283" r="2"></circle><circle cx="211" cy="286" r="2"></circle><circle cx="223" cy="289" r="2"></circle><circle cx="234" cy="292" r="2"></circle><circle cx="245" cy="295" r="2"></circle><circle cx="256" cy="297" r="2"></circle><circle cx="268" cy="300" r="2"></circle><circle cx="279" cy="302" r="2"></circle><circle cx="290" cy="304" r="2"></circle><circle cx="302" cy="308" r="2"></circle><circle cx="313" cy="310" r="2"></circle><circle cx="324" cy="313" r="2"></circle><circle cx="336" cy="315" r="2"></circle><circle cx="347" cy="316" r="2"></circle><circle cx="358" cy="318" r="2"></circle><circle cx="369" cy="320" r="2"></circle><circle cx="381" cy="322" r="2"></circle><circle cx="392" cy="324" r="2"></circle><circle cx="403" cy="328" r="2"></circle><circle cx="415" cy="330" r="2"></circle><circle cx="426" cy="332" r="2"></circle><circle cx="437" cy="334" r="2"></circle><circle cx="449" cy="336" r="2"></circle><circle cx="460" cy="339" r="2"></circle><circle cx="471" cy="342" r="2"></circle><circle cx="482" cy="345" r="2"></circle><circle cx="494" cy="347" r="2"></circle><circle cx="505" cy="351" r="2"></circle><circle cx="516" cy="354" r="2"></circle><circle cx="528" cy="356" r="2"></circle><circle cx="539" cy="358" r="2"></circle><circle cx="550" cy="360" r="2"></circle><circle cx="561" cy="362" r="2"></circle><circle cx="573" cy="364" r="2"></circle><circle cx="584" cy="365" r="2"></circle><circle cx="595" cy="368" r="2"></circle><circle cx="607" cy="369" r="2"></circle><circle cx="618" cy="372" r="2"></circle><circle cx="629" cy="373" r="2"></circle><circle cx="641" cy="374" r="2"></circle><circle cx="652" cy="377" r="2"></circle><circle cx="663" cy="379" r="2"></circle><circle cx="674" cy="382" r="2"></circle><circle cx="686" cy="381" r="2"></circle><circle cx="697" cy="383" r="2"></circle></g></g><g class="key-World_0"><path stroke="#ca2628" stroke-linecap="round" d="M110 368L121 370L132 373L144 376L155 378L166 381L177 384L189 387L200 389L211 392L223 394L234 397L245 399L256 401L268 404L279 406L290 408L302 410L313 412L324 414L336 416L347 418L358 419L369 421L381 422L392 423L403 425L415 427L426 428L437 430L449 431L460 432L471 433L482 434L494 435L505 437L516 438L528 439L539 440L550 441L561 442L573 443L584 445L595 446L607 447L618 448L629 449L641 450L652 452L663 453L674 454L686 454L697 455" fill="none" stroke-width="1.5"></path><g fill="#ca2628"><circle cx="110" cy="368" r="2"></circle><circle cx="121" cy="370" r="2"></circle><circle cx="132" cy="373" r="2"></circle><circle cx="144" cy="376" r="2"></circle><circle cx="155" cy="378" r="2"></circle><circle cx="166" cy="381" r="2"></circle><circle cx="177" cy="384" r="2"></circle><circle cx="189" cy="387" r="2"></circle><circle cx="200" cy="389" r="2"></circle><circle cx="211" cy="392" r="2"></circle><circle cx="223" cy="394" r="2"></circle><circle cx="234" cy="397" r="2"></circle><circle cx="245" cy="399" r="2"></circle><circle cx="256" cy="401" r="2"></circle><circle cx="268" cy="404" r="2"></circle><circle cx="279" cy="406" r="2"></circle><circle cx="290" cy="408" r="2"></circle><circle cx="302" cy="410" r="2"></circle><circle cx="313" cy="412" r="2"></circle><circle cx="324" cy="414" r="2"></circle><circle cx="336" cy="416" r="2"></circle><circle cx="347" cy="418" r="2"></circle><circle cx="358" cy="419" r="2"></circle><circle cx="369" cy="421" r="2"></circle><circle cx="381" cy="422" r="2"></circle><circle cx="392" cy="423" r="2"></circle><circle cx="403" cy="425" r="2"></circle><circle cx="415" cy="427" r="2"></circle><circle cx="426" cy="428" r="2"></circle><circle cx="437" cy="430" r="2"></circle><circle cx="449" cy="431" r="2"></circle><circle cx="460" cy="432" r="2"></circle><circle cx="471" cy="433" r="2"></circle><circle cx="482" cy="434" r="2"></circle><circle cx="494" cy="435" r="2"></circle><circle cx="505" cy="437" r="2"></circle><circle cx="516" cy="438" r="2"></circle><circle cx="528" cy="439" r="2"></circle><circle cx="539" cy="440" r="2"></circle><circle cx="550" cy="441" r="2"></circle><circle cx="561" cy="442" r="2"></circle><circle cx="573" cy="443" r="2"></circle><circle cx="584" cy="445" r="2"></circle><circle cx="595" cy="446" r="2"></circle><circle cx="607" cy="447" r="2"></circle><circle cx="618" cy="448" r="2"></circle><circle cx="629" cy="449" r="2"></circle><circle cx="641" cy="450" r="2"></circle><circle cx="652" cy="452" r="2"></circle><circle cx="663" cy="453" r="2"></circle><circle cx="674" cy="454" r="2"></circle><circle cx="686" cy="454" r="2"></circle><circle cx="697" cy="455" r="2"></circle></g></g><g class="key-European-Union_0"><path stroke="#34983f" stroke-linecap="round" d="M110 472L121 473L132 474L144 475L155 475L166 476L177 476L189 477L200 477L211 478L223 479L234 480L245 480L256 481L268 481L279 482L290 482L302 482L313 482L324 483L336 483L347 483L358 484L369 484L381 484L392 484L403 485L415 485L426 485L437 486L449 487L460 486L471 486L482 487L494 487L505 487L516 487L528 488L539 488L550 488L561 489L573 490L584 490L595 491L607 491L618 491L629 492L641 492L652 492L663 493L674 493L686 493L697 493" fill="none" stroke-width="1.5"></path><g fill="#34983f"><circle cx="110" cy="472" r="2"></circle><circle cx="121" cy="473" r="2"></circle><circle cx="132" cy="474" r="2"></circle><circle cx="144" cy="475" r="2"></circle><circle cx="155" cy="475" r="2"></circle><circle cx="166" cy="476" r="2"></circle><circle cx="177" cy="476" r="2"></circle><circle cx="189" cy="477" r="2"></circle><circle cx="200" cy="477" r="2"></circle><circle cx="211" cy="478" r="2"></circle><circle cx="223" cy="479" r="2"></circle><circle cx="234" cy="480" r="2"></circle><circle cx="245" cy="480" r="2"></circle><circle cx="256" cy="481" r="2"></circle><circle cx="268" cy="481" r="2"></circle><circle cx="279" cy="482" r="2"></circle><circle cx="290" cy="482" r="2"></circle><circle cx="302" cy="482" r="2"></circle><circle cx="313" cy="482" r="2"></circle><circle cx="324" cy="483" r="2"></circle><circle cx="336" cy="483" r="2"></circle><circle cx="347" cy="483" r="2"></circle><circle cx="358" cy="484" r="2"></circle><circle cx="369" cy="484" r="2"></circle><circle cx="381" cy="484" r="2"></circle><circle cx="392" cy="484" r="2"></circle><circle cx="403" cy="485" r="2"></circle><circle cx="415" cy="485" r="2"></circle><circle cx="426" cy="485" r="2"></circle><circle cx="437" cy="486" r="2"></circle><circle cx="449" cy="487" r="2"></circle><circle cx="460" cy="486" r="2"></circle><circle cx="471" cy="486" r="2"></circle><circle cx="482" cy="487" r="2"></circle><circle cx="494" cy="487" r="2"></circle><circle cx="505" cy="487" r="2"></circle><circle cx="516" cy="487" r="2"></circle><circle cx="528" cy="488" r="2"></circle><circle cx="539" cy="488" r="2"></circle><circle cx="550" cy="488" r="2"></circle><circle cx="561" cy="489" r="2"></circle><circle cx="573" cy="490" r="2"></circle><circle cx="584" cy="490" r="2"></circle><circle cx="595" cy="491" r="2"></circle><circle cx="607" cy="491" r="2"></circle><circle cx="618" cy="491" r="2"></circle><circle cx="629" cy="492" r="2"></circle><circle cx="641" cy="492" r="2"></circle><circle cx="652" cy="492" r="2"></circle><circle cx="663" cy="493" r="2"></circle><circle cx="674" cy="493" r="2"></circle><circle cx="686" cy="493" r="2"></circle><circle cx="697" cy="493" r="2"></circle></g></g><g class="key-South-America_0"><path stroke="#df3c64" stroke-linecap="round" d="M110 202L121 207L132 212L144 218L155 223L166 229L177 234L189 238L200 239L211 245L223 247L234 252L245 256L256 260L268 263L279 268L290 272L302 277L313 281L324 285L336 290L347 293L358 298L369 302L381 306L392 309L403 312L415 316L426 319L437 321L449 324L460 327L471 329L482 332L494 333L505 335L516 337L528 340L539 342L550 345L561 348L573 350L584 351L595 351L607 352L618 353L629 354L641 355L652 357L663 358L674 359L686 361L697 361" fill="none" stroke-width="1.5"></path><g fill="#df3c64"><circle cx="110" cy="202" r="2"></circle><circle cx="121" cy="207" r="2"></circle><circle cx="132" cy="212" r="2"></circle><circle cx="144" cy="218" r="2"></circle><circle cx="155" cy="223" r="2"></circle><circle cx="166" cy="229" r="2"></circle><circle cx="177" cy="234" r="2"></circle><circle cx="189" cy="238" r="2"></circle><circle cx="200" cy="239" r="2"></circle><circle cx="211" cy="245" r="2"></circle><circle cx="223" cy="247" r="2"></circle><circle cx="234" cy="252" r="2"></circle><circle cx="245" cy="256" r="2"></circle><circle cx="256" cy="260" r="2"></circle><circle cx="268" cy="263" r="2"></circle><circle cx="279" cy="268" r="2"></circle><circle cx="290" cy="272" r="2"></circle><circle cx="302" cy="277" r="2"></circle><circle cx="313" cy="281" r="2"></circle><circle cx="324" cy="285" r="2"></circle><circle cx="336" cy="290" r="2"></circle><circle cx="347" cy="293" r="2"></circle><circle cx="358" cy="298" r="2"></circle><circle cx="369" cy="302" r="2"></circle><circle cx="381" cy="306" r="2"></circle><circle cx="392" cy="309" r="2"></circle><circle cx="403" cy="312" r="2"></circle><circle cx="415" cy="316" r="2"></circle><circle cx="426" cy="319" r="2"></circle><circle cx="437" cy="321" r="2"></circle><circle cx="449" cy="324" r="2"></circle><circle cx="460" cy="327" r="2"></circle><circle cx="471" cy="329" r="2"></circle><circle cx="482" cy="332" r="2"></circle><circle cx="494" cy="333" r="2"></circle><circle cx="505" cy="335" r="2"></circle><circle cx="516" cy="337" r="2"></circle><circle cx="528" cy="340" r="2"></circle><circle cx="539" cy="342" r="2"></circle><circle cx="550" cy="345" r="2"></circle><circle cx="561" cy="348" r="2"></circle><circle cx="573" cy="350" r="2"></circle><circle cx="584" cy="351" r="2"></circle><circle cx="595" cy="351" r="2"></circle><circle cx="607" cy="352" r="2"></circle><circle cx="618" cy="353" r="2"></circle><circle cx="629" cy="354" r="2"></circle><circle cx="641" cy="355" r="2"></circle><circle cx="652" cy="357" r="2"></circle><circle cx="663" cy="358" r="2"></circle><circle cx="674" cy="359" r="2"></circle><circle cx="686" cy="361" r="2"></circle><circle cx="697" cy="361" r="2"></circle></g></g><g class="key-Africa_0"><path stroke="#3360a9" stroke-linecap="round" d="M110 94L121 104L132 114L144 123L155 132L166 143L177 152L189 161L200 168L211 178L223 186L234 196L245 203L256 213L268 221L279 229L290 238L302 246L313 253L324 260L336 269L347 276L358 283L369 289L381 294L392 299L403 305L415 310L426 315L437 320L449 324L460 329L471 334L482 338L494 341L505 345L516 349L528 353L539 357L550 360L561 364L573 367L584 370L595 373L607 376L618 379L629 383L641 386L652 394L663 397L674 400L686 402L697 405" fill="none" stroke-width="1.5"></path><g fill="#3360a9"><circle cx="110" cy="94" r="2"></circle><circle cx="121" cy="104" r="2"></circle><circle cx="132" cy="114" r="2"></circle><circle cx="144" cy="123" r="2"></circle><circle cx="155" cy="132" r="2"></circle><circle cx="166" cy="143" r="2"></circle><circle cx="177" cy="152" r="2"></circle><circle cx="189" cy="161" r="2"></circle><circle cx="200" cy="168" r="2"></circle><circle cx="211" cy="178" r="2"></circle><circle cx="223" cy="186" r="2"></circle><circle cx="234" cy="196" r="2"></circle><circle cx="245" cy="203" r="2"></circle><circle cx="256" cy="213" r="2"></circle><circle cx="268" cy="221" r="2"></circle><circle cx="279" cy="229" r="2"></circle><circle cx="290" cy="238" r="2"></circle><circle cx="302" cy="246" r="2"></circle><circle cx="313" cy="253" r="2"></circle><circle cx="324" cy="260" r="2"></circle><circle cx="336" cy="269" r="2"></circle><circle cx="347" cy="276" r="2"></circle><circle cx="358" cy="283" r="2"></circle><circle cx="369" cy="289" r="2"></circle><circle cx="381" cy="294" r="2"></circle><circle cx="392" cy="299" r="2"></circle><circle cx="403" cy="305" r="2"></circle><circle cx="415" cy="310" r="2"></circle><circle cx="426" cy="315" r="2"></circle><circle cx="437" cy="320" r="2"></circle><circle cx="449" cy="324" r="2"></circle><circle cx="460" cy="329" r="2"></circle><circle cx="471" cy="334" r="2"></circle><circle cx="482" cy="338" r="2"></circle><circle cx="494" cy="341" r="2"></circle><circle cx="505" cy="345" r="2"></circle><circle cx="516" cy="349" r="2"></circle><circle cx="528" cy="353" r="2"></circle><circle cx="539" cy="357" r="2"></circle><circle cx="550" cy="360" r="2"></circle><circle cx="561" cy="364" r="2"></circle><circle cx="573" cy="367" r="2"></circle><circle cx="584" cy="370" r="2"></circle><circle cx="595" cy="373" r="2"></circle><circle cx="607" cy="376" r="2"></circle><circle cx="618" cy="379" r="2"></circle><circle cx="629" cy="383" r="2"></circle><circle cx="641" cy="386" r="2"></circle><circle cx="652" cy="394" r="2"></circle><circle cx="663" cy="397" r="2"></circle><circle cx="674" cy="400" r="2"></circle><circle cx="686" cy="402" r="2"></circle><circle cx="697" cy="405" r="2"></circle></g></g></g></g></g><g style="fill: #777;" class="SourcesFooter"><g style="fill: #777;" class="clickable"><text font-size="12.60" x="15.0" y="581.6"><tspan x="15" y="581.58">Source: Agricultural area per capita - FAO (2017)</tspan></text></g><text font-size="12.60" x="454.6" y="581.6"><tspan x="454.606" y="581.58"><a target='_blank' style='fill: #777;' href='https://ourworldindata.org/yields-and-land-use-in-agriculture/'>OurWorldInData.org/yields-and-land-use-in-agriculture/</a> • <a style="fill: #777;" href="http://creativecommons.org/licenses/by-sa/4.0/deed.en_US" target="_blank">CC BY-SA</a></tspan></text></g></g></svg>