<svg xmlns="http://www.w3.org/2000/svg" version="1.1" style="font-family: 'Helvetica Neue', Helvetica, Arial, sans-serif; font-size: 18px; background-color: white; text-rendering: optimizeLegibility; -webkit-font-smoothing: antialiased;" width="850" height="600"><g class="ChartTab"><g class="HeaderView"><g opacity="0.8" transform="translate(770, 15) scale(0.31)"><a xmlns:xlink="http://www.w3.org/1999/xlink" xlink:href="https://ourworldindata.org" target="_blank"><g><rect x="0" y="0" fill="#1B2543" width="211.2" height="130.1"/><rect x="0" y="112.2" fill="#E63912" width="211.2" height="17.9"/><g><rect x="1.2" y="12.3" fill="none" width="210.2" height="99.2"/><path fill="#FFFFFF" d="M37.8,32.2c0,12.7-7.7,19.4-17.1,19.4c-9.7,0-16.6-7.5-16.6-18.7c0-11.7,7.3-19.3,17.1-19.3 C31.3,13.7,37.8,21.3,37.8,32.2z M9.2,32.8c0,7.9,4.3,14.9,11.8,14.9c7.5,0,11.8-6.9,11.8-15.3c0-7.3-3.8-14.9-11.8-14.9 C13.1,17.5,9.2,24.8,9.2,32.8z"/><path fill="#FFFFFF" d="M62.7,43.8c0,2.7,0.1,5.1,0.2,7.2h-4.3l-0.3-4.3h-0.1c-1.3,2.1-4,4.9-8.8,4.9c-4.2,0-9.1-2.3-9.1-11.6 V24.6h4.8v14.6c0,5,1.5,8.4,5.9,8.4c3.2,0,5.5-2.2,6.3-4.4c0.3-0.7,0.4-1.6,0.4-2.5V24.6h4.8V43.8z"/><path fill="#FFFFFF" d="M67.3,32.8c0-3.1-0.1-5.8-0.2-8.2h4.2l0.2,5.2h0.2c1.2-3.5,4.1-5.8,7.3-5.8c0.5,0,0.9,0.1,1.4,0.2v4.5 c-0.5-0.1-1-0.2-1.6-0.2c-3.4,0-5.8,2.6-6.5,6.2c-0.1,0.7-0.2,1.4-0.2,2.2V51h-4.8V32.8z"/><path fill="#FFFFFF" d="M95.4,51l-9.4-36.8h5l4.4,18.6c1.1,4.6,2.1,9.2,2.7,12.7h0.1c0.6-3.7,1.8-8,3-12.8l4.9-18.5h5l4.5,18.7 c1,4.4,2,8.7,2.6,12.6h0.1c0.8-4,1.8-8.1,3-12.7l4.9-18.5h4.9L120.6,51h-5L111,31.9c-1.1-4.7-1.9-8.3-2.4-12h-0.1 c-0.7,3.7-1.5,7.3-2.8,12L100.4,51H95.4z"/><path fill="#FFFFFF" d="M154.9,37.6c0,9.8-6.8,14-13.2,14c-7.2,0-12.7-5.2-12.7-13.6c0-8.8,5.8-14,13.1-14 C149.8,24,154.9,29.5,154.9,37.6z M133.9,37.9c0,5.8,3.3,10.1,8,10.1c4.6,0,8-4.3,8-10.3c0-4.5-2.2-10.1-7.9-10.1 C136.3,27.6,133.9,32.8,133.9,37.9z"/><path fill="#FFFFFF" d="M158.2,32.8c0-3.1-0.1-5.8-0.2-8.2h4.2l0.2,5.2h0.2c1.2-3.5,4.1-5.8,7.3-5.8c0.5,0,0.9,0.1,1.4,0.2v4.5 c-0.5-0.1-1-0.2-1.6-0.2c-3.4,0-5.8,2.6-6.5,6.2c-0.1,0.7-0.2,1.4-0.2,2.2V51h-4.8V32.8z"/><path fill="#FFFFFF" d="M173.5,12.3h4.8V51h-4.8V12.3z"/><path fill="#FFFFFF" d="M206.5,12.3v31.9c0,2.3,0.1,5,0.2,6.8h-4.3l-0.2-4.6H202c-1.5,2.9-4.7,5.2-9,5.2 c-6.4,0-11.3-5.4-11.3-13.4c-0.1-8.8,5.4-14.2,11.9-14.2c4,0,6.8,1.9,8,4h0.1V12.3H206.5z M201.7,35.4c0-0.6-0.1-1.4-0.2-2 c-0.7-3.1-3.3-5.6-6.9-5.6c-5,0-7.9,4.4-7.9,10.2c0,5.3,2.6,9.8,7.8,9.8c3.2,0,6.2-2.1,7.1-5.7c0.2-0.7,0.2-1.3,0.2-2.1V35.4z"/><path fill="#FFFFFF" d="M42.8,64c0.1,1.6-1.1,2.9-3.1,2.9c-1.7,0-2.9-1.3-2.9-2.9c0-1.7,1.3-3,3-3C41.7,61,42.8,62.3,42.8,64z M37.4,97.8V71.4h4.8v26.4H37.4z"/><path fill="#FFFFFF" d="M47.5,78.6c0-2.7-0.1-5-0.2-7.1h4.3l0.3,4.4h0.1c1.3-2.5,4.4-5,8.8-5c3.7,0,9.4,2.2,9.4,11.2v15.8h-4.8 V82.6c0-4.3-1.6-7.8-6.1-7.8c-3.2,0-5.6,2.2-6.5,4.9c-0.2,0.6-0.3,1.4-0.3,2.2v15.9h-4.8V78.6z"/><path fill="#FFFFFF" d="M84,61.6c2.9-0.4,6.3-0.8,10.1-0.8c6.8,0,11.7,1.6,14.9,4.6c3.3,3,5.2,7.3,5.2,13.2c0,6-1.9,10.9-5.3,14.3 c-3.4,3.4-9.1,5.3-16.3,5.3c-3.4,0-6.2-0.2-8.6-0.4V61.6z M88.8,94.1c1.2,0.2,3,0.3,4.8,0.3c10.2,0,15.7-5.7,15.7-15.6 c0.1-8.7-4.9-14.2-14.9-14.2c-2.5,0-4.3,0.2-5.6,0.5V94.1z"/><path fill="#FFFFFF" d="M132.1,97.8l-0.4-3.3h-0.2c-1.5,2.1-4.3,3.9-8.1,3.9c-5.4,0-8.1-3.8-8.1-7.6c0-6.4,5.7-9.9,15.9-9.8v-0.5 c0-2.2-0.6-6.1-6-6.1c-2.5,0-5,0.8-6.9,2l-1.1-3.2c2.2-1.4,5.4-2.3,8.7-2.3c8.1,0,10.1,5.5,10.1,10.8v9.9c0,2.3,0.1,4.5,0.4,6.3 H132.1z M131.4,84.4c-5.3-0.1-11.2,0.8-11.2,5.9c0,3.1,2.1,4.6,4.5,4.6c3.4,0,5.6-2.2,6.4-4.4c0.2-0.5,0.3-1,0.3-1.5V84.4z"/><path fill="#FFFFFF" d="M146.6,63.9v7.6h6.9v3.7h-6.9v14.2c0,3.3,0.9,5.1,3.6,5.1c1.3,0,2.2-0.2,2.8-0.3l0.2,3.6 c-0.9,0.4-2.4,0.7-4.3,0.7c-2.2,0-4-0.7-5.2-2c-1.4-1.4-1.9-3.8-1.9-6.9V75.1h-4.1v-3.7h4.1v-6.3L146.6,63.9z"/><path fill="#FFFFFF" d="M171.4,97.8l-0.4-3.3h-0.2c-1.5,2.1-4.3,3.9-8.1,3.9c-5.4,0-8.1-3.8-8.1-7.6c0-6.4,5.7-9.9,15.9-9.8v-0.5 c0-2.2-0.6-6.1-6-6.1c-2.5,0-5,0.8-6.9,2l-1.1-3.2c2.2-1.4,5.4-2.3,8.7-2.3c8.1,0,10.1,5.5,10.1,10.8v9.9c0,2.3,0.1,4.5,0.4,6.3 H171.4z M170.7,84.4c-5.3-0.1-11.2,0.8-11.2,5.9c0,3.1,2.1,4.6,4.5,4.6c3.4,0,5.6-2.2,6.4-4.4c0.2-0.5,0.3-1,0.3-1.5V84.4z"/></g></g></a></g><a href="https://ourworldindata.org/grapher/air-pollution-london-vs-delhi" target="_blank"><text font-size="27.00" x="15.0" y="36.6" fill="#555"><tspan x="15" y="36.6">Air pollution, London vs. Delhi</tspan></text></a><text font-size="14.40" x="15.0" y="55.5" fill="#666"><tspan x="15" y="55.519999999999996">Average concentrations of suspended particulate matter (SPM), measured in micrograms per cubic metres in</tspan><tspan x="15" y="71.36">London over the long-term and Delhi's more recent past.</tspan></text></g><g class="LineChart"><defs><clipPath id="boundsClip-223"><rect x="37.216" y="0" width="830" height="925.2"></rect></clipPath></defs><g class="AxisBoxView"><g class="HorizontalAxis"><text x="47.2" y="556.5" fill="#666" text-anchor="middle" font-size="16.2">1700</text><text x="160.3" y="556.5" fill="#666" text-anchor="middle" font-size="16.2">1750</text><text x="273.3" y="556.5" fill="#666" text-anchor="middle" font-size="16.2">1800</text><text x="386.3" y="556.5" fill="#666" text-anchor="middle" font-size="16.2">1850</text><text x="499.4" y="556.5" fill="#666" text-anchor="middle" font-size="16.2">1900</text><text x="612.4" y="556.5" fill="#666" text-anchor="middle" font-size="16.2">1950</text><text x="761.6" y="556.5" fill="#666" text-anchor="middle" font-size="16.2">2016</text></g><g class="VerticalAxis"><text x="42.22" y="535.3" fill="#666" dominant-baseline="middle" text-anchor="end" font-size="16.2">0</text><text x="42.22" y="464.5" fill="#666" dominant-baseline="middle" text-anchor="end" font-size="16.2">100</text><text x="42.22" y="393.7" fill="#666" dominant-baseline="middle" text-anchor="end" font-size="16.2">200</text><text x="42.22" y="322.9" fill="#666" dominant-baseline="middle" text-anchor="end" font-size="16.2">300</text><text x="42.22" y="252.1" fill="#666" dominant-baseline="middle" text-anchor="end" font-size="16.2">400</text><text x="42.22" y="181.3" fill="#666" dominant-baseline="middle" text-anchor="end" font-size="16.2">500</text><text x="42.22" y="110.5" fill="#666" dominant-baseline="middle" text-anchor="end" font-size="16.2">600</text></g><g class="AxisGridLines"><line x1="47.22" y1="535.3" x2="761.62" y2="535.3" stroke="#ccc"></line><line x1="47.22" y1="464.5" x2="761.62" y2="464.5" stroke="#ddd" stroke-dasharray="3,2"></line><line x1="47.22" y1="393.7" x2="761.62" y2="393.7" stroke="#ddd" stroke-dasharray="3,2"></line><line x1="47.22" y1="322.9" x2="761.62" y2="322.9" stroke="#ddd" stroke-dasharray="3,2"></line><line x1="47.22" y1="252.1" x2="761.62" y2="252.1" stroke="#ddd" stroke-dasharray="3,2"></line><line x1="47.22" y1="181.3" x2="761.62" y2="181.3" stroke="#ddd" stroke-dasharray="3,2"></line><line x1="47.22" y1="110.5" x2="761.62" y2="110.5" stroke="#ddd" stroke-dasharray="3,2"></line></g><g class="AxisGridLines"><line x1="47.2" y1="535.30" x2="47.2" y2="93.90" stroke="#ddd" stroke-dasharray="3,2"></line><line x1="160.3" y1="535.30" x2="160.3" y2="93.90" stroke="#ddd" stroke-dasharray="3,2"></line><line x1="273.3" y1="535.30" x2="273.3" y2="93.90" stroke="#ddd" stroke-dasharray="3,2"></line><line x1="386.3" y1="535.30" x2="386.3" y2="93.90" stroke="#ddd" stroke-dasharray="3,2"></line><line x1="499.4" y1="535.30" x2="499.4" y2="93.90" stroke="#ddd" stroke-dasharray="3,2"></line><line x1="612.4" y1="535.30" x2="612.4" y2="93.90" stroke="#ddd" stroke-dasharray="3,2"></line><line x1="725.4" y1="535.30" x2="725.4" y2="93.90" stroke="#ddd" stroke-dasharray="3,2"></line></g></g><g clip-path="url(#boundsClip-223)"><g class="HeightedLegend clickable"><g class="legendMark"><rect x="771.616" y="187.5" width="47.832" height="14.4" fill="#fff" opacity="0"></rect><rect x="771.616" y="193.45" width="10" height="2.5" fill="#ca2628"></rect><text font-size="14.40" x="786.6" y="199.0" fill="#333"><tspan x="786.616" y="199.02">Delhi</tspan></text></g><g class="legendMark"><rect x="771.616" y="516.8" width="63.38400000000001" height="14.4" fill="#fff" opacity="0"></rect><rect x="771.616" y="522.75" width="10" height="2.5" fill="#3360a9"></rect><text font-size="14.40" x="786.6" y="528.3" fill="#333"><tspan x="786.616" y="528.3199999999999">London</tspan></text></g></g><g class="Lines"><rect x="47" y="94" width="714" height="441" fill="rgba(255,255,255,0)" opacity="0"></rect><g class="key-Delhi_0"><path stroke="#ca2628" stroke-linecap="round" d="M719 278L721 268L723 270L725 230L728 265L730 212L732 258L735 259L737 271L739 229L741 277L744 241L746 187L748 195" fill="none" stroke-width="1.5"></path><g fill="#ca2628"><circle cx="719" cy="278" r="2"></circle><circle cx="721" cy="268" r="2"></circle><circle cx="723" cy="270" r="2"></circle><circle cx="725" cy="230" r="2"></circle><circle cx="728" cy="265" r="2"></circle><circle cx="730" cy="212" r="2"></circle><circle cx="732" cy="258" r="2"></circle><circle cx="735" cy="259" r="2"></circle><circle cx="737" cy="271" r="2"></circle><circle cx="739" cy="229" r="2"></circle><circle cx="741" cy="277" r="2"></circle><circle cx="744" cy="241" r="2"></circle><circle cx="746" cy="187" r="2"></circle><circle cx="748" cy="195" r="2"></circle></g></g><g class="key-London_0"><path stroke="#3360a9" stroke-linecap="round" d="M47 351L50 350L52 348L54 346L56 344L59 342L61 340L63 339L65 337L68 335L70 333L72 331L74 329L77 328L79 326L81 324L83 322L86 320L88 318L90 316L92 315L95 313L97 311L99 309L102 307L104 305L106 305L108 304L111 303L113 302L115 301L117 300L120 299L122 298L124 297L126 296L129 295L131 294L133 293L135 293L138 292L140 291L142 290L144 289L147 288L149 287L151 286L154 285L156 284L158 283L160 282L163 282L165 282L167 281L169 281L172 280L174 280L176 279L178 279L181 278L183 278L185 277L187 277L190 276L192 276L194 276L196 275L199 275L201 274L203 274L206 273L208 273L210 272L212 272L215 271L217 271L219 271L221 270L224 270L226 269L228 269L230 268L233 268L235 267L237 267L239 266L242 266L244 265L246 265L248 265L251 264L253 264L255 263L258 263L260 262L262 262L264 261L267 261L269 260L271 260L273 259L276 257L278 255L280 252L282 250L285 248L287 245L289 243L291 240L294 238L296 236L298 233L300 231L303 228L305 226L307 224L310 221L312 219L314 216L316 214L319 212L321 209L323 207L325 204L328 202L330 200L332 197L334 195L337 193L339 190L341 188L343 185L346 183L348 181L350 178L352 176L355 173L357 171L359 169L362 166L364 164L366 161L368 159L371 157L373 154L375 152L377 149L380 147L382 145L384 142L386 140L389 139L391 138L393 138L395 137L398 136L400 136L402 135L404 134L407 133L409 133L411 132L414 131L416 130L418 130L420 129L423 128L425 127L427 127L429 126L432 125L434 124L436 124L438 123L441 122L443 122L445 120L447 118L450 116L452 115L454 113L456 111L459 109L461 108L463 106L466 104L468 103L470 101L472 99L475 97L477 96L479 94L481 98L484 102L486 106L488 110L490 114L493 118L495 123L497 127L499 131L502 131L504 131L506 131L508 132L511 132L513 132L515 132L518 132L520 133L522 133L524 133L527 133L529 136L531 142L533 148L536 154L538 160L540 166L542 171L545 177L547 183L549 189L551 195L554 201L556 246L558 278L560 280L563 282L565 280L567 279L570 278L572 265L574 252L576 250L579 246L581 248L583 251L585 252L588 263L590 275L592 286L594 297L597 308L599 320L601 331L603 342L606 354L608 365L610 376L612 387L615 390L617 393L619 396L621 399L624 402L626 405L628 408L631 411L633 414L635 417L637 420L640 423L642 426L644 429L646 432L649 435L651 438L653 441L655 444L658 447L660 450L662 453L664 456L667 459L669 462L671 465L673 468L676 471L678 474L680 477L683 480L685 483L687 486L689 489L692 492L694 495L696 498L698 501L701 504L703 507L705 510L707 513L710 516L712 517L714 517L716 517L719 518L721 518L723 518L725 518L728 519L730 519L732 518L735 520L737 520L739 518L741 520L744 522L746 522L748 521L750 521L753 523L755 523L757 523L759 525L762 524" fill="none" stroke-width="1.5"></path><g fill="#3360a9"><circle cx="47" cy="351" r="2"></circle><circle cx="50" cy="350" r="2"></circle><circle cx="52" cy="348" r="2"></circle><circle cx="54" cy="346" r="2"></circle><circle cx="56" cy="344" r="2"></circle><circle cx="59" cy="342" r="2"></circle><circle cx="61" cy="340" r="2"></circle><circle cx="63" cy="339" r="2"></circle><circle cx="65" cy="337" r="2"></circle><circle cx="68" cy="335" r="2"></circle><circle cx="70" cy="333" r="2"></circle><circle cx="72" cy="331" r="2"></circle><circle cx="74" cy="329" r="2"></circle><circle cx="77" cy="328" r="2"></circle><circle cx="79" cy="326" r="2"></circle><circle cx="81" cy="324" r="2"></circle><circle cx="83" cy="322" r="2"></circle><circle cx="86" cy="320" r="2"></circle><circle cx="88" cy="318" r="2"></circle><circle cx="90" cy="316" r="2"></circle><circle cx="92" cy="315" r="2"></circle><circle cx="95" cy="313" r="2"></circle><circle cx="97" cy="311" r="2"></circle><circle cx="99" cy="309" r="2"></circle><circle cx="102" cy="307" r="2"></circle><circle cx="104" cy="305" r="2"></circle><circle cx="106" cy="305" r="2"></circle><circle cx="108" cy="304" r="2"></circle><circle cx="111" cy="303" r="2"></circle><circle cx="113" cy="302" r="2"></circle><circle cx="115" cy="301" r="2"></circle><circle cx="117" cy="300" r="2"></circle><circle cx="120" cy="299" r="2"></circle><circle cx="122" cy="298" r="2"></circle><circle cx="124" cy="297" r="2"></circle><circle cx="126" cy="296" r="2"></circle><circle cx="129" cy="295" r="2"></circle><circle cx="131" cy="294" r="2"></circle><circle cx="133" cy="293" r="2"></circle><circle cx="135" cy="293" r="2"></circle><circle cx="138" cy="292" r="2"></circle><circle cx="140" cy="291" r="2"></circle><circle cx="142" cy="290" r="2"></circle><circle cx="144" cy="289" r="2"></circle><circle cx="147" cy="288" r="2"></circle><circle cx="149" cy="287" r="2"></circle><circle cx="151" cy="286" r="2"></circle><circle cx="154" cy="285" r="2"></circle><circle cx="156" cy="284" r="2"></circle><circle cx="158" cy="283" r="2"></circle><circle cx="160" cy="282" r="2"></circle><circle cx="163" cy="282" r="2"></circle><circle cx="165" cy="282" r="2"></circle><circle cx="167" cy="281" r="2"></circle><circle cx="169" cy="281" r="2"></circle><circle cx="172" cy="280" r="2"></circle><circle cx="174" cy="280" r="2"></circle><circle cx="176" cy="279" r="2"></circle><circle cx="178" cy="279" r="2"></circle><circle cx="181" cy="278" r="2"></circle><circle cx="183" cy="278" r="2"></circle><circle cx="185" cy="277" r="2"></circle><circle cx="187" cy="277" r="2"></circle><circle cx="190" cy="276" r="2"></circle><circle cx="192" cy="276" r="2"></circle><circle cx="194" cy="276" r="2"></circle><circle cx="196" cy="275" r="2"></circle><circle cx="199" cy="275" r="2"></circle><circle cx="201" cy="274" r="2"></circle><circle cx="203" cy="274" r="2"></circle><circle cx="206" cy="273" r="2"></circle><circle cx="208" cy="273" r="2"></circle><circle cx="210" cy="272" r="2"></circle><circle cx="212" cy="272" r="2"></circle><circle cx="215" cy="271" r="2"></circle><circle cx="217" cy="271" r="2"></circle><circle cx="219" cy="271" r="2"></circle><circle cx="221" cy="270" r="2"></circle><circle cx="224" cy="270" r="2"></circle><circle cx="226" cy="269" r="2"></circle><circle cx="228" cy="269" r="2"></circle><circle cx="230" cy="268" r="2"></circle><circle cx="233" cy="268" r="2"></circle><circle cx="235" cy="267" r="2"></circle><circle cx="237" cy="267" r="2"></circle><circle cx="239" cy="266" r="2"></circle><circle cx="242" cy="266" r="2"></circle><circle cx="244" cy="265" r="2"></circle><circle cx="246" cy="265" r="2"></circle><circle cx="248" cy="265" r="2"></circle><circle cx="251" cy="264" r="2"></circle><circle cx="253" cy="264" r="2"></circle><circle cx="255" cy="263" r="2"></circle><circle cx="258" cy="263" r="2"></circle><circle cx="260" cy="262" r="2"></circle><circle cx="262" cy="262" r="2"></circle><circle cx="264" cy="261" r="2"></circle><circle cx="267" cy="261" r="2"></circle><circle cx="269" cy="260" r="2"></circle><circle cx="271" cy="260" r="2"></circle><circle cx="273" cy="259" r="2"></circle><circle cx="276" cy="257" r="2"></circle><circle cx="278" cy="255" r="2"></circle><circle cx="280" cy="252" r="2"></circle><circle cx="282" cy="250" r="2"></circle><circle cx="285" cy="248" r="2"></circle><circle cx="287" cy="245" r="2"></circle><circle cx="289" cy="243" r="2"></circle><circle cx="291" cy="240" r="2"></circle><circle cx="294" cy="238" r="2"></circle><circle cx="296" cy="236" r="2"></circle><circle cx="298" cy="233" r="2"></circle><circle cx="300" cy="231" r="2"></circle><circle cx="303" cy="228" r="2"></circle><circle cx="305" cy="226" r="2"></circle><circle cx="307" cy="224" r="2"></circle><circle cx="310" cy="221" r="2"></circle><circle cx="312" cy="219" r="2"></circle><circle cx="314" cy="216" r="2"></circle><circle cx="316" cy="214" r="2"></circle><circle cx="319" cy="212" r="2"></circle><circle cx="321" cy="209" r="2"></circle><circle cx="323" cy="207" r="2"></circle><circle cx="325" cy="204" r="2"></circle><circle cx="328" cy="202" r="2"></circle><circle cx="330" cy="200" r="2"></circle><circle cx="332" cy="197" r="2"></circle><circle cx="334" cy="195" r="2"></circle><circle cx="337" cy="193" r="2"></circle><circle cx="339" cy="190" r="2"></circle><circle cx="341" cy="188" r="2"></circle><circle cx="343" cy="185" r="2"></circle><circle cx="346" cy="183" r="2"></circle><circle cx="348" cy="181" r="2"></circle><circle cx="350" cy="178" r="2"></circle><circle cx="352" cy="176" r="2"></circle><circle cx="355" cy="173" r="2"></circle><circle cx="357" cy="171" r="2"></circle><circle cx="359" cy="169" r="2"></circle><circle cx="362" cy="166" r="2"></circle><circle cx="364" cy="164" r="2"></circle><circle cx="366" cy="161" r="2"></circle><circle cx="368" cy="159" r="2"></circle><circle cx="371" cy="157" r="2"></circle><circle cx="373" cy="154" r="2"></circle><circle cx="375" cy="152" r="2"></circle><circle cx="377" cy="149" r="2"></circle><circle cx="380" cy="147" r="2"></circle><circle cx="382" cy="145" r="2"></circle><circle cx="384" cy="142" r="2"></circle><circle cx="386" cy="140" r="2"></circle><circle cx="389" cy="139" r="2"></circle><circle cx="391" cy="138" r="2"></circle><circle cx="393" cy="138" r="2"></circle><circle cx="395" cy="137" r="2"></circle><circle cx="398" cy="136" r="2"></circle><circle cx="400" cy="136" r="2"></circle><circle cx="402" cy="135" r="2"></circle><circle cx="404" cy="134" r="2"></circle><circle cx="407" cy="133" r="2"></circle><circle cx="409" cy="133" r="2"></circle><circle cx="411" cy="132" r="2"></circle><circle cx="414" cy="131" r="2"></circle><circle cx="416" cy="130" r="2"></circle><circle cx="418" cy="130" r="2"></circle><circle cx="420" cy="129" r="2"></circle><circle cx="423" cy="128" r="2"></circle><circle cx="425" cy="127" r="2"></circle><circle cx="427" cy="127" r="2"></circle><circle cx="429" cy="126" r="2"></circle><circle cx="432" cy="125" r="2"></circle><circle cx="434" cy="124" r="2"></circle><circle cx="436" cy="124" r="2"></circle><circle cx="438" cy="123" r="2"></circle><circle cx="441" cy="122" r="2"></circle><circle cx="443" cy="122" r="2"></circle><circle cx="445" cy="120" r="2"></circle><circle cx="447" cy="118" r="2"></circle><circle cx="450" cy="116" r="2"></circle><circle cx="452" cy="115" r="2"></circle><circle cx="454" cy="113" r="2"></circle><circle cx="456" cy="111" r="2"></circle><circle cx="459" cy="109" r="2"></circle><circle cx="461" cy="108" r="2"></circle><circle cx="463" cy="106" r="2"></circle><circle cx="466" cy="104" r="2"></circle><circle cx="468" cy="103" r="2"></circle><circle cx="470" cy="101" r="2"></circle><circle cx="472" cy="99" r="2"></circle><circle cx="475" cy="97" r="2"></circle><circle cx="477" cy="96" r="2"></circle><circle cx="479" cy="94" r="2"></circle><circle cx="481" cy="98" r="2"></circle><circle cx="484" cy="102" r="2"></circle><circle cx="486" cy="106" r="2"></circle><circle cx="488" cy="110" r="2"></circle><circle cx="490" cy="114" r="2"></circle><circle cx="493" cy="118" r="2"></circle><circle cx="495" cy="123" r="2"></circle><circle cx="497" cy="127" r="2"></circle><circle cx="499" cy="131" r="2"></circle><circle cx="502" cy="131" r="2"></circle><circle cx="504" cy="131" r="2"></circle><circle cx="506" cy="131" r="2"></circle><circle cx="508" cy="132" r="2"></circle><circle cx="511" cy="132" r="2"></circle><circle cx="513" cy="132" r="2"></circle><circle cx="515" cy="132" r="2"></circle><circle cx="518" cy="132" r="2"></circle><circle cx="520" cy="133" r="2"></circle><circle cx="522" cy="133" r="2"></circle><circle cx="524" cy="133" r="2"></circle><circle cx="527" cy="133" r="2"></circle><circle cx="529" cy="136" r="2"></circle><circle cx="531" cy="142" r="2"></circle><circle cx="533" cy="148" r="2"></circle><circle cx="536" cy="154" r="2"></circle><circle cx="538" cy="160" r="2"></circle><circle cx="540" cy="166" r="2"></circle><circle cx="542" cy="171" r="2"></circle><circle cx="545" cy="177" r="2"></circle><circle cx="547" cy="183" r="2"></circle><circle cx="549" cy="189" r="2"></circle><circle cx="551" cy="195" r="2"></circle><circle cx="554" cy="201" r="2"></circle><circle cx="556" cy="246" r="2"></circle><circle cx="558" cy="278" r="2"></circle><circle cx="560" cy="280" r="2"></circle><circle cx="563" cy="282" r="2"></circle><circle cx="565" cy="280" r="2"></circle><circle cx="567" cy="279" r="2"></circle><circle cx="570" cy="278" r="2"></circle><circle cx="572" cy="265" r="2"></circle><circle cx="574" cy="252" r="2"></circle><circle cx="576" cy="250" r="2"></circle><circle cx="579" cy="246" r="2"></circle><circle cx="581" cy="248" r="2"></circle><circle cx="583" cy="251" r="2"></circle><circle cx="585" cy="252" r="2"></circle><circle cx="588" cy="263" r="2"></circle><circle cx="590" cy="275" r="2"></circle><circle cx="592" cy="286" r="2"></circle><circle cx="594" cy="297" r="2"></circle><circle cx="597" cy="308" r="2"></circle><circle cx="599" cy="320" r="2"></circle><circle cx="601" cy="331" r="2"></circle><circle cx="603" cy="342" r="2"></circle><circle cx="606" cy="354" r="2"></circle><circle cx="608" cy="365" r="2"></circle><circle cx="610" cy="376" r="2"></circle><circle cx="612" cy="387" r="2"></circle><circle cx="615" cy="390" r="2"></circle><circle cx="617" cy="393" r="2"></circle><circle cx="619" cy="396" r="2"></circle><circle cx="621" cy="399" r="2"></circle><circle cx="624" cy="402" r="2"></circle><circle cx="626" cy="405" r="2"></circle><circle cx="628" cy="408" r="2"></circle><circle cx="631" cy="411" r="2"></circle><circle cx="633" cy="414" r="2"></circle><circle cx="635" cy="417" r="2"></circle><circle cx="637" cy="420" r="2"></circle><circle cx="640" cy="423" r="2"></circle><circle cx="642" cy="426" r="2"></circle><circle cx="644" cy="429" r="2"></circle><circle cx="646" cy="432" r="2"></circle><circle cx="649" cy="435" r="2"></circle><circle cx="651" cy="438" r="2"></circle><circle cx="653" cy="441" r="2"></circle><circle cx="655" cy="444" r="2"></circle><circle cx="658" cy="447" r="2"></circle><circle cx="660" cy="450" r="2"></circle><circle cx="662" cy="453" r="2"></circle><circle cx="664" cy="456" r="2"></circle><circle cx="667" cy="459" r="2"></circle><circle cx="669" cy="462" r="2"></circle><circle cx="671" cy="465" r="2"></circle><circle cx="673" cy="468" r="2"></circle><circle cx="676" cy="471" r="2"></circle><circle cx="678" cy="474" r="2"></circle><circle cx="680" cy="477" r="2"></circle><circle cx="683" cy="480" r="2"></circle><circle cx="685" cy="483" r="2"></circle><circle cx="687" cy="486" r="2"></circle><circle cx="689" cy="489" r="2"></circle><circle cx="692" cy="492" r="2"></circle><circle cx="694" cy="495" r="2"></circle><circle cx="696" cy="498" r="2"></circle><circle cx="698" cy="501" r="2"></circle><circle cx="701" cy="504" r="2"></circle><circle cx="703" cy="507" r="2"></circle><circle cx="705" cy="510" r="2"></circle><circle cx="707" cy="513" r="2"></circle><circle cx="710" cy="516" r="2"></circle><circle cx="712" cy="517" r="2"></circle><circle cx="714" cy="517" r="2"></circle><circle cx="716" cy="517" r="2"></circle><circle cx="719" cy="518" r="2"></circle><circle cx="721" cy="518" r="2"></circle><circle cx="723" cy="518" r="2"></circle><circle cx="725" cy="518" r="2"></circle><circle cx="728" cy="519" r="2"></circle><circle cx="730" cy="519" r="2"></circle><circle cx="732" cy="518" r="2"></circle><circle cx="735" cy="520" r="2"></circle><circle cx="737" cy="520" r="2"></circle><circle cx="739" cy="518" r="2"></circle><circle cx="741" cy="520" r="2"></circle><circle cx="744" cy="522" r="2"></circle><circle cx="746" cy="522" r="2"></circle><circle cx="748" cy="521" r="2"></circle><circle cx="750" cy="521" r="2"></circle><circle cx="753" cy="523" r="2"></circle><circle cx="755" cy="523" r="2"></circle><circle cx="757" cy="523" r="2"></circle><circle cx="759" cy="525" r="2"></circle><circle cx="762" cy="524" r="2"></circle></g></g></g></g></g><g style="fill: #777;" class="SourcesFooter"><g style="fill: #777;" class="clickable"><text font-size="12.60" x="15.0" y="581.6"><tspan x="15" y="581.58">Source: Fouquet (2011) and Government of India (2012-13)</tspan></text></g><text font-size="12.60" x="534.5" y="581.6"><tspan x="534.49" y="581.58"><a target='_blank' style='fill: #777;' href='https://ourworldindata.org/london-air-pollution/'>OurWorldInData.org/london-air-pollution/</a> • <a style="fill: #777;" href="http://creativecommons.org/licenses/by-sa/4.0/deed.en_US" target="_blank">CC BY-SA</a></tspan></text></g></g></svg>