<svg xmlns="http://www.w3.org/2000/svg" version="1.1" style="font-family: 'Helvetica Neue', Helvetica, Arial, sans-serif; font-size: 18px; background-color: white; text-rendering: optimizeLegibility; -webkit-font-smoothing: antialiased;" width="850" height="600"><g class="ChartTab"><g class="HeaderView"><g opacity="0.8" transform="translate(770, 15) scale(0.31)"><a xmlns:xlink="http://www.w3.org/1999/xlink" xlink:href="https://ourworldindata.org" target="_blank"><g><rect x="0" y="0" fill="#1B2543" width="211.2" height="130.1"/><rect x="0" y="112.2" fill="#E63912" width="211.2" height="17.9"/><g><rect x="1.2" y="12.3" fill="none" width="210.2" height="99.2"/><path fill="#FFFFFF" d="M37.8,32.2c0,12.7-7.7,19.4-17.1,19.4c-9.7,0-16.6-7.5-16.6-18.7c0-11.7,7.3-19.3,17.1-19.3 C31.3,13.7,37.8,21.3,37.8,32.2z M9.2,32.8c0,7.9,4.3,14.9,11.8,14.9c7.5,0,11.8-6.9,11.8-15.3c0-7.3-3.8-14.9-11.8-14.9 C13.1,17.5,9.2,24.8,9.2,32.8z"/><path fill="#FFFFFF" d="M62.7,43.8c0,2.7,0.1,5.1,0.2,7.2h-4.3l-0.3-4.3h-0.1c-1.3,2.1-4,4.9-8.8,4.9c-4.2,0-9.1-2.3-9.1-11.6 V24.6h4.8v14.6c0,5,1.5,8.4,5.9,8.4c3.2,0,5.5-2.2,6.3-4.4c0.3-0.7,0.4-1.6,0.4-2.5V24.6h4.8V43.8z"/><path fill="#FFFFFF" d="M67.3,32.8c0-3.1-0.1-5.8-0.2-8.2h4.2l0.2,5.2h0.2c1.2-3.5,4.1-5.8,7.3-5.8c0.5,0,0.9,0.1,1.4,0.2v4.5 c-0.5-0.1-1-0.2-1.6-0.2c-3.4,0-5.8,2.6-6.5,6.2c-0.1,0.7-0.2,1.4-0.2,2.2V51h-4.8V32.8z"/><path fill="#FFFFFF" d="M95.4,51l-9.4-36.8h5l4.4,18.6c1.1,4.6,2.1,9.2,2.7,12.7h0.1c0.6-3.7,1.8-8,3-12.8l4.9-18.5h5l4.5,18.7 c1,4.4,2,8.7,2.6,12.6h0.1c0.8-4,1.8-8.1,3-12.7l4.9-18.5h4.9L120.6,51h-5L111,31.9c-1.1-4.7-1.9-8.3-2.4-12h-0.1 c-0.7,3.7-1.5,7.3-2.8,12L100.4,51H95.4z"/><path fill="#FFFFFF" d="M154.9,37.6c0,9.8-6.8,14-13.2,14c-7.2,0-12.7-5.2-12.7-13.6c0-8.8,5.8-14,13.1-14 C149.8,24,154.9,29.5,154.9,37.6z M133.9,37.9c0,5.8,3.3,10.1,8,10.1c4.6,0,8-4.3,8-10.3c0-4.5-2.2-10.1-7.9-10.1 C136.3,27.6,133.9,32.8,133.9,37.9z"/><path fill="#FFFFFF" d="M158.2,32.8c0-3.1-0.1-5.8-0.2-8.2h4.2l0.2,5.2h0.2c1.2-3.5,4.1-5.8,7.3-5.8c0.5,0,0.9,0.1,1.4,0.2v4.5 c-0.5-0.1-1-0.2-1.6-0.2c-3.4,0-5.8,2.6-6.5,6.2c-0.1,0.7-0.2,1.4-0.2,2.2V51h-4.8V32.8z"/><path fill="#FFFFFF" d="M173.5,12.3h4.8V51h-4.8V12.3z"/><path fill="#FFFFFF" d="M206.5,12.3v31.9c0,2.3,0.1,5,0.2,6.8h-4.3l-0.2-4.6H202c-1.5,2.9-4.7,5.2-9,5.2 c-6.4,0-11.3-5.4-11.3-13.4c-0.1-8.8,5.4-14.2,11.9-14.2c4,0,6.8,1.9,8,4h0.1V12.3H206.5z M201.7,35.4c0-0.6-0.1-1.4-0.2-2 c-0.7-3.1-3.3-5.6-6.9-5.6c-5,0-7.9,4.4-7.9,10.2c0,5.3,2.6,9.8,7.8,9.8c3.2,0,6.2-2.1,7.1-5.7c0.2-0.7,0.2-1.3,0.2-2.1V35.4z"/><path fill="#FFFFFF" d="M42.8,64c0.1,1.6-1.1,2.9-3.1,2.9c-1.7,0-2.9-1.3-2.9-2.9c0-1.7,1.3-3,3-3C41.7,61,42.8,62.3,42.8,64z M37.4,97.8V71.4h4.8v26.4H37.4z"/><path fill="#FFFFFF" d="M47.5,78.6c0-2.7-0.1-5-0.2-7.1h4.3l0.3,4.4h0.1c1.3-2.5,4.4-5,8.8-5c3.7,0,9.4,2.2,9.4,11.2v15.8h-4.8 V82.6c0-4.3-1.6-7.8-6.1-7.8c-3.2,0-5.6,2.2-6.5,4.9c-0.2,0.6-0.3,1.4-0.3,2.2v15.9h-4.8V78.6z"/><path fill="#FFFFFF" d="M84,61.6c2.9-0.4,6.3-0.8,10.1-0.8c6.8,0,11.7,1.6,14.9,4.6c3.3,3,5.2,7.3,5.2,13.2c0,6-1.9,10.9-5.3,14.3 c-3.4,3.4-9.1,5.3-16.3,5.3c-3.4,0-6.2-0.2-8.6-0.4V61.6z M88.8,94.1c1.2,0.2,3,0.3,4.8,0.3c10.2,0,15.7-5.7,15.7-15.6 c0.1-8.7-4.9-14.2-14.9-14.2c-2.5,0-4.3,0.2-5.6,0.5V94.1z"/><path fill="#FFFFFF" d="M132.1,97.8l-0.4-3.3h-0.2c-1.5,2.1-4.3,3.9-8.1,3.9c-5.4,0-8.1-3.8-8.1-7.6c0-6.4,5.7-9.9,15.9-9.8v-0.5 c0-2.2-0.6-6.1-6-6.1c-2.5,0-5,0.8-6.9,2l-1.1-3.2c2.2-1.4,5.4-2.3,8.7-2.3c8.1,0,10.1,5.5,10.1,10.8v9.9c0,2.3,0.1,4.5,0.4,6.3 H132.1z M131.4,84.4c-5.3-0.1-11.2,0.8-11.2,5.9c0,3.1,2.1,4.6,4.5,4.6c3.4,0,5.6-2.2,6.4-4.4c0.2-0.5,0.3-1,0.3-1.5V84.4z"/><path fill="#FFFFFF" d="M146.6,63.9v7.6h6.9v3.7h-6.9v14.2c0,3.3,0.9,5.1,3.6,5.1c1.3,0,2.2-0.2,2.8-0.3l0.2,3.6 c-0.9,0.4-2.4,0.7-4.3,0.7c-2.2,0-4-0.7-5.2-2c-1.4-1.4-1.9-3.8-1.9-6.9V75.1h-4.1v-3.7h4.1v-6.3L146.6,63.9z"/><path fill="#FFFFFF" d="M171.4,97.8l-0.4-3.3h-0.2c-1.5,2.1-4.3,3.9-8.1,3.9c-5.4,0-8.1-3.8-8.1-7.6c0-6.4,5.7-9.9,15.9-9.8v-0.5 c0-2.2-0.6-6.1-6-6.1c-2.5,0-5,0.8-6.9,2l-1.1-3.2c2.2-1.4,5.4-2.3,8.7-2.3c8.1,0,10.1,5.5,10.1,10.8v9.9c0,2.3,0.1,4.5,0.4,6.3 H171.4z M170.7,84.4c-5.3-0.1-11.2,0.8-11.2,5.9c0,3.1,2.1,4.6,4.5,4.6c3.4,0,5.6-2.2,6.4-4.4c0.2-0.5,0.3-1,0.3-1.5V84.4z"/></g></g></a></g><a href="https://ourworldindata.org/grapher/annual-number-of-births-by-world-region" target="_blank"><text font-size="27.00" x="15.0" y="36.6" fill="#555"><tspan x="15" y="36.6">Annual number of births by world region</tspan></text></a></g><g class="StackedArea"><defs><clipPath id="boundsClip-107"><rect x="97.598" y="0" width="820" height="963"></rect></clipPath></defs><g class="AxisBoxView"><g class="HorizontalAxis"><text x="97.6" y="556.5" fill="#666" text-anchor="middle" font-size="16.2">1950</text><text x="190" y="556.5" fill="#666" text-anchor="middle" font-size="16.2">1960</text><text x="282.5" y="556.5" fill="#666" text-anchor="middle" font-size="16.2">1970</text><text x="374.9" y="556.5" fill="#666" text-anchor="middle" font-size="16.2">1980</text><text x="467.4" y="556.5" fill="#666" text-anchor="middle" font-size="16.2">1990</text><text x="559.8" y="556.5" fill="#666" text-anchor="middle" font-size="16.2">2000</text><text x="652.3" y="556.5" fill="#666" text-anchor="middle" font-size="16.2">2010</text><text x="698.5" y="556.5" fill="#666" text-anchor="middle" font-size="16.2">2015</text></g><g class="VerticalAxis"><text x="92.60" y="535.3" fill="#666" dominant-baseline="middle" text-anchor="end" font-size="16.2">0</text><text x="92.60" y="470" fill="#666" dominant-baseline="middle" text-anchor="end" font-size="16.2">20 million</text><text x="92.60" y="404.6" fill="#666" dominant-baseline="middle" text-anchor="end" font-size="16.2">40 million</text><text x="92.60" y="339.3" fill="#666" dominant-baseline="middle" text-anchor="end" font-size="16.2">60 million</text><text x="92.60" y="273.9" fill="#666" dominant-baseline="middle" text-anchor="end" font-size="16.2">80 million</text><text x="92.60" y="208.6" fill="#666" dominant-baseline="middle" text-anchor="end" font-size="16.2">100 million</text><text x="92.60" y="143.2" fill="#666" dominant-baseline="middle" text-anchor="end" font-size="16.2">120 million</text><text x="92.60" y="77.9" fill="#666" dominant-baseline="middle" text-anchor="end" font-size="16.2">140 million</text></g><g class="AxisGridLines"><line x1="97.60" y1="535.3" x2="698.50" y2="535.3" stroke="#ccc"></line><line x1="97.60" y1="470" x2="698.50" y2="470" stroke="#ddd" stroke-dasharray="3,2"></line><line x1="97.60" y1="404.6" x2="698.50" y2="404.6" stroke="#ddd" stroke-dasharray="3,2"></line><line x1="97.60" y1="339.3" x2="698.50" y2="339.3" stroke="#ddd" stroke-dasharray="3,2"></line><line x1="97.60" y1="273.9" x2="698.50" y2="273.9" stroke="#ddd" stroke-dasharray="3,2"></line><line x1="97.60" y1="208.6" x2="698.50" y2="208.6" stroke="#ddd" stroke-dasharray="3,2"></line><line x1="97.60" y1="143.2" x2="698.50" y2="143.2" stroke="#ddd" stroke-dasharray="3,2"></line><line x1="97.60" y1="77.9" x2="698.50" y2="77.9" stroke="#ddd" stroke-dasharray="3,2"></line></g><g class="AxisGridLines"><line x1="97.6" y1="535.30" x2="97.6" y2="75.00" stroke="#ddd" stroke-dasharray="3,2"></line><line x1="190" y1="535.30" x2="190" y2="75.00" stroke="#ddd" stroke-dasharray="3,2"></line><line x1="282.5" y1="535.30" x2="282.5" y2="75.00" stroke="#ddd" stroke-dasharray="3,2"></line><line x1="374.9" y1="535.30" x2="374.9" y2="75.00" stroke="#ddd" stroke-dasharray="3,2"></line><line x1="467.4" y1="535.30" x2="467.4" y2="75.00" stroke="#ddd" stroke-dasharray="3,2"></line><line x1="559.8" y1="535.30" x2="559.8" y2="75.00" stroke="#ddd" stroke-dasharray="3,2"></line><line x1="652.3" y1="535.30" x2="652.3" y2="75.00" stroke="#ddd" stroke-dasharray="3,2"></line></g></g><g clip-path="url(#boundsClip-107)"><g class="HeightedLegend clickable"><g class="legendMark"><rect x="703.504" y="520.9" width="68.85600000000001" height="14.4" fill="#fff" opacity="0"></rect><rect x="703.504" y="526.85" width="10" height="2.5" fill="#a652ba"></rect><text font-size="14.40" x="718.5" y="532.4" fill="#333"><tspan x="718.504" y="532.42">Oceania</tspan></text></g><g class="legendMark"><rect x="703.504" y="506.5" width="61.656000000000006" height="14.4" fill="#fff" opacity="0"></rect><rect x="703.504" y="512.45" width="10" height="2.5" fill="#ffd53e"></rect><text font-size="14.40" x="718.5" y="518.0" fill="#333"><tspan x="718.504" y="518.02">Europe</tspan></text></g><g class="legendMark"><rect x="703.504" y="492.1" width="128.04000000000002" height="14.4" fill="#fff" opacity="0"></rect><rect x="703.504" y="498.05" width="10" height="2.5" fill="#34983f"></rect><text font-size="14.40" x="718.5" y="503.6" fill="#333"><tspan x="718.504" y="503.62">Northern America</tspan></text></g><g class="legendMark"><rect x="703.504" y="460.25" width="131.496" height="29.900000000000002" fill="#fff" opacity="0"></rect><rect x="703.504" y="473.95" width="10" height="2.5" fill="#6bb537"></rect><text font-size="14.40" x="718.5" y="471.8" fill="#333"><tspan x="718.504" y="471.77">Latin America and</tspan><tspan x="718.504" y="487.60999999999996">the Caribbean</tspan></text></g><g class="legendMark"><rect x="703.504" y="327.1" width="43.08" height="14.4" fill="#fff" opacity="0"></rect><rect x="703.504" y="333.05" width="10" height="2.5" fill="#932834"></rect><text font-size="14.40" x="718.5" y="338.6" fill="#333"><tspan x="718.504" y="338.62">Asia</tspan></text></g><g class="legendMark"><rect x="703.504" y="135.8" width="51.864000000000004" height="14.4" fill="#fff" opacity="0"></rect><rect x="703.504" y="141.75" width="10" height="2.5" fill="#3360a9"></rect><text font-size="14.40" x="718.5" y="147.3" fill="#333"><tspan x="718.504" y="147.32000000000002">Africa</tspan></text></g></g><g class="Areas"><rect x="97.598" y="75" width="600.9060000000001" height="460.29999999999995" opacity="0" fill="rgba(255,255,255,0)"></rect><path stroke-linecap="round" d="M97.6 534.2L106.8 534.1L116.1 534.1L125.3 534.1L134.6 534L143.8 534L153.1 534L162.3 534L171.6 533.9L180.8 533.9L190 533.9L199.3 533.9L208.5 533.9L217.8 533.9L227 533.9L236.3 533.8L245.5 533.8L254.8 533.8L264 533.8L273.2 533.8L282.5 533.7L291.7 533.7L301 533.7L310.2 533.7L319.5 533.7L328.7 533.7L338 533.7L347.2 533.8L356.4 533.8L365.7 533.8L374.9 533.7L384.2 533.7L393.4 533.7L402.7 533.7L411.9 533.7L421.2 533.7L430.4 533.6L439.7 533.6L448.9 533.6L458.1 533.6L467.4 533.5L476.6 533.5L485.9 533.5L495.1 533.5L504.4 533.5L513.6 533.5L522.9 533.5L532.1 533.5L541.3 533.5L550.6 533.5L559.8 533.4L569.1 533.4L578.3 533.4L587.6 533.4L596.8 533.4L606.1 533.3L615.3 533.3L624.5 533.2L633.8 533.2L643 533.2L652.3 533.2L661.5 533.2L670.8 533.2L680 533.2L689.3 533.1L698.5 533.1L698.504 535.3L97.598 535.3" fill="#a652ba" fill-opacity="0.7" class="Oceania_0-area"></path><path stroke-linecap="round" d="M97.6 495.5L106.8 495.2L116.1 494.7L125.3 494.3L134.6 493.9L143.8 493.7L153.1 493.6L162.3 493.5L171.6 493.6L180.8 493.8L190 494.1L199.3 494.4L208.5 494.9L217.8 495.5L227 496.1L236.3 496.7L245.5 497.3L254.8 497.9L264 498.3L273.2 498.8L282.5 499.1L291.7 499.4L301 499.6L310.2 499.8L319.5 500.1L328.7 500.3L338 500.4L347.2 500.6L356.4 500.7L365.7 500.7L374.9 500.8L384.2 500.8L393.4 500.8L402.7 500.8L411.9 500.8L421.2 501L430.4 501.2L439.7 501.7L448.9 502.3L458.1 503L467.4 503.8L476.6 504.7L485.9 505.6L495.1 506.5L504.4 507.3L513.6 508L522.9 508.5L532.1 508.9L541.3 509.2L550.6 509.4L559.8 509.5L569.1 509.5L578.3 509.3L587.6 509.1L596.8 508.8L606.1 508.4L615.3 508L624.5 507.7L633.8 507.4L643 507.2L652.3 507L661.5 507L670.8 507L680 507L689.3 507.1L698.5 507.3L698.5 533.1L689.3 533.1L680 533.2L670.8 533.2L661.5 533.2L652.3 533.2L643 533.2L633.8 533.2L624.5 533.2L615.3 533.3L606.1 533.3L596.8 533.4L587.6 533.4L578.3 533.4L569.1 533.4L559.8 533.4L550.6 533.5L541.3 533.5L532.1 533.5L522.9 533.5L513.6 533.5L504.4 533.5L495.1 533.5L485.9 533.5L476.6 533.5L467.4 533.5L458.1 533.6L448.9 533.6L439.7 533.6L430.4 533.6L421.2 533.7L411.9 533.7L402.7 533.7L393.4 533.7L384.2 533.7L374.9 533.7L365.7 533.8L356.4 533.8L347.2 533.8L338 533.7L328.7 533.7L319.5 533.7L310.2 533.7L301 533.7L291.7 533.7L282.5 533.7L273.2 533.8L264 533.8L254.8 533.8L245.5 533.8L236.3 533.8L227 533.9L217.8 533.9L208.5 533.9L199.3 533.9L190 533.9L180.8 533.9L171.6 533.9L162.3 534L153.1 534L143.8 534L134.6 534L125.3 534.1L116.1 534.1L106.8 534.1L97.6 534.2" fill="#ffd53e" fill-opacity="0.7" class="Europe_0-area"></path><path stroke-linecap="round" d="M97.6 482L106.8 481.5L116.1 480.5L125.3 479.7L134.6 479L143.8 478.5L153.1 478.2L162.3 478.1L171.6 478.1L180.8 478.3L190 478.7L199.3 479.3L208.5 480L217.8 480.8L227 481.8L236.3 482.7L245.5 483.7L254.8 484.6L264 485.4L273.2 486.1L282.5 486.7L291.7 487.1L301 487.5L310.2 487.8L319.5 488.1L328.7 488.4L338 488.5L347.2 488.6L356.4 488.6L365.7 488.5L374.9 488.4L384.2 488.2L393.4 487.9L402.7 487.7L411.9 487.6L421.2 487.5L430.4 487.6L439.7 487.9L448.9 488.3L458.1 488.9L467.4 489.6L476.6 490.4L485.9 491.3L495.1 492.2L504.4 493.1L513.6 493.8L522.9 494.4L532.1 494.9L541.3 495.2L550.6 495.4L559.8 495.5L569.1 495.3L578.3 495.1L587.6 494.7L596.8 494.2L606.1 493.8L615.3 493.3L624.5 493L633.8 492.7L643 492.6L652.3 492.6L661.5 492.6L670.8 492.7L680 492.8L689.3 492.9L698.5 492.9L698.5 507.3L689.3 507.1L680 507L670.8 507L661.5 507L652.3 507L643 507.2L633.8 507.4L624.5 507.7L615.3 508L606.1 508.4L596.8 508.8L587.6 509.1L578.3 509.3L569.1 509.5L559.8 509.5L550.6 509.4L541.3 509.2L532.1 508.9L522.9 508.5L513.6 508L504.4 507.3L495.1 506.5L485.9 505.6L476.6 504.7L467.4 503.8L458.1 503L448.9 502.3L439.7 501.7L430.4 501.2L421.2 501L411.9 500.8L402.7 500.8L393.4 500.8L384.2 500.8L374.9 500.8L365.7 500.7L356.4 500.7L347.2 500.6L338 500.4L328.7 500.3L319.5 500.1L310.2 499.8L301 499.6L291.7 499.4L282.5 499.1L273.2 498.8L264 498.3L254.8 497.9L245.5 497.3L236.3 496.7L227 496.1L217.8 495.5L208.5 494.9L199.3 494.4L190 494.1L180.8 493.8L171.6 493.6L162.3 493.5L153.1 493.6L143.8 493.7L134.6 493.9L125.3 494.3L116.1 494.7L106.8 495.2L97.6 495.5" fill="#34983f" fill-opacity="0.7" class="Northern-America_0-area"></path><path stroke-linecap="round" d="M97.6 457.7L106.8 456.9L116.1 455.5L125.3 454.1L134.6 452.9L143.8 451.9L153.1 450.9L162.3 450.1L171.6 449.5L180.8 449L190 448.7L199.3 448.6L208.5 448.8L217.8 449.1L227 449.5L236.3 450L245.5 450.6L254.8 451.1L264 451.6L273.2 451.9L282.5 452.1L291.7 452.2L301 452.2L310.2 452.1L319.5 452L328.7 451.9L338 451.6L347.2 451.3L356.4 451L365.7 450.6L374.9 450.1L384.2 449.7L393.4 449.2L402.7 448.9L411.9 448.6L421.2 448.4L430.4 448.5L439.7 448.7L448.9 449.1L458.1 449.7L467.4 450.5L476.6 451.3L485.9 452.2L495.1 453.2L504.4 454L513.6 454.8L522.9 455.5L532.1 456.1L541.3 456.6L550.6 457L559.8 457.3L569.1 457.4L578.3 457.4L587.6 457.4L596.8 457.2L606.1 457.1L615.3 456.9L624.5 456.7L633.8 456.7L643 456.7L652.3 456.7L661.5 456.9L670.8 457L680 457.2L689.3 457.4L698.5 457.6L698.5 492.9L689.3 492.9L680 492.8L670.8 492.7L661.5 492.6L652.3 492.6L643 492.6L633.8 492.7L624.5 493L615.3 493.3L606.1 493.8L596.8 494.2L587.6 494.7L578.3 495.1L569.1 495.3L559.8 495.5L550.6 495.4L541.3 495.2L532.1 494.9L522.9 494.4L513.6 493.8L504.4 493.1L495.1 492.2L485.9 491.3L476.6 490.4L467.4 489.6L458.1 488.9L448.9 488.3L439.7 487.9L430.4 487.6L421.2 487.5L411.9 487.6L402.7 487.7L393.4 487.9L384.2 488.2L374.9 488.4L365.7 488.5L356.4 488.6L347.2 488.6L338 488.5L328.7 488.4L319.5 488.1L310.2 487.8L301 487.5L291.7 487.1L282.5 486.7L273.2 486.1L264 485.4L254.8 484.6L245.5 483.7L236.3 482.7L227 481.8L217.8 480.8L208.5 480L199.3 479.3L190 478.7L180.8 478.3L171.6 478.1L162.3 478.1L153.1 478.2L143.8 478.5L134.6 479L125.3 479.7L116.1 480.5L106.8 481.5L97.6 482" fill="#6bb537" fill-opacity="0.7" class="Latin-America-and-the-Caribbean_0-area"></path><path stroke-linecap="round" d="M97.6 253.7L106.8 254.1L116.1 254.4L125.3 253.9L134.6 252.6L143.8 250.4L153.1 247.3L162.3 243.5L171.6 239L180.8 233.9L190 228.5L199.3 222.8L208.5 217.3L217.8 212.1L227 207.4L236.3 203.4L245.5 200.1L254.8 197.6L264 195.7L273.2 194.4L282.5 193.9L291.7 194.2L301 195.4L310.2 197.1L319.5 199.1L328.7 201L338 202.4L347.2 202.9L356.4 202.4L365.7 200.6L374.9 197.5L384.2 193.1L393.4 187.6L402.7 181.6L411.9 175.6L421.2 170.4L430.4 166.5L439.7 164.4L448.9 164.4L458.1 166.3L467.4 170.1L476.6 175.3L485.9 181.1L495.1 187.1L504.4 192.6L513.6 197.5L522.9 201.4L532.1 204.6L541.3 207.1L550.6 208.9L559.8 210L569.1 210.5L578.3 210.4L587.6 209.9L596.8 209.2L606.1 208.5L615.3 207.7L624.5 207.1L633.8 206.7L643 206.6L652.3 206.7L661.5 207.2L670.8 207.8L680 208.7L689.3 209.7L698.5 210.9L698.5 457.6L689.3 457.4L680 457.2L670.8 457L661.5 456.9L652.3 456.7L643 456.7L633.8 456.7L624.5 456.7L615.3 456.9L606.1 457.1L596.8 457.2L587.6 457.4L578.3 457.4L569.1 457.4L559.8 457.3L550.6 457L541.3 456.6L532.1 456.1L522.9 455.5L513.6 454.8L504.4 454L495.1 453.2L485.9 452.2L476.6 451.3L467.4 450.5L458.1 449.7L448.9 449.1L439.7 448.7L430.4 448.5L421.2 448.4L411.9 448.6L402.7 448.9L393.4 449.2L384.2 449.7L374.9 450.1L365.7 450.6L356.4 451L347.2 451.3L338 451.6L328.7 451.9L319.5 452L310.2 452.1L301 452.2L291.7 452.2L282.5 452.1L273.2 451.9L264 451.6L254.8 451.1L245.5 450.6L236.3 450L227 449.5L217.8 449.1L208.5 448.8L199.3 448.6L190 448.7L180.8 449L171.6 449.5L162.3 450.1L153.1 450.9L143.8 451.9L134.6 452.9L125.3 454.1L116.1 455.5L106.8 456.9L97.6 457.7" fill="#932834" fill-opacity="0.7" class="Asia_0-area"></path><path stroke-linecap="round" d="M97.6 217.1L106.8 217.1L116.1 216.8L125.3 215.5L134.6 213.4L143.8 210.4L153.1 206.5L162.3 201.8L171.6 196.4L180.8 190.3L190 183.9L199.3 177.3L208.5 170.8L217.8 164.6L227 158.8L236.3 153.8L245.5 149.4L254.8 145.7L264 142.6L273.2 140.1L282.5 138.3L291.7 137.3L301 137L310.2 137.2L319.5 137.7L328.7 138.1L338 137.9L347.2 136.8L356.4 134.6L365.7 131.2L374.9 126.4L384.2 120.2L393.4 113.1L402.7 105.5L411.9 97.9L421.2 91L430.4 85.6L439.7 82.1L448.9 80.7L458.1 81.2L467.4 83.6L476.6 87.4L485.9 92L495.1 96.4L504.4 100.5L513.6 103.8L522.9 106.1L532.1 107.6L541.3 108.3L550.6 108.2L559.8 107.4L569.1 105.8L578.3 103.6L587.6 101L596.8 98.1L606.1 95.1L615.3 92L624.5 89L633.8 86.1L643 83.5L652.3 81.2L661.5 79.2L670.8 77.7L680 76.5L689.3 75.6L698.5 75L698.5 210.9L689.3 209.7L680 208.7L670.8 207.8L661.5 207.2L652.3 206.7L643 206.6L633.8 206.7L624.5 207.1L615.3 207.7L606.1 208.5L596.8 209.2L587.6 209.9L578.3 210.4L569.1 210.5L559.8 210L550.6 208.9L541.3 207.1L532.1 204.6L522.9 201.4L513.6 197.5L504.4 192.6L495.1 187.1L485.9 181.1L476.6 175.3L467.4 170.1L458.1 166.3L448.9 164.4L439.7 164.4L430.4 166.5L421.2 170.4L411.9 175.6L402.7 181.6L393.4 187.6L384.2 193.1L374.9 197.5L365.7 200.6L356.4 202.4L347.2 202.9L338 202.4L328.7 201L319.5 199.1L310.2 197.1L301 195.4L291.7 194.2L282.5 193.9L273.2 194.4L264 195.7L254.8 197.6L245.5 200.1L236.3 203.4L227 207.4L217.8 212.1L208.5 217.3L199.3 222.8L190 228.5L180.8 233.9L171.6 239L162.3 243.5L153.1 247.3L143.8 250.4L134.6 252.6L125.3 253.9L116.1 254.4L106.8 254.1L97.6 253.7" fill="#3360a9" fill-opacity="0.7" class="Africa_0-area"></path><path stroke-linecap="round" d="M97.6 534.2L106.8 534.1L116.1 534.1L125.3 534.1L134.6 534L143.8 534L153.1 534L162.3 534L171.6 533.9L180.8 533.9L190 533.9L199.3 533.9L208.5 533.9L217.8 533.9L227 533.9L236.3 533.8L245.5 533.8L254.8 533.8L264 533.8L273.2 533.8L282.5 533.7L291.7 533.7L301 533.7L310.2 533.7L319.5 533.7L328.7 533.7L338 533.7L347.2 533.8L356.4 533.8L365.7 533.8L374.9 533.7L384.2 533.7L393.4 533.7L402.7 533.7L411.9 533.7L421.2 533.7L430.4 533.6L439.7 533.6L448.9 533.6L458.1 533.6L467.4 533.5L476.6 533.5L485.9 533.5L495.1 533.5L504.4 533.5L513.6 533.5L522.9 533.5L532.1 533.5L541.3 533.5L550.6 533.5L559.8 533.4L569.1 533.4L578.3 533.4L587.6 533.4L596.8 533.4L606.1 533.3L615.3 533.3L624.5 533.2L633.8 533.2L643 533.2L652.3 533.2L661.5 533.2L670.8 533.2L680 533.2L689.3 533.1L698.5 533.1" stroke="rgb(139, 69, 156)" stroke-opacity="0.7" stroke-width="0.5" fill="none" class="Oceania_0-border"></path><path stroke-linecap="round" d="M97.6 495.5L106.8 495.2L116.1 494.7L125.3 494.3L134.6 493.9L143.8 493.7L153.1 493.6L162.3 493.5L171.6 493.6L180.8 493.8L190 494.1L199.3 494.4L208.5 494.9L217.8 495.5L227 496.1L236.3 496.7L245.5 497.3L254.8 497.9L264 498.3L273.2 498.8L282.5 499.1L291.7 499.4L301 499.6L310.2 499.8L319.5 500.1L328.7 500.3L338 500.4L347.2 500.6L356.4 500.7L365.7 500.7L374.9 500.8L384.2 500.8L393.4 500.8L402.7 500.8L411.9 500.8L421.2 501L430.4 501.2L439.7 501.7L448.9 502.3L458.1 503L467.4 503.8L476.6 504.7L485.9 505.6L495.1 506.5L504.4 507.3L513.6 508L522.9 508.5L532.1 508.9L541.3 509.2L550.6 509.4L559.8 509.5L569.1 509.5L578.3 509.3L587.6 509.1L596.8 508.8L606.1 508.4L615.3 508L624.5 507.7L633.8 507.4L643 507.2L652.3 507L661.5 507L670.8 507L680 507L689.3 507.1L698.5 507.3" stroke="rgb(213, 178, 52)" stroke-opacity="0.7" stroke-width="0.5" fill="none" class="Europe_0-border"></path><path stroke-linecap="round" d="M97.6 482L106.8 481.5L116.1 480.5L125.3 479.7L134.6 479L143.8 478.5L153.1 478.2L162.3 478.1L171.6 478.1L180.8 478.3L190 478.7L199.3 479.3L208.5 480L217.8 480.8L227 481.8L236.3 482.7L245.5 483.7L254.8 484.6L264 485.4L273.2 486.1L282.5 486.7L291.7 487.1L301 487.5L310.2 487.8L319.5 488.1L328.7 488.4L338 488.5L347.2 488.6L356.4 488.6L365.7 488.5L374.9 488.4L384.2 488.2L393.4 487.9L402.7 487.7L411.9 487.6L421.2 487.5L430.4 487.6L439.7 487.9L448.9 488.3L458.1 488.9L467.4 489.6L476.6 490.4L485.9 491.3L495.1 492.2L504.4 493.1L513.6 493.8L522.9 494.4L532.1 494.9L541.3 495.2L550.6 495.4L559.8 495.5L569.1 495.3L578.3 495.1L587.6 494.7L596.8 494.2L606.1 493.8L615.3 493.3L624.5 493L633.8 492.7L643 492.6L652.3 492.6L661.5 492.6L670.8 492.7L680 492.8L689.3 492.9L698.5 492.9" stroke="rgb(44, 127, 53)" stroke-opacity="0.7" stroke-width="0.5" fill="none" class="Northern-America_0-border"></path><path stroke-linecap="round" d="M97.6 457.7L106.8 456.9L116.1 455.5L125.3 454.1L134.6 452.9L143.8 451.9L153.1 450.9L162.3 450.1L171.6 449.5L180.8 449L190 448.7L199.3 448.6L208.5 448.8L217.8 449.1L227 449.5L236.3 450L245.5 450.6L254.8 451.1L264 451.6L273.2 451.9L282.5 452.1L291.7 452.2L301 452.2L310.2 452.1L319.5 452L328.7 451.9L338 451.6L347.2 451.3L356.4 451L365.7 450.6L374.9 450.1L384.2 449.7L393.4 449.2L402.7 448.9L411.9 448.6L421.2 448.4L430.4 448.5L439.7 448.7L448.9 449.1L458.1 449.7L467.4 450.5L476.6 451.3L485.9 452.2L495.1 453.2L504.4 454L513.6 454.8L522.9 455.5L532.1 456.1L541.3 456.6L550.6 457L559.8 457.3L569.1 457.4L578.3 457.4L587.6 457.4L596.8 457.2L606.1 457.1L615.3 456.9L624.5 456.7L633.8 456.7L643 456.7L652.3 456.7L661.5 456.9L670.8 457L680 457.2L689.3 457.4L698.5 457.6" stroke="rgb(90, 151, 46)" stroke-opacity="0.7" stroke-width="0.5" fill="none" class="Latin-America-and-the-Caribbean_0-border"></path><path stroke-linecap="round" d="M97.6 253.7L106.8 254.1L116.1 254.4L125.3 253.9L134.6 252.6L143.8 250.4L153.1 247.3L162.3 243.5L171.6 239L180.8 233.9L190 228.5L199.3 222.8L208.5 217.3L217.8 212.1L227 207.4L236.3 203.4L245.5 200.1L254.8 197.6L264 195.7L273.2 194.4L282.5 193.9L291.7 194.2L301 195.4L310.2 197.1L319.5 199.1L328.7 201L338 202.4L347.2 202.9L356.4 202.4L365.7 200.6L374.9 197.5L384.2 193.1L393.4 187.6L402.7 181.6L411.9 175.6L421.2 170.4L430.4 166.5L439.7 164.4L448.9 164.4L458.1 166.3L467.4 170.1L476.6 175.3L485.9 181.1L495.1 187.1L504.4 192.6L513.6 197.5L522.9 201.4L532.1 204.6L541.3 207.1L550.6 208.9L559.8 210L569.1 210.5L578.3 210.4L587.6 209.9L596.8 209.2L606.1 208.5L615.3 207.7L624.5 207.1L633.8 206.7L643 206.6L652.3 206.7L661.5 207.2L670.8 207.8L680 208.7L689.3 209.7L698.5 210.9" stroke="rgb(123, 33, 44)" stroke-opacity="0.7" stroke-width="0.5" fill="none" class="Asia_0-border"></path><path stroke-linecap="round" d="M97.6 217.1L106.8 217.1L116.1 216.8L125.3 215.5L134.6 213.4L143.8 210.4L153.1 206.5L162.3 201.8L171.6 196.4L180.8 190.3L190 183.9L199.3 177.3L208.5 170.8L217.8 164.6L227 158.8L236.3 153.8L245.5 149.4L254.8 145.7L264 142.6L273.2 140.1L282.5 138.3L291.7 137.3L301 137L310.2 137.2L319.5 137.7L328.7 138.1L338 137.9L347.2 136.8L356.4 134.6L365.7 131.2L374.9 126.4L384.2 120.2L393.4 113.1L402.7 105.5L411.9 97.9L421.2 91L430.4 85.6L439.7 82.1L448.9 80.7L458.1 81.2L467.4 83.6L476.6 87.4L485.9 92L495.1 96.4L504.4 100.5L513.6 103.8L522.9 106.1L532.1 107.6L541.3 108.3L550.6 108.2L559.8 107.4L569.1 105.8L578.3 103.6L587.6 101L596.8 98.1L606.1 95.1L615.3 92L624.5 89L633.8 86.1L643 83.5L652.3 81.2L661.5 79.2L670.8 77.7L680 76.5L689.3 75.6L698.5 75" stroke="rgb(43, 80, 141)" stroke-opacity="0.7" stroke-width="0.5" fill="none" class="Africa_0-border"></path></g></g></g><g style="fill: #777;" class="SourcesFooter"><g style="fill: #777;" class="clickable"><text font-size="12.60" x="15.0" y="581.6"><tspan x="15" y="581.58">Source: UN Population Division (2017 Revision)</tspan></text></g><text font-size="12.60" x="583.1" y="581.6"><tspan x="583.126" y="581.58"><a target='_blank' style='fill: #777;' href='https://ourworldindata.org/fertility-rate'>OurWorldInData.org/fertility-rate</a> • <a style="fill: #777;" href="http://creativecommons.org/licenses/by-sa/4.0/deed.en_US" target="_blank">CC BY-SA</a></tspan></text></g></g></svg>