<svg xmlns="http://www.w3.org/2000/svg" version="1.1" style="font-family: 'Helvetica Neue', Helvetica, Arial, sans-serif; font-size: 18px; background-color: white; text-rendering: optimizeLegibility; -webkit-font-smoothing: antialiased;" width="850" height="600"><g class="ChartTab"><g class="HeaderView"><g opacity="0.8" transform="translate(770, 15) scale(0.31)"><a xmlns:xlink="http://www.w3.org/1999/xlink" xlink:href="https://ourworldindata.org" target="_blank"><g><rect x="0" y="0" fill="#1B2543" width="211.2" height="130.1"/><rect x="0" y="112.2" fill="#E63912" width="211.2" height="17.9"/><g><rect x="1.2" y="12.3" fill="none" width="210.2" height="99.2"/><path fill="#FFFFFF" d="M37.8,32.2c0,12.7-7.7,19.4-17.1,19.4c-9.7,0-16.6-7.5-16.6-18.7c0-11.7,7.3-19.3,17.1-19.3 C31.3,13.7,37.8,21.3,37.8,32.2z M9.2,32.8c0,7.9,4.3,14.9,11.8,14.9c7.5,0,11.8-6.9,11.8-15.3c0-7.3-3.8-14.9-11.8-14.9 C13.1,17.5,9.2,24.8,9.2,32.8z"/><path fill="#FFFFFF" d="M62.7,43.8c0,2.7,0.1,5.1,0.2,7.2h-4.3l-0.3-4.3h-0.1c-1.3,2.1-4,4.9-8.8,4.9c-4.2,0-9.1-2.3-9.1-11.6 V24.6h4.8v14.6c0,5,1.5,8.4,5.9,8.4c3.2,0,5.5-2.2,6.3-4.4c0.3-0.7,0.4-1.6,0.4-2.5V24.6h4.8V43.8z"/><path fill="#FFFFFF" d="M67.3,32.8c0-3.1-0.1-5.8-0.2-8.2h4.2l0.2,5.2h0.2c1.2-3.5,4.1-5.8,7.3-5.8c0.5,0,0.9,0.1,1.4,0.2v4.5 c-0.5-0.1-1-0.2-1.6-0.2c-3.4,0-5.8,2.6-6.5,6.2c-0.1,0.7-0.2,1.4-0.2,2.2V51h-4.8V32.8z"/><path fill="#FFFFFF" d="M95.4,51l-9.4-36.8h5l4.4,18.6c1.1,4.6,2.1,9.2,2.7,12.7h0.1c0.6-3.7,1.8-8,3-12.8l4.9-18.5h5l4.5,18.7 c1,4.4,2,8.7,2.6,12.6h0.1c0.8-4,1.8-8.1,3-12.7l4.9-18.5h4.9L120.6,51h-5L111,31.9c-1.1-4.7-1.9-8.3-2.4-12h-0.1 c-0.7,3.7-1.5,7.3-2.8,12L100.4,51H95.4z"/><path fill="#FFFFFF" d="M154.9,37.6c0,9.8-6.8,14-13.2,14c-7.2,0-12.7-5.2-12.7-13.6c0-8.8,5.8-14,13.1-14 C149.8,24,154.9,29.5,154.9,37.6z M133.9,37.9c0,5.8,3.3,10.1,8,10.1c4.6,0,8-4.3,8-10.3c0-4.5-2.2-10.1-7.9-10.1 C136.3,27.6,133.9,32.8,133.9,37.9z"/><path fill="#FFFFFF" d="M158.2,32.8c0-3.1-0.1-5.8-0.2-8.2h4.2l0.2,5.2h0.2c1.2-3.5,4.1-5.8,7.3-5.8c0.5,0,0.9,0.1,1.4,0.2v4.5 c-0.5-0.1-1-0.2-1.6-0.2c-3.4,0-5.8,2.6-6.5,6.2c-0.1,0.7-0.2,1.4-0.2,2.2V51h-4.8V32.8z"/><path fill="#FFFFFF" d="M173.5,12.3h4.8V51h-4.8V12.3z"/><path fill="#FFFFFF" d="M206.5,12.3v31.9c0,2.3,0.1,5,0.2,6.8h-4.3l-0.2-4.6H202c-1.5,2.9-4.7,5.2-9,5.2 c-6.4,0-11.3-5.4-11.3-13.4c-0.1-8.8,5.4-14.2,11.9-14.2c4,0,6.8,1.9,8,4h0.1V12.3H206.5z M201.7,35.4c0-0.6-0.1-1.4-0.2-2 c-0.7-3.1-3.3-5.6-6.9-5.6c-5,0-7.9,4.4-7.9,10.2c0,5.3,2.6,9.8,7.8,9.8c3.2,0,6.2-2.1,7.1-5.7c0.2-0.7,0.2-1.3,0.2-2.1V35.4z"/><path fill="#FFFFFF" d="M42.8,64c0.1,1.6-1.1,2.9-3.1,2.9c-1.7,0-2.9-1.3-2.9-2.9c0-1.7,1.3-3,3-3C41.7,61,42.8,62.3,42.8,64z M37.4,97.8V71.4h4.8v26.4H37.4z"/><path fill="#FFFFFF" d="M47.5,78.6c0-2.7-0.1-5-0.2-7.1h4.3l0.3,4.4h0.1c1.3-2.5,4.4-5,8.8-5c3.7,0,9.4,2.2,9.4,11.2v15.8h-4.8 V82.6c0-4.3-1.6-7.8-6.1-7.8c-3.2,0-5.6,2.2-6.5,4.9c-0.2,0.6-0.3,1.4-0.3,2.2v15.9h-4.8V78.6z"/><path fill="#FFFFFF" d="M84,61.6c2.9-0.4,6.3-0.8,10.1-0.8c6.8,0,11.7,1.6,14.9,4.6c3.3,3,5.2,7.3,5.2,13.2c0,6-1.9,10.9-5.3,14.3 c-3.4,3.4-9.1,5.3-16.3,5.3c-3.4,0-6.2-0.2-8.6-0.4V61.6z M88.8,94.1c1.2,0.2,3,0.3,4.8,0.3c10.2,0,15.7-5.7,15.7-15.6 c0.1-8.7-4.9-14.2-14.9-14.2c-2.5,0-4.3,0.2-5.6,0.5V94.1z"/><path fill="#FFFFFF" d="M132.1,97.8l-0.4-3.3h-0.2c-1.5,2.1-4.3,3.9-8.1,3.9c-5.4,0-8.1-3.8-8.1-7.6c0-6.4,5.7-9.9,15.9-9.8v-0.5 c0-2.2-0.6-6.1-6-6.1c-2.5,0-5,0.8-6.9,2l-1.1-3.2c2.2-1.4,5.4-2.3,8.7-2.3c8.1,0,10.1,5.5,10.1,10.8v9.9c0,2.3,0.1,4.5,0.4,6.3 H132.1z M131.4,84.4c-5.3-0.1-11.2,0.8-11.2,5.9c0,3.1,2.1,4.6,4.5,4.6c3.4,0,5.6-2.2,6.4-4.4c0.2-0.5,0.3-1,0.3-1.5V84.4z"/><path fill="#FFFFFF" d="M146.6,63.9v7.6h6.9v3.7h-6.9v14.2c0,3.3,0.9,5.1,3.6,5.1c1.3,0,2.2-0.2,2.8-0.3l0.2,3.6 c-0.9,0.4-2.4,0.7-4.3,0.7c-2.2,0-4-0.7-5.2-2c-1.4-1.4-1.9-3.8-1.9-6.9V75.1h-4.1v-3.7h4.1v-6.3L146.6,63.9z"/><path fill="#FFFFFF" d="M171.4,97.8l-0.4-3.3h-0.2c-1.5,2.1-4.3,3.9-8.1,3.9c-5.4,0-8.1-3.8-8.1-7.6c0-6.4,5.7-9.9,15.9-9.8v-0.5 c0-2.2-0.6-6.1-6-6.1c-2.5,0-5,0.8-6.9,2l-1.1-3.2c2.2-1.4,5.4-2.3,8.7-2.3c8.1,0,10.1,5.5,10.1,10.8v9.9c0,2.3,0.1,4.5,0.4,6.3 H171.4z M170.7,84.4c-5.3-0.1-11.2,0.8-11.2,5.9c0,3.1,2.1,4.6,4.5,4.6c3.4,0,5.6-2.2,6.4-4.4c0.2-0.5,0.3-1,0.3-1.5V84.4z"/></g></g></a></g><a href="https://ourworldindata.org/grapher/annual-number-of-deaths-by-specific-cause-or-risk-factor" target="_blank"><text font-size="23.40" x="15.0" y="33.7" fill="#555"><tspan x="15" y="33.72">Annual number of deaths by specific cause or risk factor, World, 2016</tspan></text></a><text font-size="14.40" x="15.0" y="51.9" fill="#666"><tspan x="15" y="51.919999999999995">This data contains a mixture of direct causes of death (such as HIV/AIDS, drowning, fire, natural disasters) with risk</tspan><tspan x="15" y="67.75999999999999">factors for non-communicable diseases (NCDs). Risk factors for NCDs provide a useful indication of specific</tspan><tspan x="15" y="83.6">behavioural factors (and potential preventative measures) which contribute to mortality rates. See sources tab for</tspan><tspan x="15" y="99.44">further details.</tspan></text></g><g class="DiscreteBarChart"><rect x="15" y="121.3" width="810" height="420.59999999999997" opacity="0" fill="rgba(255,255,255,0)"></rect><g class="HorizontalAxis"><text x="303.6" y="541.9" fill="#666" text-anchor="middle" font-size="16.2">0</text><text x="388.8" y="541.9" fill="#666" text-anchor="middle" font-size="16.2">2 million</text><text x="474" y="541.9" fill="#666" text-anchor="middle" font-size="16.2">4 million</text><text x="559.2" y="541.9" fill="#666" text-anchor="middle" font-size="16.2">6 million</text><text x="644.4" y="541.9" fill="#666" text-anchor="middle" font-size="16.2">8 million</text><text x="749" y="541.9" fill="#666" text-anchor="middle" font-size="16.2">10.46 million</text></g><g class="AxisGridLines"><line x1="303.6" y1="520.70" x2="303.6" y2="121.30" stroke="#ccc"></line><line x1="388.8" y1="520.70" x2="388.8" y2="121.30" stroke="#ddd" stroke-dasharray="3,2"></line><line x1="474" y1="520.70" x2="474" y2="121.30" stroke="#ddd" stroke-dasharray="3,2"></line><line x1="559.2" y1="520.70" x2="559.2" y2="121.30" stroke="#ddd" stroke-dasharray="3,2"></line><line x1="644.4" y1="520.70" x2="644.4" y2="121.30" stroke="#ddd" stroke-dasharray="3,2"></line><line x1="729.6" y1="520.70" x2="729.6" y2="121.30" stroke="#ddd" stroke-dasharray="3,2"></line></g><g class="bar"><text x="298.558" y="127.00571428571428" fill="#666" dominant-baseline="middle" text-anchor="end" font-size="13.5">High blood pressure</text><rect x="303.6" y="121.3" width="445.4" height="11.411428571428571" fill="#F2585B" opacity="0.85"></rect><text x="754" y="127.00571428571428" fill="#666" dominant-baseline="middle" text-anchor="start" font-size="13.5">10.46 million</text></g><g class="bar"><text x="298.558" y="141.26999999999998" fill="#666" dominant-baseline="middle" text-anchor="end" font-size="13.5">Tobacco smoking</text><rect x="303.6" y="135.5642857142857" width="269.19999999999993" height="11.411428571428571" fill="#F2585B" opacity="0.85"></rect><text x="577.8" y="141.26999999999998" fill="#666" dominant-baseline="middle" text-anchor="start" font-size="13.5">6.32 million</text></g><g class="bar"><text x="298.558" y="155.5342857142857" fill="#666" dominant-baseline="middle" text-anchor="end" font-size="13.5">High blood sugar</text><rect x="303.6" y="149.8285714285714" width="239.10000000000002" height="11.411428571428571" fill="#F2585B" opacity="0.85"></rect><text x="547.7" y="155.5342857142857" fill="#666" dominant-baseline="middle" text-anchor="start" font-size="13.5">5.61 million</text></g><g class="bar"><text x="298.558" y="169.7985714285714" fill="#666" dominant-baseline="middle" text-anchor="end" font-size="13.5">Under-5 mortality</text><rect x="303.6" y="164.0928571428571" width="212.89999999999998" height="11.411428571428571" fill="#F2585B" opacity="0.85"></rect><text x="521.5" y="169.7985714285714" fill="#666" dominant-baseline="middle" text-anchor="start" font-size="13.5">5 million</text></g><g class="bar"><text x="298.558" y="184.0628571428571" fill="#666" dominant-baseline="middle" text-anchor="end" font-size="13.5">Obesity (high BMI)</text><rect x="303.6" y="178.3571428571428" width="192.7" height="11.411428571428571" fill="#F2585B" opacity="0.85"></rect><text x="501.3" y="184.0628571428571" fill="#666" dominant-baseline="middle" text-anchor="start" font-size="13.5">4.53 million</text></g><g class="bar"><text x="298.558" y="198.3271428571428" fill="#666" dominant-baseline="middle" text-anchor="end" font-size="13.5">High cholesterol</text><rect x="303.6" y="192.6214285714285" width="187.09999999999997" height="11.411428571428571" fill="#F2585B" opacity="0.85"></rect><text x="495.7" y="198.3271428571428" fill="#666" dominant-baseline="middle" text-anchor="start" font-size="13.5">4.39 million</text></g><g class="bar"><text x="298.558" y="212.5914285714285" fill="#666" dominant-baseline="middle" text-anchor="end" font-size="13.5">Outdoor air pollution</text><rect x="303.6" y="206.88571428571422" width="184.29999999999995" height="11.411428571428571" fill="#F2585B" opacity="0.85"></rect><text x="492.9" y="212.5914285714285" fill="#666" dominant-baseline="middle" text-anchor="start" font-size="13.5">4.33 million</text></g><g class="bar"><text x="298.558" y="226.8557142857142" fill="#666" dominant-baseline="middle" text-anchor="end" font-size="13.5">Low fruit &amp; veg intake</text><rect x="303.6" y="221.14999999999992" width="165.29999999999995" height="11.411428571428571" fill="#F2585B" opacity="0.85"></rect><text x="473.9" y="226.8557142857142" fill="#666" dominant-baseline="middle" text-anchor="start" font-size="13.5">3.88 million</text></g><g class="bar"><text x="298.558" y="241.11999999999992" fill="#666" dominant-baseline="middle" text-anchor="end" font-size="13.5">Alcohol use</text><rect x="303.6" y="235.41428571428563" width="119.89999999999998" height="11.411428571428571" fill="#F2585B" opacity="0.85"></rect><text x="428.5" y="241.11999999999992" fill="#666" dominant-baseline="middle" text-anchor="start" font-size="13.5">2.81 million</text></g><g class="bar"><text x="298.558" y="255.38428571428562" fill="#666" dominant-baseline="middle" text-anchor="end" font-size="13.5">Protein-energy malnutrition</text><rect x="303.6" y="249.67857142857133" width="116.59999999999997" height="11.411428571428571" fill="#F2585B" opacity="0.85"></rect><text x="425.2" y="255.38428571428562" fill="#666" dominant-baseline="middle" text-anchor="start" font-size="13.5">2.74 million</text></g><g class="bar"><text x="298.558" y="269.64857142857136" fill="#666" dominant-baseline="middle" text-anchor="end" font-size="13.5">Household air pollution</text><rect x="303.6" y="263.94285714285706" width="109.69999999999999" height="11.411428571428571" fill="#F2585B" opacity="0.85"></rect><text x="418.3" y="269.64857142857136" fill="#666" dominant-baseline="middle" text-anchor="start" font-size="13.5">2.58 million</text></g><g class="bar"><text x="298.558" y="283.9128571428571" fill="#666" dominant-baseline="middle" text-anchor="end" font-size="13.5">Diarrheal diseases</text><rect x="303.6" y="278.2071428571428" width="70.5" height="11.411428571428571" fill="#F2585B" opacity="0.85"></rect><text x="379.1" y="283.9128571428571" fill="#666" dominant-baseline="middle" text-anchor="start" font-size="13.5">1.66 million</text></g><g class="bar"><text x="298.558" y="298.1771428571428" fill="#666" dominant-baseline="middle" text-anchor="end" font-size="13.5">Physical inactivity</text><rect x="303.6" y="292.47142857142853" width="58.5" height="11.411428571428571" fill="#F2585B" opacity="0.85"></rect><text x="367.1" y="298.1771428571428" fill="#666" dominant-baseline="middle" text-anchor="start" font-size="13.5">1.37 million</text></g><g class="bar"><text x="298.558" y="312.44142857142856" fill="#666" dominant-baseline="middle" text-anchor="end" font-size="13.5">Road accidents</text><rect x="303.6" y="306.73571428571427" width="57.099999999999966" height="11.411428571428571" fill="#F2585B" opacity="0.85"></rect><text x="365.7" y="312.44142857142856" fill="#666" dominant-baseline="middle" text-anchor="start" font-size="13.5">1.34 million</text></g><g class="bar"><text x="298.558" y="326.7057142857143" fill="#666" dominant-baseline="middle" text-anchor="end" font-size="13.5">Tuberculosis</text><rect x="303.6" y="321" width="51.599999999999966" height="11.411428571428571" fill="#F2585B" opacity="0.85"></rect><text x="360.2" y="326.7057142857143" fill="#666" dominant-baseline="middle" text-anchor="start" font-size="13.5">1.21 million</text></g><g class="bar"><text x="298.558" y="340.97" fill="#666" dominant-baseline="middle" text-anchor="end" font-size="13.5">HIV/AIDS</text><rect x="303.6" y="335.26428571428573" width="44" height="11.411428571428571" fill="#F2585B" opacity="0.85"></rect><text x="352.6" y="340.97" fill="#666" dominant-baseline="middle" text-anchor="start" font-size="13.5">1.03 million</text></g><g class="bar"><text x="298.558" y="355.23428571428576" fill="#666" dominant-baseline="middle" text-anchor="end" font-size="13.5">Secondhand smoke</text><rect x="303.6" y="349.52857142857147" width="37.599999999999966" height="11.411428571428571" fill="#F2585B" opacity="0.85"></rect><text x="346.2" y="355.23428571428576" fill="#666" dominant-baseline="middle" text-anchor="start" font-size="13.5">883,931</text></g><g class="bar"><text x="298.558" y="369.4985714285715" fill="#666" dominant-baseline="middle" text-anchor="end" font-size="13.5">Suicide</text><rect x="303.6" y="363.7928571428572" width="34.799999999999955" height="11.411428571428571" fill="#F2585B" opacity="0.85"></rect><text x="343.4" y="369.4985714285715" fill="#666" dominant-baseline="middle" text-anchor="start" font-size="13.5">817,148</text></g><g class="bar"><text x="298.558" y="383.76285714285723" fill="#666" dominant-baseline="middle" text-anchor="end" font-size="13.5">Malaria</text><rect x="303.6" y="378.05714285714294" width="30.599999999999966" height="11.411428571428571" fill="#F2585B" opacity="0.85"></rect><text x="339.2" y="383.76285714285723" fill="#666" dominant-baseline="middle" text-anchor="start" font-size="13.5">719,551</text></g><g class="bar"><text x="298.558" y="398.02714285714296" fill="#666" dominant-baseline="middle" text-anchor="end" font-size="13.5">Drug use</text><rect x="303.6" y="392.32142857142867" width="19.19999999999999" height="11.411428571428571" fill="#F2585B" opacity="0.85"></rect><text x="327.8" y="398.02714285714296" fill="#666" dominant-baseline="middle" text-anchor="start" font-size="13.5">451,822</text></g><g class="bar"><text x="298.558" y="412.2914285714287" fill="#666" dominant-baseline="middle" text-anchor="end" font-size="13.5">Homicide</text><rect x="303.6" y="406.5857142857144" width="16.599999999999966" height="11.411428571428571" fill="#F2585B" opacity="0.85"></rect><text x="325.2" y="412.2914285714287" fill="#666" dominant-baseline="middle" text-anchor="start" font-size="13.5">390,794</text></g><g class="bar"><text x="298.558" y="426.55571428571443" fill="#666" dominant-baseline="middle" text-anchor="end" font-size="13.5">Nutritional deficiencies</text><rect x="303.6" y="420.85000000000014" width="15.599999999999966" height="11.411428571428571" fill="#F2585B" opacity="0.85"></rect><text x="324.2" y="426.55571428571443" fill="#666" dominant-baseline="middle" text-anchor="start" font-size="13.5">368,107</text></g><g class="bar"><text x="298.558" y="440.82000000000016" fill="#666" dominant-baseline="middle" text-anchor="end" font-size="13.5">Drowning</text><rect x="303.6" y="435.11428571428587" width="12.899999999999977" height="11.411428571428571" fill="#F2585B" opacity="0.85"></rect><text x="321.5" y="440.82000000000016" fill="#666" dominant-baseline="middle" text-anchor="start" font-size="13.5">302,932</text></g><g class="bar"><text x="298.558" y="455.0842857142859" fill="#666" dominant-baseline="middle" text-anchor="end" font-size="13.5">Maternal deaths</text><rect x="303.6" y="449.3785714285716" width="9.799999999999955" height="11.411428571428571" fill="#F2585B" opacity="0.85"></rect><text x="318.4" y="455.0842857142859" fill="#666" dominant-baseline="middle" text-anchor="start" font-size="13.5">230,615</text></g><g class="bar"><text x="298.558" y="469.34857142857163" fill="#666" dominant-baseline="middle" text-anchor="end" font-size="13.5">Fire</text><rect x="303.6" y="463.64285714285734" width="5.599999999999966" height="11.411428571428571" fill="#F2585B" opacity="0.85"></rect><text x="314.2" y="469.34857142857163" fill="#666" dominant-baseline="middle" text-anchor="start" font-size="13.5">132,084</text></g><g class="bar"><text x="298.558" y="483.61285714285737" fill="#666" dominant-baseline="middle" text-anchor="end" font-size="13.5">Heat-related deaths (hot or cold exposure)</text><rect x="303.6" y="477.90714285714307" width="2.2999999999999545" height="11.411428571428571" fill="#F2585B" opacity="0.85"></rect><text x="310.9" y="483.61285714285737" fill="#666" dominant-baseline="middle" text-anchor="start" font-size="13.5">55,596</text></g><g class="bar"><text x="298.558" y="497.8771428571431" fill="#666" dominant-baseline="middle" text-anchor="end" font-size="13.5">Terrorism fatalities</text><rect x="303.6" y="492.1714285714288" width="1.3999999999999773" height="11.411428571428571" fill="#F2585B" opacity="0.85"></rect><text x="310" y="497.8771428571431" fill="#666" dominant-baseline="middle" text-anchor="start" font-size="13.5">34,676</text></g><g class="bar"><text x="298.558" y="512.1414285714288" fill="#666" dominant-baseline="middle" text-anchor="end" font-size="13.5">Natural disasters</text><rect x="303.6" y="506.43571428571454" width="0.2999999999999545" height="11.411428571428571" fill="#F2585B" opacity="0.85"></rect><text x="308.9" y="512.1414285714288" fill="#666" dominant-baseline="middle" text-anchor="start" font-size="13.5">7,059</text></g></g><g style="fill: #777;" class="SourcesFooter"><g style="fill: #777;" class="clickable"><text font-size="12.60" x="15.0" y="567.0"><tspan x="15" y="566.98">Source: Institute for Health Metrics and Evaluation (IHME); Global Terrorism Database (GTD); Amnesty International</tspan></text></g><text font-size="12.60" x="15.0" y="582.5"><tspan x="15" y="582.48"><a target='_blank' style='fill: #777;' href='https://ourworldindata.org'>OurWorldInData.org</a> • <a style="fill: #777;" href="http://creativecommons.org/licenses/by-sa/4.0/deed.en_US" target="_blank">CC BY-SA</a></tspan></text></g></g></svg>