<svg xmlns="http://www.w3.org/2000/svg" version="1.1" style="font-family: 'Helvetica Neue', Helvetica, Arial, sans-serif; font-size: 24px; background-color: white;" width="1200" height="630"><g class="ChartTab"><g><g class="AxisBoxView"><g class="HorizontalAxis"><text font-size="16.80" x="302.6" y="596.6"><tspan x="302.6040000000001" y="596.64">GDP per capita, PPP (constant 2011 international $) in 2010</tspan></text><text x="204.9" y="573.2" fill="#666" text-anchor="middle" font-size="21.6">$1,000</text><text x="603.8" y="573.2" fill="#666" text-anchor="middle" font-size="21.6">$10,000</text><text x="1002.6" y="573.2" fill="#666" text-anchor="middle" font-size="21.6">$100,000</text></g><g class="VerticalAxis"><text font-size="16.80" x="-411.2" y="28.4" transform="rotate(-90)"><tspan x="-411.15999999999997" y="28.439999999999998">Antibiotic use in livestock</tspan></text><text x="114.16" y="546.6" fill="#666" dominant-baseline="middle" text-anchor="end" font-size="21.6">0 mg</text><text x="114.16" y="485.9" fill="#666" dominant-baseline="middle" text-anchor="end" font-size="21.6">50 mg</text><text x="114.16" y="425.1" fill="#666" dominant-baseline="middle" text-anchor="end" font-size="21.6">100 mg</text><text x="114.16" y="364.4" fill="#666" dominant-baseline="middle" text-anchor="end" font-size="21.6">150 mg</text><text x="114.16" y="303.6" fill="#666" dominant-baseline="middle" text-anchor="end" font-size="21.6">200 mg</text><text x="114.16" y="242.9" fill="#666" dominant-baseline="middle" text-anchor="end" font-size="21.6">250 mg</text><text x="114.16" y="182.1" fill="#666" dominant-baseline="middle" text-anchor="end" font-size="21.6">300 mg</text><text x="114.16" y="121.4" fill="#666" dominant-baseline="middle" text-anchor="end" font-size="21.6">350 mg</text><text x="114.16" y="60.6" fill="#666" dominant-baseline="middle" text-anchor="end" font-size="21.6">400 mg</text></g><g class="AxisGridLines"><line x1="119.16" y1="546.6" x2="1041.46" y2="546.6" stroke="#ccc"></line><line x1="119.16" y1="485.9" x2="1041.46" y2="485.9" stroke="#ddd" stroke-dasharray="3,2"></line><line x1="119.16" y1="425.1" x2="1041.46" y2="425.1" stroke="#ddd" stroke-dasharray="3,2"></line><line x1="119.16" y1="364.4" x2="1041.46" y2="364.4" stroke="#ddd" stroke-dasharray="3,2"></line><line x1="119.16" y1="303.6" x2="1041.46" y2="303.6" stroke="#ddd" stroke-dasharray="3,2"></line><line x1="119.16" y1="242.9" x2="1041.46" y2="242.9" stroke="#ddd" stroke-dasharray="3,2"></line><line x1="119.16" y1="182.1" x2="1041.46" y2="182.1" stroke="#ddd" stroke-dasharray="3,2"></line><line x1="119.16" y1="121.4" x2="1041.46" y2="121.4" stroke="#ddd" stroke-dasharray="3,2"></line><line x1="119.16" y1="60.6" x2="1041.46" y2="60.6" stroke="#ddd" stroke-dasharray="3,2"></line></g><g class="AxisGridLines"><line x1="204.9" y1="546.60" x2="204.9" y2="35.00" stroke="#ddd" stroke-dasharray="3,2"></line><line x1="603.8" y1="546.60" x2="603.8" y2="35.00" stroke="#ddd" stroke-dasharray="3,2"></line><line x1="1002.6" y1="546.60" x2="1002.6" y2="35.00" stroke="#ddd" stroke-dasharray="3,2"></line></g></g><g clip-path="url(#scatterBounds-175)" class="PointsWithLabels clickable"><rect x="119.16000000000001" y="35" width="922.2960000000002" height="511.6" fill="rgba(255,255,255,0)"></rect><defs><clipPath id="scatterBounds-175"><rect x="109.16000000000001" y="25" width="942.2960000000002" height="531.6"></rect></clipPath></defs><circle cx="595" cy="470" r="17.841241161527712" fill="#d14e5b" opacity="0.8"></circle><circle cx="461" cy="510" r="17.0552488775079" fill="#d14e5b" opacity="0.8"></circle><circle cx="880" cy="443" r="8.720400213078792" fill="#4d824b" opacity="0.8"></circle><circle cx="574" cy="462" r="7.712032136697414" fill="#d14e5b" opacity="0.8"></circle><circle cx="668" cy="492" r="6.9941821019108845" fill="#69c487" opacity="0.8"></circle><circle cx="456" cy="510" r="6.625767486829511" fill="#d14e5b" opacity="0.8"></circle><circle cx="488" cy="505" r="6.351057422136121" fill="#5675c1" opacity="0.8"></circle><circle cx="359" cy="496" r="6.168404866397901" fill="#d14e5b" opacity="0.8"></circle><circle cx="748" cy="435" r="6.058199943491765" fill="#ffd336" opacity="0.8"></circle><circle cx="824" cy="424" r="5.730855346499196" fill="#d14e5b" opacity="0.8"></circle><circle cx="680" cy="467" r="5.455391155456095" fill="#4d824b" opacity="0.8"></circle><circle cx="503" cy="465" r="5.002333523199165" fill="#d14e5b" opacity="0.8"></circle><circle cx="464" cy="484" r="4.873549539186985" fill="#d14e5b" opacity="0.8"></circle><circle cx="217" cy="511" r="4.753975763918569" fill="#5675c1" opacity="0.8"></circle><circle cx="845" cy="289" r="4.737956138408885" fill="#ffd336" opacity="0.8"></circle><circle cx="601" cy="476" r="4.7085679917878" fill="#5675c1" opacity="0.8"></circle><circle cx="700" cy="464" r="4.526701345209987" fill="#d14e5b" opacity="0.8"></circle><circle cx="705" cy="467" r="4.494889218548855" fill="#d14e5b" opacity="0.8"></circle><circle cx="655" cy="446" r="4.398975958763432" fill="#d14e5b" opacity="0.8"></circle><circle cx="119" cy="496" r="4.313844452157093" fill="#5675c1" opacity="0.8"></circle><circle cx="829" cy="381" r="4.226389156956174" fill="#ffd336" opacity="0.8"></circle><circle cx="826" cy="464" r="4.205435232413193" fill="#ffd336" opacity="0.8"></circle><circle cx="826" cy="35" r="4.163746969222092" fill="#ffd336" opacity="0.8"></circle><circle cx="635" cy="495" r="3.858580406727752" fill="#5675c1" opacity="0.8"></circle><circle cx="796" cy="402" r="3.79876164913726" fill="#d14e5b" opacity="0.8"></circle><circle cx="432" cy="514" r="3.7919332243862054" fill="#d14e5b" opacity="0.8"></circle><circle cx="618" cy="503" r="3.739886629177468" fill="#69c487" opacity="0.8"></circle><circle cx="808" cy="231" r="3.7330361217825105" fill="#ffd336" opacity="0.8"></circle><circle cx="561" cy="462" r="3.71319661354614" fill="#ffd336" opacity="0.8"></circle><circle cx="332" cy="509" r="3.6939362746835274" fill="#5675c1" opacity="0.8"></circle><circle cx="362" cy="509" r="3.55358906748857" fill="#5675c1" opacity="0.8"></circle><circle cx="712" cy="510" r="3.5502710077988424" fill="#69c487" opacity="0.8"></circle><circle cx="738" cy="399" r="3.4788718959408134" fill="#ffd336" opacity="0.8"></circle><circle cx="647" cy="467" r="3.382689468181721" fill="#5675c1" opacity="0.8"></circle><circle cx="415" cy="507" r="3.3361134599892783" fill="#5675c1" opacity="0.8"></circle><circle cx="846" cy="411" r="3.331887036344221" fill="#4d824b" opacity="0.8"></circle><circle cx="279" cy="506" r="3.310948135429881" fill="#5675c1" opacity="0.8"></circle><circle cx="527" cy="445" r="3.2582467325127147" fill="#5675c1" opacity="0.8"></circle><circle cx="645" cy="521" r="3.24814043491662" fill="#d14e5b" opacity="0.8"></circle><circle cx="287" cy="526" r="3.2387272623786307" fill="#d14e5b" opacity="0.8"></circle><circle cx="323" cy="518" r="3.1856016592749046" fill="#d14e5b" opacity="0.8"></circle><circle cx="603" cy="454" r="3.1528709839612725" fill="#69c487" opacity="0.8"></circle><circle cx="691" cy="491" r="3.1492669564171316" fill="#69c487" opacity="0.8"></circle><circle cx="733" cy="406" r="3.127596526231062" fill="#d14e5b" opacity="0.8"></circle><circle cx="865" cy="394" r="3.0915901392986505" fill="#d14e5b" opacity="0.8"></circle><circle cx="455" cy="521" r="3.0914615279892645" fill="#d14e5b" opacity="0.8"></circle><circle cx="398" cy="503" r="2.9731691078598312" fill="#5675c1" opacity="0.8"></circle><circle cx="190" cy="527" r="2.9333418960002793" fill="#5675c1" opacity="0.8"></circle><circle cx="849" cy="495" r="2.8880347939366855" fill="#a652ba" opacity="0.8"></circle><circle cx="703" cy="461" r="2.8560425002106204" fill="#ffd336" opacity="0.8"></circle><circle cx="576" cy="481" r="2.830154603150106" fill="#d14e5b" opacity="0.8"></circle><circle cx="261" cy="526" r="2.82408140944851" fill="#5675c1" opacity="0.8"></circle><circle cx="376" cy="522" r="2.783178019433688" fill="#5675c1" opacity="0.8"></circle><circle cx="374" cy="484" r="2.777307512522307" fill="#5675c1" opacity="0.8"></circle><circle cx="512" cy="516" r="2.755349696603822" fill="#5675c1" opacity="0.8"></circle><circle cx="718" cy="428" r="2.6701004744439434" fill="#69c487" opacity="0.8"></circle><circle cx="866" cy="346" r="2.647975911441082" fill="#ffd336" opacity="0.8"></circle><circle cx="266" cy="529" r="2.641566448299705" fill="#5675c1" opacity="0.8"></circle><circle cx="724" cy="519" r="2.621817237873686" fill="#d14e5b" opacity="0.8"></circle><circle cx="169" cy="506" r="2.5986617407490424" fill="#5675c1" opacity="0.8"></circle><circle cx="313" cy="517" r="2.592226889644081" fill="#5675c1" opacity="0.8"></circle><circle cx="592" cy="456" r="2.550873717347925" fill="#69c487" opacity="0.8"></circle><circle cx="534" cy="490" r="2.547379444766938" fill="#4d824b" opacity="0.8"></circle><circle cx="365" cy="515" r="2.535790969388283" fill="#d14e5b" opacity="0.8"></circle><circle cx="410" cy="515" r="2.4866783177745213" fill="#5675c1" opacity="0.8"></circle><circle cx="270" cy="532" r="2.4621233364250634" fill="#5675c1" opacity="0.8"></circle><circle cx="340" cy="524" r="2.455542082646412" fill="#5675c1" opacity="0.8"></circle><circle cx="786" cy="420" r="2.4035841064011363" fill="#ffd336" opacity="0.8"></circle><circle cx="318" cy="509" r="2.3971160346333362" fill="#5675c1" opacity="0.8"></circle><circle cx="848" cy="327" r="2.371731735228837" fill="#ffd336" opacity="0.8"></circle><circle cx="777" cy="330" r="2.369923132386309" fill="#ffd336" opacity="0.8"></circle><circle cx="783" cy="432" r="2.3608522682081907" fill="#ffd336" opacity="0.8"></circle><circle cx="611" cy="466" r="2.360253678653849" fill="#5675c1" opacity="0.8"></circle><circle cx="275" cy="518" r="2.3358500064448497" fill="#4d824b" opacity="0.8"></circle><circle cx="742" cy="218" r="2.335366966170416" fill="#ffd336" opacity="0.8"></circle><circle cx="235" cy="529" r="2.3352635739189793" fill="#5675c1" opacity="0.8"></circle><circle cx="497" cy="481" r="2.3326588429725756" fill="#69c487" opacity="0.8"></circle><circle cx="622" cy="470" r="2.332531454201884" fill="#4d824b" opacity="0.8"></circle><circle cx="645" cy="518" r="2.3289473109860803" fill="#ffd336" opacity="0.8"></circle><circle cx="687" cy="465" r="2.3157524966687753" fill="#ffd336" opacity="0.8"></circle><circle cx="856" cy="528" r="2.304780689071269" fill="#ffd336" opacity="0.8"></circle><circle cx="684" cy="507" r="2.2949767460602337" fill="#d14e5b" opacity="0.8"></circle><circle cx="308" cy="531" r="2.2776120912937508" fill="#5675c1" opacity="0.8"></circle><circle cx="857" cy="470" r="2.2539526510440413" fill="#ffd336" opacity="0.8"></circle><circle cx="900" cy="438" r="2.2156076658246007" fill="#ffd336" opacity="0.8"></circle><circle cx="443" cy="488" r="2.212222027152274" fill="#4d824b" opacity="0.8"></circle><circle cx="907" cy="426" r="2.2074988301731437" fill="#d14e5b" opacity="0.8"></circle><circle cx="677" cy="446" r="2.2065747454360367" fill="#ffd336" opacity="0.8"></circle><circle cx="791" cy="406" r="2.2025278095926484" fill="#d14e5b" opacity="0.8"></circle><circle cx="334" cy="527" r="2.1735430000340044" fill="#d14e5b" opacity="0.8"></circle><circle cx="332" cy="493" r="2.172441521965059" fill="#a652ba" opacity="0.8"></circle><circle cx="549" cy="516" r="2.150495750092365" fill="#69c487" opacity="0.8"></circle><circle cx="791" cy="414" r="2.145056032319587" fill="#5675c1" opacity="0.8"></circle><circle cx="444" cy="520" r="2.1365920298613794" fill="#d14e5b" opacity="0.8"></circle><circle cx="594" cy="405" r="2.135840320981518" fill="#d14e5b" opacity="0.8"></circle><circle cx="237" cy="516" r="2.1270518229776565" fill="#5675c1" opacity="0.8"></circle><circle cx="239" cy="525" r="2.1181806558526004" fill="#5675c1" opacity="0.8"></circle><circle cx="446" cy="516" r="2.1137732448844107" fill="#4d824b" opacity="0.8"></circle><circle cx="860" cy="488" r="2.100501006858644" fill="#ffd336" opacity="0.8"></circle><circle cx="763" cy="427" r="2.0955714842284525" fill="#ffd336" opacity="0.8"></circle><circle cx="843" cy="519" r="2.090093549299891" fill="#ffd336" opacity="0.8"></circle><circle cx="382" cy="527" r="2.08838823146515" fill="#d14e5b" opacity="0.8"></circle><circle cx="265" cy="525" r="2.0838516179330693" fill="#5675c1" opacity="0.8"></circle><circle cx="602" cy="520" r="2.0718818460433135" fill="#d14e5b" opacity="0.8"></circle><circle cx="920" cy="541" r="2.0628519178782962" fill="#ffd336" opacity="0.8"></circle><circle cx="649" cy="475" r="2.0500408186954897" fill="#4d824b" opacity="0.8"></circle><circle cx="866" cy="484" r="2.0391804893189005" fill="#ffd336" opacity="0.8"></circle><circle cx="724" cy="426" r="2.0353411755480932" fill="#ffd336" opacity="0.8"></circle><circle cx="184" cy="532" r="2.035209609803272" fill="#5675c1" opacity="0.8"></circle><circle cx="806" cy="510" r="2.033308490865888" fill="#a652ba" opacity="0.8"></circle><circle cx="535" cy="523" r="2.0323899572109347" fill="#d14e5b" opacity="0.8"></circle><circle cx="688" cy="399" r="2.0251711000642647" fill="#d14e5b" opacity="0.8"></circle><circle cx="490" cy="523" r="2.014426859353246" fill="#5675c1" opacity="0.8"></circle><circle cx="143" cy="505" r="2.011579827836169" fill="#5675c1" opacity="0.8"></circle><circle cx="598" cy="454" r="1.9978668117118286" fill="#ffd336" opacity="0.8"></circle><circle cx="818" cy="468" r="1.9972115548627696" fill="#4d824b" opacity="0.8"></circle><circle cx="678" cy="378" r="1.9835048809719382" fill="#4d824b" opacity="0.8"></circle><circle cx="412" cy="502" r="1.9801227404689372" fill="#5675c1" opacity="0.8"></circle><circle cx="696" cy="517" r="1.9747164148229432" fill="#69c487" opacity="0.8"></circle><circle cx="732" cy="488" r="1.9720266705871377" fill="#ffd336" opacity="0.8"></circle><circle cx="602" cy="500" r="1.9649041679661254" fill="#ffd336" opacity="0.8"></circle><circle cx="534" cy="514" r="1.958182716647752" fill="#d14e5b" opacity="0.8"></circle><circle cx="865" cy="372" r="1.9395147763929341" fill="#d14e5b" opacity="0.8"></circle><circle cx="558" cy="533" r="1.9379127455313847" fill="#d14e5b" opacity="0.8"></circle><circle cx="565" cy="430" r="1.9370061758241706" fill="#4d824b" opacity="0.8"></circle><circle cx="953" cy="397" r="1.9367441139720343" fill="#d14e5b" opacity="0.8"></circle><circle cx="574" cy="526" r="1.9090370945025492" fill="#5675c1" opacity="0.8"></circle><circle cx="708" cy="498" r="1.9071140727854905" fill="#ffd336" opacity="0.8"></circle><circle cx="354" cy="496" r="1.902133124564089" fill="#5675c1" opacity="0.8"></circle><circle cx="786" cy="489" r="1.8933638672200805" fill="#ffd336" opacity="0.8"></circle><circle cx="653" cy="524" r="1.8919524855962797" fill="#5675c1" opacity="0.8"></circle><circle cx="1041" cy="410" r="1.8764782600611936" fill="#d14e5b" opacity="0.8"></circle><circle cx="262" cy="525" r="1.861164710089774" fill="#5675c1" opacity="0.8"></circle><circle cx="678" cy="460" r="1.8605483945727683" fill="#5675c1" opacity="0.8"></circle><circle cx="746" cy="460" r="1.8501421194869114" fill="#ffd336" opacity="0.8"></circle><circle cx="549" cy="523" r="1.8402669589378666" fill="#5675c1" opacity="0.8"></circle><circle cx="815" cy="51" r="1.8349978437866217" fill="#ffd336" opacity="0.8"></circle><circle cx="372" cy="546" r="1.8211837314117822" fill="#5675c1" opacity="0.8"></circle><circle cx="510" cy="436" r="1.8125035044839344" fill="#69c487" opacity="0.8"></circle><circle cx="527" cy="530" r="1.8106516088873061" fill="#d14e5b" opacity="0.8"></circle><circle cx="814" cy="467" r="1.8089935896449034" fill="#5675c1" opacity="0.8"></circle><circle cx="662" cy="514" r="1.8045122126868298" fill="#ffd336" opacity="0.8"></circle><circle cx="305" cy="493" r="1.7984242472243315" fill="#a652ba" opacity="0.8"></circle><circle cx="664" cy="454" r="1.7975412571928755" fill="#69c487" opacity="0.8"></circle><circle cx="987" cy="473" r="1.7964174185868935" fill="#ffd336" opacity="0.8"></circle><circle cx="747" cy="365" r="1.7856211237902655" fill="#4d824b" opacity="0.8"></circle><circle cx="838" cy="531" r="1.7841241161527712" fill="#ffd336" opacity="0.8"></circle><circle cx="311" cy="515" r="1.7629151822544176" fill="#d14e5b" opacity="0.8"></circle><circle cx="464" cy="502" r="1.7629151822544176" fill="#d14e5b" opacity="0.8"></circle><text x="595" y="451.1587588384723" font-size="14.3" font-family="Arial Narrow, Arial, sans-serif" fill="#666">China</text><text x="461" y="491.9447511224921" font-size="14.012770761024797" font-family="Arial Narrow, Arial, sans-serif" fill="#666">India</text><text x="880" y="433.2795997869212" font-size="11.763012022529061" font-family="Arial Narrow, Arial, sans-serif" fill="#666">United States</text><text x="668" y="484.0058178980891" font-size="11.478940872799296" font-family="Arial Narrow, Arial, sans-serif" fill="#666">Brazil</text><text x="359" y="488.8315951336021" font-size="11.365117152051338" font-family="Arial Narrow, Arial, sans-serif" fill="#666">Bangladesh</text><text x="748" y="427.9418000565082" font-size="11.351006876719419" font-family="Arial Narrow, Arial, sans-serif" fill="#666">Russia</text><text x="824" y="417.2691446535008" font-size="11.310594648255604" font-family="Arial Narrow, Arial, sans-serif" fill="#666">Japan</text><text x="680" y="460.5446088445439" font-size="11.278326194596467" font-family="Arial Narrow, Arial, sans-serif" fill="#666">Mexico</text><text x="503" y="458.9976664768008" font-size="11.228710477467168" font-family="Arial Narrow, Arial, sans-serif" fill="#666">Philippines</text><text x="217" y="505.24602423608144" font-size="11.203336303655531" font-family="Arial Narrow, Arial, sans-serif" fill="#666">Ethiopia</text><text x="845" y="283.2620438615911" font-size="11.20174396443895" font-family="Arial Narrow, Arial, sans-serif" fill="#666">Germany</text><text x="601" y="470.2914320082122" font-size="11.198836778200553" font-family="Arial Narrow, Arial, sans-serif" fill="#666">Egypt</text><text x="655" y="440.60102404123654" font-size="11.169309754694053" font-family="Arial Narrow, Arial, sans-serif" fill="#666">Thailand</text><text x="119" y="490.68615554784293" font-size="11.161542318404585" font-family="Arial Narrow, Arial, sans-serif" fill="#666">Democratic Republic of Congo</text><text x="829" y="375.7736108430438" font-size="11.153720918737275" font-family="Arial Narrow, Arial, sans-serif" fill="#666">France</text><text x="826" y="458.7945647675868" font-size="11.1518707320724" font-family="Arial Narrow, Arial, sans-serif" fill="#666">United Kingdom</text><text x="826" y="46.14821709468464" font-size="11.148217094684643" font-family="Arial Narrow, Arial, sans-serif" fill="#666">Italy</text><text x="796" y="397.20123835086275" font-size="11.11778345247105" font-family="Arial Narrow, Arial, sans-serif" fill="#666">South Korea</text><text x="432" y="509.2080667756138" font-size="11.117240663918114" font-family="Arial Narrow, Arial, sans-serif" fill="#666">Myanmar</text><text x="618" y="498.2601133708225" font-size="11.113135591093187" font-family="Arial Narrow, Arial, sans-serif" fill="#666">Colombia</text><text x="808" y="226.2669638782175" font-size="11.112599495977607" font-family="Arial Narrow, Arial, sans-serif" fill="#666">Spain</text><text x="332" y="504.30606372531645" font-size="11.109558502512698" font-family="Arial Narrow, Arial, sans-serif" fill="#666">Tanzania</text><text x="712" y="505.44972899220113" font-size="11.09865988853327" font-family="Arial Narrow, Arial, sans-serif" fill="#666">Argentina</text><text x="738" y="394.5211281040592" font-size="11.093404270426156" font-family="Arial Narrow, Arial, sans-serif" fill="#666">Poland</text><text x="279" y="501.6890518645701" font-size="11.081464415980859" font-family="Arial Narrow, Arial, sans-serif" fill="#666">Uganda</text><text x="527" y="440.7417532674873" font-size="11.077838957472196" font-family="Arial Narrow, Arial, sans-serif" fill="#666">Morocco</text><text x="645" y="516.7518595650834" font-size="11.07715036764361" font-family="Arial Narrow, Arial, sans-serif" fill="#666">Iraq</text><text x="287" y="521.7612727376214" font-size="11.076510927823943" font-family="Arial Narrow, Arial, sans-serif" fill="#666">Afghanistan</text><text x="865" y="389.90840986070134" font-size="11.066757071272049" font-family="Arial Narrow, Arial, sans-serif" fill="#666">Saudi Arabia</text><text x="190" y="523.0666581039998" font-size="11.056772724236222" font-family="Arial Narrow, Arial, sans-serif" fill="#666">Mozambique</text><text x="849" y="491.1119652060633" font-size="11.054010743754418" font-family="Arial Narrow, Arial, sans-serif" fill="#666">Australia</text><text x="512" y="512.2446503033962" font-size="11.046169401581109" font-family="Arial Narrow, Arial, sans-serif" fill="#666">Angola</text><text x="718" y="424.3298995255561" font-size="11.041325951565632" font-family="Arial Narrow, Arial, sans-serif" fill="#666">Chile</text><text x="866" y="342.3520240885589" font-size="11.040093817711583" font-family="Arial Narrow, Arial, sans-serif" fill="#666">Netherlands</text><text x="169" y="502.40133825925096" font-size="11.037384365948071" font-family="Arial Narrow, Arial, sans-serif" fill="#666">Niger</text><text x="534" y="486.45262055523307" font-size="11.034620803157361" font-family="Arial Narrow, Arial, sans-serif" fill="#666">Guatemala</text><text x="786" y="416.5964158935989" font-size="11.027165536974124" font-family="Arial Narrow, Arial, sans-serif" fill="#666">Greece</text><text x="848" y="323.6282682647712" font-size="11.02557269574974" font-family="Arial Narrow, Arial, sans-serif" fill="#666">Belgium</text><text x="777" y="326.6300768676137" font-size="11.025482890491363" font-family="Arial Narrow, Arial, sans-serif" fill="#666">Portugal</text><text x="783" y="428.6391477317918" font-size="11.025033514762672" font-family="Arial Narrow, Arial, sans-serif" fill="#666">Czech Republic</text><text x="742" y="214.66463303382957" font-size="11.023780180922301" font-family="Arial Narrow, Arial, sans-serif" fill="#666">Hungary</text><text x="497" y="477.6673411570274" font-size="11.02364779851205" font-family="Arial Narrow, Arial, sans-serif" fill="#666">Bolivia</text><text x="856" y="524.6952193109287" font-size="11.022293947452711" font-family="Arial Narrow, Arial, sans-serif" fill="#666">Sweden</text><text x="549" y="512.8495042499077" font-size="11.015095699420566" font-family="Arial Narrow, Arial, sans-serif" fill="#666">Paraguay</text><text x="594" y="401.8641596790185" font-size="11.014437869873936" font-family="Arial Narrow, Arial, sans-serif" fill="#666">Jordan</text><text x="382" y="523.9116117685348" font-size="11.012338778389937" font-family="Arial Narrow, Arial, sans-serif" fill="#666">Kyrgyzstan</text><text x="920" y="537.9371480821217" font-size="11.011228671804822" font-family="Arial Narrow, Arial, sans-serif" fill="#666">Norway</text><text x="649" y="471.9499591813045" font-size="11.010676896327908" font-family="Arial Narrow, Arial, sans-serif" fill="#666">Costa Rica</text><text x="806" y="506.9666915091342" font-size="11.00996140970878" font-family="Arial Narrow, Arial, sans-serif" fill="#666">New Zealand</text><text x="688" y="395.97482889993574" font-size="11.009615568167508" font-family="Arial Narrow, Arial, sans-serif" fill="#666">Lebanon</text><text x="678" y="375.01649511902804" font-size="11.007866472093257" font-family="Arial Narrow, Arial, sans-serif" fill="#666">Panama</text><text x="732" y="485.0279733294129" font-size="11.007391019027935" font-family="Arial Narrow, Arial, sans-serif" fill="#666">Lithuania</text><text x="865" y="369.0604852236071" font-size="11.006059280920088" font-family="Arial Narrow, Arial, sans-serif" fill="#666">Oman</text><text x="558" y="530.0620872544686" font-size="11.00599423153663" font-family="Arial Narrow, Arial, sans-serif" fill="#666">Mongolia</text><text x="565" y="427.0629938241758" font-size="11.005957444700233" font-family="Arial Narrow, Arial, sans-serif" fill="#666">Jamaica</text><text x="953" y="394.06325588602795" font-size="11.005946813946787" font-family="Arial Narrow, Arial, sans-serif" fill="#666">Kuwait</text><text x="786" y="486.1066361327799" font-size="11.00420688443656" font-family="Arial Narrow, Arial, sans-serif" fill="#666">Slovenia</text><text x="1013.3811138982123" y="407.1235217399388" font-size="11.003540279596692" font-family="Arial Narrow, Arial, sans-serif" fill="#666">Qatar</text><text x="746" y="457.1498578805131" font-size="11.002512509673494" font-family="Arial Narrow, Arial, sans-serif" fill="#666">Estonia</text><text x="372" y="543.1788162685882" font-size="11.001399174489185" font-family="Arial Narrow, Arial, sans-serif" fill="#666">Djibouti</text><text x="925.6174279459016" y="470.2035825814131" font-size="11.000460941594707" font-family="Arial Narrow, Arial, sans-serif" fill="#666">Luxembourg</text><text x="747" y="362.2143788762097" font-size="11.00005596156576" font-family="Arial Narrow, Arial, sans-serif" fill="#666">Bahamas</text></g><g style="cursor: pointer;" class="ScatterColorLegend clickable"><g class="legendMark"><rect x="1061.4560000000001" y="32.5" width="56.007999999999996" height="21.799999999999997" fill="#fff" opacity="0"></rect>,<rect x="1061.4560000000001" y="39" width="8" height="8" fill="#5675c1"></rect>,<text font-size="16.80" x="1074.5" y="48.4"><tspan x="1074.4560000000001" y="48.44">Africa</tspan></text></g><g class="legendMark"><rect x="1061.4560000000001" y="54.3" width="45.76" height="21.799999999999997" fill="#fff" opacity="0"></rect>,<rect x="1061.4560000000001" y="60.8" width="8" height="8" fill="#d14e5b"></rect>,<text font-size="16.80" x="1074.5" y="70.2"><tspan x="1074.4560000000001" y="70.24">Asia</tspan></text></g><g class="legendMark"><rect x="1061.4560000000001" y="76.1" width="67.43199999999999" height="21.799999999999997" fill="#fff" opacity="0"></rect>,<rect x="1061.4560000000001" y="82.6" width="8" height="8" fill="#ffd336"></rect>,<text font-size="16.80" x="1074.5" y="92.0"><tspan x="1074.4560000000001" y="92.03999999999999">Europe</tspan></text></g><g class="legendMark"><rect x="1061.4560000000001" y="97.89999999999999" width="120.51999999999998" height="21.799999999999997" fill="#fff" opacity="0"></rect>,<rect x="1061.4560000000001" y="104.39999999999999" width="8" height="8" fill="#4d824b"></rect>,<text font-size="16.80" x="1074.5" y="113.8"><tspan x="1074.4560000000001" y="113.83999999999999">North America</tspan></text></g><g class="legendMark"><rect x="1061.4560000000001" y="119.69999999999999" width="75.832" height="21.799999999999997" fill="#fff" opacity="0"></rect>,<rect x="1061.4560000000001" y="126.19999999999999" width="8" height="8" fill="#a652ba"></rect>,<text font-size="16.80" x="1074.5" y="135.6"><tspan x="1074.4560000000001" y="135.64">Oceania</tspan></text></g><g class="legendMark"><rect x="1061.4560000000001" y="141.5" width="123.54399999999998" height="21.799999999999997" fill="#fff" opacity="0"></rect>,<rect x="1061.4560000000001" y="148" width="8" height="8" fill="#69c487"></rect>,<text font-size="16.80" x="1074.5" y="157.4"><tspan x="1074.4560000000001" y="157.44">South America</tspan></text></g></g></g></g></svg>