<svg xmlns="http://www.w3.org/2000/svg" version="1.1" style="font-family: 'Helvetica Neue', Helvetica, Arial, sans-serif; font-size: 18px; background-color: white; text-rendering: optimizeLegibility; -webkit-font-smoothing: antialiased;" width="850" height="600"><g class="ChartTab"><g class="HeaderView"><g opacity="0.8" transform="translate(770, 15) scale(0.31)"><a xmlns:xlink="http://www.w3.org/1999/xlink" xlink:href="https://ourworldindata.org" target="_blank"><g><rect x="0" y="0" fill="#1B2543" width="211.2" height="130.1"/><rect x="0" y="112.2" fill="#E63912" width="211.2" height="17.9"/><g><rect x="1.2" y="12.3" fill="none" width="210.2" height="99.2"/><path fill="#FFFFFF" d="M37.8,32.2c0,12.7-7.7,19.4-17.1,19.4c-9.7,0-16.6-7.5-16.6-18.7c0-11.7,7.3-19.3,17.1-19.3 C31.3,13.7,37.8,21.3,37.8,32.2z M9.2,32.8c0,7.9,4.3,14.9,11.8,14.9c7.5,0,11.8-6.9,11.8-15.3c0-7.3-3.8-14.9-11.8-14.9 C13.1,17.5,9.2,24.8,9.2,32.8z"/><path fill="#FFFFFF" d="M62.7,43.8c0,2.7,0.1,5.1,0.2,7.2h-4.3l-0.3-4.3h-0.1c-1.3,2.1-4,4.9-8.8,4.9c-4.2,0-9.1-2.3-9.1-11.6 V24.6h4.8v14.6c0,5,1.5,8.4,5.9,8.4c3.2,0,5.5-2.2,6.3-4.4c0.3-0.7,0.4-1.6,0.4-2.5V24.6h4.8V43.8z"/><path fill="#FFFFFF" d="M67.3,32.8c0-3.1-0.1-5.8-0.2-8.2h4.2l0.2,5.2h0.2c1.2-3.5,4.1-5.8,7.3-5.8c0.5,0,0.9,0.1,1.4,0.2v4.5 c-0.5-0.1-1-0.2-1.6-0.2c-3.4,0-5.8,2.6-6.5,6.2c-0.1,0.7-0.2,1.4-0.2,2.2V51h-4.8V32.8z"/><path fill="#FFFFFF" d="M95.4,51l-9.4-36.8h5l4.4,18.6c1.1,4.6,2.1,9.2,2.7,12.7h0.1c0.6-3.7,1.8-8,3-12.8l4.9-18.5h5l4.5,18.7 c1,4.4,2,8.7,2.6,12.6h0.1c0.8-4,1.8-8.1,3-12.7l4.9-18.5h4.9L120.6,51h-5L111,31.9c-1.1-4.7-1.9-8.3-2.4-12h-0.1 c-0.7,3.7-1.5,7.3-2.8,12L100.4,51H95.4z"/><path fill="#FFFFFF" d="M154.9,37.6c0,9.8-6.8,14-13.2,14c-7.2,0-12.7-5.2-12.7-13.6c0-8.8,5.8-14,13.1-14 C149.8,24,154.9,29.5,154.9,37.6z M133.9,37.9c0,5.8,3.3,10.1,8,10.1c4.6,0,8-4.3,8-10.3c0-4.5-2.2-10.1-7.9-10.1 C136.3,27.6,133.9,32.8,133.9,37.9z"/><path fill="#FFFFFF" d="M158.2,32.8c0-3.1-0.1-5.8-0.2-8.2h4.2l0.2,5.2h0.2c1.2-3.5,4.1-5.8,7.3-5.8c0.5,0,0.9,0.1,1.4,0.2v4.5 c-0.5-0.1-1-0.2-1.6-0.2c-3.4,0-5.8,2.6-6.5,6.2c-0.1,0.7-0.2,1.4-0.2,2.2V51h-4.8V32.8z"/><path fill="#FFFFFF" d="M173.5,12.3h4.8V51h-4.8V12.3z"/><path fill="#FFFFFF" d="M206.5,12.3v31.9c0,2.3,0.1,5,0.2,6.8h-4.3l-0.2-4.6H202c-1.5,2.9-4.7,5.2-9,5.2 c-6.4,0-11.3-5.4-11.3-13.4c-0.1-8.8,5.4-14.2,11.9-14.2c4,0,6.8,1.9,8,4h0.1V12.3H206.5z M201.7,35.4c0-0.6-0.1-1.4-0.2-2 c-0.7-3.1-3.3-5.6-6.9-5.6c-5,0-7.9,4.4-7.9,10.2c0,5.3,2.6,9.8,7.8,9.8c3.2,0,6.2-2.1,7.1-5.7c0.2-0.7,0.2-1.3,0.2-2.1V35.4z"/><path fill="#FFFFFF" d="M42.8,64c0.1,1.6-1.1,2.9-3.1,2.9c-1.7,0-2.9-1.3-2.9-2.9c0-1.7,1.3-3,3-3C41.7,61,42.8,62.3,42.8,64z M37.4,97.8V71.4h4.8v26.4H37.4z"/><path fill="#FFFFFF" d="M47.5,78.6c0-2.7-0.1-5-0.2-7.1h4.3l0.3,4.4h0.1c1.3-2.5,4.4-5,8.8-5c3.7,0,9.4,2.2,9.4,11.2v15.8h-4.8 V82.6c0-4.3-1.6-7.8-6.1-7.8c-3.2,0-5.6,2.2-6.5,4.9c-0.2,0.6-0.3,1.4-0.3,2.2v15.9h-4.8V78.6z"/><path fill="#FFFFFF" d="M84,61.6c2.9-0.4,6.3-0.8,10.1-0.8c6.8,0,11.7,1.6,14.9,4.6c3.3,3,5.2,7.3,5.2,13.2c0,6-1.9,10.9-5.3,14.3 c-3.4,3.4-9.1,5.3-16.3,5.3c-3.4,0-6.2-0.2-8.6-0.4V61.6z M88.8,94.1c1.2,0.2,3,0.3,4.8,0.3c10.2,0,15.7-5.7,15.7-15.6 c0.1-8.7-4.9-14.2-14.9-14.2c-2.5,0-4.3,0.2-5.6,0.5V94.1z"/><path fill="#FFFFFF" d="M132.1,97.8l-0.4-3.3h-0.2c-1.5,2.1-4.3,3.9-8.1,3.9c-5.4,0-8.1-3.8-8.1-7.6c0-6.4,5.7-9.9,15.9-9.8v-0.5 c0-2.2-0.6-6.1-6-6.1c-2.5,0-5,0.8-6.9,2l-1.1-3.2c2.2-1.4,5.4-2.3,8.7-2.3c8.1,0,10.1,5.5,10.1,10.8v9.9c0,2.3,0.1,4.5,0.4,6.3 H132.1z M131.4,84.4c-5.3-0.1-11.2,0.8-11.2,5.9c0,3.1,2.1,4.6,4.5,4.6c3.4,0,5.6-2.2,6.4-4.4c0.2-0.5,0.3-1,0.3-1.5V84.4z"/><path fill="#FFFFFF" d="M146.6,63.9v7.6h6.9v3.7h-6.9v14.2c0,3.3,0.9,5.1,3.6,5.1c1.3,0,2.2-0.2,2.8-0.3l0.2,3.6 c-0.9,0.4-2.4,0.7-4.3,0.7c-2.2,0-4-0.7-5.2-2c-1.4-1.4-1.9-3.8-1.9-6.9V75.1h-4.1v-3.7h4.1v-6.3L146.6,63.9z"/><path fill="#FFFFFF" d="M171.4,97.8l-0.4-3.3h-0.2c-1.5,2.1-4.3,3.9-8.1,3.9c-5.4,0-8.1-3.8-8.1-7.6c0-6.4,5.7-9.9,15.9-9.8v-0.5 c0-2.2-0.6-6.1-6-6.1c-2.5,0-5,0.8-6.9,2l-1.1-3.2c2.2-1.4,5.4-2.3,8.7-2.3c8.1,0,10.1,5.5,10.1,10.8v9.9c0,2.3,0.1,4.5,0.4,6.3 H171.4z M170.7,84.4c-5.3-0.1-11.2,0.8-11.2,5.9c0,3.1,2.1,4.6,4.5,4.6c3.4,0,5.6-2.2,6.4-4.4c0.2-0.5,0.3-1,0.3-1.5V84.4z"/></g></g></a></g><a href="https://ourworldindata.org/grapher/arable-land-use-per-person" target="_blank"><text font-size="27.00" x="15.0" y="36.6" fill="#555"><tspan x="15" y="36.6">Arable land use per person</tspan></text></a><text font-size="14.40" x="15.0" y="55.5" fill="#666"><tspan x="15" y="55.519999999999996">The per capita allocation of land to arable agriculture, measured as the are under arable cultivation divided by the</tspan><tspan x="15" y="71.36">national or regional population (hectares per person). Arable land includes land defined by the FAO as land under</tspan><tspan x="15" y="87.2">temporary crops (double-cropped areas are counted once), temporary meadows for mowing or for pasture, land</tspan><tspan x="15" y="103.03999999999999">under market or kitchen gardens, and land temporarily fallow. </tspan></text></g><g class="LineChart"><defs><clipPath id="boundsClip-277"><rect x="99.586" y="0" width="830" height="863.2"></rect></clipPath></defs><g class="AxisBoxView"><g class="HorizontalAxis"><text x="109.6" y="556.5" fill="#666" text-anchor="middle" font-size="16.2">1961</text><text x="204.2" y="556.5" fill="#666" text-anchor="middle" font-size="16.2">1970</text><text x="309.4" y="556.5" fill="#666" text-anchor="middle" font-size="16.2">1980</text><text x="414.6" y="556.5" fill="#666" text-anchor="middle" font-size="16.2">1990</text><text x="519.8" y="556.5" fill="#666" text-anchor="middle" font-size="16.2">2000</text><text x="624.9" y="556.5" fill="#666" text-anchor="middle" font-size="16.2">2010</text><text x="667" y="556.5" fill="#666" text-anchor="middle" font-size="16.2">2014</text></g><g class="VerticalAxis"><text x="104.59" y="535.3" fill="#666" dominant-baseline="middle" text-anchor="end" font-size="16.2">0 hectares</text><text x="104.59" y="460.4" fill="#666" dominant-baseline="middle" text-anchor="end" font-size="16.2">0.2 hectares</text><text x="104.59" y="385.6" fill="#666" dominant-baseline="middle" text-anchor="end" font-size="16.2">0.4 hectares</text><text x="104.59" y="310.7" fill="#666" dominant-baseline="middle" text-anchor="end" font-size="16.2">0.6 hectares</text><text x="104.59" y="235.8" fill="#666" dominant-baseline="middle" text-anchor="end" font-size="16.2">0.8 hectares</text><text x="104.59" y="161" fill="#666" dominant-baseline="middle" text-anchor="end" font-size="16.2">1 hectares</text></g><g class="AxisGridLines"><line x1="109.59" y1="535.3" x2="667.01" y2="535.3" stroke="#ccc"></line><line x1="109.59" y1="460.4" x2="667.01" y2="460.4" stroke="#ddd" stroke-dasharray="3,2"></line><line x1="109.59" y1="385.6" x2="667.01" y2="385.6" stroke="#ddd" stroke-dasharray="3,2"></line><line x1="109.59" y1="310.7" x2="667.01" y2="310.7" stroke="#ddd" stroke-dasharray="3,2"></line><line x1="109.59" y1="235.8" x2="667.01" y2="235.8" stroke="#ddd" stroke-dasharray="3,2"></line><line x1="109.59" y1="161" x2="667.01" y2="161" stroke="#ddd" stroke-dasharray="3,2"></line></g><g class="AxisGridLines"><line x1="204.2" y1="535.30" x2="204.2" y2="124.90" stroke="#ddd" stroke-dasharray="3,2"></line><line x1="309.4" y1="535.30" x2="309.4" y2="124.90" stroke="#ddd" stroke-dasharray="3,2"></line><line x1="414.6" y1="535.30" x2="414.6" y2="124.90" stroke="#ddd" stroke-dasharray="3,2"></line><line x1="519.8" y1="535.30" x2="519.8" y2="124.90" stroke="#ddd" stroke-dasharray="3,2"></line><line x1="624.9" y1="535.30" x2="624.9" y2="124.90" stroke="#ddd" stroke-dasharray="3,2"></line></g></g><g clip-path="url(#boundsClip-277)"><g class="HeightedLegend clickable"><g class="legendMark"><rect x="677.008" y="316.1" width="107.16000000000001" height="14.4" fill="#fff" opacity="0"></rect><rect x="677.008" y="322.05" width="10" height="2.5" fill="#2a939b"></rect><text font-size="14.40" x="692.0" y="327.6" fill="#333"><tspan x="692.008" y="327.62">North America</tspan></text></g><g class="legendMark"><rect x="677.008" y="387.40000000000003" width="157.99200000000002" height="14.4" fill="#fff" opacity="0"></rect><rect x="677.008" y="393.35" width="10" height="2.5" fill="#a652ba"></rect><text font-size="14.40" x="692.0" y="398.9" fill="#333"><tspan x="692.008" y="398.92">Europe &amp; Central Asia</tspan></text></g><g class="legendMark"><rect x="677.008" y="446.3" width="141.144" height="14.4" fill="#fff" opacity="0"></rect><rect x="677.008" y="452.25" width="10" height="2.5" fill="#f6a324"></rect><text font-size="14.40" x="692.0" y="457.8" fill="#333"><tspan x="692.008" y="457.82">Sub-Saharan Africa</tspan></text></g><g class="legendMark"><rect x="677.008" y="460.7" width="52.584" height="14.4" fill="#fff" opacity="0"></rect><rect x="677.008" y="466.65" width="10" height="2.5" fill="#818282"></rect><text font-size="14.40" x="692.0" y="472.2" fill="#333"><tspan x="692.008" y="472.21999999999997">World</tspan></text></g><g class="legendMark"><rect x="677.008" y="483.40000000000003" width="84.98400000000001" height="14.4" fill="#fff" opacity="0"></rect><rect x="677.008" y="489.35" width="10" height="2.5" fill="#ca2628"></rect><text font-size="14.40" x="692.0" y="494.9" fill="#333"><tspan x="692.008" y="494.92">South Asia</tspan></text></g><g class="legendMark"><rect x="677.008" y="497.8" width="136.24800000000002" height="14.4" fill="#fff" opacity="0"></rect><rect x="677.008" y="503.75" width="10" height="2.5" fill="#3360a9"></rect><text font-size="14.40" x="692.0" y="509.3" fill="#333"><tspan x="692.008" y="509.32000000000005">East Asia &amp; Pacific</tspan></text></g></g><g class="Lines"><rect x="110" y="125" width="557" height="410" fill="rgba(255,255,255,0)" opacity="0"></rect><g class="key-Europe-__0026-Central-Asia_0"><path stroke="#a652ba" stroke-linecap="round" d="M436 368L446 371L457 373L467 374L478 375L488 375L499 377L509 378L520 382L530 384L541 385L551 387L562 387L572 388L583 389L593 391L604 391L614 392L625 394L636 394L646 395L657 395L667 395" fill="none" stroke-width="1.5"></path><g fill="#a652ba"><circle cx="436" cy="368" r="2"></circle><circle cx="446" cy="371" r="2"></circle><circle cx="457" cy="373" r="2"></circle><circle cx="467" cy="374" r="2"></circle><circle cx="478" cy="375" r="2"></circle><circle cx="488" cy="375" r="2"></circle><circle cx="499" cy="377" r="2"></circle><circle cx="509" cy="378" r="2"></circle><circle cx="520" cy="382" r="2"></circle><circle cx="530" cy="384" r="2"></circle><circle cx="541" cy="385" r="2"></circle><circle cx="551" cy="387" r="2"></circle><circle cx="562" cy="387" r="2"></circle><circle cx="572" cy="388" r="2"></circle><circle cx="583" cy="389" r="2"></circle><circle cx="593" cy="391" r="2"></circle><circle cx="604" cy="391" r="2"></circle><circle cx="614" cy="392" r="2"></circle><circle cx="625" cy="394" r="2"></circle><circle cx="636" cy="394" r="2"></circle><circle cx="646" cy="395" r="2"></circle><circle cx="657" cy="395" r="2"></circle><circle cx="667" cy="395" r="2"></circle></g></g><g class="key-World_0"><path stroke="#818282" stroke-linecap="round" d="M110 397L120 399L131 400L141 402L152 404L162 407L173 409L183 410L194 411L204 414L215 417L225 419L236 421L246 423L257 425L267 427L278 430L288 431L299 433L309 434L320 436L331 437L341 439L352 439L362 440L373 441L383 442L394 444L404 445L415 447L425 448L436 438L446 440L457 442L467 443L478 445L488 446L499 447L509 448L520 450L530 451L541 452L551 453L562 454L572 455L583 456L593 457L604 458L614 459L625 460L636 461L646 461L657 462L667 462" fill="none" stroke-width="1.5"></path><g fill="#818282"><circle cx="110" cy="397" r="2"></circle><circle cx="120" cy="399" r="2"></circle><circle cx="131" cy="400" r="2"></circle><circle cx="141" cy="402" r="2"></circle><circle cx="152" cy="404" r="2"></circle><circle cx="162" cy="407" r="2"></circle><circle cx="173" cy="409" r="2"></circle><circle cx="183" cy="410" r="2"></circle><circle cx="194" cy="411" r="2"></circle><circle cx="204" cy="414" r="2"></circle><circle cx="215" cy="417" r="2"></circle><circle cx="225" cy="419" r="2"></circle><circle cx="236" cy="421" r="2"></circle><circle cx="246" cy="423" r="2"></circle><circle cx="257" cy="425" r="2"></circle><circle cx="267" cy="427" r="2"></circle><circle cx="278" cy="430" r="2"></circle><circle cx="288" cy="431" r="2"></circle><circle cx="299" cy="433" r="2"></circle><circle cx="309" cy="434" r="2"></circle><circle cx="320" cy="436" r="2"></circle><circle cx="331" cy="437" r="2"></circle><circle cx="341" cy="439" r="2"></circle><circle cx="352" cy="439" r="2"></circle><circle cx="362" cy="440" r="2"></circle><circle cx="373" cy="441" r="2"></circle><circle cx="383" cy="442" r="2"></circle><circle cx="394" cy="444" r="2"></circle><circle cx="404" cy="445" r="2"></circle><circle cx="415" cy="447" r="2"></circle><circle cx="425" cy="448" r="2"></circle><circle cx="436" cy="438" r="2"></circle><circle cx="446" cy="440" r="2"></circle><circle cx="457" cy="442" r="2"></circle><circle cx="467" cy="443" r="2"></circle><circle cx="478" cy="445" r="2"></circle><circle cx="488" cy="446" r="2"></circle><circle cx="499" cy="447" r="2"></circle><circle cx="509" cy="448" r="2"></circle><circle cx="520" cy="450" r="2"></circle><circle cx="530" cy="451" r="2"></circle><circle cx="541" cy="452" r="2"></circle><circle cx="551" cy="453" r="2"></circle><circle cx="562" cy="454" r="2"></circle><circle cx="572" cy="455" r="2"></circle><circle cx="583" cy="456" r="2"></circle><circle cx="593" cy="457" r="2"></circle><circle cx="604" cy="458" r="2"></circle><circle cx="614" cy="459" r="2"></circle><circle cx="625" cy="460" r="2"></circle><circle cx="636" cy="461" r="2"></circle><circle cx="646" cy="461" r="2"></circle><circle cx="657" cy="462" r="2"></circle><circle cx="667" cy="462" r="2"></circle></g></g><g class="key-East-Asia-__0026-Pacific_0"><path stroke="#3360a9" stroke-linecap="round" d="M110 464L120 464L131 465L141 466L152 467L162 468L173 469L183 471L194 473L204 474L215 476L225 478L236 479L246 480L257 481L267 482L278 482L288 483L299 483L309 484L320 485L331 484L341 483L352 482L362 481L373 482L383 482L394 483L404 483L415 484L425 485L436 486L446 487L457 488L467 490L478 492L488 491L499 491L509 491L520 491L530 492L541 493L551 494L562 493L572 494L583 495L593 496L604 496L614 496L625 497L636 496L646 496L657 497L667 497" fill="none" stroke-width="1.5"></path><g fill="#3360a9"><circle cx="110" cy="464" r="2"></circle><circle cx="120" cy="464" r="2"></circle><circle cx="131" cy="465" r="2"></circle><circle cx="141" cy="466" r="2"></circle><circle cx="152" cy="467" r="2"></circle><circle cx="162" cy="468" r="2"></circle><circle cx="173" cy="469" r="2"></circle><circle cx="183" cy="471" r="2"></circle><circle cx="194" cy="473" r="2"></circle><circle cx="204" cy="474" r="2"></circle><circle cx="215" cy="476" r="2"></circle><circle cx="225" cy="478" r="2"></circle><circle cx="236" cy="479" r="2"></circle><circle cx="246" cy="480" r="2"></circle><circle cx="257" cy="481" r="2"></circle><circle cx="267" cy="482" r="2"></circle><circle cx="278" cy="482" r="2"></circle><circle cx="288" cy="483" r="2"></circle><circle cx="299" cy="483" r="2"></circle><circle cx="309" cy="484" r="2"></circle><circle cx="320" cy="485" r="2"></circle><circle cx="331" cy="484" r="2"></circle><circle cx="341" cy="483" r="2"></circle><circle cx="352" cy="482" r="2"></circle><circle cx="362" cy="481" r="2"></circle><circle cx="373" cy="482" r="2"></circle><circle cx="383" cy="482" r="2"></circle><circle cx="394" cy="483" r="2"></circle><circle cx="404" cy="483" r="2"></circle><circle cx="415" cy="484" r="2"></circle><circle cx="425" cy="485" r="2"></circle><circle cx="436" cy="486" r="2"></circle><circle cx="446" cy="487" r="2"></circle><circle cx="457" cy="488" r="2"></circle><circle cx="467" cy="490" r="2"></circle><circle cx="478" cy="492" r="2"></circle><circle cx="488" cy="491" r="2"></circle><circle cx="499" cy="491" r="2"></circle><circle cx="509" cy="491" r="2"></circle><circle cx="520" cy="491" r="2"></circle><circle cx="530" cy="492" r="2"></circle><circle cx="541" cy="493" r="2"></circle><circle cx="551" cy="494" r="2"></circle><circle cx="562" cy="493" r="2"></circle><circle cx="572" cy="494" r="2"></circle><circle cx="583" cy="495" r="2"></circle><circle cx="593" cy="496" r="2"></circle><circle cx="604" cy="496" r="2"></circle><circle cx="614" cy="496" r="2"></circle><circle cx="625" cy="497" r="2"></circle><circle cx="636" cy="496" r="2"></circle><circle cx="646" cy="496" r="2"></circle><circle cx="657" cy="497" r="2"></circle><circle cx="667" cy="497" r="2"></circle></g></g><g class="key-South-Asia_0"><path stroke="#ca2628" stroke-linecap="round" d="M110 404L120 406L131 408L141 410L152 412L162 415L173 416L183 419L194 423L204 425L215 428L225 430L236 431L246 434L257 436L267 438L278 440L288 442L299 444L309 446L320 448L331 449L341 452L352 454L362 456L373 458L383 459L394 462L404 463L415 465L425 466L436 468L446 470L457 471L467 472L478 474L488 475L499 476L509 477L520 478L530 479L541 480L551 482L562 483L572 484L583 485L593 486L604 487L614 487L625 488L636 489L646 489L657 490L667 491" fill="none" stroke-width="1.5"></path><g fill="#ca2628"><circle cx="110" cy="404" r="2"></circle><circle cx="120" cy="406" r="2"></circle><circle cx="131" cy="408" r="2"></circle><circle cx="141" cy="410" r="2"></circle><circle cx="152" cy="412" r="2"></circle><circle cx="162" cy="415" r="2"></circle><circle cx="173" cy="416" r="2"></circle><circle cx="183" cy="419" r="2"></circle><circle cx="194" cy="423" r="2"></circle><circle cx="204" cy="425" r="2"></circle><circle cx="215" cy="428" r="2"></circle><circle cx="225" cy="430" r="2"></circle><circle cx="236" cy="431" r="2"></circle><circle cx="246" cy="434" r="2"></circle><circle cx="257" cy="436" r="2"></circle><circle cx="267" cy="438" r="2"></circle><circle cx="278" cy="440" r="2"></circle><circle cx="288" cy="442" r="2"></circle><circle cx="299" cy="444" r="2"></circle><circle cx="309" cy="446" r="2"></circle><circle cx="320" cy="448" r="2"></circle><circle cx="331" cy="449" r="2"></circle><circle cx="341" cy="452" r="2"></circle><circle cx="352" cy="454" r="2"></circle><circle cx="362" cy="456" r="2"></circle><circle cx="373" cy="458" r="2"></circle><circle cx="383" cy="459" r="2"></circle><circle cx="394" cy="462" r="2"></circle><circle cx="404" cy="463" r="2"></circle><circle cx="415" cy="465" r="2"></circle><circle cx="425" cy="466" r="2"></circle><circle cx="436" cy="468" r="2"></circle><circle cx="446" cy="470" r="2"></circle><circle cx="457" cy="471" r="2"></circle><circle cx="467" cy="472" r="2"></circle><circle cx="478" cy="474" r="2"></circle><circle cx="488" cy="475" r="2"></circle><circle cx="499" cy="476" r="2"></circle><circle cx="509" cy="477" r="2"></circle><circle cx="520" cy="478" r="2"></circle><circle cx="530" cy="479" r="2"></circle><circle cx="541" cy="480" r="2"></circle><circle cx="551" cy="482" r="2"></circle><circle cx="562" cy="483" r="2"></circle><circle cx="572" cy="484" r="2"></circle><circle cx="583" cy="485" r="2"></circle><circle cx="593" cy="486" r="2"></circle><circle cx="604" cy="487" r="2"></circle><circle cx="614" cy="487" r="2"></circle><circle cx="625" cy="488" r="2"></circle><circle cx="636" cy="489" r="2"></circle><circle cx="646" cy="489" r="2"></circle><circle cx="657" cy="490" r="2"></circle><circle cx="667" cy="491" r="2"></circle></g></g><g class="key-North-America_0"><path stroke="#2a939b" stroke-linecap="round" d="M110 125L120 137L131 138L141 146L152 152L162 158L173 164L183 157L194 147L204 153L215 158L225 163L236 168L246 172L257 176L267 179L278 182L288 182L299 185L309 188L320 191L331 196L341 199L352 202L362 205L373 208L383 214L394 217L404 220L415 223L425 228L436 234L446 239L457 244L467 248L478 254L488 259L499 263L509 268L520 271L530 273L541 279L551 283L562 291L572 295L583 303L593 304L604 307L614 313L625 318L636 325L646 320L657 324L667 323" fill="none" stroke-width="1.5"></path><g fill="#2a939b"><circle cx="110" cy="125" r="2"></circle><circle cx="120" cy="137" r="2"></circle><circle cx="131" cy="138" r="2"></circle><circle cx="141" cy="146" r="2"></circle><circle cx="152" cy="152" r="2"></circle><circle cx="162" cy="158" r="2"></circle><circle cx="173" cy="164" r="2"></circle><circle cx="183" cy="157" r="2"></circle><circle cx="194" cy="147" r="2"></circle><circle cx="204" cy="153" r="2"></circle><circle cx="215" cy="158" r="2"></circle><circle cx="225" cy="163" r="2"></circle><circle cx="236" cy="168" r="2"></circle><circle cx="246" cy="172" r="2"></circle><circle cx="257" cy="176" r="2"></circle><circle cx="267" cy="179" r="2"></circle><circle cx="278" cy="182" r="2"></circle><circle cx="288" cy="182" r="2"></circle><circle cx="299" cy="185" r="2"></circle><circle cx="309" cy="188" r="2"></circle><circle cx="320" cy="191" r="2"></circle><circle cx="331" cy="196" r="2"></circle><circle cx="341" cy="199" r="2"></circle><circle cx="352" cy="202" r="2"></circle><circle cx="362" cy="205" r="2"></circle><circle cx="373" cy="208" r="2"></circle><circle cx="383" cy="214" r="2"></circle><circle cx="394" cy="217" r="2"></circle><circle cx="404" cy="220" r="2"></circle><circle cx="415" cy="223" r="2"></circle><circle cx="425" cy="228" r="2"></circle><circle cx="436" cy="234" r="2"></circle><circle cx="446" cy="239" r="2"></circle><circle cx="457" cy="244" r="2"></circle><circle cx="467" cy="248" r="2"></circle><circle cx="478" cy="254" r="2"></circle><circle cx="488" cy="259" r="2"></circle><circle cx="499" cy="263" r="2"></circle><circle cx="509" cy="268" r="2"></circle><circle cx="520" cy="271" r="2"></circle><circle cx="530" cy="273" r="2"></circle><circle cx="541" cy="279" r="2"></circle><circle cx="551" cy="283" r="2"></circle><circle cx="562" cy="291" r="2"></circle><circle cx="572" cy="295" r="2"></circle><circle cx="583" cy="303" r="2"></circle><circle cx="593" cy="304" r="2"></circle><circle cx="604" cy="307" r="2"></circle><circle cx="614" cy="313" r="2"></circle><circle cx="625" cy="318" r="2"></circle><circle cx="636" cy="325" r="2"></circle><circle cx="646" cy="320" r="2"></circle><circle cx="657" cy="324" r="2"></circle><circle cx="667" cy="323" r="2"></circle></g></g><g class="key-Sub__002dSaharan-Africa_0"><path stroke="#f6a324" stroke-linecap="round" d="M110 321L120 323L131 322L141 324L152 325L162 333L173 334L183 337L194 334L204 342L215 348L225 357L236 355L246 366L257 370L267 374L278 384L288 389L299 394L309 396L320 403L331 405L341 408L352 408L362 408L373 407L383 411L394 413L404 416L415 418L425 419L436 421L446 423L457 425L467 425L478 426L488 428L499 431L509 432L520 435L530 437L541 438L551 438L562 439L572 440L583 442L593 443L604 444L614 446L625 447L636 448L646 448L657 451L667 454" fill="none" stroke-width="1.5"></path><g fill="#f6a324"><circle cx="110" cy="321" r="2"></circle><circle cx="120" cy="323" r="2"></circle><circle cx="131" cy="322" r="2"></circle><circle cx="141" cy="324" r="2"></circle><circle cx="152" cy="325" r="2"></circle><circle cx="162" cy="333" r="2"></circle><circle cx="173" cy="334" r="2"></circle><circle cx="183" cy="337" r="2"></circle><circle cx="194" cy="334" r="2"></circle><circle cx="204" cy="342" r="2"></circle><circle cx="215" cy="348" r="2"></circle><circle cx="225" cy="357" r="2"></circle><circle cx="236" cy="355" r="2"></circle><circle cx="246" cy="366" r="2"></circle><circle cx="257" cy="370" r="2"></circle><circle cx="267" cy="374" r="2"></circle><circle cx="278" cy="384" r="2"></circle><circle cx="288" cy="389" r="2"></circle><circle cx="299" cy="394" r="2"></circle><circle cx="309" cy="396" r="2"></circle><circle cx="320" cy="403" r="2"></circle><circle cx="331" cy="405" r="2"></circle><circle cx="341" cy="408" r="2"></circle><circle cx="352" cy="408" r="2"></circle><circle cx="362" cy="408" r="2"></circle><circle cx="373" cy="407" r="2"></circle><circle cx="383" cy="411" r="2"></circle><circle cx="394" cy="413" r="2"></circle><circle cx="404" cy="416" r="2"></circle><circle cx="415" cy="418" r="2"></circle><circle cx="425" cy="419" r="2"></circle><circle cx="436" cy="421" r="2"></circle><circle cx="446" cy="423" r="2"></circle><circle cx="457" cy="425" r="2"></circle><circle cx="467" cy="425" r="2"></circle><circle cx="478" cy="426" r="2"></circle><circle cx="488" cy="428" r="2"></circle><circle cx="499" cy="431" r="2"></circle><circle cx="509" cy="432" r="2"></circle><circle cx="520" cy="435" r="2"></circle><circle cx="530" cy="437" r="2"></circle><circle cx="541" cy="438" r="2"></circle><circle cx="551" cy="438" r="2"></circle><circle cx="562" cy="439" r="2"></circle><circle cx="572" cy="440" r="2"></circle><circle cx="583" cy="442" r="2"></circle><circle cx="593" cy="443" r="2"></circle><circle cx="604" cy="444" r="2"></circle><circle cx="614" cy="446" r="2"></circle><circle cx="625" cy="447" r="2"></circle><circle cx="636" cy="448" r="2"></circle><circle cx="646" cy="448" r="2"></circle><circle cx="657" cy="451" r="2"></circle><circle cx="667" cy="454" r="2"></circle></g></g></g></g></g><g style="fill: #777;" class="SourcesFooter"><g style="fill: #777;" class="clickable"><text font-size="12.60" x="15.0" y="581.6"><tspan x="15" y="581.58">Source: World Bank – WDI</tspan></text></g><text font-size="12.60" x="454.6" y="581.6"><tspan x="454.606" y="581.58"><a target='_blank' style='fill: #777;' href='https://ourworldindata.org/yields-and-land-use-in-agriculture/'>OurWorldInData.org/yields-and-land-use-in-agriculture/</a> • <a style="fill: #777;" href="http://creativecommons.org/licenses/by-sa/4.0/deed.en_US" target="_blank">CC BY-SA</a></tspan></text></g></g></svg>