<svg xmlns="http://www.w3.org/2000/svg" version="1.1" style="font-family: 'Helvetica Neue', Helvetica, Arial, sans-serif; font-size: 18px; background-color: white; text-rendering: optimizeLegibility; -webkit-font-smoothing: antialiased;" width="850" height="600"><g class="ChartTab"><g class="HeaderView"><g opacity="0.8" transform="translate(778, 15) scale(0.27)"><a xmlns:xlink="http://www.w3.org/1999/xlink" xlink:href="https://ourworldindata.org" target="_blank"><g><rect x="0" y="0" fill="#1B2543" width="211.2" height="130.1"/><rect x="0" y="112.2" fill="#E63912" width="211.2" height="17.9"/><g><rect x="1.2" y="12.3" fill="none" width="210.2" height="99.2"/><path fill="#FFFFFF" d="M37.8,32.2c0,12.7-7.7,19.4-17.1,19.4c-9.7,0-16.6-7.5-16.6-18.7c0-11.7,7.3-19.3,17.1-19.3 C31.3,13.7,37.8,21.3,37.8,32.2z M9.2,32.8c0,7.9,4.3,14.9,11.8,14.9c7.5,0,11.8-6.9,11.8-15.3c0-7.3-3.8-14.9-11.8-14.9 C13.1,17.5,9.2,24.8,9.2,32.8z"/><path fill="#FFFFFF" d="M62.7,43.8c0,2.7,0.1,5.1,0.2,7.2h-4.3l-0.3-4.3h-0.1c-1.3,2.1-4,4.9-8.8,4.9c-4.2,0-9.1-2.3-9.1-11.6 V24.6h4.8v14.6c0,5,1.5,8.4,5.9,8.4c3.2,0,5.5-2.2,6.3-4.4c0.3-0.7,0.4-1.6,0.4-2.5V24.6h4.8V43.8z"/><path fill="#FFFFFF" d="M67.3,32.8c0-3.1-0.1-5.8-0.2-8.2h4.2l0.2,5.2h0.2c1.2-3.5,4.1-5.8,7.3-5.8c0.5,0,0.9,0.1,1.4,0.2v4.5 c-0.5-0.1-1-0.2-1.6-0.2c-3.4,0-5.8,2.6-6.5,6.2c-0.1,0.7-0.2,1.4-0.2,2.2V51h-4.8V32.8z"/><path fill="#FFFFFF" d="M95.4,51l-9.4-36.8h5l4.4,18.6c1.1,4.6,2.1,9.2,2.7,12.7h0.1c0.6-3.7,1.8-8,3-12.8l4.9-18.5h5l4.5,18.7 c1,4.4,2,8.7,2.6,12.6h0.1c0.8-4,1.8-8.1,3-12.7l4.9-18.5h4.9L120.6,51h-5L111,31.9c-1.1-4.7-1.9-8.3-2.4-12h-0.1 c-0.7,3.7-1.5,7.3-2.8,12L100.4,51H95.4z"/><path fill="#FFFFFF" d="M154.9,37.6c0,9.8-6.8,14-13.2,14c-7.2,0-12.7-5.2-12.7-13.6c0-8.8,5.8-14,13.1-14 C149.8,24,154.9,29.5,154.9,37.6z M133.9,37.9c0,5.8,3.3,10.1,8,10.1c4.6,0,8-4.3,8-10.3c0-4.5-2.2-10.1-7.9-10.1 C136.3,27.6,133.9,32.8,133.9,37.9z"/><path fill="#FFFFFF" d="M158.2,32.8c0-3.1-0.1-5.8-0.2-8.2h4.2l0.2,5.2h0.2c1.2-3.5,4.1-5.8,7.3-5.8c0.5,0,0.9,0.1,1.4,0.2v4.5 c-0.5-0.1-1-0.2-1.6-0.2c-3.4,0-5.8,2.6-6.5,6.2c-0.1,0.7-0.2,1.4-0.2,2.2V51h-4.8V32.8z"/><path fill="#FFFFFF" d="M173.5,12.3h4.8V51h-4.8V12.3z"/><path fill="#FFFFFF" d="M206.5,12.3v31.9c0,2.3,0.1,5,0.2,6.8h-4.3l-0.2-4.6H202c-1.5,2.9-4.7,5.2-9,5.2 c-6.4,0-11.3-5.4-11.3-13.4c-0.1-8.8,5.4-14.2,11.9-14.2c4,0,6.8,1.9,8,4h0.1V12.3H206.5z M201.7,35.4c0-0.6-0.1-1.4-0.2-2 c-0.7-3.1-3.3-5.6-6.9-5.6c-5,0-7.9,4.4-7.9,10.2c0,5.3,2.6,9.8,7.8,9.8c3.2,0,6.2-2.1,7.1-5.7c0.2-0.7,0.2-1.3,0.2-2.1V35.4z"/><path fill="#FFFFFF" d="M42.8,64c0.1,1.6-1.1,2.9-3.1,2.9c-1.7,0-2.9-1.3-2.9-2.9c0-1.7,1.3-3,3-3C41.7,61,42.8,62.3,42.8,64z M37.4,97.8V71.4h4.8v26.4H37.4z"/><path fill="#FFFFFF" d="M47.5,78.6c0-2.7-0.1-5-0.2-7.1h4.3l0.3,4.4h0.1c1.3-2.5,4.4-5,8.8-5c3.7,0,9.4,2.2,9.4,11.2v15.8h-4.8 V82.6c0-4.3-1.6-7.8-6.1-7.8c-3.2,0-5.6,2.2-6.5,4.9c-0.2,0.6-0.3,1.4-0.3,2.2v15.9h-4.8V78.6z"/><path fill="#FFFFFF" d="M84,61.6c2.9-0.4,6.3-0.8,10.1-0.8c6.8,0,11.7,1.6,14.9,4.6c3.3,3,5.2,7.3,5.2,13.2c0,6-1.9,10.9-5.3,14.3 c-3.4,3.4-9.1,5.3-16.3,5.3c-3.4,0-6.2-0.2-8.6-0.4V61.6z M88.8,94.1c1.2,0.2,3,0.3,4.8,0.3c10.2,0,15.7-5.7,15.7-15.6 c0.1-8.7-4.9-14.2-14.9-14.2c-2.5,0-4.3,0.2-5.6,0.5V94.1z"/><path fill="#FFFFFF" d="M132.1,97.8l-0.4-3.3h-0.2c-1.5,2.1-4.3,3.9-8.1,3.9c-5.4,0-8.1-3.8-8.1-7.6c0-6.4,5.7-9.9,15.9-9.8v-0.5 c0-2.2-0.6-6.1-6-6.1c-2.5,0-5,0.8-6.9,2l-1.1-3.2c2.2-1.4,5.4-2.3,8.7-2.3c8.1,0,10.1,5.5,10.1,10.8v9.9c0,2.3,0.1,4.5,0.4,6.3 H132.1z M131.4,84.4c-5.3-0.1-11.2,0.8-11.2,5.9c0,3.1,2.1,4.6,4.5,4.6c3.4,0,5.6-2.2,6.4-4.4c0.2-0.5,0.3-1,0.3-1.5V84.4z"/><path fill="#FFFFFF" d="M146.6,63.9v7.6h6.9v3.7h-6.9v14.2c0,3.3,0.9,5.1,3.6,5.1c1.3,0,2.2-0.2,2.8-0.3l0.2,3.6 c-0.9,0.4-2.4,0.7-4.3,0.7c-2.2,0-4-0.7-5.2-2c-1.4-1.4-1.9-3.8-1.9-6.9V75.1h-4.1v-3.7h4.1v-6.3L146.6,63.9z"/><path fill="#FFFFFF" d="M171.4,97.8l-0.4-3.3h-0.2c-1.5,2.1-4.3,3.9-8.1,3.9c-5.4,0-8.1-3.8-8.1-7.6c0-6.4,5.7-9.9,15.9-9.8v-0.5 c0-2.2-0.6-6.1-6-6.1c-2.5,0-5,0.8-6.9,2l-1.1-3.2c2.2-1.4,5.4-2.3,8.7-2.3c8.1,0,10.1,5.5,10.1,10.8v9.9c0,2.3,0.1,4.5,0.4,6.3 H171.4z M170.7,84.4c-5.3-0.1-11.2,0.8-11.2,5.9c0,3.1,2.1,4.6,4.5,4.6c3.4,0,5.6-2.2,6.4-4.4c0.2-0.5,0.3-1,0.3-1.5V84.4z"/></g></g></a></g><a href="https://ourworldindata.org/grapher/armed-forces-personnel" target="_blank"><text font-size="25.20" x="15.0" y="35.2" fill="#555"><tspan x="15" y="35.160000000000004">Armed forces personnel</tspan></text></a><text font-size="14.40" x="15.0" y="53.7" fill="#666"><tspan x="15" y="53.72">Armed forces personnel are active duty military personnel, including paramilitary forces if the training, organization,</tspan><tspan x="15" y="69.56">equipment, and control suggest they may be used to support or replace regular military forces.</tspan></text></g><g class="LineChart"><defs><clipPath id="boundsClip-35"><rect x="78.526" y="0" width="830" height="928.8"></rect></clipPath></defs><g class="AxisBoxView"><g class="HorizontalAxis"><text x="88.5" y="556.5" fill="#666" text-anchor="middle" font-size="16.2">1985</text><text x="180.1" y="556.5" fill="#666" text-anchor="middle" font-size="16.2">1990</text><text x="271.7" y="556.5" fill="#666" text-anchor="middle" font-size="16.2">1995</text><text x="363.3" y="556.5" fill="#666" text-anchor="middle" font-size="16.2">2000</text><text x="454.9" y="556.5" fill="#666" text-anchor="middle" font-size="16.2">2005</text><text x="546.5" y="556.5" fill="#666" text-anchor="middle" font-size="16.2">2010</text><text x="638.1" y="556.5" fill="#666" text-anchor="middle" font-size="16.2">2015</text></g><g class="VerticalAxis"><text x="83.53" y="535.3" fill="#666" dominant-baseline="middle" text-anchor="end" font-size="16.2">0</text><text x="83.53" y="461.9" fill="#666" dominant-baseline="middle" text-anchor="end" font-size="16.2">5 million</text><text x="83.53" y="388.5" fill="#666" dominant-baseline="middle" text-anchor="end" font-size="16.2">10 million</text><text x="83.53" y="315.1" fill="#666" dominant-baseline="middle" text-anchor="end" font-size="16.2">15 million</text><text x="83.53" y="241.8" fill="#666" dominant-baseline="middle" text-anchor="end" font-size="16.2">20 million</text><text x="83.53" y="168.4" fill="#666" dominant-baseline="middle" text-anchor="end" font-size="16.2">25 million</text><text x="83.53" y="95" fill="#666" dominant-baseline="middle" text-anchor="end" font-size="16.2">30 million</text></g><g class="AxisGridLines"><line x1="88.53" y1="535.3" x2="638.13" y2="535.3" stroke="#ccc"></line><line x1="88.53" y1="461.9" x2="638.13" y2="461.9" stroke="#ddd" stroke-dasharray="3,2"></line><line x1="88.53" y1="388.5" x2="638.13" y2="388.5" stroke="#ddd" stroke-dasharray="3,2"></line><line x1="88.53" y1="315.1" x2="638.13" y2="315.1" stroke="#ddd" stroke-dasharray="3,2"></line><line x1="88.53" y1="241.8" x2="638.13" y2="241.8" stroke="#ddd" stroke-dasharray="3,2"></line><line x1="88.53" y1="168.4" x2="638.13" y2="168.4" stroke="#ddd" stroke-dasharray="3,2"></line><line x1="88.53" y1="95" x2="638.13" y2="95" stroke="#ddd" stroke-dasharray="3,2"></line></g></g><g clip-path="url(#boundsClip-35)"><g class="HeightedLegend clickable"><g class="legendMark"><g class="indicator"><line x1="643.135" y1="132.6" x2="655.635" y2="132.6" stroke="#666" stroke-width="0.5"></line><line x1="655.635" y1="132.6" x2="655.635" y2="132.6" stroke="#666" stroke-width="0.5"></line><line x1="655.635" y1="132.6" x2="668.135" y2="132.6" stroke="#666" stroke-width="0.5"></line></g><rect x="638.135" y="125.85" width="70.235" height="13.5" fill="#fff" opacity="0"></rect><text font-size="13.50" x="673.1" y="136.7" fill="#e6332e"><tspan x="673.135" y="136.65">World</tspan></text></g><g class="legendMark"><g class="indicator"><line x1="643.135" y1="412.3" x2="655.635" y2="412.3" stroke="#666" stroke-width="0.5"></line><line x1="655.635" y1="412.3" x2="655.635" y2="412.3" stroke="#666" stroke-width="0.5"></line><line x1="655.635" y1="412.3" x2="668.135" y2="412.3" stroke="#666" stroke-width="0.5"></line></g><rect x="638.135" y="405.55" width="148.67000000000002" height="13.5" fill="#fff" opacity="0"></rect><text font-size="13.50" x="673.1" y="416.4" fill="#2a939b"><tspan x="673.135" y="416.35">East Asia &amp; Pacific</tspan></text></g><g class="legendMark"><g class="indicator"><line x1="643.135" y1="461.3" x2="663.635" y2="461.3" stroke="#666" stroke-width="0.5"></line><line x1="663.635" y1="461.3" x2="663.635" y2="461.3" stroke="#666" stroke-width="0.5"></line><line x1="663.635" y1="461.3" x2="668.135" y2="461.3" stroke="#666" stroke-width="0.5"></line></g><rect x="638.135" y="454.55" width="169.055" height="13.5" fill="#fff" opacity="0"></rect><text font-size="13.50" x="673.1" y="465.4" fill="#a652ba"><tspan x="673.135" y="465.35">Europe &amp; Central Asia</tspan></text></g><g class="legendMark"><g class="indicator"><line x1="643.135" y1="466.3" x2="659.635" y2="466.3" stroke="#666" stroke-width="0.5"></line><line x1="659.635" y1="466.3" x2="659.635" y2="476.8" stroke="#666" stroke-width="0.5"></line><line x1="659.635" y1="476.8" x2="668.135" y2="476.8" stroke="#666" stroke-width="0.5"></line></g><rect x="638.135" y="470.05" width="100.61" height="13.5" fill="#fff" opacity="0"></rect><text font-size="13.50" x="673.1" y="480.9" fill="#f6a324"><tspan x="673.135" y="480.85">South Asia</tspan></text></g><g class="legendMark"><g class="indicator"><line x1="643.135" y1="486.5" x2="655.635" y2="486.5" stroke="#666" stroke-width="0.5"></line><line x1="655.635" y1="486.5" x2="655.635" y2="492.3" stroke="#666" stroke-width="0.5"></line><line x1="655.635" y1="492.3" x2="668.135" y2="492.3" stroke="#666" stroke-width="0.5"></line></g><rect x="638.135" y="485.55" width="193.76000000000002" height="13.5" fill="#fff" opacity="0"></rect><text font-size="13.50" x="673.1" y="496.4" fill="#34983f"><tspan x="673.135" y="496.35">Middle East &amp; North Africa</tspan></text></g><g class="legendMark"><g class="indicator"><line x1="643.135" y1="496.3" x2="651.635" y2="496.3" stroke="#666" stroke-width="0.5"></line><line x1="651.635" y1="496.3" x2="651.635" y2="507.8" stroke="#666" stroke-width="0.5"></line><line x1="651.635" y1="507.8" x2="668.135" y2="507.8" stroke="#666" stroke-width="0.5"></line></g><rect x="638.135" y="501.05" width="196.865" height="13.5" fill="#fff" opacity="0"></rect><text font-size="13.50" x="673.1" y="511.8" fill="#ca2628"><tspan x="673.135" y="511.84999999999997">Latin America &amp; Caribbean</tspan></text></g><g class="legendMark"><g class="indicator"><line x1="643.135" y1="507.2" x2="647.635" y2="507.2" stroke="#666" stroke-width="0.5"></line><line x1="647.635" y1="507.2" x2="647.635" y2="523.3" stroke="#666" stroke-width="0.5"></line><line x1="647.635" y1="523.3" x2="668.135" y2="523.3" stroke="#666" stroke-width="0.5"></line></g><rect x="638.135" y="516.55" width="153.26" height="13.5" fill="#fff" opacity="0"></rect><text font-size="13.50" x="673.1" y="527.3" fill="#3360a9"><tspan x="673.135" y="527.3499999999999">Sub-Saharan Africa</tspan></text></g></g><g class="Lines"><rect x="89" y="92" width="550" height="443" fill="rgba(255,255,255,0)" opacity="0"></rect><g class="key-Latin-America-__0026-Caribbean_0"><path stroke="#ca2628" stroke-linecap="round" d="M89 515L162 512L180 512L198 512L217 514L235 514L253 515L272 504L290 504L308 504L327 504L345 505L363 505L382 504L400 504L418 504L437 505L455 505L473 502L492 500L510 500L528 499L547 499L565 499L583 499L602 499L620 497L638 496" fill="none" stroke-width="1.5"></path><g fill="#ca2628"><circle cx="89" cy="515" r="2"></circle><circle cx="162" cy="512" r="2"></circle><circle cx="180" cy="512" r="2"></circle><circle cx="198" cy="512" r="2"></circle><circle cx="217" cy="514" r="2"></circle><circle cx="235" cy="514" r="2"></circle><circle cx="253" cy="515" r="2"></circle><circle cx="272" cy="504" r="2"></circle><circle cx="290" cy="504" r="2"></circle><circle cx="308" cy="504" r="2"></circle><circle cx="327" cy="504" r="2"></circle><circle cx="345" cy="505" r="2"></circle><circle cx="363" cy="505" r="2"></circle><circle cx="382" cy="504" r="2"></circle><circle cx="400" cy="504" r="2"></circle><circle cx="418" cy="504" r="2"></circle><circle cx="437" cy="505" r="2"></circle><circle cx="455" cy="505" r="2"></circle><circle cx="473" cy="502" r="2"></circle><circle cx="492" cy="500" r="2"></circle><circle cx="510" cy="500" r="2"></circle><circle cx="528" cy="499" r="2"></circle><circle cx="547" cy="499" r="2"></circle><circle cx="565" cy="499" r="2"></circle><circle cx="583" cy="499" r="2"></circle><circle cx="602" cy="499" r="2"></circle><circle cx="620" cy="497" r="2"></circle><circle cx="638" cy="496" r="2"></circle></g></g><g class="key-East-Asia-__0026-Pacific_0"><path stroke="#2a939b" stroke-linecap="round" d="M89 414L162 406L180 412L198 414L217 418L235 420L253 425L272 397L290 397L308 402L327 399L345 399L363 398L382 401L400 400L418 401L437 408L455 401L473 403L492 414L510 414L528 412L547 411L565 409L583 409L602 409L620 410L638 412" fill="none" stroke-width="1.5"></path><g fill="#2a939b"><circle cx="89" cy="414" r="2"></circle><circle cx="162" cy="406" r="2"></circle><circle cx="180" cy="412" r="2"></circle><circle cx="198" cy="414" r="2"></circle><circle cx="217" cy="418" r="2"></circle><circle cx="235" cy="420" r="2"></circle><circle cx="253" cy="425" r="2"></circle><circle cx="272" cy="397" r="2"></circle><circle cx="290" cy="397" r="2"></circle><circle cx="308" cy="402" r="2"></circle><circle cx="327" cy="399" r="2"></circle><circle cx="345" cy="399" r="2"></circle><circle cx="363" cy="398" r="2"></circle><circle cx="382" cy="401" r="2"></circle><circle cx="400" cy="400" r="2"></circle><circle cx="418" cy="401" r="2"></circle><circle cx="437" cy="408" r="2"></circle><circle cx="455" cy="401" r="2"></circle><circle cx="473" cy="403" r="2"></circle><circle cx="492" cy="414" r="2"></circle><circle cx="510" cy="414" r="2"></circle><circle cx="528" cy="412" r="2"></circle><circle cx="547" cy="411" r="2"></circle><circle cx="565" cy="409" r="2"></circle><circle cx="583" cy="409" r="2"></circle><circle cx="602" cy="409" r="2"></circle><circle cx="620" cy="410" r="2"></circle><circle cx="638" cy="412" r="2"></circle></g></g><g class="key-Sub__002dSaharan-Africa_0"><path stroke="#3360a9" stroke-linecap="round" d="M89 521L162 517L180 517L198 519L217 519L235 519L253 520L272 510L290 511L308 512L327 511L345 510L363 510L382 511L400 512L418 513L437 513L455 513L492 513L510 513L528 513L547 511L565 508L583 508L602 508L620 508L638 507" fill="none" stroke-width="1.5"></path><g fill="#3360a9"><circle cx="89" cy="521" r="2"></circle><circle cx="162" cy="517" r="2"></circle><circle cx="180" cy="517" r="2"></circle><circle cx="198" cy="519" r="2"></circle><circle cx="217" cy="519" r="2"></circle><circle cx="235" cy="519" r="2"></circle><circle cx="253" cy="520" r="2"></circle><circle cx="272" cy="510" r="2"></circle><circle cx="290" cy="511" r="2"></circle><circle cx="308" cy="512" r="2"></circle><circle cx="327" cy="511" r="2"></circle><circle cx="345" cy="510" r="2"></circle><circle cx="363" cy="510" r="2"></circle><circle cx="382" cy="511" r="2"></circle><circle cx="400" cy="512" r="2"></circle><circle cx="418" cy="513" r="2"></circle><circle cx="437" cy="513" r="2"></circle><circle cx="455" cy="513" r="2"></circle><circle cx="492" cy="513" r="2"></circle><circle cx="510" cy="513" r="2"></circle><circle cx="528" cy="513" r="2"></circle><circle cx="547" cy="511" r="2"></circle><circle cx="565" cy="508" r="2"></circle><circle cx="583" cy="508" r="2"></circle><circle cx="602" cy="508" r="2"></circle><circle cx="620" cy="508" r="2"></circle><circle cx="638" cy="507" r="2"></circle></g></g><g class="key-Middle-East-__0026-North-Africa_0"><path stroke="#34983f" stroke-linecap="round" d="M89 486L162 483L180 479L198 491L217 493L235 493L253 494L272 482L290 479L308 478L327 478L345 478L363 477L382 480L400 480L418 480L437 485L455 481L473 476L492 479L510 475L528 474L547 474L565 477L583 477L602 487L620 486L638 487" fill="none" stroke-width="1.5"></path><g fill="#34983f"><circle cx="89" cy="486" r="2"></circle><circle cx="162" cy="483" r="2"></circle><circle cx="180" cy="479" r="2"></circle><circle cx="198" cy="491" r="2"></circle><circle cx="217" cy="493" r="2"></circle><circle cx="235" cy="493" r="2"></circle><circle cx="253" cy="494" r="2"></circle><circle cx="272" cy="482" r="2"></circle><circle cx="290" cy="479" r="2"></circle><circle cx="308" cy="478" r="2"></circle><circle cx="327" cy="478" r="2"></circle><circle cx="345" cy="478" r="2"></circle><circle cx="363" cy="477" r="2"></circle><circle cx="382" cy="480" r="2"></circle><circle cx="400" cy="480" r="2"></circle><circle cx="418" cy="480" r="2"></circle><circle cx="437" cy="485" r="2"></circle><circle cx="455" cy="481" r="2"></circle><circle cx="473" cy="476" r="2"></circle><circle cx="492" cy="479" r="2"></circle><circle cx="510" cy="475" r="2"></circle><circle cx="528" cy="474" r="2"></circle><circle cx="547" cy="474" r="2"></circle><circle cx="565" cy="477" r="2"></circle><circle cx="583" cy="477" r="2"></circle><circle cx="602" cy="487" r="2"></circle><circle cx="620" cy="486" r="2"></circle><circle cx="638" cy="487" r="2"></circle></g></g><g class="key-Europe-__0026-Central-Asia_0"><path stroke="#a652ba" stroke-linecap="round" d="M217 433L235 441L253 441L272 422L290 426L308 425L327 428L345 433L363 439L382 443L400 445L418 448L437 452L455 449L473 455L492 456L510 456L528 458L547 458L565 462L583 461L602 465L620 463L638 461" fill="none" stroke-width="1.5"></path><g fill="#a652ba"><circle cx="217" cy="433" r="2"></circle><circle cx="235" cy="441" r="2"></circle><circle cx="253" cy="441" r="2"></circle><circle cx="272" cy="422" r="2"></circle><circle cx="290" cy="426" r="2"></circle><circle cx="308" cy="425" r="2"></circle><circle cx="327" cy="428" r="2"></circle><circle cx="345" cy="433" r="2"></circle><circle cx="363" cy="439" r="2"></circle><circle cx="382" cy="443" r="2"></circle><circle cx="400" cy="445" r="2"></circle><circle cx="418" cy="448" r="2"></circle><circle cx="437" cy="452" r="2"></circle><circle cx="455" cy="449" r="2"></circle><circle cx="473" cy="455" r="2"></circle><circle cx="492" cy="456" r="2"></circle><circle cx="510" cy="456" r="2"></circle><circle cx="528" cy="458" r="2"></circle><circle cx="547" cy="458" r="2"></circle><circle cx="565" cy="462" r="2"></circle><circle cx="583" cy="461" r="2"></circle><circle cx="602" cy="465" r="2"></circle><circle cx="620" cy="463" r="2"></circle><circle cx="638" cy="461" r="2"></circle></g></g><g class="key-South-Asia_0"><path stroke="#f6a324" stroke-linecap="round" d="M89 507L162 506L180 506L198 504L217 504L235 504L253 504L272 479L290 477L308 477L327 477L345 477L363 475L382 480L400 477L418 477L437 474L455 468L473 475L492 475L510 474L528 471L547 470L565 469L583 468L602 467L620 468L638 466" fill="none" stroke-width="1.5"></path><g fill="#f6a324"><circle cx="89" cy="507" r="2"></circle><circle cx="162" cy="506" r="2"></circle><circle cx="180" cy="506" r="2"></circle><circle cx="198" cy="504" r="2"></circle><circle cx="217" cy="504" r="2"></circle><circle cx="235" cy="504" r="2"></circle><circle cx="253" cy="504" r="2"></circle><circle cx="272" cy="479" r="2"></circle><circle cx="290" cy="477" r="2"></circle><circle cx="308" cy="477" r="2"></circle><circle cx="327" cy="477" r="2"></circle><circle cx="345" cy="477" r="2"></circle><circle cx="363" cy="475" r="2"></circle><circle cx="382" cy="480" r="2"></circle><circle cx="400" cy="477" r="2"></circle><circle cx="418" cy="477" r="2"></circle><circle cx="437" cy="474" r="2"></circle><circle cx="455" cy="468" r="2"></circle><circle cx="473" cy="475" r="2"></circle><circle cx="492" cy="475" r="2"></circle><circle cx="510" cy="474" r="2"></circle><circle cx="528" cy="471" r="2"></circle><circle cx="547" cy="470" r="2"></circle><circle cx="565" cy="469" r="2"></circle><circle cx="583" cy="468" r="2"></circle><circle cx="602" cy="467" r="2"></circle><circle cx="620" cy="468" r="2"></circle><circle cx="638" cy="466" r="2"></circle></g></g><g class="key-World_0"><path stroke="#e6332e" stroke-linecap="round" d="M89 209L162 179L180 184L198 202L217 175L235 187L253 195L272 92L290 92L308 97L327 96L345 101L363 105L382 121L400 120L418 122L437 138L455 116L473 139L492 135L510 132L528 126L547 122L565 124L583 122L602 136L620 135L638 133" fill="none" stroke-width="1.5"></path><g fill="#e6332e"><circle cx="89" cy="209" r="2"></circle><circle cx="162" cy="179" r="2"></circle><circle cx="180" cy="184" r="2"></circle><circle cx="198" cy="202" r="2"></circle><circle cx="217" cy="175" r="2"></circle><circle cx="235" cy="187" r="2"></circle><circle cx="253" cy="195" r="2"></circle><circle cx="272" cy="92" r="2"></circle><circle cx="290" cy="92" r="2"></circle><circle cx="308" cy="97" r="2"></circle><circle cx="327" cy="96" r="2"></circle><circle cx="345" cy="101" r="2"></circle><circle cx="363" cy="105" r="2"></circle><circle cx="382" cy="121" r="2"></circle><circle cx="400" cy="120" r="2"></circle><circle cx="418" cy="122" r="2"></circle><circle cx="437" cy="138" r="2"></circle><circle cx="455" cy="116" r="2"></circle><circle cx="473" cy="139" r="2"></circle><circle cx="492" cy="135" r="2"></circle><circle cx="510" cy="132" r="2"></circle><circle cx="528" cy="126" r="2"></circle><circle cx="547" cy="122" r="2"></circle><circle cx="565" cy="124" r="2"></circle><circle cx="583" cy="122" r="2"></circle><circle cx="602" cy="136" r="2"></circle><circle cx="620" cy="135" r="2"></circle><circle cx="638" cy="133" r="2"></circle></g></g></g></g></g><g style="fill: #777;" class="SourcesFooter"><g style="fill: #777;" class="clickable"><text font-size="12.60" x="15.0" y="581.6"><tspan x="15" y="581.58">Source: World Bank – WDI</tspan></text></g><text font-size="12.60" x="649.0" y="581.6"><tspan x="649.024" y="581.58"><a target='_blank' style='fill: #777;' href='https://ourworldindata.org'>OurWorldInData.org</a> • <a style="fill: #777;" href="http://creativecommons.org/licenses/by-sa/4.0/deed.en_US" target="_blank">CC BY-SA</a></tspan></text></g></g></svg>