<svg xmlns="http://www.w3.org/2000/svg" version="1.1" style="font-family: 'Helvetica Neue', Helvetica, Arial, sans-serif; font-size: 18px; background-color: white; text-rendering: optimizeLegibility; -webkit-font-smoothing: antialiased;" width="850" height="600"><g class="ChartTab"><g class="HeaderView"><g opacity="0.8" transform="translate(778, 15) scale(0.27)"><a xmlns:xlink="http://www.w3.org/1999/xlink" xlink:href="https://ourworldindata.org" target="_blank"><g><rect x="0" y="0" fill="#1B2543" width="211.2" height="130.1"/><rect x="0" y="112.2" fill="#E63912" width="211.2" height="17.9"/><g><rect x="1.2" y="12.3" fill="none" width="210.2" height="99.2"/><path fill="#FFFFFF" d="M37.8,32.2c0,12.7-7.7,19.4-17.1,19.4c-9.7,0-16.6-7.5-16.6-18.7c0-11.7,7.3-19.3,17.1-19.3 C31.3,13.7,37.8,21.3,37.8,32.2z M9.2,32.8c0,7.9,4.3,14.9,11.8,14.9c7.5,0,11.8-6.9,11.8-15.3c0-7.3-3.8-14.9-11.8-14.9 C13.1,17.5,9.2,24.8,9.2,32.8z"/><path fill="#FFFFFF" d="M62.7,43.8c0,2.7,0.1,5.1,0.2,7.2h-4.3l-0.3-4.3h-0.1c-1.3,2.1-4,4.9-8.8,4.9c-4.2,0-9.1-2.3-9.1-11.6 V24.6h4.8v14.6c0,5,1.5,8.4,5.9,8.4c3.2,0,5.5-2.2,6.3-4.4c0.3-0.7,0.4-1.6,0.4-2.5V24.6h4.8V43.8z"/><path fill="#FFFFFF" d="M67.3,32.8c0-3.1-0.1-5.8-0.2-8.2h4.2l0.2,5.2h0.2c1.2-3.5,4.1-5.8,7.3-5.8c0.5,0,0.9,0.1,1.4,0.2v4.5 c-0.5-0.1-1-0.2-1.6-0.2c-3.4,0-5.8,2.6-6.5,6.2c-0.1,0.7-0.2,1.4-0.2,2.2V51h-4.8V32.8z"/><path fill="#FFFFFF" d="M95.4,51l-9.4-36.8h5l4.4,18.6c1.1,4.6,2.1,9.2,2.7,12.7h0.1c0.6-3.7,1.8-8,3-12.8l4.9-18.5h5l4.5,18.7 c1,4.4,2,8.7,2.6,12.6h0.1c0.8-4,1.8-8.1,3-12.7l4.9-18.5h4.9L120.6,51h-5L111,31.9c-1.1-4.7-1.9-8.3-2.4-12h-0.1 c-0.7,3.7-1.5,7.3-2.8,12L100.4,51H95.4z"/><path fill="#FFFFFF" d="M154.9,37.6c0,9.8-6.8,14-13.2,14c-7.2,0-12.7-5.2-12.7-13.6c0-8.8,5.8-14,13.1-14 C149.8,24,154.9,29.5,154.9,37.6z M133.9,37.9c0,5.8,3.3,10.1,8,10.1c4.6,0,8-4.3,8-10.3c0-4.5-2.2-10.1-7.9-10.1 C136.3,27.6,133.9,32.8,133.9,37.9z"/><path fill="#FFFFFF" d="M158.2,32.8c0-3.1-0.1-5.8-0.2-8.2h4.2l0.2,5.2h0.2c1.2-3.5,4.1-5.8,7.3-5.8c0.5,0,0.9,0.1,1.4,0.2v4.5 c-0.5-0.1-1-0.2-1.6-0.2c-3.4,0-5.8,2.6-6.5,6.2c-0.1,0.7-0.2,1.4-0.2,2.2V51h-4.8V32.8z"/><path fill="#FFFFFF" d="M173.5,12.3h4.8V51h-4.8V12.3z"/><path fill="#FFFFFF" d="M206.5,12.3v31.9c0,2.3,0.1,5,0.2,6.8h-4.3l-0.2-4.6H202c-1.5,2.9-4.7,5.2-9,5.2 c-6.4,0-11.3-5.4-11.3-13.4c-0.1-8.8,5.4-14.2,11.9-14.2c4,0,6.8,1.9,8,4h0.1V12.3H206.5z M201.7,35.4c0-0.6-0.1-1.4-0.2-2 c-0.7-3.1-3.3-5.6-6.9-5.6c-5,0-7.9,4.4-7.9,10.2c0,5.3,2.6,9.8,7.8,9.8c3.2,0,6.2-2.1,7.1-5.7c0.2-0.7,0.2-1.3,0.2-2.1V35.4z"/><path fill="#FFFFFF" d="M42.8,64c0.1,1.6-1.1,2.9-3.1,2.9c-1.7,0-2.9-1.3-2.9-2.9c0-1.7,1.3-3,3-3C41.7,61,42.8,62.3,42.8,64z M37.4,97.8V71.4h4.8v26.4H37.4z"/><path fill="#FFFFFF" d="M47.5,78.6c0-2.7-0.1-5-0.2-7.1h4.3l0.3,4.4h0.1c1.3-2.5,4.4-5,8.8-5c3.7,0,9.4,2.2,9.4,11.2v15.8h-4.8 V82.6c0-4.3-1.6-7.8-6.1-7.8c-3.2,0-5.6,2.2-6.5,4.9c-0.2,0.6-0.3,1.4-0.3,2.2v15.9h-4.8V78.6z"/><path fill="#FFFFFF" d="M84,61.6c2.9-0.4,6.3-0.8,10.1-0.8c6.8,0,11.7,1.6,14.9,4.6c3.3,3,5.2,7.3,5.2,13.2c0,6-1.9,10.9-5.3,14.3 c-3.4,3.4-9.1,5.3-16.3,5.3c-3.4,0-6.2-0.2-8.6-0.4V61.6z M88.8,94.1c1.2,0.2,3,0.3,4.8,0.3c10.2,0,15.7-5.7,15.7-15.6 c0.1-8.7-4.9-14.2-14.9-14.2c-2.5,0-4.3,0.2-5.6,0.5V94.1z"/><path fill="#FFFFFF" d="M132.1,97.8l-0.4-3.3h-0.2c-1.5,2.1-4.3,3.9-8.1,3.9c-5.4,0-8.1-3.8-8.1-7.6c0-6.4,5.7-9.9,15.9-9.8v-0.5 c0-2.2-0.6-6.1-6-6.1c-2.5,0-5,0.8-6.9,2l-1.1-3.2c2.2-1.4,5.4-2.3,8.7-2.3c8.1,0,10.1,5.5,10.1,10.8v9.9c0,2.3,0.1,4.5,0.4,6.3 H132.1z M131.4,84.4c-5.3-0.1-11.2,0.8-11.2,5.9c0,3.1,2.1,4.6,4.5,4.6c3.4,0,5.6-2.2,6.4-4.4c0.2-0.5,0.3-1,0.3-1.5V84.4z"/><path fill="#FFFFFF" d="M146.6,63.9v7.6h6.9v3.7h-6.9v14.2c0,3.3,0.9,5.1,3.6,5.1c1.3,0,2.2-0.2,2.8-0.3l0.2,3.6 c-0.9,0.4-2.4,0.7-4.3,0.7c-2.2,0-4-0.7-5.2-2c-1.4-1.4-1.9-3.8-1.9-6.9V75.1h-4.1v-3.7h4.1v-6.3L146.6,63.9z"/><path fill="#FFFFFF" d="M171.4,97.8l-0.4-3.3h-0.2c-1.5,2.1-4.3,3.9-8.1,3.9c-5.4,0-8.1-3.8-8.1-7.6c0-6.4,5.7-9.9,15.9-9.8v-0.5 c0-2.2-0.6-6.1-6-6.1c-2.5,0-5,0.8-6.9,2l-1.1-3.2c2.2-1.4,5.4-2.3,8.7-2.3c8.1,0,10.1,5.5,10.1,10.8v9.9c0,2.3,0.1,4.5,0.4,6.3 H171.4z M170.7,84.4c-5.3-0.1-11.2,0.8-11.2,5.9c0,3.1,2.1,4.6,4.5,4.6c3.4,0,5.6-2.2,6.4-4.4c0.2-0.5,0.3-1,0.3-1.5V84.4z"/></g></g></a></g><a href="https://ourworldindata.org/grapher/average-weekly-hours-worked-per-person-by-age-group-united-states" target="_blank"><text font-size="23.40" x="15.0" y="33.7" fill="#555"><tspan x="15" y="33.72">Average weekly hours worked per person by age group, United States</tspan></text></a><text font-size="14.40" x="15.0" y="51.9" fill="#666"><tspan x="15" y="51.919999999999995">Figure illustrates the average weekly hours worked per person by their age group in the United States. Authors</tspan><tspan x="15" y="67.75999999999999">specify the time series for people aged 14+ is more consistent with later definitions of the working age population.</tspan></text></g><g class="LineChart"><defs><clipPath id="boundsClip-1"><rect x="55.19800000000001" y="0" width="830" height="932.4000000000001"></rect></clipPath></defs><g class="AxisBoxView"><g class="HorizontalAxis"><text x="65.2" y="556.5" fill="#666" text-anchor="middle" font-size="16.2">1900</text><text x="191.8" y="556.5" fill="#666" text-anchor="middle" font-size="16.2">1920</text><text x="318.4" y="556.5" fill="#666" text-anchor="middle" font-size="16.2">1940</text><text x="445" y="556.5" fill="#666" text-anchor="middle" font-size="16.2">1960</text><text x="571.6" y="556.5" fill="#666" text-anchor="middle" font-size="16.2">1980</text><text x="729.8" y="556.5" fill="#666" text-anchor="middle" font-size="16.2">2005</text></g><g class="VerticalAxis"><text x="60.20" y="535.3" fill="#666" dominant-baseline="middle" text-anchor="end" font-size="16.2">0 hrs</text><text x="60.20" y="466" fill="#666" dominant-baseline="middle" text-anchor="end" font-size="16.2">5 hrs</text><text x="60.20" y="396.7" fill="#666" dominant-baseline="middle" text-anchor="end" font-size="16.2">10 hrs</text><text x="60.20" y="327.4" fill="#666" dominant-baseline="middle" text-anchor="end" font-size="16.2">15 hrs</text><text x="60.20" y="258" fill="#666" dominant-baseline="middle" text-anchor="end" font-size="16.2">20 hrs</text><text x="60.20" y="188.7" fill="#666" dominant-baseline="middle" text-anchor="end" font-size="16.2">25 hrs</text><text x="60.20" y="119.4" fill="#666" dominant-baseline="middle" text-anchor="end" font-size="16.2">30 hrs</text></g><g class="AxisGridLines"><line x1="65.20" y1="535.3" x2="729.80" y2="535.3" stroke="#ccc"></line><line x1="65.20" y1="466" x2="729.80" y2="466" stroke="#ddd" stroke-dasharray="3,2"></line><line x1="65.20" y1="396.7" x2="729.80" y2="396.7" stroke="#ddd" stroke-dasharray="3,2"></line><line x1="65.20" y1="327.4" x2="729.80" y2="327.4" stroke="#ddd" stroke-dasharray="3,2"></line><line x1="65.20" y1="258" x2="729.80" y2="258" stroke="#ddd" stroke-dasharray="3,2"></line><line x1="65.20" y1="188.7" x2="729.80" y2="188.7" stroke="#ddd" stroke-dasharray="3,2"></line><line x1="65.20" y1="119.4" x2="729.80" y2="119.4" stroke="#ddd" stroke-dasharray="3,2"></line></g></g><g clip-path="url(#boundsClip-1)"><g class="HeightedLegend clickable"><g class="legendMark"><g class="indicator"><line x1="734.8" y1="101.4" x2="747.3" y2="101.4" stroke="#666" stroke-width="0.5"></line><line x1="747.3" y1="101.4" x2="747.3" y2="101.4" stroke="#666" stroke-width="0.5"></line><line x1="747.3" y1="101.4" x2="759.8" y2="101.4" stroke="#666" stroke-width="0.5"></line></g><rect x="729.8" y="94.65" width="105.2" height="13.5" fill="#fff" opacity="0"></rect><text font-size="13.50" x="764.8" y="105.5" fill="#e6332e"><tspan x="764.8" y="105.45">Aged 25-54</tspan></text></g><g class="legendMark"><g class="indicator"><line x1="734.8" y1="215.1" x2="757.3" y2="215.1" stroke="#666" stroke-width="0.5"></line><line x1="757.3" y1="215.1" x2="757.3" y2="215.1" stroke="#666" stroke-width="0.5"></line><line x1="757.3" y1="215.1" x2="759.8" y2="215.1" stroke="#666" stroke-width="0.5"></line></g><rect x="729.8" y="208.35" width="105.2" height="13.5" fill="#fff" opacity="0"></rect><text font-size="13.50" x="764.8" y="219.2" fill="#2a939b"><tspan x="764.8" y="219.15">Aged 55-64</tspan></text></g><g class="legendMark"><g class="indicator"><line x1="734.8" y1="216.5" x2="747.3" y2="216.5" stroke="#666" stroke-width="0.5"></line><line x1="747.3" y1="216.5" x2="747.3" y2="230.6" stroke="#666" stroke-width="0.5"></line><line x1="747.3" y1="230.6" x2="759.8" y2="230.6" stroke="#666" stroke-width="0.5"></line></g><rect x="729.8" y="223.85" width="93.45500000000001" height="13.5" fill="#fff" opacity="0"></rect><text font-size="13.50" x="764.8" y="234.7" fill="#a652ba"><tspan x="764.8" y="234.65">Aged 14+</tspan></text></g><g class="legendMark"><g class="indicator"><line x1="734.8" y1="245.6" x2="747.3" y2="245.6" stroke="#666" stroke-width="0.5"></line><line x1="747.3" y1="245.6" x2="747.3" y2="245.6" stroke="#666" stroke-width="0.5"></line><line x1="747.3" y1="245.6" x2="759.8" y2="245.6" stroke="#666" stroke-width="0.5"></line></g><rect x="729.8" y="238.85" width="105.2" height="13.5" fill="#fff" opacity="0"></rect><text font-size="13.50" x="764.8" y="249.7" fill="#f6a324"><tspan x="764.8" y="249.65">Aged 18-24</tspan></text></g><g class="legendMark"><g class="indicator"><line x1="734.8" y1="477.1" x2="747.3" y2="477.1" stroke="#666" stroke-width="0.5"></line><line x1="747.3" y1="477.1" x2="747.3" y2="477.1" stroke="#666" stroke-width="0.5"></line><line x1="747.3" y1="477.1" x2="759.8" y2="477.1" stroke="#666" stroke-width="0.5"></line></g><rect x="729.8" y="470.35" width="93.45500000000001" height="13.5" fill="#fff" opacity="0"></rect><text font-size="13.50" x="764.8" y="481.2" fill="#34983f"><tspan x="764.8" y="481.15000000000003">Aged 65+</tspan></text></g><g class="legendMark"><g class="indicator"><line x1="734.8" y1="495.1" x2="747.3" y2="495.1" stroke="#666" stroke-width="0.5"></line><line x1="747.3" y1="495.1" x2="747.3" y2="495.1" stroke="#666" stroke-width="0.5"></line><line x1="747.3" y1="495.1" x2="759.8" y2="495.1" stroke="#666" stroke-width="0.5"></line></g><rect x="729.8" y="488.35" width="105.2" height="13.5" fill="#fff" opacity="0"></rect><text font-size="13.50" x="764.8" y="499.2" fill="#ca2628"><tspan x="764.8" y="499.15000000000003">Aged 14-17</tspan></text></g><g class="legendMark"><g class="indicator"><line x1="734.8" y1="535.3" x2="747.3" y2="535.3" stroke="#666" stroke-width="0.5"></line><line x1="747.3" y1="535.3" x2="747.3" y2="535.3" stroke="#666" stroke-width="0.5"></line><line x1="747.3" y1="535.3" x2="759.8" y2="535.3" stroke="#666" stroke-width="0.5"></line></g><rect x="729.8" y="528.55" width="105.2" height="13.5" fill="#fff" opacity="0"></rect><text font-size="13.50" x="764.8" y="539.3" fill="#3360a9"><tspan x="764.8" y="539.3499999999999">Aged 10-13</tspan></text></g></g><g class="Lines"><rect x="65" y="90" width="665" height="445" fill="rgba(255,255,255,0)" opacity="0"></rect><g class="key-United-States_0"><path stroke="#34983f" stroke-linecap="round" d="M65 268L129 272L192 309L255 330L318 390L382 406L445 444L508 469L572 491L635 490L698 485L730 477" fill="none" stroke-width="1.5"></path><g fill="#34983f"><circle cx="65" cy="268" r="2"></circle><circle cx="129" cy="272" r="2"></circle><circle cx="192" cy="309" r="2"></circle><circle cx="255" cy="330" r="2"></circle><circle cx="318" cy="390" r="2"></circle><circle cx="382" cy="406" r="2"></circle><circle cx="445" cy="444" r="2"></circle><circle cx="508" cy="469" r="2"></circle><circle cx="572" cy="491" r="2"></circle><circle cx="635" cy="490" r="2"></circle><circle cx="698" cy="485" r="2"></circle><circle cx="730" cy="477" r="2"></circle></g></g><g class="key-United-States_1"><path stroke="#2a939b" stroke-linecap="round" d="M65 164L129 131L192 157L255 196L318 239L382 232L445 225L508 223L572 272L635 261L698 237L730 215" fill="none" stroke-width="1.5"></path><g fill="#2a939b"><circle cx="65" cy="164" r="2"></circle><circle cx="129" cy="131" r="2"></circle><circle cx="192" cy="157" r="2"></circle><circle cx="255" cy="196" r="2"></circle><circle cx="318" cy="239" r="2"></circle><circle cx="382" cy="232" r="2"></circle><circle cx="445" cy="225" r="2"></circle><circle cx="508" cy="223" r="2"></circle><circle cx="572" cy="272" r="2"></circle><circle cx="635" cy="261" r="2"></circle><circle cx="698" cy="237" r="2"></circle><circle cx="730" cy="215" r="2"></circle></g></g><g class="key-United-States_2"><path stroke="#e6332e" stroke-linecap="round" d="M65 125L129 104L192 113L255 153L318 172L382 167L445 161L508 156L572 147L635 97L698 90L730 101" fill="none" stroke-width="1.5"></path><g fill="#e6332e"><circle cx="65" cy="125" r="2"></circle><circle cx="129" cy="104" r="2"></circle><circle cx="192" cy="113" r="2"></circle><circle cx="255" cy="153" r="2"></circle><circle cx="318" cy="172" r="2"></circle><circle cx="382" cy="167" r="2"></circle><circle cx="445" cy="161" r="2"></circle><circle cx="508" cy="156" r="2"></circle><circle cx="572" cy="147" r="2"></circle><circle cx="635" cy="97" r="2"></circle><circle cx="698" cy="90" r="2"></circle><circle cx="730" cy="101" r="2"></circle></g></g><g class="key-United-States_3"><path stroke="#f6a324" stroke-linecap="round" d="M65 128L129 132L192 117L255 168L318 200L382 204L445 210L508 228L572 223L635 217L698 222L730 246" fill="none" stroke-width="1.5"></path><g fill="#f6a324"><circle cx="65" cy="128" r="2"></circle><circle cx="129" cy="132" r="2"></circle><circle cx="192" cy="117" r="2"></circle><circle cx="255" cy="168" r="2"></circle><circle cx="318" cy="200" r="2"></circle><circle cx="382" cy="204" r="2"></circle><circle cx="445" cy="210" r="2"></circle><circle cx="508" cy="228" r="2"></circle><circle cx="572" cy="223" r="2"></circle><circle cx="635" cy="217" r="2"></circle><circle cx="698" cy="222" r="2"></circle><circle cx="730" cy="246" r="2"></circle></g></g><g class="key-United-States_4"><path stroke="#ca2628" stroke-linecap="round" d="M65 248L129 268L192 301L255 376L318 459L382 451L445 473L508 479L572 473L635 481L698 481L730 495" fill="none" stroke-width="1.5"></path><g fill="#ca2628"><circle cx="65" cy="248" r="2"></circle><circle cx="129" cy="268" r="2"></circle><circle cx="192" cy="301" r="2"></circle><circle cx="255" cy="376" r="2"></circle><circle cx="318" cy="459" r="2"></circle><circle cx="382" cy="451" r="2"></circle><circle cx="445" cy="473" r="2"></circle><circle cx="508" cy="479" r="2"></circle><circle cx="572" cy="473" r="2"></circle><circle cx="635" cy="481" r="2"></circle><circle cx="698" cy="481" r="2"></circle><circle cx="730" cy="495" r="2"></circle></g></g><g class="key-United-States_5"><path stroke="#3360a9" stroke-linecap="round" d="M65 463L129 483L192 513L255 523L318 535L382 535L445 535L508 535L572 535L635 535L698 535L730 535" fill="none" stroke-width="1.5"></path><g fill="#3360a9"><circle cx="65" cy="463" r="2"></circle><circle cx="129" cy="483" r="2"></circle><circle cx="192" cy="513" r="2"></circle><circle cx="255" cy="523" r="2"></circle><circle cx="318" cy="535" r="2"></circle><circle cx="382" cy="535" r="2"></circle><circle cx="445" cy="535" r="2"></circle><circle cx="508" cy="535" r="2"></circle><circle cx="572" cy="535" r="2"></circle><circle cx="635" cy="535" r="2"></circle><circle cx="698" cy="535" r="2"></circle><circle cx="730" cy="535" r="2"></circle></g></g><g class="key-United-States_6"><path stroke="#a652ba" stroke-linecap="round" d="M65 151L129 140L192 150L255 196L318 230L382 226L445 239L508 251L572 253L635 217L698 210L730 217" fill="none" stroke-width="1.5"></path><g fill="#a652ba"><circle cx="65" cy="151" r="2"></circle><circle cx="129" cy="140" r="2"></circle><circle cx="192" cy="150" r="2"></circle><circle cx="255" cy="196" r="2"></circle><circle cx="318" cy="230" r="2"></circle><circle cx="382" cy="226" r="2"></circle><circle cx="445" cy="239" r="2"></circle><circle cx="508" cy="251" r="2"></circle><circle cx="572" cy="253" r="2"></circle><circle cx="635" cy="217" r="2"></circle><circle cx="698" cy="210" r="2"></circle><circle cx="730" cy="217" r="2"></circle></g></g></g></g></g><g style="fill: #777;" class="SourcesFooter"><g style="fill: #777;" class="clickable"><text font-size="12.60" x="15.0" y="581.6"><tspan x="15" y="581.58">Source: Ramey and Francis (2009)</tspan></text></g><text font-size="12.60" x="649.0" y="581.6"><tspan x="649.024" y="581.58"><a target='_blank' style='fill: #777;' href='https://ourworldindata.org'>OurWorldInData.org</a> • <a style="fill: #777;" href="http://creativecommons.org/licenses/by-sa/4.0/deed.en_US" target="_blank">CC BY-SA</a></tspan></text></g></g></svg>