<svg xmlns="http://www.w3.org/2000/svg" version="1.1" style="font-family: 'Helvetica Neue', Helvetica, Arial, sans-serif; font-size: 18px; background-color: white; text-rendering: optimizeLegibility; -webkit-font-smoothing: antialiased;" width="850" height="600"><g class="ChartTab"><g class="HeaderView"><g opacity="0.8" transform="translate(778, 15) scale(0.27)"><a xmlns:xlink="http://www.w3.org/1999/xlink" xlink:href="https://ourworldindata.org" target="_blank"><g><rect x="0" y="0" fill="#1B2543" width="211.2" height="130.1"/><rect x="0" y="112.2" fill="#E63912" width="211.2" height="17.9"/><g><rect x="1.2" y="12.3" fill="none" width="210.2" height="99.2"/><path fill="#FFFFFF" d="M37.8,32.2c0,12.7-7.7,19.4-17.1,19.4c-9.7,0-16.6-7.5-16.6-18.7c0-11.7,7.3-19.3,17.1-19.3 C31.3,13.7,37.8,21.3,37.8,32.2z M9.2,32.8c0,7.9,4.3,14.9,11.8,14.9c7.5,0,11.8-6.9,11.8-15.3c0-7.3-3.8-14.9-11.8-14.9 C13.1,17.5,9.2,24.8,9.2,32.8z"/><path fill="#FFFFFF" d="M62.7,43.8c0,2.7,0.1,5.1,0.2,7.2h-4.3l-0.3-4.3h-0.1c-1.3,2.1-4,4.9-8.8,4.9c-4.2,0-9.1-2.3-9.1-11.6 V24.6h4.8v14.6c0,5,1.5,8.4,5.9,8.4c3.2,0,5.5-2.2,6.3-4.4c0.3-0.7,0.4-1.6,0.4-2.5V24.6h4.8V43.8z"/><path fill="#FFFFFF" d="M67.3,32.8c0-3.1-0.1-5.8-0.2-8.2h4.2l0.2,5.2h0.2c1.2-3.5,4.1-5.8,7.3-5.8c0.5,0,0.9,0.1,1.4,0.2v4.5 c-0.5-0.1-1-0.2-1.6-0.2c-3.4,0-5.8,2.6-6.5,6.2c-0.1,0.7-0.2,1.4-0.2,2.2V51h-4.8V32.8z"/><path fill="#FFFFFF" d="M95.4,51l-9.4-36.8h5l4.4,18.6c1.1,4.6,2.1,9.2,2.7,12.7h0.1c0.6-3.7,1.8-8,3-12.8l4.9-18.5h5l4.5,18.7 c1,4.4,2,8.7,2.6,12.6h0.1c0.8-4,1.8-8.1,3-12.7l4.9-18.5h4.9L120.6,51h-5L111,31.9c-1.1-4.7-1.9-8.3-2.4-12h-0.1 c-0.7,3.7-1.5,7.3-2.8,12L100.4,51H95.4z"/><path fill="#FFFFFF" d="M154.9,37.6c0,9.8-6.8,14-13.2,14c-7.2,0-12.7-5.2-12.7-13.6c0-8.8,5.8-14,13.1-14 C149.8,24,154.9,29.5,154.9,37.6z M133.9,37.9c0,5.8,3.3,10.1,8,10.1c4.6,0,8-4.3,8-10.3c0-4.5-2.2-10.1-7.9-10.1 C136.3,27.6,133.9,32.8,133.9,37.9z"/><path fill="#FFFFFF" d="M158.2,32.8c0-3.1-0.1-5.8-0.2-8.2h4.2l0.2,5.2h0.2c1.2-3.5,4.1-5.8,7.3-5.8c0.5,0,0.9,0.1,1.4,0.2v4.5 c-0.5-0.1-1-0.2-1.6-0.2c-3.4,0-5.8,2.6-6.5,6.2c-0.1,0.7-0.2,1.4-0.2,2.2V51h-4.8V32.8z"/><path fill="#FFFFFF" d="M173.5,12.3h4.8V51h-4.8V12.3z"/><path fill="#FFFFFF" d="M206.5,12.3v31.9c0,2.3,0.1,5,0.2,6.8h-4.3l-0.2-4.6H202c-1.5,2.9-4.7,5.2-9,5.2 c-6.4,0-11.3-5.4-11.3-13.4c-0.1-8.8,5.4-14.2,11.9-14.2c4,0,6.8,1.9,8,4h0.1V12.3H206.5z M201.7,35.4c0-0.6-0.1-1.4-0.2-2 c-0.7-3.1-3.3-5.6-6.9-5.6c-5,0-7.9,4.4-7.9,10.2c0,5.3,2.6,9.8,7.8,9.8c3.2,0,6.2-2.1,7.1-5.7c0.2-0.7,0.2-1.3,0.2-2.1V35.4z"/><path fill="#FFFFFF" d="M42.8,64c0.1,1.6-1.1,2.9-3.1,2.9c-1.7,0-2.9-1.3-2.9-2.9c0-1.7,1.3-3,3-3C41.7,61,42.8,62.3,42.8,64z M37.4,97.8V71.4h4.8v26.4H37.4z"/><path fill="#FFFFFF" d="M47.5,78.6c0-2.7-0.1-5-0.2-7.1h4.3l0.3,4.4h0.1c1.3-2.5,4.4-5,8.8-5c3.7,0,9.4,2.2,9.4,11.2v15.8h-4.8 V82.6c0-4.3-1.6-7.8-6.1-7.8c-3.2,0-5.6,2.2-6.5,4.9c-0.2,0.6-0.3,1.4-0.3,2.2v15.9h-4.8V78.6z"/><path fill="#FFFFFF" d="M84,61.6c2.9-0.4,6.3-0.8,10.1-0.8c6.8,0,11.7,1.6,14.9,4.6c3.3,3,5.2,7.3,5.2,13.2c0,6-1.9,10.9-5.3,14.3 c-3.4,3.4-9.1,5.3-16.3,5.3c-3.4,0-6.2-0.2-8.6-0.4V61.6z M88.8,94.1c1.2,0.2,3,0.3,4.8,0.3c10.2,0,15.7-5.7,15.7-15.6 c0.1-8.7-4.9-14.2-14.9-14.2c-2.5,0-4.3,0.2-5.6,0.5V94.1z"/><path fill="#FFFFFF" d="M132.1,97.8l-0.4-3.3h-0.2c-1.5,2.1-4.3,3.9-8.1,3.9c-5.4,0-8.1-3.8-8.1-7.6c0-6.4,5.7-9.9,15.9-9.8v-0.5 c0-2.2-0.6-6.1-6-6.1c-2.5,0-5,0.8-6.9,2l-1.1-3.2c2.2-1.4,5.4-2.3,8.7-2.3c8.1,0,10.1,5.5,10.1,10.8v9.9c0,2.3,0.1,4.5,0.4,6.3 H132.1z M131.4,84.4c-5.3-0.1-11.2,0.8-11.2,5.9c0,3.1,2.1,4.6,4.5,4.6c3.4,0,5.6-2.2,6.4-4.4c0.2-0.5,0.3-1,0.3-1.5V84.4z"/><path fill="#FFFFFF" d="M146.6,63.9v7.6h6.9v3.7h-6.9v14.2c0,3.3,0.9,5.1,3.6,5.1c1.3,0,2.2-0.2,2.8-0.3l0.2,3.6 c-0.9,0.4-2.4,0.7-4.3,0.7c-2.2,0-4-0.7-5.2-2c-1.4-1.4-1.9-3.8-1.9-6.9V75.1h-4.1v-3.7h4.1v-6.3L146.6,63.9z"/><path fill="#FFFFFF" d="M171.4,97.8l-0.4-3.3h-0.2c-1.5,2.1-4.3,3.9-8.1,3.9c-5.4,0-8.1-3.8-8.1-7.6c0-6.4,5.7-9.9,15.9-9.8v-0.5 c0-2.2-0.6-6.1-6-6.1c-2.5,0-5,0.8-6.9,2l-1.1-3.2c2.2-1.4,5.4-2.3,8.7-2.3c8.1,0,10.1,5.5,10.1,10.8v9.9c0,2.3,0.1,4.5,0.4,6.3 H171.4z M170.7,84.4c-5.3-0.1-11.2,0.8-11.2,5.9c0,3.1,2.1,4.6,4.5,4.6c3.4,0,5.6-2.2,6.4-4.4c0.2-0.5,0.3-1,0.3-1.5V84.4z"/></g></g></a></g><a href="https://ourworldindata.org/grapher/battle-related-deaths-in-state-based-conflicts-since-1946" target="_blank"><text font-size="25.20" x="15.0" y="35.2" fill="#555"><tspan x="15" y="35.160000000000004">Battle-related deaths in state-based conflicts since 1946</tspan></text></a><text font-size="14.40" x="15.0" y="53.7" fill="#666"><tspan x="15" y="53.72">Only conflicts in which at least one party was the government of a state and which generated more than 25</tspan><tspan x="15" y="69.56">battle-related deaths are included. The data refer to direct violent deaths. Deaths due to disease or famine caused by</tspan><tspan x="15" y="85.4">conflict are excluded. Extra-judicial killings in custody are also excluded.</tspan></text></g><g class="StackedArea"><defs><clipPath id="boundsClip-1"><rect x="78.968" y="0" width="820" height="843"></rect></clipPath></defs><g class="AxisBoxView"><g class="HorizontalAxis"><text x="79" y="529.1" fill="#666" text-anchor="middle" font-size="16.2">1946</text><text x="201.8" y="529.1" fill="#666" text-anchor="middle" font-size="16.2">1960</text><text x="289.5" y="529.1" fill="#666" text-anchor="middle" font-size="16.2">1970</text><text x="377.3" y="529.1" fill="#666" text-anchor="middle" font-size="16.2">1980</text><text x="465" y="529.1" fill="#666" text-anchor="middle" font-size="16.2">1990</text><text x="552.7" y="529.1" fill="#666" text-anchor="middle" font-size="16.2">2000</text><text x="640.4" y="529.1" fill="#666" text-anchor="middle" font-size="16.2">2010</text><text x="693.1" y="529.1" fill="#666" text-anchor="middle" font-size="16.2">2016</text></g><g class="VerticalAxis"><text x="73.97" y="507.9" fill="#666" dominant-baseline="middle" text-anchor="end" font-size="16.2">0</text><text x="73.97" y="434.7" fill="#666" dominant-baseline="middle" text-anchor="end" font-size="16.2">100,000</text><text x="73.97" y="361.4" fill="#666" dominant-baseline="middle" text-anchor="end" font-size="16.2">200,000</text><text x="73.97" y="288.2" fill="#666" dominant-baseline="middle" text-anchor="end" font-size="16.2">300,000</text><text x="73.97" y="214.9" fill="#666" dominant-baseline="middle" text-anchor="end" font-size="16.2">400,000</text><text x="73.97" y="141.7" fill="#666" dominant-baseline="middle" text-anchor="end" font-size="16.2">500,000</text></g><g class="AxisGridLines"><line x1="78.97" y1="507.9" x2="693.08" y2="507.9" stroke="#ccc"></line><line x1="78.97" y1="434.7" x2="693.08" y2="434.7" stroke="#ddd" stroke-dasharray="3,2"></line><line x1="78.97" y1="361.4" x2="693.08" y2="361.4" stroke="#ddd" stroke-dasharray="3,2"></line><line x1="78.97" y1="288.2" x2="693.08" y2="288.2" stroke="#ddd" stroke-dasharray="3,2"></line><line x1="78.97" y1="214.9" x2="693.08" y2="214.9" stroke="#ddd" stroke-dasharray="3,2"></line><line x1="78.97" y1="141.7" x2="693.08" y2="141.7" stroke="#ddd" stroke-dasharray="3,2"></line></g></g><g clip-path="url(#boundsClip-1)"><g class="HeightedLegend clickable"><g class="legendMark"><g class="indicator"><line x1="698.0799999999999" y1="507.9" x2="720.5799999999999" y2="507.9" stroke="#666" stroke-width="0.5"></line><line x1="720.5799999999999" y1="507.9" x2="720.5799999999999" y2="493.85" stroke="#666" stroke-width="0.5"></line><line x1="720.5799999999999" y1="493.85" x2="723.0799999999999" y2="493.85" stroke="#666" stroke-width="0.5"></line></g><rect x="693.0799999999999" y="479.8" width="134.9" height="28.1" fill="#fff" opacity="0"></rect><text font-size="13.50" x="728.1" y="490.6" fill="#34983f"><tspan x="728.0799999999999" y="490.6">Colonial or</tspan><tspan x="728.0799999999999" y="505.45000000000005">imperial conflicts</tspan></text></g><g class="legendMark"><g class="indicator"><line x1="698.0799999999999" y1="507.9" x2="715.5799999999999" y2="507.9" stroke="#666" stroke-width="0.5"></line><line x1="715.5799999999999" y1="507.9" x2="715.5799999999999" y2="463.75000000000006" stroke="#666" stroke-width="0.5"></line><line x1="715.5799999999999" y1="463.75000000000006" x2="723.0799999999999" y2="463.75000000000006" stroke="#666" stroke-width="0.5"></line></g><rect x="693.0799999999999" y="449.70000000000005" width="141.92000000000002" height="28.1" fill="#fff" opacity="0"></rect><text font-size="13.50" x="728.1" y="460.5" fill="#3360a9"><tspan x="728.0799999999999" y="460.50000000000006">Conflicts between</tspan><tspan x="728.0799999999999" y="475.3500000000001">states</tspan></text></g><g class="legendMark"><g class="indicator"><line x1="698.0799999999999" y1="505.1" x2="710.5799999999999" y2="505.1" stroke="#666" stroke-width="0.5"></line><line x1="710.5799999999999" y1="505.1" x2="710.5799999999999" y2="440.95000000000005" stroke="#666" stroke-width="0.5"></line><line x1="710.5799999999999" y1="440.95000000000005" x2="723.0799999999999" y2="440.95000000000005" stroke="#666" stroke-width="0.5"></line></g><rect x="693.0799999999999" y="434.20000000000005" width="113.03" height="13.5" fill="#fff" opacity="0"></rect><text font-size="13.50" x="728.1" y="445.0" fill="#ffd53e"><tspan x="728.0799999999999" y="445.00000000000006">Civil conflicts</tspan></text></g><g class="legendMark"><g class="indicator"><line x1="698.0799999999999" y1="473.2" x2="705.5799999999999" y2="473.2" stroke="#666" stroke-width="0.5"></line><line x1="705.5799999999999" y1="473.2" x2="705.5799999999999" y2="410.8500000000001" stroke="#666" stroke-width="0.5"></line><line x1="705.5799999999999" y1="410.8500000000001" x2="723.0799999999999" y2="410.8500000000001" stroke="#666" stroke-width="0.5"></line></g><rect x="693.0799999999999" y="389.50000000000006" width="140.84" height="42.7" fill="#fff" opacity="0"></rect><text font-size="13.50" x="728.1" y="400.3" fill="#ca2628"><tspan x="728.0799999999999" y="400.30000000000007">Civil conflicts with</tspan><tspan x="728.0799999999999" y="415.1500000000001">foreign state</tspan><tspan x="728.0799999999999" y="430.00000000000006">intervention</tspan></text></g></g><g class="Areas"><rect x="78.968" y="107.60000000000001" width="614.112" height="400.3" opacity="0" fill="rgba(255,255,255,0)"></rect><path stroke-linecap="round" d="M79 477.1L87.7 477.2L96.5 476.6L105.3 476.3L114.1 475.9L122.8 475.6L131.6 474L140.4 474.3L149.2 459L157.9 490.4L166.7 490.6L175.5 490L184.2 490.2L193 490.2L201.8 493L210.6 488.9L219.3 488.9L228.1 502.8L236.9 502.7L245.7 502.7L254.4 502.6L263.2 502.5L272 502.7L280.7 502.8L289.5 502.8L298.3 502.8L307.1 502.8L315.8 502.8L324.6 503.8L333.4 507.9L342.2 507.9L350.9 507.9L359.7 507.9L368.5 507.9L377.3 507.9L386 507.9L394.8 507.9L403.6 507.9L412.3 507.9L421.1 507.9L429.9 507.9L438.7 507.9L447.4 507.9L456.2 507.9L465 507.9L473.8 507.9L482.5 507.9L491.3 507.9L500.1 507.9L508.8 507.9L517.6 507.9L526.4 507.9L535.2 507.9L543.9 507.9L552.7 507.9L561.5 507.9L570.3 507.9L579 507.9L587.8 507.9L596.6 507.9L605.3 507.9L614.1 507.9L622.9 507.9L631.7 507.9L640.4 507.9L649.2 507.9L658 507.9L666.8 507.9L675.5 507.9L684.3 507.9L693.1 507.9L693.0799999999999 507.90000000000003L78.968 507.90000000000003" fill="#34983f" fill-opacity="0.7" class="Colonial-or-imperial-conflicts_0-area"></path><path stroke-linecap="round" d="M79 477.1L87.7 477.2L96.5 454.8L105.3 475.3L114.1 111.5L122.8 220.5L131.6 401L140.4 437.9L149.2 458.3L157.9 490.4L166.7 486.7L175.5 490L184.2 490.2L193 490.2L201.8 493L210.6 487.9L219.3 487.3L228.1 502.3L236.9 502.6L245.7 447.3L254.4 445.4L263.2 434.5L272 367.5L280.7 394.3L289.5 393.7L298.3 392.3L307.1 326.5L315.8 381.5L324.6 365.9L333.4 486.4L342.2 507.9L350.9 507.9L359.7 507.9L368.5 474.9L377.3 481.7L386 437.9L394.8 437.2L403.6 437.5L412.3 460.3L421.1 460.7L429.9 460.7L438.7 454.1L447.4 460.4L456.2 507.3L465 507.1L473.8 491.9L482.5 507.9L491.3 507.9L500.1 507.9L508.8 507.8L517.6 507.8L526.4 507.9L535.2 507.1L543.9 472.7L552.7 471.3L561.5 506.9L570.3 507.9L579 501.9L587.8 507.9L596.6 507.9L605.3 507.9L614.1 507.9L622.9 507.9L631.7 507.9L640.4 507.9L649.2 507.9L658 507.6L666.8 507.9L675.5 507.9L684.3 507.9L693.1 507.8L693.1 507.9L684.3 507.9L675.5 507.9L666.8 507.9L658 507.9L649.2 507.9L640.4 507.9L631.7 507.9L622.9 507.9L614.1 507.9L605.3 507.9L596.6 507.9L587.8 507.9L579 507.9L570.3 507.9L561.5 507.9L552.7 507.9L543.9 507.9L535.2 507.9L526.4 507.9L517.6 507.9L508.8 507.9L500.1 507.9L491.3 507.9L482.5 507.9L473.8 507.9L465 507.9L456.2 507.9L447.4 507.9L438.7 507.9L429.9 507.9L421.1 507.9L412.3 507.9L403.6 507.9L394.8 507.9L386 507.9L377.3 507.9L368.5 507.9L359.7 507.9L350.9 507.9L342.2 507.9L333.4 507.9L324.6 503.8L315.8 502.8L307.1 502.8L298.3 502.8L289.5 502.8L280.7 502.8L272 502.7L263.2 502.5L254.4 502.6L245.7 502.7L236.9 502.7L228.1 502.8L219.3 488.9L210.6 488.9L201.8 493L193 490.2L184.2 490.2L175.5 490L166.7 490.6L157.9 490.4L149.2 459L140.4 474.3L131.6 474L122.8 475.6L114.1 475.9L105.3 476.3L96.5 476.6L87.7 477.2L79 477.1" fill="#3360a9" fill-opacity="0.7" class="Conflicts-between-states_0-area"></path><path stroke-linecap="round" d="M79 291.5L87.7 217.3L96.5 161.9L105.3 189.8L114.1 107.6L122.8 219.5L131.6 400.1L140.4 436.9L149.2 457.3L157.9 486L166.7 478.7L175.5 485L184.2 474.9L193 470.6L201.8 483.4L210.6 475.8L219.3 485.9L228.1 502.1L236.9 499.9L245.7 441.3L254.4 443.3L263.2 420.5L272 343.1L280.7 370.8L289.5 363L298.3 389.5L307.1 324.3L315.8 378.2L324.6 361.6L333.4 470.6L342.2 448.9L350.9 492.8L359.7 476.2L368.5 430.5L377.3 471.7L386 418L394.8 383.5L403.6 405.8L412.3 407.8L421.1 425.3L429.9 425L438.7 432.8L447.4 433.1L456.2 475.9L465 452L473.8 456.9L482.5 486L491.3 487.2L500.1 484.2L508.8 488.4L517.6 490.8L526.4 489.7L535.2 486.5L543.9 456.7L552.7 453.5L561.5 495.8L570.3 494.7L579 493.1L587.8 498L596.6 502.7L605.3 498.7L614.1 501.8L622.9 494.5L631.7 491L640.4 500.6L649.2 499.8L658 473.1L666.8 451.2L675.5 460.2L684.3 500.9L693.1 502.5L693.1 507.8L684.3 507.9L675.5 507.9L666.8 507.9L658 507.6L649.2 507.9L640.4 507.9L631.7 507.9L622.9 507.9L614.1 507.9L605.3 507.9L596.6 507.9L587.8 507.9L579 501.9L570.3 507.9L561.5 506.9L552.7 471.3L543.9 472.7L535.2 507.1L526.4 507.9L517.6 507.8L508.8 507.8L500.1 507.9L491.3 507.9L482.5 507.9L473.8 491.9L465 507.1L456.2 507.3L447.4 460.4L438.7 454.1L429.9 460.7L421.1 460.7L412.3 460.3L403.6 437.5L394.8 437.2L386 437.9L377.3 481.7L368.5 474.9L359.7 507.9L350.9 507.9L342.2 507.9L333.4 486.4L324.6 365.9L315.8 381.5L307.1 326.5L298.3 392.3L289.5 393.7L280.7 394.3L272 367.5L263.2 434.5L254.4 445.4L245.7 447.3L236.9 502.6L228.1 502.3L219.3 487.3L210.6 487.9L201.8 493L193 490.2L184.2 490.2L175.5 490L166.7 486.7L157.9 490.4L149.2 458.3L140.4 437.9L131.6 401L122.8 220.5L114.1 111.5L105.3 475.3L96.5 454.8L87.7 477.2L79 477.1" fill="#ffd53e" fill-opacity="0.7" class="Civil-conflicts_0-area"></path><path stroke-linecap="round" d="M79 291.4L87.7 217.3L96.5 161.9L105.3 189.8L114.1 107.6L122.8 219.5L131.6 400.1L140.4 436.9L149.2 457.3L157.9 486L166.7 478.7L175.5 485L184.2 474.8L193 470.6L201.8 483.4L210.6 475.8L219.3 469.8L228.1 461.7L236.9 466.7L245.7 441.3L254.4 443.3L263.2 420.5L272 343.1L280.7 369.7L289.5 361.9L298.3 360.9L307.1 295.6L315.8 350.7L324.6 334L333.4 422.1L342.2 438.6L350.9 483.4L359.7 441.9L368.5 400.9L377.3 424.7L386 374.6L394.8 348.5L403.6 350.6L412.3 334.3L421.1 349.2L429.9 351.5L438.7 374.6L447.4 404.5L456.2 468.1L465 449.5L473.8 456.5L482.5 481.2L491.3 480.9L500.1 483.5L508.8 487.1L517.6 487.4L526.4 478.8L535.2 478.8L543.9 448.9L552.7 451.2L561.5 491.6L570.3 493.6L579 492L587.8 493.9L596.6 499L605.3 493.5L614.1 493.9L622.9 487L631.7 482.6L640.4 492.5L649.2 491.1L658 462.6L666.8 441.7L675.5 431.2L684.3 436.2L693.1 443.9L693.1 502.5L684.3 500.9L675.5 460.2L666.8 451.2L658 473.1L649.2 499.8L640.4 500.6L631.7 491L622.9 494.5L614.1 501.8L605.3 498.7L596.6 502.7L587.8 498L579 493.1L570.3 494.7L561.5 495.8L552.7 453.5L543.9 456.7L535.2 486.5L526.4 489.7L517.6 490.8L508.8 488.4L500.1 484.2L491.3 487.2L482.5 486L473.8 456.9L465 452L456.2 475.9L447.4 433.1L438.7 432.8L429.9 425L421.1 425.3L412.3 407.8L403.6 405.8L394.8 383.5L386 418L377.3 471.7L368.5 430.5L359.7 476.2L350.9 492.8L342.2 448.9L333.4 470.6L324.6 361.6L315.8 378.2L307.1 324.3L298.3 389.5L289.5 363L280.7 370.8L272 343.1L263.2 420.5L254.4 443.3L245.7 441.3L236.9 499.9L228.1 502.1L219.3 485.9L210.6 475.8L201.8 483.4L193 470.6L184.2 474.9L175.5 485L166.7 478.7L157.9 486L149.2 457.3L140.4 436.9L131.6 400.1L122.8 219.5L114.1 107.6L105.3 189.8L96.5 161.9L87.7 217.3L79 291.5" fill="#ca2628" fill-opacity="0.7" class="Civil-conflicts-with-foreign-state-intervention_0-area"></path><path stroke-linecap="round" d="M79 477.1L87.7 477.2L96.5 476.6L105.3 476.3L114.1 475.9L122.8 475.6L131.6 474L140.4 474.3L149.2 459L157.9 490.4L166.7 490.6L175.5 490L184.2 490.2L193 490.2L201.8 493L210.6 488.9L219.3 488.9L228.1 502.8L236.9 502.7L245.7 502.7L254.4 502.6L263.2 502.5L272 502.7L280.7 502.8L289.5 502.8L298.3 502.8L307.1 502.8L315.8 502.8L324.6 503.8L333.4 507.9L342.2 507.9L350.9 507.9L359.7 507.9L368.5 507.9L377.3 507.9L386 507.9L394.8 507.9L403.6 507.9L412.3 507.9L421.1 507.9L429.9 507.9L438.7 507.9L447.4 507.9L456.2 507.9L465 507.9L473.8 507.9L482.5 507.9L491.3 507.9L500.1 507.9L508.8 507.9L517.6 507.9L526.4 507.9L535.2 507.9L543.9 507.9L552.7 507.9L561.5 507.9L570.3 507.9L579 507.9L587.8 507.9L596.6 507.9L605.3 507.9L614.1 507.9L622.9 507.9L631.7 507.9L640.4 507.9L649.2 507.9L658 507.9L666.8 507.9L675.5 507.9L684.3 507.9L693.1 507.9" stroke="rgb(44, 127, 53)" stroke-opacity="0.7" stroke-width="0.5" fill="none" class="Colonial-or-imperial-conflicts_0-border"></path><path stroke-linecap="round" d="M79 477.1L87.7 477.2L96.5 454.8L105.3 475.3L114.1 111.5L122.8 220.5L131.6 401L140.4 437.9L149.2 458.3L157.9 490.4L166.7 486.7L175.5 490L184.2 490.2L193 490.2L201.8 493L210.6 487.9L219.3 487.3L228.1 502.3L236.9 502.6L245.7 447.3L254.4 445.4L263.2 434.5L272 367.5L280.7 394.3L289.5 393.7L298.3 392.3L307.1 326.5L315.8 381.5L324.6 365.9L333.4 486.4L342.2 507.9L350.9 507.9L359.7 507.9L368.5 474.9L377.3 481.7L386 437.9L394.8 437.2L403.6 437.5L412.3 460.3L421.1 460.7L429.9 460.7L438.7 454.1L447.4 460.4L456.2 507.3L465 507.1L473.8 491.9L482.5 507.9L491.3 507.9L500.1 507.9L508.8 507.8L517.6 507.8L526.4 507.9L535.2 507.1L543.9 472.7L552.7 471.3L561.5 506.9L570.3 507.9L579 501.9L587.8 507.9L596.6 507.9L605.3 507.9L614.1 507.9L622.9 507.9L631.7 507.9L640.4 507.9L649.2 507.9L658 507.6L666.8 507.9L675.5 507.9L684.3 507.9L693.1 507.8" stroke="rgb(43, 80, 141)" stroke-opacity="0.7" stroke-width="0.5" fill="none" class="Conflicts-between-states_0-border"></path><path stroke-linecap="round" d="M79 291.5L87.7 217.3L96.5 161.9L105.3 189.8L114.1 107.6L122.8 219.5L131.6 400.1L140.4 436.9L149.2 457.3L157.9 486L166.7 478.7L175.5 485L184.2 474.9L193 470.6L201.8 483.4L210.6 475.8L219.3 485.9L228.1 502.1L236.9 499.9L245.7 441.3L254.4 443.3L263.2 420.5L272 343.1L280.7 370.8L289.5 363L298.3 389.5L307.1 324.3L315.8 378.2L324.6 361.6L333.4 470.6L342.2 448.9L350.9 492.8L359.7 476.2L368.5 430.5L377.3 471.7L386 418L394.8 383.5L403.6 405.8L412.3 407.8L421.1 425.3L429.9 425L438.7 432.8L447.4 433.1L456.2 475.9L465 452L473.8 456.9L482.5 486L491.3 487.2L500.1 484.2L508.8 488.4L517.6 490.8L526.4 489.7L535.2 486.5L543.9 456.7L552.7 453.5L561.5 495.8L570.3 494.7L579 493.1L587.8 498L596.6 502.7L605.3 498.7L614.1 501.8L622.9 494.5L631.7 491L640.4 500.6L649.2 499.8L658 473.1L666.8 451.2L675.5 460.2L684.3 500.9L693.1 502.5" stroke="rgb(213, 178, 52)" stroke-opacity="0.7" stroke-width="0.5" fill="none" class="Civil-conflicts_0-border"></path><path stroke-linecap="round" d="M79 291.4L87.7 217.3L96.5 161.9L105.3 189.8L114.1 107.6L122.8 219.5L131.6 400.1L140.4 436.9L149.2 457.3L157.9 486L166.7 478.7L175.5 485L184.2 474.8L193 470.6L201.8 483.4L210.6 475.8L219.3 469.8L228.1 461.7L236.9 466.7L245.7 441.3L254.4 443.3L263.2 420.5L272 343.1L280.7 369.7L289.5 361.9L298.3 360.9L307.1 295.6L315.8 350.7L324.6 334L333.4 422.1L342.2 438.6L350.9 483.4L359.7 441.9L368.5 400.9L377.3 424.7L386 374.6L394.8 348.5L403.6 350.6L412.3 334.3L421.1 349.2L429.9 351.5L438.7 374.6L447.4 404.5L456.2 468.1L465 449.5L473.8 456.5L482.5 481.2L491.3 480.9L500.1 483.5L508.8 487.1L517.6 487.4L526.4 478.8L535.2 478.8L543.9 448.9L552.7 451.2L561.5 491.6L570.3 493.6L579 492L587.8 493.9L596.6 499L605.3 493.5L614.1 493.9L622.9 487L631.7 482.6L640.4 492.5L649.2 491.1L658 462.6L666.8 441.7L675.5 431.2L684.3 436.2L693.1 443.9" stroke="rgb(169, 32, 33)" stroke-opacity="0.7" stroke-width="0.5" fill="none" class="Civil-conflicts-with-foreign-state-intervention_0-border"></path></g></g></g><g style="fill: #777;" class="SourcesFooter"><g style="fill: #777;" class="clickable"><text font-size="12.60" x="15.0" y="554.2"><tspan x="15" y="554.1800000000001">Source: UCDP/PRIO</tspan></text></g><text font-size="12.60" x="15.0" y="568.8"><tspan x="15" y="568.7800000000001">Note: The war categories paraphrase UCDP/PRIO's technical definitions of 'Extrasystemic', 'Internal', 'Internationalised internal' and 'Interstate'</tspan><tspan x="15" y="582.6400000000001">respectively. In a small number of cases where wars were ascribed more than one type, deaths have been apportioned evenly to each type.</tspan></text><text font-size="12.60" x="649.0" y="554.2"><tspan x="649.024" y="554.1800000000001"><a target='_blank' style='fill: #777;' href='https://ourworldindata.org'>OurWorldInData.org</a> • <a style="fill: #777;" href="http://creativecommons.org/licenses/by-sa/4.0/deed.en_US" target="_blank">CC BY-SA</a></tspan></text></g></g></svg>