<svg xmlns="http://www.w3.org/2000/svg" version="1.1" style="font-family: 'Helvetica Neue', Helvetica, Arial, sans-serif; font-size: 18px; background-color: white; text-rendering: optimizeLegibility; -webkit-font-smoothing: antialiased;" width="850" height="600"><g class="ChartTab"><g class="HeaderView"><g opacity="0.8" transform="translate(778, 15) scale(0.27)"><a xmlns:xlink="http://www.w3.org/1999/xlink" xlink:href="https://ourworldindata.org" target="_blank"><g><rect x="0" y="0" fill="#1B2543" width="211.2" height="130.1"/><rect x="0" y="112.2" fill="#E63912" width="211.2" height="17.9"/><g><rect x="1.2" y="12.3" fill="none" width="210.2" height="99.2"/><path fill="#FFFFFF" d="M37.8,32.2c0,12.7-7.7,19.4-17.1,19.4c-9.7,0-16.6-7.5-16.6-18.7c0-11.7,7.3-19.3,17.1-19.3 C31.3,13.7,37.8,21.3,37.8,32.2z M9.2,32.8c0,7.9,4.3,14.9,11.8,14.9c7.5,0,11.8-6.9,11.8-15.3c0-7.3-3.8-14.9-11.8-14.9 C13.1,17.5,9.2,24.8,9.2,32.8z"/><path fill="#FFFFFF" d="M62.7,43.8c0,2.7,0.1,5.1,0.2,7.2h-4.3l-0.3-4.3h-0.1c-1.3,2.1-4,4.9-8.8,4.9c-4.2,0-9.1-2.3-9.1-11.6 V24.6h4.8v14.6c0,5,1.5,8.4,5.9,8.4c3.2,0,5.5-2.2,6.3-4.4c0.3-0.7,0.4-1.6,0.4-2.5V24.6h4.8V43.8z"/><path fill="#FFFFFF" d="M67.3,32.8c0-3.1-0.1-5.8-0.2-8.2h4.2l0.2,5.2h0.2c1.2-3.5,4.1-5.8,7.3-5.8c0.5,0,0.9,0.1,1.4,0.2v4.5 c-0.5-0.1-1-0.2-1.6-0.2c-3.4,0-5.8,2.6-6.5,6.2c-0.1,0.7-0.2,1.4-0.2,2.2V51h-4.8V32.8z"/><path fill="#FFFFFF" d="M95.4,51l-9.4-36.8h5l4.4,18.6c1.1,4.6,2.1,9.2,2.7,12.7h0.1c0.6-3.7,1.8-8,3-12.8l4.9-18.5h5l4.5,18.7 c1,4.4,2,8.7,2.6,12.6h0.1c0.8-4,1.8-8.1,3-12.7l4.9-18.5h4.9L120.6,51h-5L111,31.9c-1.1-4.7-1.9-8.3-2.4-12h-0.1 c-0.7,3.7-1.5,7.3-2.8,12L100.4,51H95.4z"/><path fill="#FFFFFF" d="M154.9,37.6c0,9.8-6.8,14-13.2,14c-7.2,0-12.7-5.2-12.7-13.6c0-8.8,5.8-14,13.1-14 C149.8,24,154.9,29.5,154.9,37.6z M133.9,37.9c0,5.8,3.3,10.1,8,10.1c4.6,0,8-4.3,8-10.3c0-4.5-2.2-10.1-7.9-10.1 C136.3,27.6,133.9,32.8,133.9,37.9z"/><path fill="#FFFFFF" d="M158.2,32.8c0-3.1-0.1-5.8-0.2-8.2h4.2l0.2,5.2h0.2c1.2-3.5,4.1-5.8,7.3-5.8c0.5,0,0.9,0.1,1.4,0.2v4.5 c-0.5-0.1-1-0.2-1.6-0.2c-3.4,0-5.8,2.6-6.5,6.2c-0.1,0.7-0.2,1.4-0.2,2.2V51h-4.8V32.8z"/><path fill="#FFFFFF" d="M173.5,12.3h4.8V51h-4.8V12.3z"/><path fill="#FFFFFF" d="M206.5,12.3v31.9c0,2.3,0.1,5,0.2,6.8h-4.3l-0.2-4.6H202c-1.5,2.9-4.7,5.2-9,5.2 c-6.4,0-11.3-5.4-11.3-13.4c-0.1-8.8,5.4-14.2,11.9-14.2c4,0,6.8,1.9,8,4h0.1V12.3H206.5z M201.7,35.4c0-0.6-0.1-1.4-0.2-2 c-0.7-3.1-3.3-5.6-6.9-5.6c-5,0-7.9,4.4-7.9,10.2c0,5.3,2.6,9.8,7.8,9.8c3.2,0,6.2-2.1,7.1-5.7c0.2-0.7,0.2-1.3,0.2-2.1V35.4z"/><path fill="#FFFFFF" d="M42.8,64c0.1,1.6-1.1,2.9-3.1,2.9c-1.7,0-2.9-1.3-2.9-2.9c0-1.7,1.3-3,3-3C41.7,61,42.8,62.3,42.8,64z M37.4,97.8V71.4h4.8v26.4H37.4z"/><path fill="#FFFFFF" d="M47.5,78.6c0-2.7-0.1-5-0.2-7.1h4.3l0.3,4.4h0.1c1.3-2.5,4.4-5,8.8-5c3.7,0,9.4,2.2,9.4,11.2v15.8h-4.8 V82.6c0-4.3-1.6-7.8-6.1-7.8c-3.2,0-5.6,2.2-6.5,4.9c-0.2,0.6-0.3,1.4-0.3,2.2v15.9h-4.8V78.6z"/><path fill="#FFFFFF" d="M84,61.6c2.9-0.4,6.3-0.8,10.1-0.8c6.8,0,11.7,1.6,14.9,4.6c3.3,3,5.2,7.3,5.2,13.2c0,6-1.9,10.9-5.3,14.3 c-3.4,3.4-9.1,5.3-16.3,5.3c-3.4,0-6.2-0.2-8.6-0.4V61.6z M88.8,94.1c1.2,0.2,3,0.3,4.8,0.3c10.2,0,15.7-5.7,15.7-15.6 c0.1-8.7-4.9-14.2-14.9-14.2c-2.5,0-4.3,0.2-5.6,0.5V94.1z"/><path fill="#FFFFFF" d="M132.1,97.8l-0.4-3.3h-0.2c-1.5,2.1-4.3,3.9-8.1,3.9c-5.4,0-8.1-3.8-8.1-7.6c0-6.4,5.7-9.9,15.9-9.8v-0.5 c0-2.2-0.6-6.1-6-6.1c-2.5,0-5,0.8-6.9,2l-1.1-3.2c2.2-1.4,5.4-2.3,8.7-2.3c8.1,0,10.1,5.5,10.1,10.8v9.9c0,2.3,0.1,4.5,0.4,6.3 H132.1z M131.4,84.4c-5.3-0.1-11.2,0.8-11.2,5.9c0,3.1,2.1,4.6,4.5,4.6c3.4,0,5.6-2.2,6.4-4.4c0.2-0.5,0.3-1,0.3-1.5V84.4z"/><path fill="#FFFFFF" d="M146.6,63.9v7.6h6.9v3.7h-6.9v14.2c0,3.3,0.9,5.1,3.6,5.1c1.3,0,2.2-0.2,2.8-0.3l0.2,3.6 c-0.9,0.4-2.4,0.7-4.3,0.7c-2.2,0-4-0.7-5.2-2c-1.4-1.4-1.9-3.8-1.9-6.9V75.1h-4.1v-3.7h4.1v-6.3L146.6,63.9z"/><path fill="#FFFFFF" d="M171.4,97.8l-0.4-3.3h-0.2c-1.5,2.1-4.3,3.9-8.1,3.9c-5.4,0-8.1-3.8-8.1-7.6c0-6.4,5.7-9.9,15.9-9.8v-0.5 c0-2.2-0.6-6.1-6-6.1c-2.5,0-5,0.8-6.9,2l-1.1-3.2c2.2-1.4,5.4-2.3,8.7-2.3c8.1,0,10.1,5.5,10.1,10.8v9.9c0,2.3,0.1,4.5,0.4,6.3 H171.4z M170.7,84.4c-5.3-0.1-11.2,0.8-11.2,5.9c0,3.1,2.1,4.6,4.5,4.6c3.4,0,5.6-2.2,6.4-4.4c0.2-0.5,0.3-1,0.3-1.5V84.4z"/></g></g></a></g><a href="https://ourworldindata.org/grapher/battle-related-deaths-in-state-based-conflicts-since-1946" target="_blank"><text font-size="25.20" x="15.0" y="35.2" fill="#555"><tspan x="15" y="35.160000000000004">Battle-related deaths in state-based conflicts since 1946</tspan></text></a><text font-size="14.40" x="15.0" y="53.7" fill="#666"><tspan x="15" y="53.72">Only conflicts in which at least one party was the government of a state and which generated more than 25</tspan><tspan x="15" y="69.56">battle-related deaths are included. Extrasystemic conflicts are between a state and a non-state organisation in a</tspan><tspan x="15" y="85.4">different territory (e.g colonial conflicts). Internal conflicts are between a state and non-state organisation within the</tspan><tspan x="15" y="101.24000000000001">state's territory (e.g. civil war). Internationalised internal conflicts are internal conflicts that also include foreign state</tspan><tspan x="15" y="117.08000000000001">actors.</tspan></text></g><g class="StackedArea"><defs><clipPath id="boundsClip-1"><rect x="78.968" y="0" width="820" height="835.8"></rect></clipPath></defs><g class="AxisBoxView"><g class="HorizontalAxis"><text x="79" y="556.5" fill="#666" text-anchor="middle" font-size="16.2">1946</text><text x="203.3" y="556.5" fill="#666" text-anchor="middle" font-size="16.2">1960</text><text x="292.1" y="556.5" fill="#666" text-anchor="middle" font-size="16.2">1970</text><text x="380.9" y="556.5" fill="#666" text-anchor="middle" font-size="16.2">1980</text><text x="469.6" y="556.5" fill="#666" text-anchor="middle" font-size="16.2">1990</text><text x="558.4" y="556.5" fill="#666" text-anchor="middle" font-size="16.2">2000</text><text x="647.2" y="556.5" fill="#666" text-anchor="middle" font-size="16.2">2010</text><text x="700.5" y="556.5" fill="#666" text-anchor="middle" font-size="16.2">2016</text></g><g class="VerticalAxis"><text x="73.97" y="535.3" fill="#666" dominant-baseline="middle" text-anchor="end" font-size="16.2">0</text><text x="73.97" y="462.7" fill="#666" dominant-baseline="middle" text-anchor="end" font-size="16.2">100,000</text><text x="73.97" y="390.1" fill="#666" dominant-baseline="middle" text-anchor="end" font-size="16.2">200,000</text><text x="73.97" y="317.5" fill="#666" dominant-baseline="middle" text-anchor="end" font-size="16.2">300,000</text><text x="73.97" y="244.9" fill="#666" dominant-baseline="middle" text-anchor="end" font-size="16.2">400,000</text><text x="73.97" y="172.4" fill="#666" dominant-baseline="middle" text-anchor="end" font-size="16.2">500,000</text></g><g class="AxisGridLines"><line x1="78.97" y1="535.3" x2="700.50" y2="535.3" stroke="#ccc"></line><line x1="78.97" y1="462.7" x2="700.50" y2="462.7" stroke="#ddd" stroke-dasharray="3,2"></line><line x1="78.97" y1="390.1" x2="700.50" y2="390.1" stroke="#ddd" stroke-dasharray="3,2"></line><line x1="78.97" y1="317.5" x2="700.50" y2="317.5" stroke="#ddd" stroke-dasharray="3,2"></line><line x1="78.97" y1="244.9" x2="700.50" y2="244.9" stroke="#ddd" stroke-dasharray="3,2"></line><line x1="78.97" y1="172.4" x2="700.50" y2="172.4" stroke="#ddd" stroke-dasharray="3,2"></line></g></g><g clip-path="url(#boundsClip-1)"><g class="HeightedLegend clickable"><g class="legendMark"><g class="indicator"><line x1="705.505" y1="471.8" x2="724.6716666666666" y2="471.8" stroke="#666" stroke-width="0.5"></line><line x1="724.6716666666666" y1="471.8" x2="724.6716666666666" y2="471.8" stroke="#666" stroke-width="0.5"></line><line x1="724.6716666666666" y1="471.8" x2="730.505" y2="471.8" stroke="#666" stroke-width="0.5"></line></g><rect x="700.505" y="465.05" width="119.105" height="13.5" fill="#fff" opacity="0"></rect><text font-size="13.50" x="735.5" y="475.9" fill="#34983f"><tspan x="735.505" y="475.85">Extrasystemic</tspan></text></g><g class="legendMark"><g class="indicator"><line x1="705.505" y1="474.5" x2="718.005" y2="474.5" stroke="#666" stroke-width="0.5"></line><line x1="718.005" y1="474.5" x2="718.005" y2="487.3" stroke="#666" stroke-width="0.5"></line><line x1="718.005" y1="487.3" x2="730.505" y2="487.3" stroke="#666" stroke-width="0.5"></line></g><rect x="700.505" y="480.55" width="80.225" height="13.5" fill="#fff" opacity="0"></rect><text font-size="13.50" x="735.5" y="491.4" fill="#ffd53e"><tspan x="735.505" y="491.35">Internal</tspan></text></g><g class="legendMark"><g class="indicator"><line x1="705.505" y1="506.2" x2="711.3383333333334" y2="506.2" stroke="#666" stroke-width="0.5"></line><line x1="711.3383333333334" y1="506.2" x2="711.3383333333334" y2="510.1" stroke="#666" stroke-width="0.5"></line><line x1="711.3383333333334" y1="510.1" x2="730.505" y2="510.1" stroke="#666" stroke-width="0.5"></line></g><rect x="700.505" y="496.05" width="134.495" height="28.1" fill="#fff" opacity="0"></rect><text font-size="13.50" x="735.5" y="506.9" fill="#ca2628"><tspan x="735.505" y="506.85">Internationalized</tspan><tspan x="735.505" y="521.7">internal</tspan></text></g><g class="legendMark"><g class="indicator"><line x1="705.505" y1="535.3" x2="718.005" y2="535.3" stroke="#666" stroke-width="0.5"></line><line x1="718.005" y1="535.3" x2="718.005" y2="535.3" stroke="#666" stroke-width="0.5"></line><line x1="718.005" y1="535.3" x2="730.505" y2="535.3" stroke="#666" stroke-width="0.5"></line></g><rect x="700.505" y="528.55" width="91.565" height="13.5" fill="#fff" opacity="0"></rect><text font-size="13.50" x="735.5" y="539.3" fill="#3360a9"><tspan x="735.505" y="539.3499999999999">Interstate</tspan></text></g></g><g class="Areas"><rect x="78.968" y="138.60000000000002" width="621.537" height="396.69999999999993" opacity="0" fill="rgba(255,255,255,0)"></rect><path stroke-linecap="round" d="M79 535.3L87.8 535.3L96.7 513.8L105.6 534.3L114.5 174.2L123.4 282.4L132.2 463L141.1 499.2L150 534.6L158.9 535.3L167.8 531.4L176.6 535.3L185.5 535.3L194.4 535.3L203.3 535.3L212.2 534.3L221 533.8L229.9 534.8L238.8 535.2L247.7 480.4L256.6 478.6L265.4 467.9L274.3 401.3L283.2 427.8L292.1 427.2L300.9 425.8L309.8 360.6L318.7 415.1L327.6 398.7L336.5 514L345.3 535.3L354.2 535.3L363.1 535.3L372 502.6L380.9 509.3L389.7 465.9L398.6 465.2L407.5 465.5L416.4 488.2L425.3 488.5L434.1 488.5L443 482L451.9 488.2L460.8 534.7L469.6 534.5L478.5 519.4L487.4 535.3L496.3 535.3L505.2 535.3L514 535.2L522.9 535.2L531.8 535.3L540.7 534.6L549.6 500.4L558.4 499L567.3 534.3L576.2 535.3L585.1 529.4L594 535.3L602.8 535.3L611.7 535.3L620.6 535.3L629.5 535.3L638.4 535.3L647.2 535.3L656.1 535.3L665 535L673.9 535.3L682.7 535.3L691.6 535.3L700.5 535.2L700.505 535.3L78.968 535.3" fill="#3360a9" fill-opacity="0.7" class="Interstate_0-area"></path><path stroke-linecap="round" d="M79 535.3L87.8 535.3L96.7 513.8L105.6 534.3L114.5 174.2L123.4 282.4L132.2 463L141.1 499.2L150 534.6L158.9 535.3L167.8 531.4L176.6 535.3L185.5 535.2L194.4 535.3L203.3 535.3L212.2 534.3L221 517.9L229.9 494.8L238.8 502.3L247.7 480.4L256.6 478.6L265.4 467.9L274.3 401.3L283.2 426.7L292.1 426.1L300.9 397.6L309.8 332.2L318.7 387.8L327.6 371.4L336.5 466L345.3 525L354.2 526L363.1 501.2L372 473.4L380.9 462.7L389.7 423L398.6 430.5L407.5 410.8L416.4 415.3L425.3 413.1L434.1 415.7L443 424.4L451.9 459.9L460.8 526.9L469.6 532L478.5 519L487.4 530.5L496.3 529.1L505.2 534.6L514 533.9L522.9 531.9L531.8 524.4L540.7 527L549.6 492.7L558.4 496.7L567.3 530.1L576.2 534.2L585.1 528.4L594 531.2L602.8 531.6L611.7 530.1L620.6 527.5L629.5 527.8L638.4 527L647.2 527.3L656.1 526.7L665 524.7L673.9 525.8L682.7 506.5L691.6 471.2L700.5 477.2L700.5 535.2L691.6 535.3L682.7 535.3L673.9 535.3L665 535L656.1 535.3L647.2 535.3L638.4 535.3L629.5 535.3L620.6 535.3L611.7 535.3L602.8 535.3L594 535.3L585.1 529.4L576.2 535.3L567.3 534.3L558.4 499L549.6 500.4L540.7 534.6L531.8 535.3L522.9 535.2L514 535.2L505.2 535.3L496.3 535.3L487.4 535.3L478.5 519.4L469.6 534.5L460.8 534.7L451.9 488.2L443 482L434.1 488.5L425.3 488.5L416.4 488.2L407.5 465.5L398.6 465.2L389.7 465.9L380.9 509.3L372 502.6L363.1 535.3L354.2 535.3L345.3 535.3L336.5 514L327.6 398.7L318.7 415.1L309.8 360.6L300.9 425.8L292.1 427.2L283.2 427.8L274.3 401.3L265.4 467.9L256.6 478.6L247.7 480.4L238.8 535.2L229.9 534.8L221 533.8L212.2 534.3L203.3 535.3L194.4 535.3L185.5 535.3L176.6 535.3L167.8 531.4L158.9 535.3L150 534.6L141.1 499.2L132.2 463L123.4 282.4L114.5 174.2L105.6 534.3L96.7 513.8L87.8 535.3L79 535.3" fill="#ca2628" fill-opacity="0.7" class="Internationalized-internal_0-area"></path><path stroke-linecap="round" d="M79 351.3L87.8 277.8L96.7 223.5L105.6 251.3L114.5 170.3L123.4 281.5L132.2 462L141.1 498.2L150 533.6L158.9 530.9L167.8 523.6L176.6 530.3L185.5 520.1L194.4 515.9L203.3 525.8L212.2 522.3L221 516.4L229.9 494.6L238.8 499.5L247.7 474.4L256.6 476.5L265.4 454L274.3 377.1L283.2 403.4L292.1 395.7L300.9 394.8L309.8 330L318.7 384.6L327.6 367.1L336.5 450.3L345.3 466.6L354.2 511.1L363.1 469.9L372 429.3L380.9 452.8L389.7 403.2L398.6 377.3L407.5 379.4L416.4 363.2L425.3 378L434.1 380.3L443 403.2L451.9 432.8L460.8 495.9L469.6 477.5L478.5 484.3L487.4 508.9L496.3 508.6L505.2 511.1L514 514.7L522.9 515L531.8 506.5L540.7 506.5L549.6 476.8L558.4 479.1L567.3 519.1L576.2 521.1L585.1 519.6L594 521.4L602.8 526.5L611.7 521L620.6 521.4L629.5 514.5L638.4 510.2L647.2 520L656.1 518.7L665 490.4L673.9 469.7L682.7 459.2L691.6 464.3L700.5 471.8L700.5 477.2L691.6 471.2L682.7 506.5L673.9 525.8L665 524.7L656.1 526.7L647.2 527.3L638.4 527L629.5 527.8L620.6 527.5L611.7 530.1L602.8 531.6L594 531.2L585.1 528.4L576.2 534.2L567.3 530.1L558.4 496.7L549.6 492.7L540.7 527L531.8 524.4L522.9 531.9L514 533.9L505.2 534.6L496.3 529.1L487.4 530.5L478.5 519L469.6 532L460.8 526.9L451.9 459.9L443 424.4L434.1 415.7L425.3 413.1L416.4 415.3L407.5 410.8L398.6 430.5L389.7 423L380.9 462.7L372 473.4L363.1 501.2L354.2 526L345.3 525L336.5 466L327.6 371.4L318.7 387.8L309.8 332.2L300.9 397.6L292.1 426.1L283.2 426.7L274.3 401.3L265.4 467.9L256.6 478.6L247.7 480.4L238.8 502.3L229.9 494.8L221 517.9L212.2 534.3L203.3 535.3L194.4 535.3L185.5 535.2L176.6 535.3L167.8 531.4L158.9 535.3L150 534.6L141.1 499.2L132.2 463L123.4 282.4L114.5 174.2L105.6 534.3L96.7 513.8L87.8 535.3L79 535.3" fill="#ffd53e" fill-opacity="0.7" class="Internal_0-area"></path><path stroke-linecap="round" d="M79 320.8L87.8 247.3L96.7 192.4L105.6 220L114.5 138.6L123.4 249.5L132.2 428.4L141.1 464.9L150 485.1L158.9 513.6L167.8 506.4L176.6 512.6L185.5 502.5L194.4 498.3L203.3 511.1L212.2 503.5L221 497.5L229.9 489.5L238.8 494.4L247.7 469.3L256.6 471.2L265.4 448.7L274.3 372L283.2 398.3L292.1 390.6L300.9 389.7L309.8 324.9L318.7 379.5L327.6 363L336.5 450.3L345.3 466.6L354.2 511.1L363.1 469.9L372 429.3L380.9 452.8L389.7 403.2L398.6 377.3L407.5 379.4L416.4 363.2L425.3 378L434.1 380.3L443 403.2L451.9 432.8L460.8 495.9L469.6 477.5L478.5 484.3L487.4 508.9L496.3 508.6L505.2 511.1L514 514.7L522.9 515L531.8 506.5L540.7 506.5L549.6 476.8L558.4 479.1L567.3 519.1L576.2 521.1L585.1 519.6L594 521.4L602.8 526.5L611.7 521L620.6 521.4L629.5 514.5L638.4 510.2L647.2 520L656.1 518.7L665 490.4L673.9 469.7L682.7 459.2L691.6 464.3L700.5 471.8L700.5 471.8L691.6 464.3L682.7 459.2L673.9 469.7L665 490.4L656.1 518.7L647.2 520L638.4 510.2L629.5 514.5L620.6 521.4L611.7 521L602.8 526.5L594 521.4L585.1 519.6L576.2 521.1L567.3 519.1L558.4 479.1L549.6 476.8L540.7 506.5L531.8 506.5L522.9 515L514 514.7L505.2 511.1L496.3 508.6L487.4 508.9L478.5 484.3L469.6 477.5L460.8 495.9L451.9 432.8L443 403.2L434.1 380.3L425.3 378L416.4 363.2L407.5 379.4L398.6 377.3L389.7 403.2L380.9 452.8L372 429.3L363.1 469.9L354.2 511.1L345.3 466.6L336.5 450.3L327.6 367.1L318.7 384.6L309.8 330L300.9 394.8L292.1 395.7L283.2 403.4L274.3 377.1L265.4 454L256.6 476.5L247.7 474.4L238.8 499.5L229.9 494.6L221 516.4L212.2 522.3L203.3 525.8L194.4 515.9L185.5 520.1L176.6 530.3L167.8 523.6L158.9 530.9L150 533.6L141.1 498.2L132.2 462L123.4 281.5L114.5 170.3L105.6 251.3L96.7 223.5L87.8 277.8L79 351.3" fill="#34983f" fill-opacity="0.7" class="Extrasystemic_0-area"></path><path stroke-linecap="round" d="M79 535.3L87.8 535.3L96.7 513.8L105.6 534.3L114.5 174.2L123.4 282.4L132.2 463L141.1 499.2L150 534.6L158.9 535.3L167.8 531.4L176.6 535.3L185.5 535.3L194.4 535.3L203.3 535.3L212.2 534.3L221 533.8L229.9 534.8L238.8 535.2L247.7 480.4L256.6 478.6L265.4 467.9L274.3 401.3L283.2 427.8L292.1 427.2L300.9 425.8L309.8 360.6L318.7 415.1L327.6 398.7L336.5 514L345.3 535.3L354.2 535.3L363.1 535.3L372 502.6L380.9 509.3L389.7 465.9L398.6 465.2L407.5 465.5L416.4 488.2L425.3 488.5L434.1 488.5L443 482L451.9 488.2L460.8 534.7L469.6 534.5L478.5 519.4L487.4 535.3L496.3 535.3L505.2 535.3L514 535.2L522.9 535.2L531.8 535.3L540.7 534.6L549.6 500.4L558.4 499L567.3 534.3L576.2 535.3L585.1 529.4L594 535.3L602.8 535.3L611.7 535.3L620.6 535.3L629.5 535.3L638.4 535.3L647.2 535.3L656.1 535.3L665 535L673.9 535.3L682.7 535.3L691.6 535.3L700.5 535.2" stroke="rgb(43, 80, 141)" stroke-opacity="0.7" stroke-width="0.5" fill="none" class="Interstate_0-border"></path><path stroke-linecap="round" d="M79 535.3L87.8 535.3L96.7 513.8L105.6 534.3L114.5 174.2L123.4 282.4L132.2 463L141.1 499.2L150 534.6L158.9 535.3L167.8 531.4L176.6 535.3L185.5 535.2L194.4 535.3L203.3 535.3L212.2 534.3L221 517.9L229.9 494.8L238.8 502.3L247.7 480.4L256.6 478.6L265.4 467.9L274.3 401.3L283.2 426.7L292.1 426.1L300.9 397.6L309.8 332.2L318.7 387.8L327.6 371.4L336.5 466L345.3 525L354.2 526L363.1 501.2L372 473.4L380.9 462.7L389.7 423L398.6 430.5L407.5 410.8L416.4 415.3L425.3 413.1L434.1 415.7L443 424.4L451.9 459.9L460.8 526.9L469.6 532L478.5 519L487.4 530.5L496.3 529.1L505.2 534.6L514 533.9L522.9 531.9L531.8 524.4L540.7 527L549.6 492.7L558.4 496.7L567.3 530.1L576.2 534.2L585.1 528.4L594 531.2L602.8 531.6L611.7 530.1L620.6 527.5L629.5 527.8L638.4 527L647.2 527.3L656.1 526.7L665 524.7L673.9 525.8L682.7 506.5L691.6 471.2L700.5 477.2" stroke="rgb(169, 32, 33)" stroke-opacity="0.7" stroke-width="0.5" fill="none" class="Internationalized-internal_0-border"></path><path stroke-linecap="round" d="M79 351.3L87.8 277.8L96.7 223.5L105.6 251.3L114.5 170.3L123.4 281.5L132.2 462L141.1 498.2L150 533.6L158.9 530.9L167.8 523.6L176.6 530.3L185.5 520.1L194.4 515.9L203.3 525.8L212.2 522.3L221 516.4L229.9 494.6L238.8 499.5L247.7 474.4L256.6 476.5L265.4 454L274.3 377.1L283.2 403.4L292.1 395.7L300.9 394.8L309.8 330L318.7 384.6L327.6 367.1L336.5 450.3L345.3 466.6L354.2 511.1L363.1 469.9L372 429.3L380.9 452.8L389.7 403.2L398.6 377.3L407.5 379.4L416.4 363.2L425.3 378L434.1 380.3L443 403.2L451.9 432.8L460.8 495.9L469.6 477.5L478.5 484.3L487.4 508.9L496.3 508.6L505.2 511.1L514 514.7L522.9 515L531.8 506.5L540.7 506.5L549.6 476.8L558.4 479.1L567.3 519.1L576.2 521.1L585.1 519.6L594 521.4L602.8 526.5L611.7 521L620.6 521.4L629.5 514.5L638.4 510.2L647.2 520L656.1 518.7L665 490.4L673.9 469.7L682.7 459.2L691.6 464.3L700.5 471.8" stroke="rgb(213, 178, 52)" stroke-opacity="0.7" stroke-width="0.5" fill="none" class="Internal_0-border"></path><path stroke-linecap="round" d="M79 320.8L87.8 247.3L96.7 192.4L105.6 220L114.5 138.6L123.4 249.5L132.2 428.4L141.1 464.9L150 485.1L158.9 513.6L167.8 506.4L176.6 512.6L185.5 502.5L194.4 498.3L203.3 511.1L212.2 503.5L221 497.5L229.9 489.5L238.8 494.4L247.7 469.3L256.6 471.2L265.4 448.7L274.3 372L283.2 398.3L292.1 390.6L300.9 389.7L309.8 324.9L318.7 379.5L327.6 363L336.5 450.3L345.3 466.6L354.2 511.1L363.1 469.9L372 429.3L380.9 452.8L389.7 403.2L398.6 377.3L407.5 379.4L416.4 363.2L425.3 378L434.1 380.3L443 403.2L451.9 432.8L460.8 495.9L469.6 477.5L478.5 484.3L487.4 508.9L496.3 508.6L505.2 511.1L514 514.7L522.9 515L531.8 506.5L540.7 506.5L549.6 476.8L558.4 479.1L567.3 519.1L576.2 521.1L585.1 519.6L594 521.4L602.8 526.5L611.7 521L620.6 521.4L629.5 514.5L638.4 510.2L647.2 520L656.1 518.7L665 490.4L673.9 469.7L682.7 459.2L691.6 464.3L700.5 471.8" stroke="rgb(44, 127, 53)" stroke-opacity="0.7" stroke-width="0.5" fill="none" class="Extrasystemic_0-border"></path></g></g></g><g style="fill: #777;" class="SourcesFooter"><g style="fill: #777;" class="clickable"><text font-size="12.60" x="15.0" y="581.6"><tspan x="15" y="581.58">Source: UCDP/PRIO</tspan></text></g><text font-size="12.60" x="649.0" y="581.6"><tspan x="649.024" y="581.58"><a target='_blank' style='fill: #777;' href='https://ourworldindata.org'>OurWorldInData.org</a> • <a style="fill: #777;" href="http://creativecommons.org/licenses/by-sa/4.0/deed.en_US" target="_blank">CC BY-SA</a></tspan></text></g></g></svg>