<svg xmlns="http://www.w3.org/2000/svg" version="1.1" style="font-family: 'Helvetica Neue', Helvetica, Arial, sans-serif; font-size: 18px; background-color: white; text-rendering: optimizeLegibility; -webkit-font-smoothing: antialiased;" width="850" height="600"><g class="ChartTab"><g class="HeaderView"><g opacity="0.8" transform="translate(778, 15) scale(0.27)"><a xmlns:xlink="http://www.w3.org/1999/xlink" xlink:href="https://ourworldindata.org" target="_blank"><g><rect x="0" y="0" fill="#1B2543" width="211.2" height="130.1"/><rect x="0" y="112.2" fill="#E63912" width="211.2" height="17.9"/><g><rect x="1.2" y="12.3" fill="none" width="210.2" height="99.2"/><path fill="#FFFFFF" d="M37.8,32.2c0,12.7-7.7,19.4-17.1,19.4c-9.7,0-16.6-7.5-16.6-18.7c0-11.7,7.3-19.3,17.1-19.3 C31.3,13.7,37.8,21.3,37.8,32.2z M9.2,32.8c0,7.9,4.3,14.9,11.8,14.9c7.5,0,11.8-6.9,11.8-15.3c0-7.3-3.8-14.9-11.8-14.9 C13.1,17.5,9.2,24.8,9.2,32.8z"/><path fill="#FFFFFF" d="M62.7,43.8c0,2.7,0.1,5.1,0.2,7.2h-4.3l-0.3-4.3h-0.1c-1.3,2.1-4,4.9-8.8,4.9c-4.2,0-9.1-2.3-9.1-11.6 V24.6h4.8v14.6c0,5,1.5,8.4,5.9,8.4c3.2,0,5.5-2.2,6.3-4.4c0.3-0.7,0.4-1.6,0.4-2.5V24.6h4.8V43.8z"/><path fill="#FFFFFF" d="M67.3,32.8c0-3.1-0.1-5.8-0.2-8.2h4.2l0.2,5.2h0.2c1.2-3.5,4.1-5.8,7.3-5.8c0.5,0,0.9,0.1,1.4,0.2v4.5 c-0.5-0.1-1-0.2-1.6-0.2c-3.4,0-5.8,2.6-6.5,6.2c-0.1,0.7-0.2,1.4-0.2,2.2V51h-4.8V32.8z"/><path fill="#FFFFFF" d="M95.4,51l-9.4-36.8h5l4.4,18.6c1.1,4.6,2.1,9.2,2.7,12.7h0.1c0.6-3.7,1.8-8,3-12.8l4.9-18.5h5l4.5,18.7 c1,4.4,2,8.7,2.6,12.6h0.1c0.8-4,1.8-8.1,3-12.7l4.9-18.5h4.9L120.6,51h-5L111,31.9c-1.1-4.7-1.9-8.3-2.4-12h-0.1 c-0.7,3.7-1.5,7.3-2.8,12L100.4,51H95.4z"/><path fill="#FFFFFF" d="M154.9,37.6c0,9.8-6.8,14-13.2,14c-7.2,0-12.7-5.2-12.7-13.6c0-8.8,5.8-14,13.1-14 C149.8,24,154.9,29.5,154.9,37.6z M133.9,37.9c0,5.8,3.3,10.1,8,10.1c4.6,0,8-4.3,8-10.3c0-4.5-2.2-10.1-7.9-10.1 C136.3,27.6,133.9,32.8,133.9,37.9z"/><path fill="#FFFFFF" d="M158.2,32.8c0-3.1-0.1-5.8-0.2-8.2h4.2l0.2,5.2h0.2c1.2-3.5,4.1-5.8,7.3-5.8c0.5,0,0.9,0.1,1.4,0.2v4.5 c-0.5-0.1-1-0.2-1.6-0.2c-3.4,0-5.8,2.6-6.5,6.2c-0.1,0.7-0.2,1.4-0.2,2.2V51h-4.8V32.8z"/><path fill="#FFFFFF" d="M173.5,12.3h4.8V51h-4.8V12.3z"/><path fill="#FFFFFF" d="M206.5,12.3v31.9c0,2.3,0.1,5,0.2,6.8h-4.3l-0.2-4.6H202c-1.5,2.9-4.7,5.2-9,5.2 c-6.4,0-11.3-5.4-11.3-13.4c-0.1-8.8,5.4-14.2,11.9-14.2c4,0,6.8,1.9,8,4h0.1V12.3H206.5z M201.7,35.4c0-0.6-0.1-1.4-0.2-2 c-0.7-3.1-3.3-5.6-6.9-5.6c-5,0-7.9,4.4-7.9,10.2c0,5.3,2.6,9.8,7.8,9.8c3.2,0,6.2-2.1,7.1-5.7c0.2-0.7,0.2-1.3,0.2-2.1V35.4z"/><path fill="#FFFFFF" d="M42.8,64c0.1,1.6-1.1,2.9-3.1,2.9c-1.7,0-2.9-1.3-2.9-2.9c0-1.7,1.3-3,3-3C41.7,61,42.8,62.3,42.8,64z M37.4,97.8V71.4h4.8v26.4H37.4z"/><path fill="#FFFFFF" d="M47.5,78.6c0-2.7-0.1-5-0.2-7.1h4.3l0.3,4.4h0.1c1.3-2.5,4.4-5,8.8-5c3.7,0,9.4,2.2,9.4,11.2v15.8h-4.8 V82.6c0-4.3-1.6-7.8-6.1-7.8c-3.2,0-5.6,2.2-6.5,4.9c-0.2,0.6-0.3,1.4-0.3,2.2v15.9h-4.8V78.6z"/><path fill="#FFFFFF" d="M84,61.6c2.9-0.4,6.3-0.8,10.1-0.8c6.8,0,11.7,1.6,14.9,4.6c3.3,3,5.2,7.3,5.2,13.2c0,6-1.9,10.9-5.3,14.3 c-3.4,3.4-9.1,5.3-16.3,5.3c-3.4,0-6.2-0.2-8.6-0.4V61.6z M88.8,94.1c1.2,0.2,3,0.3,4.8,0.3c10.2,0,15.7-5.7,15.7-15.6 c0.1-8.7-4.9-14.2-14.9-14.2c-2.5,0-4.3,0.2-5.6,0.5V94.1z"/><path fill="#FFFFFF" d="M132.1,97.8l-0.4-3.3h-0.2c-1.5,2.1-4.3,3.9-8.1,3.9c-5.4,0-8.1-3.8-8.1-7.6c0-6.4,5.7-9.9,15.9-9.8v-0.5 c0-2.2-0.6-6.1-6-6.1c-2.5,0-5,0.8-6.9,2l-1.1-3.2c2.2-1.4,5.4-2.3,8.7-2.3c8.1,0,10.1,5.5,10.1,10.8v9.9c0,2.3,0.1,4.5,0.4,6.3 H132.1z M131.4,84.4c-5.3-0.1-11.2,0.8-11.2,5.9c0,3.1,2.1,4.6,4.5,4.6c3.4,0,5.6-2.2,6.4-4.4c0.2-0.5,0.3-1,0.3-1.5V84.4z"/><path fill="#FFFFFF" d="M146.6,63.9v7.6h6.9v3.7h-6.9v14.2c0,3.3,0.9,5.1,3.6,5.1c1.3,0,2.2-0.2,2.8-0.3l0.2,3.6 c-0.9,0.4-2.4,0.7-4.3,0.7c-2.2,0-4-0.7-5.2-2c-1.4-1.4-1.9-3.8-1.9-6.9V75.1h-4.1v-3.7h4.1v-6.3L146.6,63.9z"/><path fill="#FFFFFF" d="M171.4,97.8l-0.4-3.3h-0.2c-1.5,2.1-4.3,3.9-8.1,3.9c-5.4,0-8.1-3.8-8.1-7.6c0-6.4,5.7-9.9,15.9-9.8v-0.5 c0-2.2-0.6-6.1-6-6.1c-2.5,0-5,0.8-6.9,2l-1.1-3.2c2.2-1.4,5.4-2.3,8.7-2.3c8.1,0,10.1,5.5,10.1,10.8v9.9c0,2.3,0.1,4.5,0.4,6.3 H171.4z M170.7,84.4c-5.3-0.1-11.2,0.8-11.2,5.9c0,3.1,2.1,4.6,4.5,4.6c3.4,0,5.6-2.2,6.4-4.4c0.2-0.5,0.3-1,0.3-1.5V84.4z"/></g></g></a></g><a href="https://ourworldindata.org/grapher/burden-of-disease-from-injuries-by-age" target="_blank"><text font-size="25.20" x="15.0" y="35.2" fill="#555"><tspan x="15" y="35.160000000000004">Burden of disease from injuries, by age, World</tspan></text></a><text font-size="14.40" x="15.0" y="53.7" fill="#666"><tspan x="15" y="53.72">Disease burden from injuries by age. Disease burden is measured in DALYs (Disability-Adjusted Life Years). DALYs</tspan><tspan x="15" y="69.56">are used to measure total burden of disease - both from years of life lost and years lived with a disability. One DALY</tspan><tspan x="15" y="85.4">equals one lost year of healthy life.</tspan></text></g><g class="StackedArea"><defs><clipPath id="boundsClip-1"><rect x="97.598" y="0" width="820" height="897.8"></rect></clipPath></defs><g class="AxisBoxView"><g class="HorizontalAxis"><text x="97.6" y="556.5" fill="#666" text-anchor="middle" font-size="16.2">1990</text><text x="214.7" y="556.5" fill="#666" text-anchor="middle" font-size="16.2">1995</text><text x="331.8" y="556.5" fill="#666" text-anchor="middle" font-size="16.2">2000</text><text x="448.9" y="556.5" fill="#666" text-anchor="middle" font-size="16.2">2005</text><text x="566" y="556.5" fill="#666" text-anchor="middle" font-size="16.2">2010</text><text x="706.6" y="556.5" fill="#666" text-anchor="middle" font-size="16.2">2016</text></g><g class="VerticalAxis"><text x="92.60" y="535.3" fill="#666" dominant-baseline="middle" text-anchor="end" font-size="16.2">0</text><text x="92.60" y="463.6" fill="#666" dominant-baseline="middle" text-anchor="end" font-size="16.2">50 million</text><text x="92.60" y="391.9" fill="#666" dominant-baseline="middle" text-anchor="end" font-size="16.2">100 million</text><text x="92.60" y="320.2" fill="#666" dominant-baseline="middle" text-anchor="end" font-size="16.2">150 million</text><text x="92.60" y="248.5" fill="#666" dominant-baseline="middle" text-anchor="end" font-size="16.2">200 million</text><text x="92.60" y="176.8" fill="#666" dominant-baseline="middle" text-anchor="end" font-size="16.2">250 million</text></g><g class="AxisGridLines"><line x1="97.60" y1="535.3" x2="706.58" y2="535.3" stroke="#ccc"></line><line x1="97.60" y1="463.6" x2="706.58" y2="463.6" stroke="#ddd" stroke-dasharray="3,2"></line><line x1="97.60" y1="391.9" x2="706.58" y2="391.9" stroke="#ddd" stroke-dasharray="3,2"></line><line x1="97.60" y1="320.2" x2="706.58" y2="320.2" stroke="#ddd" stroke-dasharray="3,2"></line><line x1="97.60" y1="248.5" x2="706.58" y2="248.5" stroke="#ddd" stroke-dasharray="3,2"></line><line x1="97.60" y1="176.8" x2="706.58" y2="176.8" stroke="#ddd" stroke-dasharray="3,2"></line></g></g><g clip-path="url(#boundsClip-1)"><g class="HeightedLegend clickable"><g class="legendMark"><rect x="706.5799999999999" y="175.35" width="116.67500000000001" height="13.5" fill="#fff" opacity="0"></rect><text font-size="13.50" x="711.6" y="186.2" fill="#34983f"><tspan x="711.5799999999999" y="186.15">70+ year olds</tspan></text></g><g class="legendMark"><rect x="706.5799999999999" y="222.05" width="128.42000000000002" height="13.5" fill="#fff" opacity="0"></rect><text font-size="13.50" x="711.6" y="232.9" fill="#9ecc8a"><tspan x="711.5799999999999" y="232.85000000000002">50-69 year olds</tspan></text></g><g class="legendMark"><rect x="706.5799999999999" y="362.25" width="128.42000000000002" height="13.5" fill="#fff" opacity="0"></rect><text font-size="13.50" x="711.6" y="373.1" fill="#ffd53e"><tspan x="711.5799999999999" y="373.05">15-49 year olds</tspan></text></g><g class="legendMark"><rect x="706.5799999999999" y="482.85" width="120.86" height="13.5" fill="#fff" opacity="0"></rect><text font-size="13.50" x="711.6" y="493.7" fill="#ca2628"><tspan x="711.5799999999999" y="493.65000000000003">5-14 year olds</tspan></text></g><g class="legendMark"><rect x="706.5799999999999" y="512.65" width="90.62" height="13.5" fill="#fff" opacity="0"></rect><text font-size="13.50" x="711.6" y="523.4" fill="#3360a9"><tspan x="711.5799999999999" y="523.4499999999999">Under-5s</tspan></text></g></g><g class="Areas"><rect x="97.598" y="107.60000000000001" width="608.982" height="427.69999999999993" opacity="0" fill="rgba(255,255,255,0)"></rect><path stroke-linecap="round" d="M97.6 463.2L121 463.5L144.4 468.7L167.9 470.2L191.3 461.7L214.7 475.4L238.1 477.1L261.6 479.1L285 480.4L308.4 482L331.8 484.7L355.2 487.4L378.7 489.2L402.1 490.1L425.5 489.3L448.9 491.7L472.4 493.4L495.8 494.3L519.2 493.7L542.6 496.5L566 495L589.5 498.4L612.9 499L636.3 499.8L659.7 500.4L683.2 501.9L706.6 503.6L706.5799999999999 535.3L97.598 535.3" fill="#3360a9" fill-opacity="0.7" class="World_2-area"></path><path stroke-linecap="round" d="M97.6 416.2L121 415L144.4 424.5L167.9 425.3L191.3 409.1L214.7 430.1L238.1 430.7L261.6 432.9L285 434.7L308.4 437.3L331.8 442.4L355.2 446.9L378.7 450.6L402.1 452.3L425.5 449.6L448.9 456L472.4 460.4L495.8 462L519.2 459.1L542.6 465.4L566 459.4L589.5 468L612.9 469L636.3 470L659.7 470.8L683.2 472.8L706.6 475.6L706.6 503.6L683.2 501.9L659.7 500.4L636.3 499.8L612.9 499L589.5 498.4L566 495L542.6 496.5L519.2 493.7L495.8 494.3L472.4 493.4L448.9 491.7L425.5 489.3L402.1 490.1L378.7 489.2L355.2 487.4L331.8 484.7L308.4 482L285 480.4L261.6 479.1L238.1 477.1L214.7 475.4L191.3 461.7L167.9 470.2L144.4 468.7L121 463.5L97.6 463.2" fill="#ca2628" fill-opacity="0.7" class="World_3-area"></path><path stroke-linecap="round" d="M97.6 219.5L121 210L144.4 222.6L167.9 215.7L191.3 169.9L214.7 214L238.1 212.5L261.6 214.4L285 213.7L308.4 212.6L331.8 220.2L355.2 225.8L378.7 228.5L402.1 227.6L425.5 217.3L448.9 232.1L472.4 239.2L495.8 240.2L519.2 229.1L542.6 246.9L566 235.1L589.5 250.1L612.9 252.6L636.3 254.7L659.7 254.1L683.2 256.1L706.6 262.3L706.6 475.6L683.2 472.8L659.7 470.8L636.3 470L612.9 469L589.5 468L566 459.4L542.6 465.4L519.2 459.1L495.8 462L472.4 460.4L448.9 456L425.5 449.6L402.1 452.3L378.7 450.6L355.2 446.9L331.8 442.4L308.4 437.3L285 434.7L261.6 432.9L238.1 430.7L214.7 430.1L191.3 409.1L167.9 425.3L144.4 424.5L121 415L97.6 416.2" fill="#ffd53e" fill-opacity="0.7" class="World_0-area"></path><path stroke-linecap="round" d="M97.6 177.1L121 166.5L144.4 179L167.9 170.9L191.3 123.4L214.7 168.2L238.1 166.7L261.6 168.3L285 166.9L308.4 164.3L331.8 171.4L355.2 175.8L378.7 177.3L402.1 174.7L425.5 161.6L448.9 177.1L472.4 183.9L495.8 183L519.2 168.9L542.6 187.6L566 174.3L589.5 188.1L612.9 189.5L636.3 190L659.7 187.7L683.2 188.1L706.6 195.2L706.6 262.3L683.2 256.1L659.7 254.1L636.3 254.7L612.9 252.6L589.5 250.1L566 235.1L542.6 246.9L519.2 229.1L495.8 240.2L472.4 239.2L448.9 232.1L425.5 217.3L402.1 227.6L378.7 228.5L355.2 225.8L331.8 220.2L308.4 212.6L285 213.7L261.6 214.4L238.1 212.5L214.7 214L191.3 169.9L167.9 215.7L144.4 222.6L121 210L97.6 219.5" fill="#9ecc8a" fill-opacity="0.7" class="World_4-area"></path><path stroke-linecap="round" d="M97.6 162.9L121 151.8L144.4 164.1L167.9 155.6L191.3 107.6L214.7 152.1L238.1 150.2L261.6 151.4L285 149.3L308.4 146.2L331.8 153L355.2 156.8L378.7 157.8L402.1 154.6L425.5 140.8L448.9 156.3L472.4 162.8L495.8 160.9L519.2 145.9L542.6 164.4L566 150.7L589.5 163.7L612.9 164.8L636.3 164.9L659.7 162L683.2 161.8L706.6 169L706.6 195.2L683.2 188.1L659.7 187.7L636.3 190L612.9 189.5L589.5 188.1L566 174.3L542.6 187.6L519.2 168.9L495.8 183L472.4 183.9L448.9 177.1L425.5 161.6L402.1 174.7L378.7 177.3L355.2 175.8L331.8 171.4L308.4 164.3L285 166.9L261.6 168.3L238.1 166.7L214.7 168.2L191.3 123.4L167.9 170.9L144.4 179L121 166.5L97.6 177.1" fill="#34983f" fill-opacity="0.7" class="World_1-area"></path><path stroke-linecap="round" d="M97.6 463.2L121 463.5L144.4 468.7L167.9 470.2L191.3 461.7L214.7 475.4L238.1 477.1L261.6 479.1L285 480.4L308.4 482L331.8 484.7L355.2 487.4L378.7 489.2L402.1 490.1L425.5 489.3L448.9 491.7L472.4 493.4L495.8 494.3L519.2 493.7L542.6 496.5L566 495L589.5 498.4L612.9 499L636.3 499.8L659.7 500.4L683.2 501.9L706.6 503.6" stroke="rgb(43, 80, 141)" stroke-opacity="0.7" stroke-width="0.5" fill="none" class="World_2-border"></path><path stroke-linecap="round" d="M97.6 416.2L121 415L144.4 424.5L167.9 425.3L191.3 409.1L214.7 430.1L238.1 430.7L261.6 432.9L285 434.7L308.4 437.3L331.8 442.4L355.2 446.9L378.7 450.6L402.1 452.3L425.5 449.6L448.9 456L472.4 460.4L495.8 462L519.2 459.1L542.6 465.4L566 459.4L589.5 468L612.9 469L636.3 470L659.7 470.8L683.2 472.8L706.6 475.6" stroke="rgb(169, 32, 33)" stroke-opacity="0.7" stroke-width="0.5" fill="none" class="World_3-border"></path><path stroke-linecap="round" d="M97.6 219.5L121 210L144.4 222.6L167.9 215.7L191.3 169.9L214.7 214L238.1 212.5L261.6 214.4L285 213.7L308.4 212.6L331.8 220.2L355.2 225.8L378.7 228.5L402.1 227.6L425.5 217.3L448.9 232.1L472.4 239.2L495.8 240.2L519.2 229.1L542.6 246.9L566 235.1L589.5 250.1L612.9 252.6L636.3 254.7L659.7 254.1L683.2 256.1L706.6 262.3" stroke="rgb(213, 178, 52)" stroke-opacity="0.7" stroke-width="0.5" fill="none" class="World_0-border"></path><path stroke-linecap="round" d="M97.6 177.1L121 166.5L144.4 179L167.9 170.9L191.3 123.4L214.7 168.2L238.1 166.7L261.6 168.3L285 166.9L308.4 164.3L331.8 171.4L355.2 175.8L378.7 177.3L402.1 174.7L425.5 161.6L448.9 177.1L472.4 183.9L495.8 183L519.2 168.9L542.6 187.6L566 174.3L589.5 188.1L612.9 189.5L636.3 190L659.7 187.7L683.2 188.1L706.6 195.2" stroke="rgb(132, 171, 115)" stroke-opacity="0.7" stroke-width="0.5" fill="none" class="World_4-border"></path><path stroke-linecap="round" d="M97.6 162.9L121 151.8L144.4 164.1L167.9 155.6L191.3 107.6L214.7 152.1L238.1 150.2L261.6 151.4L285 149.3L308.4 146.2L331.8 153L355.2 156.8L378.7 157.8L402.1 154.6L425.5 140.8L448.9 156.3L472.4 162.8L495.8 160.9L519.2 145.9L542.6 164.4L566 150.7L589.5 163.7L612.9 164.8L636.3 164.9L659.7 162L683.2 161.8L706.6 169" stroke="rgb(44, 127, 53)" stroke-opacity="0.7" stroke-width="0.5" fill="none" class="World_1-border"></path></g></g></g><g style="fill: #777;" class="SourcesFooter"><g style="fill: #777;" class="clickable"><text font-size="12.60" x="15.0" y="581.6"><tspan x="15" y="581.58">Source: IHME, Global Burden of Disease</tspan></text></g><text font-size="12.60" x="649.0" y="581.6"><tspan x="649.024" y="581.58"><a target='_blank' style='fill: #777;' href='https://ourworldindata.org'>OurWorldInData.org</a> • <a style="fill: #777;" href="http://creativecommons.org/licenses/by-sa/4.0/deed.en_US" target="_blank">CC BY-SA</a></tspan></text></g></g></svg>