<svg xmlns="http://www.w3.org/2000/svg" version="1.1" style="font-family: 'Helvetica Neue', Helvetica, Arial, sans-serif; font-size: 18px; background-color: white; text-rendering: optimizeLegibility; -webkit-font-smoothing: antialiased;" width="850" height="600"><g class="ChartTab"><g class="HeaderView"><g opacity="0.8" transform="translate(770, 15) scale(0.31)"><a xmlns:xlink="http://www.w3.org/1999/xlink" xlink:href="https://ourworldindata.org" target="_blank"><g><rect x="0" y="0" fill="#1B2543" width="211.2" height="130.1"/><rect x="0" y="112.2" fill="#E63912" width="211.2" height="17.9"/><g><rect x="1.2" y="12.3" fill="none" width="210.2" height="99.2"/><path fill="#FFFFFF" d="M37.8,32.2c0,12.7-7.7,19.4-17.1,19.4c-9.7,0-16.6-7.5-16.6-18.7c0-11.7,7.3-19.3,17.1-19.3 C31.3,13.7,37.8,21.3,37.8,32.2z M9.2,32.8c0,7.9,4.3,14.9,11.8,14.9c7.5,0,11.8-6.9,11.8-15.3c0-7.3-3.8-14.9-11.8-14.9 C13.1,17.5,9.2,24.8,9.2,32.8z"/><path fill="#FFFFFF" d="M62.7,43.8c0,2.7,0.1,5.1,0.2,7.2h-4.3l-0.3-4.3h-0.1c-1.3,2.1-4,4.9-8.8,4.9c-4.2,0-9.1-2.3-9.1-11.6 V24.6h4.8v14.6c0,5,1.5,8.4,5.9,8.4c3.2,0,5.5-2.2,6.3-4.4c0.3-0.7,0.4-1.6,0.4-2.5V24.6h4.8V43.8z"/><path fill="#FFFFFF" d="M67.3,32.8c0-3.1-0.1-5.8-0.2-8.2h4.2l0.2,5.2h0.2c1.2-3.5,4.1-5.8,7.3-5.8c0.5,0,0.9,0.1,1.4,0.2v4.5 c-0.5-0.1-1-0.2-1.6-0.2c-3.4,0-5.8,2.6-6.5,6.2c-0.1,0.7-0.2,1.4-0.2,2.2V51h-4.8V32.8z"/><path fill="#FFFFFF" d="M95.4,51l-9.4-36.8h5l4.4,18.6c1.1,4.6,2.1,9.2,2.7,12.7h0.1c0.6-3.7,1.8-8,3-12.8l4.9-18.5h5l4.5,18.7 c1,4.4,2,8.7,2.6,12.6h0.1c0.8-4,1.8-8.1,3-12.7l4.9-18.5h4.9L120.6,51h-5L111,31.9c-1.1-4.7-1.9-8.3-2.4-12h-0.1 c-0.7,3.7-1.5,7.3-2.8,12L100.4,51H95.4z"/><path fill="#FFFFFF" d="M154.9,37.6c0,9.8-6.8,14-13.2,14c-7.2,0-12.7-5.2-12.7-13.6c0-8.8,5.8-14,13.1-14 C149.8,24,154.9,29.5,154.9,37.6z M133.9,37.9c0,5.8,3.3,10.1,8,10.1c4.6,0,8-4.3,8-10.3c0-4.5-2.2-10.1-7.9-10.1 C136.3,27.6,133.9,32.8,133.9,37.9z"/><path fill="#FFFFFF" d="M158.2,32.8c0-3.1-0.1-5.8-0.2-8.2h4.2l0.2,5.2h0.2c1.2-3.5,4.1-5.8,7.3-5.8c0.5,0,0.9,0.1,1.4,0.2v4.5 c-0.5-0.1-1-0.2-1.6-0.2c-3.4,0-5.8,2.6-6.5,6.2c-0.1,0.7-0.2,1.4-0.2,2.2V51h-4.8V32.8z"/><path fill="#FFFFFF" d="M173.5,12.3h4.8V51h-4.8V12.3z"/><path fill="#FFFFFF" d="M206.5,12.3v31.9c0,2.3,0.1,5,0.2,6.8h-4.3l-0.2-4.6H202c-1.5,2.9-4.7,5.2-9,5.2 c-6.4,0-11.3-5.4-11.3-13.4c-0.1-8.8,5.4-14.2,11.9-14.2c4,0,6.8,1.9,8,4h0.1V12.3H206.5z M201.7,35.4c0-0.6-0.1-1.4-0.2-2 c-0.7-3.1-3.3-5.6-6.9-5.6c-5,0-7.9,4.4-7.9,10.2c0,5.3,2.6,9.8,7.8,9.8c3.2,0,6.2-2.1,7.1-5.7c0.2-0.7,0.2-1.3,0.2-2.1V35.4z"/><path fill="#FFFFFF" d="M42.8,64c0.1,1.6-1.1,2.9-3.1,2.9c-1.7,0-2.9-1.3-2.9-2.9c0-1.7,1.3-3,3-3C41.7,61,42.8,62.3,42.8,64z M37.4,97.8V71.4h4.8v26.4H37.4z"/><path fill="#FFFFFF" d="M47.5,78.6c0-2.7-0.1-5-0.2-7.1h4.3l0.3,4.4h0.1c1.3-2.5,4.4-5,8.8-5c3.7,0,9.4,2.2,9.4,11.2v15.8h-4.8 V82.6c0-4.3-1.6-7.8-6.1-7.8c-3.2,0-5.6,2.2-6.5,4.9c-0.2,0.6-0.3,1.4-0.3,2.2v15.9h-4.8V78.6z"/><path fill="#FFFFFF" d="M84,61.6c2.9-0.4,6.3-0.8,10.1-0.8c6.8,0,11.7,1.6,14.9,4.6c3.3,3,5.2,7.3,5.2,13.2c0,6-1.9,10.9-5.3,14.3 c-3.4,3.4-9.1,5.3-16.3,5.3c-3.4,0-6.2-0.2-8.6-0.4V61.6z M88.8,94.1c1.2,0.2,3,0.3,4.8,0.3c10.2,0,15.7-5.7,15.7-15.6 c0.1-8.7-4.9-14.2-14.9-14.2c-2.5,0-4.3,0.2-5.6,0.5V94.1z"/><path fill="#FFFFFF" d="M132.1,97.8l-0.4-3.3h-0.2c-1.5,2.1-4.3,3.9-8.1,3.9c-5.4,0-8.1-3.8-8.1-7.6c0-6.4,5.7-9.9,15.9-9.8v-0.5 c0-2.2-0.6-6.1-6-6.1c-2.5,0-5,0.8-6.9,2l-1.1-3.2c2.2-1.4,5.4-2.3,8.7-2.3c8.1,0,10.1,5.5,10.1,10.8v9.9c0,2.3,0.1,4.5,0.4,6.3 H132.1z M131.4,84.4c-5.3-0.1-11.2,0.8-11.2,5.9c0,3.1,2.1,4.6,4.5,4.6c3.4,0,5.6-2.2,6.4-4.4c0.2-0.5,0.3-1,0.3-1.5V84.4z"/><path fill="#FFFFFF" d="M146.6,63.9v7.6h6.9v3.7h-6.9v14.2c0,3.3,0.9,5.1,3.6,5.1c1.3,0,2.2-0.2,2.8-0.3l0.2,3.6 c-0.9,0.4-2.4,0.7-4.3,0.7c-2.2,0-4-0.7-5.2-2c-1.4-1.4-1.9-3.8-1.9-6.9V75.1h-4.1v-3.7h4.1v-6.3L146.6,63.9z"/><path fill="#FFFFFF" d="M171.4,97.8l-0.4-3.3h-0.2c-1.5,2.1-4.3,3.9-8.1,3.9c-5.4,0-8.1-3.8-8.1-7.6c0-6.4,5.7-9.9,15.9-9.8v-0.5 c0-2.2-0.6-6.1-6-6.1c-2.5,0-5,0.8-6.9,2l-1.1-3.2c2.2-1.4,5.4-2.3,8.7-2.3c8.1,0,10.1,5.5,10.1,10.8v9.9c0,2.3,0.1,4.5,0.4,6.3 H171.4z M170.7,84.4c-5.3-0.1-11.2,0.8-11.2,5.9c0,3.1,2.1,4.6,4.5,4.6c3.4,0,5.6-2.2,6.4-4.4c0.2-0.5,0.3-1,0.3-1.5V84.4z"/></g></g></a></g><a href="https://ourworldindata.org/grapher/cardiovascular-disease-death-rates-by-age" target="_blank"><text font-size="25.20" x="15.0" y="35.2" fill="#555"><tspan x="15" y="35.160000000000004">Cardiovascular disease death rates by age (per 100,000), World</tspan></text></a><text font-size="14.40" x="15.0" y="53.7" fill="#666"><tspan x="15" y="53.72">Death rates from cardiovascular disease measured per 100,000 individuals across various age categories. Also</tspan><tspan x="15" y="69.56">shown is the total death rate across all ages (not age-standardized) and the age-standardized death rate.</tspan><tspan x="15" y="85.4">Age-standardization assumes a constant population age &amp; structure to allow for comparisons between countries and</tspan><tspan x="15" y="101.24000000000001">with time without the effects of a changing age distribution within a population (e.g. aging).</tspan></text></g><g class="LineChart"><defs><clipPath id="boundsClip-75"><rect x="50.824" y="0" width="830" height="866.8"></rect></clipPath></defs><g class="AxisBoxView"><g class="HorizontalAxis"><text x="60.8" y="556.5" fill="#666" text-anchor="middle" font-size="16.2">1990</text><text x="183.1" y="556.5" fill="#666" text-anchor="middle" font-size="16.2">1995</text><text x="305.4" y="556.5" fill="#666" text-anchor="middle" font-size="16.2">2000</text><text x="427.7" y="556.5" fill="#666" text-anchor="middle" font-size="16.2">2005</text><text x="549.9" y="556.5" fill="#666" text-anchor="middle" font-size="16.2">2010</text><text x="696.7" y="556.5" fill="#666" text-anchor="middle" font-size="16.2">2016</text></g><g class="VerticalAxis"><text x="55.82" y="535.3" fill="#666" dominant-baseline="middle" text-anchor="end" font-size="16.2">0</text><text x="55.82" y="477.8" fill="#666" dominant-baseline="middle" text-anchor="end" font-size="16.2">500</text><text x="55.82" y="420.4" fill="#666" dominant-baseline="middle" text-anchor="end" font-size="16.2">1,000</text><text x="55.82" y="362.9" fill="#666" dominant-baseline="middle" text-anchor="end" font-size="16.2">1,500</text><text x="55.82" y="305.5" fill="#666" dominant-baseline="middle" text-anchor="end" font-size="16.2">2,000</text><text x="55.82" y="248" fill="#666" dominant-baseline="middle" text-anchor="end" font-size="16.2">2,500</text><text x="55.82" y="190.6" fill="#666" dominant-baseline="middle" text-anchor="end" font-size="16.2">3,000</text><text x="55.82" y="133.1" fill="#666" dominant-baseline="middle" text-anchor="end" font-size="16.2">3,500</text></g><g class="AxisGridLines"><line x1="60.82" y1="535.3" x2="696.67" y2="535.3" stroke="#ccc"></line><line x1="60.82" y1="477.8" x2="696.67" y2="477.8" stroke="#ddd" stroke-dasharray="3,2"></line><line x1="60.82" y1="420.4" x2="696.67" y2="420.4" stroke="#ddd" stroke-dasharray="3,2"></line><line x1="60.82" y1="362.9" x2="696.67" y2="362.9" stroke="#ddd" stroke-dasharray="3,2"></line><line x1="60.82" y1="305.5" x2="696.67" y2="305.5" stroke="#ddd" stroke-dasharray="3,2"></line><line x1="60.82" y1="248" x2="696.67" y2="248" stroke="#ddd" stroke-dasharray="3,2"></line><line x1="60.82" y1="190.6" x2="696.67" y2="190.6" stroke="#ddd" stroke-dasharray="3,2"></line><line x1="60.82" y1="133.1" x2="696.67" y2="133.1" stroke="#ddd" stroke-dasharray="3,2"></line></g><g class="AxisGridLines"><line x1="60.8" y1="535.30" x2="60.8" y2="123.10" stroke="#ddd" stroke-dasharray="3,2"></line><line x1="183.1" y1="535.30" x2="183.1" y2="123.10" stroke="#ddd" stroke-dasharray="3,2"></line><line x1="305.4" y1="535.30" x2="305.4" y2="123.10" stroke="#ddd" stroke-dasharray="3,2"></line><line x1="427.7" y1="535.30" x2="427.7" y2="123.10" stroke="#ddd" stroke-dasharray="3,2"></line><line x1="549.9" y1="535.30" x2="549.9" y2="123.10" stroke="#ddd" stroke-dasharray="3,2"></line><line x1="672.2" y1="535.30" x2="672.2" y2="123.10" stroke="#ddd" stroke-dasharray="3,2"></line></g></g><g clip-path="url(#boundsClip-75)"><g class="HeightedLegend clickable"><g class="legendMark"><rect x="706.672" y="520.9" width="106.58400000000002" height="14.4" fill="#fff" opacity="0"></rect><rect x="706.672" y="526.85" width="10" height="2.5" fill="#3360a9"></rect><text font-size="14.40" x="721.7" y="532.4" fill="#333"><tspan x="721.672" y="532.42">5-14 years old</tspan></text></g><g class="legendMark"><rect x="706.672" y="506.5" width="74.328" height="14.4" fill="#fff" opacity="0"></rect><rect x="706.672" y="512.45" width="10" height="2.5" fill="#ca2628"></rect><text font-size="14.40" x="721.7" y="518.0" fill="#333"><tspan x="721.672" y="518.02">Under-5s</tspan></text></g><g class="legendMark"><rect x="706.672" y="492.1" width="114.64800000000001" height="14.4" fill="#fff" opacity="0"></rect><rect x="706.672" y="498.05" width="10" height="2.5" fill="#34983f"></rect><text font-size="14.40" x="721.7" y="503.6" fill="#333"><tspan x="721.672" y="503.62">15-49 years old</tspan></text></g><g class="legendMark"><rect x="706.672" y="477.70000000000005" width="66.40800000000002" height="14.4" fill="#fff" opacity="0"></rect><rect x="706.672" y="483.65000000000003" width="10" height="2.5" fill="#f6a324"></rect><text font-size="14.40" x="721.7" y="489.2" fill="#333"><tspan x="721.672" y="489.22">All ages</tspan></text></g><g class="legendMark"><rect x="706.672" y="463.30000000000007" width="128.32800000000003" height="14.4" fill="#fff" opacity="0"></rect><rect x="706.672" y="469.25000000000006" width="10" height="2.5" fill="#a652ba"></rect><text font-size="14.40" x="721.7" y="474.8" fill="#333"><tspan x="721.672" y="474.82000000000005">Age-standardized</tspan></text></g><g class="legendMark"><rect x="706.672" y="448.9000000000001" width="114.64800000000001" height="14.4" fill="#fff" opacity="0"></rect><rect x="706.672" y="454.8500000000001" width="10" height="2.5" fill="#2a939b"></rect><text font-size="14.40" x="721.7" y="460.4" fill="#333"><tspan x="721.672" y="460.4200000000001">50-69 years old</tspan></text></g><g class="legendMark"><rect x="706.672" y="212.20000000000002" width="102.12" height="14.4" fill="#fff" opacity="0"></rect><rect x="706.672" y="218.15" width="10" height="2.5" fill="#e6332e"></rect><text font-size="14.40" x="721.7" y="223.7" fill="#333"><tspan x="721.672" y="223.72000000000003">70+ years old</tspan></text></g></g><g class="Lines"><rect x="61" y="123" width="636" height="412" fill="rgba(255,255,255,0)" opacity="0"></rect><g class="key-World_0"><path stroke="#ca2628" stroke-linecap="round" d="M61 534L85 534L110 534L134 534L159 534L183 534L208 534L232 534L257 534L281 534L305 534L330 534L354 534L379 534L403 534L428 534L452 534L477 535L501 535L526 535L550 535L574 535L599 535L623 535L648 535L672 535L697 535" fill="none" stroke-width="1.5"></path><g fill="#ca2628"><circle cx="61" cy="534" r="2"></circle><circle cx="85" cy="534" r="2"></circle><circle cx="110" cy="534" r="2"></circle><circle cx="134" cy="534" r="2"></circle><circle cx="159" cy="534" r="2"></circle><circle cx="183" cy="534" r="2"></circle><circle cx="208" cy="534" r="2"></circle><circle cx="232" cy="534" r="2"></circle><circle cx="257" cy="534" r="2"></circle><circle cx="281" cy="534" r="2"></circle><circle cx="305" cy="534" r="2"></circle><circle cx="330" cy="534" r="2"></circle><circle cx="354" cy="534" r="2"></circle><circle cx="379" cy="534" r="2"></circle><circle cx="403" cy="534" r="2"></circle><circle cx="428" cy="534" r="2"></circle><circle cx="452" cy="534" r="2"></circle><circle cx="477" cy="535" r="2"></circle><circle cx="501" cy="535" r="2"></circle><circle cx="526" cy="535" r="2"></circle><circle cx="550" cy="535" r="2"></circle><circle cx="574" cy="535" r="2"></circle><circle cx="599" cy="535" r="2"></circle><circle cx="623" cy="535" r="2"></circle><circle cx="648" cy="535" r="2"></circle><circle cx="672" cy="535" r="2"></circle><circle cx="697" cy="535" r="2"></circle></g></g><g class="key-World_1"><path stroke="#f6a324" stroke-linecap="round" d="M61 508L85 508L110 508L134 508L159 508L183 508L208 508L232 508L257 508L281 508L305 508L330 508L354 508L379 508L403 508L428 508L452 508L477 509L501 509L526 509L550 508L574 509L599 509L623 509L648 508L672 508L697 508" fill="none" stroke-width="1.5"></path><g fill="#f6a324"><circle cx="61" cy="508" r="2"></circle><circle cx="85" cy="508" r="2"></circle><circle cx="110" cy="508" r="2"></circle><circle cx="134" cy="508" r="2"></circle><circle cx="159" cy="508" r="2"></circle><circle cx="183" cy="508" r="2"></circle><circle cx="208" cy="508" r="2"></circle><circle cx="232" cy="508" r="2"></circle><circle cx="257" cy="508" r="2"></circle><circle cx="281" cy="508" r="2"></circle><circle cx="305" cy="508" r="2"></circle><circle cx="330" cy="508" r="2"></circle><circle cx="354" cy="508" r="2"></circle><circle cx="379" cy="508" r="2"></circle><circle cx="403" cy="508" r="2"></circle><circle cx="428" cy="508" r="2"></circle><circle cx="452" cy="508" r="2"></circle><circle cx="477" cy="509" r="2"></circle><circle cx="501" cy="509" r="2"></circle><circle cx="526" cy="509" r="2"></circle><circle cx="550" cy="508" r="2"></circle><circle cx="574" cy="509" r="2"></circle><circle cx="599" cy="509" r="2"></circle><circle cx="623" cy="509" r="2"></circle><circle cx="648" cy="508" r="2"></circle><circle cx="672" cy="508" r="2"></circle><circle cx="697" cy="508" r="2"></circle></g></g><g class="key-World_2"><path stroke="#e6332e" stroke-linecap="round" d="M61 123L85 128L110 130L134 127L159 129L183 135L208 143L232 151L257 156L281 157L305 161L330 164L354 164L379 172L403 180L428 183L452 191L477 196L501 199L526 203L550 206L574 210L599 213L623 216L648 218L672 220L697 219" fill="none" stroke-width="1.5"></path><g fill="#e6332e"><circle cx="61" cy="123" r="2"></circle><circle cx="85" cy="128" r="2"></circle><circle cx="110" cy="130" r="2"></circle><circle cx="134" cy="127" r="2"></circle><circle cx="159" cy="129" r="2"></circle><circle cx="183" cy="135" r="2"></circle><circle cx="208" cy="143" r="2"></circle><circle cx="232" cy="151" r="2"></circle><circle cx="257" cy="156" r="2"></circle><circle cx="281" cy="157" r="2"></circle><circle cx="305" cy="161" r="2"></circle><circle cx="330" cy="164" r="2"></circle><circle cx="354" cy="164" r="2"></circle><circle cx="379" cy="172" r="2"></circle><circle cx="403" cy="180" r="2"></circle><circle cx="428" cy="183" r="2"></circle><circle cx="452" cy="191" r="2"></circle><circle cx="477" cy="196" r="2"></circle><circle cx="501" cy="199" r="2"></circle><circle cx="526" cy="203" r="2"></circle><circle cx="550" cy="206" r="2"></circle><circle cx="574" cy="210" r="2"></circle><circle cx="599" cy="213" r="2"></circle><circle cx="623" cy="216" r="2"></circle><circle cx="648" cy="218" r="2"></circle><circle cx="672" cy="220" r="2"></circle><circle cx="697" cy="219" r="2"></circle></g></g><g class="key-World_3"><path stroke="#2a939b" stroke-linecap="round" d="M61 469L85 470L110 469L134 468L159 467L183 468L208 470L232 471L257 473L281 473L305 474L330 475L354 476L379 477L403 479L428 480L452 482L477 483L501 484L526 486L550 486L574 487L599 488L623 488L648 488L672 489L697 489" fill="none" stroke-width="1.5"></path><g fill="#2a939b"><circle cx="61" cy="469" r="2"></circle><circle cx="85" cy="470" r="2"></circle><circle cx="110" cy="469" r="2"></circle><circle cx="134" cy="468" r="2"></circle><circle cx="159" cy="467" r="2"></circle><circle cx="183" cy="468" r="2"></circle><circle cx="208" cy="470" r="2"></circle><circle cx="232" cy="471" r="2"></circle><circle cx="257" cy="473" r="2"></circle><circle cx="281" cy="473" r="2"></circle><circle cx="305" cy="474" r="2"></circle><circle cx="330" cy="475" r="2"></circle><circle cx="354" cy="476" r="2"></circle><circle cx="379" cy="477" r="2"></circle><circle cx="403" cy="479" r="2"></circle><circle cx="428" cy="480" r="2"></circle><circle cx="452" cy="482" r="2"></circle><circle cx="477" cy="483" r="2"></circle><circle cx="501" cy="484" r="2"></circle><circle cx="526" cy="486" r="2"></circle><circle cx="550" cy="486" r="2"></circle><circle cx="574" cy="487" r="2"></circle><circle cx="599" cy="488" r="2"></circle><circle cx="623" cy="488" r="2"></circle><circle cx="648" cy="488" r="2"></circle><circle cx="672" cy="489" r="2"></circle><circle cx="697" cy="489" r="2"></circle></g></g><g class="key-World_4"><path stroke="#a652ba" stroke-linecap="round" d="M61 490L85 490L110 490L134 490L159 490L183 491L208 492L232 493L257 493L281 493L305 494L330 494L354 494L379 495L403 496L428 497L452 498L477 499L501 499L526 500L550 501L574 501L599 502L623 502L648 503L672 503L697 503" fill="none" stroke-width="1.5"></path><g fill="#a652ba"><circle cx="61" cy="490" r="2"></circle><circle cx="85" cy="490" r="2"></circle><circle cx="110" cy="490" r="2"></circle><circle cx="134" cy="490" r="2"></circle><circle cx="159" cy="490" r="2"></circle><circle cx="183" cy="491" r="2"></circle><circle cx="208" cy="492" r="2"></circle><circle cx="232" cy="493" r="2"></circle><circle cx="257" cy="493" r="2"></circle><circle cx="281" cy="493" r="2"></circle><circle cx="305" cy="494" r="2"></circle><circle cx="330" cy="494" r="2"></circle><circle cx="354" cy="494" r="2"></circle><circle cx="379" cy="495" r="2"></circle><circle cx="403" cy="496" r="2"></circle><circle cx="428" cy="497" r="2"></circle><circle cx="452" cy="498" r="2"></circle><circle cx="477" cy="499" r="2"></circle><circle cx="501" cy="499" r="2"></circle><circle cx="526" cy="500" r="2"></circle><circle cx="550" cy="501" r="2"></circle><circle cx="574" cy="501" r="2"></circle><circle cx="599" cy="502" r="2"></circle><circle cx="623" cy="502" r="2"></circle><circle cx="648" cy="503" r="2"></circle><circle cx="672" cy="503" r="2"></circle><circle cx="697" cy="503" r="2"></circle></g></g><g class="key-World_5"><path stroke="#3360a9" stroke-linecap="round" d="M61 535L85 535L110 535L134 535L159 535L183 535L208 535L232 535L257 535L281 535L305 535L330 535L354 535L379 535L403 535L428 535L452 535L477 535L501 535L526 535L550 535L574 535L599 535L623 535L648 535L672 535L697 535" fill="none" stroke-width="1.5"></path><g fill="#3360a9"><circle cx="61" cy="535" r="2"></circle><circle cx="85" cy="535" r="2"></circle><circle cx="110" cy="535" r="2"></circle><circle cx="134" cy="535" r="2"></circle><circle cx="159" cy="535" r="2"></circle><circle cx="183" cy="535" r="2"></circle><circle cx="208" cy="535" r="2"></circle><circle cx="232" cy="535" r="2"></circle><circle cx="257" cy="535" r="2"></circle><circle cx="281" cy="535" r="2"></circle><circle cx="305" cy="535" r="2"></circle><circle cx="330" cy="535" r="2"></circle><circle cx="354" cy="535" r="2"></circle><circle cx="379" cy="535" r="2"></circle><circle cx="403" cy="535" r="2"></circle><circle cx="428" cy="535" r="2"></circle><circle cx="452" cy="535" r="2"></circle><circle cx="477" cy="535" r="2"></circle><circle cx="501" cy="535" r="2"></circle><circle cx="526" cy="535" r="2"></circle><circle cx="550" cy="535" r="2"></circle><circle cx="574" cy="535" r="2"></circle><circle cx="599" cy="535" r="2"></circle><circle cx="623" cy="535" r="2"></circle><circle cx="648" cy="535" r="2"></circle><circle cx="672" cy="535" r="2"></circle><circle cx="697" cy="535" r="2"></circle></g></g><g class="key-World_6"><path stroke="#34983f" stroke-linecap="round" d="M61 531L85 531L110 531L134 530L159 530L183 530L208 530L232 530L257 530L281 530L305 530L330 531L354 531L379 531L403 531L428 531L452 531L477 531L501 531L526 531L550 531L574 531L599 531L623 531L648 531L672 531L697 531" fill="none" stroke-width="1.5"></path><g fill="#34983f"><circle cx="61" cy="531" r="2"></circle><circle cx="85" cy="531" r="2"></circle><circle cx="110" cy="531" r="2"></circle><circle cx="134" cy="530" r="2"></circle><circle cx="159" cy="530" r="2"></circle><circle cx="183" cy="530" r="2"></circle><circle cx="208" cy="530" r="2"></circle><circle cx="232" cy="530" r="2"></circle><circle cx="257" cy="530" r="2"></circle><circle cx="281" cy="530" r="2"></circle><circle cx="305" cy="530" r="2"></circle><circle cx="330" cy="531" r="2"></circle><circle cx="354" cy="531" r="2"></circle><circle cx="379" cy="531" r="2"></circle><circle cx="403" cy="531" r="2"></circle><circle cx="428" cy="531" r="2"></circle><circle cx="452" cy="531" r="2"></circle><circle cx="477" cy="531" r="2"></circle><circle cx="501" cy="531" r="2"></circle><circle cx="526" cy="531" r="2"></circle><circle cx="550" cy="531" r="2"></circle><circle cx="574" cy="531" r="2"></circle><circle cx="599" cy="531" r="2"></circle><circle cx="623" cy="531" r="2"></circle><circle cx="648" cy="531" r="2"></circle><circle cx="672" cy="531" r="2"></circle><circle cx="697" cy="531" r="2"></circle></g></g></g></g></g><g style="fill: #777;" class="SourcesFooter"><g style="fill: #777;" class="clickable"><text font-size="12.60" x="15.0" y="581.6"><tspan x="15" y="581.58">Source: IHME, Global Burden of Disease (GBD)</tspan></text></g><text font-size="12.60" x="649.0" y="581.6"><tspan x="649.024" y="581.58"><a target='_blank' style='fill: #777;' href='https://ourworldindata.org'>OurWorldInData.org</a> • <a style="fill: #777;" href="http://creativecommons.org/licenses/by-sa/4.0/deed.en_US" target="_blank">CC BY-SA</a></tspan></text></g></g></svg>