<svg xmlns="http://www.w3.org/2000/svg" version="1.1" style="font-family: 'Helvetica Neue', Helvetica, Arial, sans-serif; font-size: 18px; background-color: white; text-rendering: optimizeLegibility; -webkit-font-smoothing: antialiased;" width="850" height="600"><g class="ChartTab"><g class="HeaderView"><g opacity="0.8" transform="translate(770, 15) scale(0.31)"><a xmlns:xlink="http://www.w3.org/1999/xlink" xlink:href="https://ourworldindata.org" target="_blank"><g><rect x="0" y="0" fill="#1B2543" width="211.2" height="130.1"/><rect x="0" y="112.2" fill="#E63912" width="211.2" height="17.9"/><g><rect x="1.2" y="12.3" fill="none" width="210.2" height="99.2"/><path fill="#FFFFFF" d="M37.8,32.2c0,12.7-7.7,19.4-17.1,19.4c-9.7,0-16.6-7.5-16.6-18.7c0-11.7,7.3-19.3,17.1-19.3 C31.3,13.7,37.8,21.3,37.8,32.2z M9.2,32.8c0,7.9,4.3,14.9,11.8,14.9c7.5,0,11.8-6.9,11.8-15.3c0-7.3-3.8-14.9-11.8-14.9 C13.1,17.5,9.2,24.8,9.2,32.8z"/><path fill="#FFFFFF" d="M62.7,43.8c0,2.7,0.1,5.1,0.2,7.2h-4.3l-0.3-4.3h-0.1c-1.3,2.1-4,4.9-8.8,4.9c-4.2,0-9.1-2.3-9.1-11.6 V24.6h4.8v14.6c0,5,1.5,8.4,5.9,8.4c3.2,0,5.5-2.2,6.3-4.4c0.3-0.7,0.4-1.6,0.4-2.5V24.6h4.8V43.8z"/><path fill="#FFFFFF" d="M67.3,32.8c0-3.1-0.1-5.8-0.2-8.2h4.2l0.2,5.2h0.2c1.2-3.5,4.1-5.8,7.3-5.8c0.5,0,0.9,0.1,1.4,0.2v4.5 c-0.5-0.1-1-0.2-1.6-0.2c-3.4,0-5.8,2.6-6.5,6.2c-0.1,0.7-0.2,1.4-0.2,2.2V51h-4.8V32.8z"/><path fill="#FFFFFF" d="M95.4,51l-9.4-36.8h5l4.4,18.6c1.1,4.6,2.1,9.2,2.7,12.7h0.1c0.6-3.7,1.8-8,3-12.8l4.9-18.5h5l4.5,18.7 c1,4.4,2,8.7,2.6,12.6h0.1c0.8-4,1.8-8.1,3-12.7l4.9-18.5h4.9L120.6,51h-5L111,31.9c-1.1-4.7-1.9-8.3-2.4-12h-0.1 c-0.7,3.7-1.5,7.3-2.8,12L100.4,51H95.4z"/><path fill="#FFFFFF" d="M154.9,37.6c0,9.8-6.8,14-13.2,14c-7.2,0-12.7-5.2-12.7-13.6c0-8.8,5.8-14,13.1-14 C149.8,24,154.9,29.5,154.9,37.6z M133.9,37.9c0,5.8,3.3,10.1,8,10.1c4.6,0,8-4.3,8-10.3c0-4.5-2.2-10.1-7.9-10.1 C136.3,27.6,133.9,32.8,133.9,37.9z"/><path fill="#FFFFFF" d="M158.2,32.8c0-3.1-0.1-5.8-0.2-8.2h4.2l0.2,5.2h0.2c1.2-3.5,4.1-5.8,7.3-5.8c0.5,0,0.9,0.1,1.4,0.2v4.5 c-0.5-0.1-1-0.2-1.6-0.2c-3.4,0-5.8,2.6-6.5,6.2c-0.1,0.7-0.2,1.4-0.2,2.2V51h-4.8V32.8z"/><path fill="#FFFFFF" d="M173.5,12.3h4.8V51h-4.8V12.3z"/><path fill="#FFFFFF" d="M206.5,12.3v31.9c0,2.3,0.1,5,0.2,6.8h-4.3l-0.2-4.6H202c-1.5,2.9-4.7,5.2-9,5.2 c-6.4,0-11.3-5.4-11.3-13.4c-0.1-8.8,5.4-14.2,11.9-14.2c4,0,6.8,1.9,8,4h0.1V12.3H206.5z M201.7,35.4c0-0.6-0.1-1.4-0.2-2 c-0.7-3.1-3.3-5.6-6.9-5.6c-5,0-7.9,4.4-7.9,10.2c0,5.3,2.6,9.8,7.8,9.8c3.2,0,6.2-2.1,7.1-5.7c0.2-0.7,0.2-1.3,0.2-2.1V35.4z"/><path fill="#FFFFFF" d="M42.8,64c0.1,1.6-1.1,2.9-3.1,2.9c-1.7,0-2.9-1.3-2.9-2.9c0-1.7,1.3-3,3-3C41.7,61,42.8,62.3,42.8,64z M37.4,97.8V71.4h4.8v26.4H37.4z"/><path fill="#FFFFFF" d="M47.5,78.6c0-2.7-0.1-5-0.2-7.1h4.3l0.3,4.4h0.1c1.3-2.5,4.4-5,8.8-5c3.7,0,9.4,2.2,9.4,11.2v15.8h-4.8 V82.6c0-4.3-1.6-7.8-6.1-7.8c-3.2,0-5.6,2.2-6.5,4.9c-0.2,0.6-0.3,1.4-0.3,2.2v15.9h-4.8V78.6z"/><path fill="#FFFFFF" d="M84,61.6c2.9-0.4,6.3-0.8,10.1-0.8c6.8,0,11.7,1.6,14.9,4.6c3.3,3,5.2,7.3,5.2,13.2c0,6-1.9,10.9-5.3,14.3 c-3.4,3.4-9.1,5.3-16.3,5.3c-3.4,0-6.2-0.2-8.6-0.4V61.6z M88.8,94.1c1.2,0.2,3,0.3,4.8,0.3c10.2,0,15.7-5.7,15.7-15.6 c0.1-8.7-4.9-14.2-14.9-14.2c-2.5,0-4.3,0.2-5.6,0.5V94.1z"/><path fill="#FFFFFF" d="M132.1,97.8l-0.4-3.3h-0.2c-1.5,2.1-4.3,3.9-8.1,3.9c-5.4,0-8.1-3.8-8.1-7.6c0-6.4,5.7-9.9,15.9-9.8v-0.5 c0-2.2-0.6-6.1-6-6.1c-2.5,0-5,0.8-6.9,2l-1.1-3.2c2.2-1.4,5.4-2.3,8.7-2.3c8.1,0,10.1,5.5,10.1,10.8v9.9c0,2.3,0.1,4.5,0.4,6.3 H132.1z M131.4,84.4c-5.3-0.1-11.2,0.8-11.2,5.9c0,3.1,2.1,4.6,4.5,4.6c3.4,0,5.6-2.2,6.4-4.4c0.2-0.5,0.3-1,0.3-1.5V84.4z"/><path fill="#FFFFFF" d="M146.6,63.9v7.6h6.9v3.7h-6.9v14.2c0,3.3,0.9,5.1,3.6,5.1c1.3,0,2.2-0.2,2.8-0.3l0.2,3.6 c-0.9,0.4-2.4,0.7-4.3,0.7c-2.2,0-4-0.7-5.2-2c-1.4-1.4-1.9-3.8-1.9-6.9V75.1h-4.1v-3.7h4.1v-6.3L146.6,63.9z"/><path fill="#FFFFFF" d="M171.4,97.8l-0.4-3.3h-0.2c-1.5,2.1-4.3,3.9-8.1,3.9c-5.4,0-8.1-3.8-8.1-7.6c0-6.4,5.7-9.9,15.9-9.8v-0.5 c0-2.2-0.6-6.1-6-6.1c-2.5,0-5,0.8-6.9,2l-1.1-3.2c2.2-1.4,5.4-2.3,8.7-2.3c8.1,0,10.1,5.5,10.1,10.8v9.9c0,2.3,0.1,4.5,0.4,6.3 H171.4z M170.7,84.4c-5.3-0.1-11.2,0.8-11.2,5.9c0,3.1,2.1,4.6,4.5,4.6c3.4,0,5.6-2.2,6.4-4.4c0.2-0.5,0.3-1,0.3-1.5V84.4z"/></g></g></a></g><a href="https://ourworldindata.org/grapher/cereal-crop-yield-vs-fertilizer-application" target="_blank"><text font-size="27.00" x="15.0" y="36.6" fill="#555"><tspan x="15" y="36.6">Cereal crop yield vs. fertilizer application, 2014</tspan></text></a><text font-size="14.40" x="15.0" y="55.5" fill="#666"><tspan x="15" y="55.519999999999996">Average cereal crop yield (measured in kilograms per hectare) versus fertilizer application (measured in kilograms of</tspan><tspan x="15" y="71.36">fertilizer used per hectare of arable land)</tspan></text></g><g><g class="AxisBoxView"><g class="HorizontalAxis"><text font-size="12.60" x="229.4" y="554.0"><tspan x="229.424" y="553.98">Fertilizer application (kg per hectare arable land)</tspan></text><text x="185.7" y="533.9" fill="#666" text-anchor="middle" font-size="16.2">1 kilograms</text><text x="315.3" y="533.9" fill="#666" text-anchor="middle" font-size="16.2">10 kilograms</text><text x="444.9" y="533.9" fill="#666" text-anchor="middle" font-size="16.2">100 kilograms</text><text x="574.6" y="533.9" fill="#666" text-anchor="middle" font-size="16.2">1,000 kilograms</text><text x="704.2" y="533.9" fill="#666" text-anchor="middle" font-size="16.2">10,000 kilograms</text></g><g class="VerticalAxis"><text font-size="12.60" x="-404.9" y="25.1" transform="rotate(-90)"><tspan x="-404.89500000000004" y="25.080000000000002">Cereal yield (kg per hectare)</tspan></text><text x="109.20" y="408.7" fill="#666" dominant-baseline="middle" text-anchor="end" font-size="16.2">1,000 kg</text><text x="109.20" y="214.6" fill="#666" dominant-baseline="middle" text-anchor="end" font-size="16.2">10,000 kg</text></g><g class="AxisGridLines"><line x1="114.20" y1="408.7" x2="715.00" y2="408.7" stroke="#ddd" stroke-dasharray="3,2"></line><line x1="114.20" y1="214.6" x2="715.00" y2="214.6" stroke="#ddd" stroke-dasharray="3,2"></line></g><g class="AxisGridLines"><line x1="185.7" y1="512.70" x2="185.7" y2="93.90" stroke="#ddd" stroke-dasharray="3,2"></line><line x1="315.3" y1="512.70" x2="315.3" y2="93.90" stroke="#ddd" stroke-dasharray="3,2"></line><line x1="444.9" y1="512.70" x2="444.9" y2="93.90" stroke="#ddd" stroke-dasharray="3,2"></line><line x1="574.6" y1="512.70" x2="574.6" y2="93.90" stroke="#ddd" stroke-dasharray="3,2"></line><line x1="704.2" y1="512.70" x2="704.2" y2="93.90" stroke="#ddd" stroke-dasharray="3,2"></line></g></g><g clip-path="url(#scatterBounds-393)" class="PointsWithLabels clickable"><rect x="114.20400000000001" y="93.9" width="600.796" height="418.8" fill="rgba(255,255,255,0)"></rect><defs><clipPath id="scatterBounds-393"><rect x="104.20400000000001" y="83.9" width="620.796" height="438.8"></rect></clipPath></defs><circle cx="542" cy="259" r="17.841241161527712" fill="#d14e5b" opacity="0.8"></circle><circle cx="473" cy="316" r="17.285331667481604" fill="#d14e5b" opacity="0.8"></circle><circle cx="462" cy="237" r="8.775233912452844" fill="#4d824b" opacity="0.8"></circle><circle cx="487" cy="271" r="7.77644248839351" fill="#d14e5b" opacity="0.8"></circle><circle cx="476" cy="279" r="7.038829532673141" fill="#69c487" opacity="0.8"></circle><circle cx="461" cy="323" r="6.755448620852928" fill="#d14e5b" opacity="0.8"></circle><circle cx="320" cy="369" r="6.541209979334043" fill="#5675c1" opacity="0.8"></circle><circle cx="502" cy="279" r="6.241837814826212" fill="#d14e5b" opacity="0.8"></circle><circle cx="340" cy="333" r="6.018023684971015" fill="#ffd336" opacity="0.8"></circle><circle cx="494" cy="256" r="5.697194724056373" fill="#d14e5b" opacity="0.8"></circle><circle cx="434" cy="301" r="5.513839139276049" fill="#4d824b" opacity="0.8"></circle><circle cx="479" cy="299" r="5.090471079000188" fill="#d14e5b" opacity="0.8"></circle><circle cx="522" cy="263" r="4.917755332470269" fill="#d14e5b" opacity="0.8"></circle><circle cx="369" cy="337" r="4.863236301411433" fill="#5675c1" opacity="0.8"></circle><circle cx="551" cy="242" r="4.791731724355999" fill="#5675c1" opacity="0.8"></circle><circle cx="488" cy="232" r="4.704474796708154" fill="#ffd336" opacity="0.8"></circle><circle cx="380" cy="356" r="4.569556477489028" fill="#d14e5b" opacity="0.8"></circle><circle cx="447" cy="321" r="4.5428947705324845" fill="#d14e5b" opacity="0.8"></circle><circle cx="238" cy="430" r="4.441241955828662" fill="#5675c1" opacity="0.8"></circle><circle cx="468" cy="312" r="4.410431357183026" fill="#d14e5b" opacity="0.8"></circle><circle cx="468" cy="237" r="4.237241089559232" fill="#ffd336" opacity="0.8"></circle><circle cx="495" cy="236" r="4.220642810227097" fill="#ffd336" opacity="0.8"></circle><circle cx="460" cy="261" r="4.162847384013235" fill="#ffd336" opacity="0.8"></circle><circle cx="416" cy="274" r="3.8712207038110624" fill="#5675c1" opacity="0.8"></circle><circle cx="305" cy="365" r="3.816090567686494" fill="#5675c1" opacity="0.8"></circle><circle cx="355" cy="298" r="3.8150772334371585" fill="#d14e5b" opacity="0.8"></circle><circle cx="523" cy="249" r="3.8045842053522425" fill="#d14e5b" opacity="0.8"></circle><circle cx="555" cy="289" r="3.7859674966847514" fill="#69c487" opacity="0.8"></circle><circle cx="468" cy="309" r="3.751438797131823" fill="#ffd336" opacity="0.8"></circle><circle cx="400" cy="283" r="3.678240331625708" fill="#ffd336" opacity="0.8"></circle><circle cx="322" cy="367" r="3.653798324428781" fill="#5675c1" opacity="0.8"></circle><circle cx="387" cy="276" r="3.575236985738413" fill="#69c487" opacity="0.8"></circle><circle cx="492" cy="286" r="3.471868076113697" fill="#ffd336" opacity="0.8"></circle><circle cx="407" cy="382" r="3.4265710352843226" fill="#5675c1" opacity="0.8"></circle><circle cx="215" cy="349" r="3.4189630643558555" fill="#5675c1" opacity="0.8"></circle><circle cx="321" cy="440" r="3.391103934680929" fill="#5675c1" opacity="0.8"></circle><circle cx="438" cy="299" r="3.3585720468324016" fill="#4d824b" opacity="0.8"></circle><circle cx="380" cy="346" r="3.351055567646733" fill="#d14e5b" opacity="0.8"></circle><circle cx="326" cy="349" r="3.341484862812738" fill="#d14e5b" opacity="0.8"></circle><circle cx="422" cy="377" r="3.2864169914037213" fill="#5675c1" opacity="0.8"></circle><circle cx="422" cy="323" r="3.237017482944548" fill="#d14e5b" opacity="0.8"></circle><circle cx="477" cy="290" r="3.1939435488800743" fill="#69c487" opacity="0.8"></circle><circle cx="450" cy="291" r="3.1842951557044663" fill="#69c487" opacity="0.8"></circle><circle cx="615" cy="294" r="3.1737946928648224" fill="#d14e5b" opacity="0.8"></circle><circle cx="494" cy="299" r="3.1566631774008465" fill="#d14e5b" opacity="0.8"></circle><circle cx="489" cy="275" r="3.122651063177692" fill="#d14e5b" opacity="0.8"></circle><circle cx="340" cy="363" r="3.0373397674686315" fill="#5675c1" opacity="0.8"></circle><circle cx="337" cy="438" r="2.9949489090300525" fill="#5675c1" opacity="0.8"></circle><circle cx="410" cy="344" r="2.9238833222156657" fill="#a652ba" opacity="0.8"></circle><circle cx="282" cy="298" r="2.8976440973368187" fill="#5675c1" opacity="0.8"></circle><circle cx="280" cy="403" r="2.853866568180754" fill="#d14e5b" opacity="0.8"></circle><circle cx="495" cy="296" r="2.8508151810689237" fill="#d14e5b" opacity="0.8"></circle><circle cx="407" cy="290" r="2.8485755038836906" fill="#ffd336" opacity="0.8"></circle><circle cx="393" cy="344" r="2.8370975431699144" fill="#5675c1" opacity="0.8"></circle><circle cx="311" cy="364" r="2.8312194581991856" fill="#5675c1" opacity="0.8"></circle><circle cx="294" cy="418" r="2.8230561493588127" fill="#5675c1" opacity="0.8"></circle><circle cx="340" cy="391" r="2.709799322220486" fill="#5675c1" opacity="0.8"></circle><circle cx="514" cy="255" r="2.6910393269127186" fill="#69c487" opacity="0.8"></circle><circle cx="189" cy="476" r="2.676586166972069" fill="#5675c1" opacity="0.8"></circle><circle cx="375" cy="371" r="2.6578298218364247" fill="#5675c1" opacity="0.8"></circle><circle cx="494" cy="222" r="2.655792766019626" fill="#ffd336" opacity="0.8"></circle><circle cx="254" cy="395" r="2.646585939686623" fill="#d14e5b" opacity="0.8"></circle><circle cx="388" cy="369" r="2.640270185356288" fill="#5675c1" opacity="0.8"></circle><circle cx="500" cy="345" r="2.6013737375825214" fill="#4d824b" opacity="0.8"></circle><circle cx="517" cy="302" r="2.5805209554096353" fill="#69c487" opacity="0.8"></circle><circle cx="376" cy="307" r="2.562246800237097" fill="#d14e5b" opacity="0.8"></circle><circle cx="401" cy="323" r="2.546750570003827" fill="#5675c1" opacity="0.8"></circle><circle cx="292" cy="399" r="2.5072872782665563" fill="#5675c1" opacity="0.8"></circle><circle cx="376" cy="460" r="2.50144303165023" fill="#5675c1" opacity="0.8"></circle><circle cx="324" cy="351" r="2.4204521658181273" fill="#5675c1" opacity="0.8"></circle><circle cx="470" cy="289" r="2.4126456033501746" fill="#ffd336" opacity="0.8"></circle><circle cx="414" cy="321" r="2.402956317827687" fill="#4d824b" opacity="0.8"></circle><circle cx="504" cy="218" r="2.382180626476095" fill="#ffd336" opacity="0.8"></circle><circle cx="380" cy="361" r="2.3820872476172217" fill="#5675c1" opacity="0.8"></circle><circle cx="183" cy="390" r="2.379165788942787" fill="#5675c1" opacity="0.8"></circle><circle cx="479" cy="283" r="2.3767701468235787" fill="#ffd336" opacity="0.8"></circle><circle cx="459" cy="254" r="2.3711682628974766" fill="#ffd336" opacity="0.8"></circle><circle cx="309" cy="348" r="2.362350331061153" fill="#69c487" opacity="0.8"></circle><circle cx="437" cy="291" r="2.3573818128989705" fill="#4d824b" opacity="0.8"></circle><circle cx="444" cy="259" r="2.338879188259617" fill="#ffd336" opacity="0.8"></circle><circle cx="470" cy="258" r="2.333978261287638" fill="#ffd336" opacity="0.8"></circle><circle cx="326" cy="376" r="2.3226034784072107" fill="#5675c1" opacity="0.8"></circle><circle cx="440" cy="262" r="2.319571573102934" fill="#ffd336" opacity="0.8"></circle><circle cx="369" cy="335" r="2.3189529297045137" fill="#d14e5b" opacity="0.8"></circle><circle cx="488" cy="298" r="2.3171950078058527" fill="#ffd336" opacity="0.8"></circle><circle cx="320" cy="384" r="2.287637132370053" fill="#5675c1" opacity="0.8"></circle><circle cx="447" cy="241" r="2.263700966247318" fill="#ffd336" opacity="0.8"></circle><circle cx="565" cy="93" r="2.2517217363615654" fill="#d14e5b" opacity="0.8"></circle><circle cx="444" cy="362" r="2.244688170771853" fill="#4d824b" opacity="0.8"></circle><circle cx="494" cy="284" r="2.2316026384109717" fill="#d14e5b" opacity="0.8"></circle><circle cx="483" cy="248" r="2.228637868469115" fill="#ffd336" opacity="0.8"></circle><circle cx="461" cy="275" r="2.207086261623737" fill="#ffd336" opacity="0.8"></circle><circle cx="448" cy="279" r="2.2059210193352605" fill="#a652ba" opacity="0.8"></circle><circle cx="612" cy="350" r="2.203126048262971" fill="#d14e5b" opacity="0.8"></circle><circle cx="435" cy="311" r="2.1983542725952927" fill="#d14e5b" opacity="0.8"></circle><circle cx="447" cy="308" r="2.177943756403997" fill="#69c487" opacity="0.8"></circle><circle cx="521" cy="377" r="2.165917828936246" fill="#d14e5b" opacity="0.8"></circle><circle cx="271" cy="442" r="2.1623394596193544" fill="#5675c1" opacity="0.8"></circle><circle cx="310" cy="396" r="2.1573195668154717" fill="#5675c1" opacity="0.8"></circle><circle cx="456" cy="331" r="2.1514098155303154" fill="#4d824b" opacity="0.8"></circle><circle cx="407" cy="340" r="2.1373033991992823" fill="#4d824b" opacity="0.8"></circle><circle cx="163" cy="451" r="2.1213281690415178" fill="#5675c1" opacity="0.8"></circle><circle cx="455" cy="247" r="2.1138224517571382" fill="#ffd336" opacity="0.8"></circle><circle cx="362" cy="339" r="2.107895398534813" fill="#d14e5b" opacity="0.8"></circle><circle cx="457" cy="257" r="2.107099090091089" fill="#ffd336" opacity="0.8"></circle><circle cx="440" cy="298" r="2.1032440868460616" fill="#ffd336" opacity="0.8"></circle><circle cx="484" cy="284" r="2.079590945048981" fill="#ffd336" opacity="0.8"></circle><circle cx="566" cy="297" r="2.0722180524164" fill="#4d824b" opacity="0.8"></circle><circle cx="114" cy="375" r="2.061386840700768" fill="#5675c1" opacity="0.8"></circle><circle cx="536" cy="228" r="2.0593929168083616" fill="#ffd336" opacity="0.8"></circle><circle cx="597" cy="233" r="2.0524453527113926" fill="#a652ba" opacity="0.8"></circle><circle cx="496" cy="257" r="2.045126496937362" fill="#ffd336" opacity="0.8"></circle><circle cx="223" cy="425" r="2.0420290997041697" fill="#5675c1" opacity="0.8"></circle><circle cx="532" cy="327" r="2.042021209404885" fill="#d14e5b" opacity="0.8"></circle><circle cx="468" cy="350" r="2.039428247604606" fill="#d14e5b" opacity="0.8"></circle><circle cx="449" cy="292" r="2.008355748167152" fill="#ffd336" opacity="0.8"></circle><circle cx="425" cy="326" r="2.0050276033235894" fill="#4d824b" opacity="0.8"></circle><circle cx="393" cy="311" r="1.9944427535409202" fill="#ffd336" opacity="0.8"></circle><circle cx="473" cy="291" r="1.9890571492056084" fill="#69c487" opacity="0.8"></circle><circle cx="446" cy="292" r="1.9817720825359335" fill="#ffd336" opacity="0.8"></circle><circle cx="437" cy="274" r="1.979429846200885" fill="#ffd336" opacity="0.8"></circle><circle cx="396" cy="312" r="1.972355242090465" fill="#d14e5b" opacity="0.8"></circle><circle cx="527" cy="148" r="1.963005895725069" fill="#d14e5b" opacity="0.8"></circle><circle cx="498" cy="455" r="1.9629065715106442" fill="#d14e5b" opacity="0.8"></circle><circle cx="382" cy="366" r="1.9587998809898615" fill="#d14e5b" opacity="0.8"></circle><circle cx="421" cy="397" r="1.9518827101791882" fill="#4d824b" opacity="0.8"></circle><circle cx="228" cy="453" r="1.9299827888565042" fill="#5675c1" opacity="0.8"></circle><circle cx="445" cy="303" r="1.9192492038128444" fill="#ffd336" opacity="0.8"></circle><circle cx="414" cy="508" r="1.9100685505355461" fill="#5675c1" opacity="0.8"></circle><circle cx="426" cy="294" r="1.909740998375572" fill="#ffd336" opacity="0.8"></circle><circle cx="498" cy="251" r="1.9082562040414035" fill="#ffd336" opacity="0.8"></circle><circle cx="715" cy="297" r="1.9041256395446373" fill="#d14e5b" opacity="0.8"></circle><circle cx="282" cy="433" r="1.89787684162202" fill="#5675c1" opacity="0.8"></circle><circle cx="322" cy="368" r="1.8806882127851436" fill="#5675c1" opacity="0.8"></circle><circle cx="423" cy="385" r="1.8659079635810407" fill="#4d824b" opacity="0.8"></circle><circle cx="436" cy="299" r="1.8648820375988" fill="#ffd336" opacity="0.8"></circle><circle cx="487" cy="297" r="1.8637599569016605" fill="#5675c1" opacity="0.8"></circle><circle cx="476" cy="512" r="1.852572974940511" fill="#ffd336" opacity="0.8"></circle><circle cx="377" cy="334" r="1.8363217829688663" fill="#a652ba" opacity="0.8"></circle><circle cx="338" cy="312" r="1.8286964144164983" fill="#d14e5b" opacity="0.8"></circle><circle cx="392" cy="269" r="1.828503011363976" fill="#69c487" opacity="0.8"></circle><circle cx="501" cy="304" r="1.820491870441245" fill="#ffd336" opacity="0.8"></circle><circle cx="481" cy="283" r="1.8144785897140878" fill="#69c487" opacity="0.8"></circle><circle cx="524" cy="258" r="1.8139122390077562" fill="#ffd336" opacity="0.8"></circle><circle cx="531" cy="277" r="1.806903777162026" fill="#ffd336" opacity="0.8"></circle><circle cx="464" cy="423" r="1.8068534177736337" fill="#d14e5b" opacity="0.8"></circle><circle cx="471" cy="300" r="1.8011314705140304" fill="#4d824b" opacity="0.8"></circle><circle cx="486" cy="334" r="1.8009918108730854" fill="#d14e5b" opacity="0.8"></circle><circle cx="402" cy="325" r="1.797550961443026" fill="#4d824b" opacity="0.8"></circle><circle cx="504" cy="295" r="1.7967423959132767" fill="#a652ba" opacity="0.8"></circle><circle cx="302" cy="369" r="1.7856633775916586" fill="#4d824b" opacity="0.8"></circle><circle cx="431" cy="367" r="1.7841241161527712" fill="#4d824b" opacity="0.8"></circle><circle cx="430" cy="359" r="1.7797201281413932" fill="#000" opacity="0.8"></circle><circle cx="426" cy="276" r="1.7797201281413932" fill="#000" opacity="0.8"></circle><circle cx="462" cy="279" r="1.7797201281413932" fill="#000" opacity="0.8"></circle><circle cx="456" cy="308" r="1.7797201281413932" fill="#000" opacity="0.8"></circle><circle cx="514" cy="273" r="1.7797201281413932" fill="#000" opacity="0.8"></circle><circle cx="525" cy="268" r="1.7797201281413932" fill="#000" opacity="0.8"></circle><circle cx="473" cy="256" r="1.7797201281413932" fill="#000" opacity="0.8"></circle><circle cx="431" cy="293" r="1.7797201281413932" fill="#000" opacity="0.8"></circle><circle cx="395" cy="319" r="1.7797201281413932" fill="#000" opacity="0.8"></circle><circle cx="405" cy="316" r="1.7797201281413932" fill="#000" opacity="0.8"></circle><circle cx="471" cy="261" r="1.7797201281413932" fill="#000" opacity="0.8"></circle><circle cx="334" cy="381" r="1.7797201281413932" fill="#000" opacity="0.8"></circle><circle cx="462" cy="258" r="1.7797201281413932" fill="#000" opacity="0.8"></circle><circle cx="475" cy="294" r="1.7797201281413932" fill="#000" opacity="0.8"></circle><circle cx="463" cy="305" r="1.7797201281413932" fill="#000" opacity="0.8"></circle><circle cx="421" cy="347" r="1.7797201281413932" fill="#000" opacity="0.8"></circle><circle cx="372" cy="349" r="1.7797201281413932" fill="#000" opacity="0.8"></circle><circle cx="393" cy="349" r="1.7797201281413932" fill="#000" opacity="0.8"></circle><circle cx="489" cy="284" r="1.7797201281413932" fill="#000" opacity="0.8"></circle><circle cx="458" cy="288" r="1.7797201281413932" fill="#000" opacity="0.8"></circle><circle cx="457" cy="288" r="1.7797201281413932" fill="#000" opacity="0.8"></circle><circle cx="459" cy="288" r="1.7797201281413932" fill="#000" opacity="0.8"></circle><circle cx="370" cy="350" r="1.7797201281413932" fill="#000" opacity="0.8"></circle><circle cx="463" cy="305" r="1.7797201281413932" fill="#000" opacity="0.8"></circle><circle cx="332" cy="375" r="1.7797201281413932" fill="#000" opacity="0.8"></circle><circle cx="455" cy="311" r="1.7797201281413932" fill="#000" opacity="0.8"></circle><circle cx="439" cy="338" r="1.7797201281413932" fill="#000" opacity="0.8"></circle><circle cx="428" cy="339" r="1.7797201281413932" fill="#000" opacity="0.8"></circle><circle cx="428" cy="339" r="1.7797201281413932" fill="#000" opacity="0.8"></circle><circle cx="469" cy="299" r="1.7797201281413932" fill="#000" opacity="0.8"></circle><circle cx="458" cy="246" r="1.7797201281413932" fill="#000" opacity="0.8"></circle><circle cx="459" cy="263" r="1.7797201281413932" fill="#000" opacity="0.8"></circle><circle cx="446" cy="370" r="1.7797201281413932" fill="#000" opacity="0.8"></circle><circle cx="456" cy="260" r="1.7797201281413932" fill="#000" opacity="0.8"></circle><circle cx="324" cy="386" r="1.7797201281413932" fill="#000" opacity="0.8"></circle><circle cx="441" cy="347" r="1.7797201281413932" fill="#000" opacity="0.8"></circle><circle cx="470" cy="313" r="1.7797201281413932" fill="#000" opacity="0.8"></circle><circle cx="470" cy="313" r="1.7797201281413932" fill="#000" opacity="0.8"></circle><circle cx="341" cy="377" r="1.7797201281413932" fill="#000" opacity="0.8"></circle><circle cx="341" cy="377" r="1.7797201281413932" fill="#000" opacity="0.8"></circle><circle cx="341" cy="377" r="1.7797201281413932" fill="#000" opacity="0.8"></circle><circle cx="477" cy="289" r="1.7797201281413932" fill="#000" opacity="0.8"></circle><circle cx="463" cy="293" r="1.7797201281413932" fill="#000" opacity="0.8"></circle><circle cx="349" cy="411" r="1.7797201281413932" fill="#d14e5b" opacity="0.8"></circle><circle cx="344" cy="374" r="1.7797201281413932" fill="#000" opacity="0.8"></circle><text x="542" y="240.1587588384723" font-size="14.3" font-family="Arial Narrow, Arial, sans-serif" fill="#666">China</text><text x="473" y="297.7146683325184" font-size="14.095511688697878" font-family="Arial Narrow, Arial, sans-serif" fill="#666">India</text><text x="462" y="227.22476608754715" font-size="11.773058315817858" font-family="Arial Narrow, Arial, sans-serif" fill="#666">United States</text><text x="487" y="262.2235575116065" font-size="11.599939046823227" font-family="Arial Narrow, Arial, sans-serif" fill="#666">Indonesia</text><text x="461" y="315.2445513791471" font-size="11.444566642443037" font-family="Arial Narrow, Arial, sans-serif" fill="#666">Pakistan</text><text x="320" y="361.45879002066596" font-size="11.414735564837112" font-family="Arial Narrow, Arial, sans-serif" fill="#666">Nigeria</text><text x="340" y="325.981976315029" font-size="11.34592611000423" font-family="Arial Narrow, Arial, sans-serif" fill="#666">Russia</text><text x="494" y="249.30280527594363" font-size="11.306566338157179" font-family="Arial Narrow, Arial, sans-serif" fill="#666">Japan</text><text x="434" y="294.48616086072394" font-size="11.285040085918645" font-family="Arial Narrow, Arial, sans-serif" fill="#666">Mexico</text><text x="380" y="350.430443522511" font-size="11.185330378846663" font-family="Arial Narrow, Arial, sans-serif" fill="#666">Iran</text><text x="238" y="424.5587580441713" font-size="11.173222510163404" font-family="Arial Narrow, Arial, sans-serif" fill="#666">Democratic Republic of Congo</text><text x="460" y="255.83715261598675" font-size="11.14813865454978" font-family="Arial Narrow, Arial, sans-serif" fill="#666">Italy</text><text x="416" y="269.12877929618895" font-size="11.123603354132735" font-family="Arial Narrow, Arial, sans-serif" fill="#666">South Africa</text><text x="355" y="293.18492276656286" font-size="11.119084325567012" font-family="Arial Narrow, Arial, sans-serif" fill="#666">Myanmar</text><text x="555" y="284.21403250331525" font-size="11.116767250071915" font-family="Arial Narrow, Arial, sans-serif" fill="#666">Colombia</text><text x="492" y="281.5281319238863" font-size="11.09289447653722" font-family="Arial Narrow, Arial, sans-serif" fill="#666">Poland</text><text x="407" y="377.5734289647157" font-size="11.089622205377877" font-family="Arial Narrow, Arial, sans-serif" fill="#666">Algeria</text><text x="215" y="344.58103693564414" font-size="11.089076818354304" font-family="Arial Narrow, Arial, sans-serif" fill="#666">Uganda</text><text x="422" y="318.76298251705543" font-size="11.076394981114293" font-family="Arial Narrow, Arial, sans-serif" fill="#666">Nepal</text><text x="615" y="289.8262053071352" font-size="11.072150590663096" font-family="Arial Narrow, Arial, sans-serif" fill="#666">Malaysia</text><text x="410" y="340.07611667778434" font-size="11.056192566353351" font-family="Arial Narrow, Arial, sans-serif" fill="#666">Australia</text><text x="282" y="294.1023559026632" font-size="11.054592947305684" font-family="Arial Narrow, Arial, sans-serif" fill="#666">Madagascar</text><text x="280" y="399.14613343181924" font-size="11.05195624078394" font-family="Arial Narrow, Arial, sans-serif" fill="#666">Syria</text><text x="340" y="387.2902006777795" font-size="11.043562512354882" font-family="Arial Narrow, Arial, sans-serif" fill="#666">Burkina Faso</text><text x="189" y="472.3234138330279" font-size="11.04168908790023" font-family="Arial Narrow, Arial, sans-serif" fill="#666">Niger</text><text x="375" y="367.3421701781636" font-size="11.040641323318964" font-family="Arial Narrow, Arial, sans-serif" fill="#666">Mali</text><text x="500" y="341.39862626241745" font-size="11.037532046770684" font-family="Arial Narrow, Arial, sans-serif" fill="#666">Guatemala</text><text x="517" y="298.4194790445904" font-size="11.036400477337184" font-family="Arial Narrow, Arial, sans-serif" fill="#666">Ecuador</text><text x="376" y="456.49855696834976" font-size="11.032192092383193" font-family="Arial Narrow, Arial, sans-serif" fill="#666">Zimbabwe</text><text x="324" y="347.5795478341819" font-size="11.028017663931756" font-family="Arial Narrow, Arial, sans-serif" fill="#666">Rwanda</text><text x="504" y="214.6178193735239" font-size="11.02609287137547" font-family="Arial Narrow, Arial, sans-serif" fill="#666">Belgium</text><text x="183" y="386.62083421105723" font-size="11.025942549456428" font-family="Arial Narrow, Arial, sans-serif" fill="#666">Guinea</text><text x="326" y="372.6773965215928" font-size="11.023157601570635" font-family="Arial Narrow, Arial, sans-serif" fill="#666">Benin</text><text x="565" y="104.91976220865345" font-size="11.019762208653443" font-family="Arial Narrow, Arial, sans-serif" fill="#666">United Arab Emirates</text><text x="444" y="358.75531182922816" font-size="11.019431024113128" font-family="Arial Narrow, Arial, sans-serif" fill="#666">Honduras</text><text x="612" y="346.79687395173704" font-size="11.017495168442368" font-family="Arial Narrow, Arial, sans-serif" fill="#666">Hong Kong</text><text x="521" y="373.83408217106376" font-size="11.015792798625125" font-family="Arial Narrow, Arial, sans-serif" fill="#666">Jordan</text><text x="271" y="438.8376605403806" font-size="11.015630607588976" font-family="Arial Narrow, Arial, sans-serif" fill="#666">Libya</text><text x="310" y="392.8426804331845" font-size="11.015403530913035" font-family="Arial Narrow, Arial, sans-serif" fill="#666">Togo</text><text x="456" y="327.8485901844697" font-size="11.01513687756557" font-family="Arial Narrow, Arial, sans-serif" fill="#666">El Salvador</text><text x="163" y="447.87867183095847" font-size="11.013790904148156" font-family="Arial Narrow, Arial, sans-serif" fill="#666">Eritrea</text><text x="114" y="371.9386131592992" font-size="11.011165396693134" font-family="Arial Narrow, Arial, sans-serif" fill="#666">Central African Republic</text><text x="597" y="229.9475546472886" font-size="11.010780197837716" font-family="Arial Narrow, Arial, sans-serif" fill="#666">New Zealand</text><text x="532" y="323.9579787905951" font-size="11.010333240244297" font-family="Arial Narrow, Arial, sans-serif" fill="#666">Lebanon</text><text x="527" y="145.03699410427492" font-size="11.007019294864405" font-family="Arial Narrow, Arial, sans-serif" fill="#666">Kuwait</text><text x="498" y="452.03709342848936" font-size="11.007015211441418" font-family="Arial Narrow, Arial, sans-serif" fill="#666">Oman</text><text x="421" y="394.0481172898208" font-size="11.006563281879938" font-family="Arial Narrow, Arial, sans-serif" fill="#666">Jamaica</text><text x="228" y="450.0700172111435" font-size="11.005673032548453" font-family="Arial Narrow, Arial, sans-serif" fill="#666">Namibia</text><text x="414" y="505.0899314494645" font-size="11.004872222804485" font-family="Arial Narrow, Arial, sans-serif" fill="#666">Botswana</text><text x="687.3783665260653" y="294.09587436045535" font-size="11.004634850173204" font-family="Arial Narrow, Arial, sans-serif" fill="#666">Qatar</text><text x="476" y="509.14742702505947" font-size="11.002606765466053" font-family="Arial Narrow, Arial, sans-serif" fill="#666">Cyprus</text><text x="377" y="331.16367821703113" font-size="11.00197898166714" font-family="Arial Narrow, Arial, sans-serif" fill="#666">Fiji</text><text x="338" y="309.1713035855835" font-size="11.001686320168401" font-family="Arial Narrow, Arial, sans-serif" fill="#666">Bhutan</text><text x="464" y="420.19314658222635" font-size="11.00085472695032" font-family="Arial Narrow, Arial, sans-serif" fill="#666">Brunei</text><text x="349" y="408.2202798718586" font-size="10.999835641010982" font-family="Arial Narrow, Arial, sans-serif" fill="#666">Yemen</text></g><g style="cursor: pointer;" class="ScatterColorLegend clickable"><g class="legendMark"><rect x="735" y="91.4" width="43.256" height="17.6" fill="#fff" opacity="0"></rect>,<rect x="735" y="96.9" width="6" height="6" fill="#5675c1"></rect>,<text font-size="12.60" x="746.0" y="104.0"><tspan x="746" y="103.98">Africa</tspan></text></g><g class="legendMark"><rect x="735" y="109" width="35.57" height="17.6" fill="#fff" opacity="0"></rect>,<rect x="735" y="114.5" width="6" height="6" fill="#d14e5b"></rect>,<text font-size="12.60" x="746.0" y="121.6"><tspan x="746" y="121.58">Asia</tspan></text></g><g class="legendMark"><rect x="735" y="126.60000000000002" width="51.824" height="17.6" fill="#fff" opacity="0"></rect>,<rect x="735" y="132.10000000000002" width="6" height="6" fill="#ffd336"></rect>,<text font-size="12.60" x="746.0" y="139.2"><tspan x="746" y="139.18">Europe</tspan></text></g><g class="legendMark"><rect x="735" y="144.20000000000002" width="91.64" height="17.6" fill="#fff" opacity="0"></rect>,<rect x="735" y="149.70000000000002" width="6" height="6" fill="#4d824b"></rect>,<text font-size="12.60" x="746.0" y="156.8"><tspan x="746" y="156.78">North America</tspan></text></g><g class="legendMark"><rect x="735" y="161.8" width="58.124" height="17.6" fill="#fff" opacity="0"></rect>,<rect x="735" y="167.3" width="6" height="6" fill="#a652ba"></rect>,<text font-size="12.60" x="746.0" y="174.4"><tspan x="746" y="174.38">Oceania</tspan></text></g><g class="legendMark"><rect x="735" y="179.4" width="93.908" height="17.6" fill="#fff" opacity="0"></rect>,<rect x="735" y="184.9" width="6" height="6" fill="#69c487"></rect>,<text font-size="12.60" x="746.0" y="192.0"><tspan x="746" y="191.98">South America</tspan></text></g></g></g><g style="fill: #777;" class="SourcesFooter"><g style="fill: #777;" class="clickable"><text font-size="12.60" x="15.0" y="581.6"><tspan x="15" y="581.58">Source: World Bank – WDI</tspan></text></g><text font-size="12.60" x="454.6" y="581.6"><tspan x="454.606" y="581.58"><a target='_blank' style='fill: #777;' href='https://ourworldindata.org/yields-and-land-use-in-agriculture/'>OurWorldInData.org/yields-and-land-use-in-agriculture/</a> • <a style="fill: #777;" href="http://creativecommons.org/licenses/by-sa/4.0/deed.en_US" target="_blank">CC BY-SA</a></tspan></text></g></g></svg>