<svg xmlns="http://www.w3.org/2000/svg" version="1.1" style="font-family: 'Helvetica Neue', Helvetica, Arial, sans-serif; font-size: 24px; background-color: white;" width="1200" height="630"><g class="ChartTab"><g class="DiscreteBarChart"><rect x="15" y="35" width="1160" height="565" opacity="0" fill="rgba(255,255,255,0)"></rect><g class="HorizontalAxis"><text x="89.1" y="600" fill="#666" text-anchor="middle" font-size="21.6">0%</text><text x="243.4" y="600" fill="#666" text-anchor="middle" font-size="21.6">5%</text><text x="397.8" y="600" fill="#666" text-anchor="middle" font-size="21.6">10%</text><text x="552.2" y="600" fill="#666" text-anchor="middle" font-size="21.6">15%</text><text x="706.6" y="600" fill="#666" text-anchor="middle" font-size="21.6">20%</text><text x="860.9" y="600" fill="#666" text-anchor="middle" font-size="21.6">25%</text><text x="1015.3" y="600" fill="#666" text-anchor="middle" font-size="21.6">30%</text><text x="1138.8" y="600" fill="#666" text-anchor="middle" font-size="21.6">34%</text></g><g class="AxisGridLines"><line x1="89.1" y1="573.40" x2="89.1" y2="35.00" stroke="#ccc"></line><line x1="243.4" y1="573.40" x2="243.4" y2="35.00" stroke="#ddd" stroke-dasharray="3,2"></line><line x1="397.8" y1="573.40" x2="397.8" y2="35.00" stroke="#ddd" stroke-dasharray="3,2"></line><line x1="552.2" y1="573.40" x2="552.2" y2="35.00" stroke="#ddd" stroke-dasharray="3,2"></line><line x1="706.6" y1="573.40" x2="706.6" y2="35.00" stroke="#ddd" stroke-dasharray="3,2"></line><line x1="860.9" y1="573.40" x2="860.9" y2="35.00" stroke="#ddd" stroke-dasharray="3,2"></line><line x1="1015.3" y1="573.40" x2="1015.3" y2="35.00" stroke="#ddd" stroke-dasharray="3,2"></line></g><g class="bar"><text x="84.05199999999999" y="88.84" fill="#666" dominant-baseline="middle" text-anchor="end" font-size="18">India</text><rect x="89.1" y="35" width="1049.7" height="107.68" fill="#F2585B" opacity="0.85"></rect><text x="1143.8" y="88.84" fill="#666" dominant-baseline="middle" text-anchor="start" font-size="18">34%</text></g><g class="bar"><text x="84.05199999999999" y="223.44" fill="#666" dominant-baseline="middle" text-anchor="end" font-size="18">Ethiopia</text><rect x="89.1" y="169.6" width="370.5" height="107.68" fill="#F2585B" opacity="0.85"></rect><text x="464.6" y="223.44" fill="#666" dominant-baseline="middle" text-anchor="start" font-size="18">12%</text></g><g class="bar"><text x="84.05199999999999" y="358.03999999999996" fill="#666" dominant-baseline="middle" text-anchor="end" font-size="18">Peru</text><rect x="89.1" y="304.19999999999993" width="216.1" height="107.68" fill="#F2585B" opacity="0.85"></rect><text x="310.2" y="358.03999999999996" fill="#666" dominant-baseline="middle" text-anchor="start" font-size="18">7%</text></g><g class="bar"><text x="84.05199999999999" y="492.64" fill="#666" dominant-baseline="middle" text-anchor="end" font-size="18">Vietnam</text><rect x="89.1" y="438.79999999999995" width="30.80000000000001" height="107.68" fill="#F2585B" opacity="0.85"></rect><text x="124.9" y="492.64" fill="#666" dominant-baseline="middle" text-anchor="start" font-size="18">1%</text></g></g></g></svg>