<svg xmlns="http://www.w3.org/2000/svg" version="1.1" style="font-family: 'Helvetica Neue', Helvetica, Arial, sans-serif; font-size: 18px; background-color: white; text-rendering: optimizeLegibility; -webkit-font-smoothing: antialiased;" width="850" height="600"><g class="ChartTab"><g class="HeaderView"><g opacity="0.8" transform="translate(770, 15) scale(0.31)"><a xmlns:xlink="http://www.w3.org/1999/xlink" xlink:href="https://ourworldindata.org" target="_blank"><g><rect x="0" y="0" fill="#1B2543" width="211.2" height="130.1"/><rect x="0" y="112.2" fill="#E63912" width="211.2" height="17.9"/><g><rect x="1.2" y="12.3" fill="none" width="210.2" height="99.2"/><path fill="#FFFFFF" d="M37.8,32.2c0,12.7-7.7,19.4-17.1,19.4c-9.7,0-16.6-7.5-16.6-18.7c0-11.7,7.3-19.3,17.1-19.3 C31.3,13.7,37.8,21.3,37.8,32.2z M9.2,32.8c0,7.9,4.3,14.9,11.8,14.9c7.5,0,11.8-6.9,11.8-15.3c0-7.3-3.8-14.9-11.8-14.9 C13.1,17.5,9.2,24.8,9.2,32.8z"/><path fill="#FFFFFF" d="M62.7,43.8c0,2.7,0.1,5.1,0.2,7.2h-4.3l-0.3-4.3h-0.1c-1.3,2.1-4,4.9-8.8,4.9c-4.2,0-9.1-2.3-9.1-11.6 V24.6h4.8v14.6c0,5,1.5,8.4,5.9,8.4c3.2,0,5.5-2.2,6.3-4.4c0.3-0.7,0.4-1.6,0.4-2.5V24.6h4.8V43.8z"/><path fill="#FFFFFF" d="M67.3,32.8c0-3.1-0.1-5.8-0.2-8.2h4.2l0.2,5.2h0.2c1.2-3.5,4.1-5.8,7.3-5.8c0.5,0,0.9,0.1,1.4,0.2v4.5 c-0.5-0.1-1-0.2-1.6-0.2c-3.4,0-5.8,2.6-6.5,6.2c-0.1,0.7-0.2,1.4-0.2,2.2V51h-4.8V32.8z"/><path fill="#FFFFFF" d="M95.4,51l-9.4-36.8h5l4.4,18.6c1.1,4.6,2.1,9.2,2.7,12.7h0.1c0.6-3.7,1.8-8,3-12.8l4.9-18.5h5l4.5,18.7 c1,4.4,2,8.7,2.6,12.6h0.1c0.8-4,1.8-8.1,3-12.7l4.9-18.5h4.9L120.6,51h-5L111,31.9c-1.1-4.7-1.9-8.3-2.4-12h-0.1 c-0.7,3.7-1.5,7.3-2.8,12L100.4,51H95.4z"/><path fill="#FFFFFF" d="M154.9,37.6c0,9.8-6.8,14-13.2,14c-7.2,0-12.7-5.2-12.7-13.6c0-8.8,5.8-14,13.1-14 C149.8,24,154.9,29.5,154.9,37.6z M133.9,37.9c0,5.8,3.3,10.1,8,10.1c4.6,0,8-4.3,8-10.3c0-4.5-2.2-10.1-7.9-10.1 C136.3,27.6,133.9,32.8,133.9,37.9z"/><path fill="#FFFFFF" d="M158.2,32.8c0-3.1-0.1-5.8-0.2-8.2h4.2l0.2,5.2h0.2c1.2-3.5,4.1-5.8,7.3-5.8c0.5,0,0.9,0.1,1.4,0.2v4.5 c-0.5-0.1-1-0.2-1.6-0.2c-3.4,0-5.8,2.6-6.5,6.2c-0.1,0.7-0.2,1.4-0.2,2.2V51h-4.8V32.8z"/><path fill="#FFFFFF" d="M173.5,12.3h4.8V51h-4.8V12.3z"/><path fill="#FFFFFF" d="M206.5,12.3v31.9c0,2.3,0.1,5,0.2,6.8h-4.3l-0.2-4.6H202c-1.5,2.9-4.7,5.2-9,5.2 c-6.4,0-11.3-5.4-11.3-13.4c-0.1-8.8,5.4-14.2,11.9-14.2c4,0,6.8,1.9,8,4h0.1V12.3H206.5z M201.7,35.4c0-0.6-0.1-1.4-0.2-2 c-0.7-3.1-3.3-5.6-6.9-5.6c-5,0-7.9,4.4-7.9,10.2c0,5.3,2.6,9.8,7.8,9.8c3.2,0,6.2-2.1,7.1-5.7c0.2-0.7,0.2-1.3,0.2-2.1V35.4z"/><path fill="#FFFFFF" d="M42.8,64c0.1,1.6-1.1,2.9-3.1,2.9c-1.7,0-2.9-1.3-2.9-2.9c0-1.7,1.3-3,3-3C41.7,61,42.8,62.3,42.8,64z M37.4,97.8V71.4h4.8v26.4H37.4z"/><path fill="#FFFFFF" d="M47.5,78.6c0-2.7-0.1-5-0.2-7.1h4.3l0.3,4.4h0.1c1.3-2.5,4.4-5,8.8-5c3.7,0,9.4,2.2,9.4,11.2v15.8h-4.8 V82.6c0-4.3-1.6-7.8-6.1-7.8c-3.2,0-5.6,2.2-6.5,4.9c-0.2,0.6-0.3,1.4-0.3,2.2v15.9h-4.8V78.6z"/><path fill="#FFFFFF" d="M84,61.6c2.9-0.4,6.3-0.8,10.1-0.8c6.8,0,11.7,1.6,14.9,4.6c3.3,3,5.2,7.3,5.2,13.2c0,6-1.9,10.9-5.3,14.3 c-3.4,3.4-9.1,5.3-16.3,5.3c-3.4,0-6.2-0.2-8.6-0.4V61.6z M88.8,94.1c1.2,0.2,3,0.3,4.8,0.3c10.2,0,15.7-5.7,15.7-15.6 c0.1-8.7-4.9-14.2-14.9-14.2c-2.5,0-4.3,0.2-5.6,0.5V94.1z"/><path fill="#FFFFFF" d="M132.1,97.8l-0.4-3.3h-0.2c-1.5,2.1-4.3,3.9-8.1,3.9c-5.4,0-8.1-3.8-8.1-7.6c0-6.4,5.7-9.9,15.9-9.8v-0.5 c0-2.2-0.6-6.1-6-6.1c-2.5,0-5,0.8-6.9,2l-1.1-3.2c2.2-1.4,5.4-2.3,8.7-2.3c8.1,0,10.1,5.5,10.1,10.8v9.9c0,2.3,0.1,4.5,0.4,6.3 H132.1z M131.4,84.4c-5.3-0.1-11.2,0.8-11.2,5.9c0,3.1,2.1,4.6,4.5,4.6c3.4,0,5.6-2.2,6.4-4.4c0.2-0.5,0.3-1,0.3-1.5V84.4z"/><path fill="#FFFFFF" d="M146.6,63.9v7.6h6.9v3.7h-6.9v14.2c0,3.3,0.9,5.1,3.6,5.1c1.3,0,2.2-0.2,2.8-0.3l0.2,3.6 c-0.9,0.4-2.4,0.7-4.3,0.7c-2.2,0-4-0.7-5.2-2c-1.4-1.4-1.9-3.8-1.9-6.9V75.1h-4.1v-3.7h4.1v-6.3L146.6,63.9z"/><path fill="#FFFFFF" d="M171.4,97.8l-0.4-3.3h-0.2c-1.5,2.1-4.3,3.9-8.1,3.9c-5.4,0-8.1-3.8-8.1-7.6c0-6.4,5.7-9.9,15.9-9.8v-0.5 c0-2.2-0.6-6.1-6-6.1c-2.5,0-5,0.8-6.9,2l-1.1-3.2c2.2-1.4,5.4-2.3,8.7-2.3c8.1,0,10.1,5.5,10.1,10.8v9.9c0,2.3,0.1,4.5,0.4,6.3 H171.4z M170.7,84.4c-5.3-0.1-11.2,0.8-11.2,5.9c0,3.1,2.1,4.6,4.5,4.6c3.4,0,5.6-2.2,6.4-4.4c0.2-0.5,0.3-1,0.3-1.5V84.4z"/></g></g></a></g><a href="https://ourworldindata.org/grapher/cholera-deaths-in-great-britain" target="_blank"><text font-size="27.00" x="15.0" y="36.6" fill="#555"><tspan x="15" y="36.6">Cholera deaths in Great Britain over the long-term</tspan></text></a><text font-size="14.40" x="15.0" y="55.5" fill="#666"><tspan x="15" y="55.519999999999996">Total deaths from cholera in Great Britain since the first major outbreak in 1832. Data points in the 19th century</tspan><tspan x="15" y="71.36">represent the total death toll of the major pandemic periods; the number of cholera deaths between these major</tspan><tspan x="15" y="87.2">outbreaks is not clearly defined. Cholera deaths from 1911 onwards are derived from the Office of National Statistics</tspan><tspan x="15" y="103.03999999999999">for England and Wales only.</tspan></text></g><g class="LineChart"><defs><clipPath id="boundsClip-1"><rect x="59.896" y="0" width="830" height="863.2"></rect></clipPath></defs><g class="AxisBoxView"><g class="HorizontalAxis"><text x="69.9" y="556.5" fill="#666" text-anchor="middle" font-size="16.2">1832</text><text x="170.2" y="556.5" fill="#666" text-anchor="middle" font-size="16.2">1860</text><text x="241.8" y="556.5" fill="#666" text-anchor="middle" font-size="16.2">1880</text><text x="313.5" y="556.5" fill="#666" text-anchor="middle" font-size="16.2">1900</text><text x="385.1" y="556.5" fill="#666" text-anchor="middle" font-size="16.2">1920</text><text x="456.7" y="556.5" fill="#666" text-anchor="middle" font-size="16.2">1940</text><text x="528.4" y="556.5" fill="#666" text-anchor="middle" font-size="16.2">1960</text><text x="600" y="556.5" fill="#666" text-anchor="middle" font-size="16.2">1980</text><text x="671.6" y="556.5" fill="#666" text-anchor="middle" font-size="16.2">2000</text><text x="728.9" y="556.5" fill="#666" text-anchor="middle" font-size="16.2">2016</text></g><g class="VerticalAxis"><text x="64.90" y="535.3" fill="#666" dominant-baseline="middle" text-anchor="end" font-size="16.2">0</text><text x="64.90" y="469.1" fill="#666" dominant-baseline="middle" text-anchor="end" font-size="16.2">10,000</text><text x="64.90" y="402.9" fill="#666" dominant-baseline="middle" text-anchor="end" font-size="16.2">20,000</text><text x="64.90" y="336.7" fill="#666" dominant-baseline="middle" text-anchor="end" font-size="16.2">30,000</text><text x="64.90" y="270.5" fill="#666" dominant-baseline="middle" text-anchor="end" font-size="16.2">40,000</text><text x="64.90" y="204.3" fill="#666" dominant-baseline="middle" text-anchor="end" font-size="16.2">50,000</text><text x="64.90" y="138.1" fill="#666" dominant-baseline="middle" text-anchor="end" font-size="16.2">60,000</text></g><g class="AxisGridLines"><line x1="69.90" y1="535.3" x2="728.93" y2="535.3" stroke="#ccc"></line><line x1="69.90" y1="469.1" x2="728.93" y2="469.1" stroke="#ddd" stroke-dasharray="3,2"></line><line x1="69.90" y1="402.9" x2="728.93" y2="402.9" stroke="#ddd" stroke-dasharray="3,2"></line><line x1="69.90" y1="336.7" x2="728.93" y2="336.7" stroke="#ddd" stroke-dasharray="3,2"></line><line x1="69.90" y1="270.5" x2="728.93" y2="270.5" stroke="#ddd" stroke-dasharray="3,2"></line><line x1="69.90" y1="204.3" x2="728.93" y2="204.3" stroke="#ddd" stroke-dasharray="3,2"></line><line x1="69.90" y1="138.1" x2="728.93" y2="138.1" stroke="#ddd" stroke-dasharray="3,2"></line></g><g class="AxisGridLines"><line x1="98.5" y1="535.30" x2="98.5" y2="124.90" stroke="#ddd" stroke-dasharray="3,2"></line><line x1="170.2" y1="535.30" x2="170.2" y2="124.90" stroke="#ddd" stroke-dasharray="3,2"></line><line x1="241.8" y1="535.30" x2="241.8" y2="124.90" stroke="#ddd" stroke-dasharray="3,2"></line><line x1="313.5" y1="535.30" x2="313.5" y2="124.90" stroke="#ddd" stroke-dasharray="3,2"></line><line x1="385.1" y1="535.30" x2="385.1" y2="124.90" stroke="#ddd" stroke-dasharray="3,2"></line><line x1="456.7" y1="535.30" x2="456.7" y2="124.90" stroke="#ddd" stroke-dasharray="3,2"></line><line x1="528.4" y1="535.30" x2="528.4" y2="124.90" stroke="#ddd" stroke-dasharray="3,2"></line><line x1="600" y1="535.30" x2="600" y2="124.90" stroke="#ddd" stroke-dasharray="3,2"></line><line x1="671.6" y1="535.30" x2="671.6" y2="124.90" stroke="#ddd" stroke-dasharray="3,2"></line></g></g><g clip-path="url(#boundsClip-1)"><g class="HeightedLegend clickable"><g class="legendMark"><rect x="738.928" y="528.0999999999999" width="96.072" height="14.4" fill="#fff" opacity="0"></rect><rect x="738.928" y="534.05" width="10" height="2.5" fill="#3360a9"></rect><text font-size="14.40" x="753.9" y="539.6" fill="#333"><tspan x="753.928" y="539.6199999999999">Great Britain</tspan></text></g></g><g class="Lines"><rect x="70" y="125" width="659" height="410" fill="rgba(255,255,255,0)" opacity="0"></rect><g class="key-Great-Britain_0"><path stroke="#3360a9" stroke-linecap="round" d="M70 330L117 403L131 125L192 443L285 534L353 535L356 535L360 535L364 535L367 535L371 535L374 535L378 535L382 535L385 535L389 535L392 535L396 535L399 535L403 535L407 535L410 535L414 535L417 535L421 535L425 535L428 535L432 535L435 535L439 535L442 535L446 535L450 535L453 535L457 535L460 535L464 535L468 535L471 535L475 535L478 535L482 535L485 535L489 535L493 535L496 535L500 535L503 535L507 535L510 535L514 535L518 535L521 535L525 535L528 535L532 535L536 535L539 535L543 535L546 535L550 535L553 535L557 535L561 535L564 535L568 535L571 535L575 535L579 535L582 535L586 535L589 535L593 535L596 535L600 535L604 535L607 535L611 535L614 535L618 535L622 535L625 535L629 535L632 535L636 535L639 535L643 535L647 535L650 535L654 535L657 535L661 535L665 535L668 535L672 535L675 535L679 535L682 535L686 535L690 535L693 535L697 535L700 535L704 535L707 535L711 535L715 535L718 535L722 535L725 535L729 535" fill="none" stroke-width="1.5"></path><g fill="#3360a9"><circle cx="70" cy="330" r="2"></circle><circle cx="117" cy="403" r="2"></circle><circle cx="131" cy="125" r="2"></circle><circle cx="192" cy="443" r="2"></circle><circle cx="285" cy="534" r="2"></circle><circle cx="353" cy="535" r="2"></circle><circle cx="356" cy="535" r="2"></circle><circle cx="360" cy="535" r="2"></circle><circle cx="364" cy="535" r="2"></circle><circle cx="367" cy="535" r="2"></circle><circle cx="371" cy="535" r="2"></circle><circle cx="374" cy="535" r="2"></circle><circle cx="378" cy="535" r="2"></circle><circle cx="382" cy="535" r="2"></circle><circle cx="385" cy="535" r="2"></circle><circle cx="389" cy="535" r="2"></circle><circle cx="392" cy="535" r="2"></circle><circle cx="396" cy="535" r="2"></circle><circle cx="399" cy="535" r="2"></circle><circle cx="403" cy="535" r="2"></circle><circle cx="407" cy="535" r="2"></circle><circle cx="410" cy="535" r="2"></circle><circle cx="414" cy="535" r="2"></circle><circle cx="417" cy="535" r="2"></circle><circle cx="421" cy="535" r="2"></circle><circle cx="425" cy="535" r="2"></circle><circle cx="428" cy="535" r="2"></circle><circle cx="432" cy="535" r="2"></circle><circle cx="435" cy="535" r="2"></circle><circle cx="439" cy="535" r="2"></circle><circle cx="442" cy="535" r="2"></circle><circle cx="446" cy="535" r="2"></circle><circle cx="450" cy="535" r="2"></circle><circle cx="453" cy="535" r="2"></circle><circle cx="457" cy="535" r="2"></circle><circle cx="460" cy="535" r="2"></circle><circle cx="464" cy="535" r="2"></circle><circle cx="468" cy="535" r="2"></circle><circle cx="471" cy="535" r="2"></circle><circle cx="475" cy="535" r="2"></circle><circle cx="478" cy="535" r="2"></circle><circle cx="482" cy="535" r="2"></circle><circle cx="485" cy="535" r="2"></circle><circle cx="489" cy="535" r="2"></circle><circle cx="493" cy="535" r="2"></circle><circle cx="496" cy="535" r="2"></circle><circle cx="500" cy="535" r="2"></circle><circle cx="503" cy="535" r="2"></circle><circle cx="507" cy="535" r="2"></circle><circle cx="510" cy="535" r="2"></circle><circle cx="514" cy="535" r="2"></circle><circle cx="518" cy="535" r="2"></circle><circle cx="521" cy="535" r="2"></circle><circle cx="525" cy="535" r="2"></circle><circle cx="528" cy="535" r="2"></circle><circle cx="532" cy="535" r="2"></circle><circle cx="536" cy="535" r="2"></circle><circle cx="539" cy="535" r="2"></circle><circle cx="543" cy="535" r="2"></circle><circle cx="546" cy="535" r="2"></circle><circle cx="550" cy="535" r="2"></circle><circle cx="553" cy="535" r="2"></circle><circle cx="557" cy="535" r="2"></circle><circle cx="561" cy="535" r="2"></circle><circle cx="564" cy="535" r="2"></circle><circle cx="568" cy="535" r="2"></circle><circle cx="571" cy="535" r="2"></circle><circle cx="575" cy="535" r="2"></circle><circle cx="579" cy="535" r="2"></circle><circle cx="582" cy="535" r="2"></circle><circle cx="586" cy="535" r="2"></circle><circle cx="589" cy="535" r="2"></circle><circle cx="593" cy="535" r="2"></circle><circle cx="596" cy="535" r="2"></circle><circle cx="600" cy="535" r="2"></circle><circle cx="604" cy="535" r="2"></circle><circle cx="607" cy="535" r="2"></circle><circle cx="611" cy="535" r="2"></circle><circle cx="614" cy="535" r="2"></circle><circle cx="618" cy="535" r="2"></circle><circle cx="622" cy="535" r="2"></circle><circle cx="625" cy="535" r="2"></circle><circle cx="629" cy="535" r="2"></circle><circle cx="632" cy="535" r="2"></circle><circle cx="636" cy="535" r="2"></circle><circle cx="639" cy="535" r="2"></circle><circle cx="643" cy="535" r="2"></circle><circle cx="647" cy="535" r="2"></circle><circle cx="650" cy="535" r="2"></circle><circle cx="654" cy="535" r="2"></circle><circle cx="657" cy="535" r="2"></circle><circle cx="661" cy="535" r="2"></circle><circle cx="665" cy="535" r="2"></circle><circle cx="668" cy="535" r="2"></circle><circle cx="672" cy="535" r="2"></circle><circle cx="675" cy="535" r="2"></circle><circle cx="679" cy="535" r="2"></circle><circle cx="682" cy="535" r="2"></circle><circle cx="686" cy="535" r="2"></circle><circle cx="690" cy="535" r="2"></circle><circle cx="693" cy="535" r="2"></circle><circle cx="697" cy="535" r="2"></circle><circle cx="700" cy="535" r="2"></circle><circle cx="704" cy="535" r="2"></circle><circle cx="707" cy="535" r="2"></circle><circle cx="711" cy="535" r="2"></circle><circle cx="715" cy="535" r="2"></circle><circle cx="718" cy="535" r="2"></circle><circle cx="722" cy="535" r="2"></circle><circle cx="725" cy="535" r="2"></circle><circle cx="729" cy="535" r="2"></circle></g></g></g></g></g><g style="fill: #777;" class="SourcesFooter"><g style="fill: #777;" class="clickable"><text font-size="12.60" x="15.0" y="581.6"><tspan x="15" y="581.58">Source: Office for National Statistics; Thomas (2015); Pearson Schools</tspan></text></g><text font-size="12.60" x="649.0" y="581.6"><tspan x="649.024" y="581.58"><a target='_blank' style='fill: #777;' href='https://ourworldindata.org'>OurWorldInData.org</a> • <a style="fill: #777;" href="http://creativecommons.org/licenses/by-sa/4.0/deed.en_US" target="_blank">CC BY-SA</a></tspan></text></g></g></svg>