<svg xmlns="http://www.w3.org/2000/svg" version="1.1" style="font-family: 'Helvetica Neue', Helvetica, Arial, sans-serif; font-size: 18px; background-color: white; text-rendering: optimizeLegibility; -webkit-font-smoothing: antialiased;" width="850" height="600"><g class="ChartTab"><g class="HeaderView"><g opacity="0.8" transform="translate(770, 15) scale(0.31)"><a xmlns:xlink="http://www.w3.org/1999/xlink" xlink:href="https://ourworldindata.org" target="_blank"><g><rect x="0" y="0" fill="#1B2543" width="211.2" height="130.1"/><rect x="0" y="112.2" fill="#E63912" width="211.2" height="17.9"/><g><rect x="1.2" y="12.3" fill="none" width="210.2" height="99.2"/><path fill="#FFFFFF" d="M37.8,32.2c0,12.7-7.7,19.4-17.1,19.4c-9.7,0-16.6-7.5-16.6-18.7c0-11.7,7.3-19.3,17.1-19.3 C31.3,13.7,37.8,21.3,37.8,32.2z M9.2,32.8c0,7.9,4.3,14.9,11.8,14.9c7.5,0,11.8-6.9,11.8-15.3c0-7.3-3.8-14.9-11.8-14.9 C13.1,17.5,9.2,24.8,9.2,32.8z"/><path fill="#FFFFFF" d="M62.7,43.8c0,2.7,0.1,5.1,0.2,7.2h-4.3l-0.3-4.3h-0.1c-1.3,2.1-4,4.9-8.8,4.9c-4.2,0-9.1-2.3-9.1-11.6 V24.6h4.8v14.6c0,5,1.5,8.4,5.9,8.4c3.2,0,5.5-2.2,6.3-4.4c0.3-0.7,0.4-1.6,0.4-2.5V24.6h4.8V43.8z"/><path fill="#FFFFFF" d="M67.3,32.8c0-3.1-0.1-5.8-0.2-8.2h4.2l0.2,5.2h0.2c1.2-3.5,4.1-5.8,7.3-5.8c0.5,0,0.9,0.1,1.4,0.2v4.5 c-0.5-0.1-1-0.2-1.6-0.2c-3.4,0-5.8,2.6-6.5,6.2c-0.1,0.7-0.2,1.4-0.2,2.2V51h-4.8V32.8z"/><path fill="#FFFFFF" d="M95.4,51l-9.4-36.8h5l4.4,18.6c1.1,4.6,2.1,9.2,2.7,12.7h0.1c0.6-3.7,1.8-8,3-12.8l4.9-18.5h5l4.5,18.7 c1,4.4,2,8.7,2.6,12.6h0.1c0.8-4,1.8-8.1,3-12.7l4.9-18.5h4.9L120.6,51h-5L111,31.9c-1.1-4.7-1.9-8.3-2.4-12h-0.1 c-0.7,3.7-1.5,7.3-2.8,12L100.4,51H95.4z"/><path fill="#FFFFFF" d="M154.9,37.6c0,9.8-6.8,14-13.2,14c-7.2,0-12.7-5.2-12.7-13.6c0-8.8,5.8-14,13.1-14 C149.8,24,154.9,29.5,154.9,37.6z M133.9,37.9c0,5.8,3.3,10.1,8,10.1c4.6,0,8-4.3,8-10.3c0-4.5-2.2-10.1-7.9-10.1 C136.3,27.6,133.9,32.8,133.9,37.9z"/><path fill="#FFFFFF" d="M158.2,32.8c0-3.1-0.1-5.8-0.2-8.2h4.2l0.2,5.2h0.2c1.2-3.5,4.1-5.8,7.3-5.8c0.5,0,0.9,0.1,1.4,0.2v4.5 c-0.5-0.1-1-0.2-1.6-0.2c-3.4,0-5.8,2.6-6.5,6.2c-0.1,0.7-0.2,1.4-0.2,2.2V51h-4.8V32.8z"/><path fill="#FFFFFF" d="M173.5,12.3h4.8V51h-4.8V12.3z"/><path fill="#FFFFFF" d="M206.5,12.3v31.9c0,2.3,0.1,5,0.2,6.8h-4.3l-0.2-4.6H202c-1.5,2.9-4.7,5.2-9,5.2 c-6.4,0-11.3-5.4-11.3-13.4c-0.1-8.8,5.4-14.2,11.9-14.2c4,0,6.8,1.9,8,4h0.1V12.3H206.5z M201.7,35.4c0-0.6-0.1-1.4-0.2-2 c-0.7-3.1-3.3-5.6-6.9-5.6c-5,0-7.9,4.4-7.9,10.2c0,5.3,2.6,9.8,7.8,9.8c3.2,0,6.2-2.1,7.1-5.7c0.2-0.7,0.2-1.3,0.2-2.1V35.4z"/><path fill="#FFFFFF" d="M42.8,64c0.1,1.6-1.1,2.9-3.1,2.9c-1.7,0-2.9-1.3-2.9-2.9c0-1.7,1.3-3,3-3C41.7,61,42.8,62.3,42.8,64z M37.4,97.8V71.4h4.8v26.4H37.4z"/><path fill="#FFFFFF" d="M47.5,78.6c0-2.7-0.1-5-0.2-7.1h4.3l0.3,4.4h0.1c1.3-2.5,4.4-5,8.8-5c3.7,0,9.4,2.2,9.4,11.2v15.8h-4.8 V82.6c0-4.3-1.6-7.8-6.1-7.8c-3.2,0-5.6,2.2-6.5,4.9c-0.2,0.6-0.3,1.4-0.3,2.2v15.9h-4.8V78.6z"/><path fill="#FFFFFF" d="M84,61.6c2.9-0.4,6.3-0.8,10.1-0.8c6.8,0,11.7,1.6,14.9,4.6c3.3,3,5.2,7.3,5.2,13.2c0,6-1.9,10.9-5.3,14.3 c-3.4,3.4-9.1,5.3-16.3,5.3c-3.4,0-6.2-0.2-8.6-0.4V61.6z M88.8,94.1c1.2,0.2,3,0.3,4.8,0.3c10.2,0,15.7-5.7,15.7-15.6 c0.1-8.7-4.9-14.2-14.9-14.2c-2.5,0-4.3,0.2-5.6,0.5V94.1z"/><path fill="#FFFFFF" d="M132.1,97.8l-0.4-3.3h-0.2c-1.5,2.1-4.3,3.9-8.1,3.9c-5.4,0-8.1-3.8-8.1-7.6c0-6.4,5.7-9.9,15.9-9.8v-0.5 c0-2.2-0.6-6.1-6-6.1c-2.5,0-5,0.8-6.9,2l-1.1-3.2c2.2-1.4,5.4-2.3,8.7-2.3c8.1,0,10.1,5.5,10.1,10.8v9.9c0,2.3,0.1,4.5,0.4,6.3 H132.1z M131.4,84.4c-5.3-0.1-11.2,0.8-11.2,5.9c0,3.1,2.1,4.6,4.5,4.6c3.4,0,5.6-2.2,6.4-4.4c0.2-0.5,0.3-1,0.3-1.5V84.4z"/><path fill="#FFFFFF" d="M146.6,63.9v7.6h6.9v3.7h-6.9v14.2c0,3.3,0.9,5.1,3.6,5.1c1.3,0,2.2-0.2,2.8-0.3l0.2,3.6 c-0.9,0.4-2.4,0.7-4.3,0.7c-2.2,0-4-0.7-5.2-2c-1.4-1.4-1.9-3.8-1.9-6.9V75.1h-4.1v-3.7h4.1v-6.3L146.6,63.9z"/><path fill="#FFFFFF" d="M171.4,97.8l-0.4-3.3h-0.2c-1.5,2.1-4.3,3.9-8.1,3.9c-5.4,0-8.1-3.8-8.1-7.6c0-6.4,5.7-9.9,15.9-9.8v-0.5 c0-2.2-0.6-6.1-6-6.1c-2.5,0-5,0.8-6.9,2l-1.1-3.2c2.2-1.4,5.4-2.3,8.7-2.3c8.1,0,10.1,5.5,10.1,10.8v9.9c0,2.3,0.1,4.5,0.4,6.3 H171.4z M170.7,84.4c-5.3-0.1-11.2,0.8-11.2,5.9c0,3.1,2.1,4.6,4.5,4.6c3.4,0,5.6-2.2,6.4-4.4c0.2-0.5,0.3-1,0.3-1.5V84.4z"/></g></g></a></g><a href="https://ourworldindata.org/grapher/contraceptive-prevalence-any-methods-vs-modern-methods" target="_blank"><text font-size="21.60" x="15.0" y="32.3" fill="#555"><tspan x="15" y="32.279999999999994">Contraceptive prevalence: any methods vs modern methods, 2016</tspan></text></a></g><g><g class="AxisBoxView"><g class="HorizontalAxis"><text font-size="12.60" x="179.4" y="554.0"><tspan x="179.402" y="553.98">Contraceptive prevalence, any methods (% of women ages 15-49)</tspan></text><text x="114" y="533.9" fill="#666" text-anchor="middle" font-size="16.2">10%</text><text x="204.2" y="533.9" fill="#666" text-anchor="middle" font-size="16.2">20%</text><text x="294.5" y="533.9" fill="#666" text-anchor="middle" font-size="16.2">30%</text><text x="384.7" y="533.9" fill="#666" text-anchor="middle" font-size="16.2">40%</text><text x="474.9" y="533.9" fill="#666" text-anchor="middle" font-size="16.2">50%</text><text x="565.2" y="533.9" fill="#666" text-anchor="middle" font-size="16.2">60%</text><text x="655.4" y="533.9" fill="#666" text-anchor="middle" font-size="16.2">70%</text></g><g class="VerticalAxis"><text font-size="12.60" x="-512.6" y="25.1" transform="rotate(-90)"><tspan x="-512.562" y="25.080000000000002">Contraceptive prevalence, modern methods (% of women ages 15-49)</tspan></text><text x="70.16" y="512.7" fill="#666" dominant-baseline="middle" text-anchor="end" font-size="16.2">0%</text><text x="70.16" y="456.7" fill="#666" dominant-baseline="middle" text-anchor="end" font-size="16.2">10%</text><text x="70.16" y="400.8" fill="#666" dominant-baseline="middle" text-anchor="end" font-size="16.2">20%</text><text x="70.16" y="344.8" fill="#666" dominant-baseline="middle" text-anchor="end" font-size="16.2">30%</text><text x="70.16" y="288.8" fill="#666" dominant-baseline="middle" text-anchor="end" font-size="16.2">40%</text><text x="70.16" y="232.8" fill="#666" dominant-baseline="middle" text-anchor="end" font-size="16.2">50%</text><text x="70.16" y="176.9" fill="#666" dominant-baseline="middle" text-anchor="end" font-size="16.2">60%</text><text x="70.16" y="120.9" fill="#666" dominant-baseline="middle" text-anchor="end" font-size="16.2">70%</text></g><g class="AxisGridLines"><line x1="75.16" y1="512.7" x2="715.00" y2="512.7" stroke="#ccc"></line><line x1="75.16" y1="456.7" x2="715.00" y2="456.7" stroke="#ddd" stroke-dasharray="3,2"></line><line x1="75.16" y1="400.8" x2="715.00" y2="400.8" stroke="#ddd" stroke-dasharray="3,2"></line><line x1="75.16" y1="344.8" x2="715.00" y2="344.8" stroke="#ddd" stroke-dasharray="3,2"></line><line x1="75.16" y1="288.8" x2="715.00" y2="288.8" stroke="#ddd" stroke-dasharray="3,2"></line><line x1="75.16" y1="232.8" x2="715.00" y2="232.8" stroke="#ddd" stroke-dasharray="3,2"></line><line x1="75.16" y1="176.9" x2="715.00" y2="176.9" stroke="#ddd" stroke-dasharray="3,2"></line><line x1="75.16" y1="120.9" x2="715.00" y2="120.9" stroke="#ddd" stroke-dasharray="3,2"></line></g><g class="AxisGridLines"><line x1="114" y1="512.70" x2="114" y2="75.00" stroke="#ddd" stroke-dasharray="3,2"></line><line x1="204.2" y1="512.70" x2="204.2" y2="75.00" stroke="#ddd" stroke-dasharray="3,2"></line><line x1="294.5" y1="512.70" x2="294.5" y2="75.00" stroke="#ddd" stroke-dasharray="3,2"></line><line x1="384.7" y1="512.70" x2="384.7" y2="75.00" stroke="#ddd" stroke-dasharray="3,2"></line><line x1="474.9" y1="512.70" x2="474.9" y2="75.00" stroke="#ddd" stroke-dasharray="3,2"></line><line x1="565.2" y1="512.70" x2="565.2" y2="75.00" stroke="#ddd" stroke-dasharray="3,2"></line><line x1="655.4" y1="512.70" x2="655.4" y2="75.00" stroke="#ddd" stroke-dasharray="3,2"></line></g></g><g class="ComparisonLine"><defs><clipPath id="axisBounds-77"><rect x="75.162" y="75" width="639.838" height="437.7"></rect></clipPath></defs><path d="M75.2,480.8L81.6,476.8L88,472.9L94.4,468.9L100.8,464.9L107.2,461L113.6,457L120,453L126.3,449L132.7,445.1L139.1,441.1L145.5,437.1L151.9,433.2L158.3,429.2L164.7,425.2L171.1,421.3L177.5,417.3L183.9,413.3L190.3,409.4L196.7,405.4L203.1,401.4L209.5,397.5L215.9,393.5L222.3,389.5L228.7,385.6L235.1,381.6L241.5,377.6L247.9,373.6L254.3,369.7L260.7,365.7L267.1,361.7L273.5,357.8L279.9,353.8L286.3,349.8L292.7,345.9L299.1,341.9L305.5,337.9L311.9,334L318.3,330L324.7,326L331.1,322.1L337.5,318.1L343.9,314.1L350.3,310.2L356.7,306.2L363.1,302.2L369.5,298.2L375.9,294.3L382.3,290.3L388.7,286.3L395.1,282.4L401.5,278.4L407.9,274.4L414.3,270.5L420.7,266.5L427.1,262.5L433.5,258.6L439.9,254.6L446.3,250.6L452.7,246.7L459.1,242.7L465.5,238.7L471.9,234.8L478.3,230.8L484.7,226.8L491.1,222.8L497.5,218.9L503.9,214.9L510.3,210.9L516.7,207L523,203L529.4,199L535.8,195.1L542.2,191.1L548.6,187.1L555,183.2L561.4,179.2L567.8,175.2L574.2,171.3L580.6,167.3L587,163.3L593.4,159.4L599.8,155.4L606.2,151.4L612.6,147.4L619,143.5L625.4,139.5L631.8,135.5L638.2,131.6L644.6,127.6L651,123.6L657.4,119.7L663.8,115.7L670.2,111.7L676.6,107.8L683,103.8L689.4,99.8L695.8,95.9L702.2,91.9L708.6,87.9" clip-path="url(#axisBounds-77)" fill="none" stroke="#ccc"></path></g><g clip-path="url(#scatterBounds-78)" class="PointsWithLabels clickable"><rect x="75.162" y="75" width="639.838" height="437.7" fill="rgba(255,255,255,0)"></rect><defs><clipPath id="scatterBounds-78"><rect x="65.162" y="65" width="659.838" height="457.7"></rect></clipPath></defs><circle cx="587" cy="179" r="7.844361529474597" fill="#d14e5b" opacity="0.8"></circle><circle cx="343" cy="366" r="6.813649557287598" fill="#d14e5b" opacity="0.8"></circle><circle cx="160" cy="457" r="6.597354736490312" fill="#5675c1" opacity="0.8"></circle><circle cx="586" cy="209" r="6.29509700855428" fill="#d14e5b" opacity="0.8"></circle><circle cx="521" cy="302" r="5.132455111401107" fill="#d14e5b" opacity="0.8"></circle><circle cx="706" cy="193" r="4.958015654787909" fill="#d14e5b" opacity="0.8"></circle><circle cx="332" cy="311" r="4.902950272846256" fill="#5675c1" opacity="0.8"></circle><circle cx="551" cy="194" r="4.830727389989328" fill="#5675c1" opacity="0.8"></circle><circle cx="687" cy="247" r="4.579374077468356" fill="#d14e5b" opacity="0.8"></circle><circle cx="207" cy="469" r="4.476685153103822" fill="#5675c1" opacity="0.8"></circle><circle cx="370" cy="333" r="3.8450312870923593" fill="#5675c1" opacity="0.8"></circle><circle cx="547" cy="159" r="3.681005293020396" fill="#5675c1" opacity="0.8"></circle><circle cx="715" cy="75" r="3.601596285458981" fill="#69c487" opacity="0.8"></circle><circle cx="539" cy="235" r="3.451309524448714" fill="#5675c1" opacity="0.8"></circle><circle cx="269" cy="347" r="3.443617979607286" fill="#5675c1" opacity="0.8"></circle><circle cx="133" cy="447" r="3.415452264840844" fill="#5675c1" opacity="0.8"></circle><circle cx="226" cy="401" r="3.36528494367757" fill="#d14e5b" opacity="0.8"></circle><circle cx="471" cy="249" r="3.2596535564840083" fill="#d14e5b" opacity="0.8"></circle><circle cx="697" cy="220" r="3.2063384448968804" fill="#69c487" opacity="0.8"></circle><circle cx="264" cy="352" r="3.0577099668621712" fill="#5675c1" opacity="0.8"></circle><circle cx="334" cy="395" r="2.8491839718029515" fill="#5675c1" opacity="0.8"></circle><circle cx="177" cy="400" r="2.7263087884873207" fill="#5675c1" opacity="0.8"></circle><circle cx="116" cy="457" r="2.673706681785767" fill="#5675c1" opacity="0.8"></circle><circle cx="558" cy="187" r="2.655931869874285" fill="#5675c1" opacity="0.8"></circle><circle cx="570" cy="239" r="2.616556109287008" fill="#4d824b" opacity="0.8"></circle><circle cx="531" cy="295" r="2.5769431582048123" fill="#d14e5b" opacity="0.8"></circle><circle cx="465" cy="261" r="2.561253332137224" fill="#5675c1" opacity="0.8"></circle><circle cx="224" cy="394" r="2.5212940701900157" fill="#5675c1" opacity="0.8"></circle><circle cx="626" cy="144" r="2.515376004565307" fill="#5675c1" opacity="0.8"></circle><circle cx="75" cy="484" r="2.4590909699748313" fill="#5675c1" opacity="0.8"></circle><circle cx="503" cy="246" r="2.4333518177968774" fill="#5675c1" opacity="0.8"></circle><circle cx="688" cy="108" r="2.415630109973013" fill="#4d824b" opacity="0.8"></circle><circle cx="651" cy="132" r="2.3694625944729495" fill="#4d824b" opacity="0.8"></circle><circle cx="550" cy="409" r="2.345751795394702" fill="#ffd336" opacity="0.8"></circle><circle cx="185" cy="442" r="2.3342269910830717" fill="#5675c1" opacity="0.8"></circle><circle cx="203" cy="415" r="2.166707421041374" fill="#5675c1" opacity="0.8"></circle><circle cx="673" cy="132" r="2.160715636817132" fill="#4d824b" opacity="0.8"></circle><circle cx="173" cy="425" r="2.1581160014945855" fill="#5675c1" opacity="0.8"></circle><circle cx="402" cy="288" r="2.116592283258034" fill="#d14e5b" opacity="0.8"></circle><circle cx="206" cy="405" r="2.051199523146091" fill="#5675c1" opacity="0.8"></circle><circle cx="590" cy="176" r="2.0122479099908284" fill="#4d824b" opacity="0.8"></circle><circle cx="291" cy="407" r="1.9695057793885882" fill="#d14e5b" opacity="0.8"></circle><circle cx="516" cy="242" r="1.9653379813708927" fill="#d14e5b" opacity="0.8"></circle><circle cx="530" cy="203" r="1.9360892241561365" fill="#5675c1" opacity="0.8"></circle><circle cx="567" cy="178" r="1.926043482252445" fill="#5675c1" opacity="0.8"></circle><circle cx="104" cy="467" r="1.903496230556387" fill="#5675c1" opacity="0.8"></circle><circle cx="168" cy="432" r="1.8872145258905713" fill="#5675c1" opacity="0.8"></circle><circle cx="620" cy="146" r="1.863565635459849" fill="#5675c1" opacity="0.8"></circle><circle cx="331" cy="330" r="1.8330463999946809" fill="#69c487" opacity="0.8"></circle><circle cx="234" cy="426" r="1.8249087999416849" fill="#ffd336" opacity="0.8"></circle><circle cx="465" cy="305" r="1.8004674053253624" fill="#a652ba" opacity="0.8"></circle><circle cx="266" cy="376" r="1.7957354833513048" fill="#a652ba" opacity="0.8"></circle><circle cx="390" cy="303" r="1.7950554421114964" fill="#5675c1" opacity="0.8"></circle><circle cx="326" cy="349" r="1.7834859089314687" fill="#d14e5b" opacity="0.8"></circle><circle cx="539" cy="265" r="1.7834859089314687" fill="#d14e5b" opacity="0.8"></circle><text x="587" y="170.1556384705254" font-size="11.611049289554808" font-family="Arial Narrow, Arial, sans-serif" fill="#666">Indonesia</text><text x="343" y="358.1863504427124" font-size="11.452836719861512" font-family="Arial Narrow, Arial, sans-serif" fill="#666">Pakistan</text><text x="160" y="449.40264526350967" font-size="11.422460338266717" font-family="Arial Narrow, Arial, sans-serif" fill="#666">Nigeria</text><text x="586" y="201.70490299144572" font-size="11.381652691995749" font-family="Arial Narrow, Arial, sans-serif" fill="#666">Bangladesh</text><text x="521" y="295.8675448885989" font-size="11.24252044536811" font-family="Arial Narrow, Arial, sans-serif" fill="#666">Philippines</text><text x="664.69535644368" y="187.0419843452121" font-size="11.224087922913046" font-family="Arial Narrow, Arial, sans-serif" fill="#666">Vietnam</text><text x="332" y="305.0970497271537" font-size="11.218401662671193" font-family="Arial Narrow, Arial, sans-serif" fill="#666">Ethiopia</text><text x="551" y="188.16927261001067" font-size="11.211039923978559" font-family="Arial Narrow, Arial, sans-serif" fill="#666">Egypt</text><text x="652.7700108093197" y="241.42062592253166" font-size="11.18627097734649" font-family="Arial Narrow, Arial, sans-serif" fill="#666">Turkey</text><text x="207" y="463.5233148468962" font-size="11.17653249061041" font-family="Arial Narrow, Arial, sans-serif" fill="#666">Democratic Republic of Congo</text><text x="370" y="328.15496871290765" font-size="11.121487133978855" font-family="Arial Narrow, Arial, sans-serif" fill="#666">Tanzania</text><text x="547" y="154.3189947069796" font-size="11.108559840115685" font-family="Arial Narrow, Arial, sans-serif" fill="#666">Kenya</text><text x="667.2592334317827" y="86.10250385307377" font-size="11.102503853073776" font-family="Arial Narrow, Arial, sans-serif" fill="#666">Argentina</text><text x="539" y="230.5486904755513" font-size="11.091403994980674" font-family="Arial Narrow, Arial, sans-serif" fill="#666">Algeria</text><text x="269" y="342.55638202039273" font-size="11.090848638430577" font-family="Arial Narrow, Arial, sans-serif" fill="#666">Uganda</text><text x="226" y="396.6347150563224" font-size="11.085263284236627" font-family="Arial Narrow, Arial, sans-serif" fill="#666">Afghanistan</text><text x="471" y="244.740346443516" font-size="11.077934980653454" font-family="Arial Narrow, Arial, sans-serif" fill="#666">Nepal</text><text x="673.522431162637" y="215.7936615551031" font-size="11.074324923284431" font-family="Arial Narrow, Arial, sans-serif" fill="#666">Peru</text><text x="334" y="391.150816028197" font-size="11.051676585800331" font-family="Arial Narrow, Arial, sans-serif" fill="#666">Cameroon</text><text x="116" y="453.32629331821425" font-size="11.041527755713483" font-family="Arial Narrow, Arial, sans-serif" fill="#666">Mali</text><text x="465" y="257.4387466678628" font-size="11.035363021132563" font-family="Arial Narrow, Arial, sans-serif" fill="#666">Zambia</text><text x="626" y="140.4846239954347" font-size="11.032924075133185" font-family="Arial Narrow, Arial, sans-serif" fill="#666">Zimbabwe</text><text x="75" y="480.54090903002515" font-size="11.029992047174643" font-family="Arial Narrow, Arial, sans-serif" fill="#666">Chad</text><text x="503" y="242.56664818220312" font-size="11.028673339264499" font-family="Arial Narrow, Arial, sans-serif" fill="#666">Rwanda</text><text x="688" y="104.58436989002698" font-size="11.027773458941404" font-family="Arial Narrow, Arial, sans-serif" fill="#666">Cuba</text><text x="552.7631511001077" y="128.63053740552704" font-size="11.025460033657943" font-family="Arial Narrow, Arial, sans-serif" fill="#666">Dominican Republic</text><text x="550" y="405.6542482046053" font-size="11.024289251077176" font-family="Arial Narrow, Arial, sans-serif" fill="#666">Serbia</text><text x="203" y="411.8332925789586" font-size="11.01582862332343" font-family="Arial Narrow, Arial, sans-serif" fill="#666">Togo</text><text x="402" y="284.88340771674194" font-size="11.013580728382413" font-family="Arial Narrow, Arial, sans-serif" fill="#666">Kyrgyzstan</text><text x="291" y="404.0304942206114" font-size="11.007286967652286" font-family="Arial Narrow, Arial, sans-serif" fill="#666">Oman</text><text x="530" y="200.06391077584385" font-size="11.005920254094038" font-family="Arial Narrow, Arial, sans-serif" fill="#666">Namibia</text><text x="168" y="429.11278547410944" font-size="11.00396343124863" font-family="Arial Narrow, Arial, sans-serif" fill="#666">Guinea-Bissau</text><text x="331" y="327.16695360000534" font-size="11.0018531233281" font-family="Arial Narrow, Arial, sans-serif" fill="#666">Guyana</text><text x="465" y="302.1995325946746" font-size="11.000613490378862" font-family="Arial Narrow, Arial, sans-serif" fill="#666">Vanuatu</text><text x="266" y="373.2042645166487" font-size="11.000435289279759" font-family="Arial Narrow, Arial, sans-serif" fill="#666">Samoa</text><text x="326" y="346.2165140910685" font-size="10.999976156626193" font-family="Arial Narrow, Arial, sans-serif" fill="#666">Yemen</text><text x="539" y="262.2165140910685" font-size="10.999976156626193" font-family="Arial Narrow, Arial, sans-serif" fill="#666">Palestine</text></g><g style="cursor: pointer;" class="ScatterColorLegend clickable"><g class="legendMark"><rect x="735" y="72.5" width="43.256" height="17.6" fill="#fff" opacity="0"></rect>,<rect x="735" y="78" width="6" height="6" fill="#5675c1"></rect>,<text font-size="12.60" x="746.0" y="85.1"><tspan x="746" y="85.08">Africa</tspan></text></g><g class="legendMark"><rect x="735" y="90.1" width="35.57" height="17.6" fill="#fff" opacity="0"></rect>,<rect x="735" y="95.6" width="6" height="6" fill="#d14e5b"></rect>,<text font-size="12.60" x="746.0" y="102.7"><tspan x="746" y="102.67999999999999">Asia</tspan></text></g><g class="legendMark"><rect x="735" y="107.7" width="51.824" height="17.6" fill="#fff" opacity="0"></rect>,<rect x="735" y="113.2" width="6" height="6" fill="#ffd336"></rect>,<text font-size="12.60" x="746.0" y="120.3"><tspan x="746" y="120.28">Europe</tspan></text></g><g class="legendMark"><rect x="735" y="125.30000000000001" width="91.64" height="17.6" fill="#fff" opacity="0"></rect>,<rect x="735" y="130.8" width="6" height="6" fill="#4d824b"></rect>,<text font-size="12.60" x="746.0" y="137.9"><tspan x="746" y="137.88">North America</tspan></text></g><g class="legendMark"><rect x="735" y="142.9" width="58.124" height="17.6" fill="#fff" opacity="0"></rect>,<rect x="735" y="148.4" width="6" height="6" fill="#a652ba"></rect>,<text font-size="12.60" x="746.0" y="155.5"><tspan x="746" y="155.48">Oceania</tspan></text></g><g class="legendMark"><rect x="735" y="160.5" width="93.908" height="17.6" fill="#fff" opacity="0"></rect>,<rect x="735" y="166" width="6" height="6" fill="#69c487"></rect>,<text font-size="12.60" x="746.0" y="173.1"><tspan x="746" y="173.07999999999998">South America</tspan></text></g></g></g><g style="fill: #777;" class="SourcesFooter"><g style="fill: #777;" class="clickable"><text font-size="12.60" x="15.0" y="581.6"><tspan x="15" y="581.58">Source: World Bank – WDI</tspan></text></g><text font-size="12.60" x="649.0" y="581.6"><tspan x="649.024" y="581.58"><a target='_blank' style='fill: #777;' href='https://ourworldindata.org'>OurWorldInData.org</a> • <a style="fill: #777;" href="http://creativecommons.org/licenses/by-sa/4.0/deed.en_US" target="_blank">CC BY-SA</a></tspan></text></g></g></svg>