<svg xmlns="http://www.w3.org/2000/svg" version="1.1" style="font-family: 'Helvetica Neue', Helvetica, Arial, sans-serif; font-size: 18px; background-color: white; text-rendering: optimizeLegibility; -webkit-font-smoothing: antialiased;" width="850" height="600"><g class="ChartTab"><g class="HeaderView"><g opacity="0.8" transform="translate(770, 15) scale(0.31)"><a xmlns:xlink="http://www.w3.org/1999/xlink" xlink:href="https://ourworldindata.org" target="_blank"><g><rect x="0" y="0" fill="#1B2543" width="211.2" height="130.1"/><rect x="0" y="112.2" fill="#E63912" width="211.2" height="17.9"/><g><rect x="1.2" y="12.3" fill="none" width="210.2" height="99.2"/><path fill="#FFFFFF" d="M37.8,32.2c0,12.7-7.7,19.4-17.1,19.4c-9.7,0-16.6-7.5-16.6-18.7c0-11.7,7.3-19.3,17.1-19.3 C31.3,13.7,37.8,21.3,37.8,32.2z M9.2,32.8c0,7.9,4.3,14.9,11.8,14.9c7.5,0,11.8-6.9,11.8-15.3c0-7.3-3.8-14.9-11.8-14.9 C13.1,17.5,9.2,24.8,9.2,32.8z"/><path fill="#FFFFFF" d="M62.7,43.8c0,2.7,0.1,5.1,0.2,7.2h-4.3l-0.3-4.3h-0.1c-1.3,2.1-4,4.9-8.8,4.9c-4.2,0-9.1-2.3-9.1-11.6 V24.6h4.8v14.6c0,5,1.5,8.4,5.9,8.4c3.2,0,5.5-2.2,6.3-4.4c0.3-0.7,0.4-1.6,0.4-2.5V24.6h4.8V43.8z"/><path fill="#FFFFFF" d="M67.3,32.8c0-3.1-0.1-5.8-0.2-8.2h4.2l0.2,5.2h0.2c1.2-3.5,4.1-5.8,7.3-5.8c0.5,0,0.9,0.1,1.4,0.2v4.5 c-0.5-0.1-1-0.2-1.6-0.2c-3.4,0-5.8,2.6-6.5,6.2c-0.1,0.7-0.2,1.4-0.2,2.2V51h-4.8V32.8z"/><path fill="#FFFFFF" d="M95.4,51l-9.4-36.8h5l4.4,18.6c1.1,4.6,2.1,9.2,2.7,12.7h0.1c0.6-3.7,1.8-8,3-12.8l4.9-18.5h5l4.5,18.7 c1,4.4,2,8.7,2.6,12.6h0.1c0.8-4,1.8-8.1,3-12.7l4.9-18.5h4.9L120.6,51h-5L111,31.9c-1.1-4.7-1.9-8.3-2.4-12h-0.1 c-0.7,3.7-1.5,7.3-2.8,12L100.4,51H95.4z"/><path fill="#FFFFFF" d="M154.9,37.6c0,9.8-6.8,14-13.2,14c-7.2,0-12.7-5.2-12.7-13.6c0-8.8,5.8-14,13.1-14 C149.8,24,154.9,29.5,154.9,37.6z M133.9,37.9c0,5.8,3.3,10.1,8,10.1c4.6,0,8-4.3,8-10.3c0-4.5-2.2-10.1-7.9-10.1 C136.3,27.6,133.9,32.8,133.9,37.9z"/><path fill="#FFFFFF" d="M158.2,32.8c0-3.1-0.1-5.8-0.2-8.2h4.2l0.2,5.2h0.2c1.2-3.5,4.1-5.8,7.3-5.8c0.5,0,0.9,0.1,1.4,0.2v4.5 c-0.5-0.1-1-0.2-1.6-0.2c-3.4,0-5.8,2.6-6.5,6.2c-0.1,0.7-0.2,1.4-0.2,2.2V51h-4.8V32.8z"/><path fill="#FFFFFF" d="M173.5,12.3h4.8V51h-4.8V12.3z"/><path fill="#FFFFFF" d="M206.5,12.3v31.9c0,2.3,0.1,5,0.2,6.8h-4.3l-0.2-4.6H202c-1.5,2.9-4.7,5.2-9,5.2 c-6.4,0-11.3-5.4-11.3-13.4c-0.1-8.8,5.4-14.2,11.9-14.2c4,0,6.8,1.9,8,4h0.1V12.3H206.5z M201.7,35.4c0-0.6-0.1-1.4-0.2-2 c-0.7-3.1-3.3-5.6-6.9-5.6c-5,0-7.9,4.4-7.9,10.2c0,5.3,2.6,9.8,7.8,9.8c3.2,0,6.2-2.1,7.1-5.7c0.2-0.7,0.2-1.3,0.2-2.1V35.4z"/><path fill="#FFFFFF" d="M42.8,64c0.1,1.6-1.1,2.9-3.1,2.9c-1.7,0-2.9-1.3-2.9-2.9c0-1.7,1.3-3,3-3C41.7,61,42.8,62.3,42.8,64z M37.4,97.8V71.4h4.8v26.4H37.4z"/><path fill="#FFFFFF" d="M47.5,78.6c0-2.7-0.1-5-0.2-7.1h4.3l0.3,4.4h0.1c1.3-2.5,4.4-5,8.8-5c3.7,0,9.4,2.2,9.4,11.2v15.8h-4.8 V82.6c0-4.3-1.6-7.8-6.1-7.8c-3.2,0-5.6,2.2-6.5,4.9c-0.2,0.6-0.3,1.4-0.3,2.2v15.9h-4.8V78.6z"/><path fill="#FFFFFF" d="M84,61.6c2.9-0.4,6.3-0.8,10.1-0.8c6.8,0,11.7,1.6,14.9,4.6c3.3,3,5.2,7.3,5.2,13.2c0,6-1.9,10.9-5.3,14.3 c-3.4,3.4-9.1,5.3-16.3,5.3c-3.4,0-6.2-0.2-8.6-0.4V61.6z M88.8,94.1c1.2,0.2,3,0.3,4.8,0.3c10.2,0,15.7-5.7,15.7-15.6 c0.1-8.7-4.9-14.2-14.9-14.2c-2.5,0-4.3,0.2-5.6,0.5V94.1z"/><path fill="#FFFFFF" d="M132.1,97.8l-0.4-3.3h-0.2c-1.5,2.1-4.3,3.9-8.1,3.9c-5.4,0-8.1-3.8-8.1-7.6c0-6.4,5.7-9.9,15.9-9.8v-0.5 c0-2.2-0.6-6.1-6-6.1c-2.5,0-5,0.8-6.9,2l-1.1-3.2c2.2-1.4,5.4-2.3,8.7-2.3c8.1,0,10.1,5.5,10.1,10.8v9.9c0,2.3,0.1,4.5,0.4,6.3 H132.1z M131.4,84.4c-5.3-0.1-11.2,0.8-11.2,5.9c0,3.1,2.1,4.6,4.5,4.6c3.4,0,5.6-2.2,6.4-4.4c0.2-0.5,0.3-1,0.3-1.5V84.4z"/><path fill="#FFFFFF" d="M146.6,63.9v7.6h6.9v3.7h-6.9v14.2c0,3.3,0.9,5.1,3.6,5.1c1.3,0,2.2-0.2,2.8-0.3l0.2,3.6 c-0.9,0.4-2.4,0.7-4.3,0.7c-2.2,0-4-0.7-5.2-2c-1.4-1.4-1.9-3.8-1.9-6.9V75.1h-4.1v-3.7h4.1v-6.3L146.6,63.9z"/><path fill="#FFFFFF" d="M171.4,97.8l-0.4-3.3h-0.2c-1.5,2.1-4.3,3.9-8.1,3.9c-5.4,0-8.1-3.8-8.1-7.6c0-6.4,5.7-9.9,15.9-9.8v-0.5 c0-2.2-0.6-6.1-6-6.1c-2.5,0-5,0.8-6.9,2l-1.1-3.2c2.2-1.4,5.4-2.3,8.7-2.3c8.1,0,10.1,5.5,10.1,10.8v9.9c0,2.3,0.1,4.5,0.4,6.3 H171.4z M170.7,84.4c-5.3-0.1-11.2,0.8-11.2,5.9c0,3.1,2.1,4.6,4.5,4.6c3.4,0,5.6-2.2,6.4-4.4c0.2-0.5,0.3-1,0.3-1.5V84.4z"/></g></g></a></g><a href="https://ourworldindata.org/grapher/country-level-government-spending-vs-income" target="_blank"><text font-size="27.00" x="15.0" y="36.6" fill="#555"><tspan x="15" y="36.6">Country-level government spending vs income, 2011</tspan></text></a><text font-size="14.40" x="15.0" y="55.5" fill="#666"><tspan x="15" y="55.519999999999996">Total government expenditure including interest payments on debt (% of GDP) vs. GDP per capita (PPP, constant</tspan><tspan x="15" y="71.36">2011 international dollars). 
Each dot on the plot is a different country, and world regions are color-coded.</tspan></text></g><g><g class="AxisBoxView"><g class="HorizontalAxis"><text font-size="12.60" x="261.4" y="539.4"><tspan x="261.365" y="539.38">Total government spending (% GDP)</tspan></text><text x="136.7" y="519.3" fill="#666" text-anchor="middle" font-size="16.2">20%</text><text x="209" y="519.3" fill="#666" text-anchor="middle" font-size="16.2">30%</text><text x="281.3" y="519.3" fill="#666" text-anchor="middle" font-size="16.2">40%</text><text x="353.6" y="519.3" fill="#666" text-anchor="middle" font-size="16.2">50%</text><text x="425.9" y="519.3" fill="#666" text-anchor="middle" font-size="16.2">60%</text><text x="498.2" y="519.3" fill="#666" text-anchor="middle" font-size="16.2">70%</text><text x="570.4" y="519.3" fill="#666" text-anchor="middle" font-size="16.2">80%</text><text x="642.7" y="519.3" fill="#666" text-anchor="middle" font-size="16.2">90%</text><text x="715" y="519.3" fill="#666" text-anchor="middle" font-size="16.2">100%</text></g><g class="VerticalAxis"><text font-size="12.60" x="-464.6" y="25.1" transform="rotate(-90)"><tspan x="-464.56399999999996" y="25.080000000000002">GDP per capita, PPP (constant 2011 international $)</tspan></text><text x="105.64" y="463" fill="#666" dominant-baseline="middle" text-anchor="end" font-size="16.2">$1,000</text><text x="105.64" y="288.2" fill="#666" dominant-baseline="middle" text-anchor="end" font-size="16.2">$10,000</text><text x="105.64" y="113.4" fill="#666" dominant-baseline="middle" text-anchor="end" font-size="16.2">$100,000</text></g><g class="AxisGridLines"><line x1="110.64" y1="463" x2="715.00" y2="463" stroke="#ddd" stroke-dasharray="3,2"></line><line x1="110.64" y1="288.2" x2="715.00" y2="288.2" stroke="#ddd" stroke-dasharray="3,2"></line><line x1="110.64" y1="113.4" x2="715.00" y2="113.4" stroke="#ddd" stroke-dasharray="3,2"></line></g><g class="AxisGridLines"><line x1="136.7" y1="498.10" x2="136.7" y2="93.90" stroke="#ddd" stroke-dasharray="3,2"></line><line x1="209" y1="498.10" x2="209" y2="93.90" stroke="#ddd" stroke-dasharray="3,2"></line><line x1="281.3" y1="498.10" x2="281.3" y2="93.90" stroke="#ddd" stroke-dasharray="3,2"></line><line x1="353.6" y1="498.10" x2="353.6" y2="93.90" stroke="#ddd" stroke-dasharray="3,2"></line><line x1="425.9" y1="498.10" x2="425.9" y2="93.90" stroke="#ddd" stroke-dasharray="3,2"></line><line x1="498.2" y1="498.10" x2="498.2" y2="93.90" stroke="#ddd" stroke-dasharray="3,2"></line><line x1="570.4" y1="498.10" x2="570.4" y2="93.90" stroke="#ddd" stroke-dasharray="3,2"></line><line x1="642.7" y1="498.10" x2="642.7" y2="93.90" stroke="#ddd" stroke-dasharray="3,2"></line><line x1="715" y1="498.10" x2="715" y2="93.90" stroke="#ddd" stroke-dasharray="3,2"></line></g></g><g clip-path="url(#scatterBounds-101)" class="PointsWithLabels clickable"><rect x="110.64000000000001" y="93.9" width="604.36" height="404.2" fill="rgba(255,255,255,0)"></rect><defs><clipPath id="scatterBounds-101"><rect x="100.64000000000001" y="83.9" width="624.36" height="424.2"></rect></clipPath></defs><circle cx="168" cy="285" r="17.841241161527712" fill="#d14e5b" opacity="0.8"></circle><circle cx="221" cy="346" r="17.131974808158894" fill="#d14e5b" opacity="0.8"></circle><circle cx="308" cy="166" r="8.74048491521104" fill="#4d824b" opacity="0.8"></circle><circle cx="135" cy="297" r="7.736204801722345" fill="#d14e5b" opacity="0.8"></circle><circle cx="305" cy="257" r="7.0120438906006175" fill="#69c487" opacity="0.8"></circle><circle cx="158" cy="352" r="6.671796975732549" fill="#d14e5b" opacity="0.8"></circle><circle cx="213" cy="337" r="6.416754947089725" fill="#5675c1" opacity="0.8"></circle><circle cx="122" cy="391" r="6.1946667638343005" fill="#d14e5b" opacity="0.8"></circle><circle cx="260" cy="221" r="6.048391846888166" fill="#ffd336" opacity="0.8"></circle><circle cx="290" cy="191" r="5.723837746490214" fill="#d14e5b" opacity="0.8"></circle><circle cx="194" cy="252" r="5.479539570021059" fill="#4d824b" opacity="0.8"></circle><circle cx="141" cy="330" r="5.03607638103421" fill="#d14e5b" opacity="0.8"></circle><circle cx="225" cy="345" r="4.893354923989336" fill="#d14e5b" opacity="0.8"></circle><circle cx="127" cy="451" r="4.795416422963223" fill="#5675c1" opacity="0.8"></circle><circle cx="262" cy="289" r="4.741532846257552" fill="#5675c1" opacity="0.8"></circle><circle cx="332" cy="178" r="4.732294713427539" fill="#ffd336" opacity="0.8"></circle><circle cx="172" cy="244" r="4.546708413420179" fill="#d14e5b" opacity="0.8"></circle><circle cx="262" cy="236" r="4.516804599401096" fill="#d14e5b" opacity="0.8"></circle><circle cx="178" cy="265" r="4.408833821253012" fill="#d14e5b" opacity="0.8"></circle><circle cx="221" cy="498" r="4.361881452945388" fill="#5675c1" opacity="0.8"></circle><circle cx="414" cy="188" r="4.235904592769149" fill="#ffd336" opacity="0.8"></circle><circle cx="340" cy="190" r="4.216303260488601" fill="#ffd336" opacity="0.8"></circle><circle cx="386" cy="190" r="4.1708910288610825" fill="#ffd336" opacity="0.8"></circle><circle cx="242" cy="272" r="3.870523866514775" fill="#5675c1" opacity="0.8"></circle><circle cx="154" cy="201" r="3.807519318042874" fill="#d14e5b" opacity="0.8"></circle><circle cx="137" cy="359" r="3.805842848656597" fill="#d14e5b" opacity="0.8"></circle><circle cx="210" cy="277" r="3.7622858773559646" fill="#69c487" opacity="0.8"></circle><circle cx="326" cy="199" r="3.747581050417208" fill="#ffd336" opacity="0.8"></circle><circle cx="194" cy="403" r="3.740197766241965" fill="#5675c1" opacity="0.8"></circle><circle cx="336" cy="302" r="3.7079117170992495" fill="#ffd336" opacity="0.8"></circle><circle cx="222" cy="391" r="3.5932322867159203" fill="#5675c1" opacity="0.8"></circle><circle cx="304" cy="237" r="3.565624126586861" fill="#69c487" opacity="0.8"></circle><circle cx="327" cy="225" r="3.4838327224099483" fill="#ffd336" opacity="0.8"></circle><circle cx="286" cy="268" r="3.4051208252799583" fill="#5675c1" opacity="0.8"></circle><circle cx="130" cy="365" r="3.362101424486157" fill="#5675c1" opacity="0.8"></circle><circle cx="148" cy="426" r="3.354229618186878" fill="#5675c1" opacity="0.8"></circle><circle cx="304" cy="180" r="3.348659952577497" fill="#4d824b" opacity="0.8"></circle><circle cx="320" cy="266" r="3.289312120501041" fill="#d14e5b" opacity="0.8"></circle><circle cx="158" cy="424" r="3.278392356071132" fill="#d14e5b" opacity="0.8"></circle><circle cx="258" cy="318" r="3.2753491804109864" fill="#5675c1" opacity="0.8"></circle><circle cx="133" cy="409" r="3.210915754166738" fill="#d14e5b" opacity="0.8"></circle><circle cx="291" cy="248" r="3.1724899360391876" fill="#69c487" opacity="0.8"></circle><circle cx="138" cy="284" r="3.1711232418795845" fill="#69c487" opacity="0.8"></circle><circle cx="213" cy="229" r="3.1511249134235118" fill="#d14e5b" opacity="0.8"></circle><circle cx="248" cy="168" r="3.1221750052507313" fill="#d14e5b" opacity="0.8"></circle><circle cx="219" cy="349" r="3.110082439150656" fill="#d14e5b" opacity="0.8"></circle><circle cx="182" cy="370" r="3.0031864060224844" fill="#5675c1" opacity="0.8"></circle><circle cx="247" cy="466" r="2.9625722029564123" fill="#5675c1" opacity="0.8"></circle><circle cx="257" cy="179" r="2.9098490350159985" fill="#a652ba" opacity="0.8"></circle><circle cx="259" cy="243" r="2.8624804927743357" fill="#ffd336" opacity="0.8"></circle><circle cx="113" cy="439" r="2.8575189336832207" fill="#5675c1" opacity="0.8"></circle><circle cx="186" cy="294" r="2.8464601433311802" fill="#d14e5b" opacity="0.8"></circle><circle cx="198" cy="393" r="2.8095593320752656" fill="#5675c1" opacity="0.8"></circle><circle cx="151" cy="387" r="2.8044552862064456" fill="#5675c1" opacity="0.8"></circle><circle cx="278" cy="328" r="2.787227897599187" fill="#5675c1" opacity="0.8"></circle><circle cx="161" cy="234" r="2.6868840539108736" fill="#69c487" opacity="0.8"></circle><circle cx="171" cy="433" r="2.6737235934915926" fill="#5675c1" opacity="0.8"></circle><circle cx="364" cy="172" r="2.660435670252362" fill="#ffd336" opacity="0.8"></circle><circle cx="156" cy="230" r="2.6402301589499886" fill="#d14e5b" opacity="0.8"></circle><circle cx="136" cy="479" r="2.634122427257224" fill="#5675c1" opacity="0.8"></circle><circle cx="175" cy="415" r="2.62391740085692" fill="#5675c1" opacity="0.8"></circle><circle cx="269" cy="459" r="2.603399109793026" fill="#5675c1" opacity="0.8"></circle><circle cx="136" cy="388" r="2.554629642239016" fill="#d14e5b" opacity="0.8"></circle><circle cx="173" cy="371" r="2.5163434155741182" fill="#5675c1" opacity="0.8"></circle><circle cx="210" cy="404" r="2.4832554303088976" fill="#5675c1" opacity="0.8"></circle><circle cx="252" cy="424" r="2.4826348600354917" fill="#5675c1" opacity="0.8"></circle><circle cx="184" cy="415" r="2.424067035178859" fill="#5675c1" opacity="0.8"></circle><circle cx="403" cy="215" r="2.41752402520337" fill="#ffd336" opacity="0.8"></circle><circle cx="190" cy="436" r="2.3958030446976686" fill="#5675c1" opacity="0.8"></circle><circle cx="400" cy="180" r="2.3865664130459296" fill="#ffd336" opacity="0.8"></circle><circle cx="372" cy="213" r="2.383409511357501" fill="#ffd336" opacity="0.8"></circle><circle cx="256" cy="287" r="2.3787146473193475" fill="#5675c1" opacity="0.8"></circle><circle cx="313" cy="207" r="2.3757751415046204" fill="#ffd336" opacity="0.8"></circle><circle cx="161" cy="448" r="2.3603458860783393" fill="#5675c1" opacity="0.8"></circle><circle cx="237" cy="429" r="2.3554851787145665" fill="#4d824b" opacity="0.8"></circle><circle cx="256" cy="332" r="2.353713421324444" fill="#69c487" opacity="0.8"></circle><circle cx="123" cy="278" r="2.352126850309915" fill="#4d824b" opacity="0.8"></circle><circle cx="370" cy="225" r="2.347645407840608" fill="#ffd336" opacity="0.8"></circle><circle cx="329" cy="268" r="2.342053225667308" fill="#ffd336" opacity="0.8"></circle><circle cx="260" cy="247" r="2.3273026762663482" fill="#ffd336" opacity="0.8"></circle><circle cx="352" cy="176" r="2.321331746571321" fill="#ffd336" opacity="0.8"></circle><circle cx="242" cy="253" r="2.3145357595785483" fill="#d14e5b" opacity="0.8"></circle><circle cx="151" cy="417" r="2.304100459852195" fill="#5675c1" opacity="0.8"></circle><circle cx="287" cy="482" r="2.2773154808523124" fill="#5675c1" opacity="0.8"></circle><circle cx="373" cy="175" r="2.2689958336860796" fill="#ffd336" opacity="0.8"></circle><circle cx="165" cy="154" r="2.2419085526036873" fill="#d14e5b" opacity="0.8"></circle><circle cx="184" cy="356" r="2.234791902376754" fill="#4d824b" opacity="0.8"></circle><circle cx="237" cy="157" r="2.2320173529594465" fill="#ffd336" opacity="0.8"></circle><circle cx="342" cy="203" r="2.2246977847176472" fill="#d14e5b" opacity="0.8"></circle><circle cx="243" cy="254" r="2.218589588112142" fill="#ffd336" opacity="0.8"></circle><circle cx="140" cy="165" r="2.2014505012351853" fill="#d14e5b" opacity="0.8"></circle><circle cx="208" cy="401" r="2.195687755673271" fill="#a652ba" opacity="0.8"></circle><circle cx="191" cy="402" r="2.1937234130616567" fill="#d14e5b" opacity="0.8"></circle><circle cx="132" cy="310" r="2.1718322068397438" fill="#69c487" opacity="0.8"></circle><circle cx="473" cy="279" r="2.163983746578086" fill="#5675c1" opacity="0.8"></circle><circle cx="247" cy="294" r="2.1589743823179104" fill="#d14e5b" opacity="0.8"></circle><circle cx="149" cy="353" r="2.1566913983750533" fill="#d14e5b" opacity="0.8"></circle><circle cx="171" cy="447" r="2.149456505382532" fill="#5675c1" opacity="0.8"></circle><circle cx="164" cy="446" r="2.140881184691658" fill="#5675c1" opacity="0.8"></circle><circle cx="249" cy="353" r="2.1338993860474473" fill="#4d824b" opacity="0.8"></circle><circle cx="404" cy="175" r="2.1175483408027227" fill="#ffd336" opacity="0.8"></circle><circle cx="279" cy="216" r="2.1119589355620523" fill="#ffd336" opacity="0.8"></circle><circle cx="256" cy="431" r="2.1088439947351043" fill="#5675c1" opacity="0.8"></circle><circle cx="262" cy="381" r="2.107585012360006" fill="#d14e5b" opacity="0.8"></circle><circle cx="388" cy="181" r="2.10715168194664" fill="#ffd336" opacity="0.8"></circle><circle cx="116" cy="135" r="2.096200789498976" fill="#d14e5b" opacity="0.8"></circle><circle cx="327" cy="149" r="2.0814742734543445" fill="#ffd336" opacity="0.8"></circle><circle cx="140" cy="266" r="2.07030647023122" fill="#4d824b" opacity="0.8"></circle><circle cx="353" cy="173" r="2.058936129091824" fill="#ffd336" opacity="0.8"></circle><circle cx="110" cy="470" r="2.0567221477426645" fill="#5675c1" opacity="0.8"></circle><circle cx="248" cy="198" r="2.052606158774786" fill="#a652ba" opacity="0.8"></circle><circle cx="315" cy="233" r="2.0515264577945223" fill="#ffd336" opacity="0.8"></circle><circle cx="211" cy="312" r="2.047730887527701" fill="#d14e5b" opacity="0.8"></circle><circle cx="276" cy="254" r="2.0437516658037436" fill="#d14e5b" opacity="0.8"></circle><circle cx="181" cy="337" r="2.036894450868975" fill="#5675c1" opacity="0.8"></circle><circle cx="220" cy="486" r="2.036252805790926" fill="#5675c1" opacity="0.8"></circle><circle cx="352" cy="289" r="2.0145265446813654" fill="#ffd336" opacity="0.8"></circle><circle cx="203" cy="248" r="2.0039910617547303" fill="#4d824b" opacity="0.8"></circle><circle cx="279" cy="354" r="2.00245474170462" fill="#ffd336" opacity="0.8"></circle><circle cx="208" cy="370" r="2.002260640627808" fill="#5675c1" opacity="0.8"></circle><circle cx="249" cy="244" r="1.9928053867475597" fill="#69c487" opacity="0.8"></circle><circle cx="283" cy="225" r="1.988545403855612" fill="#ffd336" opacity="0.8"></circle><circle cx="220" cy="286" r="1.9831583712528196" fill="#ffd336" opacity="0.8"></circle><circle cx="179" cy="315" r="1.9763219486643289" fill="#d14e5b" opacity="0.8"></circle><circle cx="269" cy="179" r="1.9612315260302016" fill="#d14e5b" opacity="0.8"></circle><circle cx="271" cy="132" r="1.959555356149688" fill="#d14e5b" opacity="0.8"></circle><circle cx="320" cy="297" r="1.9584853125110795" fill="#d14e5b" opacity="0.8"></circle><circle cx="268" cy="298" r="1.9298513117038165" fill="#5675c1" opacity="0.8"></circle><circle cx="282" cy="236" r="1.9249458314050638" fill="#ffd336" opacity="0.8"></circle><circle cx="453" cy="393" r="1.9219489718874139" fill="#5675c1" opacity="0.8"></circle><circle cx="223" cy="276" r="1.9140268959136535" fill="#ffd336" opacity="0.8"></circle><circle cx="342" cy="207" r="1.9122617806131021" fill="#ffd336" opacity="0.8"></circle><circle cx="224" cy="263" r="1.912000428845645" fill="#5675c1" opacity="0.8"></circle><circle cx="223" cy="93" r="1.9021478758612225" fill="#d14e5b" opacity="0.8"></circle><circle cx="206" cy="430" r="1.896364700966957" fill="#5675c1" opacity="0.8"></circle><circle cx="145" cy="433" r="1.882189538272852" fill="#5675c1" opacity="0.8"></circle><circle cx="177" cy="253" r="1.88139427114196" fill="#5675c1" opacity="0.8"></circle><circle cx="261" cy="202" r="1.8696794002509038" fill="#4d824b" opacity="0.8"></circle><circle cx="300" cy="220" r="1.869315833635698" fill="#ffd336" opacity="0.8"></circle><circle cx="223" cy="181" r="1.8682520593035048" fill="#d14e5b" opacity="0.8"></circle><circle cx="191" cy="249" r="1.8671914361793713" fill="#5675c1" opacity="0.8"></circle><circle cx="226" cy="311" r="1.8607137714972735" fill="#5675c1" opacity="0.8"></circle><circle cx="342" cy="197" r="1.8552534742583262" fill="#ffd336" opacity="0.8"></circle><circle cx="249" cy="387" r="1.8419074260465775" fill="#5675c1" opacity="0.8"></circle><circle cx="224" cy="310" r="1.839547102846159" fill="#a652ba" opacity="0.8"></circle><circle cx="155" cy="436" r="1.8322571589115608" fill="#5675c1" opacity="0.8"></circle><circle cx="281" cy="317" r="1.8312565231442024" fill="#d14e5b" opacity="0.8"></circle><circle cx="250" cy="194" r="1.830103416171529" fill="#5675c1" opacity="0.8"></circle><circle cx="319" cy="260" r="1.8244755085550286" fill="#ffd336" opacity="0.8"></circle><circle cx="364" cy="411" r="1.8193417029909649" fill="#a652ba" opacity="0.8"></circle><circle cx="193" cy="258" r="1.8178727162647408" fill="#69c487" opacity="0.8"></circle><circle cx="236" cy="327" r="1.8160171703024004" fill="#5675c1" opacity="0.8"></circle><circle cx="235" cy="128" r="1.8099130090009403" fill="#d14e5b" opacity="0.8"></circle><circle cx="352" cy="184" r="1.804635540696941" fill="#ffd336" opacity="0.8"></circle><circle cx="321" cy="280" r="1.8043578870893946" fill="#d14e5b" opacity="0.8"></circle><circle cx="174" cy="381" r="1.7995261591415708" fill="#a652ba" opacity="0.8"></circle><circle cx="350" cy="387" r="1.7945100025081742" fill="#5675c1" opacity="0.8"></circle><circle cx="229" cy="289" r="1.7906510856850026" fill="#4d824b" opacity="0.8"></circle><circle cx="207" cy="339" r="1.7903339721676554" fill="#a652ba" opacity="0.8"></circle><circle cx="656" cy="422" r="1.7901108619494974" fill="#a652ba" opacity="0.8"></circle><circle cx="271" cy="226" r="1.7891822000284578" fill="#5675c1" opacity="0.8"></circle><circle cx="652" cy="374" r="1.7841409589647148" fill="#a652ba" opacity="0.8"></circle><circle cx="231" cy="361" r="1.7834955755295845" fill="#d14e5b" opacity="0.8"></circle><text x="168" y="266.1587588384723" font-size="14.3" font-family="Arial Narrow, Arial, sans-serif" fill="#666">China</text><text x="221" y="327.8680251918411" font-size="14.040239240301434" font-family="Arial Narrow, Arial, sans-serif" fill="#666">India</text><text x="308" y="156.25951508478897" font-size="11.766684509540296" font-family="Arial Narrow, Arial, sans-serif" fill="#666">United States</text><text x="135" y="288.26379519827765" font-size="11.59340251258209" font-family="Arial Narrow, Arial, sans-serif" fill="#666">Indonesia</text><text x="305" y="248.9879561093994" font-size="11.481560712352698" font-family="Arial Narrow, Arial, sans-serif" fill="#666">Brazil</text><text x="158" y="344.32820302426745" font-size="11.43280440243372" font-family="Arial Narrow, Arial, sans-serif" fill="#666">Pakistan</text><text x="122" y="383.8053332361657" font-size="11.36851716917558" font-family="Arial Narrow, Arial, sans-serif" fill="#666">Bangladesh</text><text x="260" y="213.95160815311183" font-size="11.349763406891489" font-family="Arial Narrow, Arial, sans-serif" fill="#666">Russia</text><text x="290" y="184.27616225350977" font-size="11.309752864218083" font-family="Arial Narrow, Arial, sans-serif" fill="#666">Japan</text><text x="194" y="245.52046042997895" font-size="11.281091437439574" font-family="Arial Narrow, Arial, sans-serif" fill="#666">Mexico</text><text x="141" y="323.9639236189658" font-size="11.232257593584624" font-family="Arial Narrow, Arial, sans-serif" fill="#666">Philippines</text><text x="225" y="339.10664507601064" font-size="11.217417307802425" font-family="Arial Narrow, Arial, sans-serif" fill="#666">Vietnam</text><text x="127" y="445.2045835770368" font-size="11.207480411047698" font-family="Arial Narrow, Arial, sans-serif" fill="#666">Ethiopia</text><text x="262" y="283.25846715374246" font-size="11.202099020566374" font-family="Arial Narrow, Arial, sans-serif" fill="#666">Egypt</text><text x="332" y="172.26770528657246" font-size="11.201182508270195" font-family="Arial Narrow, Arial, sans-serif" fill="#666">Germany</text><text x="172" y="238.4532915865798" font-size="11.183149181494262" font-family="Arial Narrow, Arial, sans-serif" fill="#666">Iran</text><text x="262" y="230.4831954005989" font-size="11.180310924193657" font-family="Arial Narrow, Arial, sans-serif" fill="#666">Turkey</text><text x="221" y="492.6381185470546" font-size="11.165906575482689" font-family="Arial Narrow, Arial, sans-serif" fill="#666">Democratic Republic of Congo</text><text x="414" y="182.76409540723085" font-size="11.154564147474439" font-family="Arial Narrow, Arial, sans-serif" fill="#666">France</text><text x="386" y="184.8291089711389" font-size="11.148840629103065" font-family="Arial Narrow, Arial, sans-serif" fill="#666">Italy</text><text x="242" y="267.12947613348524" font-size="11.123546860585732" font-family="Arial Narrow, Arial, sans-serif" fill="#666">South Africa</text><text x="154" y="196.19248068195714" font-size="11.118481025215987" font-family="Arial Narrow, Arial, sans-serif" fill="#666">South Korea</text><text x="326" y="194.2524189495828" font-size="11.11373889972257" font-family="Arial Narrow, Arial, sans-serif" fill="#666">Spain</text><text x="194" y="398.259802233758" font-size="11.113159962851674" font-family="Arial Narrow, Arial, sans-serif" fill="#666">Tanzania</text><text x="336" y="297.29208828290075" font-size="11.110641766598725" font-family="Arial Narrow, Arial, sans-serif" fill="#666">Ukraine</text><text x="222" y="386.40676771328407" font-size="11.101873675378537" font-family="Arial Narrow, Arial, sans-serif" fill="#666">Kenya</text><text x="304" y="232.43437587341313" font-size="11.099803964249245" font-family="Arial Narrow, Arial, sans-serif" fill="#666">Argentina</text><text x="327" y="220.51616727759006" font-size="11.093765980517137" font-family="Arial Narrow, Arial, sans-serif" fill="#666">Poland</text><text x="130" y="360.6378985755138" font-size="11.085039008412547" font-family="Arial Narrow, Arial, sans-serif" fill="#666">Sudan</text><text x="148" y="421.6457703818131" font-size="11.084485358659014" font-family="Arial Narrow, Arial, sans-serif" fill="#666">Uganda</text><text x="320" y="261.71068787949895" font-size="11.079968983012025" font-family="Arial Narrow, Arial, sans-serif" fill="#666">Iraq</text><text x="258" y="313.724650819589" font-size="11.079009101081086" font-family="Arial Narrow, Arial, sans-serif" fill="#666">Morocco</text><text x="133" y="404.78908424583324" font-size="11.074632524549816" font-family="Arial Narrow, Arial, sans-serif" fill="#666">Nepal</text><text x="213" y="224.8488750865765" font-size="11.070649071350395" font-family="Arial Narrow, Arial, sans-serif" fill="#666">Malaysia</text><text x="182" y="365.99681359397744" font-size="11.06111476039328" font-family="Arial Narrow, Arial, sans-serif" fill="#666">Ghana</text><text x="247" y="462.03742779704356" font-size="11.058577457991806" font-family="Arial Narrow, Arial, sans-serif" fill="#666">Mozambique</text><text x="186" y="290.15353985666883" font-size="11.051514124016188" font-family="Arial Narrow, Arial, sans-serif" fill="#666">Sri Lanka</text><text x="136" y="475.36587757274276" font-size="11.039327526025724" font-family="Arial Narrow, Arial, sans-serif" fill="#666">Niger</text><text x="252" y="420.5173651399645" font-size="11.031210434818277" font-family="Arial Narrow, Arial, sans-serif" fill="#666">Zimbabwe</text><text x="403" y="211.58247597479664" font-size="11.027869315051277" font-family="Arial Narrow, Arial, sans-serif" fill="#666">Greece</text><text x="190" y="432.6041969553023" font-size="11.026774468090386" font-family="Arial Narrow, Arial, sans-serif" fill="#666">Rwanda</text><text x="260" y="243.67269732373364" font-size="11.023386422917334" font-family="Arial Narrow, Arial, sans-serif" fill="#666">Belarus</text><text x="287" y="478.72268451914766" font-size="11.020976067918243" font-family="Arial Narrow, Arial, sans-serif" fill="#666">Burundi</text><text x="165" y="150.7580914473963" font-size="11.019300427836702" font-family="Arial Narrow, Arial, sans-serif" fill="#666">United Arab Emirates</text><text x="140" y="161.79854949876483" font-size="11.017417884476162" font-family="Arial Narrow, Arial, sans-serif" fill="#666">Hong Kong</text><text x="132" y="306.8281677931603" font-size="11.016061458130386" font-family="Arial Narrow, Arial, sans-serif" fill="#666">Paraguay</text><text x="473" y="275.8360162534219" font-size="11.01570510225739" font-family="Arial Narrow, Arial, sans-serif" fill="#666">Libya</text><text x="171" y="443.85054349461745" font-size="11.015048903276012" font-family="Arial Narrow, Arial, sans-serif" fill="#666">Togo</text><text x="262" y="377.89241498764" font-size="11.013182287419959" font-family="Arial Narrow, Arial, sans-serif" fill="#666">Kyrgyzstan</text><text x="116" y="131.90379921050103" font-size="11.012681131821743" font-family="Arial Narrow, Arial, sans-serif" fill="#666">Singapore</text><text x="211" y="308.9522691124723" font-size="11.01057777310456" font-family="Arial Narrow, Arial, sans-serif" fill="#666">Georgia</text><text x="352" y="285.98547345531864" font-size="11.009165264996751" font-family="Arial Narrow, Arial, sans-serif" fill="#666">Bosnia and Herzegovina</text><text x="279" y="350.99754525829536" font-size="11.008657455796186" font-family="Arial Narrow, Arial, sans-serif" fill="#666">Moldova</text><text x="271" y="129.04044464385032" font-size="11.006877557169743" font-family="Arial Narrow, Arial, sans-serif" fill="#666">Kuwait</text><text x="268" y="295.0701486882962" font-size="11.005667718230349" font-family="Arial Narrow, Arial, sans-serif" fill="#666">Namibia</text><text x="453" y="390.0780510281126" font-size="11.00534896978146" font-family="Arial Narrow, Arial, sans-serif" fill="#666">Lesotho</text><text x="223" y="104.90455601808898" font-size="11.004556018088971" font-family="Arial Narrow, Arial, sans-serif" fill="#666">Qatar</text><text x="223" y="178.1317479406965" font-size="11.003217691402739" font-family="Arial Narrow, Arial, sans-serif" fill="#666">Bahrain</text><text x="364" y="408.180658297009" font-size="11.00132894993121" font-family="Arial Narrow, Arial, sans-serif" fill="#666">Solomon Islands</text><text x="235" y="125.19008699099906" font-size="11.00097060801791" font-family="Arial Narrow, Arial, sans-serif" fill="#666">Brunei</text><text x="656" y="419.2098891380505" font-size="11.000224079711424" font-family="Arial Narrow, Arial, sans-serif" fill="#666">Kiribati</text><text x="652" y="371.2158590410353" font-size="11.000000629361724" font-family="Arial Narrow, Arial, sans-serif" fill="#666">Tuvalu</text><text x="231" y="358.21650442447043" font-size="10.999976517705948" font-family="Arial Narrow, Arial, sans-serif" fill="#666">Yemen</text></g><g style="cursor: pointer;" class="ScatterColorLegend clickable"><g class="legendMark"><rect x="735" y="91.4" width="43.256" height="17.6" fill="#fff" opacity="0"></rect>,<rect x="735" y="96.9" width="6" height="6" fill="#5675c1"></rect>,<text font-size="12.60" x="746.0" y="104.0"><tspan x="746" y="103.98">Africa</tspan></text></g><g class="legendMark"><rect x="735" y="109" width="35.57" height="17.6" fill="#fff" opacity="0"></rect>,<rect x="735" y="114.5" width="6" height="6" fill="#d14e5b"></rect>,<text font-size="12.60" x="746.0" y="121.6"><tspan x="746" y="121.58">Asia</tspan></text></g><g class="legendMark"><rect x="735" y="126.60000000000002" width="51.824" height="17.6" fill="#fff" opacity="0"></rect>,<rect x="735" y="132.10000000000002" width="6" height="6" fill="#ffd336"></rect>,<text font-size="12.60" x="746.0" y="139.2"><tspan x="746" y="139.18">Europe</tspan></text></g><g class="legendMark"><rect x="735" y="144.20000000000002" width="91.64" height="17.6" fill="#fff" opacity="0"></rect>,<rect x="735" y="149.70000000000002" width="6" height="6" fill="#4d824b"></rect>,<text font-size="12.60" x="746.0" y="156.8"><tspan x="746" y="156.78">North America</tspan></text></g><g class="legendMark"><rect x="735" y="161.8" width="58.124" height="17.6" fill="#fff" opacity="0"></rect>,<rect x="735" y="167.3" width="6" height="6" fill="#a652ba"></rect>,<text font-size="12.60" x="746.0" y="174.4"><tspan x="746" y="174.38">Oceania</tspan></text></g><g class="legendMark"><rect x="735" y="179.4" width="93.908" height="17.6" fill="#fff" opacity="0"></rect>,<rect x="735" y="184.9" width="6" height="6" fill="#69c487"></rect>,<text font-size="12.60" x="746.0" y="192.0"><tspan x="746" y="191.98">South America</tspan></text></g></g></g><g style="fill: #777;" class="SourcesFooter"><g style="fill: #777;" class="clickable"><text font-size="12.60" x="15.0" y="567.0"><tspan x="15" y="566.98">Source: IMF Fiscal Affairs Departmental Data, based on Mauro et al. (2015), World Bank – WDI</tspan></text></g><text font-size="12.60" x="15.0" y="582.5"><tspan x="15" y="582.48"><a target='_blank' style='fill: #777;' href='https://ourworldindata.org/public-spending/'>OurWorldInData.org/public-spending/</a> • <a style="fill: #777;" href="http://creativecommons.org/licenses/by-sa/4.0/deed.en_US" target="_blank">CC BY-SA</a></tspan></text></g></g></svg>