<svg xmlns="http://www.w3.org/2000/svg" version="1.1" style="font-family: 'Helvetica Neue', Helvetica, Arial, sans-serif; font-size: 18px; background-color: white; text-rendering: optimizeLegibility; -webkit-font-smoothing: antialiased;" width="850" height="600"><g class="ChartTab"><g class="HeaderView"><g opacity="0.8" transform="translate(770, 15) scale(0.31)"><a xmlns:xlink="http://www.w3.org/1999/xlink" xlink:href="https://ourworldindata.org" target="_blank"><g><rect x="0" y="0" fill="#1B2543" width="211.2" height="130.1"/><rect x="0" y="112.2" fill="#E63912" width="211.2" height="17.9"/><g><rect x="1.2" y="12.3" fill="none" width="210.2" height="99.2"/><path fill="#FFFFFF" d="M37.8,32.2c0,12.7-7.7,19.4-17.1,19.4c-9.7,0-16.6-7.5-16.6-18.7c0-11.7,7.3-19.3,17.1-19.3 C31.3,13.7,37.8,21.3,37.8,32.2z M9.2,32.8c0,7.9,4.3,14.9,11.8,14.9c7.5,0,11.8-6.9,11.8-15.3c0-7.3-3.8-14.9-11.8-14.9 C13.1,17.5,9.2,24.8,9.2,32.8z"/><path fill="#FFFFFF" d="M62.7,43.8c0,2.7,0.1,5.1,0.2,7.2h-4.3l-0.3-4.3h-0.1c-1.3,2.1-4,4.9-8.8,4.9c-4.2,0-9.1-2.3-9.1-11.6 V24.6h4.8v14.6c0,5,1.5,8.4,5.9,8.4c3.2,0,5.5-2.2,6.3-4.4c0.3-0.7,0.4-1.6,0.4-2.5V24.6h4.8V43.8z"/><path fill="#FFFFFF" d="M67.3,32.8c0-3.1-0.1-5.8-0.2-8.2h4.2l0.2,5.2h0.2c1.2-3.5,4.1-5.8,7.3-5.8c0.5,0,0.9,0.1,1.4,0.2v4.5 c-0.5-0.1-1-0.2-1.6-0.2c-3.4,0-5.8,2.6-6.5,6.2c-0.1,0.7-0.2,1.4-0.2,2.2V51h-4.8V32.8z"/><path fill="#FFFFFF" d="M95.4,51l-9.4-36.8h5l4.4,18.6c1.1,4.6,2.1,9.2,2.7,12.7h0.1c0.6-3.7,1.8-8,3-12.8l4.9-18.5h5l4.5,18.7 c1,4.4,2,8.7,2.6,12.6h0.1c0.8-4,1.8-8.1,3-12.7l4.9-18.5h4.9L120.6,51h-5L111,31.9c-1.1-4.7-1.9-8.3-2.4-12h-0.1 c-0.7,3.7-1.5,7.3-2.8,12L100.4,51H95.4z"/><path fill="#FFFFFF" d="M154.9,37.6c0,9.8-6.8,14-13.2,14c-7.2,0-12.7-5.2-12.7-13.6c0-8.8,5.8-14,13.1-14 C149.8,24,154.9,29.5,154.9,37.6z M133.9,37.9c0,5.8,3.3,10.1,8,10.1c4.6,0,8-4.3,8-10.3c0-4.5-2.2-10.1-7.9-10.1 C136.3,27.6,133.9,32.8,133.9,37.9z"/><path fill="#FFFFFF" d="M158.2,32.8c0-3.1-0.1-5.8-0.2-8.2h4.2l0.2,5.2h0.2c1.2-3.5,4.1-5.8,7.3-5.8c0.5,0,0.9,0.1,1.4,0.2v4.5 c-0.5-0.1-1-0.2-1.6-0.2c-3.4,0-5.8,2.6-6.5,6.2c-0.1,0.7-0.2,1.4-0.2,2.2V51h-4.8V32.8z"/><path fill="#FFFFFF" d="M173.5,12.3h4.8V51h-4.8V12.3z"/><path fill="#FFFFFF" d="M206.5,12.3v31.9c0,2.3,0.1,5,0.2,6.8h-4.3l-0.2-4.6H202c-1.5,2.9-4.7,5.2-9,5.2 c-6.4,0-11.3-5.4-11.3-13.4c-0.1-8.8,5.4-14.2,11.9-14.2c4,0,6.8,1.9,8,4h0.1V12.3H206.5z M201.7,35.4c0-0.6-0.1-1.4-0.2-2 c-0.7-3.1-3.3-5.6-6.9-5.6c-5,0-7.9,4.4-7.9,10.2c0,5.3,2.6,9.8,7.8,9.8c3.2,0,6.2-2.1,7.1-5.7c0.2-0.7,0.2-1.3,0.2-2.1V35.4z"/><path fill="#FFFFFF" d="M42.8,64c0.1,1.6-1.1,2.9-3.1,2.9c-1.7,0-2.9-1.3-2.9-2.9c0-1.7,1.3-3,3-3C41.7,61,42.8,62.3,42.8,64z M37.4,97.8V71.4h4.8v26.4H37.4z"/><path fill="#FFFFFF" d="M47.5,78.6c0-2.7-0.1-5-0.2-7.1h4.3l0.3,4.4h0.1c1.3-2.5,4.4-5,8.8-5c3.7,0,9.4,2.2,9.4,11.2v15.8h-4.8 V82.6c0-4.3-1.6-7.8-6.1-7.8c-3.2,0-5.6,2.2-6.5,4.9c-0.2,0.6-0.3,1.4-0.3,2.2v15.9h-4.8V78.6z"/><path fill="#FFFFFF" d="M84,61.6c2.9-0.4,6.3-0.8,10.1-0.8c6.8,0,11.7,1.6,14.9,4.6c3.3,3,5.2,7.3,5.2,13.2c0,6-1.9,10.9-5.3,14.3 c-3.4,3.4-9.1,5.3-16.3,5.3c-3.4,0-6.2-0.2-8.6-0.4V61.6z M88.8,94.1c1.2,0.2,3,0.3,4.8,0.3c10.2,0,15.7-5.7,15.7-15.6 c0.1-8.7-4.9-14.2-14.9-14.2c-2.5,0-4.3,0.2-5.6,0.5V94.1z"/><path fill="#FFFFFF" d="M132.1,97.8l-0.4-3.3h-0.2c-1.5,2.1-4.3,3.9-8.1,3.9c-5.4,0-8.1-3.8-8.1-7.6c0-6.4,5.7-9.9,15.9-9.8v-0.5 c0-2.2-0.6-6.1-6-6.1c-2.5,0-5,0.8-6.9,2l-1.1-3.2c2.2-1.4,5.4-2.3,8.7-2.3c8.1,0,10.1,5.5,10.1,10.8v9.9c0,2.3,0.1,4.5,0.4,6.3 H132.1z M131.4,84.4c-5.3-0.1-11.2,0.8-11.2,5.9c0,3.1,2.1,4.6,4.5,4.6c3.4,0,5.6-2.2,6.4-4.4c0.2-0.5,0.3-1,0.3-1.5V84.4z"/><path fill="#FFFFFF" d="M146.6,63.9v7.6h6.9v3.7h-6.9v14.2c0,3.3,0.9,5.1,3.6,5.1c1.3,0,2.2-0.2,2.8-0.3l0.2,3.6 c-0.9,0.4-2.4,0.7-4.3,0.7c-2.2,0-4-0.7-5.2-2c-1.4-1.4-1.9-3.8-1.9-6.9V75.1h-4.1v-3.7h4.1v-6.3L146.6,63.9z"/><path fill="#FFFFFF" d="M171.4,97.8l-0.4-3.3h-0.2c-1.5,2.1-4.3,3.9-8.1,3.9c-5.4,0-8.1-3.8-8.1-7.6c0-6.4,5.7-9.9,15.9-9.8v-0.5 c0-2.2-0.6-6.1-6-6.1c-2.5,0-5,0.8-6.9,2l-1.1-3.2c2.2-1.4,5.4-2.3,8.7-2.3c8.1,0,10.1,5.5,10.1,10.8v9.9c0,2.3,0.1,4.5,0.4,6.3 H171.4z M170.7,84.4c-5.3-0.1-11.2,0.8-11.2,5.9c0,3.1,2.1,4.6,4.5,4.6c3.4,0,5.6-2.2,6.4-4.4c0.2-0.5,0.3-1,0.3-1.5V84.4z"/></g></g></a></g><a href="https://ourworldindata.org/grapher/countries-that-applied-for-accreditation-in-paris-principles" target="_blank"><text font-size="21.60" x="15.0" y="32.3" fill="#555"><tspan x="15" y="32.279999999999994">Proportion of countries that applied for accreditation as independent National</tspan><tspan x="15" y="53.87999999999999">Human Rights Institutions in compliance with Paris Principles</tspan></text></a><text font-size="14.40" x="15.0" y="72.7" fill="#666"><tspan x="15" y="72.72">The share of countries which applied for accreditation in compliance with the Paris 
Principles measures the compliance of</tspan><tspan x="15" y="88.56">existing national human rights institutions with the Principles 
relating to the Status of National Institutions (The Paris Principles).</tspan></text></g><g class="LineChart"><defs><clipPath id="boundsClip-1"><rect x="51.634" y="0" width="830" height="890.8"></rect></clipPath></defs><g class="AxisBoxView"><g class="HorizontalAxis"><text x="61.6" y="556.5" fill="#666" text-anchor="middle" font-size="16.2">2000</text><text x="124.6" y="556.5" fill="#666" text-anchor="middle" font-size="16.2">2002</text><text x="187.5" y="556.5" fill="#666" text-anchor="middle" font-size="16.2">2004</text><text x="250.4" y="556.5" fill="#666" text-anchor="middle" font-size="16.2">2006</text><text x="313.3" y="556.5" fill="#666" text-anchor="middle" font-size="16.2">2008</text><text x="376.3" y="556.5" fill="#666" text-anchor="middle" font-size="16.2">2010</text><text x="439.2" y="556.5" fill="#666" text-anchor="middle" font-size="16.2">2012</text><text x="502.1" y="556.5" fill="#666" text-anchor="middle" font-size="16.2">2014</text><text x="565.1" y="556.5" fill="#666" text-anchor="middle" font-size="16.2">2016</text></g><g class="VerticalAxis"><text x="56.63" y="535.3" fill="#666" dominant-baseline="middle" text-anchor="end" font-size="16.2">0%</text><text x="56.63" y="450.5" fill="#666" dominant-baseline="middle" text-anchor="end" font-size="16.2">20%</text><text x="56.63" y="365.6" fill="#666" dominant-baseline="middle" text-anchor="end" font-size="16.2">40%</text><text x="56.63" y="280.8" fill="#666" dominant-baseline="middle" text-anchor="end" font-size="16.2">60%</text><text x="56.63" y="195.9" fill="#666" dominant-baseline="middle" text-anchor="end" font-size="16.2">80%</text><text x="56.63" y="111.1" fill="#666" dominant-baseline="middle" text-anchor="end" font-size="16.2">100%</text></g><g class="AxisGridLines"><line x1="61.63" y1="535.3" x2="565.06" y2="535.3" stroke="#ccc"></line><line x1="61.63" y1="450.5" x2="565.06" y2="450.5" stroke="#ddd" stroke-dasharray="3,2"></line><line x1="61.63" y1="365.6" x2="565.06" y2="365.6" stroke="#ddd" stroke-dasharray="3,2"></line><line x1="61.63" y1="280.8" x2="565.06" y2="280.8" stroke="#ddd" stroke-dasharray="3,2"></line><line x1="61.63" y1="195.9" x2="565.06" y2="195.9" stroke="#ddd" stroke-dasharray="3,2"></line><line x1="61.63" y1="111.1" x2="565.06" y2="111.1" stroke="#ddd" stroke-dasharray="3,2"></line></g><g class="AxisGridLines"><line x1="61.6" y1="535.30" x2="61.6" y2="111.10" stroke="#ddd" stroke-dasharray="3,2"></line><line x1="124.6" y1="535.30" x2="124.6" y2="111.10" stroke="#ddd" stroke-dasharray="3,2"></line><line x1="187.5" y1="535.30" x2="187.5" y2="111.10" stroke="#ddd" stroke-dasharray="3,2"></line><line x1="250.4" y1="535.30" x2="250.4" y2="111.10" stroke="#ddd" stroke-dasharray="3,2"></line><line x1="313.3" y1="535.30" x2="313.3" y2="111.10" stroke="#ddd" stroke-dasharray="3,2"></line><line x1="376.3" y1="535.30" x2="376.3" y2="111.10" stroke="#ddd" stroke-dasharray="3,2"></line><line x1="439.2" y1="535.30" x2="439.2" y2="111.10" stroke="#ddd" stroke-dasharray="3,2"></line><line x1="502.1" y1="535.30" x2="502.1" y2="111.10" stroke="#ddd" stroke-dasharray="3,2"></line><line x1="565.1" y1="535.30" x2="565.1" y2="111.10" stroke="#ddd" stroke-dasharray="3,2"></line></g></g><g clip-path="url(#boundsClip-1)"><g class="HeightedLegend clickable"><g class="legendMark"><rect x="575.056" y="485.15000000000003" width="259.944" height="29.900000000000002" fill="#fff" opacity="0"></rect><rect x="575.056" y="498.85" width="10" height="2.5" fill="#3360a9"></rect><text font-size="14.40" x="590.1" y="496.7" fill="#333"><tspan x="590.056" y="496.67">Oceania (excluding Australia and New</tspan><tspan x="590.056" y="512.51">Zealand)</tspan></text></g><g class="legendMark"><rect x="575.056" y="470.75000000000006" width="68.85600000000001" height="14.4" fill="#fff" opacity="0"></rect><rect x="575.056" y="476.70000000000005" width="10" height="2.5" fill="#ca2628"></rect><text font-size="14.40" x="590.1" y="482.3" fill="#333"><tspan x="590.056" y="482.27000000000004">Oceania</tspan></text></g><g class="legendMark"><rect x="575.056" y="438.6" width="211.848" height="14.4" fill="#fff" opacity="0"></rect><rect x="575.056" y="444.55" width="10" height="2.5" fill="#34983f"></rect><text font-size="14.40" x="590.1" y="450.1" fill="#333"><tspan x="590.056" y="450.12">Small island developing States</tspan></text></g><g class="legendMark"><rect x="575.056" y="342.3" width="183.912" height="14.4" fill="#fff" opacity="0"></rect><rect x="575.056" y="348.25" width="10" height="2.5" fill="#f6a324"></rect><text font-size="14.40" x="590.1" y="353.8" fill="#333"><tspan x="590.056" y="353.82">Least developed countries</tspan></text></g><g class="legendMark"><rect x="575.056" y="316" width="141.144" height="14.4" fill="#fff" opacity="0"></rect><rect x="575.056" y="321.95" width="10" height="2.5" fill="#a652ba"></rect><text font-size="14.40" x="590.1" y="327.5" fill="#333"><tspan x="590.056" y="327.52">Sub-Saharan Africa</tspan></text></g><g class="legendMark"><rect x="575.056" y="301.6" width="226.39200000000002" height="14.4" fill="#fff" opacity="0"></rect><rect x="575.056" y="307.55" width="10" height="2.5" fill="#e6332e"></rect><text font-size="14.40" x="590.1" y="313.1" fill="#333"><tspan x="590.056" y="313.12">Latin America and the Caribbean</tspan></text></g><g class="legendMark"><rect x="575.056" y="287.20000000000005" width="221.64000000000001" height="14.4" fill="#fff" opacity="0"></rect><rect x="575.056" y="293.15000000000003" width="10" height="2.5" fill="#2a939b"></rect><text font-size="14.40" x="590.1" y="298.7" fill="#333"><tspan x="590.056" y="298.72">Eastern and South-Eastern Asia</tspan></text></g><g class="legendMark"><rect x="575.056" y="272.80000000000007" width="139.56" height="14.4" fill="#fff" opacity="0"></rect><rect x="575.056" y="278.75000000000006" width="10" height="2.5" fill="#9ecc8a"></rect><text font-size="14.40" x="590.1" y="284.3" fill="#333"><tspan x="590.056" y="284.32000000000005">South-Eastern Asia</tspan></text></g><g class="legendMark"><rect x="575.056" y="258.4000000000001" width="52.584" height="14.4" fill="#fff" opacity="0"></rect><rect x="575.056" y="264.3500000000001" width="10" height="2.5" fill="#ffd53e"></rect><text font-size="14.40" x="590.1" y="269.9" fill="#333"><tspan x="590.056" y="269.9200000000001">World</tspan></text></g><g class="legendMark"><rect x="575.056" y="244.0000000000001" width="225.67200000000003" height="14.4" fill="#fff" opacity="0"></rect><rect x="575.056" y="249.9500000000001" width="10" height="2.5" fill="#b077b1"></rect><text font-size="14.40" x="590.1" y="255.5" fill="#333"><tspan x="590.056" y="255.5200000000001">Landlocked developing countries</tspan></text></g><g class="legendMark"><rect x="575.056" y="229.60000000000014" width="230.13600000000002" height="14.4" fill="#fff" opacity="0"></rect><rect x="575.056" y="235.55000000000013" width="10" height="2.5" fill="#7ec7ce"></rect><text font-size="14.40" x="590.1" y="241.1" fill="#333"><tspan x="590.056" y="241.12000000000015">Northern Africa and Western Asia</tspan></text></g><g class="legendMark"><rect x="575.056" y="215.20000000000013" width="206.95200000000003" height="14.4" fill="#fff" opacity="0"></rect><rect x="575.056" y="221.15000000000012" width="10" height="2.5" fill="#e6332e"></rect><text font-size="14.40" x="590.1" y="226.7" fill="#333"><tspan x="590.056" y="226.72000000000014">Europe and Northern America</tspan></text></g><g class="legendMark"><rect x="575.056" y="200.80000000000013" width="184.63200000000003" height="14.4" fill="#fff" opacity="0"></rect><rect x="575.056" y="206.7500000000001" width="10" height="2.5" fill="#6bb537"></rect><text font-size="14.40" x="590.1" y="212.3" fill="#333"><tspan x="590.056" y="212.32000000000014">Central and Southern Asia</tspan></text></g><g class="legendMark"><rect x="575.056" y="186.40000000000012" width="105.864" height="14.4" fill="#fff" opacity="0"></rect><rect x="575.056" y="192.3500000000001" width="10" height="2.5" fill="#f07f59"></rect><text font-size="14.40" x="590.1" y="197.9" fill="#333"><tspan x="590.056" y="197.92000000000013">Southern Asia</tspan></text></g><g class="legendMark"><rect x="575.056" y="103.89999999999999" width="188.52" height="14.4" fill="#fff" opacity="0"></rect><rect x="575.056" y="109.85" width="10" height="2.5" fill="#ce8ebd"></rect><text font-size="14.40" x="590.1" y="115.4" fill="#333"><tspan x="590.056" y="115.42">Australia and New Zealand</tspan></text></g></g><g class="Lines"><rect x="62" y="111" width="503" height="424" fill="rgba(255,255,255,0)" opacity="0"></rect><g class="key-Eastern-and-South__002dEastern-Asia_0"><path stroke="#2a939b" stroke-linecap="round" d="M62 460L219 361L376 336L534 311L565 311" fill="none" stroke-width="1.5"></path><g fill="#2a939b"><circle cx="62" cy="460" r="2"></circle><circle cx="219" cy="361" r="2"></circle><circle cx="376" cy="336" r="2"></circle><circle cx="534" cy="311" r="2"></circle><circle cx="565" cy="311" r="2"></circle></g></g><g class="key-Southern-Asia_0"><path stroke="#f07f59" stroke-linecap="round" d="M62 394L219 347L376 252L534 205L565 205" fill="none" stroke-width="1.5"></path><g fill="#f07f59"><circle cx="62" cy="394" r="2"></circle><circle cx="219" cy="347" r="2"></circle><circle cx="376" cy="252" r="2"></circle><circle cx="534" cy="205" r="2"></circle><circle cx="565" cy="205" r="2"></circle></g></g><g class="key-Northern-Africa-and-Western-Asia_0"><path stroke="#7ec7ce" stroke-linecap="round" d="M62 500L219 482L376 359L534 288L565 270" fill="none" stroke-width="1.5"></path><g fill="#7ec7ce"><circle cx="62" cy="500" r="2"></circle><circle cx="219" cy="482" r="2"></circle><circle cx="376" cy="359" r="2"></circle><circle cx="534" cy="288" r="2"></circle><circle cx="565" cy="270" r="2"></circle></g></g><g class="key-World_0"><path stroke="#ffd53e" stroke-linecap="round" d="M62 445L219 385L376 344L534 305L565 292" fill="none" stroke-width="1.5"></path><g fill="#ffd53e"><circle cx="62" cy="445" r="2"></circle><circle cx="219" cy="385" r="2"></circle><circle cx="376" cy="344" r="2"></circle><circle cx="534" cy="305" r="2"></circle><circle cx="565" cy="292" r="2"></circle></g></g><g class="key-Australia-and-New-Zealand_0"><path stroke="#ce8ebd" stroke-linecap="round" d="M62 111L219 111L376 111L534 111L565 111" fill="none" stroke-width="1.5"></path><g fill="#ce8ebd"><circle cx="62" cy="111" r="2"></circle><circle cx="219" cy="111" r="2"></circle><circle cx="376" cy="111" r="2"></circle><circle cx="534" cy="111" r="2"></circle><circle cx="565" cy="111" r="2"></circle></g></g><g class="key-Central-and-Southern-Asia_0"><path stroke="#6bb537" stroke-linecap="round" d="M62 444L219 414L376 354L534 232L565 232" fill="none" stroke-width="1.5"></path><g fill="#6bb537"><circle cx="62" cy="444" r="2"></circle><circle cx="219" cy="414" r="2"></circle><circle cx="376" cy="354" r="2"></circle><circle cx="534" cy="232" r="2"></circle><circle cx="565" cy="232" r="2"></circle></g></g><g class="key-Europe-and-Northern-America_0"><path stroke="#e6332e" stroke-linecap="round" d="M62 415L219 351L376 296L534 249L565 240" fill="none" stroke-width="1.5"></path><g fill="#e6332e"><circle cx="62" cy="415" r="2"></circle><circle cx="219" cy="351" r="2"></circle><circle cx="376" cy="296" r="2"></circle><circle cx="534" cy="249" r="2"></circle><circle cx="565" cy="240" r="2"></circle></g></g><g class="key-Landlocked-developing-countries_0"><path stroke="#b077b1" stroke-linecap="round" d="M62 482L219 389L376 350L534 283L565 283" fill="none" stroke-width="1.5"></path><g fill="#b077b1"><circle cx="62" cy="482" r="2"></circle><circle cx="219" cy="389" r="2"></circle><circle cx="376" cy="350" r="2"></circle><circle cx="534" cy="283" r="2"></circle><circle cx="565" cy="283" r="2"></circle></g></g><g class="key-Latin-America-and-the-Caribbean_0"><path stroke="#e6332e" stroke-linecap="round" d="M62 423L219 361L376 323L534 311L565 311" fill="none" stroke-width="1.5"></path><g fill="#e6332e"><circle cx="62" cy="423" r="2"></circle><circle cx="219" cy="361" r="2"></circle><circle cx="376" cy="323" r="2"></circle><circle cx="534" cy="311" r="2"></circle><circle cx="565" cy="311" r="2"></circle></g></g><g class="key-Least-developed-countries_0"><path stroke="#f6a324" stroke-linecap="round" d="M62 482L219 420L376 403L534 350L565 350" fill="none" stroke-width="1.5"></path><g fill="#f6a324"><circle cx="62" cy="482" r="2"></circle><circle cx="219" cy="420" r="2"></circle><circle cx="376" cy="403" r="2"></circle><circle cx="534" cy="350" r="2"></circle><circle cx="565" cy="350" r="2"></circle></g></g><g class="key-Oceania-__0028excluding-Australia-and-New-Zealand__0029_0"><path stroke="#3360a9" stroke-linecap="round" d="M62 500L219 500L376 535L534 535L565 500" fill="none" stroke-width="1.5"></path><g fill="#3360a9"><circle cx="62" cy="500" r="2"></circle><circle cx="219" cy="500" r="2"></circle><circle cx="376" cy="535" r="2"></circle><circle cx="534" cy="535" r="2"></circle><circle cx="565" cy="500" r="2"></circle></g></g><g class="key-Oceania_0"><path stroke="#ca2628" stroke-linecap="round" d="M62 500L219 500L376 535L534 535L565 500" fill="none" stroke-width="1.5"></path><g fill="#ca2628"><circle cx="62" cy="500" r="2"></circle><circle cx="219" cy="500" r="2"></circle><circle cx="376" cy="535" r="2"></circle><circle cx="534" cy="535" r="2"></circle><circle cx="565" cy="500" r="2"></circle></g></g><g class="key-Small-island-developing-States_0"><path stroke="#34983f" stroke-linecap="round" d="M62 524L219 491L376 468L534 457L565 446" fill="none" stroke-width="1.5"></path><g fill="#34983f"><circle cx="62" cy="524" r="2"></circle><circle cx="219" cy="491" r="2"></circle><circle cx="376" cy="468" r="2"></circle><circle cx="534" cy="457" r="2"></circle><circle cx="565" cy="446" r="2"></circle></g></g><g class="key-South__002dEastern-Asia_0"><path stroke="#9ecc8a" stroke-linecap="round" d="M62 458L219 381L376 342L534 304L565 304" fill="none" stroke-width="1.5"></path><g fill="#9ecc8a"><circle cx="62" cy="458" r="2"></circle><circle cx="219" cy="381" r="2"></circle><circle cx="376" cy="342" r="2"></circle><circle cx="534" cy="304" r="2"></circle><circle cx="565" cy="304" r="2"></circle></g></g><g class="key-Sub__002dSaharan-Africa_0"><path stroke="#a652ba" stroke-linecap="round" d="M62 456L219 367L376 359L534 332L565 323" fill="none" stroke-width="1.5"></path><g fill="#a652ba"><circle cx="62" cy="456" r="2"></circle><circle cx="219" cy="367" r="2"></circle><circle cx="376" cy="359" r="2"></circle><circle cx="534" cy="332" r="2"></circle><circle cx="565" cy="323" r="2"></circle></g></g></g></g></g><g style="fill: #777;" class="SourcesFooter"><g style="fill: #777;" class="clickable"><text font-size="12.60" x="15.0" y="581.6"><tspan x="15" y="581.58">Source: UN Statistics Division</tspan></text></g><text font-size="12.60" x="649.0" y="581.6"><tspan x="649.024" y="581.58"><a target='_blank' style='fill: #777;' href='https://ourworldindata.org'>OurWorldInData.org</a> • <a style="fill: #777;" href="http://creativecommons.org/licenses/by-sa/4.0/deed.en_US" target="_blank">CC BY-SA</a></tspan></text></g></g></svg>