<svg xmlns="http://www.w3.org/2000/svg" version="1.1" style="font-family: 'Helvetica Neue', Helvetica, Arial, sans-serif; font-size: 18px; background-color: white; text-rendering: optimizeLegibility; -webkit-font-smoothing: antialiased;" width="850" height="600"><g class="ChartTab"><g class="HeaderView"><g opacity="0.8" transform="translate(778, 15) scale(0.27)"><a xmlns:xlink="http://www.w3.org/1999/xlink" xlink:href="https://ourworldindata.org" target="_blank"><g><rect x="0" y="0" fill="#1B2543" width="211.2" height="130.1"/><rect x="0" y="112.2" fill="#E63912" width="211.2" height="17.9"/><g><rect x="1.2" y="12.3" fill="none" width="210.2" height="99.2"/><path fill="#FFFFFF" d="M37.8,32.2c0,12.7-7.7,19.4-17.1,19.4c-9.7,0-16.6-7.5-16.6-18.7c0-11.7,7.3-19.3,17.1-19.3 C31.3,13.7,37.8,21.3,37.8,32.2z M9.2,32.8c0,7.9,4.3,14.9,11.8,14.9c7.5,0,11.8-6.9,11.8-15.3c0-7.3-3.8-14.9-11.8-14.9 C13.1,17.5,9.2,24.8,9.2,32.8z"/><path fill="#FFFFFF" d="M62.7,43.8c0,2.7,0.1,5.1,0.2,7.2h-4.3l-0.3-4.3h-0.1c-1.3,2.1-4,4.9-8.8,4.9c-4.2,0-9.1-2.3-9.1-11.6 V24.6h4.8v14.6c0,5,1.5,8.4,5.9,8.4c3.2,0,5.5-2.2,6.3-4.4c0.3-0.7,0.4-1.6,0.4-2.5V24.6h4.8V43.8z"/><path fill="#FFFFFF" d="M67.3,32.8c0-3.1-0.1-5.8-0.2-8.2h4.2l0.2,5.2h0.2c1.2-3.5,4.1-5.8,7.3-5.8c0.5,0,0.9,0.1,1.4,0.2v4.5 c-0.5-0.1-1-0.2-1.6-0.2c-3.4,0-5.8,2.6-6.5,6.2c-0.1,0.7-0.2,1.4-0.2,2.2V51h-4.8V32.8z"/><path fill="#FFFFFF" d="M95.4,51l-9.4-36.8h5l4.4,18.6c1.1,4.6,2.1,9.2,2.7,12.7h0.1c0.6-3.7,1.8-8,3-12.8l4.9-18.5h5l4.5,18.7 c1,4.4,2,8.7,2.6,12.6h0.1c0.8-4,1.8-8.1,3-12.7l4.9-18.5h4.9L120.6,51h-5L111,31.9c-1.1-4.7-1.9-8.3-2.4-12h-0.1 c-0.7,3.7-1.5,7.3-2.8,12L100.4,51H95.4z"/><path fill="#FFFFFF" d="M154.9,37.6c0,9.8-6.8,14-13.2,14c-7.2,0-12.7-5.2-12.7-13.6c0-8.8,5.8-14,13.1-14 C149.8,24,154.9,29.5,154.9,37.6z M133.9,37.9c0,5.8,3.3,10.1,8,10.1c4.6,0,8-4.3,8-10.3c0-4.5-2.2-10.1-7.9-10.1 C136.3,27.6,133.9,32.8,133.9,37.9z"/><path fill="#FFFFFF" d="M158.2,32.8c0-3.1-0.1-5.8-0.2-8.2h4.2l0.2,5.2h0.2c1.2-3.5,4.1-5.8,7.3-5.8c0.5,0,0.9,0.1,1.4,0.2v4.5 c-0.5-0.1-1-0.2-1.6-0.2c-3.4,0-5.8,2.6-6.5,6.2c-0.1,0.7-0.2,1.4-0.2,2.2V51h-4.8V32.8z"/><path fill="#FFFFFF" d="M173.5,12.3h4.8V51h-4.8V12.3z"/><path fill="#FFFFFF" d="M206.5,12.3v31.9c0,2.3,0.1,5,0.2,6.8h-4.3l-0.2-4.6H202c-1.5,2.9-4.7,5.2-9,5.2 c-6.4,0-11.3-5.4-11.3-13.4c-0.1-8.8,5.4-14.2,11.9-14.2c4,0,6.8,1.9,8,4h0.1V12.3H206.5z M201.7,35.4c0-0.6-0.1-1.4-0.2-2 c-0.7-3.1-3.3-5.6-6.9-5.6c-5,0-7.9,4.4-7.9,10.2c0,5.3,2.6,9.8,7.8,9.8c3.2,0,6.2-2.1,7.1-5.7c0.2-0.7,0.2-1.3,0.2-2.1V35.4z"/><path fill="#FFFFFF" d="M42.8,64c0.1,1.6-1.1,2.9-3.1,2.9c-1.7,0-2.9-1.3-2.9-2.9c0-1.7,1.3-3,3-3C41.7,61,42.8,62.3,42.8,64z M37.4,97.8V71.4h4.8v26.4H37.4z"/><path fill="#FFFFFF" d="M47.5,78.6c0-2.7-0.1-5-0.2-7.1h4.3l0.3,4.4h0.1c1.3-2.5,4.4-5,8.8-5c3.7,0,9.4,2.2,9.4,11.2v15.8h-4.8 V82.6c0-4.3-1.6-7.8-6.1-7.8c-3.2,0-5.6,2.2-6.5,4.9c-0.2,0.6-0.3,1.4-0.3,2.2v15.9h-4.8V78.6z"/><path fill="#FFFFFF" d="M84,61.6c2.9-0.4,6.3-0.8,10.1-0.8c6.8,0,11.7,1.6,14.9,4.6c3.3,3,5.2,7.3,5.2,13.2c0,6-1.9,10.9-5.3,14.3 c-3.4,3.4-9.1,5.3-16.3,5.3c-3.4,0-6.2-0.2-8.6-0.4V61.6z M88.8,94.1c1.2,0.2,3,0.3,4.8,0.3c10.2,0,15.7-5.7,15.7-15.6 c0.1-8.7-4.9-14.2-14.9-14.2c-2.5,0-4.3,0.2-5.6,0.5V94.1z"/><path fill="#FFFFFF" d="M132.1,97.8l-0.4-3.3h-0.2c-1.5,2.1-4.3,3.9-8.1,3.9c-5.4,0-8.1-3.8-8.1-7.6c0-6.4,5.7-9.9,15.9-9.8v-0.5 c0-2.2-0.6-6.1-6-6.1c-2.5,0-5,0.8-6.9,2l-1.1-3.2c2.2-1.4,5.4-2.3,8.7-2.3c8.1,0,10.1,5.5,10.1,10.8v9.9c0,2.3,0.1,4.5,0.4,6.3 H132.1z M131.4,84.4c-5.3-0.1-11.2,0.8-11.2,5.9c0,3.1,2.1,4.6,4.5,4.6c3.4,0,5.6-2.2,6.4-4.4c0.2-0.5,0.3-1,0.3-1.5V84.4z"/><path fill="#FFFFFF" d="M146.6,63.9v7.6h6.9v3.7h-6.9v14.2c0,3.3,0.9,5.1,3.6,5.1c1.3,0,2.2-0.2,2.8-0.3l0.2,3.6 c-0.9,0.4-2.4,0.7-4.3,0.7c-2.2,0-4-0.7-5.2-2c-1.4-1.4-1.9-3.8-1.9-6.9V75.1h-4.1v-3.7h4.1v-6.3L146.6,63.9z"/><path fill="#FFFFFF" d="M171.4,97.8l-0.4-3.3h-0.2c-1.5,2.1-4.3,3.9-8.1,3.9c-5.4,0-8.1-3.8-8.1-7.6c0-6.4,5.7-9.9,15.9-9.8v-0.5 c0-2.2-0.6-6.1-6-6.1c-2.5,0-5,0.8-6.9,2l-1.1-3.2c2.2-1.4,5.4-2.3,8.7-2.3c8.1,0,10.1,5.5,10.1,10.8v9.9c0,2.3,0.1,4.5,0.4,6.3 H171.4z M170.7,84.4c-5.3-0.1-11.2,0.8-11.2,5.9c0,3.1,2.1,4.6,4.5,4.6c3.4,0,5.6-2.2,6.4-4.4c0.2-0.5,0.3-1,0.3-1.5V84.4z"/></g></g></a></g><a href="https://ourworldindata.org/grapher/cross-country-literacy-rates" target="_blank"><text font-size="25.20" x="15.0" y="35.2" fill="#555"><tspan x="15" y="35.160000000000004">Literacy rate</tspan></text></a><text font-size="14.40" x="15.0" y="53.7" fill="#666"><tspan x="15" y="53.72">National literacy rates among adults. Estimates correspond to the share of the population 15+ able to read and write.</tspan><tspan x="15" y="69.56">Specific definitions and measurement methodologies vary across countries and time. See source for more details. </tspan></text></g><g class="LineChart"><defs><clipPath id="boundsClip-1"><rect x="51.634" y="0" width="830" height="928.8"></rect></clipPath></defs><g class="AxisBoxView"><g class="HorizontalAxis"><text x="61.6" y="556.5" fill="#666" text-anchor="middle" font-size="16.2">1475</text><text x="210.2" y="556.5" fill="#666" text-anchor="middle" font-size="16.2">1600</text><text x="329.1" y="556.5" fill="#666" text-anchor="middle" font-size="16.2">1700</text><text x="448" y="556.5" fill="#666" text-anchor="middle" font-size="16.2">1800</text><text x="566.9" y="556.5" fill="#666" text-anchor="middle" font-size="16.2">1900</text><text x="703.6" y="556.5" fill="#666" text-anchor="middle" font-size="16.2">2015</text></g><g class="VerticalAxis"><text x="56.63" y="535.3" fill="#666" dominant-baseline="middle" text-anchor="end" font-size="16.2">0%</text><text x="56.63" y="446.7" fill="#666" dominant-baseline="middle" text-anchor="end" font-size="16.2">20%</text><text x="56.63" y="358" fill="#666" dominant-baseline="middle" text-anchor="end" font-size="16.2">40%</text><text x="56.63" y="269.4" fill="#666" dominant-baseline="middle" text-anchor="end" font-size="16.2">60%</text><text x="56.63" y="180.7" fill="#666" dominant-baseline="middle" text-anchor="end" font-size="16.2">80%</text><text x="56.63" y="92.1" fill="#666" dominant-baseline="middle" text-anchor="end" font-size="16.2">100%</text></g><g class="AxisGridLines"><line x1="61.63" y1="535.3" x2="703.61" y2="535.3" stroke="#ccc"></line><line x1="61.63" y1="446.7" x2="703.61" y2="446.7" stroke="#ddd" stroke-dasharray="3,2"></line><line x1="61.63" y1="358" x2="703.61" y2="358" stroke="#ddd" stroke-dasharray="3,2"></line><line x1="61.63" y1="269.4" x2="703.61" y2="269.4" stroke="#ddd" stroke-dasharray="3,2"></line><line x1="61.63" y1="180.7" x2="703.61" y2="180.7" stroke="#ddd" stroke-dasharray="3,2"></line><line x1="61.63" y1="92.1" x2="703.61" y2="92.1" stroke="#ddd" stroke-dasharray="3,2"></line></g></g><g clip-path="url(#boundsClip-1)"><g class="HeightedLegend clickable"><g class="legendMark"><g class="indicator"><line x1="708.61" y1="93.3" x2="730.3407692307693" y2="93.3" stroke="#666" stroke-width="0.5"></line><line x1="730.3407692307693" y1="93.3" x2="730.3407692307693" y2="93.3" stroke="#666" stroke-width="0.5"></line><line x1="730.3407692307693" y1="93.3" x2="733.61" y2="93.3" stroke="#666" stroke-width="0.5"></line></g><rect x="703.61" y="86.55" width="76.31" height="13.5" fill="#fff" opacity="0"></rect><text font-size="13.50" x="738.6" y="97.3" fill="#6bb537"><tspan x="738.61" y="97.35">Russia</tspan></text></g><g class="legendMark"><g class="indicator"><line x1="708.61" y1="96.5" x2="728.8023076923077" y2="96.5" stroke="#666" stroke-width="0.5"></line><line x1="728.8023076923077" y1="96.5" x2="728.8023076923077" y2="108.8" stroke="#666" stroke-width="0.5"></line><line x1="728.8023076923077" y1="108.8" x2="733.61" y2="108.8" stroke="#666" stroke-width="0.5"></line></g><rect x="703.61" y="102.05" width="131.39" height="13.5" fill="#fff" opacity="0"></rect><text font-size="13.50" x="738.6" y="112.8" fill="#e6332e"><tspan x="738.61" y="112.85">United Kingdom</tspan></text></g><g class="legendMark"><g class="indicator"><line x1="708.61" y1="96.5" x2="727.2638461538462" y2="96.5" stroke="#666" stroke-width="0.5"></line><line x1="727.2638461538462" y1="96.5" x2="727.2638461538462" y2="124.3" stroke="#666" stroke-width="0.5"></line><line x1="727.2638461538462" y1="124.3" x2="733.61" y2="124.3" stroke="#666" stroke-width="0.5"></line></g><rect x="703.61" y="117.55" width="108.03500000000001" height="13.5" fill="#fff" opacity="0"></rect><text font-size="13.50" x="738.6" y="128.4" fill="#7ec7ce"><tspan x="738.61" y="128.35000000000002">Netherlands</tspan></text></g><g class="legendMark"><g class="indicator"><line x1="708.61" y1="100.6" x2="725.7253846153847" y2="100.6" stroke="#666" stroke-width="0.5"></line><line x1="725.7253846153847" y1="100.6" x2="725.7253846153847" y2="139.8" stroke="#666" stroke-width="0.5"></line><line x1="725.7253846153847" y1="139.8" x2="733.61" y2="139.8" stroke="#666" stroke-width="0.5"></line></g><rect x="703.61" y="133.05" width="93.05000000000001" height="13.5" fill="#fff" opacity="0"></rect><text font-size="13.50" x="738.6" y="143.9" fill="#b077b1"><tspan x="738.61" y="143.85000000000002">Argentina</tspan></text></g><g class="legendMark"><g class="indicator"><line x1="708.61" y1="102.5" x2="724.1869230769231" y2="102.5" stroke="#666" stroke-width="0.5"></line><line x1="724.1869230769231" y1="102.5" x2="724.1869230769231" y2="155.3" stroke="#666" stroke-width="0.5"></line><line x1="724.1869230769231" y1="155.3" x2="733.61" y2="155.3" stroke="#666" stroke-width="0.5"></line></g><rect x="703.61" y="148.55" width="101.15" height="13.5" fill="#fff" opacity="0"></rect><text font-size="13.50" x="738.6" y="159.4" fill="#ffd53e"><tspan x="738.61" y="159.35000000000002">Costa Rica</tspan></text></g><g class="legendMark"><g class="indicator"><line x1="708.61" y1="105" x2="722.6484615384616" y2="105" stroke="#666" stroke-width="0.5"></line><line x1="722.6484615384616" y1="105" x2="722.6484615384616" y2="170.8" stroke="#666" stroke-width="0.5"></line><line x1="722.6484615384616" y1="170.8" x2="733.61" y2="170.8" stroke="#666" stroke-width="0.5"></line></g><rect x="703.61" y="164.05" width="68.075" height="13.5" fill="#fff" opacity="0"></rect><text font-size="13.50" x="738.6" y="174.9" fill="#9ecc8a"><tspan x="738.61" y="174.85000000000002">Israel</tspan></text></g><g class="legendMark"><g class="indicator"><line x1="708.61" y1="106.4" x2="721.11" y2="106.4" stroke="#666" stroke-width="0.5"></line><line x1="721.11" y1="106.4" x2="721.11" y2="186.3" stroke="#666" stroke-width="0.5"></line><line x1="721.11" y1="186.3" x2="733.61" y2="186.3" stroke="#666" stroke-width="0.5"></line></g><rect x="703.61" y="179.55" width="96.83000000000001" height="13.5" fill="#fff" opacity="0"></rect><text font-size="13.50" x="738.6" y="190.4" fill="#e6332e"><tspan x="738.61" y="190.35000000000002">Singapore</tspan></text></g><g class="legendMark"><g class="indicator"><line x1="708.61" y1="108.2" x2="719.5715384615385" y2="108.2" stroke="#666" stroke-width="0.5"></line><line x1="719.5715384615385" y1="108.2" x2="719.5715384615385" y2="201.8" stroke="#666" stroke-width="0.5"></line><line x1="719.5715384615385" y1="201.8" x2="733.61" y2="201.8" stroke="#666" stroke-width="0.5"></line></g><rect x="703.61" y="195.05" width="70.37" height="13.5" fill="#fff" opacity="0"></rect><text font-size="13.50" x="738.6" y="205.9" fill="#2a939b"><tspan x="738.61" y="205.85000000000002">China</tspan></text></g><g class="legendMark"><g class="indicator"><line x1="708.61" y1="108.8" x2="718.0330769230769" y2="108.8" stroke="#666" stroke-width="0.5"></line><line x1="718.0330769230769" y1="108.8" x2="718.0330769230769" y2="217.3" stroke="#666" stroke-width="0.5"></line><line x1="718.0330769230769" y1="217.3" x2="733.61" y2="217.3" stroke="#666" stroke-width="0.5"></line></g><rect x="703.61" y="210.55" width="75.635" height="13.5" fill="#fff" opacity="0"></rect><text font-size="13.50" x="738.6" y="221.4" fill="#a652ba"><tspan x="738.61" y="221.35000000000002">Macao</tspan></text></g><g class="legendMark"><g class="indicator"><line x1="708.61" y1="117" x2="716.4946153846154" y2="117" stroke="#666" stroke-width="0.5"></line><line x1="716.4946153846154" y1="117" x2="716.4946153846154" y2="232.8" stroke="#666" stroke-width="0.5"></line><line x1="716.4946153846154" y1="232.8" x2="733.61" y2="232.8" stroke="#666" stroke-width="0.5"></line></g><rect x="703.61" y="226.05" width="63.620000000000005" height="13.5" fill="#fff" opacity="0"></rect><text font-size="13.50" x="738.6" y="236.9" fill="#f6a324"><tspan x="738.61" y="236.85000000000002">Peru</tspan></text></g><g class="legendMark"><g class="indicator"><line x1="708.61" y1="118.8" x2="714.9561538461538" y2="118.8" stroke="#666" stroke-width="0.5"></line><line x1="714.9561538461538" y1="118.8" x2="714.9561538461538" y2="248.3" stroke="#666" stroke-width="0.5"></line><line x1="714.9561538461538" y1="248.3" x2="733.61" y2="248.3" stroke="#666" stroke-width="0.5"></line></g><rect x="703.61" y="241.55" width="86.975" height="13.5" fill="#fff" opacity="0"></rect><text font-size="13.50" x="738.6" y="252.4" fill="#34983f"><tspan x="738.61" y="252.35000000000002">Thailand</tspan></text></g><g class="legendMark"><g class="indicator"><line x1="708.61" y1="157.2" x2="713.4176923076923" y2="157.2" stroke="#666" stroke-width="0.5"></line><line x1="713.4176923076923" y1="157.2" x2="713.4176923076923" y2="263.8" stroke="#666" stroke-width="0.5"></line><line x1="713.4176923076923" y1="263.8" x2="733.61" y2="263.8" stroke="#666" stroke-width="0.5"></line></g><rect x="703.61" y="257.05" width="70.235" height="13.5" fill="#fff" opacity="0"></rect><text font-size="13.50" x="738.6" y="267.9" fill="#ca2628"><tspan x="738.61" y="267.85">World</tspan></text></g><g class="legendMark"><g class="indicator"><line x1="708.61" y1="215.2" x2="711.8792307692307" y2="215.2" stroke="#666" stroke-width="0.5"></line><line x1="711.8792307692307" y1="215.2" x2="711.8792307692307" y2="279.3" stroke="#666" stroke-width="0.5"></line><line x1="711.8792307692307" y1="279.3" x2="733.61" y2="279.3" stroke="#666" stroke-width="0.5"></line></g><rect x="703.61" y="272.55" width="64.43" height="13.5" fill="#fff" opacity="0"></rect><text font-size="13.50" x="738.6" y="283.4" fill="#3360a9"><tspan x="738.61" y="283.35">India</tspan></text></g></g><g class="Lines"><rect x="62" y="92" width="642" height="443" fill="rgba(255,255,255,0)" opacity="0"></rect><g class="key-Macao_0"><path stroke="#a652ba" stroke-linecap="round" d="M663 135L687 131L693 121L699 111L704 109" fill="none" stroke-width="1.5"></path><g fill="#a652ba"><circle cx="663" cy="135" r="2"></circle><circle cx="687" cy="131" r="2"></circle><circle cx="693" cy="121" r="2"></circle><circle cx="699" cy="111" r="2"></circle><circle cx="704" cy="109" r="2"></circle></g></g><g class="key-Israel_0"><path stroke="#9ecc8a" stroke-linecap="round" d="M666 129L691 105" fill="none" stroke-width="1.5"></path><g fill="#9ecc8a"><circle cx="666" cy="129" r="2"></circle><circle cx="691" cy="105" r="2"></circle></g></g><g class="key-China_0"><path stroke="#2a939b" stroke-linecap="round" d="M664 245L674 191L686 132L698 114L704 108" fill="none" stroke-width="1.5"></path><g fill="#2a939b"><circle cx="664" cy="245" r="2"></circle><circle cx="674" cy="191" r="2"></circle><circle cx="686" cy="132" r="2"></circle><circle cx="698" cy="114" r="2"></circle><circle cx="704" cy="108" r="2"></circle></g></g><g class="key-World_0"><path stroke="#ca2628" stroke-linecap="round" d="M472 482L531 451L543 447L555 442L567 442L579 420L591 394L603 389L614 349L626 376L638 349L674 199L686 172L698 157" fill="none" stroke-width="1.5"></path><g fill="#ca2628"><circle cx="472" cy="482" r="2"></circle><circle cx="531" cy="451" r="2"></circle><circle cx="543" cy="447" r="2"></circle><circle cx="555" cy="442" r="2"></circle><circle cx="567" cy="442" r="2"></circle><circle cx="579" cy="420" r="2"></circle><circle cx="591" cy="394" r="2"></circle><circle cx="603" cy="389" r="2"></circle><circle cx="614" cy="349" r="2"></circle><circle cx="626" cy="376" r="2"></circle><circle cx="638" cy="349" r="2"></circle><circle cx="674" cy="199" r="2"></circle><circle cx="686" cy="172" r="2"></circle><circle cx="698" cy="157" r="2"></circle></g></g><g class="key-United-Kingdom_0"><path stroke="#e6332e" stroke-linecap="round" d="M62 513L151 464L270 300L389 296L472 300L531 199L689 97" fill="none" stroke-width="1.5"></path><g fill="#e6332e"><circle cx="62" cy="513" r="2"></circle><circle cx="151" cy="464" r="2"></circle><circle cx="270" cy="300" r="2"></circle><circle cx="389" cy="296" r="2"></circle><circle cx="472" cy="300" r="2"></circle><circle cx="531" cy="199" r="2"></circle><circle cx="689" cy="97" r="2"></circle></g></g><g class="key-Thailand_0"><path stroke="#34983f" stroke-linecap="round" d="M662 145L686 125L692 121L698 108L701 120L704 119" fill="none" stroke-width="1.5"></path><g fill="#34983f"><circle cx="662" cy="145" r="2"></circle><circle cx="686" cy="125" r="2"></circle><circle cx="692" cy="121" r="2"></circle><circle cx="698" cy="108" r="2"></circle><circle cx="701" cy="120" r="2"></circle><circle cx="704" cy="119" r="2"></circle></g></g><g class="key-Singapore_0"><path stroke="#e6332e" stroke-linecap="round" d="M662 168L674 140L686 125L698 111L699 109L700 108L701 107L702 107L704 106" fill="none" stroke-width="1.5"></path><g fill="#e6332e"><circle cx="662" cy="168" r="2"></circle><circle cx="674" cy="140" r="2"></circle><circle cx="686" cy="125" r="2"></circle><circle cx="698" cy="111" r="2"></circle><circle cx="699" cy="109" r="2"></circle><circle cx="700" cy="108" r="2"></circle><circle cx="701" cy="107" r="2"></circle><circle cx="702" cy="107" r="2"></circle><circle cx="704" cy="106" r="2"></circle></g></g><g class="key-Netherlands_0"><path stroke="#7ec7ce" stroke-linecap="round" d="M62 460L151 482L270 300L389 159L689 97" fill="none" stroke-width="1.5"></path><g fill="#7ec7ce"><circle cx="62" cy="460" r="2"></circle><circle cx="151" cy="482" r="2"></circle><circle cx="270" cy="300" r="2"></circle><circle cx="389" cy="159" r="2"></circle><circle cx="689" cy="97" r="2"></circle></g></g><g class="key-India_0"><path stroke="#3360a9" stroke-linecap="round" d="M663 355L675 322L687 265L693 257L699 228L704 215" fill="none" stroke-width="1.5"></path><g fill="#3360a9"><circle cx="663" cy="355" r="2"></circle><circle cx="675" cy="322" r="2"></circle><circle cx="687" cy="265" r="2"></circle><circle cx="693" cy="257" r="2"></circle><circle cx="699" cy="228" r="2"></circle><circle cx="704" cy="215" r="2"></circle></g></g><g class="key-Costa-Rica_0"><path stroke="#ffd53e" stroke-linecap="round" d="M567 376L579 331L591 283L603 238L614 212L626 185L638 167L650 145L651 141L653 141L654 141L655 136L656 136L657 136L658 132L660 132L661 132L662 128L663 128L664 128L666 128L667 125L686 115L699 104L704 103" fill="none" stroke-width="1.5"></path><g fill="#ffd53e"><circle cx="567" cy="376" r="2"></circle><circle cx="579" cy="331" r="2"></circle><circle cx="591" cy="283" r="2"></circle><circle cx="603" cy="238" r="2"></circle><circle cx="614" cy="212" r="2"></circle><circle cx="626" cy="185" r="2"></circle><circle cx="638" cy="167" r="2"></circle><circle cx="650" cy="145" r="2"></circle><circle cx="651" cy="141" r="2"></circle><circle cx="653" cy="141" r="2"></circle><circle cx="654" cy="141" r="2"></circle><circle cx="655" cy="136" r="2"></circle><circle cx="656" cy="136" r="2"></circle><circle cx="657" cy="136" r="2"></circle><circle cx="658" cy="132" r="2"></circle><circle cx="660" cy="132" r="2"></circle><circle cx="661" cy="132" r="2"></circle><circle cx="662" cy="128" r="2"></circle><circle cx="663" cy="128" r="2"></circle><circle cx="664" cy="128" r="2"></circle><circle cx="666" cy="128" r="2"></circle><circle cx="667" cy="125" r="2"></circle><circle cx="686" cy="115" r="2"></circle><circle cx="699" cy="104" r="2"></circle><circle cx="704" cy="103" r="2"></circle></g></g><g class="key-Argentina_0"><path stroke="#b077b1" stroke-linecap="round" d="M567 308L579 268L591 233L603 203L614 173L626 147L638 130L650 123L661 118L662 119L675 109L687 105L702 101L704 101" fill="none" stroke-width="1.5"></path><g fill="#b077b1"><circle cx="567" cy="308" r="2"></circle><circle cx="579" cy="268" r="2"></circle><circle cx="591" cy="233" r="2"></circle><circle cx="603" cy="203" r="2"></circle><circle cx="614" cy="173" r="2"></circle><circle cx="626" cy="147" r="2"></circle><circle cx="638" cy="130" r="2"></circle><circle cx="650" cy="123" r="2"></circle><circle cx="661" cy="118" r="2"></circle><circle cx="662" cy="119" r="2"></circle><circle cx="675" cy="109" r="2"></circle><circle cx="687" cy="105" r="2"></circle><circle cx="702" cy="101" r="2"></circle><circle cx="704" cy="101" r="2"></circle></g></g><g class="key-Russia_0"><path stroke="#6bb537" stroke-linecap="round" d="M472 500L531 469L673 101L688 95L698 94L704 93" fill="none" stroke-width="1.5"></path><g fill="#6bb537"><circle cx="472" cy="500" r="2"></circle><circle cx="531" cy="469" r="2"></circle><circle cx="673" cy="101" r="2"></circle><circle cx="688" cy="95" r="2"></circle><circle cx="698" cy="94" r="2"></circle><circle cx="704" cy="93" r="2"></circle></g></g><g class="key-Peru_0"><path stroke="#f6a324" stroke-linecap="round" d="M567 429L579 407L591 389L603 371L614 349L626 309L638 269L650 216L661 185L662 185L663 172L678 149L691 147L692 146L693 142L694 138L700 119L702 120L704 117" fill="none" stroke-width="1.5"></path><g fill="#f6a324"><circle cx="567" cy="429" r="2"></circle><circle cx="579" cy="407" r="2"></circle><circle cx="591" cy="389" r="2"></circle><circle cx="603" cy="371" r="2"></circle><circle cx="614" cy="349" r="2"></circle><circle cx="626" cy="309" r="2"></circle><circle cx="638" cy="269" r="2"></circle><circle cx="650" cy="216" r="2"></circle><circle cx="661" cy="185" r="2"></circle><circle cx="662" cy="185" r="2"></circle><circle cx="663" cy="172" r="2"></circle><circle cx="678" cy="149" r="2"></circle><circle cx="691" cy="147" r="2"></circle><circle cx="692" cy="146" r="2"></circle><circle cx="693" cy="142" r="2"></circle><circle cx="694" cy="138" r="2"></circle><circle cx="700" cy="119" r="2"></circle><circle cx="702" cy="120" r="2"></circle><circle cx="704" cy="117" r="2"></circle></g></g></g></g></g><g style="fill: #777;" class="SourcesFooter"><g style="fill: #777;" class="clickable"><text font-size="12.60" x="15.0" y="581.6"><tspan x="15" y="581.58">Source: WDI, CIA World Factbook, &amp; other sources</tspan></text></g><text font-size="12.60" x="605.6" y="581.6"><tspan x="605.554" y="581.58"><a target='_blank' style='fill: #777;' href='https://ourworldindata.org/literacy'>OurWorldInData.org/literacy</a> • <a style="fill: #777;" class="cclogo" href="http://creativecommons.org/licenses/by-sa/4.0/deed.en_US" target="_blank">CC BY-SA</a></tspan></text></g></g></svg>