<svg xmlns="http://www.w3.org/2000/svg" version="1.1" style="font-family: 'Helvetica Neue', Helvetica, Arial, sans-serif; font-size: 18px; background-color: white; text-rendering: optimizeLegibility; -webkit-font-smoothing: antialiased;" width="850" height="600"><g class="ChartTab"><g class="HeaderView"><g opacity="0.8" transform="translate(778, 15) scale(0.27)"><a xmlns:xlink="http://www.w3.org/1999/xlink" xlink:href="https://ourworldindata.org" target="_blank"><g><rect x="0" y="0" fill="#1B2543" width="211.2" height="130.1"/><rect x="0" y="112.2" fill="#E63912" width="211.2" height="17.9"/><g><rect x="1.2" y="12.3" fill="none" width="210.2" height="99.2"/><path fill="#FFFFFF" d="M37.8,32.2c0,12.7-7.7,19.4-17.1,19.4c-9.7,0-16.6-7.5-16.6-18.7c0-11.7,7.3-19.3,17.1-19.3 C31.3,13.7,37.8,21.3,37.8,32.2z M9.2,32.8c0,7.9,4.3,14.9,11.8,14.9c7.5,0,11.8-6.9,11.8-15.3c0-7.3-3.8-14.9-11.8-14.9 C13.1,17.5,9.2,24.8,9.2,32.8z"/><path fill="#FFFFFF" d="M62.7,43.8c0,2.7,0.1,5.1,0.2,7.2h-4.3l-0.3-4.3h-0.1c-1.3,2.1-4,4.9-8.8,4.9c-4.2,0-9.1-2.3-9.1-11.6 V24.6h4.8v14.6c0,5,1.5,8.4,5.9,8.4c3.2,0,5.5-2.2,6.3-4.4c0.3-0.7,0.4-1.6,0.4-2.5V24.6h4.8V43.8z"/><path fill="#FFFFFF" d="M67.3,32.8c0-3.1-0.1-5.8-0.2-8.2h4.2l0.2,5.2h0.2c1.2-3.5,4.1-5.8,7.3-5.8c0.5,0,0.9,0.1,1.4,0.2v4.5 c-0.5-0.1-1-0.2-1.6-0.2c-3.4,0-5.8,2.6-6.5,6.2c-0.1,0.7-0.2,1.4-0.2,2.2V51h-4.8V32.8z"/><path fill="#FFFFFF" d="M95.4,51l-9.4-36.8h5l4.4,18.6c1.1,4.6,2.1,9.2,2.7,12.7h0.1c0.6-3.7,1.8-8,3-12.8l4.9-18.5h5l4.5,18.7 c1,4.4,2,8.7,2.6,12.6h0.1c0.8-4,1.8-8.1,3-12.7l4.9-18.5h4.9L120.6,51h-5L111,31.9c-1.1-4.7-1.9-8.3-2.4-12h-0.1 c-0.7,3.7-1.5,7.3-2.8,12L100.4,51H95.4z"/><path fill="#FFFFFF" d="M154.9,37.6c0,9.8-6.8,14-13.2,14c-7.2,0-12.7-5.2-12.7-13.6c0-8.8,5.8-14,13.1-14 C149.8,24,154.9,29.5,154.9,37.6z M133.9,37.9c0,5.8,3.3,10.1,8,10.1c4.6,0,8-4.3,8-10.3c0-4.5-2.2-10.1-7.9-10.1 C136.3,27.6,133.9,32.8,133.9,37.9z"/><path fill="#FFFFFF" d="M158.2,32.8c0-3.1-0.1-5.8-0.2-8.2h4.2l0.2,5.2h0.2c1.2-3.5,4.1-5.8,7.3-5.8c0.5,0,0.9,0.1,1.4,0.2v4.5 c-0.5-0.1-1-0.2-1.6-0.2c-3.4,0-5.8,2.6-6.5,6.2c-0.1,0.7-0.2,1.4-0.2,2.2V51h-4.8V32.8z"/><path fill="#FFFFFF" d="M173.5,12.3h4.8V51h-4.8V12.3z"/><path fill="#FFFFFF" d="M206.5,12.3v31.9c0,2.3,0.1,5,0.2,6.8h-4.3l-0.2-4.6H202c-1.5,2.9-4.7,5.2-9,5.2 c-6.4,0-11.3-5.4-11.3-13.4c-0.1-8.8,5.4-14.2,11.9-14.2c4,0,6.8,1.9,8,4h0.1V12.3H206.5z M201.7,35.4c0-0.6-0.1-1.4-0.2-2 c-0.7-3.1-3.3-5.6-6.9-5.6c-5,0-7.9,4.4-7.9,10.2c0,5.3,2.6,9.8,7.8,9.8c3.2,0,6.2-2.1,7.1-5.7c0.2-0.7,0.2-1.3,0.2-2.1V35.4z"/><path fill="#FFFFFF" d="M42.8,64c0.1,1.6-1.1,2.9-3.1,2.9c-1.7,0-2.9-1.3-2.9-2.9c0-1.7,1.3-3,3-3C41.7,61,42.8,62.3,42.8,64z M37.4,97.8V71.4h4.8v26.4H37.4z"/><path fill="#FFFFFF" d="M47.5,78.6c0-2.7-0.1-5-0.2-7.1h4.3l0.3,4.4h0.1c1.3-2.5,4.4-5,8.8-5c3.7,0,9.4,2.2,9.4,11.2v15.8h-4.8 V82.6c0-4.3-1.6-7.8-6.1-7.8c-3.2,0-5.6,2.2-6.5,4.9c-0.2,0.6-0.3,1.4-0.3,2.2v15.9h-4.8V78.6z"/><path fill="#FFFFFF" d="M84,61.6c2.9-0.4,6.3-0.8,10.1-0.8c6.8,0,11.7,1.6,14.9,4.6c3.3,3,5.2,7.3,5.2,13.2c0,6-1.9,10.9-5.3,14.3 c-3.4,3.4-9.1,5.3-16.3,5.3c-3.4,0-6.2-0.2-8.6-0.4V61.6z M88.8,94.1c1.2,0.2,3,0.3,4.8,0.3c10.2,0,15.7-5.7,15.7-15.6 c0.1-8.7-4.9-14.2-14.9-14.2c-2.5,0-4.3,0.2-5.6,0.5V94.1z"/><path fill="#FFFFFF" d="M132.1,97.8l-0.4-3.3h-0.2c-1.5,2.1-4.3,3.9-8.1,3.9c-5.4,0-8.1-3.8-8.1-7.6c0-6.4,5.7-9.9,15.9-9.8v-0.5 c0-2.2-0.6-6.1-6-6.1c-2.5,0-5,0.8-6.9,2l-1.1-3.2c2.2-1.4,5.4-2.3,8.7-2.3c8.1,0,10.1,5.5,10.1,10.8v9.9c0,2.3,0.1,4.5,0.4,6.3 H132.1z M131.4,84.4c-5.3-0.1-11.2,0.8-11.2,5.9c0,3.1,2.1,4.6,4.5,4.6c3.4,0,5.6-2.2,6.4-4.4c0.2-0.5,0.3-1,0.3-1.5V84.4z"/><path fill="#FFFFFF" d="M146.6,63.9v7.6h6.9v3.7h-6.9v14.2c0,3.3,0.9,5.1,3.6,5.1c1.3,0,2.2-0.2,2.8-0.3l0.2,3.6 c-0.9,0.4-2.4,0.7-4.3,0.7c-2.2,0-4-0.7-5.2-2c-1.4-1.4-1.9-3.8-1.9-6.9V75.1h-4.1v-3.7h4.1v-6.3L146.6,63.9z"/><path fill="#FFFFFF" d="M171.4,97.8l-0.4-3.3h-0.2c-1.5,2.1-4.3,3.9-8.1,3.9c-5.4,0-8.1-3.8-8.1-7.6c0-6.4,5.7-9.9,15.9-9.8v-0.5 c0-2.2-0.6-6.1-6-6.1c-2.5,0-5,0.8-6.9,2l-1.1-3.2c2.2-1.4,5.4-2.3,8.7-2.3c8.1,0,10.1,5.5,10.1,10.8v9.9c0,2.3,0.1,4.5,0.4,6.3 H171.4z M170.7,84.4c-5.3-0.1-11.2,0.8-11.2,5.9c0,3.1,2.1,4.6,4.5,4.6c3.4,0,5.6-2.2,6.4-4.4c0.2-0.5,0.3-1,0.3-1.5V84.4z"/></g></g></a></g><a href="https://ourworldindata.org/grapher/deaths-from-volcanic-eruptions" target="_blank"><text font-size="25.20" x="15.0" y="35.2" fill="#555"><tspan x="15" y="35.160000000000004">Estimated deaths from volcanic eruptions, World</tspan></text></a><text font-size="14.40" x="15.0" y="53.7" fill="#666"><tspan x="15" y="53.72">estimated number of deaths from volcanic eruption events. This includes direct deaths from volcanic eruptions, in</tspan><tspan x="15" y="69.56">addition to secondary impacts (such as a tsunami or earthquake triggered by an eruption). Due to data availability,</tspan><tspan x="15" y="85.4">reporting and evidence, it's expected that recent data will be more complete than the long historical record.</tspan></text></g><g class="StackedBarChart"><defs><clipPath id="boundsClip-1"><rect x="69.896" y="107.60000000000001" width="645.104" height="427.7"></rect></clipPath></defs><rect x="15" y="107.60000000000001" width="820" height="448.9" opacity="0" fill="rgba(255,255,255,0)"></rect><g class="VerticalAxis"><text x="64.90" y="535.3" fill="#666" dominant-baseline="middle" text-anchor="end" font-size="16.2">0</text><text x="64.90" y="464" fill="#666" dominant-baseline="middle" text-anchor="end" font-size="16.2">10,000</text><text x="64.90" y="392.7" fill="#666" dominant-baseline="middle" text-anchor="end" font-size="16.2">20,000</text><text x="64.90" y="321.4" fill="#666" dominant-baseline="middle" text-anchor="end" font-size="16.2">30,000</text><text x="64.90" y="250.2" fill="#666" dominant-baseline="middle" text-anchor="end" font-size="16.2">40,000</text><text x="64.90" y="178.9" fill="#666" dominant-baseline="middle" text-anchor="end" font-size="16.2">50,000</text><text x="64.90" y="107.6" fill="#666" dominant-baseline="middle" text-anchor="end" font-size="16.2">60,000</text></g><g class="AxisGridLines"><line x1="69.90" y1="535.3" x2="715.00" y2="535.3" stroke="#ccc"></line><line x1="69.90" y1="464" x2="715.00" y2="464" stroke="#ddd" stroke-dasharray="3,2"></line><line x1="69.90" y1="392.7" x2="715.00" y2="392.7" stroke="#ddd" stroke-dasharray="3,2"></line><line x1="69.90" y1="321.4" x2="715.00" y2="321.4" stroke="#ddd" stroke-dasharray="3,2"></line><line x1="69.90" y1="250.2" x2="715.00" y2="250.2" stroke="#ddd" stroke-dasharray="3,2"></line><line x1="69.90" y1="178.9" x2="715.00" y2="178.9" stroke="#ddd" stroke-dasharray="3,2"></line><line x1="69.90" y1="107.6" x2="715.00" y2="107.6" stroke="#ddd" stroke-dasharray="3,2"></line></g><g><text x="39.222109268292684" y="553.26" fill="#666" font-size="16.2">141 BCE</text><text x="110.2833873170731" y="553.26" fill="#666" font-size="16.2">1600</text><text x="154.33927024390232" y="553.26" fill="#666" font-size="16.2">1684</text><text x="198.39515317073153" y="553.26" fill="#666" font-size="16.2">1772</text><text x="242.45103609756075" y="553.26" fill="#666" font-size="16.2">1801</text><text x="286.50691902438996" y="553.26" fill="#666" font-size="16.2">1848</text><text x="330.56280195121917" y="553.26" fill="#666" font-size="16.2">1874</text><text x="374.6186848780484" y="553.26" fill="#666" font-size="16.2">1897</text><text x="418.6745678048776" y="553.26" fill="#666" font-size="16.2">1914</text><text x="462.7304507317068" y="553.26" fill="#666" font-size="16.2">1933</text><text x="506.78633365853625" y="553.26" fill="#666" font-size="16.2">1951</text><text x="550.8422165853663" y="553.26" fill="#666" font-size="16.2">1968</text><text x="594.8980995121963" y="553.26" fill="#666" font-size="16.2">1982</text><text x="638.9539824390263" y="553.26" fill="#666" font-size="16.2">1996</text><text x="695.5972604878077" y="553.26" fill="#666" font-size="16.2">2017</text></g><g clip-path="url(#boundsClip-1)"><g class="World_0-segments"><rect x="70.52536975609756" y="535" width="2.517479024390244" height="0.2999999999999545" fill="#ca2628" opacity="0.8"></rect><rect x="73.67221853658536" y="520.3" width="2.517479024390244" height="15" fill="#ca2628" opacity="0.8"></rect><rect x="76.81906731707316" y="321.4" width="2.517479024390244" height="213.89999999999998" fill="#ca2628" opacity="0.8"></rect><rect x="79.96591609756096" y="534.7" width="2.517479024390244" height="0.599999999999909" fill="#ca2628" opacity="0.8"></rect><rect x="83.11276487804876" y="421.2" width="2.517479024390244" height="114.09999999999997" fill="#ca2628" opacity="0.8"></rect><rect x="86.25961365853657" y="531" width="2.517479024390244" height="4.2999999999999545" fill="#ca2628" opacity="0.8"></rect><rect x="89.40646243902437" y="533.7" width="2.517479024390244" height="1.599999999999909" fill="#ca2628" opacity="0.8"></rect><rect x="92.55331121951217" y="534" width="2.517479024390244" height="1.2999999999999545" fill="#ca2628" opacity="0.8"></rect><rect x="95.70015999999997" y="535.3" width="2.517479024390244" height="0" fill="#ca2628" opacity="0.8"></rect><rect x="98.84700878048777" y="535.3" width="2.517479024390244" height="0" fill="#ca2628" opacity="0.8"></rect><rect x="101.99385756097557" y="535.3" width="2.517479024390244" height="0" fill="#ca2628" opacity="0.8"></rect><rect x="105.14070634146337" y="535.1" width="2.517479024390244" height="0.1999999999999318" fill="#ca2628" opacity="0.8"></rect><rect x="108.28755512195117" y="528.2" width="2.517479024390244" height="7.099999999999909" fill="#ca2628" opacity="0.8"></rect><rect x="111.43440390243897" y="532.4" width="2.517479024390244" height="2.8999999999999773" fill="#ca2628" opacity="0.8"></rect><rect x="114.58125268292677" y="535.2" width="2.517479024390244" height="0.09999999999990905" fill="#ca2628" opacity="0.8"></rect><rect x="117.72810146341457" y="464" width="2.517479024390244" height="71.29999999999995" fill="#ca2628" opacity="0.8"></rect><rect x="120.87495024390238" y="530.8" width="2.517479024390244" height="4.5" fill="#ca2628" opacity="0.8"></rect><rect x="124.02179902439018" y="529.6" width="2.517479024390244" height="5.699999999999932" fill="#ca2628" opacity="0.8"></rect><rect x="127.16864780487798" y="524.6" width="2.517479024390244" height="10.699999999999932" fill="#ca2628" opacity="0.8"></rect><rect x="130.3154965853658" y="535.3" width="2.517479024390244" height="0" fill="#ca2628" opacity="0.8"></rect><rect x="133.4623453658536" y="533.9" width="2.517479024390244" height="1.3999999999999773" fill="#ca2628" opacity="0.8"></rect><rect x="136.6091941463414" y="506.4" width="2.517479024390244" height="28.899999999999977" fill="#ca2628" opacity="0.8"></rect><rect x="139.7560429268292" y="528.2" width="2.517479024390244" height="7.099999999999909" fill="#ca2628" opacity="0.8"></rect><rect x="142.902891707317" y="494.7" width="2.517479024390244" height="40.599999999999966" fill="#ca2628" opacity="0.8"></rect><rect x="146.0497404878048" y="534.4" width="2.517479024390244" height="0.8999999999999773" fill="#ca2628" opacity="0.8"></rect><rect x="149.1965892682926" y="521" width="2.517479024390244" height="14.299999999999955" fill="#ca2628" opacity="0.8"></rect><rect x="152.3434380487804" y="535.3" width="2.517479024390244" height="0" fill="#ca2628" opacity="0.8"></rect><rect x="155.4902868292682" y="535.1" width="2.517479024390244" height="0.1999999999999318" fill="#ca2628" opacity="0.8"></rect><rect x="158.637135609756" y="535.3" width="2.517479024390244" height="0" fill="#ca2628" opacity="0.8"></rect><rect x="161.7839843902438" y="513.9" width="2.517479024390244" height="21.399999999999977" fill="#ca2628" opacity="0.8"></rect><rect x="164.9308331707316" y="535.3" width="2.517479024390244" height="0" fill="#ca2628" opacity="0.8"></rect><rect x="168.0776819512194" y="535.3" width="2.517479024390244" height="0" fill="#ca2628" opacity="0.8"></rect><rect x="171.2245307317072" y="535.3" width="2.517479024390244" height="0" fill="#ca2628" opacity="0.8"></rect><rect x="174.371379512195" y="513.9" width="2.517479024390244" height="21.399999999999977" fill="#ca2628" opacity="0.8"></rect><rect x="177.5182282926828" y="535.3" width="2.517479024390244" height="0" fill="#ca2628" opacity="0.8"></rect><rect x="180.6650770731706" y="535.3" width="2.517479024390244" height="0" fill="#ca2628" opacity="0.8"></rect><rect x="183.8119258536584" y="535.3" width="2.517479024390244" height="0" fill="#ca2628" opacity="0.8"></rect><rect x="186.9587746341462" y="535.2" width="2.517479024390244" height="0.09999999999990905" fill="#ca2628" opacity="0.8"></rect><rect x="190.105623414634" y="535.3" width="2.517479024390244" height="0" fill="#ca2628" opacity="0.8"></rect><rect x="193.2524721951218" y="535.3" width="2.517479024390244" height="0" fill="#ca2628" opacity="0.8"></rect><rect x="196.3993209756096" y="521" width="2.517479024390244" height="14.299999999999955" fill="#ca2628" opacity="0.8"></rect><rect x="199.5461697560974" y="535.2" width="2.517479024390244" height="0.09999999999990905" fill="#ca2628" opacity="0.8"></rect><rect x="202.6930185365852" y="535.3" width="2.517479024390244" height="0" fill="#ca2628" opacity="0.8"></rect><rect x="205.83986731707301" y="527.8" width="2.517479024390244" height="7.5" fill="#ca2628" opacity="0.8"></rect><rect x="208.98671609756082" y="521" width="2.517479024390244" height="14.299999999999955" fill="#ca2628" opacity="0.8"></rect><rect x="212.13356487804862" y="535" width="2.517479024390244" height="0.2999999999999545" fill="#ca2628" opacity="0.8"></rect><rect x="215.28041365853642" y="514" width="2.517479024390244" height="21.299999999999955" fill="#ca2628" opacity="0.8"></rect><rect x="218.42726243902422" y="526" width="2.517479024390244" height="9.299999999999955" fill="#ca2628" opacity="0.8"></rect><rect x="221.57411121951202" y="535.2" width="2.517479024390244" height="0.09999999999990905" fill="#ca2628" opacity="0.8"></rect><rect x="224.72095999999982" y="534.2" width="2.517479024390244" height="1.099999999999909" fill="#ca2628" opacity="0.8"></rect><rect x="227.86780878048762" y="535.3" width="2.517479024390244" height="0" fill="#ca2628" opacity="0.8"></rect><rect x="231.01465756097542" y="535" width="2.517479024390244" height="0.2999999999999545" fill="#ca2628" opacity="0.8"></rect><rect x="234.16150634146322" y="524.7" width="2.517479024390244" height="10.599999999999909" fill="#ca2628" opacity="0.8"></rect><rect x="237.30835512195102" y="468.7" width="2.517479024390244" height="66.59999999999997" fill="#ca2628" opacity="0.8"></rect><rect x="240.45520390243883" y="534.3" width="2.517479024390244" height="1" fill="#ca2628" opacity="0.8"></rect><rect x="243.60205268292663" y="535" width="2.517479024390244" height="0.2999999999999545" fill="#ca2628" opacity="0.8"></rect><rect x="246.74890146341443" y="496.8" width="2.517479024390244" height="38.49999999999994" fill="#ca2628" opacity="0.8"></rect><rect x="249.89575024390223" y="431.8" width="2.517479024390244" height="103.49999999999994" fill="#ca2628" opacity="0.8"></rect><rect x="253.04259902439003" y="532.4" width="2.517479024390244" height="2.8999999999999773" fill="#ca2628" opacity="0.8"></rect><rect x="256.18944780487783" y="535.2" width="2.517479024390244" height="0.09999999999990905" fill="#ca2628" opacity="0.8"></rect><rect x="259.33629658536563" y="535.2" width="2.517479024390244" height="0.09999999999990905" fill="#ca2628" opacity="0.8"></rect><rect x="262.48314536585343" y="535.3" width="2.517479024390244" height="0" fill="#ca2628" opacity="0.8"></rect><rect x="265.62999414634123" y="528.1" width="2.517479024390244" height="7.199999999999932" fill="#ca2628" opacity="0.8"></rect><rect x="268.77684292682903" y="526.7" width="2.517479024390244" height="8.599999999999909" fill="#ca2628" opacity="0.8"></rect><rect x="271.92369170731683" y="107.6" width="2.517479024390244" height="427.69999999999993" fill="#ca2628" opacity="0.8"></rect><rect x="275.07054048780464" y="535.3" width="2.517479024390244" height="0" fill="#ca2628" opacity="0.8"></rect><rect x="278.21738926829244" y="505.6" width="2.517479024390244" height="29.699999999999932" fill="#ca2628" opacity="0.8"></rect><rect x="281.36423804878024" y="535.1" width="2.517479024390244" height="0.1999999999999318" fill="#ca2628" opacity="0.8"></rect><rect x="284.51108682926804" y="534.4" width="2.517479024390244" height="0.8999999999999773" fill="#ca2628" opacity="0.8"></rect><rect x="287.65793560975584" y="535.3" width="2.517479024390244" height="0" fill="#ca2628" opacity="0.8"></rect><rect x="290.80478439024364" y="521.8" width="2.517479024390244" height="13.5" fill="#ca2628" opacity="0.8"></rect><rect x="293.95163317073144" y="534.9" width="2.517479024390244" height="0.39999999999997726" fill="#ca2628" opacity="0.8"></rect><rect x="297.09848195121924" y="527.3" width="2.517479024390244" height="8" fill="#ca2628" opacity="0.8"></rect><rect x="300.24533073170704" y="534.9" width="2.517479024390244" height="0.39999999999997726" fill="#ca2628" opacity="0.8"></rect><rect x="303.39217951219484" y="535.2" width="2.517479024390244" height="0.09999999999990905" fill="#ca2628" opacity="0.8"></rect><rect x="306.53902829268264" y="534.9" width="2.517479024390244" height="0.39999999999997726" fill="#ca2628" opacity="0.8"></rect><rect x="309.68587707317045" y="535.3" width="2.517479024390244" height="0" fill="#ca2628" opacity="0.8"></rect><rect x="312.83272585365825" y="515.2" width="2.517479024390244" height="20.09999999999991" fill="#ca2628" opacity="0.8"></rect><rect x="315.97957463414605" y="535.3" width="2.517479024390244" height="0" fill="#ca2628" opacity="0.8"></rect><rect x="319.12642341463385" y="532.2" width="2.517479024390244" height="3.099999999999909" fill="#ca2628" opacity="0.8"></rect><rect x="322.27327219512165" y="534.9" width="2.517479024390244" height="0.39999999999997726" fill="#ca2628" opacity="0.8"></rect><rect x="325.42012097560945" y="535.3" width="2.517479024390244" height="0" fill="#ca2628" opacity="0.8"></rect><rect x="328.56696975609725" y="535.3" width="2.517479024390244" height="0" fill="#ca2628" opacity="0.8"></rect><rect x="331.71381853658505" y="534.8" width="2.517479024390244" height="0.5" fill="#ca2628" opacity="0.8"></rect><rect x="334.86066731707285" y="535.2" width="2.517479024390244" height="0.09999999999990905" fill="#ca2628" opacity="0.8"></rect><rect x="338.00751609756065" y="532.4" width="2.517479024390244" height="2.8999999999999773" fill="#ca2628" opacity="0.8"></rect><rect x="341.15436487804845" y="532.4" width="2.517479024390244" height="2.8999999999999773" fill="#ca2628" opacity="0.8"></rect><rect x="344.30121365853626" y="535.2" width="2.517479024390244" height="0.09999999999990905" fill="#ca2628" opacity="0.8"></rect><rect x="347.44806243902406" y="535.3" width="2.517479024390244" height="0" fill="#ca2628" opacity="0.8"></rect><rect x="350.59491121951186" y="524.6" width="2.517479024390244" height="10.699999999999932" fill="#ca2628" opacity="0.8"></rect><rect x="353.74175999999966" y="532.9" width="2.517479024390244" height="2.3999999999999773" fill="#ca2628" opacity="0.8"></rect><rect x="356.88860878048746" y="535.3" width="2.517479024390244" height="0" fill="#ca2628" opacity="0.8"></rect><rect x="360.03545756097526" y="275.7" width="2.517479024390244" height="259.59999999999997" fill="#ca2628" opacity="0.8"></rect><rect x="363.18230634146306" y="534.8" width="2.517479024390244" height="0.5" fill="#ca2628" opacity="0.8"></rect><rect x="366.32915512195086" y="534.2" width="2.517479024390244" height="1.099999999999909" fill="#ca2628" opacity="0.8"></rect><rect x="369.47600390243866" y="535.2" width="2.517479024390244" height="0.09999999999990905" fill="#ca2628" opacity="0.8"></rect><rect x="372.62285268292646" y="532" width="2.517479024390244" height="3.2999999999999545" fill="#ca2628" opacity="0.8"></rect><rect x="375.76970146341426" y="523.1" width="2.517479024390244" height="12.199999999999932" fill="#ca2628" opacity="0.8"></rect><rect x="378.91655024390207" y="535.3" width="2.517479024390244" height="0" fill="#ca2628" opacity="0.8"></rect><rect x="382.06339902438987" y="535.2" width="2.517479024390244" height="0.09999999999990905" fill="#ca2628" opacity="0.8"></rect><rect x="385.21024780487767" y="535.1" width="2.517479024390244" height="0.1999999999999318" fill="#ca2628" opacity="0.8"></rect><rect x="388.35709658536547" y="535.3" width="2.517479024390244" height="0" fill="#ca2628" opacity="0.8"></rect><rect x="391.50394536585327" y="532.8" width="2.517479024390244" height="2.5" fill="#ca2628" opacity="0.8"></rect><rect x="394.65079414634107" y="534.9" width="2.517479024390244" height="0.39999999999997726" fill="#ca2628" opacity="0.8"></rect><rect x="397.79764292682887" y="534.6" width="2.517479024390244" height="0.6999999999999318" fill="#ca2628" opacity="0.8"></rect><rect x="400.9444917073167" y="240.6" width="2.517479024390244" height="294.69999999999993" fill="#ca2628" opacity="0.8"></rect><rect x="404.0913404878045" y="535.2" width="2.517479024390244" height="0.09999999999990905" fill="#ca2628" opacity="0.8"></rect><rect x="407.2381892682923" y="535.3" width="2.517479024390244" height="0" fill="#ca2628" opacity="0.8"></rect><rect x="410.3850380487801" y="535.3" width="2.517479024390244" height="0" fill="#ca2628" opacity="0.8"></rect><rect x="413.5318868292679" y="532.8" width="2.517479024390244" height="2.5" fill="#ca2628" opacity="0.8"></rect><rect x="416.6787356097557" y="535.3" width="2.517479024390244" height="0" fill="#ca2628" opacity="0.8"></rect><rect x="419.8255843902435" y="533.7" width="2.517479024390244" height="1.599999999999909" fill="#ca2628" opacity="0.8"></rect><rect x="422.9724331707313" y="535.3" width="2.517479024390244" height="0" fill="#ca2628" opacity="0.8"></rect><rect x="426.1192819512191" y="525.8" width="2.517479024390244" height="9.5" fill="#ca2628" opacity="0.8"></rect><rect x="429.2661307317069" y="535.1" width="2.517479024390244" height="0.1999999999999318" fill="#ca2628" opacity="0.8"></rect><rect x="432.4129795121947" y="534.1" width="2.517479024390244" height="1.1999999999999318" fill="#ca2628" opacity="0.8"></rect><rect x="435.5598282926825" y="534.1" width="2.517479024390244" height="1.1999999999999318" fill="#ca2628" opacity="0.8"></rect><rect x="438.7066770731703" y="533" width="2.517479024390244" height="2.2999999999999545" fill="#ca2628" opacity="0.8"></rect><rect x="441.8535258536581" y="498.8" width="2.517479024390244" height="36.49999999999994" fill="#ca2628" opacity="0.8"></rect><rect x="445.0003746341459" y="535.1" width="2.517479024390244" height="0.1999999999999318" fill="#ca2628" opacity="0.8"></rect><rect x="448.1472234146337" y="535.3" width="2.517479024390244" height="0" fill="#ca2628" opacity="0.8"></rect><rect x="451.2940721951215" y="535.3" width="2.517479024390244" height="0" fill="#ca2628" opacity="0.8"></rect><rect x="454.4409209756093" y="535.3" width="2.517479024390244" height="0" fill="#ca2628" opacity="0.8"></rect><rect x="457.5877697560971" y="534.3" width="2.517479024390244" height="1" fill="#ca2628" opacity="0.8"></rect><rect x="460.7346185365849" y="535.3" width="2.517479024390244" height="0" fill="#ca2628" opacity="0.8"></rect><rect x="463.8814673170727" y="533" width="2.517479024390244" height="2.2999999999999545" fill="#ca2628" opacity="0.8"></rect><rect x="467.0283160975605" y="533.8" width="2.517479024390244" height="1.5" fill="#ca2628" opacity="0.8"></rect><rect x="470.1751648780483" y="525.5" width="2.517479024390244" height="9.799999999999955" fill="#ca2628" opacity="0.8"></rect><rect x="473.3220136585361" y="535.3" width="2.517479024390244" height="0" fill="#ca2628" opacity="0.8"></rect><rect x="476.4688624390239" y="535.3" width="2.517479024390244" height="0" fill="#ca2628" opacity="0.8"></rect><rect x="479.6157112195117" y="535.2" width="2.517479024390244" height="0.09999999999990905" fill="#ca2628" opacity="0.8"></rect><rect x="482.7625599999995" y="535.3" width="2.517479024390244" height="0" fill="#ca2628" opacity="0.8"></rect><rect x="485.9094087804873" y="535.3" width="2.517479024390244" height="0" fill="#ca2628" opacity="0.8"></rect><rect x="489.0562575609751" y="531.7" width="2.517479024390244" height="3.599999999999909" fill="#ca2628" opacity="0.8"></rect><rect x="492.2031063414629" y="535.3" width="2.517479024390244" height="0" fill="#ca2628" opacity="0.8"></rect><rect x="495.3499551219507" y="535.2" width="2.517479024390244" height="0.09999999999990905" fill="#ca2628" opacity="0.8"></rect><rect x="498.4968039024385" y="535.2" width="2.517479024390244" height="0.09999999999990905" fill="#ca2628" opacity="0.8"></rect><rect x="501.6436526829263" y="535.3" width="2.517479024390244" height="0" fill="#ca2628" opacity="0.8"></rect><rect x="504.7905014634141" y="534.6" width="2.517479024390244" height="0.6999999999999318" fill="#ca2628" opacity="0.8"></rect><rect x="507.9373502439019" y="534.3" width="2.517479024390244" height="1" fill="#ca2628" opacity="0.8"></rect><rect x="511.0841990243897" y="535.3" width="2.517479024390244" height="0" fill="#ca2628" opacity="0.8"></rect><rect x="514.2310478048776" y="530.2" width="2.517479024390244" height="5.099999999999909" fill="#ca2628" opacity="0.8"></rect><rect x="517.3778965853654" y="534.8" width="2.517479024390244" height="0.5" fill="#ca2628" opacity="0.8"></rect><rect x="520.5247453658533" y="534.8" width="2.517479024390244" height="0.5" fill="#ca2628" opacity="0.8"></rect><rect x="523.6715941463411" y="510.7" width="2.517479024390244" height="24.599999999999966" fill="#ca2628" opacity="0.8"></rect><rect x="526.818442926829" y="535" width="2.517479024390244" height="0.2999999999999545" fill="#ca2628" opacity="0.8"></rect><rect x="529.9652917073169" y="533.6" width="2.517479024390244" height="1.6999999999999318" fill="#ca2628" opacity="0.8"></rect><rect x="533.1121404878047" y="535.1" width="2.517479024390244" height="0.1999999999999318" fill="#ca2628" opacity="0.8"></rect><rect x="536.2589892682926" y="535.3" width="2.517479024390244" height="0" fill="#ca2628" opacity="0.8"></rect><rect x="539.4058380487804" y="535.1" width="2.517479024390244" height="0.1999999999999318" fill="#ca2628" opacity="0.8"></rect><rect x="542.5526868292683" y="535.3" width="2.517479024390244" height="0" fill="#ca2628" opacity="0.8"></rect><rect x="545.6995356097561" y="535.2" width="2.517479024390244" height="0.09999999999990905" fill="#ca2628" opacity="0.8"></rect><rect x="548.846384390244" y="535.2" width="2.517479024390244" height="0.09999999999990905" fill="#ca2628" opacity="0.8"></rect><rect x="551.9932331707319" y="526.7" width="2.517479024390244" height="8.599999999999909" fill="#ca2628" opacity="0.8"></rect><rect x="555.1400819512197" y="534.3" width="2.517479024390244" height="1" fill="#ca2628" opacity="0.8"></rect><rect x="558.2869307317076" y="532.8" width="2.517479024390244" height="2.5" fill="#ca2628" opacity="0.8"></rect><rect x="561.4337795121954" y="533.5" width="2.517479024390244" height="1.7999999999999545" fill="#ca2628" opacity="0.8"></rect><rect x="564.5806282926833" y="535.3" width="2.517479024390244" height="0" fill="#ca2628" opacity="0.8"></rect><rect x="567.7274770731711" y="534.7" width="2.517479024390244" height="0.599999999999909" fill="#ca2628" opacity="0.8"></rect><rect x="570.874325853659" y="535.2" width="2.517479024390244" height="0.09999999999990905" fill="#ca2628" opacity="0.8"></rect><rect x="574.0211746341469" y="535.3" width="2.517479024390244" height="0" fill="#ca2628" opacity="0.8"></rect><rect x="577.1680234146347" y="535.1" width="2.517479024390244" height="0.1999999999999318" fill="#ca2628" opacity="0.8"></rect><rect x="580.3148721951226" y="535.3" width="2.517479024390244" height="0" fill="#ca2628" opacity="0.8"></rect><rect x="583.4617209756104" y="535.3" width="2.517479024390244" height="0" fill="#ca2628" opacity="0.8"></rect><rect x="586.6085697560983" y="535.1" width="2.517479024390244" height="0.1999999999999318" fill="#ca2628" opacity="0.8"></rect><rect x="589.7554185365861" y="534.7" width="2.517479024390244" height="0.599999999999909" fill="#ca2628" opacity="0.8"></rect><rect x="592.902267317074" y="534.2" width="2.517479024390244" height="1.099999999999909" fill="#ca2628" opacity="0.8"></rect><rect x="596.0491160975619" y="535.3" width="2.517479024390244" height="0" fill="#ca2628" opacity="0.8"></rect><rect x="599.1959648780497" y="535.2" width="2.517479024390244" height="0.09999999999990905" fill="#ca2628" opacity="0.8"></rect><rect x="602.3428136585376" y="525.3" width="2.517479024390244" height="10" fill="#ca2628" opacity="0.8"></rect><rect x="605.4896624390254" y="534.9" width="2.517479024390244" height="0.39999999999997726" fill="#ca2628" opacity="0.8"></rect><rect x="608.6365112195133" y="531.2" width="2.517479024390244" height="4.099999999999909" fill="#ca2628" opacity="0.8"></rect><rect x="611.7833600000012" y="521.2" width="2.517479024390244" height="14.099999999999909" fill="#ca2628" opacity="0.8"></rect><rect x="614.930208780489" y="535.3" width="2.517479024390244" height="0" fill="#ca2628" opacity="0.8"></rect><rect x="618.0770575609769" y="534.8" width="2.517479024390244" height="0.5" fill="#ca2628" opacity="0.8"></rect><rect x="621.2239063414647" y="370.3" width="2.517479024390244" height="164.99999999999994" fill="#ca2628" opacity="0.8"></rect><rect x="624.3707551219526" y="523.2" width="2.517479024390244" height="12.099999999999909" fill="#ca2628" opacity="0.8"></rect><rect x="627.5176039024404" y="534.4" width="2.517479024390244" height="0.8999999999999773" fill="#ca2628" opacity="0.8"></rect><rect x="630.6644526829283" y="535.2" width="2.517479024390244" height="0.09999999999990905" fill="#ca2628" opacity="0.8"></rect><rect x="633.8113014634162" y="535.3" width="2.517479024390244" height="0" fill="#ca2628" opacity="0.8"></rect><rect x="636.958150243904" y="534.9" width="2.517479024390244" height="0.39999999999997726" fill="#ca2628" opacity="0.8"></rect><rect x="640.1049990243919" y="529.3" width="2.517479024390244" height="6" fill="#ca2628" opacity="0.8"></rect><rect x="643.2518478048797" y="535.1" width="2.517479024390244" height="0.1999999999999318" fill="#ca2628" opacity="0.8"></rect><rect x="646.3986965853676" y="534.5" width="2.517479024390244" height="0.7999999999999545" fill="#ca2628" opacity="0.8"></rect><rect x="649.5455453658554" y="529.9" width="2.517479024390244" height="5.399999999999977" fill="#ca2628" opacity="0.8"></rect><rect x="652.6923941463433" y="534.8" width="2.517479024390244" height="0.5" fill="#ca2628" opacity="0.8"></rect><rect x="655.8392429268312" y="535.1" width="2.517479024390244" height="0.1999999999999318" fill="#ca2628" opacity="0.8"></rect><rect x="658.986091707319" y="535" width="2.517479024390244" height="0.2999999999999545" fill="#ca2628" opacity="0.8"></rect><rect x="662.1329404878069" y="523.7" width="2.517479024390244" height="11.599999999999909" fill="#ca2628" opacity="0.8"></rect><rect x="665.2797892682947" y="535.3" width="2.517479024390244" height="0" fill="#ca2628" opacity="0.8"></rect><rect x="668.4266380487826" y="535.2" width="2.517479024390244" height="0.09999999999990905" fill="#ca2628" opacity="0.8"></rect><rect x="671.5734868292705" y="535.3" width="2.517479024390244" height="0" fill="#ca2628" opacity="0.8"></rect><rect x="674.7203356097583" y="534.6" width="2.517479024390244" height="0.6999999999999318" fill="#ca2628" opacity="0.8"></rect><rect x="677.8671843902462" y="535.3" width="2.517479024390244" height="0" fill="#ca2628" opacity="0.8"></rect><rect x="681.014033170734" y="535.3" width="2.517479024390244" height="0" fill="#ca2628" opacity="0.8"></rect><rect x="684.1608819512219" y="526.2" width="2.517479024390244" height="9.099999999999909" fill="#ca2628" opacity="0.8"></rect><rect x="687.3077307317097" y="535.2" width="2.517479024390244" height="0.09999999999990905" fill="#ca2628" opacity="0.8"></rect><rect x="690.4545795121976" y="535.2" width="2.517479024390244" height="0.09999999999990905" fill="#ca2628" opacity="0.8"></rect><rect x="693.6014282926855" y="532.6" width="2.517479024390244" height="2.699999999999932" fill="#ca2628" opacity="0.8"></rect><rect x="696.7482770731733" y="535" width="2.517479024390244" height="0.2999999999999545" fill="#ca2628" opacity="0.8"></rect><rect x="699.8951258536612" y="535.2" width="2.517479024390244" height="0.09999999999990905" fill="#ca2628" opacity="0.8"></rect><rect x="703.041974634149" y="534.7" width="2.517479024390244" height="0.599999999999909" fill="#ca2628" opacity="0.8"></rect><rect x="706.1888234146369" y="535.3" width="2.517479024390244" height="0" fill="#ca2628" opacity="0.8"></rect><rect x="709.3356721951247" y="535.2" width="2.517479024390244" height="0.09999999999990905" fill="#ca2628" opacity="0.8"></rect><rect x="712.4825209756126" y="535.2" width="2.517479024390244" height="0.09999999999990905" fill="#ca2628" opacity="0.8"></rect></g></g><g style="cursor: pointer;" class="ScatterColorLegend clickable"><g class="legendMark"><rect x="735" y="105.10000000000001" width="43.886" height="17.6" fill="#fff" opacity="0"></rect>,<rect x="735" y="110.60000000000001" width="6" height="6" fill="#ca2628"></rect>,<text font-size="12.60" x="746.0" y="117.7"><tspan x="746" y="117.68">World</tspan></text></g></g></g><g style="fill: #777;" class="SourcesFooter"><g style="fill: #777;" class="clickable"><text font-size="12.60" x="15.0" y="581.6"><tspan x="15" y="581.58">Source: National Geophysical Data Center (NGDC) of the NOAA</tspan></text></g><text font-size="12.60" x="775.4" y="581.6"><tspan x="775.402" y="581.58"><a style="fill: #777;" class="cclogo" href="http://creativecommons.org/licenses/by-sa/4.0/deed.en_US" target="_blank">CC BY-SA</a></tspan></text></g></g></svg>