<svg xmlns="http://www.w3.org/2000/svg" version="1.1" style="font-family: 'Helvetica Neue', Helvetica, Arial, sans-serif; font-size: 18px; background-color: white; text-rendering: optimizeLegibility; -webkit-font-smoothing: antialiased;" width="850" height="600"><g class="ChartTab"><g class="HeaderView"><g opacity="0.8" transform="translate(778, 15) scale(0.27)"><a xmlns:xlink="http://www.w3.org/1999/xlink" xlink:href="https://ourworldindata.org" target="_blank"><g><rect x="0" y="0" fill="#1B2543" width="211.2" height="130.1"/><rect x="0" y="112.2" fill="#E63912" width="211.2" height="17.9"/><g><rect x="1.2" y="12.3" fill="none" width="210.2" height="99.2"/><path fill="#FFFFFF" d="M37.8,32.2c0,12.7-7.7,19.4-17.1,19.4c-9.7,0-16.6-7.5-16.6-18.7c0-11.7,7.3-19.3,17.1-19.3 C31.3,13.7,37.8,21.3,37.8,32.2z M9.2,32.8c0,7.9,4.3,14.9,11.8,14.9c7.5,0,11.8-6.9,11.8-15.3c0-7.3-3.8-14.9-11.8-14.9 C13.1,17.5,9.2,24.8,9.2,32.8z"/><path fill="#FFFFFF" d="M62.7,43.8c0,2.7,0.1,5.1,0.2,7.2h-4.3l-0.3-4.3h-0.1c-1.3,2.1-4,4.9-8.8,4.9c-4.2,0-9.1-2.3-9.1-11.6 V24.6h4.8v14.6c0,5,1.5,8.4,5.9,8.4c3.2,0,5.5-2.2,6.3-4.4c0.3-0.7,0.4-1.6,0.4-2.5V24.6h4.8V43.8z"/><path fill="#FFFFFF" d="M67.3,32.8c0-3.1-0.1-5.8-0.2-8.2h4.2l0.2,5.2h0.2c1.2-3.5,4.1-5.8,7.3-5.8c0.5,0,0.9,0.1,1.4,0.2v4.5 c-0.5-0.1-1-0.2-1.6-0.2c-3.4,0-5.8,2.6-6.5,6.2c-0.1,0.7-0.2,1.4-0.2,2.2V51h-4.8V32.8z"/><path fill="#FFFFFF" d="M95.4,51l-9.4-36.8h5l4.4,18.6c1.1,4.6,2.1,9.2,2.7,12.7h0.1c0.6-3.7,1.8-8,3-12.8l4.9-18.5h5l4.5,18.7 c1,4.4,2,8.7,2.6,12.6h0.1c0.8-4,1.8-8.1,3-12.7l4.9-18.5h4.9L120.6,51h-5L111,31.9c-1.1-4.7-1.9-8.3-2.4-12h-0.1 c-0.7,3.7-1.5,7.3-2.8,12L100.4,51H95.4z"/><path fill="#FFFFFF" d="M154.9,37.6c0,9.8-6.8,14-13.2,14c-7.2,0-12.7-5.2-12.7-13.6c0-8.8,5.8-14,13.1-14 C149.8,24,154.9,29.5,154.9,37.6z M133.9,37.9c0,5.8,3.3,10.1,8,10.1c4.6,0,8-4.3,8-10.3c0-4.5-2.2-10.1-7.9-10.1 C136.3,27.6,133.9,32.8,133.9,37.9z"/><path fill="#FFFFFF" d="M158.2,32.8c0-3.1-0.1-5.8-0.2-8.2h4.2l0.2,5.2h0.2c1.2-3.5,4.1-5.8,7.3-5.8c0.5,0,0.9,0.1,1.4,0.2v4.5 c-0.5-0.1-1-0.2-1.6-0.2c-3.4,0-5.8,2.6-6.5,6.2c-0.1,0.7-0.2,1.4-0.2,2.2V51h-4.8V32.8z"/><path fill="#FFFFFF" d="M173.5,12.3h4.8V51h-4.8V12.3z"/><path fill="#FFFFFF" d="M206.5,12.3v31.9c0,2.3,0.1,5,0.2,6.8h-4.3l-0.2-4.6H202c-1.5,2.9-4.7,5.2-9,5.2 c-6.4,0-11.3-5.4-11.3-13.4c-0.1-8.8,5.4-14.2,11.9-14.2c4,0,6.8,1.9,8,4h0.1V12.3H206.5z M201.7,35.4c0-0.6-0.1-1.4-0.2-2 c-0.7-3.1-3.3-5.6-6.9-5.6c-5,0-7.9,4.4-7.9,10.2c0,5.3,2.6,9.8,7.8,9.8c3.2,0,6.2-2.1,7.1-5.7c0.2-0.7,0.2-1.3,0.2-2.1V35.4z"/><path fill="#FFFFFF" d="M42.8,64c0.1,1.6-1.1,2.9-3.1,2.9c-1.7,0-2.9-1.3-2.9-2.9c0-1.7,1.3-3,3-3C41.7,61,42.8,62.3,42.8,64z M37.4,97.8V71.4h4.8v26.4H37.4z"/><path fill="#FFFFFF" d="M47.5,78.6c0-2.7-0.1-5-0.2-7.1h4.3l0.3,4.4h0.1c1.3-2.5,4.4-5,8.8-5c3.7,0,9.4,2.2,9.4,11.2v15.8h-4.8 V82.6c0-4.3-1.6-7.8-6.1-7.8c-3.2,0-5.6,2.2-6.5,4.9c-0.2,0.6-0.3,1.4-0.3,2.2v15.9h-4.8V78.6z"/><path fill="#FFFFFF" d="M84,61.6c2.9-0.4,6.3-0.8,10.1-0.8c6.8,0,11.7,1.6,14.9,4.6c3.3,3,5.2,7.3,5.2,13.2c0,6-1.9,10.9-5.3,14.3 c-3.4,3.4-9.1,5.3-16.3,5.3c-3.4,0-6.2-0.2-8.6-0.4V61.6z M88.8,94.1c1.2,0.2,3,0.3,4.8,0.3c10.2,0,15.7-5.7,15.7-15.6 c0.1-8.7-4.9-14.2-14.9-14.2c-2.5,0-4.3,0.2-5.6,0.5V94.1z"/><path fill="#FFFFFF" d="M132.1,97.8l-0.4-3.3h-0.2c-1.5,2.1-4.3,3.9-8.1,3.9c-5.4,0-8.1-3.8-8.1-7.6c0-6.4,5.7-9.9,15.9-9.8v-0.5 c0-2.2-0.6-6.1-6-6.1c-2.5,0-5,0.8-6.9,2l-1.1-3.2c2.2-1.4,5.4-2.3,8.7-2.3c8.1,0,10.1,5.5,10.1,10.8v9.9c0,2.3,0.1,4.5,0.4,6.3 H132.1z M131.4,84.4c-5.3-0.1-11.2,0.8-11.2,5.9c0,3.1,2.1,4.6,4.5,4.6c3.4,0,5.6-2.2,6.4-4.4c0.2-0.5,0.3-1,0.3-1.5V84.4z"/><path fill="#FFFFFF" d="M146.6,63.9v7.6h6.9v3.7h-6.9v14.2c0,3.3,0.9,5.1,3.6,5.1c1.3,0,2.2-0.2,2.8-0.3l0.2,3.6 c-0.9,0.4-2.4,0.7-4.3,0.7c-2.2,0-4-0.7-5.2-2c-1.4-1.4-1.9-3.8-1.9-6.9V75.1h-4.1v-3.7h4.1v-6.3L146.6,63.9z"/><path fill="#FFFFFF" d="M171.4,97.8l-0.4-3.3h-0.2c-1.5,2.1-4.3,3.9-8.1,3.9c-5.4,0-8.1-3.8-8.1-7.6c0-6.4,5.7-9.9,15.9-9.8v-0.5 c0-2.2-0.6-6.1-6-6.1c-2.5,0-5,0.8-6.9,2l-1.1-3.2c2.2-1.4,5.4-2.3,8.7-2.3c8.1,0,10.1,5.5,10.1,10.8v9.9c0,2.3,0.1,4.5,0.4,6.3 H171.4z M170.7,84.4c-5.3-0.1-11.2,0.8-11.2,5.9c0,3.1,2.1,4.6,4.5,4.6c3.4,0,5.6-2.2,6.4-4.4c0.2-0.5,0.3-1,0.3-1.5V84.4z"/></g></g></a></g><a href="https://ourworldindata.org/grapher/deaths-risk-factor-50-69years" target="_blank"><text font-size="25.20" x="15.0" y="35.2" fill="#555"><tspan x="15" y="35.160000000000004">Number of deaths by risk factor aged 50-69, World, 2016</tspan></text></a><text font-size="14.40" x="15.0" y="53.7" fill="#666"><tspan x="15" y="53.72">Total annual number of deaths by risk factor, measured across both sexes for adults aged 50-69 years old.</tspan></text></g><g class="DiscreteBarChart"><rect x="15" y="76.6" width="810" height="479.9" opacity="0" fill="rgba(255,255,255,0)"></rect><g class="HorizontalAxis"><text x="245.4" y="556.5" fill="#666" text-anchor="middle" font-size="16.2">0</text><text x="321.1" y="556.5" fill="#666" text-anchor="middle" font-size="16.2">500,000</text><text x="396.9" y="556.5" fill="#666" text-anchor="middle" font-size="16.2">1 million</text><text x="472.6" y="556.5" fill="#666" text-anchor="middle" font-size="16.2">1.5 million</text><text x="548.3" y="556.5" fill="#666" text-anchor="middle" font-size="16.2">2 million</text><text x="624" y="556.5" fill="#666" text-anchor="middle" font-size="16.2">2.5 million</text><text x="699.8" y="556.5" fill="#666" text-anchor="middle" font-size="16.2">3 million</text></g><g class="AxisGridLines"><line x1="245.4" y1="535.30" x2="245.4" y2="76.60" stroke="#ccc"></line><line x1="321.1" y1="535.30" x2="321.1" y2="76.60" stroke="#ddd" stroke-dasharray="3,2"></line><line x1="396.9" y1="535.30" x2="396.9" y2="76.60" stroke="#ddd" stroke-dasharray="3,2"></line><line x1="472.6" y1="535.30" x2="472.6" y2="76.60" stroke="#ddd" stroke-dasharray="3,2"></line><line x1="548.3" y1="535.30" x2="548.3" y2="76.60" stroke="#ddd" stroke-dasharray="3,2"></line><line x1="624" y1="535.30" x2="624" y2="76.60" stroke="#ddd" stroke-dasharray="3,2"></line><line x1="699.8" y1="535.30" x2="699.8" y2="76.60" stroke="#ddd" stroke-dasharray="3,2"></line></g><g class="bar"><text x="240.418" y="86.25684210526316" fill="#666" dominant-baseline="middle" text-anchor="end" font-size="13.5">High blood pressure</text><rect x="245.4" y="76.6" width="511.20000000000005" height="19.31368421052632" fill="#2E5778" opacity="0.85"></rect><text x="761.6" y="86.25684210526316" fill="#666" dominant-baseline="middle" text-anchor="start" font-size="13.5">3.37 million</text></g><g class="bar"><text x="240.418" y="110.39894736842106" fill="#666" dominant-baseline="middle" text-anchor="end" font-size="13.5">Smoking</text><rect x="245.4" y="100.7421052631579" width="403" height="19.31368421052632" fill="#2E5778" opacity="0.85"></rect><text x="653.4" y="110.39894736842106" fill="#666" dominant-baseline="middle" text-anchor="start" font-size="13.5">2.66 million</text></g><g class="bar"><text x="240.418" y="134.54105263157896" fill="#666" dominant-baseline="middle" text-anchor="end" font-size="13.5">High blood sugar</text><rect x="245.4" y="124.8842105263158" width="287.80000000000007" height="19.31368421052632" fill="#2E5778" opacity="0.85"></rect><text x="538.2" y="134.54105263157896" fill="#666" dominant-baseline="middle" text-anchor="start" font-size="13.5">1.9 million</text></g><g class="bar"><text x="240.418" y="158.68315789473687" fill="#666" dominant-baseline="middle" text-anchor="end" font-size="13.5">High body-mass index (obesity)</text><rect x="245.4" y="149.0263157894737" width="287.20000000000005" height="19.31368421052632" fill="#2E5778" opacity="0.85"></rect><text x="537.6" y="158.68315789473687" fill="#666" dominant-baseline="middle" text-anchor="start" font-size="13.5">1.9 million</text></g><g class="bar"><text x="240.418" y="182.82526315789477" fill="#666" dominant-baseline="middle" text-anchor="end" font-size="13.5">High total cholesterol</text><rect x="245.4" y="173.1684210526316" width="227.49999999999997" height="19.31368421052632" fill="#2E5778" opacity="0.85"></rect><text x="477.9" y="182.82526315789477" fill="#666" dominant-baseline="middle" text-anchor="start" font-size="13.5">1.5 million</text></g><g class="bar"><text x="240.418" y="206.96736842105267" fill="#666" dominant-baseline="middle" text-anchor="end" font-size="13.5">Outdoor air pollution</text><rect x="245.4" y="197.3105263157895" width="212.20000000000002" height="19.31368421052632" fill="#2E5778" opacity="0.85"></rect><text x="462.6" y="206.96736842105267" fill="#666" dominant-baseline="middle" text-anchor="start" font-size="13.5">1.4 million</text></g><g class="bar"><text x="240.418" y="231.10947368421057" fill="#666" dominant-baseline="middle" text-anchor="end" font-size="13.5">Alcohol use</text><rect x="245.4" y="221.4526315789474" width="188.70000000000002" height="19.31368421052632" fill="#2E5778" opacity="0.85"></rect><text x="439.1" y="231.10947368421057" fill="#666" dominant-baseline="middle" text-anchor="start" font-size="13.5">1.25 million</text></g><g class="bar"><text x="240.418" y="255.25157894736847" fill="#666" dominant-baseline="middle" text-anchor="end" font-size="13.5">Diet low in fruits</text><rect x="245.4" y="245.5947368421053" width="148.20000000000002" height="19.31368421052632" fill="#2E5778" opacity="0.85"></rect><text x="398.6" y="255.25157894736847" fill="#666" dominant-baseline="middle" text-anchor="start" font-size="13.5">978,728</text></g><g class="bar"><text x="240.418" y="279.3936842105264" fill="#666" dominant-baseline="middle" text-anchor="end" font-size="13.5">Household air pollution</text><rect x="245.4" y="269.73684210526324" width="133.4" height="19.31368421052632" fill="#2E5778" opacity="0.85"></rect><text x="383.8" y="279.3936842105264" fill="#666" dominant-baseline="middle" text-anchor="start" font-size="13.5">880,387</text></g><g class="bar"><text x="240.418" y="303.53578947368425" fill="#666" dominant-baseline="middle" text-anchor="end" font-size="13.5">Diet low in vegetables</text><rect x="245.4" y="293.8789473684211" width="84.9" height="19.31368421052632" fill="#2E5778" opacity="0.85"></rect><text x="335.3" y="303.53578947368425" fill="#666" dominant-baseline="middle" text-anchor="start" font-size="13.5">560,411</text></g><g class="bar"><text x="240.418" y="327.6778947368421" fill="#666" dominant-baseline="middle" text-anchor="end" font-size="13.5">Low physical activity</text><rect x="245.4" y="318.021052631579" width="52.49999999999997" height="19.31368421052632" fill="#2E5778" opacity="0.85"></rect><text x="302.9" y="327.6778947368421" fill="#666" dominant-baseline="middle" text-anchor="start" font-size="13.5">346,727</text></g><g class="bar"><text x="240.418" y="351.82" fill="#666" dominant-baseline="middle" text-anchor="end" font-size="13.5">Secondhand smoke</text><rect x="245.4" y="342.16315789473686" width="40.599999999999994" height="19.31368421052632" fill="#2E5778" opacity="0.85"></rect><text x="291" y="351.82" fill="#666" dominant-baseline="middle" text-anchor="start" font-size="13.5">267,937</text></g><g class="bar"><text x="240.418" y="375.96210526315787" fill="#666" dominant-baseline="middle" text-anchor="end" font-size="13.5">Unsafe sex</text><rect x="245.4" y="366.30526315789473" width="38.20000000000002" height="19.31368421052632" fill="#2E5778" opacity="0.85"></rect><text x="288.6" y="375.96210526315787" fill="#666" dominant-baseline="middle" text-anchor="start" font-size="13.5">251,925</text></g><g class="bar"><text x="240.418" y="400.10421052631574" fill="#666" dominant-baseline="middle" text-anchor="end" font-size="13.5">Unsafe water source</text><rect x="245.4" y="390.4473684210526" width="30.299999999999983" height="19.31368421052632" fill="#2E5778" opacity="0.85"></rect><text x="280.7" y="400.10421052631574" fill="#666" dominant-baseline="middle" text-anchor="start" font-size="13.5">199,704</text></g><g class="bar"><text x="240.418" y="424.2463157894736" fill="#666" dominant-baseline="middle" text-anchor="end" font-size="13.5">Drug use</text><rect x="245.4" y="414.5894736842105" width="24.700000000000017" height="19.31368421052632" fill="#2E5778" opacity="0.85"></rect><text x="275.1" y="424.2463157894736" fill="#666" dominant-baseline="middle" text-anchor="start" font-size="13.5">162,988</text></g><g class="bar"><text x="240.418" y="448.3884210526315" fill="#666" dominant-baseline="middle" text-anchor="end" font-size="13.5">Poor sanitation</text><rect x="245.4" y="438.73157894736835" width="23.599999999999994" height="19.31368421052632" fill="#2E5778" opacity="0.85"></rect><text x="274" y="448.3884210526315" fill="#666" dominant-baseline="middle" text-anchor="start" font-size="13.5">155,999</text></g><g class="bar"><text x="240.418" y="472.53052631578936" fill="#666" dominant-baseline="middle" text-anchor="end" font-size="13.5">No access to handwashing facility</text><rect x="245.4" y="462.8736842105262" width="19.299999999999983" height="19.31368421052632" fill="#2E5778" opacity="0.85"></rect><text x="269.7" y="472.53052631578936" fill="#666" dominant-baseline="middle" text-anchor="start" font-size="13.5">127,328</text></g><g class="bar"><text x="240.418" y="496.67263157894723" fill="#666" dominant-baseline="middle" text-anchor="end" font-size="13.5">Low bone mineral density</text><rect x="245.4" y="487.0157894736841" width="13.099999999999994" height="19.31368421052632" fill="#2E5778" opacity="0.85"></rect><text x="263.5" y="496.67263157894723" fill="#666" dominant-baseline="middle" text-anchor="start" font-size="13.5">86,530</text></g><g class="bar"><text x="240.418" y="520.8147368421052" fill="#666" dominant-baseline="middle" text-anchor="end" font-size="13.5">Iron deficiency</text><rect x="245.4" y="511.157894736842" width="0.09999999999999432" height="19.31368421052632" fill="#2E5778" opacity="0.85"></rect><text x="250.5" y="520.8147368421052" fill="#666" dominant-baseline="middle" text-anchor="start" font-size="13.5">480</text></g></g><g style="fill: #777;" class="SourcesFooter"><g style="fill: #777;" class="clickable"><text font-size="12.60" x="15.0" y="581.6"><tspan x="15" y="581.58">Source: IHME, Global Burden of Disease (GBD)</tspan></text></g><text font-size="12.60" x="649.0" y="581.6"><tspan x="649.024" y="581.58"><a target='_blank' style='fill: #777;' href='https://ourworldindata.org'>OurWorldInData.org</a> • <a style="fill: #777;" href="http://creativecommons.org/licenses/by-sa/4.0/deed.en_US" target="_blank">CC BY-SA</a></tspan></text></g></g></svg>