<svg xmlns="http://www.w3.org/2000/svg" version="1.1" style="font-family: 'Helvetica Neue', Helvetica, Arial, sans-serif; font-size: 18px; background-color: white; text-rendering: optimizeLegibility; -webkit-font-smoothing: antialiased;" width="850" height="600"><g class="ChartTab"><g class="HeaderView"><g opacity="0.8" transform="translate(770, 15) scale(0.31)"><a xmlns:xlink="http://www.w3.org/1999/xlink" xlink:href="https://ourworldindata.org" target="_blank"><g><rect x="0" y="0" fill="#1B2543" width="211.2" height="130.1"/><rect x="0" y="112.2" fill="#E63912" width="211.2" height="17.9"/><g><rect x="1.2" y="12.3" fill="none" width="210.2" height="99.2"/><path fill="#FFFFFF" d="M37.8,32.2c0,12.7-7.7,19.4-17.1,19.4c-9.7,0-16.6-7.5-16.6-18.7c0-11.7,7.3-19.3,17.1-19.3 C31.3,13.7,37.8,21.3,37.8,32.2z M9.2,32.8c0,7.9,4.3,14.9,11.8,14.9c7.5,0,11.8-6.9,11.8-15.3c0-7.3-3.8-14.9-11.8-14.9 C13.1,17.5,9.2,24.8,9.2,32.8z"/><path fill="#FFFFFF" d="M62.7,43.8c0,2.7,0.1,5.1,0.2,7.2h-4.3l-0.3-4.3h-0.1c-1.3,2.1-4,4.9-8.8,4.9c-4.2,0-9.1-2.3-9.1-11.6 V24.6h4.8v14.6c0,5,1.5,8.4,5.9,8.4c3.2,0,5.5-2.2,6.3-4.4c0.3-0.7,0.4-1.6,0.4-2.5V24.6h4.8V43.8z"/><path fill="#FFFFFF" d="M67.3,32.8c0-3.1-0.1-5.8-0.2-8.2h4.2l0.2,5.2h0.2c1.2-3.5,4.1-5.8,7.3-5.8c0.5,0,0.9,0.1,1.4,0.2v4.5 c-0.5-0.1-1-0.2-1.6-0.2c-3.4,0-5.8,2.6-6.5,6.2c-0.1,0.7-0.2,1.4-0.2,2.2V51h-4.8V32.8z"/><path fill="#FFFFFF" d="M95.4,51l-9.4-36.8h5l4.4,18.6c1.1,4.6,2.1,9.2,2.7,12.7h0.1c0.6-3.7,1.8-8,3-12.8l4.9-18.5h5l4.5,18.7 c1,4.4,2,8.7,2.6,12.6h0.1c0.8-4,1.8-8.1,3-12.7l4.9-18.5h4.9L120.6,51h-5L111,31.9c-1.1-4.7-1.9-8.3-2.4-12h-0.1 c-0.7,3.7-1.5,7.3-2.8,12L100.4,51H95.4z"/><path fill="#FFFFFF" d="M154.9,37.6c0,9.8-6.8,14-13.2,14c-7.2,0-12.7-5.2-12.7-13.6c0-8.8,5.8-14,13.1-14 C149.8,24,154.9,29.5,154.9,37.6z M133.9,37.9c0,5.8,3.3,10.1,8,10.1c4.6,0,8-4.3,8-10.3c0-4.5-2.2-10.1-7.9-10.1 C136.3,27.6,133.9,32.8,133.9,37.9z"/><path fill="#FFFFFF" d="M158.2,32.8c0-3.1-0.1-5.8-0.2-8.2h4.2l0.2,5.2h0.2c1.2-3.5,4.1-5.8,7.3-5.8c0.5,0,0.9,0.1,1.4,0.2v4.5 c-0.5-0.1-1-0.2-1.6-0.2c-3.4,0-5.8,2.6-6.5,6.2c-0.1,0.7-0.2,1.4-0.2,2.2V51h-4.8V32.8z"/><path fill="#FFFFFF" d="M173.5,12.3h4.8V51h-4.8V12.3z"/><path fill="#FFFFFF" d="M206.5,12.3v31.9c0,2.3,0.1,5,0.2,6.8h-4.3l-0.2-4.6H202c-1.5,2.9-4.7,5.2-9,5.2 c-6.4,0-11.3-5.4-11.3-13.4c-0.1-8.8,5.4-14.2,11.9-14.2c4,0,6.8,1.9,8,4h0.1V12.3H206.5z M201.7,35.4c0-0.6-0.1-1.4-0.2-2 c-0.7-3.1-3.3-5.6-6.9-5.6c-5,0-7.9,4.4-7.9,10.2c0,5.3,2.6,9.8,7.8,9.8c3.2,0,6.2-2.1,7.1-5.7c0.2-0.7,0.2-1.3,0.2-2.1V35.4z"/><path fill="#FFFFFF" d="M42.8,64c0.1,1.6-1.1,2.9-3.1,2.9c-1.7,0-2.9-1.3-2.9-2.9c0-1.7,1.3-3,3-3C41.7,61,42.8,62.3,42.8,64z M37.4,97.8V71.4h4.8v26.4H37.4z"/><path fill="#FFFFFF" d="M47.5,78.6c0-2.7-0.1-5-0.2-7.1h4.3l0.3,4.4h0.1c1.3-2.5,4.4-5,8.8-5c3.7,0,9.4,2.2,9.4,11.2v15.8h-4.8 V82.6c0-4.3-1.6-7.8-6.1-7.8c-3.2,0-5.6,2.2-6.5,4.9c-0.2,0.6-0.3,1.4-0.3,2.2v15.9h-4.8V78.6z"/><path fill="#FFFFFF" d="M84,61.6c2.9-0.4,6.3-0.8,10.1-0.8c6.8,0,11.7,1.6,14.9,4.6c3.3,3,5.2,7.3,5.2,13.2c0,6-1.9,10.9-5.3,14.3 c-3.4,3.4-9.1,5.3-16.3,5.3c-3.4,0-6.2-0.2-8.6-0.4V61.6z M88.8,94.1c1.2,0.2,3,0.3,4.8,0.3c10.2,0,15.7-5.7,15.7-15.6 c0.1-8.7-4.9-14.2-14.9-14.2c-2.5,0-4.3,0.2-5.6,0.5V94.1z"/><path fill="#FFFFFF" d="M132.1,97.8l-0.4-3.3h-0.2c-1.5,2.1-4.3,3.9-8.1,3.9c-5.4,0-8.1-3.8-8.1-7.6c0-6.4,5.7-9.9,15.9-9.8v-0.5 c0-2.2-0.6-6.1-6-6.1c-2.5,0-5,0.8-6.9,2l-1.1-3.2c2.2-1.4,5.4-2.3,8.7-2.3c8.1,0,10.1,5.5,10.1,10.8v9.9c0,2.3,0.1,4.5,0.4,6.3 H132.1z M131.4,84.4c-5.3-0.1-11.2,0.8-11.2,5.9c0,3.1,2.1,4.6,4.5,4.6c3.4,0,5.6-2.2,6.4-4.4c0.2-0.5,0.3-1,0.3-1.5V84.4z"/><path fill="#FFFFFF" d="M146.6,63.9v7.6h6.9v3.7h-6.9v14.2c0,3.3,0.9,5.1,3.6,5.1c1.3,0,2.2-0.2,2.8-0.3l0.2,3.6 c-0.9,0.4-2.4,0.7-4.3,0.7c-2.2,0-4-0.7-5.2-2c-1.4-1.4-1.9-3.8-1.9-6.9V75.1h-4.1v-3.7h4.1v-6.3L146.6,63.9z"/><path fill="#FFFFFF" d="M171.4,97.8l-0.4-3.3h-0.2c-1.5,2.1-4.3,3.9-8.1,3.9c-5.4,0-8.1-3.8-8.1-7.6c0-6.4,5.7-9.9,15.9-9.8v-0.5 c0-2.2-0.6-6.1-6-6.1c-2.5,0-5,0.8-6.9,2l-1.1-3.2c2.2-1.4,5.4-2.3,8.7-2.3c8.1,0,10.1,5.5,10.1,10.8v9.9c0,2.3,0.1,4.5,0.4,6.3 H171.4z M170.7,84.4c-5.3-0.1-11.2,0.8-11.2,5.9c0,3.1,2.1,4.6,4.5,4.6c3.4,0,5.6-2.2,6.4-4.4c0.2-0.5,0.3-1,0.3-1.5V84.4z"/></g></g></a></g><a href="https://ourworldindata.org/grapher/dietary-land-use-vs-gdp-per-capita" target="_blank"><text font-size="27.00" x="15.0" y="36.6" fill="#555"><tspan x="15" y="36.6">Dietary land use vs. GDP per capita, 2011</tspan></text></a><text font-size="14.40" x="15.0" y="55.5" fill="#666"><tspan x="15" y="55.519999999999996">The share of global habitable land which would be required for agriculture if everyone in the world adopted the</tspan><tspan x="15" y="71.36">average diet of a given country versus gross domestic product (GDP) per capita, measured in 2011 international-$.</tspan><tspan x="15" y="87.2">We currently use approximately 50% of habitable land for agriculture, as shown by the horizontal line.</tspan></text></g><g><g class="AxisBoxView"><g class="HorizontalAxis"><text font-size="12.60" x="287.7" y="554.0"><tspan x="287.699" y="553.98">GDP per capita (2011 int-$)</tspan></text><text x="124.6" y="533.9" fill="#666" text-anchor="middle" font-size="16.2">$1,000</text><text x="425.2" y="533.9" fill="#666" text-anchor="middle" font-size="16.2">$10,000</text></g><g class="VerticalAxis"><text font-size="12.60" x="-461.4" y="25.1" transform="rotate(-90)"><tspan x="-461.40700000000004" y="25.080000000000002">Share of habitable land needed for agriculture</tspan></text><text x="79.23" y="512.7" fill="#666" dominant-baseline="middle" text-anchor="end" font-size="16.2">0%</text><text x="79.23" y="407.2" fill="#666" dominant-baseline="middle" text-anchor="end" font-size="16.2">50%</text><text x="79.23" y="301.8" fill="#666" dominant-baseline="middle" text-anchor="end" font-size="16.2">100%</text><text x="79.23" y="196.3" fill="#666" dominant-baseline="middle" text-anchor="end" font-size="16.2">150%</text></g><g class="AxisGridLines"><line x1="84.23" y1="512.7" x2="715.00" y2="512.7" stroke="#ccc"></line><line x1="84.23" y1="407.2" x2="715.00" y2="407.2" stroke="#ddd" stroke-dasharray="3,2"></line><line x1="84.23" y1="301.8" x2="715.00" y2="301.8" stroke="#ddd" stroke-dasharray="3,2"></line><line x1="84.23" y1="196.3" x2="715.00" y2="196.3" stroke="#ddd" stroke-dasharray="3,2"></line></g><g class="AxisGridLines"><line x1="124.6" y1="512.70" x2="124.6" y2="109.40" stroke="#ddd" stroke-dasharray="3,2"></line><line x1="425.2" y1="512.70" x2="425.2" y2="109.40" stroke="#ddd" stroke-dasharray="3,2"></line></g></g><g class="ComparisonLine"><defs><clipPath id="axisBounds-729"><rect x="84.23400000000001" y="109.4" width="630.766" height="403.3"></rect></clipPath></defs><path d="M84.2,407.2L189.7,407.2L247.3,407.2L287.1,407.2L317.6,407.2L342.3,407.2L363,407.2L380.9,407.2L396.7,407.2L410.7,407.2L423.4,407.2L435,407.2L445.6,407.2L455.4,407.2L464.5,407.2L473.1,407.2L481.1,407.2L488.6,407.2L495.8,407.2L502.5,407.2L508.9,407.2L515.1,407.2L520.9,407.2L526.5,407.2L531.9,407.2L537.1,407.2L542,407.2L546.8,407.2L551.4,407.2L555.9,407.2L560.2,407.2L564.4,407.2L568.4,407.2L572.3,407.2L576.1,407.2L579.8,407.2L583.4,407.2L586.9,407.2L590.3,407.2L593.7,407.2L596.9,407.2L600.1,407.2L603.2,407.2L606.2,407.2L609.1,407.2L612,407.2L614.8,407.2L617.6,407.2L620.3,407.2L622.9,407.2L625.5,407.2L628.1,407.2L630.6,407.2L633,407.2L635.4,407.2L637.8,407.2L640.1,407.2L642.4,407.2L644.6,407.2L646.8,407.2L649,407.2L651.1,407.2L653.2,407.2L655.3,407.2L657.3,407.2L659.3,407.2L661.3,407.2L663.2,407.2L665.1,407.2L667,407.2L668.9,407.2L670.7,407.2L672.5,407.2L674.3,407.2L676,407.2L677.8,407.2L679.5,407.2L681.2,407.2L682.9,407.2L684.5,407.2L686.1,407.2L687.7,407.2L689.3,407.2L690.9,407.2L692.4,407.2L694,407.2L695.5,407.2L697,407.2L698.5,407.2L699.9,407.2L701.4,407.2L702.8,407.2L704.2,407.2L705.6,407.2L707,407.2L708.4,407.2L709.7,407.2L711.1,407.2L712.4,407.2L713.7,407.2" clip-path="url(#axisBounds-729)" fill="none" stroke="#ccc"></path></g><g clip-path="url(#scatterBounds-730)" class="PointsWithLabels clickable"><rect x="84.23400000000001" y="109.4" width="630.766" height="403.3" fill="rgba(255,255,255,0)"></rect><defs><clipPath id="scatterBounds-730"><rect x="74.23400000000001" y="99.4" width="650.766" height="423.3"></rect></clipPath></defs><circle cx="430" cy="427" r="17.841241161527712" fill="#d14e5b" opacity="0.8"></circle><circle cx="324" cy="465" r="17.131951458809365" fill="#d14e5b" opacity="0.8"></circle><circle cx="634" cy="222" r="8.740038567602701" fill="#4d824b" opacity="0.8"></circle><circle cx="409" cy="474" r="7.735666012113487" fill="#d14e5b" opacity="0.8"></circle><circle cx="477" cy="250" r="7.0114248892457995" fill="#69c487" opacity="0.8"></circle><circle cx="315" cy="406" r="6.6711351488375215" fill="#d14e5b" opacity="0.8"></circle><circle cx="341" cy="458" r="6.416058422092516" fill="#5675c1" opacity="0.8"></circle><circle cx="247" cy="481" r="6.193937972289232" fill="#d14e5b" opacity="0.8"></circle><circle cx="539" cy="340" r="6.047640652615773" fill="#ffd336" opacity="0.8"></circle><circle cx="591" cy="422" r="5.723033186068944" fill="#d14e5b" opacity="0.8"></circle><circle cx="486" cy="375" r="5.478691077752282" fill="#4d824b" opacity="0.8"></circle><circle cx="352" cy="453" r="5.035138224285824" fill="#d14e5b" opacity="0.8"></circle><circle cx="327" cy="434" r="4.892384728065008" fill="#d14e5b" opacity="0.8"></circle><circle cx="144" cy="456" r="4.794423216626446" fill="#5675c1" opacity="0.8"></circle><circle cx="422" cy="400" r="4.740526602438714" fill="#5675c1" opacity="0.8"></circle><circle cx="614" cy="304" r="4.7312862065453745" fill="#ffd336" opacity="0.8"></circle><circle cx="501" cy="425" r="4.54565262301366" fill="#d14e5b" opacity="0.8"></circle><circle cx="513" cy="384" r="4.515740849520942" fill="#d14e5b" opacity="0.8"></circle><circle cx="464" cy="468" r="4.407740488280992" fill="#d14e5b" opacity="0.8"></circle><circle cx="597" cy="255" r="4.234760920298396" fill="#ffd336" opacity="0.8"></circle><circle cx="594" cy="313" r="4.215153635870029" fill="#ffd336" opacity="0.8"></circle><circle cx="593" cy="266" r="4.169727410723905" fill="#ffd336" opacity="0.8"></circle><circle cx="451" cy="385" r="3.86925985219099" fill="#5675c1" opacity="0.8"></circle><circle cx="573" cy="389" r="3.806232330987816" fill="#d14e5b" opacity="0.8"></circle><circle cx="302" cy="447" r="3.80455524039242" fill="#d14e5b" opacity="0.8"></circle><circle cx="443" cy="379" r="3.760981943525258" fill="#69c487" opacity="0.8"></circle><circle cx="577" cy="345" r="3.7462715230348955" fill="#ffd336" opacity="0.8"></circle><circle cx="226" cy="450" r="3.738885414449416" fill="#5675c1" opacity="0.8"></circle><circle cx="400" cy="402" r="3.7065868879279193" fill="#ffd336" opacity="0.8"></circle><circle cx="247" cy="409" r="3.591861400068483" fill="#5675c1" opacity="0.8"></circle><circle cx="513" cy="171" r="3.564241727012002" fill="#69c487" opacity="0.8"></circle><circle cx="533" cy="393" r="3.482415184573544" fill="#ffd336" opacity="0.8"></circle><circle cx="459" cy="409" r="3.403667937085632" fill="#5675c1" opacity="0.8"></circle><circle cx="188" cy="446" r="3.352753022224217" fill="#5675c1" opacity="0.8"></circle><circle cx="611" cy="238" r="3.3471807197132355" fill="#4d824b" opacity="0.8"></circle><circle cx="462" cy="468" r="3.287804253988538" fill="#d14e5b" opacity="0.8"></circle><circle cx="190" cy="441" r="3.276879111856071" fill="#d14e5b" opacity="0.8"></circle><circle cx="372" cy="416" r="3.273834431326164" fill="#5675c1" opacity="0.8"></circle><circle cx="217" cy="433" r="3.2093684941124345" fill="#d14e5b" opacity="0.8"></circle><circle cx="494" cy="327" r="3.170922678608202" fill="#69c487" opacity="0.8"></circle><circle cx="431" cy="452" r="3.169555264545233" fill="#69c487" opacity="0.8"></circle><circle cx="527" cy="445" r="3.1495463327210644" fill="#d14e5b" opacity="0.8"></circle><circle cx="631" cy="413" r="3.1205808414297964" fill="#d14e5b" opacity="0.8"></circle><circle cx="320" cy="317" r="3.10848168276773" fill="#d14e5b" opacity="0.8"></circle><circle cx="284" cy="457" r="3.0015251300686887" fill="#5675c1" opacity="0.8"></circle><circle cx="118" cy="484" r="2.960886819886305" fill="#5675c1" opacity="0.8"></circle><circle cx="611" cy="179" r="2.9081313799698116" fill="#a652ba" opacity="0.8"></circle><circle cx="502" cy="375" r="2.860732855287795" fill="#ffd336" opacity="0.8"></circle><circle cx="165" cy="449" r="2.855768099624038" fill="#5675c1" opacity="0.8"></circle><circle cx="414" cy="478" r="2.8447021453166825" fill="#d14e5b" opacity="0.8"></circle><circle cx="244" cy="454" r="2.8077770311969976" fill="#5675c1" opacity="0.8"></circle><circle cx="253" cy="438" r="2.8026695746414036" fill="#5675c1" opacity="0.8"></circle><circle cx="356" cy="450" r="2.785430584044816" fill="#5675c1" opacity="0.8"></circle><circle cx="518" cy="350" r="2.685016273377909" fill="#69c487" opacity="0.8"></circle><circle cx="175" cy="412" r="2.6718461872209125" fill="#5675c1" opacity="0.8"></circle><circle cx="624" cy="302" r="2.6585484504239476" fill="#ffd336" opacity="0.8"></circle><circle cx="523" cy="283" r="2.638327831330334" fill="#d14e5b" opacity="0.8"></circle><circle cx="95" cy="382" r="2.6322154881622666" fill="#5675c1" opacity="0.8"></circle><circle cx="206" cy="381" r="2.6220027098057193" fill="#5675c1" opacity="0.8"></circle><circle cx="131" cy="474" r="2.6014686523750266" fill="#5675c1" opacity="0.8"></circle><circle cx="375" cy="449" r="2.573288115852324" fill="#4d824b" opacity="0.8"></circle><circle cx="424" cy="353" r="2.5691379088115016" fill="#69c487" opacity="0.8"></circle><circle cx="252" cy="465" r="2.552660713863518" fill="#d14e5b" opacity="0.8"></circle><circle cx="282" cy="465" r="2.514343261047547" fill="#5675c1" opacity="0.8"></circle><circle cx="224" cy="445" r="2.481227528052043" fill="#5675c1" opacity="0.8"></circle><circle cx="191" cy="443" r="2.4806064304268896" fill="#5675c1" opacity="0.8"></circle><circle cx="205" cy="429" r="2.4219876417558712" fill="#5675c1" opacity="0.8"></circle><circle cx="550" cy="271" r="2.415438787568631" fill="#ffd336" opacity="0.8"></circle><circle cx="170" cy="456" r="2.393698180850163" fill="#5675c1" opacity="0.8"></circle><circle cx="610" cy="292" r="2.3844530968758133" fill="#ffd336" opacity="0.8"></circle><circle cx="553" cy="310" r="2.381293291570327" fill="#ffd336" opacity="0.8"></circle><circle cx="426" cy="414" r="2.3765940953238056" fill="#5675c1" opacity="0.8"></circle><circle cx="563" cy="357" r="2.3736518684903687" fill="#ffd336" opacity="0.8"></circle><circle cx="149" cy="462" r="2.35820822126848" fill="#5675c1" opacity="0.8"></circle><circle cx="182" cy="462" r="2.3533429415978673" fill="#4d824b" opacity="0.8"></circle><circle cx="349" cy="364" r="2.351569512951831" fill="#69c487" opacity="0.8"></circle><circle cx="441" cy="416" r="2.34998144326004" fill="#4d824b" opacity="0.8"></circle><circle cx="532" cy="381" r="2.3454957568439077" fill="#ffd336" opacity="0.8"></circle><circle cx="459" cy="396" r="2.339898256426241" fill="#ffd336" opacity="0.8"></circle><circle cx="495" cy="340" r="2.3251335583352732" fill="#ffd336" opacity="0.8"></circle><circle cx="618" cy="246" r="2.3191568510022775" fill="#ffd336" opacity="0.8"></circle><circle cx="484" cy="368" r="2.3123542523034453" fill="#d14e5b" opacity="0.8"></circle><circle cx="202" cy="466" r="2.3019087254683175" fill="#5675c1" opacity="0.8"></circle><circle cx="619" cy="275" r="2.2667690148807904" fill="#ffd336" opacity="0.8"></circle><circle cx="655" cy="396" r="2.239653922120758" fill="#d14e5b" opacity="0.8"></circle><circle cx="307" cy="429" r="2.232529854675529" fill="#4d824b" opacity="0.8"></circle><circle cx="650" cy="277" r="2.2297524008911886" fill="#ffd336" opacity="0.8"></circle><circle cx="571" cy="292" r="2.222425136325309" fill="#d14e5b" opacity="0.8"></circle><circle cx="483" cy="413" r="2.216310478783874" fill="#ffd336" opacity="0.8"></circle><circle cx="228" cy="451" r="2.19141763527959" fill="#d14e5b" opacity="0.8"></circle><circle cx="387" cy="364" r="2.169502452535302" fill="#69c487" opacity="0.8"></circle><circle cx="414" cy="414" r="2.156630321684264" fill="#d14e5b" opacity="0.8"></circle><circle cx="313" cy="449" r="2.154344779963141" fill="#d14e5b" opacity="0.8"></circle><circle cx="386" cy="425" r="2.151056078466139" fill="#4d824b" opacity="0.8"></circle><circle cx="152" cy="475" r="2.147101745805567" fill="#5675c1" opacity="0.8"></circle><circle cx="153" cy="474" r="2.1385167052572958" fill="#5675c1" opacity="0.8"></circle><circle cx="312" cy="445" r="2.13152693599363" fill="#4d824b" opacity="0.8"></circle><circle cx="619" cy="225" r="2.115157020804401" fill="#ffd336" opacity="0.8"></circle><circle cx="549" cy="395" r="2.1095610989143885" fill="#ffd336" opacity="0.8"></circle><circle cx="264" cy="354" r="2.105182052370101" fill="#d14e5b" opacity="0.8"></circle><circle cx="608" cy="284" r="2.1047482132363515" fill="#ffd336" opacity="0.8"></circle><circle cx="440" cy="251" r="2.0891646477345676" fill="#d14e5b" opacity="0.8"></circle><circle cx="663" cy="287" r="2.0790402864205224" fill="#ffd336" opacity="0.8"></circle><circle cx="463" cy="354" r="2.0678589765136195" fill="#4d824b" opacity="0.8"></circle><circle cx="623" cy="289" r="2.056474734940831" fill="#ffd336" opacity="0.8"></circle><circle cx="112" cy="355" r="2.0542580292890715" fill="#5675c1" opacity="0.8"></circle><circle cx="580" cy="109" r="2.05013696015703" fill="#a652ba" opacity="0.8"></circle><circle cx="520" cy="369" r="2.0490559232175776" fill="#ffd336" opacity="0.8"></circle><circle cx="384" cy="419" r="2.0452556454770283" fill="#d14e5b" opacity="0.8"></circle><circle cx="484" cy="368" r="2.0412714699401544" fill="#d14e5b" opacity="0.8"></circle><circle cx="340" cy="449" r="2.03440567341035" fill="#5675c1" opacity="0.8"></circle><circle cx="84" cy="484" r="2.033763222408579" fill="#5675c1" opacity="0.8"></circle><circle cx="423" cy="400" r="2.0120093728522344" fill="#ffd336" opacity="0.8"></circle><circle cx="494" cy="353" r="2.0014602987134356" fill="#4d824b" opacity="0.8"></circle><circle cx="311" cy="451" r="1.9999219849251249" fill="#ffd336" opacity="0.8"></circle><circle cx="283" cy="373" r="1.9997276317409096" fill="#5675c1" opacity="0.8"></circle><circle cx="501" cy="292" r="1.9902600381013418" fill="#69c487" opacity="0.8"></circle><circle cx="533" cy="366" r="1.9859944576926" fill="#ffd336" opacity="0.8"></circle><circle cx="427" cy="320" r="1.9806003125795264" fill="#ffd336" opacity="0.8"></circle><circle cx="379" cy="344" r="1.9737548085951524" fill="#d14e5b" opacity="0.8"></circle><circle cx="613" cy="354" r="1.9586441182452003" fill="#d14e5b" opacity="0.8"></circle><circle cx="692" cy="372" r="1.9569656780573785" fill="#d14e5b" opacity="0.8"></circle><circle cx="409" cy="217" r="1.9558941830739107" fill="#d14e5b" opacity="0.8"></circle><circle cx="397" cy="433" r="1.9529721419675874" fill="#4d824b" opacity="0.8"></circle><circle cx="407" cy="399" r="1.927220752889146" fill="#5675c1" opacity="0.8"></circle><circle cx="514" cy="363" r="1.9223084011254419" fill="#ffd336" opacity="0.8"></circle><circle cx="244" cy="435" r="1.919307326590363" fill="#5675c1" opacity="0.8"></circle><circle cx="444" cy="396" r="1.9113740454236947" fill="#ffd336" opacity="0.8"></circle><circle cx="563" cy="301" r="1.9096064209679497" fill="#ffd336" opacity="0.8"></circle><circle cx="468" cy="394" r="1.9093446972923562" fill="#5675c1" opacity="0.8"></circle><circle cx="180" cy="453" r="1.8936865347001401" fill="#5675c1" opacity="0.8"></circle><circle cx="176" cy="462" r="1.8794907137584878" fill="#5675c1" opacity="0.8"></circle><circle cx="485" cy="388" r="1.878694278500926" fill="#5675c1" opacity="0.8"></circle><circle cx="573" cy="426" r="1.8669620861213168" fill="#4d824b" opacity="0.8"></circle><circle cx="542" cy="355" r="1.8665979784970934" fill="#ffd336" opacity="0.8"></circle><circle cx="491" cy="416" r="1.8644704156336247" fill="#5675c1" opacity="0.8"></circle><circle cx="384" cy="406" r="1.8579830548278284" fill="#5675c1" opacity="0.8"></circle><circle cx="581" cy="394" r="1.852514532174435" fill="#ffd336" opacity="0.8"></circle><circle cx="254" cy="426" r="1.8391481758856802" fill="#5675c1" opacity="0.8"></circle><circle cx="387" cy="396" r="1.8367842306786795" fill="#a652ba" opacity="0.8"></circle><circle cx="361" cy="449" r="1.8296170638084477" fill="#69c487" opacity="0.8"></circle><circle cx="473" cy="350" r="1.8216892892899208" fill="#ffd336" opacity="0.8"></circle><circle cx="213" cy="456" r="1.8165474434479676" fill="#a652ba" opacity="0.8"></circle><circle cx="477" cy="416" r="1.815076147787706" fill="#69c487" opacity="0.8"></circle><circle cx="715" cy="245" r="1.8142076732065353" fill="#ffd336" opacity="0.8"></circle><circle cx="562" cy="303" r="1.8078747928573697" fill="#ffd336" opacity="0.8"></circle><circle cx="700" cy="392" r="1.8071038649021844" fill="#d14e5b" opacity="0.8"></circle><circle cx="532" cy="361" r="1.8032976469000366" fill="#4d824b" opacity="0.8"></circle><circle cx="604" cy="260" r="1.8018179979945572" fill="#ffd336" opacity="0.8"></circle><circle cx="439" cy="430" r="1.801539901177154" fill="#d14e5b" opacity="0.8"></circle><circle cx="393" cy="433" r="1.801400155112818" fill="#4d824b" opacity="0.8"></circle><circle cx="481" cy="371" r="1.7985416471977822" fill="#4d824b" opacity="0.8"></circle><circle cx="264" cy="429" r="1.7967004387625307" fill="#a652ba" opacity="0.8"></circle><circle cx="351" cy="401" r="1.7926775762601237" fill="#a652ba" opacity="0.8"></circle><circle cx="435" cy="418" r="1.7921667843039621" fill="#4d824b" opacity="0.8"></circle><circle cx="254" cy="456" r="1.7916762087094986" fill="#5675c1" opacity="0.8"></circle><circle cx="423" cy="393" r="1.7878110504767575" fill="#4d824b" opacity="0.8"></circle><circle cx="440" cy="424" r="1.7875183458600126" fill="#4d824b" opacity="0.8"></circle><circle cx="194" cy="451" r="1.7872699508527918" fill="#a652ba" opacity="0.8"></circle><circle cx="506" cy="375" r="1.786518668049541" fill="#4d824b" opacity="0.8"></circle><circle cx="427" cy="392" r="1.7850822961631962" fill="#4d824b" opacity="0.8"></circle><circle cx="647" cy="183" r="1.784912110017124" fill="#4d824b" opacity="0.8"></circle><circle cx="526" cy="394" r="1.7841241161527712" fill="#4d824b" opacity="0.8"></circle><circle cx="464" cy="408" r="1.7806438960713276" fill="#000" opacity="0.8"></circle><circle cx="212" cy="429" r="1.7806438960713276" fill="#d14e5b" opacity="0.8"></circle><circle cx="299" cy="453" r="1.7806438960713276" fill="#d14e5b" opacity="0.8"></circle><text x="430" y="408.1587588384723" font-size="14.3" font-family="Arial Narrow, Arial, sans-serif" fill="#666">China</text><text x="324" y="446.86804854119066" font-size="14.040230862298053" font-family="Arial Narrow, Arial, sans-serif" fill="#666">India</text><text x="634" y="212.2599614323973" font-size="11.76660280310486" font-family="Arial Narrow, Arial, sans-serif" fill="#666">United States</text><text x="409" y="465.2643339878865" font-size="11.5933152173227" font-family="Arial Narrow, Arial, sans-serif" fill="#666">Indonesia</text><text x="477" y="241.9885751107542" font-size="11.481469809885732" font-family="Arial Narrow, Arial, sans-serif" fill="#666">Brazil</text><text x="315" y="398.3288648511625" font-size="11.432711927440828" font-family="Arial Narrow, Arial, sans-serif" fill="#666">Pakistan</text><text x="247" y="473.80606202771077" font-size="11.368422620741505" font-family="Arial Narrow, Arial, sans-serif" fill="#666">Bangladesh</text><text x="539" y="332.95235934738423" font-size="11.349668253596677" font-family="Arial Narrow, Arial, sans-serif" fill="#666">Russia</text><text x="591" y="415.27696681393104" font-size="11.309656420472544" font-family="Arial Narrow, Arial, sans-serif" fill="#666">Japan</text><text x="486" y="368.5213089222477" font-size="11.280994069283702" font-family="Arial Narrow, Arial, sans-serif" fill="#666">Mexico</text><text x="327" y="428.107615271935" font-size="11.217317885979655" font-family="Arial Narrow, Arial, sans-serif" fill="#666">Vietnam</text><text x="144" y="450.20557678337354" font-size="11.207380668732508" font-family="Arial Narrow, Arial, sans-serif" fill="#666">Ethiopia</text><text x="614" y="298.26871379345465" font-size="11.20108256283021" font-family="Arial Narrow, Arial, sans-serif" fill="#666">Germany</text><text x="501" y="419.45434737698633" font-size="11.183048654429586" font-family="Arial Narrow, Arial, sans-serif" fill="#666">Iran</text><text x="464" y="462.592259511719" font-size="11.170118052201223" font-family="Arial Narrow, Arial, sans-serif" fill="#666">Thailand</text><text x="597" y="249.76523907970162" font-size="11.154462698463306" font-family="Arial Narrow, Arial, sans-serif" fill="#666">France</text><text x="451" y="380.13074014780904" font-size="11.123444411181257" font-family="Arial Narrow, Arial, sans-serif" fill="#666">South Africa</text><text x="573" y="384.1937676690122" font-size="11.1183784124243" font-family="Arial Narrow, Arial, sans-serif" fill="#666">South Korea</text><text x="577" y="340.2537284769651" font-size="11.113636133984215" font-family="Arial Narrow, Arial, sans-serif" fill="#666">Spain</text><text x="226" y="445.26111458555056" font-size="11.113057178441002" font-family="Arial Narrow, Arial, sans-serif" fill="#666">Tanzania</text><text x="247" y="404.40813859993153" font-size="11.101770526953858" font-family="Arial Narrow, Arial, sans-serif" fill="#666">Kenya</text><text x="513" y="166.435758272988" font-size="11.099700749070655" font-family="Arial Narrow, Arial, sans-serif" fill="#666">Argentina</text><text x="533" y="388.51758481542646" font-size="11.093662570596862" font-family="Arial Narrow, Arial, sans-serif" fill="#666">Poland</text><text x="611" y="233.65281928028676" font-size="11.083990688075907" font-family="Arial Narrow, Arial, sans-serif" fill="#666">Canada</text><text x="372" y="411.7261655686738" font-size="11.07890521521061" font-family="Arial Narrow, Arial, sans-serif" fill="#666">Morocco</text><text x="217" y="428.7906315058876" font-size="11.074528497522635" font-family="Arial Narrow, Arial, sans-serif" fill="#666">Nepal</text><text x="431" y="447.83044473545476" font-size="11.07186897643937" font-family="Arial Narrow, Arial, sans-serif" fill="#666">Peru</text><text x="527" y="440.85045366727894" font-size="11.070544915845826" font-family="Arial Narrow, Arial, sans-serif" fill="#666">Malaysia</text><text x="631" y="408.8794191585702" font-size="11.06864302378046" font-family="Arial Narrow, Arial, sans-serif" fill="#666">Saudi Arabia</text><text x="320" y="312.8915183172323" font-size="11.067853788519818" font-family="Arial Narrow, Arial, sans-serif" fill="#666">Uzbekistan</text><text x="284" y="452.99847486993133" font-size="11.061010297380795" font-family="Arial Narrow, Arial, sans-serif" fill="#666">Ghana</text><text x="118" y="480.0391131801137" font-size="11.058472913144296" font-family="Arial Narrow, Arial, sans-serif" fill="#666">Mozambique</text><text x="611" y="175.0918686200302" font-size="11.055230552471563" font-family="Arial Narrow, Arial, sans-serif" fill="#666">Australia</text><text x="356" y="446.21456941595517" font-size="11.047914782368741" font-family="Arial Narrow, Arial, sans-serif" fill="#666">Angola</text><text x="518" y="346.3149837266221" font-size="11.042162409455102" font-family="Arial Narrow, Arial, sans-serif" fill="#666">Chile</text><text x="175" y="408.3281538127791" font-size="11.041423608020825" font-family="Arial Narrow, Arial, sans-serif" fill="#666">Burkina Faso</text><text x="523" y="279.36167216866966" font-size="11.039559718874635" font-family="Arial Narrow, Arial, sans-serif" fill="#666">Kazakhstan</text><text x="95" y="378.3677845118377" font-size="11.039222360314637" font-family="Arial Narrow, Arial, sans-serif" fill="#666">Niger</text><text x="206" y="377.3779972901943" font-size="11.038660432371438" font-family="Arial Narrow, Arial, sans-serif" fill="#666">Mali</text><text x="424" y="349.4308620911885" font-size="11.035786622627668" font-family="Arial Narrow, Arial, sans-serif" fill="#666">Ecuador</text><text x="550" y="267.58456121243137" font-size="11.027763779781175" font-family="Arial Narrow, Arial, sans-serif" fill="#666">Greece</text><text x="553" y="306.61870670842967" font-size="11.02604860846414" font-family="Arial Narrow, Arial, sans-serif" fill="#666">Portugal</text><text x="563" y="353.62634813150964" font-size="11.025668113970491" font-family="Arial Narrow, Arial, sans-serif" fill="#666">Czech Republic</text><text x="349" y="360.6484304870482" font-size="11.024575425963487" font-family="Arial Narrow, Arial, sans-serif" fill="#666">Bolivia</text><text x="459" y="392.6601017435738" font-size="11.024002029553316" font-family="Arial Narrow, Arial, sans-serif" fill="#666">Serbia</text><text x="202" y="462.6980912745317" font-size="11.022155400658084" font-family="Arial Narrow, Arial, sans-serif" fill="#666">Benin</text><text x="619" y="271.73323098511923" font-size="11.020474208623405" font-family="Arial Narrow, Arial, sans-serif" fill="#666">Austria</text><text x="387" y="360.8304975474647" font-size="11.01595554202422" font-family="Arial Narrow, Arial, sans-serif" fill="#666">Paraguay</text><text x="264" y="350.8948179476299" font-size="11.01307627845257" font-family="Arial Narrow, Arial, sans-serif" fill="#666">Kyrgyzstan</text><text x="663" y="283.92095971357946" font-size="11.011930822762904" font-family="Arial Narrow, Arial, sans-serif" fill="#666">Norway</text><text x="623" y="285.9435252650592" font-size="11.01095357615344" font-family="Arial Narrow, Arial, sans-serif" fill="#666">Ireland</text><text x="112" y="351.9457419707109" font-size="11.01085815253276" font-family="Arial Narrow, Arial, sans-serif" fill="#666">Central African Republic</text><text x="580" y="120.41068102435013" font-size="11.010681024350122" font-family="Arial Narrow, Arial, sans-serif" fill="#666">New Zealand</text><text x="84" y="480.9662367775914" font-size="11.00998077685041" font-family="Arial Narrow, Arial, sans-serif" fill="#666">Liberia</text><text x="283" y="370.0002723682591" font-size="11.008543160556433" font-family="Arial Narrow, Arial, sans-serif" fill="#666">Mauritania</text><text x="427" y="317.01939968742045" font-size="11.007745897613804" font-family="Arial Narrow, Arial, sans-serif" fill="#666">Albania</text><text x="379" y="341.0262451914048" font-size="11.007462425909944" font-family="Arial Narrow, Arial, sans-serif" fill="#666">Armenia</text><text x="658.8696182519793" y="369.0430343219426" font-size="11.006771344857356" font-family="Arial Narrow, Arial, sans-serif" fill="#666">Kuwait</text><text x="409" y="214.04410581692608" font-size="11.006727439951117" font-family="Arial Narrow, Arial, sans-serif" fill="#666">Mongolia</text><text x="397" y="430.04702785803244" font-size="11.006607830428273" font-family="Arial Narrow, Arial, sans-serif" fill="#666">Jamaica</text><text x="254" y="423.16085182411433" font-size="11.002087767923433" font-family="Arial Narrow, Arial, sans-serif" fill="#666">Djibouti</text><text x="387" y="393.1632157693213" font-size="11.00199676956857" font-family="Arial Narrow, Arial, sans-serif" fill="#666">Fiji</text><text x="653.6136745240613" y="242.18579232679346" font-size="11.001133597838482" font-family="Arial Narrow, Arial, sans-serif" fill="#666">Luxembourg</text><text x="668.0974938049488" y="389.19289613509784" font-size="11.000864205190064" font-family="Arial Narrow, Arial, sans-serif" fill="#666">Brunei</text><text x="439" y="427.19846009882286" font-size="11.000653945064292" font-family="Arial Narrow, Arial, sans-serif" fill="#666">Maldives</text></g><g style="cursor: pointer;" class="ScatterColorLegend clickable"><g class="legendMark"><rect x="735" y="106.9" width="43.256" height="17.6" fill="#fff" opacity="0"></rect>,<rect x="735" y="112.4" width="6" height="6" fill="#5675c1"></rect>,<text font-size="12.60" x="746.0" y="119.5"><tspan x="746" y="119.48">Africa</tspan></text></g><g class="legendMark"><rect x="735" y="124.5" width="35.57" height="17.6" fill="#fff" opacity="0"></rect>,<rect x="735" y="130" width="6" height="6" fill="#d14e5b"></rect>,<text font-size="12.60" x="746.0" y="137.1"><tspan x="746" y="137.07999999999998">Asia</tspan></text></g><g class="legendMark"><rect x="735" y="142.10000000000002" width="51.824" height="17.6" fill="#fff" opacity="0"></rect>,<rect x="735" y="147.60000000000002" width="6" height="6" fill="#ffd336"></rect>,<text font-size="12.60" x="746.0" y="154.7"><tspan x="746" y="154.68">Europe</tspan></text></g><g class="legendMark"><rect x="735" y="159.70000000000002" width="91.64" height="17.6" fill="#fff" opacity="0"></rect>,<rect x="735" y="165.20000000000002" width="6" height="6" fill="#4d824b"></rect>,<text font-size="12.60" x="746.0" y="172.3"><tspan x="746" y="172.28">North America</tspan></text></g><g class="legendMark"><rect x="735" y="177.3" width="58.124" height="17.6" fill="#fff" opacity="0"></rect>,<rect x="735" y="182.8" width="6" height="6" fill="#a652ba"></rect>,<text font-size="12.60" x="746.0" y="189.9"><tspan x="746" y="189.88">Oceania</tspan></text></g><g class="legendMark"><rect x="735" y="194.9" width="93.908" height="17.6" fill="#fff" opacity="0"></rect>,<rect x="735" y="200.4" width="6" height="6" fill="#69c487"></rect>,<text font-size="12.60" x="746.0" y="207.5"><tspan x="746" y="207.48">South America</tspan></text></g></g></g><g style="fill: #777;" class="SourcesFooter"><g style="fill: #777;" class="clickable"><text font-size="12.60" x="15.0" y="581.6"><tspan x="15" y="581.58">Source: World Bank – WDI, HALF Index (Land Use) - Alexander et al. (2016)</tspan></text></g><text font-size="12.60" x="469.3" y="581.6"><tspan x="469.348" y="581.58"><a target='_blank' style='fill: #777;' href='https://ourworldindata.org/agricultural-land-by-global-diets'>OurWorldInData.org/agricultural-land-by-global-diets</a> • <a style="fill: #777;" href="http://creativecommons.org/licenses/by-sa/4.0/deed.en_US" target="_blank">CC BY-SA</a></tspan></text></g></g></svg>