<svg xmlns="http://www.w3.org/2000/svg" version="1.1" style="font-family: 'Helvetica Neue', Helvetica, Arial, sans-serif; font-size: 18px; background-color: white; text-rendering: optimizeLegibility; -webkit-font-smoothing: antialiased;" width="850" height="600"><g class="ChartTab"><g class="HeaderView"><g opacity="0.8" transform="translate(778, 15) scale(0.27)"><a xmlns:xlink="http://www.w3.org/1999/xlink" xlink:href="https://ourworldindata.org" target="_blank"><g><rect x="0" y="0" fill="#1B2543" width="211.2" height="130.1"/><rect x="0" y="112.2" fill="#E63912" width="211.2" height="17.9"/><g><rect x="1.2" y="12.3" fill="none" width="210.2" height="99.2"/><path fill="#FFFFFF" d="M37.8,32.2c0,12.7-7.7,19.4-17.1,19.4c-9.7,0-16.6-7.5-16.6-18.7c0-11.7,7.3-19.3,17.1-19.3 C31.3,13.7,37.8,21.3,37.8,32.2z M9.2,32.8c0,7.9,4.3,14.9,11.8,14.9c7.5,0,11.8-6.9,11.8-15.3c0-7.3-3.8-14.9-11.8-14.9 C13.1,17.5,9.2,24.8,9.2,32.8z"/><path fill="#FFFFFF" d="M62.7,43.8c0,2.7,0.1,5.1,0.2,7.2h-4.3l-0.3-4.3h-0.1c-1.3,2.1-4,4.9-8.8,4.9c-4.2,0-9.1-2.3-9.1-11.6 V24.6h4.8v14.6c0,5,1.5,8.4,5.9,8.4c3.2,0,5.5-2.2,6.3-4.4c0.3-0.7,0.4-1.6,0.4-2.5V24.6h4.8V43.8z"/><path fill="#FFFFFF" d="M67.3,32.8c0-3.1-0.1-5.8-0.2-8.2h4.2l0.2,5.2h0.2c1.2-3.5,4.1-5.8,7.3-5.8c0.5,0,0.9,0.1,1.4,0.2v4.5 c-0.5-0.1-1-0.2-1.6-0.2c-3.4,0-5.8,2.6-6.5,6.2c-0.1,0.7-0.2,1.4-0.2,2.2V51h-4.8V32.8z"/><path fill="#FFFFFF" d="M95.4,51l-9.4-36.8h5l4.4,18.6c1.1,4.6,2.1,9.2,2.7,12.7h0.1c0.6-3.7,1.8-8,3-12.8l4.9-18.5h5l4.5,18.7 c1,4.4,2,8.7,2.6,12.6h0.1c0.8-4,1.8-8.1,3-12.7l4.9-18.5h4.9L120.6,51h-5L111,31.9c-1.1-4.7-1.9-8.3-2.4-12h-0.1 c-0.7,3.7-1.5,7.3-2.8,12L100.4,51H95.4z"/><path fill="#FFFFFF" d="M154.9,37.6c0,9.8-6.8,14-13.2,14c-7.2,0-12.7-5.2-12.7-13.6c0-8.8,5.8-14,13.1-14 C149.8,24,154.9,29.5,154.9,37.6z M133.9,37.9c0,5.8,3.3,10.1,8,10.1c4.6,0,8-4.3,8-10.3c0-4.5-2.2-10.1-7.9-10.1 C136.3,27.6,133.9,32.8,133.9,37.9z"/><path fill="#FFFFFF" d="M158.2,32.8c0-3.1-0.1-5.8-0.2-8.2h4.2l0.2,5.2h0.2c1.2-3.5,4.1-5.8,7.3-5.8c0.5,0,0.9,0.1,1.4,0.2v4.5 c-0.5-0.1-1-0.2-1.6-0.2c-3.4,0-5.8,2.6-6.5,6.2c-0.1,0.7-0.2,1.4-0.2,2.2V51h-4.8V32.8z"/><path fill="#FFFFFF" d="M173.5,12.3h4.8V51h-4.8V12.3z"/><path fill="#FFFFFF" d="M206.5,12.3v31.9c0,2.3,0.1,5,0.2,6.8h-4.3l-0.2-4.6H202c-1.5,2.9-4.7,5.2-9,5.2 c-6.4,0-11.3-5.4-11.3-13.4c-0.1-8.8,5.4-14.2,11.9-14.2c4,0,6.8,1.9,8,4h0.1V12.3H206.5z M201.7,35.4c0-0.6-0.1-1.4-0.2-2 c-0.7-3.1-3.3-5.6-6.9-5.6c-5,0-7.9,4.4-7.9,10.2c0,5.3,2.6,9.8,7.8,9.8c3.2,0,6.2-2.1,7.1-5.7c0.2-0.7,0.2-1.3,0.2-2.1V35.4z"/><path fill="#FFFFFF" d="M42.8,64c0.1,1.6-1.1,2.9-3.1,2.9c-1.7,0-2.9-1.3-2.9-2.9c0-1.7,1.3-3,3-3C41.7,61,42.8,62.3,42.8,64z M37.4,97.8V71.4h4.8v26.4H37.4z"/><path fill="#FFFFFF" d="M47.5,78.6c0-2.7-0.1-5-0.2-7.1h4.3l0.3,4.4h0.1c1.3-2.5,4.4-5,8.8-5c3.7,0,9.4,2.2,9.4,11.2v15.8h-4.8 V82.6c0-4.3-1.6-7.8-6.1-7.8c-3.2,0-5.6,2.2-6.5,4.9c-0.2,0.6-0.3,1.4-0.3,2.2v15.9h-4.8V78.6z"/><path fill="#FFFFFF" d="M84,61.6c2.9-0.4,6.3-0.8,10.1-0.8c6.8,0,11.7,1.6,14.9,4.6c3.3,3,5.2,7.3,5.2,13.2c0,6-1.9,10.9-5.3,14.3 c-3.4,3.4-9.1,5.3-16.3,5.3c-3.4,0-6.2-0.2-8.6-0.4V61.6z M88.8,94.1c1.2,0.2,3,0.3,4.8,0.3c10.2,0,15.7-5.7,15.7-15.6 c0.1-8.7-4.9-14.2-14.9-14.2c-2.5,0-4.3,0.2-5.6,0.5V94.1z"/><path fill="#FFFFFF" d="M132.1,97.8l-0.4-3.3h-0.2c-1.5,2.1-4.3,3.9-8.1,3.9c-5.4,0-8.1-3.8-8.1-7.6c0-6.4,5.7-9.9,15.9-9.8v-0.5 c0-2.2-0.6-6.1-6-6.1c-2.5,0-5,0.8-6.9,2l-1.1-3.2c2.2-1.4,5.4-2.3,8.7-2.3c8.1,0,10.1,5.5,10.1,10.8v9.9c0,2.3,0.1,4.5,0.4,6.3 H132.1z M131.4,84.4c-5.3-0.1-11.2,0.8-11.2,5.9c0,3.1,2.1,4.6,4.5,4.6c3.4,0,5.6-2.2,6.4-4.4c0.2-0.5,0.3-1,0.3-1.5V84.4z"/><path fill="#FFFFFF" d="M146.6,63.9v7.6h6.9v3.7h-6.9v14.2c0,3.3,0.9,5.1,3.6,5.1c1.3,0,2.2-0.2,2.8-0.3l0.2,3.6 c-0.9,0.4-2.4,0.7-4.3,0.7c-2.2,0-4-0.7-5.2-2c-1.4-1.4-1.9-3.8-1.9-6.9V75.1h-4.1v-3.7h4.1v-6.3L146.6,63.9z"/><path fill="#FFFFFF" d="M171.4,97.8l-0.4-3.3h-0.2c-1.5,2.1-4.3,3.9-8.1,3.9c-5.4,0-8.1-3.8-8.1-7.6c0-6.4,5.7-9.9,15.9-9.8v-0.5 c0-2.2-0.6-6.1-6-6.1c-2.5,0-5,0.8-6.9,2l-1.1-3.2c2.2-1.4,5.4-2.3,8.7-2.3c8.1,0,10.1,5.5,10.1,10.8v9.9c0,2.3,0.1,4.5,0.4,6.3 H171.4z M170.7,84.4c-5.3-0.1-11.2,0.8-11.2,5.9c0,3.1,2.1,4.6,4.5,4.6c3.4,0,5.6-2.2,6.4-4.4c0.2-0.5,0.3-1,0.3-1.5V84.4z"/></g></g></a></g><a href="https://ourworldindata.org/grapher/disease-burden-from-communicable-diseases-by-age" target="_blank"><text font-size="21.60" x="15.0" y="32.3" fill="#555"><tspan x="15" y="32.279999999999994">Disease burden from communicable, maternal, neonatal &amp; nutritional</tspan><tspan x="15" y="53.87999999999999">diseases by age, World</tspan></text></a><text font-size="14.40" x="15.0" y="72.7" fill="#666"><tspan x="15" y="72.72">Disease burden from communicable, maternal, neonatal and nutritional diseases by age. Disease burden is measured in DALYs</tspan><tspan x="15" y="88.56">(Disability-Adjusted Life Years). DALYs are used to measure total burden of disease - both from years of life lost and years lived</tspan><tspan x="15" y="104.4">with a disability. One DALY equals one lost year of healthy life.</tspan></text></g><g class="StackedArea"><defs><clipPath id="boundsClip-1"><rect x="97.598" y="0" width="820" height="859.8"></rect></clipPath></defs><g class="AxisBoxView"><g class="HorizontalAxis"><text x="97.6" y="556.5" fill="#666" text-anchor="middle" font-size="16.2">1990</text><text x="214.7" y="556.5" fill="#666" text-anchor="middle" font-size="16.2">1995</text><text x="331.8" y="556.5" fill="#666" text-anchor="middle" font-size="16.2">2000</text><text x="448.9" y="556.5" fill="#666" text-anchor="middle" font-size="16.2">2005</text><text x="566" y="556.5" fill="#666" text-anchor="middle" font-size="16.2">2010</text><text x="706.6" y="556.5" fill="#666" text-anchor="middle" font-size="16.2">2016</text></g><g class="VerticalAxis"><text x="92.60" y="535.3" fill="#666" dominant-baseline="middle" text-anchor="end" font-size="16.2">0</text><text x="92.60" y="461.9" fill="#666" dominant-baseline="middle" text-anchor="end" font-size="16.2">200 million</text><text x="92.60" y="388.6" fill="#666" dominant-baseline="middle" text-anchor="end" font-size="16.2">400 million</text><text x="92.60" y="315.2" fill="#666" dominant-baseline="middle" text-anchor="end" font-size="16.2">600 million</text><text x="92.60" y="241.8" fill="#666" dominant-baseline="middle" text-anchor="end" font-size="16.2">800 million</text><text x="92.60" y="168.5" fill="#666" dominant-baseline="middle" text-anchor="end" font-size="16.2">1 billion</text></g><g class="AxisGridLines"><line x1="97.60" y1="535.3" x2="706.58" y2="535.3" stroke="#ccc"></line><line x1="97.60" y1="461.9" x2="706.58" y2="461.9" stroke="#ddd" stroke-dasharray="3,2"></line><line x1="97.60" y1="388.6" x2="706.58" y2="388.6" stroke="#ddd" stroke-dasharray="3,2"></line><line x1="97.60" y1="315.2" x2="706.58" y2="315.2" stroke="#ddd" stroke-dasharray="3,2"></line><line x1="97.60" y1="241.8" x2="706.58" y2="241.8" stroke="#ddd" stroke-dasharray="3,2"></line><line x1="97.60" y1="168.5" x2="706.58" y2="168.5" stroke="#ddd" stroke-dasharray="3,2"></line></g></g><g clip-path="url(#boundsClip-1)"><g class="HeightedLegend clickable"><g class="legendMark"><rect x="706.5799999999999" y="288.95" width="116.67500000000001" height="13.5" fill="#fff" opacity="0"></rect><text font-size="13.50" x="711.6" y="299.8" fill="#34983f"><tspan x="711.5799999999999" y="299.75">70+ year olds</tspan></text></g><g class="legendMark"><rect x="706.5799999999999" y="304.05" width="128.42000000000002" height="13.5" fill="#fff" opacity="0"></rect><text font-size="13.50" x="711.6" y="314.9" fill="#9ecc8a"><tspan x="711.5799999999999" y="314.85">50-69 year olds</tspan></text></g><g class="legendMark"><rect x="706.5799999999999" y="343.45" width="128.42000000000002" height="13.5" fill="#fff" opacity="0"></rect><text font-size="13.50" x="711.6" y="354.3" fill="#ffd53e"><tspan x="711.5799999999999" y="354.25">15-49 year olds</tspan></text></g><g class="legendMark"><rect x="706.5799999999999" y="382.45" width="120.86" height="13.5" fill="#fff" opacity="0"></rect><text font-size="13.50" x="711.6" y="393.3" fill="#ca2628"><tspan x="711.5799999999999" y="393.25">5-14 year olds</tspan></text></g><g class="legendMark"><rect x="706.5799999999999" y="460.25" width="90.62" height="13.5" fill="#fff" opacity="0"></rect><text font-size="13.50" x="711.6" y="471.1" fill="#3360a9"><tspan x="711.5799999999999" y="471.05">Under-5s</tspan></text></g></g><g class="Areas"><rect x="97.598" y="126.6" width="608.982" height="408.69999999999993" opacity="0" fill="rgba(255,255,255,0)"></rect><path stroke-linecap="round" d="M97.6 233.1L121 239.2L144.4 246.2L167.9 252.7L191.3 258.7L214.7 263.3L238.1 269.4L261.6 276.1L285 282.1L308.4 287.8L331.8 293.3L355.2 298.7L378.7 304.2L402.1 311L425.5 316.9L448.9 322.8L472.4 328.7L495.8 334.9L519.2 340.9L542.6 347L566 353L589.5 360.1L612.9 367.9L636.3 375.7L659.7 383.7L683.2 392L706.6 398.6L706.5799999999999 535.3L97.598 535.3" fill="#3360a9" fill-opacity="0.7" class="World_0-area"></path><path stroke-linecap="round" d="M97.6 206.8L121 213L144.4 220L167.9 226.5L191.3 232.6L214.7 237L238.1 243.2L261.6 250.2L285 256.3L308.4 262.2L331.8 268L355.2 273.7L378.7 279.4L402.1 286.6L425.5 292.9L448.9 299.2L472.4 305.6L495.8 312.2L519.2 318.5L542.6 324.9L566 331.2L589.5 338.8L612.9 347.1L636.3 355.4L659.7 363.8L683.2 372.6L706.6 379.8L706.6 398.6L683.2 392L659.7 383.7L636.3 375.7L612.9 367.9L589.5 360.1L566 353L542.6 347L519.2 340.9L495.8 334.9L472.4 328.7L448.9 322.8L425.5 316.9L402.1 311L378.7 304.2L355.2 298.7L331.8 293.3L308.4 287.8L285 282.1L261.6 276.1L238.1 269.4L214.7 263.3L191.3 258.7L167.9 252.7L144.4 246.2L121 239.2L97.6 233.1" fill="#ca2628" fill-opacity="0.7" class="World_4-area"></path><path stroke-linecap="round" d="M97.6 153.3L121 158.5L144.4 163.9L167.9 168.6L191.3 172.5L214.7 174.4L238.1 178.9L261.6 184.2L285 188.4L308.4 192.2L331.8 195.6L355.2 200L378.7 204.3L402.1 210.7L425.5 216.5L448.9 222.5L472.4 229.7L495.8 237.5L519.2 245.3L542.6 253.4L566 261.2L589.5 270.8L612.9 281.1L636.3 291.3L659.7 301.3L683.2 311.9L706.6 320.6L706.6 379.8L683.2 372.6L659.7 363.8L636.3 355.4L612.9 347.1L589.5 338.8L566 331.2L542.6 324.9L519.2 318.5L495.8 312.2L472.4 305.6L448.9 299.2L425.5 292.9L402.1 286.6L378.7 279.4L355.2 273.7L331.8 268L308.4 262.2L285 256.3L261.6 250.2L238.1 243.2L214.7 237L191.3 232.6L167.9 226.5L144.4 220L121 213L97.6 206.8" fill="#ffd53e" fill-opacity="0.7" class="World_2-area"></path><path stroke-linecap="round" d="M97.6 135.2L121 140.3L144.4 145.5L167.9 150L191.3 153.7L214.7 155.2L238.1 159.6L261.6 164.7L285 168.7L308.4 172.1L331.8 175.1L355.2 179.3L378.7 183.4L402.1 189.6L425.5 195.3L448.9 201.3L472.4 208.7L495.8 216.7L519.2 224.6L542.6 232.8L566 240.8L589.5 250.7L612.9 261.2L636.3 271.5L659.7 281.6L683.2 292.3L706.6 301L706.6 320.6L683.2 311.9L659.7 301.3L636.3 291.3L612.9 281.1L589.5 270.8L566 261.2L542.6 253.4L519.2 245.3L495.8 237.5L472.4 229.7L448.9 222.5L425.5 216.5L402.1 210.7L378.7 204.3L355.2 200L331.8 195.6L308.4 192.2L285 188.4L261.6 184.2L238.1 178.9L214.7 174.4L191.3 172.5L167.9 168.6L144.4 163.9L121 158.5L97.6 153.3" fill="#9ecc8a" fill-opacity="0.7" class="World_3-area"></path><path stroke-linecap="round" d="M97.6 126.6L121 131.6L144.4 136.7L167.9 141.1L191.3 144.6L214.7 145.9L238.1 150.2L261.6 155.2L285 159L308.4 162.3L331.8 165.1L355.2 169.2L378.7 173.2L402.1 179.4L425.5 185L448.9 190.9L472.4 198.3L495.8 206.2L519.2 214.2L542.6 222.3L566 230.2L589.5 240.1L612.9 250.6L636.3 261L659.7 271.1L683.2 281.7L706.6 290.3L706.6 301L683.2 292.3L659.7 281.6L636.3 271.5L612.9 261.2L589.5 250.7L566 240.8L542.6 232.8L519.2 224.6L495.8 216.7L472.4 208.7L448.9 201.3L425.5 195.3L402.1 189.6L378.7 183.4L355.2 179.3L331.8 175.1L308.4 172.1L285 168.7L261.6 164.7L238.1 159.6L214.7 155.2L191.3 153.7L167.9 150L144.4 145.5L121 140.3L97.6 135.2" fill="#34983f" fill-opacity="0.7" class="World_1-area"></path><path stroke-linecap="round" d="M97.6 233.1L121 239.2L144.4 246.2L167.9 252.7L191.3 258.7L214.7 263.3L238.1 269.4L261.6 276.1L285 282.1L308.4 287.8L331.8 293.3L355.2 298.7L378.7 304.2L402.1 311L425.5 316.9L448.9 322.8L472.4 328.7L495.8 334.9L519.2 340.9L542.6 347L566 353L589.5 360.1L612.9 367.9L636.3 375.7L659.7 383.7L683.2 392L706.6 398.6" stroke="rgb(43, 80, 141)" stroke-opacity="0.7" stroke-width="0.5" fill="none" class="World_0-border"></path><path stroke-linecap="round" d="M97.6 206.8L121 213L144.4 220L167.9 226.5L191.3 232.6L214.7 237L238.1 243.2L261.6 250.2L285 256.3L308.4 262.2L331.8 268L355.2 273.7L378.7 279.4L402.1 286.6L425.5 292.9L448.9 299.2L472.4 305.6L495.8 312.2L519.2 318.5L542.6 324.9L566 331.2L589.5 338.8L612.9 347.1L636.3 355.4L659.7 363.8L683.2 372.6L706.6 379.8" stroke="rgb(169, 32, 33)" stroke-opacity="0.7" stroke-width="0.5" fill="none" class="World_4-border"></path><path stroke-linecap="round" d="M97.6 153.3L121 158.5L144.4 163.9L167.9 168.6L191.3 172.5L214.7 174.4L238.1 178.9L261.6 184.2L285 188.4L308.4 192.2L331.8 195.6L355.2 200L378.7 204.3L402.1 210.7L425.5 216.5L448.9 222.5L472.4 229.7L495.8 237.5L519.2 245.3L542.6 253.4L566 261.2L589.5 270.8L612.9 281.1L636.3 291.3L659.7 301.3L683.2 311.9L706.6 320.6" stroke="rgb(213, 178, 52)" stroke-opacity="0.7" stroke-width="0.5" fill="none" class="World_2-border"></path><path stroke-linecap="round" d="M97.6 135.2L121 140.3L144.4 145.5L167.9 150L191.3 153.7L214.7 155.2L238.1 159.6L261.6 164.7L285 168.7L308.4 172.1L331.8 175.1L355.2 179.3L378.7 183.4L402.1 189.6L425.5 195.3L448.9 201.3L472.4 208.7L495.8 216.7L519.2 224.6L542.6 232.8L566 240.8L589.5 250.7L612.9 261.2L636.3 271.5L659.7 281.6L683.2 292.3L706.6 301" stroke="rgb(132, 171, 115)" stroke-opacity="0.7" stroke-width="0.5" fill="none" class="World_3-border"></path><path stroke-linecap="round" d="M97.6 126.6L121 131.6L144.4 136.7L167.9 141.1L191.3 144.6L214.7 145.9L238.1 150.2L261.6 155.2L285 159L308.4 162.3L331.8 165.1L355.2 169.2L378.7 173.2L402.1 179.4L425.5 185L448.9 190.9L472.4 198.3L495.8 206.2L519.2 214.2L542.6 222.3L566 230.2L589.5 240.1L612.9 250.6L636.3 261L659.7 271.1L683.2 281.7L706.6 290.3" stroke="rgb(44, 127, 53)" stroke-opacity="0.7" stroke-width="0.5" fill="none" class="World_1-border"></path></g></g></g><g style="fill: #777;" class="SourcesFooter"><g style="fill: #777;" class="clickable"><text font-size="12.60" x="15.0" y="581.6"><tspan x="15" y="581.58">Source: IHME, Global Burden of Disease</tspan></text></g><text font-size="12.60" x="649.0" y="581.6"><tspan x="649.024" y="581.58"><a target='_blank' style='fill: #777;' href='https://ourworldindata.org'>OurWorldInData.org</a> • <a style="fill: #777;" href="http://creativecommons.org/licenses/by-sa/4.0/deed.en_US" target="_blank">CC BY-SA</a></tspan></text></g></g></svg>