<svg xmlns="http://www.w3.org/2000/svg" version="1.1" style="font-family: 'Helvetica Neue', Helvetica, Arial, sans-serif; font-size: 18px; background-color: white; text-rendering: optimizeLegibility; -webkit-font-smoothing: antialiased;" width="850" height="600"><g class="ChartTab"><g class="HeaderView"><g opacity="0.8" transform="translate(778, 15) scale(0.27)"><a xmlns:xlink="http://www.w3.org/1999/xlink" xlink:href="https://ourworldindata.org" target="_blank"><g><rect x="0" y="0" fill="#1B2543" width="211.2" height="130.1"/><rect x="0" y="112.2" fill="#E63912" width="211.2" height="17.9"/><g><rect x="1.2" y="12.3" fill="none" width="210.2" height="99.2"/><path fill="#FFFFFF" d="M37.8,32.2c0,12.7-7.7,19.4-17.1,19.4c-9.7,0-16.6-7.5-16.6-18.7c0-11.7,7.3-19.3,17.1-19.3 C31.3,13.7,37.8,21.3,37.8,32.2z M9.2,32.8c0,7.9,4.3,14.9,11.8,14.9c7.5,0,11.8-6.9,11.8-15.3c0-7.3-3.8-14.9-11.8-14.9 C13.1,17.5,9.2,24.8,9.2,32.8z"/><path fill="#FFFFFF" d="M62.7,43.8c0,2.7,0.1,5.1,0.2,7.2h-4.3l-0.3-4.3h-0.1c-1.3,2.1-4,4.9-8.8,4.9c-4.2,0-9.1-2.3-9.1-11.6 V24.6h4.8v14.6c0,5,1.5,8.4,5.9,8.4c3.2,0,5.5-2.2,6.3-4.4c0.3-0.7,0.4-1.6,0.4-2.5V24.6h4.8V43.8z"/><path fill="#FFFFFF" d="M67.3,32.8c0-3.1-0.1-5.8-0.2-8.2h4.2l0.2,5.2h0.2c1.2-3.5,4.1-5.8,7.3-5.8c0.5,0,0.9,0.1,1.4,0.2v4.5 c-0.5-0.1-1-0.2-1.6-0.2c-3.4,0-5.8,2.6-6.5,6.2c-0.1,0.7-0.2,1.4-0.2,2.2V51h-4.8V32.8z"/><path fill="#FFFFFF" d="M95.4,51l-9.4-36.8h5l4.4,18.6c1.1,4.6,2.1,9.2,2.7,12.7h0.1c0.6-3.7,1.8-8,3-12.8l4.9-18.5h5l4.5,18.7 c1,4.4,2,8.7,2.6,12.6h0.1c0.8-4,1.8-8.1,3-12.7l4.9-18.5h4.9L120.6,51h-5L111,31.9c-1.1-4.7-1.9-8.3-2.4-12h-0.1 c-0.7,3.7-1.5,7.3-2.8,12L100.4,51H95.4z"/><path fill="#FFFFFF" d="M154.9,37.6c0,9.8-6.8,14-13.2,14c-7.2,0-12.7-5.2-12.7-13.6c0-8.8,5.8-14,13.1-14 C149.8,24,154.9,29.5,154.9,37.6z M133.9,37.9c0,5.8,3.3,10.1,8,10.1c4.6,0,8-4.3,8-10.3c0-4.5-2.2-10.1-7.9-10.1 C136.3,27.6,133.9,32.8,133.9,37.9z"/><path fill="#FFFFFF" d="M158.2,32.8c0-3.1-0.1-5.8-0.2-8.2h4.2l0.2,5.2h0.2c1.2-3.5,4.1-5.8,7.3-5.8c0.5,0,0.9,0.1,1.4,0.2v4.5 c-0.5-0.1-1-0.2-1.6-0.2c-3.4,0-5.8,2.6-6.5,6.2c-0.1,0.7-0.2,1.4-0.2,2.2V51h-4.8V32.8z"/><path fill="#FFFFFF" d="M173.5,12.3h4.8V51h-4.8V12.3z"/><path fill="#FFFFFF" d="M206.5,12.3v31.9c0,2.3,0.1,5,0.2,6.8h-4.3l-0.2-4.6H202c-1.5,2.9-4.7,5.2-9,5.2 c-6.4,0-11.3-5.4-11.3-13.4c-0.1-8.8,5.4-14.2,11.9-14.2c4,0,6.8,1.9,8,4h0.1V12.3H206.5z M201.7,35.4c0-0.6-0.1-1.4-0.2-2 c-0.7-3.1-3.3-5.6-6.9-5.6c-5,0-7.9,4.4-7.9,10.2c0,5.3,2.6,9.8,7.8,9.8c3.2,0,6.2-2.1,7.1-5.7c0.2-0.7,0.2-1.3,0.2-2.1V35.4z"/><path fill="#FFFFFF" d="M42.8,64c0.1,1.6-1.1,2.9-3.1,2.9c-1.7,0-2.9-1.3-2.9-2.9c0-1.7,1.3-3,3-3C41.7,61,42.8,62.3,42.8,64z M37.4,97.8V71.4h4.8v26.4H37.4z"/><path fill="#FFFFFF" d="M47.5,78.6c0-2.7-0.1-5-0.2-7.1h4.3l0.3,4.4h0.1c1.3-2.5,4.4-5,8.8-5c3.7,0,9.4,2.2,9.4,11.2v15.8h-4.8 V82.6c0-4.3-1.6-7.8-6.1-7.8c-3.2,0-5.6,2.2-6.5,4.9c-0.2,0.6-0.3,1.4-0.3,2.2v15.9h-4.8V78.6z"/><path fill="#FFFFFF" d="M84,61.6c2.9-0.4,6.3-0.8,10.1-0.8c6.8,0,11.7,1.6,14.9,4.6c3.3,3,5.2,7.3,5.2,13.2c0,6-1.9,10.9-5.3,14.3 c-3.4,3.4-9.1,5.3-16.3,5.3c-3.4,0-6.2-0.2-8.6-0.4V61.6z M88.8,94.1c1.2,0.2,3,0.3,4.8,0.3c10.2,0,15.7-5.7,15.7-15.6 c0.1-8.7-4.9-14.2-14.9-14.2c-2.5,0-4.3,0.2-5.6,0.5V94.1z"/><path fill="#FFFFFF" d="M132.1,97.8l-0.4-3.3h-0.2c-1.5,2.1-4.3,3.9-8.1,3.9c-5.4,0-8.1-3.8-8.1-7.6c0-6.4,5.7-9.9,15.9-9.8v-0.5 c0-2.2-0.6-6.1-6-6.1c-2.5,0-5,0.8-6.9,2l-1.1-3.2c2.2-1.4,5.4-2.3,8.7-2.3c8.1,0,10.1,5.5,10.1,10.8v9.9c0,2.3,0.1,4.5,0.4,6.3 H132.1z M131.4,84.4c-5.3-0.1-11.2,0.8-11.2,5.9c0,3.1,2.1,4.6,4.5,4.6c3.4,0,5.6-2.2,6.4-4.4c0.2-0.5,0.3-1,0.3-1.5V84.4z"/><path fill="#FFFFFF" d="M146.6,63.9v7.6h6.9v3.7h-6.9v14.2c0,3.3,0.9,5.1,3.6,5.1c1.3,0,2.2-0.2,2.8-0.3l0.2,3.6 c-0.9,0.4-2.4,0.7-4.3,0.7c-2.2,0-4-0.7-5.2-2c-1.4-1.4-1.9-3.8-1.9-6.9V75.1h-4.1v-3.7h4.1v-6.3L146.6,63.9z"/><path fill="#FFFFFF" d="M171.4,97.8l-0.4-3.3h-0.2c-1.5,2.1-4.3,3.9-8.1,3.9c-5.4,0-8.1-3.8-8.1-7.6c0-6.4,5.7-9.9,15.9-9.8v-0.5 c0-2.2-0.6-6.1-6-6.1c-2.5,0-5,0.8-6.9,2l-1.1-3.2c2.2-1.4,5.4-2.3,8.7-2.3c8.1,0,10.1,5.5,10.1,10.8v9.9c0,2.3,0.1,4.5,0.4,6.3 H171.4z M170.7,84.4c-5.3-0.1-11.2,0.8-11.2,5.9c0,3.1,2.1,4.6,4.5,4.6c3.4,0,5.6-2.2,6.4-4.4c0.2-0.5,0.3-1,0.3-1.5V84.4z"/></g></g></a></g><a href="https://ourworldindata.org/grapher/disease-burden-vs-health-expenditure-per-capita" target="_blank"><text font-size="25.20" x="15.0" y="35.2" fill="#555"><tspan x="15" y="35.160000000000004">Disease burden vs. health expenditure per capita, 2014</tspan></text></a><text font-size="14.40" x="15.0" y="53.7" fill="#666"><tspan x="15" y="53.72">Total disease burden from all causes, measured as the number of Disability-Adjusted Life Years (DALYs) per 100,000</tspan><tspan x="15" y="69.56">individuals, versus health expenditure per capita (measured in US$).</tspan></text></g><g><g class="AxisBoxView"><g class="HorizontalAxis"><text font-size="12.60" x="242.7" y="554.0"><tspan x="242.71699999999998" y="553.98">Health expenditure per capita (current US$)</tspan></text><text x="227.7" y="533.9" fill="#666" text-anchor="middle" font-size="16.2">$2,000</text><text x="354.7" y="533.9" fill="#666" text-anchor="middle" font-size="16.2">$4,000</text><text x="481.7" y="533.9" fill="#666" text-anchor="middle" font-size="16.2">$6,000</text><text x="608.7" y="533.9" fill="#666" text-anchor="middle" font-size="16.2">$8,000</text></g><g class="VerticalAxis"><text font-size="12.60" x="-429.8" y="25.1" transform="rotate(-90)"><tspan x="-429.76199999999994" y="25.080000000000002">Disease burden (DALYs per 100,000)</tspan></text><text x="96.57" y="512.7" fill="#666" dominant-baseline="middle" text-anchor="end" font-size="16.2">0</text><text x="96.57" y="429.4" fill="#666" dominant-baseline="middle" text-anchor="end" font-size="16.2">20,000</text><text x="96.57" y="346" fill="#666" dominant-baseline="middle" text-anchor="end" font-size="16.2">40,000</text><text x="96.57" y="262.7" fill="#666" dominant-baseline="middle" text-anchor="end" font-size="16.2">60,000</text><text x="96.57" y="179.3" fill="#666" dominant-baseline="middle" text-anchor="end" font-size="16.2">80,000</text><text x="96.57" y="96" fill="#666" dominant-baseline="middle" text-anchor="end" font-size="16.2">100,000</text></g><g class="AxisGridLines"><line x1="101.57" y1="512.7" x2="715.00" y2="512.7" stroke="#ccc"></line><line x1="101.57" y1="429.4" x2="715.00" y2="429.4" stroke="#ddd" stroke-dasharray="3,2"></line><line x1="101.57" y1="346" x2="715.00" y2="346" stroke="#ddd" stroke-dasharray="3,2"></line><line x1="101.57" y1="262.7" x2="715.00" y2="262.7" stroke="#ddd" stroke-dasharray="3,2"></line><line x1="101.57" y1="179.3" x2="715.00" y2="179.3" stroke="#ddd" stroke-dasharray="3,2"></line><line x1="101.57" y1="96" x2="715.00" y2="96" stroke="#ddd" stroke-dasharray="3,2"></line></g><g class="AxisGridLines"><line x1="227.7" y1="512.70" x2="227.7" y2="92.10" stroke="#ddd" stroke-dasharray="3,2"></line><line x1="354.7" y1="512.70" x2="354.7" y2="92.10" stroke="#ddd" stroke-dasharray="3,2"></line><line x1="481.7" y1="512.70" x2="481.7" y2="92.10" stroke="#ddd" stroke-dasharray="3,2"></line><line x1="608.7" y1="512.70" x2="608.7" y2="92.10" stroke="#ddd" stroke-dasharray="3,2"></line></g></g><g clip-path="url(#scatterBounds-1)" font-family="Arial Narrow, Arial, sans-serif" class="PointsWithLabels clickable"><rect x="101.56800000000001" y="92.1" width="613.432" height="420.59999999999997" fill="rgba(255,255,255,0)"></rect><defs><clipPath id="scatterBounds-1"><rect x="91.56800000000001" y="82.1" width="633.432" height="440.59999999999997"></rect></clipPath></defs><g class="key-China_0"><circle cx="127.00" cy="408.00" r="17.84" fill="#d14e5b" opacity="0.8" stroke="#333" stroke-width="0.7"></circle></g><g class="key-India_0"><circle cx="105.00" cy="332.00" r="17.29" fill="#d14e5b" opacity="0.8" stroke="#333" stroke-width="0.7"></circle></g><g class="key-United-States_0"><circle cx="697.00" cy="413.00" r="8.78" fill="#4d824b" opacity="0.8" stroke="#333" stroke-width="0.7"></circle></g><g class="key-Indonesia_0"><circle cx="107.00" cy="370.00" r="7.78" fill="#d14e5b" opacity="0.8" stroke="#333" stroke-width="0.7"></circle></g><g class="key-Brazil_0"><circle cx="160.00" cy="392.00" r="7.04" fill="#69c487" opacity="0.8" stroke="#fff" stroke-width="0.7"></circle></g><g class="key-Pakistan_0"><circle cx="103.00" cy="326.00" r="6.76" fill="#d14e5b" opacity="0.8" stroke="#fff" stroke-width="0.7"></circle></g><g class="key-Nigeria_0"><circle cx="108.00" cy="281.00" r="6.54" fill="#5675c1" opacity="0.8" stroke="#333" stroke-width="0.7"></circle></g><g class="key-Bangladesh_0"><circle cx="102.00" cy="367.00" r="6.24" fill="#d14e5b" opacity="0.8" stroke="#fff" stroke-width="0.7"></circle></g><g class="key-Russia_0"><circle cx="157.00" cy="366.00" r="6.02" fill="#ffd336" opacity="0.8" stroke="#fff" stroke-width="0.7"></circle></g><g class="key-Japan_0"><circle cx="335.00" cy="441.00" r="5.70" fill="#d14e5b" opacity="0.8" stroke="#333" stroke-width="0.7"></circle></g><g class="key-Mexico_0"><circle cx="143.00" cy="402.00" r="5.51" fill="#4d824b" opacity="0.8" stroke="#fff" stroke-width="0.7"></circle></g><g class="key-Philippines_0"><circle cx="109.00" cy="358.00" r="5.09" fill="#d14e5b" opacity="0.8" stroke="#fff" stroke-width="0.7"></circle></g><g class="key-Vietnam_0"><circle cx="109.00" cy="395.00" r="4.92" fill="#d14e5b" opacity="0.8" stroke="#fff" stroke-width="0.7"></circle></g><g class="key-Ethiopia_0"><circle cx="102.00" cy="311.00" r="4.86" fill="#5675c1" opacity="0.8" stroke="#fff" stroke-width="0.7"></circle></g><g class="key-Egypt_0"><circle cx="112.00" cy="368.00" r="4.79" fill="#5675c1" opacity="0.8" stroke="#fff" stroke-width="0.7"></circle></g><g class="key-Germany_0"><circle cx="444.00" cy="429.00" r="4.70" fill="#ffd336" opacity="0.8" stroke="#333" stroke-width="0.7"></circle></g><g class="key-Iran_0"><circle cx="123.00" cy="390.00" r="4.57" fill="#d14e5b" opacity="0.8" stroke="#fff" stroke-width="0.7"></circle></g><g class="key-Turkey_0"><circle cx="136.00" cy="410.00" r="4.54" fill="#d14e5b" opacity="0.8" stroke="#333" stroke-width="0.7"></circle></g><g class="key-Democratic-Republic-of-Congo_0"><circle cx="101.00" cy="255.00" r="4.44" fill="#5675c1" opacity="0.8" stroke="#333" stroke-width="0.7"></circle></g><g class="key-Thailand_0"><circle cx="115.00" cy="409.00" r="4.41" fill="#d14e5b" opacity="0.8" stroke="#fff" stroke-width="0.7"></circle></g><g class="key-France_0"><circle cx="415.00" cy="433.00" r="4.24" fill="#ffd336" opacity="0.8" stroke="#fff" stroke-width="0.7"></circle></g><g class="key-United-Kingdom_0"><circle cx="350.00" cy="427.00" r="4.22" fill="#ffd336" opacity="0.8" stroke="#333" stroke-width="0.7"></circle></g><g class="key-Italy_0"><circle cx="307.00" cy="437.00" r="4.16" fill="#ffd336" opacity="0.8" stroke="#333" stroke-width="0.7"></circle></g><g class="key-South-Africa_0"><circle cx="136.00" cy="263.00" r="3.87" fill="#5675c1" opacity="0.8" stroke="#fff" stroke-width="0.7"></circle></g><g class="key-Tanzania_0"><circle cx="104.00" cy="290.00" r="3.82" fill="#5675c1" opacity="0.8" stroke="#333" stroke-width="0.7"></circle></g><g class="key-Myanmar_0"><circle cx="102.00" cy="352.00" r="3.82" fill="#d14e5b" opacity="0.8" stroke="#333" stroke-width="0.7"></circle></g><g class="key-South-Korea_0"><circle cx="231.00" cy="431.00" r="3.81" fill="#d14e5b" opacity="0.8" stroke="#333" stroke-width="0.7"></circle></g><g class="key-Colombia_0"><circle cx="136.00" cy="414.00" r="3.79" fill="#69c487" opacity="0.8" stroke="#fff" stroke-width="0.7"></circle></g><g class="key-Spain_0"><circle cx="269.00" cy="440.00" r="3.75" fill="#ffd336" opacity="0.8" stroke="#fff" stroke-width="0.7"></circle></g><g class="key-Ukraine_0"><circle cx="113.00" cy="374.00" r="3.68" fill="#ffd336" opacity="0.8" stroke="#fff" stroke-width="0.7"></circle></g><g class="key-Kenya_0"><circle cx="105.00" cy="321.00" r="3.65" fill="#5675c1" opacity="0.8" stroke="#fff" stroke-width="0.7"></circle></g><g class="key-Argentina_0"><circle cx="139.00" cy="405.00" r="3.58" fill="#69c487" opacity="0.8" stroke="#fff" stroke-width="0.7"></circle></g><g class="key-Poland_0"><circle cx="158.00" cy="412.00" r="3.47" fill="#ffd336" opacity="0.8" stroke="#fff" stroke-width="0.7"></circle></g><g class="key-Algeria_0"><circle cx="123.00" cy="400.00" r="3.43" fill="#5675c1" opacity="0.8" stroke="#fff" stroke-width="0.7"></circle></g><g class="key-Uganda_0"><circle cx="104.00" cy="267.00" r="3.42" fill="#5675c1" opacity="0.8" stroke="#fff" stroke-width="0.7"></circle></g><g class="key-Sudan_0"><circle cx="108.00" cy="324.00" r="3.39" fill="#5675c1" opacity="0.8" stroke="#fff" stroke-width="0.7"></circle></g><g class="key-Canada_0"><circle cx="436.00" cy="431.00" r="3.36" fill="#4d824b" opacity="0.8" stroke="#fff" stroke-width="0.7"></circle></g><g class="key-Iraq_0"><circle cx="119.00" cy="323.00" r="3.35" fill="#d14e5b" opacity="0.8" stroke="#fff" stroke-width="0.7"></circle></g><g class="key-Afghanistan_0"><circle cx="104.00" cy="220.00" r="3.34" fill="#d14e5b" opacity="0.8" stroke="#333" stroke-width="0.7"></circle></g><g class="key-Morocco_0"><circle cx="112.00" cy="384.00" r="3.29" fill="#5675c1" opacity="0.8" stroke="#fff" stroke-width="0.7"></circle></g><g class="key-Nepal_0"><circle cx="103.00" cy="355.00" r="3.24" fill="#d14e5b" opacity="0.8" stroke="#fff" stroke-width="0.7"></circle></g><g class="key-Venezuela_0"><circle cx="156.00" cy="397.00" r="3.19" fill="#69c487" opacity="0.8" stroke="#fff" stroke-width="0.7"></circle></g><g class="key-Peru_0"><circle cx="123.00" cy="418.00" r="3.18" fill="#69c487" opacity="0.8" stroke="#fff" stroke-width="0.7"></circle></g><g class="key-Malaysia_0"><circle cx="129.00" cy="402.00" r="3.17" fill="#d14e5b" opacity="0.8" stroke="#fff" stroke-width="0.7"></circle></g><g class="key-Saudi-Arabia_0"><circle cx="173.00" cy="404.00" r="3.16" fill="#d14e5b" opacity="0.8" stroke="#333" stroke-width="0.7"></circle></g><g class="key-Uzbekistan_0"><circle cx="108.00" cy="359.00" r="3.12" fill="#d14e5b" opacity="0.8" stroke="#fff" stroke-width="0.7"></circle></g><g class="key-Ghana_0"><circle cx="104.00" cy="311.00" r="3.04" fill="#5675c1" opacity="0.8" stroke="#fff" stroke-width="0.7"></circle></g><g class="key-Mozambique_0"><circle cx="103.00" cy="234.00" r="3.00" fill="#5675c1" opacity="0.8" stroke="#333" stroke-width="0.7"></circle></g><g class="key-Australia_0"><circle cx="483.00" cy="434.00" r="2.92" fill="#a652ba" opacity="0.8" stroke="#fff" stroke-width="0.7"></circle></g><g class="key-Madagascar_0"><circle cx="101.00" cy="282.00" r="2.90" fill="#5675c1" opacity="0.8" stroke="#fff" stroke-width="0.7"></circle></g><g class="key-Syria_0"><circle cx="104.00" cy="322.00" r="2.85" fill="#d14e5b" opacity="0.8" stroke="#fff" stroke-width="0.7"></circle></g><g class="key-Sri-Lanka_0"><circle cx="108.00" cy="408.00" r="2.85" fill="#d14e5b" opacity="0.8" stroke="#fff" stroke-width="0.7"></circle></g><g class="key-Romania_0"><circle cx="136.00" cy="396.00" r="2.85" fill="#ffd336" opacity="0.8" stroke="#fff" stroke-width="0.7"></circle></g><g class="key-Cote-d__0027Ivoire_0"><circle cx="106.00" cy="241.00" r="2.84" fill="#5675c1" opacity="0.8" stroke="#fff" stroke-width="0.7"></circle></g><g class="key-Cameroon_0"><circle cx="104.00" cy="249.00" r="2.83" fill="#5675c1" opacity="0.8" stroke="#fff" stroke-width="0.7"></circle></g><g class="key-Angola_0"><circle cx="112.00" cy="292.00" r="2.82" fill="#5675c1" opacity="0.8" stroke="#fff" stroke-width="0.7"></circle></g><g class="key-Burkina-Faso_0"><circle cx="102.00" cy="255.00" r="2.71" fill="#5675c1" opacity="0.8" stroke="#fff" stroke-width="0.7"></circle></g><g class="key-Chile_0"><circle cx="172.00" cy="422.00" r="2.69" fill="#69c487" opacity="0.8" stroke="#333" stroke-width="0.7"></circle></g><g class="key-Niger_0"><circle cx="102.00" cy="266.00" r="2.68" fill="#5675c1" opacity="0.8" stroke="#fff" stroke-width="0.7"></circle></g><g class="key-Mali_0"><circle cx="103.00" cy="264.00" r="2.66" fill="#5675c1" opacity="0.8" stroke="#fff" stroke-width="0.7"></circle></g><g class="key-Netherlands_0"><circle cx="462.00" cy="432.00" r="2.66" fill="#ffd336" opacity="0.8" stroke="#fff" stroke-width="0.7"></circle></g><g class="key-Kazakhstan_0"><circle cx="134.00" cy="370.00" r="2.65" fill="#d14e5b" opacity="0.8" stroke="#fff" stroke-width="0.7"></circle></g><g class="key-Malawi_0"><circle cx="102.00" cy="243.00" r="2.64" fill="#5675c1" opacity="0.8" stroke="#fff" stroke-width="0.7"></circle></g><g class="key-Guatemala_0"><circle cx="115.00" cy="374.00" r="2.60" fill="#4d824b" opacity="0.8" stroke="#fff" stroke-width="0.7"></circle></g><g class="key-Ecuador_0"><circle cx="137.00" cy="408.00" r="2.58" fill="#69c487" opacity="0.8" stroke="#fff" stroke-width="0.7"></circle></g><g class="key-Cambodia_0"><circle cx="104.00" cy="341.00" r="2.56" fill="#d14e5b" opacity="0.8" stroke="#fff" stroke-width="0.7"></circle></g><g class="key-Zambia_0"><circle cx="106.00" cy="222.00" r="2.55" fill="#5675c1" opacity="0.8" stroke="#fff" stroke-width="0.7"></circle></g><g class="key-Senegal_0"><circle cx="103.00" cy="317.00" r="2.51" fill="#5675c1" opacity="0.8" stroke="#fff" stroke-width="0.7"></circle></g><g class="key-Zimbabwe_0"><circle cx="104.00" cy="225.00" r="2.50" fill="#5675c1" opacity="0.8" stroke="#fff" stroke-width="0.7"></circle></g><g class="key-Chad_0"><circle cx="103.00" cy="240.00" r="2.45" fill="#5675c1" opacity="0.8" stroke="#fff" stroke-width="0.7"></circle></g><g class="key-Rwanda_0"><circle cx="104.00" cy="331.00" r="2.42" fill="#5675c1" opacity="0.8" stroke="#333" stroke-width="0.7"></circle></g><g class="key-Greece_0"><circle cx="211.00" cy="430.00" r="2.41" fill="#ffd336" opacity="0.8" stroke="#fff" stroke-width="0.7"></circle></g><g class="key-Cuba_0"><circle cx="152.00" cy="420.00" r="2.40" fill="#4d824b" opacity="0.8" stroke="#fff" stroke-width="0.7"></circle></g><g class="key-South-Sudan_0"><circle cx="102.00" cy="241.00" r="2.39" fill="#5675c1" opacity="0.8" stroke="#fff" stroke-width="0.7"></circle></g><g class="key-Belgium_0"><circle cx="410.00" cy="429.00" r="2.38" fill="#ffd336" opacity="0.8" stroke="#fff" stroke-width="0.7"></circle></g><g class="key-Tunisia_0"><circle cx="120.00" cy="405.00" r="2.38" fill="#5675c1" opacity="0.8" stroke="#fff" stroke-width="0.7"></circle></g><g class="key-Guinea_0"><circle cx="102.00" cy="249.00" r="2.38" fill="#5675c1" opacity="0.8" stroke="#fff" stroke-width="0.7"></circle></g><g class="key-Portugal_0"><circle cx="233.00" cy="429.00" r="2.38" fill="#ffd336" opacity="0.8" stroke="#fff" stroke-width="0.7"></circle></g><g class="key-Czech-Republic_0"><circle cx="188.00" cy="418.00" r="2.37" fill="#ffd336" opacity="0.8" stroke="#fff" stroke-width="0.7"></circle></g><g class="key-Bolivia_0"><circle cx="114.00" cy="376.00" r="2.36" fill="#69c487" opacity="0.8" stroke="#333" stroke-width="0.7"></circle></g><g class="key-Haiti_0"><circle cx="104.00" cy="294.00" r="2.36" fill="#4d824b" opacity="0.8" stroke="#fff" stroke-width="0.7"></circle></g><g class="key-Dominican-Republic_0"><circle cx="117.00" cy="393.00" r="2.36" fill="#4d824b" opacity="0.8" stroke="#fff" stroke-width="0.7"></circle></g><g class="key-Hungary_0"><circle cx="166.00" cy="403.00" r="2.34" fill="#ffd336" opacity="0.8" stroke="#fff" stroke-width="0.7"></circle></g><g class="key-Serbia_0"><circle cx="140.00" cy="402.00" r="2.33" fill="#ffd336" opacity="0.8" stroke="#fff" stroke-width="0.7"></circle></g><g class="key-Benin_0"><circle cx="103.00" cy="293.00" r="2.32" fill="#5675c1" opacity="0.8" stroke="#fff" stroke-width="0.7"></circle></g><g class="key-Sweden_0"><circle cx="533.00" cy="434.00" r="2.32" fill="#ffd336" opacity="0.8" stroke="#333" stroke-width="0.7"></circle></g><g class="key-Azerbaijan_0"><circle cx="130.00" cy="372.00" r="2.32" fill="#d14e5b" opacity="0.8" stroke="#fff" stroke-width="0.7"></circle></g><g class="key-Belarus_0"><circle cx="129.00" cy="384.00" r="2.32" fill="#ffd336" opacity="0.8" stroke="#fff" stroke-width="0.7"></circle></g><g class="key-Burundi_0"><circle cx="102.00" cy="258.00" r="2.29" fill="#5675c1" opacity="0.8" stroke="#fff" stroke-width="0.7"></circle></g><g class="key-Austria_0"><circle cx="455.00" cy="432.00" r="2.26" fill="#ffd336" opacity="0.8" stroke="#fff" stroke-width="0.7"></circle></g><g class="key-United-Arab-Emirates_0"><circle cx="203.00" cy="397.00" r="2.25" fill="#d14e5b" opacity="0.8" stroke="#fff" stroke-width="0.7"></circle></g><g class="key-Honduras_0"><circle cx="114.00" cy="380.00" r="2.25" fill="#4d824b" opacity="0.8" stroke="#fff" stroke-width="0.7"></circle></g><g class="key-Israel_0"><circle cx="285.00" cy="430.00" r="2.23" fill="#d14e5b" opacity="0.8" stroke="#fff" stroke-width="0.7"></circle></g><g class="key-Switzerland_0"><circle cx="715.00" cy="437.00" r="2.23" fill="#ffd336" opacity="0.8" stroke="#333" stroke-width="0.7"></circle></g><g class="key-Bulgaria_0"><circle cx="142.00" cy="399.00" r="2.21" fill="#ffd336" opacity="0.8" stroke="#fff" stroke-width="0.7"></circle></g><g class="key-Papua-New-Guinea_0"><circle cx="106.00" cy="256.00" r="2.21" fill="#a652ba" opacity="0.8" stroke="#fff" stroke-width="0.7"></circle></g><g class="key-Tajikistan_0"><circle cx="105.00" cy="368.00" r="2.20" fill="#d14e5b" opacity="0.8" stroke="#fff" stroke-width="0.7"></circle></g><g class="key-Paraguay_0"><circle cx="130.00" cy="388.00" r="2.18" fill="#69c487" opacity="0.8" stroke="#fff" stroke-width="0.7"></circle></g><g class="key-Jordan_0"><circle cx="123.00" cy="398.00" r="2.17" fill="#d14e5b" opacity="0.8" stroke="#fff" stroke-width="0.7"></circle></g><g class="key-Libya_0"><circle cx="124.00" cy="385.00" r="2.16" fill="#5675c1" opacity="0.8" stroke="#fff" stroke-width="0.7"></circle></g><g class="key-Laos_0"><circle cx="102.00" cy="324.00" r="2.16" fill="#d14e5b" opacity="0.8" stroke="#fff" stroke-width="0.7"></circle></g><g class="key-Togo_0"><circle cx="102.00" cy="276.00" r="2.16" fill="#5675c1" opacity="0.8" stroke="#fff" stroke-width="0.7"></circle></g><g class="key-El-Salvador_0"><circle cx="118.00" cy="395.00" r="2.15" fill="#4d824b" opacity="0.8" stroke="#fff" stroke-width="0.7"></circle></g><g class="key-Sierra-Leone_0"><circle cx="106.00" cy="186.00" r="2.15" fill="#5675c1" opacity="0.8" stroke="#333" stroke-width="0.7"></circle></g><g class="key-Nicaragua_0"><circle cx="112.00" cy="412.00" r="2.14" fill="#4d824b" opacity="0.8" stroke="#fff" stroke-width="0.7"></circle></g><g class="key-Eritrea_0"><circle cx="102.00" cy="294.00" r="2.12" fill="#5675c1" opacity="0.8" stroke="#fff" stroke-width="0.7"></circle></g><g class="key-Denmark_0"><circle cx="511.00" cy="427.00" r="2.11" fill="#ffd336" opacity="0.8" stroke="#fff" stroke-width="0.7"></circle></g><g class="key-Kyrgyzstan_0"><circle cx="105.00" cy="365.00" r="2.11" fill="#d14e5b" opacity="0.8" stroke="#fff" stroke-width="0.7"></circle></g><g class="key-Slovakia_0"><circle cx="193.00" cy="409.00" r="2.11" fill="#ffd336" opacity="0.8" stroke="#fff" stroke-width="0.7"></circle></g><g class="key-Finland_0"><circle cx="393.00" cy="429.00" r="2.10" fill="#ffd336" opacity="0.8" stroke="#fff" stroke-width="0.7"></circle></g><g class="key-Singapore_0"><circle cx="275.00" cy="443.00" r="2.10" fill="#d14e5b" opacity="0.8" stroke="#fff" stroke-width="0.7"></circle></g><g class="key-Turkmenistan_0"><circle cx="112.00" cy="357.00" r="2.09" fill="#d14e5b" opacity="0.8" stroke="#fff" stroke-width="0.7"></circle></g><g class="key-Norway_0"><circle cx="705.00" cy="436.00" r="2.08" fill="#ffd336" opacity="0.8" stroke="#fff" stroke-width="0.7"></circle></g><g class="key-Costa-Rica_0"><circle cx="162.00" cy="427.00" r="2.07" fill="#4d824b" opacity="0.8" stroke="#fff" stroke-width="0.7"></circle></g><g class="key-Central-African-Republic_0"><circle cx="101.00" cy="93.00" r="2.06" fill="#5675c1" opacity="0.8" stroke="#333" stroke-width="0.7"></circle></g><g class="key-Ireland_0"><circle cx="369.00" cy="430.00" r="2.06" fill="#ffd336" opacity="0.8" stroke="#fff" stroke-width="0.7"></circle></g><g class="key-New-Zealand_0"><circle cx="411.00" cy="430.00" r="2.05" fill="#a652ba" opacity="0.8" stroke="#fff" stroke-width="0.7"></circle></g><g class="key-Croatia_0"><circle cx="167.00" cy="414.00" r="2.05" fill="#ffd336" opacity="0.8" stroke="#fff" stroke-width="0.7"></circle></g><g class="key-Liberia_0"><circle cx="103.00" cy="247.00" r="2.04" fill="#5675c1" opacity="0.8" stroke="#fff" stroke-width="0.7"></circle></g><g class="key-Congo_0"><circle cx="111.00" cy="281.00" r="2.04" fill="#5675c1" opacity="0.8" stroke="#fff" stroke-width="0.7"></circle></g><g class="key-Lebanon_0"><circle cx="136.00" cy="417.00" r="2.04" fill="#d14e5b" opacity="0.8" stroke="#fff" stroke-width="0.7"></circle></g><g class="key-Georgia_0"><circle cx="119.00" cy="388.00" r="2.04" fill="#d14e5b" opacity="0.8" stroke="#fff" stroke-width="0.7"></circle></g><g class="key-Bosnia-and-Herzegovina_0"><circle cx="130.00" cy="411.00" r="2.01" fill="#ffd336" opacity="0.8" stroke="#fff" stroke-width="0.7"></circle></g><g class="key-Mauritania_0"><circle cx="103.00" cy="349.00" r="2.01" fill="#5675c1" opacity="0.8" stroke="#fff" stroke-width="0.7"></circle></g><g class="key-Panama_0"><circle cx="161.00" cy="413.00" r="2.01" fill="#4d824b" opacity="0.8" stroke="#fff" stroke-width="0.7"></circle></g><g class="key-Moldova_0"><circle cx="115.00" cy="379.00" r="2.00" fill="#ffd336" opacity="0.8" stroke="#fff" stroke-width="0.7"></circle></g><g class="key-Uruguay_0"><circle cx="192.00" cy="410.00" r="1.99" fill="#69c487" opacity="0.8" stroke="#fff" stroke-width="0.7"></circle></g><g class="key-Lithuania_0"><circle cx="168.00" cy="393.00" r="1.98" fill="#ffd336" opacity="0.8" stroke="#fff" stroke-width="0.7"></circle></g><g class="key-Albania_0"><circle cx="118.00" cy="411.00" r="1.98" fill="#ffd336" opacity="0.8" stroke="#fff" stroke-width="0.7"></circle></g><g class="key-Armenia_0"><circle cx="111.00" cy="402.00" r="1.97" fill="#d14e5b" opacity="0.8" stroke="#fff" stroke-width="0.7"></circle></g><g class="key-Kuwait_0"><circle cx="188.00" cy="419.00" r="1.96" fill="#d14e5b" opacity="0.8" stroke="#fff" stroke-width="0.7"></circle></g><g class="key-Oman_0"><circle cx="143.00" cy="403.00" r="1.96" fill="#d14e5b" opacity="0.8" stroke="#fff" stroke-width="0.7"></circle></g><g class="key-Mongolia_0"><circle cx="113.00" cy="342.00" r="1.96" fill="#d14e5b" opacity="0.8" stroke="#fff" stroke-width="0.7"></circle></g><g class="key-Jamaica_0"><circle cx="117.00" cy="393.00" r="1.95" fill="#4d824b" opacity="0.8" stroke="#fff" stroke-width="0.7"></circle></g><g class="key-Namibia_0"><circle cx="132.00" cy="296.00" r="1.93" fill="#5675c1" opacity="0.8" stroke="#fff" stroke-width="0.7"></circle></g><g class="key-Lesotho_0"><circle cx="107.00" cy="92.00" r="1.92" fill="#5675c1" opacity="0.8" stroke="#fff" stroke-width="0.7"></circle></g><g class="key-Latvia_0"><circle cx="159.00" cy="395.00" r="1.92" fill="#ffd336" opacity="0.8" stroke="#fff" stroke-width="0.7"></circle></g><g class="key-Botswana_0"><circle cx="125.00" cy="294.00" r="1.91" fill="#5675c1" opacity="0.8" stroke="#fff" stroke-width="0.7"></circle></g><g class="key-Macedonia_0"><circle cx="123.00" cy="397.00" r="1.91" fill="#ffd336" opacity="0.8" stroke="#fff" stroke-width="0.7"></circle></g><g class="key-Slovenia_0"><circle cx="237.00" cy="427.00" r="1.91" fill="#ffd336" opacity="0.8" stroke="#fff" stroke-width="0.7"></circle></g><g class="key-Qatar_0"><circle cx="234.00" cy="419.00" r="1.91" fill="#d14e5b" opacity="0.8" stroke="#fff" stroke-width="0.7"></circle></g><g class="key-Gambia_0"><circle cx="102.00" cy="324.00" r="1.90" fill="#5675c1" opacity="0.8" stroke="#fff" stroke-width="0.7"></circle></g><g class="key-Guinea__002dBissau_0"><circle cx="103.00" cy="229.00" r="1.88" fill="#5675c1" opacity="0.8" stroke="#fff" stroke-width="0.7"></circle></g><g class="key-Gabon_0"><circle cx="121.00" cy="311.00" r="1.88" fill="#5675c1" opacity="0.8" stroke="#fff" stroke-width="0.7"></circle></g><g class="key-Bahrain_0"><circle cx="179.00" cy="402.00" r="1.87" fill="#d14e5b" opacity="0.8" stroke="#fff" stroke-width="0.7"></circle></g><g class="key-Trinidad-and-Tobago_0"><circle cx="172.00" cy="378.00" r="1.87" fill="#4d824b" opacity="0.8" stroke="#333" stroke-width="0.7"></circle></g><g class="key-Estonia_0"><circle cx="180.00" cy="409.00" r="1.87" fill="#ffd336" opacity="0.8" stroke="#fff" stroke-width="0.7"></circle></g><g class="key-Mauritius_0"><circle cx="131.00" cy="391.00" r="1.86" fill="#5675c1" opacity="0.8" stroke="#fff" stroke-width="0.7"></circle></g><g class="key-Swaziland_0"><circle cx="116.00" cy="174.00" r="1.86" fill="#5675c1" opacity="0.8" stroke="#333" stroke-width="0.7"></circle></g><g class="key-Cyprus_0"><circle cx="216.00" cy="430.00" r="1.85" fill="#ffd336" opacity="0.8" stroke="#fff" stroke-width="0.7"></circle></g><g class="key-Djibouti_0"><circle cx="112.00" cy="318.00" r="1.84" fill="#5675c1" opacity="0.8" stroke="#fff" stroke-width="0.7"></circle></g><g class="key-Fiji_0"><circle cx="113.00" cy="317.00" r="1.84" fill="#a652ba" opacity="0.8" stroke="#fff" stroke-width="0.7"></circle></g><g class="key-Comoros_0"><circle cx="104.00" cy="331.00" r="1.83" fill="#5675c1" opacity="0.8" stroke="#fff" stroke-width="0.7"></circle></g><g class="key-Bhutan_0"><circle cx="106.00" cy="373.00" r="1.83" fill="#d14e5b" opacity="0.8" stroke="#fff" stroke-width="0.7"></circle></g><g class="key-Equatorial-Guinea_0"><circle cx="142.00" cy="302.00" r="1.83" fill="#5675c1" opacity="0.8" stroke="#333" stroke-width="0.7"></circle></g><g class="key-Guyana_0"><circle cx="114.00" cy="328.00" r="1.83" fill="#69c487" opacity="0.8" stroke="#fff" stroke-width="0.7"></circle></g><g class="key-Montenegro_0"><circle cx="129.00" cy="410.00" r="1.82" fill="#ffd336" opacity="0.8" stroke="#fff" stroke-width="0.7"></circle></g><g class="key-Solomon-Islands_0"><circle cx="107.00" cy="284.00" r="1.82" fill="#a652ba" opacity="0.8" stroke="#fff" stroke-width="0.7"></circle></g><g class="key-Suriname_0"><circle cx="138.00" cy="363.00" r="1.82" fill="#69c487" opacity="0.8" stroke="#fff" stroke-width="0.7"></circle></g><g class="key-Luxembourg_0"><circle cx="617.00" cy="433.00" r="1.81" fill="#ffd336" opacity="0.8" stroke="#fff" stroke-width="0.7"></circle></g><g class="key-Cape-Verde_0"><circle cx="111.00" cy="381.00" r="1.81" fill="#5675c1" opacity="0.8" stroke="#fff" stroke-width="0.7"></circle></g><g class="key-Malta_0"><circle cx="257.00" cy="432.00" r="1.81" fill="#ffd336" opacity="0.8" stroke="#fff" stroke-width="0.7"></circle></g><g class="key-Brunei_0"><circle cx="161.00" cy="410.00" r="1.81" fill="#d14e5b" opacity="0.8" stroke="#fff" stroke-width="0.7"></circle></g><g class="key-Bahamas_0"><circle cx="209.00" cy="389.00" r="1.80" fill="#4d824b" opacity="0.8" stroke="#333" stroke-width="0.7"></circle></g><g class="key-Iceland_0"><circle cx="396.00" cy="436.00" r="1.80" fill="#ffd336" opacity="0.8" stroke="#333" stroke-width="0.7"></circle></g><g class="key-Belize_0"><circle cx="118.00" cy="373.00" r="1.80" fill="#4d824b" opacity="0.8" stroke="#fff" stroke-width="0.7"></circle></g><g class="key-Maldives_0"><circle cx="174.00" cy="421.00" r="1.80" fill="#d14e5b" opacity="0.8" stroke="#fff" stroke-width="0.7"></circle></g><g class="key-Barbados_0"><circle cx="173.00" cy="405.00" r="1.80" fill="#4d824b" opacity="0.8" stroke="#fff" stroke-width="0.7"></circle></g><g class="key-Vanuatu_0"><circle cx="110.00" cy="296.00" r="1.80" fill="#a652ba" opacity="0.8" stroke="#fff" stroke-width="0.7"></circle></g><g class="key-Samoa_0"><circle cx="119.00" cy="374.00" r="1.79" fill="#a652ba" opacity="0.8" stroke="#fff" stroke-width="0.7"></circle></g><g class="key-Saint-Lucia_0"><circle cx="132.00" cy="397.00" r="1.79" fill="#4d824b" opacity="0.8" stroke="#fff" stroke-width="0.7"></circle></g><g class="key-Sao-Tome-and-Principe_0"><circle cx="111.00" cy="357.00" r="1.79" fill="#5675c1" opacity="0.8" stroke="#fff" stroke-width="0.7"></circle></g><g class="key-Saint-Vincent-and-the-Grenadines_0"><circle cx="137.00" cy="370.00" r="1.79" fill="#4d824b" opacity="0.8" stroke="#fff" stroke-width="0.7"></circle></g><g class="key-Grenada_0"><circle cx="132.00" cy="370.00" r="1.79" fill="#4d824b" opacity="0.8" stroke="#fff" stroke-width="0.7"></circle></g><g class="key-Tonga_0"><circle cx="114.00" cy="360.00" r="1.79" fill="#a652ba" opacity="0.8" stroke="#fff" stroke-width="0.7"></circle></g><g class="key-Kiribati_0"><circle cx="110.00" cy="273.00" r="1.79" fill="#a652ba" opacity="0.8" stroke="#fff" stroke-width="0.7"></circle></g><g class="key-Antigua-and-Barbuda_0"><circle cx="149.00" cy="408.00" r="1.79" fill="#4d824b" opacity="0.8" stroke="#fff" stroke-width="0.7"></circle></g><g class="key-Andorra_0"><circle cx="338.00" cy="434.00" r="1.79" fill="#ffd336" opacity="0.8" stroke="#fff" stroke-width="0.7"></circle></g><g class="key-Seychelles_0"><circle cx="132.00" cy="390.00" r="1.79" fill="#5675c1" opacity="0.8" stroke="#fff" stroke-width="0.7"></circle></g><g class="key-Dominica_0"><circle cx="126.00" cy="380.00" r="1.79" fill="#4d824b" opacity="0.8" stroke="#fff" stroke-width="0.7"></circle></g><g class="key-Marshall-Islands_0"><circle cx="140.00" cy="304.00" r="1.78" fill="#a652ba" opacity="0.8" stroke="#fff" stroke-width="0.7"></circle></g><g class="key-Timor_0"><circle cx="104.00" cy="373.00" r="1.78" fill="#d14e5b" opacity="0.8" stroke="#fff" stroke-width="0.7"></circle></g><g class="key-World_0"><circle cx="167.00" cy="367.00" r="1.78" fill="#000" opacity="0.8" stroke="#fff" stroke-width="0.7"></circle></g><g class="key-Yemen_0"><circle cx="105.00" cy="329.00" r="1.78" fill="#d14e5b" opacity="0.8" stroke="#fff" stroke-width="0.7"></circle></g><g class="key-Micronesia-__0028country__0029_0"><circle cx="127.00" cy="318.00" r="1.78" fill="#a652ba" opacity="0.8" stroke="#fff" stroke-width="0.7"></circle></g><g class="key-South-Asia_0"><circle cx="104.00" cy="335.00" r="1.78" fill="#000" opacity="0.8" stroke="#fff" stroke-width="0.7"></circle></g><g class="key-Sub__002dSaharan-Africa_0"><circle cx="106.00" cy="273.00" r="1.78" fill="#000" opacity="0.8" stroke="#fff" stroke-width="0.7"></circle></g><g class="key-North-America_0"><circle cx="671.00" cy="415.00" r="1.78" fill="#000" opacity="0.8" stroke="#fff" stroke-width="0.7"></circle></g><g fill="#333" class="backgroundLabels"><text x="127.00" y="389.16" font-size="14.30">China</text><text x="105.00" y="313.71" font-size="14.10">India</text><text x="626.01" y="403.22" font-size="11.77">United States</text><text x="107.00" y="361.22" font-size="11.60">Indonesia</text><text x="108.00" y="273.46" font-size="11.41">Nigeria</text><text x="335.00" y="434.30" font-size="11.31">Japan</text><text x="444.00" y="423.30" font-size="11.20">Germany</text><text x="136.00" y="404.46" font-size="11.18">Turkey</text><text x="101.00" y="249.56" font-size="11.17">Democratic Republic of Congo</text><text x="350.00" y="421.78" font-size="11.15">United Kingdom</text><text x="307.00" y="431.84" font-size="11.15">Italy</text><text x="104.00" y="285.18" font-size="11.12">Tanzania</text><text x="102.00" y="347.18" font-size="11.12">Myanmar</text><text x="231.00" y="426.19" font-size="11.12">South Korea</text><text x="104.00" y="215.66" font-size="11.08">Afghanistan</text><text x="173.00" y="399.84" font-size="11.07">Saudi Arabia</text><text x="103.00" y="230.00" font-size="11.06">Mozambique</text><text x="172.00" y="418.31" font-size="11.04">Chile</text><text x="104.00" y="327.58" font-size="11.03">Rwanda</text><text x="114.00" y="372.64" font-size="11.03">Bolivia</text><text x="533.00" y="430.68" font-size="11.02">Sweden</text><text x="657.92" y="433.77" font-size="11.02">Switzerland</text><text x="106.00" y="182.85" font-size="11.02">Sierra Leone</text><text x="101.00" y="103.11" font-size="11.01">Central African Republic</text><text x="172.00" y="375.13" font-size="11.00">Trinidad and Tobago</text><text x="116.00" y="171.14" font-size="11.00">Swaziland</text><text x="142.00" y="299.17" font-size="11.00">Equatorial Guinea</text><text x="209.00" y="386.20" font-size="11.00">Bahamas</text><text x="396.00" y="433.20" font-size="11.00">Iceland</text></g></g><g style="cursor: pointer;" class="ScatterColorLegend clickable"><g class="legendMark"><rect x="735" y="89.6" width="43.256" height="17.6" fill="#fff" opacity="0"></rect>,<rect x="735" y="95.1" width="6" height="6" fill="#5675c1"></rect>,<text font-size="12.60" x="746.0" y="102.2"><tspan x="746" y="102.17999999999999">Africa</tspan></text></g><g class="legendMark"><rect x="735" y="107.19999999999999" width="35.57" height="17.6" fill="#fff" opacity="0"></rect>,<rect x="735" y="112.69999999999999" width="6" height="6" fill="#d14e5b"></rect>,<text font-size="12.60" x="746.0" y="119.8"><tspan x="746" y="119.77999999999999">Asia</tspan></text></g><g class="legendMark"><rect x="735" y="124.8" width="51.824" height="17.6" fill="#fff" opacity="0"></rect>,<rect x="735" y="130.3" width="6" height="6" fill="#ffd336"></rect>,<text font-size="12.60" x="746.0" y="137.4"><tspan x="746" y="137.38">Europe</tspan></text></g><g class="legendMark"><rect x="735" y="142.4" width="91.64" height="17.6" fill="#fff" opacity="0"></rect>,<rect x="735" y="147.9" width="6" height="6" fill="#4d824b"></rect>,<text font-size="12.60" x="746.0" y="155.0"><tspan x="746" y="154.98">North America</tspan></text></g><g class="legendMark"><rect x="735" y="160" width="58.124" height="17.6" fill="#fff" opacity="0"></rect>,<rect x="735" y="165.5" width="6" height="6" fill="#a652ba"></rect>,<text font-size="12.60" x="746.0" y="172.6"><tspan x="746" y="172.57999999999998">Oceania</tspan></text></g><g class="legendMark"><rect x="735" y="177.6" width="93.908" height="17.6" fill="#fff" opacity="0"></rect>,<rect x="735" y="183.1" width="6" height="6" fill="#69c487"></rect>,<text font-size="12.60" x="746.0" y="190.2"><tspan x="746" y="190.17999999999998">South America</tspan></text></g></g></g><g style="fill: #777;" class="SourcesFooter"><g style="fill: #777;" class="clickable"><text font-size="12.60" x="15.0" y="581.6"><tspan x="15" y="581.58">Source: IHME, Global Burden of Disease, World Bank – WDI</tspan></text></g><text font-size="12.60" x="649.0" y="581.6"><tspan x="649.024" y="581.58"><a target='_blank' style='fill: #777;' href='https://ourworldindata.org'>OurWorldInData.org</a> • <a style="fill: #777;" href="http://creativecommons.org/licenses/by-sa/4.0/deed.en_US" target="_blank">CC BY-SA</a></tspan></text></g></g></svg>