<svg xmlns="http://www.w3.org/2000/svg" version="1.1" style="font-family: 'Helvetica Neue', Helvetica, Arial, sans-serif; font-size: 18px; background-color: white; text-rendering: optimizeLegibility; -webkit-font-smoothing: antialiased;" width="850" height="600"><g class="ChartTab"><g class="HeaderView"><g opacity="0.8" transform="translate(778, 15) scale(0.27)"><a xmlns:xlink="http://www.w3.org/1999/xlink" xlink:href="https://ourworldindata.org" target="_blank"><g><rect x="0" y="0" fill="#1B2543" width="211.2" height="130.1"/><rect x="0" y="112.2" fill="#E63912" width="211.2" height="17.9"/><g><rect x="1.2" y="12.3" fill="none" width="210.2" height="99.2"/><path fill="#FFFFFF" d="M37.8,32.2c0,12.7-7.7,19.4-17.1,19.4c-9.7,0-16.6-7.5-16.6-18.7c0-11.7,7.3-19.3,17.1-19.3 C31.3,13.7,37.8,21.3,37.8,32.2z M9.2,32.8c0,7.9,4.3,14.9,11.8,14.9c7.5,0,11.8-6.9,11.8-15.3c0-7.3-3.8-14.9-11.8-14.9 C13.1,17.5,9.2,24.8,9.2,32.8z"/><path fill="#FFFFFF" d="M62.7,43.8c0,2.7,0.1,5.1,0.2,7.2h-4.3l-0.3-4.3h-0.1c-1.3,2.1-4,4.9-8.8,4.9c-4.2,0-9.1-2.3-9.1-11.6 V24.6h4.8v14.6c0,5,1.5,8.4,5.9,8.4c3.2,0,5.5-2.2,6.3-4.4c0.3-0.7,0.4-1.6,0.4-2.5V24.6h4.8V43.8z"/><path fill="#FFFFFF" d="M67.3,32.8c0-3.1-0.1-5.8-0.2-8.2h4.2l0.2,5.2h0.2c1.2-3.5,4.1-5.8,7.3-5.8c0.5,0,0.9,0.1,1.4,0.2v4.5 c-0.5-0.1-1-0.2-1.6-0.2c-3.4,0-5.8,2.6-6.5,6.2c-0.1,0.7-0.2,1.4-0.2,2.2V51h-4.8V32.8z"/><path fill="#FFFFFF" d="M95.4,51l-9.4-36.8h5l4.4,18.6c1.1,4.6,2.1,9.2,2.7,12.7h0.1c0.6-3.7,1.8-8,3-12.8l4.9-18.5h5l4.5,18.7 c1,4.4,2,8.7,2.6,12.6h0.1c0.8-4,1.8-8.1,3-12.7l4.9-18.5h4.9L120.6,51h-5L111,31.9c-1.1-4.7-1.9-8.3-2.4-12h-0.1 c-0.7,3.7-1.5,7.3-2.8,12L100.4,51H95.4z"/><path fill="#FFFFFF" d="M154.9,37.6c0,9.8-6.8,14-13.2,14c-7.2,0-12.7-5.2-12.7-13.6c0-8.8,5.8-14,13.1-14 C149.8,24,154.9,29.5,154.9,37.6z M133.9,37.9c0,5.8,3.3,10.1,8,10.1c4.6,0,8-4.3,8-10.3c0-4.5-2.2-10.1-7.9-10.1 C136.3,27.6,133.9,32.8,133.9,37.9z"/><path fill="#FFFFFF" d="M158.2,32.8c0-3.1-0.1-5.8-0.2-8.2h4.2l0.2,5.2h0.2c1.2-3.5,4.1-5.8,7.3-5.8c0.5,0,0.9,0.1,1.4,0.2v4.5 c-0.5-0.1-1-0.2-1.6-0.2c-3.4,0-5.8,2.6-6.5,6.2c-0.1,0.7-0.2,1.4-0.2,2.2V51h-4.8V32.8z"/><path fill="#FFFFFF" d="M173.5,12.3h4.8V51h-4.8V12.3z"/><path fill="#FFFFFF" d="M206.5,12.3v31.9c0,2.3,0.1,5,0.2,6.8h-4.3l-0.2-4.6H202c-1.5,2.9-4.7,5.2-9,5.2 c-6.4,0-11.3-5.4-11.3-13.4c-0.1-8.8,5.4-14.2,11.9-14.2c4,0,6.8,1.9,8,4h0.1V12.3H206.5z M201.7,35.4c0-0.6-0.1-1.4-0.2-2 c-0.7-3.1-3.3-5.6-6.9-5.6c-5,0-7.9,4.4-7.9,10.2c0,5.3,2.6,9.8,7.8,9.8c3.2,0,6.2-2.1,7.1-5.7c0.2-0.7,0.2-1.3,0.2-2.1V35.4z"/><path fill="#FFFFFF" d="M42.8,64c0.1,1.6-1.1,2.9-3.1,2.9c-1.7,0-2.9-1.3-2.9-2.9c0-1.7,1.3-3,3-3C41.7,61,42.8,62.3,42.8,64z M37.4,97.8V71.4h4.8v26.4H37.4z"/><path fill="#FFFFFF" d="M47.5,78.6c0-2.7-0.1-5-0.2-7.1h4.3l0.3,4.4h0.1c1.3-2.5,4.4-5,8.8-5c3.7,0,9.4,2.2,9.4,11.2v15.8h-4.8 V82.6c0-4.3-1.6-7.8-6.1-7.8c-3.2,0-5.6,2.2-6.5,4.9c-0.2,0.6-0.3,1.4-0.3,2.2v15.9h-4.8V78.6z"/><path fill="#FFFFFF" d="M84,61.6c2.9-0.4,6.3-0.8,10.1-0.8c6.8,0,11.7,1.6,14.9,4.6c3.3,3,5.2,7.3,5.2,13.2c0,6-1.9,10.9-5.3,14.3 c-3.4,3.4-9.1,5.3-16.3,5.3c-3.4,0-6.2-0.2-8.6-0.4V61.6z M88.8,94.1c1.2,0.2,3,0.3,4.8,0.3c10.2,0,15.7-5.7,15.7-15.6 c0.1-8.7-4.9-14.2-14.9-14.2c-2.5,0-4.3,0.2-5.6,0.5V94.1z"/><path fill="#FFFFFF" d="M132.1,97.8l-0.4-3.3h-0.2c-1.5,2.1-4.3,3.9-8.1,3.9c-5.4,0-8.1-3.8-8.1-7.6c0-6.4,5.7-9.9,15.9-9.8v-0.5 c0-2.2-0.6-6.1-6-6.1c-2.5,0-5,0.8-6.9,2l-1.1-3.2c2.2-1.4,5.4-2.3,8.7-2.3c8.1,0,10.1,5.5,10.1,10.8v9.9c0,2.3,0.1,4.5,0.4,6.3 H132.1z M131.4,84.4c-5.3-0.1-11.2,0.8-11.2,5.9c0,3.1,2.1,4.6,4.5,4.6c3.4,0,5.6-2.2,6.4-4.4c0.2-0.5,0.3-1,0.3-1.5V84.4z"/><path fill="#FFFFFF" d="M146.6,63.9v7.6h6.9v3.7h-6.9v14.2c0,3.3,0.9,5.1,3.6,5.1c1.3,0,2.2-0.2,2.8-0.3l0.2,3.6 c-0.9,0.4-2.4,0.7-4.3,0.7c-2.2,0-4-0.7-5.2-2c-1.4-1.4-1.9-3.8-1.9-6.9V75.1h-4.1v-3.7h4.1v-6.3L146.6,63.9z"/><path fill="#FFFFFF" d="M171.4,97.8l-0.4-3.3h-0.2c-1.5,2.1-4.3,3.9-8.1,3.9c-5.4,0-8.1-3.8-8.1-7.6c0-6.4,5.7-9.9,15.9-9.8v-0.5 c0-2.2-0.6-6.1-6-6.1c-2.5,0-5,0.8-6.9,2l-1.1-3.2c2.2-1.4,5.4-2.3,8.7-2.3c8.1,0,10.1,5.5,10.1,10.8v9.9c0,2.3,0.1,4.5,0.4,6.3 H171.4z M170.7,84.4c-5.3-0.1-11.2,0.8-11.2,5.9c0,3.1,2.1,4.6,4.5,4.6c3.4,0,5.6-2.2,6.4-4.4c0.2-0.5,0.3-1,0.3-1.5V84.4z"/></g></g></a></g><a href="https://ourworldindata.org/grapher/disease-burden-from-ncds-by-age" target="_blank"><text font-size="25.20" x="15.0" y="35.2" fill="#555"><tspan x="15" y="35.160000000000004">Disease burden from non-communicable diseases by age, World</tspan></text></a><text font-size="14.40" x="15.0" y="53.7" fill="#666"><tspan x="15" y="53.72">Disease burden from non-communicable diseases (NCDs) by age. Disease burden is measured in DALYs</tspan><tspan x="15" y="69.56">(Disability-Adjusted Life Years). DALYs are used to measure total burden of disease - both from years of life lost and</tspan><tspan x="15" y="85.4">years lived with a disability. One DALY equals one lost year of healthy life.</tspan></text></g><g class="StackedArea"><defs><clipPath id="boundsClip-1"><rect x="97.598" y="0" width="820" height="897.8"></rect></clipPath></defs><g class="AxisBoxView"><g class="HorizontalAxis"><text x="97.6" y="556.5" fill="#666" text-anchor="middle" font-size="16.2">1990</text><text x="214.7" y="556.5" fill="#666" text-anchor="middle" font-size="16.2">1995</text><text x="331.8" y="556.5" fill="#666" text-anchor="middle" font-size="16.2">2000</text><text x="448.9" y="556.5" fill="#666" text-anchor="middle" font-size="16.2">2005</text><text x="566" y="556.5" fill="#666" text-anchor="middle" font-size="16.2">2010</text><text x="706.6" y="556.5" fill="#666" text-anchor="middle" font-size="16.2">2016</text></g><g class="VerticalAxis"><text x="92.60" y="535.3" fill="#666" dominant-baseline="middle" text-anchor="end" font-size="16.2">0</text><text x="92.60" y="477" fill="#666" dominant-baseline="middle" text-anchor="end" font-size="16.2">200 million</text><text x="92.60" y="418.8" fill="#666" dominant-baseline="middle" text-anchor="end" font-size="16.2">400 million</text><text x="92.60" y="360.5" fill="#666" dominant-baseline="middle" text-anchor="end" font-size="16.2">600 million</text><text x="92.60" y="302.2" fill="#666" dominant-baseline="middle" text-anchor="end" font-size="16.2">800 million</text><text x="92.60" y="244" fill="#666" dominant-baseline="middle" text-anchor="end" font-size="16.2">1 billion</text><text x="92.60" y="185.7" fill="#666" dominant-baseline="middle" text-anchor="end" font-size="16.2">1.2 billion</text><text x="92.60" y="127.4" fill="#666" dominant-baseline="middle" text-anchor="end" font-size="16.2">1.4 billion</text></g><g class="AxisGridLines"><line x1="97.60" y1="535.3" x2="706.58" y2="535.3" stroke="#ccc"></line><line x1="97.60" y1="477" x2="706.58" y2="477" stroke="#ddd" stroke-dasharray="3,2"></line><line x1="97.60" y1="418.8" x2="706.58" y2="418.8" stroke="#ddd" stroke-dasharray="3,2"></line><line x1="97.60" y1="360.5" x2="706.58" y2="360.5" stroke="#ddd" stroke-dasharray="3,2"></line><line x1="97.60" y1="302.2" x2="706.58" y2="302.2" stroke="#ddd" stroke-dasharray="3,2"></line><line x1="97.60" y1="244" x2="706.58" y2="244" stroke="#ddd" stroke-dasharray="3,2"></line><line x1="97.60" y1="185.7" x2="706.58" y2="185.7" stroke="#ddd" stroke-dasharray="3,2"></line><line x1="97.60" y1="127.4" x2="706.58" y2="127.4" stroke="#ddd" stroke-dasharray="3,2"></line></g></g><g clip-path="url(#boundsClip-1)"><g class="HeightedLegend clickable"><g class="legendMark"><rect x="706.5799999999999" y="149.25" width="116.67500000000001" height="13.5" fill="#fff" opacity="0"></rect><text font-size="13.50" x="711.6" y="160.1" fill="#34983f"><tspan x="711.5799999999999" y="160.05">70+ year olds</tspan></text></g><g class="legendMark"><rect x="706.5799999999999" y="273.05" width="128.42000000000002" height="13.5" fill="#fff" opacity="0"></rect><text font-size="13.50" x="711.6" y="283.9" fill="#9ecc8a"><tspan x="711.5799999999999" y="283.85">50-69 year olds</tspan></text></g><g class="legendMark"><rect x="706.5799999999999" y="420.95" width="128.42000000000002" height="13.5" fill="#fff" opacity="0"></rect><text font-size="13.50" x="711.6" y="431.8" fill="#ffd53e"><tspan x="711.5799999999999" y="431.75">15-49 year olds</tspan></text></g><g class="legendMark"><rect x="706.5799999999999" y="501.65" width="120.86" height="13.5" fill="#fff" opacity="0"></rect><text font-size="13.50" x="711.6" y="512.4" fill="#ca2628"><tspan x="711.5799999999999" y="512.4499999999999">5-14 year olds</tspan></text></g><g class="legendMark"><rect x="706.5799999999999" y="519.25" width="90.62" height="13.5" fill="#fff" opacity="0"></rect><text font-size="13.50" x="711.6" y="530.0" fill="#3360a9"><tspan x="711.5799999999999" y="530.05">Under-5s</tspan></text></g></g><g class="Areas"><rect x="97.598" y="107.60000000000001" width="608.982" height="427.69999999999993" opacity="0" fill="rgba(255,255,255,0)"></rect><path stroke-linecap="round" d="M97.6 505.6L121 506.1L144.4 506.7L167.9 507.3L191.3 507.9L214.7 508.6L238.1 509.2L261.6 509.7L285 510.2L308.4 510.6L331.8 511.1L355.2 511.6L378.7 512L402.1 512.3L425.5 512.6L448.9 512.8L472.4 513L495.8 513.2L519.2 513.4L542.6 513.5L566 513.8L589.5 514.2L612.9 514.5L636.3 514.8L659.7 515.3L683.2 516L706.6 516.7L706.5799999999999 535.3L97.598 535.3" fill="#3360a9" fill-opacity="0.7" class="World_0-area"></path><path stroke-linecap="round" d="M97.6 489L121 489.4L144.4 489.8L167.9 490.2L191.3 490.6L214.7 491.1L238.1 491.4L261.6 491.8L285 492.3L308.4 492.8L331.8 493.4L355.2 494L378.7 494.6L402.1 495.2L425.5 495.6L448.9 496L472.4 496.4L495.8 496.7L519.2 497L542.6 497.1L566 497.4L589.5 497.8L612.9 498.1L636.3 498.4L659.7 498.8L683.2 499.5L706.6 500.2L706.6 516.7L683.2 516L659.7 515.3L636.3 514.8L612.9 514.5L589.5 514.2L566 513.8L542.6 513.5L519.2 513.4L495.8 513.2L472.4 513L448.9 512.8L425.5 512.6L402.1 512.3L378.7 512L355.2 511.6L331.8 511.1L308.4 510.6L285 510.2L261.6 509.7L238.1 509.2L214.7 508.6L191.3 507.9L167.9 507.3L144.4 506.7L121 506.1L97.6 505.6" fill="#ca2628" fill-opacity="0.7" class="World_1-area"></path><path stroke-linecap="round" d="M97.6 381.3L121 379.3L144.4 376.9L167.9 374.1L191.3 371.5L214.7 369.3L238.1 367.7L261.6 366.2L285 365.1L308.4 363.8L331.8 362.6L355.2 361.7L378.7 360.9L402.1 360.5L425.5 360.2L448.9 359.4L472.4 359L495.8 358.6L519.2 357.9L542.6 357.4L566 357L589.5 356.9L612.9 356.6L636.3 356.1L659.7 355.7L683.2 355.4L706.6 355.3L706.6 500.2L683.2 499.5L659.7 498.8L636.3 498.4L612.9 498.1L589.5 497.8L566 497.4L542.6 497.1L519.2 497L495.8 496.7L472.4 496.4L448.9 496L425.5 495.6L402.1 495.2L378.7 494.6L355.2 494L331.8 493.4L308.4 492.8L285 492.3L261.6 491.8L238.1 491.4L214.7 491.1L191.3 490.6L167.9 490.2L144.4 489.8L121 489.4L97.6 489" fill="#ffd53e" fill-opacity="0.7" class="World_3-area"></path><path stroke-linecap="round" d="M97.6 281.9L121 278.7L144.4 274.4L167.9 269.2L191.3 264.6L214.7 261.5L238.1 259.8L261.6 257.7L285 255.7L308.4 252.5L331.8 249.1L355.2 246.9L378.7 244.3L402.1 241.9L425.5 239.6L448.9 236.7L472.4 235.6L495.8 233.8L519.2 231.2L542.6 228.8L566 225.6L589.5 223.3L612.9 220.1L636.3 216.1L659.7 211.8L683.2 207.9L706.6 204.4L706.6 355.3L683.2 355.4L659.7 355.7L636.3 356.1L612.9 356.6L589.5 356.9L566 357L542.6 357.4L519.2 357.9L495.8 358.6L472.4 359L448.9 359.4L425.5 360.2L402.1 360.5L378.7 360.9L355.2 361.7L331.8 362.6L308.4 363.8L285 365.1L261.6 366.2L238.1 367.7L214.7 369.3L191.3 371.5L167.9 374.1L144.4 376.9L121 379.3L97.6 381.3" fill="#9ecc8a" fill-opacity="0.7" class="World_4-area"></path><path stroke-linecap="round" d="M97.6 222.2L121 218L144.4 212.1L167.9 205.1L191.3 198.8L214.7 194.3L238.1 191.4L261.6 188.1L285 184.5L308.4 179.3L331.8 174.2L355.2 170.2L378.7 165.7L402.1 162.5L425.5 159.4L448.9 154.9L472.4 153L495.8 150L519.2 145.8L542.6 141.8L566 137L589.5 133.8L612.9 129.4L636.3 124.4L659.7 118.8L683.2 113.3L706.6 107.6L706.6 204.4L683.2 207.9L659.7 211.8L636.3 216.1L612.9 220.1L589.5 223.3L566 225.6L542.6 228.8L519.2 231.2L495.8 233.8L472.4 235.6L448.9 236.7L425.5 239.6L402.1 241.9L378.7 244.3L355.2 246.9L331.8 249.1L308.4 252.5L285 255.7L261.6 257.7L238.1 259.8L214.7 261.5L191.3 264.6L167.9 269.2L144.4 274.4L121 278.7L97.6 281.9" fill="#34983f" fill-opacity="0.7" class="World_2-area"></path><path stroke-linecap="round" d="M97.6 505.6L121 506.1L144.4 506.7L167.9 507.3L191.3 507.9L214.7 508.6L238.1 509.2L261.6 509.7L285 510.2L308.4 510.6L331.8 511.1L355.2 511.6L378.7 512L402.1 512.3L425.5 512.6L448.9 512.8L472.4 513L495.8 513.2L519.2 513.4L542.6 513.5L566 513.8L589.5 514.2L612.9 514.5L636.3 514.8L659.7 515.3L683.2 516L706.6 516.7" stroke="rgb(43, 80, 141)" stroke-opacity="0.7" stroke-width="0.5" fill="none" class="World_0-border"></path><path stroke-linecap="round" d="M97.6 489L121 489.4L144.4 489.8L167.9 490.2L191.3 490.6L214.7 491.1L238.1 491.4L261.6 491.8L285 492.3L308.4 492.8L331.8 493.4L355.2 494L378.7 494.6L402.1 495.2L425.5 495.6L448.9 496L472.4 496.4L495.8 496.7L519.2 497L542.6 497.1L566 497.4L589.5 497.8L612.9 498.1L636.3 498.4L659.7 498.8L683.2 499.5L706.6 500.2" stroke="rgb(169, 32, 33)" stroke-opacity="0.7" stroke-width="0.5" fill="none" class="World_1-border"></path><path stroke-linecap="round" d="M97.6 381.3L121 379.3L144.4 376.9L167.9 374.1L191.3 371.5L214.7 369.3L238.1 367.7L261.6 366.2L285 365.1L308.4 363.8L331.8 362.6L355.2 361.7L378.7 360.9L402.1 360.5L425.5 360.2L448.9 359.4L472.4 359L495.8 358.6L519.2 357.9L542.6 357.4L566 357L589.5 356.9L612.9 356.6L636.3 356.1L659.7 355.7L683.2 355.4L706.6 355.3" stroke="rgb(213, 178, 52)" stroke-opacity="0.7" stroke-width="0.5" fill="none" class="World_3-border"></path><path stroke-linecap="round" d="M97.6 281.9L121 278.7L144.4 274.4L167.9 269.2L191.3 264.6L214.7 261.5L238.1 259.8L261.6 257.7L285 255.7L308.4 252.5L331.8 249.1L355.2 246.9L378.7 244.3L402.1 241.9L425.5 239.6L448.9 236.7L472.4 235.6L495.8 233.8L519.2 231.2L542.6 228.8L566 225.6L589.5 223.3L612.9 220.1L636.3 216.1L659.7 211.8L683.2 207.9L706.6 204.4" stroke="rgb(132, 171, 115)" stroke-opacity="0.7" stroke-width="0.5" fill="none" class="World_4-border"></path><path stroke-linecap="round" d="M97.6 222.2L121 218L144.4 212.1L167.9 205.1L191.3 198.8L214.7 194.3L238.1 191.4L261.6 188.1L285 184.5L308.4 179.3L331.8 174.2L355.2 170.2L378.7 165.7L402.1 162.5L425.5 159.4L448.9 154.9L472.4 153L495.8 150L519.2 145.8L542.6 141.8L566 137L589.5 133.8L612.9 129.4L636.3 124.4L659.7 118.8L683.2 113.3L706.6 107.6" stroke="rgb(44, 127, 53)" stroke-opacity="0.7" stroke-width="0.5" fill="none" class="World_2-border"></path></g></g></g><g style="fill: #777;" class="SourcesFooter"><g style="fill: #777;" class="clickable"><text font-size="12.60" x="15.0" y="581.6"><tspan x="15" y="581.58">Source: IHME, Global Burden of Disease</tspan></text></g><text font-size="12.60" x="649.0" y="581.6"><tspan x="649.024" y="581.58"><a target='_blank' style='fill: #777;' href='https://ourworldindata.org'>OurWorldInData.org</a> • <a style="fill: #777;" href="http://creativecommons.org/licenses/by-sa/4.0/deed.en_US" target="_blank">CC BY-SA</a></tspan></text></g></g></svg>