<svg xmlns="http://www.w3.org/2000/svg" version="1.1" style="font-family: 'Helvetica Neue', Helvetica, Arial, sans-serif; font-size: 18px; background-color: white; text-rendering: optimizeLegibility; -webkit-font-smoothing: antialiased;" width="850" height="600"><g class="ChartTab"><g class="HeaderView"><g opacity="0.8" transform="translate(778, 15) scale(0.27)"><a xmlns:xlink="http://www.w3.org/1999/xlink" xlink:href="https://ourworldindata.org" target="_blank"><g><rect x="0" y="0" fill="#1B2543" width="211.2" height="130.1"/><rect x="0" y="112.2" fill="#E63912" width="211.2" height="17.9"/><g><rect x="1.2" y="12.3" fill="none" width="210.2" height="99.2"/><path fill="#FFFFFF" d="M37.8,32.2c0,12.7-7.7,19.4-17.1,19.4c-9.7,0-16.6-7.5-16.6-18.7c0-11.7,7.3-19.3,17.1-19.3 C31.3,13.7,37.8,21.3,37.8,32.2z M9.2,32.8c0,7.9,4.3,14.9,11.8,14.9c7.5,0,11.8-6.9,11.8-15.3c0-7.3-3.8-14.9-11.8-14.9 C13.1,17.5,9.2,24.8,9.2,32.8z"/><path fill="#FFFFFF" d="M62.7,43.8c0,2.7,0.1,5.1,0.2,7.2h-4.3l-0.3-4.3h-0.1c-1.3,2.1-4,4.9-8.8,4.9c-4.2,0-9.1-2.3-9.1-11.6 V24.6h4.8v14.6c0,5,1.5,8.4,5.9,8.4c3.2,0,5.5-2.2,6.3-4.4c0.3-0.7,0.4-1.6,0.4-2.5V24.6h4.8V43.8z"/><path fill="#FFFFFF" d="M67.3,32.8c0-3.1-0.1-5.8-0.2-8.2h4.2l0.2,5.2h0.2c1.2-3.5,4.1-5.8,7.3-5.8c0.5,0,0.9,0.1,1.4,0.2v4.5 c-0.5-0.1-1-0.2-1.6-0.2c-3.4,0-5.8,2.6-6.5,6.2c-0.1,0.7-0.2,1.4-0.2,2.2V51h-4.8V32.8z"/><path fill="#FFFFFF" d="M95.4,51l-9.4-36.8h5l4.4,18.6c1.1,4.6,2.1,9.2,2.7,12.7h0.1c0.6-3.7,1.8-8,3-12.8l4.9-18.5h5l4.5,18.7 c1,4.4,2,8.7,2.6,12.6h0.1c0.8-4,1.8-8.1,3-12.7l4.9-18.5h4.9L120.6,51h-5L111,31.9c-1.1-4.7-1.9-8.3-2.4-12h-0.1 c-0.7,3.7-1.5,7.3-2.8,12L100.4,51H95.4z"/><path fill="#FFFFFF" d="M154.9,37.6c0,9.8-6.8,14-13.2,14c-7.2,0-12.7-5.2-12.7-13.6c0-8.8,5.8-14,13.1-14 C149.8,24,154.9,29.5,154.9,37.6z M133.9,37.9c0,5.8,3.3,10.1,8,10.1c4.6,0,8-4.3,8-10.3c0-4.5-2.2-10.1-7.9-10.1 C136.3,27.6,133.9,32.8,133.9,37.9z"/><path fill="#FFFFFF" d="M158.2,32.8c0-3.1-0.1-5.8-0.2-8.2h4.2l0.2,5.2h0.2c1.2-3.5,4.1-5.8,7.3-5.8c0.5,0,0.9,0.1,1.4,0.2v4.5 c-0.5-0.1-1-0.2-1.6-0.2c-3.4,0-5.8,2.6-6.5,6.2c-0.1,0.7-0.2,1.4-0.2,2.2V51h-4.8V32.8z"/><path fill="#FFFFFF" d="M173.5,12.3h4.8V51h-4.8V12.3z"/><path fill="#FFFFFF" d="M206.5,12.3v31.9c0,2.3,0.1,5,0.2,6.8h-4.3l-0.2-4.6H202c-1.5,2.9-4.7,5.2-9,5.2 c-6.4,0-11.3-5.4-11.3-13.4c-0.1-8.8,5.4-14.2,11.9-14.2c4,0,6.8,1.9,8,4h0.1V12.3H206.5z M201.7,35.4c0-0.6-0.1-1.4-0.2-2 c-0.7-3.1-3.3-5.6-6.9-5.6c-5,0-7.9,4.4-7.9,10.2c0,5.3,2.6,9.8,7.8,9.8c3.2,0,6.2-2.1,7.1-5.7c0.2-0.7,0.2-1.3,0.2-2.1V35.4z"/><path fill="#FFFFFF" d="M42.8,64c0.1,1.6-1.1,2.9-3.1,2.9c-1.7,0-2.9-1.3-2.9-2.9c0-1.7,1.3-3,3-3C41.7,61,42.8,62.3,42.8,64z M37.4,97.8V71.4h4.8v26.4H37.4z"/><path fill="#FFFFFF" d="M47.5,78.6c0-2.7-0.1-5-0.2-7.1h4.3l0.3,4.4h0.1c1.3-2.5,4.4-5,8.8-5c3.7,0,9.4,2.2,9.4,11.2v15.8h-4.8 V82.6c0-4.3-1.6-7.8-6.1-7.8c-3.2,0-5.6,2.2-6.5,4.9c-0.2,0.6-0.3,1.4-0.3,2.2v15.9h-4.8V78.6z"/><path fill="#FFFFFF" d="M84,61.6c2.9-0.4,6.3-0.8,10.1-0.8c6.8,0,11.7,1.6,14.9,4.6c3.3,3,5.2,7.3,5.2,13.2c0,6-1.9,10.9-5.3,14.3 c-3.4,3.4-9.1,5.3-16.3,5.3c-3.4,0-6.2-0.2-8.6-0.4V61.6z M88.8,94.1c1.2,0.2,3,0.3,4.8,0.3c10.2,0,15.7-5.7,15.7-15.6 c0.1-8.7-4.9-14.2-14.9-14.2c-2.5,0-4.3,0.2-5.6,0.5V94.1z"/><path fill="#FFFFFF" d="M132.1,97.8l-0.4-3.3h-0.2c-1.5,2.1-4.3,3.9-8.1,3.9c-5.4,0-8.1-3.8-8.1-7.6c0-6.4,5.7-9.9,15.9-9.8v-0.5 c0-2.2-0.6-6.1-6-6.1c-2.5,0-5,0.8-6.9,2l-1.1-3.2c2.2-1.4,5.4-2.3,8.7-2.3c8.1,0,10.1,5.5,10.1,10.8v9.9c0,2.3,0.1,4.5,0.4,6.3 H132.1z M131.4,84.4c-5.3-0.1-11.2,0.8-11.2,5.9c0,3.1,2.1,4.6,4.5,4.6c3.4,0,5.6-2.2,6.4-4.4c0.2-0.5,0.3-1,0.3-1.5V84.4z"/><path fill="#FFFFFF" d="M146.6,63.9v7.6h6.9v3.7h-6.9v14.2c0,3.3,0.9,5.1,3.6,5.1c1.3,0,2.2-0.2,2.8-0.3l0.2,3.6 c-0.9,0.4-2.4,0.7-4.3,0.7c-2.2,0-4-0.7-5.2-2c-1.4-1.4-1.9-3.8-1.9-6.9V75.1h-4.1v-3.7h4.1v-6.3L146.6,63.9z"/><path fill="#FFFFFF" d="M171.4,97.8l-0.4-3.3h-0.2c-1.5,2.1-4.3,3.9-8.1,3.9c-5.4,0-8.1-3.8-8.1-7.6c0-6.4,5.7-9.9,15.9-9.8v-0.5 c0-2.2-0.6-6.1-6-6.1c-2.5,0-5,0.8-6.9,2l-1.1-3.2c2.2-1.4,5.4-2.3,8.7-2.3c8.1,0,10.1,5.5,10.1,10.8v9.9c0,2.3,0.1,4.5,0.4,6.3 H171.4z M170.7,84.4c-5.3-0.1-11.2,0.8-11.2,5.9c0,3.1,2.1,4.6,4.5,4.6c3.4,0,5.6-2.2,6.4-4.4c0.2-0.5,0.3-1,0.3-1.5V84.4z"/></g></g></a></g><a href="https://ourworldindata.org/grapher/distribution-of-bilateral-and-unilateral-trade-partnerships" target="_blank"><text font-size="24.30" x="15.0" y="34.4" fill="#555"><tspan x="15" y="34.44">Share of bilateral and unilateral trade partnerships around the world</tspan></text></a><text font-size="14.40" x="15.0" y="52.8" fill="#666"><tspan x="15" y="52.81999999999999">To construct this chart we started from a dataset with dyadic trade estimates. For each year we took all country pairs</tspan><tspan x="15" y="68.66">with data and classified them as follows: &quot;Non-trading&quot; (pairs in which countries do not trade with one-another);</tspan><tspan x="15" y="84.5">&quot;Bilateral&quot; (pairs in which both countries export to one-another); and &quot;Unilateral&quot; (pairs in which only one country</tspan><tspan x="15" y="100.34">exports to the other).</tspan></text></g><g class="StackedArea"><defs><clipPath id="boundsClip-1"><rect x="61.634" y="0" width="820" height="868.6"></rect></clipPath></defs><g class="AxisBoxView"><g class="HorizontalAxis"><text x="61.6" y="556.5" fill="#666" text-anchor="middle" font-size="16.2">1950</text><text x="160.1" y="556.5" fill="#666" text-anchor="middle" font-size="16.2">1960</text><text x="258.5" y="556.5" fill="#666" text-anchor="middle" font-size="16.2">1970</text><text x="357" y="556.5" fill="#666" text-anchor="middle" font-size="16.2">1980</text><text x="455.4" y="556.5" fill="#666" text-anchor="middle" font-size="16.2">1990</text><text x="553.9" y="556.5" fill="#666" text-anchor="middle" font-size="16.2">2000</text><text x="691.7" y="556.5" fill="#666" text-anchor="middle" font-size="16.2">2014</text></g><g class="VerticalAxis"><text x="56.63" y="535.3" fill="#666" dominant-baseline="middle" text-anchor="end" font-size="16.2">0%</text><text x="56.63" y="452.7" fill="#666" dominant-baseline="middle" text-anchor="end" font-size="16.2">20%</text><text x="56.63" y="370.1" fill="#666" dominant-baseline="middle" text-anchor="end" font-size="16.2">40%</text><text x="56.63" y="287.4" fill="#666" dominant-baseline="middle" text-anchor="end" font-size="16.2">60%</text><text x="56.63" y="204.8" fill="#666" dominant-baseline="middle" text-anchor="end" font-size="16.2">80%</text><text x="56.63" y="122.2" fill="#666" dominant-baseline="middle" text-anchor="end" font-size="16.2">100%</text></g><g class="AxisGridLines"><line x1="61.63" y1="535.3" x2="691.73" y2="535.3" stroke="#ccc"></line><line x1="61.63" y1="452.7" x2="691.73" y2="452.7" stroke="#ddd" stroke-dasharray="3,2"></line><line x1="61.63" y1="370.1" x2="691.73" y2="370.1" stroke="#ddd" stroke-dasharray="3,2"></line><line x1="61.63" y1="287.4" x2="691.73" y2="287.4" stroke="#ddd" stroke-dasharray="3,2"></line><line x1="61.63" y1="204.8" x2="691.73" y2="204.8" stroke="#ddd" stroke-dasharray="3,2"></line><line x1="61.63" y1="122.2" x2="691.73" y2="122.2" stroke="#ddd" stroke-dasharray="3,2"></line></g></g><g clip-path="url(#boundsClip-1)"><g class="HeightedLegend clickable"><g class="legendMark"><rect x="691.73" y="160.95" width="112.49000000000001" height="28.1" fill="#fff" opacity="0"></rect><text font-size="13.50" x="696.7" y="171.8" fill="#b077b1"><tspan x="696.73" y="171.75">Non-trading</tspan><tspan x="696.73" y="186.6">country pairs</tspan></text></g><g class="legendMark"><rect x="691.73" y="333.15" width="143.27" height="28.1" fill="#fff" opacity="0"></rect><text font-size="13.50" x="696.7" y="343.9" fill="#f6a324"><tspan x="696.73" y="343.95">Country pairs with</tspan><tspan x="696.73" y="358.8">bilateral trade</tspan></text></g><g class="legendMark"><rect x="691.73" y="486.84999999999997" width="143.27" height="28.1" fill="#fff" opacity="0"></rect><text font-size="13.50" x="696.7" y="497.6" fill="#2a939b"><tspan x="696.73" y="497.65">Country pairs with</tspan><tspan x="696.73" y="512.5">unilateral trade</tspan></text></g></g><g class="Areas"><rect x="61.634" y="122.19999999999999" width="630.096" height="413.09999999999997" opacity="0" fill="rgba(255,255,255,0)"></rect><path stroke-linecap="round" d="M61.6 506.4L71.5 506.8L81.3 505.6L91.2 504L101 504.4L110.9 504.3L120.7 503.9L130.6 502.7L140.4 494.3L150.2 498.8L160.1 492.5L169.9 493.4L179.8 489.7L189.6 488.6L199.5 484L209.3 478.9L219.2 479L229 482.2L238.8 484.7L248.7 471.3L258.5 467.5L268.4 465.2L278.2 459.3L288.1 455.9L297.9 456.1L307.8 458.1L317.6 459.5L327.5 451.8L337.3 454.7L347.1 452.4L357 452.5L366.8 452.7L376.7 454.2L386.5 454.2L396.4 456.1L406.2 454.3L416.1 452L425.9 458.4L435.8 457.2L445.6 461.4L455.4 465.3L465.3 470.3L475.1 467.6L485 470.4L494.8 464.1L504.7 462.7L514.5 464.2L524.4 464.1L534.2 462.5L544.1 464.1L553.9 462.6L563.7 463.4L573.6 464L583.4 465L593.3 462.9L603.1 464.4L613 466L622.8 464.4L632.7 463.9L642.5 464.4L652.3 466L662.2 466.5L672 465.6L681.9 467.2L691.7 466.5L691.73 535.3L61.634 535.3" fill="#2a939b" fill-opacity="0.7" class="World_2-area"></path><path stroke-linecap="round" d="M61.6 452.5L71.5 451.4L81.3 444.2L91.2 441.8L101 439.2L110.9 437.8L120.7 433.9L130.6 431.1L140.4 414L150.2 419.6L160.1 410.1L169.9 411.7L179.8 400.9L189.6 400.3L199.5 390.2L209.3 379L219.2 376.6L229 372.9L238.8 376.3L248.7 342L258.5 331.6L268.4 324.9L278.2 315.3L288.1 303.9L297.9 300.3L307.8 301.5L317.6 302.3L327.5 289.3L337.3 288.6L347.1 280.5L357 281.8L366.8 292.7L376.7 296.5L386.5 296.4L396.4 297.8L406.2 292.6L416.1 286.5L425.9 296.8L435.8 285.3L445.6 277.1L455.4 280.3L465.3 285.4L475.1 288.5L485 289.9L494.8 276.6L504.7 268L514.5 263.8L524.4 256.6L534.2 258.2L544.1 253.3L553.9 249.5L563.7 245.3L573.6 242.9L583.4 240L593.3 237.6L603.1 238L613 230.5L622.8 232.5L632.7 227.4L642.5 228L652.3 230.7L662.2 230.4L672 226.5L681.9 227.8L691.7 227.9L691.7 466.5L681.9 467.2L672 465.6L662.2 466.5L652.3 466L642.5 464.4L632.7 463.9L622.8 464.4L613 466L603.1 464.4L593.3 462.9L583.4 465L573.6 464L563.7 463.4L553.9 462.6L544.1 464.1L534.2 462.5L524.4 464.1L514.5 464.2L504.7 462.7L494.8 464.1L485 470.4L475.1 467.6L465.3 470.3L455.4 465.3L445.6 461.4L435.8 457.2L425.9 458.4L416.1 452L406.2 454.3L396.4 456.1L386.5 454.2L376.7 454.2L366.8 452.7L357 452.5L347.1 452.4L337.3 454.7L327.5 451.8L317.6 459.5L307.8 458.1L297.9 456.1L288.1 455.9L278.2 459.3L268.4 465.2L258.5 467.5L248.7 471.3L238.8 484.7L229 482.2L219.2 479L209.3 478.9L199.5 484L189.6 488.6L179.8 489.7L169.9 493.4L160.1 492.5L150.2 498.8L140.4 494.3L130.6 502.7L120.7 503.9L110.9 504.3L101 504.4L91.2 504L81.3 505.6L71.5 506.8L61.6 506.4" fill="#f6a324" fill-opacity="0.7" class="World_0-area"></path><path stroke-linecap="round" d="M61.6 122.2L71.5 122.2L81.3 122.2L91.2 122.2L101 122.2L110.9 122.2L120.7 122.2L130.6 122.2L140.4 122.2L150.2 122.2L160.1 122.2L169.9 122.2L179.8 122.2L189.6 122.2L199.5 122.2L209.3 122.2L219.2 122.2L229 122.2L238.8 122.2L248.7 122.2L258.5 122.2L268.4 122.2L278.2 122.2L288.1 122.2L297.9 122.2L307.8 122.2L317.6 122.2L327.5 122.2L337.3 122.2L347.1 122.2L357 122.2L366.8 122.2L376.7 122.2L386.5 122.2L396.4 122.2L406.2 122.2L416.1 122.2L425.9 122.2L435.8 122.2L445.6 122.2L455.4 122.2L465.3 122.2L475.1 122.2L485 122.2L494.8 122.2L504.7 122.2L514.5 122.2L524.4 122.2L534.2 122.2L544.1 122.2L553.9 122.2L563.7 122.2L573.6 122.2L583.4 122.2L593.3 122.2L603.1 122.2L613 122.2L622.8 122.2L632.7 122.2L642.5 122.2L652.3 122.2L662.2 122.2L672 122.2L681.9 122.2L691.7 122.2L691.7 227.9L681.9 227.8L672 226.5L662.2 230.4L652.3 230.7L642.5 228L632.7 227.4L622.8 232.5L613 230.5L603.1 238L593.3 237.6L583.4 240L573.6 242.9L563.7 245.3L553.9 249.5L544.1 253.3L534.2 258.2L524.4 256.6L514.5 263.8L504.7 268L494.8 276.6L485 289.9L475.1 288.5L465.3 285.4L455.4 280.3L445.6 277.1L435.8 285.3L425.9 296.8L416.1 286.5L406.2 292.6L396.4 297.8L386.5 296.4L376.7 296.5L366.8 292.7L357 281.8L347.1 280.5L337.3 288.6L327.5 289.3L317.6 302.3L307.8 301.5L297.9 300.3L288.1 303.9L278.2 315.3L268.4 324.9L258.5 331.6L248.7 342L238.8 376.3L229 372.9L219.2 376.6L209.3 379L199.5 390.2L189.6 400.3L179.8 400.9L169.9 411.7L160.1 410.1L150.2 419.6L140.4 414L130.6 431.1L120.7 433.9L110.9 437.8L101 439.2L91.2 441.8L81.3 444.2L71.5 451.4L61.6 452.5" fill="#b077b1" fill-opacity="0.7" class="World_1-area"></path><path stroke-linecap="round" d="M61.6 506.4L71.5 506.8L81.3 505.6L91.2 504L101 504.4L110.9 504.3L120.7 503.9L130.6 502.7L140.4 494.3L150.2 498.8L160.1 492.5L169.9 493.4L179.8 489.7L189.6 488.6L199.5 484L209.3 478.9L219.2 479L229 482.2L238.8 484.7L248.7 471.3L258.5 467.5L268.4 465.2L278.2 459.3L288.1 455.9L297.9 456.1L307.8 458.1L317.6 459.5L327.5 451.8L337.3 454.7L347.1 452.4L357 452.5L366.8 452.7L376.7 454.2L386.5 454.2L396.4 456.1L406.2 454.3L416.1 452L425.9 458.4L435.8 457.2L445.6 461.4L455.4 465.3L465.3 470.3L475.1 467.6L485 470.4L494.8 464.1L504.7 462.7L514.5 464.2L524.4 464.1L534.2 462.5L544.1 464.1L553.9 462.6L563.7 463.4L573.6 464L583.4 465L593.3 462.9L603.1 464.4L613 466L622.8 464.4L632.7 463.9L642.5 464.4L652.3 466L662.2 466.5L672 465.6L681.9 467.2L691.7 466.5" stroke="rgb(35, 123, 130)" stroke-opacity="0.7" stroke-width="0.5" fill="none" class="World_2-border"></path><path stroke-linecap="round" d="M61.6 452.5L71.5 451.4L81.3 444.2L91.2 441.8L101 439.2L110.9 437.8L120.7 433.9L130.6 431.1L140.4 414L150.2 419.6L160.1 410.1L169.9 411.7L179.8 400.9L189.6 400.3L199.5 390.2L209.3 379L219.2 376.6L229 372.9L238.8 376.3L248.7 342L258.5 331.6L268.4 324.9L278.2 315.3L288.1 303.9L297.9 300.3L307.8 301.5L317.6 302.3L327.5 289.3L337.3 288.6L347.1 280.5L357 281.8L366.8 292.7L376.7 296.5L386.5 296.4L396.4 297.8L406.2 292.6L416.1 286.5L425.9 296.8L435.8 285.3L445.6 277.1L455.4 280.3L465.3 285.4L475.1 288.5L485 289.9L494.8 276.6L504.7 268L514.5 263.8L524.4 256.6L534.2 258.2L544.1 253.3L553.9 249.5L563.7 245.3L573.6 242.9L583.4 240L593.3 237.6L603.1 238L613 230.5L622.8 232.5L632.7 227.4L642.5 228L652.3 230.7L662.2 230.4L672 226.5L681.9 227.8L691.7 227.9" stroke="rgb(206, 136, 30)" stroke-opacity="0.7" stroke-width="0.5" fill="none" class="World_0-border"></path><path stroke-linecap="round" d="M61.6 122.2L71.5 122.2L81.3 122.2L91.2 122.2L101 122.2L110.9 122.2L120.7 122.2L130.6 122.2L140.4 122.2L150.2 122.2L160.1 122.2L169.9 122.2L179.8 122.2L189.6 122.2L199.5 122.2L209.3 122.2L219.2 122.2L229 122.2L238.8 122.2L248.7 122.2L258.5 122.2L268.4 122.2L278.2 122.2L288.1 122.2L297.9 122.2L307.8 122.2L317.6 122.2L327.5 122.2L337.3 122.2L347.1 122.2L357 122.2L366.8 122.2L376.7 122.2L386.5 122.2L396.4 122.2L406.2 122.2L416.1 122.2L425.9 122.2L435.8 122.2L445.6 122.2L455.4 122.2L465.3 122.2L475.1 122.2L485 122.2L494.8 122.2L504.7 122.2L514.5 122.2L524.4 122.2L534.2 122.2L544.1 122.2L553.9 122.2L563.7 122.2L573.6 122.2L583.4 122.2L593.3 122.2L603.1 122.2L613 122.2L622.8 122.2L632.7 122.2L642.5 122.2L652.3 122.2L662.2 122.2L672 122.2L681.9 122.2L691.7 122.2" stroke="rgb(147, 100, 148)" stroke-opacity="0.7" stroke-width="0.5" fill="none" class="World_1-border"></path></g></g></g><g style="fill: #777;" class="SourcesFooter"><g style="fill: #777;" class="clickable"><text font-size="12.60" x="15.0" y="581.6"><tspan x="15" y="581.58">Source: CEPII (2016) Two Centuries of Bilateral Trade and Gravity Data: 1827-2014 (2016)</tspan></text></g><text font-size="12.60" x="649.0" y="581.6"><tspan x="649.024" y="581.58"><a target='_blank' style='fill: #777;' href='https://ourworldindata.org'>OurWorldInData.org</a> • <a style="fill: #777;" href="http://creativecommons.org/licenses/by-sa/4.0/deed.en_US" target="_blank">CC BY-SA</a></tspan></text></g></g></svg>