<svg xmlns="http://www.w3.org/2000/svg" version="1.1" style="font-family: 'Helvetica Neue', Helvetica, Arial, sans-serif; font-size: 18px; background-color: white; text-rendering: optimizeLegibility; -webkit-font-smoothing: antialiased;" width="850" height="600"><g class="ChartTab"><g class="HeaderView"><g opacity="0.8" transform="translate(778, 15) scale(0.27)"><a xmlns:xlink="http://www.w3.org/1999/xlink" xlink:href="https://ourworldindata.org" target="_blank"><g><rect x="0" y="0" fill="#1B2543" width="211.2" height="130.1"/><rect x="0" y="112.2" fill="#E63912" width="211.2" height="17.9"/><g><rect x="1.2" y="12.3" fill="none" width="210.2" height="99.2"/><path fill="#FFFFFF" d="M37.8,32.2c0,12.7-7.7,19.4-17.1,19.4c-9.7,0-16.6-7.5-16.6-18.7c0-11.7,7.3-19.3,17.1-19.3 C31.3,13.7,37.8,21.3,37.8,32.2z M9.2,32.8c0,7.9,4.3,14.9,11.8,14.9c7.5,0,11.8-6.9,11.8-15.3c0-7.3-3.8-14.9-11.8-14.9 C13.1,17.5,9.2,24.8,9.2,32.8z"/><path fill="#FFFFFF" d="M62.7,43.8c0,2.7,0.1,5.1,0.2,7.2h-4.3l-0.3-4.3h-0.1c-1.3,2.1-4,4.9-8.8,4.9c-4.2,0-9.1-2.3-9.1-11.6 V24.6h4.8v14.6c0,5,1.5,8.4,5.9,8.4c3.2,0,5.5-2.2,6.3-4.4c0.3-0.7,0.4-1.6,0.4-2.5V24.6h4.8V43.8z"/><path fill="#FFFFFF" d="M67.3,32.8c0-3.1-0.1-5.8-0.2-8.2h4.2l0.2,5.2h0.2c1.2-3.5,4.1-5.8,7.3-5.8c0.5,0,0.9,0.1,1.4,0.2v4.5 c-0.5-0.1-1-0.2-1.6-0.2c-3.4,0-5.8,2.6-6.5,6.2c-0.1,0.7-0.2,1.4-0.2,2.2V51h-4.8V32.8z"/><path fill="#FFFFFF" d="M95.4,51l-9.4-36.8h5l4.4,18.6c1.1,4.6,2.1,9.2,2.7,12.7h0.1c0.6-3.7,1.8-8,3-12.8l4.9-18.5h5l4.5,18.7 c1,4.4,2,8.7,2.6,12.6h0.1c0.8-4,1.8-8.1,3-12.7l4.9-18.5h4.9L120.6,51h-5L111,31.9c-1.1-4.7-1.9-8.3-2.4-12h-0.1 c-0.7,3.7-1.5,7.3-2.8,12L100.4,51H95.4z"/><path fill="#FFFFFF" d="M154.9,37.6c0,9.8-6.8,14-13.2,14c-7.2,0-12.7-5.2-12.7-13.6c0-8.8,5.8-14,13.1-14 C149.8,24,154.9,29.5,154.9,37.6z M133.9,37.9c0,5.8,3.3,10.1,8,10.1c4.6,0,8-4.3,8-10.3c0-4.5-2.2-10.1-7.9-10.1 C136.3,27.6,133.9,32.8,133.9,37.9z"/><path fill="#FFFFFF" d="M158.2,32.8c0-3.1-0.1-5.8-0.2-8.2h4.2l0.2,5.2h0.2c1.2-3.5,4.1-5.8,7.3-5.8c0.5,0,0.9,0.1,1.4,0.2v4.5 c-0.5-0.1-1-0.2-1.6-0.2c-3.4,0-5.8,2.6-6.5,6.2c-0.1,0.7-0.2,1.4-0.2,2.2V51h-4.8V32.8z"/><path fill="#FFFFFF" d="M173.5,12.3h4.8V51h-4.8V12.3z"/><path fill="#FFFFFF" d="M206.5,12.3v31.9c0,2.3,0.1,5,0.2,6.8h-4.3l-0.2-4.6H202c-1.5,2.9-4.7,5.2-9,5.2 c-6.4,0-11.3-5.4-11.3-13.4c-0.1-8.8,5.4-14.2,11.9-14.2c4,0,6.8,1.9,8,4h0.1V12.3H206.5z M201.7,35.4c0-0.6-0.1-1.4-0.2-2 c-0.7-3.1-3.3-5.6-6.9-5.6c-5,0-7.9,4.4-7.9,10.2c0,5.3,2.6,9.8,7.8,9.8c3.2,0,6.2-2.1,7.1-5.7c0.2-0.7,0.2-1.3,0.2-2.1V35.4z"/><path fill="#FFFFFF" d="M42.8,64c0.1,1.6-1.1,2.9-3.1,2.9c-1.7,0-2.9-1.3-2.9-2.9c0-1.7,1.3-3,3-3C41.7,61,42.8,62.3,42.8,64z M37.4,97.8V71.4h4.8v26.4H37.4z"/><path fill="#FFFFFF" d="M47.5,78.6c0-2.7-0.1-5-0.2-7.1h4.3l0.3,4.4h0.1c1.3-2.5,4.4-5,8.8-5c3.7,0,9.4,2.2,9.4,11.2v15.8h-4.8 V82.6c0-4.3-1.6-7.8-6.1-7.8c-3.2,0-5.6,2.2-6.5,4.9c-0.2,0.6-0.3,1.4-0.3,2.2v15.9h-4.8V78.6z"/><path fill="#FFFFFF" d="M84,61.6c2.9-0.4,6.3-0.8,10.1-0.8c6.8,0,11.7,1.6,14.9,4.6c3.3,3,5.2,7.3,5.2,13.2c0,6-1.9,10.9-5.3,14.3 c-3.4,3.4-9.1,5.3-16.3,5.3c-3.4,0-6.2-0.2-8.6-0.4V61.6z M88.8,94.1c1.2,0.2,3,0.3,4.8,0.3c10.2,0,15.7-5.7,15.7-15.6 c0.1-8.7-4.9-14.2-14.9-14.2c-2.5,0-4.3,0.2-5.6,0.5V94.1z"/><path fill="#FFFFFF" d="M132.1,97.8l-0.4-3.3h-0.2c-1.5,2.1-4.3,3.9-8.1,3.9c-5.4,0-8.1-3.8-8.1-7.6c0-6.4,5.7-9.9,15.9-9.8v-0.5 c0-2.2-0.6-6.1-6-6.1c-2.5,0-5,0.8-6.9,2l-1.1-3.2c2.2-1.4,5.4-2.3,8.7-2.3c8.1,0,10.1,5.5,10.1,10.8v9.9c0,2.3,0.1,4.5,0.4,6.3 H132.1z M131.4,84.4c-5.3-0.1-11.2,0.8-11.2,5.9c0,3.1,2.1,4.6,4.5,4.6c3.4,0,5.6-2.2,6.4-4.4c0.2-0.5,0.3-1,0.3-1.5V84.4z"/><path fill="#FFFFFF" d="M146.6,63.9v7.6h6.9v3.7h-6.9v14.2c0,3.3,0.9,5.1,3.6,5.1c1.3,0,2.2-0.2,2.8-0.3l0.2,3.6 c-0.9,0.4-2.4,0.7-4.3,0.7c-2.2,0-4-0.7-5.2-2c-1.4-1.4-1.9-3.8-1.9-6.9V75.1h-4.1v-3.7h4.1v-6.3L146.6,63.9z"/><path fill="#FFFFFF" d="M171.4,97.8l-0.4-3.3h-0.2c-1.5,2.1-4.3,3.9-8.1,3.9c-5.4,0-8.1-3.8-8.1-7.6c0-6.4,5.7-9.9,15.9-9.8v-0.5 c0-2.2-0.6-6.1-6-6.1c-2.5,0-5,0.8-6.9,2l-1.1-3.2c2.2-1.4,5.4-2.3,8.7-2.3c8.1,0,10.1,5.5,10.1,10.8v9.9c0,2.3,0.1,4.5,0.4,6.3 H171.4z M170.7,84.4c-5.3-0.1-11.2,0.8-11.2,5.9c0,3.1,2.1,4.6,4.5,4.6c3.4,0,5.6-2.2,6.4-4.4c0.2-0.5,0.3-1,0.3-1.5V84.4z"/></g></g></a></g><a href="https://ourworldindata.org/grapher/divergence-of-gdp-per-capita-among-latecomers-to-the-capitalist-revolution-19282015" target="_blank"><text font-size="21.60" x="15.0" y="32.3" fill="#555"><tspan x="15" y="32.279999999999994">Divergence of GDP per capita among latecomers to the capitalist revolution</tspan><tspan x="15" y="53.87999999999999">(1928–2015)</tspan></text></a><text font-size="14.40" x="15.0" y="72.7" fill="#666"><tspan x="15" y="72.72">Unit 1 'The capitalist revolution’ Section 1.10 'Varieties of capitalism: Institutions, government and the economy' in The CORE</tspan><tspan x="15" y="88.56">Team, The Economy. Available at: https://tinyco.re/2793715 [Figure 1.11]</tspan></text></g><g class="LineChart"><defs><clipPath id="boundsClip-1"><rect x="68.968" y="0" width="830" height="863.4"></rect></clipPath></defs><g class="AxisBoxView"><g class="HorizontalAxis"><text x="79" y="542.8" fill="#666" text-anchor="middle" font-size="16.2">1928</text><text x="161.3" y="542.8" fill="#666" text-anchor="middle" font-size="16.2">1940</text><text x="298.5" y="542.8" fill="#666" text-anchor="middle" font-size="16.2">1960</text><text x="435.8" y="542.8" fill="#666" text-anchor="middle" font-size="16.2">1980</text><text x="573" y="542.8" fill="#666" text-anchor="middle" font-size="16.2">2000</text><text x="675.9" y="542.8" fill="#666" text-anchor="middle" font-size="16.2">2015</text></g><g class="VerticalAxis"><text x="73.97" y="521.6" fill="#666" dominant-baseline="middle" text-anchor="end" font-size="16.2">$0</text><text x="73.97" y="439" fill="#666" dominant-baseline="middle" text-anchor="end" font-size="16.2">$5,000</text><text x="73.97" y="356.5" fill="#666" dominant-baseline="middle" text-anchor="end" font-size="16.2">$10,000</text><text x="73.97" y="273.9" fill="#666" dominant-baseline="middle" text-anchor="end" font-size="16.2">$15,000</text><text x="73.97" y="191.4" fill="#666" dominant-baseline="middle" text-anchor="end" font-size="16.2">$20,000</text></g><g class="AxisGridLines"><line x1="78.97" y1="521.6" x2="675.93" y2="521.6" stroke="#ccc"></line><line x1="78.97" y1="439" x2="675.93" y2="439" stroke="#ddd" stroke-dasharray="3,2"></line><line x1="78.97" y1="356.5" x2="675.93" y2="356.5" stroke="#ddd" stroke-dasharray="3,2"></line><line x1="78.97" y1="273.9" x2="675.93" y2="273.9" stroke="#ddd" stroke-dasharray="3,2"></line><line x1="78.97" y1="191.4" x2="675.93" y2="191.4" stroke="#ddd" stroke-dasharray="3,2"></line></g></g><g clip-path="url(#boundsClip-1)"><g class="HeightedLegend clickable"><g class="legendMark"><rect x="675.935" y="104.35" width="110.465" height="13.5" fill="#fff" opacity="0"></rect><text font-size="13.50" x="680.9" y="115.1" fill="#e6332e"><tspan x="680.935" y="115.14999999999999">South Korea</tspan></text></g><g class="legendMark"><rect x="675.935" y="341.55" width="93.05000000000001" height="13.5" fill="#fff" opacity="0"></rect><text font-size="13.50" x="680.9" y="352.4" fill="#2a939b"><tspan x="680.935" y="352.35">Argentina</tspan></text></g><g class="legendMark"><rect x="675.935" y="363.25" width="152.45" height="13.5" fill="#fff" opacity="0"></rect><text font-size="13.50" x="680.9" y="374.1" fill="#a652ba"><tspan x="680.935" y="374.05">Russian Federation</tspan></text></g><g class="legendMark"><rect x="675.935" y="387.15" width="159.065" height="13.5" fill="#fff" opacity="0"></rect><text font-size="13.50" x="680.9" y="397.9" fill="#f6a324"><tspan x="680.935" y="397.95">Former Soviet Union</tspan></text></g><g class="legendMark"><rect x="675.935" y="400.95" width="68.75" height="13.5" fill="#fff" opacity="0"></rect><text font-size="13.50" x="680.9" y="411.8" fill="#34983f"><tspan x="680.935" y="411.75">Brazil</tspan></text></g><g class="legendMark"><rect x="675.935" y="428.85" width="94.535" height="13.5" fill="#fff" opacity="0"></rect><text font-size="13.50" x="680.9" y="439.7" fill="#ca2628"><tspan x="680.935" y="439.65000000000003">Botswana</tspan></text></g><g class="legendMark"><rect x="675.935" y="480.45" width="77.795" height="13.5" fill="#fff" opacity="0"></rect><text font-size="13.50" x="680.9" y="491.3" fill="#3360a9"><tspan x="680.935" y="491.25">Nigeria</tspan></text></g></g><g class="Lines"><rect x="79" y="111" width="597" height="411" fill="rgba(255,255,255,0)" opacity="0"></rect><g class="key-Argentina_0"><path stroke="#2a939b" stroke-linecap="round" d="M79 451L86 450L93 454L100 460L106 463L113 462L120 458L127 456L134 457L141 454L148 454L154 453L161 453L168 451L175 451L182 453L189 446L196 450L203 445L209 438L216 435L223 438L230 439L237 438L244 444L251 441L257 439L264 435L271 434L278 431L285 428L292 435L299 430L305 425L312 428L319 432L326 424L333 416L340 417L347 416L353 413L360 405L367 401L374 397L381 396L388 390L395 384L402 388L408 390L415 385L422 393L429 386L436 386L443 396L450 402L456 400L463 399L470 409L477 402L484 401L491 405L498 414L504 415L511 407L518 400L525 394L532 388L539 393L546 388L552 379L559 375L566 381L573 383L580 390L587 405L594 398L601 390L607 381L614 371L621 361L628 357L635 363L642 352L649 345L655 349L662 347L669 350L676 348" fill="none" stroke-width="1.5"></path></g><g class="key-Botswana_0"><path stroke="#ca2628" stroke-linecap="round" d="M230 516L237 516L244 516L251 516L257 516L264 515L271 515L278 515L285 515L292 515L299 515L305 515L312 515L319 515L326 515L333 514L340 514L347 513L353 512L360 512L367 511L374 509L381 506L388 503L395 500L402 501L408 499L415 499L422 496L429 495L436 493L443 491L450 490L456 486L463 484L470 482L477 481L484 478L491 473L498 469L504 467L511 466L518 466L525 467L532 467L539 466L546 465L552 462L559 460L566 458L573 454L580 452L587 450L594 449L601 448L607 448L614 445L621 444L628 443L635 450L642 446L649 443L655 441L662 435L669 434L676 436" fill="none" stroke-width="1.5"></path></g><g class="key-Brazil_0"><path stroke="#34983f" stroke-linecap="round" d="M79 503L86 503L93 504L100 505L106 505L113 504L120 503L127 503L134 501L141 501L148 501L154 501L161 501L168 500L175 501L182 499L189 499L196 499L203 497L209 497L216 495L223 494L230 494L237 494L244 493L251 492L257 491L264 490L271 490L278 489L285 487L292 485L299 483L305 481L312 480L319 481L326 481L333 481L340 480L347 479L353 477L360 474L367 471L374 468L381 463L388 458L395 454L402 453L408 448L415 446L422 444L429 441L436 436L443 442L450 443L456 447L463 445L470 441L477 436L484 435L491 437L498 435L504 440L511 441L518 443L525 440L532 437L539 434L546 434L552 432L559 434L566 435L573 432L580 432L587 431L594 431L601 427L607 425L614 423L621 418L628 414L635 415L642 408L649 405L655 404L662 401L669 402L676 408" fill="none" stroke-width="1.5"></path></g><g class="key-Former-Soviet-Union_0"><path stroke="#f6a324" stroke-linecap="round" d="M79 499L86 499L93 498L100 498L106 498L113 497L120 495L127 491L134 489L141 486L148 486L154 485L161 486L168 487L175 488L182 488L189 489L196 489L203 490L209 487L216 482L223 478L230 475L237 475L244 473L251 472L257 470L264 467L271 463L278 463L285 459L292 461L299 457L305 454L312 453L319 456L326 448L333 445L340 442L347 440L353 436L360 435L367 430L374 428L381 428L388 422L395 420L402 420L408 417L415 415L422 413L429 415L436 416L443 415L450 414L456 411L463 411L470 411L477 407L484 407L491 405L498 404L504 408L511 416L518 431L525 440L532 452L539 455L546 457L552 456L559 457L566 454L573 448L580 443L587 439L594 432L601 425L607 418L614 408L621 398L628 392L635 400L642 394" fill="none" stroke-width="1.5"></path></g><g class="key-Nigeria_0"><path stroke="#3360a9" stroke-linecap="round" d="M230 509L237 509L244 508L251 508L257 507L264 507L271 508L278 508L285 508L292 508L299 508L305 508L312 508L319 507L326 507L333 506L340 507L347 510L353 510L360 507L367 504L374 502L381 502L388 501L395 499L402 500L408 499L415 499L422 501L429 500L436 500L443 502L450 503L456 505L463 506L470 505L477 505L484 506L491 504L498 504L504 503L511 504L518 504L525 504L532 505L539 505L546 505L552 505L559 505L566 505L573 504L580 504L587 500L594 499L601 497L607 496L614 495L621 494L628 493L635 492L642 491L649 490L655 489L662 489L669 487L676 487" fill="none" stroke-width="1.5"></path></g><g class="key-Russian-Federation_0"><path stroke="#a652ba" stroke-linecap="round" d="M504 393L511 400L518 418L525 427L532 439L539 442L546 445L552 444L559 448L566 443L573 435L580 430L587 425L594 417L601 409L607 402L614 391L621 380L628 372L635 384L642 379L649 373L655 367L662 365L669 364L676 370" fill="none" stroke-width="1.5"></path></g><g class="key-South-Korea_0"><path stroke="#e6332e" stroke-linecap="round" d="M79 511L86 511L93 512L100 512L106 512L113 510L120 510L127 509L134 508L141 507L148 507L154 508L161 507L168 507L175 507L182 507L189 507L196 507L203 507L209 507L216 507L223 507L230 508L237 509L244 508L251 504L257 503L264 502L271 503L278 502L285 501L292 501L299 501L305 501L312 501L319 500L326 499L333 498L340 496L347 494L353 492L360 488L367 486L374 483L381 481L388 475L395 472L402 469L408 464L415 459L422 455L429 451L436 454L443 451L450 446L456 439L463 433L470 428L477 418L484 407L491 396L498 389L504 378L511 366L518 359L525 350L532 337L539 322L546 309L552 299L559 313L566 292L573 274L580 266L587 249L594 243L601 231L607 221L614 206L621 191L628 184L635 184L642 163L649 151L655 143L662 133L669 121L676 111" fill="none" stroke-width="1.5"></path></g></g></g></g><g style="fill: #777;" class="SourcesFooter"><g style="fill: #777;" class="clickable"><text font-size="12.60" x="15.0" y="567.9"><tspan x="15" y="567.88">Source: Bolt, van Zanden (2013) and 'The 2015 Total Economy Database'</tspan></text></g><text font-size="12.60" x="15.0" y="582.5"><tspan x="15" y="582.48">Note: The units of measurement is '1990 international dollar'. The chart uses ratio scale.</tspan></text><text font-size="12.60" x="775.4" y="567.9"><tspan x="775.402" y="567.88"><a style="fill: #777;" class="cclogo" href="http://creativecommons.org/licenses/by-sa/4.0/deed.en_US" target="_blank">CC BY-SA</a></tspan></text></g></g></svg>