<svg xmlns="http://www.w3.org/2000/svg" version="1.1" style="font-family: 'Helvetica Neue', Helvetica, Arial, sans-serif; font-size: 18px; background-color: white; text-rendering: optimizeLegibility; -webkit-font-smoothing: antialiased;" width="850" height="600"><g class="ChartTab"><g class="HeaderView"><g opacity="0.8" transform="translate(770, 15) scale(0.31)"><a xmlns:xlink="http://www.w3.org/1999/xlink" xlink:href="https://ourworldindata.org" target="_blank"><g><rect x="0" y="0" fill="#1B2543" width="211.2" height="130.1"/><rect x="0" y="112.2" fill="#E63912" width="211.2" height="17.9"/><g><rect x="1.2" y="12.3" fill="none" width="210.2" height="99.2"/><path fill="#FFFFFF" d="M37.8,32.2c0,12.7-7.7,19.4-17.1,19.4c-9.7,0-16.6-7.5-16.6-18.7c0-11.7,7.3-19.3,17.1-19.3 C31.3,13.7,37.8,21.3,37.8,32.2z M9.2,32.8c0,7.9,4.3,14.9,11.8,14.9c7.5,0,11.8-6.9,11.8-15.3c0-7.3-3.8-14.9-11.8-14.9 C13.1,17.5,9.2,24.8,9.2,32.8z"/><path fill="#FFFFFF" d="M62.7,43.8c0,2.7,0.1,5.1,0.2,7.2h-4.3l-0.3-4.3h-0.1c-1.3,2.1-4,4.9-8.8,4.9c-4.2,0-9.1-2.3-9.1-11.6 V24.6h4.8v14.6c0,5,1.5,8.4,5.9,8.4c3.2,0,5.5-2.2,6.3-4.4c0.3-0.7,0.4-1.6,0.4-2.5V24.6h4.8V43.8z"/><path fill="#FFFFFF" d="M67.3,32.8c0-3.1-0.1-5.8-0.2-8.2h4.2l0.2,5.2h0.2c1.2-3.5,4.1-5.8,7.3-5.8c0.5,0,0.9,0.1,1.4,0.2v4.5 c-0.5-0.1-1-0.2-1.6-0.2c-3.4,0-5.8,2.6-6.5,6.2c-0.1,0.7-0.2,1.4-0.2,2.2V51h-4.8V32.8z"/><path fill="#FFFFFF" d="M95.4,51l-9.4-36.8h5l4.4,18.6c1.1,4.6,2.1,9.2,2.7,12.7h0.1c0.6-3.7,1.8-8,3-12.8l4.9-18.5h5l4.5,18.7 c1,4.4,2,8.7,2.6,12.6h0.1c0.8-4,1.8-8.1,3-12.7l4.9-18.5h4.9L120.6,51h-5L111,31.9c-1.1-4.7-1.9-8.3-2.4-12h-0.1 c-0.7,3.7-1.5,7.3-2.8,12L100.4,51H95.4z"/><path fill="#FFFFFF" d="M154.9,37.6c0,9.8-6.8,14-13.2,14c-7.2,0-12.7-5.2-12.7-13.6c0-8.8,5.8-14,13.1-14 C149.8,24,154.9,29.5,154.9,37.6z M133.9,37.9c0,5.8,3.3,10.1,8,10.1c4.6,0,8-4.3,8-10.3c0-4.5-2.2-10.1-7.9-10.1 C136.3,27.6,133.9,32.8,133.9,37.9z"/><path fill="#FFFFFF" d="M158.2,32.8c0-3.1-0.1-5.8-0.2-8.2h4.2l0.2,5.2h0.2c1.2-3.5,4.1-5.8,7.3-5.8c0.5,0,0.9,0.1,1.4,0.2v4.5 c-0.5-0.1-1-0.2-1.6-0.2c-3.4,0-5.8,2.6-6.5,6.2c-0.1,0.7-0.2,1.4-0.2,2.2V51h-4.8V32.8z"/><path fill="#FFFFFF" d="M173.5,12.3h4.8V51h-4.8V12.3z"/><path fill="#FFFFFF" d="M206.5,12.3v31.9c0,2.3,0.1,5,0.2,6.8h-4.3l-0.2-4.6H202c-1.5,2.9-4.7,5.2-9,5.2 c-6.4,0-11.3-5.4-11.3-13.4c-0.1-8.8,5.4-14.2,11.9-14.2c4,0,6.8,1.9,8,4h0.1V12.3H206.5z M201.7,35.4c0-0.6-0.1-1.4-0.2-2 c-0.7-3.1-3.3-5.6-6.9-5.6c-5,0-7.9,4.4-7.9,10.2c0,5.3,2.6,9.8,7.8,9.8c3.2,0,6.2-2.1,7.1-5.7c0.2-0.7,0.2-1.3,0.2-2.1V35.4z"/><path fill="#FFFFFF" d="M42.8,64c0.1,1.6-1.1,2.9-3.1,2.9c-1.7,0-2.9-1.3-2.9-2.9c0-1.7,1.3-3,3-3C41.7,61,42.8,62.3,42.8,64z M37.4,97.8V71.4h4.8v26.4H37.4z"/><path fill="#FFFFFF" d="M47.5,78.6c0-2.7-0.1-5-0.2-7.1h4.3l0.3,4.4h0.1c1.3-2.5,4.4-5,8.8-5c3.7,0,9.4,2.2,9.4,11.2v15.8h-4.8 V82.6c0-4.3-1.6-7.8-6.1-7.8c-3.2,0-5.6,2.2-6.5,4.9c-0.2,0.6-0.3,1.4-0.3,2.2v15.9h-4.8V78.6z"/><path fill="#FFFFFF" d="M84,61.6c2.9-0.4,6.3-0.8,10.1-0.8c6.8,0,11.7,1.6,14.9,4.6c3.3,3,5.2,7.3,5.2,13.2c0,6-1.9,10.9-5.3,14.3 c-3.4,3.4-9.1,5.3-16.3,5.3c-3.4,0-6.2-0.2-8.6-0.4V61.6z M88.8,94.1c1.2,0.2,3,0.3,4.8,0.3c10.2,0,15.7-5.7,15.7-15.6 c0.1-8.7-4.9-14.2-14.9-14.2c-2.5,0-4.3,0.2-5.6,0.5V94.1z"/><path fill="#FFFFFF" d="M132.1,97.8l-0.4-3.3h-0.2c-1.5,2.1-4.3,3.9-8.1,3.9c-5.4,0-8.1-3.8-8.1-7.6c0-6.4,5.7-9.9,15.9-9.8v-0.5 c0-2.2-0.6-6.1-6-6.1c-2.5,0-5,0.8-6.9,2l-1.1-3.2c2.2-1.4,5.4-2.3,8.7-2.3c8.1,0,10.1,5.5,10.1,10.8v9.9c0,2.3,0.1,4.5,0.4,6.3 H132.1z M131.4,84.4c-5.3-0.1-11.2,0.8-11.2,5.9c0,3.1,2.1,4.6,4.5,4.6c3.4,0,5.6-2.2,6.4-4.4c0.2-0.5,0.3-1,0.3-1.5V84.4z"/><path fill="#FFFFFF" d="M146.6,63.9v7.6h6.9v3.7h-6.9v14.2c0,3.3,0.9,5.1,3.6,5.1c1.3,0,2.2-0.2,2.8-0.3l0.2,3.6 c-0.9,0.4-2.4,0.7-4.3,0.7c-2.2,0-4-0.7-5.2-2c-1.4-1.4-1.9-3.8-1.9-6.9V75.1h-4.1v-3.7h4.1v-6.3L146.6,63.9z"/><path fill="#FFFFFF" d="M171.4,97.8l-0.4-3.3h-0.2c-1.5,2.1-4.3,3.9-8.1,3.9c-5.4,0-8.1-3.8-8.1-7.6c0-6.4,5.7-9.9,15.9-9.8v-0.5 c0-2.2-0.6-6.1-6-6.1c-2.5,0-5,0.8-6.9,2l-1.1-3.2c2.2-1.4,5.4-2.3,8.7-2.3c8.1,0,10.1,5.5,10.1,10.8v9.9c0,2.3,0.1,4.5,0.4,6.3 H171.4z M170.7,84.4c-5.3-0.1-11.2,0.8-11.2,5.9c0,3.1,2.1,4.6,4.5,4.6c3.4,0,5.6-2.2,6.4-4.4c0.2-0.5,0.3-1,0.3-1.5V84.4z"/></g></g></a></g><a href="https://ourworldindata.org/grapher/domestic-cereal-distribution-to-food-animal-feed-and-other-uses" target="_blank"><text font-size="27.00" x="15.0" y="36.6" fill="#555"><tspan x="15" y="36.6">Cereal distribution to food, animal feed and other uses, World</tspan></text></a><text font-size="14.40" x="15.0" y="55.5" fill="#666"><tspan x="15" y="55.519999999999996">Cereal allocation to food, animal feed, other uses, seed and losses/waste, measured in thousands of tonnes per</tspan><tspan x="15" y="71.36">year. This is based on domestic supply quantity for countries after correction for imports, exports and stocks. 'Other</tspan><tspan x="15" y="87.2">uses' relates to industrial uses of cereals, such as biofuel production.</tspan></text></g><g class="StackedArea"><defs><clipPath id="boundsClip-63"><rect x="93.062" y="0" width="820" height="894.2"></rect></clipPath></defs><g class="AxisBoxView"><g class="HorizontalAxis"><text x="93.1" y="556.5" fill="#666" text-anchor="middle" font-size="16.2">1961</text><text x="205.8" y="556.5" fill="#666" text-anchor="middle" font-size="16.2">1970</text><text x="331" y="556.5" fill="#666" text-anchor="middle" font-size="16.2">1980</text><text x="456.3" y="556.5" fill="#666" text-anchor="middle" font-size="16.2">1990</text><text x="581.5" y="556.5" fill="#666" text-anchor="middle" font-size="16.2">2000</text><text x="744.3" y="556.5" fill="#666" text-anchor="middle" font-size="16.2">2013</text></g><g class="VerticalAxis"><text x="88.06" y="535.3" fill="#666" dominant-baseline="middle" text-anchor="end" font-size="16.2">0</text><text x="88.06" y="443.2" fill="#666" dominant-baseline="middle" text-anchor="end" font-size="16.2">500,000</text><text x="88.06" y="351.2" fill="#666" dominant-baseline="middle" text-anchor="end" font-size="16.2">1 million</text><text x="88.06" y="259.1" fill="#666" dominant-baseline="middle" text-anchor="end" font-size="16.2">1.5 million</text><text x="88.06" y="167" fill="#666" dominant-baseline="middle" text-anchor="end" font-size="16.2">2 million</text></g><g class="AxisGridLines"><line x1="93.06" y1="535.3" x2="744.30" y2="535.3" stroke="#ccc"></line><line x1="93.06" y1="443.2" x2="744.30" y2="443.2" stroke="#ddd" stroke-dasharray="3,2"></line><line x1="93.06" y1="351.2" x2="744.30" y2="351.2" stroke="#ddd" stroke-dasharray="3,2"></line><line x1="93.06" y1="259.1" x2="744.30" y2="259.1" stroke="#ddd" stroke-dasharray="3,2"></line><line x1="93.06" y1="167" x2="744.30" y2="167" stroke="#ddd" stroke-dasharray="3,2"></line></g><g class="AxisGridLines"><line x1="205.8" y1="535.30" x2="205.8" y2="109.40" stroke="#ddd" stroke-dasharray="3,2"></line><line x1="331" y1="535.30" x2="331" y2="109.40" stroke="#ddd" stroke-dasharray="3,2"></line><line x1="456.3" y1="535.30" x2="456.3" y2="109.40" stroke="#ddd" stroke-dasharray="3,2"></line><line x1="581.5" y1="535.30" x2="581.5" y2="109.40" stroke="#ddd" stroke-dasharray="3,2"></line><line x1="706.7" y1="535.30" x2="706.7" y2="109.40" stroke="#ddd" stroke-dasharray="3,2"></line></g></g><g clip-path="url(#boundsClip-63)"><g class="HeightedLegend clickable"><g class="legendMark"><rect x="749.296" y="108.5" width="48.84" height="14.4" fill="#fff" opacity="0"></rect><rect x="749.296" y="114.45" width="10" height="2.5" fill="#34983f"></rect><text font-size="14.40" x="764.3" y="120.0" fill="#333"><tspan x="764.296" y="120.02000000000001">Seed</tspan></text></g><g class="legendMark"><rect x="749.296" y="124.7" width="60.79200000000001" height="14.4" fill="#fff" opacity="0"></rect><rect x="749.296" y="130.65" width="10" height="2.5" fill="#9ecc8a"></rect><text font-size="14.40" x="764.3" y="136.2" fill="#333"><tspan x="764.296" y="136.22">Losses</tspan></text></g><g class="legendMark"><rect x="749.296" y="156.20000000000002" width="85.70400000000001" height="14.4" fill="#fff" opacity="0"></rect><rect x="749.296" y="162.15" width="10" height="2.5" fill="#ffd53e"></rect><text font-size="14.40" x="764.3" y="167.7" fill="#333"><tspan x="764.296" y="167.72000000000003">Other uses</tspan></text></g><g class="legendMark"><rect x="749.296" y="258.2" width="47.976000000000006" height="14.4" fill="#fff" opacity="0"></rect><rect x="749.296" y="264.15" width="10" height="2.5" fill="#ca2628"></rect><text font-size="14.40" x="764.3" y="269.7" fill="#333"><tspan x="764.296" y="269.71999999999997">Feed</tspan></text></g><g class="legendMark"><rect x="749.296" y="433.40000000000003" width="47.976000000000006" height="14.4" fill="#fff" opacity="0"></rect><rect x="749.296" y="439.35" width="10" height="2.5" fill="#3360a9"></rect><text font-size="14.40" x="764.3" y="444.9" fill="#333"><tspan x="764.296" y="444.92">Food</tspan></text></g></g><g class="Areas"><rect x="93.062" y="109.4" width="651.234" height="425.9000000000001" opacity="0" fill="rgba(255,255,255,0)"></rect><path stroke-linecap="round" d="M93.1 463L105.6 459.7L118.1 457.9L130.6 454.9L143.2 453.5L155.7 451.2L168.2 449.4L180.7 448.4L193.3 446.3L205.8 442.4L218.3 442.3L230.8 440.6L243.3 436.6L255.9 435.9L268.4 432.5L280.9 432.3L293.4 429.1L306 424L318.5 422.3L331 419.6L343.5 416.7L356.1 413L368.6 407L381.1 405.2L393.6 403.1L406.2 400.6L418.7 397.4L431.2 393.7L443.7 390.8L456.3 390.6L468.8 388.9L481.3 385.6L493.8 383.4L506.3 381L518.9 378.4L531.4 376L543.9 375L556.4 372.3L569 370.6L581.5 369.5L594 368.5L606.5 368L619.1 366.7L631.6 365.1L644.1 363.3L656.6 360.9L669.2 359L681.7 356.2L694.2 355L706.7 351.5L719.2 349.6L731.8 348.9L744.3 345.8L744.296 535.3000000000001L93.062 535.3000000000001" fill="#3360a9" fill-opacity="0.7" class="World_4-area"></path><path stroke-linecap="round" d="M93.1 409.7L105.6 404L118.1 400.7L130.6 395.1L143.2 387L155.7 381.9L168.2 377.4L180.7 372.4L193.3 365.3L205.8 358.4L218.3 353.2L230.8 347.8L243.3 341.6L255.9 345.7L268.4 340.9L280.9 337.1L293.4 328L306 317.3L318.5 311.7L331 310.2L343.5 306L356.1 299.5L368.6 295.2L381.1 288L393.6 286.8L406.2 279.3L418.7 276.7L431.2 280L443.7 273.7L456.3 270.1L468.8 270.5L481.3 263.8L493.8 263.6L506.3 258.7L518.9 259.6L531.4 251.8L543.9 249.6L556.4 247.8L569 246L581.5 240.8L594 235.3L606.5 236.6L619.1 234.9L631.6 225.6L644.1 224.8L656.6 225.2L669.2 220.1L681.7 206.7L694.2 214.3L706.7 211.9L719.2 201.9L731.8 202.4L744.3 185L744.3 345.8L731.8 348.9L719.2 349.6L706.7 351.5L694.2 355L681.7 356.2L669.2 359L656.6 360.9L644.1 363.3L631.6 365.1L619.1 366.7L606.5 368L594 368.5L581.5 369.5L569 370.6L556.4 372.3L543.9 375L531.4 376L518.9 378.4L506.3 381L493.8 383.4L481.3 385.6L468.8 388.9L456.3 390.6L443.7 390.8L431.2 393.7L418.7 397.4L406.2 400.6L393.6 403.1L381.1 405.2L368.6 407L356.1 413L343.5 416.7L331 419.6L318.5 422.3L306 424L293.4 429.1L280.9 432.3L268.4 432.5L255.9 435.9L243.3 436.6L230.8 440.6L218.3 442.3L205.8 442.4L193.3 446.3L180.7 448.4L168.2 449.4L155.7 451.2L143.2 453.5L130.6 454.9L118.1 457.9L105.6 459.7L93.1 463" fill="#ca2628" fill-opacity="0.7" class="World_3-area"></path><path stroke-linecap="round" d="M93.1 408L105.6 402.2L118.1 398.6L130.6 392.9L143.2 383.3L155.7 379.7L168.2 375.2L180.7 370.3L193.3 363L205.8 356.1L218.3 350.8L230.8 345.5L243.3 339.3L255.9 343.2L268.4 338.3L280.9 334.4L293.4 325.3L306 314.3L318.5 308.7L331 307.1L343.5 302.6L356.1 295.6L368.6 290.9L381.1 283.3L393.6 281.7L406.2 274.1L418.7 269.8L431.2 273.2L443.7 265.4L456.3 259.7L468.8 261.5L481.3 256L493.8 255.7L506.3 250.9L518.9 250.2L531.4 241.5L543.9 240L556.4 237.7L569 235.4L581.5 229.6L594 223.6L606.5 222L619.1 218.5L631.6 207.3L644.1 204.2L656.6 201.8L669.2 191.6L681.7 174.2L694.2 176.3L706.7 171.3L719.2 160.4L731.8 162L744.3 141.7L744.3 185L731.8 202.4L719.2 201.9L706.7 211.9L694.2 214.3L681.7 206.7L669.2 220.1L656.6 225.2L644.1 224.8L631.6 225.6L619.1 234.9L606.5 236.6L594 235.3L581.5 240.8L569 246L556.4 247.8L543.9 249.6L531.4 251.8L518.9 259.6L506.3 258.7L493.8 263.6L481.3 263.8L468.8 270.5L456.3 270.1L443.7 273.7L431.2 280L418.7 276.7L406.2 279.3L393.6 286.8L381.1 288L368.6 295.2L356.1 299.5L343.5 306L331 310.2L318.5 311.7L306 317.3L293.4 328L280.9 337.1L268.4 340.9L255.9 345.7L243.3 341.6L230.8 347.8L218.3 353.2L205.8 358.4L193.3 365.3L180.7 372.4L168.2 377.4L155.7 381.9L143.2 387L130.6 395.1L118.1 400.7L105.6 404L93.1 409.7" fill="#ffd53e" fill-opacity="0.7" class="World_2-area"></path><path stroke-linecap="round" d="M93.1 402.1L105.6 396L118.1 392.2L130.6 385.5L143.2 376.4L155.7 372.5L168.2 367.9L180.7 362.3L193.3 354.3L205.8 346.8L218.3 342.5L230.8 336.6L243.3 328.9L255.9 333.2L268.4 328.9L280.9 323.3L293.4 314.1L306 302.3L318.5 297L331 294L343.5 290.5L356.1 282.8L368.6 277.6L381.1 269.7L393.6 267.7L406.2 259.7L418.7 254.7L431.2 258.6L443.7 249.9L456.3 243.3L468.8 245.4L481.3 241.6L493.8 241.3L506.3 236.7L518.9 235.7L531.4 226.7L543.9 224.9L556.4 222.5L569 220.2L581.5 214.7L594 208.4L606.5 207.1L619.1 203.5L631.6 192.1L644.1 189.1L656.6 186L669.2 175.5L681.7 156.8L694.2 158.8L706.7 153.2L719.2 141.9L731.8 143L744.3 122L744.3 141.7L731.8 162L719.2 160.4L706.7 171.3L694.2 176.3L681.7 174.2L669.2 191.6L656.6 201.8L644.1 204.2L631.6 207.3L619.1 218.5L606.5 222L594 223.6L581.5 229.6L569 235.4L556.4 237.7L543.9 240L531.4 241.5L518.9 250.2L506.3 250.9L493.8 255.7L481.3 256L468.8 261.5L456.3 259.7L443.7 265.4L431.2 273.2L418.7 269.8L406.2 274.1L393.6 281.7L381.1 283.3L368.6 290.9L356.1 295.6L343.5 302.6L331 307.1L318.5 308.7L306 314.3L293.4 325.3L280.9 334.4L268.4 338.3L255.9 343.2L243.3 339.3L230.8 345.5L218.3 350.8L205.8 356.1L193.3 363L180.7 370.3L168.2 375.2L155.7 379.7L143.2 383.3L130.6 392.9L118.1 398.6L105.6 402.2L93.1 408" fill="#9ecc8a" fill-opacity="0.7" class="World_1-area"></path><path stroke-linecap="round" d="M93.1 390.8L105.6 384.4L118.1 380.5L130.6 373.8L143.2 364.8L155.7 360.9L168.2 356.1L180.7 350.4L193.3 342.5L205.8 334.8L218.3 330.2L230.8 324.2L243.3 316.4L255.9 320.7L268.4 315.5L280.9 310L293.4 300.6L306 289L318.5 283.6L331 280.6L343.5 277L356.1 269.4L368.6 263.9L381.1 256.1L393.6 254.1L406.2 246.3L418.7 241.5L431.2 245L443.7 236.1L456.3 230.5L468.8 232.6L481.3 228.2L493.8 228.2L506.3 223.3L518.9 222.1L531.4 213L543.9 211.8L556.4 210L569 207.7L581.5 202.4L594 195.9L606.5 195.1L619.1 191.1L631.6 179.4L644.1 176.7L656.6 173.6L669.2 162.9L681.7 144.3L694.2 146.4L706.7 140.8L719.2 129.4L731.8 130.5L744.3 109.4L744.3 122L731.8 143L719.2 141.9L706.7 153.2L694.2 158.8L681.7 156.8L669.2 175.5L656.6 186L644.1 189.1L631.6 192.1L619.1 203.5L606.5 207.1L594 208.4L581.5 214.7L569 220.2L556.4 222.5L543.9 224.9L531.4 226.7L518.9 235.7L506.3 236.7L493.8 241.3L481.3 241.6L468.8 245.4L456.3 243.3L443.7 249.9L431.2 258.6L418.7 254.7L406.2 259.7L393.6 267.7L381.1 269.7L368.6 277.6L356.1 282.8L343.5 290.5L331 294L318.5 297L306 302.3L293.4 314.1L280.9 323.3L268.4 328.9L255.9 333.2L243.3 328.9L230.8 336.6L218.3 342.5L205.8 346.8L193.3 354.3L180.7 362.3L168.2 367.9L155.7 372.5L143.2 376.4L130.6 385.5L118.1 392.2L105.6 396L93.1 402.1" fill="#34983f" fill-opacity="0.7" class="World_0-area"></path><path stroke-linecap="round" d="M93.1 463L105.6 459.7L118.1 457.9L130.6 454.9L143.2 453.5L155.7 451.2L168.2 449.4L180.7 448.4L193.3 446.3L205.8 442.4L218.3 442.3L230.8 440.6L243.3 436.6L255.9 435.9L268.4 432.5L280.9 432.3L293.4 429.1L306 424L318.5 422.3L331 419.6L343.5 416.7L356.1 413L368.6 407L381.1 405.2L393.6 403.1L406.2 400.6L418.7 397.4L431.2 393.7L443.7 390.8L456.3 390.6L468.8 388.9L481.3 385.6L493.8 383.4L506.3 381L518.9 378.4L531.4 376L543.9 375L556.4 372.3L569 370.6L581.5 369.5L594 368.5L606.5 368L619.1 366.7L631.6 365.1L644.1 363.3L656.6 360.9L669.2 359L681.7 356.2L694.2 355L706.7 351.5L719.2 349.6L731.8 348.9L744.3 345.8" stroke="rgb(43, 80, 141)" stroke-opacity="0.7" stroke-width="0.5" fill="none" class="World_4-border"></path><path stroke-linecap="round" d="M93.1 409.7L105.6 404L118.1 400.7L130.6 395.1L143.2 387L155.7 381.9L168.2 377.4L180.7 372.4L193.3 365.3L205.8 358.4L218.3 353.2L230.8 347.8L243.3 341.6L255.9 345.7L268.4 340.9L280.9 337.1L293.4 328L306 317.3L318.5 311.7L331 310.2L343.5 306L356.1 299.5L368.6 295.2L381.1 288L393.6 286.8L406.2 279.3L418.7 276.7L431.2 280L443.7 273.7L456.3 270.1L468.8 270.5L481.3 263.8L493.8 263.6L506.3 258.7L518.9 259.6L531.4 251.8L543.9 249.6L556.4 247.8L569 246L581.5 240.8L594 235.3L606.5 236.6L619.1 234.9L631.6 225.6L644.1 224.8L656.6 225.2L669.2 220.1L681.7 206.7L694.2 214.3L706.7 211.9L719.2 201.9L731.8 202.4L744.3 185" stroke="rgb(169, 32, 33)" stroke-opacity="0.7" stroke-width="0.5" fill="none" class="World_3-border"></path><path stroke-linecap="round" d="M93.1 408L105.6 402.2L118.1 398.6L130.6 392.9L143.2 383.3L155.7 379.7L168.2 375.2L180.7 370.3L193.3 363L205.8 356.1L218.3 350.8L230.8 345.5L243.3 339.3L255.9 343.2L268.4 338.3L280.9 334.4L293.4 325.3L306 314.3L318.5 308.7L331 307.1L343.5 302.6L356.1 295.6L368.6 290.9L381.1 283.3L393.6 281.7L406.2 274.1L418.7 269.8L431.2 273.2L443.7 265.4L456.3 259.7L468.8 261.5L481.3 256L493.8 255.7L506.3 250.9L518.9 250.2L531.4 241.5L543.9 240L556.4 237.7L569 235.4L581.5 229.6L594 223.6L606.5 222L619.1 218.5L631.6 207.3L644.1 204.2L656.6 201.8L669.2 191.6L681.7 174.2L694.2 176.3L706.7 171.3L719.2 160.4L731.8 162L744.3 141.7" stroke="rgb(213, 178, 52)" stroke-opacity="0.7" stroke-width="0.5" fill="none" class="World_2-border"></path><path stroke-linecap="round" d="M93.1 402.1L105.6 396L118.1 392.2L130.6 385.5L143.2 376.4L155.7 372.5L168.2 367.9L180.7 362.3L193.3 354.3L205.8 346.8L218.3 342.5L230.8 336.6L243.3 328.9L255.9 333.2L268.4 328.9L280.9 323.3L293.4 314.1L306 302.3L318.5 297L331 294L343.5 290.5L356.1 282.8L368.6 277.6L381.1 269.7L393.6 267.7L406.2 259.7L418.7 254.7L431.2 258.6L443.7 249.9L456.3 243.3L468.8 245.4L481.3 241.6L493.8 241.3L506.3 236.7L518.9 235.7L531.4 226.7L543.9 224.9L556.4 222.5L569 220.2L581.5 214.7L594 208.4L606.5 207.1L619.1 203.5L631.6 192.1L644.1 189.1L656.6 186L669.2 175.5L681.7 156.8L694.2 158.8L706.7 153.2L719.2 141.9L731.8 143L744.3 122" stroke="rgb(132, 171, 115)" stroke-opacity="0.7" stroke-width="0.5" fill="none" class="World_1-border"></path><path stroke-linecap="round" d="M93.1 390.8L105.6 384.4L118.1 380.5L130.6 373.8L143.2 364.8L155.7 360.9L168.2 356.1L180.7 350.4L193.3 342.5L205.8 334.8L218.3 330.2L230.8 324.2L243.3 316.4L255.9 320.7L268.4 315.5L280.9 310L293.4 300.6L306 289L318.5 283.6L331 280.6L343.5 277L356.1 269.4L368.6 263.9L381.1 256.1L393.6 254.1L406.2 246.3L418.7 241.5L431.2 245L443.7 236.1L456.3 230.5L468.8 232.6L481.3 228.2L493.8 228.2L506.3 223.3L518.9 222.1L531.4 213L543.9 211.8L556.4 210L569 207.7L581.5 202.4L594 195.9L606.5 195.1L619.1 191.1L631.6 179.4L644.1 176.7L656.6 173.6L669.2 162.9L681.7 144.3L694.2 146.4L706.7 140.8L719.2 129.4L731.8 130.5L744.3 109.4" stroke="rgb(44, 127, 53)" stroke-opacity="0.7" stroke-width="0.5" fill="none" class="World_0-border"></path></g></g></g><g style="fill: #777;" class="SourcesFooter"><g style="fill: #777;" class="clickable"><text font-size="12.60" x="15.0" y="581.6"><tspan x="15" y="581.58">Source: UN Food and Agricultural Organization (FAO)</tspan></text></g><text font-size="12.60" x="649.0" y="581.6"><tspan x="649.024" y="581.58"><a target='_blank' style='fill: #777;' href='https://ourworldindata.org'>OurWorldInData.org</a> • <a style="fill: #777;" href="http://creativecommons.org/licenses/by-sa/4.0/deed.en_US" target="_blank">CC BY-SA</a></tspan></text></g></g></svg>