<svg xmlns="http://www.w3.org/2000/svg" version="1.1" style="font-family: 'Helvetica Neue', Helvetica, Arial, sans-serif; font-size: 18px; background-color: white; text-rendering: optimizeLegibility; -webkit-font-smoothing: antialiased;" width="850" height="600"><g class="ChartTab"><g class="HeaderView"><g opacity="0.8" transform="translate(778, 15) scale(0.27)"><a xmlns:xlink="http://www.w3.org/1999/xlink" xlink:href="https://ourworldindata.org" target="_blank"><g><rect x="0" y="0" fill="#1B2543" width="211.2" height="130.1"/><rect x="0" y="112.2" fill="#E63912" width="211.2" height="17.9"/><g><rect x="1.2" y="12.3" fill="none" width="210.2" height="99.2"/><path fill="#FFFFFF" d="M37.8,32.2c0,12.7-7.7,19.4-17.1,19.4c-9.7,0-16.6-7.5-16.6-18.7c0-11.7,7.3-19.3,17.1-19.3 C31.3,13.7,37.8,21.3,37.8,32.2z M9.2,32.8c0,7.9,4.3,14.9,11.8,14.9c7.5,0,11.8-6.9,11.8-15.3c0-7.3-3.8-14.9-11.8-14.9 C13.1,17.5,9.2,24.8,9.2,32.8z"/><path fill="#FFFFFF" d="M62.7,43.8c0,2.7,0.1,5.1,0.2,7.2h-4.3l-0.3-4.3h-0.1c-1.3,2.1-4,4.9-8.8,4.9c-4.2,0-9.1-2.3-9.1-11.6 V24.6h4.8v14.6c0,5,1.5,8.4,5.9,8.4c3.2,0,5.5-2.2,6.3-4.4c0.3-0.7,0.4-1.6,0.4-2.5V24.6h4.8V43.8z"/><path fill="#FFFFFF" d="M67.3,32.8c0-3.1-0.1-5.8-0.2-8.2h4.2l0.2,5.2h0.2c1.2-3.5,4.1-5.8,7.3-5.8c0.5,0,0.9,0.1,1.4,0.2v4.5 c-0.5-0.1-1-0.2-1.6-0.2c-3.4,0-5.8,2.6-6.5,6.2c-0.1,0.7-0.2,1.4-0.2,2.2V51h-4.8V32.8z"/><path fill="#FFFFFF" d="M95.4,51l-9.4-36.8h5l4.4,18.6c1.1,4.6,2.1,9.2,2.7,12.7h0.1c0.6-3.7,1.8-8,3-12.8l4.9-18.5h5l4.5,18.7 c1,4.4,2,8.7,2.6,12.6h0.1c0.8-4,1.8-8.1,3-12.7l4.9-18.5h4.9L120.6,51h-5L111,31.9c-1.1-4.7-1.9-8.3-2.4-12h-0.1 c-0.7,3.7-1.5,7.3-2.8,12L100.4,51H95.4z"/><path fill="#FFFFFF" d="M154.9,37.6c0,9.8-6.8,14-13.2,14c-7.2,0-12.7-5.2-12.7-13.6c0-8.8,5.8-14,13.1-14 C149.8,24,154.9,29.5,154.9,37.6z M133.9,37.9c0,5.8,3.3,10.1,8,10.1c4.6,0,8-4.3,8-10.3c0-4.5-2.2-10.1-7.9-10.1 C136.3,27.6,133.9,32.8,133.9,37.9z"/><path fill="#FFFFFF" d="M158.2,32.8c0-3.1-0.1-5.8-0.2-8.2h4.2l0.2,5.2h0.2c1.2-3.5,4.1-5.8,7.3-5.8c0.5,0,0.9,0.1,1.4,0.2v4.5 c-0.5-0.1-1-0.2-1.6-0.2c-3.4,0-5.8,2.6-6.5,6.2c-0.1,0.7-0.2,1.4-0.2,2.2V51h-4.8V32.8z"/><path fill="#FFFFFF" d="M173.5,12.3h4.8V51h-4.8V12.3z"/><path fill="#FFFFFF" d="M206.5,12.3v31.9c0,2.3,0.1,5,0.2,6.8h-4.3l-0.2-4.6H202c-1.5,2.9-4.7,5.2-9,5.2 c-6.4,0-11.3-5.4-11.3-13.4c-0.1-8.8,5.4-14.2,11.9-14.2c4,0,6.8,1.9,8,4h0.1V12.3H206.5z M201.7,35.4c0-0.6-0.1-1.4-0.2-2 c-0.7-3.1-3.3-5.6-6.9-5.6c-5,0-7.9,4.4-7.9,10.2c0,5.3,2.6,9.8,7.8,9.8c3.2,0,6.2-2.1,7.1-5.7c0.2-0.7,0.2-1.3,0.2-2.1V35.4z"/><path fill="#FFFFFF" d="M42.8,64c0.1,1.6-1.1,2.9-3.1,2.9c-1.7,0-2.9-1.3-2.9-2.9c0-1.7,1.3-3,3-3C41.7,61,42.8,62.3,42.8,64z M37.4,97.8V71.4h4.8v26.4H37.4z"/><path fill="#FFFFFF" d="M47.5,78.6c0-2.7-0.1-5-0.2-7.1h4.3l0.3,4.4h0.1c1.3-2.5,4.4-5,8.8-5c3.7,0,9.4,2.2,9.4,11.2v15.8h-4.8 V82.6c0-4.3-1.6-7.8-6.1-7.8c-3.2,0-5.6,2.2-6.5,4.9c-0.2,0.6-0.3,1.4-0.3,2.2v15.9h-4.8V78.6z"/><path fill="#FFFFFF" d="M84,61.6c2.9-0.4,6.3-0.8,10.1-0.8c6.8,0,11.7,1.6,14.9,4.6c3.3,3,5.2,7.3,5.2,13.2c0,6-1.9,10.9-5.3,14.3 c-3.4,3.4-9.1,5.3-16.3,5.3c-3.4,0-6.2-0.2-8.6-0.4V61.6z M88.8,94.1c1.2,0.2,3,0.3,4.8,0.3c10.2,0,15.7-5.7,15.7-15.6 c0.1-8.7-4.9-14.2-14.9-14.2c-2.5,0-4.3,0.2-5.6,0.5V94.1z"/><path fill="#FFFFFF" d="M132.1,97.8l-0.4-3.3h-0.2c-1.5,2.1-4.3,3.9-8.1,3.9c-5.4,0-8.1-3.8-8.1-7.6c0-6.4,5.7-9.9,15.9-9.8v-0.5 c0-2.2-0.6-6.1-6-6.1c-2.5,0-5,0.8-6.9,2l-1.1-3.2c2.2-1.4,5.4-2.3,8.7-2.3c8.1,0,10.1,5.5,10.1,10.8v9.9c0,2.3,0.1,4.5,0.4,6.3 H132.1z M131.4,84.4c-5.3-0.1-11.2,0.8-11.2,5.9c0,3.1,2.1,4.6,4.5,4.6c3.4,0,5.6-2.2,6.4-4.4c0.2-0.5,0.3-1,0.3-1.5V84.4z"/><path fill="#FFFFFF" d="M146.6,63.9v7.6h6.9v3.7h-6.9v14.2c0,3.3,0.9,5.1,3.6,5.1c1.3,0,2.2-0.2,2.8-0.3l0.2,3.6 c-0.9,0.4-2.4,0.7-4.3,0.7c-2.2,0-4-0.7-5.2-2c-1.4-1.4-1.9-3.8-1.9-6.9V75.1h-4.1v-3.7h4.1v-6.3L146.6,63.9z"/><path fill="#FFFFFF" d="M171.4,97.8l-0.4-3.3h-0.2c-1.5,2.1-4.3,3.9-8.1,3.9c-5.4,0-8.1-3.8-8.1-7.6c0-6.4,5.7-9.9,15.9-9.8v-0.5 c0-2.2-0.6-6.1-6-6.1c-2.5,0-5,0.8-6.9,2l-1.1-3.2c2.2-1.4,5.4-2.3,8.7-2.3c8.1,0,10.1,5.5,10.1,10.8v9.9c0,2.3,0.1,4.5,0.4,6.3 H171.4z M170.7,84.4c-5.3-0.1-11.2,0.8-11.2,5.9c0,3.1,2.1,4.6,4.5,4.6c3.4,0,5.6-2.2,6.4-4.4c0.2-0.5,0.3-1,0.3-1.5V84.4z"/></g></g></a></g><a href="https://ourworldindata.org/grapher/employment-rates-with-tertiary-vs-below-upper-secondary-education" target="_blank"><text font-size="25.20" x="15.0" y="35.2" fill="#555"><tspan x="15" y="35.160000000000004">Employment rates of 25-34 year-olds by education level</tspan></text></a></g><g><g class="AxisBoxView"><g class="HorizontalAxis"><text font-size="12.60" x="194.6" y="554.0"><tspan x="194.585" y="553.98">Employment rate, workers aged 25-34 with tertiary education</tspan></text><text x="84.2" y="533.9" fill="#666" text-anchor="middle" font-size="16.2">30%</text><text x="174.3" y="533.9" fill="#666" text-anchor="middle" font-size="16.2">40%</text><text x="264.5" y="533.9" fill="#666" text-anchor="middle" font-size="16.2">50%</text><text x="354.6" y="533.9" fill="#666" text-anchor="middle" font-size="16.2">60%</text><text x="444.7" y="533.9" fill="#666" text-anchor="middle" font-size="16.2">70%</text><text x="534.8" y="533.9" fill="#666" text-anchor="middle" font-size="16.2">80%</text><text x="624.9" y="533.9" fill="#666" text-anchor="middle" font-size="16.2">90%</text><text x="715" y="533.9" fill="#666" text-anchor="middle" font-size="16.2">100%</text></g><g class="VerticalAxis"><text font-size="12.60" x="-509.7" y="25.1" transform="rotate(-90)"><tspan x="-509.68399999999997" y="25.080000000000002">Employment rate, workers aged 25-34 with less than upper-secondary</tspan><tspan x="-509.68399999999997" y="38.940000000000005">education</tspan></text><text x="92.93" y="512.7" fill="#666" dominant-baseline="middle" text-anchor="end" font-size="16.2">30%</text><text x="92.93" y="449.5" fill="#666" dominant-baseline="middle" text-anchor="end" font-size="16.2">40%</text><text x="92.93" y="386.2" fill="#666" dominant-baseline="middle" text-anchor="end" font-size="16.2">50%</text><text x="92.93" y="323" fill="#666" dominant-baseline="middle" text-anchor="end" font-size="16.2">60%</text><text x="92.93" y="259.7" fill="#666" dominant-baseline="middle" text-anchor="end" font-size="16.2">70%</text><text x="92.93" y="196.5" fill="#666" dominant-baseline="middle" text-anchor="end" font-size="16.2">80%</text><text x="92.93" y="133.2" fill="#666" dominant-baseline="middle" text-anchor="end" font-size="16.2">90%</text><text x="92.93" y="70" fill="#666" dominant-baseline="middle" text-anchor="end" font-size="16.2">100%</text></g><g class="AxisGridLines"><line x1="84.23" y1="512.7" x2="715.00" y2="512.7" stroke="#ddd" stroke-dasharray="3,2"></line><line x1="84.23" y1="449.5" x2="715.00" y2="449.5" stroke="#ddd" stroke-dasharray="3,2"></line><line x1="84.23" y1="386.2" x2="715.00" y2="386.2" stroke="#ddd" stroke-dasharray="3,2"></line><line x1="84.23" y1="323" x2="715.00" y2="323" stroke="#ddd" stroke-dasharray="3,2"></line><line x1="84.23" y1="259.7" x2="715.00" y2="259.7" stroke="#ddd" stroke-dasharray="3,2"></line><line x1="84.23" y1="196.5" x2="715.00" y2="196.5" stroke="#ddd" stroke-dasharray="3,2"></line><line x1="84.23" y1="133.2" x2="715.00" y2="133.2" stroke="#ddd" stroke-dasharray="3,2"></line><line x1="84.23" y1="70" x2="715.00" y2="70" stroke="#ddd" stroke-dasharray="3,2"></line></g><g class="AxisGridLines"><line x1="84.2" y1="512.70" x2="84.2" y2="70.00" stroke="#ddd" stroke-dasharray="3,2"></line><line x1="174.3" y1="512.70" x2="174.3" y2="70.00" stroke="#ddd" stroke-dasharray="3,2"></line><line x1="264.5" y1="512.70" x2="264.5" y2="70.00" stroke="#ddd" stroke-dasharray="3,2"></line><line x1="354.6" y1="512.70" x2="354.6" y2="70.00" stroke="#ddd" stroke-dasharray="3,2"></line><line x1="444.7" y1="512.70" x2="444.7" y2="70.00" stroke="#ddd" stroke-dasharray="3,2"></line><line x1="534.8" y1="512.70" x2="534.8" y2="70.00" stroke="#ddd" stroke-dasharray="3,2"></line><line x1="624.9" y1="512.70" x2="624.9" y2="70.00" stroke="#ddd" stroke-dasharray="3,2"></line><line x1="715" y1="512.70" x2="715" y2="70.00" stroke="#ddd" stroke-dasharray="3,2"></line></g></g><g class="ComparisonLine"><defs><clipPath id="axisBounds-1"><rect x="84.23400000000001" y="70" width="630.766" height="442.7"></rect></clipPath></defs><path d="M84.2,512.7L90.5,508.3L96.8,503.8L103.2,499.4L109.5,495L115.8,490.6L122.1,486.1L128.4,481.7L134.7,477.3L141,472.9L147.3,468.4L153.6,464L159.9,459.6L166.2,455.1L172.5,450.7L178.8,446.3L185.2,441.9L191.5,437.4L197.8,433L204.1,428.6L210.4,424.2L216.7,419.7L223,415.3L229.3,410.9L235.6,406.5L241.9,402L248.2,397.6L254.5,393.2L260.8,388.7L267.2,384.3L273.5,379.9L279.8,375.5L286.1,371L292.4,366.6L298.7,362.2L305,357.8L311.3,353.3L317.6,348.9L323.9,344.5L330.2,340L336.5,335.6L342.8,331.2L349.2,326.8L355.5,322.3L361.8,317.9L368.1,313.5L374.4,309.1L380.7,304.6L387,300.2L393.3,295.8L399.6,291.4L405.9,286.9L412.2,282.5L418.5,278.1L424.8,273.6L431.2,269.2L437.5,264.8L443.8,260.4L450.1,255.9L456.4,251.5L462.7,247.1L469,242.7L475.3,238.2L481.6,233.8L487.9,229.4L494.2,224.9L500.5,220.5L506.8,216.1L513.2,211.7L519.5,207.2L525.8,202.8L532.1,198.4L538.4,194L544.7,189.5L551,185.1L557.3,180.7L563.6,176.2L569.9,171.8L576.2,167.4L582.5,163L588.8,158.5L595.2,154.1L601.5,149.7L607.8,145.3L614.1,140.8L620.4,136.4L626.7,132L633,127.6L639.3,123.1L645.6,118.7L651.9,114.3L658.2,109.8L664.5,105.4L670.8,101L677.2,96.6L683.5,92.1L689.8,87.7L696.1,83.3L702.4,78.9L708.7,74.4" clip-path="url(#axisBounds-1)" fill="none" stroke="#ccc"></path></g><g clip-path="url(#scatterBounds-2)" font-family="Arial Narrow, Arial, sans-serif" class="PointsWithLabels clickable"><rect x="84.23400000000001" y="70" width="630.766" height="442.7" fill="rgba(255,255,255,0)"></rect><defs><clipPath id="scatterBounds-2"><rect x="74.23400000000001" y="60" width="650.766" height="462.7"></rect></clipPath></defs><g class="key-United-States_0"><circle cx="570.00" cy="326.00" r="17.84" fill="#4d824b" opacity="0.8" stroke="#333" stroke-width="0.7"></circle></g><g class="key-Indonesia_0"><circle cx="565.00" cy="285.00" r="15.74" fill="#d14e5b" opacity="0.8" stroke="#333" stroke-width="0.7"></circle></g><g class="key-Brazil_0"><circle cx="589.00" cy="269.00" r="14.18" fill="#69c487" opacity="0.8" stroke="#333" stroke-width="0.7"></circle></g><g class="key-Russia_0"><circle cx="603.00" cy="338.00" r="12.00" fill="#ffd336" opacity="0.8" stroke="#333" stroke-width="0.7"></circle></g><g class="key-Mexico_0"><circle cx="533.00" cy="284.00" r="10.92" fill="#4d824b" opacity="0.8" stroke="#fff" stroke-width="0.7"></circle></g><g class="key-Germany_0"><circle cx="598.00" cy="352.00" r="9.16" fill="#ffd336" opacity="0.8" stroke="#333" stroke-width="0.7"></circle></g><g class="key-Turkey_0"><circle cx="481.00" cy="365.00" r="8.80" fill="#d14e5b" opacity="0.8" stroke="#333" stroke-width="0.7"></circle></g><g class="key-France_0"><circle cx="588.00" cy="389.00" r="8.13" fill="#ffd336" opacity="0.8" stroke="#333" stroke-width="0.7"></circle></g><g class="key-United-Kingdom_0"><circle cx="598.00" cy="304.00" r="8.09" fill="#ffd336" opacity="0.8" stroke="#fff" stroke-width="0.7"></circle></g><g class="key-Italy_0"><circle cx="393.00" cy="379.00" r="7.96" fill="#ffd336" opacity="0.8" stroke="#333" stroke-width="0.7"></circle></g><g class="key-South-Africa_0"><circle cx="529.00" cy="425.00" r="7.30" fill="#5675c1" opacity="0.8" stroke="#333" stroke-width="0.7"></circle></g><g class="key-Colombia_0"><circle cx="551.00" cy="242.00" r="7.11" fill="#69c487" opacity="0.8" stroke="#333" stroke-width="0.7"></circle></g><g class="key-Spain_0"><circle cx="497.00" cy="324.00" r="7.03" fill="#ffd336" opacity="0.8" stroke="#333" stroke-width="0.7"></circle></g><g class="key-Argentina_0"><circle cx="608.00" cy="287.00" r="6.63" fill="#69c487" opacity="0.8" stroke="#fff" stroke-width="0.7"></circle></g><g class="key-Poland_0"><circle cx="604.00" cy="418.00" r="6.39" fill="#ffd336" opacity="0.8" stroke="#333" stroke-width="0.7"></circle></g><g class="key-Canada_0"><circle cx="582.00" cy="341.00" r="6.12" fill="#4d824b" opacity="0.8" stroke="#fff" stroke-width="0.7"></circle></g><g class="key-Saudi-Arabia_0"><circle cx="372.00" cy="290.00" r="5.65" fill="#d14e5b" opacity="0.8" stroke="#333" stroke-width="0.7"></circle></g><g class="key-Australia_0"><circle cx="579.00" cy="350.00" r="5.08" fill="#a652ba" opacity="0.8" stroke="#fff" stroke-width="0.7"></circle></g><g class="key-Chile_0"><circle cx="582.00" cy="319.00" r="4.50" fill="#69c487" opacity="0.8" stroke="#fff" stroke-width="0.7"></circle></g><g class="key-Netherlands_0"><circle cx="630.00" cy="292.00" r="4.41" fill="#ffd336" opacity="0.8" stroke="#333" stroke-width="0.7"></circle></g><g class="key-Greece_0"><circle cx="409.00" cy="379.00" r="3.77" fill="#ffd336" opacity="0.8" stroke="#fff" stroke-width="0.7"></circle></g><g class="key-Belgium_0"><circle cx="596.00" cy="373.00" r="3.68" fill="#ffd336" opacity="0.8" stroke="#fff" stroke-width="0.7"></circle></g><g class="key-Portugal_0"><circle cx="555.00" cy="234.00" r="3.67" fill="#ffd336" opacity="0.8" stroke="#fff" stroke-width="0.7"></circle></g><g class="key-Czech-Republic_0"><circle cx="513.00" cy="404.00" r="3.65" fill="#ffd336" opacity="0.8" stroke="#333" stroke-width="0.7"></circle></g><g class="key-Hungary_0"><circle cx="556.00" cy="353.00" r="3.56" fill="#ffd336" opacity="0.8" stroke="#fff" stroke-width="0.7"></circle></g><g class="key-Sweden_0"><circle cx="593.00" cy="282.00" r="3.51" fill="#ffd336" opacity="0.8" stroke="#fff" stroke-width="0.7"></circle></g><g class="key-Austria_0"><circle cx="604.00" cy="333.00" r="3.35" fill="#ffd336" opacity="0.8" stroke="#fff" stroke-width="0.7"></circle></g><g class="key-Israel_0"><circle cx="592.00" cy="366.00" r="3.26" fill="#d14e5b" opacity="0.8" stroke="#333" stroke-width="0.7"></circle></g><g class="key-Switzerland_0"><circle cx="612.00" cy="273.00" r="3.25" fill="#ffd336" opacity="0.8" stroke="#fff" stroke-width="0.7"></circle></g><g class="key-Denmark_0"><circle cx="559.00" cy="318.00" r="2.90" fill="#ffd336" opacity="0.8" stroke="#fff" stroke-width="0.7"></circle></g><g class="key-Slovakia_0"><circle cx="511.00" cy="467.00" r="2.88" fill="#ffd336" opacity="0.8" stroke="#333" stroke-width="0.7"></circle></g><g class="key-Finland_0"><circle cx="543.00" cy="386.00" r="2.87" fill="#ffd336" opacity="0.8" stroke="#333" stroke-width="0.7"></circle></g><g class="key-Norway_0"><circle cx="594.00" cy="324.00" r="2.79" fill="#ffd336" opacity="0.8" stroke="#fff" stroke-width="0.7"></circle></g><g class="key-Costa-Rica_0"><circle cx="543.00" cy="289.00" r="2.77" fill="#4d824b" opacity="0.8" stroke="#333" stroke-width="0.7"></circle></g><g class="key-Ireland_0"><circle cx="569.00" cy="425.00" r="2.73" fill="#ffd336" opacity="0.8" stroke="#fff" stroke-width="0.7"></circle></g><g class="key-New-Zealand_0"><circle cx="590.00" cy="286.00" r="2.71" fill="#a652ba" opacity="0.8" stroke="#fff" stroke-width="0.7"></circle></g><g class="key-Lithuania_0"><circle cx="651.00" cy="349.00" r="2.47" fill="#ffd336" opacity="0.8" stroke="#333" stroke-width="0.7"></circle></g><g class="key-Latvia_0"><circle cx="600.00" cy="276.00" r="2.25" fill="#ffd336" opacity="0.8" stroke="#fff" stroke-width="0.7"></circle></g><g class="key-Slovenia_0"><circle cx="547.00" cy="335.00" r="2.21" fill="#ffd336" opacity="0.8" stroke="#333" stroke-width="0.7"></circle></g><g class="key-Estonia_0"><circle cx="544.00" cy="293.00" r="2.04" fill="#ffd336" opacity="0.8" stroke="#fff" stroke-width="0.7"></circle></g><g class="key-Luxembourg_0"><circle cx="621.00" cy="241.00" r="1.84" fill="#ffd336" opacity="0.8" stroke="#333" stroke-width="0.7"></circle></g><g class="key-Iceland_0"><circle cx="640.00" cy="189.00" r="1.78" fill="#ffd336" opacity="0.8" stroke="#333" stroke-width="0.7"></circle></g><g class="key-OECD-average_0"><circle cx="562.00" cy="332.00" r="1.69" fill="#000" opacity="0.8" stroke="#fff" stroke-width="0.7"></circle></g><g class="key-EU22-average_0"><circle cx="556.00" cy="343.00" r="1.69" fill="#000" opacity="0.8" stroke="#fff" stroke-width="0.7"></circle></g><g class="key-Korea_0"><circle cx="491.00" cy="325.00" r="1.69" fill="#000" opacity="0.8" stroke="#fff" stroke-width="0.7"></circle></g><g fill="#333" class="backgroundLabels"><text x="570.00" y="307.16" font-size="14.30">United States</text><text x="565.00" y="268.26" font-size="13.56">Indonesia</text><text x="589.00" y="253.82" font-size="13.07">Brazil</text><text x="603.00" y="325.00" font-size="12.48">Russia</text><text x="598.00" y="341.84" font-size="11.85">Germany</text><text x="481.00" y="355.20" font-size="11.78">Turkey</text><text x="588.00" y="379.87" font-size="11.66">France</text><text x="393.00" y="370.04" font-size="11.63">Italy</text><text x="529.00" y="416.70" font-size="11.53">South Africa</text><text x="551.00" y="233.89" font-size="11.50">Colombia</text><text x="497.00" y="315.97" font-size="11.48">Spain</text><text x="604.00" y="410.61" font-size="11.39">Poland</text><text x="372.00" y="283.35" font-size="11.30">Saudi Arabia</text><text x="630.00" y="286.59" font-size="11.17">Netherlands</text><text x="513.00" y="399.35" font-size="11.11">Czech Republic</text><text x="592.00" y="361.74" font-size="11.08">Israel</text><text x="511.00" y="463.12" font-size="11.05">Slovakia</text><text x="543.00" y="382.13" font-size="11.05">Finland</text><text x="543.00" y="285.23" font-size="11.05">Costa Rica</text><text x="651.00" y="345.53" font-size="11.03">Lithuania</text><text x="547.00" y="331.79" font-size="11.02">Slovenia</text><text x="621.00" y="238.16" font-size="11.00">Luxembourg</text><text x="640.00" y="186.22" font-size="11.00">Iceland</text></g></g><g style="cursor: pointer;" class="ScatterColorLegend clickable"><g class="legendMark"><rect x="735" y="67.5" width="43.256" height="17.6" fill="#fff" opacity="0"></rect>,<rect x="735" y="73" width="6" height="6" fill="#5675c1"></rect>,<text font-size="12.60" x="746.0" y="80.1"><tspan x="746" y="80.08">Africa</tspan></text></g><g class="legendMark"><rect x="735" y="85.1" width="35.57" height="17.6" fill="#fff" opacity="0"></rect>,<rect x="735" y="90.6" width="6" height="6" fill="#d14e5b"></rect>,<text font-size="12.60" x="746.0" y="97.7"><tspan x="746" y="97.67999999999999">Asia</tspan></text></g><g class="legendMark"><rect x="735" y="102.7" width="51.824" height="17.6" fill="#fff" opacity="0"></rect>,<rect x="735" y="108.2" width="6" height="6" fill="#ffd336"></rect>,<text font-size="12.60" x="746.0" y="115.3"><tspan x="746" y="115.28">Europe</tspan></text></g><g class="legendMark"><rect x="735" y="120.30000000000001" width="91.64" height="17.6" fill="#fff" opacity="0"></rect>,<rect x="735" y="125.80000000000001" width="6" height="6" fill="#4d824b"></rect>,<text font-size="12.60" x="746.0" y="132.9"><tspan x="746" y="132.88">North America</tspan></text></g><g class="legendMark"><rect x="735" y="137.9" width="58.124" height="17.6" fill="#fff" opacity="0"></rect>,<rect x="735" y="143.4" width="6" height="6" fill="#a652ba"></rect>,<text font-size="12.60" x="746.0" y="150.5"><tspan x="746" y="150.48">Oceania</tspan></text></g><g class="legendMark"><rect x="735" y="155.5" width="93.908" height="17.6" fill="#fff" opacity="0"></rect>,<rect x="735" y="161" width="6" height="6" fill="#69c487"></rect>,<text font-size="12.60" x="746.0" y="168.1"><tspan x="746" y="168.07999999999998">South America</tspan></text></g></g></g><g style="fill: #777;" class="SourcesFooter"><g style="fill: #777;" class="clickable"><text font-size="12.60" x="15.0" y="581.6"><tspan x="15" y="581.58">Source: Education at a Glance 2017: OECD Indicators (2017)</tspan></text></g><text font-size="12.60" x="775.4" y="581.6"><tspan x="775.402" y="581.58"><a style="fill: #777;" class="cclogo" href="http://creativecommons.org/licenses/by-sa/4.0/deed.en_US" target="_blank">CC BY-SA</a></tspan></text></g></g></svg>