<svg xmlns="http://www.w3.org/2000/svg" version="1.1" style="font-family: 'Helvetica Neue', Helvetica, Arial, sans-serif; font-size: 24px; background-color: white;" width="1200" height="630"><g class="ChartTab"><g><g class="AxisBoxView"><g class="HorizontalAxis"><text font-size="16.80" x="425.2" y="596.6"><tspan x="425.1600000000001" y="596.64">GDP per capita (2011 int-$)</tspan></text><text x="223.7" y="573.2" fill="#666" text-anchor="middle" font-size="21.6">$1,000</text><text x="617.2" y="573.2" fill="#666" text-anchor="middle" font-size="21.6">$10,000</text><text x="1010.7" y="573.2" fill="#666" text-anchor="middle" font-size="21.6">$100,000</text></g><g class="VerticalAxis"><text font-size="16.80" x="-467.9" y="28.4" transform="rotate(-90)"><tspan x="-467.94399999999996" y="28.439999999999998">Energy use per capita (kg oil equivalent)</tspan></text><text x="169.67" y="515.5" fill="#666" dominant-baseline="middle" text-anchor="end" font-size="21.6">1,000 kWh</text><text x="169.67" y="309.7" fill="#666" dominant-baseline="middle" text-anchor="end" font-size="21.6">10,000 kWh</text><text x="169.67" y="103.8" fill="#666" dominant-baseline="middle" text-anchor="end" font-size="21.6">100,000 kWh</text></g><g class="AxisGridLines"><line x1="174.67" y1="515.5" x2="1041.46" y2="515.5" stroke="#ddd" stroke-dasharray="3,2"></line><line x1="174.67" y1="309.7" x2="1041.46" y2="309.7" stroke="#ddd" stroke-dasharray="3,2"></line><line x1="174.67" y1="103.8" x2="1041.46" y2="103.8" stroke="#ddd" stroke-dasharray="3,2"></line></g><g class="AxisGridLines"><line x1="223.7" y1="546.60" x2="223.7" y2="35.00" stroke="#ddd" stroke-dasharray="3,2"></line><line x1="617.2" y1="546.60" x2="617.2" y2="35.00" stroke="#ddd" stroke-dasharray="3,2"></line><line x1="1010.7" y1="546.60" x2="1010.7" y2="35.00" stroke="#ddd" stroke-dasharray="3,2"></line></g></g><g clip-path="url(#scatterBounds-719)" class="PointsWithLabels clickable"><rect x="174.67200000000003" y="35" width="866.7840000000001" height="511.6" fill="rgba(255,255,255,0)"></rect><defs><clipPath id="scatterBounds-719"><rect x="164.67200000000003" y="25" width="886.7840000000001" height="531.6"></rect></clipPath></defs><circle cx="669" cy="224" r="17.841241161527712" fill="#d14e5b" opacity="0.8"></circle><circle cx="522" cy="336" r="17.285221820094993" fill="#d14e5b" opacity="0.8"></circle><circle cx="901" cy="124" r="8.772559673097689" fill="#4d824b" opacity="0.8"></circle><circle cx="623" cy="307" r="7.773217855834794" fill="#d14e5b" opacity="0.8"></circle><circle cx="682" cy="260" r="7.035115782677391" fill="#69c487" opacity="0.8"></circle><circle cx="488" cy="360" r="6.751522699236608" fill="#d14e5b" opacity="0.8"></circle><circle cx="520" cy="320" r="6.537113024872974" fill="#5675c1" opacity="0.8"></circle><circle cx="418" cy="430" r="6.237484572457568" fill="#d14e5b" opacity="0.8"></circle><circle cx="767" cy="153" r="6.013464055053132" fill="#ffd336" opacity="0.8"></circle><circle cx="844" cy="186" r="5.692313910443122" fill="#d14e5b" opacity="0.8"></circle><circle cx="704" cy="260" r="5.508759590696768" fill="#4d824b" opacity="0.8"></circle><circle cx="553" cy="362" r="5.084882780857178" fill="#d14e5b" opacity="0.8"></circle><circle cx="520" cy="332" r="4.911936322833408" fill="#d14e5b" opacity="0.8"></circle><circle cx="296" cy="358" r="4.857341304754939" fill="#5675c1" opacity="0.8"></circle><circle cx="618" cy="314" r="4.785734623597066" fill="#5675c1" opacity="0.8"></circle><circle cx="869" cy="176" r="4.698349171898802" fill="#ffd336" opacity="0.8"></circle><circle cx="697" cy="197" r="4.56322308233712" fill="#d14e5b" opacity="0.8"></circle><circle cx="762" cy="251" r="4.5365189459305135" fill="#d14e5b" opacity="0.8"></circle><circle cx="174" cy="380" r="4.434699962476724" fill="#5675c1" opacity="0.8"></circle><circle cx="689" cy="235" r="4.403837572625172" fill="#d14e5b" opacity="0.8"></circle><circle cx="844" cy="179" r="4.230342941416398" fill="#ffd336" opacity="0.8"></circle><circle cx="847" cy="205" r="4.213714250078153" fill="#ffd336" opacity="0.8"></circle><circle cx="827" cy="214" r="4.155811132084613" fill="#ffd336" opacity="0.8"></circle><circle cx="654" cy="206" r="3.8635944305296652" fill="#5675c1" opacity="0.8"></circle><circle cx="379" cy="362" r="3.808343076619537" fill="#5675c1" opacity="0.8"></circle><circle cx="501" cy="384" r="3.807327482855475" fill="#d14e5b" opacity="0.8"></circle><circle cx="827" cy="145" r="3.79681098970983" fill="#d14e5b" opacity="0.8"></circle><circle cx="661" cy="326" r="3.7781523422071044" fill="#69c487" opacity="0.8"></circle><circle cx="817" cy="211" r="3.743544800190516" fill="#ffd336" opacity="0.8"></circle><circle cx="567" cy="220" r="3.670174491485865" fill="#ffd336" opacity="0.8"></circle><circle cx="401" cy="355" r="3.6456736284462696" fill="#5675c1" opacity="0.8"></circle><circle cx="727" cy="233" r="3.5669178668573824" fill="#69c487" opacity="0.8"></circle><circle cx="775" cy="214" r="3.4632802138303833" fill="#ffd336" opacity="0.8"></circle><circle cx="671" cy="271" r="3.4178604701118402" fill="#5675c1" opacity="0.8"></circle><circle cx="472" cy="382" r="3.382295079567054" fill="#5675c1" opacity="0.8"></circle><circle cx="866" cy="114" r="3.3496712676324876" fill="#4d824b" opacity="0.8"></circle><circle cx="685" cy="265" r="3.342133303318709" fill="#d14e5b" opacity="0.8"></circle><circle cx="563" cy="349" r="3.277306028678718" fill="#5675c1" opacity="0.8"></circle><circle cx="366" cy="375" r="3.227757376225032" fill="#d14e5b" opacity="0.8"></circle><circle cx="645" cy="319" r="3.174870910106463" fill="#69c487" opacity="0.8"></circle><circle cx="773" cy="198" r="3.164337122711296" fill="#d14e5b" opacity="0.8"></circle><circle cx="894" cy="123" r="3.1471507747102883" fill="#d14e5b" opacity="0.8"></circle><circle cx="521" cy="264" r="3.113028061507078" fill="#d14e5b" opacity="0.8"></circle><circle cx="457" cy="393" r="3.027428729849542" fill="#5675c1" opacity="0.8"></circle><circle cx="242" cy="372" r="2.9848887902033274" fill="#5675c1" opacity="0.8"></circle><circle cx="869" cy="143" r="2.913563797900952" fill="#a652ba" opacity="0.8"></circle><circle cx="634" cy="355" r="2.8402157422478087" fill="#d14e5b" opacity="0.8"></circle><circle cx="740" cy="254" r="2.8379672628195105" fill="#ffd336" opacity="0.8"></circle><circle cx="425" cy="339" r="2.826443978175815" fill="#5675c1" opacity="0.8"></circle><circle cx="410" cy="392" r="2.8205425423526798" fill="#5675c1" opacity="0.8"></circle><circle cx="536" cy="350" r="2.812346646277128" fill="#5675c1" opacity="0.8"></circle><circle cx="756" cy="232" r="2.6797758729281522" fill="#69c487" opacity="0.8"></circle><circle cx="205" cy="465" r="2.665258804022921" fill="#5675c1" opacity="0.8"></circle><circle cx="879" cy="167" r="2.6443722575610176" fill="#ffd336" opacity="0.8"></circle><circle cx="763" cy="163" r="2.6351237282019437" fill="#d14e5b" opacity="0.8"></circle><circle cx="563" cy="312" r="2.589702513174129" fill="#4d824b" opacity="0.8"></circle><circle cx="630" cy="306" r="2.5687508971214066" fill="#69c487" opacity="0.8"></circle><circle cx="427" cy="374" r="2.5503888250792706" fill="#d14e5b" opacity="0.8"></circle><circle cx="443" cy="336" r="2.534817067013572" fill="#5675c1" opacity="0.8"></circle><circle cx="365" cy="412" r="2.4951572707957905" fill="#5675c1" opacity="0.8"></circle><circle cx="332" cy="321" r="2.489283402551209" fill="#5675c1" opacity="0.8"></circle><circle cx="767" cy="226" r="2.400018451109677" fill="#ffd336" opacity="0.8"></circle><circle cx="324" cy="546" r="2.3726309786124262" fill="#5675c1" opacity="0.8"></circle><circle cx="861" cy="158" r="2.3693851287122354" fill="#ffd336" opacity="0.8"></circle><circle cx="629" cy="301" r="2.3692912272973854" fill="#5675c1" opacity="0.8"></circle><circle cx="784" cy="228" r="2.363944304449981" fill="#ffd336" opacity="0.8"></circle><circle cx="807" cy="175" r="2.3583108578478393" fill="#ffd336" opacity="0.8"></circle><circle cx="544" cy="317" r="2.3494429426400494" fill="#69c487" opacity="0.8"></circle><circle cx="309" cy="379" r="2.3483897931623225" fill="#4d824b" opacity="0.8"></circle><circle cx="666" cy="323" r="2.344446097795726" fill="#4d824b" opacity="0.8"></circle><circle cx="772" cy="216" r="2.3258369359664472" fill="#ffd336" opacity="0.8"></circle><circle cx="665" cy="240" r="2.3209075091300293" fill="#ffd336" opacity="0.8"></circle><circle cx="341" cy="374" r="2.309466119904541" fill="#5675c1" opacity="0.8"></circle><circle cx="876" cy="150" r="2.3064163515523464" fill="#ffd336" opacity="0.8"></circle><circle cx="704" cy="259" r="2.3057940576061213" fill="#d14e5b" opacity="0.8"></circle><circle cx="710" cy="200" r="2.3040257518452543" fill="#ffd336" opacity="0.8"></circle><circle cx="870" cy="176" r="2.250208072637809" fill="#ffd336" opacity="0.8"></circle><circle cx="939" cy="112" r="2.2381542762641087" fill="#d14e5b" opacity="0.8"></circle><circle cx="473" cy="340" r="2.231076560775189" fill="#4d824b" opacity="0.8"></circle><circle cx="815" cy="204" r="2.21790815425132" fill="#d14e5b" opacity="0.8"></circle><circle cx="913" cy="199" r="2.214924473225691" fill="#ffd336" opacity="0.8"></circle><circle cx="707" cy="215" r="2.193233879154129" fill="#ffd336" opacity="0.8"></circle><circle cx="903" cy="235" r="2.1892478321184385" fill="#d14e5b" opacity="0.8"></circle><circle cx="389" cy="393" r="2.184444805728763" fill="#d14e5b" opacity="0.8"></circle><circle cx="592" cy="317" r="2.163899081936713" fill="#69c487" opacity="0.8"></circle><circle cx="589" cy="302" r="2.1517923025831807" fill="#d14e5b" opacity="0.8"></circle><circle cx="275" cy="366" r="2.143135683094979" fill="#5675c1" opacity="0.8"></circle><circle cx="575" cy="335" r="2.1371855523606147" fill="#4d824b" opacity="0.8"></circle><circle cx="497" cy="340" r="2.1229818524593758" fill="#4d824b" opacity="0.8"></circle><circle cx="876" cy="203" r="2.0993361024262707" fill="#ffd336" opacity="0.8"></circle><circle cx="424" cy="334" r="2.0933668714361136" fill="#d14e5b" opacity="0.8"></circle><circle cx="794" cy="197" r="2.0925648783235498" fill="#ffd336" opacity="0.8"></circle><circle cx="849" cy="137" r="2.0886822943992613" fill="#ffd336" opacity="0.8"></circle><circle cx="974" cy="150" r="2.082130512790419" fill="#d14e5b" opacity="0.8"></circle><circle cx="686" cy="154" r="2.0784369556352225" fill="#d14e5b" opacity="0.8"></circle><circle cx="933" cy="138" r="2.0648576939682584" fill="#ffd336" opacity="0.8"></circle><circle cx="685" cy="293" r="2.0574305581066756" fill="#4d824b" opacity="0.8"></circle><circle cx="926" cy="203" r="2.044510143217283" fill="#ffd336" opacity="0.8"></circle><circle cx="829" cy="162" r="2.0375104687494736" fill="#a652ba" opacity="0.8"></circle><circle cx="741" cy="238" r="2.0301363355102584" fill="#ffd336" opacity="0.8"></circle><circle cx="516" cy="351" r="2.0270154252990946" fill="#5675c1" opacity="0.8"></circle><circle cx="663" cy="270" r="2.027007475011997" fill="#d14e5b" opacity="0.8"></circle><circle cx="599" cy="281" r="2.024394774524347" fill="#d14e5b" opacity="0.8"></circle><circle cx="631" cy="225" r="1.993081778946798" fill="#ffd336" opacity="0.8"></circle><circle cx="741" cy="289" r="1.9897274333140436" fill="#4d824b" opacity="0.8"></circle><circle cx="489" cy="302" r="1.979058673517367" fill="#ffd336" opacity="0.8"></circle><circle cx="734" cy="267" r="1.9736300329016316" fill="#69c487" opacity="0.8"></circle><circle cx="786" cy="218" r="1.9662863793092755" fill="#ffd336" opacity="0.8"></circle><circle cx="633" cy="315" r="1.9639252149834734" fill="#ffd336" opacity="0.8"></circle><circle cx="582" cy="294" r="1.9567931669225862" fill="#d14e5b" opacity="0.8"></circle><circle cx="948" cy="100" r="1.9473672711022831" fill="#d14e5b" opacity="0.8"></circle><circle cx="854" cy="133" r="1.9472671297376598" fill="#d14e5b" opacity="0.8"></circle><circle cx="639" cy="241" r="1.9431265804965399" fill="#d14e5b" opacity="0.8"></circle><circle cx="581" cy="297" r="1.9361520569776438" fill="#4d824b" opacity="0.8"></circle><circle cx="615" cy="320" r="1.9140678426320366" fill="#5675c1" opacity="0.8"></circle><circle cx="759" cy="226" r="1.903242394560347" fill="#ffd336" opacity="0.8"></circle><circle cx="690" cy="276" r="1.8939823486736036" fill="#5675c1" opacity="0.8"></circle><circle cx="658" cy="275" r="1.893651949778108" fill="#ffd336" opacity="0.8"></circle><circle cx="799" cy="192" r="1.8921542389130035" fill="#ffd336" opacity="0.8"></circle><circle cx="1041" cy="35" r="1.8879876356440157" fill="#d14e5b" opacity="0.8"></circle><circle cx="706" cy="207" r="1.8643427163551847" fill="#5675c1" opacity="0.8"></circle><circle cx="872" cy="85" r="1.8508032374669088" fill="#d14e5b" opacity="0.8"></circle><circle cx="812" cy="57" r="1.8494289307476166" fill="#4d824b" opacity="0.8"></circle><circle cx="789" cy="168" r="1.848393656975408" fill="#ffd336" opacity="0.8"></circle><circle cx="725" cy="286" r="1.8472613405527727" fill="#5675c1" opacity="0.8"></circle><circle cx="807" cy="248" r="1.835971629890139" fill="#ffd336" opacity="0.8"></circle><circle cx="689" cy="257" r="1.8035889035123711" fill="#ffd336" opacity="0.8"></circle><circle cx="683" cy="275" r="1.797517895399605" fill="#69c487" opacity="0.8"></circle><circle cx="1002" cy="128" r="1.7969460879351185" fill="#ffd336" opacity="0.8"></circle><circle cx="828" cy="243" r="1.789869815675426" fill="#ffd336" opacity="0.8"></circle><circle cx="960" cy="103" r="1.7898189671228266" fill="#d14e5b" opacity="0.8"></circle><circle cx="865" cy="40" r="1.7841241161527712" fill="#ffd336" opacity="0.8"></circle><circle cx="601" cy="278" r="1.762418075019451" fill="#ffd336" opacity="0.8"></circle><circle cx="689" cy="236" r="1.762418075019451" fill="#000" opacity="0.8"></circle><circle cx="679" cy="155" r="1.762418075019451" fill="#000" opacity="0.8"></circle><circle cx="769" cy="215" r="1.762418075019451" fill="#000" opacity="0.8"></circle><circle cx="584" cy="305" r="1.762418075019451" fill="#000" opacity="0.8"></circle><circle cx="688" cy="228" r="1.762418075019451" fill="#000" opacity="0.8"></circle><circle cx="650" cy="239" r="1.762418075019451" fill="#000" opacity="0.8"></circle><circle cx="652" cy="239" r="1.762418075019451" fill="#000" opacity="0.8"></circle><circle cx="844" cy="188" r="1.762418075019451" fill="#000" opacity="0.8"></circle><circle cx="797" cy="193" r="1.762418075019451" fill="#000" opacity="0.8"></circle><circle cx="721" cy="194" r="1.762418075019451" fill="#000" opacity="0.8"></circle><circle cx="726" cy="196" r="1.762418075019451" fill="#000" opacity="0.8"></circle><circle cx="834" cy="192" r="1.762418075019451" fill="#000" opacity="0.8"></circle><circle cx="450" cy="344" r="1.762418075019451" fill="#000" opacity="0.8"></circle><circle cx="346" cy="369" r="1.762418075019451" fill="#000" opacity="0.8"></circle><circle cx="865" cy="159" r="1.762418075019451" fill="#000" opacity="0.8"></circle><circle cx="643" cy="255" r="1.762418075019451" fill="#000" opacity="0.8"></circle><circle cx="609" cy="269" r="1.762418075019451" fill="#000" opacity="0.8"></circle><circle cx="491" cy="341" r="1.762418075019451" fill="#000" opacity="0.8"></circle><circle cx="383" cy="382" r="1.762418075019451" fill="#000" opacity="0.8"></circle><circle cx="427" cy="364" r="1.762418075019451" fill="#000" opacity="0.8"></circle><circle cx="687" cy="221" r="1.762418075019451" fill="#000" opacity="0.8"></circle><circle cx="681" cy="269" r="1.762418075019451" fill="#000" opacity="0.8"></circle><circle cx="675" cy="273" r="1.762418075019451" fill="#000" opacity="0.8"></circle><circle cx="680" cy="269" r="1.762418075019451" fill="#000" opacity="0.8"></circle><circle cx="371" cy="386" r="1.762418075019451" fill="#000" opacity="0.8"></circle><circle cx="606" cy="270" r="1.762418075019451" fill="#000" opacity="0.8"></circle><circle cx="531" cy="335" r="1.762418075019451" fill="#000" opacity="0.8"></circle><circle cx="711" cy="220" r="1.762418075019451" fill="#000" opacity="0.8"></circle><circle cx="639" cy="261" r="1.762418075019451" fill="#000" opacity="0.8"></circle><circle cx="640" cy="261" r="1.762418075019451" fill="#000" opacity="0.8"></circle><circle cx="622" cy="266" r="1.762418075019451" fill="#000" opacity="0.8"></circle><circle cx="898" cy="123" r="1.762418075019451" fill="#000" opacity="0.8"></circle><circle cx="846" cy="169" r="1.762418075019451" fill="#000" opacity="0.8"></circle><circle cx="857" cy="156" r="1.762418075019451" fill="#000" opacity="0.8"></circle><circle cx="436" cy="344" r="1.762418075019451" fill="#000" opacity="0.8"></circle><circle cx="509" cy="345" r="1.762418075019451" fill="#000" opacity="0.8"></circle><circle cx="509" cy="345" r="1.762418075019451" fill="#000" opacity="0.8"></circle><circle cx="436" cy="329" r="1.762418075019451" fill="#000" opacity="0.8"></circle><circle cx="436" cy="329" r="1.762418075019451" fill="#000" opacity="0.8"></circle><circle cx="436" cy="329" r="1.762418075019451" fill="#000" opacity="0.8"></circle><circle cx="689" cy="225" r="1.762418075019451" fill="#000" opacity="0.8"></circle><circle cx="683" cy="237" r="1.762418075019451" fill="#000" opacity="0.8"></circle><circle cx="389" cy="397" r="1.762418075019451" fill="#d14e5b" opacity="0.8"></circle><text x="669" y="205.1587588384723" font-size="14.3" font-family="Arial Narrow, Arial, sans-serif" fill="#666">China</text><text x="522" y="317.714778179905" font-size="14.09547192152843" font-family="Arial Narrow, Arial, sans-serif" fill="#666">India</text><text x="901" y="114.22744032690231" font-size="11.772566897420887" font-family="Arial Narrow, Arial, sans-serif" fill="#666">United States</text><text x="623" y="298.2267821441652" font-size="11.599413961644713" font-family="Arial Narrow, Arial, sans-serif" fill="#666">Indonesia</text><text x="682" y="251.9648842173226" font-size="11.484954622564459" font-family="Arial Narrow, Arial, sans-serif" fill="#666">Brazil</text><text x="488" y="352.2484773007634" font-size="11.444011341744167" font-family="Arial Narrow, Arial, sans-serif" fill="#666">Pakistan</text><text x="418" y="422.76251542754244" font-size="11.3740915847561" font-family="Arial Narrow, Arial, sans-serif" fill="#666">Bangladesh</text><text x="767" y="145.98653594494687" font-size="11.345351626523014" font-family="Arial Narrow, Arial, sans-serif" fill="#666">Russia</text><text x="844" y="179.30768608955688" font-size="11.305984200318086" font-family="Arial Narrow, Arial, sans-serif" fill="#666">Japan</text><text x="553" y="355.9151172191428" font-size="11.2374304099803" font-family="Arial Narrow, Arial, sans-serif" fill="#666">Philippines</text><text x="296" y="352.1426586952451" font-size="11.213739991278558" font-family="Arial Narrow, Arial, sans-serif" fill="#666">Ethiopia</text><text x="762" y="245.46348105406952" font-size="11.182179966127975" font-family="Arial Narrow, Arial, sans-serif" fill="#666">Turkey</text><text x="174" y="374.5653000375233" font-size="11.172614440736488" font-family="Arial Narrow, Arial, sans-serif" fill="#666">Democratic Republic of Congo</text><text x="689" y="229.59616242737482" font-size="11.169757912104426" font-family="Arial Narrow, Arial, sans-serif" fill="#666">Thailand</text><text x="847" y="199.78628574992186" font-size="11.152600652718023" font-family="Arial Narrow, Arial, sans-serif" fill="#666">United Kingdom</text><text x="379" y="357.1916569233804" font-size="11.118546722536308" font-family="Arial Narrow, Arial, sans-serif" fill="#666">Tanzania</text><text x="501" y="379.1926725171445" font-size="11.118465727800622" font-family="Arial Narrow, Arial, sans-serif" fill="#666">Myanmar</text><text x="827" y="140.20318901029017" font-size="11.11762829575095" font-family="Arial Narrow, Arial, sans-serif" fill="#666">South Korea</text><text x="661" y="321.2218476577929" font-size="11.116148201700142" font-family="Arial Narrow, Arial, sans-serif" fill="#666">Colombia</text><text x="817" y="206.2564551998095" font-size="11.113422268459296" font-family="Arial Narrow, Arial, sans-serif" fill="#666">Spain</text><text x="567" y="215.32982550851415" font-size="11.107726070124592" font-family="Arial Narrow, Arial, sans-serif" fill="#666">Ukraine</text><text x="775" y="209.5367197861696" font-size="11.092270785588937" font-family="Arial Narrow, Arial, sans-serif" fill="#666">Poland</text><text x="671" y="266.58213952988814" font-size="11.088997878065783" font-family="Arial Narrow, Arial, sans-serif" fill="#666">Algeria</text><text x="366" y="370.77224262377496" font-size="11.075768081482707" font-family="Arial Narrow, Arial, sans-serif" fill="#666">Nepal</text><text x="773" y="193.8356628772887" font-size="11.071522865618102" font-family="Arial Narrow, Arial, sans-serif" fill="#666">Malaysia</text><text x="521" y="259.88697193849293" font-size="11.06814999190375" font-family="Arial Narrow, Arial, sans-serif" fill="#666">Uzbekistan</text><text x="457" y="388.97257127015047" font-size="11.062645722634228" font-family="Arial Narrow, Arial, sans-serif" fill="#666">Ghana</text><text x="634" y="351.15978425775216" font-size="11.0511422653694" font-family="Arial Narrow, Arial, sans-serif" fill="#666">Sri Lanka</text><text x="425" y="335.1735560218242" font-size="11.050325033439831" font-family="Arial Narrow, Arial, sans-serif" fill="#666">Cote d'Ivoire</text><text x="756" y="228.32022412707184" font-size="11.041868003904657" font-family="Arial Narrow, Arial, sans-serif" fill="#666">Chile</text><text x="205" y="461.3347411959771" font-size="11.041055438957999" font-family="Arial Narrow, Arial, sans-serif" fill="#666">Niger</text><text x="879" y="163.35562774243897" font-size="11.039894098383117" font-family="Arial Narrow, Arial, sans-serif" fill="#666">Netherlands</text><text x="763" y="159.36487627179807" font-size="11.039382777227804" font-family="Arial Narrow, Arial, sans-serif" fill="#666">Kazakhstan</text><text x="563" y="308.41029748682587" font-size="11.036897589402006" font-family="Arial Narrow, Arial, sans-serif" fill="#666">Guatemala</text><text x="427" y="370.44961117492073" font-size="11.034781455026645" font-family="Arial Narrow, Arial, sans-serif" fill="#666">Cambodia</text><text x="365" y="408.5048427292042" font-size="11.03186319449731" font-family="Arial Narrow, Arial, sans-serif" fill="#666">Senegal</text><text x="332" y="317.5107165974488" font-size="11.031556596545032" font-family="Arial Narrow, Arial, sans-serif" fill="#666">Zimbabwe</text><text x="324" y="542.6273690213876" font-size="11.025617372724023" font-family="Arial Narrow, Arial, sans-serif" fill="#666">South Sudan</text><text x="784" y="224.63605569555003" font-size="11.025186502389635" font-family="Arial Narrow, Arial, sans-serif" fill="#666">Portugal</text><text x="710" y="196.69597424815476" font-size="11.02225751168471" font-family="Arial Narrow, Arial, sans-serif" fill="#666">Belarus</text><text x="707" y="211.80676612084588" font-size="11.017039747087761" font-family="Arial Narrow, Arial, sans-serif" fill="#666">Bulgaria</text><text x="903" y="231.81075216788156" font-size="11.016856814469868" font-family="Arial Narrow, Arial, sans-serif" fill="#666">Hong Kong</text><text x="389" y="389.8155551942712" font-size="11.016636830087021" font-family="Arial Narrow, Arial, sans-serif" fill="#666">Tajikistan</text><text x="575" y="331.8628144476394" font-size="11.014498064972464" font-family="Arial Narrow, Arial, sans-serif" fill="#666">El Salvador</text><text x="497" y="336.87701814754064" font-size="11.013864404274996" font-family="Arial Narrow, Arial, sans-serif" fill="#666">Nicaragua</text><text x="974" y="146.91786948720957" font-size="11.012065481474341" font-family="Arial Narrow, Arial, sans-serif" fill="#666">Singapore</text><text x="686" y="150.92156304436477" font-size="11.011904555550583" font-family="Arial Narrow, Arial, sans-serif" fill="#666">Turkmenistan</text><text x="933" y="134.93514230603174" font-size="11.011315372025845" font-family="Arial Narrow, Arial, sans-serif" fill="#666">Norway</text><text x="685" y="289.94256944189334" font-size="11.010994753699306" font-family="Arial Narrow, Arial, sans-serif" fill="#666">Costa Rica</text><text x="599" y="277.97560522547565" font-size="11.009582646565528" font-family="Arial Narrow, Arial, sans-serif" fill="#666">Georgia</text><text x="741" y="286.01027256668596" font-size="11.008125377509185" font-family="Arial Narrow, Arial, sans-serif" fill="#666">Panama</text><text x="489" y="299.0209413264826" font-size="11.007681972853366" font-family="Arial Narrow, Arial, sans-serif" fill="#666">Moldova</text><text x="734" y="264.0263699670984" font-size="11.007457268067407" font-family="Arial Narrow, Arial, sans-serif" fill="#666">Uruguay</text><text x="948" y="97.05263272889772" font-size="11.006378903631987" font-family="Arial Narrow, Arial, sans-serif" fill="#666">Kuwait</text><text x="639" y="238.05687341950346" font-size="11.006206132993015" font-family="Arial Narrow, Arial, sans-serif" fill="#666">Mongolia</text><text x="581" y="294.0638479430224" font-size="11.005922801965948" font-family="Arial Narrow, Arial, sans-serif" fill="#666">Jamaica</text><text x="1013.3799750719627" y="46.00399399523401" font-size="11.00399399523401" font-family="Arial Narrow, Arial, sans-serif" fill="#666">Qatar</text><text x="872" y="82.1491967625331" font-size="11.0025381321002" font-family="Arial Narrow, Arial, sans-serif" fill="#666">Bahrain</text><text x="812" y="54.150571069252386" font-size="11.002484879445554" font-family="Arial Narrow, Arial, sans-serif" fill="#666">Trinidad and Tobago</text><text x="807" y="245.16402837010986" font-size="11.001965516121977" font-family="Arial Narrow, Arial, sans-serif" fill="#666">Cyprus</text></g><g style="cursor: pointer;" class="ScatterColorLegend clickable"><g class="legendMark"><rect x="1061.4560000000001" y="32.5" width="56.007999999999996" height="21.799999999999997" fill="#fff" opacity="0"></rect>,<rect x="1061.4560000000001" y="39" width="8" height="8" fill="#5675c1"></rect>,<text font-size="16.80" x="1074.5" y="48.4"><tspan x="1074.4560000000001" y="48.44">Africa</tspan></text></g><g class="legendMark"><rect x="1061.4560000000001" y="54.3" width="45.76" height="21.799999999999997" fill="#fff" opacity="0"></rect>,<rect x="1061.4560000000001" y="60.8" width="8" height="8" fill="#d14e5b"></rect>,<text font-size="16.80" x="1074.5" y="70.2"><tspan x="1074.4560000000001" y="70.24">Asia</tspan></text></g><g class="legendMark"><rect x="1061.4560000000001" y="76.1" width="67.43199999999999" height="21.799999999999997" fill="#fff" opacity="0"></rect>,<rect x="1061.4560000000001" y="82.6" width="8" height="8" fill="#ffd336"></rect>,<text font-size="16.80" x="1074.5" y="92.0"><tspan x="1074.4560000000001" y="92.03999999999999">Europe</tspan></text></g><g class="legendMark"><rect x="1061.4560000000001" y="97.89999999999999" width="120.51999999999998" height="21.799999999999997" fill="#fff" opacity="0"></rect>,<rect x="1061.4560000000001" y="104.39999999999999" width="8" height="8" fill="#4d824b"></rect>,<text font-size="16.80" x="1074.5" y="113.8"><tspan x="1074.4560000000001" y="113.83999999999999">North America</tspan></text></g><g class="legendMark"><rect x="1061.4560000000001" y="119.69999999999999" width="75.832" height="21.799999999999997" fill="#fff" opacity="0"></rect>,<rect x="1061.4560000000001" y="126.19999999999999" width="8" height="8" fill="#a652ba"></rect>,<text font-size="16.80" x="1074.5" y="135.6"><tspan x="1074.4560000000001" y="135.64">Oceania</tspan></text></g><g class="legendMark"><rect x="1061.4560000000001" y="141.5" width="123.54399999999998" height="21.799999999999997" fill="#fff" opacity="0"></rect>,<rect x="1061.4560000000001" y="148" width="8" height="8" fill="#69c487"></rect>,<text font-size="16.80" x="1074.5" y="157.4"><tspan x="1074.4560000000001" y="157.44">South America</tspan></text></g></g></g></g></svg>