<svg xmlns="http://www.w3.org/2000/svg" version="1.1" style="font-family: 'Helvetica Neue', Helvetica, Arial, sans-serif; font-size: 24px; background-color: white;" width="1200" height="630"><g class="ChartTab"><g><g class="AxisBoxView"><g class="HorizontalAxis"><text font-size="16.80" x="381.6" y="596.6"><tspan x="381.5640000000001" y="596.64">Share of people in extreme poverty (%)</tspan></text><text x="162.6" y="573.2" fill="#666" text-anchor="middle" font-size="21.6">0%</text><text x="276.6" y="573.2" fill="#666" text-anchor="middle" font-size="21.6">10%</text><text x="390.6" y="573.2" fill="#666" text-anchor="middle" font-size="21.6">20%</text><text x="504.6" y="573.2" fill="#666" text-anchor="middle" font-size="21.6">30%</text><text x="618.7" y="573.2" fill="#666" text-anchor="middle" font-size="21.6">40%</text><text x="732.7" y="573.2" fill="#666" text-anchor="middle" font-size="21.6">50%</text><text x="846.7" y="573.2" fill="#666" text-anchor="middle" font-size="21.6">60%</text><text x="960.7" y="573.2" fill="#666" text-anchor="middle" font-size="21.6">70%</text></g><g class="VerticalAxis"><text font-size="16.80" x="-501.2" y="28.4" transform="rotate(-90)"><tspan x="-501.20799999999997" y="28.439999999999998">Per capita energy use (kg oil equivalent per year)</tspan></text><text x="157.58" y="546.6" fill="#666" dominant-baseline="middle" text-anchor="end" font-size="21.6">0 kWh</text><text x="157.58" y="460" fill="#666" dominant-baseline="middle" text-anchor="end" font-size="21.6">10,000 kWh</text><text x="157.58" y="373.4" fill="#666" dominant-baseline="middle" text-anchor="end" font-size="21.6">20,000 kWh</text><text x="157.58" y="286.7" fill="#666" dominant-baseline="middle" text-anchor="end" font-size="21.6">30,000 kWh</text><text x="157.58" y="200.1" fill="#666" dominant-baseline="middle" text-anchor="end" font-size="21.6">40,000 kWh</text><text x="157.58" y="113.5" fill="#666" dominant-baseline="middle" text-anchor="end" font-size="21.6">50,000 kWh</text></g><g class="AxisGridLines"><line x1="162.58" y1="546.6" x2="1041.46" y2="546.6" stroke="#ccc"></line><line x1="162.58" y1="460" x2="1041.46" y2="460" stroke="#ddd" stroke-dasharray="3,2"></line><line x1="162.58" y1="373.4" x2="1041.46" y2="373.4" stroke="#ddd" stroke-dasharray="3,2"></line><line x1="162.58" y1="286.7" x2="1041.46" y2="286.7" stroke="#ddd" stroke-dasharray="3,2"></line><line x1="162.58" y1="200.1" x2="1041.46" y2="200.1" stroke="#ddd" stroke-dasharray="3,2"></line><line x1="162.58" y1="113.5" x2="1041.46" y2="113.5" stroke="#ddd" stroke-dasharray="3,2"></line></g><g class="AxisGridLines"><line x1="162.6" y1="546.60" x2="162.6" y2="35.00" stroke="#ccc"></line><line x1="276.6" y1="546.60" x2="276.6" y2="35.00" stroke="#ddd" stroke-dasharray="3,2"></line><line x1="390.6" y1="546.60" x2="390.6" y2="35.00" stroke="#ddd" stroke-dasharray="3,2"></line><line x1="504.6" y1="546.60" x2="504.6" y2="35.00" stroke="#ddd" stroke-dasharray="3,2"></line><line x1="618.7" y1="546.60" x2="618.7" y2="35.00" stroke="#ddd" stroke-dasharray="3,2"></line><line x1="732.7" y1="546.60" x2="732.7" y2="35.00" stroke="#ddd" stroke-dasharray="3,2"></line><line x1="846.7" y1="546.60" x2="846.7" y2="35.00" stroke="#ddd" stroke-dasharray="3,2"></line><line x1="960.7" y1="546.60" x2="960.7" y2="35.00" stroke="#ddd" stroke-dasharray="3,2"></line></g></g><g clip-path="url(#scatterBounds-721)" class="PointsWithLabels clickable"><rect x="162.57600000000002" y="35" width="878.8800000000001" height="511.6" fill="rgba(255,255,255,0)"></rect><defs><clipPath id="scatterBounds-721"><rect x="152.57600000000002" y="25" width="898.8800000000001" height="531.6"></rect></clipPath></defs><circle cx="183" cy="323" r="17.841241161527712" fill="#d14e5b" opacity="0.8"></circle><circle cx="404" cy="485" r="17.285096592732973" fill="#d14e5b" opacity="0.8"></circle><circle cx="274" cy="459" r="7.769540127828876" fill="#d14e5b" opacity="0.8"></circle><circle cx="218" cy="400" r="7.030879698322043" fill="#69c487" opacity="0.8"></circle><circle cx="231" cy="497" r="6.747044344578734" fill="#d14e5b" opacity="0.8"></circle><circle cx="772" cy="468" r="6.532439344239327" fill="#5675c1" opacity="0.8"></circle><circle cx="373" cy="524" r="6.2325181477788725" fill="#d14e5b" opacity="0.8"></circle><circle cx="163" cy="35" r="6.008261835752904" fill="#ffd336" opacity="0.8"></circle><circle cx="197" cy="388" r="5.5029631633458775" fill="#4d824b" opacity="0.8"></circle><circle cx="312" cy="500" r="5.078504595144322" fill="#d14e5b" opacity="0.8"></circle><circle cx="197" cy="479" r="4.905294205673181" fill="#d14e5b" opacity="0.8"></circle><circle cx="545" cy="496" r="4.850612243290148" fill="#5675c1" opacity="0.8"></circle><circle cx="163" cy="259" r="4.555992244204119" fill="#d14e5b" opacity="0.8"></circle><circle cx="166" cy="391" r="4.529239529372936" fill="#d14e5b" opacity="0.8"></circle><circle cx="1041" cy="507" r="4.427230269124872" fill="#5675c1" opacity="0.8"></circle><circle cx="163" cy="346" r="4.396308565368181" fill="#d14e5b" opacity="0.8"></circle><circle cx="351" cy="282" r="3.854882041342608" fill="#5675c1" opacity="0.8"></circle><circle cx="693" cy="498" r="3.7994916320348064" fill="#5675c1" opacity="0.8"></circle><circle cx="232" cy="475" r="3.7692232655054436" fill="#69c487" opacity="0.8"></circle><circle cx="162" cy="289" r="3.660957721000404" fill="#ffd336" opacity="0.8"></circle><circle cx="182" cy="350" r="3.5574103035453772" fill="#69c487" opacity="0.8"></circle><circle cx="162" cy="288" r="3.4534639627132178" fill="#ffd336" opacity="0.8"></circle><circle cx="332" cy="508" r="3.372224877439205" fill="#5675c1" opacity="0.8"></circle><circle cx="333" cy="506" r="3.2171683010122023" fill="#d14e5b" opacity="0.8"></circle><circle cx="204" cy="479" r="3.1640929881790347" fill="#69c487" opacity="0.8"></circle><circle cx="165" cy="248" r="3.153520852466499" fill="#d14e5b" opacity="0.8"></circle><circle cx="946" cy="504" r="2.9733786911444895" fill="#5675c1" opacity="0.8"></circle><circle cx="184" cy="497" r="2.8280838772375403" fill="#d14e5b" opacity="0.8"></circle><circle cx="162" cy="385" r="2.8258252439027496" fill="#ffd336" opacity="0.8"></circle><circle cx="493" cy="484" r="2.814249672289319" fill="#5675c1" opacity="0.8"></circle><circle cx="436" cy="512" r="2.808321296201153" fill="#5675c1" opacity="0.8"></circle><circle cx="506" cy="492" r="2.800087801343358" fill="#5675c1" opacity="0.8"></circle><circle cx="173" cy="323" r="2.6668774586339326" fill="#69c487" opacity="0.8"></circle><circle cx="683" cy="530" r="2.65228655003245" fill="#5675c1" opacity="0.8"></circle><circle cx="163" cy="64" r="2.6219956349218028" fill="#d14e5b" opacity="0.8"></circle><circle cx="268" cy="468" r="2.5763327717034055" fill="#4d824b" opacity="0.8"></circle><circle cx="213" cy="461" r="2.5552668469688187" fill="#69c487" opacity="0.8"></circle><circle cx="187" cy="506" r="2.5368030691560017" fill="#d14e5b" opacity="0.8"></circle><circle cx="897" cy="482" r="2.5211439197117333" fill="#5675c1" opacity="0.8"></circle><circle cx="595" cy="520" r="2.4812566753855076" fill="#5675c1" opacity="0.8"></circle><circle cx="406" cy="471" r="2.475348511168096" fill="#5675c1" opacity="0.8"></circle><circle cx="649" cy="540" r="2.3579801613744165" fill="#5675c1" opacity="0.8"></circle><circle cx="185" cy="451" r="2.3546188842764346" fill="#5675c1" opacity="0.8"></circle><circle cx="163" cy="144" r="2.3435673163733735" fill="#ffd336" opacity="0.8"></circle><circle cx="250" cy="471" r="2.334641418117787" fill="#69c487" opacity="0.8"></circle><circle cx="777" cy="507" r="2.3335813537252976" fill="#4d824b" opacity="0.8"></circle><circle cx="189" cy="471" r="2.329611709511532" fill="#4d824b" opacity="0.8"></circle><circle cx="165" cy="317" r="2.310878923753473" fill="#ffd336" opacity="0.8"></circle><circle cx="164" cy="337" r="2.3059164200567492" fill="#ffd336" opacity="0.8"></circle><circle cx="768" cy="505" r="2.2943977175937964" fill="#5675c1" opacity="0.8"></circle><circle cx="168" cy="398" r="2.2907006803802705" fill="#d14e5b" opacity="0.8"></circle><circle cx="162" cy="256" r="2.288920319567593" fill="#ffd336" opacity="0.8"></circle><circle cx="378" cy="486" r="2.2154572560757355" fill="#4d824b" opacity="0.8"></circle><circle cx="185" cy="312" r="2.1773346024118854" fill="#ffd336" opacity="0.8"></circle><circle cx="419" cy="514" r="2.168479122129403" fill="#d14e5b" opacity="0.8"></circle><circle cx="187" cy="469" r="2.147776065603265" fill="#69c487" opacity="0.8"></circle><circle cx="780" cy="500" r="2.1268506118149935" fill="#5675c1" opacity="0.8"></circle><circle cx="199" cy="482" r="2.1208534623632027" fill="#4d824b" opacity="0.8"></circle><circle cx="233" cy="487" r="2.1065364599437864" fill="#4d824b" opacity="0.8"></circle><circle cx="199" cy="477" r="2.0766803057197407" fill="#d14e5b" opacity="0.8"></circle><circle cx="165" cy="231" r="2.075871686693214" fill="#ffd336" opacity="0.8"></circle><circle cx="181" cy="442" r="2.040442028602092" fill="#4d824b" opacity="0.8"></circle><circle cx="173" cy="346" r="2.0129113199532167" fill="#ffd336" opacity="0.8"></circle><circle cx="584" cy="490" r="2.0097629633952674" fill="#5675c1" opacity="0.8"></circle><circle cx="293" cy="442" r="2.00711920033855" fill="#d14e5b" opacity="0.8"></circle><circle cx="163" cy="366" r="1.9755253414572624" fill="#ffd336" opacity="0.8"></circle><circle cx="195" cy="442" r="1.972140384150928" fill="#4d824b" opacity="0.8"></circle><circle cx="163" cy="459" r="1.961373570690371" fill="#ffd336" opacity="0.8"></circle><circle cx="166" cy="410" r="1.955894629352257" fill="#69c487" opacity="0.8"></circle><circle cx="174" cy="309" r="1.9484824881366118" fill="#ffd336" opacity="0.8"></circle><circle cx="174" cy="465" r="1.9460991943452843" fill="#ffd336" opacity="0.8"></circle><circle cx="190" cy="445" r="1.9388999778750304" fill="#d14e5b" opacity="0.8"></circle><circle cx="165" cy="361" r="1.9251033011247387" fill="#d14e5b" opacity="0.8"></circle><circle cx="420" cy="471" r="1.8957617661717034" fill="#5675c1" opacity="0.8"></circle><circle cx="178" cy="329" r="1.88482875100742" fill="#ffd336" opacity="0.8"></circle><circle cx="370" cy="429" r="1.8754757133344777" fill="#5675c1" opacity="0.8"></circle><circle cx="177" cy="415" r="1.875141979619803" fill="#ffd336" opacity="0.8"></circle><circle cx="162" cy="211" r="1.8736291372293772" fill="#ffd336" opacity="0.8"></circle><circle cx="173" cy="80" r="1.8294155648009043" fill="#ffd336" opacity="0.8"></circle><circle cx="168" cy="436" r="1.8282712409101969" fill="#5675c1" opacity="0.8"></circle><circle cx="174" cy="387" r="1.7841241161527712" fill="#ffd336" opacity="0.8"></circle><circle cx="202" cy="338" r="1.7424841054317164" fill="#000" opacity="0.8"></circle><circle cx="187" cy="222" r="1.7424841054317164" fill="#000" opacity="0.8"></circle><circle cx="600" cy="488" r="1.7424841054317164" fill="#000" opacity="0.8"></circle><circle cx="246" cy="390" r="1.7424841054317164" fill="#000" opacity="0.8"></circle><circle cx="307" cy="412" r="1.7424841054317164" fill="#000" opacity="0.8"></circle><circle cx="410" cy="479" r="1.7424841054317164" fill="#000" opacity="0.8"></circle><circle cx="543" cy="508" r="1.7424841054317164" fill="#000" opacity="0.8"></circle><circle cx="492" cy="497" r="1.7424841054317164" fill="#000" opacity="0.8"></circle><circle cx="224" cy="407" r="1.7424841054317164" fill="#000" opacity="0.8"></circle><circle cx="305" cy="414" r="1.7424841054317164" fill="#000" opacity="0.8"></circle><circle cx="349" cy="482" r="1.7424841054317164" fill="#000" opacity="0.8"></circle><circle cx="186" cy="330" r="1.7424841054317164" fill="#000" opacity="0.8"></circle><circle cx="274" cy="408" r="1.7424841054317164" fill="#000" opacity="0.8"></circle><circle cx="334" cy="491" r="1.7424841054317164" fill="#000" opacity="0.8"></circle><circle cx="630" cy="477" r="1.7424841054317164" fill="#000" opacity="0.8"></circle><circle cx="192" cy="324" r="1.7424841054317164" fill="#000" opacity="0.8"></circle><circle cx="284" cy="355" r="1.7424841054317164" fill="#000" opacity="0.8"></circle><circle cx="171" cy="416" r="1.7424841054317164" fill="#ffd336" opacity="0.8"></circle><text x="183" y="304.1587588384723" font-size="14.3" font-family="Arial Narrow, Arial, sans-serif" fill="#666">China</text><text x="404" y="466.714903407267" font-size="14.095426586777958" font-family="Arial Narrow, Arial, sans-serif" fill="#666">India</text><text x="274" y="450.23045987217114" font-size="11.598815362200096" font-family="Arial Narrow, Arial, sans-serif" fill="#666">Indonesia</text><text x="218" y="391.96912030167795" font-size="11.484330652590693" font-family="Arial Narrow, Arial, sans-serif" fill="#666">Brazil</text><text x="231" y="489.25295565542126" font-size="11.443378296471629" font-family="Arial Narrow, Arial, sans-serif" fill="#666">Pakistan</text><text x="772" y="460.4675606557607" font-size="11.413534804063305" font-family="Arial Narrow, Arial, sans-serif" fill="#666">Nigeria</text><text x="373" y="516.7674818522212" font-size="11.373443041392736" font-family="Arial Narrow, Arial, sans-serif" fill="#666">Bangladesh</text><text x="163" y="46.34469671279307" font-size="11.344696712793073" font-family="Arial Narrow, Arial, sans-serif" fill="#666">Russia</text><text x="312" y="493.9214954048557" font-size="11.236751574931297" font-family="Arial Narrow, Arial, sans-serif" fill="#666">Philippines</text><text x="197" y="473.09470579432684" font-size="11.218642411987142" font-family="Arial Narrow, Arial, sans-serif" fill="#666">Vietnam</text><text x="545" y="490.14938775670987" font-size="11.213055905120617" font-family="Arial Narrow, Arial, sans-serif" fill="#666">Ethiopia</text><text x="163" y="253.4440077557959" font-size="11.184034146494831" font-family="Arial Narrow, Arial, sans-serif" fill="#666">Iran</text><text x="166" y="385.47076047062706" font-size="11.181488884520432" font-family="Arial Narrow, Arial, sans-serif" fill="#666">Turkey</text><text x="889.0618711512495" y="501.5727697308751" font-size="11.171921238878712" font-family="Arial Narrow, Arial, sans-serif" fill="#666">Democratic Republic of Congo</text><text x="163" y="340.60369143463174" font-size="11.169064077081686" font-family="Arial Narrow, Arial, sans-serif" fill="#666">Thailand</text><text x="351" y="277.1451179586574" font-size="11.122281432839168" font-family="Arial Narrow, Arial, sans-serif" fill="#666">South Africa</text><text x="693" y="493.2005083679652" font-size="11.117841536277504" font-family="Arial Narrow, Arial, sans-serif" fill="#666">Tanzania</text><text x="162" y="284.3390422789996" font-size="11.107018485409885" font-family="Arial Narrow, Arial, sans-serif" fill="#666">Ukraine</text><text x="184" y="493.17191612276247" font-size="11.050422138549528" font-family="Arial Narrow, Arial, sans-serif" fill="#666">Sri Lanka</text><text x="436" y="508.19167870379886" font-size="11.049255666097903" font-family="Arial Narrow, Arial, sans-serif" fill="#666">Cameroon</text><text x="506" y="488.19991219865665" font-size="11.048772103700909" font-family="Arial Narrow, Arial, sans-serif" fill="#666">Angola</text><text x="173" y="319.3331225413661" font-size="11.041145821394766" font-family="Arial Narrow, Arial, sans-serif" fill="#666">Chile</text><text x="683" y="526.3477134499675" font-size="11.040333076338712" font-family="Arial Narrow, Arial, sans-serif" fill="#666">Niger</text><text x="163" y="60.3780043650782" font-size="11.038660043854033" font-family="Arial Narrow, Arial, sans-serif" fill="#666">Kazakhstan</text><text x="268" y="464.4236672282966" font-size="11.036174305172963" font-family="Arial Narrow, Arial, sans-serif" fill="#666">Guatemala</text><text x="213" y="457.44473315303117" font-size="11.035042264814106" font-family="Arial Narrow, Arial, sans-serif" fill="#666">Ecuador</text><text x="897" y="478.47885608028827" font-size="11.033228288320997" font-family="Arial Narrow, Arial, sans-serif" fill="#666">Zambia</text><text x="595" y="516.5187433246145" font-size="11.031138794367514" font-family="Arial Narrow, Arial, sans-serif" fill="#666">Senegal</text><text x="163" y="140.65643268362663" font-size="11.024181979100312" font-family="Arial Narrow, Arial, sans-serif" fill="#666">Czech Republic</text><text x="777" y="503.6664186462747" font-size="11.02369287677219" font-family="Arial Narrow, Arial, sans-serif" fill="#666">Haiti</text><text x="378" y="482.78454274392425" font-size="11.018065749411091" font-family="Arial Narrow, Arial, sans-serif" fill="#666">Honduras</text><text x="165" y="227.9241283133068" font-size="11.011792956556455" font-family="Arial Narrow, Arial, sans-serif" fill="#666">Slovakia</text><text x="181" y="438.9595579713979" font-size="11.010265727967179" font-family="Arial Narrow, Arial, sans-serif" fill="#666">Costa Rica</text><text x="163" y="363.0244746585427" font-size="11.007535649421484" font-family="Arial Narrow, Arial, sans-serif" fill="#666">Bosnia and Herzegovina</text><text x="163" y="456.0386264293096" font-size="11.006952212825517" font-family="Arial Narrow, Arial, sans-serif" fill="#666">Moldova</text><text x="166" y="407.04410537064774" font-size="11.006727458232533" font-family="Arial Narrow, Arial, sans-serif" fill="#666">Uruguay</text><text x="370" y="426.1245242866655" font-size="11.003500889164725" font-family="Arial Narrow, Arial, sans-serif" fill="#666">Botswana</text><text x="162" y="208.1263708627706" font-size="11.003428391600421" font-family="Arial Narrow, Arial, sans-serif" fill="#666">Slovenia</text><text x="173" y="77.17058443519909" font-size="11.001713869136145" font-family="Arial Narrow, Arial, sans-serif" fill="#666">Estonia</text><text x="307" y="409.25751589456826" font-size="10.9984622112965" font-family="Arial Narrow, Arial, sans-serif" fill="#666">IDA &amp; IBRD total</text><text x="543" y="505.25751589456826" font-size="10.9984622112965" font-family="Arial Narrow, Arial, sans-serif" fill="#666">IDA only</text><text x="630" y="474.25751589456826" font-size="10.9984622112965" font-family="Arial Narrow, Arial, sans-serif" fill="#666">Sub-Saharan Africa</text><text x="284" y="352.25751589456826" font-size="10.9984622112965" font-family="Arial Narrow, Arial, sans-serif" fill="#666">World</text></g><g style="cursor: pointer;" class="ScatterColorLegend clickable"><g class="legendMark"><rect x="1061.4560000000001" y="32.5" width="56.007999999999996" height="21.799999999999997" fill="#fff" opacity="0"></rect>,<rect x="1061.4560000000001" y="39" width="8" height="8" fill="#5675c1"></rect>,<text font-size="16.80" x="1074.5" y="48.4"><tspan x="1074.4560000000001" y="48.44">Africa</tspan></text></g><g class="legendMark"><rect x="1061.4560000000001" y="54.3" width="45.76" height="21.799999999999997" fill="#fff" opacity="0"></rect>,<rect x="1061.4560000000001" y="60.8" width="8" height="8" fill="#d14e5b"></rect>,<text font-size="16.80" x="1074.5" y="70.2"><tspan x="1074.4560000000001" y="70.24">Asia</tspan></text></g><g class="legendMark"><rect x="1061.4560000000001" y="76.1" width="67.43199999999999" height="21.799999999999997" fill="#fff" opacity="0"></rect>,<rect x="1061.4560000000001" y="82.6" width="8" height="8" fill="#ffd336"></rect>,<text font-size="16.80" x="1074.5" y="92.0"><tspan x="1074.4560000000001" y="92.03999999999999">Europe</tspan></text></g><g class="legendMark"><rect x="1061.4560000000001" y="97.89999999999999" width="120.51999999999998" height="21.799999999999997" fill="#fff" opacity="0"></rect>,<rect x="1061.4560000000001" y="104.39999999999999" width="8" height="8" fill="#4d824b"></rect>,<text font-size="16.80" x="1074.5" y="113.8"><tspan x="1074.4560000000001" y="113.83999999999999">North America</tspan></text></g><g class="legendMark"><rect x="1061.4560000000001" y="119.69999999999999" width="123.54399999999998" height="21.799999999999997" fill="#fff" opacity="0"></rect>,<rect x="1061.4560000000001" y="126.19999999999999" width="8" height="8" fill="#69c487"></rect>,<text font-size="16.80" x="1074.5" y="135.6"><tspan x="1074.4560000000001" y="135.64">South America</tspan></text></g></g></g></g></svg>