<svg xmlns="http://www.w3.org/2000/svg" version="1.1" style="font-family: 'Helvetica Neue', Helvetica, Arial, sans-serif; font-size: 18px; background-color: white; text-rendering: optimizeLegibility; -webkit-font-smoothing: antialiased;" width="850" height="600"><g class="ChartTab"><g class="HeaderView"><g opacity="0.8" transform="translate(778, 15) scale(0.27)"><a xmlns:xlink="http://www.w3.org/1999/xlink" xlink:href="https://ourworldindata.org" target="_blank"><g><rect x="0" y="0" fill="#1B2543" width="211.2" height="130.1"/><rect x="0" y="112.2" fill="#E63912" width="211.2" height="17.9"/><g><rect x="1.2" y="12.3" fill="none" width="210.2" height="99.2"/><path fill="#FFFFFF" d="M37.8,32.2c0,12.7-7.7,19.4-17.1,19.4c-9.7,0-16.6-7.5-16.6-18.7c0-11.7,7.3-19.3,17.1-19.3 C31.3,13.7,37.8,21.3,37.8,32.2z M9.2,32.8c0,7.9,4.3,14.9,11.8,14.9c7.5,0,11.8-6.9,11.8-15.3c0-7.3-3.8-14.9-11.8-14.9 C13.1,17.5,9.2,24.8,9.2,32.8z"/><path fill="#FFFFFF" d="M62.7,43.8c0,2.7,0.1,5.1,0.2,7.2h-4.3l-0.3-4.3h-0.1c-1.3,2.1-4,4.9-8.8,4.9c-4.2,0-9.1-2.3-9.1-11.6 V24.6h4.8v14.6c0,5,1.5,8.4,5.9,8.4c3.2,0,5.5-2.2,6.3-4.4c0.3-0.7,0.4-1.6,0.4-2.5V24.6h4.8V43.8z"/><path fill="#FFFFFF" d="M67.3,32.8c0-3.1-0.1-5.8-0.2-8.2h4.2l0.2,5.2h0.2c1.2-3.5,4.1-5.8,7.3-5.8c0.5,0,0.9,0.1,1.4,0.2v4.5 c-0.5-0.1-1-0.2-1.6-0.2c-3.4,0-5.8,2.6-6.5,6.2c-0.1,0.7-0.2,1.4-0.2,2.2V51h-4.8V32.8z"/><path fill="#FFFFFF" d="M95.4,51l-9.4-36.8h5l4.4,18.6c1.1,4.6,2.1,9.2,2.7,12.7h0.1c0.6-3.7,1.8-8,3-12.8l4.9-18.5h5l4.5,18.7 c1,4.4,2,8.7,2.6,12.6h0.1c0.8-4,1.8-8.1,3-12.7l4.9-18.5h4.9L120.6,51h-5L111,31.9c-1.1-4.7-1.9-8.3-2.4-12h-0.1 c-0.7,3.7-1.5,7.3-2.8,12L100.4,51H95.4z"/><path fill="#FFFFFF" d="M154.9,37.6c0,9.8-6.8,14-13.2,14c-7.2,0-12.7-5.2-12.7-13.6c0-8.8,5.8-14,13.1-14 C149.8,24,154.9,29.5,154.9,37.6z M133.9,37.9c0,5.8,3.3,10.1,8,10.1c4.6,0,8-4.3,8-10.3c0-4.5-2.2-10.1-7.9-10.1 C136.3,27.6,133.9,32.8,133.9,37.9z"/><path fill="#FFFFFF" d="M158.2,32.8c0-3.1-0.1-5.8-0.2-8.2h4.2l0.2,5.2h0.2c1.2-3.5,4.1-5.8,7.3-5.8c0.5,0,0.9,0.1,1.4,0.2v4.5 c-0.5-0.1-1-0.2-1.6-0.2c-3.4,0-5.8,2.6-6.5,6.2c-0.1,0.7-0.2,1.4-0.2,2.2V51h-4.8V32.8z"/><path fill="#FFFFFF" d="M173.5,12.3h4.8V51h-4.8V12.3z"/><path fill="#FFFFFF" d="M206.5,12.3v31.9c0,2.3,0.1,5,0.2,6.8h-4.3l-0.2-4.6H202c-1.5,2.9-4.7,5.2-9,5.2 c-6.4,0-11.3-5.4-11.3-13.4c-0.1-8.8,5.4-14.2,11.9-14.2c4,0,6.8,1.9,8,4h0.1V12.3H206.5z M201.7,35.4c0-0.6-0.1-1.4-0.2-2 c-0.7-3.1-3.3-5.6-6.9-5.6c-5,0-7.9,4.4-7.9,10.2c0,5.3,2.6,9.8,7.8,9.8c3.2,0,6.2-2.1,7.1-5.7c0.2-0.7,0.2-1.3,0.2-2.1V35.4z"/><path fill="#FFFFFF" d="M42.8,64c0.1,1.6-1.1,2.9-3.1,2.9c-1.7,0-2.9-1.3-2.9-2.9c0-1.7,1.3-3,3-3C41.7,61,42.8,62.3,42.8,64z M37.4,97.8V71.4h4.8v26.4H37.4z"/><path fill="#FFFFFF" d="M47.5,78.6c0-2.7-0.1-5-0.2-7.1h4.3l0.3,4.4h0.1c1.3-2.5,4.4-5,8.8-5c3.7,0,9.4,2.2,9.4,11.2v15.8h-4.8 V82.6c0-4.3-1.6-7.8-6.1-7.8c-3.2,0-5.6,2.2-6.5,4.9c-0.2,0.6-0.3,1.4-0.3,2.2v15.9h-4.8V78.6z"/><path fill="#FFFFFF" d="M84,61.6c2.9-0.4,6.3-0.8,10.1-0.8c6.8,0,11.7,1.6,14.9,4.6c3.3,3,5.2,7.3,5.2,13.2c0,6-1.9,10.9-5.3,14.3 c-3.4,3.4-9.1,5.3-16.3,5.3c-3.4,0-6.2-0.2-8.6-0.4V61.6z M88.8,94.1c1.2,0.2,3,0.3,4.8,0.3c10.2,0,15.7-5.7,15.7-15.6 c0.1-8.7-4.9-14.2-14.9-14.2c-2.5,0-4.3,0.2-5.6,0.5V94.1z"/><path fill="#FFFFFF" d="M132.1,97.8l-0.4-3.3h-0.2c-1.5,2.1-4.3,3.9-8.1,3.9c-5.4,0-8.1-3.8-8.1-7.6c0-6.4,5.7-9.9,15.9-9.8v-0.5 c0-2.2-0.6-6.1-6-6.1c-2.5,0-5,0.8-6.9,2l-1.1-3.2c2.2-1.4,5.4-2.3,8.7-2.3c8.1,0,10.1,5.5,10.1,10.8v9.9c0,2.3,0.1,4.5,0.4,6.3 H132.1z M131.4,84.4c-5.3-0.1-11.2,0.8-11.2,5.9c0,3.1,2.1,4.6,4.5,4.6c3.4,0,5.6-2.2,6.4-4.4c0.2-0.5,0.3-1,0.3-1.5V84.4z"/><path fill="#FFFFFF" d="M146.6,63.9v7.6h6.9v3.7h-6.9v14.2c0,3.3,0.9,5.1,3.6,5.1c1.3,0,2.2-0.2,2.8-0.3l0.2,3.6 c-0.9,0.4-2.4,0.7-4.3,0.7c-2.2,0-4-0.7-5.2-2c-1.4-1.4-1.9-3.8-1.9-6.9V75.1h-4.1v-3.7h4.1v-6.3L146.6,63.9z"/><path fill="#FFFFFF" d="M171.4,97.8l-0.4-3.3h-0.2c-1.5,2.1-4.3,3.9-8.1,3.9c-5.4,0-8.1-3.8-8.1-7.6c0-6.4,5.7-9.9,15.9-9.8v-0.5 c0-2.2-0.6-6.1-6-6.1c-2.5,0-5,0.8-6.9,2l-1.1-3.2c2.2-1.4,5.4-2.3,8.7-2.3c8.1,0,10.1,5.5,10.1,10.8v9.9c0,2.3,0.1,4.5,0.4,6.3 H171.4z M170.7,84.4c-5.3-0.1-11.2,0.8-11.2,5.9c0,3.1,2.1,4.6,4.5,4.6c3.4,0,5.6-2.2,6.4-4.4c0.2-0.5,0.3-1,0.3-1.5V84.4z"/></g></g></a></g><a href="https://ourworldindata.org/grapher/exports-from-western-europe-to-other-regions" target="_blank"><text font-size="25.20" x="15.0" y="35.2" fill="#555"><tspan x="15" y="35.160000000000004">Value of exports from Western Europe to other regions (%GDP)</tspan></text></a><text font-size="14.40" x="15.0" y="53.7" fill="#666"><tspan x="15" y="53.72">Breakdown of Western European exports by region of destination. Figures correspond to exports as a share of GDP.</tspan></text></g><g class="StackedArea"><defs><clipPath id="boundsClip-1"><rect x="52.562" y="0" width="820" height="959.8"></rect></clipPath></defs><g class="AxisBoxView"><g class="HorizontalAxis"><text x="52.6" y="556.5" fill="#666" text-anchor="middle" font-size="16.2">1827</text><text x="96.9" y="556.5" fill="#666" text-anchor="middle" font-size="16.2">1840</text><text x="165.1" y="556.5" fill="#666" text-anchor="middle" font-size="16.2">1860</text><text x="233.3" y="556.5" fill="#666" text-anchor="middle" font-size="16.2">1880</text><text x="301.4" y="556.5" fill="#666" text-anchor="middle" font-size="16.2">1900</text><text x="369.6" y="556.5" fill="#666" text-anchor="middle" font-size="16.2">1920</text><text x="437.8" y="556.5" fill="#666" text-anchor="middle" font-size="16.2">1940</text><text x="506" y="556.5" fill="#666" text-anchor="middle" font-size="16.2">1960</text><text x="574.2" y="556.5" fill="#666" text-anchor="middle" font-size="16.2">1980</text><text x="642.4" y="556.5" fill="#666" text-anchor="middle" font-size="16.2">2000</text><text x="690.1" y="556.5" fill="#666" text-anchor="middle" font-size="16.2">2014</text></g><g class="VerticalAxis"><text x="47.56" y="535.3" fill="#666" dominant-baseline="middle" text-anchor="end" font-size="16.2">0%</text><text x="47.56" y="460.4" fill="#666" dominant-baseline="middle" text-anchor="end" font-size="16.2">5%</text><text x="47.56" y="385.6" fill="#666" dominant-baseline="middle" text-anchor="end" font-size="16.2">10%</text><text x="47.56" y="310.7" fill="#666" dominant-baseline="middle" text-anchor="end" font-size="16.2">15%</text><text x="47.56" y="235.9" fill="#666" dominant-baseline="middle" text-anchor="end" font-size="16.2">20%</text><text x="47.56" y="161" fill="#666" dominant-baseline="middle" text-anchor="end" font-size="16.2">25%</text><text x="47.56" y="86.1" fill="#666" dominant-baseline="middle" text-anchor="end" font-size="16.2">30%</text></g><g class="AxisGridLines"><line x1="52.56" y1="535.3" x2="690.11" y2="535.3" stroke="#ccc"></line><line x1="52.56" y1="460.4" x2="690.11" y2="460.4" stroke="#ddd" stroke-dasharray="3,2"></line><line x1="52.56" y1="385.6" x2="690.11" y2="385.6" stroke="#ddd" stroke-dasharray="3,2"></line><line x1="52.56" y1="310.7" x2="690.11" y2="310.7" stroke="#ddd" stroke-dasharray="3,2"></line><line x1="52.56" y1="235.9" x2="690.11" y2="235.9" stroke="#ddd" stroke-dasharray="3,2"></line><line x1="52.56" y1="161" x2="690.11" y2="161" stroke="#ddd" stroke-dasharray="3,2"></line><line x1="52.56" y1="86.1" x2="690.11" y2="86.1" stroke="#ddd" stroke-dasharray="3,2"></line></g></g><g clip-path="url(#boundsClip-1)"><g class="HeightedLegend clickable"><g class="legendMark"><g class="indicator"><line x1="695.11" y1="95.3" x2="714.2766666666666" y2="95.3" stroke="#666" stroke-width="0.5"></line><line x1="714.2766666666666" y1="95.3" x2="714.2766666666666" y2="95.3" stroke="#666" stroke-width="0.5"></line><line x1="714.2766666666666" y1="95.3" x2="720.11" y2="95.3" stroke="#666" stroke-width="0.5"></line></g><rect x="690.11" y="81.25" width="141.11" height="28.1" fill="#fff" opacity="0"></rect><text font-size="13.50" x="725.1" y="92.0" fill="#34983f"><tspan x="725.11" y="92.05">Western Europe -</tspan><tspan x="725.11" y="106.9">Africa</tspan></text></g><g class="legendMark"><g class="indicator"><line x1="695.11" y1="104.7" x2="707.61" y2="104.7" stroke="#666" stroke-width="0.5"></line><line x1="707.61" y1="104.7" x2="707.61" y2="125.39999999999999" stroke="#666" stroke-width="0.5"></line><line x1="707.61" y1="125.39999999999999" x2="720.11" y2="125.39999999999999" stroke="#666" stroke-width="0.5"></line></g><rect x="690.11" y="111.35" width="141.11" height="28.1" fill="#fff" opacity="0"></rect><text font-size="13.50" x="725.1" y="122.1" fill="#9ecc8a"><tspan x="725.11" y="122.14999999999999">Western Europe -</tspan><tspan x="725.11" y="137">Oceania</tspan></text></g><g class="legendMark"><g class="indicator"><line x1="695.11" y1="144.5" x2="700.9433333333334" y2="144.5" stroke="#666" stroke-width="0.5"></line><line x1="700.9433333333334" y1="144.5" x2="700.9433333333334" y2="155.5" stroke="#666" stroke-width="0.5"></line><line x1="700.9433333333334" y1="155.5" x2="720.11" y2="155.5" stroke="#666" stroke-width="0.5"></line></g><rect x="690.11" y="141.45" width="141.11" height="28.1" fill="#fff" opacity="0"></rect><text font-size="13.50" x="725.1" y="152.3" fill="#ffd53e"><tspan x="725.11" y="152.25">Western Europe -</tspan><tspan x="725.11" y="167.1">Asia</tspan></text></g><g class="legendMark"><g class="indicator"><line x1="695.11" y1="202.7" x2="714.2766666666666" y2="202.7" stroke="#666" stroke-width="0.5"></line><line x1="714.2766666666666" y1="202.7" x2="714.2766666666666" y2="202.7" stroke="#666" stroke-width="0.5"></line><line x1="714.2766666666666" y1="202.7" x2="720.11" y2="202.7" stroke="#666" stroke-width="0.5"></line></g><rect x="690.11" y="188.64999999999998" width="141.11" height="28.1" fill="#fff" opacity="0"></rect><text font-size="13.50" x="725.1" y="199.4" fill="#ca2628"><tspan x="725.11" y="199.45">Western Europe -</tspan><tspan x="725.11" y="214.29999999999998">North America</tspan></text></g><g class="legendMark"><g class="indicator"><line x1="695.11" y1="227.1" x2="707.61" y2="227.1" stroke="#666" stroke-width="0.5"></line><line x1="707.61" y1="227.1" x2="707.61" y2="232.79999999999998" stroke="#666" stroke-width="0.5"></line><line x1="707.61" y1="232.79999999999998" x2="720.11" y2="232.79999999999998" stroke="#666" stroke-width="0.5"></line></g><rect x="690.11" y="218.74999999999997" width="141.11" height="28.1" fill="#fff" opacity="0"></rect><text font-size="13.50" x="725.1" y="229.5" fill="#e6332e"><tspan x="725.11" y="229.54999999999998">Western Europe -</tspan><tspan x="725.11" y="244.39999999999998">South America</tspan></text></g><g class="legendMark"><g class="indicator"><line x1="695.11" y1="256.6" x2="700.9433333333334" y2="256.6" stroke="#666" stroke-width="0.5"></line><line x1="700.9433333333334" y1="256.6" x2="700.9433333333334" y2="262.9" stroke="#666" stroke-width="0.5"></line><line x1="700.9433333333334" y1="262.9" x2="720.11" y2="262.9" stroke="#666" stroke-width="0.5"></line></g><rect x="690.11" y="248.84999999999997" width="141.11" height="28.1" fill="#fff" opacity="0"></rect><text font-size="13.50" x="725.1" y="259.6" fill="#2a939b"><tspan x="725.11" y="259.65">Western Europe -</tspan><tspan x="725.11" y="274.5">Eastern Europe</tspan></text></g><g class="legendMark"><g class="indicator"><line x1="695.11" y1="408.7" x2="707.61" y2="408.7" stroke="#666" stroke-width="0.5"></line><line x1="707.61" y1="408.7" x2="707.61" y2="408.7" stroke="#666" stroke-width="0.5"></line><line x1="707.61" y1="408.7" x2="720.11" y2="408.7" stroke="#666" stroke-width="0.5"></line></g><rect x="690.11" y="394.65" width="144.89" height="28.1" fill="#fff" opacity="0"></rect><text font-size="13.50" x="725.1" y="405.4" fill="#3360a9"><tspan x="725.11" y="405.45">Western Europe - </tspan><tspan x="725.11" y="420.3">Western Europe</tspan></text></g></g><g class="Areas"><rect x="52.562" y="76.6" width="637.548" height="458.69999999999993" opacity="0" fill="rgba(255,255,255,0)"></rect><path stroke-linecap="round" d="M52.6 516.6L56 520.3L59.4 520.9L62.8 522.2L66.2 518.7L69.6 512.6L73 504.8L76.4 486.5L79.8 506L83.2 505.1L86.7 493.1L90.1 495.5L93.5 491.1L96.9 486.9L100.3 495.6L103.7 496.1L107.1 500.3L110.5 495.6L113.9 498.1L117.3 498.2L120.7 501.8L124.2 497.3L127.6 494.7L131 484.6L134.4 484.3L137.8 483.8L141.2 482L144.6 478.5L148 466.2L151.4 472.3L154.8 473L158.3 472L161.7 458.5L165.1 452.3L168.5 443L171.9 439.7L175.3 435.4L178.7 428.9L182.1 410.1L185.5 419.7L188.9 423.1L192.3 421.8L195.8 418.4L199.2 413L202.6 378L206 384.6L209.4 388.9L212.8 383.4L216.2 373.6L219.6 370.6L223 377L226.4 381.1L229.8 371.8L233.3 364.4L236.7 362.6L240.1 357.3L243.5 353.8L246.9 355.8L250.3 360.5L253.7 363.7L257.1 362.4L260.5 381.3L263.9 380.4L267.4 382.8L270.8 384.9L274.2 391.3L277.6 394.5L281 396.6L284.4 395L287.8 393.2L291.2 371.7L294.6 391.8L298 389.9L301.4 388.3L304.9 394.5L308.3 390.5L311.7 394.4L315.1 394.7L318.5 390.2L321.9 385.2L325.3 381.7L328.7 389.1L332.1 395.3L335.5 386L338.9 388.8L342.4 384.6L345.8 382L349.2 418.7L352.6 410.1L356 407.8L359.4 418.5L362.8 439.9L366.2 391.5L369.6 383.3L373 418L376.5 422.4L379.9 413.2L383.3 393.2L386.7 398.7L390.1 400.6L393.5 403.9L396.9 402.9L400.3 397.9L403.7 403.1L407.1 417.3L410.5 449.8L414 456.3L417.4 462.3L420.8 466.7L424.2 468.7L427.6 457.5L431 467.8L434.4 477.6L437.8 493.6L441.2 486.6L444.6 489.5L448 488.8L451.5 506.6L454.9 519.9L458.3 486.8L461.7 478.6L465.1 457.7L468.5 447.1L471.9 446.5L475.3 430.6L478.7 447.3L482.1 453.4L485.5 450.4L489 445.8L492.4 446.1L495.8 447.8L499.2 455.2L502.6 450L506 447.6L509.4 446.2L512.8 445.1L516.2 441.7L519.6 439.4L523.1 439.1L526.5 436.8L529.9 438L533.3 433.7L536.7 425L540.1 421.9L543.5 422.5L546.9 419.7L550.3 407L553.7 386.5L557.1 404.2L560.6 394L564 393.7L567.4 397.6L570.8 389.9L574.2 388L577.6 392.9L581 392.5L584.4 388.6L587.8 378.9L591.2 374.7L594.6 388.2L598.1 387.4L601.5 386.6L604.9 379.8L608.3 383.2L611.7 326.9L615.1 336.9L618.5 357.9L621.9 341.6L625.3 328.2L628.7 330.6L632.2 320.9L635.6 318.1L639 305.8L642.4 283.6L645.8 291.3L649.2 300.6L652.6 298.2L656 291.5L659.4 284.2L662.8 267.1L666.2 265L669.7 260.1L673.1 300.4L676.5 282L679.9 268.7L683.3 272.7L686.7 279.2L690.1 282.2L690.11 535.3L52.562 535.3" fill="#3360a9" fill-opacity="0.7" class="Western-Europe_0-area"></path><path stroke-linecap="round" d="M52.6 516.2L56 520.1L59.4 520.7L62.8 522L66.2 517.8L69.6 512.2L73 504.4L76.4 478.6L79.8 500.8L83.2 500.6L86.7 488.4L90.1 494.9L93.5 485L96.9 479.4L100.3 494.8L103.7 495.3L107.1 499.4L110.5 494.5L113.9 497.2L117.3 497L120.7 500.6L124.2 496.1L127.6 493.1L131 481L134.4 482.5L137.8 482.1L141.2 480.4L144.6 477.1L148 462L151.4 467.5L154.8 471L158.3 469.8L161.7 457.3L165.1 447.6L168.5 440.1L171.9 437.4L175.3 432.9L178.7 426.6L182.1 406L185.5 417.9L188.9 420.1L192.3 418.7L195.8 415.6L199.2 407.5L202.6 372.7L206 379.3L209.4 383.5L212.8 378.7L216.2 369.1L219.6 366.2L223 373.2L226.4 376L229.8 366.4L233.3 354.9L236.7 352.9L240.1 347.5L243.5 343.2L246.9 346L250.3 351.1L253.7 353.7L257.1 351.6L260.5 370.7L263.9 369.2L267.4 372L270.8 370.8L274.2 377.6L277.6 380L281 382L284.4 381.4L287.8 379.5L291.2 357.8L294.6 378L298 376.7L301.4 376L304.9 381.5L308.3 377.2L311.7 381.3L315.1 380.8L318.5 376.4L321.9 370.3L325.3 366.4L328.7 373.3L332.1 379.3L335.5 369.3L338.9 371.4L342.4 366.2L345.8 364.9L349.2 405.7L352.6 406.3L356 404.5L359.4 413.6L362.8 438.2L366.2 386L369.6 376.4L373 411.1L376.5 417.6L379.9 402.4L383.3 371.8L386.7 376.4L390.1 381.8L393.5 384L396.9 382.2L400.3 377.2L403.7 386.2L407.1 401.5L410.5 438.6L414 447.1L417.4 453.3L420.8 458.1L424.2 459.7L427.6 447.1L431 457.8L434.4 472.3L437.8 490.6L441.2 483.5L444.6 485.1L448 486.3L451.5 504L454.9 517.8L458.3 481.6L461.7 471.9L465.1 446.3L468.5 437L471.9 419.8L475.3 404L478.7 420.3L482.1 426.9L485.5 423.1L489 414.7L492.4 415.3L495.8 416.5L499.2 423.3L502.6 412.4L506 410.1L509.4 407.4L512.8 405.6L516.2 403.2L519.6 400.1L523.1 395.3L526.5 394.3L529.9 398.9L533.3 389.1L536.7 374.2L540.1 368.2L543.5 366.7L546.9 363.1L550.3 346.5L553.7 320.3L557.1 342.1L560.6 326.1L564 323.6L567.4 328.4L570.8 318L574.2 317.3L577.6 324.2L581 325L584.4 318.4L587.8 306.9L591.2 301.6L594.6 322.1L598.1 323.2L601.5 324.4L604.9 315.5L608.3 316.6L611.7 316.6L615.1 325.4L618.5 342.2L621.9 324.2L625.3 307.1L628.7 306.5L632.2 293.6L635.6 288.9L639 277.5L642.4 249.6L645.8 257.3L649.2 266L652.6 263.1L656 253.3L659.4 242.1L662.8 219.8L666.2 214.3L669.7 205.3L673.1 257.4L676.5 234.5L679.9 216L683.3 219.6L686.7 226.6L690.1 231.1L690.1 282.2L686.7 279.2L683.3 272.7L679.9 268.7L676.5 282L673.1 300.4L669.7 260.1L666.2 265L662.8 267.1L659.4 284.2L656 291.5L652.6 298.2L649.2 300.6L645.8 291.3L642.4 283.6L639 305.8L635.6 318.1L632.2 320.9L628.7 330.6L625.3 328.2L621.9 341.6L618.5 357.9L615.1 336.9L611.7 326.9L608.3 383.2L604.9 379.8L601.5 386.6L598.1 387.4L594.6 388.2L591.2 374.7L587.8 378.9L584.4 388.6L581 392.5L577.6 392.9L574.2 388L570.8 389.9L567.4 397.6L564 393.7L560.6 394L557.1 404.2L553.7 386.5L550.3 407L546.9 419.7L543.5 422.5L540.1 421.9L536.7 425L533.3 433.7L529.9 438L526.5 436.8L523.1 439.1L519.6 439.4L516.2 441.7L512.8 445.1L509.4 446.2L506 447.6L502.6 450L499.2 455.2L495.8 447.8L492.4 446.1L489 445.8L485.5 450.4L482.1 453.4L478.7 447.3L475.3 430.6L471.9 446.5L468.5 447.1L465.1 457.7L461.7 478.6L458.3 486.8L454.9 519.9L451.5 506.6L448 488.8L444.6 489.5L441.2 486.6L437.8 493.6L434.4 477.6L431 467.8L427.6 457.5L424.2 468.7L420.8 466.7L417.4 462.3L414 456.3L410.5 449.8L407.1 417.3L403.7 403.1L400.3 397.9L396.9 402.9L393.5 403.9L390.1 400.6L386.7 398.7L383.3 393.2L379.9 413.2L376.5 422.4L373 418L369.6 383.3L366.2 391.5L362.8 439.9L359.4 418.5L356 407.8L352.6 410.1L349.2 418.7L345.8 382L342.4 384.6L338.9 388.8L335.5 386L332.1 395.3L328.7 389.1L325.3 381.7L321.9 385.2L318.5 390.2L315.1 394.7L311.7 394.4L308.3 390.5L304.9 394.5L301.4 388.3L298 389.9L294.6 391.8L291.2 371.7L287.8 393.2L284.4 395L281 396.6L277.6 394.5L274.2 391.3L270.8 384.9L267.4 382.8L263.9 380.4L260.5 381.3L257.1 362.4L253.7 363.7L250.3 360.5L246.9 355.8L243.5 353.8L240.1 357.3L236.7 362.6L233.3 364.4L229.8 371.8L226.4 381.1L223 377L219.6 370.6L216.2 373.6L212.8 383.4L209.4 388.9L206 384.6L202.6 378L199.2 413L195.8 418.4L192.3 421.8L188.9 423.1L185.5 419.7L182.1 410.1L178.7 428.9L175.3 435.4L171.9 439.7L168.5 443L165.1 452.3L161.7 458.5L158.3 472L154.8 473L151.4 472.3L148 466.2L144.6 478.5L141.2 482L137.8 483.8L134.4 484.3L131 484.6L127.6 494.7L124.2 497.3L120.7 501.8L117.3 498.2L113.9 498.1L110.5 495.6L107.1 500.3L103.7 496.1L100.3 495.6L96.9 486.9L93.5 491.1L90.1 495.5L86.7 493.1L83.2 505.1L79.8 506L76.4 486.5L73 504.8L69.6 512.6L66.2 518.7L62.8 522.2L59.4 520.9L56 520.3L52.6 516.6" fill="#2a939b" fill-opacity="0.7" class="Western-Europe_3-area"></path><path stroke-linecap="round" d="M52.6 514.6L56 518.2L59.4 518.7L62.8 520.7L66.2 512.9L69.6 510.7L73 502.6L76.4 462.3L79.8 499.3L83.2 499L86.7 485.9L90.1 493L93.5 482.6L96.9 470.6L100.3 492.5L103.7 492.2L107.1 496.9L110.5 490.2L113.9 491.5L117.3 494.8L120.7 498.3L124.2 493.5L127.6 488.2L131 470.6L134.4 474.4L137.8 473.7L141.2 475.6L144.6 472L148 451.6L151.4 456.5L154.8 464.5L158.3 464L161.7 450.1L165.1 432.5L168.5 433.1L171.9 431.1L175.3 426.3L178.7 419L182.1 392L185.5 408.9L188.9 410.5L192.3 410.2L195.8 406.9L199.2 394.5L202.6 360.6L206 363.4L209.4 370.1L212.8 367.5L216.2 358.4L219.6 356.7L223 363.5L226.4 366.1L229.8 356.7L233.3 345L236.7 342L240.1 336.1L243.5 331L246.9 333.3L250.3 340.8L253.7 342.4L257.1 337.9L260.5 355.4L263.9 353.1L267.4 357.6L270.8 359.5L274.2 365.9L277.6 368.3L281 371.5L284.4 369.5L287.8 367.9L291.2 346.9L294.6 368.1L298 367.4L301.4 366.2L304.9 371.4L308.3 367.9L311.7 370.8L315.1 368.7L318.5 363L321.9 354L325.3 349.3L328.7 358L332.1 363.8L335.5 350.1L338.9 355.8L342.4 350.1L345.8 346.5L349.2 394.8L352.6 397.1L356 396.1L359.4 407L362.8 431.4L366.2 377.7L369.6 362.1L373 399.6L376.5 406L379.9 385.8L383.3 356L386.7 360.1L390.1 367.1L393.5 369.8L396.9 366.7L400.3 361.7L403.7 373.7L407.1 391.2L410.5 429.7L414 438.6L417.4 446.5L420.8 450.3L424.2 452.4L427.6 437.9L431 450.9L434.4 466.2L437.8 487.7L441.2 481.6L444.6 483.4L448 484.6L451.5 502.6L454.9 515.8L458.3 476L461.7 464.1L465.1 433.5L468.5 423.7L471.9 404.9L475.3 386.6L478.7 405.1L482.1 416.9L485.5 411.7L489 403.3L492.4 405.6L495.8 405.8L499.2 413.6L502.6 403.2L506 401.4L509.4 398.9L512.8 397.9L516.2 396.9L519.6 394.4L523.1 390.2L526.5 389.1L529.9 393.5L533.3 383.4L536.7 368.5L540.1 362.5L543.5 360.7L546.9 357.1L550.3 341L553.7 313L557.1 334.8L560.6 319.7L564 317.2L567.4 322.2L570.8 312.3L574.2 311.4L577.6 317.6L581 319.6L584.4 314.3L587.8 302.8L591.2 297.6L594.6 318.2L598.1 319.7L601.5 321L604.9 312.3L608.3 313.9L611.7 313.3L615.1 322.1L618.5 337.9L621.9 319.3L625.3 301.9L628.7 300.7L632.2 287L635.6 282L639 271.7L642.4 243.8L645.8 251.7L649.2 261.6L652.6 259.4L656 249.3L659.4 237.7L662.8 215.2L666.2 209.1L669.7 199.1L673.1 251.9L676.5 227.4L679.9 208.2L683.3 211.1L686.7 217.7L690.1 223.1L690.1 231.1L686.7 226.6L683.3 219.6L679.9 216L676.5 234.5L673.1 257.4L669.7 205.3L666.2 214.3L662.8 219.8L659.4 242.1L656 253.3L652.6 263.1L649.2 266L645.8 257.3L642.4 249.6L639 277.5L635.6 288.9L632.2 293.6L628.7 306.5L625.3 307.1L621.9 324.2L618.5 342.2L615.1 325.4L611.7 316.6L608.3 316.6L604.9 315.5L601.5 324.4L598.1 323.2L594.6 322.1L591.2 301.6L587.8 306.9L584.4 318.4L581 325L577.6 324.2L574.2 317.3L570.8 318L567.4 328.4L564 323.6L560.6 326.1L557.1 342.1L553.7 320.3L550.3 346.5L546.9 363.1L543.5 366.7L540.1 368.2L536.7 374.2L533.3 389.1L529.9 398.9L526.5 394.3L523.1 395.3L519.6 400.1L516.2 403.2L512.8 405.6L509.4 407.4L506 410.1L502.6 412.4L499.2 423.3L495.8 416.5L492.4 415.3L489 414.7L485.5 423.1L482.1 426.9L478.7 420.3L475.3 404L471.9 419.8L468.5 437L465.1 446.3L461.7 471.9L458.3 481.6L454.9 517.8L451.5 504L448 486.3L444.6 485.1L441.2 483.5L437.8 490.6L434.4 472.3L431 457.8L427.6 447.1L424.2 459.7L420.8 458.1L417.4 453.3L414 447.1L410.5 438.6L407.1 401.5L403.7 386.2L400.3 377.2L396.9 382.2L393.5 384L390.1 381.8L386.7 376.4L383.3 371.8L379.9 402.4L376.5 417.6L373 411.1L369.6 376.4L366.2 386L362.8 438.2L359.4 413.6L356 404.5L352.6 406.3L349.2 405.7L345.8 364.9L342.4 366.2L338.9 371.4L335.5 369.3L332.1 379.3L328.7 373.3L325.3 366.4L321.9 370.3L318.5 376.4L315.1 380.8L311.7 381.3L308.3 377.2L304.9 381.5L301.4 376L298 376.7L294.6 378L291.2 357.8L287.8 379.5L284.4 381.4L281 382L277.6 380L274.2 377.6L270.8 370.8L267.4 372L263.9 369.2L260.5 370.7L257.1 351.6L253.7 353.7L250.3 351.1L246.9 346L243.5 343.2L240.1 347.5L236.7 352.9L233.3 354.9L229.8 366.4L226.4 376L223 373.2L219.6 366.2L216.2 369.1L212.8 378.7L209.4 383.5L206 379.3L202.6 372.7L199.2 407.5L195.8 415.6L192.3 418.7L188.9 420.1L185.5 417.9L182.1 406L178.7 426.6L175.3 432.9L171.9 437.4L168.5 440.1L165.1 447.6L161.7 457.3L158.3 469.8L154.8 471L151.4 467.5L148 462L144.6 477.1L141.2 480.4L137.8 482.1L134.4 482.5L131 481L127.6 493.1L124.2 496.1L120.7 500.6L117.3 497L113.9 497.2L110.5 494.5L107.1 499.4L103.7 495.3L100.3 494.8L96.9 479.4L93.5 485L90.1 494.9L86.7 488.4L83.2 500.6L79.8 500.8L76.4 478.6L73 504.4L69.6 512.2L66.2 517.8L62.8 522L59.4 520.7L56 520.1L52.6 516.2" fill="#e6332e" fill-opacity="0.7" class="Western-Europe_2-area"></path><path stroke-linecap="round" d="M52.6 494.2L56 497L59.4 499.5L62.8 503.2L66.2 485.7L69.6 488.8L73 479.2L76.4 436.2L79.8 470.5L83.2 465.2L86.7 463.1L90.1 475.1L93.5 452.4L96.9 449.3L100.3 469.1L103.7 473.6L107.1 486.2L110.5 469L113.9 468.7L117.3 472L120.7 477.6L124.2 468.3L127.6 462.9L131 438.1L134.4 438.7L137.8 442.9L141.2 437.2L144.6 433.4L148 419.6L151.4 420.1L154.8 428.6L158.3 435.2L161.7 415.1L165.1 396.7L168.5 408.7L171.9 414.4L175.3 409.3L178.7 401.6L182.1 374.7L185.5 382.9L188.9 386.3L192.3 391.6L195.8 385.9L199.2 367.2L202.6 332.1L206 331.7L209.4 339.5L212.8 342.5L216.2 334.1L219.6 336.4L223 343L226.4 346.2L229.8 334.8L233.3 313L236.7 312L240.1 303.5L243.5 298.9L246.9 302.4L250.3 313.8L253.7 312.8L257.1 306.1L260.5 323.3L263.9 323.1L267.4 325.6L270.8 327.8L274.2 336.5L277.6 336.4L281 348.2L284.4 341.7L287.8 338.4L291.2 317.2L294.6 347.5L298 344.5L301.4 340.2L304.9 346.2L308.3 340L311.7 341.2L315.1 341.8L318.5 335L321.9 323L325.3 315.4L328.7 328.2L332.1 333.4L335.5 314.1L338.9 322.5L342.4 316.1L345.8 311.5L349.2 361.4L352.6 372.1L356 373.9L359.4 391.6L362.8 423L366.2 360.7L369.6 333.5L373 375.7L376.5 380.9L379.9 355L383.3 327.2L386.7 331.1L390.1 336.2L393.5 342.1L396.9 339.5L400.3 333.4L403.7 352L407.1 374L410.5 417.3L414 426.3L417.4 436.2L420.8 438.9L424.2 439.7L427.6 424L431 440.6L434.4 456.2L437.8 481.2L441.2 476.5L444.6 479.4L448 480.3L451.5 498.7L454.9 510L458.3 465.2L461.7 454L465.1 417L468.5 409L471.9 380.8L475.3 358L478.7 379.6L482.1 389.6L485.5 388.4L489 378.8L492.4 378.9L495.8 379.6L499.2 385.4L502.6 368.9L506 373.5L509.4 374L512.8 373.9L516.2 374L519.6 371.4L523.1 365.7L526.5 362.4L529.9 367.8L533.3 354.6L536.7 340.6L540.1 335.7L543.5 333.7L546.9 330L550.3 314.6L553.7 283.4L557.1 311.2L560.6 295.2L564 292L567.4 296L570.8 287L574.2 286.9L577.6 287.2L581 289.2L584.4 283L587.8 260.6L591.2 252.8L594.6 282.2L598.1 288.8L601.5 290.6L604.9 281.7L608.3 287L611.7 288.1L615.1 298.5L618.5 310.9L621.9 290.2L625.3 273.8L628.7 271.2L632.2 253L635.6 245.3L639 231L642.4 195.2L645.8 203.8L649.2 217.1L652.6 219.8L656 210.6L659.4 196.6L662.8 173.4L666.2 170.4L669.7 160.6L673.1 219.4L676.5 190.6L679.9 170.5L683.3 170.6L686.7 178.1L690.1 182.3L690.1 223.1L686.7 217.7L683.3 211.1L679.9 208.2L676.5 227.4L673.1 251.9L669.7 199.1L666.2 209.1L662.8 215.2L659.4 237.7L656 249.3L652.6 259.4L649.2 261.6L645.8 251.7L642.4 243.8L639 271.7L635.6 282L632.2 287L628.7 300.7L625.3 301.9L621.9 319.3L618.5 337.9L615.1 322.1L611.7 313.3L608.3 313.9L604.9 312.3L601.5 321L598.1 319.7L594.6 318.2L591.2 297.6L587.8 302.8L584.4 314.3L581 319.6L577.6 317.6L574.2 311.4L570.8 312.3L567.4 322.2L564 317.2L560.6 319.7L557.1 334.8L553.7 313L550.3 341L546.9 357.1L543.5 360.7L540.1 362.5L536.7 368.5L533.3 383.4L529.9 393.5L526.5 389.1L523.1 390.2L519.6 394.4L516.2 396.9L512.8 397.9L509.4 398.9L506 401.4L502.6 403.2L499.2 413.6L495.8 405.8L492.4 405.6L489 403.3L485.5 411.7L482.1 416.9L478.7 405.1L475.3 386.6L471.9 404.9L468.5 423.7L465.1 433.5L461.7 464.1L458.3 476L454.9 515.8L451.5 502.6L448 484.6L444.6 483.4L441.2 481.6L437.8 487.7L434.4 466.2L431 450.9L427.6 437.9L424.2 452.4L420.8 450.3L417.4 446.5L414 438.6L410.5 429.7L407.1 391.2L403.7 373.7L400.3 361.7L396.9 366.7L393.5 369.8L390.1 367.1L386.7 360.1L383.3 356L379.9 385.8L376.5 406L373 399.6L369.6 362.1L366.2 377.7L362.8 431.4L359.4 407L356 396.1L352.6 397.1L349.2 394.8L345.8 346.5L342.4 350.1L338.9 355.8L335.5 350.1L332.1 363.8L328.7 358L325.3 349.3L321.9 354L318.5 363L315.1 368.7L311.7 370.8L308.3 367.9L304.9 371.4L301.4 366.2L298 367.4L294.6 368.1L291.2 346.9L287.8 367.9L284.4 369.5L281 371.5L277.6 368.3L274.2 365.9L270.8 359.5L267.4 357.6L263.9 353.1L260.5 355.4L257.1 337.9L253.7 342.4L250.3 340.8L246.9 333.3L243.5 331L240.1 336.1L236.7 342L233.3 345L229.8 356.7L226.4 366.1L223 363.5L219.6 356.7L216.2 358.4L212.8 367.5L209.4 370.1L206 363.4L202.6 360.6L199.2 394.5L195.8 406.9L192.3 410.2L188.9 410.5L185.5 408.9L182.1 392L178.7 419L175.3 426.3L171.9 431.1L168.5 433.1L165.1 432.5L161.7 450.1L158.3 464L154.8 464.5L151.4 456.5L148 451.6L144.6 472L141.2 475.6L137.8 473.7L134.4 474.4L131 470.6L127.6 488.2L124.2 493.5L120.7 498.3L117.3 494.8L113.9 491.5L110.5 490.2L107.1 496.9L103.7 492.2L100.3 492.5L96.9 470.6L93.5 482.6L90.1 493L86.7 485.9L83.2 499L79.8 499.3L76.4 462.3L73 502.6L69.6 510.7L66.2 512.9L62.8 520.7L59.4 518.7L56 518.2L52.6 514.6" fill="#ca2628" fill-opacity="0.7" class="Western-Europe_7-area"></path><path stroke-linecap="round" d="M52.6 494.2L56 496.7L59.4 499.5L62.8 502.9L66.2 484.8L69.6 488.3L73 478.1L76.4 435.1L79.8 469.7L83.2 464.3L86.7 462.2L90.1 473.7L93.5 451.1L96.9 446.4L100.3 467.7L103.7 472L107.1 484.5L110.5 467.3L113.9 466.9L117.3 470.2L120.7 476.3L124.2 466.9L127.6 461.4L131 434.7L134.4 436.6L137.8 441.2L141.2 435.5L144.6 431.6L148 416.6L151.4 416.4L154.8 426.8L158.3 432.9L161.7 412.6L165.1 389.9L168.5 406.5L171.9 412.1L175.3 407.4L178.7 397.4L182.1 368.5L185.5 377.9L188.9 381L192.3 385.7L195.8 379.8L199.2 357.8L202.6 324.7L206 324.7L209.4 333.2L212.8 336.6L216.2 327.2L219.6 330L223 336.1L226.4 339.9L229.8 328.1L233.3 305.2L236.7 304.7L240.1 297.3L243.5 292.7L246.9 295.8L250.3 306.7L253.7 306.7L257.1 299.4L260.5 315.8L263.9 316.6L267.4 318.5L270.8 320.6L274.2 330L277.6 329.9L281 341.9L284.4 335L287.8 330.6L291.2 309.8L294.6 340.7L298 337.7L301.4 332.1L304.9 338.4L308.3 332.3L311.7 333L315.1 332.2L318.5 323.7L321.9 311.7L325.3 304.5L328.7 317.8L332.1 323.9L335.5 303.9L338.9 311.4L342.4 304.7L345.8 298.3L349.2 351.4L352.6 365.5L356 367.3L359.4 387.4L362.8 419.4L366.2 354.8L369.6 320.6L373 363.1L376.5 369.7L379.9 342.8L383.3 313L386.7 318L390.1 322.2L393.5 329.9L396.9 326.8L400.3 320.1L403.7 341.3L407.1 365.5L410.5 410.3L414 419.2L417.4 430.3L420.8 433.1L424.2 434.2L427.6 417.1L431 434.9L434.4 451.6L437.8 478.6L441.2 474.9L444.6 478.8L448 479.6L451.5 498.2L454.9 509L458.3 460.3L461.7 446.1L465.1 398.2L468.5 389.4L471.9 361.6L475.3 334L478.7 357.8L482.1 370.2L485.5 369.4L489 358.7L492.4 357.6L495.8 357L499.2 364.7L502.6 348.1L506 352.8L509.4 354.9L512.8 356.4L516.2 357.6L519.6 356L523.1 350.6L526.5 346.7L529.9 352L533.3 338L536.7 323.5L540.1 319.6L543.5 317.3L546.9 314L550.3 296.3L553.7 260.7L557.1 288.3L560.6 269.6L564 262.9L567.4 265.8L570.8 256.3L574.2 256.4L577.6 250.1L581 250.7L584.4 242.8L587.8 219.2L591.2 215.8L594.6 252.6L598.1 261.8L601.5 261.4L604.9 249.4L608.3 255.8L611.7 255.4L615.1 266.4L618.5 274.1L621.9 251.3L625.3 232.3L628.7 228.3L632.2 208.7L635.6 207.8L639 192.3L642.4 149.8L645.8 158L649.2 173.6L652.6 178.2L656 165L659.4 147.5L662.8 122.9L666.2 118.5L669.7 104.8L673.1 165.4L676.5 129L679.9 100.6L683.3 95.8L686.7 101.6L690.1 106.7L690.1 182.3L686.7 178.1L683.3 170.6L679.9 170.5L676.5 190.6L673.1 219.4L669.7 160.6L666.2 170.4L662.8 173.4L659.4 196.6L656 210.6L652.6 219.8L649.2 217.1L645.8 203.8L642.4 195.2L639 231L635.6 245.3L632.2 253L628.7 271.2L625.3 273.8L621.9 290.2L618.5 310.9L615.1 298.5L611.7 288.1L608.3 287L604.9 281.7L601.5 290.6L598.1 288.8L594.6 282.2L591.2 252.8L587.8 260.6L584.4 283L581 289.2L577.6 287.2L574.2 286.9L570.8 287L567.4 296L564 292L560.6 295.2L557.1 311.2L553.7 283.4L550.3 314.6L546.9 330L543.5 333.7L540.1 335.7L536.7 340.6L533.3 354.6L529.9 367.8L526.5 362.4L523.1 365.7L519.6 371.4L516.2 374L512.8 373.9L509.4 374L506 373.5L502.6 368.9L499.2 385.4L495.8 379.6L492.4 378.9L489 378.8L485.5 388.4L482.1 389.6L478.7 379.6L475.3 358L471.9 380.8L468.5 409L465.1 417L461.7 454L458.3 465.2L454.9 510L451.5 498.7L448 480.3L444.6 479.4L441.2 476.5L437.8 481.2L434.4 456.2L431 440.6L427.6 424L424.2 439.7L420.8 438.9L417.4 436.2L414 426.3L410.5 417.3L407.1 374L403.7 352L400.3 333.4L396.9 339.5L393.5 342.1L390.1 336.2L386.7 331.1L383.3 327.2L379.9 355L376.5 380.9L373 375.7L369.6 333.5L366.2 360.7L362.8 423L359.4 391.6L356 373.9L352.6 372.1L349.2 361.4L345.8 311.5L342.4 316.1L338.9 322.5L335.5 314.1L332.1 333.4L328.7 328.2L325.3 315.4L321.9 323L318.5 335L315.1 341.8L311.7 341.2L308.3 340L304.9 346.2L301.4 340.2L298 344.5L294.6 347.5L291.2 317.2L287.8 338.4L284.4 341.7L281 348.2L277.6 336.4L274.2 336.5L270.8 327.8L267.4 325.6L263.9 323.1L260.5 323.3L257.1 306.1L253.7 312.8L250.3 313.8L246.9 302.4L243.5 298.9L240.1 303.5L236.7 312L233.3 313L229.8 334.8L226.4 346.2L223 343L219.6 336.4L216.2 334.1L212.8 342.5L209.4 339.5L206 331.7L202.6 332.1L199.2 367.2L195.8 385.9L192.3 391.6L188.9 386.3L185.5 382.9L182.1 374.7L178.7 401.6L175.3 409.3L171.9 414.4L168.5 408.7L165.1 396.7L161.7 415.1L158.3 435.2L154.8 428.6L151.4 420.1L148 419.6L144.6 433.4L141.2 437.2L137.8 442.9L134.4 438.7L131 438.1L127.6 462.9L124.2 468.3L120.7 477.6L117.3 472L113.9 468.7L110.5 469L107.1 486.2L103.7 473.6L100.3 469.1L96.9 449.3L93.5 452.4L90.1 475.1L86.7 463.1L83.2 465.2L79.8 470.5L76.4 436.2L73 479.2L69.6 488.8L66.2 485.7L62.8 503.2L59.4 499.5L56 497L52.6 494.2" fill="#ffd53e" fill-opacity="0.7" class="Western-Europe_4-area"></path><path stroke-linecap="round" d="M52.6 493.7L56 496.1L59.4 499L62.8 502.5L66.2 484.3L69.6 487.6L73 477.3L76.4 434.2L79.8 468.8L83.2 463.4L86.7 461.2L90.1 472.3L93.5 449.3L96.9 446.4L100.3 467.1L103.7 470.9L107.1 483.1L110.5 466.5L113.9 466.5L117.3 469.9L120.7 476.2L124.2 465.3L127.6 459.3L131 434.6L134.4 433.8L137.8 437.3L141.2 423.2L144.6 422.5L148 411.6L151.4 409.1L154.8 418.5L158.3 424.8L161.7 403.7L165.1 382.6L168.5 405.9L171.9 411L175.3 405.7L178.7 395.5L182.1 366.9L185.5 376.4L188.9 379.6L192.3 384.4L195.8 378.5L199.2 356.5L202.6 324L206 323.8L209.4 331.9L212.8 334.9L216.2 325.5L219.6 328.5L223 334.7L226.4 338.1L229.8 326.2L233.3 304.1L236.7 303.2L240.1 295.5L243.5 291L246.9 294.2L250.3 305L253.7 305.3L257.1 298.2L260.5 314.6L263.9 315.3L267.4 317.3L270.8 319.4L274.2 328.8L277.6 328.5L281 340.6L284.4 333.8L287.8 329.2L291.2 308.3L294.6 339.2L298 330.6L301.4 323.9L304.9 330L308.3 324.2L311.7 326.1L315.1 324.7L318.5 316.3L321.9 303.6L325.3 295.4L328.7 309.7L332.1 315.8L335.5 294.5L338.9 301.6L342.4 294.1L345.8 287.5L349.2 342.5L352.6 356.8L356 359.6L359.4 383.6L362.8 414.9L366.2 349.7L369.6 311.2L373 355.2L376.5 359.9L379.9 331.7L383.3 301.8L386.7 307.4L390.1 310.8L393.5 320.5L396.9 318.3L400.3 311.8L403.7 336.4L407.1 361L410.5 406.9L414 415.9L417.4 426.7L420.8 429.3L424.2 430L427.6 412.2L431 430L434.4 448.3L437.8 475.2L441.2 472L444.6 474.8L448 475.1L451.5 494.6L454.9 506.1L458.3 456.2L461.7 441L465.1 387.7L468.5 377.6L471.9 346L475.3 315.4L478.7 343.3L482.1 359.8L485.5 356.6L489 345.4L492.4 347L495.8 347.3L499.2 355.1L502.6 339.6L506 343.9L509.4 347.4L512.8 349.7L516.2 351L519.6 349.4L523.1 343.6L526.5 340.6L529.9 346.5L533.3 332.5L536.7 318.2L540.1 314.2L543.5 312.1L546.9 309.8L550.3 291.9L553.7 255.2L557.1 283.7L560.6 265.6L564 259.2L567.4 262.3L570.8 253L574.2 253.3L577.6 246.7L581 247L584.4 239.5L587.8 215.2L591.2 211.8L594.6 249.4L598.1 258.8L601.5 258.2L604.9 245.8L608.3 252.9L611.7 252.9L615.1 264.1L618.5 271.6L621.9 248.4L625.3 229.1L628.7 225.1L632.2 205.4L635.6 204.7L639 189.1L642.4 146.4L645.8 154.8L649.2 170.2L652.6 174.8L656 161.5L659.4 143.7L662.8 119.5L666.2 114.8L669.7 100.9L673.1 161.9L676.5 125.2L679.9 96.4L683.3 91.2L686.7 97.4L690.1 102.6L690.1 106.7L686.7 101.6L683.3 95.8L679.9 100.6L676.5 129L673.1 165.4L669.7 104.8L666.2 118.5L662.8 122.9L659.4 147.5L656 165L652.6 178.2L649.2 173.6L645.8 158L642.4 149.8L639 192.3L635.6 207.8L632.2 208.7L628.7 228.3L625.3 232.3L621.9 251.3L618.5 274.1L615.1 266.4L611.7 255.4L608.3 255.8L604.9 249.4L601.5 261.4L598.1 261.8L594.6 252.6L591.2 215.8L587.8 219.2L584.4 242.8L581 250.7L577.6 250.1L574.2 256.4L570.8 256.3L567.4 265.8L564 262.9L560.6 269.6L557.1 288.3L553.7 260.7L550.3 296.3L546.9 314L543.5 317.3L540.1 319.6L536.7 323.5L533.3 338L529.9 352L526.5 346.7L523.1 350.6L519.6 356L516.2 357.6L512.8 356.4L509.4 354.9L506 352.8L502.6 348.1L499.2 364.7L495.8 357L492.4 357.6L489 358.7L485.5 369.4L482.1 370.2L478.7 357.8L475.3 334L471.9 361.6L468.5 389.4L465.1 398.2L461.7 446.1L458.3 460.3L454.9 509L451.5 498.2L448 479.6L444.6 478.8L441.2 474.9L437.8 478.6L434.4 451.6L431 434.9L427.6 417.1L424.2 434.2L420.8 433.1L417.4 430.3L414 419.2L410.5 410.3L407.1 365.5L403.7 341.3L400.3 320.1L396.9 326.8L393.5 329.9L390.1 322.2L386.7 318L383.3 313L379.9 342.8L376.5 369.7L373 363.1L369.6 320.6L366.2 354.8L362.8 419.4L359.4 387.4L356 367.3L352.6 365.5L349.2 351.4L345.8 298.3L342.4 304.7L338.9 311.4L335.5 303.9L332.1 323.9L328.7 317.8L325.3 304.5L321.9 311.7L318.5 323.7L315.1 332.2L311.7 333L308.3 332.3L304.9 338.4L301.4 332.1L298 337.7L294.6 340.7L291.2 309.8L287.8 330.6L284.4 335L281 341.9L277.6 329.9L274.2 330L270.8 320.6L267.4 318.5L263.9 316.6L260.5 315.8L257.1 299.4L253.7 306.7L250.3 306.7L246.9 295.8L243.5 292.7L240.1 297.3L236.7 304.7L233.3 305.2L229.8 328.1L226.4 339.9L223 336.1L219.6 330L216.2 327.2L212.8 336.6L209.4 333.2L206 324.7L202.6 324.7L199.2 357.8L195.8 379.8L192.3 385.7L188.9 381L185.5 377.9L182.1 368.5L178.7 397.4L175.3 407.4L171.9 412.1L168.5 406.5L165.1 389.9L161.7 412.6L158.3 432.9L154.8 426.8L151.4 416.4L148 416.6L144.6 431.6L141.2 435.5L137.8 441.2L134.4 436.6L131 434.7L127.6 461.4L124.2 466.9L120.7 476.3L117.3 470.2L113.9 466.9L110.5 467.3L107.1 484.5L103.7 472L100.3 467.7L96.9 446.4L93.5 451.1L90.1 473.7L86.7 462.2L83.2 464.3L79.8 469.7L76.4 435.1L73 478.1L69.6 488.3L66.2 484.8L62.8 502.9L59.4 499.5L56 496.7L52.6 494.2" fill="#9ecc8a" fill-opacity="0.7" class="Western-Europe_5-area"></path><path stroke-linecap="round" d="M52.6 492.6L56 495.1L59.4 497.4L62.8 501.4L66.2 483.2L69.6 486.3L73 475.2L76.4 432L79.8 467.6L83.2 462.3L86.7 459.3L90.1 470L93.5 446.5L96.9 443L100.3 464.3L103.7 467.9L107.1 480.1L110.5 462.8L113.9 461.6L117.3 465L120.7 472.4L124.2 461.8L127.6 455.1L131 428.4L134.4 428.7L137.8 432.2L141.2 417.9L144.6 417.7L148 403.7L151.4 402.2L154.8 413.3L158.3 418.7L161.7 397.6L165.1 374.7L168.5 401.3L171.9 406.7L175.3 401.3L178.7 390.6L182.1 357.8L185.5 372.1L188.9 375.8L192.3 380.8L195.8 374.4L199.2 347L202.6 317.8L206 318L209.4 326.5L212.8 329L216.2 319.4L219.6 324.2L223 329.2L226.4 331.6L229.8 319.8L233.3 296.9L236.7 298.5L240.1 288.6L243.5 285L246.9 288.2L250.3 298.7L253.7 300.4L257.1 293.7L260.5 310.1L263.9 310.8L267.4 312.3L270.8 313.9L274.2 323.5L277.6 323.2L281 334.8L284.4 327.6L287.8 322.6L291.2 301.4L294.6 332L298 323.2L301.4 316L304.9 322.2L308.3 316.1L311.7 317.5L315.1 315.6L318.5 307.2L321.9 293.3L325.3 284.7L328.7 299.1L332.1 304.7L335.5 281.5L338.9 288.8L342.4 280L345.8 273.2L349.2 327.4L352.6 344.1L356 346L359.4 373L362.8 403.4L366.2 336.4L369.6 290.2L373 340.2L376.5 344.5L379.9 314.8L383.3 283.9L386.7 291.6L390.1 296L393.5 305.7L396.9 299.9L400.3 293.6L403.7 319.1L407.1 346.7L410.5 394.5L414 403.9L417.4 415.1L420.8 417.5L424.2 417.3L427.6 399.2L431 417.9L434.4 438.9L437.8 469.2L441.2 467.2L444.6 469.4L448 471.7L451.5 491.1L454.9 500.5L458.3 444.4L461.7 425.8L465.1 362.5L468.5 351.6L471.9 317.8L475.3 282.9L478.7 312.3L482.1 331.4L485.5 330L489 318L492.4 321.8L495.8 321.8L499.2 328.7L502.6 315.2L506 318.6L509.4 325.3L512.8 330.7L516.2 332.1L519.6 330.9L523.1 325L526.5 323.9L529.9 331.2L533.3 316.7L536.7 302.4L540.1 297.9L543.5 295.7L546.9 295.4L550.3 276.7L553.7 235.7L557.1 261.2L560.6 244.2L564 235.4L567.4 239.3L570.8 234.3L574.2 231.9L577.6 221.2L581 223.9L584.4 217.1L587.8 194.2L591.2 193.7L594.6 236L598.1 247.4L601.5 247.4L604.9 234.9L608.3 242.3L611.7 243.9L615.1 255.3L618.5 262.8L621.9 240L625.3 220.1L628.7 216.3L632.2 196.6L635.6 195L639 179.4L642.4 136.1L645.8 145.1L649.2 160.9L652.6 165.3L656 151.9L659.4 133.6L662.8 109L666.2 103.1L669.7 87.7L673.1 149.1L676.5 111.7L679.9 82.9L683.3 76.6L686.7 82.7L690.1 88.1L690.1 102.6L686.7 97.4L683.3 91.2L679.9 96.4L676.5 125.2L673.1 161.9L669.7 100.9L666.2 114.8L662.8 119.5L659.4 143.7L656 161.5L652.6 174.8L649.2 170.2L645.8 154.8L642.4 146.4L639 189.1L635.6 204.7L632.2 205.4L628.7 225.1L625.3 229.1L621.9 248.4L618.5 271.6L615.1 264.1L611.7 252.9L608.3 252.9L604.9 245.8L601.5 258.2L598.1 258.8L594.6 249.4L591.2 211.8L587.8 215.2L584.4 239.5L581 247L577.6 246.7L574.2 253.3L570.8 253L567.4 262.3L564 259.2L560.6 265.6L557.1 283.7L553.7 255.2L550.3 291.9L546.9 309.8L543.5 312.1L540.1 314.2L536.7 318.2L533.3 332.5L529.9 346.5L526.5 340.6L523.1 343.6L519.6 349.4L516.2 351L512.8 349.7L509.4 347.4L506 343.9L502.6 339.6L499.2 355.1L495.8 347.3L492.4 347L489 345.4L485.5 356.6L482.1 359.8L478.7 343.3L475.3 315.4L471.9 346L468.5 377.6L465.1 387.7L461.7 441L458.3 456.2L454.9 506.1L451.5 494.6L448 475.1L444.6 474.8L441.2 472L437.8 475.2L434.4 448.3L431 430L427.6 412.2L424.2 430L420.8 429.3L417.4 426.7L414 415.9L410.5 406.9L407.1 361L403.7 336.4L400.3 311.8L396.9 318.3L393.5 320.5L390.1 310.8L386.7 307.4L383.3 301.8L379.9 331.7L376.5 359.9L373 355.2L369.6 311.2L366.2 349.7L362.8 414.9L359.4 383.6L356 359.6L352.6 356.8L349.2 342.5L345.8 287.5L342.4 294.1L338.9 301.6L335.5 294.5L332.1 315.8L328.7 309.7L325.3 295.4L321.9 303.6L318.5 316.3L315.1 324.7L311.7 326.1L308.3 324.2L304.9 330L301.4 323.9L298 330.6L294.6 339.2L291.2 308.3L287.8 329.2L284.4 333.8L281 340.6L277.6 328.5L274.2 328.8L270.8 319.4L267.4 317.3L263.9 315.3L260.5 314.6L257.1 298.2L253.7 305.3L250.3 305L246.9 294.2L243.5 291L240.1 295.5L236.7 303.2L233.3 304.1L229.8 326.2L226.4 338.1L223 334.7L219.6 328.5L216.2 325.5L212.8 334.9L209.4 331.9L206 323.8L202.6 324L199.2 356.5L195.8 378.5L192.3 384.4L188.9 379.6L185.5 376.4L182.1 366.9L178.7 395.5L175.3 405.7L171.9 411L168.5 405.9L165.1 382.6L161.7 403.7L158.3 424.8L154.8 418.5L151.4 409.1L148 411.6L144.6 422.5L141.2 423.2L137.8 437.3L134.4 433.8L131 434.6L127.6 459.3L124.2 465.3L120.7 476.2L117.3 469.9L113.9 466.5L110.5 466.5L107.1 483.1L103.7 470.9L100.3 467.1L96.9 446.4L93.5 449.3L90.1 472.3L86.7 461.2L83.2 463.4L79.8 468.8L76.4 434.2L73 477.3L69.6 487.6L66.2 484.3L62.8 502.5L59.4 499L56 496.1L52.6 493.7" fill="#34983f" fill-opacity="0.7" class="Western-Europe_1-area"></path><path stroke-linecap="round" d="M52.6 516.6L56 520.3L59.4 520.9L62.8 522.2L66.2 518.7L69.6 512.6L73 504.8L76.4 486.5L79.8 506L83.2 505.1L86.7 493.1L90.1 495.5L93.5 491.1L96.9 486.9L100.3 495.6L103.7 496.1L107.1 500.3L110.5 495.6L113.9 498.1L117.3 498.2L120.7 501.8L124.2 497.3L127.6 494.7L131 484.6L134.4 484.3L137.8 483.8L141.2 482L144.6 478.5L148 466.2L151.4 472.3L154.8 473L158.3 472L161.7 458.5L165.1 452.3L168.5 443L171.9 439.7L175.3 435.4L178.7 428.9L182.1 410.1L185.5 419.7L188.9 423.1L192.3 421.8L195.8 418.4L199.2 413L202.6 378L206 384.6L209.4 388.9L212.8 383.4L216.2 373.6L219.6 370.6L223 377L226.4 381.1L229.8 371.8L233.3 364.4L236.7 362.6L240.1 357.3L243.5 353.8L246.9 355.8L250.3 360.5L253.7 363.7L257.1 362.4L260.5 381.3L263.9 380.4L267.4 382.8L270.8 384.9L274.2 391.3L277.6 394.5L281 396.6L284.4 395L287.8 393.2L291.2 371.7L294.6 391.8L298 389.9L301.4 388.3L304.9 394.5L308.3 390.5L311.7 394.4L315.1 394.7L318.5 390.2L321.9 385.2L325.3 381.7L328.7 389.1L332.1 395.3L335.5 386L338.9 388.8L342.4 384.6L345.8 382L349.2 418.7L352.6 410.1L356 407.8L359.4 418.5L362.8 439.9L366.2 391.5L369.6 383.3L373 418L376.5 422.4L379.9 413.2L383.3 393.2L386.7 398.7L390.1 400.6L393.5 403.9L396.9 402.9L400.3 397.9L403.7 403.1L407.1 417.3L410.5 449.8L414 456.3L417.4 462.3L420.8 466.7L424.2 468.7L427.6 457.5L431 467.8L434.4 477.6L437.8 493.6L441.2 486.6L444.6 489.5L448 488.8L451.5 506.6L454.9 519.9L458.3 486.8L461.7 478.6L465.1 457.7L468.5 447.1L471.9 446.5L475.3 430.6L478.7 447.3L482.1 453.4L485.5 450.4L489 445.8L492.4 446.1L495.8 447.8L499.2 455.2L502.6 450L506 447.6L509.4 446.2L512.8 445.1L516.2 441.7L519.6 439.4L523.1 439.1L526.5 436.8L529.9 438L533.3 433.7L536.7 425L540.1 421.9L543.5 422.5L546.9 419.7L550.3 407L553.7 386.5L557.1 404.2L560.6 394L564 393.7L567.4 397.6L570.8 389.9L574.2 388L577.6 392.9L581 392.5L584.4 388.6L587.8 378.9L591.2 374.7L594.6 388.2L598.1 387.4L601.5 386.6L604.9 379.8L608.3 383.2L611.7 326.9L615.1 336.9L618.5 357.9L621.9 341.6L625.3 328.2L628.7 330.6L632.2 320.9L635.6 318.1L639 305.8L642.4 283.6L645.8 291.3L649.2 300.6L652.6 298.2L656 291.5L659.4 284.2L662.8 267.1L666.2 265L669.7 260.1L673.1 300.4L676.5 282L679.9 268.7L683.3 272.7L686.7 279.2L690.1 282.2" stroke="rgb(43, 80, 141)" stroke-opacity="0.7" stroke-width="0.5" fill="none" class="Western-Europe_0-border"></path><path stroke-linecap="round" d="M52.6 516.2L56 520.1L59.4 520.7L62.8 522L66.2 517.8L69.6 512.2L73 504.4L76.4 478.6L79.8 500.8L83.2 500.6L86.7 488.4L90.1 494.9L93.5 485L96.9 479.4L100.3 494.8L103.7 495.3L107.1 499.4L110.5 494.5L113.9 497.2L117.3 497L120.7 500.6L124.2 496.1L127.6 493.1L131 481L134.4 482.5L137.8 482.1L141.2 480.4L144.6 477.1L148 462L151.4 467.5L154.8 471L158.3 469.8L161.7 457.3L165.1 447.6L168.5 440.1L171.9 437.4L175.3 432.9L178.7 426.6L182.1 406L185.5 417.9L188.9 420.1L192.3 418.7L195.8 415.6L199.2 407.5L202.6 372.7L206 379.3L209.4 383.5L212.8 378.7L216.2 369.1L219.6 366.2L223 373.2L226.4 376L229.8 366.4L233.3 354.9L236.7 352.9L240.1 347.5L243.5 343.2L246.9 346L250.3 351.1L253.7 353.7L257.1 351.6L260.5 370.7L263.9 369.2L267.4 372L270.8 370.8L274.2 377.6L277.6 380L281 382L284.4 381.4L287.8 379.5L291.2 357.8L294.6 378L298 376.7L301.4 376L304.9 381.5L308.3 377.2L311.7 381.3L315.1 380.8L318.5 376.4L321.9 370.3L325.3 366.4L328.7 373.3L332.1 379.3L335.5 369.3L338.9 371.4L342.4 366.2L345.8 364.9L349.2 405.7L352.6 406.3L356 404.5L359.4 413.6L362.8 438.2L366.2 386L369.6 376.4L373 411.1L376.5 417.6L379.9 402.4L383.3 371.8L386.7 376.4L390.1 381.8L393.5 384L396.9 382.2L400.3 377.2L403.7 386.2L407.1 401.5L410.5 438.6L414 447.1L417.4 453.3L420.8 458.1L424.2 459.7L427.6 447.1L431 457.8L434.4 472.3L437.8 490.6L441.2 483.5L444.6 485.1L448 486.3L451.5 504L454.9 517.8L458.3 481.6L461.7 471.9L465.1 446.3L468.5 437L471.9 419.8L475.3 404L478.7 420.3L482.1 426.9L485.5 423.1L489 414.7L492.4 415.3L495.8 416.5L499.2 423.3L502.6 412.4L506 410.1L509.4 407.4L512.8 405.6L516.2 403.2L519.6 400.1L523.1 395.3L526.5 394.3L529.9 398.9L533.3 389.1L536.7 374.2L540.1 368.2L543.5 366.7L546.9 363.1L550.3 346.5L553.7 320.3L557.1 342.1L560.6 326.1L564 323.6L567.4 328.4L570.8 318L574.2 317.3L577.6 324.2L581 325L584.4 318.4L587.8 306.9L591.2 301.6L594.6 322.1L598.1 323.2L601.5 324.4L604.9 315.5L608.3 316.6L611.7 316.6L615.1 325.4L618.5 342.2L621.9 324.2L625.3 307.1L628.7 306.5L632.2 293.6L635.6 288.9L639 277.5L642.4 249.6L645.8 257.3L649.2 266L652.6 263.1L656 253.3L659.4 242.1L662.8 219.8L666.2 214.3L669.7 205.3L673.1 257.4L676.5 234.5L679.9 216L683.3 219.6L686.7 226.6L690.1 231.1" stroke="rgb(35, 123, 130)" stroke-opacity="0.7" stroke-width="0.5" fill="none" class="Western-Europe_3-border"></path><path stroke-linecap="round" d="M52.6 514.6L56 518.2L59.4 518.7L62.8 520.7L66.2 512.9L69.6 510.7L73 502.6L76.4 462.3L79.8 499.3L83.2 499L86.7 485.9L90.1 493L93.5 482.6L96.9 470.6L100.3 492.5L103.7 492.2L107.1 496.9L110.5 490.2L113.9 491.5L117.3 494.8L120.7 498.3L124.2 493.5L127.6 488.2L131 470.6L134.4 474.4L137.8 473.7L141.2 475.6L144.6 472L148 451.6L151.4 456.5L154.8 464.5L158.3 464L161.7 450.1L165.1 432.5L168.5 433.1L171.9 431.1L175.3 426.3L178.7 419L182.1 392L185.5 408.9L188.9 410.5L192.3 410.2L195.8 406.9L199.2 394.5L202.6 360.6L206 363.4L209.4 370.1L212.8 367.5L216.2 358.4L219.6 356.7L223 363.5L226.4 366.1L229.8 356.7L233.3 345L236.7 342L240.1 336.1L243.5 331L246.9 333.3L250.3 340.8L253.7 342.4L257.1 337.9L260.5 355.4L263.9 353.1L267.4 357.6L270.8 359.5L274.2 365.9L277.6 368.3L281 371.5L284.4 369.5L287.8 367.9L291.2 346.9L294.6 368.1L298 367.4L301.4 366.2L304.9 371.4L308.3 367.9L311.7 370.8L315.1 368.7L318.5 363L321.9 354L325.3 349.3L328.7 358L332.1 363.8L335.5 350.1L338.9 355.8L342.4 350.1L345.8 346.5L349.2 394.8L352.6 397.1L356 396.1L359.4 407L362.8 431.4L366.2 377.7L369.6 362.1L373 399.6L376.5 406L379.9 385.8L383.3 356L386.7 360.1L390.1 367.1L393.5 369.8L396.9 366.7L400.3 361.7L403.7 373.7L407.1 391.2L410.5 429.7L414 438.6L417.4 446.5L420.8 450.3L424.2 452.4L427.6 437.9L431 450.9L434.4 466.2L437.8 487.7L441.2 481.6L444.6 483.4L448 484.6L451.5 502.6L454.9 515.8L458.3 476L461.7 464.1L465.1 433.5L468.5 423.7L471.9 404.9L475.3 386.6L478.7 405.1L482.1 416.9L485.5 411.7L489 403.3L492.4 405.6L495.8 405.8L499.2 413.6L502.6 403.2L506 401.4L509.4 398.9L512.8 397.9L516.2 396.9L519.6 394.4L523.1 390.2L526.5 389.1L529.9 393.5L533.3 383.4L536.7 368.5L540.1 362.5L543.5 360.7L546.9 357.1L550.3 341L553.7 313L557.1 334.8L560.6 319.7L564 317.2L567.4 322.2L570.8 312.3L574.2 311.4L577.6 317.6L581 319.6L584.4 314.3L587.8 302.8L591.2 297.6L594.6 318.2L598.1 319.7L601.5 321L604.9 312.3L608.3 313.9L611.7 313.3L615.1 322.1L618.5 337.9L621.9 319.3L625.3 301.9L628.7 300.7L632.2 287L635.6 282L639 271.7L642.4 243.8L645.8 251.7L649.2 261.6L652.6 259.4L656 249.3L659.4 237.7L662.8 215.2L666.2 209.1L669.7 199.1L673.1 251.9L676.5 227.4L679.9 208.2L683.3 211.1L686.7 217.7L690.1 223.1" stroke="rgb(192, 43, 38)" stroke-opacity="0.7" stroke-width="0.5" fill="none" class="Western-Europe_2-border"></path><path stroke-linecap="round" d="M52.6 494.2L56 497L59.4 499.5L62.8 503.2L66.2 485.7L69.6 488.8L73 479.2L76.4 436.2L79.8 470.5L83.2 465.2L86.7 463.1L90.1 475.1L93.5 452.4L96.9 449.3L100.3 469.1L103.7 473.6L107.1 486.2L110.5 469L113.9 468.7L117.3 472L120.7 477.6L124.2 468.3L127.6 462.9L131 438.1L134.4 438.7L137.8 442.9L141.2 437.2L144.6 433.4L148 419.6L151.4 420.1L154.8 428.6L158.3 435.2L161.7 415.1L165.1 396.7L168.5 408.7L171.9 414.4L175.3 409.3L178.7 401.6L182.1 374.7L185.5 382.9L188.9 386.3L192.3 391.6L195.8 385.9L199.2 367.2L202.6 332.1L206 331.7L209.4 339.5L212.8 342.5L216.2 334.1L219.6 336.4L223 343L226.4 346.2L229.8 334.8L233.3 313L236.7 312L240.1 303.5L243.5 298.9L246.9 302.4L250.3 313.8L253.7 312.8L257.1 306.1L260.5 323.3L263.9 323.1L267.4 325.6L270.8 327.8L274.2 336.5L277.6 336.4L281 348.2L284.4 341.7L287.8 338.4L291.2 317.2L294.6 347.5L298 344.5L301.4 340.2L304.9 346.2L308.3 340L311.7 341.2L315.1 341.8L318.5 335L321.9 323L325.3 315.4L328.7 328.2L332.1 333.4L335.5 314.1L338.9 322.5L342.4 316.1L345.8 311.5L349.2 361.4L352.6 372.1L356 373.9L359.4 391.6L362.8 423L366.2 360.7L369.6 333.5L373 375.7L376.5 380.9L379.9 355L383.3 327.2L386.7 331.1L390.1 336.2L393.5 342.1L396.9 339.5L400.3 333.4L403.7 352L407.1 374L410.5 417.3L414 426.3L417.4 436.2L420.8 438.9L424.2 439.7L427.6 424L431 440.6L434.4 456.2L437.8 481.2L441.2 476.5L444.6 479.4L448 480.3L451.5 498.7L454.9 510L458.3 465.2L461.7 454L465.1 417L468.5 409L471.9 380.8L475.3 358L478.7 379.6L482.1 389.6L485.5 388.4L489 378.8L492.4 378.9L495.8 379.6L499.2 385.4L502.6 368.9L506 373.5L509.4 374L512.8 373.9L516.2 374L519.6 371.4L523.1 365.7L526.5 362.4L529.9 367.8L533.3 354.6L536.7 340.6L540.1 335.7L543.5 333.7L546.9 330L550.3 314.6L553.7 283.4L557.1 311.2L560.6 295.2L564 292L567.4 296L570.8 287L574.2 286.9L577.6 287.2L581 289.2L584.4 283L587.8 260.6L591.2 252.8L594.6 282.2L598.1 288.8L601.5 290.6L604.9 281.7L608.3 287L611.7 288.1L615.1 298.5L618.5 310.9L621.9 290.2L625.3 273.8L628.7 271.2L632.2 253L635.6 245.3L639 231L642.4 195.2L645.8 203.8L649.2 217.1L652.6 219.8L656 210.6L659.4 196.6L662.8 173.4L666.2 170.4L669.7 160.6L673.1 219.4L676.5 190.6L679.9 170.5L683.3 170.6L686.7 178.1L690.1 182.3" stroke="rgb(169, 32, 33)" stroke-opacity="0.7" stroke-width="0.5" fill="none" class="Western-Europe_7-border"></path><path stroke-linecap="round" d="M52.6 494.2L56 496.7L59.4 499.5L62.8 502.9L66.2 484.8L69.6 488.3L73 478.1L76.4 435.1L79.8 469.7L83.2 464.3L86.7 462.2L90.1 473.7L93.5 451.1L96.9 446.4L100.3 467.7L103.7 472L107.1 484.5L110.5 467.3L113.9 466.9L117.3 470.2L120.7 476.3L124.2 466.9L127.6 461.4L131 434.7L134.4 436.6L137.8 441.2L141.2 435.5L144.6 431.6L148 416.6L151.4 416.4L154.8 426.8L158.3 432.9L161.7 412.6L165.1 389.9L168.5 406.5L171.9 412.1L175.3 407.4L178.7 397.4L182.1 368.5L185.5 377.9L188.9 381L192.3 385.7L195.8 379.8L199.2 357.8L202.6 324.7L206 324.7L209.4 333.2L212.8 336.6L216.2 327.2L219.6 330L223 336.1L226.4 339.9L229.8 328.1L233.3 305.2L236.7 304.7L240.1 297.3L243.5 292.7L246.9 295.8L250.3 306.7L253.7 306.7L257.1 299.4L260.5 315.8L263.9 316.6L267.4 318.5L270.8 320.6L274.2 330L277.6 329.9L281 341.9L284.4 335L287.8 330.6L291.2 309.8L294.6 340.7L298 337.7L301.4 332.1L304.9 338.4L308.3 332.3L311.7 333L315.1 332.2L318.5 323.7L321.9 311.7L325.3 304.5L328.7 317.8L332.1 323.9L335.5 303.9L338.9 311.4L342.4 304.7L345.8 298.3L349.2 351.4L352.6 365.5L356 367.3L359.4 387.4L362.8 419.4L366.2 354.8L369.6 320.6L373 363.1L376.5 369.7L379.9 342.8L383.3 313L386.7 318L390.1 322.2L393.5 329.9L396.9 326.8L400.3 320.1L403.7 341.3L407.1 365.5L410.5 410.3L414 419.2L417.4 430.3L420.8 433.1L424.2 434.2L427.6 417.1L431 434.9L434.4 451.6L437.8 478.6L441.2 474.9L444.6 478.8L448 479.6L451.5 498.2L454.9 509L458.3 460.3L461.7 446.1L465.1 398.2L468.5 389.4L471.9 361.6L475.3 334L478.7 357.8L482.1 370.2L485.5 369.4L489 358.7L492.4 357.6L495.8 357L499.2 364.7L502.6 348.1L506 352.8L509.4 354.9L512.8 356.4L516.2 357.6L519.6 356L523.1 350.6L526.5 346.7L529.9 352L533.3 338L536.7 323.5L540.1 319.6L543.5 317.3L546.9 314L550.3 296.3L553.7 260.7L557.1 288.3L560.6 269.6L564 262.9L567.4 265.8L570.8 256.3L574.2 256.4L577.6 250.1L581 250.7L584.4 242.8L587.8 219.2L591.2 215.8L594.6 252.6L598.1 261.8L601.5 261.4L604.9 249.4L608.3 255.8L611.7 255.4L615.1 266.4L618.5 274.1L621.9 251.3L625.3 232.3L628.7 228.3L632.2 208.7L635.6 207.8L639 192.3L642.4 149.8L645.8 158L649.2 173.6L652.6 178.2L656 165L659.4 147.5L662.8 122.9L666.2 118.5L669.7 104.8L673.1 165.4L676.5 129L679.9 100.6L683.3 95.8L686.7 101.6L690.1 106.7" stroke="rgb(213, 178, 52)" stroke-opacity="0.7" stroke-width="0.5" fill="none" class="Western-Europe_4-border"></path><path stroke-linecap="round" d="M52.6 493.7L56 496.1L59.4 499L62.8 502.5L66.2 484.3L69.6 487.6L73 477.3L76.4 434.2L79.8 468.8L83.2 463.4L86.7 461.2L90.1 472.3L93.5 449.3L96.9 446.4L100.3 467.1L103.7 470.9L107.1 483.1L110.5 466.5L113.9 466.5L117.3 469.9L120.7 476.2L124.2 465.3L127.6 459.3L131 434.6L134.4 433.8L137.8 437.3L141.2 423.2L144.6 422.5L148 411.6L151.4 409.1L154.8 418.5L158.3 424.8L161.7 403.7L165.1 382.6L168.5 405.9L171.9 411L175.3 405.7L178.7 395.5L182.1 366.9L185.5 376.4L188.9 379.6L192.3 384.4L195.8 378.5L199.2 356.5L202.6 324L206 323.8L209.4 331.9L212.8 334.9L216.2 325.5L219.6 328.5L223 334.7L226.4 338.1L229.8 326.2L233.3 304.1L236.7 303.2L240.1 295.5L243.5 291L246.9 294.2L250.3 305L253.7 305.3L257.1 298.2L260.5 314.6L263.9 315.3L267.4 317.3L270.8 319.4L274.2 328.8L277.6 328.5L281 340.6L284.4 333.8L287.8 329.2L291.2 308.3L294.6 339.2L298 330.6L301.4 323.9L304.9 330L308.3 324.2L311.7 326.1L315.1 324.7L318.5 316.3L321.9 303.6L325.3 295.4L328.7 309.7L332.1 315.8L335.5 294.5L338.9 301.6L342.4 294.1L345.8 287.5L349.2 342.5L352.6 356.8L356 359.6L359.4 383.6L362.8 414.9L366.2 349.7L369.6 311.2L373 355.2L376.5 359.9L379.9 331.7L383.3 301.8L386.7 307.4L390.1 310.8L393.5 320.5L396.9 318.3L400.3 311.8L403.7 336.4L407.1 361L410.5 406.9L414 415.9L417.4 426.7L420.8 429.3L424.2 430L427.6 412.2L431 430L434.4 448.3L437.8 475.2L441.2 472L444.6 474.8L448 475.1L451.5 494.6L454.9 506.1L458.3 456.2L461.7 441L465.1 387.7L468.5 377.6L471.9 346L475.3 315.4L478.7 343.3L482.1 359.8L485.5 356.6L489 345.4L492.4 347L495.8 347.3L499.2 355.1L502.6 339.6L506 343.9L509.4 347.4L512.8 349.7L516.2 351L519.6 349.4L523.1 343.6L526.5 340.6L529.9 346.5L533.3 332.5L536.7 318.2L540.1 314.2L543.5 312.1L546.9 309.8L550.3 291.9L553.7 255.2L557.1 283.7L560.6 265.6L564 259.2L567.4 262.3L570.8 253L574.2 253.3L577.6 246.7L581 247L584.4 239.5L587.8 215.2L591.2 211.8L594.6 249.4L598.1 258.8L601.5 258.2L604.9 245.8L608.3 252.9L611.7 252.9L615.1 264.1L618.5 271.6L621.9 248.4L625.3 229.1L628.7 225.1L632.2 205.4L635.6 204.7L639 189.1L642.4 146.4L645.8 154.8L649.2 170.2L652.6 174.8L656 161.5L659.4 143.7L662.8 119.5L666.2 114.8L669.7 100.9L673.1 161.9L676.5 125.2L679.9 96.4L683.3 91.2L686.7 97.4L690.1 102.6" stroke="rgb(132, 171, 115)" stroke-opacity="0.7" stroke-width="0.5" fill="none" class="Western-Europe_5-border"></path><path stroke-linecap="round" d="M52.6 492.6L56 495.1L59.4 497.4L62.8 501.4L66.2 483.2L69.6 486.3L73 475.2L76.4 432L79.8 467.6L83.2 462.3L86.7 459.3L90.1 470L93.5 446.5L96.9 443L100.3 464.3L103.7 467.9L107.1 480.1L110.5 462.8L113.9 461.6L117.3 465L120.7 472.4L124.2 461.8L127.6 455.1L131 428.4L134.4 428.7L137.8 432.2L141.2 417.9L144.6 417.7L148 403.7L151.4 402.2L154.8 413.3L158.3 418.7L161.7 397.6L165.1 374.7L168.5 401.3L171.9 406.7L175.3 401.3L178.7 390.6L182.1 357.8L185.5 372.1L188.9 375.8L192.3 380.8L195.8 374.4L199.2 347L202.6 317.8L206 318L209.4 326.5L212.8 329L216.2 319.4L219.6 324.2L223 329.2L226.4 331.6L229.8 319.8L233.3 296.9L236.7 298.5L240.1 288.6L243.5 285L246.9 288.2L250.3 298.7L253.7 300.4L257.1 293.7L260.5 310.1L263.9 310.8L267.4 312.3L270.8 313.9L274.2 323.5L277.6 323.2L281 334.8L284.4 327.6L287.8 322.6L291.2 301.4L294.6 332L298 323.2L301.4 316L304.9 322.2L308.3 316.1L311.7 317.5L315.1 315.6L318.5 307.2L321.9 293.3L325.3 284.7L328.7 299.1L332.1 304.7L335.5 281.5L338.9 288.8L342.4 280L345.8 273.2L349.2 327.4L352.6 344.1L356 346L359.4 373L362.8 403.4L366.2 336.4L369.6 290.2L373 340.2L376.5 344.5L379.9 314.8L383.3 283.9L386.7 291.6L390.1 296L393.5 305.7L396.9 299.9L400.3 293.6L403.7 319.1L407.1 346.7L410.5 394.5L414 403.9L417.4 415.1L420.8 417.5L424.2 417.3L427.6 399.2L431 417.9L434.4 438.9L437.8 469.2L441.2 467.2L444.6 469.4L448 471.7L451.5 491.1L454.9 500.5L458.3 444.4L461.7 425.8L465.1 362.5L468.5 351.6L471.9 317.8L475.3 282.9L478.7 312.3L482.1 331.4L485.5 330L489 318L492.4 321.8L495.8 321.8L499.2 328.7L502.6 315.2L506 318.6L509.4 325.3L512.8 330.7L516.2 332.1L519.6 330.9L523.1 325L526.5 323.9L529.9 331.2L533.3 316.7L536.7 302.4L540.1 297.9L543.5 295.7L546.9 295.4L550.3 276.7L553.7 235.7L557.1 261.2L560.6 244.2L564 235.4L567.4 239.3L570.8 234.3L574.2 231.9L577.6 221.2L581 223.9L584.4 217.1L587.8 194.2L591.2 193.7L594.6 236L598.1 247.4L601.5 247.4L604.9 234.9L608.3 242.3L611.7 243.9L615.1 255.3L618.5 262.8L621.9 240L625.3 220.1L628.7 216.3L632.2 196.6L635.6 195L639 179.4L642.4 136.1L645.8 145.1L649.2 160.9L652.6 165.3L656 151.9L659.4 133.6L662.8 109L666.2 103.1L669.7 87.7L673.1 149.1L676.5 111.7L679.9 82.9L683.3 76.6L686.7 82.7L690.1 88.1" stroke="rgb(44, 127, 53)" stroke-opacity="0.7" stroke-width="0.5" fill="none" class="Western-Europe_1-border"></path></g></g></g><g style="fill: #777;" class="SourcesFooter"><g style="fill: #777;" class="clickable"><text font-size="12.60" x="15.0" y="581.6"><tspan x="15" y="581.58">Source: CEPII (2016) Two Centuries of Bilateral Trade and Gravity Data: 1827-2014 (2016)</tspan></text></g><text font-size="12.60" x="775.4" y="581.6"><tspan x="775.402" y="581.58"><a style="fill: #777;" class="cclogo" href="http://creativecommons.org/licenses/by-sa/4.0/deed.en_US" target="_blank">CC BY-SA</a></tspan></text></g></g></svg>