<svg xmlns="http://www.w3.org/2000/svg" version="1.1" style="font-family: 'Helvetica Neue', Helvetica, Arial, sans-serif; font-size: 18px; background-color: white; text-rendering: optimizeLegibility; -webkit-font-smoothing: antialiased;" width="850" height="600"><g class="ChartTab"><g class="HeaderView"><g opacity="0.8" transform="translate(770, 15) scale(0.31)"><a xmlns:xlink="http://www.w3.org/1999/xlink" xlink:href="https://ourworldindata.org" target="_blank"><g><rect x="0" y="0" fill="#1B2543" width="211.2" height="130.1"/><rect x="0" y="112.2" fill="#E63912" width="211.2" height="17.9"/><g><rect x="1.2" y="12.3" fill="none" width="210.2" height="99.2"/><path fill="#FFFFFF" d="M37.8,32.2c0,12.7-7.7,19.4-17.1,19.4c-9.7,0-16.6-7.5-16.6-18.7c0-11.7,7.3-19.3,17.1-19.3 C31.3,13.7,37.8,21.3,37.8,32.2z M9.2,32.8c0,7.9,4.3,14.9,11.8,14.9c7.5,0,11.8-6.9,11.8-15.3c0-7.3-3.8-14.9-11.8-14.9 C13.1,17.5,9.2,24.8,9.2,32.8z"/><path fill="#FFFFFF" d="M62.7,43.8c0,2.7,0.1,5.1,0.2,7.2h-4.3l-0.3-4.3h-0.1c-1.3,2.1-4,4.9-8.8,4.9c-4.2,0-9.1-2.3-9.1-11.6 V24.6h4.8v14.6c0,5,1.5,8.4,5.9,8.4c3.2,0,5.5-2.2,6.3-4.4c0.3-0.7,0.4-1.6,0.4-2.5V24.6h4.8V43.8z"/><path fill="#FFFFFF" d="M67.3,32.8c0-3.1-0.1-5.8-0.2-8.2h4.2l0.2,5.2h0.2c1.2-3.5,4.1-5.8,7.3-5.8c0.5,0,0.9,0.1,1.4,0.2v4.5 c-0.5-0.1-1-0.2-1.6-0.2c-3.4,0-5.8,2.6-6.5,6.2c-0.1,0.7-0.2,1.4-0.2,2.2V51h-4.8V32.8z"/><path fill="#FFFFFF" d="M95.4,51l-9.4-36.8h5l4.4,18.6c1.1,4.6,2.1,9.2,2.7,12.7h0.1c0.6-3.7,1.8-8,3-12.8l4.9-18.5h5l4.5,18.7 c1,4.4,2,8.7,2.6,12.6h0.1c0.8-4,1.8-8.1,3-12.7l4.9-18.5h4.9L120.6,51h-5L111,31.9c-1.1-4.7-1.9-8.3-2.4-12h-0.1 c-0.7,3.7-1.5,7.3-2.8,12L100.4,51H95.4z"/><path fill="#FFFFFF" d="M154.9,37.6c0,9.8-6.8,14-13.2,14c-7.2,0-12.7-5.2-12.7-13.6c0-8.8,5.8-14,13.1-14 C149.8,24,154.9,29.5,154.9,37.6z M133.9,37.9c0,5.8,3.3,10.1,8,10.1c4.6,0,8-4.3,8-10.3c0-4.5-2.2-10.1-7.9-10.1 C136.3,27.6,133.9,32.8,133.9,37.9z"/><path fill="#FFFFFF" d="M158.2,32.8c0-3.1-0.1-5.8-0.2-8.2h4.2l0.2,5.2h0.2c1.2-3.5,4.1-5.8,7.3-5.8c0.5,0,0.9,0.1,1.4,0.2v4.5 c-0.5-0.1-1-0.2-1.6-0.2c-3.4,0-5.8,2.6-6.5,6.2c-0.1,0.7-0.2,1.4-0.2,2.2V51h-4.8V32.8z"/><path fill="#FFFFFF" d="M173.5,12.3h4.8V51h-4.8V12.3z"/><path fill="#FFFFFF" d="M206.5,12.3v31.9c0,2.3,0.1,5,0.2,6.8h-4.3l-0.2-4.6H202c-1.5,2.9-4.7,5.2-9,5.2 c-6.4,0-11.3-5.4-11.3-13.4c-0.1-8.8,5.4-14.2,11.9-14.2c4,0,6.8,1.9,8,4h0.1V12.3H206.5z M201.7,35.4c0-0.6-0.1-1.4-0.2-2 c-0.7-3.1-3.3-5.6-6.9-5.6c-5,0-7.9,4.4-7.9,10.2c0,5.3,2.6,9.8,7.8,9.8c3.2,0,6.2-2.1,7.1-5.7c0.2-0.7,0.2-1.3,0.2-2.1V35.4z"/><path fill="#FFFFFF" d="M42.8,64c0.1,1.6-1.1,2.9-3.1,2.9c-1.7,0-2.9-1.3-2.9-2.9c0-1.7,1.3-3,3-3C41.7,61,42.8,62.3,42.8,64z M37.4,97.8V71.4h4.8v26.4H37.4z"/><path fill="#FFFFFF" d="M47.5,78.6c0-2.7-0.1-5-0.2-7.1h4.3l0.3,4.4h0.1c1.3-2.5,4.4-5,8.8-5c3.7,0,9.4,2.2,9.4,11.2v15.8h-4.8 V82.6c0-4.3-1.6-7.8-6.1-7.8c-3.2,0-5.6,2.2-6.5,4.9c-0.2,0.6-0.3,1.4-0.3,2.2v15.9h-4.8V78.6z"/><path fill="#FFFFFF" d="M84,61.6c2.9-0.4,6.3-0.8,10.1-0.8c6.8,0,11.7,1.6,14.9,4.6c3.3,3,5.2,7.3,5.2,13.2c0,6-1.9,10.9-5.3,14.3 c-3.4,3.4-9.1,5.3-16.3,5.3c-3.4,0-6.2-0.2-8.6-0.4V61.6z M88.8,94.1c1.2,0.2,3,0.3,4.8,0.3c10.2,0,15.7-5.7,15.7-15.6 c0.1-8.7-4.9-14.2-14.9-14.2c-2.5,0-4.3,0.2-5.6,0.5V94.1z"/><path fill="#FFFFFF" d="M132.1,97.8l-0.4-3.3h-0.2c-1.5,2.1-4.3,3.9-8.1,3.9c-5.4,0-8.1-3.8-8.1-7.6c0-6.4,5.7-9.9,15.9-9.8v-0.5 c0-2.2-0.6-6.1-6-6.1c-2.5,0-5,0.8-6.9,2l-1.1-3.2c2.2-1.4,5.4-2.3,8.7-2.3c8.1,0,10.1,5.5,10.1,10.8v9.9c0,2.3,0.1,4.5,0.4,6.3 H132.1z M131.4,84.4c-5.3-0.1-11.2,0.8-11.2,5.9c0,3.1,2.1,4.6,4.5,4.6c3.4,0,5.6-2.2,6.4-4.4c0.2-0.5,0.3-1,0.3-1.5V84.4z"/><path fill="#FFFFFF" d="M146.6,63.9v7.6h6.9v3.7h-6.9v14.2c0,3.3,0.9,5.1,3.6,5.1c1.3,0,2.2-0.2,2.8-0.3l0.2,3.6 c-0.9,0.4-2.4,0.7-4.3,0.7c-2.2,0-4-0.7-5.2-2c-1.4-1.4-1.9-3.8-1.9-6.9V75.1h-4.1v-3.7h4.1v-6.3L146.6,63.9z"/><path fill="#FFFFFF" d="M171.4,97.8l-0.4-3.3h-0.2c-1.5,2.1-4.3,3.9-8.1,3.9c-5.4,0-8.1-3.8-8.1-7.6c0-6.4,5.7-9.9,15.9-9.8v-0.5 c0-2.2-0.6-6.1-6-6.1c-2.5,0-5,0.8-6.9,2l-1.1-3.2c2.2-1.4,5.4-2.3,8.7-2.3c8.1,0,10.1,5.5,10.1,10.8v9.9c0,2.3,0.1,4.5,0.4,6.3 H171.4z M170.7,84.4c-5.3-0.1-11.2,0.8-11.2,5.9c0,3.1,2.1,4.6,4.5,4.6c3.4,0,5.6-2.2,6.4-4.4c0.2-0.5,0.3-1,0.3-1.5V84.4z"/></g></g></a></g><a href="https://ourworldindata.org/grapher/extreme-poverty-headcount-ratio-vs-life-expectancy-at-birth" target="_blank"><text font-size="21.60" x="15.0" y="32.3" fill="#555"><tspan x="15" y="32.279999999999994">Extreme poverty (headcount ratio) vs Life expectancy at birth, 2013</tspan></text></a><text font-size="14.40" x="15.0" y="50.1" fill="#666"><tspan x="15" y="50.11999999999999">The horizontal axis shows life expectancy at birth for each country (i.e. the number of years a newborn infant would</tspan><tspan x="15" y="65.96">live if prevailing patterns of mortality at the time of its birth were to stay the same throughout its life). The vertical axis</tspan><tspan x="15" y="81.8">shows the poverty headcount ratio at $1.90 international dollars (i.e. after adjusting for inflation and cross-country</tspan><tspan x="15" y="97.63999999999999">price differences).</tspan></text></g><g><g class="AxisBoxView"><g class="HorizontalAxis"><text font-size="12.60" x="228.3" y="554.0"><tspan x="228.29" y="553.98">Life expectancy at birth, male and female (years)</tspan></text><text x="96.2" y="533.9" fill="#666" text-anchor="middle" font-size="16.2">50 years</text><text x="195.4" y="533.9" fill="#666" text-anchor="middle" font-size="16.2">55 years</text><text x="294.6" y="533.9" fill="#666" text-anchor="middle" font-size="16.2">60 years</text><text x="393.7" y="533.9" fill="#666" text-anchor="middle" font-size="16.2">65 years</text><text x="492.9" y="533.9" fill="#666" text-anchor="middle" font-size="16.2">70 years</text><text x="592.1" y="533.9" fill="#666" text-anchor="middle" font-size="16.2">75 years</text><text x="691.2" y="533.9" fill="#666" text-anchor="middle" font-size="16.2">80 years</text></g><g class="VerticalAxis"><text font-size="12.60" x="-481.3" y="25.1" transform="rotate(-90)"><tspan x="-481.262" y="25.080000000000002">Poverty headcount ratio at $1.90 a day (2011 PPP)</tspan></text><text x="70.16" y="512.7" fill="#666" dominant-baseline="middle" text-anchor="end" font-size="16.2">0%</text><text x="70.16" y="462.2" fill="#666" dominant-baseline="middle" text-anchor="end" font-size="16.2">10%</text><text x="70.16" y="411.7" fill="#666" dominant-baseline="middle" text-anchor="end" font-size="16.2">20%</text><text x="70.16" y="361.2" fill="#666" dominant-baseline="middle" text-anchor="end" font-size="16.2">30%</text><text x="70.16" y="310.6" fill="#666" dominant-baseline="middle" text-anchor="end" font-size="16.2">40%</text><text x="70.16" y="260.1" fill="#666" dominant-baseline="middle" text-anchor="end" font-size="16.2">50%</text><text x="70.16" y="209.6" fill="#666" dominant-baseline="middle" text-anchor="end" font-size="16.2">60%</text><text x="70.16" y="159.1" fill="#666" dominant-baseline="middle" text-anchor="end" font-size="16.2">70%</text></g><g class="AxisGridLines"><line x1="75.16" y1="512.7" x2="715.00" y2="512.7" stroke="#ccc"></line><line x1="75.16" y1="462.2" x2="715.00" y2="462.2" stroke="#ddd" stroke-dasharray="3,2"></line><line x1="75.16" y1="411.7" x2="715.00" y2="411.7" stroke="#ddd" stroke-dasharray="3,2"></line><line x1="75.16" y1="361.2" x2="715.00" y2="361.2" stroke="#ddd" stroke-dasharray="3,2"></line><line x1="75.16" y1="310.6" x2="715.00" y2="310.6" stroke="#ddd" stroke-dasharray="3,2"></line><line x1="75.16" y1="260.1" x2="715.00" y2="260.1" stroke="#ddd" stroke-dasharray="3,2"></line><line x1="75.16" y1="209.6" x2="715.00" y2="209.6" stroke="#ddd" stroke-dasharray="3,2"></line><line x1="75.16" y1="159.1" x2="715.00" y2="159.1" stroke="#ddd" stroke-dasharray="3,2"></line></g><g class="AxisGridLines"><line x1="96.2" y1="512.70" x2="96.2" y2="119.50" stroke="#ddd" stroke-dasharray="3,2"></line><line x1="195.4" y1="512.70" x2="195.4" y2="119.50" stroke="#ddd" stroke-dasharray="3,2"></line><line x1="294.6" y1="512.70" x2="294.6" y2="119.50" stroke="#ddd" stroke-dasharray="3,2"></line><line x1="393.7" y1="512.70" x2="393.7" y2="119.50" stroke="#ddd" stroke-dasharray="3,2"></line><line x1="492.9" y1="512.70" x2="492.9" y2="119.50" stroke="#ddd" stroke-dasharray="3,2"></line><line x1="592.1" y1="512.70" x2="592.1" y2="119.50" stroke="#ddd" stroke-dasharray="3,2"></line><line x1="691.2" y1="512.70" x2="691.2" y2="119.50" stroke="#ddd" stroke-dasharray="3,2"></line></g></g><g clip-path="url(#scatterBounds-1)" class="PointsWithLabels clickable"><rect x="75.162" y="119.5" width="639.838" height="393.2" fill="rgba(255,255,255,0)"></rect><defs><clipPath id="scatterBounds-1"><rect x="65.162" y="109.5" width="659.838" height="413.2"></rect></clipPath></defs><circle cx="603" cy="503" r="17.841241161527712" fill="#d14e5b" opacity="0.8"></circle><circle cx="446" cy="405" r="17.28532904372694" fill="#d14e5b" opacity="0.8"></circle><circle cx="467" cy="463" r="7.7763654819310455" fill="#d14e5b" opacity="0.8"></circle><circle cx="574" cy="488" r="7.038740850636698" fill="#69c487" opacity="0.8"></circle><circle cx="412" cy="482" r="6.7553548747407515" fill="#d14e5b" opacity="0.8"></circle><circle cx="144" cy="242" r="6.541112151328741" fill="#5675c1" opacity="0.8"></circle><circle cx="517" cy="419" r="6.241733870728568" fill="#d14e5b" opacity="0.8"></circle><circle cx="504" cy="512" r="6.017914816077575" fill="#ffd336" opacity="0.8"></circle><circle cx="622" cy="497" r="5.513717866129634" fill="#4d824b" opacity="0.8"></circle><circle cx="455" cy="446" r="5.090337671068338" fill="#d14e5b" opacity="0.8"></circle><circle cx="601" cy="497" r="4.917616422623405" fill="#d14e5b" opacity="0.8"></circle><circle cx="362" cy="343" r="4.863095579608136" fill="#5675c1" opacity="0.8"></circle><circle cx="594" cy="512" r="4.569405303337244" fill="#d14e5b" opacity="0.8"></circle><circle cx="590" cy="511" r="4.542742584915323" fill="#d14e5b" opacity="0.8"></circle><circle cx="260" cy="123" r="4.44108580920556" fill="#5675c1" opacity="0.8"></circle><circle cx="577" cy="512" r="4.41027397608275" fill="#d14e5b" opacity="0.8"></circle><circle cx="229" cy="429" r="3.871038721396101" fill="#5675c1" opacity="0.8"></circle><circle cx="379" cy="277" r="3.8159056981444914" fill="#5675c1" opacity="0.8"></circle><circle cx="568" cy="481" r="3.785781015668172" fill="#69c487" opacity="0.8"></circle><circle cx="515" cy="512" r="3.678047880976736" fill="#ffd336" opacity="0.8"></circle><circle cx="611" cy="503" r="3.5750385048665883" fill="#69c487" opacity="0.8"></circle><circle cx="631" cy="512" r="3.471663198140818" fill="#ffd336" opacity="0.8"></circle><circle cx="250" cy="337" r="3.418754768247919" fill="#5675c1" opacity="0.8"></circle><circle cx="357" cy="437" r="3.3908937972936863" fill="#5675c1" opacity="0.8"></circle><circle cx="477" cy="437" r="3.236796609240561" fill="#d14e5b" opacity="0.8"></circle><circle cx="577" cy="494" r="3.18407037779907" fill="#69c487" opacity="0.8"></circle><circle cx="583" cy="511" r="3.1735691223721743" fill="#d14e5b" opacity="0.8"></circle><circle cx="188" cy="165" r="2.994709011747376" fill="#5675c1" opacity="0.8"></circle><circle cx="387" cy="119" r="2.8973956838512342" fill="#5675c1" opacity="0.8"></circle><circle cx="585" cy="503" r="2.850562467331652" fill="#d14e5b" opacity="0.8"></circle><circle cx="593" cy="512" r="2.848322581025523" fill="#ffd336" opacity="0.8"></circle><circle cx="120" cy="366" r="2.836843543549476" fill="#5675c1" opacity="0.8"></circle><circle cx="196" cy="391" r="2.8309649038508624" fill="#5675c1" opacity="0.8"></circle><circle cx="133" cy="360" r="2.8228008208829714" fill="#5675c1" opacity="0.8"></circle><circle cx="259" cy="291" r="2.7095327840612344" fill="#5675c1" opacity="0.8"></circle><circle cx="715" cy="508" r="2.6907708430022574" fill="#69c487" opacity="0.8"></circle><circle cx="311" cy="281" r="2.6763161658195194" fill="#5675c1" opacity="0.8"></circle><circle cx="245" cy="263" r="2.6575578276467473" fill="#5675c1" opacity="0.8"></circle><circle cx="501" cy="512" r="2.6463127374799935" fill="#d14e5b" opacity="0.8"></circle><circle cx="323" cy="154" r="2.6399963001834985" fill="#5675c1" opacity="0.8"></circle><circle cx="522" cy="465" r="2.60109557472326" fill="#4d824b" opacity="0.8"></circle><circle cx="604" cy="490" r="2.5802404472526557" fill="#69c487" opacity="0.8"></circle><circle cx="448" cy="501" r="2.5619642060564307" fill="#d14e5b" opacity="0.8"></circle><circle cx="279" cy="187" r="2.546466183921132" fill="#5675c1" opacity="0.8"></circle><circle cx="411" cy="320" r="2.5069982308219823" fill="#5675c1" opacity="0.8"></circle><circle cx="208" cy="404" r="2.501153281629784" fill="#5675c1" opacity="0.8"></circle><circle cx="119" cy="318" r="2.445568367998323" fill="#5675c1" opacity="0.8"></circle><circle cx="361" cy="207" r="2.420152336729512" fill="#5675c1" opacity="0.8"></circle><circle cx="199" cy="297" r="2.3851040397919223" fill="#5675c1" opacity="0.8"></circle><circle cx="586" cy="502" r="2.3817824093264734" fill="#5675c1" opacity="0.8"></circle><circle cx="259" cy="334" r="2.3788605627023105" fill="#5675c1" opacity="0.8"></circle><circle cx="655" cy="512" r="2.3708619698343583" fill="#ffd336" opacity="0.8"></circle><circle cx="451" cy="473" r="2.3620428535095224" fill="#69c487" opacity="0.8"></circle><circle cx="342" cy="240" r="2.360995523229828" fill="#4d824b" opacity="0.8"></circle><circle cx="558" cy="501" r="2.357073664103558" fill="#4d824b" opacity="0.8"></circle><circle cx="603" cy="511" r="2.3385685151121955" fill="#ffd336" opacity="0.8"></circle><circle cx="595" cy="511" r="2.333666912904531" fill="#ffd336" opacity="0.8"></circle><circle cx="280" cy="244" r="2.3222905520399104" fill="#5675c1" opacity="0.8"></circle><circle cx="506" cy="510" r="2.31863949368219" fill="#d14e5b" opacity="0.8"></circle><circle cx="541" cy="512" r="2.316881325795707" fill="#ffd336" opacity="0.8"></circle><circle cx="551" cy="417" r="2.2443640126300224" fill="#4d824b" opacity="0.8"></circle><circle cx="589" cy="502" r="2.2067564038365424" fill="#ffd336" opacity="0.8"></circle><circle cx="343" cy="314" r="2.205590981865075" fill="#a652ba" opacity="0.8"></circle><circle cx="481" cy="398" r="2.1980230637498046" fill="#d14e5b" opacity="0.8"></circle><circle cx="548" cy="501" r="2.1776093479063587" fill="#69c487" opacity="0.8"></circle><circle cx="407" cy="428" r="2.1594713171043574" fill="#d14e5b" opacity="0.8"></circle><circle cx="277" cy="239" r="2.1569818645677943" fill="#5675c1" opacity="0.8"></circle><circle cx="542" cy="496" r="2.1510711580024866" fill="#4d824b" opacity="0.8"></circle><circle cx="103" cy="248" r="2.1485067460019454" fill="#5675c1" opacity="0.8"></circle><circle cx="582" cy="481" r="2.136962440390657" fill="#4d824b" opacity="0.8"></circle><circle cx="496" cy="496" r="2.107549544535995" fill="#d14e5b" opacity="0.8"></circle><circle cx="620" cy="511" r="2.1067531016665204" fill="#ffd336" opacity="0.8"></circle><circle cx="675" cy="504" r="2.0718660756737783" fill="#4d824b" opacity="0.8"></circle><circle cx="93" cy="178" r="2.0610329637862383" fill="#5675c1" opacity="0.8"></circle><circle cx="634" cy="508" r="2.044769730093983" fill="#ffd336" opacity="0.8"></circle><circle cx="327" cy="326" r="2.0416717772128927" fill="#5675c1" opacity="0.8"></circle><circle cx="582" cy="454" r="2.0390704572545073" fill="#d14e5b" opacity="0.8"></circle><circle cx="617" cy="512" r="2.007992275753474" fill="#ffd336" opacity="0.8"></circle><circle cx="350" cy="482" r="2.006175012488003" fill="#5675c1" opacity="0.8"></circle><circle cx="640" cy="498" r="2.004663511997593" fill="#4d824b" opacity="0.8"></circle><circle cx="516" cy="512" r="1.9940766802593126" fill="#ffd336" opacity="0.8"></circle><circle cx="628" cy="511" r="1.988690059500242" fill="#69c487" opacity="0.8"></circle><circle cx="570" cy="507" r="1.981403609236865" fill="#ffd336" opacity="0.8"></circle><circle cx="644" cy="507" r="1.9790609259221295" fill="#ffd336" opacity="0.8"></circle><circle cx="583" cy="500" r="1.9719849653634067" fill="#d14e5b" opacity="0.8"></circle><circle cx="474" cy="511" r="1.9584269781783112" fill="#d14e5b" opacity="0.8"></circle><circle cx="380" cy="398" r="1.929604182165908" fill="#5675c1" opacity="0.8"></circle><circle cx="83" cy="211" r="1.9197058679921042" fill="#5675c1" opacity="0.8"></circle><circle cx="571" cy="505" r="1.9188684293016622" fill="#ffd336" opacity="0.8"></circle><circle cx="381" cy="420" r="1.9096859027283557" fill="#5675c1" opacity="0.8"></circle><circle cx="595" cy="506" r="1.9093582834028673" fill="#ffd336" opacity="0.8"></circle><circle cx="697" cy="512" r="1.9078731843213723" fill="#ffd336" opacity="0.8"></circle><circle cx="192" cy="173" r="1.8814523944906598" fill="#5675c1" opacity="0.8"></circle><circle cx="634" cy="507" r="1.8644899037414828" fill="#ffd336" opacity="0.8"></circle><circle cx="572" cy="510" r="1.8633675816948168" fill="#5675c1" opacity="0.8"></circle><circle cx="75" cy="300" r="1.8581585659306488" fill="#5675c1" opacity="0.8"></circle><circle cx="328" cy="398" r="1.8395330351535029" fill="#5675c1" opacity="0.8"></circle><circle cx="491" cy="492" r="1.835923415228615" fill="#a652ba" opacity="0.8"></circle><circle cx="475" cy="501" r="1.828296349682558" fill="#d14e5b" opacity="0.8"></circle><circle cx="611" cy="507" r="1.8200899641041965" fill="#ffd336" opacity="0.8"></circle><circle cx="623" cy="476" r="1.8005854608688014" fill="#d14e5b" opacity="0.8"></circle><circle cx="526" cy="435" r="1.7960257511093174" fill="#a652ba" opacity="0.8"></circle><circle cx="557" cy="508" r="1.7913673410790456" fill="#a652ba" opacity="0.8"></circle><circle cx="418" cy="349" r="1.7906978777388844" fill="#5675c1" opacity="0.8"></circle><circle cx="545" cy="507" r="1.78615322781507" fill="#a652ba" opacity="0.8"></circle><circle cx="554" cy="507" r="1.7849945744984697" fill="#5675c1" opacity="0.8"></circle><circle cx="586" cy="494" r="1.779308820797616" fill="#000" opacity="0.8"></circle><circle cx="310" cy="318" r="1.779308820797616" fill="#000" opacity="0.8"></circle><circle cx="530" cy="475" r="1.779308820797616" fill="#000" opacity="0.8"></circle><circle cx="483" cy="448" r="1.779308820797616" fill="#000" opacity="0.8"></circle><circle cx="295" cy="402" r="1.779308820797616" fill="#000" opacity="0.8"></circle><circle cx="357" cy="344" r="1.779308820797616" fill="#000" opacity="0.8"></circle><circle cx="336" cy="366" r="1.779308820797616" fill="#000" opacity="0.8"></circle><circle cx="586" cy="485" r="1.779308820797616" fill="#000" opacity="0.8"></circle><circle cx="481" cy="449" r="1.779308820797616" fill="#000" opacity="0.8"></circle><circle cx="309" cy="279" r="1.779308820797616" fill="#000" opacity="0.8"></circle><circle cx="431" cy="430" r="1.779308820797616" fill="#000" opacity="0.8"></circle><circle cx="501" cy="463" r="1.779308820797616" fill="#000" opacity="0.8"></circle><circle cx="448" cy="436" r="1.779308820797616" fill="#000" opacity="0.8"></circle><circle cx="581" cy="499" r="1.779308820797616" fill="#000" opacity="0.8"></circle><circle cx="517" cy="458" r="1.779308820797616" fill="#000" opacity="0.8"></circle><circle cx="545" cy="502" r="1.779308820797616" fill="#000" opacity="0.8"></circle><circle cx="627" cy="501" r="1.779308820797616" fill="#000" opacity="0.8"></circle><circle cx="256" cy="305" r="1.779308820797616" fill="#000" opacity="0.8"></circle><circle cx="472" cy="425" r="1.779308820797616" fill="#a652ba" opacity="0.8"></circle><circle cx="508" cy="508" r="1.779308820797616" fill="#ffd336" opacity="0.8"></circle><circle cx="547" cy="512" r="1.779308820797616" fill="#d14e5b" opacity="0.8"></circle><text x="603" y="484.1587588384723" font-size="14.3" font-family="Arial Narrow, Arial, sans-serif" fill="#666">China</text><text x="446" y="386.71467095627304" font-size="14.095510738838048" font-family="Arial Narrow, Arial, sans-serif" fill="#666">India</text><text x="467" y="454.22363451806893" font-size="11.599926504886632" font-family="Arial Narrow, Arial, sans-serif" fill="#666">Indonesia</text><text x="574" y="479.9612591493633" font-size="11.485488889002708" font-family="Arial Narrow, Arial, sans-serif" fill="#666">Brazil</text><text x="412" y="474.24464512525924" font-size="11.44455337879279" font-family="Arial Narrow, Arial, sans-serif" fill="#666">Pakistan</text><text x="144" y="234.45888784867125" font-size="11.414722162619816" font-family="Arial Narrow, Arial, sans-serif" fill="#666">Nigeria</text><text x="517" y="411.7582661292714" font-size="11.37464689184997" font-family="Arial Narrow, Arial, sans-serif" fill="#666">Bangladesh</text><text x="504" y="504.98208518392244" font-size="11.345912388163102" font-family="Arial Narrow, Arial, sans-serif" fill="#666">Russia</text><text x="455" y="439.9096623289317" font-size="11.238011653948822" font-family="Arial Narrow, Arial, sans-serif" fill="#666">Philippines</text><text x="362" y="337.1369044203919" font-size="11.214325731443028" font-family="Arial Narrow, Arial, sans-serif" fill="#666">Ethiopia</text><text x="594" y="506.43059469666275" font-size="11.185315911029239" font-family="Arial Narrow, Arial, sans-serif" fill="#666">Iran</text><text x="260" y="130.67320798610425" font-size="11.173207986104238" font-family="Arial Narrow, Arial, sans-serif" fill="#666">Democratic Republic of Congo</text><text x="229" y="424.1289612786039" font-size="11.12358859958977" font-family="Arial Narrow, Arial, sans-serif" fill="#666">South Africa</text><text x="379" y="272.1840943018555" font-size="11.119150529396629" font-family="Arial Narrow, Arial, sans-serif" fill="#666">Tanzania</text><text x="631" y="507.52833680185915" font-size="11.092879579349775" font-family="Arial Narrow, Arial, sans-serif" fill="#666">Poland</text><text x="250" y="332.58124523175206" font-size="11.089061903433619" font-family="Arial Narrow, Arial, sans-serif" fill="#666">Uganda</text><text x="357" y="432.6091062027063" font-size="11.08707512441598" font-family="Arial Narrow, Arial, sans-serif" fill="#666">Sudan</text><text x="188" y="161.00529098825263" font-size="11.06058229683618" font-family="Arial Narrow, Arial, sans-serif" fill="#666">Mozambique</text><text x="120" y="362.1631564564505" font-size="11.05094178806971" font-family="Arial Narrow, Arial, sans-serif" fill="#666">Cote d'Ivoire</text><text x="196" y="387.1690350961491" font-size="11.05059287227843" font-family="Arial Narrow, Arial, sans-serif" fill="#666">Cameroon</text><text x="259" y="287.29046721593875" font-size="11.043547386017659" font-family="Arial Narrow, Arial, sans-serif" fill="#666">Burkina Faso</text><text x="689.8231310910123" y="504.30922915699773" font-size="11.042486363591095" font-family="Arial Narrow, Arial, sans-serif" fill="#666">Chile</text><text x="245" y="259.34244217235323" font-size="11.040626183412648" font-family="Arial Narrow, Arial, sans-serif" fill="#666">Mali</text><text x="323" y="150.3600036998165" font-size="11.039651942624642" font-family="Arial Narrow, Arial, sans-serif" fill="#666">Malawi</text><text x="522" y="461.3989044252767" font-size="11.037516892421603" font-family="Arial Narrow, Arial, sans-serif" fill="#666">Guatemala</text><text x="448" y="497.4380357939436" font-size="11.035401159666618" font-family="Arial Narrow, Arial, sans-serif" fill="#666">Cambodia</text><text x="279" y="183.45353381607887" font-size="11.034572087424998" font-family="Arial Narrow, Arial, sans-serif" fill="#666">Zambia</text><text x="411" y="316.493001769178" font-size="11.032483452992887" font-family="Arial Narrow, Arial, sans-serif" fill="#666">Senegal</text><text x="208" y="400.4988467183702" font-size="11.032176913229723" font-family="Arial Narrow, Arial, sans-serif" fill="#666">Zimbabwe</text><text x="119" y="314.5544316320017" font-size="11.029297506425344" font-family="Arial Narrow, Arial, sans-serif" fill="#666">Chad</text><text x="361" y="203.5798476632705" font-size="11.028002465387829" font-family="Arial Narrow, Arial, sans-serif" fill="#666">Rwanda</text><text x="342" y="236.63900447677017" font-size="11.025040598304392" font-family="Arial Narrow, Arial, sans-serif" fill="#666">Haiti</text><text x="280" y="240.6777094479601" font-size="11.02314238045144" font-family="Arial Narrow, Arial, sans-serif" fill="#666">Benin</text><text x="541" y="508.6831186742043" font-size="11.022879593239333" font-family="Arial Narrow, Arial, sans-serif" fill="#666">Belarus</text><text x="481" y="394.8019769362502" font-size="11.01725997838876" font-family="Arial Narrow, Arial, sans-serif" fill="#666">Tajikistan</text><text x="407" y="424.84052868289564" font-size="11.015500801491537" font-family="Arial Narrow, Arial, sans-serif" fill="#666">Laos</text><text x="542" y="492.8489288419975" font-size="11.015121619189657" font-family="Arial Narrow, Arial, sans-serif" fill="#666">El Salvador</text><text x="93" y="174.93896703621377" font-size="11.011150119869468" font-family="Arial Narrow, Arial, sans-serif" fill="#666">Central African Republic</text><text x="327" y="322.9583282227871" font-size="11.010318297009695" font-family="Arial Narrow, Arial, sans-serif" fill="#666">Congo</text><text x="582" y="450.9609295427455" font-size="11.010207133678191" font-family="Arial Narrow, Arial, sans-serif" fill="#666">Georgia</text><text x="350" y="478.99382498751197" font-size="11.008813626337359" font-family="Arial Narrow, Arial, sans-serif" fill="#666">Mauritania</text><text x="380" y="395.0703958178341" font-size="11.005657730212443" font-family="Arial Narrow, Arial, sans-serif" fill="#666">Namibia</text><text x="83" y="208.0802941320079" font-size="11.005258730350121" font-family="Arial Narrow, Arial, sans-serif" fill="#666">Lesotho</text><text x="75" y="297.14184143406936" font-size="11.00282381421384" font-family="Arial Narrow, Arial, sans-serif" fill="#666">Swaziland</text><text x="328" y="395.1604669648465" font-size="11.002102593879929" font-family="Arial Narrow, Arial, sans-serif" fill="#666">Djibouti</text><text x="526" y="432.2039742488907" font-size="11.00044620707325" font-family="Arial Narrow, Arial, sans-serif" fill="#666">Vanuatu</text><text x="418" y="346.20930212226114" font-size="11.000246091712519" font-family="Arial Narrow, Arial, sans-serif" fill="#666">Sao Tome and Principe</text><text x="336" y="363.2206911792024" font-size="10.999820311559956" font-family="Arial Narrow, Arial, sans-serif" fill="#666">IDA total</text><text x="309" y="276.2206911792024" font-size="10.999820311559956" font-family="Arial Narrow, Arial, sans-serif" fill="#666">Low income</text><text x="256" y="302.2206911792024" font-size="10.999820311559956" font-family="Arial Narrow, Arial, sans-serif" fill="#666">Sub-Saharan Africa</text></g><g style="cursor: pointer;" class="ScatterColorLegend clickable"><g class="legendMark"><rect x="735" y="117" width="43.256" height="17.6" fill="#fff" opacity="0"></rect>,<rect x="735" y="122.5" width="6" height="6" fill="#5675c1"></rect>,<text font-size="12.60" x="746.0" y="129.6"><tspan x="746" y="129.57999999999998">Africa</tspan></text></g><g class="legendMark"><rect x="735" y="134.6" width="35.57" height="17.6" fill="#fff" opacity="0"></rect>,<rect x="735" y="140.1" width="6" height="6" fill="#d14e5b"></rect>,<text font-size="12.60" x="746.0" y="147.2"><tspan x="746" y="147.17999999999998">Asia</tspan></text></g><g class="legendMark"><rect x="735" y="152.2" width="51.824" height="17.6" fill="#fff" opacity="0"></rect>,<rect x="735" y="157.7" width="6" height="6" fill="#ffd336"></rect>,<text font-size="12.60" x="746.0" y="164.8"><tspan x="746" y="164.77999999999997">Europe</tspan></text></g><g class="legendMark"><rect x="735" y="169.8" width="91.64" height="17.6" fill="#fff" opacity="0"></rect>,<rect x="735" y="175.3" width="6" height="6" fill="#4d824b"></rect>,<text font-size="12.60" x="746.0" y="182.4"><tspan x="746" y="182.38">North America</tspan></text></g><g class="legendMark"><rect x="735" y="187.4" width="58.124" height="17.6" fill="#fff" opacity="0"></rect>,<rect x="735" y="192.9" width="6" height="6" fill="#a652ba"></rect>,<text font-size="12.60" x="746.0" y="200.0"><tspan x="746" y="199.98">Oceania</tspan></text></g><g class="legendMark"><rect x="735" y="205" width="93.908" height="17.6" fill="#fff" opacity="0"></rect>,<rect x="735" y="210.5" width="6" height="6" fill="#69c487"></rect>,<text font-size="12.60" x="746.0" y="217.6"><tspan x="746" y="217.57999999999998">South America</tspan></text></g></g></g><g style="fill: #777;" class="SourcesFooter"><g style="fill: #777;" class="clickable"><text font-size="12.60" x="15.0" y="581.6"><tspan x="15" y="581.58">Source: World Bank – WDI</tspan></text></g><text font-size="12.60" x="649.0" y="581.6"><tspan x="649.024" y="581.58"><a target='_blank' style='fill: #777;' href='https://ourworldindata.org'>OurWorldInData.org</a> • <a style="fill: #777;" href="http://creativecommons.org/licenses/by-sa/4.0/deed.en_US" target="_blank">CC BY-SA</a></tspan></text></g></g></svg>