<svg xmlns="http://www.w3.org/2000/svg" version="1.1" style="font-family: 'Helvetica Neue', Helvetica, Arial, sans-serif; font-size: 18px; background-color: white; text-rendering: optimizeLegibility; -webkit-font-smoothing: antialiased;" width="850" height="600"><g class="ChartTab"><g class="HeaderView"><g opacity="0.8" transform="translate(770, 15) scale(0.31)"><a xmlns:xlink="http://www.w3.org/1999/xlink" xlink:href="https://ourworldindata.org" target="_blank"><g><rect x="0" y="0" fill="#1B2543" width="211.2" height="130.1"/><rect x="0" y="112.2" fill="#E63912" width="211.2" height="17.9"/><g><rect x="1.2" y="12.3" fill="none" width="210.2" height="99.2"/><path fill="#FFFFFF" d="M37.8,32.2c0,12.7-7.7,19.4-17.1,19.4c-9.7,0-16.6-7.5-16.6-18.7c0-11.7,7.3-19.3,17.1-19.3 C31.3,13.7,37.8,21.3,37.8,32.2z M9.2,32.8c0,7.9,4.3,14.9,11.8,14.9c7.5,0,11.8-6.9,11.8-15.3c0-7.3-3.8-14.9-11.8-14.9 C13.1,17.5,9.2,24.8,9.2,32.8z"/><path fill="#FFFFFF" d="M62.7,43.8c0,2.7,0.1,5.1,0.2,7.2h-4.3l-0.3-4.3h-0.1c-1.3,2.1-4,4.9-8.8,4.9c-4.2,0-9.1-2.3-9.1-11.6 V24.6h4.8v14.6c0,5,1.5,8.4,5.9,8.4c3.2,0,5.5-2.2,6.3-4.4c0.3-0.7,0.4-1.6,0.4-2.5V24.6h4.8V43.8z"/><path fill="#FFFFFF" d="M67.3,32.8c0-3.1-0.1-5.8-0.2-8.2h4.2l0.2,5.2h0.2c1.2-3.5,4.1-5.8,7.3-5.8c0.5,0,0.9,0.1,1.4,0.2v4.5 c-0.5-0.1-1-0.2-1.6-0.2c-3.4,0-5.8,2.6-6.5,6.2c-0.1,0.7-0.2,1.4-0.2,2.2V51h-4.8V32.8z"/><path fill="#FFFFFF" d="M95.4,51l-9.4-36.8h5l4.4,18.6c1.1,4.6,2.1,9.2,2.7,12.7h0.1c0.6-3.7,1.8-8,3-12.8l4.9-18.5h5l4.5,18.7 c1,4.4,2,8.7,2.6,12.6h0.1c0.8-4,1.8-8.1,3-12.7l4.9-18.5h4.9L120.6,51h-5L111,31.9c-1.1-4.7-1.9-8.3-2.4-12h-0.1 c-0.7,3.7-1.5,7.3-2.8,12L100.4,51H95.4z"/><path fill="#FFFFFF" d="M154.9,37.6c0,9.8-6.8,14-13.2,14c-7.2,0-12.7-5.2-12.7-13.6c0-8.8,5.8-14,13.1-14 C149.8,24,154.9,29.5,154.9,37.6z M133.9,37.9c0,5.8,3.3,10.1,8,10.1c4.6,0,8-4.3,8-10.3c0-4.5-2.2-10.1-7.9-10.1 C136.3,27.6,133.9,32.8,133.9,37.9z"/><path fill="#FFFFFF" d="M158.2,32.8c0-3.1-0.1-5.8-0.2-8.2h4.2l0.2,5.2h0.2c1.2-3.5,4.1-5.8,7.3-5.8c0.5,0,0.9,0.1,1.4,0.2v4.5 c-0.5-0.1-1-0.2-1.6-0.2c-3.4,0-5.8,2.6-6.5,6.2c-0.1,0.7-0.2,1.4-0.2,2.2V51h-4.8V32.8z"/><path fill="#FFFFFF" d="M173.5,12.3h4.8V51h-4.8V12.3z"/><path fill="#FFFFFF" d="M206.5,12.3v31.9c0,2.3,0.1,5,0.2,6.8h-4.3l-0.2-4.6H202c-1.5,2.9-4.7,5.2-9,5.2 c-6.4,0-11.3-5.4-11.3-13.4c-0.1-8.8,5.4-14.2,11.9-14.2c4,0,6.8,1.9,8,4h0.1V12.3H206.5z M201.7,35.4c0-0.6-0.1-1.4-0.2-2 c-0.7-3.1-3.3-5.6-6.9-5.6c-5,0-7.9,4.4-7.9,10.2c0,5.3,2.6,9.8,7.8,9.8c3.2,0,6.2-2.1,7.1-5.7c0.2-0.7,0.2-1.3,0.2-2.1V35.4z"/><path fill="#FFFFFF" d="M42.8,64c0.1,1.6-1.1,2.9-3.1,2.9c-1.7,0-2.9-1.3-2.9-2.9c0-1.7,1.3-3,3-3C41.7,61,42.8,62.3,42.8,64z M37.4,97.8V71.4h4.8v26.4H37.4z"/><path fill="#FFFFFF" d="M47.5,78.6c0-2.7-0.1-5-0.2-7.1h4.3l0.3,4.4h0.1c1.3-2.5,4.4-5,8.8-5c3.7,0,9.4,2.2,9.4,11.2v15.8h-4.8 V82.6c0-4.3-1.6-7.8-6.1-7.8c-3.2,0-5.6,2.2-6.5,4.9c-0.2,0.6-0.3,1.4-0.3,2.2v15.9h-4.8V78.6z"/><path fill="#FFFFFF" d="M84,61.6c2.9-0.4,6.3-0.8,10.1-0.8c6.8,0,11.7,1.6,14.9,4.6c3.3,3,5.2,7.3,5.2,13.2c0,6-1.9,10.9-5.3,14.3 c-3.4,3.4-9.1,5.3-16.3,5.3c-3.4,0-6.2-0.2-8.6-0.4V61.6z M88.8,94.1c1.2,0.2,3,0.3,4.8,0.3c10.2,0,15.7-5.7,15.7-15.6 c0.1-8.7-4.9-14.2-14.9-14.2c-2.5,0-4.3,0.2-5.6,0.5V94.1z"/><path fill="#FFFFFF" d="M132.1,97.8l-0.4-3.3h-0.2c-1.5,2.1-4.3,3.9-8.1,3.9c-5.4,0-8.1-3.8-8.1-7.6c0-6.4,5.7-9.9,15.9-9.8v-0.5 c0-2.2-0.6-6.1-6-6.1c-2.5,0-5,0.8-6.9,2l-1.1-3.2c2.2-1.4,5.4-2.3,8.7-2.3c8.1,0,10.1,5.5,10.1,10.8v9.9c0,2.3,0.1,4.5,0.4,6.3 H132.1z M131.4,84.4c-5.3-0.1-11.2,0.8-11.2,5.9c0,3.1,2.1,4.6,4.5,4.6c3.4,0,5.6-2.2,6.4-4.4c0.2-0.5,0.3-1,0.3-1.5V84.4z"/><path fill="#FFFFFF" d="M146.6,63.9v7.6h6.9v3.7h-6.9v14.2c0,3.3,0.9,5.1,3.6,5.1c1.3,0,2.2-0.2,2.8-0.3l0.2,3.6 c-0.9,0.4-2.4,0.7-4.3,0.7c-2.2,0-4-0.7-5.2-2c-1.4-1.4-1.9-3.8-1.9-6.9V75.1h-4.1v-3.7h4.1v-6.3L146.6,63.9z"/><path fill="#FFFFFF" d="M171.4,97.8l-0.4-3.3h-0.2c-1.5,2.1-4.3,3.9-8.1,3.9c-5.4,0-8.1-3.8-8.1-7.6c0-6.4,5.7-9.9,15.9-9.8v-0.5 c0-2.2-0.6-6.1-6-6.1c-2.5,0-5,0.8-6.9,2l-1.1-3.2c2.2-1.4,5.4-2.3,8.7-2.3c8.1,0,10.1,5.5,10.1,10.8v9.9c0,2.3,0.1,4.5,0.4,6.3 H171.4z M170.7,84.4c-5.3-0.1-11.2,0.8-11.2,5.9c0,3.1,2.1,4.6,4.5,4.6c3.4,0,5.6-2.2,6.4-4.4c0.2-0.5,0.3-1,0.3-1.5V84.4z"/></g></g></a></g><a href="https://ourworldindata.org/grapher/fatality-rates-in-the-us-due-to-weather-events" target="_blank"><text font-size="27.00" x="15.0" y="36.6" fill="#555"><tspan x="15" y="36.6">Fatality rates in the US due to weather events, United States</tspan></text></a><text font-size="14.40" x="15.0" y="55.5" fill="#666"><tspan x="15" y="55.519999999999996">Annual death rate per million.</tspan></text></g><g class="LineChart"><defs><clipPath id="boundsClip-37"><rect x="19.072000000000003" y="0" width="830" height="956.2"></rect></clipPath></defs><g class="AxisBoxView"><g class="HorizontalAxis"><text x="29.1" y="556.5" fill="#666" text-anchor="middle" font-size="16.2">1900</text><text x="152.1" y="556.5" fill="#666" text-anchor="middle" font-size="16.2">1920</text><text x="275.1" y="556.5" fill="#666" text-anchor="middle" font-size="16.2">1940</text><text x="398" y="556.5" fill="#666" text-anchor="middle" font-size="16.2">1960</text><text x="521" y="556.5" fill="#666" text-anchor="middle" font-size="16.2">1980</text><text x="644" y="556.5" fill="#666" text-anchor="middle" font-size="16.2">2000</text><text x="736.3" y="556.5" fill="#666" text-anchor="middle" font-size="16.2">2015</text></g><g class="VerticalAxis"><text x="24.07" y="535.3" fill="#666" dominant-baseline="middle" text-anchor="end" font-size="16.2">0</text><text x="24.07" y="463" fill="#666" dominant-baseline="middle" text-anchor="end" font-size="16.2">1</text><text x="24.07" y="390.7" fill="#666" dominant-baseline="middle" text-anchor="end" font-size="16.2">2</text><text x="24.07" y="318.4" fill="#666" dominant-baseline="middle" text-anchor="end" font-size="16.2">3</text><text x="24.07" y="246.1" fill="#666" dominant-baseline="middle" text-anchor="end" font-size="16.2">4</text><text x="24.07" y="173.8" fill="#666" dominant-baseline="middle" text-anchor="end" font-size="16.2">5</text><text x="24.07" y="101.5" fill="#666" dominant-baseline="middle" text-anchor="end" font-size="16.2">6</text></g><g class="AxisGridLines"><line x1="29.07" y1="535.3" x2="736.27" y2="535.3" stroke="#ccc"></line><line x1="29.07" y1="463" x2="736.27" y2="463" stroke="#ddd" stroke-dasharray="3,2"></line><line x1="29.07" y1="390.7" x2="736.27" y2="390.7" stroke="#ddd" stroke-dasharray="3,2"></line><line x1="29.07" y1="318.4" x2="736.27" y2="318.4" stroke="#ddd" stroke-dasharray="3,2"></line><line x1="29.07" y1="246.1" x2="736.27" y2="246.1" stroke="#ddd" stroke-dasharray="3,2"></line><line x1="29.07" y1="173.8" x2="736.27" y2="173.8" stroke="#ddd" stroke-dasharray="3,2"></line><line x1="29.07" y1="101.5" x2="736.27" y2="101.5" stroke="#ddd" stroke-dasharray="3,2"></line></g><g class="AxisGridLines"><line x1="29.1" y1="535.30" x2="29.1" y2="78.40" stroke="#ddd" stroke-dasharray="3,2"></line><line x1="152.1" y1="535.30" x2="152.1" y2="78.40" stroke="#ddd" stroke-dasharray="3,2"></line><line x1="275.1" y1="535.30" x2="275.1" y2="78.40" stroke="#ddd" stroke-dasharray="3,2"></line><line x1="398" y1="535.30" x2="398" y2="78.40" stroke="#ddd" stroke-dasharray="3,2"></line><line x1="521" y1="535.30" x2="521" y2="78.40" stroke="#ddd" stroke-dasharray="3,2"></line><line x1="644" y1="535.30" x2="644" y2="78.40" stroke="#ddd" stroke-dasharray="3,2"></line></g></g><g clip-path="url(#boundsClip-37)"><g class="HeightedLegend clickable"><g class="legendMark"><rect x="746.2719999999999" y="520.9000000000001" width="77.49600000000001" height="14.4" fill="#fff" opacity="0"></rect><rect x="746.2719999999999" y="526.8500000000001" width="10" height="2.5" fill="#3360a9"></rect><text font-size="14.40" x="761.3" y="532.4" fill="#333"><tspan x="761.2719999999999" y="532.4200000000001">Hurricane</tspan></text></g><g class="legendMark"><rect x="746.2719999999999" y="506.5000000000001" width="73.75200000000001" height="14.4" fill="#fff" opacity="0"></rect><rect x="746.2719999999999" y="512.4500000000002" width="10" height="2.5" fill="#ca2628"></rect><text font-size="14.40" x="761.3" y="518.0" fill="#333"><tspan x="761.2719999999999" y="518.0200000000001">Lightning</tspan></text></g><g class="legendMark"><rect x="746.2719999999999" y="492.10000000000014" width="56.61600000000001" height="14.4" fill="#fff" opacity="0"></rect><rect x="746.2719999999999" y="498.0500000000001" width="10" height="2.5" fill="#34983f"></rect><text font-size="14.40" x="761.3" y="503.6" fill="#333"><tspan x="761.2719999999999" y="503.6200000000001">Winter</tspan></text></g><g class="legendMark"><rect x="746.2719999999999" y="477.70000000000016" width="68.85600000000001" height="14.4" fill="#fff" opacity="0"></rect><rect x="746.2719999999999" y="483.65000000000015" width="10" height="2.5" fill="#f6a324"></rect><text font-size="14.40" x="761.3" y="489.2" fill="#333"><tspan x="761.2719999999999" y="489.22000000000014">Tornado</tspan></text></g><g class="legendMark"><rect x="746.2719999999999" y="463.3000000000002" width="45.528000000000006" height="14.4" fill="#fff" opacity="0"></rect><rect x="746.2719999999999" y="469.25000000000017" width="10" height="2.5" fill="#a652ba"></rect><text font-size="14.40" x="761.3" y="474.8" fill="#333"><tspan x="761.2719999999999" y="474.82000000000016">Heat</tspan></text></g><g class="legendMark"><rect x="746.2719999999999" y="448.9000000000002" width="44.664" height="14.4" fill="#fff" opacity="0"></rect><rect x="746.2719999999999" y="454.8500000000002" width="10" height="2.5" fill="#2a939b"></rect><text font-size="14.40" x="761.3" y="460.4" fill="#333"><tspan x="761.2719999999999" y="460.4200000000002">Cold</tspan></text></g><g class="legendMark"><rect x="746.2719999999999" y="434.5000000000002" width="88.72800000000001" height="14.4" fill="#fff" opacity="0"></rect><rect x="746.2719999999999" y="440.4500000000002" width="10" height="2.5" fill="#e6332e"></rect><text font-size="14.40" x="761.3" y="446.0" fill="#333"><tspan x="761.2719999999999" y="446.0200000000002">Rip Current</tspan></text></g><g class="legendMark"><rect x="746.2719999999999" y="420.10000000000025" width="47.832" height="14.4" fill="#fff" opacity="0"></rect><rect x="746.2719999999999" y="426.05000000000024" width="10" height="2.5" fill="#9ecc8a"></rect><text font-size="14.40" x="761.3" y="431.6" fill="#333"><tspan x="761.2719999999999" y="431.62000000000023">Wind</tspan></text></g><g class="legendMark"><rect x="746.2719999999999" y="405.7000000000003" width="51.144000000000005" height="14.4" fill="#fff" opacity="0"></rect><rect x="746.2719999999999" y="411.65000000000026" width="10" height="2.5" fill="#ffd53e"></rect><text font-size="14.40" x="761.3" y="417.2" fill="#333"><tspan x="761.2719999999999" y="417.22000000000025">Flood</tspan></text></g></g><g class="Lines"><rect x="29" y="78" width="707" height="457" fill="rgba(255,255,255,0)" opacity="0"></rect><g class="key-United-States_0"><path stroke="#9ecc8a" stroke-linecap="round" d="M613 513L619 521L626 515L632 518L638 519L644 522L650 527L656 524L663 525L669 525L675 530L681 526L687 527L693 519L699 524L706 528L712 518L718 511L724 527L730 523L736 521" fill="none" stroke-width="1.5"></path><g fill="#9ecc8a"><circle cx="613" cy="513" r="2"></circle><circle cx="619" cy="521" r="2"></circle><circle cx="626" cy="515" r="2"></circle><circle cx="632" cy="518" r="2"></circle><circle cx="638" cy="519" r="2"></circle><circle cx="644" cy="522" r="2"></circle><circle cx="650" cy="527" r="2"></circle><circle cx="656" cy="524" r="2"></circle><circle cx="663" cy="525" r="2"></circle><circle cx="669" cy="525" r="2"></circle><circle cx="675" cy="530" r="2"></circle><circle cx="681" cy="526" r="2"></circle><circle cx="687" cy="527" r="2"></circle><circle cx="693" cy="519" r="2"></circle><circle cx="699" cy="524" r="2"></circle><circle cx="706" cy="528" r="2"></circle><circle cx="712" cy="518" r="2"></circle><circle cx="718" cy="511" r="2"></circle><circle cx="724" cy="527" r="2"></circle><circle cx="730" cy="523" r="2"></circle><circle cx="736" cy="521" r="2"></circle></g></g><g class="key-United-States_1"><path stroke="#e6332e" stroke-linecap="round" d="M656 525L663 525L669 527L675 527L681 530L687 522L693 519L699 522L706 520L712 526L718 526L724 521L730 522L736 523" fill="none" stroke-width="1.5"></path><g fill="#e6332e"><circle cx="656" cy="525" r="2"></circle><circle cx="663" cy="525" r="2"></circle><circle cx="669" cy="527" r="2"></circle><circle cx="675" cy="527" r="2"></circle><circle cx="681" cy="530" r="2"></circle><circle cx="687" cy="522" r="2"></circle><circle cx="693" cy="519" r="2"></circle><circle cx="699" cy="522" r="2"></circle><circle cx="706" cy="520" r="2"></circle><circle cx="712" cy="526" r="2"></circle><circle cx="718" cy="526" r="2"></circle><circle cx="724" cy="521" r="2"></circle><circle cx="730" cy="522" r="2"></circle><circle cx="736" cy="523" r="2"></circle></g></g><g class="key-United-States_2"><path stroke="#34983f" stroke-linecap="round" d="M558 515L564 526L570 519L576 517L583 521L589 522L595 519L601 517L607 527L613 531L619 512L626 511L632 518L638 525L644 525L650 531L656 531L663 528L669 528L675 527L681 531L687 532L693 530L699 529L706 530L712 531L718 529L724 526L730 526L736 529" fill="none" stroke-width="1.5"></path><g fill="#34983f"><circle cx="558" cy="515" r="2"></circle><circle cx="564" cy="526" r="2"></circle><circle cx="570" cy="519" r="2"></circle><circle cx="576" cy="517" r="2"></circle><circle cx="583" cy="521" r="2"></circle><circle cx="589" cy="522" r="2"></circle><circle cx="595" cy="519" r="2"></circle><circle cx="601" cy="517" r="2"></circle><circle cx="607" cy="527" r="2"></circle><circle cx="613" cy="531" r="2"></circle><circle cx="619" cy="512" r="2"></circle><circle cx="626" cy="511" r="2"></circle><circle cx="632" cy="518" r="2"></circle><circle cx="638" cy="525" r="2"></circle><circle cx="644" cy="525" r="2"></circle><circle cx="650" cy="531" r="2"></circle><circle cx="656" cy="531" r="2"></circle><circle cx="663" cy="528" r="2"></circle><circle cx="669" cy="528" r="2"></circle><circle cx="675" cy="527" r="2"></circle><circle cx="681" cy="531" r="2"></circle><circle cx="687" cy="532" r="2"></circle><circle cx="693" cy="530" r="2"></circle><circle cx="699" cy="529" r="2"></circle><circle cx="706" cy="530" r="2"></circle><circle cx="712" cy="531" r="2"></circle><circle cx="718" cy="529" r="2"></circle><circle cx="724" cy="526" r="2"></circle><circle cx="730" cy="526" r="2"></circle><circle cx="736" cy="529" r="2"></circle></g></g><g class="key-United-States_3"><path stroke="#2a939b" stroke-linecap="round" d="M570 530L576 500L583 532L589 532L595 531L601 530L607 521L613 529L619 519L626 522L632 532L638 534L644 529L650 534L656 533L663 530L669 529L675 529L681 535L687 524L693 525L699 528L706 527L712 529L718 534L724 530L730 526L736 523" fill="none" stroke-width="1.5"></path><g fill="#2a939b"><circle cx="570" cy="530" r="2"></circle><circle cx="576" cy="500" r="2"></circle><circle cx="583" cy="532" r="2"></circle><circle cx="589" cy="532" r="2"></circle><circle cx="595" cy="531" r="2"></circle><circle cx="601" cy="530" r="2"></circle><circle cx="607" cy="521" r="2"></circle><circle cx="613" cy="529" r="2"></circle><circle cx="619" cy="519" r="2"></circle><circle cx="626" cy="522" r="2"></circle><circle cx="632" cy="532" r="2"></circle><circle cx="638" cy="534" r="2"></circle><circle cx="644" cy="529" r="2"></circle><circle cx="650" cy="534" r="2"></circle><circle cx="656" cy="533" r="2"></circle><circle cx="663" cy="530" r="2"></circle><circle cx="669" cy="529" r="2"></circle><circle cx="675" cy="529" r="2"></circle><circle cx="681" cy="535" r="2"></circle><circle cx="687" cy="524" r="2"></circle><circle cx="693" cy="525" r="2"></circle><circle cx="699" cy="528" r="2"></circle><circle cx="706" cy="527" r="2"></circle><circle cx="712" cy="529" r="2"></circle><circle cx="718" cy="534" r="2"></circle><circle cx="724" cy="530" r="2"></circle><circle cx="730" cy="526" r="2"></circle><circle cx="736" cy="523" r="2"></circle></g></g><g class="key-United-States_4"><path stroke="#a652ba" stroke-linecap="round" d="M558 523L564 524L570 523L576 534L583 526L589 525L595 533L601 530L607 527L613 258L619 526L626 514L632 490L638 405L644 495L650 493L656 493L663 526L669 534L675 497L681 474L687 510L693 518L699 525L706 503L712 488L718 500L724 514L730 531L736 525" fill="none" stroke-width="1.5"></path><g fill="#a652ba"><circle cx="558" cy="523" r="2"></circle><circle cx="564" cy="524" r="2"></circle><circle cx="570" cy="523" r="2"></circle><circle cx="576" cy="534" r="2"></circle><circle cx="583" cy="526" r="2"></circle><circle cx="589" cy="525" r="2"></circle><circle cx="595" cy="533" r="2"></circle><circle cx="601" cy="530" r="2"></circle><circle cx="607" cy="527" r="2"></circle><circle cx="613" cy="258" r="2"></circle><circle cx="619" cy="526" r="2"></circle><circle cx="626" cy="514" r="2"></circle><circle cx="632" cy="490" r="2"></circle><circle cx="638" cy="405" r="2"></circle><circle cx="644" cy="495" r="2"></circle><circle cx="650" cy="493" r="2"></circle><circle cx="656" cy="493" r="2"></circle><circle cx="663" cy="526" r="2"></circle><circle cx="669" cy="534" r="2"></circle><circle cx="675" cy="497" r="2"></circle><circle cx="681" cy="474" r="2"></circle><circle cx="687" cy="510" r="2"></circle><circle cx="693" cy="518" r="2"></circle><circle cx="699" cy="525" r="2"></circle><circle cx="706" cy="503" r="2"></circle><circle cx="712" cy="488" r="2"></circle><circle cx="718" cy="500" r="2"></circle><circle cx="724" cy="514" r="2"></circle><circle cx="730" cy="531" r="2"></circle><circle cx="736" cy="525" r="2"></circle></g></g><g class="key-United-States_5"><path stroke="#3360a9" stroke-linecap="round" d="M275 507L281 530L287 531L294 527L300 502L306 532L312 535L318 509L324 534L330 533L337 526L343 535L349 534L355 534L361 450L367 440L373 526L380 369L386 535L392 526L398 509L404 517L410 534L417 531L423 517L429 507L435 515L441 529L447 532L453 444L460 531L466 533L472 494L478 534L484 535L490 534L496 532L503 535L509 524L515 528L521 534L527 535L533 535L540 529L546 534L552 526L558 532L564 535L570 533L576 524L583 535L589 530L595 528L601 535L607 533L613 531L619 525L626 535L632 533L638 530L644 535L650 529L656 523L663 532L669 527L675 287L681 535L687 535L693 532L699 535L706 535L712 533L718 534L724 535L730 535L736 532" fill="none" stroke-width="1.5"></path><g fill="#3360a9"><circle cx="275" cy="507" r="2"></circle><circle cx="281" cy="530" r="2"></circle><circle cx="287" cy="531" r="2"></circle><circle cx="294" cy="527" r="2"></circle><circle cx="300" cy="502" r="2"></circle><circle cx="306" cy="532" r="2"></circle><circle cx="312" cy="535" r="2"></circle><circle cx="318" cy="509" r="2"></circle><circle cx="324" cy="534" r="2"></circle><circle cx="330" cy="533" r="2"></circle><circle cx="337" cy="526" r="2"></circle><circle cx="343" cy="535" r="2"></circle><circle cx="349" cy="534" r="2"></circle><circle cx="355" cy="534" r="2"></circle><circle cx="361" cy="450" r="2"></circle><circle cx="367" cy="440" r="2"></circle><circle cx="373" cy="526" r="2"></circle><circle cx="380" cy="369" r="2"></circle><circle cx="386" cy="535" r="2"></circle><circle cx="392" cy="526" r="2"></circle><circle cx="398" cy="509" r="2"></circle><circle cx="404" cy="517" r="2"></circle><circle cx="410" cy="534" r="2"></circle><circle cx="417" cy="531" r="2"></circle><circle cx="423" cy="517" r="2"></circle><circle cx="429" cy="507" r="2"></circle><circle cx="435" cy="515" r="2"></circle><circle cx="441" cy="529" r="2"></circle><circle cx="447" cy="532" r="2"></circle><circle cx="453" cy="444" r="2"></circle><circle cx="460" cy="531" r="2"></circle><circle cx="466" cy="533" r="2"></circle><circle cx="472" cy="494" r="2"></circle><circle cx="478" cy="534" r="2"></circle><circle cx="484" cy="535" r="2"></circle><circle cx="490" cy="534" r="2"></circle><circle cx="496" cy="532" r="2"></circle><circle cx="503" cy="535" r="2"></circle><circle cx="509" cy="524" r="2"></circle><circle cx="515" cy="528" r="2"></circle><circle cx="521" cy="534" r="2"></circle><circle cx="527" cy="535" r="2"></circle><circle cx="533" cy="535" r="2"></circle><circle cx="540" cy="529" r="2"></circle><circle cx="546" cy="534" r="2"></circle><circle cx="552" cy="526" r="2"></circle><circle cx="558" cy="532" r="2"></circle><circle cx="564" cy="535" r="2"></circle><circle cx="570" cy="533" r="2"></circle><circle cx="576" cy="524" r="2"></circle><circle cx="583" cy="535" r="2"></circle><circle cx="589" cy="530" r="2"></circle><circle cx="595" cy="528" r="2"></circle><circle cx="601" cy="535" r="2"></circle><circle cx="607" cy="533" r="2"></circle><circle cx="613" cy="531" r="2"></circle><circle cx="619" cy="525" r="2"></circle><circle cx="626" cy="535" r="2"></circle><circle cx="632" cy="533" r="2"></circle><circle cx="638" cy="530" r="2"></circle><circle cx="644" cy="535" r="2"></circle><circle cx="650" cy="529" r="2"></circle><circle cx="656" cy="523" r="2"></circle><circle cx="663" cy="532" r="2"></circle><circle cx="669" cy="527" r="2"></circle><circle cx="675" cy="287" r="2"></circle><circle cx="681" cy="535" r="2"></circle><circle cx="687" cy="535" r="2"></circle><circle cx="693" cy="532" r="2"></circle><circle cx="699" cy="535" r="2"></circle><circle cx="706" cy="535" r="2"></circle><circle cx="712" cy="533" r="2"></circle><circle cx="718" cy="534" r="2"></circle><circle cx="724" cy="535" r="2"></circle><circle cx="730" cy="535" r="2"></circle><circle cx="736" cy="532" r="2"></circle></g></g><g class="key-United-States_6"><path stroke="#f6a324" stroke-linecap="round" d="M275 500L281 507L287 329L294 505L300 392L306 427L312 495L318 378L324 466L330 433L337 502L343 519L349 430L355 303L361 519L367 480L373 500L380 455L386 508L392 512L398 517L404 515L410 524L417 524L423 508L429 425L435 499L441 494L447 488L453 512L460 510L466 481L472 526L478 506L484 413L490 515L496 521L503 521L509 518L515 509L521 526L527 528L533 515L540 525L546 498L552 507L558 531L564 518L570 526L576 521L583 520L589 524L595 524L601 526L607 516L613 527L619 529L626 518L632 501L638 511L644 525L650 525L656 522L663 522L669 527L675 526L681 519L687 516L693 505L699 530L706 525L712 407L718 519L724 523L730 525L736 527" fill="none" stroke-width="1.5"></path><g fill="#f6a324"><circle cx="275" cy="500" r="2"></circle><circle cx="281" cy="507" r="2"></circle><circle cx="287" cy="329" r="2"></circle><circle cx="294" cy="505" r="2"></circle><circle cx="300" cy="392" r="2"></circle><circle cx="306" cy="427" r="2"></circle><circle cx="312" cy="495" r="2"></circle><circle cx="318" cy="378" r="2"></circle><circle cx="324" cy="466" r="2"></circle><circle cx="330" cy="433" r="2"></circle><circle cx="337" cy="502" r="2"></circle><circle cx="343" cy="519" r="2"></circle><circle cx="349" cy="430" r="2"></circle><circle cx="355" cy="303" r="2"></circle><circle cx="361" cy="519" r="2"></circle><circle cx="367" cy="480" r="2"></circle><circle cx="373" cy="500" r="2"></circle><circle cx="380" cy="455" r="2"></circle><circle cx="386" cy="508" r="2"></circle><circle cx="392" cy="512" r="2"></circle><circle cx="398" cy="517" r="2"></circle><circle cx="404" cy="515" r="2"></circle><circle cx="410" cy="524" r="2"></circle><circle cx="417" cy="524" r="2"></circle><circle cx="423" cy="508" r="2"></circle><circle cx="429" cy="425" r="2"></circle><circle cx="435" cy="499" r="2"></circle><circle cx="441" cy="494" r="2"></circle><circle cx="447" cy="488" r="2"></circle><circle cx="453" cy="512" r="2"></circle><circle cx="460" cy="510" r="2"></circle><circle cx="466" cy="481" r="2"></circle><circle cx="472" cy="526" r="2"></circle><circle cx="478" cy="506" r="2"></circle><circle cx="484" cy="413" r="2"></circle><circle cx="490" cy="515" r="2"></circle><circle cx="496" cy="521" r="2"></circle><circle cx="503" cy="521" r="2"></circle><circle cx="509" cy="518" r="2"></circle><circle cx="515" cy="509" r="2"></circle><circle cx="521" cy="526" r="2"></circle><circle cx="527" cy="528" r="2"></circle><circle cx="533" cy="515" r="2"></circle><circle cx="540" cy="525" r="2"></circle><circle cx="546" cy="498" r="2"></circle><circle cx="552" cy="507" r="2"></circle><circle cx="558" cy="531" r="2"></circle><circle cx="564" cy="518" r="2"></circle><circle cx="570" cy="526" r="2"></circle><circle cx="576" cy="521" r="2"></circle><circle cx="583" cy="520" r="2"></circle><circle cx="589" cy="524" r="2"></circle><circle cx="595" cy="524" r="2"></circle><circle cx="601" cy="526" r="2"></circle><circle cx="607" cy="516" r="2"></circle><circle cx="613" cy="527" r="2"></circle><circle cx="619" cy="529" r="2"></circle><circle cx="626" cy="518" r="2"></circle><circle cx="632" cy="501" r="2"></circle><circle cx="638" cy="511" r="2"></circle><circle cx="644" cy="525" r="2"></circle><circle cx="650" cy="525" r="2"></circle><circle cx="656" cy="522" r="2"></circle><circle cx="663" cy="522" r="2"></circle><circle cx="669" cy="527" r="2"></circle><circle cx="675" cy="526" r="2"></circle><circle cx="681" cy="519" r="2"></circle><circle cx="687" cy="516" r="2"></circle><circle cx="693" cy="505" r="2"></circle><circle cx="699" cy="530" r="2"></circle><circle cx="706" cy="525" r="2"></circle><circle cx="712" cy="407" r="2"></circle><circle cx="718" cy="519" r="2"></circle><circle cx="724" cy="523" r="2"></circle><circle cx="730" cy="525" r="2"></circle><circle cx="736" cy="527" r="2"></circle></g></g><g class="key-United-States_7"><path stroke="#ffd53e" stroke-linecap="round" d="M275 503L281 510L287 499L294 479L300 518L306 488L312 521L318 508L324 495L330 512L337 491L343 512L349 511L355 517L361 511L367 404L373 517L380 501L386 516L392 525L398 468L404 499L410 515L417 520L423 482L429 465L435 515L441 516L447 515L453 377L460 489L466 512L472 344L478 475L484 498L490 493L496 471L503 466L509 495L515 496L521 509L527 509L533 487L540 472L546 497L552 485L558 507L564 514L570 526L576 510L583 494L589 518L595 518L601 507L607 510L613 514L619 500L626 504L632 500L638 518L644 526L650 523L656 523L663 514L669 515L675 525L681 517L687 514L693 516L699 522L706 511L712 509L718 529L724 517L730 527L736 496" fill="none" stroke-width="1.5"></path><g fill="#ffd53e"><circle cx="275" cy="503" r="2"></circle><circle cx="281" cy="510" r="2"></circle><circle cx="287" cy="499" r="2"></circle><circle cx="294" cy="479" r="2"></circle><circle cx="300" cy="518" r="2"></circle><circle cx="306" cy="488" r="2"></circle><circle cx="312" cy="521" r="2"></circle><circle cx="318" cy="508" r="2"></circle><circle cx="324" cy="495" r="2"></circle><circle cx="330" cy="512" r="2"></circle><circle cx="337" cy="491" r="2"></circle><circle cx="343" cy="512" r="2"></circle><circle cx="349" cy="511" r="2"></circle><circle cx="355" cy="517" r="2"></circle><circle cx="361" cy="511" r="2"></circle><circle cx="367" cy="404" r="2"></circle><circle cx="373" cy="517" r="2"></circle><circle cx="380" cy="501" r="2"></circle><circle cx="386" cy="516" r="2"></circle><circle cx="392" cy="525" r="2"></circle><circle cx="398" cy="468" r="2"></circle><circle cx="404" cy="499" r="2"></circle><circle cx="410" cy="515" r="2"></circle><circle cx="417" cy="520" r="2"></circle><circle cx="423" cy="482" r="2"></circle><circle cx="429" cy="465" r="2"></circle><circle cx="435" cy="515" r="2"></circle><circle cx="441" cy="516" r="2"></circle><circle cx="447" cy="515" r="2"></circle><circle cx="453" cy="377" r="2"></circle><circle cx="460" cy="489" r="2"></circle><circle cx="466" cy="512" r="2"></circle><circle cx="472" cy="344" r="2"></circle><circle cx="478" cy="475" r="2"></circle><circle cx="484" cy="498" r="2"></circle><circle cx="490" cy="493" r="2"></circle><circle cx="496" cy="471" r="2"></circle><circle cx="503" cy="466" r="2"></circle><circle cx="509" cy="495" r="2"></circle><circle cx="515" cy="496" r="2"></circle><circle cx="521" cy="509" r="2"></circle><circle cx="527" cy="509" r="2"></circle><circle cx="533" cy="487" r="2"></circle><circle cx="540" cy="472" r="2"></circle><circle cx="546" cy="497" r="2"></circle><circle cx="552" cy="485" r="2"></circle><circle cx="558" cy="507" r="2"></circle><circle cx="564" cy="514" r="2"></circle><circle cx="570" cy="526" r="2"></circle><circle cx="576" cy="510" r="2"></circle><circle cx="583" cy="494" r="2"></circle><circle cx="589" cy="518" r="2"></circle><circle cx="595" cy="518" r="2"></circle><circle cx="601" cy="507" r="2"></circle><circle cx="607" cy="510" r="2"></circle><circle cx="613" cy="514" r="2"></circle><circle cx="619" cy="500" r="2"></circle><circle cx="626" cy="504" r="2"></circle><circle cx="632" cy="500" r="2"></circle><circle cx="638" cy="518" r="2"></circle><circle cx="644" cy="526" r="2"></circle><circle cx="650" cy="523" r="2"></circle><circle cx="656" cy="523" r="2"></circle><circle cx="663" cy="514" r="2"></circle><circle cx="669" cy="515" r="2"></circle><circle cx="675" cy="525" r="2"></circle><circle cx="681" cy="517" r="2"></circle><circle cx="687" cy="514" r="2"></circle><circle cx="693" cy="516" r="2"></circle><circle cx="699" cy="522" r="2"></circle><circle cx="706" cy="511" r="2"></circle><circle cx="712" cy="509" r="2"></circle><circle cx="718" cy="529" r="2"></circle><circle cx="724" cy="517" r="2"></circle><circle cx="730" cy="527" r="2"></circle><circle cx="736" cy="496" r="2"></circle></g></g><g class="key-United-States_8"><path stroke="#ca2628" stroke-linecap="round" d="M29 186L35 78L41 154L48 217L54 261L60 269L66 172L72 256L78 232L84 288L91 305L97 232L103 227L109 162L115 213L121 286L128 166L134 164L140 167L146 177L152 191L158 154L164 201L171 196L177 290L183 219L189 279L195 298L201 263L207 295L214 314L220 266L226 319L232 311L238 269L244 329L251 305L257 277L263 315L269 320L275 349L281 325L287 337L294 308L300 318L306 398L312 418L318 367L324 410L330 415L337 431L343 418L349 437L355 470L361 437L367 456L373 471L380 459L386 492L392 460L398 483L404 476L410 475L417 471L423 485L429 479L435 494L441 503L447 488L453 488L460 492L466 492L472 503L478 493L484 497L490 493L496 508L503 497L509 504L515 507L521 505L527 508L533 504L540 506L546 507L552 509L558 511L564 506L570 511L576 513L583 509L589 514L595 524L601 523L607 516L613 512L619 521L626 524L632 524L638 523L644 522L650 524L656 523L663 525L669 527L675 526L681 524L687 525L693 529L699 527L706 529L712 529L718 529L724 530L730 529L736 529" fill="none" stroke-width="1.5"></path><g fill="#ca2628"><circle cx="29" cy="186" r="2"></circle><circle cx="35" cy="78" r="2"></circle><circle cx="41" cy="154" r="2"></circle><circle cx="48" cy="217" r="2"></circle><circle cx="54" cy="261" r="2"></circle><circle cx="60" cy="269" r="2"></circle><circle cx="66" cy="172" r="2"></circle><circle cx="72" cy="256" r="2"></circle><circle cx="78" cy="232" r="2"></circle><circle cx="84" cy="288" r="2"></circle><circle cx="91" cy="305" r="2"></circle><circle cx="97" cy="232" r="2"></circle><circle cx="103" cy="227" r="2"></circle><circle cx="109" cy="162" r="2"></circle><circle cx="115" cy="213" r="2"></circle><circle cx="121" cy="286" r="2"></circle><circle cx="128" cy="166" r="2"></circle><circle cx="134" cy="164" r="2"></circle><circle cx="140" cy="167" r="2"></circle><circle cx="146" cy="177" r="2"></circle><circle cx="152" cy="191" r="2"></circle><circle cx="158" cy="154" r="2"></circle><circle cx="164" cy="201" r="2"></circle><circle cx="171" cy="196" r="2"></circle><circle cx="177" cy="290" r="2"></circle><circle cx="183" cy="219" r="2"></circle><circle cx="189" cy="279" r="2"></circle><circle cx="195" cy="298" r="2"></circle><circle cx="201" cy="263" r="2"></circle><circle cx="207" cy="295" r="2"></circle><circle cx="214" cy="314" r="2"></circle><circle cx="220" cy="266" r="2"></circle><circle cx="226" cy="319" r="2"></circle><circle cx="232" cy="311" r="2"></circle><circle cx="238" cy="269" r="2"></circle><circle cx="244" cy="329" r="2"></circle><circle cx="251" cy="305" r="2"></circle><circle cx="257" cy="277" r="2"></circle><circle cx="263" cy="315" r="2"></circle><circle cx="269" cy="320" r="2"></circle><circle cx="275" cy="349" r="2"></circle><circle cx="281" cy="325" r="2"></circle><circle cx="287" cy="337" r="2"></circle><circle cx="294" cy="308" r="2"></circle><circle cx="300" cy="318" r="2"></circle><circle cx="306" cy="398" r="2"></circle><circle cx="312" cy="418" r="2"></circle><circle cx="318" cy="367" r="2"></circle><circle cx="324" cy="410" r="2"></circle><circle cx="330" cy="415" r="2"></circle><circle cx="337" cy="431" r="2"></circle><circle cx="343" cy="418" r="2"></circle><circle cx="349" cy="437" r="2"></circle><circle cx="355" cy="470" r="2"></circle><circle cx="361" cy="437" r="2"></circle><circle cx="367" cy="456" r="2"></circle><circle cx="373" cy="471" r="2"></circle><circle cx="380" cy="459" r="2"></circle><circle cx="386" cy="492" r="2"></circle><circle cx="392" cy="460" r="2"></circle><circle cx="398" cy="483" r="2"></circle><circle cx="404" cy="476" r="2"></circle><circle cx="410" cy="475" r="2"></circle><circle cx="417" cy="471" r="2"></circle><circle cx="423" cy="485" r="2"></circle><circle cx="429" cy="479" r="2"></circle><circle cx="435" cy="494" r="2"></circle><circle cx="441" cy="503" r="2"></circle><circle cx="447" cy="488" r="2"></circle><circle cx="453" cy="488" r="2"></circle><circle cx="460" cy="492" r="2"></circle><circle cx="466" cy="492" r="2"></circle><circle cx="472" cy="503" r="2"></circle><circle cx="478" cy="493" r="2"></circle><circle cx="484" cy="497" r="2"></circle><circle cx="490" cy="493" r="2"></circle><circle cx="496" cy="508" r="2"></circle><circle cx="503" cy="497" r="2"></circle><circle cx="509" cy="504" r="2"></circle><circle cx="515" cy="507" r="2"></circle><circle cx="521" cy="505" r="2"></circle><circle cx="527" cy="508" r="2"></circle><circle cx="533" cy="504" r="2"></circle><circle cx="540" cy="506" r="2"></circle><circle cx="546" cy="507" r="2"></circle><circle cx="552" cy="509" r="2"></circle><circle cx="558" cy="511" r="2"></circle><circle cx="564" cy="506" r="2"></circle><circle cx="570" cy="511" r="2"></circle><circle cx="576" cy="513" r="2"></circle><circle cx="583" cy="509" r="2"></circle><circle cx="589" cy="514" r="2"></circle><circle cx="595" cy="524" r="2"></circle><circle cx="601" cy="523" r="2"></circle><circle cx="607" cy="516" r="2"></circle><circle cx="613" cy="512" r="2"></circle><circle cx="619" cy="521" r="2"></circle><circle cx="626" cy="524" r="2"></circle><circle cx="632" cy="524" r="2"></circle><circle cx="638" cy="523" r="2"></circle><circle cx="644" cy="522" r="2"></circle><circle cx="650" cy="524" r="2"></circle><circle cx="656" cy="523" r="2"></circle><circle cx="663" cy="525" r="2"></circle><circle cx="669" cy="527" r="2"></circle><circle cx="675" cy="526" r="2"></circle><circle cx="681" cy="524" r="2"></circle><circle cx="687" cy="525" r="2"></circle><circle cx="693" cy="529" r="2"></circle><circle cx="699" cy="527" r="2"></circle><circle cx="706" cy="529" r="2"></circle><circle cx="712" cy="529" r="2"></circle><circle cx="718" cy="529" r="2"></circle><circle cx="724" cy="530" r="2"></circle><circle cx="730" cy="529" r="2"></circle><circle cx="736" cy="529" r="2"></circle></g></g></g></g></g><g style="fill: #777;" class="SourcesFooter"><g style="fill: #777;" class="clickable"><text font-size="12.60" x="15.0" y="581.6"><tspan x="15" y="581.58">Source: Our World In Data based on NOAA, Lopez Holle and population data</tspan></text></g><text font-size="12.60" x="526.7" y="581.6"><tspan x="526.678" y="581.58"><a target='_blank' style='fill: #777;' href='https://ourworldindata.org/natural-catastrophes/'>OurWorldInData.org/natural-catastrophes/</a> • <a style="fill: #777;" href="http://creativecommons.org/licenses/by-sa/4.0/deed.en_US" target="_blank">CC BY-SA</a></tspan></text></g></g></svg>