<svg xmlns="http://www.w3.org/2000/svg" version="1.1" style="font-family: 'Helvetica Neue', Helvetica, Arial, sans-serif; font-size: 18px; background-color: white; text-rendering: optimizeLegibility; -webkit-font-smoothing: antialiased;" width="850" height="600"><g class="ChartTab"><g class="HeaderView"><g opacity="0.8" transform="translate(770, 15) scale(0.31)"><a xmlns:xlink="http://www.w3.org/1999/xlink" xlink:href="https://ourworldindata.org" target="_blank"><g><rect x="0" y="0" fill="#1B2543" width="211.2" height="130.1"/><rect x="0" y="112.2" fill="#E63912" width="211.2" height="17.9"/><g><rect x="1.2" y="12.3" fill="none" width="210.2" height="99.2"/><path fill="#FFFFFF" d="M37.8,32.2c0,12.7-7.7,19.4-17.1,19.4c-9.7,0-16.6-7.5-16.6-18.7c0-11.7,7.3-19.3,17.1-19.3 C31.3,13.7,37.8,21.3,37.8,32.2z M9.2,32.8c0,7.9,4.3,14.9,11.8,14.9c7.5,0,11.8-6.9,11.8-15.3c0-7.3-3.8-14.9-11.8-14.9 C13.1,17.5,9.2,24.8,9.2,32.8z"/><path fill="#FFFFFF" d="M62.7,43.8c0,2.7,0.1,5.1,0.2,7.2h-4.3l-0.3-4.3h-0.1c-1.3,2.1-4,4.9-8.8,4.9c-4.2,0-9.1-2.3-9.1-11.6 V24.6h4.8v14.6c0,5,1.5,8.4,5.9,8.4c3.2,0,5.5-2.2,6.3-4.4c0.3-0.7,0.4-1.6,0.4-2.5V24.6h4.8V43.8z"/><path fill="#FFFFFF" d="M67.3,32.8c0-3.1-0.1-5.8-0.2-8.2h4.2l0.2,5.2h0.2c1.2-3.5,4.1-5.8,7.3-5.8c0.5,0,0.9,0.1,1.4,0.2v4.5 c-0.5-0.1-1-0.2-1.6-0.2c-3.4,0-5.8,2.6-6.5,6.2c-0.1,0.7-0.2,1.4-0.2,2.2V51h-4.8V32.8z"/><path fill="#FFFFFF" d="M95.4,51l-9.4-36.8h5l4.4,18.6c1.1,4.6,2.1,9.2,2.7,12.7h0.1c0.6-3.7,1.8-8,3-12.8l4.9-18.5h5l4.5,18.7 c1,4.4,2,8.7,2.6,12.6h0.1c0.8-4,1.8-8.1,3-12.7l4.9-18.5h4.9L120.6,51h-5L111,31.9c-1.1-4.7-1.9-8.3-2.4-12h-0.1 c-0.7,3.7-1.5,7.3-2.8,12L100.4,51H95.4z"/><path fill="#FFFFFF" d="M154.9,37.6c0,9.8-6.8,14-13.2,14c-7.2,0-12.7-5.2-12.7-13.6c0-8.8,5.8-14,13.1-14 C149.8,24,154.9,29.5,154.9,37.6z M133.9,37.9c0,5.8,3.3,10.1,8,10.1c4.6,0,8-4.3,8-10.3c0-4.5-2.2-10.1-7.9-10.1 C136.3,27.6,133.9,32.8,133.9,37.9z"/><path fill="#FFFFFF" d="M158.2,32.8c0-3.1-0.1-5.8-0.2-8.2h4.2l0.2,5.2h0.2c1.2-3.5,4.1-5.8,7.3-5.8c0.5,0,0.9,0.1,1.4,0.2v4.5 c-0.5-0.1-1-0.2-1.6-0.2c-3.4,0-5.8,2.6-6.5,6.2c-0.1,0.7-0.2,1.4-0.2,2.2V51h-4.8V32.8z"/><path fill="#FFFFFF" d="M173.5,12.3h4.8V51h-4.8V12.3z"/><path fill="#FFFFFF" d="M206.5,12.3v31.9c0,2.3,0.1,5,0.2,6.8h-4.3l-0.2-4.6H202c-1.5,2.9-4.7,5.2-9,5.2 c-6.4,0-11.3-5.4-11.3-13.4c-0.1-8.8,5.4-14.2,11.9-14.2c4,0,6.8,1.9,8,4h0.1V12.3H206.5z M201.7,35.4c0-0.6-0.1-1.4-0.2-2 c-0.7-3.1-3.3-5.6-6.9-5.6c-5,0-7.9,4.4-7.9,10.2c0,5.3,2.6,9.8,7.8,9.8c3.2,0,6.2-2.1,7.1-5.7c0.2-0.7,0.2-1.3,0.2-2.1V35.4z"/><path fill="#FFFFFF" d="M42.8,64c0.1,1.6-1.1,2.9-3.1,2.9c-1.7,0-2.9-1.3-2.9-2.9c0-1.7,1.3-3,3-3C41.7,61,42.8,62.3,42.8,64z M37.4,97.8V71.4h4.8v26.4H37.4z"/><path fill="#FFFFFF" d="M47.5,78.6c0-2.7-0.1-5-0.2-7.1h4.3l0.3,4.4h0.1c1.3-2.5,4.4-5,8.8-5c3.7,0,9.4,2.2,9.4,11.2v15.8h-4.8 V82.6c0-4.3-1.6-7.8-6.1-7.8c-3.2,0-5.6,2.2-6.5,4.9c-0.2,0.6-0.3,1.4-0.3,2.2v15.9h-4.8V78.6z"/><path fill="#FFFFFF" d="M84,61.6c2.9-0.4,6.3-0.8,10.1-0.8c6.8,0,11.7,1.6,14.9,4.6c3.3,3,5.2,7.3,5.2,13.2c0,6-1.9,10.9-5.3,14.3 c-3.4,3.4-9.1,5.3-16.3,5.3c-3.4,0-6.2-0.2-8.6-0.4V61.6z M88.8,94.1c1.2,0.2,3,0.3,4.8,0.3c10.2,0,15.7-5.7,15.7-15.6 c0.1-8.7-4.9-14.2-14.9-14.2c-2.5,0-4.3,0.2-5.6,0.5V94.1z"/><path fill="#FFFFFF" d="M132.1,97.8l-0.4-3.3h-0.2c-1.5,2.1-4.3,3.9-8.1,3.9c-5.4,0-8.1-3.8-8.1-7.6c0-6.4,5.7-9.9,15.9-9.8v-0.5 c0-2.2-0.6-6.1-6-6.1c-2.5,0-5,0.8-6.9,2l-1.1-3.2c2.2-1.4,5.4-2.3,8.7-2.3c8.1,0,10.1,5.5,10.1,10.8v9.9c0,2.3,0.1,4.5,0.4,6.3 H132.1z M131.4,84.4c-5.3-0.1-11.2,0.8-11.2,5.9c0,3.1,2.1,4.6,4.5,4.6c3.4,0,5.6-2.2,6.4-4.4c0.2-0.5,0.3-1,0.3-1.5V84.4z"/><path fill="#FFFFFF" d="M146.6,63.9v7.6h6.9v3.7h-6.9v14.2c0,3.3,0.9,5.1,3.6,5.1c1.3,0,2.2-0.2,2.8-0.3l0.2,3.6 c-0.9,0.4-2.4,0.7-4.3,0.7c-2.2,0-4-0.7-5.2-2c-1.4-1.4-1.9-3.8-1.9-6.9V75.1h-4.1v-3.7h4.1v-6.3L146.6,63.9z"/><path fill="#FFFFFF" d="M171.4,97.8l-0.4-3.3h-0.2c-1.5,2.1-4.3,3.9-8.1,3.9c-5.4,0-8.1-3.8-8.1-7.6c0-6.4,5.7-9.9,15.9-9.8v-0.5 c0-2.2-0.6-6.1-6-6.1c-2.5,0-5,0.8-6.9,2l-1.1-3.2c2.2-1.4,5.4-2.3,8.7-2.3c8.1,0,10.1,5.5,10.1,10.8v9.9c0,2.3,0.1,4.5,0.4,6.3 H171.4z M170.7,84.4c-5.3-0.1-11.2,0.8-11.2,5.9c0,3.1,2.1,4.6,4.5,4.6c3.4,0,5.6-2.2,6.4-4.4c0.2-0.5,0.3-1,0.3-1.5V84.4z"/></g></g></a></g><a href="https://ourworldindata.org/grapher/female-labor-force-participation-rates-2016-vs-1980" target="_blank"><text font-size="27.00" x="15.0" y="36.6" fill="#555"><tspan x="15" y="36.6">Female labor force participation rates, 2016 vs 1980</tspan></text></a><text font-size="14.40" x="15.0" y="55.5" fill="#666"><tspan x="15" y="55.519999999999996">Shown is the labor force participation rate for women in 2016 (horizontal axis) and in 1980 (vertical axis). The female</tspan><tspan x="15" y="71.36">labor force participation rate corresponds to the proportion of the female population ages 15 and older that is</tspan><tspan x="15" y="87.2">economically active. All figures correspond to national estimates, without ILO corrections (see limitations and</tspan><tspan x="15" y="103.03999999999999">exceptions in the sources)</tspan></text></g><g><g class="AxisBoxView"><g class="HorizontalAxis"><text font-size="12.60" x="207.2" y="554.0"><tspan x="207.185" y="553.98">Female labor force participation rate in 2016 (%) in 2016</tspan></text><text x="75.2" y="533.9" fill="#666" text-anchor="middle" font-size="16.2">0%</text><text x="218.3" y="533.9" fill="#666" text-anchor="middle" font-size="16.2">20%</text><text x="361.4" y="533.9" fill="#666" text-anchor="middle" font-size="16.2">40%</text><text x="504.5" y="533.9" fill="#666" text-anchor="middle" font-size="16.2">60%</text><text x="647.7" y="533.9" fill="#666" text-anchor="middle" font-size="16.2">80%</text></g><g class="VerticalAxis"><text font-size="12.60" x="-476.0" y="25.1" transform="rotate(-90)"><tspan x="-475.961" y="25.080000000000002">Female labor force participation rate in 1980 (%)</tspan></text><text x="70.16" y="512.7" fill="#666" dominant-baseline="middle" text-anchor="end" font-size="16.2">0%</text><text x="70.16" y="428.7" fill="#666" dominant-baseline="middle" text-anchor="end" font-size="16.2">20%</text><text x="70.16" y="344.7" fill="#666" dominant-baseline="middle" text-anchor="end" font-size="16.2">40%</text><text x="70.16" y="260.7" fill="#666" dominant-baseline="middle" text-anchor="end" font-size="16.2">60%</text><text x="70.16" y="176.8" fill="#666" dominant-baseline="middle" text-anchor="end" font-size="16.2">80%</text></g><g class="AxisGridLines"><line x1="75.16" y1="512.7" x2="715.00" y2="512.7" stroke="#ccc"></line><line x1="75.16" y1="428.7" x2="715.00" y2="428.7" stroke="#ddd" stroke-dasharray="3,2"></line><line x1="75.16" y1="344.7" x2="715.00" y2="344.7" stroke="#ddd" stroke-dasharray="3,2"></line><line x1="75.16" y1="260.7" x2="715.00" y2="260.7" stroke="#ddd" stroke-dasharray="3,2"></line><line x1="75.16" y1="176.8" x2="715.00" y2="176.8" stroke="#ddd" stroke-dasharray="3,2"></line></g><g class="AxisGridLines"><line x1="75.2" y1="512.70" x2="75.2" y2="124.90" stroke="#ccc"></line><line x1="218.3" y1="512.70" x2="218.3" y2="124.90" stroke="#ddd" stroke-dasharray="3,2"></line><line x1="361.4" y1="512.70" x2="361.4" y2="124.90" stroke="#ddd" stroke-dasharray="3,2"></line><line x1="504.5" y1="512.70" x2="504.5" y2="124.90" stroke="#ddd" stroke-dasharray="3,2"></line><line x1="647.7" y1="512.70" x2="647.7" y2="124.90" stroke="#ddd" stroke-dasharray="3,2"></line></g></g><g class="ComparisonLine"><defs><clipPath id="axisBounds-869"><rect x="75.162" y="124.9" width="639.838" height="387.8"></rect></clipPath></defs><path d="M75.2,512.7L81.6,508.9L88,505.2L94.4,501.4L100.8,497.7L107.2,493.9L113.6,490.2L120,486.4L126.3,482.7L132.7,478.9L139.1,475.2L145.5,471.4L151.9,467.6L158.3,463.9L164.7,460.1L171.1,456.4L177.5,452.6L183.9,448.9L190.3,445.1L196.7,441.4L203.1,437.6L209.5,433.9L215.9,430.1L222.3,426.3L228.7,422.6L235.1,418.8L241.5,415.1L247.9,411.3L254.3,407.6L260.7,403.8L267.1,400.1L273.5,396.3L279.9,392.6L286.3,388.8L292.7,385L299.1,381.3L305.5,377.5L311.9,373.8L318.3,370L324.7,366.3L331.1,362.5L337.5,358.8L343.9,355L350.3,351.3L356.7,347.5L363.1,343.7L369.5,340L375.9,336.2L382.3,332.5L388.7,328.7L395.1,325L401.5,321.2L407.9,317.5L414.3,313.7L420.7,310L427.1,306.2L433.5,302.4L439.9,298.7L446.3,294.9L452.7,291.2L459.1,287.4L465.5,283.7L471.9,279.9L478.3,276.2L484.7,272.4L491.1,268.7L497.5,264.9L503.9,261.1L510.3,257.4L516.7,253.6L523,249.9L529.4,246.1L535.8,242.4L542.2,238.6L548.6,234.9L555,231.1L561.4,227.4L567.8,223.6L574.2,219.8L580.6,216.1L587,212.3L593.4,208.6L599.8,204.8L606.2,201.1L612.6,197.3L619,193.6L625.4,189.8L631.8,186.1L638.2,182.3L644.6,178.5L651,174.8L657.4,171L663.8,167.3L670.2,163.5L676.6,159.8L683,156L689.4,152.3L695.8,148.5L702.2,144.8L708.6,141" clip-path="url(#axisBounds-869)" fill="none" stroke="#ccc"></path></g><g clip-path="url(#scatterBounds-870)" class="PointsWithLabels clickable"><rect x="75.162" y="124.9" width="639.838" height="387.8" fill="rgba(255,255,255,0)"></rect><defs><clipPath id="scatterBounds-870"><rect x="65.162" y="114.9" width="659.838" height="407.8"></rect></clipPath></defs><circle cx="259" cy="374" r="17.841241161527712" fill="#d14e5b" opacity="0.8"></circle><circle cx="481" cy="296" r="10.32628783268057" fill="#4d824b" opacity="0.8"></circle><circle cx="424" cy="357" r="8.430171925652896" fill="#d14e5b" opacity="0.8"></circle><circle cx="419" cy="386" r="7.61345037306844" fill="#69c487" opacity="0.8"></circle><circle cx="435" cy="312" r="7.440094282637904" fill="#d14e5b" opacity="0.8"></circle><circle cx="314" cy="493" r="6.282430957459907" fill="#d14e5b" opacity="0.8"></circle><circle cx="232" cy="483" r="6.277708726605678" fill="#d14e5b" opacity="0.8"></circle><circle cx="466" cy="344" r="6.1981809941808335" fill="#ffd336" opacity="0.8"></circle><circle cx="385" cy="386" r="5.842559824313047" fill="#4d824b" opacity="0.8"></circle><circle cx="484" cy="361" r="5.34046353556835" fill="#ffd336" opacity="0.8"></circle><circle cx="359" cy="376" r="5.337013223480755" fill="#ffd336" opacity="0.8"></circle><circle cx="444" cy="340" r="5.237354900085486" fill="#ffd336" opacity="0.8"></circle><circle cx="477" cy="307" r="5.069795612247149" fill="#ffd336" opacity="0.8"></circle><circle cx="510" cy="191" r="4.954798106540915" fill="#d14e5b" opacity="0.8"></circle><circle cx="433" cy="455" r="4.935740640684326" fill="#d14e5b" opacity="0.8"></circle><circle cx="236" cy="481" r="4.838498548034254" fill="#5675c1" opacity="0.8"></circle><circle cx="299" cy="318" r="4.798922902277205" fill="#d14e5b" opacity="0.8"></circle><circle cx="178" cy="464" r="4.53220743683407" fill="#d14e5b" opacity="0.8"></circle><circle cx="454" cy="398" r="4.478190307325272" fill="#ffd336" opacity="0.8"></circle><circle cx="447" cy="391" r="4.476391063838604" fill="#d14e5b" opacity="0.8"></circle><circle cx="421" cy="266" r="4.380724179073082" fill="#ffd336" opacity="0.8"></circle><circle cx="416" cy="416" r="4.032955348272633" fill="#5675c1" opacity="0.8"></circle><circle cx="408" cy="387" r="3.9798011457748745" fill="#69c487" opacity="0.8"></circle><circle cx="494" cy="418" r="3.908115025237488" fill="#69c487" opacity="0.8"></circle><circle cx="513" cy="300" r="3.769829715870812" fill="#4d824b" opacity="0.8"></circle><circle cx="398" cy="262" r="3.628988746421628" fill="#ffd336" opacity="0.8"></circle><circle cx="255" cy="441" r="3.4617397069053313" fill="#5675c1" opacity="0.8"></circle><circle cx="181" cy="502" r="3.412250100427226" fill="#5675c1" opacity="0.8"></circle><circle cx="677" cy="167" r="3.4039678168728154" fill="#5675c1" opacity="0.8"></circle><circle cx="551" cy="381" r="3.31017377227591" fill="#69c487" opacity="0.8"></circle><circle cx="357" cy="425" r="3.1567519521176024" fill="#d14e5b" opacity="0.8"></circle><circle cx="645" cy="323" r="3.1540811990589175" fill="#d14e5b" opacity="0.8"></circle><circle cx="432" cy="388" r="3.153434891194525" fill="#69c487" opacity="0.8"></circle><circle cx="498" cy="324" r="3.130054553767043" fill="#a652ba" opacity="0.8"></circle><circle cx="495" cy="390" r="3.0850293022681448" fill="#ffd336" opacity="0.8"></circle><circle cx="462" cy="344" r="3.0663181090108576" fill="#d14e5b" opacity="0.8"></circle><circle cx="670" cy="149" r="2.939873839915493" fill="#5675c1" opacity="0.8"></circle><circle cx="423" cy="402" r="2.8649085927047118" fill="#69c487" opacity="0.8"></circle><circle cx="628" cy="320" r="2.8447166254992564" fill="#5675c1" opacity="0.8"></circle><circle cx="414" cy="302" r="2.8269240866168572" fill="#ffd336" opacity="0.8"></circle><circle cx="418" cy="383" r="2.758316842531474" fill="#ffd336" opacity="0.8"></circle><circle cx="485" cy="374" r="2.7554533369685514" fill="#4d824b" opacity="0.8"></circle><circle cx="458" cy="318" r="2.7533042847690763" fill="#ffd336" opacity="0.8"></circle><circle cx="395" cy="409" r="2.741554915772767" fill="#ffd336" opacity="0.8"></circle><circle cx="181" cy="482" r="2.6804528263852805" fill="#d14e5b" opacity="0.8"></circle><circle cx="422" cy="258" r="2.6766709286590618" fill="#ffd336" opacity="0.8"></circle><circle cx="673" cy="379" r="2.6553476026487215" fill="#5675c1" opacity="0.8"></circle><circle cx="572" cy="234" r="2.629924178692077" fill="#ffd336" opacity="0.8"></circle><circle cx="447" cy="385" r="2.599567574469265" fill="#69c487" opacity="0.8"></circle><circle cx="471" cy="355" r="2.5639096351959187" fill="#ffd336" opacity="0.8"></circle><circle cx="715" cy="310" r="2.5410414901272675" fill="#5675c1" opacity="0.8"></circle><circle cx="351" cy="452" r="2.518533754452332" fill="#4d824b" opacity="0.8"></circle><circle cx="258" cy="430" r="2.466210955634015" fill="#5675c1" opacity="0.8"></circle><circle cx="531" cy="335" r="2.452139281557347" fill="#ffd336" opacity="0.8"></circle><circle cx="606" cy="150" r="2.4463085796233774" fill="#5675c1" opacity="0.8"></circle><circle cx="401" cy="384" r="2.4049399327994214" fill="#4d824b" opacity="0.8"></circle><circle cx="421" cy="270" r="2.3949742765145174" fill="#4d824b" opacity="0.8"></circle><circle cx="313" cy="251" r="2.3691086191650443" fill="#5675c1" opacity="0.8"></circle><circle cx="516" cy="415" r="2.363266113397118" fill="#69c487" opacity="0.8"></circle><circle cx="588" cy="124" r="2.3466625277387725" fill="#5675c1" opacity="0.8"></circle><circle cx="500" cy="273" r="2.3412947153456307" fill="#ffd336" opacity="0.8"></circle><circle cx="467" cy="320" r="2.334606567548875" fill="#d14e5b" opacity="0.8"></circle><circle cx="473" cy="327" r="2.3080328939354646" fill="#ffd336" opacity="0.8"></circle><circle cx="427" cy="350" r="2.2959846639411423" fill="#4d824b" opacity="0.8"></circle><circle cx="519" cy="280" r="2.2393455812954484" fill="#ffd336" opacity="0.8"></circle><circle cx="500" cy="362" r="2.204925259704907" fill="#d14e5b" opacity="0.8"></circle><circle cx="426" cy="439" r="2.1928307094696873" fill="#4d824b" opacity="0.8"></circle><circle cx="451" cy="387" r="2.1711852163705654" fill="#ffd336" opacity="0.8"></circle><circle cx="538" cy="457" r="2.1529037482332094" fill="#4d824b" opacity="0.8"></circle><circle cx="303" cy="394" r="2.148070500281584" fill="#4d824b" opacity="0.8"></circle><circle cx="473" cy="416" r="2.1479402534514316" fill="#69c487" opacity="0.8"></circle><circle cx="536" cy="394" r="2.1429481422769108" fill="#a652ba" opacity="0.8"></circle><circle cx="478" cy="341" r="2.118387563211422" fill="#69c487" opacity="0.8"></circle><circle cx="507" cy="326" r="2.064566468838269" fill="#d14e5b" opacity="0.8"></circle><circle cx="388" cy="402" r="2.0567876934669833" fill="#4d824b" opacity="0.8"></circle><circle cx="165" cy="484" r="2.0518953253793124" fill="#d14e5b" opacity="0.8"></circle><circle cx="477" cy="342" r="2.033571566890327" fill="#4d824b" opacity="0.8"></circle><circle cx="437" cy="390" r="2.013621909391977" fill="#4d824b" opacity="0.8"></circle><circle cx="382" cy="305" r="1.9962501142063611" fill="#5675c1" opacity="0.8"></circle><circle cx="281" cy="493" r="1.9643728375610143" fill="#5675c1" opacity="0.8"></circle><circle cx="519" cy="427" r="1.94816698784441" fill="#d14e5b" opacity="0.8"></circle><circle cx="432" cy="385" r="1.9133387484348916" fill="#4d824b" opacity="0.8"></circle><circle cx="527" cy="325" r="1.903669473975552" fill="#5675c1" opacity="0.8"></circle><circle cx="408" cy="394" r="1.8998599684836746" fill="#5675c1" opacity="0.8"></circle><circle cx="488" cy="421" r="1.866572816142765" fill="#ffd336" opacity="0.8"></circle><circle cx="572" cy="218" r="1.8598413051345501" fill="#5675c1" opacity="0.8"></circle><circle cx="436" cy="426" r="1.8276083529872689" fill="#69c487" opacity="0.8"></circle><circle cx="465" cy="372" r="1.8274124045854572" fill="#ffd336" opacity="0.8"></circle><circle cx="386" cy="436" r="1.8266484855269771" fill="#d14e5b" opacity="0.8"></circle><circle cx="376" cy="430" r="1.8227940828331142" fill="#ffd336" opacity="0.8"></circle><circle cx="517" cy="292" r="1.8131479247935245" fill="#4d824b" opacity="0.8"></circle><circle cx="645" cy="315" r="1.8105844396896436" fill="#ffd336" opacity="0.8"></circle><circle cx="495" cy="472" r="1.809768023857052" fill="#d14e5b" opacity="0.8"></circle><circle cx="574" cy="271" r="1.8084002056809059" fill="#4d824b" opacity="0.8"></circle><circle cx="492" cy="381" r="1.80574721861093" fill="#d14e5b" opacity="0.8"></circle><circle cx="249" cy="451" r="1.8014688251060171" fill="#a652ba" opacity="0.8"></circle><circle cx="426" cy="371" r="1.8009792401132907" fill="#a652ba" opacity="0.8"></circle><circle cx="444" cy="395" r="1.8000705685561578" fill="#4d824b" opacity="0.8"></circle><circle cx="479" cy="306" r="1.7954059856713351" fill="#a652ba" opacity="0.8"></circle><circle cx="556" cy="334" r="1.7899110734516588" fill="#5675c1" opacity="0.8"></circle><circle cx="495" cy="344" r="1.7895705163659945" fill="#4d824b" opacity="0.8"></circle><circle cx="594" cy="231" r="1.789062955986923" fill="#4d824b" opacity="0.8"></circle><circle cx="586" cy="313" r="1.7883260767992097" fill="#4d824b" opacity="0.8"></circle><circle cx="643" cy="372" r="1.7873908248440329" fill="#ffd336" opacity="0.8"></circle><circle cx="283" cy="387" r="1.7858537533178345" fill="#a652ba" opacity="0.8"></circle><circle cx="459" cy="314" r="1.7851774562970966" fill="#ffd336" opacity="0.8"></circle><circle cx="559" cy="343" r="1.7846963920660217" fill="#ffd336" opacity="0.8"></circle><circle cx="654" cy="345" r="1.7841241161527712" fill="#4d824b" opacity="0.8"></circle><circle cx="485" cy="296" r="1.7819958643334932" fill="#000" opacity="0.8"></circle><circle cx="443" cy="334" r="1.7819958643334932" fill="#000" opacity="0.8"></circle><circle cx="454" cy="332" r="1.7819958643334932" fill="#000" opacity="0.8"></circle><circle cx="462" cy="330" r="1.7819958643334932" fill="#000" opacity="0.8"></circle><circle cx="474" cy="361" r="1.7819958643334932" fill="#000" opacity="0.8"></circle><circle cx="424" cy="390" r="1.7819958643334932" fill="#000" opacity="0.8"></circle><circle cx="424" cy="389" r="1.7819958643334932" fill="#000" opacity="0.8"></circle><circle cx="425" cy="390" r="1.7819958643334932" fill="#000" opacity="0.8"></circle><circle cx="438" cy="366" r="1.7819958643334932" fill="#000" opacity="0.8"></circle><circle cx="266" cy="392" r="1.7819958643334932" fill="#000" opacity="0.8"></circle><circle cx="266" cy="392" r="1.7819958643334932" fill="#000" opacity="0.8"></circle><circle cx="443" cy="341" r="1.7819958643334932" fill="#000" opacity="0.8"></circle><text x="259" y="355.1587588384723" font-size="14.3" font-family="Arial Narrow, Arial, sans-serif" fill="#666">India</text><text x="481" y="284.6737121673194" font-size="12.083316667517284" font-family="Arial Narrow, Arial, sans-serif" fill="#666">United States</text><text x="424" y="347.56982807434713" font-size="11.7108869143012" font-family="Arial Narrow, Arial, sans-serif" fill="#666">Indonesia</text><text x="419" y="377.3865496269316" font-size="11.573670816805938" font-family="Arial Narrow, Arial, sans-serif" fill="#666">Brazil</text><text x="435" y="303.5599057173621" font-size="11.546342901861987" font-family="Arial Narrow, Arial, sans-serif" fill="#666">Japan</text><text x="314" y="485.7175690425401" font-size="11.379984426585498" font-family="Arial Narrow, Arial, sans-serif" fill="#666">Bangladesh</text><text x="232" y="475.7222912733943" font-size="11.379363314039475" font-family="Arial Narrow, Arial, sans-serif" fill="#666">Pakistan</text><text x="484" y="354.65953646443165" font-size="11.265333175967477" font-family="Arial Narrow, Arial, sans-serif" fill="#666">United Kingdom</text><text x="359" y="369.66298677651923" font-size="11.26494738182236" font-family="Arial Narrow, Arial, sans-serif" fill="#666">Italy</text><text x="444" y="333.7626450999145" font-size="11.253911764814113" font-family="Arial Narrow, Arial, sans-serif" fill="#666">France</text><text x="477" y="300.93020438775284" font-size="11.235826047358138" font-family="Arial Narrow, Arial, sans-serif" fill="#666">Ukraine</text><text x="510" y="185.04520189345908" font-size="11.223753919709198" font-family="Arial Narrow, Arial, sans-serif" fill="#666">Thailand</text><text x="433" y="449.06425935931566" font-size="11.221780071658815" font-family="Arial Narrow, Arial, sans-serif" fill="#666">Philippines</text><text x="299" y="312.2010770977228" font-size="11.207832712937936" font-family="Arial Narrow, Arial, sans-serif" fill="#666">Turkey</text><text x="178" y="458.4677925631659" font-size="11.181770512971479" font-family="Arial Narrow, Arial, sans-serif" fill="#666">Iran</text><text x="454" y="392.5218096926747" font-size="11.176673636803548" font-family="Arial Narrow, Arial, sans-serif" fill="#666">Spain</text><text x="421" y="260.61927582092693" font-size="11.167631671379453" font-family="Arial Narrow, Arial, sans-serif" fill="#666">Poland</text><text x="416" y="410.96704465172735" font-size="11.13699050880007" font-family="Arial Narrow, Arial, sans-serif" fill="#666">South Africa</text><text x="494" y="413.09188497476254" font-size="11.126608950516733" font-family="Arial Narrow, Arial, sans-serif" fill="#666">Colombia</text><text x="255" y="436.53826029309465" font-size="11.09215907012332" font-family="Arial Narrow, Arial, sans-serif" fill="#666">Morocco</text><text x="181" y="497.58774989957277" font-size="11.088596597773098" font-family="Arial Narrow, Arial, sans-serif" fill="#666">Algeria</text><text x="631.2065376383506" y="162.5960321831272" font-size="11.088005414442954" font-family="Arial Narrow, Arial, sans-serif" fill="#666">Tanzania</text><text x="551" y="376.6898262277241" font-size="11.081410724561838" font-family="Arial Narrow, Arial, sans-serif" fill="#666">Peru</text><text x="357" y="420.8432480478824" font-size="11.07102077063612" font-family="Arial Narrow, Arial, sans-serif" fill="#666">Sri Lanka</text><text x="645" y="318.8459188009411" font-size="11.070844268871928" font-family="Arial Narrow, Arial, sans-serif" fill="#666">Nepal</text><text x="498" y="319.869945446233" font-size="11.069263139839574" font-family="Arial Narrow, Arial, sans-serif" fill="#666">Australia</text><text x="606.5318185649642" y="145.0601261600845" font-size="11.057174466034118" font-family="Arial Narrow, Arial, sans-serif" fill="#666">Mozambique</text><text x="423" y="398.1350914072953" font-size="11.052617513109162" font-family="Arial Narrow, Arial, sans-serif" fill="#666">Chile</text><text x="485" y="370.24454666303143" font-size="11.046175382562339" font-family="Arial Narrow, Arial, sans-serif" fill="#666">Cuba</text><text x="181" y="478.3195471736147" font-size="11.041906002780452" font-family="Arial Narrow, Arial, sans-serif" fill="#666">Syria</text><text x="612.0564222588628" y="375.3446523973513" font-size="11.040503213974127" font-family="Arial Narrow, Arial, sans-serif" fill="#666">Madagascar</text><text x="572" y="230.37007582130792" font-size="11.039096097711479" font-family="Arial Narrow, Arial, sans-serif" fill="#666">Sweden</text><text x="664.0216121701648" y="306.45895850987273" font-size="11.03428308005091" font-family="Arial Narrow, Arial, sans-serif" fill="#666">Zimbabwe</text><text x="351" y="448.48146624554767" font-size="11.033090535854457" font-family="Arial Narrow, Arial, sans-serif" fill="#666">Guatemala</text><text x="531" y="331.5478607184427" font-size="11.029634519872507" font-family="Arial Narrow, Arial, sans-serif" fill="#666">Switzerland</text><text x="313" y="247.63089138083495" font-size="11.025442468623813" font-family="Arial Narrow, Arial, sans-serif" fill="#666">Senegal</text><text x="500" y="269.6587052846544" font-size="11.024070485838239" font-family="Arial Narrow, Arial, sans-serif" fill="#666">Denmark</text><text x="426" y="435.80716929053034" font-size="11.017021229197356" font-family="Arial Narrow, Arial, sans-serif" fill="#666">Honduras</text><text x="538" y="453.8470962517668" font-size="11.015204216083532" font-family="Arial Narrow, Arial, sans-serif" fill="#666">Nicaragua</text><text x="303" y="390.85192949971844" font-size="11.014986528060225" font-family="Arial Narrow, Arial, sans-serif" fill="#666">Puerto Rico</text><text x="536" y="390.8570518577231" font-size="11.014756352638454" font-family="Arial Narrow, Arial, sans-serif" fill="#666">New Zealand</text><text x="382" y="302.00374988579364" font-size="11.008397641118902" font-family="Arial Narrow, Arial, sans-serif" fill="#666">Congo</text><text x="572" y="215.14015869486545" font-size="11.002889331334261" font-family="Arial Narrow, Arial, sans-serif" fill="#666">Gambia</text><text x="436" y="423.1723916470127" font-size="11.001644659673774" font-family="Arial Narrow, Arial, sans-serif" fill="#666">Suriname</text><text x="386" y="433.17335151447304" font-size="11.001607928149108" font-family="Arial Narrow, Arial, sans-serif" fill="#666">Bahrain</text><text x="495" y="469.19023197614297" font-size="11.000965112325419" font-family="Arial Narrow, Arial, sans-serif" fill="#666">Qatar</text><text x="574" y="268.1915997943191" font-size="11.000913286557685" font-family="Arial Narrow, Arial, sans-serif" fill="#666">Bahamas</text><text x="249" y="448.19853117489396" font-size="11.00065126332012" font-family="Arial Narrow, Arial, sans-serif" fill="#666">Samoa</text><text x="495" y="341.210429483634" font-size="11.000203824135468" font-family="Arial Narrow, Arial, sans-serif" fill="#666">Aruba</text><text x="586" y="310.2116739232008" font-size="11.000157197914923" font-family="Arial Narrow, Arial, sans-serif" fill="#666">Greenland</text></g><g style="cursor: pointer;" class="ScatterColorLegend clickable"><g class="legendMark"><rect x="735" y="122.4" width="43.256" height="17.6" fill="#fff" opacity="0"></rect>,<rect x="735" y="127.9" width="6" height="6" fill="#5675c1"></rect>,<text font-size="12.60" x="746.0" y="135.0"><tspan x="746" y="134.98">Africa</tspan></text></g><g class="legendMark"><rect x="735" y="140" width="35.57" height="17.6" fill="#fff" opacity="0"></rect>,<rect x="735" y="145.5" width="6" height="6" fill="#d14e5b"></rect>,<text font-size="12.60" x="746.0" y="152.6"><tspan x="746" y="152.57999999999998">Asia</tspan></text></g><g class="legendMark"><rect x="735" y="157.60000000000002" width="51.824" height="17.6" fill="#fff" opacity="0"></rect>,<rect x="735" y="163.10000000000002" width="6" height="6" fill="#ffd336"></rect>,<text font-size="12.60" x="746.0" y="170.2"><tspan x="746" y="170.18">Europe</tspan></text></g><g class="legendMark"><rect x="735" y="175.20000000000002" width="91.64" height="17.6" fill="#fff" opacity="0"></rect>,<rect x="735" y="180.70000000000002" width="6" height="6" fill="#4d824b"></rect>,<text font-size="12.60" x="746.0" y="187.8"><tspan x="746" y="187.78">North America</tspan></text></g><g class="legendMark"><rect x="735" y="192.8" width="58.124" height="17.6" fill="#fff" opacity="0"></rect>,<rect x="735" y="198.3" width="6" height="6" fill="#a652ba"></rect>,<text font-size="12.60" x="746.0" y="205.4"><tspan x="746" y="205.38">Oceania</tspan></text></g><g class="legendMark"><rect x="735" y="210.4" width="93.908" height="17.6" fill="#fff" opacity="0"></rect>,<rect x="735" y="215.9" width="6" height="6" fill="#69c487"></rect>,<text font-size="12.60" x="746.0" y="223.0"><tspan x="746" y="222.98">South America</tspan></text></g></g></g><g style="fill: #777;" class="SourcesFooter"><g style="fill: #777;" class="clickable"><text font-size="12.60" x="15.0" y="581.6"><tspan x="15" y="581.58">Source: World Bank – WDI</tspan></text></g><text font-size="12.60" x="416.1" y="581.6"><tspan x="416.05" y="581.58"><a target='_blank' style='fill: #777;' href='https://ourworldindata.org/female-labor-force-participation-key-facts'>OurWorldInData.org/female-labor-force-participation-key-facts</a> • <a style="fill: #777;" href="http://creativecommons.org/licenses/by-sa/4.0/deed.en_US" target="_blank">CC BY-SA</a></tspan></text></g></g></svg>