<svg xmlns="http://www.w3.org/2000/svg" version="1.1" style="font-family: 'Helvetica Neue', Helvetica, Arial, sans-serif; font-size: 24px; background-color: white;" width="1200" height="630"><g class="ChartTab"><g><g class="AxisBoxView"><g class="HorizontalAxis"><text font-size="16.80" x="317.8" y="596.6"><tspan x="317.8080000000001" y="596.64">Female labor force participation rate in 2016 (%) in 2016</tspan></text><text x="90.2" y="573.2" fill="#666" text-anchor="middle" font-size="21.6">0%</text><text x="303" y="573.2" fill="#666" text-anchor="middle" font-size="21.6">20%</text><text x="515.8" y="573.2" fill="#666" text-anchor="middle" font-size="21.6">40%</text><text x="728.6" y="573.2" fill="#666" text-anchor="middle" font-size="21.6">60%</text><text x="941.3" y="573.2" fill="#666" text-anchor="middle" font-size="21.6">80%</text></g><g class="VerticalAxis"><text font-size="16.80" x="-497.8" y="28.4" transform="rotate(-90)"><tspan x="-497.84799999999996" y="28.439999999999998">Female labor force participation rate in 1980 (%)</tspan></text><text x="85.22" y="546.6" fill="#666" dominant-baseline="middle" text-anchor="end" font-size="21.6">0%</text><text x="85.22" y="435.8" fill="#666" dominant-baseline="middle" text-anchor="end" font-size="21.6">20%</text><text x="85.22" y="325" fill="#666" dominant-baseline="middle" text-anchor="end" font-size="21.6">40%</text><text x="85.22" y="214.2" fill="#666" dominant-baseline="middle" text-anchor="end" font-size="21.6">60%</text><text x="85.22" y="103.4" fill="#666" dominant-baseline="middle" text-anchor="end" font-size="21.6">80%</text></g><g class="AxisGridLines"><line x1="90.22" y1="546.6" x2="1041.46" y2="546.6" stroke="#ccc"></line><line x1="90.22" y1="435.8" x2="1041.46" y2="435.8" stroke="#ddd" stroke-dasharray="3,2"></line><line x1="90.22" y1="325" x2="1041.46" y2="325" stroke="#ddd" stroke-dasharray="3,2"></line><line x1="90.22" y1="214.2" x2="1041.46" y2="214.2" stroke="#ddd" stroke-dasharray="3,2"></line><line x1="90.22" y1="103.4" x2="1041.46" y2="103.4" stroke="#ddd" stroke-dasharray="3,2"></line></g><g class="AxisGridLines"><line x1="90.2" y1="546.60" x2="90.2" y2="35.00" stroke="#ccc"></line><line x1="303" y1="546.60" x2="303" y2="35.00" stroke="#ddd" stroke-dasharray="3,2"></line><line x1="515.8" y1="546.60" x2="515.8" y2="35.00" stroke="#ddd" stroke-dasharray="3,2"></line><line x1="728.6" y1="546.60" x2="728.6" y2="35.00" stroke="#ddd" stroke-dasharray="3,2"></line><line x1="941.3" y1="546.60" x2="941.3" y2="35.00" stroke="#ddd" stroke-dasharray="3,2"></line></g></g><g class="ComparisonLine"><defs><clipPath id="axisBounds-771"><rect x="90.21600000000001" y="35" width="951.2400000000001" height="511.6"></rect></clipPath></defs><path d="M90.2,546.6L99.7,541.6L109.2,536.7L118.8,531.7L128.3,526.8L137.8,521.8L147.3,516.9L156.8,511.9L166.3,507L175.8,502L185.3,497.1L194.9,492.1L204.4,487.2L213.9,482.2L223.4,477.3L232.9,472.3L242.4,467.3L251.9,462.4L261.4,457.4L271,452.5L280.5,447.5L290,442.6L299.5,437.6L309,432.7L318.5,427.7L328,422.8L337.5,417.8L347.1,412.9L356.6,407.9L366.1,403L375.6,398L385.1,393.1L394.6,388.1L404.1,383.1L413.6,378.2L423.2,373.2L432.7,368.3L442.2,363.3L451.7,358.4L461.2,353.4L470.7,348.5L480.2,343.5L489.7,338.6L499.2,333.6L508.8,328.7L518.3,323.7L527.8,318.8L537.3,313.8L546.8,308.8L556.3,303.9L565.8,298.9L575.3,294L584.9,289L594.4,284.1L603.9,279.1L613.4,274.2L622.9,269.2L632.4,264.3L641.9,259.3L651.4,254.4L661,249.4L670.5,244.5L680,239.5L689.5,234.6L699,229.6L708.5,224.6L718,219.7L727.5,214.7L737.1,209.8L746.6,204.8L756.1,199.9L765.6,194.9L775.1,190L784.6,185L794.1,180.1L803.6,175.1L813.2,170.2L822.7,165.2L832.2,160.3L841.7,155.3L851.2,150.3L860.7,145.4L870.2,140.4L879.7,135.5L889.3,130.5L898.8,125.6L908.3,120.6L917.8,115.7L927.3,110.7L936.8,105.8L946.3,100.8L955.8,95.9L965.4,90.9L974.9,86L984.4,81L993.9,76.1L1003.4,71.1L1012.9,66.1L1022.4,61.2L1031.9,56.2" clip-path="url(#axisBounds-771)" fill="none" stroke="#ccc"></path></g><g clip-path="url(#scatterBounds-772)" class="PointsWithLabels clickable"><rect x="90.21600000000001" y="35" width="951.2400000000001" height="511.6" fill="rgba(255,255,255,0)"></rect><defs><clipPath id="scatterBounds-772"><rect x="80.21600000000001" y="25" width="971.2400000000001" height="531.6"></rect></clipPath></defs><circle cx="364" cy="364" r="17.841241161527712" fill="#d14e5b" opacity="0.8"></circle><circle cx="694" cy="261" r="10.32628783268057" fill="#4d824b" opacity="0.8"></circle><circle cx="610" cy="341" r="8.430171925652896" fill="#d14e5b" opacity="0.8"></circle><circle cx="601" cy="380" r="7.61345037306844" fill="#69c487" opacity="0.8"></circle><circle cx="625" cy="283" r="7.440094282637904" fill="#d14e5b" opacity="0.8"></circle><circle cx="446" cy="521" r="6.282430957459907" fill="#d14e5b" opacity="0.8"></circle><circle cx="324" cy="507" r="6.277708726605678" fill="#d14e5b" opacity="0.8"></circle><circle cx="672" cy="324" r="6.1981809941808335" fill="#ffd336" opacity="0.8"></circle><circle cx="552" cy="379" r="5.842559824313047" fill="#4d824b" opacity="0.8"></circle><circle cx="698" cy="347" r="5.34046353556835" fill="#ffd336" opacity="0.8"></circle><circle cx="513" cy="367" r="5.337013223480755" fill="#ffd336" opacity="0.8"></circle><circle cx="639" cy="319" r="5.237354900085486" fill="#ffd336" opacity="0.8"></circle><circle cx="688" cy="276" r="5.069795612247149" fill="#ffd336" opacity="0.8"></circle><circle cx="737" cy="122" r="4.954798106540915" fill="#d14e5b" opacity="0.8"></circle><circle cx="622" cy="471" r="4.935740640684326" fill="#d14e5b" opacity="0.8"></circle><circle cx="329" cy="505" r="4.838498548034254" fill="#5675c1" opacity="0.8"></circle><circle cx="424" cy="290" r="4.798922902277205" fill="#d14e5b" opacity="0.8"></circle><circle cx="243" cy="483" r="4.53220743683407" fill="#d14e5b" opacity="0.8"></circle><circle cx="654" cy="396" r="4.478190307325272" fill="#ffd336" opacity="0.8"></circle><circle cx="644" cy="387" r="4.476391063838604" fill="#d14e5b" opacity="0.8"></circle><circle cx="605" cy="221" r="4.380724179073082" fill="#ffd336" opacity="0.8"></circle><circle cx="597" cy="420" r="4.032955348272633" fill="#5675c1" opacity="0.8"></circle><circle cx="585" cy="381" r="3.9798011457748745" fill="#69c487" opacity="0.8"></circle><circle cx="713" cy="422" r="3.908115025237488" fill="#69c487" opacity="0.8"></circle><circle cx="742" cy="266" r="3.769829715870812" fill="#4d824b" opacity="0.8"></circle><circle cx="571" cy="215" r="3.628988746421628" fill="#ffd336" opacity="0.8"></circle><circle cx="358" cy="453" r="3.4617397069053313" fill="#5675c1" opacity="0.8"></circle><circle cx="248" cy="533" r="3.412250100427226" fill="#5675c1" opacity="0.8"></circle><circle cx="986" cy="91" r="3.4039678168728154" fill="#5675c1" opacity="0.8"></circle><circle cx="798" cy="373" r="3.31017377227591" fill="#69c487" opacity="0.8"></circle><circle cx="510" cy="431" r="3.1567519521176024" fill="#d14e5b" opacity="0.8"></circle><circle cx="938" cy="296" r="3.1540811990589175" fill="#d14e5b" opacity="0.8"></circle><circle cx="620" cy="382" r="3.153434891194525" fill="#69c487" opacity="0.8"></circle><circle cx="720" cy="298" r="3.130054553767043" fill="#a652ba" opacity="0.8"></circle><circle cx="715" cy="385" r="3.0850293022681448" fill="#ffd336" opacity="0.8"></circle><circle cx="665" cy="324" r="3.0663181090108576" fill="#d14e5b" opacity="0.8"></circle><circle cx="975" cy="67" r="2.939873839915493" fill="#5675c1" opacity="0.8"></circle><circle cx="608" cy="401" r="2.8649085927047118" fill="#69c487" opacity="0.8"></circle><circle cx="912" cy="292" r="2.8447166254992564" fill="#5675c1" opacity="0.8"></circle><circle cx="594" cy="268" r="2.8269240866168572" fill="#ffd336" opacity="0.8"></circle><circle cx="601" cy="376" r="2.758316842531474" fill="#ffd336" opacity="0.8"></circle><circle cx="699" cy="364" r="2.7554533369685514" fill="#4d824b" opacity="0.8"></circle><circle cx="659" cy="290" r="2.7533042847690763" fill="#ffd336" opacity="0.8"></circle><circle cx="566" cy="409" r="2.741554915772767" fill="#ffd336" opacity="0.8"></circle><circle cx="247" cy="507" r="2.6804528263852805" fill="#d14e5b" opacity="0.8"></circle><circle cx="606" cy="210" r="2.6766709286590618" fill="#ffd336" opacity="0.8"></circle><circle cx="979" cy="371" r="2.6553476026487215" fill="#5675c1" opacity="0.8"></circle><circle cx="829" cy="179" r="2.629924178692077" fill="#ffd336" opacity="0.8"></circle><circle cx="643" cy="379" r="2.599567574469265" fill="#69c487" opacity="0.8"></circle><circle cx="679" cy="339" r="2.5639096351959187" fill="#ffd336" opacity="0.8"></circle><circle cx="1041" cy="280" r="2.5410414901272675" fill="#5675c1" opacity="0.8"></circle><circle cx="500" cy="467" r="2.518533754452332" fill="#4d824b" opacity="0.8"></circle><circle cx="362" cy="438" r="2.466210955634015" fill="#5675c1" opacity="0.8"></circle><circle cx="768" cy="313" r="2.452139281557347" fill="#ffd336" opacity="0.8"></circle><circle cx="880" cy="69" r="2.4463085796233774" fill="#5675c1" opacity="0.8"></circle><circle cx="575" cy="377" r="2.4049399327994214" fill="#4d824b" opacity="0.8"></circle><circle cx="605" cy="227" r="2.3949742765145174" fill="#4d824b" opacity="0.8"></circle><circle cx="445" cy="202" r="2.3691086191650443" fill="#5675c1" opacity="0.8"></circle><circle cx="746" cy="419" r="2.363266113397118" fill="#69c487" opacity="0.8"></circle><circle cx="853" cy="35" r="2.3466625277387725" fill="#5675c1" opacity="0.8"></circle><circle cx="722" cy="230" r="2.3412947153456307" fill="#ffd336" opacity="0.8"></circle><circle cx="673" cy="293" r="2.334606567548875" fill="#d14e5b" opacity="0.8"></circle><circle cx="681" cy="302" r="2.3080328939354646" fill="#ffd336" opacity="0.8"></circle><circle cx="614" cy="332" r="2.2959846639411423" fill="#4d824b" opacity="0.8"></circle><circle cx="750" cy="240" r="2.2393455812954484" fill="#ffd336" opacity="0.8"></circle><circle cx="722" cy="348" r="2.204925259704907" fill="#d14e5b" opacity="0.8"></circle><circle cx="612" cy="450" r="2.1928307094696873" fill="#4d824b" opacity="0.8"></circle><circle cx="650" cy="381" r="2.1711852163705654" fill="#ffd336" opacity="0.8"></circle><circle cx="779" cy="473" r="2.1529037482332094" fill="#4d824b" opacity="0.8"></circle><circle cx="429" cy="391" r="2.148070500281584" fill="#4d824b" opacity="0.8"></circle><circle cx="682" cy="419" r="2.1479402534514316" fill="#69c487" opacity="0.8"></circle><circle cx="776" cy="390" r="2.1429481422769108" fill="#a652ba" opacity="0.8"></circle><circle cx="689" cy="320" r="2.118387563211422" fill="#69c487" opacity="0.8"></circle><circle cx="732" cy="301" r="2.064566468838269" fill="#d14e5b" opacity="0.8"></circle><circle cx="555" cy="400" r="2.0567876934669833" fill="#4d824b" opacity="0.8"></circle><circle cx="224" cy="509" r="2.0518953253793124" fill="#d14e5b" opacity="0.8"></circle><circle cx="688" cy="322" r="2.033571566890327" fill="#4d824b" opacity="0.8"></circle><circle cx="628" cy="385" r="2.013621909391977" fill="#4d824b" opacity="0.8"></circle><circle cx="547" cy="273" r="1.9962501142063611" fill="#5675c1" opacity="0.8"></circle><circle cx="396" cy="521" r="1.9643728375610143" fill="#5675c1" opacity="0.8"></circle><circle cx="750" cy="434" r="1.94816698784441" fill="#d14e5b" opacity="0.8"></circle><circle cx="622" cy="378" r="1.9133387484348916" fill="#4d824b" opacity="0.8"></circle><circle cx="762" cy="299" r="1.903669473975552" fill="#5675c1" opacity="0.8"></circle><circle cx="586" cy="391" r="1.8998599684836746" fill="#5675c1" opacity="0.8"></circle><circle cx="704" cy="426" r="1.866572816142765" fill="#ffd336" opacity="0.8"></circle><circle cx="830" cy="158" r="1.8598413051345501" fill="#5675c1" opacity="0.8"></circle><circle cx="626" cy="432" r="1.8276083529872689" fill="#69c487" opacity="0.8"></circle><circle cx="670" cy="362" r="1.8274124045854572" fill="#ffd336" opacity="0.8"></circle><circle cx="553" cy="445" r="1.8266484855269771" fill="#d14e5b" opacity="0.8"></circle><circle cx="537" cy="438" r="1.8227940828331142" fill="#ffd336" opacity="0.8"></circle><circle cx="747" cy="256" r="1.8131479247935245" fill="#4d824b" opacity="0.8"></circle><circle cx="938" cy="286" r="1.8105844396896436" fill="#ffd336" opacity="0.8"></circle><circle cx="714" cy="493" r="1.809768023857052" fill="#d14e5b" opacity="0.8"></circle><circle cx="832" cy="228" r="1.8084002056809059" fill="#4d824b" opacity="0.8"></circle><circle cx="710" cy="373" r="1.80574721861093" fill="#d14e5b" opacity="0.8"></circle><circle cx="349" cy="465" r="1.8014688251060171" fill="#a652ba" opacity="0.8"></circle><circle cx="612" cy="359" r="1.8009792401132907" fill="#a652ba" opacity="0.8"></circle><circle cx="638" cy="391" r="1.8000705685561578" fill="#4d824b" opacity="0.8"></circle><circle cx="691" cy="274" r="1.7954059856713351" fill="#a652ba" opacity="0.8"></circle><circle cx="806" cy="310" r="1.7899110734516588" fill="#5675c1" opacity="0.8"></circle><circle cx="715" cy="324" r="1.7895705163659945" fill="#4d824b" opacity="0.8"></circle><circle cx="862" cy="175" r="1.789062955986923" fill="#4d824b" opacity="0.8"></circle><circle cx="850" cy="283" r="1.7883260767992097" fill="#4d824b" opacity="0.8"></circle><circle cx="935" cy="362" r="1.7873908248440329" fill="#ffd336" opacity="0.8"></circle><circle cx="399" cy="381" r="1.7858537533178345" fill="#a652ba" opacity="0.8"></circle><circle cx="661" cy="285" r="1.7851774562970966" fill="#ffd336" opacity="0.8"></circle><circle cx="810" cy="322" r="1.7846963920660217" fill="#ffd336" opacity="0.8"></circle><circle cx="951" cy="326" r="1.7841241161527712" fill="#4d824b" opacity="0.8"></circle><circle cx="699" cy="261" r="1.7819958643334932" fill="#000" opacity="0.8"></circle><circle cx="637" cy="311" r="1.7819958643334932" fill="#000" opacity="0.8"></circle><circle cx="653" cy="308" r="1.7819958643334932" fill="#000" opacity="0.8"></circle><circle cx="666" cy="306" r="1.7819958643334932" fill="#000" opacity="0.8"></circle><circle cx="684" cy="346" r="1.7819958643334932" fill="#000" opacity="0.8"></circle><circle cx="609" cy="384" r="1.7819958643334932" fill="#000" opacity="0.8"></circle><circle cx="610" cy="384" r="1.7819958643334932" fill="#000" opacity="0.8"></circle><circle cx="610" cy="385" r="1.7819958643334932" fill="#000" opacity="0.8"></circle><circle cx="630" cy="353" r="1.7819958643334932" fill="#000" opacity="0.8"></circle><circle cx="374" cy="387" r="1.7819958643334932" fill="#000" opacity="0.8"></circle><circle cx="374" cy="387" r="1.7819958643334932" fill="#000" opacity="0.8"></circle><circle cx="637" cy="320" r="1.7819958643334932" fill="#000" opacity="0.8"></circle><text x="364" y="345.1587588384723" font-size="14.3" font-family="Arial Narrow, Arial, sans-serif" fill="#666">India</text><text x="694" y="249.67371216731942" font-size="12.083316667517284" font-family="Arial Narrow, Arial, sans-serif" fill="#666">United States</text><text x="610" y="331.56982807434713" font-size="11.7108869143012" font-family="Arial Narrow, Arial, sans-serif" fill="#666">Indonesia</text><text x="601" y="371.3865496269316" font-size="11.573670816805938" font-family="Arial Narrow, Arial, sans-serif" fill="#666">Brazil</text><text x="625" y="274.5599057173621" font-size="11.546342901861987" font-family="Arial Narrow, Arial, sans-serif" fill="#666">Japan</text><text x="446" y="513.71756904254" font-size="11.379984426585498" font-family="Arial Narrow, Arial, sans-serif" fill="#666">Bangladesh</text><text x="324" y="499.7222912733943" font-size="11.379363314039475" font-family="Arial Narrow, Arial, sans-serif" fill="#666">Pakistan</text><text x="672" y="316.80181900581914" font-size="11.368973237549634" font-family="Arial Narrow, Arial, sans-serif" fill="#666">Germany</text><text x="552" y="372.15744017568693" font-size="11.324132842263941" font-family="Arial Narrow, Arial, sans-serif" fill="#666">Mexico</text><text x="698" y="340.65953646443165" font-size="11.265333175967477" font-family="Arial Narrow, Arial, sans-serif" fill="#666">United Kingdom</text><text x="513" y="360.66298677651923" font-size="11.26494738182236" font-family="Arial Narrow, Arial, sans-serif" fill="#666">Italy</text><text x="688" y="269.93020438775284" font-size="11.235826047358138" font-family="Arial Narrow, Arial, sans-serif" fill="#666">Ukraine</text><text x="737" y="116.04520189345908" font-size="11.223753919709198" font-family="Arial Narrow, Arial, sans-serif" fill="#666">Thailand</text><text x="622" y="465.06425935931566" font-size="11.221780071658815" font-family="Arial Narrow, Arial, sans-serif" fill="#666">Philippines</text><text x="424" y="284.2010770977228" font-size="11.207832712937936" font-family="Arial Narrow, Arial, sans-serif" fill="#666">Turkey</text><text x="243" y="477.4677925631659" font-size="11.181770512971479" font-family="Arial Narrow, Arial, sans-serif" fill="#666">Iran</text><text x="654" y="390.5218096926747" font-size="11.176673636803548" font-family="Arial Narrow, Arial, sans-serif" fill="#666">Spain</text><text x="605" y="215.61927582092693" font-size="11.167631671379453" font-family="Arial Narrow, Arial, sans-serif" fill="#666">Poland</text><text x="597" y="414.96704465172735" font-size="11.13699050880007" font-family="Arial Narrow, Arial, sans-serif" fill="#666">South Africa</text><text x="713" y="417.09188497476254" font-size="11.126608950516733" font-family="Arial Narrow, Arial, sans-serif" fill="#666">Colombia</text><text x="742" y="261.2301702841292" font-size="11.11549036231166" font-family="Arial Narrow, Arial, sans-serif" fill="#666">Canada</text><text x="358" y="448.53826029309465" font-size="11.09215907012332" font-family="Arial Narrow, Arial, sans-serif" fill="#666">Morocco</text><text x="248" y="528.5877498995728" font-size="11.088596597773098" font-family="Arial Narrow, Arial, sans-serif" fill="#666">Algeria</text><text x="986" y="86.59603218312719" font-size="11.088005414442954" font-family="Arial Narrow, Arial, sans-serif" fill="#666">Tanzania</text><text x="798" y="368.6898262277241" font-size="11.081410724561838" font-family="Arial Narrow, Arial, sans-serif" fill="#666">Peru</text><text x="510" y="426.8432480478824" font-size="11.07102077063612" font-family="Arial Narrow, Arial, sans-serif" fill="#666">Sri Lanka</text><text x="938" y="291.8459188009411" font-size="11.070844268871928" font-family="Arial Narrow, Arial, sans-serif" fill="#666">Nepal</text><text x="720" y="293.869945446233" font-size="11.069263139839574" font-family="Arial Narrow, Arial, sans-serif" fill="#666">Australia</text><text x="715" y="380.91497069773186" font-size="11.066332707098285" font-family="Arial Narrow, Arial, sans-serif" fill="#666">Netherlands</text><text x="975" y="63.06012616008451" font-size="11.057174466034118" font-family="Arial Narrow, Arial, sans-serif" fill="#666">Mozambique</text><text x="608" y="397.1350914072953" font-size="11.052617513109162" font-family="Arial Narrow, Arial, sans-serif" fill="#666">Chile</text><text x="699" y="360.24454666303143" font-size="11.046175382562339" font-family="Arial Narrow, Arial, sans-serif" fill="#666">Cuba</text><text x="659" y="286.24669571523094" font-size="11.046051408952584" font-family="Arial Narrow, Arial, sans-serif" fill="#666">Portugal</text><text x="247" y="503.3195471736147" font-size="11.041906002780452" font-family="Arial Narrow, Arial, sans-serif" fill="#666">Syria</text><text x="979" y="367.3446523973513" font-size="11.040503213974127" font-family="Arial Narrow, Arial, sans-serif" fill="#666">Madagascar</text><text x="829" y="175.37007582130792" font-size="11.039096097711479" font-family="Arial Narrow, Arial, sans-serif" fill="#666">Sweden</text><text x="643" y="375.4004324255307" font-size="11.037433675667975" font-family="Arial Narrow, Arial, sans-serif" fill="#666">Ecuador</text><text x="990.0216121701648" y="276.45895850987273" font-size="11.03428308005091" font-family="Arial Narrow, Arial, sans-serif" fill="#666">Zimbabwe</text><text x="500" y="463.48146624554767" font-size="11.033090535854457" font-family="Arial Narrow, Arial, sans-serif" fill="#666">Guatemala</text><text x="362" y="434.53378904436596" font-size="11.030359279239995" font-family="Arial Narrow, Arial, sans-serif" fill="#666">Tunisia</text><text x="768" y="309.5478607184427" font-size="11.029634519872507" font-family="Arial Narrow, Arial, sans-serif" fill="#666">Switzerland</text><text x="880" y="65.55369142037662" font-size="11.02933542570194" font-family="Arial Narrow, Arial, sans-serif" fill="#666">Malawi</text><text x="445" y="198.63089138083495" font-size="11.025442468623813" font-family="Arial Narrow, Arial, sans-serif" fill="#666">Senegal</text><text x="853" y="46.02433400341529" font-size="11.024334003415294" font-family="Arial Narrow, Arial, sans-serif" fill="#666">Rwanda</text><text x="722" y="226.65870528465436" font-size="11.024070485838239" font-family="Arial Narrow, Arial, sans-serif" fill="#666">Denmark</text><text x="681" y="298.6919671060645" font-size="11.02245104608964" font-family="Arial Narrow, Arial, sans-serif" fill="#666">Finland</text><text x="612" y="446.80716929053034" font-size="11.017021229197356" font-family="Arial Narrow, Arial, sans-serif" fill="#666">Honduras</text><text x="779" y="469.8470962517668" font-size="11.015204216083532" font-family="Arial Narrow, Arial, sans-serif" fill="#666">Nicaragua</text><text x="429" y="387.85192949971844" font-size="11.014986528060225" font-family="Arial Narrow, Arial, sans-serif" fill="#666">Puerto Rico</text><text x="776" y="386.8570518577231" font-size="11.014756352638454" font-family="Arial Narrow, Arial, sans-serif" fill="#666">New Zealand</text><text x="547" y="270.00374988579364" font-size="11.008397641118902" font-family="Arial Narrow, Arial, sans-serif" fill="#666">Congo</text><text x="750" y="431.0518330121556" font-size="11.006411527228275" font-family="Arial Narrow, Arial, sans-serif" fill="#666">Kuwait</text><text x="830" y="155.14015869486545" font-size="11.002889331334261" font-family="Arial Narrow, Arial, sans-serif" fill="#666">Gambia</text><text x="626" y="429.1723916470127" font-size="11.001644659673774" font-family="Arial Narrow, Arial, sans-serif" fill="#666">Suriname</text><text x="553" y="442.17335151447304" font-size="11.001607928149108" font-family="Arial Narrow, Arial, sans-serif" fill="#666">Bahrain</text><text x="714" y="490.19023197614297" font-size="11.000965112325419" font-family="Arial Narrow, Arial, sans-serif" fill="#666">Qatar</text><text x="832" y="225.1915997943191" font-size="11.000913286557685" font-family="Arial Narrow, Arial, sans-serif" fill="#666">Bahamas</text><text x="349" y="462.19853117489396" font-size="11.00065126332012" font-family="Arial Narrow, Arial, sans-serif" fill="#666">Samoa</text><text x="612" y="356.1990207598867" font-size="11.000632793849684" font-family="Arial Narrow, Arial, sans-serif" fill="#666">French Polynesia</text><text x="850" y="280.2116739232008" font-size="11.000157197914923" font-family="Arial Narrow, Arial, sans-serif" fill="#666">Greenland</text><text x="951" y="323.2158758838472" font-size="11" font-family="Arial Narrow, Arial, sans-serif" fill="#666">Cayman Islands</text><text x="374" y="384.2180041356665" font-size="10.999920521880663" font-family="Arial Narrow, Arial, sans-serif" fill="#666">South Asia</text></g><g style="cursor: pointer;" class="ScatterColorLegend clickable"><g class="legendMark"><rect x="1061.4560000000001" y="32.5" width="56.007999999999996" height="21.799999999999997" fill="#fff" opacity="0"></rect>,<rect x="1061.4560000000001" y="39" width="8" height="8" fill="#5675c1"></rect>,<text font-size="16.80" x="1074.5" y="48.4"><tspan x="1074.4560000000001" y="48.44">Africa</tspan></text></g><g class="legendMark"><rect x="1061.4560000000001" y="54.3" width="45.76" height="21.799999999999997" fill="#fff" opacity="0"></rect>,<rect x="1061.4560000000001" y="60.8" width="8" height="8" fill="#d14e5b"></rect>,<text font-size="16.80" x="1074.5" y="70.2"><tspan x="1074.4560000000001" y="70.24">Asia</tspan></text></g><g class="legendMark"><rect x="1061.4560000000001" y="76.1" width="67.43199999999999" height="21.799999999999997" fill="#fff" opacity="0"></rect>,<rect x="1061.4560000000001" y="82.6" width="8" height="8" fill="#ffd336"></rect>,<text font-size="16.80" x="1074.5" y="92.0"><tspan x="1074.4560000000001" y="92.03999999999999">Europe</tspan></text></g><g class="legendMark"><rect x="1061.4560000000001" y="97.89999999999999" width="120.51999999999998" height="21.799999999999997" fill="#fff" opacity="0"></rect>,<rect x="1061.4560000000001" y="104.39999999999999" width="8" height="8" fill="#4d824b"></rect>,<text font-size="16.80" x="1074.5" y="113.8"><tspan x="1074.4560000000001" y="113.83999999999999">North America</tspan></text></g><g class="legendMark"><rect x="1061.4560000000001" y="119.69999999999999" width="75.832" height="21.799999999999997" fill="#fff" opacity="0"></rect>,<rect x="1061.4560000000001" y="126.19999999999999" width="8" height="8" fill="#a652ba"></rect>,<text font-size="16.80" x="1074.5" y="135.6"><tspan x="1074.4560000000001" y="135.64">Oceania</tspan></text></g><g class="legendMark"><rect x="1061.4560000000001" y="141.5" width="123.54399999999998" height="21.799999999999997" fill="#fff" opacity="0"></rect>,<rect x="1061.4560000000001" y="148" width="8" height="8" fill="#69c487"></rect>,<text font-size="16.80" x="1074.5" y="157.4"><tspan x="1074.4560000000001" y="157.44">South America</tspan></text></g></g></g></g></svg>