<svg xmlns="http://www.w3.org/2000/svg" version="1.1" style="font-family: 'Helvetica Neue', Helvetica, Arial, sans-serif; font-size: 18px; background-color: white; text-rendering: optimizeLegibility; -webkit-font-smoothing: antialiased;" width="850" height="600"><g class="ChartTab"><g class="HeaderView"><g opacity="0.8" transform="translate(770, 15) scale(0.31)"><a xmlns:xlink="http://www.w3.org/1999/xlink" xlink:href="https://ourworldindata.org" target="_blank"><g><rect x="0" y="0" fill="#1B2543" width="211.2" height="130.1"/><rect x="0" y="112.2" fill="#E63912" width="211.2" height="17.9"/><g><rect x="1.2" y="12.3" fill="none" width="210.2" height="99.2"/><path fill="#FFFFFF" d="M37.8,32.2c0,12.7-7.7,19.4-17.1,19.4c-9.7,0-16.6-7.5-16.6-18.7c0-11.7,7.3-19.3,17.1-19.3 C31.3,13.7,37.8,21.3,37.8,32.2z M9.2,32.8c0,7.9,4.3,14.9,11.8,14.9c7.5,0,11.8-6.9,11.8-15.3c0-7.3-3.8-14.9-11.8-14.9 C13.1,17.5,9.2,24.8,9.2,32.8z"/><path fill="#FFFFFF" d="M62.7,43.8c0,2.7,0.1,5.1,0.2,7.2h-4.3l-0.3-4.3h-0.1c-1.3,2.1-4,4.9-8.8,4.9c-4.2,0-9.1-2.3-9.1-11.6 V24.6h4.8v14.6c0,5,1.5,8.4,5.9,8.4c3.2,0,5.5-2.2,6.3-4.4c0.3-0.7,0.4-1.6,0.4-2.5V24.6h4.8V43.8z"/><path fill="#FFFFFF" d="M67.3,32.8c0-3.1-0.1-5.8-0.2-8.2h4.2l0.2,5.2h0.2c1.2-3.5,4.1-5.8,7.3-5.8c0.5,0,0.9,0.1,1.4,0.2v4.5 c-0.5-0.1-1-0.2-1.6-0.2c-3.4,0-5.8,2.6-6.5,6.2c-0.1,0.7-0.2,1.4-0.2,2.2V51h-4.8V32.8z"/><path fill="#FFFFFF" d="M95.4,51l-9.4-36.8h5l4.4,18.6c1.1,4.6,2.1,9.2,2.7,12.7h0.1c0.6-3.7,1.8-8,3-12.8l4.9-18.5h5l4.5,18.7 c1,4.4,2,8.7,2.6,12.6h0.1c0.8-4,1.8-8.1,3-12.7l4.9-18.5h4.9L120.6,51h-5L111,31.9c-1.1-4.7-1.9-8.3-2.4-12h-0.1 c-0.7,3.7-1.5,7.3-2.8,12L100.4,51H95.4z"/><path fill="#FFFFFF" d="M154.9,37.6c0,9.8-6.8,14-13.2,14c-7.2,0-12.7-5.2-12.7-13.6c0-8.8,5.8-14,13.1-14 C149.8,24,154.9,29.5,154.9,37.6z M133.9,37.9c0,5.8,3.3,10.1,8,10.1c4.6,0,8-4.3,8-10.3c0-4.5-2.2-10.1-7.9-10.1 C136.3,27.6,133.9,32.8,133.9,37.9z"/><path fill="#FFFFFF" d="M158.2,32.8c0-3.1-0.1-5.8-0.2-8.2h4.2l0.2,5.2h0.2c1.2-3.5,4.1-5.8,7.3-5.8c0.5,0,0.9,0.1,1.4,0.2v4.5 c-0.5-0.1-1-0.2-1.6-0.2c-3.4,0-5.8,2.6-6.5,6.2c-0.1,0.7-0.2,1.4-0.2,2.2V51h-4.8V32.8z"/><path fill="#FFFFFF" d="M173.5,12.3h4.8V51h-4.8V12.3z"/><path fill="#FFFFFF" d="M206.5,12.3v31.9c0,2.3,0.1,5,0.2,6.8h-4.3l-0.2-4.6H202c-1.5,2.9-4.7,5.2-9,5.2 c-6.4,0-11.3-5.4-11.3-13.4c-0.1-8.8,5.4-14.2,11.9-14.2c4,0,6.8,1.9,8,4h0.1V12.3H206.5z M201.7,35.4c0-0.6-0.1-1.4-0.2-2 c-0.7-3.1-3.3-5.6-6.9-5.6c-5,0-7.9,4.4-7.9,10.2c0,5.3,2.6,9.8,7.8,9.8c3.2,0,6.2-2.1,7.1-5.7c0.2-0.7,0.2-1.3,0.2-2.1V35.4z"/><path fill="#FFFFFF" d="M42.8,64c0.1,1.6-1.1,2.9-3.1,2.9c-1.7,0-2.9-1.3-2.9-2.9c0-1.7,1.3-3,3-3C41.7,61,42.8,62.3,42.8,64z M37.4,97.8V71.4h4.8v26.4H37.4z"/><path fill="#FFFFFF" d="M47.5,78.6c0-2.7-0.1-5-0.2-7.1h4.3l0.3,4.4h0.1c1.3-2.5,4.4-5,8.8-5c3.7,0,9.4,2.2,9.4,11.2v15.8h-4.8 V82.6c0-4.3-1.6-7.8-6.1-7.8c-3.2,0-5.6,2.2-6.5,4.9c-0.2,0.6-0.3,1.4-0.3,2.2v15.9h-4.8V78.6z"/><path fill="#FFFFFF" d="M84,61.6c2.9-0.4,6.3-0.8,10.1-0.8c6.8,0,11.7,1.6,14.9,4.6c3.3,3,5.2,7.3,5.2,13.2c0,6-1.9,10.9-5.3,14.3 c-3.4,3.4-9.1,5.3-16.3,5.3c-3.4,0-6.2-0.2-8.6-0.4V61.6z M88.8,94.1c1.2,0.2,3,0.3,4.8,0.3c10.2,0,15.7-5.7,15.7-15.6 c0.1-8.7-4.9-14.2-14.9-14.2c-2.5,0-4.3,0.2-5.6,0.5V94.1z"/><path fill="#FFFFFF" d="M132.1,97.8l-0.4-3.3h-0.2c-1.5,2.1-4.3,3.9-8.1,3.9c-5.4,0-8.1-3.8-8.1-7.6c0-6.4,5.7-9.9,15.9-9.8v-0.5 c0-2.2-0.6-6.1-6-6.1c-2.5,0-5,0.8-6.9,2l-1.1-3.2c2.2-1.4,5.4-2.3,8.7-2.3c8.1,0,10.1,5.5,10.1,10.8v9.9c0,2.3,0.1,4.5,0.4,6.3 H132.1z M131.4,84.4c-5.3-0.1-11.2,0.8-11.2,5.9c0,3.1,2.1,4.6,4.5,4.6c3.4,0,5.6-2.2,6.4-4.4c0.2-0.5,0.3-1,0.3-1.5V84.4z"/><path fill="#FFFFFF" d="M146.6,63.9v7.6h6.9v3.7h-6.9v14.2c0,3.3,0.9,5.1,3.6,5.1c1.3,0,2.2-0.2,2.8-0.3l0.2,3.6 c-0.9,0.4-2.4,0.7-4.3,0.7c-2.2,0-4-0.7-5.2-2c-1.4-1.4-1.9-3.8-1.9-6.9V75.1h-4.1v-3.7h4.1v-6.3L146.6,63.9z"/><path fill="#FFFFFF" d="M171.4,97.8l-0.4-3.3h-0.2c-1.5,2.1-4.3,3.9-8.1,3.9c-5.4,0-8.1-3.8-8.1-7.6c0-6.4,5.7-9.9,15.9-9.8v-0.5 c0-2.2-0.6-6.1-6-6.1c-2.5,0-5,0.8-6.9,2l-1.1-3.2c2.2-1.4,5.4-2.3,8.7-2.3c8.1,0,10.1,5.5,10.1,10.8v9.9c0,2.3,0.1,4.5,0.4,6.3 H171.4z M170.7,84.4c-5.3-0.1-11.2,0.8-11.2,5.9c0,3.1,2.1,4.6,4.5,4.6c3.4,0,5.6-2.2,6.4-4.4c0.2-0.5,0.3-1,0.3-1.5V84.4z"/></g></g></a></g><a href="https://ourworldindata.org/grapher/female-employment-to-population-ratio-2015-vs-1980" target="_blank"><text font-size="27.00" x="15.0" y="36.6" fill="#555"><tspan x="15" y="36.6">Female employment-to-population ratio, 2015 vs 1980</tspan></text></a><text font-size="14.40" x="15.0" y="55.5" fill="#666"><tspan x="15" y="55.519999999999996">Shown is the female employment-to-population ratio in 2015 (horizontal axis) and in 1980 (vertical axis). The female</tspan><tspan x="15" y="71.36">employment-to-population ratio corresponds to the proportion of a country's female population 15+ that is employed.</tspan><tspan x="15" y="87.2">All figures correspond to national estimates, without ILO corrections (see limitations and exceptions in the sources).</tspan></text></g><g><g class="AxisBoxView"><g class="HorizontalAxis"><text font-size="12.60" x="198.4" y="554.0"><tspan x="198.428" y="553.98">Female employment-to-population ratio in 2016 (%) in 2015</tspan></text><text x="75.2" y="533.9" fill="#666" text-anchor="middle" font-size="16.2">0%</text><text x="167.6" y="533.9" fill="#666" text-anchor="middle" font-size="16.2">10%</text><text x="260" y="533.9" fill="#666" text-anchor="middle" font-size="16.2">20%</text><text x="352.4" y="533.9" fill="#666" text-anchor="middle" font-size="16.2">30%</text><text x="444.8" y="533.9" fill="#666" text-anchor="middle" font-size="16.2">40%</text><text x="537.2" y="533.9" fill="#666" text-anchor="middle" font-size="16.2">50%</text><text x="629.6" y="533.9" fill="#666" text-anchor="middle" font-size="16.2">60%</text></g><g class="VerticalAxis"><text font-size="12.60" x="-477.0" y="25.1" transform="rotate(-90)"><tspan x="-476.9680000000001" y="25.080000000000002">Female employment-to-population ratio in 1980 (%)</tspan></text><text x="70.16" y="512.7" fill="#666" dominant-baseline="middle" text-anchor="end" font-size="16.2">0%</text><text x="70.16" y="423.1" fill="#666" dominant-baseline="middle" text-anchor="end" font-size="16.2">20%</text><text x="70.16" y="333.6" fill="#666" dominant-baseline="middle" text-anchor="end" font-size="16.2">40%</text><text x="70.16" y="244" fill="#666" dominant-baseline="middle" text-anchor="end" font-size="16.2">60%</text><text x="70.16" y="154.5" fill="#666" dominant-baseline="middle" text-anchor="end" font-size="16.2">80%</text></g><g class="AxisGridLines"><line x1="75.16" y1="512.7" x2="715.00" y2="512.7" stroke="#ccc"></line><line x1="75.16" y1="423.1" x2="715.00" y2="423.1" stroke="#ddd" stroke-dasharray="3,2"></line><line x1="75.16" y1="333.6" x2="715.00" y2="333.6" stroke="#ddd" stroke-dasharray="3,2"></line><line x1="75.16" y1="244" x2="715.00" y2="244" stroke="#ddd" stroke-dasharray="3,2"></line><line x1="75.16" y1="154.5" x2="715.00" y2="154.5" stroke="#ddd" stroke-dasharray="3,2"></line></g><g class="AxisGridLines"><line x1="75.2" y1="512.70" x2="75.2" y2="109.40" stroke="#ccc"></line><line x1="167.6" y1="512.70" x2="167.6" y2="109.40" stroke="#ddd" stroke-dasharray="3,2"></line><line x1="260" y1="512.70" x2="260" y2="109.40" stroke="#ddd" stroke-dasharray="3,2"></line><line x1="352.4" y1="512.70" x2="352.4" y2="109.40" stroke="#ddd" stroke-dasharray="3,2"></line><line x1="444.8" y1="512.70" x2="444.8" y2="109.40" stroke="#ddd" stroke-dasharray="3,2"></line><line x1="537.2" y1="512.70" x2="537.2" y2="109.40" stroke="#ddd" stroke-dasharray="3,2"></line><line x1="629.6" y1="512.70" x2="629.6" y2="109.40" stroke="#ddd" stroke-dasharray="3,2"></line></g></g><g class="ComparisonLine"><defs><clipPath id="axisBounds-45"><rect x="75.162" y="109.4" width="639.838" height="403.3"></rect></clipPath></defs><path d="M75.2,512.7L81.6,509.6L88,506.5L94.4,503.4L100.8,500.3L107.2,497.2L113.6,494.1L120,491L126.3,487.9L132.7,484.8L139.1,481.7L145.5,478.6L151.9,475.5L158.3,472.4L164.7,469.3L171.1,466.2L177.5,463.1L183.9,460L190.3,456.9L196.7,453.8L203.1,450.7L209.5,447.6L215.9,444.5L222.3,441.4L228.7,438.3L235.1,435.2L241.5,432.1L247.9,429L254.3,425.9L260.7,422.8L267.1,419.7L273.5,416.6L279.9,413.5L286.3,410.4L292.7,407.3L299.1,404.2L305.5,401.1L311.9,398L318.3,394.9L324.7,391.8L331.1,388.7L337.5,385.6L343.9,382.5L350.3,379.4L356.7,376.3L363.1,373.2L369.5,370.1L375.9,367L382.3,363.9L388.7,360.8L395.1,357.7L401.5,354.6L407.9,351.5L414.3,348.4L420.7,345.3L427.1,342.2L433.5,339.1L439.9,336L446.3,332.9L452.7,329.8L459.1,326.7L465.5,323.6L471.9,320.5L478.3,317.4L484.7,314.3L491.1,311.2L497.5,308.1L503.9,305L510.3,301.9L516.7,298.8L523,295.7L529.4,292.6L535.8,289.5L542.2,286.4L548.6,283.3L555,280.2L561.4,277.1L567.8,274L574.2,270.9L580.6,267.8L587,264.7L593.4,261.6L599.8,258.5L606.2,255.4L612.6,252.3L619,249.2L625.4,246.1L631.8,243L638.2,239.9L644.6,236.8L651,233.7L657.4,230.6L663.8,227.5L670.2,224.4L676.6,221.3L683,218.2L689.4,215.1L695.8,212L702.2,208.9L708.6,205.8" clip-path="url(#axisBounds-45)" fill="none" stroke="#ccc"></path></g><g clip-path="url(#scatterBounds-46)" class="PointsWithLabels clickable"><rect x="75.162" y="109.4" width="639.838" height="403.3" fill="rgba(255,255,255,0)"></rect><defs><clipPath id="scatterBounds-46"><rect x="65.162" y="99.4" width="659.838" height="423.3"></rect></clipPath></defs><circle cx="571" cy="299" r="17.841241161527712" fill="#4d824b" opacity="0.8"></circle><circle cx="498" cy="303" r="14.49046001443044" fill="#d14e5b" opacity="0.8"></circle><circle cx="519" cy="303" r="12.732205735927588" fill="#d14e5b" opacity="0.8"></circle><circle cx="362" cy="469" r="10.66381186568916" fill="#d14e5b" opacity="0.8"></circle><circle cx="281" cy="475" r="10.655337041666572" fill="#d14e5b" opacity="0.8"></circle><circle cx="559" cy="346" r="10.512555729741294" fill="#ffd336" opacity="0.8"></circle><circle cx="576" cy="328" r="8.964701289352504" fill="#ffd336" opacity="0.8"></circle><circle cx="396" cy="386" r="8.958439884910108" fill="#ffd336" opacity="0.8"></circle><circle cx="505" cy="338" r="8.777441754799636" fill="#ffd336" opacity="0.8"></circle><circle cx="636" cy="256" r="8.262616942226748" fill="#d14e5b" opacity="0.8"></circle><circle cx="511" cy="317" r="8.227798256293616" fill="#d14e5b" opacity="0.8"></circle><circle cx="450" cy="406" r="7.387530659496985" fill="#ffd336" opacity="0.8"></circle><circle cx="536" cy="328" r="7.38420817874324" fill="#d14e5b" opacity="0.8"></circle><circle cx="605" cy="305" r="6.0644823980095195" fill="#4d824b" opacity="0.8"></circle><circle cx="189" cy="491" r="5.380965834828499" fill="#5675c1" opacity="0.8"></circle><circle cx="500" cy="391" r="4.87630832444475" fill="#69c487" opacity="0.8"></circle><circle cx="587" cy="328" r="4.830203396308435" fill="#a652ba" opacity="0.8"></circle><circle cx="579" cy="389" r="4.741142099404252" fill="#ffd336" opacity="0.8"></circle><circle cx="558" cy="322" r="4.704020972866755" fill="#d14e5b" opacity="0.8"></circle><circle cx="499" cy="412" r="4.2998607219707665" fill="#69c487" opacity="0.8"></circle><circle cx="481" cy="310" r="4.222583175376493" fill="#ffd336" opacity="0.8"></circle><circle cx="484" cy="398" r="4.082026482466439" fill="#ffd336" opacity="0.8"></circle><circle cx="369" cy="379" r="4.047482607828594" fill="#ffd336" opacity="0.8"></circle><circle cx="670" cy="275" r="3.815172931037841" fill="#ffd336" opacity="0.8"></circle><circle cx="559" cy="345" r="3.6757444373135995" fill="#ffd336" opacity="0.8"></circle><circle cx="257" cy="471" r="3.4661337010016973" fill="#5675c1" opacity="0.8"></circle><circle cx="631" cy="354" r="3.435586830916376" fill="#ffd336" opacity="0.8"></circle><circle cx="715" cy="109" r="3.4229012660742266" fill="#5675c1" opacity="0.8"></circle><circle cx="626" cy="402" r="3.240309050246736" fill="#69c487" opacity="0.8"></circle><circle cx="574" cy="284" r="3.1913523116100433" fill="#ffd336" opacity="0.8"></circle><circle cx="566" cy="367" r="3.176391868530394" fill="#d14e5b" opacity="0.8"></circle><circle cx="543" cy="315" r="3.116672771764188" fill="#ffd336" opacity="0.8"></circle><circle cx="627" cy="271" r="2.960097314064523" fill="#ffd336" opacity="0.8"></circle><circle cx="592" cy="362" r="2.880310497695675" fill="#d14e5b" opacity="0.8"></circle><circle cx="478" cy="474" r="2.8520456563424634" fill="#4d824b" opacity="0.8"></circle><circle cx="524" cy="383" r="2.801145512821237" fill="#ffd336" opacity="0.8"></circle><circle cx="342" cy="416" r="2.746322673012833" fill="#4d824b" opacity="0.8"></circle><circle cx="549" cy="361" r="2.675166160738407" fill="#69c487" opacity="0.8"></circle><circle cx="611" cy="321" r="2.543760743292584" fill="#d14e5b" opacity="0.8"></circle><circle cx="465" cy="406" r="2.524492072140388" fill="#4d824b" opacity="0.8"></circle><circle cx="502" cy="341" r="2.466533147245361" fill="#4d824b" opacity="0.8"></circle><circle cx="516" cy="377" r="2.4161611999969796" fill="#4d824b" opacity="0.8"></circle><circle cx="620" cy="406" r="2.246752735627581" fill="#d14e5b" opacity="0.8"></circle><circle cx="517" cy="367" r="2.153651707031863" fill="#4d824b" opacity="0.8"></circle><circle cx="529" cy="332" r="2.127389790677142" fill="#5675c1" opacity="0.8"></circle><circle cx="529" cy="421" r="2.0247802405761903" fill="#ffd336" opacity="0.8"></circle><circle cx="542" cy="370" r="1.9128715111693113" fill="#ffd336" opacity="0.8"></circle><circle cx="452" cy="474" r="1.9106475933803297" fill="#d14e5b" opacity="0.8"></circle><circle cx="587" cy="388" r="1.871065460286625" fill="#4d824b" opacity="0.8"></circle><circle cx="571" cy="384" r="1.8491353077565331" fill="#d14e5b" opacity="0.8"></circle><circle cx="277" cy="339" r="1.8363793342835517" fill="#a652ba" opacity="0.8"></circle><circle cx="516" cy="317" r="1.818202318354064" fill="#a652ba" opacity="0.8"></circle><circle cx="331" cy="394" r="1.7893160785735585" fill="#a652ba" opacity="0.8"></circle><circle cx="610" cy="331" r="1.7841241161527712" fill="#a652ba" opacity="0.8"></circle><text x="571" y="280.1587588384723" font-size="14.3" font-family="Arial Narrow, Arial, sans-serif" fill="#666">United States</text><text x="498" y="287.5095399855696" font-size="13.165503298763078" font-family="Arial Narrow, Arial, sans-serif" fill="#666">Indonesia</text><text x="362" y="457.3361881343108" font-size="12.157507086047099" font-family="Arial Narrow, Arial, sans-serif" fill="#666">Bangladesh</text><text x="281" y="463.3446629583334" font-size="12.155615051029828" font-family="Arial Narrow, Arial, sans-serif" fill="#666">Pakistan</text><text x="559" y="334.4874442702587" font-size="12.123964766911726" font-family="Arial Narrow, Arial, sans-serif" fill="#666">Germany</text><text x="576" y="318.0352987106475" font-size="11.808256081003567" font-family="Arial Narrow, Arial, sans-serif" fill="#666">United Kingdom</text><text x="396" y="376.0415601150899" font-size="11.807080873649127" font-family="Arial Narrow, Arial, sans-serif" fill="#666">Italy</text><text x="505" y="328.2225582452004" font-size="11.77346414194642" font-family="Arial Narrow, Arial, sans-serif" fill="#666">France</text><text x="636" y="246.73738305777326" font-size="11.681597218070205" font-family="Arial Narrow, Arial, sans-serif" fill="#666">Thailand</text><text x="511" y="307.7722017437064" font-size="11.675584475848176" font-family="Arial Narrow, Arial, sans-serif" fill="#666">Philippines</text><text x="450" y="397.612469340503" font-size="11.538181110231013" font-family="Arial Narrow, Arial, sans-serif" fill="#666">Spain</text><text x="605" y="297.93551760199045" font-size="11.351804424473452" font-family="Arial Narrow, Arial, sans-serif" fill="#666">Canada</text><text x="189" y="484.6190341651715" font-size="11.269880553221578" font-family="Arial Narrow, Arial, sans-serif" fill="#666">Algeria</text><text x="500" y="385.1236916755553" font-size="11.215673309848334" font-family="Arial Narrow, Arial, sans-serif" fill="#666">Venezuela</text><text x="579" y="383.25885790059573" font-size="11.202060218489564" font-family="Arial Narrow, Arial, sans-serif" fill="#666">Netherlands</text><text x="499" y="406.7001392780292" font-size="11.160280950847499" font-family="Arial Narrow, Arial, sans-serif" fill="#666">Chile</text><text x="670" y="270.18482706896214" font-size="11.119091972168276" font-family="Arial Narrow, Arial, sans-serif" fill="#666">Sweden</text><text x="631" y="349.56441316908365" font-size="11.090270083599718" font-family="Arial Narrow, Arial, sans-serif" fill="#666">Switzerland</text><text x="680.5120935660295" y="120.48935898198408" font-size="11.089358981984072" font-family="Arial Narrow, Arial, sans-serif" fill="#666">Malawi</text><text x="626" y="397.75969094975324" font-size="11.076618249456953" font-family="Arial Narrow, Arial, sans-serif" fill="#666">Bolivia</text><text x="566" y="362.8236081314696" font-size="11.072323300242921" font-family="Arial Narrow, Arial, sans-serif" fill="#666">Hong Kong</text><text x="478" y="470.14795434365755" font-size="11.051847437344598" font-family="Arial Narrow, Arial, sans-serif" fill="#666">Honduras</text><text x="342" y="412.25367732698714" font-size="11.045649324255772" font-family="Arial Narrow, Arial, sans-serif" fill="#666">Puerto Rico</text><text x="516" y="373.58383880000304" font-size="11.027800331247018" font-family="Arial Narrow, Arial, sans-serif" fill="#666">Panama</text><text x="529" y="417.9752197594238" font-size="11.009598991429176" font-family="Arial Narrow, Arial, sans-serif" fill="#666">Cyprus</text><text x="277" y="336.16362066571645" font-size="11.001981195115805" font-family="Arial Narrow, Arial, sans-serif" fill="#666">Samoa</text><text x="331" y="391.21068392142644" font-size="11.00019428831263" font-family="Arial Narrow, Arial, sans-serif" fill="#666">Marshall Islands</text></g><g style="cursor: pointer;" class="ScatterColorLegend clickable"><g class="legendMark"><rect x="735" y="106.9" width="43.256" height="17.6" fill="#fff" opacity="0"></rect>,<rect x="735" y="112.4" width="6" height="6" fill="#5675c1"></rect>,<text font-size="12.60" x="746.0" y="119.5"><tspan x="746" y="119.48">Africa</tspan></text></g><g class="legendMark"><rect x="735" y="124.5" width="35.57" height="17.6" fill="#fff" opacity="0"></rect>,<rect x="735" y="130" width="6" height="6" fill="#d14e5b"></rect>,<text font-size="12.60" x="746.0" y="137.1"><tspan x="746" y="137.07999999999998">Asia</tspan></text></g><g class="legendMark"><rect x="735" y="142.10000000000002" width="51.824" height="17.6" fill="#fff" opacity="0"></rect>,<rect x="735" y="147.60000000000002" width="6" height="6" fill="#ffd336"></rect>,<text font-size="12.60" x="746.0" y="154.7"><tspan x="746" y="154.68">Europe</tspan></text></g><g class="legendMark"><rect x="735" y="159.70000000000002" width="91.64" height="17.6" fill="#fff" opacity="0"></rect>,<rect x="735" y="165.20000000000002" width="6" height="6" fill="#4d824b"></rect>,<text font-size="12.60" x="746.0" y="172.3"><tspan x="746" y="172.28">North America</tspan></text></g><g class="legendMark"><rect x="735" y="177.3" width="58.124" height="17.6" fill="#fff" opacity="0"></rect>,<rect x="735" y="182.8" width="6" height="6" fill="#a652ba"></rect>,<text font-size="12.60" x="746.0" y="189.9"><tspan x="746" y="189.88">Oceania</tspan></text></g><g class="legendMark"><rect x="735" y="194.9" width="93.908" height="17.6" fill="#fff" opacity="0"></rect>,<rect x="735" y="200.4" width="6" height="6" fill="#69c487"></rect>,<text font-size="12.60" x="746.0" y="207.5"><tspan x="746" y="207.48">South America</tspan></text></g></g></g><g style="fill: #777;" class="SourcesFooter"><g style="fill: #777;" class="clickable"><text font-size="12.60" x="15.0" y="581.6"><tspan x="15" y="581.58">Source: World Bank – WDI</tspan></text></g><text font-size="12.60" x="329.6" y="581.6"><tspan x="329.614" y="581.58"><a target='_blank' style='fill: #777;' href='https://ourworldindata.org/wp-content/uploads/2016/02/Hilowitz-2014-621x550.png'>OurWorldInData.org/wp-content/uploads/2016/02/Hilowitz-2014-621x550.png</a> • <a style="fill: #777;" href="http://creativecommons.org/licenses/by-sa/4.0/deed.en_US" target="_blank">CC BY-SA</a></tspan></text></g></g></svg>