<svg xmlns="http://www.w3.org/2000/svg" version="1.1" style="font-family: 'Helvetica Neue', Helvetica, Arial, sans-serif; font-size: 18px; background-color: white; text-rendering: optimizeLegibility; -webkit-font-smoothing: antialiased;" width="850" height="600"><g class="ChartTab"><g class="HeaderView"><g opacity="0.8" transform="translate(770, 15) scale(0.31)"><a xmlns:xlink="http://www.w3.org/1999/xlink" xlink:href="https://ourworldindata.org" target="_blank"><g><rect x="0" y="0" fill="#1B2543" width="211.2" height="130.1"/><rect x="0" y="112.2" fill="#E63912" width="211.2" height="17.9"/><g><rect x="1.2" y="12.3" fill="none" width="210.2" height="99.2"/><path fill="#FFFFFF" d="M37.8,32.2c0,12.7-7.7,19.4-17.1,19.4c-9.7,0-16.6-7.5-16.6-18.7c0-11.7,7.3-19.3,17.1-19.3 C31.3,13.7,37.8,21.3,37.8,32.2z M9.2,32.8c0,7.9,4.3,14.9,11.8,14.9c7.5,0,11.8-6.9,11.8-15.3c0-7.3-3.8-14.9-11.8-14.9 C13.1,17.5,9.2,24.8,9.2,32.8z"/><path fill="#FFFFFF" d="M62.7,43.8c0,2.7,0.1,5.1,0.2,7.2h-4.3l-0.3-4.3h-0.1c-1.3,2.1-4,4.9-8.8,4.9c-4.2,0-9.1-2.3-9.1-11.6 V24.6h4.8v14.6c0,5,1.5,8.4,5.9,8.4c3.2,0,5.5-2.2,6.3-4.4c0.3-0.7,0.4-1.6,0.4-2.5V24.6h4.8V43.8z"/><path fill="#FFFFFF" d="M67.3,32.8c0-3.1-0.1-5.8-0.2-8.2h4.2l0.2,5.2h0.2c1.2-3.5,4.1-5.8,7.3-5.8c0.5,0,0.9,0.1,1.4,0.2v4.5 c-0.5-0.1-1-0.2-1.6-0.2c-3.4,0-5.8,2.6-6.5,6.2c-0.1,0.7-0.2,1.4-0.2,2.2V51h-4.8V32.8z"/><path fill="#FFFFFF" d="M95.4,51l-9.4-36.8h5l4.4,18.6c1.1,4.6,2.1,9.2,2.7,12.7h0.1c0.6-3.7,1.8-8,3-12.8l4.9-18.5h5l4.5,18.7 c1,4.4,2,8.7,2.6,12.6h0.1c0.8-4,1.8-8.1,3-12.7l4.9-18.5h4.9L120.6,51h-5L111,31.9c-1.1-4.7-1.9-8.3-2.4-12h-0.1 c-0.7,3.7-1.5,7.3-2.8,12L100.4,51H95.4z"/><path fill="#FFFFFF" d="M154.9,37.6c0,9.8-6.8,14-13.2,14c-7.2,0-12.7-5.2-12.7-13.6c0-8.8,5.8-14,13.1-14 C149.8,24,154.9,29.5,154.9,37.6z M133.9,37.9c0,5.8,3.3,10.1,8,10.1c4.6,0,8-4.3,8-10.3c0-4.5-2.2-10.1-7.9-10.1 C136.3,27.6,133.9,32.8,133.9,37.9z"/><path fill="#FFFFFF" d="M158.2,32.8c0-3.1-0.1-5.8-0.2-8.2h4.2l0.2,5.2h0.2c1.2-3.5,4.1-5.8,7.3-5.8c0.5,0,0.9,0.1,1.4,0.2v4.5 c-0.5-0.1-1-0.2-1.6-0.2c-3.4,0-5.8,2.6-6.5,6.2c-0.1,0.7-0.2,1.4-0.2,2.2V51h-4.8V32.8z"/><path fill="#FFFFFF" d="M173.5,12.3h4.8V51h-4.8V12.3z"/><path fill="#FFFFFF" d="M206.5,12.3v31.9c0,2.3,0.1,5,0.2,6.8h-4.3l-0.2-4.6H202c-1.5,2.9-4.7,5.2-9,5.2 c-6.4,0-11.3-5.4-11.3-13.4c-0.1-8.8,5.4-14.2,11.9-14.2c4,0,6.8,1.9,8,4h0.1V12.3H206.5z M201.7,35.4c0-0.6-0.1-1.4-0.2-2 c-0.7-3.1-3.3-5.6-6.9-5.6c-5,0-7.9,4.4-7.9,10.2c0,5.3,2.6,9.8,7.8,9.8c3.2,0,6.2-2.1,7.1-5.7c0.2-0.7,0.2-1.3,0.2-2.1V35.4z"/><path fill="#FFFFFF" d="M42.8,64c0.1,1.6-1.1,2.9-3.1,2.9c-1.7,0-2.9-1.3-2.9-2.9c0-1.7,1.3-3,3-3C41.7,61,42.8,62.3,42.8,64z M37.4,97.8V71.4h4.8v26.4H37.4z"/><path fill="#FFFFFF" d="M47.5,78.6c0-2.7-0.1-5-0.2-7.1h4.3l0.3,4.4h0.1c1.3-2.5,4.4-5,8.8-5c3.7,0,9.4,2.2,9.4,11.2v15.8h-4.8 V82.6c0-4.3-1.6-7.8-6.1-7.8c-3.2,0-5.6,2.2-6.5,4.9c-0.2,0.6-0.3,1.4-0.3,2.2v15.9h-4.8V78.6z"/><path fill="#FFFFFF" d="M84,61.6c2.9-0.4,6.3-0.8,10.1-0.8c6.8,0,11.7,1.6,14.9,4.6c3.3,3,5.2,7.3,5.2,13.2c0,6-1.9,10.9-5.3,14.3 c-3.4,3.4-9.1,5.3-16.3,5.3c-3.4,0-6.2-0.2-8.6-0.4V61.6z M88.8,94.1c1.2,0.2,3,0.3,4.8,0.3c10.2,0,15.7-5.7,15.7-15.6 c0.1-8.7-4.9-14.2-14.9-14.2c-2.5,0-4.3,0.2-5.6,0.5V94.1z"/><path fill="#FFFFFF" d="M132.1,97.8l-0.4-3.3h-0.2c-1.5,2.1-4.3,3.9-8.1,3.9c-5.4,0-8.1-3.8-8.1-7.6c0-6.4,5.7-9.9,15.9-9.8v-0.5 c0-2.2-0.6-6.1-6-6.1c-2.5,0-5,0.8-6.9,2l-1.1-3.2c2.2-1.4,5.4-2.3,8.7-2.3c8.1,0,10.1,5.5,10.1,10.8v9.9c0,2.3,0.1,4.5,0.4,6.3 H132.1z M131.4,84.4c-5.3-0.1-11.2,0.8-11.2,5.9c0,3.1,2.1,4.6,4.5,4.6c3.4,0,5.6-2.2,6.4-4.4c0.2-0.5,0.3-1,0.3-1.5V84.4z"/><path fill="#FFFFFF" d="M146.6,63.9v7.6h6.9v3.7h-6.9v14.2c0,3.3,0.9,5.1,3.6,5.1c1.3,0,2.2-0.2,2.8-0.3l0.2,3.6 c-0.9,0.4-2.4,0.7-4.3,0.7c-2.2,0-4-0.7-5.2-2c-1.4-1.4-1.9-3.8-1.9-6.9V75.1h-4.1v-3.7h4.1v-6.3L146.6,63.9z"/><path fill="#FFFFFF" d="M171.4,97.8l-0.4-3.3h-0.2c-1.5,2.1-4.3,3.9-8.1,3.9c-5.4,0-8.1-3.8-8.1-7.6c0-6.4,5.7-9.9,15.9-9.8v-0.5 c0-2.2-0.6-6.1-6-6.1c-2.5,0-5,0.8-6.9,2l-1.1-3.2c2.2-1.4,5.4-2.3,8.7-2.3c8.1,0,10.1,5.5,10.1,10.8v9.9c0,2.3,0.1,4.5,0.4,6.3 H171.4z M170.7,84.4c-5.3-0.1-11.2,0.8-11.2,5.9c0,3.1,2.1,4.6,4.5,4.6c3.4,0,5.6-2.2,6.4-4.4c0.2-0.5,0.3-1,0.3-1.5V84.4z"/></g></g></a></g><a href="https://ourworldindata.org/grapher/five-year-survival-rates-by-cancer-type" target="_blank"><text font-size="27.00" x="15.0" y="36.6" fill="#555"><tspan x="15" y="36.6">Five year survival rates by cancer type, United Kingdom</tspan></text></a><text font-size="14.40" x="15.0" y="55.5" fill="#666"><tspan x="15" y="55.519999999999996">Share of adults (aged 15-99), and children (aged 0-14) for leukaemia, diagnosed with cancer who survive at least</tspan><tspan x="15" y="71.36">five years following their diagnosis date. The year provided represents the year of diagnosis.</tspan></text></g><g class="LineChart"><defs><clipPath id="boundsClip-1"><rect x="42.562" y="0" width="830" height="925.2"></rect></clipPath></defs><g class="AxisBoxView"><g class="HorizontalAxis"><text x="52.6" y="556.5" fill="#666" text-anchor="middle" font-size="16.2">1999</text><text x="121.2" y="556.5" fill="#666" text-anchor="middle" font-size="16.2">2000</text><text x="258.6" y="556.5" fill="#666" text-anchor="middle" font-size="16.2">2002</text><text x="395.9" y="556.5" fill="#666" text-anchor="middle" font-size="16.2">2004</text><text x="533.3" y="556.5" fill="#666" text-anchor="middle" font-size="16.2">2006</text><text x="670.6" y="556.5" fill="#666" text-anchor="middle" font-size="16.2">2008</text><text x="739.3" y="556.5" fill="#666" text-anchor="middle" font-size="16.2">2009</text></g><g class="VerticalAxis"><text x="47.56" y="535.3" fill="#666" dominant-baseline="middle" text-anchor="end" font-size="16.2">0%</text><text x="47.56" y="482.2" fill="#666" dominant-baseline="middle" text-anchor="end" font-size="16.2">10%</text><text x="47.56" y="429.2" fill="#666" dominant-baseline="middle" text-anchor="end" font-size="16.2">20%</text><text x="47.56" y="376.1" fill="#666" dominant-baseline="middle" text-anchor="end" font-size="16.2">30%</text><text x="47.56" y="323.1" fill="#666" dominant-baseline="middle" text-anchor="end" font-size="16.2">40%</text><text x="47.56" y="270" fill="#666" dominant-baseline="middle" text-anchor="end" font-size="16.2">50%</text><text x="47.56" y="217" fill="#666" dominant-baseline="middle" text-anchor="end" font-size="16.2">60%</text><text x="47.56" y="163.9" fill="#666" dominant-baseline="middle" text-anchor="end" font-size="16.2">70%</text><text x="47.56" y="110.9" fill="#666" dominant-baseline="middle" text-anchor="end" font-size="16.2">80%</text></g><g class="AxisGridLines"><line x1="52.56" y1="535.3" x2="739.30" y2="535.3" stroke="#ccc"></line><line x1="52.56" y1="482.2" x2="739.30" y2="482.2" stroke="#ddd" stroke-dasharray="3,2"></line><line x1="52.56" y1="429.2" x2="739.30" y2="429.2" stroke="#ddd" stroke-dasharray="3,2"></line><line x1="52.56" y1="376.1" x2="739.30" y2="376.1" stroke="#ddd" stroke-dasharray="3,2"></line><line x1="52.56" y1="323.1" x2="739.30" y2="323.1" stroke="#ddd" stroke-dasharray="3,2"></line><line x1="52.56" y1="270" x2="739.30" y2="270" stroke="#ddd" stroke-dasharray="3,2"></line><line x1="52.56" y1="217" x2="739.30" y2="217" stroke="#ddd" stroke-dasharray="3,2"></line><line x1="52.56" y1="163.9" x2="739.30" y2="163.9" stroke="#ddd" stroke-dasharray="3,2"></line><line x1="52.56" y1="110.9" x2="739.30" y2="110.9" stroke="#ddd" stroke-dasharray="3,2"></line></g><g class="AxisGridLines"><line x1="121.2" y1="535.30" x2="121.2" y2="93.90" stroke="#ddd" stroke-dasharray="3,2"></line><line x1="258.6" y1="535.30" x2="258.6" y2="93.90" stroke="#ddd" stroke-dasharray="3,2"></line><line x1="395.9" y1="535.30" x2="395.9" y2="93.90" stroke="#ddd" stroke-dasharray="3,2"></line><line x1="533.3" y1="535.30" x2="533.3" y2="93.90" stroke="#ddd" stroke-dasharray="3,2"></line><line x1="670.6" y1="535.30" x2="670.6" y2="93.90" stroke="#ddd" stroke-dasharray="3,2"></line></g></g><g clip-path="url(#boundsClip-1)"><g class="HeightedLegend clickable"><g class="legendMark"><rect x="749.296" y="86.7" width="68.85600000000001" height="14.4" fill="#fff" opacity="0"></rect><rect x="749.296" y="92.65" width="10" height="2.5" fill="#b077b1"></rect><text font-size="14.40" x="764.3" y="98.2" fill="#333"><tspan x="764.296" y="98.22000000000001">Prostate</tspan></text></g><g class="legendMark"><rect x="749.296" y="101.10000000000001" width="56.760000000000005" height="14.4" fill="#fff" opacity="0"></rect><rect x="749.296" y="107.05000000000001" width="10" height="2.5" fill="#ffd53e"></rect><text font-size="14.40" x="764.3" y="112.6" fill="#333"><tspan x="764.296" y="112.62000000000002">Breast</tspan></text></g><g class="legendMark"><rect x="749.296" y="208.70000000000002" width="55.752" height="14.4" fill="#fff" opacity="0"></rect><rect x="749.296" y="214.65" width="10" height="2.5" fill="#9ecc8a"></rect><text font-size="14.40" x="764.3" y="220.2" fill="#333"><tspan x="764.296" y="220.22000000000003">Cervix</tspan></text></g><g class="legendMark"><rect x="749.296" y="227.8" width="64.68" height="14.4" fill="#fff" opacity="0"></rect><rect x="749.296" y="233.75" width="10" height="2.5" fill="#e6332e"></rect><text font-size="14.40" x="764.3" y="239.3" fill="#333"><tspan x="764.296" y="239.32000000000002">Rectum</tspan></text></g><g class="legendMark"><rect x="749.296" y="242.70000000000002" width="52.728" height="14.4" fill="#fff" opacity="0"></rect><rect x="749.296" y="248.65" width="10" height="2.5" fill="#2a939b"></rect><text font-size="14.40" x="764.3" y="254.2" fill="#333"><tspan x="764.296" y="254.22000000000003">Colon</tspan></text></g><g class="legendMark"><rect x="749.296" y="278.8" width="85.70400000000001" height="14.4" fill="#fff" opacity="0"></rect><rect x="749.296" y="284.75" width="10" height="2.5" fill="#a652ba"></rect><text font-size="14.40" x="764.3" y="290.3" fill="#333"><tspan x="764.296" y="290.32">Leukaemia</tspan></text></g><g class="legendMark"><rect x="749.296" y="332.3" width="53.44800000000001" height="14.4" fill="#fff" opacity="0"></rect><rect x="749.296" y="338.25" width="10" height="2.5" fill="#f6a324"></rect><text font-size="14.40" x="764.3" y="343.8" fill="#333"><tspan x="764.296" y="343.82">Ovary</tspan></text></g><g class="legendMark"><rect x="749.296" y="430" width="72.024" height="14.4" fill="#fff" opacity="0"></rect><rect x="749.296" y="435.95" width="10" height="2.5" fill="#34983f"></rect><text font-size="14.40" x="764.3" y="441.5" fill="#333"><tspan x="764.296" y="441.52">Stomach</tspan></text></g><g class="legendMark"><rect x="749.296" y="477.2" width="47.256" height="14.4" fill="#fff" opacity="0"></rect><rect x="749.296" y="483.15" width="10" height="2.5" fill="#ca2628"></rect><text font-size="14.40" x="764.3" y="488.7" fill="#333"><tspan x="764.296" y="488.71999999999997">Lung</tspan></text></g><g class="legendMark"><rect x="749.296" y="491.59999999999997" width="46.248000000000005" height="14.4" fill="#fff" opacity="0"></rect><rect x="749.296" y="497.54999999999995" width="10" height="2.5" fill="#3360a9"></rect><text font-size="14.40" x="764.3" y="503.1" fill="#333"><tspan x="764.296" y="503.11999999999995">Liver</tspan></text></g></g><g class="Lines"><rect x="53" y="94" width="687" height="441" fill="rgba(255,255,255,0)" opacity="0"></rect><g class="key-United-Kingdom_0"><path stroke="#ffd53e" stroke-linecap="round" d="M53 142L396 118L739 105" fill="none" stroke-width="1.5"></path><g fill="#ffd53e"><circle cx="53" cy="142" r="2"></circle><circle cx="396" cy="118" r="2"></circle><circle cx="739" cy="105" r="2"></circle></g></g><g class="key-United-Kingdom_1"><path stroke="#9ecc8a" stroke-linecap="round" d="M53 228L396 222L739 216" fill="none" stroke-width="1.5"></path><g fill="#9ecc8a"><circle cx="53" cy="228" r="2"></circle><circle cx="396" cy="222" r="2"></circle><circle cx="739" cy="216" r="2"></circle></g></g><g class="key-United-Kingdom_2"><path stroke="#2a939b" stroke-linecap="round" d="M53 280L396 263L739 250" fill="none" stroke-width="1.5"></path><g fill="#2a939b"><circle cx="53" cy="280" r="2"></circle><circle cx="396" cy="263" r="2"></circle><circle cx="739" cy="250" r="2"></circle></g></g><g class="key-United-Kingdom_3"><path stroke="#a652ba" stroke-linecap="round" d="M53 313L396 299L739 286" fill="none" stroke-width="1.5"></path><g fill="#a652ba"><circle cx="53" cy="313" r="2"></circle><circle cx="396" cy="299" r="2"></circle><circle cx="739" cy="286" r="2"></circle></g></g><g class="key-United-Kingdom_4"><path stroke="#3360a9" stroke-linecap="round" d="M53 500L396 492L739 486" fill="none" stroke-width="1.5"></path><g fill="#3360a9"><circle cx="53" cy="500" r="2"></circle><circle cx="396" cy="492" r="2"></circle><circle cx="739" cy="486" r="2"></circle></g></g><g class="key-United-Kingdom_5"><path stroke="#ca2628" stroke-linecap="round" d="M53 497L396 490L739 484" fill="none" stroke-width="1.5"></path><g fill="#ca2628"><circle cx="53" cy="497" r="2"></circle><circle cx="396" cy="490" r="2"></circle><circle cx="739" cy="484" r="2"></circle></g></g><g class="key-United-Kingdom_6"><path stroke="#f6a324" stroke-linecap="round" d="M53 362L396 351L739 340" fill="none" stroke-width="1.5"></path><g fill="#f6a324"><circle cx="53" cy="362" r="2"></circle><circle cx="396" cy="351" r="2"></circle><circle cx="739" cy="340" r="2"></circle></g></g><g class="key-United-Kingdom_7"><path stroke="#b077b1" stroke-linecap="round" d="M53 172L396 108L739 94" fill="none" stroke-width="1.5"></path><g fill="#b077b1"><circle cx="53" cy="172" r="2"></circle><circle cx="396" cy="108" r="2"></circle><circle cx="739" cy="94" r="2"></circle></g></g><g class="key-United-Kingdom_8"><path stroke="#e6332e" stroke-linecap="round" d="M53 275L396 249L739 235" fill="none" stroke-width="1.5"></path><g fill="#e6332e"><circle cx="53" cy="275" r="2"></circle><circle cx="396" cy="249" r="2"></circle><circle cx="739" cy="235" r="2"></circle></g></g><g class="key-United-Kingdom_9"><path stroke="#34983f" stroke-linecap="round" d="M53 458L396 448L739 437" fill="none" stroke-width="1.5"></path><g fill="#34983f"><circle cx="53" cy="458" r="2"></circle><circle cx="396" cy="448" r="2"></circle><circle cx="739" cy="437" r="2"></circle></g></g></g></g></g><g style="fill: #777;" class="SourcesFooter"><g style="fill: #777;" class="clickable"><text font-size="12.60" x="15.0" y="581.6"><tspan x="15" y="581.58">Source: Allemani et al. (2015)</tspan></text></g><text font-size="12.60" x="649.0" y="581.6"><tspan x="649.024" y="581.58"><a target='_blank' style='fill: #777;' href='https://ourworldindata.org'>OurWorldInData.org</a> • <a style="fill: #777;" href="http://creativecommons.org/licenses/by-sa/4.0/deed.en_US" target="_blank">CC BY-SA</a></tspan></text></g></g></svg>