<svg xmlns="http://www.w3.org/2000/svg" version="1.1" style="font-family: 'Helvetica Neue', Helvetica, Arial, sans-serif; font-size: 18px; background-color: white; text-rendering: optimizeLegibility; -webkit-font-smoothing: antialiased;" width="850" height="600"><g class="ChartTab"><g class="HeaderView"><g opacity="0.8" transform="translate(778, 15) scale(0.27)"><a xmlns:xlink="http://www.w3.org/1999/xlink" xlink:href="https://ourworldindata.org" target="_blank"><g><rect x="0" y="0" fill="#1B2543" width="211.2" height="130.1"/><rect x="0" y="112.2" fill="#E63912" width="211.2" height="17.9"/><g><rect x="1.2" y="12.3" fill="none" width="210.2" height="99.2"/><path fill="#FFFFFF" d="M37.8,32.2c0,12.7-7.7,19.4-17.1,19.4c-9.7,0-16.6-7.5-16.6-18.7c0-11.7,7.3-19.3,17.1-19.3 C31.3,13.7,37.8,21.3,37.8,32.2z M9.2,32.8c0,7.9,4.3,14.9,11.8,14.9c7.5,0,11.8-6.9,11.8-15.3c0-7.3-3.8-14.9-11.8-14.9 C13.1,17.5,9.2,24.8,9.2,32.8z"/><path fill="#FFFFFF" d="M62.7,43.8c0,2.7,0.1,5.1,0.2,7.2h-4.3l-0.3-4.3h-0.1c-1.3,2.1-4,4.9-8.8,4.9c-4.2,0-9.1-2.3-9.1-11.6 V24.6h4.8v14.6c0,5,1.5,8.4,5.9,8.4c3.2,0,5.5-2.2,6.3-4.4c0.3-0.7,0.4-1.6,0.4-2.5V24.6h4.8V43.8z"/><path fill="#FFFFFF" d="M67.3,32.8c0-3.1-0.1-5.8-0.2-8.2h4.2l0.2,5.2h0.2c1.2-3.5,4.1-5.8,7.3-5.8c0.5,0,0.9,0.1,1.4,0.2v4.5 c-0.5-0.1-1-0.2-1.6-0.2c-3.4,0-5.8,2.6-6.5,6.2c-0.1,0.7-0.2,1.4-0.2,2.2V51h-4.8V32.8z"/><path fill="#FFFFFF" d="M95.4,51l-9.4-36.8h5l4.4,18.6c1.1,4.6,2.1,9.2,2.7,12.7h0.1c0.6-3.7,1.8-8,3-12.8l4.9-18.5h5l4.5,18.7 c1,4.4,2,8.7,2.6,12.6h0.1c0.8-4,1.8-8.1,3-12.7l4.9-18.5h4.9L120.6,51h-5L111,31.9c-1.1-4.7-1.9-8.3-2.4-12h-0.1 c-0.7,3.7-1.5,7.3-2.8,12L100.4,51H95.4z"/><path fill="#FFFFFF" d="M154.9,37.6c0,9.8-6.8,14-13.2,14c-7.2,0-12.7-5.2-12.7-13.6c0-8.8,5.8-14,13.1-14 C149.8,24,154.9,29.5,154.9,37.6z M133.9,37.9c0,5.8,3.3,10.1,8,10.1c4.6,0,8-4.3,8-10.3c0-4.5-2.2-10.1-7.9-10.1 C136.3,27.6,133.9,32.8,133.9,37.9z"/><path fill="#FFFFFF" d="M158.2,32.8c0-3.1-0.1-5.8-0.2-8.2h4.2l0.2,5.2h0.2c1.2-3.5,4.1-5.8,7.3-5.8c0.5,0,0.9,0.1,1.4,0.2v4.5 c-0.5-0.1-1-0.2-1.6-0.2c-3.4,0-5.8,2.6-6.5,6.2c-0.1,0.7-0.2,1.4-0.2,2.2V51h-4.8V32.8z"/><path fill="#FFFFFF" d="M173.5,12.3h4.8V51h-4.8V12.3z"/><path fill="#FFFFFF" d="M206.5,12.3v31.9c0,2.3,0.1,5,0.2,6.8h-4.3l-0.2-4.6H202c-1.5,2.9-4.7,5.2-9,5.2 c-6.4,0-11.3-5.4-11.3-13.4c-0.1-8.8,5.4-14.2,11.9-14.2c4,0,6.8,1.9,8,4h0.1V12.3H206.5z M201.7,35.4c0-0.6-0.1-1.4-0.2-2 c-0.7-3.1-3.3-5.6-6.9-5.6c-5,0-7.9,4.4-7.9,10.2c0,5.3,2.6,9.8,7.8,9.8c3.2,0,6.2-2.1,7.1-5.7c0.2-0.7,0.2-1.3,0.2-2.1V35.4z"/><path fill="#FFFFFF" d="M42.8,64c0.1,1.6-1.1,2.9-3.1,2.9c-1.7,0-2.9-1.3-2.9-2.9c0-1.7,1.3-3,3-3C41.7,61,42.8,62.3,42.8,64z M37.4,97.8V71.4h4.8v26.4H37.4z"/><path fill="#FFFFFF" d="M47.5,78.6c0-2.7-0.1-5-0.2-7.1h4.3l0.3,4.4h0.1c1.3-2.5,4.4-5,8.8-5c3.7,0,9.4,2.2,9.4,11.2v15.8h-4.8 V82.6c0-4.3-1.6-7.8-6.1-7.8c-3.2,0-5.6,2.2-6.5,4.9c-0.2,0.6-0.3,1.4-0.3,2.2v15.9h-4.8V78.6z"/><path fill="#FFFFFF" d="M84,61.6c2.9-0.4,6.3-0.8,10.1-0.8c6.8,0,11.7,1.6,14.9,4.6c3.3,3,5.2,7.3,5.2,13.2c0,6-1.9,10.9-5.3,14.3 c-3.4,3.4-9.1,5.3-16.3,5.3c-3.4,0-6.2-0.2-8.6-0.4V61.6z M88.8,94.1c1.2,0.2,3,0.3,4.8,0.3c10.2,0,15.7-5.7,15.7-15.6 c0.1-8.7-4.9-14.2-14.9-14.2c-2.5,0-4.3,0.2-5.6,0.5V94.1z"/><path fill="#FFFFFF" d="M132.1,97.8l-0.4-3.3h-0.2c-1.5,2.1-4.3,3.9-8.1,3.9c-5.4,0-8.1-3.8-8.1-7.6c0-6.4,5.7-9.9,15.9-9.8v-0.5 c0-2.2-0.6-6.1-6-6.1c-2.5,0-5,0.8-6.9,2l-1.1-3.2c2.2-1.4,5.4-2.3,8.7-2.3c8.1,0,10.1,5.5,10.1,10.8v9.9c0,2.3,0.1,4.5,0.4,6.3 H132.1z M131.4,84.4c-5.3-0.1-11.2,0.8-11.2,5.9c0,3.1,2.1,4.6,4.5,4.6c3.4,0,5.6-2.2,6.4-4.4c0.2-0.5,0.3-1,0.3-1.5V84.4z"/><path fill="#FFFFFF" d="M146.6,63.9v7.6h6.9v3.7h-6.9v14.2c0,3.3,0.9,5.1,3.6,5.1c1.3,0,2.2-0.2,2.8-0.3l0.2,3.6 c-0.9,0.4-2.4,0.7-4.3,0.7c-2.2,0-4-0.7-5.2-2c-1.4-1.4-1.9-3.8-1.9-6.9V75.1h-4.1v-3.7h4.1v-6.3L146.6,63.9z"/><path fill="#FFFFFF" d="M171.4,97.8l-0.4-3.3h-0.2c-1.5,2.1-4.3,3.9-8.1,3.9c-5.4,0-8.1-3.8-8.1-7.6c0-6.4,5.7-9.9,15.9-9.8v-0.5 c0-2.2-0.6-6.1-6-6.1c-2.5,0-5,0.8-6.9,2l-1.1-3.2c2.2-1.4,5.4-2.3,8.7-2.3c8.1,0,10.1,5.5,10.1,10.8v9.9c0,2.3,0.1,4.5,0.4,6.3 H171.4z M170.7,84.4c-5.3-0.1-11.2,0.8-11.2,5.9c0,3.1,2.1,4.6,4.5,4.6c3.4,0,5.6-2.2,6.4-4.4c0.2-0.5,0.3-1,0.3-1.5V84.4z"/></g></g></a></g><a href="https://ourworldindata.org/grapher/fossil-fuel-consumption-by-fuel-type" target="_blank"><text font-size="25.20" x="15.0" y="35.2" fill="#555"><tspan x="15" y="35.160000000000004">Fossil fuel consumption by fuel type, China</tspan></text></a><text font-size="14.40" x="15.0" y="53.7" fill="#666"><tspan x="15" y="53.72">Fossil fuel consumption from coal, oil and gas sources by country or region, measured in terawatt-hour (TWh)</tspan><tspan x="15" y="69.56">equivalents per year.</tspan></text></g><g class="StackedArea"><defs><clipPath id="boundsClip-3"><rect x="108.614" y="0" width="820" height="928.8"></rect></clipPath></defs><g class="AxisBoxView"><g class="HorizontalAxis"><text x="108.6" y="556.5" fill="#666" text-anchor="middle" font-size="16.2">1965</text><text x="173.7" y="556.5" fill="#666" text-anchor="middle" font-size="16.2">1970</text><text x="303.8" y="556.5" fill="#666" text-anchor="middle" font-size="16.2">1980</text><text x="433.9" y="556.5" fill="#666" text-anchor="middle" font-size="16.2">1990</text><text x="564" y="556.5" fill="#666" text-anchor="middle" font-size="16.2">2000</text><text x="694.1" y="556.5" fill="#666" text-anchor="middle" font-size="16.2">2010</text><text x="772.2" y="556.5" fill="#666" text-anchor="middle" font-size="16.2">2016</text></g><g class="VerticalAxis"><text x="103.61" y="535.3" fill="#666" dominant-baseline="middle" text-anchor="end" font-size="16.2">0 TWh</text><text x="103.61" y="463.5" fill="#666" dominant-baseline="middle" text-anchor="end" font-size="16.2">5,000 TWh</text><text x="103.61" y="391.8" fill="#666" dominant-baseline="middle" text-anchor="end" font-size="16.2">10,000 TWh</text><text x="103.61" y="320" fill="#666" dominant-baseline="middle" text-anchor="end" font-size="16.2">15,000 TWh</text><text x="103.61" y="248.3" fill="#666" dominant-baseline="middle" text-anchor="end" font-size="16.2">20,000 TWh</text><text x="103.61" y="176.5" fill="#666" dominant-baseline="middle" text-anchor="end" font-size="16.2">25,000 TWh</text><text x="103.61" y="104.8" fill="#666" dominant-baseline="middle" text-anchor="end" font-size="16.2">30,000 TWh</text></g><g class="AxisGridLines"><line x1="108.61" y1="535.3" x2="772.19" y2="535.3" stroke="#ccc"></line><line x1="108.61" y1="463.5" x2="772.19" y2="463.5" stroke="#ddd" stroke-dasharray="3,2"></line><line x1="108.61" y1="391.8" x2="772.19" y2="391.8" stroke="#ddd" stroke-dasharray="3,2"></line><line x1="108.61" y1="320" x2="772.19" y2="320" stroke="#ddd" stroke-dasharray="3,2"></line><line x1="108.61" y1="248.3" x2="772.19" y2="248.3" stroke="#ddd" stroke-dasharray="3,2"></line><line x1="108.61" y1="176.5" x2="772.19" y2="176.5" stroke="#ddd" stroke-dasharray="3,2"></line><line x1="108.61" y1="104.8" x2="772.19" y2="104.8" stroke="#ddd" stroke-dasharray="3,2"></line></g></g><g clip-path="url(#boundsClip-3)"><g class="HeightedLegend clickable"><g class="legendMark"><rect x="772.19" y="101.15" width="59.84" height="13.5" fill="#fff" opacity="0"></rect><text font-size="13.50" x="777.2" y="112.0" fill="#2a939b"><tspan x="777.19" y="111.95">Gas</tspan></text></g><g class="legendMark"><rect x="772.19" y="165.25" width="51.47" height="13.5" fill="#fff" opacity="0"></rect><text font-size="13.50" x="777.2" y="176.1" fill="#ed6c2d"><tspan x="777.19" y="176.05">Oil</tspan></text></g><g class="legendMark"><rect x="772.19" y="371.05" width="62.81" height="13.5" fill="#fff" opacity="0"></rect><text font-size="13.50" x="777.2" y="381.9" fill="#818282"><tspan x="777.19" y="381.85">Coal</tspan></text></g></g><g class="Areas"><rect x="108.614" y="92.1" width="663.576" height="443.19999999999993" opacity="0" fill="rgba(255,255,255,0)"></rect><path stroke-linecap="round" d="M108.6 516.2L121.6 514.9L134.6 517.1L147.6 517.3L160.7 513.5L173.7 507.6L186.7 503.4L199.7 501.5L212.7 501.1L225.7 501.5L238.7 497.2L251.7 496.2L264.7 492.3L277.8 488.1L290.8 486.5L303.8 484.5L316.8 484.8L329.8 481.8L342.8 478.1L355.8 473L368.8 467.3L381.9 464.2L394.9 458.2L407.9 452.5L420.9 448.5L433.9 447.3L446.9 443L459.9 438.7L472.9 432.4L485.9 425.6L499 424.3L512 419.1L525 421.5L538 422.3L551 419.1L564 417.5L577 411.4L590 399.4L603 373.4L616.1 346.5L629.1 314.2L642.1 292.5L655.1 270.9L668.1 266.7L681.1 253.9L694.1 243.4L707.1 217.6L720.1 213.6L733.2 206.7L746.2 209.1L759.2 215.9L772.2 220.3L772.19 535.3L108.614 535.3" fill="#818282" fill-opacity="0.7" class="China_2-area"></path><path stroke-linecap="round" d="M108.6 514.4L121.6 512.5L134.6 514.8L147.6 514.7L160.7 510.1L173.7 502.9L186.7 497L199.7 494.2L212.7 492.1L225.7 491.1L238.7 485.8L251.7 483.2L264.7 478.6L277.8 472.9L290.8 471.3L303.8 470.1L316.8 471.1L329.8 468.3L342.8 464.2L355.8 458.7L368.8 452.4L381.9 448.3L394.9 441.3L407.9 434.3L420.9 429.5L433.9 428.4L446.9 422.6L459.9 416.6L472.9 408.1L485.9 400.9L499 397.5L512 389.8L525 389.4L538 389.4L551 384.1L564 380L577 373.1L590 358L603 327.2L616.1 292.5L629.1 259.3L642.1 233.6L655.1 209L668.1 203.6L681.1 188.4L694.1 168.6L707.1 139.9L720.1 132.3L733.2 121.9L746.2 121L759.2 122.2L772.2 123.7L772.2 220.3L759.2 215.9L746.2 209.1L733.2 206.7L720.1 213.6L707.1 217.6L694.1 243.4L681.1 253.9L668.1 266.7L655.1 270.9L642.1 292.5L629.1 314.2L616.1 346.5L603 373.4L590 399.4L577 411.4L564 417.5L551 419.1L538 422.3L525 421.5L512 419.1L499 424.3L485.9 425.6L472.9 432.4L459.9 438.7L446.9 443L433.9 447.3L420.9 448.5L407.9 452.5L394.9 458.2L381.9 464.2L368.8 467.3L355.8 473L342.8 478.1L329.8 481.8L316.8 484.8L303.8 484.5L290.8 486.5L277.8 488.1L264.7 492.3L251.7 496.2L238.7 497.2L225.7 501.5L212.7 501.1L199.7 501.5L186.7 503.4L173.7 507.6L160.7 513.5L147.6 517.3L134.6 517.1L121.6 514.9L108.6 516.2" fill="#ed6c2d" fill-opacity="0.7" class="China_0-area"></path><path stroke-linecap="round" d="M108.6 514.2L121.6 512.3L134.6 514.6L147.6 514.5L160.7 509.8L173.7 502.5L186.7 496.4L199.7 493.4L212.7 491.2L225.7 490L238.7 484.4L251.7 481.6L264.7 476.7L277.8 470.7L290.8 469L303.8 467.8L316.8 469.1L329.8 466.4L342.8 462.3L355.8 456.8L368.8 450.3L381.9 446.2L394.9 439.1L407.9 432.1L420.9 427.2L433.9 426.1L446.9 420.2L459.9 414.1L472.9 405.5L485.9 398.2L499 394.8L512 386.9L525 386.4L538 386.3L551 380.8L564 376.2L577 368.9L590 353.5L603 321.9L616.1 286.4L629.1 252.1L642.1 224.7L655.1 198.1L668.1 191L681.1 174.5L694.1 151.9L707.1 119.3L720.1 109.6L733.2 96L746.2 92.7L759.2 92.9L772.2 92.1L772.2 123.7L759.2 122.2L746.2 121L733.2 121.9L720.1 132.3L707.1 139.9L694.1 168.6L681.1 188.4L668.1 203.6L655.1 209L642.1 233.6L629.1 259.3L616.1 292.5L603 327.2L590 358L577 373.1L564 380L551 384.1L538 389.4L525 389.4L512 389.8L499 397.5L485.9 400.9L472.9 408.1L459.9 416.6L446.9 422.6L433.9 428.4L420.9 429.5L407.9 434.3L394.9 441.3L381.9 448.3L368.8 452.4L355.8 458.7L342.8 464.2L329.8 468.3L316.8 471.1L303.8 470.1L290.8 471.3L277.8 472.9L264.7 478.6L251.7 483.2L238.7 485.8L225.7 491.1L212.7 492.1L199.7 494.2L186.7 497L173.7 502.9L160.7 510.1L147.6 514.7L134.6 514.8L121.6 512.5L108.6 514.4" fill="#2a939b" fill-opacity="0.7" class="China_1-area"></path><path stroke-linecap="round" d="M108.6 516.2L121.6 514.9L134.6 517.1L147.6 517.3L160.7 513.5L173.7 507.6L186.7 503.4L199.7 501.5L212.7 501.1L225.7 501.5L238.7 497.2L251.7 496.2L264.7 492.3L277.8 488.1L290.8 486.5L303.8 484.5L316.8 484.8L329.8 481.8L342.8 478.1L355.8 473L368.8 467.3L381.9 464.2L394.9 458.2L407.9 452.5L420.9 448.5L433.9 447.3L446.9 443L459.9 438.7L472.9 432.4L485.9 425.6L499 424.3L512 419.1L525 421.5L538 422.3L551 419.1L564 417.5L577 411.4L590 399.4L603 373.4L616.1 346.5L629.1 314.2L642.1 292.5L655.1 270.9L668.1 266.7L681.1 253.9L694.1 243.4L707.1 217.6L720.1 213.6L733.2 206.7L746.2 209.1L759.2 215.9L772.2 220.3" stroke="rgb(108, 109, 109)" stroke-opacity="0.7" stroke-width="0.5" fill="none" class="China_2-border"></path><path stroke-linecap="round" d="M108.6 514.4L121.6 512.5L134.6 514.8L147.6 514.7L160.7 510.1L173.7 502.9L186.7 497L199.7 494.2L212.7 492.1L225.7 491.1L238.7 485.8L251.7 483.2L264.7 478.6L277.8 472.9L290.8 471.3L303.8 470.1L316.8 471.1L329.8 468.3L342.8 464.2L355.8 458.7L368.8 452.4L381.9 448.3L394.9 441.3L407.9 434.3L420.9 429.5L433.9 428.4L446.9 422.6L459.9 416.6L472.9 408.1L485.9 400.9L499 397.5L512 389.8L525 389.4L538 389.4L551 384.1L564 380L577 373.1L590 358L603 327.2L616.1 292.5L629.1 259.3L642.1 233.6L655.1 209L668.1 203.6L681.1 188.4L694.1 168.6L707.1 139.9L720.1 132.3L733.2 121.9L746.2 121L759.2 122.2L772.2 123.7" stroke="rgb(198, 90, 38)" stroke-opacity="0.7" stroke-width="0.5" fill="none" class="China_0-border"></path><path stroke-linecap="round" d="M108.6 514.2L121.6 512.3L134.6 514.6L147.6 514.5L160.7 509.8L173.7 502.5L186.7 496.4L199.7 493.4L212.7 491.2L225.7 490L238.7 484.4L251.7 481.6L264.7 476.7L277.8 470.7L290.8 469L303.8 467.8L316.8 469.1L329.8 466.4L342.8 462.3L355.8 456.8L368.8 450.3L381.9 446.2L394.9 439.1L407.9 432.1L420.9 427.2L433.9 426.1L446.9 420.2L459.9 414.1L472.9 405.5L485.9 398.2L499 394.8L512 386.9L525 386.4L538 386.3L551 380.8L564 376.2L577 368.9L590 353.5L603 321.9L616.1 286.4L629.1 252.1L642.1 224.7L655.1 198.1L668.1 191L681.1 174.5L694.1 151.9L707.1 119.3L720.1 109.6L733.2 96L746.2 92.7L759.2 92.9L772.2 92.1" stroke="rgb(35, 123, 130)" stroke-opacity="0.7" stroke-width="0.5" fill="none" class="China_1-border"></path></g></g></g><g style="fill: #777;" class="SourcesFooter"><g style="fill: #777;" class="clickable"><text font-size="12.60" x="15.0" y="581.6"><tspan x="15" y="581.58">Source: BP Statistical Review of Global Energy</tspan></text></g><text font-size="12.60" x="582.4" y="581.6"><tspan x="582.37" y="581.58"><a target='_blank' style='fill: #777;' href='https://ourworldindata.org/fossil-fuels/'>OurWorldInData.org/fossil-fuels/</a> • <a style="fill: #777;" href="http://creativecommons.org/licenses/by-sa/4.0/deed.en_US" target="_blank">CC BY-SA</a></tspan></text></g></g></svg>