<svg xmlns="http://www.w3.org/2000/svg" version="1.1" style="font-family: 'Helvetica Neue', Helvetica, Arial, sans-serif; font-size: 18px; background-color: white; text-rendering: optimizeLegibility; -webkit-font-smoothing: antialiased;" width="850" height="600"><g class="ChartTab"><g class="HeaderView"><g opacity="0.8" transform="translate(770, 15) scale(0.31)"><a xmlns:xlink="http://www.w3.org/1999/xlink" xlink:href="https://ourworldindata.org" target="_blank"><g><rect x="0" y="0" fill="#1B2543" width="211.2" height="130.1"/><rect x="0" y="112.2" fill="#E63912" width="211.2" height="17.9"/><g><rect x="1.2" y="12.3" fill="none" width="210.2" height="99.2"/><path fill="#FFFFFF" d="M37.8,32.2c0,12.7-7.7,19.4-17.1,19.4c-9.7,0-16.6-7.5-16.6-18.7c0-11.7,7.3-19.3,17.1-19.3 C31.3,13.7,37.8,21.3,37.8,32.2z M9.2,32.8c0,7.9,4.3,14.9,11.8,14.9c7.5,0,11.8-6.9,11.8-15.3c0-7.3-3.8-14.9-11.8-14.9 C13.1,17.5,9.2,24.8,9.2,32.8z"/><path fill="#FFFFFF" d="M62.7,43.8c0,2.7,0.1,5.1,0.2,7.2h-4.3l-0.3-4.3h-0.1c-1.3,2.1-4,4.9-8.8,4.9c-4.2,0-9.1-2.3-9.1-11.6 V24.6h4.8v14.6c0,5,1.5,8.4,5.9,8.4c3.2,0,5.5-2.2,6.3-4.4c0.3-0.7,0.4-1.6,0.4-2.5V24.6h4.8V43.8z"/><path fill="#FFFFFF" d="M67.3,32.8c0-3.1-0.1-5.8-0.2-8.2h4.2l0.2,5.2h0.2c1.2-3.5,4.1-5.8,7.3-5.8c0.5,0,0.9,0.1,1.4,0.2v4.5 c-0.5-0.1-1-0.2-1.6-0.2c-3.4,0-5.8,2.6-6.5,6.2c-0.1,0.7-0.2,1.4-0.2,2.2V51h-4.8V32.8z"/><path fill="#FFFFFF" d="M95.4,51l-9.4-36.8h5l4.4,18.6c1.1,4.6,2.1,9.2,2.7,12.7h0.1c0.6-3.7,1.8-8,3-12.8l4.9-18.5h5l4.5,18.7 c1,4.4,2,8.7,2.6,12.6h0.1c0.8-4,1.8-8.1,3-12.7l4.9-18.5h4.9L120.6,51h-5L111,31.9c-1.1-4.7-1.9-8.3-2.4-12h-0.1 c-0.7,3.7-1.5,7.3-2.8,12L100.4,51H95.4z"/><path fill="#FFFFFF" d="M154.9,37.6c0,9.8-6.8,14-13.2,14c-7.2,0-12.7-5.2-12.7-13.6c0-8.8,5.8-14,13.1-14 C149.8,24,154.9,29.5,154.9,37.6z M133.9,37.9c0,5.8,3.3,10.1,8,10.1c4.6,0,8-4.3,8-10.3c0-4.5-2.2-10.1-7.9-10.1 C136.3,27.6,133.9,32.8,133.9,37.9z"/><path fill="#FFFFFF" d="M158.2,32.8c0-3.1-0.1-5.8-0.2-8.2h4.2l0.2,5.2h0.2c1.2-3.5,4.1-5.8,7.3-5.8c0.5,0,0.9,0.1,1.4,0.2v4.5 c-0.5-0.1-1-0.2-1.6-0.2c-3.4,0-5.8,2.6-6.5,6.2c-0.1,0.7-0.2,1.4-0.2,2.2V51h-4.8V32.8z"/><path fill="#FFFFFF" d="M173.5,12.3h4.8V51h-4.8V12.3z"/><path fill="#FFFFFF" d="M206.5,12.3v31.9c0,2.3,0.1,5,0.2,6.8h-4.3l-0.2-4.6H202c-1.5,2.9-4.7,5.2-9,5.2 c-6.4,0-11.3-5.4-11.3-13.4c-0.1-8.8,5.4-14.2,11.9-14.2c4,0,6.8,1.9,8,4h0.1V12.3H206.5z M201.7,35.4c0-0.6-0.1-1.4-0.2-2 c-0.7-3.1-3.3-5.6-6.9-5.6c-5,0-7.9,4.4-7.9,10.2c0,5.3,2.6,9.8,7.8,9.8c3.2,0,6.2-2.1,7.1-5.7c0.2-0.7,0.2-1.3,0.2-2.1V35.4z"/><path fill="#FFFFFF" d="M42.8,64c0.1,1.6-1.1,2.9-3.1,2.9c-1.7,0-2.9-1.3-2.9-2.9c0-1.7,1.3-3,3-3C41.7,61,42.8,62.3,42.8,64z M37.4,97.8V71.4h4.8v26.4H37.4z"/><path fill="#FFFFFF" d="M47.5,78.6c0-2.7-0.1-5-0.2-7.1h4.3l0.3,4.4h0.1c1.3-2.5,4.4-5,8.8-5c3.7,0,9.4,2.2,9.4,11.2v15.8h-4.8 V82.6c0-4.3-1.6-7.8-6.1-7.8c-3.2,0-5.6,2.2-6.5,4.9c-0.2,0.6-0.3,1.4-0.3,2.2v15.9h-4.8V78.6z"/><path fill="#FFFFFF" d="M84,61.6c2.9-0.4,6.3-0.8,10.1-0.8c6.8,0,11.7,1.6,14.9,4.6c3.3,3,5.2,7.3,5.2,13.2c0,6-1.9,10.9-5.3,14.3 c-3.4,3.4-9.1,5.3-16.3,5.3c-3.4,0-6.2-0.2-8.6-0.4V61.6z M88.8,94.1c1.2,0.2,3,0.3,4.8,0.3c10.2,0,15.7-5.7,15.7-15.6 c0.1-8.7-4.9-14.2-14.9-14.2c-2.5,0-4.3,0.2-5.6,0.5V94.1z"/><path fill="#FFFFFF" d="M132.1,97.8l-0.4-3.3h-0.2c-1.5,2.1-4.3,3.9-8.1,3.9c-5.4,0-8.1-3.8-8.1-7.6c0-6.4,5.7-9.9,15.9-9.8v-0.5 c0-2.2-0.6-6.1-6-6.1c-2.5,0-5,0.8-6.9,2l-1.1-3.2c2.2-1.4,5.4-2.3,8.7-2.3c8.1,0,10.1,5.5,10.1,10.8v9.9c0,2.3,0.1,4.5,0.4,6.3 H132.1z M131.4,84.4c-5.3-0.1-11.2,0.8-11.2,5.9c0,3.1,2.1,4.6,4.5,4.6c3.4,0,5.6-2.2,6.4-4.4c0.2-0.5,0.3-1,0.3-1.5V84.4z"/><path fill="#FFFFFF" d="M146.6,63.9v7.6h6.9v3.7h-6.9v14.2c0,3.3,0.9,5.1,3.6,5.1c1.3,0,2.2-0.2,2.8-0.3l0.2,3.6 c-0.9,0.4-2.4,0.7-4.3,0.7c-2.2,0-4-0.7-5.2-2c-1.4-1.4-1.9-3.8-1.9-6.9V75.1h-4.1v-3.7h4.1v-6.3L146.6,63.9z"/><path fill="#FFFFFF" d="M171.4,97.8l-0.4-3.3h-0.2c-1.5,2.1-4.3,3.9-8.1,3.9c-5.4,0-8.1-3.8-8.1-7.6c0-6.4,5.7-9.9,15.9-9.8v-0.5 c0-2.2-0.6-6.1-6-6.1c-2.5,0-5,0.8-6.9,2l-1.1-3.2c2.2-1.4,5.4-2.3,8.7-2.3c8.1,0,10.1,5.5,10.1,10.8v9.9c0,2.3,0.1,4.5,0.4,6.3 H171.4z M170.7,84.4c-5.3-0.1-11.2,0.8-11.2,5.9c0,3.1,2.1,4.6,4.5,4.6c3.4,0,5.6-2.2,6.4-4.4c0.2-0.5,0.3-1,0.3-1.5V84.4z"/></g></g></a></g><a href="https://ourworldindata.org/grapher/fruit-consumption-per-capita-kilograms-per-year" target="_blank"><text font-size="27.00" x="15.0" y="36.6" fill="#555"><tspan x="15" y="36.6">Fruit consumption per capita, kilograms per year</tspan></text></a><text font-size="14.40" x="15.0" y="55.5" fill="#666"><tspan x="15" y="55.519999999999996">Average fruit consumption per person, measured in kilograms per year. Data is based on per capita food supply at</tspan><tspan x="15" y="71.36">the consumer level, but does not account for food waste at the consumer level.</tspan></text></g><g class="LineChart"><defs><clipPath id="boundsClip-65"><rect x="58.92400000000001" y="0" width="830" height="925.2"></rect></clipPath></defs><g class="AxisBoxView"><g class="HorizontalAxis"><text x="68.9" y="556.5" fill="#666" text-anchor="middle" font-size="16.2">1961</text><text x="182.2" y="556.5" fill="#666" text-anchor="middle" font-size="16.2">1970</text><text x="308" y="556.5" fill="#666" text-anchor="middle" font-size="16.2">1980</text><text x="433.8" y="556.5" fill="#666" text-anchor="middle" font-size="16.2">1990</text><text x="559.6" y="556.5" fill="#666" text-anchor="middle" font-size="16.2">2000</text><text x="723.2" y="556.5" fill="#666" text-anchor="middle" font-size="16.2">2013</text></g><g class="VerticalAxis"><text x="63.92" y="535.3" fill="#666" dominant-baseline="middle" text-anchor="end" font-size="16.2">0 kg</text><text x="63.92" y="474.6" fill="#666" dominant-baseline="middle" text-anchor="end" font-size="16.2">20 kg</text><text x="63.92" y="414" fill="#666" dominant-baseline="middle" text-anchor="end" font-size="16.2">40 kg</text><text x="63.92" y="353.3" fill="#666" dominant-baseline="middle" text-anchor="end" font-size="16.2">60 kg</text><text x="63.92" y="292.7" fill="#666" dominant-baseline="middle" text-anchor="end" font-size="16.2">80 kg</text><text x="63.92" y="232" fill="#666" dominant-baseline="middle" text-anchor="end" font-size="16.2">100 kg</text><text x="63.92" y="171.3" fill="#666" dominant-baseline="middle" text-anchor="end" font-size="16.2">120 kg</text><text x="63.92" y="110.7" fill="#666" dominant-baseline="middle" text-anchor="end" font-size="16.2">140 kg</text></g><g class="AxisGridLines"><line x1="68.92" y1="535.3" x2="723.17" y2="535.3" stroke="#ccc"></line><line x1="68.92" y1="474.6" x2="723.17" y2="474.6" stroke="#ddd" stroke-dasharray="3,2"></line><line x1="68.92" y1="414" x2="723.17" y2="414" stroke="#ddd" stroke-dasharray="3,2"></line><line x1="68.92" y1="353.3" x2="723.17" y2="353.3" stroke="#ddd" stroke-dasharray="3,2"></line><line x1="68.92" y1="292.7" x2="723.17" y2="292.7" stroke="#ddd" stroke-dasharray="3,2"></line><line x1="68.92" y1="232" x2="723.17" y2="232" stroke="#ddd" stroke-dasharray="3,2"></line><line x1="68.92" y1="171.3" x2="723.17" y2="171.3" stroke="#ddd" stroke-dasharray="3,2"></line><line x1="68.92" y1="110.7" x2="723.17" y2="110.7" stroke="#ddd" stroke-dasharray="3,2"></line></g><g class="AxisGridLines"><line x1="182.2" y1="535.30" x2="182.2" y2="93.90" stroke="#ddd" stroke-dasharray="3,2"></line><line x1="308" y1="535.30" x2="308" y2="93.90" stroke="#ddd" stroke-dasharray="3,2"></line><line x1="433.8" y1="535.30" x2="433.8" y2="93.90" stroke="#ddd" stroke-dasharray="3,2"></line><line x1="559.6" y1="535.30" x2="559.6" y2="93.90" stroke="#ddd" stroke-dasharray="3,2"></line><line x1="685.4" y1="535.30" x2="685.4" y2="93.90" stroke="#ddd" stroke-dasharray="3,2"></line></g></g><g clip-path="url(#boundsClip-65)"><g class="HeightedLegend clickable"><g class="legendMark"><rect x="733.168" y="86.7" width="75.912" height="14.4" fill="#fff" opacity="0"></rect><rect x="733.168" y="92.65" width="10" height="2.5" fill="#f6a324"></rect><text font-size="14.40" x="748.2" y="98.2" fill="#333"><tspan x="748.168" y="98.22000000000001">Colombia</tspan></text></g><g class="legendMark"><rect x="733.168" y="211.10000000000002" width="101.83200000000001" height="14.4" fill="#fff" opacity="0"></rect><rect x="733.168" y="217.05" width="10" height="2.5" fill="#34983f"></rect><text font-size="14.40" x="748.2" y="222.6" fill="#333"><tspan x="748.168" y="222.62000000000003">United States</tspan></text></g><g class="legendMark"><rect x="733.168" y="242.4" width="52.728" height="14.4" fill="#fff" opacity="0"></rect><rect x="733.168" y="248.35" width="10" height="2.5" fill="#ca2628"></rect><text font-size="14.40" x="748.2" y="253.9" fill="#333"><tspan x="748.168" y="253.92000000000002">China</tspan></text></g><g class="legendMark"><rect x="733.168" y="291.90000000000003" width="52.584" height="14.4" fill="#fff" opacity="0"></rect><rect x="733.168" y="297.85" width="10" height="2.5" fill="#3360a9"></rect><text font-size="14.40" x="748.2" y="303.4" fill="#333"><tspan x="748.168" y="303.42">World</tspan></text></g></g><g class="Lines"><rect x="69" y="94" width="654" height="441" fill="rgba(255,255,255,0)" opacity="0"></rect><g class="key-Colombia_0"><path stroke="#f6a324" stroke-linecap="round" d="M69 257L82 258L94 264L107 263L119 267L132 269L144 251L157 268L170 256L182 247L195 266L207 262L220 249L233 260L245 246L258 251L270 257L283 248L295 246L308 246L321 251L333 291L346 271L358 297L371 293L384 283L396 267L409 264L421 248L434 296L446 278L459 212L472 232L484 244L497 208L509 250L522 238L534 276L547 204L560 176L572 170L585 165L597 172L610 165L623 169L635 127L648 129L660 133L673 163L685 142L698 162L711 136L723 94" fill="none" stroke-width="1.5"></path><g fill="#f6a324"><circle cx="69" cy="257" r="2"></circle><circle cx="82" cy="258" r="2"></circle><circle cx="94" cy="264" r="2"></circle><circle cx="107" cy="263" r="2"></circle><circle cx="119" cy="267" r="2"></circle><circle cx="132" cy="269" r="2"></circle><circle cx="144" cy="251" r="2"></circle><circle cx="157" cy="268" r="2"></circle><circle cx="170" cy="256" r="2"></circle><circle cx="182" cy="247" r="2"></circle><circle cx="195" cy="266" r="2"></circle><circle cx="207" cy="262" r="2"></circle><circle cx="220" cy="249" r="2"></circle><circle cx="233" cy="260" r="2"></circle><circle cx="245" cy="246" r="2"></circle><circle cx="258" cy="251" r="2"></circle><circle cx="270" cy="257" r="2"></circle><circle cx="283" cy="248" r="2"></circle><circle cx="295" cy="246" r="2"></circle><circle cx="308" cy="246" r="2"></circle><circle cx="321" cy="251" r="2"></circle><circle cx="333" cy="291" r="2"></circle><circle cx="346" cy="271" r="2"></circle><circle cx="358" cy="297" r="2"></circle><circle cx="371" cy="293" r="2"></circle><circle cx="384" cy="283" r="2"></circle><circle cx="396" cy="267" r="2"></circle><circle cx="409" cy="264" r="2"></circle><circle cx="421" cy="248" r="2"></circle><circle cx="434" cy="296" r="2"></circle><circle cx="446" cy="278" r="2"></circle><circle cx="459" cy="212" r="2"></circle><circle cx="472" cy="232" r="2"></circle><circle cx="484" cy="244" r="2"></circle><circle cx="497" cy="208" r="2"></circle><circle cx="509" cy="250" r="2"></circle><circle cx="522" cy="238" r="2"></circle><circle cx="534" cy="276" r="2"></circle><circle cx="547" cy="204" r="2"></circle><circle cx="560" cy="176" r="2"></circle><circle cx="572" cy="170" r="2"></circle><circle cx="585" cy="165" r="2"></circle><circle cx="597" cy="172" r="2"></circle><circle cx="610" cy="165" r="2"></circle><circle cx="623" cy="169" r="2"></circle><circle cx="635" cy="127" r="2"></circle><circle cx="648" cy="129" r="2"></circle><circle cx="660" cy="133" r="2"></circle><circle cx="673" cy="163" r="2"></circle><circle cx="685" cy="142" r="2"></circle><circle cx="698" cy="162" r="2"></circle><circle cx="711" cy="136" r="2"></circle><circle cx="723" cy="94" r="2"></circle></g></g><g class="key-China_0"><path stroke="#ca2628" stroke-linecap="round" d="M69 522L82 523L94 522L107 522L119 521L132 521L144 520L157 519L170 520L182 520L195 520L207 519L220 516L233 516L245 516L258 516L270 516L283 514L295 513L308 513L321 511L333 512L346 507L358 506L371 502L384 498L396 490L409 491L421 487L434 487L446 481L459 477L472 463L484 453L497 440L509 430L522 422L534 419L547 402L560 403L572 393L585 388L597 378L610 363L623 357L635 345L648 336L660 326L673 312L685 299L698 279L711 256L723 250" fill="none" stroke-width="1.5"></path><g fill="#ca2628"><circle cx="69" cy="522" r="2"></circle><circle cx="82" cy="523" r="2"></circle><circle cx="94" cy="522" r="2"></circle><circle cx="107" cy="522" r="2"></circle><circle cx="119" cy="521" r="2"></circle><circle cx="132" cy="521" r="2"></circle><circle cx="144" cy="520" r="2"></circle><circle cx="157" cy="519" r="2"></circle><circle cx="170" cy="520" r="2"></circle><circle cx="182" cy="520" r="2"></circle><circle cx="195" cy="520" r="2"></circle><circle cx="207" cy="519" r="2"></circle><circle cx="220" cy="516" r="2"></circle><circle cx="233" cy="516" r="2"></circle><circle cx="245" cy="516" r="2"></circle><circle cx="258" cy="516" r="2"></circle><circle cx="270" cy="516" r="2"></circle><circle cx="283" cy="514" r="2"></circle><circle cx="295" cy="513" r="2"></circle><circle cx="308" cy="513" r="2"></circle><circle cx="321" cy="511" r="2"></circle><circle cx="333" cy="512" r="2"></circle><circle cx="346" cy="507" r="2"></circle><circle cx="358" cy="506" r="2"></circle><circle cx="371" cy="502" r="2"></circle><circle cx="384" cy="498" r="2"></circle><circle cx="396" cy="490" r="2"></circle><circle cx="409" cy="491" r="2"></circle><circle cx="421" cy="487" r="2"></circle><circle cx="434" cy="487" r="2"></circle><circle cx="446" cy="481" r="2"></circle><circle cx="459" cy="477" r="2"></circle><circle cx="472" cy="463" r="2"></circle><circle cx="484" cy="453" r="2"></circle><circle cx="497" cy="440" r="2"></circle><circle cx="509" cy="430" r="2"></circle><circle cx="522" cy="422" r="2"></circle><circle cx="534" cy="419" r="2"></circle><circle cx="547" cy="402" r="2"></circle><circle cx="560" cy="403" r="2"></circle><circle cx="572" cy="393" r="2"></circle><circle cx="585" cy="388" r="2"></circle><circle cx="597" cy="378" r="2"></circle><circle cx="610" cy="363" r="2"></circle><circle cx="623" cy="357" r="2"></circle><circle cx="635" cy="345" r="2"></circle><circle cx="648" cy="336" r="2"></circle><circle cx="660" cy="326" r="2"></circle><circle cx="673" cy="312" r="2"></circle><circle cx="685" cy="299" r="2"></circle><circle cx="698" cy="279" r="2"></circle><circle cx="711" cy="256" r="2"></circle><circle cx="723" cy="250" r="2"></circle></g></g><g class="key-United-States_0"><path stroke="#34983f" stroke-linecap="round" d="M69 303L82 297L94 322L107 315L119 304L132 291L144 280L157 301L170 259L182 267L195 252L207 271L220 240L233 247L245 229L258 236L270 223L283 226L295 221L308 200L321 212L333 227L346 197L358 183L371 204L384 168L396 145L409 177L421 178L434 176L446 215L459 205L472 178L484 171L497 198L509 194L522 171L534 174L547 196L560 155L572 194L585 201L597 188L610 183L623 202L635 206L648 202L660 186L673 204L685 222L698 239L711 222L723 218" fill="none" stroke-width="1.5"></path><g fill="#34983f"><circle cx="69" cy="303" r="2"></circle><circle cx="82" cy="297" r="2"></circle><circle cx="94" cy="322" r="2"></circle><circle cx="107" cy="315" r="2"></circle><circle cx="119" cy="304" r="2"></circle><circle cx="132" cy="291" r="2"></circle><circle cx="144" cy="280" r="2"></circle><circle cx="157" cy="301" r="2"></circle><circle cx="170" cy="259" r="2"></circle><circle cx="182" cy="267" r="2"></circle><circle cx="195" cy="252" r="2"></circle><circle cx="207" cy="271" r="2"></circle><circle cx="220" cy="240" r="2"></circle><circle cx="233" cy="247" r="2"></circle><circle cx="245" cy="229" r="2"></circle><circle cx="258" cy="236" r="2"></circle><circle cx="270" cy="223" r="2"></circle><circle cx="283" cy="226" r="2"></circle><circle cx="295" cy="221" r="2"></circle><circle cx="308" cy="200" r="2"></circle><circle cx="321" cy="212" r="2"></circle><circle cx="333" cy="227" r="2"></circle><circle cx="346" cy="197" r="2"></circle><circle cx="358" cy="183" r="2"></circle><circle cx="371" cy="204" r="2"></circle><circle cx="384" cy="168" r="2"></circle><circle cx="396" cy="145" r="2"></circle><circle cx="409" cy="177" r="2"></circle><circle cx="421" cy="178" r="2"></circle><circle cx="434" cy="176" r="2"></circle><circle cx="446" cy="215" r="2"></circle><circle cx="459" cy="205" r="2"></circle><circle cx="472" cy="178" r="2"></circle><circle cx="484" cy="171" r="2"></circle><circle cx="497" cy="198" r="2"></circle><circle cx="509" cy="194" r="2"></circle><circle cx="522" cy="171" r="2"></circle><circle cx="534" cy="174" r="2"></circle><circle cx="547" cy="196" r="2"></circle><circle cx="560" cy="155" r="2"></circle><circle cx="572" cy="194" r="2"></circle><circle cx="585" cy="201" r="2"></circle><circle cx="597" cy="188" r="2"></circle><circle cx="610" cy="183" r="2"></circle><circle cx="623" cy="202" r="2"></circle><circle cx="635" cy="206" r="2"></circle><circle cx="648" cy="202" r="2"></circle><circle cx="660" cy="186" r="2"></circle><circle cx="673" cy="204" r="2"></circle><circle cx="685" cy="222" r="2"></circle><circle cx="698" cy="239" r="2"></circle><circle cx="711" cy="222" r="2"></circle><circle cx="723" cy="218" r="2"></circle></g></g><g class="key-World_0"><path stroke="#3360a9" stroke-linecap="round" d="M69 421L82 418L94 418L107 415L119 413L132 410L144 406L157 405L170 404L182 403L195 402L207 404L220 401L233 402L245 401L258 399L270 400L283 399L295 395L308 393L321 396L333 392L346 391L358 391L371 389L384 385L396 383L409 384L421 382L434 385L446 386L459 377L472 375L484 372L497 368L509 362L522 357L534 360L547 353L560 350L572 352L585 346L597 343L610 336L623 332L635 325L648 321L660 316L673 314L685 312L698 306L711 302L723 299" fill="none" stroke-width="1.5"></path><g fill="#3360a9"><circle cx="69" cy="421" r="2"></circle><circle cx="82" cy="418" r="2"></circle><circle cx="94" cy="418" r="2"></circle><circle cx="107" cy="415" r="2"></circle><circle cx="119" cy="413" r="2"></circle><circle cx="132" cy="410" r="2"></circle><circle cx="144" cy="406" r="2"></circle><circle cx="157" cy="405" r="2"></circle><circle cx="170" cy="404" r="2"></circle><circle cx="182" cy="403" r="2"></circle><circle cx="195" cy="402" r="2"></circle><circle cx="207" cy="404" r="2"></circle><circle cx="220" cy="401" r="2"></circle><circle cx="233" cy="402" r="2"></circle><circle cx="245" cy="401" r="2"></circle><circle cx="258" cy="399" r="2"></circle><circle cx="270" cy="400" r="2"></circle><circle cx="283" cy="399" r="2"></circle><circle cx="295" cy="395" r="2"></circle><circle cx="308" cy="393" r="2"></circle><circle cx="321" cy="396" r="2"></circle><circle cx="333" cy="392" r="2"></circle><circle cx="346" cy="391" r="2"></circle><circle cx="358" cy="391" r="2"></circle><circle cx="371" cy="389" r="2"></circle><circle cx="384" cy="385" r="2"></circle><circle cx="396" cy="383" r="2"></circle><circle cx="409" cy="384" r="2"></circle><circle cx="421" cy="382" r="2"></circle><circle cx="434" cy="385" r="2"></circle><circle cx="446" cy="386" r="2"></circle><circle cx="459" cy="377" r="2"></circle><circle cx="472" cy="375" r="2"></circle><circle cx="484" cy="372" r="2"></circle><circle cx="497" cy="368" r="2"></circle><circle cx="509" cy="362" r="2"></circle><circle cx="522" cy="357" r="2"></circle><circle cx="534" cy="360" r="2"></circle><circle cx="547" cy="353" r="2"></circle><circle cx="560" cy="350" r="2"></circle><circle cx="572" cy="352" r="2"></circle><circle cx="585" cy="346" r="2"></circle><circle cx="597" cy="343" r="2"></circle><circle cx="610" cy="336" r="2"></circle><circle cx="623" cy="332" r="2"></circle><circle cx="635" cy="325" r="2"></circle><circle cx="648" cy="321" r="2"></circle><circle cx="660" cy="316" r="2"></circle><circle cx="673" cy="314" r="2"></circle><circle cx="685" cy="312" r="2"></circle><circle cx="698" cy="306" r="2"></circle><circle cx="711" cy="302" r="2"></circle><circle cx="723" cy="299" r="2"></circle></g></g></g></g></g><g style="fill: #777;" class="SourcesFooter"><g style="fill: #777;" class="clickable"><text font-size="12.60" x="15.0" y="581.6"><tspan x="15" y="581.58">Source: FAOstat</tspan></text></g><text font-size="12.60" x="543.7" y="581.6"><tspan x="543.688" y="581.58"><a target='_blank' style='fill: #777;' href='https://ourworldindata.org/diet-compositions/'>OurWorldInData.org/diet-compositions/</a> • <a style="fill: #777;" href="http://creativecommons.org/licenses/by-sa/4.0/deed.en_US" target="_blank">CC BY-SA</a></tspan></text></g></g></svg>