<svg xmlns="http://www.w3.org/2000/svg" version="1.1" style="font-family: 'Helvetica Neue', Helvetica, Arial, sans-serif; font-size: 18px; background-color: white; text-rendering: optimizeLegibility; -webkit-font-smoothing: antialiased;" width="850" height="600"><g class="ChartTab"><g class="HeaderView"><g opacity="0.8" transform="translate(778, 15) scale(0.27)"><a xmlns:xlink="http://www.w3.org/1999/xlink" xlink:href="https://ourworldindata.org" target="_blank"><g><rect x="0" y="0" fill="#1B2543" width="211.2" height="130.1"/><rect x="0" y="112.2" fill="#E63912" width="211.2" height="17.9"/><g><rect x="1.2" y="12.3" fill="none" width="210.2" height="99.2"/><path fill="#FFFFFF" d="M37.8,32.2c0,12.7-7.7,19.4-17.1,19.4c-9.7,0-16.6-7.5-16.6-18.7c0-11.7,7.3-19.3,17.1-19.3 C31.3,13.7,37.8,21.3,37.8,32.2z M9.2,32.8c0,7.9,4.3,14.9,11.8,14.9c7.5,0,11.8-6.9,11.8-15.3c0-7.3-3.8-14.9-11.8-14.9 C13.1,17.5,9.2,24.8,9.2,32.8z"/><path fill="#FFFFFF" d="M62.7,43.8c0,2.7,0.1,5.1,0.2,7.2h-4.3l-0.3-4.3h-0.1c-1.3,2.1-4,4.9-8.8,4.9c-4.2,0-9.1-2.3-9.1-11.6 V24.6h4.8v14.6c0,5,1.5,8.4,5.9,8.4c3.2,0,5.5-2.2,6.3-4.4c0.3-0.7,0.4-1.6,0.4-2.5V24.6h4.8V43.8z"/><path fill="#FFFFFF" d="M67.3,32.8c0-3.1-0.1-5.8-0.2-8.2h4.2l0.2,5.2h0.2c1.2-3.5,4.1-5.8,7.3-5.8c0.5,0,0.9,0.1,1.4,0.2v4.5 c-0.5-0.1-1-0.2-1.6-0.2c-3.4,0-5.8,2.6-6.5,6.2c-0.1,0.7-0.2,1.4-0.2,2.2V51h-4.8V32.8z"/><path fill="#FFFFFF" d="M95.4,51l-9.4-36.8h5l4.4,18.6c1.1,4.6,2.1,9.2,2.7,12.7h0.1c0.6-3.7,1.8-8,3-12.8l4.9-18.5h5l4.5,18.7 c1,4.4,2,8.7,2.6,12.6h0.1c0.8-4,1.8-8.1,3-12.7l4.9-18.5h4.9L120.6,51h-5L111,31.9c-1.1-4.7-1.9-8.3-2.4-12h-0.1 c-0.7,3.7-1.5,7.3-2.8,12L100.4,51H95.4z"/><path fill="#FFFFFF" d="M154.9,37.6c0,9.8-6.8,14-13.2,14c-7.2,0-12.7-5.2-12.7-13.6c0-8.8,5.8-14,13.1-14 C149.8,24,154.9,29.5,154.9,37.6z M133.9,37.9c0,5.8,3.3,10.1,8,10.1c4.6,0,8-4.3,8-10.3c0-4.5-2.2-10.1-7.9-10.1 C136.3,27.6,133.9,32.8,133.9,37.9z"/><path fill="#FFFFFF" d="M158.2,32.8c0-3.1-0.1-5.8-0.2-8.2h4.2l0.2,5.2h0.2c1.2-3.5,4.1-5.8,7.3-5.8c0.5,0,0.9,0.1,1.4,0.2v4.5 c-0.5-0.1-1-0.2-1.6-0.2c-3.4,0-5.8,2.6-6.5,6.2c-0.1,0.7-0.2,1.4-0.2,2.2V51h-4.8V32.8z"/><path fill="#FFFFFF" d="M173.5,12.3h4.8V51h-4.8V12.3z"/><path fill="#FFFFFF" d="M206.5,12.3v31.9c0,2.3,0.1,5,0.2,6.8h-4.3l-0.2-4.6H202c-1.5,2.9-4.7,5.2-9,5.2 c-6.4,0-11.3-5.4-11.3-13.4c-0.1-8.8,5.4-14.2,11.9-14.2c4,0,6.8,1.9,8,4h0.1V12.3H206.5z M201.7,35.4c0-0.6-0.1-1.4-0.2-2 c-0.7-3.1-3.3-5.6-6.9-5.6c-5,0-7.9,4.4-7.9,10.2c0,5.3,2.6,9.8,7.8,9.8c3.2,0,6.2-2.1,7.1-5.7c0.2-0.7,0.2-1.3,0.2-2.1V35.4z"/><path fill="#FFFFFF" d="M42.8,64c0.1,1.6-1.1,2.9-3.1,2.9c-1.7,0-2.9-1.3-2.9-2.9c0-1.7,1.3-3,3-3C41.7,61,42.8,62.3,42.8,64z M37.4,97.8V71.4h4.8v26.4H37.4z"/><path fill="#FFFFFF" d="M47.5,78.6c0-2.7-0.1-5-0.2-7.1h4.3l0.3,4.4h0.1c1.3-2.5,4.4-5,8.8-5c3.7,0,9.4,2.2,9.4,11.2v15.8h-4.8 V82.6c0-4.3-1.6-7.8-6.1-7.8c-3.2,0-5.6,2.2-6.5,4.9c-0.2,0.6-0.3,1.4-0.3,2.2v15.9h-4.8V78.6z"/><path fill="#FFFFFF" d="M84,61.6c2.9-0.4,6.3-0.8,10.1-0.8c6.8,0,11.7,1.6,14.9,4.6c3.3,3,5.2,7.3,5.2,13.2c0,6-1.9,10.9-5.3,14.3 c-3.4,3.4-9.1,5.3-16.3,5.3c-3.4,0-6.2-0.2-8.6-0.4V61.6z M88.8,94.1c1.2,0.2,3,0.3,4.8,0.3c10.2,0,15.7-5.7,15.7-15.6 c0.1-8.7-4.9-14.2-14.9-14.2c-2.5,0-4.3,0.2-5.6,0.5V94.1z"/><path fill="#FFFFFF" d="M132.1,97.8l-0.4-3.3h-0.2c-1.5,2.1-4.3,3.9-8.1,3.9c-5.4,0-8.1-3.8-8.1-7.6c0-6.4,5.7-9.9,15.9-9.8v-0.5 c0-2.2-0.6-6.1-6-6.1c-2.5,0-5,0.8-6.9,2l-1.1-3.2c2.2-1.4,5.4-2.3,8.7-2.3c8.1,0,10.1,5.5,10.1,10.8v9.9c0,2.3,0.1,4.5,0.4,6.3 H132.1z M131.4,84.4c-5.3-0.1-11.2,0.8-11.2,5.9c0,3.1,2.1,4.6,4.5,4.6c3.4,0,5.6-2.2,6.4-4.4c0.2-0.5,0.3-1,0.3-1.5V84.4z"/><path fill="#FFFFFF" d="M146.6,63.9v7.6h6.9v3.7h-6.9v14.2c0,3.3,0.9,5.1,3.6,5.1c1.3,0,2.2-0.2,2.8-0.3l0.2,3.6 c-0.9,0.4-2.4,0.7-4.3,0.7c-2.2,0-4-0.7-5.2-2c-1.4-1.4-1.9-3.8-1.9-6.9V75.1h-4.1v-3.7h4.1v-6.3L146.6,63.9z"/><path fill="#FFFFFF" d="M171.4,97.8l-0.4-3.3h-0.2c-1.5,2.1-4.3,3.9-8.1,3.9c-5.4,0-8.1-3.8-8.1-7.6c0-6.4,5.7-9.9,15.9-9.8v-0.5 c0-2.2-0.6-6.1-6-6.1c-2.5,0-5,0.8-6.9,2l-1.1-3.2c2.2-1.4,5.4-2.3,8.7-2.3c8.1,0,10.1,5.5,10.1,10.8v9.9c0,2.3,0.1,4.5,0.4,6.3 H171.4z M170.7,84.4c-5.3-0.1-11.2,0.8-11.2,5.9c0,3.1,2.1,4.6,4.5,4.6c3.4,0,5.6-2.2,6.4-4.4c0.2-0.5,0.3-1,0.3-1.5V84.4z"/></g></g></a></g><a href="https://ourworldindata.org/grapher/gapminder-results-electricity" target="_blank"><text font-size="21.60" x="15.0" y="32.3" fill="#555"><tspan x="15" y="32.279999999999994">Share of public who know majority of global population have access to</tspan><tspan x="15" y="53.87999999999999">electricity</tspan></text></a><text font-size="14.40" x="15.0" y="72.7" fill="#666"><tspan x="15" y="72.72">12,000 people in 14 countries were asked: &quot;How many people in the world have some access to electricity?&quot;
A: 20 percent B: 50</tspan><tspan x="15" y="88.56">percent C: 80 percent. Answer C is correct. Results show the share of respondents who answered correctly.</tspan></text></g><g class="DiscreteBarChart"><rect x="15" y="111.1" width="810" height="445.4" opacity="0" fill="rgba(255,255,255,0)"></rect><g class="HorizontalAxis"><text x="124.2" y="556.5" fill="#666" text-anchor="middle" font-size="16.2">0%</text><text x="226.3" y="556.5" fill="#666" text-anchor="middle" font-size="16.2">5%</text><text x="328.4" y="556.5" fill="#666" text-anchor="middle" font-size="16.2">10%</text><text x="430.4" y="556.5" fill="#666" text-anchor="middle" font-size="16.2">15%</text><text x="532.5" y="556.5" fill="#666" text-anchor="middle" font-size="16.2">20%</text><text x="634.6" y="556.5" fill="#666" text-anchor="middle" font-size="16.2">25%</text><text x="736.6" y="556.5" fill="#666" text-anchor="middle" font-size="16.2">30%</text><text x="797.9" y="556.5" fill="#666" text-anchor="middle" font-size="16.2">33%</text></g><g class="AxisGridLines"><line x1="124.2" y1="535.30" x2="124.2" y2="111.10" stroke="#ccc"></line><line x1="226.3" y1="535.30" x2="226.3" y2="111.10" stroke="#ddd" stroke-dasharray="3,2"></line><line x1="328.4" y1="535.30" x2="328.4" y2="111.10" stroke="#ddd" stroke-dasharray="3,2"></line><line x1="430.4" y1="535.30" x2="430.4" y2="111.10" stroke="#ddd" stroke-dasharray="3,2"></line><line x1="532.5" y1="535.30" x2="532.5" y2="111.10" stroke="#ddd" stroke-dasharray="3,2"></line><line x1="634.6" y1="535.30" x2="634.6" y2="111.10" stroke="#ddd" stroke-dasharray="3,2"></line><line x1="736.6" y1="535.30" x2="736.6" y2="111.10" stroke="#ddd" stroke-dasharray="3,2"></line></g><g class="bar"><text x="119.242" y="122.41199999999999" fill="#666" dominant-baseline="middle" text-anchor="end" font-size="13.5">Random Guess</text><rect x="124.2" y="111.1" width="673.6999999999999" height="22.624000000000002" fill="#ffd53e" opacity="0.85"></rect><text x="802.9" y="122.41199999999999" fill="#666" dominant-baseline="middle" text-anchor="start" font-size="13.5">33%</text></g><g class="bar"><text x="119.242" y="150.69199999999998" fill="#666" dominant-baseline="middle" text-anchor="end" font-size="13.5">Norway</text><rect x="124.2" y="139.37999999999997" width="653.3" height="22.624000000000002" fill="rgb(3, 73, 115)" opacity="0.85"></rect><text x="782.5" y="150.69199999999998" fill="#666" dominant-baseline="middle" text-anchor="start" font-size="13.5">32%</text></g><g class="bar"><text x="119.242" y="178.97199999999998" fill="#666" dominant-baseline="middle" text-anchor="end" font-size="13.5">Sweden</text><rect x="124.2" y="167.65999999999997" width="632.8" height="22.624000000000002" fill="#045a8d" opacity="0.85"></rect><text x="762" y="178.97199999999998" fill="#666" dominant-baseline="middle" text-anchor="start" font-size="13.5">31%</text></g><g class="bar"><text x="119.242" y="207.25199999999998" fill="#666" dominant-baseline="middle" text-anchor="end" font-size="13.5">United States</text><rect x="124.2" y="195.93999999999997" width="551.1999999999999" height="22.624000000000002" fill="rgb(5, 101, 159)" opacity="0.85"></rect><text x="680.4" y="207.25199999999998" fill="#666" dominant-baseline="middle" text-anchor="start" font-size="13.5">27%</text></g><g class="bar"><text x="119.242" y="235.53199999999998" fill="#666" dominant-baseline="middle" text-anchor="end" font-size="13.5">United Kingdom</text><rect x="124.2" y="224.21999999999997" width="469.50000000000006" height="22.624000000000002" fill="#0570b0" opacity="0.85"></rect><text x="598.7" y="235.53199999999998" fill="#666" dominant-baseline="middle" text-anchor="start" font-size="13.5">23%</text></g><g class="bar"><text x="119.242" y="263.81199999999995" fill="#666" dominant-baseline="middle" text-anchor="end" font-size="13.5">South Korea</text><rect x="124.2" y="252.49999999999994" width="449.09999999999997" height="22.624000000000002" fill="rgb(85, 157, 200)" opacity="0.85"></rect><text x="578.3" y="263.81199999999995" fill="#666" dominant-baseline="middle" text-anchor="start" font-size="13.5">22%</text></g><g class="bar"><text x="119.242" y="292.0919999999999" fill="#666" dominant-baseline="middle" text-anchor="end" font-size="13.5">Germany</text><rect x="124.2" y="280.7799999999999" width="449.09999999999997" height="22.624000000000002" fill="#3690c0" opacity="0.85"></rect><text x="578.3" y="292.0919999999999" fill="#666" dominant-baseline="middle" text-anchor="start" font-size="13.5">22%</text></g><g class="bar"><text x="119.242" y="320.3719999999999" fill="#666" dominant-baseline="middle" text-anchor="end" font-size="13.5">Hungary</text><rect x="124.2" y="309.0599999999999" width="449.09999999999997" height="22.624000000000002" fill="rgb(30, 128, 184)" opacity="0.85"></rect><text x="578.3" y="320.3719999999999" fill="#666" dominant-baseline="middle" text-anchor="start" font-size="13.5">22%</text></g><g class="bar"><text x="119.242" y="348.6519999999999" fill="#666" dominant-baseline="middle" text-anchor="end" font-size="13.5">Finland</text><rect x="124.2" y="337.33999999999986" width="408.3" height="22.624000000000002" fill="rgb(141, 179, 213)" opacity="0.85"></rect><text x="537.5" y="348.6519999999999" fill="#666" dominant-baseline="middle" text-anchor="start" font-size="13.5">20%</text></g><g class="bar"><text x="119.242" y="376.93199999999985" fill="#666" dominant-baseline="middle" text-anchor="end" font-size="13.5">France</text><rect x="124.2" y="365.61999999999983" width="408.3" height="22.624000000000002" fill="#74a9cf" opacity="0.85"></rect><text x="537.5" y="376.93199999999985" fill="#666" dominant-baseline="middle" text-anchor="start" font-size="13.5">20%</text></g><g class="bar"><text x="119.242" y="405.2119999999998" fill="#666" dominant-baseline="middle" text-anchor="end" font-size="13.5">Australia</text><rect x="124.2" y="393.8999999999998" width="387.90000000000003" height="22.624000000000002" fill="rgb(187, 199, 225)" opacity="0.85"></rect><text x="517.1" y="405.2119999999998" fill="#666" dominant-baseline="middle" text-anchor="start" font-size="13.5">19%</text></g><g class="bar"><text x="119.242" y="433.4919999999998" fill="#666" dominant-baseline="middle" text-anchor="end" font-size="13.5">Canada</text><rect x="124.2" y="422.1799999999998" width="387.90000000000003" height="22.624000000000002" fill="#a6bddb" opacity="0.85"></rect><text x="517.1" y="433.4919999999998" fill="#666" dominant-baseline="middle" text-anchor="start" font-size="13.5">19%</text></g><g class="bar"><text x="119.242" y="461.77199999999976" fill="#666" dominant-baseline="middle" text-anchor="end" font-size="13.5">Belgium</text><rect x="124.2" y="450.45999999999975" width="347.1" height="22.624000000000002" fill="#d0d1e6" opacity="0.85"></rect><text x="476.3" y="461.77199999999976" fill="#666" dominant-baseline="middle" text-anchor="start" font-size="13.5">17%</text></g><g class="bar"><text x="119.242" y="490.05199999999974" fill="#666" dominant-baseline="middle" text-anchor="end" font-size="13.5">Japan</text><rect x="124.2" y="478.7399999999997" width="306.2" height="22.624000000000002" fill="#ece7f2" opacity="0.85"></rect><text x="435.4" y="490.05199999999974" fill="#666" dominant-baseline="middle" text-anchor="start" font-size="13.5">15%</text></g><g class="bar"><text x="119.242" y="518.3319999999998" fill="#666" dominant-baseline="middle" text-anchor="end" font-size="13.5">Spain</text><rect x="124.2" y="507.01999999999975" width="285.8" height="22.624000000000002" fill="#fff7fb" opacity="0.85"></rect><text x="415" y="518.3319999999998" fill="#666" dominant-baseline="middle" text-anchor="start" font-size="13.5">14%</text></g></g><g style="fill: #777;" class="SourcesFooter"><g style="fill: #777;" class="clickable"><text font-size="12.60" x="15.0" y="581.6"><tspan x="15" y="581.58">Source: Gapminder Test (with Ipsos MORI &amp; Novus)</tspan></text></g><text font-size="12.60" x="649.0" y="581.6"><tspan x="649.024" y="581.58"><a target='_blank' style='fill: #777;' href='https://ourworldindata.org'>OurWorldInData.org</a> • <a style="fill: #777;" href="http://creativecommons.org/licenses/by-sa/4.0/deed.en_US" target="_blank">CC BY-SA</a></tspan></text></g></g></svg>