<svg xmlns="http://www.w3.org/2000/svg" version="1.1" style="font-family: 'Helvetica Neue', Helvetica, Arial, sans-serif; font-size: 24px; background-color: white;" width="1200" height="630"><g class="ChartTab"><g><g class="AxisBoxView"><g class="HorizontalAxis"><text font-size="16.80" x="310.2" y="596.6"><tspan x="310.24800000000005" y="596.64">GDP per capita in 1990 Int. GK$ (Maddison-Project 2013) </tspan></text><text x="278.6" y="573.2" fill="#666" text-anchor="middle" font-size="21.6">1,000</text><text x="787" y="573.2" fill="#666" text-anchor="middle" font-size="21.6">10,000</text></g><g class="VerticalAxis"><text font-size="16.80" x="-448.2" y="28.4" transform="rotate(-90)"><tspan x="-448.20399999999995" y="28.439999999999998">Share of agriculture in employment</tspan></text><text x="85.22" y="546.6" fill="#666" dominant-baseline="middle" text-anchor="end" font-size="21.6">0%</text><text x="85.22" y="440.2" fill="#666" dominant-baseline="middle" text-anchor="end" font-size="21.6">20%</text><text x="85.22" y="333.9" fill="#666" dominant-baseline="middle" text-anchor="end" font-size="21.6">40%</text><text x="85.22" y="227.5" fill="#666" dominant-baseline="middle" text-anchor="end" font-size="21.6">60%</text><text x="85.22" y="121.2" fill="#666" dominant-baseline="middle" text-anchor="end" font-size="21.6">80%</text></g><g class="AxisGridLines"><line x1="90.22" y1="546.6" x2="1041.46" y2="546.6" stroke="#ccc"></line><line x1="90.22" y1="440.2" x2="1041.46" y2="440.2" stroke="#ddd" stroke-dasharray="3,2"></line><line x1="90.22" y1="333.9" x2="1041.46" y2="333.9" stroke="#ddd" stroke-dasharray="3,2"></line><line x1="90.22" y1="227.5" x2="1041.46" y2="227.5" stroke="#ddd" stroke-dasharray="3,2"></line><line x1="90.22" y1="121.2" x2="1041.46" y2="121.2" stroke="#ddd" stroke-dasharray="3,2"></line></g><g class="AxisGridLines"><line x1="278.6" y1="546.60" x2="278.6" y2="35.00" stroke="#ddd" stroke-dasharray="3,2"></line><line x1="787" y1="546.60" x2="787" y2="35.00" stroke="#ddd" stroke-dasharray="3,2"></line></g></g><g clip-path="url(#scatterBounds-107)" class="PointsWithLabels clickable"><rect x="90.21600000000001" y="35" width="951.2400000000001" height="511.6" fill="rgba(255,255,255,0)"></rect><defs><clipPath id="scatterBounds-107"><rect x="80.21600000000001" y="25" width="971.2400000000001" height="531.6"></rect></clipPath></defs><g class="key-China_0"><circle cx="141" cy="102" r="1.73692298829366" fill="#d14e5b" stroke="#ccc" opacity="0.6"></circle><polyline stroke-linecap="round" stroke="#d14e5b" points="141,102 147,104 149,104 157,103 171,118 178,114 196,237 195,217 187,200 147,139 146,110 162,107 181,109 200,112 214,113 202,112 191,112 203,112 223,116 227,122 228,127 239,128 238,130 248,136 243,143 253,150 273,171 287,175 291,181 301,184 316,184 329,189 352,206 370,214 382,222 400,227 412,230 412,227 416,227 428,229 445,235 463,246 482,257 510,269 513,278 522,281 520,281 532,280 550,280 571,280 595,280 625,285 641,297 658,308 676,320 685,329 699,336 717,344 738,351" fill="none" stroke-width="1.415077572595482" opacity="0.6"></polyline><polygon points="735.8849224274045,356.8849224274045 738,348.8849224274045 740.1150775725955,353.11507757259545" transform="rotate(108.43494974443654, 738, 351)" cx="738" cy="351" r="2.115077572595482" fill="#d14e5b" stroke="#ccc" stroke-width="0.2" opacity="0.6"></polygon></g><g class="key-India_0"><circle cx="216" cy="164" r="1.6504723217221988" fill="#d14e5b" stroke="#ccc" opacity="0.6"></circle><polyline stroke-linecap="round" stroke="#d14e5b" points="216,164 217,165 217,167 223,170 235,172 221,168 218,166 231,163 231,163 241,165 247,163 244,162 238,161 243,160 241,160 254,160 252,162 264,162 270,166 254,162 264,161 273,163 275,166 287,169 291,171 295,174 299,178 304,181 321,186 331,191 338,193 337,190 344,192 353,197 362,207 374,214 387,215 392,219 402,221 412,225 418,229 426,233 431,245 445,245 459,246 474,241 490,242 506,252 517,257 532,261 547,255" fill="none" stroke-width="1.3659458548639363" opacity="0.6"></polyline><polygon points="544.9340541451361,260.9340541451361 547,252.93405414513606 549.0659458548639,257.0659458548639" transform="rotate(68.19859109322141, 547, 255)" cx="547" cy="255" r="2.0659458548639362" fill="#d14e5b" stroke="#ccc" stroke-width="0.2" opacity="0.6"></polygon></g><g class="key-United-States_0"><circle cx="394" cy="211" r="1.1672670083148298" fill="#4d824b" stroke="#ccc" opacity="0.6"></circle><polyline stroke-linecap="round" stroke="#4d824b" points="394,211 414,255 456,265 476,267 534,273 548,319 589,332 632,379 657,408 705,446 681,443 662,435 629,426 623,426 638,436 653,438 681,446 689,451 678,450 694,456 708,462 743,471 781,478 818,486 833,489 821,489 768,483 760,484 765,486 762,486 777,488 789,495 793,497 800,499 794,497 806,500 806,503 806,505 800,505 812,507 814,509 816,509 825,512 831,514 841,516 851,518 863,521 866,523 874,523 879,525 877,525 881,525 890,525 900,526 897,526 894,526 903,526 911,528 921,528 926,529 923,528 927,528 920,529 927,529 941,530 947,531 953,531 959,532 966,532 971,532 972,532 969,532 973,532 977,532 983,533 986,532 991,532 998,533 1005,533 1013,533 1019,533 1020,538 1021,538 1025,538 1031,538 1035,538 1039,538 1041,539 1038,539 1028,539 1033,538" fill="none" stroke-width="0.8449006217872101" opacity="0.6"></polyline><polygon points="1031.4550993782127,544.4550993782128 1033,536.4550993782128 1034.544900621787,539.5449006217873" transform="rotate(78.69006819471291, 1033, 538)" cx="1033" cy="538" r="1.54490062178721" fill="#4d824b" stroke="#ccc" stroke-width="0.2" opacity="0.6"></polygon></g><g class="key-Indonesia_0"><circle cx="288" cy="156" r="1.3137980285137125" fill="#d14e5b" stroke="#ccc" opacity="0.6"></circle><polyline stroke-linecap="round" stroke="#d14e5b" points="288,156 327,196 347,207 374,204 375,211 370,222 384,222 395,232 400,236 406,239 420,247 428,253 415,255 418,254 428,257 429,258 439,263 446,269 455,272 470,278 482,280 497,252 509,241 521,264 533,288 547,299 560,308 566,327 532,309 530,323 537,316 542,321 548,316 556,304 563,318 573,313 582,325 593,331 603,336 610,339 621,346" fill="none" stroke-width="0.7818517259002641" opacity="0.6"></polyline><polygon points="619.5181482740998,352.51814827409976 621,344.51814827409976 622.4818517259002,347.4818517259003" transform="rotate(122.47119333164747, 621, 346)" cx="621" cy="346" r="1.4818517259002641" fill="#d14e5b" stroke="#ccc" stroke-width="0.2" opacity="0.6"></polygon></g><g class="key-Brazil_0"><circle cx="392" cy="204" r="1.2480243610366768" fill="#69c487" stroke="#ccc" opacity="0.6"></circle><polyline stroke-linecap="round" stroke="#69c487" points="392,204 396,207 402,210 406,212 414,215 423,218 419,221 431,224 443,227 454,230 465,233 475,238 481,243 477,248 478,253 476,258 483,264 485,269 498,274 510,280 525,286 540,291 557,296 578,305 589,315 594,324 609,333 613,335 619,347 629,354 642,344 627,371 623,369 610,382 617,367 630,360 642,389 645,396 640,400 643,404 630,406 629,403 624,399 631,401 640,405 646,408 647,415 651,416 648,420 645,417 651,428 651,433 654,434 653,434 663,432 667,435 673,441 684,447 693,451 690,454 704,457" fill="none" stroke-width="0.7369639087366445" opacity="0.6"></polyline><polygon points="702.5630360912634,463.56303609126337 704,455.56303609126337 705.4369639087366,458.4369639087367" transform="rotate(102.09475794464568, 704, 457)" cx="704" cy="457" r="1.4369639087366446" fill="#69c487" stroke="#ccc" stroke-width="0.2" opacity="0.6"></polygon></g><g class="key-Nigeria_0"><circle cx="234" cy="130" r="1.2326522183984396" fill="#5675c1" stroke="#ccc" opacity="0.6"></circle><polyline stroke-linecap="round" stroke="#5675c1" points="234,130 235,135 241,139 255,153 257,165 265,179 252,182 208,164 199,166 245,183 298,202 316,200 318,202 329,206 347,206 334,227 350,246 351,262 331,265 340,270 337,289 312,310 303,323 283,325 269,325 282,316 280,306 273,299 288,295 296,287 302,280 295,273 290,265 289,258 285,249 279,240 284,232 285,225 286,220 281,216 287,207 299,202 335,203 351,197 367,213 373,214 381,217 390,220 397,222 406,223 417,223" fill="none" stroke-width="0.6967450901900714" opacity="0.6"></polyline><polygon points="415.60325490980995,229.60325490980992 417,221.60325490980992 418.3967450901901,224.39674509019005" transform="rotate(90.0000007648485, 417, 223)" cx="417" cy="223" r="1.3967450901900713" fill="#5675c1" stroke="#ccc" stroke-width="0.2" opacity="0.6"></polygon></g><g class="key-Japan_0"><circle cx="213" cy="95" r="1.2096821056233815" fill="#d14e5b" stroke="#ccc" opacity="0.6"></circle><polyline stroke-linecap="round" stroke="#d14e5b" points="213,95 246,108 281,141 315,174 337,211 395,257 414,277 511,298 422,290 478,323 488,332 503,335 517,344 531,354 541,364 558,373 583,379 607,387 623,396 639,406 661,415 671,422 692,428 713,433 737,437 760,440 780,446 787,454 802,459 816,465 810,467 814,469 821,471 828,472 837,473 847,476 852,481 857,483 862,484 866,487 873,489 881,490 886,492 894,494 906,496 916,498 926,500 932,503 933,504 933,506 934,507 938,508 943,510 946,511 941,512 940,513 945,515 945,516 945,517 949,517 954,518 956,518 960,519 965,520 962,519 950,519 960,520" fill="none" stroke-width="0.6579553795440416" opacity="0.6"></polyline><polygon points="958.642044620456,526.642044620456 960,518.642044620456 961.357955379544,521.357955379544" transform="rotate(95.71059395087858, 960, 520)" cx="960" cy="520" r="1.3579553795440416" fill="#d14e5b" stroke="#ccc" stroke-width="0.2" opacity="0.6"></polygon></g><g class="key-Mexico_0"><circle cx="468" cy="235" r="1.1937688796793104" fill="#4d824b" stroke="#ccc" opacity="0.6"></circle><polyline stroke-linecap="round" stroke="#4d824b" points="468,235 478,240 481,247 475,249 490,248 501,250 509,260 518,264 523,262 522,268 532,270 533,274 536,279 545,286 561,291 567,298 574,303 580,308 588,314 594,319 601,324 604,327 615,337 627,340 634,355 640,358 644,370 646,364 658,372 673,387 685,393 699,399 692,405 677,397 680,401 681,403 668,406 667,407 665,407 670,413 677,422 682,427 686,432 686,433 692,436 674,437 681,440 692,449 700,451 705,454 716,459 713,458 712,458 713,456 719,458 723,465 732,468 737,473 737,471 720,470 729,470" fill="none" stroke-width="0.6407250653429869" opacity="0.6"></polyline><polygon points="727.659274934657,476.659274934657 729,468.659274934657 730.340725065343,471.34072506534295" transform="rotate(90.0000007648485, 729, 470)" cx="729" cy="470" r="1.340725065342987" fill="#4d824b" stroke="#ccc" stroke-width="0.2" opacity="0.6"></polygon></g><g class="key-Philippines_0"><circle cx="409" cy="286" r="1.2132122136304397" fill="#d14e5b" stroke="#ccc" opacity="0.6"></circle><polyline stroke-linecap="round" stroke="#d14e5b" points="409,286 414,264 427,255 429,258 435,269 447,266 453,274 458,275 464,278 469,280 471,281 473,280 472,280 450,290 427,293 429,288 433,299 443,308 451,313 452,313 446,313 442,312 442,310 447,316 452,319 459,332 465,339 459,341 461,345 465,347 467,348 470,349 476,352 485,355 491,355 498,355 508,359 512,358 511,364 522,370" fill="none" stroke-width="0.6123832481797119" opacity="0.6"></polyline><polygon points="520.6876167518203,376.6876167518203 522,368.6876167518203 523.3123832481797,371.31238324817974" transform="rotate(118.61046067395445, 522, 370)" cx="522" cy="370" r="1.312383248179712" fill="#d14e5b" stroke="#ccc" stroke-width="0.2" opacity="0.6"></polygon></g><g class="key-Ethiopia_0"><circle cx="103" cy="35" r="1.1820898963419522" fill="#5675c1" stroke="#ccc" opacity="0.6"></circle><polyline stroke-linecap="round" stroke="#5675c1" points="103,35 108,36 131,37 137,39 145,42 149,44 153,46 153,49 156,52 163,54 168,56 174,58 176,61 174,62 169,63 169,63 170,64 164,63 175,67 182,71 177,72 171,74 175,74 165,75 147,73 157,73 171,73 168,74 165,73 156,71 130,66 102,66 124,76 126,79 132,82 153,87 154,89 139,88 145,91 152,95 161,95 158,94 147,95 165,97 185,103 203,111 221,120 238,129 253,137 263,147" fill="none" stroke-width="0.5968448731272781" opacity="0.6"></polyline><polygon points="261.70315512687273,153.70315512687273 263,145.70315512687273 264.29684487312727,148.2968448731273" transform="rotate(135.00000114727274, 263, 147)" cx="263" cy="147" r="1.2968448731272781" fill="#5675c1" stroke="#ccc" stroke-width="0.2" opacity="0.6"></polygon></g><g class="key-Egypt_0"><circle cx="276" cy="254" r="1.1938571724663767" fill="#5675c1" stroke="#ccc" opacity="0.6"></circle><polyline stroke-linecap="round" stroke="#5675c1" points="276,254 285,271 294,275 303,282 312,284 321,287 317,271 309,260 308,263 319,266 328,273 333,275 333,275 335,287 339,290 356,301 383,307 404,309 413,314 423,315 439,319 439,325 454,330 464,333 470,336 478,338 477,339 477,347 481,352 483,358 482,362 483,363 481,362 484,361 490,362 497,363 505,376 512,379 524,382 532,386 539,386 542,387 544,387 546,389 550,391 555,396 565,404 576,411 586,414 592,419 599,421" fill="none" stroke-width="0.5940037890399112" opacity="0.6"></polyline><polygon points="597.70599621096,427.7059962109601 599,419.7059962109601 600.2940037890398,422.29400378903995" transform="rotate(105.94539680128038, 599, 421)" cx="599" cy="421" r="1.2940037890399112" fill="#5675c1" stroke="#ccc" stroke-width="0.2" opacity="0.6"></polygon></g><g class="key-Germany_0"><circle cx="578" cy="527" r="1.273381431771387" fill="#ffd336" stroke="#ccc" opacity="0.6"></circle><polyline stroke-linecap="round" stroke="#ffd336" points="578,527 595,526 613,528 629,529 644,530 666,532 680,533 691,533 699,533 713,534 729,534 736,536 743,536 748,536 759,536 768,537 773,537 773,536 784,536 796,537 804,537 809,538 817,538 826,538 828,538 828,538 839,538 846,538 852,538 861,539 863,539 863,539 861,538 866,538 873,538 878,539 883,538 886,539 893,539 898,539 889,539 899,540" fill="none" stroke-width="0.5917009242199691" opacity="0.6"></polyline><polygon points="897.70829907578,546.70829907578 899,538.70829907578 900.29170092422,541.29170092422" transform="rotate(95.71059395087858, 899, 540)" cx="899" cy="540" r="1.291700924219969" fill="#ffd336" stroke="#ccc" stroke-width="0.2" opacity="0.6"></polygon></g><g class="key-Thailand_0"><circle cx="295" cy="114" r="1.1924533896975162" fill="#d14e5b" stroke="#ccc" opacity="0.6"></circle><polyline stroke-linecap="round" stroke="#d14e5b" points="295,114 299,115 309,117 319,119 327,121 337,122 354,124 366,126 377,128 387,130 395,132 398,137 401,143 417,148 421,153 427,158 441,163 457,168 473,162 480,182 485,182 494,184 501,204 509,190 518,180 524,186 533,194 550,204 574,193 596,195 617,209 632,229 648,225 664,247 678,250 693,272 702,281 693,280 674,275 681,290 689,288 695,302 707,301 720,307 732,321 740,320 749,322 759,324 761,320 758,339 772,342" fill="none" stroke-width="0.5746315668420332" opacity="0.6"></polyline><polygon points="770.725368433158,348.72536843315794 772,340.72536843315794 773.2746315668421,343.274631566842" transform="rotate(102.09475794464568, 772, 342)" cx="772" cy="342" r="1.2746315668420332" fill="#d14e5b" stroke="#ccc" stroke-width="0.2" opacity="0.6"></polygon></g><g class="key-France_0"><circle cx="393" cy="271" r="1.21444637746261" fill="#ffd336" stroke="#ccc" opacity="0.6"></circle><polyline stroke-linecap="round" stroke="#ffd336" points="393,271 424,275 456,296 496,307 508,326 517,319 538,328 526,325 598,342 597,357 597,357 576,355 671,406 739,440 792,463 816,474 824,478 832,482 841,486 846,489 844,491 852,494 859,496 865,498 871,499 873,501 874,503 878,504 880,505 882,506 884,507 888,509 893,511 901,512 908,514 912,516 913,517 915,518 912,520 916,521 920,522 921,522 925,523 931,523 937,524 944,525 947,526 947,526 948,526 952,527 955,527 959,528 955,529" fill="none" stroke-width="0.5638308667142495" opacity="0.6"></polyline><polygon points="953.7361691332858,535.7361691332858 955,527.7361691332858 956.2638308667143,530.2638308667143" transform="rotate(-104.03624435205943, 955, 529)" cx="955" cy="529" r="1.2638308667142495" fill="#ffd336" stroke="#ccc" stroke-width="0.2" opacity="0.6"></polygon></g><g class="key-United-Kingdom_0"><circle cx="442" cy="382" r="1.1525816138158413" fill="#ffd336" stroke="#ccc" opacity="0.6"></circle><polyline stroke-linecap="round" stroke="#ffd336" points="442,382 475,434 476,428 512,403 544,428 559,445 583,463 608,477 620,483 613,500 607,497 617,498 623,500 630,500 640,501 631,502 647,504 649,504 655,505 652,506 640,506 640,506 645,507 659,508 666,510 675,512 682,514 683,515 700,516 706,516 706,517 712,518 711,518 718,520 727,520 734,521 735,521 738,522 736,522 744,522 754,523 760,524 760,524 767,524 777,525 781,527 784,528 788,528 795,529 798,529 803,530 806,531 813,531 827,531 824,531 824,532 829,532 834,532 842,532 847,533 843,533 840,532 844,532 851,532 856,531 863,532 872,532 882,532 892,532 896,533 896,533 892,533 892,533 897,533 905,533 911,534 917,534 930,534 937,534 943,536 951,537 956,537 961,537 968,537 973,537 978,537 982,537 989,537 985,537 975,536 978,536" fill="none" stroke-width="0.5625194694511118" opacity="0.6"></polyline><polygon points="976.7374805305489,542.7374805305489 978,534.7374805305489 979.262519469451,537.262519469451" transform="rotate(90.0000007648485, 978, 536)" cx="978" cy="536" r="1.2625194694511117" fill="#ffd336" stroke="#ccc" stroke-width="0.2" opacity="0.6"></polygon></g><g class="key-Italy_0"><circle cx="552" cy="295" r="1.2343426286328159" fill="#ffd336" stroke="#ccc" opacity="0.6"></circle><polyline stroke-linecap="round" stroke="#ffd336" points="552,295 560,303 575,311 581,317 594,326 604,334 615,345 626,350 639,354 653,363 668,373 681,383 693,395 699,403 707,401 719,408 734,413 748,422 760,429 772,439 775,439 782,447 796,451 806,456 800,461 814,463 818,467 824,469 836,472 843,475 845,479 846,484 848,485 855,489 861,492 867,495 874,497 883,501 890,504 895,506 898,508 899,509 896,511 901,513 907,514 909,516 912,516 915,518 918,520 926,521 929,521 929,522 928,524 931,523 932,524 935,524 938,524 934,525 920,526 923,525" fill="none" stroke-width="0.5599103671861161" opacity="0.6"></polyline><polygon points="921.7400896328139,531.7400896328139 923,523.7400896328139 924.2599103671862,526.2599103671862" transform="rotate(71.56505178526047, 923, 525)" cx="923" cy="525" r="1.2599103671861163" fill="#ffd336" stroke="#ccc" stroke-width="0.2" opacity="0.6"></polygon></g><g class="key-South-Africa_0"><circle cx="524" cy="287" r="1.167137176620769" fill="#5675c1" stroke="#ccc" opacity="0.6"></circle><polyline stroke-linecap="round" stroke="#5675c1" points="524,287 527,294 533,300 543,307 552,316 558,325 562,332 571,339 574,347 581,354 587,362 592,364 590,367 594,371 600,374 599,379 599,383 593,389 594,395 597,401 605,408 609,408 601,409 590,410 594,412 585,413 579,413 578,419 582,424 582,428 575,432 568,436 559,436 557,437 560,438 564,439 570,440 573,441 571,443 573,445 580,447 583,455 589,437 593,454 601,460 610,470 620,463 630,474 636,472 631,471 637,466" fill="none" stroke-width="0.5408089664951303" opacity="0.6"></polyline><polygon points="635.7591910335049,472.75919103350486 637,464.75919103350486 638.2408089664951,467.24080896649514" transform="rotate(50.19442933430295, 637, 466)" cx="637" cy="466" r="1.2408089664951305" fill="#5675c1" stroke="#ccc" stroke-width="0.2" opacity="0.6"></polygon></g><g class="key-South-Korea_0"><circle cx="313" cy="117" r="1.1771935138624205" fill="#d14e5b" stroke="#ccc" opacity="0.6"></circle><polyline stroke-linecap="round" stroke="#d14e5b" points="313,117 339,217 351,224 358,241 378,245 388,260 409,274 436,281 449,286 465,296 477,284 507,288 522,297 532,309 553,316 571,331 588,349 600,363 590,372 600,371 613,382 634,394 649,407 661,419 683,426 705,434 727,441 738,447 756,456 774,463 784,466 795,472 812,477 829,483 842,487 853,489 838,482 859,486 876,490 883,493 897,497 902,499 911,503 919,504 930,505 940,507 945,507 945,507 958,509" fill="none" stroke-width="0.5370641974083593" opacity="0.6"></polyline><polygon points="956.7629358025916,515.7629358025916 958,507.76293580259164 959.2370641974084,510.23706419740836" transform="rotate(98.74616310173137, 958, 509)" cx="958" cy="509" r="1.2370641974083594" fill="#d14e5b" stroke="#ccc" stroke-width="0.2" opacity="0.6"></polygon></g><g class="key-Colombia_0"><circle cx="447" cy="246" r="1.1515920388057703" fill="#69c487" stroke="#ccc" opacity="0.6"></circle><polyline stroke-linecap="round" stroke="#69c487" points="447,246 447,251 454,250 460,262 468,271 469,273 471,275 471,274 470,267 478,270 480,277 484,283 489,288 489,291 495,296 497,301 502,307 504,311 511,316 519,323 528,332 535,331 545,331 555,331 562,331 562,334 568,338 573,346 587,352 594,357 598,361 598,363 595,361 594,357 597,356 599,353 607,357 614,362 618,365 621,367 626,385 626,396 631,395 639,401 646,387 653,414 654,392 659,416 657,413 645,411 649,415 651,419 654,428 659,424 667,437 675,427 686,431 698,436 703,447 703,436 710,447" fill="none" stroke-width="0.5333783255938395" opacity="0.6"></polyline><polygon points="708.7666216744061,453.76662167440617 710,445.76662167440617 711.2333783255938,448.23337832559383" transform="rotate(147.52880896289804, 710, 447)" cx="710" cy="447" r="1.2333783255938395" fill="#69c487" stroke="#ccc" stroke-width="0.2" opacity="0.6"></polygon></g><g class="key-Spain_0"><circle cx="325" cy="171" r="1.1622470647804948" fill="#ffd336" stroke="#ccc" opacity="0.6"></circle><polyline stroke-linecap="round" stroke="#ffd336" points="325,171 391,173 380,177 406,184 419,192 450,233 440,270 451,282 611,362 685,411 695,416 711,422 728,428 741,433 747,438 753,442 759,447 764,450 765,453 768,456 768,459 770,461 775,461 777,462 780,464 787,471 798,476 809,479 819,486 828,490 833,496 834,499 832,500 836,501 847,504 852,505 859,507 868,508 877,511 886,513 892,514 895,515 898,516 901,517 906,518 911,521 901,522" fill="none" stroke-width="0.5329494372834132" opacity="0.6"></polyline><polygon points="899.7670505627166,528.7670505627166 901,520.7670505627166 902.2329494372834,523.2329494372834" transform="rotate(-95.71059395087858, 901, 522)" cx="901" cy="522" r="1.232949437283413" fill="#ffd336" stroke="#ccc" stroke-width="0.2" opacity="0.6"></polygon></g><g class="key-Tanzania_0"><circle cx="106" cy="58" r="1.1456460212118194" fill="#5675c1" stroke="#ccc" opacity="0.6"></circle><polyline stroke-linecap="round" stroke="#5675c1" points="106,58 97,70 110,65 117,61 123,59 124,58 144,58 146,58 150,58 148,58 153,60 156,63 163,65 163,67 161,70 165,72 174,75 174,75 174,77 170,80 166,81 157,81 153,80 146,78 145,80 138,81 138,81 142,83 144,86 145,88 146,88 144,90 139,91 135,89 130,89 131,88 136,90 138,93 140,96 141,99 145,102 151,106 160,112 168,119 178,127 188,135 195,144 204,149 214,155 221,160 230,165" fill="none" stroke-width="0.5305014712918368" opacity="0.6"></polyline><polygon points="228.76949852870817,171.76949852870817 230,163.76949852870817 231.23050147129183,166.23050147129183" transform="rotate(119.05460511084087, 230, 165)" cx="230" cy="165" r="1.230501471291837" fill="#5675c1" stroke="#ccc" stroke-width="0.2" opacity="0.6"></polygon></g><g class="key-Kenya_0"><circle cx="250" cy="118" r="1.1481245199852663" fill="#5675c1" stroke="#ccc" opacity="0.6"></circle><polyline stroke-linecap="round" stroke="#5675c1" points="250,118 259,115 265,120 268,117 271,116 274,124 265,122 265,124 276,124 287,123 286,127 289,131 285,132 290,134 283,139 278,141 279,146 287,150 292,153 298,156 300,163 303,168 298,172 288,178 281,185 281,196 284,210 288,221 283,229 285,237 285,245 281,248 285,252 280,256 280,260 283,267 290,270 297,272 305,277 302,281 301,286 307,289" fill="none" stroke-width="0.5217138672963704" opacity="0.6"></polyline><polygon points="305.7782861327036,295.7782861327036 307,287.7782861327036 308.22171386729633,290.22171386729633" transform="rotate(116.56505216768471, 307, 289)" cx="307" cy="289" r="1.2217138672963703" fill="#5675c1" stroke="#ccc" stroke-width="0.2" opacity="0.6"></polygon></g><g class="key-Argentina_0"><circle cx="633" cy="400" r="1.1664597885188082" fill="#69c487" stroke="#ccc" opacity="0.6"></circle><polyline stroke-linecap="round" stroke="#69c487" points="633,400 637,399 621,410 628,389 633,402 644,408 646,414 653,420 662,425 644,423 657,430 669,438 662,433 653,429 671,430 687,433 685,438 688,437 694,447 709,449 717,451 724,454 727,456 736,458 746,463 741,460 736,466 746,471 732,472 743,475 743,478 726,479 715,480 720,481 721,482 703,482 715,481 717,483 710,484 692,484 689,486 706,487 720,489 730,489 741,489 731,489 740,491 754,494 761,496 752,497 748,499 736,500 709,500 724,504 736,506 752,507 766,508 780,509 786,509 777,510 792,511" fill="none" stroke-width="0.5215060979245231" opacity="0.6"></polyline><polygon points="790.7784939020755,517.7784939020755 792,509.77849390207547 793.2215060979246,512.2215060979245" transform="rotate(93.81407563155207, 792, 511)" cx="792" cy="511" r="1.2215060979245231" fill="#69c487" stroke="#ccc" stroke-width="0.2" opacity="0.6"></polygon></g><g class="key-Morocco_0"><circle cx="341" cy="208" r="1.1504564914946673" fill="#5675c1" stroke="#ccc" opacity="0.6"></circle><polyline stroke-linecap="round" stroke="#5675c1" points="341,208 343,235 345,215 347,220 349,216 351,221 358,222 365,228 371,233 378,238 384,245 391,250 391,255 395,260 402,267 412,283 430,297 437,307 439,306 444,310 459,314 449,319 466,327 458,325 461,325 469,329 480,330 469,330 486,336 485,337 488,341 499,342 486,342 480,339 498,341 480,339 502,341 493,341 506,344 504,345 505,348 518,352 523,352 533,354 541,358 545,362 559,370 562,376 572,384 580,389 586,393" fill="none" stroke-width="0.5032171931024579" opacity="0.6"></polyline><polygon points="584.7967828068976,399.79678280689757 586,391.79678280689757 587.2032171931024,394.2032171931025" transform="rotate(123.69006857713717, 586, 393)" cx="586" cy="393" r="1.203217193102458" fill="#5675c1" stroke="#ccc" stroke-width="0.2" opacity="0.6"></polygon></g><g class="key-Peru_0"><circle cx="518" cy="256" r="1.1451881595921167" fill="#69c487" stroke="#ccc" opacity="0.6"></circle><polyline stroke-linecap="round" stroke="#69c487" points="518,256 531,264 540,275 544,278 553,285 561,289 572,294 575,297 566,295 566,295 576,302 580,300 580,305 585,307 591,312 602,315 599,318 593,321 587,324 594,330 598,333 602,338 597,345 561,352 566,354 565,350 581,356 595,365 571,376 538,382 521,381 523,385 517,383 523,374 545,381 559,387 561,392 572,397 567,400 566,401 569,396 567,398 575,395 581,389 589,393 601,394 615,398 631,415 650,419 649,421 665,427" fill="none" stroke-width="0.49661607123897833" opacity="0.6"></polyline><polygon points="663.803383928761,433.80338392876104 665,425.80338392876104 666.196616071239,428.196616071239" transform="rotate(110.55604615912374, 665, 427)" cx="665" cy="427" r="1.1966160712389784" fill="#69c487" stroke="#ccc" stroke-width="0.2" opacity="0.6"></polygon></g><g class="key-Venezuela_0"><circle cx="722" cy="311" r="1.1289964387146412" fill="#69c487" stroke="#ccc" opacity="0.6"></circle><polyline stroke-linecap="round" stroke="#69c487" points="722,311 728,307 737,313 736,322 749,344 757,355 766,361 788,370 782,372 787,379 779,371 763,371 765,374 767,377 777,385 783,390 779,392 785,395 792,401 792,404 801,408 796,418 792,429 800,437 797,446 797,456 806,466 813,474 811,478 806,480 790,480 783,476 772,476 757,473 754,467 751,467 756,471 758,476 765,481 740,476 746,475 761,479 769,482 765,486 755,471 759,471 755,472 764,485 761,487 744,488 748,489 752,492 729,490 708,486 742,488 760,492 778,495 793,498 801,499 790,498 784,498" fill="none" stroke-width="0.4963902843698117" opacity="0.6"></polyline><polygon points="782.8036097156302,504.8036097156302 784,496.8036097156302 785.1963902843697,499.19639028436984" transform="rotate(-90.0000007648485, 784, 498)" cx="784" cy="498" r="1.1963902843698118" fill="#69c487" stroke="#ccc" stroke-width="0.2" opacity="0.6"></polygon></g><g class="key-Malaysia_0"><circle cx="493" cy="303" r="1.1525372930192774" fill="#d14e5b" stroke="#ccc" opacity="0.6"></circle><polyline stroke-linecap="round" stroke="#d14e5b" points="493,303 514,324 526,324 540,325 552,329 564,358 574,369 582,380 589,388 601,391 593,389 590,387 596,386 609,389 624,399 639,414 653,422 666,432 682,437 696,446 711,453 726,459 736,464 713,456 721,458 734,458 729,470 736,471 743,474 752,473 760,472 768,473 777,472 784,475 777,478 789,474" fill="none" stroke-width="0.4950326394203881" opacity="0.6"></polyline><polygon points="787.8049673605797,480.8049673605796 789,472.8049673605796 790.1950326394204,475.1950326394204" transform="rotate(71.56505178526047, 789, 474)" cx="789" cy="474" r="1.195032639420388" fill="#d14e5b" stroke="#ccc" stroke-width="0.2" opacity="0.6"></polygon></g><g class="key-Ghana_0"><circle cx="349" cy="223" r="1.1347346294346767" fill="#5675c1" stroke="#ccc" opacity="0.6"></circle><polyline stroke-linecap="round" stroke="#5675c1" points="349,223 351,225 355,224 356,232 355,222 351,222 345,219 343,227 339,227 340,238 356,243 366,248 353,242 352,256 361,260 327,260 314,252 315,263 329,263 320,248 310,246 307,237 287,220 263,212 269,221 273,234 276,240 280,250 286,256 290,261 291,262 297,252 302,252 306,251 309,250 314,250 320,252 327,255 334,257 340,258 345,261 350,265 355,271 362,276 368,282 376,290 385,298 393,303 407,313 410,316 422,325" fill="none" stroke-width="0.4853564822657191" opacity="0.6"></polyline><polygon points="420.8146435177343,331.8146435177343 422,323.8146435177343 423.1853564822657,326.1853564822657" transform="rotate(126.86989872402458, 422, 325)" cx="422" cy="325" r="1.185356482265719" fill="#5675c1" stroke="#ccc" stroke-width="0.2" opacity="0.6"></polygon></g><g class="key-Taiwan_0"><circle cx="374" cy="286" r="1.1524297141409414" fill="#d14e5b" stroke="#ccc" opacity="0.6"></circle><polyline stroke-linecap="round" stroke="#d14e5b" points="374,286 393,294 409,307 422,315 439,328 451,337 465,345 484,358 506,366 529,378 551,391 550,388 556,391 580,398 597,410 621,419 633,437 645,447 654,450 658,451 673,452 692,457 700,458 722,460 753,469 761,476 776,481 785,481 800,480 814,483 826,488 840,490 851,492 862,494 872,497 877,500 888,503 899,505 894,506 904,506 911,507 923,511 933,515 943,517 955,518 956,519 951,518 973,518" fill="none" stroke-width="0.4819400772719665" opacity="0.6"></polyline><polygon points="971.818059922728,524.818059922728 973,516.818059922728 974.181940077272,519.181940077272" transform="rotate(90.0000007648485, 973, 518)" cx="973" cy="518" r="1.1819400772719666" fill="#d14e5b" stroke="#ccc" stroke-width="0.2" opacity="0.6"></polygon></g><g class="key-Chile_0"><circle cx="565" cy="380" r="1.1324663549458358" fill="#69c487" stroke="#ccc" opacity="0.6"></circle><polyline stroke-linecap="round" stroke="#69c487" points="565,380 569,378 578,367 590,380 579,398 583,389 582,400 598,404 605,386 587,395 599,386 604,386 609,389 617,391 617,391 614,394 633,396 636,398 639,400 643,404 644,405 658,412 652,417 635,420 633,420 599,416 603,420 620,427 634,430 648,434 662,433 671,442 635,442 625,446 634,448 635,428 643,430 654,433 666,437 684,445 688,450 701,454 723,460 734,467 742,472 761,478 774,480 784,487 789,489 784,490 791,492 796,484 798,487 804,487 817,488 828,489 838,490 847,492 852,495 848,496 859,499" fill="none" stroke-width="0.46635869928257434" opacity="0.6"></polyline><polygon points="857.8336413007174,505.83364130071743 859,497.83364130071743 860.1663586992826,500.16635869928257" transform="rotate(105.25511959754911, 859, 499)" cx="859" cy="499" r="1.1663586992825743" fill="#69c487" stroke="#ccc" stroke-width="0.2" opacity="0.6"></polygon></g><g class="key-Netherlands_0"><circle cx="413" cy="317" r="1.1184631626674557" fill="#ffd336" stroke="#ccc" opacity="0.6"></circle><polyline stroke-linecap="round" stroke="#ffd336" points="413,317 463,332 460,331 546,352 549,365 565,384 596,421 659,441 636,447 669,467 745,494 743,495 754,498 759,500 774,502 782,505 785,506 794,509 805,513 817,514 826,515 833,515 838,515 846,516 853,516 851,516 859,517 864,517 867,518 871,519 872,519 869,518 865,518 868,518 875,519 880,520 885,521 887,521 891,522 900,523 907,523 911,523 913,523 914,524 919,524 925,525 931,525 939,525 946,526 955,527 962,528 965,528 964,528 963,528 968,528 972,529 979,529 987,530 990,530 981,530 983,530" fill="none" stroke-width="0.4649713343371972" opacity="0.6"></polyline><polygon points="981.8350286656628,536.8350286656628 983,528.8350286656628 984.1649713343372,531.1649713343372" transform="rotate(90.0000007648485, 983, 530)" cx="983" cy="530" r="1.1649713343371972" fill="#ffd336" stroke="#ccc" stroke-width="0.2" opacity="0.6"></polygon></g><g class="key-Malawi_0"><circle cx="90" cy="97" r="1.1253176672484628" fill="#5675c1" stroke="#ccc" opacity="0.6"></circle><polyline stroke-linecap="round" stroke="#5675c1" points="90,97 104,90 95,88 103,88 101,85 124,89 140,87 151,89 159,91 160,94 162,91 166,88 179,93 182,90 176,83 158,76 153,73 155,78 158,81 168,85 160,89 153,83 145,83 143,85 142,88 152,93 127,95 143,92 123,94 153,95 168,98 176,105 172,104 173,107 169,108 153,110 151,116 157,118 163,133 163,145 161,146 175,161 187,178 200,188 208,199" fill="none" stroke-width="0.46013643280106203" opacity="0.6"></polyline><polygon points="206.83986356719893,205.83986356719893 208,197.83986356719893 209.16013643280107,200.16013643280107" transform="rotate(143.97262783842135, 208, 199)" cx="208" cy="199" r="1.1601364328010622" fill="#5675c1" stroke="#ccc" stroke-width="0.2" opacity="0.6"></polygon></g><g class="key-Zambia_0"><circle cx="308" cy="210" r="1.123333546593866" fill="#5675c1" stroke="#ccc" opacity="0.6"></circle><polyline stroke-linecap="round" stroke="#5675c1" points="308,210 290,211 301,212 298,212 290,206 294,213 287,222 300,216 291,213 302,208 287,203 293,199 276,192 271,188 257,183 257,185 264,187 249,182 236,174 228,170 224,165 218,160 216,157 222,153 218,148 231,146 223,144 221,144 215,146 178,145 166,142 175,149 176,154 166,154 165,161 166,165 170,163 171,158 177,156 183,153 189,154 197,156 204,157 210,158 218,159 228,162" fill="none" stroke-width="0.4548544239657387" opacity="0.6"></polyline><polygon points="226.84514557603427,168.84514557603427 228,160.84514557603427 229.15485442396576,163.15485442396576" transform="rotate(106.6992451407576, 228, 162)" cx="228" cy="162" r="1.1548544239657388" fill="#5675c1" stroke="#ccc" stroke-width="0.2" opacity="0.6"></polygon></g><g class="key-Senegal_0"><circle cx="358" cy="156" r="1.1253967474822664" fill="#5675c1" stroke="#ccc" opacity="0.6"></circle><polyline stroke-linecap="round" stroke="#5675c1" points="358,156 351,163 358,163 339,160 341,156 352,163 366,167 353,165 337,167 345,171 331,172 322,176 346,181 345,180 327,181 328,181 332,185 333,190 337,192 326,196 328,196 328,197 324,200 322,199 316,200 322,206 321,210 322,215 329,224 337,231 339,237 343,240 339,246 347,253 354,260 360,265 360,267 365,273 367,271 365,271 369,273" fill="none" stroke-width="0.45290096274987074" opacity="0.6"></polyline><polygon points="367.84709903725013,279.84709903725013 369,271.84709903725013 370.15290096274987,274.15290096274987" transform="rotate(116.56505216768471, 369, 273)" cx="369" cy="273" r="1.1529009627498708" fill="#5675c1" stroke="#ccc" stroke-width="0.2" opacity="0.6"></polygon></g><g class="key-Belgium_0"><circle cx="395" cy="262" r="1.1261258600131234" fill="#ffd336" stroke="#ccc" opacity="0.6"></circle><polyline stroke-linecap="round" stroke="#ffd336" points="395,262 449,285 481,308 525,342 550,375 569,402 588,416 582,425 633,449 625,472 716,501 800,518 807,520 817,522 830,523 838,524 835,524 847,525 848,526 854,526 859,526 868,528 865,528 868,528 868,528 874,528 876,528 879,528 884,529 894,529 900,530 906,530 910,530 912,530 909,531 915,531 920,531 922,532 930,532 934,533 941,533 948,534 950,534 952,534 953,535 960,536 964,536 969,536 976,536" fill="none" stroke-width="0.44764181307669226" opacity="0.6"></polyline><polygon points="974.8523581869233,542.8523581869233 976,534.8523581869233 977.1476418130767,537.1476418130767" transform="rotate(90.0000007648485, 976, 536)" cx="976" cy="536" r="1.1476418130766923" fill="#ffd336" stroke="#ccc" stroke-width="0.2" opacity="0.6"></polygon></g><g class="key-Bolivia_0"><circle cx="422" cy="160" r="1.120228999745444" fill="#69c487" stroke="#ccc" opacity="0.6"></circle><polyline stroke-linecap="round" stroke="#69c487" points="422,160 433,169 435,177 408,177 408,185 414,181 396,181 384,177 384,170 378,163 383,173 382,168 389,180 398,180 403,180 409,178 419,179 427,192 440,197 444,219 450,219 453,226 458,233 467,244 473,255 482,267 493,278 497,287 499,294 493,299 487,302 485,302 471,299 457,302 456,311 450,315 439,315 441,314 445,309 446,313 452,315 458,311 456,309 461,316 466,328 471,336 476,344 482,355 488,362 484,369 485,378 484,381 485,390 486,421 491,421 496,407 502,403 508,418 517,424 520,434 525,449" fill="none" stroke-width="0.4451894558596757" opacity="0.6"></polyline><polygon points="523.8548105441404,455.8548105441403 525,447.8548105441403 526.1451894558597,450.1451894558597" transform="rotate(161.56505255010896, 525, 449)" cx="525" cy="449" r="1.1451894558596756" fill="#69c487" stroke="#ccc" stroke-width="0.2" opacity="0.6"></polygon></g><g class="key-Sweden_0"><circle cx="294" cy="167" r="1.1229742336738473" fill="#ffd336" stroke="#ccc" opacity="0.6"></circle><polyline stroke-linecap="round" stroke="#ffd336" points="294,167 290,170 285,170 288,169 290,169 304,166 301,172 307,170 310,169 318,172 322,175 313,178 306,180 315,181 319,188 323,186 319,188 323,185 302,189 317,189 344,188 351,191 355,191 358,200 366,204 358,204 371,212 366,215 358,224 370,227 365,220 373,222 364,216 380,223 375,221 379,229 382,239 375,233 379,235 382,238 387,237 398,236 396,239 401,241 402,243 412,252 418,248 427,257 434,259 439,264 440,268 446,268 443,271 454,280 458,282 455,287 472,289 486,287 479,287 480,289 484,292 490,297 498,300 511,307 516,308 523,310 535,312 521,311 504,316 507,321 521,326 509,318 525,323 532,330 546,333 551,339 562,343 569,346 575,352 588,356 597,363 591,363 582,361 586,361 600,365 610,371 617,376 622,380 629,384 644,389 627,389 620,392 622,403 628,411 634,412 640,415 660,422 677,427 680,430 686,432 699,436 706,439 708,444 712,447 720,451 725,455 732,459 740,463 740,466 745,471 755,474 767,478 775,481 785,485 798,488 804,492 806,494 812,497 819,499 828,501 840,504 840,506 845,508 853,511 859,512 864,513 865,515 861,515 864,515 872,516 875,517 875,518 877,518 881,519 889,520 893,521 897,521 903,524 907,524 910,526 912,526 907,526 903,526 897,526 905,526 912,527 915,528 921,529 930,530 940,530 949,530 951,532 956,532 961,533 970,533 976,534 985,534 992,535 990,534 979,534 992,534" fill="none" stroke-width="0.4434395100228534" opacity="0.6"></polyline><polygon points="990.8565604899771,540.8565604899771 992,532.8565604899771 993.1434395100229,535.1434395100229" transform="rotate(90.0000007648485, 992, 534)" cx="992" cy="534" r="1.1434395100228534" fill="#ffd336" stroke="#ccc" stroke-width="0.2" opacity="0.6"></polygon></g><g class="key-Denmark_0"><circle cx="706" cy="414" r="1.1260248967162072" fill="#ffd336" stroke="#ccc" opacity="0.6"></circle><polyline stroke-linecap="round" stroke="#ffd336" points="706,414 706,417 706,419 717,422 719,426 720,428 721,430 736,433 740,436 754,440 759,445 771,450 781,454 781,458 799,462 807,467 811,470 816,474 824,478 836,485 839,490 843,492 853,495 860,497 857,497 855,498 868,500 871,501 874,503 881,505 879,506 878,507 884,507 890,507 899,509 909,511 916,513 917,514 919,515 920,516 922,517 924,518 928,518 927,520 938,522 943,522 948,523 954,524 958,525 963,526 970,527 971,528 971,528 971,528 975,529 980,530 987,530 989,531 987,531 973,532 975,532" fill="none" stroke-width="0.430610557624725" opacity="0.6"></polyline><polygon points="973.8693894423752,538.8693894423752 975,530.8693894423752 976.1306105576247,533.1306105576247" transform="rotate(90.0000007648485, 975, 532)" cx="975" cy="532" r="1.130610557624725" fill="#ffd336" stroke="#ccc" stroke-width="0.2" opacity="0.6"></polygon></g><g class="key-Finland_0"><circle cx="310" cy="167" r="1.1176562875719107" fill="#ffd336" stroke="#ccc" opacity="0.6"></circle><polyline stroke-linecap="round" stroke="#ffd336" points="310,167 391,185 421,142 413,150 495,175 536,217 598,298 682,357 777,435 781,441 796,448 809,456 815,462 816,466 815,469 815,472 819,474 833,475 844,476 847,478 853,478 857,480 863,481 869,484 873,488 882,491 892,494 903,498 902,500 887,500 878,500 875,501 882,501 890,504 897,507 910,509 920,513 928,513 939,514 944,516 947,517 951,518 959,518 965,519 975,520 973,520" fill="none" stroke-width="0.4299566403667118" opacity="0.6"></polyline><polygon points="971.8700433596333,526.8700433596333 973,518.8700433596333 974.1299566403667,521.1299566403667" transform="rotate(-90.0000007648485, 973, 520)" cx="973" cy="520" r="1.1299566403667118" fill="#ffd336" stroke="#ccc" stroke-width="0.2" opacity="0.6"></polygon></g><g class="key-Singapore_0"><circle cx="607" cy="528" r="1.1177619661743234" fill="#d14e5b" stroke="#ccc" opacity="0.6"></circle><polyline stroke-linecap="round" stroke="#d14e5b" points="607,528 629,528 653,529 673,526 684,526 689,530 701,529 715,530 730,532 747,535 765,536 774,538 779,539 793,539 806,540 802,541 806,540 822,540 840,543 852,543 864,543 871,544 879,543 896,543 911,543 920,543 930,544 942,544 932,545 939,545 953,545 945,545 948,545 952,545 966,545 977,545 990,545 1004,545 1003,545 996,545 1022,545" fill="none" stroke-width="0.42897049468586024" opacity="0.6"></polyline><polygon points="1020.8710295053141,551.8710295053141 1022,543.8710295053141 1023.1289704946859,546.1289704946859" transform="rotate(90.0000007648485, 1022, 545)" cx="1022" cy="545" r="1.1289704946858603" fill="#d14e5b" stroke="#ccc" stroke-width="0.2" opacity="0.6"></polygon></g><g class="key-Costa-Rica_0"><circle cx="427" cy="244" r="1.1133604268260615" fill="#4d824b" stroke="#ccc" opacity="0.6"></circle><polyline stroke-linecap="round" stroke="#4d824b" points="427,244 426,236 443,236 467,255 461,258 477,273 462,285 472,274 490,274 489,273 499,276 499,273 504,277 515,281 518,283 530,296 539,302 545,303 555,309 562,316 570,324 578,333 591,344 601,353 607,361 605,363 611,369 623,378 628,383 632,389 630,389 619,384 597,359 597,369 607,360 602,382 608,387 612,377 613,378 620,388 622,393 622,402 636,410 646,418 650,425 652,425 648,430 655,434 667,435 680,442 679,443 677,456 680,455 690,460 696,463 705,461 721,469 734,474 737,480 731,483 737,467" fill="none" stroke-width="0.4274397379185022" opacity="0.6"></polyline><polygon points="735.8725602620815,473.8725602620815 737,465.8725602620815 738.1274397379185,468.1274397379185" transform="rotate(20.55604539427524, 737, 467)" cx="737" cy="467" r="1.1274397379185022" fill="#4d824b" stroke="#ccc" stroke-width="0.2" opacity="0.6"></polygon></g><g class="key-Botswana_0"><circle cx="92" cy="81" r="1.1117844201753075" fill="#5675c1" stroke="#ccc" opacity="0.6"></circle><polyline stroke-linecap="round" stroke="#5675c1" points="92,81 95,90 113,91 131,85 149,89 166,101 182,114 214,126 268,148 304,163 336,173 323,187 349,194 346,200 373,208 384,220 404,229 415,241 422,245 447,242 462,249 470,257 479,270 491,288 516,304 536,319 542,332 546,342 545,337 542,337 543,335 546,336 552,339 560,325 567,328 576,337 589,342 596,354 602,351 607,349 610,345 609,339 616,339 621,346 623,344" fill="none" stroke-width="0.41749991008230875" opacity="0.6"></polyline><polygon points="621.8825000899177,350.8825000899177 623,342.8825000899177 624.1174999100823,345.1174999100823" transform="rotate(45.000000382424254, 623, 344)" cx="623" cy="344" r="1.1174999100823086" fill="#5675c1" stroke="#ccc" stroke-width="0.2" opacity="0.6"></polygon></g><g class="key-Mauritius_0"><circle cx="538" cy="344" r="1.1122688307724469" fill="#5675c1" stroke="#ccc" opacity="0.6"></circle><polyline stroke-linecap="round" stroke="#5675c1" points="538,344 517,348 524,367 542,371 566,389 585,396 583,396 613,409 623,412 627,424 631,424 604,420 613,425 622,423 620,416 628,421 641,424 661,431 680,431 693,440 701,449 714,457 726,461 734,463 745,466 752,468 757,469 766,472 776,476 787,480 796,486 799,486 812,488 817,496 830,497 838,497 844,497 849,499 857,504 869,508" fill="none" stroke-width="0.414701554056791" opacity="0.6"></polyline><polygon points="867.8852984459432,514.8852984459431 869,506.8852984459432 870.1147015540569,509.11470155405675" transform="rotate(108.43494974443654, 869, 508)" cx="869" cy="508" r="1.114701554056791" fill="#5675c1" stroke="#ccc" stroke-width="0.2" opacity="0.6"></polygon></g><text x="742.7434164902526" y="359.73113883008415" font-size="14.3" font-family="Arial Narrow, Arial, sans-serif" fill="#666">China</text><text x="551.6423834544263" y="253.14304661822948" font-size="14.012729611341284" font-family="Arial Narrow, Arial, sans-serif" fill="#666">India</text><text x="966.9741325445812" y="537.0194193243091" font-size="11.762648562831405" font-family="Arial Narrow, Arial, sans-serif" fill="#666">United States</text><text x="625.2183074386605" y="354.4789293087756" font-size="11.589103695619693" font-family="Arial Narrow, Arial, sans-serif" fill="#666">Indonesia</text><text x="708.889012070387" y="463.78691380158403" font-size="11.478536715859432" font-family="Arial Narrow, Arial, sans-serif" fill="#666">Brazil</text><text x="422" y="223" font-size="11.388646508701846" font-family="Arial Narrow, Arial, sans-serif" fill="#666">Nigeria</text><text x="526.389477864572" y="378.00839588913067" font-size="11.228270471455634" font-family="Arial Narrow, Arial, sans-serif" fill="#666">Philippines</text><text x="266.5355339059327" y="156.13698023714866" font-size="11.202892662431838" font-family="Arial Narrow, Arial, sans-serif" fill="#666">Ethiopia</text><text x="603.8076197382042" y="427.9728018856647" font-size="11.198392492355689" font-family="Arial Narrow, Arial, sans-serif" fill="#666">Egypt</text><text x="903.97518595105" y="546.0980429602821" font-size="11.201048730354197" font-family="Arial Narrow, Arial, sans-serif" fill="#666">Germany</text><text x="927.7434164902526" y="523.4188611699158" font-size="11.147765556848432" font-family="Arial Narrow, Arial, sans-serif" fill="#666">Italy</text><text x="640.8411063979869" y="462.79907800167763" font-size="11.122124958314036" font-family="Arial Narrow, Arial, sans-serif" fill="#666">South Africa</text><text x="962.941858488253" y="515.3189496985606" font-size="11.117327554581697" font-family="Arial Narrow, Arial, sans-serif" fill="#666">South Korea</text><text x="867.4666069105397" y="528.0535900228114" font-size="11.112142855412577" font-family="Arial Narrow, Arial, sans-serif" fill="#666">Spain</text><text x="234.37078638060768" y="172.98276536903415" font-size="11.109101426282" font-family="Arial Narrow, Arial, sans-serif" fill="#666">Tanzania</text><text x="311.4721359549996" y="296.78529203827514" font-size="11.098448121550762" font-family="Arial Narrow, Arial, sans-serif" fill="#666">Kenya</text><text x="796.988925789283" y="516.8816956780792" font-size="11.098201250920736" font-family="Arial Narrow, Arial, sans-serif" fill="#666">Argentina</text><text x="590.1602514716892" y="401.31218964960834" font-size="11.077377336964444" font-family="Arial Narrow, Arial, sans-serif" fill="#666">Morocco</text><text x="669.6816458878452" y="434.2907680602703" font-size="11.070301704656716" font-family="Arial Narrow, Arial, sans-serif" fill="#666">Peru</text><text x="726.4171968560593" y="498" font-size="11.070063819776996" font-family="Arial Narrow, Arial, sans-serif" fill="#666">Venezuela</text><text x="793.7434164902526" y="472.41886116991583" font-size="11.068639193179548" font-family="Arial Narrow, Arial, sans-serif" fill="#666">Malaysia</text><text x="426" y="333.52938593235893" font-size="11.05877186471791" font-family="Arial Narrow, Arial, sans-serif" fill="#666">Ghana</text><text x="863.8238191061887" y="505.83601657898515" font-size="11.040859100049218" font-family="Arial Narrow, Arial, sans-serif" fill="#666">Chile</text><text x="210.94085848837523" y="208.5613868695674" font-size="11.035412896102901" font-family="Arial Narrow, Arial, sans-serif" fill="#666">Malawi</text><text x="373.4721359549996" y="280.7507384270035" font-size="11.029340899007483" font-family="Arial Narrow, Arial, sans-serif" fill="#666">Senegal</text><text x="526.5811388300842" y="459.25500569742667" font-size="11.023178414348173" font-family="Arial Narrow, Arial, sans-serif" fill="#666">Bolivia</text><text x="738.755617207942" y="462.3183541121548" font-size="11.010205653897367" font-family="Arial Narrow, Arial, sans-serif" fill="#666">Costa Rica</text><text x="626.5355339059328" y="340.4644660940673" font-size="11.003678760268572" font-family="Arial Narrow, Arial, sans-serif" fill="#666">Botswana</text></g><g style="cursor: pointer;" class="ScatterColorLegend clickable"><g class="legendMark"><rect x="1061.4560000000001" y="32.5" width="56.007999999999996" height="21.799999999999997" fill="#fff" opacity="0"></rect>,<rect x="1061.4560000000001" y="39" width="8" height="8" fill="#5675c1"></rect>,<text font-size="16.80" x="1074.5" y="48.4"><tspan x="1074.4560000000001" y="48.44">Africa</tspan></text></g><g class="legendMark"><rect x="1061.4560000000001" y="54.3" width="45.76" height="21.799999999999997" fill="#fff" opacity="0"></rect>,<rect x="1061.4560000000001" y="60.8" width="8" height="8" fill="#d14e5b"></rect>,<text font-size="16.80" x="1074.5" y="70.2"><tspan x="1074.4560000000001" y="70.24">Asia</tspan></text></g><g class="legendMark"><rect x="1061.4560000000001" y="76.1" width="67.43199999999999" height="21.799999999999997" fill="#fff" opacity="0"></rect>,<rect x="1061.4560000000001" y="82.6" width="8" height="8" fill="#ffd336"></rect>,<text font-size="16.80" x="1074.5" y="92.0"><tspan x="1074.4560000000001" y="92.03999999999999">Europe</tspan></text></g><g class="legendMark"><rect x="1061.4560000000001" y="97.89999999999999" width="120.51999999999998" height="21.799999999999997" fill="#fff" opacity="0"></rect>,<rect x="1061.4560000000001" y="104.39999999999999" width="8" height="8" fill="#4d824b"></rect>,<text font-size="16.80" x="1074.5" y="113.8"><tspan x="1074.4560000000001" y="113.83999999999999">North America</tspan></text></g><g class="legendMark"><rect x="1061.4560000000001" y="119.69999999999999" width="123.54399999999998" height="21.799999999999997" fill="#fff" opacity="0"></rect>,<rect x="1061.4560000000001" y="126.19999999999999" width="8" height="8" fill="#69c487"></rect>,<text font-size="16.80" x="1074.5" y="135.6"><tspan x="1074.4560000000001" y="135.64">South America</tspan></text></g></g><line x1="1061.4560000000001" y1="146" x2="1180" y2="146" stroke="#ccc"></line><g class="clickable"><g class="ConnectedScatterLegend"><rect x="1061.4560000000001" y="155" width="123.54399999999998" height="16.799999999999997" fill="#fff" opacity="0"></rect><text font-size="16.80" x="1061.5" y="168.4" fill="#333"><tspan x="1061.4560000000001" y="168.44">1801</tspan></text><text font-size="16.80" x="1147.4" y="168.4" fill="#333"><tspan x="1147.368" y="168.44">2010</tspan></text><line x1="1104.0880000000002" y1="162.9" x2="1142.368" y2="162.9" stroke="#666" stroke-width="1"></line><circle cx="1104.0880000000002" cy="162.9" r="2" fill="#666" stroke="#ccc" stroke-width="0.2"></circle><circle cx="1116.8480000000002" cy="162.9" r="2" fill="#666" stroke="#ccc" stroke-width="0.2"></circle><circle cx="1129.608" cy="162.9" r="2" fill="#666" stroke="#ccc" stroke-width="0.2"></circle><polygon points="1139.368,167.9 1142.368,159.9 1145.368,165.9" cx="1142.368" cy="162.9" r="3" fill="#666" stroke="#ccc" stroke-width="0.2" transform="rotate(90, 1142.368, 162.9)"></polygon></g></g></g></g></svg>