<svg xmlns="http://www.w3.org/2000/svg" version="1.1" style="font-family: 'Helvetica Neue', Helvetica, Arial, sans-serif; font-size: 18px; background-color: white; text-rendering: optimizeLegibility; -webkit-font-smoothing: antialiased;" width="850" height="600"><g class="ChartTab"><g class="HeaderView"><g opacity="0.8" transform="translate(770, 15) scale(0.31)"><a xmlns:xlink="http://www.w3.org/1999/xlink" xlink:href="https://ourworldindata.org" target="_blank"><g><rect x="0" y="0" fill="#1B2543" width="211.2" height="130.1"/><rect x="0" y="112.2" fill="#E63912" width="211.2" height="17.9"/><g><rect x="1.2" y="12.3" fill="none" width="210.2" height="99.2"/><path fill="#FFFFFF" d="M37.8,32.2c0,12.7-7.7,19.4-17.1,19.4c-9.7,0-16.6-7.5-16.6-18.7c0-11.7,7.3-19.3,17.1-19.3 C31.3,13.7,37.8,21.3,37.8,32.2z M9.2,32.8c0,7.9,4.3,14.9,11.8,14.9c7.5,0,11.8-6.9,11.8-15.3c0-7.3-3.8-14.9-11.8-14.9 C13.1,17.5,9.2,24.8,9.2,32.8z"/><path fill="#FFFFFF" d="M62.7,43.8c0,2.7,0.1,5.1,0.2,7.2h-4.3l-0.3-4.3h-0.1c-1.3,2.1-4,4.9-8.8,4.9c-4.2,0-9.1-2.3-9.1-11.6 V24.6h4.8v14.6c0,5,1.5,8.4,5.9,8.4c3.2,0,5.5-2.2,6.3-4.4c0.3-0.7,0.4-1.6,0.4-2.5V24.6h4.8V43.8z"/><path fill="#FFFFFF" d="M67.3,32.8c0-3.1-0.1-5.8-0.2-8.2h4.2l0.2,5.2h0.2c1.2-3.5,4.1-5.8,7.3-5.8c0.5,0,0.9,0.1,1.4,0.2v4.5 c-0.5-0.1-1-0.2-1.6-0.2c-3.4,0-5.8,2.6-6.5,6.2c-0.1,0.7-0.2,1.4-0.2,2.2V51h-4.8V32.8z"/><path fill="#FFFFFF" d="M95.4,51l-9.4-36.8h5l4.4,18.6c1.1,4.6,2.1,9.2,2.7,12.7h0.1c0.6-3.7,1.8-8,3-12.8l4.9-18.5h5l4.5,18.7 c1,4.4,2,8.7,2.6,12.6h0.1c0.8-4,1.8-8.1,3-12.7l4.9-18.5h4.9L120.6,51h-5L111,31.9c-1.1-4.7-1.9-8.3-2.4-12h-0.1 c-0.7,3.7-1.5,7.3-2.8,12L100.4,51H95.4z"/><path fill="#FFFFFF" d="M154.9,37.6c0,9.8-6.8,14-13.2,14c-7.2,0-12.7-5.2-12.7-13.6c0-8.8,5.8-14,13.1-14 C149.8,24,154.9,29.5,154.9,37.6z M133.9,37.9c0,5.8,3.3,10.1,8,10.1c4.6,0,8-4.3,8-10.3c0-4.5-2.2-10.1-7.9-10.1 C136.3,27.6,133.9,32.8,133.9,37.9z"/><path fill="#FFFFFF" d="M158.2,32.8c0-3.1-0.1-5.8-0.2-8.2h4.2l0.2,5.2h0.2c1.2-3.5,4.1-5.8,7.3-5.8c0.5,0,0.9,0.1,1.4,0.2v4.5 c-0.5-0.1-1-0.2-1.6-0.2c-3.4,0-5.8,2.6-6.5,6.2c-0.1,0.7-0.2,1.4-0.2,2.2V51h-4.8V32.8z"/><path fill="#FFFFFF" d="M173.5,12.3h4.8V51h-4.8V12.3z"/><path fill="#FFFFFF" d="M206.5,12.3v31.9c0,2.3,0.1,5,0.2,6.8h-4.3l-0.2-4.6H202c-1.5,2.9-4.7,5.2-9,5.2 c-6.4,0-11.3-5.4-11.3-13.4c-0.1-8.8,5.4-14.2,11.9-14.2c4,0,6.8,1.9,8,4h0.1V12.3H206.5z M201.7,35.4c0-0.6-0.1-1.4-0.2-2 c-0.7-3.1-3.3-5.6-6.9-5.6c-5,0-7.9,4.4-7.9,10.2c0,5.3,2.6,9.8,7.8,9.8c3.2,0,6.2-2.1,7.1-5.7c0.2-0.7,0.2-1.3,0.2-2.1V35.4z"/><path fill="#FFFFFF" d="M42.8,64c0.1,1.6-1.1,2.9-3.1,2.9c-1.7,0-2.9-1.3-2.9-2.9c0-1.7,1.3-3,3-3C41.7,61,42.8,62.3,42.8,64z M37.4,97.8V71.4h4.8v26.4H37.4z"/><path fill="#FFFFFF" d="M47.5,78.6c0-2.7-0.1-5-0.2-7.1h4.3l0.3,4.4h0.1c1.3-2.5,4.4-5,8.8-5c3.7,0,9.4,2.2,9.4,11.2v15.8h-4.8 V82.6c0-4.3-1.6-7.8-6.1-7.8c-3.2,0-5.6,2.2-6.5,4.9c-0.2,0.6-0.3,1.4-0.3,2.2v15.9h-4.8V78.6z"/><path fill="#FFFFFF" d="M84,61.6c2.9-0.4,6.3-0.8,10.1-0.8c6.8,0,11.7,1.6,14.9,4.6c3.3,3,5.2,7.3,5.2,13.2c0,6-1.9,10.9-5.3,14.3 c-3.4,3.4-9.1,5.3-16.3,5.3c-3.4,0-6.2-0.2-8.6-0.4V61.6z M88.8,94.1c1.2,0.2,3,0.3,4.8,0.3c10.2,0,15.7-5.7,15.7-15.6 c0.1-8.7-4.9-14.2-14.9-14.2c-2.5,0-4.3,0.2-5.6,0.5V94.1z"/><path fill="#FFFFFF" d="M132.1,97.8l-0.4-3.3h-0.2c-1.5,2.1-4.3,3.9-8.1,3.9c-5.4,0-8.1-3.8-8.1-7.6c0-6.4,5.7-9.9,15.9-9.8v-0.5 c0-2.2-0.6-6.1-6-6.1c-2.5,0-5,0.8-6.9,2l-1.1-3.2c2.2-1.4,5.4-2.3,8.7-2.3c8.1,0,10.1,5.5,10.1,10.8v9.9c0,2.3,0.1,4.5,0.4,6.3 H132.1z M131.4,84.4c-5.3-0.1-11.2,0.8-11.2,5.9c0,3.1,2.1,4.6,4.5,4.6c3.4,0,5.6-2.2,6.4-4.4c0.2-0.5,0.3-1,0.3-1.5V84.4z"/><path fill="#FFFFFF" d="M146.6,63.9v7.6h6.9v3.7h-6.9v14.2c0,3.3,0.9,5.1,3.6,5.1c1.3,0,2.2-0.2,2.8-0.3l0.2,3.6 c-0.9,0.4-2.4,0.7-4.3,0.7c-2.2,0-4-0.7-5.2-2c-1.4-1.4-1.9-3.8-1.9-6.9V75.1h-4.1v-3.7h4.1v-6.3L146.6,63.9z"/><path fill="#FFFFFF" d="M171.4,97.8l-0.4-3.3h-0.2c-1.5,2.1-4.3,3.9-8.1,3.9c-5.4,0-8.1-3.8-8.1-7.6c0-6.4,5.7-9.9,15.9-9.8v-0.5 c0-2.2-0.6-6.1-6-6.1c-2.5,0-5,0.8-6.9,2l-1.1-3.2c2.2-1.4,5.4-2.3,8.7-2.3c8.1,0,10.1,5.5,10.1,10.8v9.9c0,2.3,0.1,4.5,0.4,6.3 H171.4z M170.7,84.4c-5.3-0.1-11.2,0.8-11.2,5.9c0,3.1,2.1,4.6,4.5,4.6c3.4,0,5.6-2.2,6.4-4.4c0.2-0.5,0.3-1,0.3-1.5V84.4z"/></g></g></a></g><a href="https://ourworldindata.org/grapher/gdp-per-capita-vs-energy-use-per-capita" target="_blank"><text font-size="27.00" x="15.0" y="36.6" fill="#555"><tspan x="15" y="36.6">GDP per capita vs. energy use per capita, 2015</tspan></text></a><text font-size="14.40" x="15.0" y="55.5" fill="#666"><tspan x="15" y="55.519999999999996">Annual energy use per capita, measured in kilowatt-hours per person vs. gross domestic product (GDP) per capita,</tspan><tspan x="15" y="71.36">measured as 2011 international-$</tspan></text></g><g><g class="AxisBoxView"><g class="HorizontalAxis"><text font-size="12.60" x="303.4" y="554.0"><tspan x="303.449" y="553.98">Energy use per capita</tspan></text><text x="147.4" y="533.9" fill="#666" text-anchor="middle" font-size="16.2">1,000 kWh</text><text x="390.5" y="533.9" fill="#666" text-anchor="middle" font-size="16.2">10,000 kWh</text><text x="633.7" y="533.9" fill="#666" text-anchor="middle" font-size="16.2">100,000 kWh</text></g><g class="VerticalAxis"><text font-size="12.60" x="-471.9" y="25.1" transform="rotate(-90)"><tspan x="-471.86400000000003" y="25.080000000000002">GDP per capita, PPP (constant 2011 international $)</tspan></text><text x="105.64" y="489" fill="#666" dominant-baseline="middle" text-anchor="end" font-size="16.2">$1,000</text><text x="105.64" y="298.9" fill="#666" dominant-baseline="middle" text-anchor="end" font-size="16.2">$10,000</text><text x="105.64" y="108.8" fill="#666" dominant-baseline="middle" text-anchor="end" font-size="16.2">$100,000</text></g><g class="AxisGridLines"><line x1="110.64" y1="489" x2="715.00" y2="489" stroke="#ddd" stroke-dasharray="3,2"></line><line x1="110.64" y1="298.9" x2="715.00" y2="298.9" stroke="#ddd" stroke-dasharray="3,2"></line><line x1="110.64" y1="108.8" x2="715.00" y2="108.8" stroke="#ddd" stroke-dasharray="3,2"></line></g><g class="AxisGridLines"><line x1="147.4" y1="512.70" x2="147.4" y2="93.90" stroke="#ddd" stroke-dasharray="3,2"></line><line x1="390.5" y1="512.70" x2="390.5" y2="93.90" stroke="#ddd" stroke-dasharray="3,2"></line><line x1="633.7" y1="512.70" x2="633.7" y2="93.90" stroke="#ddd" stroke-dasharray="3,2"></line></g></g><g clip-path="url(#scatterBounds-1)" class="PointsWithLabels clickable"><rect x="110.64000000000001" y="93.9" width="604.36" height="418.8" fill="rgba(255,255,255,0)"></rect><defs><clipPath id="scatterBounds-1"><rect x="100.64000000000001" y="83.9" width="624.36" height="438.8"></rect></clipPath></defs><circle cx="491" cy="273" r="17.841241161527712" fill="#d14e5b" opacity="0.8"></circle><circle cx="358" cy="344" r="17.285221820094993" fill="#d14e5b" opacity="0.8"></circle><circle cx="609" cy="161" r="8.772559673097689" fill="#4d824b" opacity="0.8"></circle><circle cx="393" cy="295" r="7.773217855834794" fill="#d14e5b" opacity="0.8"></circle><circle cx="448" cy="267" r="7.035115782677391" fill="#69c487" opacity="0.8"></circle><circle cx="330" cy="361" r="6.751522699236608" fill="#d14e5b" opacity="0.8"></circle><circle cx="378" cy="345" r="6.537113024872974" fill="#5675c1" opacity="0.8"></circle><circle cx="247" cy="394" r="6.237484572457568" fill="#d14e5b" opacity="0.8"></circle><circle cx="575" cy="226" r="6.013464055053132" fill="#ffd336" opacity="0.8"></circle><circle cx="536" cy="189" r="5.692313910443122" fill="#d14e5b" opacity="0.8"></circle><circle cx="448" cy="256" r="5.508759590696768" fill="#4d824b" opacity="0.8"></circle><circle cx="328" cy="329" r="5.084882780857178" fill="#d14e5b" opacity="0.8"></circle><circle cx="363" cy="345" r="4.911936322833408" fill="#d14e5b" opacity="0.8"></circle><circle cx="332" cy="453" r="4.857341304754939" fill="#5675c1" opacity="0.8"></circle><circle cx="384" cy="298" r="4.785734623597066" fill="#5675c1" opacity="0.8"></circle><circle cx="548" cy="177" r="4.698349171898802" fill="#ffd336" opacity="0.8"></circle><circle cx="523" cy="260" r="4.56322308233712" fill="#d14e5b" opacity="0.8"></circle><circle cx="459" cy="228" r="4.5365189459305135" fill="#d14e5b" opacity="0.8"></circle><circle cx="306" cy="512" r="4.434699962476724" fill="#5675c1" opacity="0.8"></circle><circle cx="478" cy="264" r="4.403837572625172" fill="#d14e5b" opacity="0.8"></circle><circle cx="544" cy="189" r="4.230342941416398" fill="#ffd336" opacity="0.8"></circle><circle cx="513" cy="187" r="4.213714250078153" fill="#ffd336" opacity="0.8"></circle><circle cx="502" cy="197" r="4.155811132084613" fill="#ffd336" opacity="0.8"></circle><circle cx="512" cy="281" r="3.8635944305296652" fill="#5675c1" opacity="0.8"></circle><circle cx="328" cy="413" r="3.808343076619537" fill="#5675c1" opacity="0.8"></circle><circle cx="302" cy="355" r="3.807327482855475" fill="#d14e5b" opacity="0.8"></circle><circle cx="584" cy="197" r="3.79681098970983" fill="#d14e5b" opacity="0.8"></circle><circle cx="370" cy="277" r="3.7781523422071044" fill="#69c487" opacity="0.8"></circle><circle cx="506" cy="202" r="3.743544800190516" fill="#ffd336" opacity="0.8"></circle><circle cx="496" cy="323" r="3.670174491485865" fill="#ffd336" opacity="0.8"></circle><circle cx="336" cy="402" r="3.6456736284462696" fill="#5675c1" opacity="0.8"></circle><circle cx="480" cy="245" r="3.5669178668573824" fill="#69c487" opacity="0.8"></circle><circle cx="502" cy="222" r="3.4632802138303833" fill="#ffd336" opacity="0.8"></circle><circle cx="435" cy="272" r="3.4178604701118402" fill="#5675c1" opacity="0.8"></circle><circle cx="304" cy="368" r="3.382295079567054" fill="#5675c1" opacity="0.8"></circle><circle cx="620" cy="178" r="3.3496712676324876" fill="#4d824b" opacity="0.8"></circle><circle cx="443" cy="265" r="3.342133303318709" fill="#d14e5b" opacity="0.8"></circle><circle cx="344" cy="325" r="3.277306028678718" fill="#5675c1" opacity="0.8"></circle><circle cx="313" cy="420" r="3.227757376225032" fill="#d14e5b" opacity="0.8"></circle><circle cx="378" cy="285" r="3.174870910106463" fill="#69c487" opacity="0.8"></circle><circle cx="521" cy="223" r="3.164337122711296" fill="#d14e5b" opacity="0.8"></circle><circle cx="611" cy="164" r="3.1471507747102883" fill="#d14e5b" opacity="0.8"></circle><circle cx="443" cy="345" r="3.113028061507078" fill="#d14e5b" opacity="0.8"></circle><circle cx="291" cy="376" r="3.027428729849542" fill="#5675c1" opacity="0.8"></circle><circle cx="316" cy="479" r="2.9848887902033274" fill="#5675c1" opacity="0.8"></circle><circle cx="586" cy="176" r="2.913563797900952" fill="#a652ba" opacity="0.8"></circle><circle cx="336" cy="290" r="2.8402157422478087" fill="#d14e5b" opacity="0.8"></circle><circle cx="455" cy="239" r="2.8379672628195105" fill="#ffd336" opacity="0.8"></circle><circle cx="355" cy="391" r="2.826443978175815" fill="#5675c1" opacity="0.8"></circle><circle cx="293" cy="398" r="2.8205425423526798" fill="#5675c1" opacity="0.8"></circle><circle cx="342" cy="337" r="2.812346646277128" fill="#5675c1" opacity="0.8"></circle><circle cx="481" cy="231" r="2.6797758729281522" fill="#69c487" opacity="0.8"></circle><circle cx="206" cy="497" r="2.665258804022921" fill="#5675c1" opacity="0.8"></circle><circle cx="558" cy="172" r="2.6443722575610176" fill="#ffd336" opacity="0.8"></circle><circle cx="563" cy="228" r="2.6351237282019437" fill="#d14e5b" opacity="0.8"></circle><circle cx="386" cy="325" r="2.589702513174129" fill="#4d824b" opacity="0.8"></circle><circle cx="394" cy="292" r="2.5687508971214066" fill="#69c487" opacity="0.8"></circle><circle cx="314" cy="390" r="2.5503888250792706" fill="#d14e5b" opacity="0.8"></circle><circle cx="358" cy="382" r="2.534817067013572" fill="#5675c1" opacity="0.8"></circle><circle cx="269" cy="420" r="2.4951572707957905" fill="#5675c1" opacity="0.8"></circle><circle cx="376" cy="436" r="2.489283402551209" fill="#5675c1" opacity="0.8"></circle><circle cx="488" cy="226" r="2.400018451109677" fill="#ffd336" opacity="0.8"></circle><circle cx="110" cy="440" r="2.3726309786124262" fill="#5675c1" opacity="0.8"></circle><circle cx="569" cy="181" r="2.3693851287122354" fill="#ffd336" opacity="0.8"></circle><circle cx="400" cy="292" r="2.3692912272973854" fill="#5675c1" opacity="0.8"></circle><circle cx="486" cy="218" r="2.363944304449981" fill="#ffd336" opacity="0.8"></circle><circle cx="549" cy="207" r="2.3583108578478393" fill="#ffd336" opacity="0.8"></circle><circle cx="381" cy="334" r="2.3494429426400494" fill="#69c487" opacity="0.8"></circle><circle cx="307" cy="447" r="2.3483897931623225" fill="#4d824b" opacity="0.8"></circle><circle cx="373" cy="274" r="2.344446097795726" fill="#4d824b" opacity="0.8"></circle><circle cx="500" cy="223" r="2.3258369359664472" fill="#ffd336" opacity="0.8"></circle><circle cx="472" cy="275" r="2.3209075091300293" fill="#ffd336" opacity="0.8"></circle><circle cx="314" cy="432" r="2.309466119904541" fill="#5675c1" opacity="0.8"></circle><circle cx="578" cy="173" r="2.3064163515523464" fill="#ffd336" opacity="0.8"></circle><circle cx="449" cy="256" r="2.3057940576061213" fill="#d14e5b" opacity="0.8"></circle><circle cx="520" cy="254" r="2.3040257518452543" fill="#ffd336" opacity="0.8"></circle><circle cx="547" cy="176" r="2.250208072637809" fill="#ffd336" opacity="0.8"></circle><circle cx="623" cy="143" r="2.2381542762641087" fill="#d14e5b" opacity="0.8"></circle><circle cx="353" cy="368" r="2.231076560775189" fill="#4d824b" opacity="0.8"></circle><circle cx="514" cy="202" r="2.21790815425132" fill="#d14e5b" opacity="0.8"></circle><circle cx="521" cy="155" r="2.214924473225691" fill="#ffd336" opacity="0.8"></circle><circle cx="502" cy="255" r="2.193233879154129" fill="#ffd336" opacity="0.8"></circle><circle cx="478" cy="160" r="2.1892478321184385" fill="#d14e5b" opacity="0.8"></circle><circle cx="291" cy="408" r="2.184444805728763" fill="#d14e5b" opacity="0.8"></circle><circle cx="381" cy="311" r="2.163899081936713" fill="#69c487" opacity="0.8"></circle><circle cx="398" cy="312" r="2.1517923025831807" fill="#d14e5b" opacity="0.8"></circle><circle cx="323" cy="464" r="2.143135683094979" fill="#5675c1" opacity="0.8"></circle><circle cx="360" cy="318" r="2.1371855523606147" fill="#4d824b" opacity="0.8"></circle><circle cx="354" cy="356" r="2.1229818524593758" fill="#4d824b" opacity="0.8"></circle><circle cx="515" cy="173" r="2.0993361024262707" fill="#ffd336" opacity="0.8"></circle><circle cx="361" cy="392" r="2.0933668714361136" fill="#d14e5b" opacity="0.8"></circle><circle cx="522" cy="213" r="2.0925648783235498" fill="#ffd336" opacity="0.8"></circle><circle cx="594" cy="186" r="2.0886822943992613" fill="#ffd336" opacity="0.8"></circle><circle cx="579" cy="126" r="2.082130512790419" fill="#d14e5b" opacity="0.8"></circle><circle cx="574" cy="265" r="2.0784369556352225" fill="#d14e5b" opacity="0.8"></circle><circle cx="592" cy="146" r="2.0648576939682584" fill="#ffd336" opacity="0.8"></circle><circle cx="409" cy="265" r="2.0574305581066756" fill="#4d824b" opacity="0.8"></circle><circle cx="516" cy="149" r="2.044510143217283" fill="#ffd336" opacity="0.8"></circle><circle cx="564" cy="196" r="2.0375104687494736" fill="#a652ba" opacity="0.8"></circle><circle cx="474" cy="239" r="2.0301363355102584" fill="#ffd336" opacity="0.8"></circle><circle cx="341" cy="347" r="2.0270154252990946" fill="#5675c1" opacity="0.8"></circle><circle cx="437" cy="276" r="2.027007475011997" fill="#d14e5b" opacity="0.8"></circle><circle cx="423" cy="307" r="2.024394774524347" fill="#d14e5b" opacity="0.8"></circle><circle cx="489" cy="291" r="1.993081778946798" fill="#ffd336" opacity="0.8"></circle><circle cx="414" cy="238" r="1.9897274333140436" fill="#4d824b" opacity="0.8"></circle><circle cx="398" cy="360" r="1.979058673517367" fill="#ffd336" opacity="0.8"></circle><circle cx="440" cy="242" r="1.9736300329016316" fill="#69c487" opacity="0.8"></circle><circle cx="498" cy="217" r="1.9662863793092755" fill="#ffd336" opacity="0.8"></circle><circle cx="384" cy="290" r="1.9639252149834734" fill="#ffd336" opacity="0.8"></circle><circle cx="408" cy="315" r="1.9567931669225862" fill="#d14e5b" opacity="0.8"></circle><circle cx="638" cy="139" r="1.9473672711022831" fill="#d14e5b" opacity="0.8"></circle><circle cx="598" cy="184" r="1.9472671297376598" fill="#d14e5b" opacity="0.8"></circle><circle cx="470" cy="288" r="1.9431265804965399" fill="#d14e5b" opacity="0.8"></circle><circle cx="404" cy="316" r="1.9361520569776438" fill="#4d824b" opacity="0.8"></circle><circle cx="377" cy="299" r="1.9140678426320366" fill="#5675c1" opacity="0.8"></circle><circle cx="488" cy="229" r="1.903242394560347" fill="#ffd336" opacity="0.8"></circle><circle cx="430" cy="263" r="1.8939823486736036" fill="#5675c1" opacity="0.8"></circle><circle cx="431" cy="278" r="1.893651949778108" fill="#ffd336" opacity="0.8"></circle><circle cx="528" cy="210" r="1.8921542389130035" fill="#ffd336" opacity="0.8"></circle><circle cx="715" cy="93" r="1.8879876356440157" fill="#d14e5b" opacity="0.8"></circle><circle cx="511" cy="255" r="1.8643427163551847" fill="#5675c1" opacity="0.8"></circle><circle cx="655" cy="175" r="1.8508032374669088" fill="#d14e5b" opacity="0.8"></circle><circle cx="688" cy="204" r="1.8494289307476166" fill="#4d824b" opacity="0.8"></circle><circle cx="557" cy="215" r="1.848393656975408" fill="#ffd336" opacity="0.8"></circle><circle cx="417" cy="246" r="1.8472613405527727" fill="#5675c1" opacity="0.8"></circle><circle cx="463" cy="207" r="1.835971629890139" fill="#ffd336" opacity="0.8"></circle><circle cx="452" cy="263" r="1.8035889035123711" fill="#ffd336" opacity="0.8"></circle><circle cx="430" cy="266" r="1.797517895399605" fill="#69c487" opacity="0.8"></circle><circle cx="605" cy="112" r="1.7969460879351185" fill="#ffd336" opacity="0.8"></circle><circle cx="469" cy="196" r="1.789869815675426" fill="#ffd336" opacity="0.8"></circle><circle cx="634" cy="133" r="1.7898189671228266" fill="#d14e5b" opacity="0.8"></circle><circle cx="708" cy="179" r="1.7841241161527712" fill="#ffd336" opacity="0.8"></circle><circle cx="477" cy="263" r="1.762418075019451" fill="#000" opacity="0.8"></circle><circle cx="572" cy="269" r="1.762418075019451" fill="#000" opacity="0.8"></circle><circle cx="502" cy="225" r="1.762418075019451" fill="#000" opacity="0.8"></circle><circle cx="395" cy="314" r="1.762418075019451" fill="#000" opacity="0.8"></circle><circle cx="486" cy="264" r="1.762418075019451" fill="#000" opacity="0.8"></circle><circle cx="473" cy="282" r="1.762418075019451" fill="#000" opacity="0.8"></circle><circle cx="474" cy="281" r="1.762418075019451" fill="#000" opacity="0.8"></circle><circle cx="533" cy="189" r="1.762418075019451" fill="#000" opacity="0.8"></circle><circle cx="528" cy="211" r="1.762418075019451" fill="#000" opacity="0.8"></circle><circle cx="526" cy="248" r="1.762418075019451" fill="#000" opacity="0.8"></circle><circle cx="524" cy="246" r="1.762418075019451" fill="#000" opacity="0.8"></circle><circle cx="529" cy="194" r="1.762418075019451" fill="#000" opacity="0.8"></circle><circle cx="349" cy="379" r="1.762418075019451" fill="#000" opacity="0.8"></circle><circle cx="319" cy="429" r="1.762418075019451" fill="#000" opacity="0.8"></circle><circle cx="567" cy="178" r="1.762418075019451" fill="#000" opacity="0.8"></circle><circle cx="454" cy="286" r="1.762418075019451" fill="#000" opacity="0.8"></circle><circle cx="438" cy="302" r="1.762418075019451" fill="#000" opacity="0.8"></circle><circle cx="353" cy="359" r="1.762418075019451" fill="#000" opacity="0.8"></circle><circle cx="304" cy="411" r="1.762418075019451" fill="#000" opacity="0.8"></circle><circle cx="325" cy="390" r="1.762418075019451" fill="#000" opacity="0.8"></circle><circle cx="494" cy="265" r="1.762418075019451" fill="#000" opacity="0.8"></circle><circle cx="437" cy="267" r="1.762418075019451" fill="#000" opacity="0.8"></circle><circle cx="433" cy="270" r="1.762418075019451" fill="#000" opacity="0.8"></circle><circle cx="437" cy="268" r="1.762418075019451" fill="#000" opacity="0.8"></circle><circle cx="300" cy="417" r="1.762418075019451" fill="#000" opacity="0.8"></circle><circle cx="436" cy="304" r="1.762418075019451" fill="#000" opacity="0.8"></circle><circle cx="360" cy="340" r="1.762418075019451" fill="#000" opacity="0.8"></circle><circle cx="496" cy="253" r="1.762418075019451" fill="#000" opacity="0.8"></circle><circle cx="447" cy="288" r="1.762418075019451" fill="#000" opacity="0.8"></circle><circle cx="447" cy="287" r="1.762418075019451" fill="#000" opacity="0.8"></circle><circle cx="441" cy="296" r="1.762418075019451" fill="#000" opacity="0.8"></circle><circle cx="610" cy="163" r="1.762418075019451" fill="#000" opacity="0.8"></circle><circle cx="556" cy="188" r="1.762418075019451" fill="#000" opacity="0.8"></circle><circle cx="571" cy="182" r="1.762418075019451" fill="#000" opacity="0.8"></circle><circle cx="349" cy="386" r="1.762418075019451" fill="#000" opacity="0.8"></circle><circle cx="348" cy="350" r="1.762418075019451" fill="#000" opacity="0.8"></circle><circle cx="348" cy="350" r="1.762418075019451" fill="#000" opacity="0.8"></circle><circle cx="366" cy="386" r="1.762418075019451" fill="#000" opacity="0.8"></circle><circle cx="366" cy="386" r="1.762418075019451" fill="#000" opacity="0.8"></circle><circle cx="366" cy="386" r="1.762418075019451" fill="#000" opacity="0.8"></circle><circle cx="490" cy="264" r="1.762418075019451" fill="#000" opacity="0.8"></circle><circle cx="475" cy="266" r="1.762418075019451" fill="#000" opacity="0.8"></circle><circle cx="426" cy="306" r="1.762418075019451" fill="#ffd336" opacity="0.8"></circle><circle cx="287" cy="408" r="1.762418075019451" fill="#d14e5b" opacity="0.8"></circle><text x="491" y="254.1587588384723" font-size="14.3" font-family="Arial Narrow, Arial, sans-serif" fill="#666">China</text><text x="358" y="325.714778179905" font-size="14.09547192152843" font-family="Arial Narrow, Arial, sans-serif" fill="#666">India</text><text x="609" y="151.2274403269023" font-size="11.772566897420887" font-family="Arial Narrow, Arial, sans-serif" fill="#666">United States</text><text x="393" y="286.2267821441652" font-size="11.599413961644713" font-family="Arial Narrow, Arial, sans-serif" fill="#666">Indonesia</text><text x="448" y="258.9648842173226" font-size="11.484954622564459" font-family="Arial Narrow, Arial, sans-serif" fill="#666">Brazil</text><text x="330" y="353.2484773007634" font-size="11.444011341744167" font-family="Arial Narrow, Arial, sans-serif" fill="#666">Pakistan</text><text x="378" y="337.46288697512705" font-size="11.414174462840796" font-family="Arial Narrow, Arial, sans-serif" fill="#666">Nigeria</text><text x="247" y="386.76251542754244" font-size="11.3740915847561" font-family="Arial Narrow, Arial, sans-serif" fill="#666">Bangladesh</text><text x="575" y="218.98653594494687" font-size="11.345351626523014" font-family="Arial Narrow, Arial, sans-serif" fill="#666">Russia</text><text x="536" y="182.30768608955688" font-size="11.305984200318086" font-family="Arial Narrow, Arial, sans-serif" fill="#666">Japan</text><text x="332" y="447.1426586952451" font-size="11.213739991278558" font-family="Arial Narrow, Arial, sans-serif" fill="#666">Ethiopia</text><text x="459" y="222.46348105406952" font-size="11.182179966127975" font-family="Arial Narrow, Arial, sans-serif" fill="#666">Turkey</text><text x="306" y="506.5653000375233" font-size="11.172614440736488" font-family="Arial Narrow, Arial, sans-serif" fill="#666">Democratic Republic of Congo</text><text x="502" y="191.8441888679154" font-size="11.147525707025286" font-family="Arial Narrow, Arial, sans-serif" fill="#666">Italy</text><text x="512" y="276.13640556947036" font-size="11.12298563518907" font-family="Arial Narrow, Arial, sans-serif" fill="#666">South Africa</text><text x="328" y="408.1916569233804" font-size="11.118546722536308" font-family="Arial Narrow, Arial, sans-serif" fill="#666">Tanzania</text><text x="584" y="192.20318901029017" font-size="11.11762829575095" font-family="Arial Narrow, Arial, sans-serif" fill="#666">South Korea</text><text x="370" y="272.2218476577929" font-size="11.116148201700142" font-family="Arial Narrow, Arial, sans-serif" fill="#666">Colombia</text><text x="496" y="318.32982550851415" font-size="11.107726070124592" font-family="Arial Narrow, Arial, sans-serif" fill="#666">Ukraine</text><text x="502" y="217.5367197861696" font-size="11.092270785588937" font-family="Arial Narrow, Arial, sans-serif" fill="#666">Poland</text><text x="620" y="173.6503287323675" font-size="11.084165348383431" font-family="Arial Narrow, Arial, sans-serif" fill="#666">Canada</text><text x="443" y="340.88697193849293" font-size="11.06814999190375" font-family="Arial Narrow, Arial, sans-serif" fill="#666">Uzbekistan</text><text x="291" y="371.97257127015047" font-size="11.062645722634228" font-family="Arial Narrow, Arial, sans-serif" fill="#666">Ghana</text><text x="316" y="475.01511120979666" font-size="11.059967372222271" font-family="Arial Narrow, Arial, sans-serif" fill="#666">Mozambique</text><text x="336" y="286.15978425775216" font-size="11.0511422653694" font-family="Arial Narrow, Arial, sans-serif" fill="#666">Sri Lanka</text><text x="455" y="235.16203273718048" font-size="11.05100856675021" font-family="Arial Narrow, Arial, sans-serif" fill="#666">Romania</text><text x="355" y="387.1735560218242" font-size="11.050325033439831" font-family="Arial Narrow, Arial, sans-serif" fill="#666">Cote d'Ivoire</text><text x="206" y="493.3347411959771" font-size="11.041055438957999" font-family="Arial Narrow, Arial, sans-serif" fill="#666">Niger</text><text x="558" y="168.35562774243897" font-size="11.039894098383117" font-family="Arial Narrow, Arial, sans-serif" fill="#666">Netherlands</text><text x="269" y="416.5048427292042" font-size="11.03186319449731" font-family="Arial Narrow, Arial, sans-serif" fill="#666">Senegal</text><text x="376" y="432.5107165974488" font-size="11.031556596545032" font-family="Arial Narrow, Arial, sans-serif" fill="#666">Zimbabwe</text><text x="110" y="436.62736902138755" font-size="11.025617372724023" font-family="Arial Narrow, Arial, sans-serif" fill="#666">South Sudan</text><text x="549" y="203.64168914215213" font-size="11.02490792090397" font-family="Arial Narrow, Arial, sans-serif" fill="#666">Czech Republic</text><text x="307" y="443.65161020683774" font-size="11.024418926963989" font-family="Arial Narrow, Arial, sans-serif" fill="#666">Haiti</text><text x="472" y="271.67909249086995" font-size="11.02307513212482" font-family="Arial Narrow, Arial, sans-serif" fill="#666">Serbia</text><text x="314" y="428.6905338800955" font-size="11.022520348780573" font-family="Arial Narrow, Arial, sans-serif" fill="#666">Benin</text><text x="353" y="364.7689234392248" font-size="11.01879304660958" font-family="Arial Narrow, Arial, sans-serif" fill="#666">Honduras</text><text x="521" y="151.7850755267743" font-size="11.018041031031226" font-family="Arial Narrow, Arial, sans-serif" fill="#666">Switzerland</text><text x="381" y="307.83610091806327" font-size="11.015701265130284" font-family="Arial Narrow, Arial, sans-serif" fill="#666">Paraguay</text><text x="323" y="460.85686431690505" font-size="11.014764770176434" font-family="Arial Narrow, Arial, sans-serif" fill="#666">Togo</text><text x="579" y="122.91786948720959" font-size="11.012065481474341" font-family="Arial Narrow, Arial, sans-serif" fill="#666">Singapore</text><text x="574" y="261.9215630443648" font-size="11.011904555550583" font-family="Arial Narrow, Arial, sans-serif" fill="#666">Turkmenistan</text><text x="489" y="288.0069182210532" font-size="11.008265280156124" font-family="Arial Narrow, Arial, sans-serif" fill="#666">Bosnia and Herzegovina</text><text x="638" y="136.05263272889772" font-size="11.006378903631987" font-family="Arial Narrow, Arial, sans-serif" fill="#666">Kuwait</text><text x="687.3799750719627" y="104.90399399523402" font-size="11.00399399523401" font-family="Arial Narrow, Arial, sans-serif" fill="#666">Qatar</text><text x="463" y="204.16402837010986" font-size="11.001965516121977" font-family="Arial Narrow, Arial, sans-serif" fill="#666">Cyprus</text><text x="605" y="109.20305391206489" font-size="11.000480835218555" font-family="Arial Narrow, Arial, sans-serif" fill="#666">Luxembourg</text><text x="672.36" y="176.21587588384722" font-size="11" font-family="Arial Narrow, Arial, sans-serif" fill="#666">Iceland</text><text x="438" y="299.23758192498053" font-size="10.999193852761895" font-family="Arial Narrow, Arial, sans-serif" fill="#666">IDA &amp; IBRD total</text><text x="287" y="405.23758192498053" font-size="10.999193852761895" font-family="Arial Narrow, Arial, sans-serif" fill="#666">Yemen</text></g><g style="cursor: pointer;" class="ScatterColorLegend clickable"><g class="legendMark"><rect x="735" y="91.4" width="43.256" height="17.6" fill="#fff" opacity="0"></rect>,<rect x="735" y="96.9" width="6" height="6" fill="#5675c1"></rect>,<text font-size="12.60" x="746.0" y="104.0"><tspan x="746" y="103.98">Africa</tspan></text></g><g class="legendMark"><rect x="735" y="109" width="35.57" height="17.6" fill="#fff" opacity="0"></rect>,<rect x="735" y="114.5" width="6" height="6" fill="#d14e5b"></rect>,<text font-size="12.60" x="746.0" y="121.6"><tspan x="746" y="121.58">Asia</tspan></text></g><g class="legendMark"><rect x="735" y="126.60000000000002" width="51.824" height="17.6" fill="#fff" opacity="0"></rect>,<rect x="735" y="132.10000000000002" width="6" height="6" fill="#ffd336"></rect>,<text font-size="12.60" x="746.0" y="139.2"><tspan x="746" y="139.18">Europe</tspan></text></g><g class="legendMark"><rect x="735" y="144.20000000000002" width="91.64" height="17.6" fill="#fff" opacity="0"></rect>,<rect x="735" y="149.70000000000002" width="6" height="6" fill="#4d824b"></rect>,<text font-size="12.60" x="746.0" y="156.8"><tspan x="746" y="156.78">North America</tspan></text></g><g class="legendMark"><rect x="735" y="161.8" width="58.124" height="17.6" fill="#fff" opacity="0"></rect>,<rect x="735" y="167.3" width="6" height="6" fill="#a652ba"></rect>,<text font-size="12.60" x="746.0" y="174.4"><tspan x="746" y="174.38">Oceania</tspan></text></g><g class="legendMark"><rect x="735" y="179.4" width="93.908" height="17.6" fill="#fff" opacity="0"></rect>,<rect x="735" y="184.9" width="6" height="6" fill="#69c487"></rect>,<text font-size="12.60" x="746.0" y="192.0"><tspan x="746" y="191.98">South America</tspan></text></g></g></g><g style="fill: #777;" class="SourcesFooter"><g style="fill: #777;" class="clickable"><text font-size="12.60" x="15.0" y="581.6"><tspan x="15" y="581.58">Source: World Bank – WDI</tspan></text></g><text font-size="12.60" x="649.0" y="581.6"><tspan x="649.024" y="581.58"><a target='_blank' style='fill: #777;' href='https://ourworldindata.org'>OurWorldInData.org</a> • <a style="fill: #777;" href="http://creativecommons.org/licenses/by-sa/4.0/deed.en_US" target="_blank">CC BY-SA</a></tspan></text></g></g></svg>