<svg xmlns="http://www.w3.org/2000/svg" version="1.1" style="font-family: 'Helvetica Neue', Helvetica, Arial, sans-serif; font-size: 18px; background-color: white; text-rendering: optimizeLegibility; -webkit-font-smoothing: antialiased;" width="850" height="600"><g class="ChartTab"><g class="HeaderView"><g opacity="0.8" transform="translate(778, 15) scale(0.27)"><a xmlns:xlink="http://www.w3.org/1999/xlink" xlink:href="https://ourworldindata.org" target="_blank"><g><rect x="0" y="0" fill="#1B2543" width="211.2" height="130.1"/><rect x="0" y="112.2" fill="#E63912" width="211.2" height="17.9"/><g><rect x="1.2" y="12.3" fill="none" width="210.2" height="99.2"/><path fill="#FFFFFF" d="M37.8,32.2c0,12.7-7.7,19.4-17.1,19.4c-9.7,0-16.6-7.5-16.6-18.7c0-11.7,7.3-19.3,17.1-19.3 C31.3,13.7,37.8,21.3,37.8,32.2z M9.2,32.8c0,7.9,4.3,14.9,11.8,14.9c7.5,0,11.8-6.9,11.8-15.3c0-7.3-3.8-14.9-11.8-14.9 C13.1,17.5,9.2,24.8,9.2,32.8z"/><path fill="#FFFFFF" d="M62.7,43.8c0,2.7,0.1,5.1,0.2,7.2h-4.3l-0.3-4.3h-0.1c-1.3,2.1-4,4.9-8.8,4.9c-4.2,0-9.1-2.3-9.1-11.6 V24.6h4.8v14.6c0,5,1.5,8.4,5.9,8.4c3.2,0,5.5-2.2,6.3-4.4c0.3-0.7,0.4-1.6,0.4-2.5V24.6h4.8V43.8z"/><path fill="#FFFFFF" d="M67.3,32.8c0-3.1-0.1-5.8-0.2-8.2h4.2l0.2,5.2h0.2c1.2-3.5,4.1-5.8,7.3-5.8c0.5,0,0.9,0.1,1.4,0.2v4.5 c-0.5-0.1-1-0.2-1.6-0.2c-3.4,0-5.8,2.6-6.5,6.2c-0.1,0.7-0.2,1.4-0.2,2.2V51h-4.8V32.8z"/><path fill="#FFFFFF" d="M95.4,51l-9.4-36.8h5l4.4,18.6c1.1,4.6,2.1,9.2,2.7,12.7h0.1c0.6-3.7,1.8-8,3-12.8l4.9-18.5h5l4.5,18.7 c1,4.4,2,8.7,2.6,12.6h0.1c0.8-4,1.8-8.1,3-12.7l4.9-18.5h4.9L120.6,51h-5L111,31.9c-1.1-4.7-1.9-8.3-2.4-12h-0.1 c-0.7,3.7-1.5,7.3-2.8,12L100.4,51H95.4z"/><path fill="#FFFFFF" d="M154.9,37.6c0,9.8-6.8,14-13.2,14c-7.2,0-12.7-5.2-12.7-13.6c0-8.8,5.8-14,13.1-14 C149.8,24,154.9,29.5,154.9,37.6z M133.9,37.9c0,5.8,3.3,10.1,8,10.1c4.6,0,8-4.3,8-10.3c0-4.5-2.2-10.1-7.9-10.1 C136.3,27.6,133.9,32.8,133.9,37.9z"/><path fill="#FFFFFF" d="M158.2,32.8c0-3.1-0.1-5.8-0.2-8.2h4.2l0.2,5.2h0.2c1.2-3.5,4.1-5.8,7.3-5.8c0.5,0,0.9,0.1,1.4,0.2v4.5 c-0.5-0.1-1-0.2-1.6-0.2c-3.4,0-5.8,2.6-6.5,6.2c-0.1,0.7-0.2,1.4-0.2,2.2V51h-4.8V32.8z"/><path fill="#FFFFFF" d="M173.5,12.3h4.8V51h-4.8V12.3z"/><path fill="#FFFFFF" d="M206.5,12.3v31.9c0,2.3,0.1,5,0.2,6.8h-4.3l-0.2-4.6H202c-1.5,2.9-4.7,5.2-9,5.2 c-6.4,0-11.3-5.4-11.3-13.4c-0.1-8.8,5.4-14.2,11.9-14.2c4,0,6.8,1.9,8,4h0.1V12.3H206.5z M201.7,35.4c0-0.6-0.1-1.4-0.2-2 c-0.7-3.1-3.3-5.6-6.9-5.6c-5,0-7.9,4.4-7.9,10.2c0,5.3,2.6,9.8,7.8,9.8c3.2,0,6.2-2.1,7.1-5.7c0.2-0.7,0.2-1.3,0.2-2.1V35.4z"/><path fill="#FFFFFF" d="M42.8,64c0.1,1.6-1.1,2.9-3.1,2.9c-1.7,0-2.9-1.3-2.9-2.9c0-1.7,1.3-3,3-3C41.7,61,42.8,62.3,42.8,64z M37.4,97.8V71.4h4.8v26.4H37.4z"/><path fill="#FFFFFF" d="M47.5,78.6c0-2.7-0.1-5-0.2-7.1h4.3l0.3,4.4h0.1c1.3-2.5,4.4-5,8.8-5c3.7,0,9.4,2.2,9.4,11.2v15.8h-4.8 V82.6c0-4.3-1.6-7.8-6.1-7.8c-3.2,0-5.6,2.2-6.5,4.9c-0.2,0.6-0.3,1.4-0.3,2.2v15.9h-4.8V78.6z"/><path fill="#FFFFFF" d="M84,61.6c2.9-0.4,6.3-0.8,10.1-0.8c6.8,0,11.7,1.6,14.9,4.6c3.3,3,5.2,7.3,5.2,13.2c0,6-1.9,10.9-5.3,14.3 c-3.4,3.4-9.1,5.3-16.3,5.3c-3.4,0-6.2-0.2-8.6-0.4V61.6z M88.8,94.1c1.2,0.2,3,0.3,4.8,0.3c10.2,0,15.7-5.7,15.7-15.6 c0.1-8.7-4.9-14.2-14.9-14.2c-2.5,0-4.3,0.2-5.6,0.5V94.1z"/><path fill="#FFFFFF" d="M132.1,97.8l-0.4-3.3h-0.2c-1.5,2.1-4.3,3.9-8.1,3.9c-5.4,0-8.1-3.8-8.1-7.6c0-6.4,5.7-9.9,15.9-9.8v-0.5 c0-2.2-0.6-6.1-6-6.1c-2.5,0-5,0.8-6.9,2l-1.1-3.2c2.2-1.4,5.4-2.3,8.7-2.3c8.1,0,10.1,5.5,10.1,10.8v9.9c0,2.3,0.1,4.5,0.4,6.3 H132.1z M131.4,84.4c-5.3-0.1-11.2,0.8-11.2,5.9c0,3.1,2.1,4.6,4.5,4.6c3.4,0,5.6-2.2,6.4-4.4c0.2-0.5,0.3-1,0.3-1.5V84.4z"/><path fill="#FFFFFF" d="M146.6,63.9v7.6h6.9v3.7h-6.9v14.2c0,3.3,0.9,5.1,3.6,5.1c1.3,0,2.2-0.2,2.8-0.3l0.2,3.6 c-0.9,0.4-2.4,0.7-4.3,0.7c-2.2,0-4-0.7-5.2-2c-1.4-1.4-1.9-3.8-1.9-6.9V75.1h-4.1v-3.7h4.1v-6.3L146.6,63.9z"/><path fill="#FFFFFF" d="M171.4,97.8l-0.4-3.3h-0.2c-1.5,2.1-4.3,3.9-8.1,3.9c-5.4,0-8.1-3.8-8.1-7.6c0-6.4,5.7-9.9,15.9-9.8v-0.5 c0-2.2-0.6-6.1-6-6.1c-2.5,0-5,0.8-6.9,2l-1.1-3.2c2.2-1.4,5.4-2.3,8.7-2.3c8.1,0,10.1,5.5,10.1,10.8v9.9c0,2.3,0.1,4.5,0.4,6.3 H171.4z M170.7,84.4c-5.3-0.1-11.2,0.8-11.2,5.9c0,3.1,2.1,4.6,4.5,4.6c3.4,0,5.6-2.2,6.4-4.4c0.2-0.5,0.3-1,0.3-1.5V84.4z"/></g></g></a></g><a href="https://ourworldindata.org/grapher/GDP-per-capita-in-the-uk-since-1270" target="_blank"><text font-size="25.20" x="15.0" y="35.2" fill="#555"><tspan x="15" y="35.160000000000004">GDP per capita in England since 1270</tspan></text></a><text font-size="14.40" x="15.0" y="53.7" fill="#666"><tspan x="15" y="53.72">Adjusted for inflation and measured in British Pounds in 2013 prices</tspan></text></g><g class="LineChart"><defs><clipPath id="boundsClip-1"><rect x="67.99600000000001" y="0" width="830" height="932.4"></rect></clipPath></defs><g class="AxisBoxView"><g class="HorizontalAxis"><text x="78" y="542.8" fill="#666" text-anchor="middle" font-size="16.2">1270</text><text x="206.4" y="542.8" fill="#666" text-anchor="middle" font-size="16.2">1400</text><text x="305.2" y="542.8" fill="#666" text-anchor="middle" font-size="16.2">1500</text><text x="404" y="542.8" fill="#666" text-anchor="middle" font-size="16.2">1600</text><text x="502.8" y="542.8" fill="#666" text-anchor="middle" font-size="16.2">1700</text><text x="601.6" y="542.8" fill="#666" text-anchor="middle" font-size="16.2">1800</text><text x="700.4" y="542.8" fill="#666" text-anchor="middle" font-size="16.2">1900</text><text x="815" y="542.8" fill="#666" text-anchor="middle" font-size="16.2">2016</text></g><g class="VerticalAxis"><text x="73.00" y="521.6" fill="#666" dominant-baseline="middle" text-anchor="end" font-size="16.2">£0</text><text x="73.00" y="448.1" fill="#666" dominant-baseline="middle" text-anchor="end" font-size="16.2">£5,000</text><text x="73.00" y="374.6" fill="#666" dominant-baseline="middle" text-anchor="end" font-size="16.2">£10,000</text><text x="73.00" y="301.2" fill="#666" dominant-baseline="middle" text-anchor="end" font-size="16.2">£15,000</text><text x="73.00" y="227.7" fill="#666" dominant-baseline="middle" text-anchor="end" font-size="16.2">£20,000</text><text x="73.00" y="154.2" fill="#666" dominant-baseline="middle" text-anchor="end" font-size="16.2">£25,000</text><text x="73.00" y="80.7" fill="#666" dominant-baseline="middle" text-anchor="end" font-size="16.2">£30,000</text></g><g class="AxisGridLines"><line x1="78.00" y1="521.6" x2="815.00" y2="521.6" stroke="#ccc"></line><line x1="78.00" y1="448.1" x2="815.00" y2="448.1" stroke="#ddd" stroke-dasharray="3,2"></line><line x1="78.00" y1="374.6" x2="815.00" y2="374.6" stroke="#ddd" stroke-dasharray="3,2"></line><line x1="78.00" y1="301.2" x2="815.00" y2="301.2" stroke="#ddd" stroke-dasharray="3,2"></line><line x1="78.00" y1="227.7" x2="815.00" y2="227.7" stroke="#ddd" stroke-dasharray="3,2"></line><line x1="78.00" y1="154.2" x2="815.00" y2="154.2" stroke="#ddd" stroke-dasharray="3,2"></line><line x1="78.00" y1="80.7" x2="815.00" y2="80.7" stroke="#ddd" stroke-dasharray="3,2"></line></g></g><g clip-path="url(#boundsClip-1)"><g class="Lines"><rect x="78" y="77" width="737" height="445" fill="rgba(255,255,255,0)" opacity="0"></rect><g class="key-England_0"><path stroke="#3360a9" stroke-linecap="round" d="M78 510L79 510L80 510L81 510L82 510L83 509L84 510L85 510L86 509L87 511L88 511L89 511L90 511L91 512L92 511L93 511L94 511L95 510L96 511L97 512L98 512L99 512L100 511L101 511L102 511L103 510L104 510L105 510L106 510L107 510L108 510L109 510L110 510L111 509L112 510L113 510L114 510L115 510L116 510L117 509L118 510L119 509L120 509L121 509L122 509L123 511L123 511L124 510L125 509L126 509L127 509L128 511L129 510L130 510L131 511L132 509L133 509L134 510L135 510L136 510L137 510L138 511L139 510L140 510L141 510L142 511L143 510L144 509L145 509L146 511L147 510L148 510L149 509L150 509L151 509L152 510L153 510L154 510L155 509L156 510L157 509L158 507L159 506L160 506L161 507L162 506L163 506L164 506L165 506L166 506L167 506L168 506L169 507L170 507L171 506L172 506L173 506L174 507L175 507L176 508L177 506L178 507L179 508L180 507L181 508L182 509L183 507L184 506L185 507L186 508L187 507L188 507L189 506L190 507L191 505L192 506L193 505L194 504L195 506L196 505L197 506L198 504L199 502L200 505L201 504L202 505L203 504L204 505L205 503L205 504L206 505L207 505L208 504L209 504L210 504L211 504L212 505L213 505L214 506L215 506L216 505L217 505L218 505L219 507L220 505L221 504L222 505L223 504L224 504L225 504L226 504L227 505L228 505L229 504L230 503L231 504L232 505L233 505L234 506L235 506L236 505L237 505L238 505L239 505L240 504L241 506L242 507L243 507L244 506L245 506L246 506L247 507L248 507L249 504L250 504L251 506L252 505L253 505L254 504L255 505L256 505L257 505L258 505L259 505L260 505L261 505L262 505L263 506L264 505L265 506L266 506L267 506L268 504L269 504L270 506L271 506L272 506L273 506L274 505L275 505L276 506L277 506L278 506L279 506L280 505L281 506L282 507L283 506L284 506L285 505L286 505L287 505L287 506L288 505L289 506L290 506L291 505L292 506L293 506L294 506L295 506L296 505L297 505L298 506L299 505L300 505L301 506L302 505L303 505L304 504L305 505L306 505L307 505L308 504L309 504L310 504L311 504L312 504L313 504L314 503L315 504L316 504L317 505L318 504L319 504L320 504L321 504L322 504L323 504L324 504L325 504L326 504L327 504L328 503L329 503L330 503L331 503L332 505L333 505L334 504L335 504L336 505L337 504L338 505L339 504L340 505L341 505L342 504L343 505L344 504L345 505L346 505L347 505L348 505L349 504L350 505L351 505L352 503L353 504L354 505L355 505L356 506L357 506L358 504L359 506L360 506L361 509L362 508L363 503L364 504L365 504L366 504L367 504L368 503L369 503L369 503L370 501L371 503L372 503L373 503L374 504L375 504L376 505L377 503L378 505L379 503L380 502L381 505L382 503L383 504L384 505L385 505L386 507L387 505L388 506L389 508L390 508L391 507L392 505L393 507L394 506L395 506L396 505L397 504L398 507L399 507L400 508L401 509L402 506L403 504L404 505L405 505L406 504L407 503L408 502L409 504L410 503L411 505L412 506L413 504L414 503L415 504L416 505L417 506L418 506L419 505L420 506L421 504L422 504L423 506L424 503L425 503L426 506L427 506L428 504L429 504L430 504L431 504L432 502L433 507L434 508L435 507L436 505L437 507L438 507L439 506L440 506L441 507L442 506L443 505L444 505L445 507L446 505L447 505L448 504L449 507L450 507L450 507L451 506L452 507L453 507L454 506L455 505L456 503L457 503L458 502L459 503L460 504L461 505L462 507L463 506L464 506L465 505L466 502L467 503L468 503L469 500L470 500L471 502L472 502L473 502L474 503L475 503L476 503L477 504L478 503L479 500L480 501L481 501L482 502L483 500L484 502L485 500L486 499L487 502L488 501L489 502L490 500L491 498L492 499L493 498L494 498L495 496L496 500L497 496L498 497L499 498L500 498L501 498L502 499L503 497L504 494L505 495L506 497L507 492L508 494L509 498L510 496L511 494L512 497L513 500L514 498L515 498L516 499L517 497L518 498L519 497L520 495L521 494L522 495L523 493L524 494L525 494L526 495L527 495L528 494L529 495L530 496L531 495L532 496L532 495L533 495L534 493L535 493L536 493L537 494L538 493L539 494L540 494L541 494L542 495L543 494L544 493L545 494L546 494L547 494L548 494L549 492L550 493L551 493L552 493L553 494L554 492L555 492L556 493L557 493L558 494L559 492L560 492L561 491L562 491L563 490L564 491L565 491L566 491L567 491L568 491L569 491L570 491L571 489L572 490L573 490L574 491L575 491L576 492L577 491L578 490L579 490L580 490L581 491L582 490L583 489L584 489L585 490L586 490L587 490L588 490L589 491L590 491L591 491L592 489L593 489L594 488L595 489L596 490L597 487L598 487L599 488L600 488L601 487L602 486L603 486L604 486L605 487L606 487L607 486L608 486L609 485L610 487L611 486L612 484L613 485L614 487L614 486L615 487L616 484L617 487L618 487L619 487L620 488L621 486L622 486L623 486L624 485L625 484L626 484L627 486L628 484L629 484L630 485L631 483L632 483L633 483L634 483L635 482L636 480L637 480L638 481L639 479L640 479L641 479L642 481L643 481L644 480L645 478L646 476L647 475L648 476L649 475L650 475L651 476L652 475L653 474L654 473L655 471L656 472L657 470L658 471L659 471L660 470L661 469L662 469L663 470L664 468L665 468L666 466L667 466L668 467L669 465L670 465L671 461L672 458L673 459L674 459L675 458L676 458L677 459L678 459L679 460L680 462L681 458L682 457L683 457L684 455L685 457L686 458L687 459L688 457L689 455L690 454L691 454L692 452L693 455L694 456L695 454L696 452L696 450L697 451L698 448L699 446L700 447L701 446L702 445L703 447L704 447L705 445L706 444L707 443L708 447L709 445L710 444L711 442L712 441L713 438L714 437L715 432L716 430L717 430L718 428L719 436L720 444L721 452L722 448L723 447L724 444L725 441L726 444L727 438L728 438L729 436L730 437L731 442L732 442L733 440L734 435L735 432L736 428L737 426L738 426L739 422L740 411L741 401L742 399L743 398L744 405L745 411L746 415L747 417L748 414L749 411L750 408L751 403L752 401L753 395L754 390L755 386L756 384L757 382L758 381L759 377L760 368L761 365L762 365L763 358L764 350L765 347L766 346L767 343L768 334L769 331L770 327L771 320L772 312L773 299L774 304L775 307L776 301L777 296L778 287L778 280L779 285L780 286L781 281L782 271L783 266L784 256L785 249L786 235L787 220L788 213L789 211L790 214L791 213L792 206L793 196L794 190L795 182L796 174L797 163L798 152L799 140L800 132L801 126L802 114L803 106L804 96L805 89L806 82L807 87L808 110L809 104L810 103L811 101L812 98L813 88L814 81L815 77" fill="none" stroke-width="1.5"></path></g></g></g></g><g style="fill: #777;" class="SourcesFooter"><g style="fill: #777;" class="clickable"><text font-size="12.60" x="15.0" y="567.9"><tspan x="15" y="567.88">Source: Broadberry, Campbell, Klein, Overton, and van Leeuwen via Bank of England (2017)</tspan></text></g><text font-size="12.60" x="15.0" y="582.5"><tspan x="15" y="582.48">Note: Data refers to England until 1700 and the UK from then onwards.</tspan></text><text font-size="12.60" x="549.4" y="567.9"><tspan x="549.358" y="567.88"><a target='_blank' style='fill: #777;' href='https://ourworldindata.org/economic-growth'>OurWorldInData.org/economic-growth</a> • <a style="fill: #777;" class="cclogo" href="http://creativecommons.org/licenses/by-sa/4.0/deed.en_US" target="_blank">CC BY-SA</a></tspan></text></g></g></svg>