<svg xmlns="http://www.w3.org/2000/svg" version="1.1" style="font-family: 'Helvetica Neue', Helvetica, Arial, sans-serif; font-size: 24px; background-color: white;" width="1200" height="630"><g class="ChartTab"><g><g class="AxisBoxView"><g class="HorizontalAxis"><text font-size="16.80" x="310.2" y="596.6"><tspan x="310.24800000000005" y="596.64">GDP per capita in 1990 Int. GK$ (Maddison-Project 2013) </tspan></text><text x="278.6" y="573.2" fill="#666" text-anchor="middle" font-size="21.6">1,000</text><text x="787" y="573.2" fill="#666" text-anchor="middle" font-size="21.6">10,000</text></g><g class="VerticalAxis"><text font-size="16.80" x="-533.5" y="28.4" transform="rotate(-90)"><tspan x="-533.4639999999999" y="28.439999999999998">Share of industry in GDP at constant 2005 prices (GGDC)</tspan></text><text x="85.22" y="546.6" fill="#666" dominant-baseline="middle" text-anchor="end" font-size="21.6">0%</text><text x="85.22" y="482" fill="#666" dominant-baseline="middle" text-anchor="end" font-size="21.6">10%</text><text x="85.22" y="417.4" fill="#666" dominant-baseline="middle" text-anchor="end" font-size="21.6">20%</text><text x="85.22" y="352.8" fill="#666" dominant-baseline="middle" text-anchor="end" font-size="21.6">30%</text><text x="85.22" y="288.2" fill="#666" dominant-baseline="middle" text-anchor="end" font-size="21.6">40%</text><text x="85.22" y="223.6" fill="#666" dominant-baseline="middle" text-anchor="end" font-size="21.6">50%</text><text x="85.22" y="159" fill="#666" dominant-baseline="middle" text-anchor="end" font-size="21.6">60%</text><text x="85.22" y="94.4" fill="#666" dominant-baseline="middle" text-anchor="end" font-size="21.6">70%</text></g><g class="AxisGridLines"><line x1="90.22" y1="546.6" x2="1041.46" y2="546.6" stroke="#ccc"></line><line x1="90.22" y1="482" x2="1041.46" y2="482" stroke="#ddd" stroke-dasharray="3,2"></line><line x1="90.22" y1="417.4" x2="1041.46" y2="417.4" stroke="#ddd" stroke-dasharray="3,2"></line><line x1="90.22" y1="352.8" x2="1041.46" y2="352.8" stroke="#ddd" stroke-dasharray="3,2"></line><line x1="90.22" y1="288.2" x2="1041.46" y2="288.2" stroke="#ddd" stroke-dasharray="3,2"></line><line x1="90.22" y1="223.6" x2="1041.46" y2="223.6" stroke="#ddd" stroke-dasharray="3,2"></line><line x1="90.22" y1="159" x2="1041.46" y2="159" stroke="#ddd" stroke-dasharray="3,2"></line><line x1="90.22" y1="94.4" x2="1041.46" y2="94.4" stroke="#ddd" stroke-dasharray="3,2"></line></g><g class="AxisGridLines"><line x1="278.6" y1="546.60" x2="278.6" y2="35.00" stroke="#ddd" stroke-dasharray="3,2"></line><line x1="787" y1="546.60" x2="787" y2="35.00" stroke="#ddd" stroke-dasharray="3,2"></line></g></g><g clip-path="url(#scatterBounds-113)" class="PointsWithLabels clickable"><rect x="90.21600000000001" y="35" width="951.2400000000001" height="511.6" fill="rgba(255,255,255,0)"></rect><defs><clipPath id="scatterBounds-113"><rect x="80.21600000000001" y="25" width="971.2400000000001" height="531.6"></rect></clipPath></defs><g class="key-China_0"><circle cx="141" cy="536" r="1.7368991395059052" fill="#d14e5b" stroke="#ccc" opacity="0.6"></circle><polyline stroke-linecap="round" stroke="#d14e5b" points="141,536 147,531 149,529 157,529 171,516 178,516 196,491 195,474 187,465 147,485 146,486 162,480 181,471 200,463 214,451 202,461 191,468 203,440 223,408 227,397 228,393 239,394 238,394 248,378 243,378 253,367 273,360 287,359 291,342 301,352 316,359 329,359 352,363 370,353 382,348 400,343 412,338 412,346 416,351 428,341 445,327 463,311 482,291 510,268 513,262 522,261 520,260 532,261 550,258 571,259 595,257 625,250 641,253 658,251 676,243 685,241 699,242 717,239 738,235" fill="none" stroke-width="1.415077572595482" opacity="0.6"></polyline><polygon points="735.8849224274045,240.88492242740452 738,232.88492242740452 740.1150775725955,237.11507757259548" transform="rotate(79.21570280563752, 738, 235)" cx="738" cy="235" r="2.115077572595482" fill="#d14e5b" stroke="#ccc" stroke-width="0.2" opacity="0.6"></polygon></g><g class="key-India_0"><circle cx="172" cy="435" r="1.5943970737281674" fill="#d14e5b" stroke="#ccc" opacity="0.6"></circle><polyline stroke-linecap="round" stroke="#d14e5b" points="172,435 174,432 176,435 185,436 190,432 192,423 200,420 193,420 204,421 205,416 216,412 217,407 217,401 223,396 235,397 221,385 218,382 231,390 231,388 241,387 247,393 244,391 238,385 243,391 241,391 254,395 252,384 264,385 270,383 254,379 264,383 273,381 275,379 287,379 291,378 295,377 299,372 304,370 321,372 331,368 338,363 337,366 344,369 353,369 362,363 374,356 387,358 392,360 402,367 412,369 418,367 426,373 431,367 445,369 459,365 474,365 490,360 506,359 517,364 532,361 547,359" fill="none" stroke-width="1.3659433322049321" opacity="0.6"></polyline><polygon points="544.9340566677951,364.93405666779506 547,356.93405666779506 549.0659433322049,361.06594333220494" transform="rotate(82.40535733171538, 547, 359)" cx="547" cy="359" r="2.065943332204932" fill="#d14e5b" stroke="#ccc" stroke-width="0.2" opacity="0.6"></polygon></g><g class="key-United-States_0"><circle cx="760" cy="362" r="1.3804493731206344" fill="#4d824b" stroke="#ccc" opacity="0.6"></circle><polyline stroke-linecap="round" stroke="#4d824b" points="760,362 765,352 762,361 777,352 789,356 793,360 800,356 794,359 806,352 806,350 806,354 800,359 812,352 814,356 816,359 825,358 831,356 841,354 851,353 863,356 866,361 874,363 879,368 877,376 881,380 890,378 900,376 897,383 894,394 903,389 911,387 921,387 926,389 923,398 927,403 920,412 927,409 941,402 947,401 953,403 959,400 966,399 971,403 972,407 969,410 973,412 977,410 983,405 986,405 991,407 998,407 1005,408 1013,409 1019,414 1020,420 1021,420 1025,421 1031,420 1035,422 1039,423 1041,425 1038,431 1028,438 1033,441" fill="none" stroke-width="0.8448570321745361" opacity="0.6"></polyline><polygon points="1031.4551429678254,447.45514296782545 1033,439.45514296782545 1034.5448570321744,442.54485703217455" transform="rotate(120.96375756006182, 1033, 441)" cx="1033" cy="441" r="1.544857032174536" fill="#4d824b" stroke="#ccc" stroke-width="0.2" opacity="0.6"></polygon></g><g class="key-Indonesia_0"><circle cx="281" cy="336" r="1.3103533749647183" fill="#d14e5b" stroke="#ccc" opacity="0.6"></circle><polyline stroke-linecap="round" stroke="#d14e5b" points="281,336 288,334 284,334 267,338 273,340 276,339 270,345 263,339 282,317 300,294 324,284 327,279 347,258 374,239 375,237 370,243 384,232 395,221 400,226 406,229 420,232 428,233 415,248 418,254 428,246 429,253 439,252 446,252 455,252 470,250 482,244 497,238 509,237 521,232 533,224 547,221 560,215 566,220 532,228 530,227 537,222 542,222 548,223 556,228 563,234 573,244 582,250 593,252 603,257 610,255 621,259" fill="none" stroke-width="0.7817990604817406" opacity="0.6"></polyline><polygon points="619.5182009395182,265.51820093951824 621,257.51820093951824 622.4817990604818,260.4817990604817" transform="rotate(109.98310745657125, 621, 259)" cx="621" cy="259" r="1.4817990604817406" fill="#d14e5b" stroke="#ccc" stroke-width="0.2" opacity="0.6"></polygon></g><g class="key-Brazil_0"><circle cx="392" cy="385" r="1.2479047543728519" fill="#69c487" stroke="#ccc" opacity="0.6"></circle><polyline stroke-linecap="round" stroke="#69c487" points="392,385 396,387 402,397 406,393 414,395 423,390 419,385 431,384 443,372 454,359 465,359 475,361 481,356 477,359 478,355 476,366 483,359 485,366 498,359 510,358 525,354 540,353 557,350 578,347 589,345 594,348 609,345 613,348 619,351 629,353 642,347 627,359 623,360 610,369 617,369 630,368 642,361 645,363 640,369 643,368 630,376 629,379 624,380 631,384 640,379 646,374 647,374 651,370 648,370 645,372 651,365 651,367 654,369 653,370 663,364 667,365 673,368 684,369 693,371 690,381 704,375" fill="none" stroke-width="0.7369034636237304" opacity="0.6"></polyline><polygon points="702.5630965363763,381.5630965363763 704,373.5630965363763 705.4369034636237,376.43690346362376" transform="rotate(66.80141005405135, 704, 375)" cx="704" cy="375" r="1.4369034636237306" fill="#69c487" stroke="#ccc" stroke-width="0.2" opacity="0.6"></polygon></g><g class="key-Nigeria_0"><circle cx="234" cy="478" r="1.2325239072811263" fill="#5675c1" stroke="#ccc" opacity="0.6"></circle><polyline stroke-linecap="round" stroke="#5675c1" points="234,478 235,457 241,447 255,447 257,428 265,365 252,314 208,339 199,401 245,277 298,213 316,169 318,135 329,119 347,103 334,129 350,102 351,109 331,110 340,77 337,98 312,140 303,159 283,175 269,152 282,161 280,175 273,177 288,186 296,178 302,151 295,169 290,170 289,173 285,180 279,181 284,176 285,179 286,181 281,198 287,186 299,184 335,244 351,221 367,235 373,246 381,268 390,286 397,305 406,314 417,317" fill="none" stroke-width="0.6966763954796026" opacity="0.6"></polyline><polygon points="415.60332360452037,323.60332360452037 417,315.60332360452037 418.3966763954796,318.3966763954796" transform="rotate(105.25511959754911, 417, 317)" cx="417" cy="317" r="1.3966763954796027" fill="#5675c1" stroke="#ccc" stroke-width="0.2" opacity="0.6"></polygon></g><g class="key-Japan_0"><circle cx="478" cy="376" r="1.3020031049239493" fill="#d14e5b" stroke="#ccc" opacity="0.6"></circle><polyline stroke-linecap="round" stroke="#d14e5b" points="478,376 488,359 503,384 517,374 531,368 541,367 558,364 583,347 607,339 623,337 639,330 661,321 671,321 692,320 713,317 737,311 760,301 780,285 787,285 802,286 816,280 810,286 814,298 821,297 828,301 837,303 847,301 852,306 857,306 862,309 866,315 873,314 881,308 886,314 894,312 906,307 916,305 926,300 932,297 933,305 933,311 934,320 938,325 943,327 946,327 941,334 940,337 945,336 945,347 945,354 949,352 954,348 956,349 960,348 965,345 962,350 950,365 960,348" fill="none" stroke-width="0.6578771865425348" opacity="0.6"></polyline><polygon points="958.6421228134575,354.6421228134575 960,346.6421228134575 961.3578771865425,349.35787718654257" transform="rotate(30.465545178365737, 960, 348)" cx="960" cy="348" r="1.3578771865425348" fill="#d14e5b" stroke="#ccc" stroke-width="0.2" opacity="0.6"></polygon></g><g class="key-Mexico_0"><circle cx="468" cy="341" r="1.1936126527653674" fill="#4d824b" stroke="#ccc" opacity="0.6"></circle><polyline stroke-linecap="round" stroke="#4d824b" points="468,341 478,341 481,339 475,343 490,350 501,345 509,341 518,341 523,345 522,338 532,339 533,341 536,345 545,338 561,335 567,338 574,335 580,330 588,328 594,325 601,323 604,334 615,323 627,318 634,316 640,316 644,316 646,318 658,313 673,308 685,304 699,301 692,305 677,319 680,317 681,312 668,319 667,317 665,316 670,314 677,312 682,314 686,314 686,317 692,317 674,321 681,308 692,302 700,300 705,301 716,299 713,304 712,309 713,308 719,311 723,314 732,317 737,325 737,328 720,330 729,331" fill="none" stroke-width="0.6406420303885689" opacity="0.6"></polyline><polygon points="727.6593579696114,337.65935796961145 729,329.65935796961145 730.3406420303885,332.3406420303886" transform="rotate(96.34019256463937, 729, 331)" cx="729" cy="331" r="1.3406420303885689" fill="#4d824b" stroke="#ccc" stroke-width="0.2" opacity="0.6"></polygon></g><g class="key-Philippines_0"><circle cx="409" cy="297" r="1.2130711753426646" fill="#d14e5b" stroke="#ccc" opacity="0.6"></circle><polyline stroke-linecap="round" stroke="#d14e5b" points="409,297 414,290 427,283 429,285 435,275 447,268 453,263 458,262 464,259 469,261 471,259 473,265 472,265 450,277 427,303 429,309 433,307 443,306 451,304 452,306 446,313 442,315 442,316 447,316 452,314 459,315 465,314 459,321 461,332 465,330 467,336 470,337 476,339 485,343 491,343 498,345 508,347 512,345 511,351 522,344" fill="none" stroke-width="0.612291190176191" opacity="0.6"></polyline><polygon points="520.6877088098238,350.6877088098238 522,342.6877088098238 523.3122911901762,345.31229119017615" transform="rotate(57.528808198049546, 522, 344)" cx="522" cy="344" r="1.3122911901761911" fill="#d14e5b" stroke="#ccc" stroke-width="0.2" opacity="0.6"></polygon></g><g class="key-Ethiopia_0"><circle cx="103" cy="514" r="1.1819230348809793" fill="#5675c1" stroke="#ccc" opacity="0.6"></circle><polyline stroke-linecap="round" stroke="#5675c1" points="103,514 108,512 131,511 137,509 145,507 149,504 153,500 153,494 156,493 163,496 168,493 174,493 176,493 174,493 169,494 169,500 170,498 164,499 175,496 182,493 177,493 171,493 175,492 165,483 147,476 157,480 171,485 168,485 165,487 156,490 130,497 102,502 124,493 126,490 132,488 153,488 154,487 139,480 145,480 152,480 161,482 158,476 147,470 165,470 185,472 203,473 221,474 238,474 253,474 263,473" fill="none" stroke-width="0.5967471942896226" opacity="0.6"></polyline><polygon points="261.70325280571035,479.70325280571035 263,471.70325280571035 264.2967471942896,474.2967471942896" transform="rotate(84.28940757881844, 263, 473)" cx="263" cy="473" r="1.2967471942896227" fill="#5675c1" stroke="#ccc" stroke-width="0.2" opacity="0.6"></polygon></g><g class="key-Egypt_0"><circle cx="276" cy="299" r="1.1937010211976014" fill="#5675c1" stroke="#ccc" opacity="0.6"></circle><polyline stroke-linecap="round" stroke="#5675c1" points="276,299 285,283 294,286 303,275 312,278 321,281 317,281 309,300 308,294 319,281 328,267 333,283 333,314 335,288 339,317 356,278 383,242 404,219 413,209 423,208 439,248 439,252 454,250 464,248 470,242 478,243 477,249 477,246 481,247 483,255 482,254 483,265 481,265 484,262 490,261 497,263 505,290 512,280 524,283 532,331 539,312 542,307 544,317 546,321 550,311 555,315 565,305 576,320 586,309 592,312 599,316" fill="none" stroke-width="0.5939050226490172" opacity="0.6"></polyline><polygon points="597.706094977351,322.706094977351 599,314.706094977351 600.293905022649,317.293905022649" transform="rotate(119.74488231457215, 599, 316)" cx="599" cy="316" r="1.2939050226490172" fill="#5675c1" stroke="#ccc" stroke-width="0.2" opacity="0.6"></polygon></g><g class="key-Thailand_0"><circle cx="242" cy="434" r="1.176975150353556" fill="#d14e5b" stroke="#ccc" opacity="0.6"></circle><polyline stroke-linecap="round" stroke="#d14e5b" points="242,434 247,432 263,427 254,425 266,430 262,429 257,426 258,427 276,418 295,421 299,418 309,412 319,412 327,407 337,397 354,392 366,385 377,388 387,386 395,390 398,385 401,378 417,378 421,378 427,379 441,368 457,360 473,359 480,358 485,361 494,360 501,361 509,352 518,347 524,354 533,351 550,342 574,337 596,326 617,316 632,308 648,304 664,299 678,296 693,292 702,288 693,292 674,303 681,290 689,290 695,293 707,287 720,279 732,274 740,272 749,270 759,268 761,266 758,276 772,263" fill="none" stroke-width="0.574524824043001" opacity="0.6"></polyline><polygon points="770.725475175957,269.725475175957 772,261.725475175957 773.2745248240429,264.274524824043" transform="rotate(47.12109679711145, 772, 263)" cx="772" cy="263" r="1.274524824043001" fill="#d14e5b" stroke="#ccc" stroke-width="0.2" opacity="0.6"></polygon></g><g class="key-France_0"><circle cx="642" cy="378" r="1.2242949064883388" fill="#ffd336" stroke="#ccc" opacity="0.6"></circle><polyline stroke-linecap="round" stroke="#ffd336" points="642,378 653,375 657,380 662,381 671,376 681,371 690,368 700,367 703,363 707,361 720,361 729,358 739,356 747,354 759,346 767,342 776,338 785,337 792,339 805,334 816,329 824,328 832,329 841,327 846,324 844,335 852,335 859,335 865,338 871,345 873,348 874,354 878,362 880,366 882,372 884,375 888,376 893,379 901,379 908,378 912,379 913,381 915,382 912,389 916,389 920,388 921,392 925,392 931,392 937,376 944,373 947,372 947,377 948,377 952,379 955,377 959,379 963,380 961,384 953,394" fill="none" stroke-width="0.5631220597169051" opacity="0.6"></polyline><polygon points="951.7368779402831,400.7368779402831 953,392.7368779402831 954.2631220597169,395.26312205971686" transform="rotate(-141.34019294706363, 953, 394)" cx="953" cy="394" r="1.263122059716905" fill="#ffd336" stroke="#ccc" stroke-width="0.2" opacity="0.6"></polygon></g><g class="key-United-Kingdom_0"><circle cx="706" cy="270" r="1.2410269175501982" fill="#ffd336" stroke="#ccc" opacity="0.6"></circle><polyline stroke-linecap="round" stroke="#ffd336" points="706,270 706,267 712,266 711,268 718,266 727,263 734,260 735,261 738,261 736,265 744,264 754,261 760,263 760,263 767,264 777,258 781,259 784,263 788,265 795,262 798,261 803,278 806,283 813,290 827,282 824,292 824,302 829,305 834,304 842,306 847,306 843,316 840,323 844,320 851,319 856,319 863,319 872,323 882,320 892,319 896,317 896,319 892,328 892,332 897,334 905,330 911,332 917,335 930,338 937,343 943,347 951,352 956,359 961,365 968,370 973,376 978,383 982,387 989,389 985,390 975,401" fill="none" stroke-width="0.5617358511180395" opacity="0.6"></polyline><polygon points="973.738264148882,407.73826414888197 975,399.73826414888197 976.261735851118,402.26173585111803" transform="rotate(-137.72631216434806, 975, 401)" cx="975" cy="401" r="1.2617358511180394" fill="#ffd336" stroke="#ccc" stroke-width="0.2" opacity="0.6"></polygon></g><g class="key-Italy_0"><circle cx="552" cy="374" r="1.2342153281603265" fill="#ffd336" stroke="#ccc" opacity="0.6"></circle><polyline stroke-linecap="round" stroke="#ffd336" points="552,374 560,368 575,359 581,353 594,347 604,345 615,340 626,340 639,335 653,330 668,326 681,319 693,315 699,319 707,325 719,324 734,320 748,316 760,315 772,314 775,321 782,320 796,317 806,316 800,321 814,316 818,315 824,314 836,310 843,305 845,308 846,312 848,313 855,316 861,317 867,319 874,319 883,316 890,314 895,314 898,316 899,318 896,323 901,321 907,317 909,321 912,323 915,323 918,325 926,323 929,325 929,325 928,326 931,328 932,330 935,327 938,327 934,333 920,348" fill="none" stroke-width="0.5592622949212747" opacity="0.6"></polyline><polygon points="918.7407377050787,354.74073770507874 920,346.74073770507874 921.2592622949212,349.2592622949213" transform="rotate(-136.97493517493834, 920, 348)" cx="920" cy="348" r="1.2592622949212746" fill="#ffd336" stroke="#ccc" stroke-width="0.2" opacity="0.6"></polygon></g><g class="key-South-Africa_0"><circle cx="524" cy="248" r="1.1669545866461701" fill="#5675c1" stroke="#ccc" opacity="0.6"></circle><polyline stroke-linecap="round" stroke="#5675c1" points="524,248 527,247 533,244 543,237 552,226 558,227 562,228 571,237 574,239 581,237 587,237 592,243 590,248 594,249 600,261 599,268 599,268 593,272 594,271 597,266 605,270 609,270 601,278 590,283 594,285 585,289 579,294 578,301 582,299 582,302 575,306 568,314 559,315 557,318 560,318 564,318 570,325 573,325 571,328 573,335 580,334 583,336 589,339 593,345 601,346 610,347 620,348 630,349 636,354 631,364 637,361" fill="none" stroke-width="0.540685406490897" opacity="0.6"></polyline><polygon points="635.7593145935091,367.7593145935091 637,359.7593145935091 638.2406854064909,362.2406854064909" transform="rotate(63.43494936201229, 637, 361)" cx="637" cy="361" r="1.240685406490897" fill="#5675c1" stroke="#ccc" stroke-width="0.2" opacity="0.6"></polygon></g><g class="key-Colombia_0"><circle cx="447" cy="341" r="1.1513898799662103" fill="#69c487" stroke="#ccc" opacity="0.6"></circle><polyline stroke-linecap="round" stroke="#69c487" points="447,341 447,345 454,347 460,343 468,338 469,333 471,329 471,327 470,326 478,321 480,325 484,326 489,328 489,330 495,332 497,331 502,329 504,324 511,326 519,321 528,325 535,326 545,330 555,325 562,328 562,336 568,336 573,339 587,343 594,345 598,343 598,347 595,349 594,343 597,336 599,327 607,316 614,317 618,317 621,317 626,322 626,325 631,325 639,331 646,325 653,327 654,338 659,342 657,339 645,339 649,339 651,343 654,342 659,341 667,341 675,341 686,339 698,340 703,338 703,338 710,338" fill="none" stroke-width="0.5332504503138499" opacity="0.6"></polyline><polygon points="708.7667495496861,344.76674954968615 710,336.76674954968615 711.2332504503138,339.23325045031385" transform="rotate(90.0000007648485, 710, 338)" cx="710" cy="338" r="1.23325045031385" fill="#69c487" stroke="#ccc" stroke-width="0.2" opacity="0.6"></polygon></g><g class="key-Spain_0"><circle cx="452" cy="407" r="1.1920824926408786" fill="#ffd336" stroke="#ccc" opacity="0.6"></circle><polyline stroke-linecap="round" stroke="#ffd336" points="452,407 451,405 448,407 451,400 470,408 486,402 483,400 497,395 504,385 519,390 524,390 531,381 524,385 526,388 551,387 573,387 592,386 611,374 623,358 636,347 648,336 658,331 675,326 685,320 695,323 711,312 728,306 741,302 747,310 753,314 759,314 764,317 765,320 768,324 768,324 770,326 775,325 777,332 780,334 787,328 798,328 809,323 819,319 828,318 833,319 834,330 832,341 836,339 847,332 852,335 859,334 868,330 877,328 886,328 892,325 895,325 898,325 901,327 906,328 911,330 914,336 913,343 903,357" fill="none" stroke-width="0.5319543546211328" opacity="0.6"></polyline><polygon points="901.7680456453788,363.7680456453789 903,355.7680456453789 904.231954354621,358.23195435462117" transform="rotate(-144.4623234357122, 903, 357)" cx="903" cy="357" r="1.231954354621133" fill="#ffd336" stroke="#ccc" stroke-width="0.2" opacity="0.6"></polygon></g><g class="key-Tanzania_0"><circle cx="106" cy="431" r="1.1454352925534805" fill="#5675c1" stroke="#ccc" opacity="0.6"></circle><polyline stroke-linecap="round" stroke="#5675c1" points="106,431 97,405 110,407 117,416 123,415 124,407 144,405 146,392 150,398 148,397 153,398 156,383 163,386 163,388 161,391 165,402 174,399 174,402 174,410 170,409 166,412 157,423 153,425 146,447 145,442 138,450 138,449 142,436 144,432 145,441 146,420 144,427 139,425 135,434 130,432 131,440 136,437 138,433 140,427 141,424 145,425 151,423 160,420 168,414 178,409 188,405 195,400 204,397 214,394 221,394 230,391" fill="none" stroke-width="0.5303718537616029" opacity="0.6"></polyline><polygon points="228.7696281462384,397.7696281462384 230,389.7696281462384 231.2303718537616,392.2303718537616" transform="rotate(71.56505178526047, 230, 391)" cx="230" cy="391" r="1.2303718537616029" fill="#5675c1" stroke="#ccc" stroke-width="0.2" opacity="0.6"></polygon></g><g class="key-Kenya_0"><circle cx="217" cy="447" r="1.1426486847846278" fill="#5675c1" stroke="#ccc" opacity="0.6"></circle><polyline stroke-linecap="round" stroke="#5675c1" points="217,447 212,448 232,454 236,451 244,448 250,442 259,440 265,438 268,435 271,429 274,432 265,430 265,421 276,410 287,406 286,425 289,422 285,424 290,425 283,425 278,423 279,423 287,423 292,423 298,423 300,423 303,422 298,421 288,423 281,423 281,425 284,426 288,427 283,427 285,431 285,433 281,434 285,436 280,437 280,436 283,435 290,435 297,434 305,434 302,431 301,429 307,430" fill="none" stroke-width="0.5215786592778021" opacity="0.6"></polyline><polygon points="305.7784213407222,436.7784213407222 307,428.7784213407222 308.22157865927784,431.22157865927784" transform="rotate(99.46232305328793, 307, 430)" cx="307" cy="430" r="1.2215786592778022" fill="#5675c1" stroke="#ccc" stroke-width="0.2" opacity="0.6"></polygon></g><g class="key-Argentina_0"><circle cx="633" cy="304" r="1.1662764205950964" fill="#69c487" stroke="#ccc" opacity="0.6"></circle><polyline stroke-linecap="round" stroke="#69c487" points="633,304 637,301 621,310 628,326 633,316 644,310 646,314 653,308 662,304 644,320 657,312 669,305 662,311 653,313 671,302 687,296 685,294 688,293 694,283 709,274 717,270 724,257 727,252 736,257 746,257 741,261 736,259 746,253 732,263 743,260 743,266 726,280 715,284 720,281 721,285 703,292 715,285 717,282 710,286 692,294 689,302 706,298 720,290 730,288 741,288 731,294 740,292 754,290 761,296 752,305 748,310 736,313 709,319 724,306 736,298 752,301 766,299 780,303 786,307 777,309 792,314" fill="none" stroke-width="0.5213707525665581" opacity="0.6"></polyline><polygon points="790.7786292474334,320.77862924743346 792,312.77862924743346 793.2213707525665,315.2213707525666" transform="rotate(108.43494974443654, 792, 314)" cx="792" cy="314" r="1.221370752566558" fill="#69c487" stroke="#ccc" stroke-width="0.2" opacity="0.6"></polygon></g><g class="key-Morocco_0"><circle cx="341" cy="384" r="1.1502527475480444" fill="#5675c1" stroke="#ccc" opacity="0.6"></circle><polyline stroke-linecap="round" stroke="#5675c1" points="341,384 343,369 345,378 347,378 349,378 351,377 358,366 365,370 371,381 378,374 384,370 391,370 391,365 395,361 402,362 412,339 430,342 437,332 439,349 444,352 459,362 449,347 466,357 458,358 461,367 469,369 480,385 469,379 486,383 485,389 488,383 499,395 486,385 480,385 498,397 480,383 502,393 493,381 506,389 504,386 505,383 518,387 523,387 533,392 541,394 545,391 559,396 562,390 572,393 580,403 586,400" fill="none" stroke-width="0.5030686987183107" opacity="0.6"></polyline><polygon points="584.7969313012817,406.7969313012817 586,398.7969313012817 587.2030686987183,401.2030686987183" transform="rotate(63.43494936201229, 586, 400)" cx="586" cy="400" r="1.2030686987183108" fill="#5675c1" stroke="#ccc" stroke-width="0.2" opacity="0.6"></polygon></g><g class="key-Peru_0"><circle cx="463" cy="356" r="1.1375113539321702" fill="#69c487" stroke="#ccc" opacity="0.6"></circle><polyline stroke-linecap="round" stroke="#69c487" points="463,356 474,359 479,351 487,338 488,337 498,356 502,338 506,341 501,356 496,364 518,336 531,334 540,345 544,347 553,348 561,345 572,344 575,341 566,339 566,341 576,339 580,338 580,335 585,335 591,330 602,339 599,337 593,337 587,338 594,336 598,333 602,339 597,339 561,355 566,354 565,356 581,354 595,352 571,358 538,360 521,358 523,355 517,356 523,352 545,341 559,341 561,344 572,341 567,342 566,345 569,345 567,343 575,338 581,338 589,335 601,332 615,334 631,333 650,332 649,339 665,335" fill="none" stroke-width="0.496462250400038" opacity="0.6"></polyline><polygon points="663.8035377496,341.80353774959997 665,333.80353774959997 666.1964622504,336.19646225040003" transform="rotate(75.96375717763759, 665, 335)" cx="665" cy="335" r="1.196462250400038" fill="#69c487" stroke="#ccc" stroke-width="0.2" opacity="0.6"></polygon></g><g class="key-Venezuela_0"><circle cx="722" cy="46" r="1.1287575727172237" fill="#69c487" stroke="#ccc" opacity="0.6"></circle><polyline stroke-linecap="round" stroke="#69c487" points="722,46 728,40 737,38 736,50 749,50 757,42 766,35 788,36 782,41 787,39 779,40 763,40 765,38 767,44 777,48 783,53 779,60 785,60 792,61 792,66 801,73 796,79 792,89 800,86 797,106 797,134 806,140 813,141 811,137 806,135 790,138 783,142 772,152 757,161 754,170 751,180 756,176 758,178 765,177 740,179 746,164 761,156 769,153 765,149 755,146 759,140 755,131 764,124 761,124 744,134 748,135 752,134 729,147 708,155 742,157 760,170 778,181 793,194 801,197 790,205 784,208" fill="none" stroke-width="0.49623627519950375" opacity="0.6"></polyline><polygon points="782.8037637248005,214.8037637248005 784,206.8037637248005 785.1962362751996,209.1962362751995" transform="rotate(-116.56505216768471, 784, 208)" cx="784" cy="208" r="1.1962362751995037" fill="#69c487" stroke="#ccc" stroke-width="0.2" opacity="0.6"></polygon></g><g class="key-Malaysia_0"><circle cx="440" cy="224" r="1.1480470423856302" fill="#d14e5b" stroke="#ccc" opacity="0.6"></circle><polyline stroke-linecap="round" stroke="#d14e5b" points="440,224 450,239 461,243 486,253 496,266 493,269 514,257 526,260 540,254 552,244 564,250 574,262 582,261 589,250 601,242 593,250 590,243 596,248 609,241 624,251 639,250 653,246 666,252 682,255 696,252 711,239 726,232 736,233 713,248 721,241 734,235 729,250 736,252 743,249 752,248 760,253 768,257 777,266 784,278 777,294 789,292" fill="none" stroke-width="0.4948774888948632" opacity="0.6"></polyline><polygon points="787.8051225111051,298.80512251110514 789,290.80512251110514 790.1948774888948,293.19487748889486" transform="rotate(80.53767847640908, 789, 292)" cx="789" cy="292" r="1.1948774888948632" fill="#d14e5b" stroke="#ccc" stroke-width="0.2" opacity="0.6"></polygon></g><g class="key-Ghana_0"><circle cx="349" cy="331" r="1.1345062364781393" fill="#5675c1" stroke="#ccc" opacity="0.6"></circle><polyline stroke-linecap="round" stroke="#5675c1" points="349,331 351,330 355,330 356,331 355,328 351,327 345,339 343,327 339,332 340,331 356,325 366,328 353,350 352,336 361,345 327,335 314,330 315,328 329,355 320,375 310,373 307,396 287,411 263,423 269,423 273,414 276,414 280,410 286,406 290,405 291,407 297,416 302,414 306,416 309,418 314,419 320,420 327,420 334,421 340,421 345,421 350,423 355,423 362,423 368,424 376,423 385,423 393,419 407,412 410,414 422,415" fill="none" stroke-width="0.48519272671721947" opacity="0.6"></polyline><polygon points="420.8148072732828,421.8148072732828 422,413.8148072732828 423.1851927267172,416.1851927267172" transform="rotate(94.76364249605761, 422, 415)" cx="422" cy="415" r="1.1851927267172195" fill="#5675c1" stroke="#ccc" stroke-width="0.2" opacity="0.6"></polygon></g><g class="key-Taiwan_0"><circle cx="352" cy="393" r="1.1500601479392942" fill="#d14e5b" stroke="#ccc" opacity="0.6"></circle><polyline stroke-linecap="round" stroke="#d14e5b" points="352,393 362,389 374,383 393,378 409,374 422,368 439,361 451,352 465,339 484,332 506,319 529,304 551,296 550,303 556,303 580,288 597,282 621,270 633,273 645,268 654,268 658,276 673,274 692,268 700,274 722,263 753,259 761,267 776,273 785,287 800,293 814,296 826,303 840,305 851,310 862,308 872,306 877,308 888,313 899,320 894,331 904,327 911,333 923,345 933,361 943,367 955,365 956,379 951,369 973,347" fill="none" stroke-width="0.48177307075312625" opacity="0.6"></polyline><polygon points="971.8182269292469,353.81822692924686 973,345.81822692924686 974.1817730707531,348.18177307075314" transform="rotate(45.00000038242425, 973, 347)" cx="973" cy="347" r="1.1817730707531262" fill="#d14e5b" stroke="#ccc" stroke-width="0.2" opacity="0.6"></polygon></g><g class="key-Chile_0"><circle cx="565" cy="314" r="1.1322339292956847" fill="#69c487" stroke="#ccc" opacity="0.6"></circle><polyline stroke-linecap="round" stroke="#69c487" points="565,314 569,309 578,323 590,328 579,290 583,293 582,286 598,312 605,326 587,287 599,298 604,290 609,279 617,275 617,274 614,279 633,279 636,282 639,285 643,278 644,282 658,277 652,279 635,285 633,277 599,308 603,306 620,310 634,309 648,307 662,304 671,301 635,308 625,292 634,285 635,292 643,293 654,296 666,294 684,292 688,292 701,296 723,303 734,300 742,301 761,301 774,298 784,297 789,300 784,296 791,299 796,299 798,305 804,304 817,304 828,310 838,314 847,316 852,321 848,321 859,301" fill="none" stroke-width="0.4661752147302169" opacity="0.6"></polyline><polygon points="857.8338247852698,307.83382478526977 859,299.83382478526977 860.1661752147303,302.16617521473023" transform="rotate(28.8107939878163, 859, 301)" cx="859" cy="301" r="1.166175214730217" fill="#69c487" stroke="#ccc" stroke-width="0.2" opacity="0.6"></polygon></g><g class="key-Netherlands_0"><circle cx="745" cy="356" r="1.1496173254408502" fill="#ffd336" stroke="#ccc" opacity="0.6"></circle><polyline stroke-linecap="round" stroke="#ffd336" points="745,356 743,353 754,352 759,351 774,341 782,339 785,334 794,330 805,323 817,325 826,325 833,326 838,328 846,327 853,330 851,325 859,321 864,321 867,328 871,332 872,334 869,339 865,347 868,345 875,341 880,339 885,344 887,348 891,345 900,344 907,345 911,346 913,348 914,351 919,348 925,350 931,352 939,359 946,363 955,364 962,363 965,365 964,367 963,372 968,371 972,376 979,377 987,377 990,378 981,383" fill="none" stroke-width="0.464636515581075" opacity="0.6"></polyline><polygon points="979.835363484419,389.8353634844189 981,381.8353634844189 982.1646365155812,384.16463651558104" transform="rotate(-119.05460511084087, 981, 383)" cx="981" cy="383" r="1.164636515581075" fill="#ffd336" stroke="#ccc" stroke-width="0.2" opacity="0.6"></polygon></g><g class="key-Malawi_0"><circle cx="90" cy="443" r="1.1250715879062811" fill="#5675c1" stroke="#ccc" opacity="0.6"></circle><polyline stroke-linecap="round" stroke="#5675c1" points="90,443 104,442 95,431 103,433 101,427 124,441 140,424 151,435 159,437 160,427 162,436 166,433 179,429 182,433 176,432 158,433 153,438 155,439 158,447 168,445 160,446 153,443 145,440 143,437 142,434 152,438 127,429 143,446 123,434 153,441 168,445 176,450 172,451 173,450 169,452 153,459 151,460 157,454 163,455 163,448 161,433 175,429 187,426 200,430 208,424" fill="none" stroke-width="0.4599454916987056" opacity="0.6"></polyline><polygon points="206.8400545083013,430.8400545083013 208,422.8400545083013 209.15994549169872,425.1599454916987" transform="rotate(53.130102805672415, 208, 424)" cx="208" cy="424" r="1.1599454916987055" fill="#5675c1" stroke="#ccc" stroke-width="0.2" opacity="0.6"></polygon></g><g class="key-Zambia_0"><circle cx="308" cy="106" r="1.1230833999031349" fill="#5675c1" stroke="#ccc" opacity="0.6"></circle><polyline stroke-linecap="round" stroke="#5675c1" points="308,106 290,108 301,145 298,159 290,130 294,164 287,184 300,178 291,181 302,179 287,198 293,217 276,225 271,229 257,237 257,250 264,259 249,269 236,268 228,274 224,284 218,303 216,293 222,307 218,308 231,309 223,332 221,334 215,361 178,365 166,389 175,396 176,386 166,398 165,410 166,409 170,403 171,393 177,387 183,378 189,371 197,368 204,365 210,368 218,360 228,356" fill="none" stroke-width="0.45465669181785384" opacity="0.6"></polyline><polygon points="226.84534330818215,362.8453433081821 228,354.8453433081821 229.15465669181785,357.1546566918178" transform="rotate(68.19859109322141, 228, 356)" cx="228" cy="356" r="1.1546566918178538" fill="#5675c1" stroke="#ccc" stroke-width="0.2" opacity="0.6"></polygon></g><g class="key-Senegal_0"><circle cx="358" cy="431" r="1.1251508276080942" fill="#5675c1" stroke="#ccc" opacity="0.6"></circle><polyline stroke-linecap="round" stroke="#5675c1" points="358,431 351,427 358,433 339,429 341,420 352,429 366,425 353,416 337,423 345,423 331,424 322,427 346,425 345,419 327,420 328,423 332,423 333,419 337,413 326,417 328,412 328,410 324,407 322,408 316,406 322,405 321,400 322,400 329,396 337,403 339,402 343,401 339,392 347,399 354,398 360,403 360,406 365,404 367,412 365,411 369,410" fill="none" stroke-width="0.45270060228962805" opacity="0.6"></polyline><polygon points="367.84729939771034,416.84729939771034 369,408.84729939771034 370.1527006022896,411.1527006022896" transform="rotate(75.96375717763759, 369, 410)" cx="369" cy="410" r="1.152700602289628" fill="#5675c1" stroke="#ccc" stroke-width="0.2" opacity="0.6"></polygon></g><g class="key-Bolivia_0"><circle cx="422" cy="291" r="1.119972221977724" fill="#69c487" stroke="#ccc" opacity="0.6"></circle><polyline stroke-linecap="round" stroke="#69c487" points="422,291 433,283 435,280 408,270 408,277 414,263 396,277 384,306 384,341 378,325 383,338 382,344 389,341 398,332 403,325 409,308 419,305 427,292 440,301 444,297 450,301 453,301 458,310 467,297 473,305 482,314 493,317 497,318 499,327 493,334 487,336 485,345 471,357 457,356 456,363 450,375 439,380 441,381 445,367 446,360 452,356 458,358 456,359 461,358 466,359 471,355 476,359 482,363 488,358 484,367 485,366 484,369 485,367 486,370 491,364 496,358 502,355 508,350 517,339 520,343 525,343" fill="none" stroke-width="0.44497804059188495" opacity="0.6"></polyline><polygon points="523.8550219594081,349.85502195940813 525,341.85502195940813 526.1449780405918,344.1449780405919" transform="rotate(90.0000007648485, 525, 343)" cx="525" cy="343" r="1.144978040591885" fill="#69c487" stroke="#ccc" stroke-width="0.2" opacity="0.6"></polygon></g><g class="key-Sweden_0"><circle cx="699" cy="414" r="1.1354310039518278" fill="#ffd336" stroke="#ccc" opacity="0.6"></circle><polyline stroke-linecap="round" stroke="#ffd336" points="699,414 706,418 708,420 712,414 720,414 725,413 732,413 740,411 740,409 745,407 755,405 767,403 775,396 785,394 798,387 804,381 806,377 812,375 819,369 828,363 840,363 840,363 845,362 853,363 859,368 864,376 865,382 861,388 864,389 872,386 875,389 875,396 877,395 881,394 889,389 893,387 897,389 903,390 907,390 910,388 912,390 907,394 903,398 897,401 905,394 912,387 915,387 921,384 930,381 940,376 949,373 951,378 956,369 961,364 970,350 976,347 985,339 992,338 990,342 979,356" fill="none" stroke-width="0.4430054560907345" opacity="0.6"></polyline><polygon points="977.8569945439093,362.85699454390925 979,354.85699454390925 980.1430054560908,357.14300545609075" transform="rotate(-141.84277461805576, 979, 356)" cx="979" cy="356" r="1.1430054560907346" fill="#ffd336" stroke="#ccc" stroke-width="0.2" opacity="0.6"></polygon></g><g class="key-Denmark_0"><circle cx="706" cy="317" r="1.125780236485766" fill="#ffd336" stroke="#ccc" opacity="0.6"></circle><polyline stroke-linecap="round" stroke="#ffd336" points="706,317 706,321 706,325 717,325 719,324 720,332 721,334 736,330 740,328 754,319 759,315 771,307 781,306 781,310 799,302 807,300 811,303 816,301 824,307 836,303 839,303 843,301 853,296 860,306 857,310 855,319 868,323 871,327 874,329 881,336 879,330 878,342 884,344 890,336 899,332 909,332 916,327 917,328 919,332 920,327 922,337 924,343 928,346 927,355 938,348 943,347 948,352 954,348 958,349 963,347 970,346 971,350 971,354 971,358 975,356 980,357 987,358 989,362 987,360 973,369" fill="none" stroke-width="0.4302857293310713" opacity="0.6"></polyline><polygon points="971.869714270669,375.8697142706689 973,367.8697142706689 974.1302857293311,370.13028572933104" transform="rotate(-122.73522731515042, 973, 369)" cx="973" cy="369" r="1.1302857293310713" fill="#ffd336" stroke="#ccc" stroke-width="0.2" opacity="0.6"></polygon></g><g class="key-Singapore_0"><circle cx="463" cy="429" r="1.1157662805112496" fill="#d14e5b" stroke="#ccc" opacity="0.6"></circle><polyline stroke-linecap="round" stroke="#d14e5b" points="463,429 473,429 482,427 498,421 484,407 495,400 513,399 532,398 557,389 582,379 607,365 629,357 653,348 673,347 684,355 689,361 701,352 715,350 730,349 747,343 765,343 774,341 779,350 793,351 806,350 802,367 806,365 822,359 840,352 852,353 864,353 871,356 879,358 896,364 911,361 920,359 930,363 942,365 932,366 939,361 953,356 945,358 948,360 952,355 966,346 977,354 990,350 1004,353 1003,361 996,361 1022,344" fill="none" stroke-width="0.4287315792437596" opacity="0.6"></polyline><polygon points="1020.8712684207562,350.8712684207562 1022,342.8712684207562 1023.1287315792438,345.1287315792437" transform="rotate(56.821488823494256, 1022, 344)" cx="1022" cy="344" r="1.1287315792437596" fill="#d14e5b" stroke="#ccc" stroke-width="0.2" opacity="0.6"></polygon></g><g class="key-Costa-Rica_0"><circle cx="427" cy="424" r="1.1130876983298785" fill="#4d824b" stroke="#ccc" opacity="0.6"></circle><polyline stroke-linecap="round" stroke="#4d824b" points="427,424 426,424 443,426 467,427 461,421 477,429 462,427 472,423 490,438 489,442 499,436 499,439 504,431 515,429 518,428 530,420 539,420 545,417 555,411 562,410 570,410 578,407 591,401 601,400 607,393 605,390 611,385 623,383 628,380 632,378 630,379 619,385 597,400 597,400 607,392 602,389 608,387 612,387 613,389 620,389 622,390 622,393 636,389 646,387 650,387 652,386 648,392 655,389 667,382 680,365 679,372 677,383 680,383 690,381 696,381 705,376 721,370 734,367 737,372 731,379 737,383" fill="none" stroke-width="0.4271978698598855" opacity="0.6"></polyline><polygon points="735.8728021301401,389.8728021301401 737,381.8728021301401 738.12719786986,384.12719786985986" transform="rotate(123.69006857713717, 737, 383)" cx="737" cy="383" r="1.1271978698598855" fill="#4d824b" stroke="#ccc" stroke-width="0.2" opacity="0.6"></polygon></g><g class="key-Botswana_0"><circle cx="92" cy="369" r="1.1115077572595482" fill="#5675c1" stroke="#ccc" opacity="0.6"></circle><polyline stroke-linecap="round" stroke="#5675c1" points="92,369 95,348 113,375 131,383 149,421 166,311 182,237 214,251 268,250 304,254 336,263 323,266 349,246 346,254 373,200 384,220 404,215 415,128 422,120 447,82 462,59 470,87 479,109 491,112 516,173 536,167 542,182 546,175 545,184 542,204 543,217 546,222 552,237 560,237 567,246 576,253 589,241 596,245 602,234 607,239 610,244 609,239 616,239 621,250 623,323" fill="none" stroke-width="0.41723701623041476" opacity="0.6"></polyline><polygon points="621.8827629837696,329.88276298376957 623,321.88276298376957 624.1172370162304,324.1172370162304" transform="rotate(178.4306467116113, 623, 323)" cx="623" cy="323" r="1.1172370162304148" fill="#5675c1" stroke="#ccc" stroke-width="0.2" opacity="0.6"></polygon></g><g class="key-Mauritius_0"><circle cx="517" cy="363" r="1.1125214177661857" fill="#5675c1" stroke="#ccc" opacity="0.6"></circle><polyline stroke-linecap="round" stroke="#5675c1" points="517,363 524,356 542,348 566,361 585,347 583,368 613,375 623,374 627,369 631,373 604,370 613,373 622,376 620,374 628,367 641,358 661,345 680,341 693,336 701,334 714,330 726,332 734,335 745,336 752,336 757,338 766,339 776,341 787,341 796,340 799,345 812,346 817,352 830,357 838,363 844,375 849,374 857,374 869,376" fill="none" stroke-width="0.4144320890176777" opacity="0.6"></polyline><polygon points="867.8855679109823,382.88556791098233 869,374.88556791098233 870.1144320890177,377.11443208901767" transform="rotate(99.46232305328793, 869, 376)" cx="869" cy="376" r="1.1144320890176778" fill="#5675c1" stroke="#ccc" stroke-width="0.2" opacity="0.6"></polygon></g><text x="742.9116928321124" y="234.06443946055003" font-size="14.3" font-family="Arial Narrow, Arial, sans-serif" fill="#666">China</text><text x="551.9561395034132" y="358.3391813995449" font-size="14.01271519378154" font-family="Arial Narrow, Arial, sans-serif" fill="#666">India</text><text x="966.3594616843736" y="449.4537393861085" font-size="11.762521217941794" font-family="Arial Narrow, Arial, sans-serif" fill="#666">United States</text><text x="625.6989671174422" y="266.50319913585355" font-size="11.588967640840062" font-family="Arial Narrow, Arial, sans-serif" fill="#666">Indonesia</text><text x="708.5957251500903" y="373.03040350710415" font-size="11.478395111931338" font-family="Arial Narrow, Arial, sans-serif" fill="#666">Brazil</text><text x="421.82381910618864" y="324.0098372256373" font-size="11.38850039335356" font-family="Arial Narrow, Arial, sans-serif" fill="#666">Nigeria</text><text x="962.5351006328169" y="343.69032892421114" font-size="11.310016319200491" font-family="Arial Narrow, Arial, sans-serif" fill="#666">Japan</text><text x="733.9694186733681" y="337.1910284418244" font-size="11.27774162290039" font-family="Arial Narrow, Arial, sans-serif" fill="#666">Mexico</text><text x="526.2183074386605" y="341.3156225390342" font-size="11.2281163071361" font-family="Arial Narrow, Arial, sans-serif" fill="#666">Philippines</text><text x="267.9751859510499" y="472.502481404895" font-size="11.20273722444787" font-family="Arial Narrow, Arial, sans-serif" fill="#666">Ethiopia</text><text x="603.3412157106224" y="324.0798131060425" font-size="11.198236828516658" font-family="Arial Narrow, Arial, sans-serif" fill="#666">Egypt</text><text x="775.6639674581315" y="259.5977445031636" font-size="11.168704092725074" font-family="Arial Narrow, Arial, sans-serif" fill="#666">Thailand</text><text x="915.0814459197906" y="403.4804784770929" font-size="11.152268859755544" font-family="Arial Narrow, Arial, sans-serif" fill="#666">France</text><text x="896.0781797932702" y="357.22870812244525" font-size="11.146863562461823" font-family="Arial Narrow, Arial, sans-serif" fill="#666">Italy</text><text x="641.4721359549995" y="358.7639320225002" font-size="11.121965466751119" font-family="Arial Narrow, Arial, sans-serif" fill="#666">South Africa</text><text x="234.74341649025257" y="389.41886116991583" font-size="11.108941281092541" font-family="Arial Narrow, Arial, sans-serif" fill="#666">Tanzania</text><text x="311.9319696191607" y="436.3711386573728" font-size="11.098287441692005" font-family="Arial Narrow, Arial, sans-serif" fill="#666">Kenya</text><text x="796.7434164902526" y="321.13015910942016" font-size="11.098040558672006" font-family="Arial Narrow, Arial, sans-serif" fill="#666">Argentina</text><text x="590.4721359549995" y="397.7639320225002" font-size="11.077215599602695" font-family="Arial Narrow, Arial, sans-serif" fill="#666">Morocco</text><text x="669.8507125007267" y="333.78732187481836" font-size="11.070139612182304" font-family="Arial Narrow, Arial, sans-serif" fill="#666">Peru</text><text x="726.9458308970234" y="215.7710188351816" font-size="11.069901715363594" font-family="Arial Narrow, Arial, sans-serif" fill="#666">Venezuela</text><text x="793.9319696191607" y="291.1780050634732" font-size="11.068477017266819" font-family="Arial Narrow, Arial, sans-serif" fill="#666">Malaysia</text><text x="426.9827287912244" y="420.94453199606" font-size="11.058609193582551" font-family="Arial Narrow, Arial, sans-serif" fill="#666">Ghana</text><text x="861.4095937488607" y="296.61892045661676" font-size="11.040695529905937" font-family="Arial Narrow, Arial, sans-serif" fill="#666">Chile</text><text x="916.9064332517283" y="390.94788012425397" font-size="11.039330936721614" font-family="Arial Narrow, Arial, sans-serif" fill="#666">Netherlands</text><text x="212" y="421" font-size="11.035249052624904" font-family="Arial Narrow, Arial, sans-serif" fill="#666">Malawi</text><text x="232.6423834544263" y="354.1430466182295" font-size="11.030788512502346" font-family="Arial Narrow, Arial, sans-serif" fill="#666">Zambia</text><text x="373.8507125007267" y="408.78732187481836" font-size="11.029176750787386" font-family="Arial Narrow, Arial, sans-serif" fill="#666">Senegal</text><text x="935.9028797092606" y="365.44233722180905" font-size="11.021491055393918" font-family="Arial Narrow, Arial, sans-serif" fill="#666">Sweden</text><text x="924.0846893115265" y="377.20987395553186" font-size="11.012171997928744" font-family="Arial Narrow, Arial, sans-serif" fill="#666">Denmark</text><text x="741.1602514716892" y="391.2785212537838" font-size="11.01004054531536" font-family="Arial Narrow, Arial, sans-serif" fill="#666">Costa Rica</text></g><g style="cursor: pointer;" class="ScatterColorLegend clickable"><g class="legendMark"><rect x="1061.4560000000001" y="32.5" width="56.007999999999996" height="21.799999999999997" fill="#fff" opacity="0"></rect>,<rect x="1061.4560000000001" y="39" width="8" height="8" fill="#5675c1"></rect>,<text font-size="16.80" x="1074.5" y="48.4"><tspan x="1074.4560000000001" y="48.44">Africa</tspan></text></g><g class="legendMark"><rect x="1061.4560000000001" y="54.3" width="45.76" height="21.799999999999997" fill="#fff" opacity="0"></rect>,<rect x="1061.4560000000001" y="60.8" width="8" height="8" fill="#d14e5b"></rect>,<text font-size="16.80" x="1074.5" y="70.2"><tspan x="1074.4560000000001" y="70.24">Asia</tspan></text></g><g class="legendMark"><rect x="1061.4560000000001" y="76.1" width="67.43199999999999" height="21.799999999999997" fill="#fff" opacity="0"></rect>,<rect x="1061.4560000000001" y="82.6" width="8" height="8" fill="#ffd336"></rect>,<text font-size="16.80" x="1074.5" y="92.0"><tspan x="1074.4560000000001" y="92.03999999999999">Europe</tspan></text></g><g class="legendMark"><rect x="1061.4560000000001" y="97.89999999999999" width="120.51999999999998" height="21.799999999999997" fill="#fff" opacity="0"></rect>,<rect x="1061.4560000000001" y="104.39999999999999" width="8" height="8" fill="#4d824b"></rect>,<text font-size="16.80" x="1074.5" y="113.8"><tspan x="1074.4560000000001" y="113.83999999999999">North America</tspan></text></g><g class="legendMark"><rect x="1061.4560000000001" y="119.69999999999999" width="123.54399999999998" height="21.799999999999997" fill="#fff" opacity="0"></rect>,<rect x="1061.4560000000001" y="126.19999999999999" width="8" height="8" fill="#69c487"></rect>,<text font-size="16.80" x="1074.5" y="135.6"><tspan x="1074.4560000000001" y="135.64">South America</tspan></text></g></g><line x1="1061.4560000000001" y1="146" x2="1180" y2="146" stroke="#ccc"></line><g class="clickable"><g class="ConnectedScatterLegend"><rect x="1061.4560000000001" y="155" width="123.54399999999998" height="16.799999999999997" fill="#fff" opacity="0"></rect><text font-size="16.80" x="1061.5" y="168.4" fill="#333"><tspan x="1061.4560000000001" y="168.44">1947</tspan></text><text font-size="16.80" x="1147.4" y="168.4" fill="#333"><tspan x="1147.368" y="168.44">2010</tspan></text><line x1="1104.0880000000002" y1="162.9" x2="1142.368" y2="162.9" stroke="#666" stroke-width="1"></line><circle cx="1104.0880000000002" cy="162.9" r="2" fill="#666" stroke="#ccc" stroke-width="0.2"></circle><circle cx="1116.8480000000002" cy="162.9" r="2" fill="#666" stroke="#ccc" stroke-width="0.2"></circle><circle cx="1129.608" cy="162.9" r="2" fill="#666" stroke="#ccc" stroke-width="0.2"></circle><polygon points="1139.368,167.9 1142.368,159.9 1145.368,165.9" cx="1142.368" cy="162.9" r="3" fill="#666" stroke="#ccc" stroke-width="0.2" transform="rotate(90, 1142.368, 162.9)"></polygon></g></g></g></g></svg>