<svg xmlns="http://www.w3.org/2000/svg" version="1.1" style="font-family: 'Helvetica Neue', Helvetica, Arial, sans-serif; font-size: 18px; background-color: white; text-rendering: optimizeLegibility; -webkit-font-smoothing: antialiased;" width="850" height="600"><g class="ChartTab"><g class="HeaderView"><g opacity="0.8" transform="translate(778, 15) scale(0.27)"><a xmlns:xlink="http://www.w3.org/1999/xlink" xlink:href="https://ourworldindata.org" target="_blank"><g><rect x="0" y="0" fill="#1B2543" width="211.2" height="130.1"/><rect x="0" y="112.2" fill="#E63912" width="211.2" height="17.9"/><g><rect x="1.2" y="12.3" fill="none" width="210.2" height="99.2"/><path fill="#FFFFFF" d="M37.8,32.2c0,12.7-7.7,19.4-17.1,19.4c-9.7,0-16.6-7.5-16.6-18.7c0-11.7,7.3-19.3,17.1-19.3 C31.3,13.7,37.8,21.3,37.8,32.2z M9.2,32.8c0,7.9,4.3,14.9,11.8,14.9c7.5,0,11.8-6.9,11.8-15.3c0-7.3-3.8-14.9-11.8-14.9 C13.1,17.5,9.2,24.8,9.2,32.8z"/><path fill="#FFFFFF" d="M62.7,43.8c0,2.7,0.1,5.1,0.2,7.2h-4.3l-0.3-4.3h-0.1c-1.3,2.1-4,4.9-8.8,4.9c-4.2,0-9.1-2.3-9.1-11.6 V24.6h4.8v14.6c0,5,1.5,8.4,5.9,8.4c3.2,0,5.5-2.2,6.3-4.4c0.3-0.7,0.4-1.6,0.4-2.5V24.6h4.8V43.8z"/><path fill="#FFFFFF" d="M67.3,32.8c0-3.1-0.1-5.8-0.2-8.2h4.2l0.2,5.2h0.2c1.2-3.5,4.1-5.8,7.3-5.8c0.5,0,0.9,0.1,1.4,0.2v4.5 c-0.5-0.1-1-0.2-1.6-0.2c-3.4,0-5.8,2.6-6.5,6.2c-0.1,0.7-0.2,1.4-0.2,2.2V51h-4.8V32.8z"/><path fill="#FFFFFF" d="M95.4,51l-9.4-36.8h5l4.4,18.6c1.1,4.6,2.1,9.2,2.7,12.7h0.1c0.6-3.7,1.8-8,3-12.8l4.9-18.5h5l4.5,18.7 c1,4.4,2,8.7,2.6,12.6h0.1c0.8-4,1.8-8.1,3-12.7l4.9-18.5h4.9L120.6,51h-5L111,31.9c-1.1-4.7-1.9-8.3-2.4-12h-0.1 c-0.7,3.7-1.5,7.3-2.8,12L100.4,51H95.4z"/><path fill="#FFFFFF" d="M154.9,37.6c0,9.8-6.8,14-13.2,14c-7.2,0-12.7-5.2-12.7-13.6c0-8.8,5.8-14,13.1-14 C149.8,24,154.9,29.5,154.9,37.6z M133.9,37.9c0,5.8,3.3,10.1,8,10.1c4.6,0,8-4.3,8-10.3c0-4.5-2.2-10.1-7.9-10.1 C136.3,27.6,133.9,32.8,133.9,37.9z"/><path fill="#FFFFFF" d="M158.2,32.8c0-3.1-0.1-5.8-0.2-8.2h4.2l0.2,5.2h0.2c1.2-3.5,4.1-5.8,7.3-5.8c0.5,0,0.9,0.1,1.4,0.2v4.5 c-0.5-0.1-1-0.2-1.6-0.2c-3.4,0-5.8,2.6-6.5,6.2c-0.1,0.7-0.2,1.4-0.2,2.2V51h-4.8V32.8z"/><path fill="#FFFFFF" d="M173.5,12.3h4.8V51h-4.8V12.3z"/><path fill="#FFFFFF" d="M206.5,12.3v31.9c0,2.3,0.1,5,0.2,6.8h-4.3l-0.2-4.6H202c-1.5,2.9-4.7,5.2-9,5.2 c-6.4,0-11.3-5.4-11.3-13.4c-0.1-8.8,5.4-14.2,11.9-14.2c4,0,6.8,1.9,8,4h0.1V12.3H206.5z M201.7,35.4c0-0.6-0.1-1.4-0.2-2 c-0.7-3.1-3.3-5.6-6.9-5.6c-5,0-7.9,4.4-7.9,10.2c0,5.3,2.6,9.8,7.8,9.8c3.2,0,6.2-2.1,7.1-5.7c0.2-0.7,0.2-1.3,0.2-2.1V35.4z"/><path fill="#FFFFFF" d="M42.8,64c0.1,1.6-1.1,2.9-3.1,2.9c-1.7,0-2.9-1.3-2.9-2.9c0-1.7,1.3-3,3-3C41.7,61,42.8,62.3,42.8,64z M37.4,97.8V71.4h4.8v26.4H37.4z"/><path fill="#FFFFFF" d="M47.5,78.6c0-2.7-0.1-5-0.2-7.1h4.3l0.3,4.4h0.1c1.3-2.5,4.4-5,8.8-5c3.7,0,9.4,2.2,9.4,11.2v15.8h-4.8 V82.6c0-4.3-1.6-7.8-6.1-7.8c-3.2,0-5.6,2.2-6.5,4.9c-0.2,0.6-0.3,1.4-0.3,2.2v15.9h-4.8V78.6z"/><path fill="#FFFFFF" d="M84,61.6c2.9-0.4,6.3-0.8,10.1-0.8c6.8,0,11.7,1.6,14.9,4.6c3.3,3,5.2,7.3,5.2,13.2c0,6-1.9,10.9-5.3,14.3 c-3.4,3.4-9.1,5.3-16.3,5.3c-3.4,0-6.2-0.2-8.6-0.4V61.6z M88.8,94.1c1.2,0.2,3,0.3,4.8,0.3c10.2,0,15.7-5.7,15.7-15.6 c0.1-8.7-4.9-14.2-14.9-14.2c-2.5,0-4.3,0.2-5.6,0.5V94.1z"/><path fill="#FFFFFF" d="M132.1,97.8l-0.4-3.3h-0.2c-1.5,2.1-4.3,3.9-8.1,3.9c-5.4,0-8.1-3.8-8.1-7.6c0-6.4,5.7-9.9,15.9-9.8v-0.5 c0-2.2-0.6-6.1-6-6.1c-2.5,0-5,0.8-6.9,2l-1.1-3.2c2.2-1.4,5.4-2.3,8.7-2.3c8.1,0,10.1,5.5,10.1,10.8v9.9c0,2.3,0.1,4.5,0.4,6.3 H132.1z M131.4,84.4c-5.3-0.1-11.2,0.8-11.2,5.9c0,3.1,2.1,4.6,4.5,4.6c3.4,0,5.6-2.2,6.4-4.4c0.2-0.5,0.3-1,0.3-1.5V84.4z"/><path fill="#FFFFFF" d="M146.6,63.9v7.6h6.9v3.7h-6.9v14.2c0,3.3,0.9,5.1,3.6,5.1c1.3,0,2.2-0.2,2.8-0.3l0.2,3.6 c-0.9,0.4-2.4,0.7-4.3,0.7c-2.2,0-4-0.7-5.2-2c-1.4-1.4-1.9-3.8-1.9-6.9V75.1h-4.1v-3.7h4.1v-6.3L146.6,63.9z"/><path fill="#FFFFFF" d="M171.4,97.8l-0.4-3.3h-0.2c-1.5,2.1-4.3,3.9-8.1,3.9c-5.4,0-8.1-3.8-8.1-7.6c0-6.4,5.7-9.9,15.9-9.8v-0.5 c0-2.2-0.6-6.1-6-6.1c-2.5,0-5,0.8-6.9,2l-1.1-3.2c2.2-1.4,5.4-2.3,8.7-2.3c8.1,0,10.1,5.5,10.1,10.8v9.9c0,2.3,0.1,4.5,0.4,6.3 H171.4z M170.7,84.4c-5.3-0.1-11.2,0.8-11.2,5.9c0,3.1,2.1,4.6,4.5,4.6c3.4,0,5.6-2.2,6.4-4.4c0.2-0.5,0.3-1,0.3-1.5V84.4z"/></g></g></a></g><a href="https://ourworldindata.org/grapher/GDP-vs-manufacturing-employment" target="_blank"><text font-size="25.20" x="15.0" y="35.2" fill="#555"><tspan x="15" y="35.160000000000004">GDP per head vs share of industry in employment, 1801 to 2010</tspan></text></a><text font-size="14.40" x="15.0" y="53.7" fill="#666"><tspan x="15" y="53.72">The vertical axis shows historical estimates of the share of industry in employment. The horizontal axis shows GDP</tspan><tspan x="15" y="69.56">per head after adjusting for inflation (figures are in 2011 international US dollars) and uses multiple benchmarks for</tspan><tspan x="15" y="85.4">cross-country income comparisons.</tspan></text></g><g><g class="AxisBoxView"><g class="HorizontalAxis"><text font-size="12.60" x="215.7" y="539.4"><tspan x="215.69" y="539.38">GDP per capita (2011 Int. US$, multiple benchmarks)</tspan></text><text x="75.2" y="519.3" fill="#666" text-anchor="middle" font-size="16.2">$595</text><text x="146.7" y="519.3" fill="#666" text-anchor="middle" font-size="16.2">$1,000</text><text x="464" y="519.3" fill="#666" text-anchor="middle" font-size="16.2">$10,000</text><text x="715" y="519.3" fill="#666" text-anchor="middle" font-size="16.2">$61,827</text></g><g class="VerticalAxis"><text font-size="12.60" x="-433.4" y="25.1" transform="rotate(-90)"><tspan x="-433.36199999999997" y="25.080000000000002">Share of manufacturing in employment</tspan></text><text x="70.16" y="498.1" fill="#666" dominant-baseline="middle" text-anchor="end" font-size="16.2">0%</text><text x="70.16" y="423.9" fill="#666" dominant-baseline="middle" text-anchor="end" font-size="16.2">10%</text><text x="70.16" y="349.6" fill="#666" dominant-baseline="middle" text-anchor="end" font-size="16.2">20%</text><text x="70.16" y="275.4" fill="#666" dominant-baseline="middle" text-anchor="end" font-size="16.2">30%</text><text x="70.16" y="201.1" fill="#666" dominant-baseline="middle" text-anchor="end" font-size="16.2">40%</text><text x="70.16" y="126.9" fill="#666" dominant-baseline="middle" text-anchor="end" font-size="16.2">50%</text></g><g class="AxisGridLines"><line x1="75.16" y1="498.1" x2="715.00" y2="498.1" stroke="#ccc"></line><line x1="75.16" y1="423.9" x2="715.00" y2="423.9" stroke="#ddd" stroke-dasharray="3,2"></line><line x1="75.16" y1="349.6" x2="715.00" y2="349.6" stroke="#ddd" stroke-dasharray="3,2"></line><line x1="75.16" y1="275.4" x2="715.00" y2="275.4" stroke="#ddd" stroke-dasharray="3,2"></line><line x1="75.16" y1="201.1" x2="715.00" y2="201.1" stroke="#ddd" stroke-dasharray="3,2"></line><line x1="75.16" y1="126.9" x2="715.00" y2="126.9" stroke="#ddd" stroke-dasharray="3,2"></line></g><g class="AxisGridLines"><line x1="146.7" y1="498.10" x2="146.7" y2="107.60" stroke="#ddd" stroke-dasharray="3,2"></line><line x1="464" y1="498.10" x2="464" y2="107.60" stroke="#ddd" stroke-dasharray="3,2"></line></g></g><g clip-path="url(#scatterBounds-1)" font-family="Arial Narrow, Arial, sans-serif" class="PointsWithLabels clickable"><rect x="75.162" y="107.60000000000001" width="639.838" height="390.49999999999994" fill="rgba(255,255,255,0)"></rect><defs><clipPath id="scatterBounds-1"><rect x="65.162" y="97.60000000000001" width="659.838" height="410.49999999999994"></rect></clipPath></defs><g class="key-China_0"><circle cx="145.00" cy="443.00" r="1.73" fill="#d14e5b" stroke="#ccc" opacity="0.6"></circle><polyline stroke-linecap="round" stroke="#d14e5b" points="145.00,443.00 159.00,439.00 145.00,435.00 155.00,435.00 160.00,419.00 160.00,432.00 156.00,304.00 145.00,348.00 135.00,383.00 115.00,417.00 126.00,440.00 139.00,442.00 153.00,440.00 164.00,436.00 165.00,434.00 166.00,435.00 159.00,435.00 168.00,431.00 181.00,423.00 188.00,416.00 183.00,410.00 190.00,408.00 190.00,406.00 195.00,399.00 191.00,392.00 194.00,389.00 210.00,371.00 215.00,369.00 219.00,365.00 217.00,364.00 229.00,363.00 235.00,361.00 250.00,352.00 262.00,345.00 267.00,337.00 273.00,335.00 276.00,334.00 273.00,340.00 270.00,341.00 275.00,341.00 285.00,340.00 297.00,334.00 304.00,332.00 311.00,330.00 319.00,326.00 320.00,325.00 321.00,326.00 329.00,330.00 340.00,334.00 350.00,335.00 362.00,342.00 371.00,341.00 384.00,334.00 401.00,325.00 413.00,314.00 424.00,302.00 428.00,299.00 439.00,295.00 456.00,288.00" fill="none" stroke-width="1.41" opacity="0.6"></polyline><polygon points="453.89,293.89 456.00,285.89 458.11,290.11" transform="rotate(67.61986552269545, 456.00, 288.00)" cx="456" cy="288" r="2.10772827296668" fill="#d14e5b" stroke="#ccc" stroke-width="0.2" opacity="0.6"></polygon></g><g class="key-India_0"><circle cx="193.00" cy="412.00" r="1.65" fill="#d14e5b" stroke="#ccc" opacity="0.6"></circle><polyline stroke-linecap="round" stroke="#d14e5b" points="193.00,412.00 190.00,410.00 188.00,409.00 188.00,406.00 192.00,406.00 180.00,408.00 175.00,410.00 179.00,413.00 175.00,413.00 176.00,411.00 175.00,414.00 176.00,415.00 176.00,415.00 183.00,416.00 179.00,417.00 189.00,418.00 183.00,416.00 181.00,415.00 176.00,411.00 163.00,417.00 165.00,418.00 161.00,416.00 155.00,416.00 154.00,412.00 151.00,412.00 149.00,413.00 153.00,412.00 159.00,410.00 168.00,408.00 175.00,403.00 181.00,402.00 182.00,407.00 188.00,403.00 195.00,399.00 201.00,392.00 208.00,386.00 217.00,383.00 223.00,381.00 231.00,381.00 237.00,379.00 242.00,374.00 248.00,369.00 253.00,360.00 264.00,363.00 273.00,361.00 288.00,365.00 300.00,364.00 312.00,357.00 329.00,353.00 335.00,351.00 349.00,355.00" fill="none" stroke-width="1.36" opacity="0.6"></polyline><polygon points="346.94,360.94 349.00,352.94 351.06,357.06" transform="rotate(105.94539680128038, 349.00, 355.00)" cx="349" cy="355" r="2.0589270893513465" fill="#d14e5b" stroke="#ccc" stroke-width="0.2" opacity="0.6"></polygon></g><g class="key-United-States_0"><circle cx="277.00" cy="390.00" r="1.17" fill="#4d824b" stroke="#ccc" opacity="0.6"></circle><polyline stroke-linecap="round" stroke="#4d824b" points="277.00,390.00 289.00,343.00 316.00,349.00 328.00,301.00 364.00,307.00 373.00,296.00 399.00,288.00 425.00,273.00 441.00,255.00 471.00,272.00 456.00,283.00 447.00,299.00 424.00,316.00 420.00,312.00 431.00,302.00 447.00,299.00 460.00,295.00 470.00,284.00 461.00,302.00 470.00,291.00 480.00,282.00 498.00,262.00 512.00,248.00 523.00,254.00 532.00,269.00 528.00,285.00 514.00,262.00 510.00,247.00 515.00,239.00 511.00,251.00 522.00,245.00 529.00,244.00 532.00,246.00 536.00,242.00 533.00,252.00 540.00,250.00 540.00,249.00 540.00,251.00 536.00,263.00 544.00,259.00 545.00,262.00 546.00,266.00 552.00,264.00 556.00,264.00 561.00,264.00 568.00,260.00 575.00,257.00 577.00,262.00 582.00,263.00 585.00,263.00 584.00,270.00 586.00,276.00 592.00,275.00 598.00,272.00 597.00,276.00 595.00,291.00 601.00,288.00 605.00,286.00 612.00,285.00 615.00,284.00 613.00,291.00 615.00,294.00 611.00,305.00 616.00,309.00 624.00,307.00 628.00,310.00 632.00,314.00 635.00,319.00 640.00,319.00 643.00,323.00 644.00,327.00 642.00,333.00 645.00,336.00 647.00,337.00 650.00,338.00 652.00,340.00 656.00,340.00 660.00,341.00 665.00,342.00 669.00,344.00 673.00,346.00 673.00,356.00 675.00,363.00 677.00,366.00 681.00,366.00 684.00,366.00 687.00,367.00 688.00,369.00 686.00,374.00 681.00,384.00 683.00,388.00" fill="none" stroke-width="0.84" opacity="0.6"></polyline><polygon points="681.46,394.46 683.00,386.46 684.54,389.54" transform="rotate(153.4349501268608, 683.00, 388.00)" cx="683" cy="388" r="1.5414252772441215" fill="#4d824b" stroke="#ccc" stroke-width="0.2" opacity="0.6"></polygon></g><g class="key-Indonesia_0"><circle cx="209.00" cy="438.00" r="1.31" fill="#d14e5b" stroke="#ccc" opacity="0.6"></circle><polyline stroke-linecap="round" stroke="#d14e5b" points="209.00,438.00 194.00,423.00 210.00,418.00 230.00,417.00 244.00,413.00 240.00,411.00 248.00,412.00 255.00,407.00 256.00,405.00 265.00,404.00 277.00,400.00 283.00,397.00 272.00,399.00 272.00,400.00 276.00,394.00 277.00,391.00 277.00,389.00 279.00,386.00 282.00,382.00 291.00,378.00 306.00,374.00 313.00,391.00 322.00,393.00 329.00,381.00 338.00,357.00 347.00,360.00 356.00,361.00 355.00,354.00 324.00,374.00 322.00,363.00 318.00,363.00 319.00,359.00 320.00,357.00 319.00,365.00 329.00,363.00 340.00,363.00 351.00,366.00 364.00,366.00 388.00,365.00 401.00,366.00 422.00,363.00" fill="none" stroke-width="0.78" opacity="0.6"></polyline><polygon points="420.52,369.52 422.00,361.52 423.48,364.48" transform="rotate(81.86989834160035, 422.00, 363.00)" cx="422" cy="363" r="1.4788160733831281" fill="#d14e5b" stroke="#ccc" stroke-width="0.2" opacity="0.6"></polygon></g><g class="key-Brazil_0"><circle cx="207.00" cy="382.00" r="1.25" fill="#69c487" stroke="#ccc" opacity="0.6"></circle><polyline stroke-linecap="round" stroke="#69c487" points="207.00,382.00 206.00,382.00 214.00,381.00 216.00,381.00 223.00,380.00 231.00,380.00 231.00,380.00 236.00,380.00 246.00,380.00 250.00,380.00 260.00,380.00 269.00,377.00 276.00,374.00 274.00,371.00 274.00,368.00 273.00,365.00 279.00,362.00 285.00,358.00 294.00,355.00 296.00,352.00 310.00,348.00 322.00,360.00 334.00,371.00 347.00,357.00 355.00,351.00 358.00,345.00 365.00,340.00 365.00,337.00 367.00,338.00 373.00,337.00 369.00,334.00 372.00,323.00 372.00,332.00 368.00,340.00 369.00,346.00 374.00,338.00 389.00,325.00 390.00,327.00 388.00,328.00 389.00,328.00 385.00,333.00 391.00,342.00 393.00,350.00 401.00,350.00 415.00,352.00 434.00,354.00 456.00,354.00 451.00,356.00 444.00,357.00 438.00,358.00 438.00,356.00 436.00,358.00 436.00,358.00 433.00,360.00 439.00,357.00 443.00,352.00 454.00,356.00 467.00,352.00 481.00,345.00 485.00,348.00 504.00,350.00" fill="none" stroke-width="0.73" opacity="0.6"></polyline><polygon points="502.57,356.57 504.00,348.57 505.43,351.43" transform="rotate(96.00900677340947, 504.00, 350.00)" cx="504" cy="350" r="1.4342447998394054" fill="#69c487" stroke="#ccc" stroke-width="0.2" opacity="0.6"></polygon></g><g class="key-Nigeria_0"><circle cx="254.00" cy="459.00" r="1.23" fill="#5675c1" stroke="#ccc" opacity="0.6"></circle><polyline stroke-linecap="round" stroke="#5675c1" points="254.00,459.00 263.00,457.00 268.00,453.00 276.00,449.00 285.00,447.00 306.00,437.00 297.00,437.00 281.00,443.00 287.00,447.00 333.00,440.00 355.00,437.00 367.00,442.00 370.00,436.00 386.00,432.00 403.00,440.00 399.00,437.00 405.00,429.00 416.00,431.00 410.00,428.00 411.00,428.00 402.00,426.00 385.00,428.00 386.00,431.00 380.00,446.00 359.00,451.00 367.00,451.00 357.00,455.00 345.00,455.00 347.00,453.00 345.00,454.00 341.00,454.00 330.00,453.00 324.00,456.00 316.00,459.00 308.00,461.00 301.00,463.00 298.00,465.00 294.00,466.00 289.00,469.00 281.00,469.00 281.00,469.00 282.00,467.00 293.00,466.00 298.00,464.00 304.00,464.00 305.00,463.00 310.00,461.00 342.00,459.00 345.00,457.00 355.00,455.00 370.00,453.00" fill="none" stroke-width="0.69" opacity="0.6"></polyline><polygon points="368.61,459.61 370.00,451.61 371.39,454.39" transform="rotate(82.40535733171538, 370.00, 453.00)" cx="370" cy="453" r="1.3943129985259972" fill="#5675c1" stroke="#ccc" stroke-width="0.2" opacity="0.6"></polygon></g><g class="key-Japan_0"><circle cx="146.00" cy="461.00" r="1.21" fill="#d14e5b" stroke="#ccc" opacity="0.6"></circle><polyline stroke-linecap="round" stroke="#d14e5b" points="146.00,461.00 166.00,449.00 188.00,420.00 209.00,395.00 223.00,366.00 259.00,340.00 271.00,340.00 331.00,305.00 274.00,329.00 307.00,325.00 313.00,322.00 324.00,325.00 332.00,318.00 340.00,308.00 348.00,300.00 358.00,295.00 373.00,288.00 387.00,281.00 399.00,274.00 408.00,271.00 421.00,268.00 428.00,266.00 442.00,265.00 454.00,259.00 471.00,259.00 486.00,258.00 499.00,256.00 505.00,254.00 515.00,253.00 523.00,247.00 520.00,250.00 526.00,259.00 533.00,259.00 540.00,263.00 548.00,265.00 555.00,265.00 562.00,262.00 559.00,263.00 556.00,266.00 552.00,267.00 551.00,266.00 552.00,265.00 562.00,266.00 569.00,268.00 581.00,263.00 589.00,259.00 597.00,259.00 606.00,256.00 611.00,256.00 615.00,259.00 618.00,263.00 624.00,268.00 626.00,270.00 627.00,271.00 624.00,279.00 624.00,282.00 629.00,284.00 628.00,289.00 629.00,294.00 630.00,298.00 634.00,303.00 637.00,307.00 638.00,307.00 640.00,308.00 637.00,314.00 631.00,322.00 638.00,327.00" fill="none" stroke-width="0.66" opacity="0.6"></polyline><polygon points="636.64,333.64 638.00,325.64 639.36,328.36" transform="rotate(125.53767885883332, 638.00, 327.00)" cx="638" cy="327" r="1.3558042017555998" fill="#d14e5b" stroke="#ccc" stroke-width="0.2" opacity="0.6"></polygon></g><g class="key-Mexico_0"><circle cx="280.00" cy="381.00" r="1.19" fill="#4d824b" stroke="#ccc" opacity="0.6"></circle><polyline stroke-linecap="round" stroke="#4d824b" points="280.00,381.00 284.00,379.00 286.00,375.00 282.00,374.00 291.00,374.00 297.00,373.00 300.00,369.00 305.00,365.00 309.00,369.00 309.00,366.00 314.00,366.00 320.00,360.00 325.00,357.00 334.00,351.00 348.00,349.00 355.00,340.00 364.00,337.00 371.00,332.00 381.00,328.00 389.00,325.00 398.00,321.00 403.00,323.00 413.00,317.00 423.00,314.00 433.00,306.00 441.00,309.00 444.00,305.00 446.00,313.00 455.00,307.00 467.00,298.00 480.00,293.00 486.00,290.00 481.00,292.00 469.00,308.00 469.00,306.00 468.00,303.00 455.00,304.00 454.00,303.00 452.00,304.00 454.00,297.00 460.00,291.00 463.00,293.00 466.00,293.00 464.00,298.00 467.00,302.00 451.00,312.00 451.00,304.00 459.00,293.00 466.00,291.00 469.00,291.00 481.00,288.00 480.00,297.00 481.00,304.00 483.00,307.00 491.00,308.00 500.00,300.00 507.00,299.00 512.00,299.00 514.00,299.00 505.00,307.00 513.00,306.00" fill="none" stroke-width="0.64" opacity="0.6"></polyline><polygon points="511.66,312.66 513.00,304.66 514.34,307.34" transform="rotate(82.87498435539605, 513.00, 306.00)" cx="513" cy="306" r="1.3387003226324863" fill="#4d824b" stroke="#ccc" stroke-width="0.2" opacity="0.6"></polygon></g><g class="key-Philippines_0"><circle cx="259.00" cy="378.00" r="1.21" fill="#d14e5b" stroke="#ccc" opacity="0.6"></circle><polyline stroke-linecap="round" stroke="#d14e5b" points="259.00,378.00 263.00,386.00 269.00,396.00 273.00,391.00 282.00,381.00 287.00,381.00 288.00,385.00 292.00,385.00 291.00,382.00 300.00,379.00 303.00,386.00 307.00,389.00 305.00,389.00 292.00,386.00 282.00,390.00 287.00,396.00 297.00,386.00 308.00,380.00 317.00,377.00 326.00,383.00 327.00,376.00 329.00,376.00 335.00,380.00 347.00,377.00 358.00,379.00 367.00,371.00 363.00,371.00 349.00,379.00 342.00,380.00 344.00,381.00 342.00,380.00 341.00,384.00 342.00,382.00 344.00,382.00 346.00,384.00 351.00,388.00 359.00,387.00 365.00,391.00 369.00,393.00 380.00,390.00" fill="none" stroke-width="0.61" opacity="0.6"></polyline><polygon points="378.69,396.69 380.00,388.69 381.31,391.31" transform="rotate(74.7448819321479, 380.00, 390.00)" cx="380" cy="390" r="1.3105692856017312" fill="#d14e5b" stroke="#ccc" stroke-width="0.2" opacity="0.6"></polygon></g><g class="key-Ethiopia_0"><circle cx="111.00" cy="487.00" r="1.18" fill="#5675c1" stroke="#ccc" opacity="0.6"></circle><polyline stroke-linecap="round" stroke="#5675c1" points="111.00,487.00 113.00,487.00 128.00,487.00 132.00,485.00 137.00,484.00 139.00,484.00 142.00,482.00 141.00,483.00 143.00,482.00 148.00,481.00 151.00,481.00 155.00,481.00 156.00,481.00 155.00,482.00 152.00,483.00 152.00,484.00 152.00,484.00 149.00,485.00 155.00,484.00 160.00,483.00 157.00,484.00 153.00,484.00 155.00,484.00 149.00,484.00 138.00,484.00 144.00,483.00 153.00,482.00 151.00,481.00 149.00,481.00 143.00,482.00 128.00,484.00 110.00,484.00 103.00,479.00 93.00,478.00 103.00,476.00 94.00,475.00 107.00,473.00 95.00,472.00 88.00,471.00 78.00,469.00 91.00,467.00 75.00,466.00 82.00,464.00 89.00,461.00 110.00,457.00 108.00,452.00 130.00,449.00 145.00,444.00 137.00,440.00 153.00,433.00" fill="none" stroke-width="0.60" opacity="0.6"></polyline><polygon points="151.70,439.70 153.00,431.70 154.30,434.30" transform="rotate(66.37062283338174, 153.00, 433.00)" cx="153" cy="433" r="1.295148258459426" fill="#5675c1" stroke="#ccc" stroke-width="0.2" opacity="0.6"></polygon></g><g class="key-Egypt_0"><circle cx="216.00" cy="408.00" r="1.19" fill="#5675c1" stroke="#ccc" opacity="0.6"></circle><polyline stroke-linecap="round" stroke="#5675c1" points="216.00,408.00 222.00,387.00 228.00,380.00 234.00,368.00 239.00,367.00 245.00,365.00 243.00,370.00 238.00,383.00 238.00,374.00 245.00,372.00 251.00,369.00 254.00,369.00 255.00,368.00 256.00,375.00 259.00,371.00 269.00,355.00 287.00,356.00 300.00,357.00 306.00,354.00 313.00,353.00 322.00,353.00 323.00,336.00 333.00,335.00 339.00,334.00 343.00,334.00 348.00,336.00 348.00,340.00 348.00,340.00 351.00,338.00 352.00,338.00 352.00,337.00 354.00,337.00 356.00,341.00 360.00,342.00 362.00,341.00 366.00,340.00 371.00,335.00 372.00,331.00 372.00,328.00 374.00,329.00 375.00,331.00 381.00,333.00 382.00,339.00 383.00,342.00 387.00,343.00 393.00,340.00 401.00,334.00 416.00,328.00 436.00,325.00 439.00,320.00 458.00,322.00" fill="none" stroke-width="0.59" opacity="0.6"></polyline><polygon points="456.71,328.71 458.00,320.71 459.29,323.29" transform="rotate(96.00900677340947, 458.00, 322.00)" cx="458" cy="322" r="1.2923287892687185" fill="#5675c1" stroke="#ccc" stroke-width="0.2" opacity="0.6"></polygon></g><g class="key-Germany_0"><circle cx="382.00" cy="202.00" r="1.27" fill="#ffd336" stroke="#ccc" opacity="0.6"></circle><polyline stroke-linecap="round" stroke="#ffd336" points="382.00,202.00 396.00,192.00 409.00,186.00 419.00,177.00 429.00,172.00 445.00,161.00 454.00,161.00 461.00,167.00 466.00,170.00 475.00,166.00 484.00,160.00 486.00,158.00 490.00,160.00 493.00,163.00 502.00,157.00 507.00,155.00 511.00,158.00 510.00,170.00 518.00,166.00 527.00,161.00 533.00,160.00 537.00,168.00 542.00,172.00 548.00,174.00 549.00,181.00 551.00,194.00 559.00,192.00 563.00,194.00 567.00,201.00 572.00,201.00 573.00,204.00 569.00,212.00 566.00,217.00 566.00,219.00 567.00,220.00 568.00,219.00 577.00,226.00 583.00,233.00 589.00,234.00 594.00,231.00 590.00,234.00 598.00,239.00" fill="none" stroke-width="0.59" opacity="0.6"></polyline><polygon points="596.71,245.71 598.00,237.71 599.29,240.29" transform="rotate(122.0053842449239, 598.00, 239.00)" cx="598" cy="239" r="1.2900434831230503" fill="#ffd336" stroke="#ccc" stroke-width="0.2" opacity="0.6"></polygon></g><g class="key-Thailand_0"><circle cx="189.00" cy="461.00" r="1.19" fill="#d14e5b" stroke="#ccc" opacity="0.6"></circle><polyline stroke-linecap="round" stroke="#d14e5b" points="189.00,461.00 192.00,459.00 200.00,458.00 206.00,457.00 211.00,455.00 217.00,454.00 231.00,452.00 240.00,451.00 250.00,449.00 256.00,448.00 258.00,446.00 261.00,444.00 263.00,442.00 271.00,439.00 272.00,437.00 276.00,435.00 284.00,432.00 296.00,429.00 305.00,435.00 309.00,417.00 312.00,419.00 317.00,422.00 320.00,413.00 325.00,421.00 330.00,424.00 333.00,423.00 334.00,421.00 343.00,418.00 357.00,421.00 368.00,415.00 378.00,399.00 386.00,389.00 398.00,388.00 407.00,375.00 418.00,372.00 432.00,360.00 442.00,354.00 429.00,362.00 405.00,377.00 409.00,371.00 413.00,367.00 417.00,360.00 425.00,352.00 438.00,354.00 447.00,348.00 458.00,349.00 466.00,346.00 475.00,345.00 481.00,354.00 479.00,345.00 495.00,346.00" fill="none" stroke-width="0.57" opacity="0.6"></polyline><polygon points="493.73,352.73 495.00,344.73 496.27,347.27" transform="rotate(93.57633517023868, 495.00, 346.00)" cx="495" cy="346" r="1.2731054371819548" fill="#d14e5b" stroke="#ccc" stroke-width="0.2" opacity="0.6"></polygon></g><g class="key-France_0"><circle cx="251.00" cy="298.00" r="1.21" fill="#ffd336" stroke="#ccc" opacity="0.6"></circle><polyline stroke-linecap="round" stroke="#ffd336" points="251.00,298.00 270.00,304.00 300.00,307.00 332.00,286.00 343.00,279.00 352.00,281.00 366.00,252.00 342.00,280.00 377.00,254.00 373.00,250.00 376.00,271.00 369.00,277.00 434.00,234.00 481.00,215.00 519.00,198.00 535.00,231.00 541.00,231.00 547.00,231.00 553.00,231.00 557.00,233.00 556.00,239.00 562.00,243.00 567.00,247.00 571.00,252.00 575.00,256.00 577.00,259.00 573.00,265.00 573.00,270.00 570.00,276.00 567.00,284.00 565.00,288.00 571.00,292.00 574.00,297.00 580.00,300.00 584.00,302.00 586.00,303.00 587.00,307.00 589.00,312.00 587.00,319.00 590.00,325.00 592.00,327.00 594.00,330.00 602.00,333.00 610.00,336.00 615.00,339.00 623.00,340.00 627.00,341.00 629.00,343.00 622.00,345.00 625.00,348.00 630.00,349.00 633.00,351.00 640.00,351.00" fill="none" stroke-width="0.56" opacity="0.6"></polyline><polygon points="638.74,357.74 640.00,349.74 641.26,352.26" transform="rotate(90.0000007648485, 640.00, 351.00)" cx="640" cy="351" r="1.2623890039113328" fill="#ffd336" stroke="#ccc" stroke-width="0.2" opacity="0.6"></polygon></g><g class="key-United-Kingdom_0"><circle cx="256.00" cy="221.00" r="1.15" fill="#ffd336" stroke="#ccc" opacity="0.6"></circle><polyline stroke-linecap="round" stroke="#ffd336" points="256.00,221.00 276.00,186.00 295.00,169.00 311.00,193.00 331.00,183.00 344.00,178.00 363.00,174.00 383.00,172.00 395.00,170.00 385.00,145.00 381.00,168.00 393.00,161.00 398.00,154.00 403.00,152.00 410.00,156.00 405.00,162.00 416.00,157.00 417.00,161.00 422.00,162.00 420.00,172.00 412.00,185.00 413.00,188.00 416.00,185.00 425.00,179.00 429.00,177.00 435.00,171.00 439.00,167.00 440.00,171.00 452.00,176.00 456.00,174.00 456.00,172.00 458.00,170.00 457.00,172.00 463.00,170.00 469.00,168.00 474.00,166.00 476.00,167.00 478.00,167.00 478.00,169.00 483.00,170.00 489.00,167.00 493.00,167.00 493.00,170.00 498.00,174.00 505.00,171.00 508.00,171.00 511.00,172.00 514.00,178.00 516.00,181.00 522.00,181.00 526.00,186.00 526.00,191.00 529.00,198.00 538.00,201.00 535.00,202.00 535.00,213.00 540.00,217.00 546.00,218.00 553.00,221.00 560.00,224.00 563.00,232.00 559.00,244.00 558.00,253.00 560.00,260.00 561.00,265.00 564.00,268.00 568.00,273.00 574.00,275.00 579.00,278.00 582.00,276.00 584.00,282.00 582.00,293.00 583.00,302.00 587.00,308.00 592.00,310.00 598.00,310.00 604.00,312.00 614.00,315.00 619.00,314.00 625.00,321.00 634.00,326.00 637.00,331.00 638.00,337.00 638.00,342.00 641.00,345.00 646.00,350.00 648.00,352.00 648.00,353.00 646.00,357.00 639.00,364.00 637.00,360.00" fill="none" stroke-width="0.56" opacity="0.6"></polyline><polygon points="635.74,366.74 637.00,358.74 638.26,361.26" transform="rotate(-26.565051402836207, 637.00, 360.00)" cx="637" cy="360" r="1.2610879072596028" fill="#ffd336" stroke="#ccc" stroke-width="0.2" opacity="0.6"></polygon></g><g class="key-Italy_0"><circle cx="337.00" cy="307.00" r="1.23" fill="#ffd336" stroke="#ccc" opacity="0.6"></circle><polyline stroke-linecap="round" stroke="#ffd336" points="337.00,307.00 347.00,302.00 359.00,294.00 367.00,288.00 376.00,285.00 383.00,280.00 391.00,273.00 400.00,272.00 409.00,269.00 416.00,262.00 427.00,253.00 439.00,245.00 447.00,235.00 452.00,233.00 454.00,237.00 461.00,236.00 472.00,233.00 484.00,228.00 492.00,223.00 496.00,217.00 499.00,218.00 504.00,217.00 513.00,218.00 519.00,216.00 517.00,216.00 528.00,221.00 535.00,220.00 542.00,221.00 553.00,221.00 562.00,219.00 559.00,223.00 558.00,227.00 556.00,234.00 556.00,246.00 558.00,253.00 567.00,256.00 573.00,260.00 579.00,260.00 584.00,261.00 590.00,262.00 595.00,265.00 597.00,269.00 597.00,270.00 601.00,271.00 606.00,272.00 607.00,276.00 613.00,276.00 620.00,276.00 624.00,279.00 629.00,282.00 632.00,284.00 628.00,285.00 626.00,285.00 625.00,286.00 628.00,286.00 632.00,288.00 639.00,288.00 640.00,290.00 635.00,294.00 634.00,299.00" fill="none" stroke-width="0.56" opacity="0.6"></polyline><polygon points="632.74,305.74 634.00,297.74 635.26,300.26" transform="rotate(-168.69006895956142, 634.00, 299.00)" cx="634" cy="299" r="1.2584993456931806" fill="#ffd336" stroke="#ccc" stroke-width="0.2" opacity="0.6"></polygon></g><g class="key-South-Africa_0"><circle cx="389.00" cy="333.00" r="1.17" fill="#5675c1" stroke="#ccc" opacity="0.6"></circle><polyline stroke-linecap="round" stroke="#5675c1" points="389.00,333.00 392.00,330.00 394.00,328.00 402.00,324.00 406.00,314.00 409.00,308.00 412.00,305.00 418.00,301.00 419.00,299.00 427.00,296.00 431.00,291.00 430.00,291.00 432.00,291.00 443.00,285.00 448.00,279.00 442.00,285.00 439.00,282.00 432.00,283.00 433.00,284.00 436.00,278.00 447.00,267.00 450.00,262.00 447.00,264.00 442.00,268.00 443.00,268.00 434.00,266.00 429.00,270.00 433.00,271.00 435.00,275.00 433.00,279.00 430.00,282.00 426.00,291.00 423.00,298.00 423.00,302.00 423.00,302.00 429.00,305.00 433.00,315.00 435.00,319.00 435.00,328.00 435.00,335.00 441.00,334.00 444.00,334.00 451.00,336.00 453.00,337.00 458.00,331.00 467.00,331.00 475.00,334.00 481.00,328.00 482.00,328.00 477.00,333.00 480.00,340.00" fill="none" stroke-width="0.54" opacity="0.6"></polyline><polygon points="478.76,346.76 480.00,338.76 481.24,341.24" transform="rotate(156.80141081889985, 480.00, 340.00)" cx="480" cy="340" r="1.239550412949413" fill="#5675c1" stroke="#ccc" stroke-width="0.2" opacity="0.6"></polygon></g><g class="key-South-Korea_0"><circle cx="202.00" cy="439.00" r="1.18" fill="#d14e5b" stroke="#ccc" opacity="0.6"></circle><polyline stroke-linecap="round" stroke="#d14e5b" points="202.00,439.00 214.00,412.00 219.00,412.00 220.00,396.00 233.00,396.00 239.00,377.00 254.00,364.00 270.00,361.00 276.00,366.00 295.00,363.00 309.00,360.00 337.00,347.00 357.00,332.00 372.00,319.00 381.00,299.00 387.00,290.00 396.00,276.00 398.00,271.00 385.00,280.00 389.00,289.00 397.00,288.00 409.00,279.00 417.00,268.00 421.00,268.00 441.00,259.00 458.00,244.00 473.00,238.00 484.00,237.00 496.00,236.00 511.00,231.00 519.00,239.00 529.00,249.00 541.00,252.00 553.00,252.00 559.00,258.00 565.00,267.00 551.00,292.00 566.00,296.00 578.00,291.00 581.00,296.00 591.00,296.00 595.00,295.00 602.00,296.00 610.00,300.00 614.00,305.00 620.00,308.00 617.00,308.00 616.00,308.00 625.00,303.00" fill="none" stroke-width="0.54" opacity="0.6"></polyline><polygon points="623.76,309.76 625.00,301.76 626.24,304.24" transform="rotate(60.945396418856134, 625.00, 303.00)" cx="625" cy="303" r="1.2358360116502318" fill="#d14e5b" stroke="#ccc" stroke-width="0.2" opacity="0.6"></polygon></g><g class="key-Colombia_0"><circle cx="297.00" cy="378.00" r="1.15" fill="#69c487" stroke="#ccc" opacity="0.6"></circle><polyline stroke-linecap="round" stroke="#69c487" points="297.00,378.00 296.00,380.00 300.00,382.00 306.00,376.00 313.00,368.00 312.00,366.00 312.00,366.00 311.00,366.00 309.00,371.00 313.00,368.00 314.00,369.00 317.00,367.00 320.00,365.00 320.00,368.00 324.00,367.00 323.00,367.00 327.00,363.00 328.00,360.00 333.00,357.00 338.00,354.00 344.00,353.00 354.00,360.00 363.00,367.00 374.00,374.00 382.00,380.00 387.00,385.00 393.00,379.00 397.00,378.00 404.00,371.00 406.00,372.00 411.00,366.00 409.00,366.00 407.00,366.00 403.00,364.00 402.00,365.00 401.00,371.00 406.00,370.00 404.00,363.00 406.00,363.00 406.00,363.00 410.00,351.00 407.00,348.00 412.00,342.00 418.00,340.00 422.00,345.00 426.00,334.00 423.00,352.00 424.00,354.00 419.00,359.00 409.00,371.00 412.00,365.00 411.00,372.00 411.00,361.00 414.00,364.00 419.00,354.00 427.00,345.00 438.00,342.00 450.00,355.00 460.00,346.00 461.00,355.00 472.00,346.00" fill="none" stroke-width="0.53" opacity="0.6"></polyline><polygon points="470.77,352.77 472.00,344.77 473.23,347.23" transform="rotate(50.71059356845432, 472.00, 346.00)" cx="472" cy="346" r="1.232180199989048" fill="#69c487" stroke="#ccc" stroke-width="0.2" opacity="0.6"></polygon></g><g class="key-Spain_0"><circle cx="287.00" cy="380.00" r="1.16" fill="#ffd336" stroke="#ccc" opacity="0.6"></circle><polyline stroke-linecap="round" stroke="#ffd336" points="287.00,380.00 328.00,405.00 316.00,379.00 332.00,397.00 339.00,377.00 359.00,334.00 344.00,319.00 344.00,308.00 416.00,237.00 452.00,253.00 456.00,250.00 467.00,247.00 474.00,243.00 479.00,241.00 481.00,239.00 487.00,239.00 492.00,239.00 496.00,242.00 498.00,244.00 503.00,251.00 495.00,262.00 492.00,269.00 488.00,273.00 484.00,280.00 483.00,285.00 493.00,284.00 504.00,282.00 516.00,281.00 527.00,276.00 535.00,275.00 543.00,276.00 546.00,282.00 546.00,291.00 552.00,295.00 560.00,293.00 563.00,291.00 573.00,287.00 583.00,285.00 589.00,282.00 597.00,279.00 602.00,277.00 607.00,279.00 604.00,281.00 606.00,282.00 612.00,282.00 622.00,285.00 624.00,286.00" fill="none" stroke-width="0.53" opacity="0.6"></polyline><polygon points="622.77,292.77 624.00,284.77 625.23,287.23" transform="rotate(116.56505216768471, 624.00, 286.00)" cx="624" cy="286" r="1.2317548208017595" fill="#ffd336" stroke="#ccc" stroke-width="0.2" opacity="0.6"></polygon></g><g class="key-Tanzania_0"><circle cx="189.00" cy="487.00" r="1.15" fill="#5675c1" stroke="#ccc" opacity="0.6"></circle><polyline stroke-linecap="round" stroke="#5675c1" points="189.00,487.00 197.00,488.00 206.00,487.00 218.00,487.00 216.00,486.00 214.00,485.00 227.00,483.00 229.00,481.00 231.00,481.00 235.00,480.00 247.00,480.00 249.00,478.00 254.00,477.00 259.00,477.00 258.00,477.00 265.00,478.00 273.00,475.00 267.00,476.00 269.00,477.00 264.00,475.00 252.00,476.00 228.00,478.00 231.00,478.00 236.00,481.00 243.00,481.00 252.00,481.00 201.00,482.00 162.00,481.00 198.00,480.00 185.00,481.00 181.00,478.00 173.00,478.00 156.00,478.00 142.00,478.00 130.00,478.00 135.00,479.00 138.00,479.00 148.00,478.00 154.00,477.00 159.00,476.00 164.00,475.00 172.00,475.00 180.00,473.00 186.00,471.00 189.00,468.00 202.00,464.00 211.00,461.00 223.00,460.00 229.00,459.00 230.00,458.00 242.00,458.00" fill="none" stroke-width="0.53" opacity="0.6"></polyline><polygon points="240.77,464.77 242.00,456.77 243.23,459.23" transform="rotate(90.0000007648485, 242.00, 458.00)" cx="242" cy="458" r="1.2293269302954417" fill="#5675c1" stroke="#ccc" stroke-width="0.2" opacity="0.6"></polygon></g><g class="key-Kenya_0"><circle cx="218.00" cy="464.00" r="1.15" fill="#5675c1" stroke="#ccc" opacity="0.6"></circle><polyline stroke-linecap="round" stroke="#5675c1" points="218.00,464.00 219.00,462.00 226.00,460.00 235.00,462.00 233.00,461.00 240.00,461.00 236.00,464.00 233.00,463.00 243.00,464.00 248.00,463.00 242.00,463.00 244.00,463.00 239.00,462.00 242.00,461.00 244.00,460.00 248.00,460.00 247.00,458.00 254.00,456.00 251.00,454.00 254.00,452.00 252.00,449.00 256.00,447.00 255.00,444.00 245.00,440.00 248.00,436.00 265.00,432.00 256.00,424.00 259.00,420.00 258.00,415.00 255.00,409.00 253.00,404.00 248.00,402.00 249.00,399.00 241.00,395.00 235.00,391.00 236.00,388.00 242.00,383.00 252.00,382.00 257.00,380.00 259.00,379.00 265.00,379.00 275.00,377.00" fill="none" stroke-width="0.52" opacity="0.6"></polyline><polygon points="273.78,383.78 275.00,375.78 276.22,378.22" transform="rotate(78.69006819471291, 275.00, 377.00)" cx="275" cy="377" r="1.2206120779623557" fill="#5675c1" stroke="#ccc" stroke-width="0.2" opacity="0.6"></polygon></g><g class="key-Argentina_0"><circle cx="442.00" cy="276.00" r="1.17" fill="#69c487" stroke="#ccc" opacity="0.6"></circle><polyline stroke-linecap="round" stroke="#69c487" points="442.00,276.00 440.00,271.00 425.00,273.00 433.00,291.00 437.00,276.00 444.00,265.00 444.00,264.00 450.00,253.00 457.00,243.00 444.00,259.00 448.00,246.00 456.00,244.00 452.00,259.00 447.00,269.00 459.00,263.00 470.00,262.00 469.00,265.00 472.00,270.00 476.00,264.00 486.00,256.00 492.00,256.00 496.00,257.00 499.00,258.00 505.00,259.00 512.00,258.00 509.00,275.00 507.00,264.00 514.00,262.00 506.00,265.00 514.00,270.00 514.00,255.00 504.00,272.00 498.00,302.00 502.00,299.00 503.00,289.00 492.00,299.00 500.00,294.00 503.00,294.00 499.00,299.00 488.00,305.00 487.00,310.00 500.00,314.00 512.00,315.00 519.00,329.00 526.00,334.00 521.00,334.00 528.00,338.00 531.00,340.00 530.00,348.00 521.00,357.00 519.00,363.00 509.00,362.00 487.00,373.00 496.00,361.00 507.00,351.00 518.00,348.00 527.00,347.00 539.00,342.00 547.00,345.00 536.00,349.00 549.00,348.00" fill="none" stroke-width="0.52" opacity="0.6"></polyline><polygon points="547.78,354.78 549.00,346.78 550.22,349.22" transform="rotate(85.60129537247138, 549.00, 348.00)" cx="549" cy="348" r="1.2204060423365992" fill="#69c487" stroke="#ccc" stroke-width="0.2" opacity="0.6"></polygon></g><g class="key-Morocco_0"><circle cx="271.00" cy="400.00" r="1.15" fill="#5675c1" stroke="#ccc" opacity="0.6"></circle><polyline stroke-linecap="round" stroke="#5675c1" points="271.00,400.00 273.00,383.00 274.00,393.00 275.00,389.00 276.00,391.00 278.00,389.00 282.00,384.00 286.00,382.00 290.00,379.00 294.00,377.00 298.00,371.00 302.00,366.00 303.00,359.00 305.00,357.00 309.00,350.00 315.00,329.00 327.00,319.00 331.00,311.00 332.00,319.00 336.00,321.00 345.00,325.00 339.00,319.00 349.00,318.00 344.00,322.00 346.00,327.00 351.00,322.00 358.00,326.00 351.00,328.00 361.00,321.00 361.00,323.00 363.00,317.00 370.00,320.00 365.00,322.00 362.00,325.00 373.00,326.00 363.00,325.00 383.00,325.00 371.00,322.00 369.00,324.00 362.00,326.00 356.00,325.00 357.00,325.00 354.00,324.00 357.00,322.00 355.00,324.00 352.00,322.00 363.00,319.00 373.00,313.00 389.00,309.00 397.00,311.00 406.00,309.00" fill="none" stroke-width="0.50" opacity="0.6"></polyline><polygon points="404.80,315.80 406.00,307.80 407.20,310.20" transform="rotate(77.47119294922321, 406.00, 309.00)" cx="406" cy="309" r="1.2022725506714236" fill="#5675c1" stroke="#ccc" stroke-width="0.2" opacity="0.6"></polygon></g><g class="key-Peru_0"><circle cx="272.00" cy="371.00" r="1.14" fill="#69c487" stroke="#ccc" opacity="0.6"></circle><polyline stroke-linecap="round" stroke="#69c487" points="272.00,371.00 280.00,365.00 287.00,365.00 292.00,368.00 297.00,365.00 304.00,361.00 311.00,358.00 315.00,357.00 310.00,360.00 310.00,361.00 316.00,355.00 321.00,343.00 320.00,346.00 325.00,346.00 328.00,334.00 337.00,343.00 333.00,350.00 327.00,348.00 322.00,358.00 325.00,371.00 334.00,366.00 340.00,366.00 338.00,363.00 320.00,365.00 323.00,368.00 321.00,374.00 339.00,374.00 350.00,368.00 342.00,359.00 314.00,360.00 313.00,369.00 316.00,369.00 317.00,368.00 323.00,368.00 342.00,361.00 355.00,361.00 359.00,360.00 366.00,363.00 361.00,371.00 359.00,383.00 362.00,380.00 361.00,383.00 368.00,385.00 375.00,392.00 384.00,386.00 397.00,388.00 413.00,383.00 426.00,374.00 437.00,372.00 437.00,374.00 454.00,368.00" fill="none" stroke-width="0.50" opacity="0.6"></polyline><polygon points="452.80,374.80 454.00,366.80 455.20,369.20" transform="rotate(70.55996577146473, 454.00, 368.00)" cx="454" cy="368" r="1.1957290558861318" fill="#69c487" stroke="#ccc" stroke-width="0.2" opacity="0.6"></polygon></g><g class="key-Venezuela_0"><circle cx="339.00" cy="352.00" r="1.13" fill="#69c487" stroke="#ccc" opacity="0.6"></circle><polyline stroke-linecap="round" stroke="#69c487" points="339.00,352.00 350.00,350.00 358.00,345.00 361.00,348.00 369.00,336.00 370.00,328.00 376.00,323.00 385.00,326.00 386.00,328.00 390.00,325.00 386.00,342.00 387.00,345.00 388.00,342.00 397.00,344.00 405.00,338.00 405.00,337.00 409.00,339.00 410.00,337.00 417.00,332.00 420.00,335.00 432.00,334.00 427.00,322.00 429.00,313.00 444.00,305.00 486.00,311.00 478.00,313.00 478.00,304.00 478.00,296.00 470.00,287.00 480.00,290.00 481.00,293.00 476.00,299.00 461.00,299.00 455.00,305.00 453.00,319.00 446.00,319.00 432.00,314.00 432.00,315.00 433.00,311.00 421.00,326.00 427.00,319.00 427.00,306.00 440.00,305.00 426.00,311.00 416.00,328.00 419.00,334.00 413.00,340.00 415.00,323.00 403.00,327.00 405.00,340.00 432.00,338.00 424.00,346.00 417.00,356.00 409.00,361.00 442.00,356.00 473.00,351.00 492.00,337.00 507.00,331.00 525.00,334.00 505.00,336.00 530.00,339.00" fill="none" stroke-width="0.50" opacity="0.6"></polyline><polygon points="528.80,345.80 530.00,337.80 531.20,340.20" transform="rotate(96.8427742356315, 530.00, 339.00)" cx="530" cy="339" r="1.1955052563244588" fill="#69c487" stroke="#ccc" stroke-width="0.2" opacity="0.6"></polygon></g><g class="key-Malaysia_0"><circle cx="368.00" cy="380.00" r="1.15" fill="#d14e5b" stroke="#ccc" opacity="0.6"></circle><polyline stroke-linecap="round" stroke="#d14e5b" points="368.00,380.00 381.00,359.00 389.00,355.00 395.00,355.00 403.00,351.00 415.00,345.00 418.00,342.00 421.00,337.00 424.00,334.00 431.00,331.00 420.00,337.00 403.00,345.00 409.00,347.00 418.00,342.00 429.00,328.00 441.00,315.00 449.00,302.00 458.00,288.00 463.00,282.00 471.00,269.00 481.00,258.00 488.00,248.00 493.00,242.00 473.00,256.00 476.00,256.00 492.00,251.00 486.00,248.00 493.00,258.00 497.00,257.00 507.00,273.00 519.00,275.00 522.00,273.00 533.00,285.00 543.00,283.00 534.00,295.00 542.00,295.00" fill="none" stroke-width="0.49" opacity="0.6"></polyline><polygon points="540.81,301.81 542.00,293.81 543.19,296.19" transform="rotate(90.0000007648485, 542.00, 295.00)" cx="542" cy="295" r="1.1941595845093689" fill="#d14e5b" stroke="#ccc" stroke-width="0.2" opacity="0.6"></polygon></g><g class="key-Ghana_0"><circle cx="286.00" cy="377.00" r="1.13" fill="#5675c1" stroke="#ccc" opacity="0.6"></circle><polyline stroke-linecap="round" stroke="#5675c1" points="286.00,377.00 280.00,379.00 276.00,383.00 282.00,381.00 283.00,391.00 276.00,396.00 270.00,401.00 266.00,390.00 265.00,390.00 268.00,386.00 280.00,383.00 282.00,383.00 261.00,391.00 266.00,374.00 278.00,375.00 259.00,368.00 242.00,366.00 251.00,361.00 250.00,364.00 243.00,376.00 239.00,372.00 232.00,391.00 210.00,405.00 200.00,413.00 209.00,405.00 215.00,393.00 214.00,390.00 216.00,386.00 223.00,383.00 218.00,380.00 218.00,383.00 226.00,387.00 226.00,386.00 223.00,386.00 226.00,388.00 231.00,389.00 227.00,389.00 248.00,387.00 242.00,386.00 256.00,386.00 263.00,384.00 251.00,386.00 254.00,385.00 256.00,385.00 267.00,384.00 269.00,384.00 263.00,384.00 269.00,386.00 280.00,383.00 275.00,386.00 282.00,386.00" fill="none" stroke-width="0.48" opacity="0.6"></polyline><polygon points="280.82,392.82 282.00,384.82 283.18,387.18" transform="rotate(90.0000007648485, 282.00, 386.00)" cx="282" cy="386" r="1.1845700024363275" fill="#5675c1" stroke="#ccc" stroke-width="0.2" opacity="0.6"></polygon></g><g class="key-Taiwan_0"><circle cx="272.00" cy="363.00" r="1.15" fill="#d14e5b" stroke="#ccc" opacity="0.6"></circle><polyline stroke-linecap="round" stroke="#d14e5b" points="272.00,363.00 284.00,352.00 295.00,340.00 304.00,338.00 318.00,324.00 327.00,319.00 338.00,312.00 351.00,300.00 366.00,286.00 382.00,273.00 397.00,259.00 397.00,255.00 400.00,250.00 417.00,240.00 427.00,231.00 441.00,219.00 451.00,204.00 458.00,198.00 463.00,199.00 465.00,208.00 474.00,210.00 486.00,201.00 487.00,206.00 504.00,206.00 526.00,197.00 529.00,199.00 540.00,201.00 551.00,210.00 559.00,215.00 568.00,218.00 574.00,221.00 580.00,220.00 586.00,222.00 593.00,228.00 602.00,223.00 610.00,222.00 615.00,226.00 624.00,227.00 618.00,233.00 623.00,238.00 626.00,241.00 633.00,238.00 640.00,234.00 643.00,233.00 647.00,231.00 639.00,231.00 636.00,239.00 647.00,239.00" fill="none" stroke-width="0.48" opacity="0.6"></polyline><polygon points="645.82,245.82 647.00,237.82 648.18,240.18" transform="rotate(90.0000007648485, 647.00, 239.00)" cx="647" cy="239" r="1.1811847257363741" fill="#d14e5b" stroke="#ccc" stroke-width="0.2" opacity="0.6"></polygon></g><g class="key-Chile_0"><circle cx="350.00" cy="285.00" r="1.13" fill="#69c487" stroke="#ccc" opacity="0.6"></circle><polyline stroke-linecap="round" stroke="#69c487" points="350.00,285.00 353.00,293.00 363.00,311.00 362.00,314.00 372.00,253.00 364.00,268.00 359.00,262.00 372.00,285.00 375.00,305.00 364.00,272.00 367.00,290.00 360.00,296.00 389.00,296.00 391.00,299.00 391.00,287.00 384.00,275.00 397.00,275.00 403.00,276.00 404.00,282.00 411.00,285.00 408.00,283.00 423.00,281.00 420.00,284.00 413.00,273.00 404.00,250.00 378.00,268.00 382.00,272.00 392.00,276.00 400.00,278.00 409.00,275.00 415.00,294.00 420.00,284.00 399.00,318.00 392.00,338.00 395.00,325.00 393.00,328.00 397.00,323.00 404.00,310.00 415.00,297.00 425.00,286.00 426.00,291.00 433.00,293.00 448.00,294.00 453.00,291.00 462.00,298.00 478.00,299.00 481.00,301.00 482.00,297.00 479.00,302.00 472.00,326.00 475.00,328.00 473.00,331.00 473.00,331.00 478.00,333.00 490.00,334.00 503.00,338.00 524.00,334.00 532.00,334.00 527.00,333.00 528.00,338.00 545.00,342.00" fill="none" stroke-width="0.47" opacity="0.6"></polyline><polygon points="543.83,348.83 545.00,340.83 546.17,343.17" transform="rotate(103.24052079255785, 545.00, 342.00)" cx="545" cy="342" r="1.1657496638936067" fill="#69c487" stroke="#ccc" stroke-width="0.2" opacity="0.6"></polygon></g><g class="key-Netherlands_0"><circle cx="219.00" cy="303.00" r="1.12" fill="#ffd336" stroke="#ccc" opacity="0.6"></circle><polyline stroke-linecap="round" stroke="#ffd336" points="219.00,303.00 266.00,268.00 265.00,265.00 339.00,263.00 353.00,256.00 373.00,243.00 369.00,233.00 383.00,238.00 390.00,233.00 414.00,246.00 474.00,227.00 473.00,225.00 482.00,223.00 485.00,220.00 498.00,219.00 502.00,222.00 506.00,230.00 514.00,231.00 523.00,234.00 533.00,236.00 541.00,242.00 547.00,247.00 552.00,250.00 560.00,256.00 572.00,260.00 568.00,266.00 574.00,269.00 574.00,272.00 575.00,275.00 580.00,281.00 585.00,289.00 579.00,296.00 573.00,305.00 572.00,311.00 574.00,313.00 574.00,314.00 577.00,317.00 576.00,318.00 580.00,319.00 586.00,321.00 591.00,322.00 594.00,326.00 598.00,331.00 600.00,336.00 605.00,339.00 610.00,342.00 613.00,347.00 624.00,348.00 632.00,351.00 641.00,353.00 654.00,354.00 655.00,357.00 655.00,360.00 652.00,363.00 654.00,366.00 663.00,368.00 670.00,370.00 678.00,372.00 678.00,371.00 672.00,373.00 669.00,376.00" fill="none" stroke-width="0.46" opacity="0.6"></polyline><polygon points="667.84,382.84 669.00,374.84 670.16,377.16" transform="rotate(-135.00000114727274, 669.00, 376.00)" cx="669" cy="376" r="1.1643757151812375" fill="#ffd336" stroke="#ccc" stroke-width="0.2" opacity="0.6"></polygon></g><g class="key-Malawi_0"><circle cx="151.00" cy="455.00" r="1.13" fill="#5675c1" stroke="#ccc" opacity="0.6"></circle><polyline stroke-linecap="round" stroke="#5675c1" points="151.00,455.00 166.00,460.00 158.00,460.00 157.00,459.00 137.00,458.00 151.00,459.00 160.00,453.00 160.00,457.00 163.00,455.00 164.00,452.00 157.00,455.00 154.00,454.00 156.00,449.00 150.00,450.00 138.00,455.00 148.00,463.00 151.00,465.00 157.00,461.00 163.00,461.00 180.00,459.00 163.00,455.00 153.00,464.00 138.00,464.00 142.00,464.00 131.00,463.00 137.00,463.00 117.00,463.00 123.00,466.00 149.00,466.00 151.00,466.00 143.00,465.00 157.00,466.00 129.00,466.00 134.00,463.00 128.00,463.00 114.00,466.00 130.00,463.00 131.00,461.00 149.00,458.00 154.00,455.00 146.00,449.00 167.00,442.00 178.00,437.00 146.00,435.00 145.00,430.00" fill="none" stroke-width="0.46" opacity="0.6"></polyline><polygon points="143.84,436.84 145.00,428.84 146.16,431.16" transform="rotate(-11.309932570135583, 145.00, 430.00)" cx="145" cy="430" r="1.159588131868306" fill="#5675c1" stroke="#ccc" stroke-width="0.2" opacity="0.6"></polygon></g><g class="key-Zambia_0"><circle cx="267.00" cy="406.00" r="1.12" fill="#5675c1" stroke="#ccc" opacity="0.6"></circle><polyline stroke-linecap="round" stroke="#5675c1" points="267.00,406.00 246.00,403.00 256.00,415.00 259.00,417.00 261.00,406.00 244.00,417.00 239.00,420.00 248.00,412.00 244.00,414.00 241.00,412.00 246.00,415.00 252.00,419.00 227.00,421.00 216.00,423.00 210.00,426.00 199.00,426.00 221.00,428.00 215.00,431.00 204.00,429.00 216.00,431.00 225.00,433.00 196.00,436.00 193.00,435.00 208.00,437.00 182.00,438.00 190.00,438.00 186.00,444.00 180.00,446.00 165.00,449.00 145.00,451.00 144.00,455.00 149.00,455.00 162.00,452.00 153.00,456.00 141.00,459.00 166.00,458.00 174.00,457.00 185.00,454.00 196.00,452.00 198.00,449.00 211.00,448.00 228.00,447.00 264.00,446.00 269.00,448.00 281.00,446.00 293.00,444.00" fill="none" stroke-width="0.45" opacity="0.6"></polyline><polygon points="291.85,450.85 293.00,442.85 294.15,445.15" transform="rotate(80.53767847640908, 293.00, 444.00)" cx="293" cy="444" r="1.15435889139051" fill="#5675c1" stroke="#ccc" stroke-width="0.2" opacity="0.6"></polygon></g><g class="key-Senegal_0"><circle cx="244.00" cy="445.00" r="1.13" fill="#5675c1" stroke="#ccc" opacity="0.6"></circle><polyline stroke-linecap="round" stroke="#5675c1" points="244.00,445.00 236.00,445.00 235.00,446.00 222.00,448.00 223.00,443.00 224.00,444.00 230.00,440.00 223.00,439.00 215.00,446.00 216.00,442.00 203.00,445.00 204.00,444.00 223.00,441.00 230.00,443.00 229.00,443.00 239.00,444.00 242.00,443.00 241.00,441.00 243.00,441.00 236.00,443.00 235.00,442.00 233.00,441.00 229.00,439.00 227.00,438.00 221.00,435.00 223.00,432.00 224.00,429.00 223.00,426.00 225.00,420.00 227.00,419.00 231.00,417.00 232.00,413.00 229.00,409.00 231.00,408.00 231.00,403.00 238.00,400.00 237.00,400.00 242.00,397.00 241.00,400.00 247.00,398.00 250.00,394.00" fill="none" stroke-width="0.45" opacity="0.6"></polyline><polygon points="248.85,400.85 250.00,392.85 251.15,395.15" transform="rotate(36.86989795917608, 250.00, 394.00)" cx="250" cy="394" r="1.1524252521080045" fill="#5675c1" stroke="#ccc" stroke-width="0.2" opacity="0.6"></polygon></g><g class="key-Belgium_0"><circle cx="250.00" cy="256.00" r="1.13" fill="#ffd336" stroke="#ccc" opacity="0.6"></circle><polyline stroke-linecap="round" stroke="#ffd336" points="250.00,256.00 284.00,228.00 304.00,202.00 342.00,201.00 369.00,190.00 392.00,155.00 414.00,130.00 381.00,120.00 380.00,113.00 393.00,114.00 458.00,107.00 526.00,198.00 531.00,201.00 540.00,206.00 548.00,208.00 550.00,211.00 548.00,219.00 557.00,227.00 558.00,234.00 562.00,243.00 566.00,251.00 573.00,257.00 563.00,267.00 559.00,275.00 556.00,281.00 555.00,285.00 550.00,289.00 557.00,293.00 563.00,299.00 574.00,302.00 579.00,302.00 582.00,303.00 586.00,305.00 593.00,308.00 592.00,314.00 597.00,318.00 601.00,322.00 599.00,325.00 608.00,328.00 615.00,330.00 621.00,333.00 630.00,334.00 629.00,335.00 635.00,340.00 633.00,344.00 635.00,347.00 637.00,349.00 636.00,351.00 650.00,353.00" fill="none" stroke-width="0.45" opacity="0.6"></polyline><polygon points="648.85,359.85 650.00,351.85 651.15,354.15" transform="rotate(98.13010318809667, 650.00, 353.00)" cx="650" cy="353" r="1.1472203589881866" fill="#ffd336" stroke="#ccc" stroke-width="0.2" opacity="0.6"></polygon></g><g class="key-Bolivia_0"><circle cx="213.00" cy="400.00" r="1.12" fill="#69c487" stroke="#ccc" opacity="0.6"></circle><polyline stroke-linecap="round" stroke="#69c487" points="213.00,400.00 223.00,392.00 223.00,386.00 203.00,386.00 204.00,380.00 204.00,374.00 190.00,383.00 179.00,403.00 175.00,409.00 176.00,407.00 176.00,405.00 177.00,413.00 177.00,405.00 183.00,402.00 188.00,399.00 192.00,389.00 201.00,391.00 206.00,384.00 218.00,385.00 220.00,374.00 224.00,377.00 228.00,374.00 224.00,372.00 234.00,364.00 250.00,360.00 252.00,357.00 257.00,352.00 259.00,348.00 255.00,348.00 257.00,350.00 257.00,352.00 257.00,363.00 250.00,372.00 246.00,379.00 251.00,372.00 258.00,393.00 255.00,403.00 259.00,403.00 242.00,403.00 245.00,395.00 252.00,385.00 257.00,366.00 261.00,362.00 266.00,371.00 274.00,357.00 287.00,354.00 299.00,351.00 299.00,338.00 300.00,341.00 298.00,344.00 297.00,334.00 300.00,352.00 305.00,334.00 309.00,317.00 315.00,317.00 322.00,323.00 327.00,340.00 333.00,323.00 347.00,329.00 351.00,322.00 363.00,321.00" fill="none" stroke-width="0.44" opacity="0.6"></polyline><polygon points="361.86,327.86 363.00,319.86 364.14,322.14" transform="rotate(85.23635903363939, 363.00, 321.00)" cx="363" cy="321" r="1.1447937756025481" fill="#69c487" stroke="#ccc" stroke-width="0.2" opacity="0.6"></polygon></g><g class="key-Sweden_0"><circle cx="197.00" cy="399.00" r="1.12" fill="#ffd336" stroke="#ccc" opacity="0.6"></circle><polyline stroke-linecap="round" stroke="#ffd336" points="197.00,399.00 194.00,391.00 191.00,393.00 193.00,392.00 194.00,394.00 203.00,392.00 201.00,387.00 205.00,389.00 207.00,392.00 212.00,386.00 214.00,381.00 209.00,380.00 204.00,380.00 210.00,377.00 213.00,370.00 215.00,369.00 213.00,368.00 215.00,372.00 202.00,371.00 211.00,370.00 228.00,368.00 232.00,366.00 235.00,364.00 238.00,350.00 244.00,344.00 240.00,347.00 249.00,339.00 247.00,337.00 243.00,328.00 252.00,325.00 250.00,337.00 256.00,335.00 251.00,347.00 263.00,336.00 261.00,342.00 264.00,329.00 266.00,315.00 263.00,328.00 266.00,325.00 270.00,321.00 274.00,324.00 282.00,328.00 281.00,325.00 285.00,324.00 287.00,322.00 294.00,309.00 299.00,317.00 305.00,304.00 311.00,301.00 315.00,294.00 316.00,290.00 321.00,292.00 320.00,293.00 328.00,282.00 331.00,280.00 330.00,276.00 341.00,272.00 351.00,277.00 348.00,281.00 349.00,282.00 353.00,279.00 354.00,272.00 357.00,268.00 363.00,262.00 364.00,259.00 366.00,264.00 371.00,262.00 360.00,265.00 347.00,268.00 347.00,265.00 353.00,262.00 343.00,268.00 350.00,270.00 352.00,268.00 358.00,256.00 358.00,244.00 362.00,247.00 364.00,248.00 365.00,241.00 370.00,242.00 376.00,234.00 373.00,240.00 367.00,248.00 370.00,253.00 379.00,241.00 385.00,231.00 390.00,224.00 394.00,219.00 398.00,217.00 408.00,211.00 398.00,230.00 394.00,227.00 395.00,216.00 399.00,210.00 403.00,207.00 407.00,195.00 421.00,190.00 431.00,187.00 433.00,189.00 438.00,189.00 446.00,186.00 450.00,184.00 453.00,181.00 458.00,178.00 462.00,175.00 465.00,173.00 469.00,171.00 474.00,168.00 476.00,166.00 480.00,163.00 481.00,161.00 490.00,163.00 498.00,165.00 504.00,167.00 514.00,169.00 517.00,171.00 520.00,177.00 525.00,182.00 531.00,188.00 536.00,194.00 546.00,200.00 547.00,213.00 551.00,216.00 556.00,213.00 557.00,216.00 560.00,219.00 561.00,223.00 557.00,231.00 559.00,236.00 563.00,239.00 562.00,242.00 563.00,247.00 565.00,253.00 568.00,258.00 574.00,261.00 577.00,262.00 584.00,262.00 588.00,262.00 594.00,262.00 597.00,265.00 597.00,271.00 596.00,278.00 596.00,287.00 590.00,292.00 598.00,294.00 605.00,288.00 608.00,288.00 615.00,287.00 623.00,285.00 631.00,289.00 641.00,291.00 639.00,290.00 641.00,293.00 643.00,296.00 649.00,299.00 647.00,300.00 654.00,302.00 662.00,299.00 662.00,297.00 656.00,305.00 661.00,307.00" fill="none" stroke-width="0.44" opacity="0.6"></polyline><polygon points="659.86,313.86 661.00,305.86 662.14,308.14" transform="rotate(111.80141043647559, 661.00, 307.00)" cx="661" cy="307" r="1.1430624176935242" fill="#ffd336" stroke="#ccc" stroke-width="0.2" opacity="0.6"></polygon></g><g class="key-Hong-Kong_0"><circle cx="485.00" cy="141.00" r="1.13" fill="#d14e5b" stroke="#ccc" opacity="0.6"></circle><polyline stroke-linecap="round" stroke="#d14e5b" points="485.00,141.00 482.00,124.00 498.00,120.00 508.00,130.00 516.00,142.00 525.00,154.00 530.00,167.00 534.00,134.00 535.00,138.00 541.00,145.00 551.00,154.00 545.00,193.00 558.00,200.00 576.00,204.00 580.00,217.00 590.00,233.00 600.00,248.00 613.00,262.00 614.00,276.00 623.00,298.00 634.00,311.00 631.00,317.00 629.00,327.00 637.00,335.00 637.00,345.00 637.00,355.00 648.00,360.00 657.00,366.00 667.00,374.00 669.00,382.00 689.00,391.00 685.00,395.00 683.00,397.00 691.00,401.00 671.00,406.00 663.00,409.00 670.00,412.00" fill="none" stroke-width="0.44" opacity="0.6"></polyline><polygon points="668.86,418.86 670.00,410.86 671.14,413.14" transform="rotate(113.19859147564566, 670.00, 412.00)" cx="670" cy="412" r="1.1354965743592558" fill="#d14e5b" stroke="#ccc" stroke-width="0.2" opacity="0.6"></polygon></g><g class="key-Denmark_0"><circle cx="455.00" cy="247.00" r="1.13" fill="#ffd336" stroke="#ccc" opacity="0.6"></circle><polyline stroke-linecap="round" stroke="#ffd336" points="455.00,247.00 454.00,248.00 455.00,252.00 463.00,250.00 463.00,245.00 463.00,250.00 465.00,250.00 476.00,245.00 479.00,247.00 489.00,235.00 489.00,228.00 497.00,226.00 505.00,224.00 506.00,226.00 518.00,222.00 524.00,224.00 527.00,223.00 531.00,223.00 537.00,224.00 546.00,226.00 548.00,228.00 551.00,238.00 558.00,242.00 563.00,244.00 558.00,253.00 556.00,269.00 565.00,270.00 567.00,274.00 568.00,276.00 572.00,280.00 569.00,286.00 562.00,297.00 565.00,302.00 566.00,305.00 569.00,299.00 573.00,296.00 582.00,292.00 585.00,296.00 588.00,302.00 589.00,305.00 590.00,306.00 593.00,309.00 598.00,312.00 596.00,315.00 604.00,317.00 608.00,314.00 611.00,316.00 619.00,319.00 626.00,321.00 632.00,324.00 640.00,326.00 639.00,328.00 642.00,332.00 639.00,336.00 644.00,340.00 647.00,340.00 654.00,341.00 657.00,341.00 660.00,341.00 657.00,349.00 663.00,354.00" fill="none" stroke-width="0.43" opacity="0.6"></polyline><polygon points="661.87,360.87 663.00,352.87 664.13,355.13" transform="rotate(129.80557219539406, 663.00, 354.00)" cx="663" cy="354" r="1.130375372574418" fill="#ffd336" stroke="#ccc" stroke-width="0.2" opacity="0.6"></polygon></g><g class="key-Finland_0"><circle cx="178.00" cy="426.00" r="1.12" fill="#ffd336" stroke="#ccc" opacity="0.6"></circle><polyline stroke-linecap="round" stroke="#ffd336" points="178.00,426.00 228.00,386.00 247.00,388.00 242.00,395.00 294.00,380.00 328.00,349.00 374.00,289.00 440.00,263.00 514.00,256.00 517.00,254.00 526.00,248.00 535.00,240.00 538.00,240.00 534.00,242.00 533.00,250.00 533.00,253.00 537.00,259.00 548.00,258.00 555.00,255.00 556.00,259.00 557.00,264.00 558.00,266.00 559.00,269.00 560.00,272.00 566.00,276.00 572.00,279.00 582.00,282.00 588.00,281.00 585.00,282.00 573.00,292.00 571.00,300.00 568.00,305.00 576.00,307.00 590.00,303.00 587.00,303.00 601.00,300.00 613.00,298.00 620.00,297.00 628.00,297.00 629.00,300.00 630.00,304.00 630.00,308.00 636.00,311.00 640.00,311.00 644.00,311.00 648.00,311.00" fill="none" stroke-width="0.43" opacity="0.6"></polyline><polygon points="646.87,317.87 648.00,309.87 649.13,312.13" transform="rotate(90.0000007648485, 648.00, 311.00)" cx="648" cy="311" r="1.1297289852574193" fill="#ffd336" stroke="#ccc" stroke-width="0.2" opacity="0.6"></polygon></g><g class="key-Singapore_0"><circle cx="355.00" cy="283.00" r="1.12" fill="#d14e5b" stroke="#ccc" opacity="0.6"></circle><polyline stroke-linecap="round" stroke="#d14e5b" points="355.00,283.00 368.00,270.00 383.00,247.00 395.00,262.00 401.00,238.00 405.00,256.00 413.00,252.00 421.00,252.00 431.00,239.00 442.00,233.00 453.00,230.00 461.00,216.00 464.00,219.00 473.00,224.00 482.00,216.00 481.00,227.00 483.00,231.00 495.00,230.00 505.00,224.00 515.00,221.00 524.00,225.00 528.00,233.00 533.00,242.00 544.00,251.00 554.00,265.00 559.00,279.00 565.00,274.00 584.00,264.00 610.00,256.00 613.00,247.00 652.00,246.00 638.00,260.00 649.00,271.00 636.00,278.00 658.00,279.00 681.00,278.00 704.00,275.00 713.00,270.00 686.00,265.00 688.00,273.00 715.00,281.00" fill="none" stroke-width="0.43" opacity="0.6"></polyline><polygon points="713.87,287.87 715.00,279.87 716.13,282.13" transform="rotate(106.5043622868628, 715.00, 281.00)" cx="715" cy="281" r="1.1287542556331704" fill="#d14e5b" stroke="#ccc" stroke-width="0.2" opacity="0.6"></polygon></g><g class="key-Costa-Rica_0"><circle cx="291.00" cy="383.00" r="1.11" fill="#4d824b" stroke="#ccc" opacity="0.6"></circle><polyline stroke-linecap="round" stroke="#4d824b" points="291.00,383.00 289.00,385.00 301.00,386.00 319.00,379.00 316.00,371.00 323.00,371.00 311.00,365.00 317.00,363.00 330.00,376.00 326.00,379.00 331.00,372.00 333.00,377.00 338.00,371.00 346.00,368.00 349.00,370.00 358.00,359.00 365.00,359.00 370.00,357.00 375.00,351.00 381.00,350.00 389.00,349.00 393.00,343.00 400.00,333.00 406.00,331.00 406.00,324.00 408.00,322.00 416.00,314.00 428.00,311.00 431.00,308.00 434.00,305.00 433.00,308.00 428.00,320.00 416.00,349.00 414.00,345.00 419.00,342.00 419.00,324.00 429.00,316.00 425.00,317.00 425.00,320.00 430.00,310.00 432.00,303.00 432.00,296.00 440.00,298.00 445.00,303.00 449.00,301.00 450.00,312.00 444.00,314.00 448.00,315.00 458.00,319.00 458.00,318.00 456.00,325.00 456.00,326.00 457.00,335.00 458.00,337.00 462.00,340.00 465.00,341.00 469.00,342.00 476.00,339.00 481.00,347.00 486.00,360.00 489.00,366.00" fill="none" stroke-width="0.43" opacity="0.6"></polyline><polygon points="487.87,372.87 489.00,364.87 490.13,367.13" transform="rotate(153.4349501268608, 489.00, 366.00)" cx="489" cy="366" r="1.127241367159685" fill="#4d824b" stroke="#ccc" stroke-width="0.2" opacity="0.6"></polygon></g><g class="key-Botswana_0"><circle cx="174.00" cy="467.00" r="1.11" fill="#5675c1" stroke="#ccc" opacity="0.6"></circle><polyline stroke-linecap="round" stroke="#5675c1" points="174.00,467.00 172.00,463.00 183.00,472.00 188.00,479.00 192.00,483.00 192.00,469.00 201.00,457.00 227.00,459.00 249.00,452.00 264.00,440.00 258.00,435.00 260.00,432.00 264.00,438.00 264.00,438.00 263.00,437.00 265.00,424.00 262.00,418.00 273.00,416.00 278.00,420.00 296.00,424.00 322.00,419.00 338.00,419.00 345.00,408.00 352.00,397.00 363.00,379.00 392.00,355.00 398.00,341.00 404.00,334.00 409.00,348.00 408.00,357.00 408.00,366.00 415.00,371.00 427.00,368.00 434.00,379.00 438.00,372.00 449.00,363.00 457.00,364.00 454.00,363.00 475.00,372.00 470.00,379.00 474.00,382.00 490.00,397.00 493.00,403.00 495.00,395.00 492.00,408.00 480.00,412.00 491.00,415.00" fill="none" stroke-width="0.42" opacity="0.6"></polyline><polygon points="489.88,421.88 491.00,413.88 492.12,416.12" transform="rotate(105.25511959754911, 491.00, 415.00)" cx="491" cy="415" r="1.1174223906138616" fill="#5675c1" stroke="#ccc" stroke-width="0.2" opacity="0.6"></polygon></g><g class="key-Mauritius_0"><circle cx="350.00" cy="308.00" r="1.11" fill="#5675c1" stroke="#ccc" opacity="0.6"></circle><polyline stroke-linecap="round" stroke="#5675c1" points="350.00,308.00 356.00,360.00 362.00,350.00 366.00,325.00 370.00,291.00 363.00,268.00 361.00,265.00 398.00,240.00 402.00,237.00 402.00,230.00 390.00,233.00 388.00,249.00 391.00,249.00 393.00,265.00 394.00,283.00 413.00,254.00 409.00,240.00 421.00,200.00 450.00,214.00 451.00,216.00 457.00,195.00 468.00,184.00 479.00,184.00 478.00,184.00 487.00,187.00 496.00,190.00 503.00,200.00 519.00,205.00 517.00,210.00 519.00,207.00 517.00,207.00 517.00,213.00 512.00,214.00 511.00,221.00 508.00,232.00 507.00,256.00 500.00,265.00 508.00,268.00 521.00,258.00 521.00,265.00 524.00,275.00 527.00,280.00" fill="none" stroke-width="0.41" opacity="0.6"></polyline><polygon points="525.89,286.89 527.00,278.89 528.11,281.11" transform="rotate(149.0362447344837, 527.00, 280.00)" cx="527" cy="280" r="1.1146597517995511" fill="#5675c1" stroke="#ccc" stroke-width="0.2" opacity="0.6"></polygon></g><g fill="#333" class="backgroundLabels"><text x="460.62" y="286.10" font-size="14.26">China</text><text x="353.81" y="363.36" font-size="13.97">India</text><text x="614.37" y="398.35" font-size="11.75">United States</text><text x="426.95" y="362.29" font-size="11.58">Indonesia</text><text x="508.97" y="356.26" font-size="11.47">Brazil</text><text x="374.96" y="452.34" font-size="11.38">Nigeria</text><text x="642.07" y="335.56" font-size="11.31">Japan</text><text x="517.96" y="305.38" font-size="11.27">Mexico</text><text x="384.82" y="388.68" font-size="11.23">Philippines</text><text x="157.58" y="431.00" font-size="11.20">Ethiopia</text><text x="462.97" y="328.12" font-size="11.20">Egypt</text><text x="602.24" y="247.25" font-size="11.20">Germany</text><text x="645.00" y="351.00" font-size="11.15">France</text><text x="555.16" y="355.53" font-size="11.15">United Kingdom</text><text x="612.51" y="309.48" font-size="11.15">Italy</text><text x="475.87" y="342.83" font-size="11.11">Colombia</text><text x="628.47" y="293.79" font-size="11.11">Spain</text><text x="247.00" y="458.00" font-size="11.11">Tanzania</text><text x="279.90" y="376.02" font-size="11.10">Kenya</text><text x="410.88" y="307.92" font-size="11.08">Morocco</text><text x="652.00" y="239.00" font-size="11.05">Taiwan</text><text x="605.74" y="385.06" font-size="11.04">Netherlands</text><text x="109.70" y="425.10" font-size="11.03">Malawi</text><text x="297.93" y="443.18" font-size="11.03">Zambia</text><text x="253.00" y="390.00" font-size="11.03">Senegal</text><text x="367.98" y="320.58" font-size="11.02">Bolivia</text><text x="665.64" y="314.37" font-size="11.02">Sweden</text><text x="619.19" y="419.48" font-size="11.02">Hong Kong</text><text x="666.84" y="362.71" font-size="11.01">Denmark</text><text x="669.36" y="287.93" font-size="11.01">Singapore</text><text x="491.24" y="375.98" font-size="11.01">Costa Rica</text><text x="495.82" y="421.82" font-size="11.00">Botswana</text><text x="529.57" y="289.79" font-size="11.00">Mauritius</text></g></g><g style="cursor: pointer;" class="ScatterColorLegend clickable"><g class="legendMark"><rect x="735" y="105.10000000000001" width="43.256" height="17.6" fill="#fff" opacity="0"></rect>,<rect x="735" y="110.60000000000001" width="6" height="6" fill="#5675c1"></rect>,<text font-size="12.60" x="746.0" y="117.7"><tspan x="746" y="117.68">Africa</tspan></text></g><g class="legendMark"><rect x="735" y="122.70000000000002" width="35.57" height="17.6" fill="#fff" opacity="0"></rect>,<rect x="735" y="128.20000000000002" width="6" height="6" fill="#d14e5b"></rect>,<text font-size="12.60" x="746.0" y="135.3"><tspan x="746" y="135.28">Asia</tspan></text></g><g class="legendMark"><rect x="735" y="140.3" width="51.824" height="17.6" fill="#fff" opacity="0"></rect>,<rect x="735" y="145.8" width="6" height="6" fill="#ffd336"></rect>,<text font-size="12.60" x="746.0" y="152.9"><tspan x="746" y="152.88">Europe</tspan></text></g><g class="legendMark"><rect x="735" y="157.9" width="91.64" height="17.6" fill="#fff" opacity="0"></rect>,<rect x="735" y="163.4" width="6" height="6" fill="#4d824b"></rect>,<text font-size="12.60" x="746.0" y="170.5"><tspan x="746" y="170.48">North America</tspan></text></g><g class="legendMark"><rect x="735" y="175.5" width="93.908" height="17.6" fill="#fff" opacity="0"></rect>,<rect x="735" y="181" width="6" height="6" fill="#69c487"></rect>,<text font-size="12.60" x="746.0" y="188.1"><tspan x="746" y="188.07999999999998">South America</tspan></text></g></g><line x1="735" y1="197.60000000000002" x2="830" y2="197.60000000000002" stroke="#ccc"></line><g class="clickable"><g class="ConnectedScatterLegend"><rect x="735" y="206.60000000000002" width="100" height="12.6" fill="#fff" opacity="0"></rect><text font-size="12.60" x="735.0" y="216.7" fill="#333"><tspan x="735" y="216.68">1801</tspan></text><text font-size="12.60" x="806.8" y="216.7" fill="#333"><tspan x="806.776" y="216.68">2010</tspan></text><line x1="768.224" y1="212.40000000000003" x2="801.776" y2="212.40000000000003" stroke="#666" stroke-width="1"></line><circle cx="768.224" cy="212.40000000000003" r="2" fill="#666" stroke="#ccc" stroke-width="0.2"></circle><circle cx="779.408" cy="212.40000000000003" r="2" fill="#666" stroke="#ccc" stroke-width="0.2"></circle><circle cx="790.592" cy="212.40000000000003" r="2" fill="#666" stroke="#ccc" stroke-width="0.2"></circle><polygon points="798.78,217.40 801.78,209.40 804.78,215.40" cx="801.776" cy="212.40000000000003" r="3" fill="#666" stroke="#ccc" stroke-width="0.2" transform="rotate(90, 801.776, 212.40000000000003)"></polygon></g></g></g><g style="fill: #777;" class="SourcesFooter"><g style="fill: #777;" class="clickable"><text font-size="12.60" x="15.0" y="567.0"><tspan x="15" y="566.98">Source: Our World In Data based on Herrendorf et al. (2014) and GGDC-10 (2015), Maddison Project Database (2018)</tspan></text></g><text font-size="12.60" x="15.0" y="582.5"><tspan x="15" y="582.48"><a target='_blank' style='fill: #777;' href='http://ourworldindata.org'>OurWorldInData.org</a>  <a style="fill: #777;" href="http://creativecommons.org/licenses/by-sa/4.0/deed.en_US" target="_blank">CC BY-SA</a></tspan></text></g></g></svg>