<svg xmlns="http://www.w3.org/2000/svg" version="1.1" style="font-family: 'Helvetica Neue', Helvetica, Arial, sans-serif; font-size: 18px; background-color: white; text-rendering: optimizeLegibility; -webkit-font-smoothing: antialiased;" width="850" height="600"><g class="ChartTab"><g class="HeaderView"><g opacity="0.8" transform="translate(770, 15) scale(0.31)"><a xmlns:xlink="http://www.w3.org/1999/xlink" xlink:href="https://ourworldindata.org" target="_blank"><g><rect x="0" y="0" fill="#1B2543" width="211.2" height="130.1"/><rect x="0" y="112.2" fill="#E63912" width="211.2" height="17.9"/><g><rect x="1.2" y="12.3" fill="none" width="210.2" height="99.2"/><path fill="#FFFFFF" d="M37.8,32.2c0,12.7-7.7,19.4-17.1,19.4c-9.7,0-16.6-7.5-16.6-18.7c0-11.7,7.3-19.3,17.1-19.3 C31.3,13.7,37.8,21.3,37.8,32.2z M9.2,32.8c0,7.9,4.3,14.9,11.8,14.9c7.5,0,11.8-6.9,11.8-15.3c0-7.3-3.8-14.9-11.8-14.9 C13.1,17.5,9.2,24.8,9.2,32.8z"/><path fill="#FFFFFF" d="M62.7,43.8c0,2.7,0.1,5.1,0.2,7.2h-4.3l-0.3-4.3h-0.1c-1.3,2.1-4,4.9-8.8,4.9c-4.2,0-9.1-2.3-9.1-11.6 V24.6h4.8v14.6c0,5,1.5,8.4,5.9,8.4c3.2,0,5.5-2.2,6.3-4.4c0.3-0.7,0.4-1.6,0.4-2.5V24.6h4.8V43.8z"/><path fill="#FFFFFF" d="M67.3,32.8c0-3.1-0.1-5.8-0.2-8.2h4.2l0.2,5.2h0.2c1.2-3.5,4.1-5.8,7.3-5.8c0.5,0,0.9,0.1,1.4,0.2v4.5 c-0.5-0.1-1-0.2-1.6-0.2c-3.4,0-5.8,2.6-6.5,6.2c-0.1,0.7-0.2,1.4-0.2,2.2V51h-4.8V32.8z"/><path fill="#FFFFFF" d="M95.4,51l-9.4-36.8h5l4.4,18.6c1.1,4.6,2.1,9.2,2.7,12.7h0.1c0.6-3.7,1.8-8,3-12.8l4.9-18.5h5l4.5,18.7 c1,4.4,2,8.7,2.6,12.6h0.1c0.8-4,1.8-8.1,3-12.7l4.9-18.5h4.9L120.6,51h-5L111,31.9c-1.1-4.7-1.9-8.3-2.4-12h-0.1 c-0.7,3.7-1.5,7.3-2.8,12L100.4,51H95.4z"/><path fill="#FFFFFF" d="M154.9,37.6c0,9.8-6.8,14-13.2,14c-7.2,0-12.7-5.2-12.7-13.6c0-8.8,5.8-14,13.1-14 C149.8,24,154.9,29.5,154.9,37.6z M133.9,37.9c0,5.8,3.3,10.1,8,10.1c4.6,0,8-4.3,8-10.3c0-4.5-2.2-10.1-7.9-10.1 C136.3,27.6,133.9,32.8,133.9,37.9z"/><path fill="#FFFFFF" d="M158.2,32.8c0-3.1-0.1-5.8-0.2-8.2h4.2l0.2,5.2h0.2c1.2-3.5,4.1-5.8,7.3-5.8c0.5,0,0.9,0.1,1.4,0.2v4.5 c-0.5-0.1-1-0.2-1.6-0.2c-3.4,0-5.8,2.6-6.5,6.2c-0.1,0.7-0.2,1.4-0.2,2.2V51h-4.8V32.8z"/><path fill="#FFFFFF" d="M173.5,12.3h4.8V51h-4.8V12.3z"/><path fill="#FFFFFF" d="M206.5,12.3v31.9c0,2.3,0.1,5,0.2,6.8h-4.3l-0.2-4.6H202c-1.5,2.9-4.7,5.2-9,5.2 c-6.4,0-11.3-5.4-11.3-13.4c-0.1-8.8,5.4-14.2,11.9-14.2c4,0,6.8,1.9,8,4h0.1V12.3H206.5z M201.7,35.4c0-0.6-0.1-1.4-0.2-2 c-0.7-3.1-3.3-5.6-6.9-5.6c-5,0-7.9,4.4-7.9,10.2c0,5.3,2.6,9.8,7.8,9.8c3.2,0,6.2-2.1,7.1-5.7c0.2-0.7,0.2-1.3,0.2-2.1V35.4z"/><path fill="#FFFFFF" d="M42.8,64c0.1,1.6-1.1,2.9-3.1,2.9c-1.7,0-2.9-1.3-2.9-2.9c0-1.7,1.3-3,3-3C41.7,61,42.8,62.3,42.8,64z M37.4,97.8V71.4h4.8v26.4H37.4z"/><path fill="#FFFFFF" d="M47.5,78.6c0-2.7-0.1-5-0.2-7.1h4.3l0.3,4.4h0.1c1.3-2.5,4.4-5,8.8-5c3.7,0,9.4,2.2,9.4,11.2v15.8h-4.8 V82.6c0-4.3-1.6-7.8-6.1-7.8c-3.2,0-5.6,2.2-6.5,4.9c-0.2,0.6-0.3,1.4-0.3,2.2v15.9h-4.8V78.6z"/><path fill="#FFFFFF" d="M84,61.6c2.9-0.4,6.3-0.8,10.1-0.8c6.8,0,11.7,1.6,14.9,4.6c3.3,3,5.2,7.3,5.2,13.2c0,6-1.9,10.9-5.3,14.3 c-3.4,3.4-9.1,5.3-16.3,5.3c-3.4,0-6.2-0.2-8.6-0.4V61.6z M88.8,94.1c1.2,0.2,3,0.3,4.8,0.3c10.2,0,15.7-5.7,15.7-15.6 c0.1-8.7-4.9-14.2-14.9-14.2c-2.5,0-4.3,0.2-5.6,0.5V94.1z"/><path fill="#FFFFFF" d="M132.1,97.8l-0.4-3.3h-0.2c-1.5,2.1-4.3,3.9-8.1,3.9c-5.4,0-8.1-3.8-8.1-7.6c0-6.4,5.7-9.9,15.9-9.8v-0.5 c0-2.2-0.6-6.1-6-6.1c-2.5,0-5,0.8-6.9,2l-1.1-3.2c2.2-1.4,5.4-2.3,8.7-2.3c8.1,0,10.1,5.5,10.1,10.8v9.9c0,2.3,0.1,4.5,0.4,6.3 H132.1z M131.4,84.4c-5.3-0.1-11.2,0.8-11.2,5.9c0,3.1,2.1,4.6,4.5,4.6c3.4,0,5.6-2.2,6.4-4.4c0.2-0.5,0.3-1,0.3-1.5V84.4z"/><path fill="#FFFFFF" d="M146.6,63.9v7.6h6.9v3.7h-6.9v14.2c0,3.3,0.9,5.1,3.6,5.1c1.3,0,2.2-0.2,2.8-0.3l0.2,3.6 c-0.9,0.4-2.4,0.7-4.3,0.7c-2.2,0-4-0.7-5.2-2c-1.4-1.4-1.9-3.8-1.9-6.9V75.1h-4.1v-3.7h4.1v-6.3L146.6,63.9z"/><path fill="#FFFFFF" d="M171.4,97.8l-0.4-3.3h-0.2c-1.5,2.1-4.3,3.9-8.1,3.9c-5.4,0-8.1-3.8-8.1-7.6c0-6.4,5.7-9.9,15.9-9.8v-0.5 c0-2.2-0.6-6.1-6-6.1c-2.5,0-5,0.8-6.9,2l-1.1-3.2c2.2-1.4,5.4-2.3,8.7-2.3c8.1,0,10.1,5.5,10.1,10.8v9.9c0,2.3,0.1,4.5,0.4,6.3 H171.4z M170.7,84.4c-5.3-0.1-11.2,0.8-11.2,5.9c0,3.1,2.1,4.6,4.5,4.6c3.4,0,5.6-2.2,6.4-4.4c0.2-0.5,0.3-1,0.3-1.5V84.4z"/></g></g></a></g><a href="https://ourworldindata.org/grapher/GDP-vs-manufacturing-GDP" target="_blank"><text font-size="27.00" x="15.0" y="36.6" fill="#555"><tspan x="15" y="36.6">GDP per head vs share of industry in GDP, 1801 to 2010</tspan></text></a><text font-size="14.40" x="15.0" y="55.5" fill="#666"><tspan x="15" y="55.519999999999996">The vertical axis shows historical estimates of the share of industry in GDP (estimated at current prices). The</tspan><tspan x="15" y="71.36">horizontal axis shows GDP per head after adjusting for inflation (figures are in 1990 international Geary–Khamis</tspan><tspan x="15" y="87.2">dollars.) </tspan></text></g><g><g class="AxisBoxView"><g class="HorizontalAxis"><text font-size="12.60" x="201.5" y="554.0"><tspan x="201.515" y="553.98">GDP per capita in 1990 Int. GK$ (Maddison-Project 2013) </tspan></text><text x="221.6" y="533.9" fill="#666" text-anchor="middle" font-size="16.2">1,000</text><text x="550.4" y="533.9" fill="#666" text-anchor="middle" font-size="16.2">10,000</text></g><g class="VerticalAxis"><text font-size="12.60" x="-420.8" y="25.1" transform="rotate(-90)"><tspan x="-420.83500000000004" y="25.080000000000002">Share of manufacturing in GDP</tspan></text><text x="70.16" y="512.7" fill="#666" dominant-baseline="middle" text-anchor="end" font-size="16.2">0%</text><text x="70.16" y="451.6" fill="#666" dominant-baseline="middle" text-anchor="end" font-size="16.2">10%</text><text x="70.16" y="390.5" fill="#666" dominant-baseline="middle" text-anchor="end" font-size="16.2">20%</text><text x="70.16" y="329.4" fill="#666" dominant-baseline="middle" text-anchor="end" font-size="16.2">30%</text><text x="70.16" y="268.3" fill="#666" dominant-baseline="middle" text-anchor="end" font-size="16.2">40%</text><text x="70.16" y="207.2" fill="#666" dominant-baseline="middle" text-anchor="end" font-size="16.2">50%</text><text x="70.16" y="146.1" fill="#666" dominant-baseline="middle" text-anchor="end" font-size="16.2">60%</text></g><g class="AxisGridLines"><line x1="75.16" y1="512.7" x2="715.00" y2="512.7" stroke="#ccc"></line><line x1="75.16" y1="451.6" x2="715.00" y2="451.6" stroke="#ddd" stroke-dasharray="3,2"></line><line x1="75.16" y1="390.5" x2="715.00" y2="390.5" stroke="#ddd" stroke-dasharray="3,2"></line><line x1="75.16" y1="329.4" x2="715.00" y2="329.4" stroke="#ddd" stroke-dasharray="3,2"></line><line x1="75.16" y1="268.3" x2="715.00" y2="268.3" stroke="#ddd" stroke-dasharray="3,2"></line><line x1="75.16" y1="207.2" x2="715.00" y2="207.2" stroke="#ddd" stroke-dasharray="3,2"></line><line x1="75.16" y1="146.1" x2="715.00" y2="146.1" stroke="#ddd" stroke-dasharray="3,2"></line></g><g class="AxisGridLines"><line x1="221.6" y1="512.70" x2="221.6" y2="109.40" stroke="#ddd" stroke-dasharray="3,2"></line><line x1="550.4" y1="512.70" x2="550.4" y2="109.40" stroke="#ddd" stroke-dasharray="3,2"></line></g></g><g clip-path="url(#scatterBounds-41)" class="PointsWithLabels clickable"><rect x="75.162" y="109.4" width="639.838" height="403.3" fill="rgba(255,255,255,0)"></rect><defs><clipPath id="scatterBounds-41"><rect x="65.162" y="99.4" width="659.838" height="423.3"></rect></clipPath></defs><g class="key-China_0"><circle cx="132" cy="380" r="1.73692298829366" fill="#d14e5b" stroke="#ccc" opacity="0.6"></circle><polyline stroke-linecap="round" stroke="#d14e5b" points="132,380 136,365 138,361 142,360 152,335 156,326 168,282 167,249 162,238 136,322 136,322 146,309 158,297 170,300 179,285 172,307 165,324 173,298 185,269 188,259 189,255 196,255 195,256 201,238 198,238 205,229 218,227 227,232 230,224 236,237 245,244 254,246 269,254 281,255 288,249 300,250 307,249 308,254 311,263 318,260 329,248 341,229 353,228 371,226 373,223 379,225 378,234 386,238 397,236 410,242 426,245 445,237 456,240 467,233 478,223 484,226 493,226 505,231 519,228" fill="none" stroke-width="1.415077572595482" opacity="0.6"></polyline><polygon points="516.8849224274045,233.88492242740452 519,225.88492242740452 521.1150775725955,230.11507757259548" transform="rotate(77.90524358505132, 519, 228)" cx="519" cy="228" r="2.115077572595482" fill="#d14e5b" stroke="#ccc" stroke-width="0.2" opacity="0.6"></polygon></g><g class="key-India_0"><circle cx="153" cy="417" r="1.5944346481834377" fill="#d14e5b" stroke="#ccc" opacity="0.6"></circle><polyline stroke-linecap="round" stroke="#d14e5b" points="153,417 153,411 155,416 161,415 164,403 165,398 170,400 166,398 173,402 174,395 181,385 182,381 182,377 185,378 193,385 184,380 182,383 190,392 191,389 197,385 201,382 199,377 195,377 198,383 197,376 206,372 204,366 212,367 216,361 205,357 212,362 218,356 219,354 227,355 229,353 232,351 235,350 238,350 249,350 255,345 260,345 259,353 264,353 269,355 276,351 283,344 291,348 295,352 301,358 308,359 311,355 317,361 320,355 329,355 338,342 348,341 358,336 369,334 376,337 385,345 395,344" fill="none" stroke-width="1.3659458548639363" opacity="0.6"></polyline><polygon points="392.9340541451361,349.9340541451361 395,341.9340541451361 397.06594585486397,346.06594585486397" transform="rotate(84.28940757881844, 395, 344)" cx="395" cy="344" r="2.0659458548639362" fill="#d14e5b" stroke="#ccc" stroke-width="0.2" opacity="0.6"></polygon></g><g class="key-United-States_0"><circle cx="303" cy="394" r="1.1660698619630974" fill="#4d824b" stroke="#ccc" opacity="0.6"></circle><polyline stroke-linecap="round" stroke="#4d824b" points="303,394 308,359 333,361 353,330 374,331 396,298 421,297 451,315 450,309 452,311 457,307 459,308 445,320 447,320 464,292 458,296 469,297 469,320 466,307 460,341 466,339 481,319 482,330 484,326 491,323 490,330 490,331 497,306 482,312 469,338 448,365 444,359 454,334 464,330 482,314 487,305 480,331 490,315 499,297 522,269 546,262 570,268 580,281 573,307 538,310 533,321 536,312 534,318 544,306 552,302 554,304 558,300 555,309 562,303 562,304 563,306 559,319 567,315 568,319 569,325 575,322 579,322 585,321 592,319 599,316 601,322 607,323 610,327 608,336 611,340 617,341 623,340 621,341 620,345 626,342 630,338 637,339 640,337 638,339 641,339 636,349 641,355 650,353 654,359 658,366 661,366 666,366 669,367 670,372 668,378 671,382 673,383 677,383 679,381 682,383 687,383 691,385 696,386 701,386 701,392 702,397 704,396 708,394 711,392 713,390 715,391 713,394 706,402 709,402" fill="none" stroke-width="0.8449006217872101" opacity="0.6"></polyline><polygon points="707.4550993782128,408.45509937821276 709,400.45509937821276 710.5449006217873,403.5449006217872" transform="rotate(90.0000007648485, 709, 402)" cx="709" cy="402" r="1.54490062178721" fill="#4d824b" stroke="#ccc" stroke-width="0.2" opacity="0.6"></polygon></g><g class="key-Indonesia_0"><circle cx="216" cy="423" r="1.3317374374413569" fill="#d14e5b" stroke="#ccc" opacity="0.6"></circle><polyline stroke-linecap="round" stroke="#d14e5b" points="216,423 211,422 224,400 235,388 251,383 253,371 265,342 283,334 284,288 280,293 290,290 297,286 300,276 304,262 313,230 318,245 310,254 311,249 318,251 319,268 325,280 330,265 335,264 345,259 353,252 363,244 370,248 378,249 386,243 395,237 403,225 407,215 385,231 384,245 389,226 392,226 396,237 401,243 406,238 412,225 418,223 425,224 431,215 436,219 443,222" fill="none" stroke-width="0.7818517259002641" opacity="0.6"></polyline><polygon points="441.51814827409976,228.51814827409973 443,220.51814827409973 444.4818517259003,223.48185172590027" transform="rotate(113.19859147564566, 443, 222)" cx="443" cy="222" r="1.4818517259002641" fill="#d14e5b" stroke="#ccc" stroke-width="0.2" opacity="0.6"></polygon></g><g class="key-Brazil_0"><circle cx="449" cy="344" r="1.38646150535145" fill="#69c487" stroke="#ccc" opacity="0.6"></circle><polyline stroke-linecap="round" stroke="#69c487" points="449,344 448,335 445,345 449,347 455,330 459,327 460,350 462,347 460,353 458,354 462,345 462,348 464,351 464,347 470,336 473,341 477,345 484,350 489,347 487,354 497,347" fill="none" stroke-width="0.7369639087366445" opacity="0.6"></polyline><polygon points="495.56303609126337,353.56303609126337 497,345.56303609126337 498.4369639087367,348.4369639087367" transform="rotate(55.00798026891657, 497, 347)" cx="497" cy="347" r="1.4369639087366446" fill="#69c487" stroke="#ccc" stroke-width="0.2" opacity="0.6"></polygon></g><g class="key-Nigeria_0"><circle cx="193" cy="414" r="1.2326522183984396" fill="#5675c1" stroke="#ccc" opacity="0.6"></circle><polyline stroke-linecap="round" stroke="#5675c1" points="193,414 193,405 197,399 206,392 208,391 213,366 204,367 176,367 170,370 200,342 234,341 246,324 247,301 254,268 266,220 257,236 268,215 268,226 255,224 261,218 259,202 243,218 237,234 224,251 215,275 223,265 222,278 218,246 227,263 233,212 236,199 232,199 229,167 228,234 226,297 222,220 225,205 226,232 226,295 223,266 227,176 234,248 258,318 268,277 279,240 282,229 287,240 293,247 298,248 304,294 311,220" fill="none" stroke-width="0.6967450901900714" opacity="0.6"></polyline><polygon points="309.60325490980995,226.60325490980992 311,218.60325490980992 312.3967450901901,221.39674509019005" transform="rotate(5.4037914061727905, 311, 220)" cx="311" cy="220" r="1.3967450901900713" fill="#5675c1" stroke="#ccc" stroke-width="0.2" opacity="0.6"></polygon></g><g class="key-Japan_0"><circle cx="200" cy="427" r="1.2173528125070405" fill="#d14e5b" stroke="#ccc" opacity="0.6"></circle><polyline stroke-linecap="round" stroke="#d14e5b" points="200,427 209,422 214,410 206,406 211,395 223,423 215,416 223,418 222,410 237,415 238,406 228,391 230,381 253,397 240,375 245,387 248,386 238,388 246,396 246,403 242,388 258,375 261,365 261,374 259,364 259,358 265,372 268,372 268,362 261,347 272,330 291,313 294,311 294,304 307,326 297,330 310,342 308,334 306,334 308,336 312,336 311,333 310,328 320,317 322,305 309,304 308,302 317,300 329,298 327,288 328,279 337,271 341,260 349,231 369,224 372,218 350,288 357,299 367,312 376,295 384,290 391,297 402,287 419,273 434,270 444,274 455,273 469,270 475,278 489,283 502,277 518,272 533,265 546,259 551,262 560,265 569,263 565,274 568,289 572,289 577,293 583,291 589,290 592,292 596,290 599,293 601,298 606,294 611,293 614,296 619,297 627,294 633,293 640,289 644,288 645,290 645,294 646,300 648,301 651,303 653,304 650,310 649,314 652,315 652,325 653,328 655,328 658,326 660,326 662,328 665,326 664,330 656,342 662,331" fill="none" stroke-width="0.6579553795440416" opacity="0.6"></polyline><polygon points="660.642044620456,337.642044620456 662,329.642044620456 663.357955379544,332.3579553795441" transform="rotate(28.610459909105966, 662, 331)" cx="662" cy="331" r="1.3579553795440416" fill="#d14e5b" stroke="#ccc" stroke-width="0.2" opacity="0.6"></polygon></g><g class="key-Mexico_0"><circle cx="344" cy="338" r="1.1937688796793104" fill="#4d824b" stroke="#ccc" opacity="0.6"></circle><polyline stroke-linecap="round" stroke="#4d824b" points="344,338 351,334 352,333 348,341 358,341 365,337 370,338 376,339 379,346 379,339 385,340 386,342 388,341 393,336 404,335 408,330 412,325 416,319 422,316 426,313 430,312 432,315 439,311 447,313 451,301 455,301 458,304 459,296 467,294 476,284 484,260 493,273 489,268 479,209 481,232 482,243 473,256 473,229 471,251 475,272 479,278 482,287 485,289 485,301 489,300 477,290 482,282 489,278 494,278 497,279 505,282 503,289 502,297 502,300 506,290 509,293 515,282 518,283 518,279 507,295 513,293" fill="none" stroke-width="0.6407250653429869" opacity="0.6"></polyline><polygon points="511.659274934657,299.659274934657 513,291.659274934657 514.340725065343,294.34072506534295" transform="rotate(71.56505178526047, 513, 293)" cx="513" cy="293" r="1.340725065342987" fill="#4d824b" stroke="#ccc" stroke-width="0.2" opacity="0.6"></polygon></g><g class="key-Philippines_0"><circle cx="306" cy="307" r="1.2132122136304397" fill="#d14e5b" stroke="#ccc" opacity="0.6"></circle><polyline stroke-linecap="round" stroke="#d14e5b" points="306,307 309,297 317,287 319,281 322,279 331,273 334,270 338,270 341,265 345,257 346,256 347,260 347,260 332,270 318,288 319,290 321,287 327,285 333,287 334,289 330,294 327,300 327,300 330,302 333,305 338,306 342,306 338,312 339,322 342,314 343,317 345,315 349,315 355,320 359,320 363,322 370,324 373,324 371,331 379,328" fill="none" stroke-width="0.6123832481797119" opacity="0.6"></polyline><polygon points="377.6876167518203,334.6876167518203 379,326.6876167518203 380.31238324817974,329.31238324817974" transform="rotate(69.44395537057325, 379, 328)" cx="379" cy="328" r="1.312383248179712" fill="#d14e5b" stroke="#ccc" stroke-width="0.2" opacity="0.6"></polygon></g><g class="key-Ethiopia_0"><circle cx="108" cy="468" r="1.1820898963419522" fill="#5675c1" stroke="#ccc" opacity="0.6"></circle><polyline stroke-linecap="round" stroke="#5675c1" points="108,468 111,464 126,464 130,465 135,466 137,462 140,454 140,459 142,460 147,466 150,463 154,459 155,458 154,462 150,457 151,463 151,469 147,471 154,469 159,466 156,465 152,462 155,465 148,458 136,456 143,460 152,455 150,455 148,458 142,460 126,464 107,471 122,458 122,452 126,450 140,452 141,454 131,450 135,445 139,447 145,443 144,438 136,436 148,436 161,442 172,444 184,444 195,451 205,454 211,454" fill="none" stroke-width="0.5968448731272781" opacity="0.6"></polyline><polygon points="209.70315512687273,460.70315512687273 211,452.70315512687273 212.2968448731273,455.29684487312727" transform="rotate(90.0000007648485, 211, 454)" cx="211" cy="454" r="1.2968448731272781" fill="#5675c1" stroke="#ccc" stroke-width="0.2" opacity="0.6"></polygon></g><g class="key-Germany_0"><circle cx="548" cy="238" r="1.2882590724597267" fill="#ffd336" stroke="#ccc" opacity="0.6"></circle><polyline stroke-linecap="round" stroke="#ffd336" points="548,238 556,235 561,230 565,238 570,246 576,249 577,254 576,268 584,267 588,269 592,270 598,271 599,274 600,281 598,284 601,287 606,289 609,287 612,287 614,292 619,293 622,294 616,296 623,300 625,335 623,341 626,339 628,337 629,337 632,337 634,336 637,333 641,324 643,331 643,333 642,337 644,340 645,333 649,330 653,331 655,333 647,349 654,354" fill="none" stroke-width="0.595842559803375" opacity="0.6"></polyline><polygon points="652.7041574401966,360.70415744019664 654,352.70415744019664 655.2958425598033,355.29584255980336" transform="rotate(125.53767885883332, 654, 354)" cx="654" cy="354" r="1.295842559803375" fill="#ffd336" stroke="#ccc" stroke-width="0.2" opacity="0.6"></polygon></g><g class="key-Egypt_0"><circle cx="220" cy="381" r="1.1938571724663767" fill="#5675c1" stroke="#ccc" opacity="0.6"></circle><polyline stroke-linecap="round" stroke="#5675c1" points="220,381 225,368 231,363 237,358 243,363 249,361 246,361 241,377 241,370 247,370 253,356 257,363 257,375 258,367 260,360 271,350 289,354 302,350 308,347 315,312 325,322 325,335 335,315 341,313 346,305 350,312 350,322 350,309 353,308 354,308 353,292 354,291 352,294 354,295 358,295 363,298 368,303 373,297 380,310 385,319 390,309 392,306 393,305 394,300 397,292 400,296 407,287 414,295 420,288 424,290 428,290" fill="none" stroke-width="0.5940037890399112" opacity="0.6"></polyline><polygon points="426.7059962109601,296.7059962109601 428,288.7059962109601 429.29400378903995,291.29400378903995" transform="rotate(90.0000007648485, 428, 290)" cx="428" cy="290" r="1.2940037890399112" fill="#5675c1" stroke="#ccc" stroke-width="0.2" opacity="0.6"></polygon></g><g class="key-Thailand_0"><circle cx="198" cy="402" r="1.1771469240238217" fill="#d14e5b" stroke="#ccc" opacity="0.6"></circle><polyline stroke-linecap="round" stroke="#d14e5b" points="198,402 201,393 212,389 206,388 213,390 211,388 208,389 208,386 220,384 232,391 235,386 241,377 248,376 253,374 259,369 270,371 278,356 285,358 291,358 296,358 299,347 301,345 311,346 314,347 317,352 326,341 337,333 347,333 352,326 355,323 360,316 365,324 371,317 376,309 380,313 386,305 397,305 413,295 427,286 440,281 450,271 460,278 471,273 480,273 489,272 495,271 490,276 477,282 482,271 487,265 491,267 498,264 507,257 515,259 520,255 526,253 532,249 534,254 531,260 541,251" fill="none" stroke-width="0.5746315668420332" opacity="0.6"></polyline><polygon points="539.725368433158,257.725368433158 541,249.72536843315797 542.2746315668421,252.27463156684203" transform="rotate(48.01278791221121, 541, 251)" cx="541" cy="251" r="1.2746315668420332" fill="#d14e5b" stroke="#ccc" stroke-width="0.2" opacity="0.6"></polygon></g><g class="key-France_0"><circle cx="239" cy="290" r="1.201626598008083" fill="#ffd336" stroke="#ccc" opacity="0.6"></circle><polyline stroke-linecap="round" stroke="#ffd336" points="239,290 250,289 244,264 249,287 252,284 246,262 250,273 247,275 246,278 250,280 246,275 248,288 260,304 257,273 257,266 262,257 260,232 262,256 268,248 262,251 272,264 275,254 271,251 278,262 282,262 277,251 277,246 291,279 282,293 286,247 288,239 285,245 294,249 286,243 292,256 290,259 296,256 303,280 313,288 303,279 312,280 303,263 314,285 318,284 319,280 315,276 315,269 306,257 319,273 321,275 311,298 313,312 326,284 314,266 331,282 335,271 322,267 329,279 326,285 317,277 328,282 333,271 339,272 339,276 337,281 334,285 336,280 337,280 338,277 341,264 345,274 348,269 352,272 354,279 359,288 356,293 362,279 360,266 366,283 374,275 372,291 370,275 367,281 370,282 371,282 373,285 375,277 381,276 380,282 386,279 376,288 389,281 401,276 399,275 388,212 382,271 404,241 410,226 425,223 425,221 428,222 424,243 434,244 442,242 437,242 427,270 418,303 427,282 426,297 422,291 428,298 435,272 569,279 574,279 579,284 586,283 589,282 587,290 592,290 597,294 600,298 604,301 606,301 606,308 609,316 610,319 611,324 613,326 616,327 619,330 624,329 628,331 631,333 632,335 633,339 631,348 634,352 636,352 637,356 639,356 643,358 647,341 652,339 654,342 654,348 654,352 657,353 659,352 662,353 664,350 663,352 658,364 659,370" fill="none" stroke-width="0.5638308667142495" opacity="0.6"></polyline><polygon points="657.7361691332858,376.7361691332857 659,368.7361691332857 660.2638308667143,371.2638308667142" transform="rotate(170.5376792412576, 659, 370)" cx="659" cy="370" r="1.2638308667142495" fill="#ffd336" stroke="#ccc" stroke-width="0.2" opacity="0.6"></polygon></g><g class="key-United-Kingdom_0"><circle cx="327" cy="313" r="1.1525816138158413" fill="#ffd336" stroke="#ccc" opacity="0.6"></circle><polyline stroke-linecap="round" stroke="#ffd336" points="327,313 329,384 325,317 335,298 349,304 349,317 437,253 434,287 440,269 444,259 449,257 455,273 449,279 460,268 461,275 465,276 463,292 455,293 455,293 459,286 467,282 472,278 478,267 482,260 483,270 529,213 533,216 533,221 537,224 544,220 546,223 548,227 551,232 556,234 558,233 561,232 563,238 567,242 576,241 574,250 574,258 577,259 581,246 586,243 589,238 587,243 585,248 587,247 592,249 595,249 600,249 605,271 612,268 618,275 621,276 621,284 618,301 618,309 621,314 627,310 631,306 634,307 643,311 647,320 651,325 656,326 660,331 663,344 667,351 671,355 674,358 677,359 681,361 679,365 672,372 674,369" fill="none" stroke-width="0.5625194694511118" opacity="0.6"></polyline><polygon points="672.7374805305489,375.7374805305489 674,367.7374805305489 675.262519469451,370.26251946945115" transform="rotate(33.690067812288646, 674, 369)" cx="674" cy="369" r="1.2625194694511117" fill="#ffd336" stroke="#ccc" stroke-width="0.2" opacity="0.6"></polygon></g><g class="key-Italy_0"><circle cx="541" cy="248" r="1.24681852418462" fill="#ffd336" stroke="#ccc" opacity="0.6"></circle><polyline stroke-linecap="round" stroke="#ffd336" points="541,248 542,253 547,257 556,248 562,237 559,245 568,238 570,242 574,248 582,248 587,247 588,253 588,262 590,270 594,271 598,273 602,278 607,281 612,282 617,280 620,286 622,292 623,295 621,297 624,298 628,294 629,298 631,300 633,300 635,303 640,303 642,306 642,305 642,308 643,307 644,308 646,304 648,301 645,306 636,320 638,319" fill="none" stroke-width="0.5599103671861161" opacity="0.6"></polyline><polygon points="636.7400896328139,325.74008963281386 638,317.74008963281386 639.2599103671862,320.2599103671861" transform="rotate(63.43494936201229, 638, 319)" cx="638" cy="319" r="1.2599103671861163" fill="#ffd336" stroke="#ccc" stroke-width="0.2" opacity="0.6"></polygon></g><g class="key-South-Africa_0"><circle cx="380" cy="283" r="1.167137176620769" fill="#5675c1" stroke="#ccc" opacity="0.6"></circle><polyline stroke-linecap="round" stroke="#5675c1" points="380,283 382,283 386,283 393,281 398,275 402,270 405,273 410,285 412,284 417,279 421,279 424,290 423,283 425,271 429,265 428,262 428,261 425,272 425,266 427,245 432,223 435,240 430,251 423,248 426,259 419,258 416,257 415,272 418,273 418,277 413,281 409,290 403,301 401,306 403,309 406,309 410,316 412,320 411,322 412,326 416,322 418,317 422,315 425,322 430,323 436,323 442,323 448,322 452,317 449,327 453,333" fill="none" stroke-width="0.5408089664951303" opacity="0.6"></polyline><polygon points="451.75919103350486,339.75919103350486 453,331.75919103350486 454.24080896649514,334.24080896649514" transform="rotate(146.30993371740837, 453, 333)" cx="453" cy="333" r="1.2408089664951305" fill="#5675c1" stroke="#ccc" stroke-width="0.2" opacity="0.6"></polygon></g><g class="key-South-Korea_0"><circle cx="109" cy="468" r="1.1462232621268276" fill="#d14e5b" stroke="#ccc" opacity="0.6"></circle><polyline stroke-linecap="round" stroke="#d14e5b" points="109,468 114,471 118,471 123,463 145,453 140,455 154,458 163,457 171,451 150,458 160,443 147,447 155,445 155,447 154,448 158,443 163,440 163,432 154,430 145,414 144,409 143,411 169,405 168,407 179,401 190,375 202,373 207,352 190,341 205,344 231,435 238,417 243,414 241,415 248,411 251,402 252,392 250,393 253,395 252,385 260,399 268,392 273,376 285,374 292,372 306,361 323,356 332,350 342,355 349,352 369,333 379,326 386,323 399,315 411,309 421,295 429,286 423,281 429,286 438,287 451,278 461,276 469,281 483,275 497,269 511,264 519,266 530,259 542,251 548,256 555,254 566,255 577,252 586,255 593,257 583,262 597,264 608,264 612,273 621,272 625,269 631,259 636,260 643,264 649,262 652,260 652,263 661,251" fill="none" stroke-width="0.5370641974083593" opacity="0.6"></polyline><polygon points="659.7629358025916,257.76293580259164 661,249.76293580259164 662.2370641974084,252.23706419740836" transform="rotate(36.86989795917608, 661, 251)" cx="661" cy="251" r="1.2370641974083594" fill="#d14e5b" stroke="#ccc" stroke-width="0.2" opacity="0.6"></polygon></g><g class="key-Colombia_0"><circle cx="331" cy="367" r="1.1515920388057703" fill="#69c487" stroke="#ccc" opacity="0.6"></circle><polyline stroke-linecap="round" stroke="#69c487" points="331,367 330,365 335,363 339,350 344,351 345,348 346,348 346,343 345,335 350,333 352,330 354,331 357,328 357,326 362,338 362,335 366,337 367,342 372,341 377,339 382,343 387,339 394,342 400,331 405,333 405,337 408,328 412,331 421,334 425,337 428,325 428,335 426,336 425,335 427,322 428,314 434,308 438,321 441,317 443,316 446,322 446,300 450,311 455,307 459,320 464,322 465,331 467,340 466,345 458,342 461,331 462,337 464,335 468,329 473,323 478,321 485,314 493,314 496,300 496,306 500,302" fill="none" stroke-width="0.5333783255938395" opacity="0.6"></polyline><polygon points="498.76662167440617,308.76662167440617 500,300.76662167440617 501.23337832559383,303.23337832559383" transform="rotate(45.000000382424254, 500, 302)" cx="500" cy="302" r="1.2333783255938395" fill="#69c487" stroke="#ccc" stroke-width="0.2" opacity="0.6"></polygon></g><g class="key-Spain_0"><circle cx="232" cy="407" r="1.1601168217907265" fill="#ffd336" stroke="#ccc" opacity="0.6"></circle><polyline stroke-linecap="round" stroke="#ffd336" points="232,407 233,401 239,393 239,416 241,414 247,420 243,399 239,392 241,385 247,385 251,388 253,386 253,381 256,378 256,377 251,381 257,385 257,390 241,381 245,372 248,385 258,382 276,385 288,375 275,385 279,379 281,383 294,379 290,382 281,374 292,361 295,351 296,350 299,347 298,356 294,354 290,361 287,353 292,349 291,350 290,341 293,335 303,341 297,334 298,338 296,339 283,339 290,355 300,344 302,334 304,327 313,335 308,339 307,336 306,332 303,340 309,336 313,328 317,328 318,338 312,325 321,334 319,318 324,326 321,329 322,337 328,325 325,323 323,326 323,338 332,328 335,329 339,333 339,319 342,318 349,324 347,313 358,315 357,303 365,311 359,315 354,335 355,341 351,333 355,345 357,344 326,370 322,372 329,360 333,367 338,368 327,361 332,355 334,347 333,332 331,355 333,347 345,328 355,323 354,309 363,308 367,301 377,297 380,295 385,292 484,249 491,256 501,248 512,242 521,235 524,247 528,251 532,254 535,259 536,261 538,263 538,269 539,276 542,278 544,286 546,288 550,283 557,286 564,284 571,281 577,286 580,291 581,307 579,320 582,322 589,314 592,317 597,315 603,315 609,315 615,313 618,313 620,314 622,313 624,311 627,306 630,304 633,309 632,316 625,337 624,336" fill="none" stroke-width="0.5329494372834132" opacity="0.6"></polyline><polygon points="622.7670505627166,342.7670505627166 624,334.7670505627166 625.2329494372834,337.2329494372834" transform="rotate(-45.000000382424254, 624, 336)" cx="624" cy="336" r="1.232949437283413" fill="#ffd336" stroke="#ccc" stroke-width="0.2" opacity="0.6"></polygon></g><g class="key-Tanzania_0"><circle cx="110" cy="380" r="1.1456460212118194" fill="#5675c1" stroke="#ccc" opacity="0.6"></circle><polyline stroke-linecap="round" stroke="#5675c1" points="110,380 104,364 113,366 117,374 120,367 121,359 134,348 136,341 138,341 137,331 140,330 142,320 147,322 146,323 145,335 148,340 154,328 154,328 153,326 151,343 148,352 143,359 140,380 136,398 135,398 130,413 130,405 133,385 134,402 135,420 136,403 135,424 131,401 128,414 125,410 126,415 129,413 131,410 132,398 132,400 135,403 139,403 145,391 150,381 156,381 162,378 168,376 173,374 180,375 184,369 190,366" fill="none" stroke-width="0.5305014712918368" opacity="0.6"></polyline><polygon points="188.76949852870817,372.76949852870814 190,364.76949852870814 191.23050147129183,367.2305014712918" transform="rotate(63.43494936201229, 190, 366)" cx="190" cy="366" r="1.230501471291837" fill="#5675c1" stroke="#ccc" stroke-width="0.2" opacity="0.6"></polygon></g><g class="key-Kenya_0"><circle cx="175" cy="424" r="1.1393019939851126" fill="#5675c1" stroke="#ccc" opacity="0.6"></circle><polyline stroke-linecap="round" stroke="#5675c1" points="175,424 167,422 170,433 173,441 182,434 179,427 191,430 194,425 199,422 203,416 208,411 212,408 215,406 217,400 218,398 213,403 213,401 220,407 227,394 226,369 228,392 226,392 229,392 224,399 221,397 222,396 227,399 230,400 234,398 235,395 237,392 234,386 227,397 223,407 223,407 225,413 227,411 224,414 226,416 226,419 223,417 226,419 222,418 222,417 224,412 229,407 233,409 238,407 236,403 236,410 240,407" fill="none" stroke-width="0.5217138672963704" opacity="0.6"></polyline><polygon points="238.77828613270364,413.7782861327036 240,405.7782861327036 241.2217138672964,408.22171386729633" transform="rotate(53.130102805672415, 240, 407)" cx="240" cy="407" r="1.2217138672963703" fill="#5675c1" stroke="#ccc" stroke-width="0.2" opacity="0.6"></polygon></g><g class="key-Argentina_0"><circle cx="451" cy="270" r="1.1664597885188082" fill="#69c487" stroke="#ccc" opacity="0.6"></circle><polyline stroke-linecap="round" stroke="#69c487" points="451,270 453,282 443,282 447,298 450,285 458,276 459,286 464,289 470,289 458,304 466,298 474,290 469,292 463,297 475,290 486,276 484,278 486,281 490,282 500,282 505,281 509,283 511,275 517,257 524,254 520,233 517,224 523,235 515,242 522,244 522,256 511,262 504,251 507,252 507,264 496,269 504,278 505,273 500,271 489,255 487,289 498,305 507,315 514,316 520,317 514,322 520,319 529,314 533,319 528,325 525,328 518,335 500,300 509,283 518,279 527,280 537,279 546,291 550,300 544,301 554,309" fill="none" stroke-width="0.5215060979245231" opacity="0.6"></polyline><polygon points="552.7784939020755,315.77849390207547 554,307.77849390207547 555.2215060979246,310.22150609792453" transform="rotate(128.65980934748188, 554, 309)" cx="554" cy="309" r="1.2215060979245231" fill="#69c487" stroke="#ccc" stroke-width="0.2" opacity="0.6"></polygon></g><g class="key-Morocco_0"><circle cx="290" cy="363" r="1.161305013899525" fill="#5675c1" stroke="#ccc" opacity="0.6"></circle><polyline stroke-linecap="round" stroke="#5675c1" points="290,363 294,363 294,362 296,359 301,315 307,314 320,332 324,325 325,334 329,330 338,339 332,316 342,329 338,328 340,333 345,336 352,356 345,354 355,353 355,350 357,352 364,363 356,359 352,362 363,372 351,365 366,372 360,362 369,369 367,366 368,362 376,369 379,370 386,367 391,363 394,366 403,370 405,371 411,352 416,363 420,356" fill="none" stroke-width="0.5032171931024579" opacity="0.6"></polyline><polygon points="418.79678280689757,362.79678280689757 420,354.79678280689757 421.2032171931025,357.2032171931025" transform="rotate(29.74488154972363, 420, 356)" cx="420" cy="356" r="1.203217193102458" fill="#5675c1" stroke="#ccc" stroke-width="0.2" opacity="0.6"></polygon></g><g class="key-Peru_0"><circle cx="417" cy="322" r="1.173887188261372" fill="#69c487" stroke="#ccc" opacity="0.6"></circle><polyline stroke-linecap="round" stroke="#69c487" points="417,322 426,342 411,309 389,326 378,322 379,347 376,343 379,336 394,329 403,330 404,336 411,334 408,339 407,341 409,339 408,341 413,337 417,334 422,319 430,310 439,293 450,293 461,298 461,311 472,300" fill="none" stroke-width="0.49661607123897833" opacity="0.6"></polyline><polygon points="470.80338392876104,306.80338392876104 472,298.80338392876104 473.196616071239,301.196616071239" transform="rotate(45.00000038242425, 472, 300)" cx="472" cy="300" r="1.1966160712389784" fill="#69c487" stroke="#ccc" stroke-width="0.2" opacity="0.6"></polygon></g><g class="key-Venezuela_0"><circle cx="545" cy="180" r="1.1374999470999365" fill="#69c487" stroke="#ccc" opacity="0.6"></circle><polyline stroke-linecap="round" stroke="#69c487" points="545,180 535,191 536,182 537,182 544,175 548,177 545,180 549,180 553,183 554,191 559,198 556,183 553,177 559,157 557,109 557,143 563,141 567,143 566,146 563,135 552,140 548,154 540,166 531,181 529,172 527,180 530,200 532,194 536,200 520,173 524,154 533,179 539,185 536,202 530,208 532,215 529,167 535,195 533,237 522,235 525,207 528,231 513,208 499,198 521,171 533,156 544,165 554,187 559,181 552,240 548,191" fill="none" stroke-width="0.4963902843698117" opacity="0.6"></polyline><polygon points="546.8036097156302,197.8036097156302 548,189.8036097156302 549.1963902843697,192.1963902843698" transform="rotate(-4.6668584110994775, 548, 191)" cx="548" cy="191" r="1.1963902843698118" fill="#69c487" stroke="#ccc" stroke-width="0.2" opacity="0.6"></polygon></g><g class="key-Malaysia_0"><circle cx="326" cy="337" r="1.1482539290085314" fill="#d14e5b" stroke="#ccc" opacity="0.6"></circle><polyline stroke-linecap="round" stroke="#d14e5b" points="326,337 332,337 339,335 355,333 362,325 360,316 374,308 382,298 390,288 398,288 406,287 413,287 417,287 422,287 430,288 425,288 423,288 427,295 435,295 445,289 455,273 464,273 472,279 482,287 491,287 501,282 511,270 517,267 503,279 507,262 516,237 513,254 517,258 522,251 528,238 532,234 538,234 544,246 548,242 544,270 551,268" fill="none" stroke-width="0.4950326394203881" opacity="0.6"></polyline><polygon points="549.8049673605797,274.8049673605796 551,266.8049673605796 552.1950326394204,269.1950326394204" transform="rotate(74.05460472841662, 551, 268)" cx="551" cy="268" r="1.195032639420388" fill="#d14e5b" stroke="#ccc" stroke-width="0.2" opacity="0.6"></polygon></g><g class="key-Ghana_0"><circle cx="267" cy="331" r="1.1347346294346767" fill="#5675c1" stroke="#ccc" opacity="0.6"></circle><polyline stroke-linecap="round" stroke="#5675c1" points="267,331 268,330 271,330 272,330 271,330 268,330 264,337 263,326 261,333 261,344 272,353 278,347 269,356 269,345 275,344 253,333 244,346 245,364 254,394 248,391 242,395 240,421 227,447 211,441 215,414 218,369 219,372 222,381 226,382 229,375 230,374 234,385 236,381 239,389 241,391 244,392 248,395 253,389 257,390 261,390 264,391 268,392 271,392 275,394 279,396 285,396 290,395 296,392 304,393 307,402 314,401" fill="none" stroke-width="0.4853564822657191" opacity="0.6"></polyline><polygon points="312.8146435177343,407.8146435177343 314,399.8146435177343 315.1853564822657,402.1853564822657" transform="rotate(81.86989834160035, 314, 401)" cx="314" cy="401" r="1.185356482265719" fill="#5675c1" stroke="#ccc" stroke-width="0.2" opacity="0.6"></polygon></g><g class="key-Taiwan_0"><circle cx="214" cy="383" r="1.1397808420835949" fill="#d14e5b" stroke="#ccc" opacity="0.6"></circle><polyline stroke-linecap="round" stroke="#d14e5b" points="214,383 225,391 233,394 240,363 246,369 248,363 253,357 257,361 262,348 264,353 269,356 275,345 283,334 295,331 306,332 314,331 325,314 333,304 342,290 354,292 368,277 383,257 398,241 397,260 401,270 416,248 427,243 443,235 451,234 458,235 464,245 467,253 477,247 489,242 494,245 508,232 528,232 533,244 543,261 549,268 558,268 567,275 575,279 584,290 592,298 599,301 605,304 609,309 616,319 623,324 619,335 626,331 630,333 638,334 644,337 651,336 659,329 660,343 657,342 671,327" fill="none" stroke-width="0.4819400772719665" opacity="0.6"></polyline><polygon points="669.818059922728,333.818059922728 671,325.818059922728 672.181940077272,328.181940077272" transform="rotate(43.02506635475867, 671, 327)" cx="671" cy="327" r="1.1819400772719666" fill="#d14e5b" stroke="#ccc" stroke-width="0.2" opacity="0.6"></polygon></g><g class="key-Chile_0"><circle cx="407" cy="340" r="1.1324663549458358" fill="#69c487" stroke="#ccc" opacity="0.6"></circle><polyline stroke-linecap="round" stroke="#69c487" points="407,340 409,336 415,347 423,353 416,323 418,322 418,319 428,342 432,351 421,317 428,330 432,333 435,322 440,308 440,300 438,298 451,297 452,308 455,301 457,293 457,304 467,330 463,322 452,322 451,273 429,330 431,322 442,340 451,336 460,323 469,325 475,336 452,339 445,308 451,308 452,315 457,322 464,316 472,287 484,297 486,295 495,304 509,317 516,319 521,313 533,305 542,316 549,318 551,335 548,335 553,332 556,330 557,326 561,317 570,298 577,289 584,259 589,257 593,282 590,289 597,273" fill="none" stroke-width="0.46635869928257434" opacity="0.6"></polyline><polygon points="595.8336413007174,279.83364130071743 597,271.83364130071743 598.1663586992826,274.16635869928257" transform="rotate(23.629377931466742, 597, 273)" cx="597" cy="273" r="1.1663586992825743" fill="#69c487" stroke="#ccc" stroke-width="0.2" opacity="0.6"></polygon></g><g class="key-Netherlands_0"><circle cx="308" cy="334" r="1.1184631626674557" fill="#ffd336" stroke="#ccc" opacity="0.6"></circle><polyline stroke-linecap="round" stroke="#ffd336" points="308,334 292,322 311,364 304,363 305,382 308,368 301,372 311,356 308,341 309,334 316,330 315,339 311,344 314,342 322,336 325,330 325,333 312,331 322,350 329,361 326,344 327,332 327,325 331,326 335,320 336,321 336,337 337,328 339,317 335,328 333,334 334,334 333,329 333,342 334,365 337,342 341,346 343,353 345,361 344,363 341,363 349,367 345,372 351,380 348,363 344,364 339,372 346,369 342,367 347,376 350,359 355,365 356,363 361,373 356,367 357,376 361,375 366,366 365,366 367,347 369,331 364,334 372,334 372,334 374,324 374,328 367,327 375,336 375,323 377,318 386,326 387,329 388,323 389,325 391,323 391,312 394,316 387,326 385,326 388,329 385,335 391,317 390,331 394,324 396,319 396,323 396,320 393,317 398,319 401,319 399,312 399,313 404,312 405,315 400,315 401,315 407,319 411,321 414,323 416,320 421,312 576,283 580,285 583,287 588,287 593,286 591,295 597,294 600,297 602,304 604,305 605,302 603,302 601,305 603,304 607,298 611,296 614,311 615,322 617,319 623,319 628,319 630,321 632,327 633,329 636,330 639,328 643,331 649,336 653,339 659,344 664,339 665,342 664,350 664,354 667,352 670,352 674,347 679,346 681,340 675,360 677,361" fill="none" stroke-width="0.4649713343371972" opacity="0.6"></polyline><polygon points="675.8350286656628,367.8350286656628 677,359.8350286656628 678.1649713343372,362.16497133433717" transform="rotate(116.56505216768471, 677, 361)" cx="677" cy="361" r="1.1649713343371972" fill="#ffd336" stroke="#ccc" stroke-width="0.2" opacity="0.6"></polygon></g><g class="key-Malawi_0"><circle cx="88" cy="444" r="1.1232888051669743" fill="#5675c1" stroke="#ccc" opacity="0.6"></circle><polyline stroke-linecap="round" stroke="#5675c1" points="88,444 92,447 88,449 82,438 75,444 89,440 99,422 109,424 103,416 108,407 106,397 122,406 132,391 139,394 144,391 145,385 146,386 149,394 157,372 159,387 155,338 143,359 140,378 142,389 143,372 150,381 145,367 140,375 135,380 134,383 133,379 139,388 123,383 134,394 121,389 140,392 150,401 155,403 152,403 153,403 150,405 140,413 139,414 143,406 147,417 146,419 146,417 155,415 162,415 171,416 176,415" fill="none" stroke-width="0.46013643280106203" opacity="0.6"></polyline><polygon points="174.83986356719893,421.83986356719896 176,413.83986356719896 177.16013643280107,416.1601364328011" transform="rotate(78.69006819471291, 176, 415)" cx="176" cy="415" r="1.1601364328010622" fill="#5675c1" stroke="#ccc" stroke-width="0.2" opacity="0.6"></polygon></g><g class="key-Zambia_0"><circle cx="215" cy="119" r="1.12148657047167" fill="#5675c1" stroke="#ccc" opacity="0.6"></circle><polyline stroke-linecap="round" stroke="#5675c1" points="215,119 212,134 207,143 206,146 221,141 241,190 229,180 236,205 234,207 229,145 231,202 227,253 235,249 230,222 237,196 227,302 231,318 220,332 216,337 208,297 208,306 212,358 202,358 194,305 189,297 186,217 182,218 181,245 185,251 182,265 190,233 185,271 184,266 180,267 156,270 149,294 155,302 155,313 149,346 148,375 149,372 151,371 152,366 156,364 160,353 164,347 168,322 173,312 177,317 182,325 188,306" fill="none" stroke-width="0.4548544239657387" opacity="0.6"></polyline><polygon points="186.84514557603427,312.84514557603427 188,304.84514557603427 189.15485442396576,307.15485442396573" transform="rotate(17.52556852266071, 188, 306)" cx="188" cy="306" r="1.1548544239657388" fill="#5675c1" stroke="#ccc" stroke-width="0.2" opacity="0.6"></polygon></g><g class="key-Senegal_0"><circle cx="274" cy="436" r="1.1214981735904888" fill="#5675c1" stroke="#ccc" opacity="0.6"></circle><polyline stroke-linecap="round" stroke="#5675c1" points="274,436 277,435 278,435 280,432 279,430 280,428 280,424 274,421 279,418 265,416 273,419 268,416 273,420 260,421 262,403 269,408 278,416 269,411 259,410 264,410 255,405 249,408 265,399 264,396 253,396 254,400 256,402 257,402 259,394 252,397 253,389 253,386 251,379 249,383 246,379 249,378 249,374 249,378 254,377 259,375 261,379 263,369 260,364 266,372 270,369 274,377 274,377 277,376 278,384 278,381 280,380" fill="none" stroke-width="0.45290096274987074" opacity="0.6"></polyline><polygon points="278.84709903725013,386.84709903725013 280,378.84709903725013 281.15290096274987,381.15290096274987" transform="rotate(63.43494936201229, 280, 380)" cx="280" cy="380" r="1.1529009627498708" fill="#5675c1" stroke="#ccc" stroke-width="0.2" opacity="0.6"></polygon></g><g class="key-Belgium_0"><circle cx="282" cy="301" r="1.1247204682429213" fill="#ffd336" stroke="#ccc" opacity="0.6"></circle><polyline stroke-linecap="round" stroke="#ffd336" points="282,301 284,289 288,291 287,300 288,297 288,294 292,292 293,284 289,284 294,289 299,292 296,294 302,320 301,281 304,289 309,275 312,279 315,278 317,264 325,270 325,249 332,248 334,246 334,243 334,234 340,237 341,239 343,240 346,242 350,229 349,227 352,221 352,232 356,242 361,216 363,215 362,215 369,193 369,179 373,203 371,218 372,235 372,235 375,230 375,238 381,227 381,226 384,229 385,235 384,242 384,253 385,261 389,249 389,251 395,246 397,243 396,253 398,255 398,259 399,261 400,259 402,255 404,256 405,256 406,245 409,243 409,256 409,259 411,258 413,257 415,261 416,256 417,253 417,262 418,270 421,271 424,271 426,266 427,265 418,315 421,299 433,289 437,290 440,278 441,276 445,267 449,250 455,249 453,247 450,256 447,265 439,287 442,288 440,288 448,276 448,264 450,265 446,275 455,280 438,276 445,259 452,257 456,251 464,250 471,249 469,256 473,256 478,251 484,252 487,248 488,246 487,256 491,262 498,257 504,257 510,255 516,256 524,247 528,254 531,256 536,260 541,263 550,260 558,248 563,260 570,263 578,262 583,257 581,273 589,276 590,278 593,283 597,284 603,290 601,307 603,307 603,310 606,312 608,312 610,316 613,322 619,320 624,316 627,316 629,338 631,350 629,353 633,359 636,360 638,356 643,359 645,358 650,360 655,363 655,363 657,368 658,371 662,375 665,375 668,378 672,377 672,379" fill="none" stroke-width="0.44764181307669226" opacity="0.6"></polyline><polygon points="670.8523581869233,385.8523581869233 672,377.8523581869233 673.1476418130767,380.1476418130767" transform="rotate(180.000001529697, 672, 379)" cx="672" cy="379" r="1.1476418130766923" fill="#ffd336" stroke="#ccc" stroke-width="0.2" opacity="0.6"></polygon></g><g class="key-Bolivia_0"><circle cx="290" cy="401" r="1.122109711664218" fill="#69c487" stroke="#ccc" opacity="0.6"></circle><polyline stroke-linecap="round" stroke="#69c487" points="290,401 286,386 289,396 289,403 293,395 299,390 302,380 306,367 312,370 317,364 326,369 328,360 332,359 334,356 338,358 344,345 347,342 353,368 360,365 362,363 364,364 360,363 356,370 355,333 346,421 337,396 336,381 332,347 325,323 326,310 329,298 330,300 334,301 338,311 336,319 339,334 342,339 346,330 349,333 353,345 357,348 354,359 355,352 354,355 355,353 356,352 359,341 362,334 366,315 370,308 376,295 378,308 381,303" fill="none" stroke-width="0.4451894558596757" opacity="0.6"></polyline><polygon points="379.8548105441403,309.8548105441403 381,301.8548105441403 382.1451894558597,304.1451894558597" transform="rotate(30.963756795213342, 381, 303)" cx="381" cy="303" r="1.1451894558596756" fill="#69c487" stroke="#ccc" stroke-width="0.2" opacity="0.6"></polygon></g><g class="key-Sweden_0"><circle cx="198" cy="407" r="1.118849078694829" fill="#ffd336" stroke="#ccc" opacity="0.6"></circle><polyline stroke-linecap="round" stroke="#ffd336" points="198,407 204,416 203,416 193,436 202,427 204,424 198,427 190,432 183,443 194,447 204,418 195,440 198,415 199,432 204,425 206,418 202,429 203,398 202,399 204,414 208,414 209,424 207,432 211,422 215,410 215,411 208,407 211,414 213,416 209,424 212,414 208,422 213,422 215,422 214,421 219,406 217,410 215,405 217,409 219,412 217,412 210,421 213,417 219,408 222,403 217,407 221,405 223,416 228,410 232,396 229,391 226,392 228,391 229,396 238,378 236,387 240,383 242,391 247,387 249,383 244,394 239,386 245,386 248,380 250,381 248,381 250,388 236,390 246,392 263,392 268,394 271,382 272,370 278,362 273,366 281,369 278,366 273,373 281,380 277,373 282,371 277,375 287,380 284,368 287,370 288,361 284,366 286,360 288,352 291,356 299,364 297,362 301,358 301,348 308,336 312,334 317,325 322,331 325,330 326,323 330,327 328,325 335,318 337,317 335,308 346,306 356,317 351,322 352,333 354,319 358,308 363,312 372,309 375,306 380,326 387,316 379,306 367,327 369,331 378,324 371,325 381,321 385,318 394,319 398,315 404,316 409,315 413,315 421,308 427,302 424,315 418,319 420,321 429,305 436,298 440,290 444,283 448,275 458,279 447,290 442,281 443,273 448,269 451,271 455,260 468,260 479,262 481,252 485,255 494,253 498,232 499,258 502,251 507,249 510,250 514,252 520,251 520,253 523,249 530,248 537,249 542,246 549,248 557,247 561,249 563,256 566,262 571,267 577,264 584,263 585,271 587,275 593,271 597,264 600,267 601,277 598,292 600,301 605,300 607,303 607,312 608,313 611,311 616,305 619,305 622,306 625,308 628,309 630,308 631,315 628,324 625,330 622,337 626,328 631,320 633,324 637,323 643,321 649,323 655,325 657,329 660,330 663,332 669,329 673,329 679,328 683,328 682,337 674,351 683,336" fill="none" stroke-width="0.4434395100228534" opacity="0.6"></polyline><polygon points="681.8565604899771,342.85656048997714 683,334.85656048997714 684.1434395100229,337.14343951002286" transform="rotate(30.96375679521333, 683, 336)" cx="683" cy="336" r="1.1434395100228534" fill="#ffd336" stroke="#ccc" stroke-width="0.2" opacity="0.6"></polygon></g><g class="key-Denmark_0"><circle cx="584" cy="300" r="1.128407930555852" fill="#ffd336" stroke="#ccc" opacity="0.6"></circle><polyline stroke-linecap="round" stroke="#ffd336" points="584,300 587,301 593,302 597,308 595,314 594,317 603,322 605,323 606,328 611,331 610,322 609,333 613,336 617,333 623,327 629,326 634,324 634,324 636,328 636,328 637,332 639,336 641,335 641,341 648,339 651,337 655,337 659,337 661,336 664,333 669,324 669,331 669,333 669,337 672,340 675,333 679,330 681,331 680,333 671,349 672,354" fill="none" stroke-width="0.430610557624725" opacity="0.6"></polyline><polygon points="670.8693894423752,360.8693894423753 672,352.8693894423753 673.1306105576247,355.1306105576247" transform="rotate(168.69006895956142, 672, 354)" cx="672" cy="354" r="1.130610557624725" fill="#ffd336" stroke="#ccc" stroke-width="0.2" opacity="0.6"></polygon></g><g class="key-Singapore_0"><circle cx="434" cy="348" r="1.1177619661743234" fill="#d14e5b" stroke="#ccc" opacity="0.6"></circle><polyline stroke-linecap="round" stroke="#d14e5b" points="434,348 448,339 464,323 476,326 483,323 487,323 495,319 504,321 514,325 524,315 536,305 542,302 545,309 554,302 563,296 560,313 562,312 573,308 584,304 593,309 600,319 604,311 609,311 620,312 630,315 636,314 643,315 651,317 644,314 649,323 658,311 652,332 654,332 657,334 666,323 673,330 682,333 691,346 690,358 685,347 702,348" fill="none" stroke-width="0.42897049468586024" opacity="0.6"></polyline><polygon points="700.8710295053141,354.87102950531414 702,346.87102950531414 703.1289704946859,349.12897049468586" transform="rotate(93.36646145688755, 702, 348)" cx="702" cy="348" r="1.1289704946858603" fill="#d14e5b" stroke="#ccc" stroke-width="0.2" opacity="0.6"></polygon></g><g class="key-Costa-Rica_0"><circle cx="317" cy="342" r="1.1133604268260615" fill="#4d824b" stroke="#ccc" opacity="0.6"></circle><polyline stroke-linecap="round" stroke="#4d824b" points="317,342 317,342 328,343 343,344 339,344 350,345 340,342 346,341 358,343 357,341 364,337 364,345 367,337 374,334 376,340 384,341 390,342 394,342 400,337 405,337 410,335 415,328 423,325 430,322 434,314 433,314 436,314 444,323 447,325 450,322 448,320 442,326 427,334 427,325 434,316 431,319 434,325 437,325 438,327 442,330 444,339 444,337 453,334 459,342 461,345 463,345 460,349 465,347 473,342 481,308 480,329 479,346 481,350 487,353 491,350 497,352 507,350 516,347 518,351 514,366 518,370" fill="none" stroke-width="0.4274397379185022" opacity="0.6"></polyline><polygon points="516.8725602620815,376.8725602620815 518,368.8725602620815 519.1274397379185,371.1274397379185" transform="rotate(135.00000114727274, 518, 370)" cx="518" cy="370" r="1.1274397379185022" fill="#4d824b" stroke="#ccc" stroke-width="0.2" opacity="0.6"></polygon></g><g class="key-Botswana_0"><circle cx="101" cy="433" r="1.1117844201753075" fill="#5675c1" stroke="#ccc" opacity="0.6"></circle><polyline stroke-linecap="round" stroke="#5675c1" points="101,433 103,436 114,454 126,451 138,455 149,383 159,319 179,319 215,320 238,326 259,319 250,323 267,299 265,292 283,273 289,217 302,191 310,198 314,229 330,186 340,163 345,143 351,125 359,136 375,136 388,141 392,171 394,189 394,195 392,225 393,225 394,228 398,213 404,212 408,227 413,217 422,206 426,218 431,229 434,253 436,249 435,221 440,216 443,224 444,263" fill="none" stroke-width="0.41749991008230875" opacity="0.6"></polyline><polygon points="442.8825000899177,269.8825000899177 444,261.8825000899177 445.1174999100823,264.1174999100823" transform="rotate(178.53120080282898, 444, 263)" cx="444" cy="263" r="1.1174999100823086" fill="#5675c1" stroke="#ccc" stroke-width="0.2" opacity="0.6"></polygon></g><g class="key-Mauritius_0"><circle cx="367" cy="377" r="1.1121117681661448" fill="#5675c1" stroke="#ccc" opacity="0.6"></circle><polyline stroke-linecap="round" stroke="#5675c1" points="367,377 392,358 389,353 405,344 391,353 392,358 383,362 386,359 374,368 378,368 375,368 380,360 392,348 407,354 420,326 418,334 438,340 444,338 447,331 449,336 432,334 438,339 443,344 442,342 448,331 456,319 469,306 481,305 490,305 495,306 503,301 511,304 516,306 523,310 528,315 531,317 537,316 543,320 550,321 556,321 558,326 567,329 570,335 578,339 583,344 587,350 591,347 595,343 603,344" fill="none" stroke-width="0.414701554056791" opacity="0.6"></polyline><polygon points="601.8852984459432,350.8852984459432 603,342.8852984459432 604.1147015540569,345.11470155405675" transform="rotate(97.12501717430095, 603, 344)" cx="603" cy="344" r="1.114701554056791" fill="#5675c1" stroke="#ccc" stroke-width="0.2" opacity="0.6"></polygon></g><text x="523.889012070387" y="226.95235455634563" font-size="14.3" font-family="Arial Narrow, Arial, sans-serif" fill="#666">China</text><text x="399.9751859510499" y="343.502481404895" font-size="14.012729611341284" font-family="Arial Narrow, Arial, sans-serif" fill="#666">India</text><text x="643.0712291661266" y="402" font-size="11.762648562831405" font-family="Arial Narrow, Arial, sans-serif" fill="#666">United States</text><text x="447.5957251500903" y="229.7641483407057" font-size="11.589103695619693" font-family="Arial Narrow, Arial, sans-serif" fill="#666">Indonesia</text><text x="501.0961596025952" y="344.13268827818337" font-size="11.478536715859432" font-family="Arial Narrow, Arial, sans-serif" fill="#666">Brazil</text><text x="311.4708709557974" y="215.02222132442728" font-size="11.388646508701846" font-family="Arial Narrow, Arial, sans-serif" fill="#666">Nigeria</text><text x="664.3942606534029" y="326.6105221354281" font-size="11.310166373318959" font-family="Arial Narrow, Arial, sans-serif" fill="#666">Japan</text><text x="517.7434164902526" y="291.41886116991583" font-size="11.277893296743784" font-family="Arial Narrow, Arial, sans-serif" fill="#666">Mexico</text><text x="383.6816458878452" y="326.24438279205805" font-size="11.228270471455634" font-family="Arial Narrow, Arial, sans-serif" fill="#666">Philippines</text><text x="216" y="454" font-size="11.202892662431838" font-family="Arial Narrow, Arial, sans-serif" fill="#666">Ethiopia</text><text x="658.0686673560336" y="362.50684101614047" font-size="11.201300095089962" font-family="Arial Narrow, Arial, sans-serif" fill="#666">Germany</text><text x="433" y="290" font-size="11.198392492355689" font-family="Arial Narrow, Arial, sans-serif" fill="#666">Egypt</text><text x="544.7164707312359" y="247.65517634188774" font-size="11.168861238682105" font-family="Arial Narrow, Arial, sans-serif" fill="#666">Thailand</text><text x="659.8219949365268" y="380.50860470386186" font-size="11.153270169402324" font-family="Arial Narrow, Arial, sans-serif" fill="#666">France</text><text x="642.4721359549995" y="316.7639320225002" font-size="11.147765556848432" font-family="Arial Narrow, Arial, sans-serif" fill="#666">Italy</text><text x="601.8541389698883" y="247" font-size="11.117327554581697" font-family="Arial Narrow, Arial, sans-serif" fill="#666">South Korea</text><text x="591.9062589556569" y="332.4644660940673" font-size="11.112142855412577" font-family="Arial Narrow, Arial, sans-serif" fill="#666">Spain</text><text x="194.47213595499957" y="363.7639320225002" font-size="11.109101426282" font-family="Arial Narrow, Arial, sans-serif" fill="#666">Tanzania</text><text x="244" y="404" font-size="11.098448121550762" font-family="Arial Narrow, Arial, sans-serif" fill="#666">Kenya</text><text x="557.9043440472152" y="317.6725758632325" font-size="11.098201250920736" font-family="Arial Narrow, Arial, sans-serif" fill="#666">Argentina</text><text x="475.53553390593277" y="296.46446609406723" font-size="11.070301704656716" font-family="Arial Narrow, Arial, sans-serif" fill="#666">Peru</text><text x="495.0103868087847" y="186.01657692088696" font-size="11.070063819776996" font-family="Arial Narrow, Arial, sans-serif" fill="#666">Venezuela</text><text x="555.8076197382042" y="266.62639436051313" font-size="11.068639193179548" font-family="Arial Narrow, Arial, sans-serif" fill="#666">Malaysia</text><text x="318.9497474683058" y="400.29289321881345" font-size="11.05877186471791" font-family="Arial Narrow, Arial, sans-serif" fill="#666">Ghana</text><text x="180.9029033784546" y="414.01941932430907" font-size="11.035412896102901" font-family="Arial Narrow, Arial, sans-serif" fill="#666">Malawi</text><text x="189.50565683968549" y="301.2320866743293" font-size="11.030952579835219" font-family="Arial Narrow, Arial, sans-serif" fill="#666">Zambia</text><text x="284.4721359549996" y="377.7639320225002" font-size="11.029340899007483" font-family="Arial Narrow, Arial, sans-serif" fill="#666">Senegal</text><text x="383.57247877713763" y="298.7125353714373" font-size="11.023178414348173" font-family="Arial Narrow, Arial, sans-serif" fill="#666">Bolivia</text><text x="521.5355339059328" y="379.0406367328814" font-size="11.010205653897367" font-family="Arial Narrow, Arial, sans-serif" fill="#666">Costa Rica</text><text x="444.12816300396275" y="273.5001965346817" font-size="11.003678760268572" font-family="Arial Narrow, Arial, sans-serif" fill="#666">Botswana</text><text x="607.9613893835683" y="350.12114207643674" font-size="11.001936806981384" font-family="Arial Narrow, Arial, sans-serif" fill="#666">Mauritius</text></g><g style="cursor: pointer;" class="ScatterColorLegend clickable"><g class="legendMark"><rect x="735" y="106.9" width="43.256" height="17.6" fill="#fff" opacity="0"></rect>,<rect x="735" y="112.4" width="6" height="6" fill="#5675c1"></rect>,<text font-size="12.60" x="746.0" y="119.5"><tspan x="746" y="119.48">Africa</tspan></text></g><g class="legendMark"><rect x="735" y="124.5" width="35.57" height="17.6" fill="#fff" opacity="0"></rect>,<rect x="735" y="130" width="6" height="6" fill="#d14e5b"></rect>,<text font-size="12.60" x="746.0" y="137.1"><tspan x="746" y="137.07999999999998">Asia</tspan></text></g><g class="legendMark"><rect x="735" y="142.10000000000002" width="51.824" height="17.6" fill="#fff" opacity="0"></rect>,<rect x="735" y="147.60000000000002" width="6" height="6" fill="#ffd336"></rect>,<text font-size="12.60" x="746.0" y="154.7"><tspan x="746" y="154.68">Europe</tspan></text></g><g class="legendMark"><rect x="735" y="159.70000000000002" width="91.64" height="17.6" fill="#fff" opacity="0"></rect>,<rect x="735" y="165.20000000000002" width="6" height="6" fill="#4d824b"></rect>,<text font-size="12.60" x="746.0" y="172.3"><tspan x="746" y="172.28">North America</tspan></text></g><g class="legendMark"><rect x="735" y="177.3" width="93.908" height="17.6" fill="#fff" opacity="0"></rect>,<rect x="735" y="182.8" width="6" height="6" fill="#69c487"></rect>,<text font-size="12.60" x="746.0" y="189.9"><tspan x="746" y="189.88">South America</tspan></text></g></g><line x1="735" y1="199.4" x2="830" y2="199.4" stroke="#ccc"></line><g class="clickable"><g class="ConnectedScatterLegend"><rect x="735" y="208.4" width="100" height="12.6" fill="#fff" opacity="0"></rect><text font-size="12.60" x="735.0" y="218.5" fill="#333"><tspan x="735" y="218.48">1801</tspan></text><text font-size="12.60" x="806.8" y="218.5" fill="#333"><tspan x="806.776" y="218.48">2010</tspan></text><line x1="768.224" y1="214.20000000000002" x2="801.776" y2="214.20000000000002" stroke="#666" stroke-width="1"></line><circle cx="768.224" cy="214.20000000000002" r="2" fill="#666" stroke="#ccc" stroke-width="0.2"></circle><circle cx="779.408" cy="214.20000000000002" r="2" fill="#666" stroke="#ccc" stroke-width="0.2"></circle><circle cx="790.592" cy="214.20000000000002" r="2" fill="#666" stroke="#ccc" stroke-width="0.2"></circle><polygon points="798.776,219.20000000000002 801.776,211.20000000000002 804.776,217.20000000000002" cx="801.776" cy="214.20000000000002" r="3" fill="#666" stroke="#ccc" stroke-width="0.2" transform="rotate(90, 801.776, 214.20000000000002)"></polygon></g></g></g><g style="fill: #777;" class="SourcesFooter"><g style="fill: #777;" class="clickable"><text font-size="12.60" x="15.0" y="581.6"><tspan x="15" y="581.58">Source: Maddison-Project (2013), Our World In Data based on Herrendorf et al. (2014) and GGDC-10 (2015)</tspan></text></g><text font-size="12.60" x="649.0" y="581.6"><tspan x="649.024" y="581.58"><a target='_blank' style='fill: #777;' href='http://ourworldindata.org'>OurWorldInData.org</a> • <a style="fill: #777;" href="http://creativecommons.org/licenses/by-sa/4.0/deed.en_US" target="_blank">CC BY-SA</a></tspan></text></g></g></svg>