<svg xmlns="http://www.w3.org/2000/svg" version="1.1" style="font-family: 'Helvetica Neue', Helvetica, Arial, sans-serif; font-size: 18px; background-color: white; text-rendering: optimizeLegibility; -webkit-font-smoothing: antialiased;" width="850" height="600"><g class="ChartTab"><g class="HeaderView"><g opacity="0.8" transform="translate(770, 15) scale(0.31)"><a xmlns:xlink="http://www.w3.org/1999/xlink" xlink:href="https://ourworldindata.org" target="_blank"><g><rect x="0" y="0" fill="#1B2543" width="211.2" height="130.1"/><rect x="0" y="112.2" fill="#E63912" width="211.2" height="17.9"/><g><rect x="1.2" y="12.3" fill="none" width="210.2" height="99.2"/><path fill="#FFFFFF" d="M37.8,32.2c0,12.7-7.7,19.4-17.1,19.4c-9.7,0-16.6-7.5-16.6-18.7c0-11.7,7.3-19.3,17.1-19.3 C31.3,13.7,37.8,21.3,37.8,32.2z M9.2,32.8c0,7.9,4.3,14.9,11.8,14.9c7.5,0,11.8-6.9,11.8-15.3c0-7.3-3.8-14.9-11.8-14.9 C13.1,17.5,9.2,24.8,9.2,32.8z"/><path fill="#FFFFFF" d="M62.7,43.8c0,2.7,0.1,5.1,0.2,7.2h-4.3l-0.3-4.3h-0.1c-1.3,2.1-4,4.9-8.8,4.9c-4.2,0-9.1-2.3-9.1-11.6 V24.6h4.8v14.6c0,5,1.5,8.4,5.9,8.4c3.2,0,5.5-2.2,6.3-4.4c0.3-0.7,0.4-1.6,0.4-2.5V24.6h4.8V43.8z"/><path fill="#FFFFFF" d="M67.3,32.8c0-3.1-0.1-5.8-0.2-8.2h4.2l0.2,5.2h0.2c1.2-3.5,4.1-5.8,7.3-5.8c0.5,0,0.9,0.1,1.4,0.2v4.5 c-0.5-0.1-1-0.2-1.6-0.2c-3.4,0-5.8,2.6-6.5,6.2c-0.1,0.7-0.2,1.4-0.2,2.2V51h-4.8V32.8z"/><path fill="#FFFFFF" d="M95.4,51l-9.4-36.8h5l4.4,18.6c1.1,4.6,2.1,9.2,2.7,12.7h0.1c0.6-3.7,1.8-8,3-12.8l4.9-18.5h5l4.5,18.7 c1,4.4,2,8.7,2.6,12.6h0.1c0.8-4,1.8-8.1,3-12.7l4.9-18.5h4.9L120.6,51h-5L111,31.9c-1.1-4.7-1.9-8.3-2.4-12h-0.1 c-0.7,3.7-1.5,7.3-2.8,12L100.4,51H95.4z"/><path fill="#FFFFFF" d="M154.9,37.6c0,9.8-6.8,14-13.2,14c-7.2,0-12.7-5.2-12.7-13.6c0-8.8,5.8-14,13.1-14 C149.8,24,154.9,29.5,154.9,37.6z M133.9,37.9c0,5.8,3.3,10.1,8,10.1c4.6,0,8-4.3,8-10.3c0-4.5-2.2-10.1-7.9-10.1 C136.3,27.6,133.9,32.8,133.9,37.9z"/><path fill="#FFFFFF" d="M158.2,32.8c0-3.1-0.1-5.8-0.2-8.2h4.2l0.2,5.2h0.2c1.2-3.5,4.1-5.8,7.3-5.8c0.5,0,0.9,0.1,1.4,0.2v4.5 c-0.5-0.1-1-0.2-1.6-0.2c-3.4,0-5.8,2.6-6.5,6.2c-0.1,0.7-0.2,1.4-0.2,2.2V51h-4.8V32.8z"/><path fill="#FFFFFF" d="M173.5,12.3h4.8V51h-4.8V12.3z"/><path fill="#FFFFFF" d="M206.5,12.3v31.9c0,2.3,0.1,5,0.2,6.8h-4.3l-0.2-4.6H202c-1.5,2.9-4.7,5.2-9,5.2 c-6.4,0-11.3-5.4-11.3-13.4c-0.1-8.8,5.4-14.2,11.9-14.2c4,0,6.8,1.9,8,4h0.1V12.3H206.5z M201.7,35.4c0-0.6-0.1-1.4-0.2-2 c-0.7-3.1-3.3-5.6-6.9-5.6c-5,0-7.9,4.4-7.9,10.2c0,5.3,2.6,9.8,7.8,9.8c3.2,0,6.2-2.1,7.1-5.7c0.2-0.7,0.2-1.3,0.2-2.1V35.4z"/><path fill="#FFFFFF" d="M42.8,64c0.1,1.6-1.1,2.9-3.1,2.9c-1.7,0-2.9-1.3-2.9-2.9c0-1.7,1.3-3,3-3C41.7,61,42.8,62.3,42.8,64z M37.4,97.8V71.4h4.8v26.4H37.4z"/><path fill="#FFFFFF" d="M47.5,78.6c0-2.7-0.1-5-0.2-7.1h4.3l0.3,4.4h0.1c1.3-2.5,4.4-5,8.8-5c3.7,0,9.4,2.2,9.4,11.2v15.8h-4.8 V82.6c0-4.3-1.6-7.8-6.1-7.8c-3.2,0-5.6,2.2-6.5,4.9c-0.2,0.6-0.3,1.4-0.3,2.2v15.9h-4.8V78.6z"/><path fill="#FFFFFF" d="M84,61.6c2.9-0.4,6.3-0.8,10.1-0.8c6.8,0,11.7,1.6,14.9,4.6c3.3,3,5.2,7.3,5.2,13.2c0,6-1.9,10.9-5.3,14.3 c-3.4,3.4-9.1,5.3-16.3,5.3c-3.4,0-6.2-0.2-8.6-0.4V61.6z M88.8,94.1c1.2,0.2,3,0.3,4.8,0.3c10.2,0,15.7-5.7,15.7-15.6 c0.1-8.7-4.9-14.2-14.9-14.2c-2.5,0-4.3,0.2-5.6,0.5V94.1z"/><path fill="#FFFFFF" d="M132.1,97.8l-0.4-3.3h-0.2c-1.5,2.1-4.3,3.9-8.1,3.9c-5.4,0-8.1-3.8-8.1-7.6c0-6.4,5.7-9.9,15.9-9.8v-0.5 c0-2.2-0.6-6.1-6-6.1c-2.5,0-5,0.8-6.9,2l-1.1-3.2c2.2-1.4,5.4-2.3,8.7-2.3c8.1,0,10.1,5.5,10.1,10.8v9.9c0,2.3,0.1,4.5,0.4,6.3 H132.1z M131.4,84.4c-5.3-0.1-11.2,0.8-11.2,5.9c0,3.1,2.1,4.6,4.5,4.6c3.4,0,5.6-2.2,6.4-4.4c0.2-0.5,0.3-1,0.3-1.5V84.4z"/><path fill="#FFFFFF" d="M146.6,63.9v7.6h6.9v3.7h-6.9v14.2c0,3.3,0.9,5.1,3.6,5.1c1.3,0,2.2-0.2,2.8-0.3l0.2,3.6 c-0.9,0.4-2.4,0.7-4.3,0.7c-2.2,0-4-0.7-5.2-2c-1.4-1.4-1.9-3.8-1.9-6.9V75.1h-4.1v-3.7h4.1v-6.3L146.6,63.9z"/><path fill="#FFFFFF" d="M171.4,97.8l-0.4-3.3h-0.2c-1.5,2.1-4.3,3.9-8.1,3.9c-5.4,0-8.1-3.8-8.1-7.6c0-6.4,5.7-9.9,15.9-9.8v-0.5 c0-2.2-0.6-6.1-6-6.1c-2.5,0-5,0.8-6.9,2l-1.1-3.2c2.2-1.4,5.4-2.3,8.7-2.3c8.1,0,10.1,5.5,10.1,10.8v9.9c0,2.3,0.1,4.5,0.4,6.3 H171.4z M170.7,84.4c-5.3-0.1-11.2,0.8-11.2,5.9c0,3.1,2.1,4.6,4.5,4.6c3.4,0,5.6-2.2,6.4-4.4c0.2-0.5,0.3-1,0.3-1.5V84.4z"/></g></g></a></g><a href="https://ourworldindata.org/grapher/global-case-numbers-of-infectious-diseases" target="_blank"><text font-size="27.00" x="15.0" y="36.6" fill="#555"><tspan x="15" y="36.6">Global case numbers of infectious diseases</tspan></text></a></g><g class="LineChart"><defs><clipPath id="boundsClip-1"><rect x="68.968" y="0" width="830" height="933.8"></rect></clipPath></defs><g class="AxisBoxView"><g class="HorizontalAxis"><text x="79" y="541.9" fill="#666" text-anchor="middle" font-size="16.2">1920</text><text x="188.8" y="541.9" fill="#666" text-anchor="middle" font-size="16.2">1940</text><text x="298.7" y="541.9" fill="#666" text-anchor="middle" font-size="16.2">1960</text><text x="408.5" y="541.9" fill="#666" text-anchor="middle" font-size="16.2">1980</text><text x="518.3" y="541.9" fill="#666" text-anchor="middle" font-size="16.2">2000</text><text x="611.7" y="541.9" fill="#666" text-anchor="middle" font-size="16.2">2017</text></g><g class="VerticalAxis"><text x="73.97" y="520.7" fill="#666" dominant-baseline="middle" text-anchor="end" font-size="16.2">0</text><text x="73.97" y="420.8" fill="#666" dominant-baseline="middle" text-anchor="end" font-size="16.2">200,000</text><text x="73.97" y="320.8" fill="#666" dominant-baseline="middle" text-anchor="end" font-size="16.2">400,000</text><text x="73.97" y="220.9" fill="#666" dominant-baseline="middle" text-anchor="end" font-size="16.2">600,000</text><text x="73.97" y="121" fill="#666" dominant-baseline="middle" text-anchor="end" font-size="16.2">800,000</text></g><g class="AxisGridLines"><line x1="78.97" y1="520.7" x2="611.71" y2="520.7" stroke="#ccc"></line><line x1="78.97" y1="420.8" x2="611.71" y2="420.8" stroke="#ddd" stroke-dasharray="3,2"></line><line x1="78.97" y1="320.8" x2="611.71" y2="320.8" stroke="#ddd" stroke-dasharray="3,2"></line><line x1="78.97" y1="220.9" x2="611.71" y2="220.9" stroke="#ddd" stroke-dasharray="3,2"></line><line x1="78.97" y1="121" x2="611.71" y2="121" stroke="#ddd" stroke-dasharray="3,2"></line></g><g class="AxisGridLines"><line x1="79" y1="520.70" x2="79" y2="75.00" stroke="#ddd" stroke-dasharray="3,2"></line><line x1="188.8" y1="520.70" x2="188.8" y2="75.00" stroke="#ddd" stroke-dasharray="3,2"></line><line x1="298.7" y1="520.70" x2="298.7" y2="75.00" stroke="#ddd" stroke-dasharray="3,2"></line><line x1="408.5" y1="520.70" x2="408.5" y2="75.00" stroke="#ddd" stroke-dasharray="3,2"></line><line x1="518.3" y1="520.70" x2="518.3" y2="75.00" stroke="#ddd" stroke-dasharray="3,2"></line></g></g><g clip-path="url(#boundsClip-1)"><g class="HeightedLegend clickable"><g class="legendMark"><rect x="621.712" y="506.30000000000007" width="116.08800000000001" height="14.4" fill="#fff" opacity="0"></rect><rect x="621.712" y="512.2500000000001" width="10" height="2.5" fill="#3360a9"></rect><text font-size="14.40" x="636.7" y="517.8" fill="#333"><tspan x="636.712" y="517.82">Smallpox cases</tspan></text></g><g class="legendMark"><rect x="621.712" y="491.9000000000001" width="213.288" height="14.4" fill="#fff" opacity="0"></rect><rect x="621.712" y="497.8500000000001" width="10" height="2.5" fill="#34983f"></rect><text font-size="14.40" x="636.7" y="503.4" fill="#333"><tspan x="636.712" y="503.4200000000001">Estimated paralytic polio cases</tspan></text></g><g class="legendMark"><rect x="621.712" y="477.5000000000001" width="142.584" height="14.4" fill="#fff" opacity="0"></rect><rect x="621.712" y="483.4500000000001" width="10" height="2.5" fill="#ca2628"></rect><text font-size="14.40" x="636.7" y="489.0" fill="#333"><tspan x="636.712" y="489.0200000000001">Guinea worm cases</tspan></text></g></g><g class="Lines"><rect x="79" y="75" width="533" height="446" fill="rgba(255,255,255,0)" opacity="0"></rect><g class="key-World_0"><path stroke="#ca2628" stroke-linecap="round" d="M442 503L447 402L452 179L458 75L463 209L469 249L474 333L480 404L485 412L491 424L496 385L502 460L507 458L513 440L518 456L524 464L529 473L535 495L540 509L546 513L551 508L557 516L562 518L568 519L573 520L579 520L584 520L590 521L595 521L601 521L606 521L612 521" fill="none" stroke-width="1.5"></path><g fill="#ca2628"><circle cx="442" cy="503" r="2"></circle><circle cx="447" cy="402" r="2"></circle><circle cx="452" cy="179" r="2"></circle><circle cx="458" cy="75" r="2"></circle><circle cx="463" cy="209" r="2"></circle><circle cx="469" cy="249" r="2"></circle><circle cx="474" cy="333" r="2"></circle><circle cx="480" cy="404" r="2"></circle><circle cx="485" cy="412" r="2"></circle><circle cx="491" cy="424" r="2"></circle><circle cx="496" cy="385" r="2"></circle><circle cx="502" cy="460" r="2"></circle><circle cx="507" cy="458" r="2"></circle><circle cx="513" cy="440" r="2"></circle><circle cx="518" cy="456" r="2"></circle><circle cx="524" cy="464" r="2"></circle><circle cx="529" cy="473" r="2"></circle><circle cx="535" cy="495" r="2"></circle><circle cx="540" cy="509" r="2"></circle><circle cx="546" cy="513" r="2"></circle><circle cx="551" cy="508" r="2"></circle><circle cx="557" cy="516" r="2"></circle><circle cx="562" cy="518" r="2"></circle><circle cx="568" cy="519" r="2"></circle><circle cx="573" cy="520" r="2"></circle><circle cx="579" cy="520" r="2"></circle><circle cx="584" cy="520" r="2"></circle><circle cx="590" cy="521" r="2"></circle><circle cx="595" cy="521" r="2"></circle><circle cx="601" cy="521" r="2"></circle><circle cx="606" cy="521" r="2"></circle><circle cx="612" cy="521" r="2"></circle></g></g><g class="key-World_1"><path stroke="#34983f" stroke-linecap="round" d="M409 349L414 295L420 346L425 386L431 403L436 395L442 411L447 391L452 404L458 445L463 458L469 483L474 473L480 486L485 491L491 498L496 507L502 503L507 499L513 496L518 516L524 520L529 519L535 520L540 520L546 520L551 520L557 520L562 520L568 520L573 520L579 520L584 521L590 521L595 521L601 521L606 521" fill="none" stroke-width="1.5"></path><g fill="#34983f"><circle cx="409" cy="349" r="2"></circle><circle cx="414" cy="295" r="2"></circle><circle cx="420" cy="346" r="2"></circle><circle cx="425" cy="386" r="2"></circle><circle cx="431" cy="403" r="2"></circle><circle cx="436" cy="395" r="2"></circle><circle cx="442" cy="411" r="2"></circle><circle cx="447" cy="391" r="2"></circle><circle cx="452" cy="404" r="2"></circle><circle cx="458" cy="445" r="2"></circle><circle cx="463" cy="458" r="2"></circle><circle cx="469" cy="483" r="2"></circle><circle cx="474" cy="473" r="2"></circle><circle cx="480" cy="486" r="2"></circle><circle cx="485" cy="491" r="2"></circle><circle cx="491" cy="498" r="2"></circle><circle cx="496" cy="507" r="2"></circle><circle cx="502" cy="503" r="2"></circle><circle cx="507" cy="499" r="2"></circle><circle cx="513" cy="496" r="2"></circle><circle cx="518" cy="516" r="2"></circle><circle cx="524" cy="520" r="2"></circle><circle cx="529" cy="519" r="2"></circle><circle cx="535" cy="520" r="2"></circle><circle cx="540" cy="520" r="2"></circle><circle cx="546" cy="520" r="2"></circle><circle cx="551" cy="520" r="2"></circle><circle cx="557" cy="520" r="2"></circle><circle cx="562" cy="520" r="2"></circle><circle cx="568" cy="520" r="2"></circle><circle cx="573" cy="520" r="2"></circle><circle cx="579" cy="520" r="2"></circle><circle cx="584" cy="521" r="2"></circle><circle cx="590" cy="521" r="2"></circle><circle cx="595" cy="521" r="2"></circle><circle cx="601" cy="521" r="2"></circle><circle cx="606" cy="521" r="2"></circle></g></g><g class="key-World_2"><path stroke="#3360a9" stroke-linecap="round" d="M79 320L85 369L90 426L95 433L101 428L106 378L112 359L117 357L123 385L128 387L134 341L139 429L145 415L150 357L156 357L161 355L167 389L172 446L178 449L183 428L189 403L194 423L200 459L205 416L211 317L216 318L222 370L227 439L233 440L238 205L244 308L249 244L255 437L260 474L266 471L271 475L277 473L282 442L288 381L293 473L299 487L304 476L310 471L315 454L321 483L326 465L332 474L337 455L343 481L348 494L354 504L359 494L365 488L370 453L376 412L381 511L387 520L392 519L398 521L403 521L409 521L414 521L420 521L425 521L431 521L436 521L442 521L447 521L452 521L458 521L463 521L469 521L474 521L480 521L485 521L491 521L496 521L502 521L507 521L513 521L518 521L524 521L529 521L535 521L540 521L546 521L551 521L557 521L562 521L568 521L573 521L579 521L584 521L590 521L595 521L601 521L606 521" fill="none" stroke-width="1.5"></path><g fill="#3360a9"><circle cx="79" cy="320" r="2"></circle><circle cx="85" cy="369" r="2"></circle><circle cx="90" cy="426" r="2"></circle><circle cx="95" cy="433" r="2"></circle><circle cx="101" cy="428" r="2"></circle><circle cx="106" cy="378" r="2"></circle><circle cx="112" cy="359" r="2"></circle><circle cx="117" cy="357" r="2"></circle><circle cx="123" cy="385" r="2"></circle><circle cx="128" cy="387" r="2"></circle><circle cx="134" cy="341" r="2"></circle><circle cx="139" cy="429" r="2"></circle><circle cx="145" cy="415" r="2"></circle><circle cx="150" cy="357" r="2"></circle><circle cx="156" cy="357" r="2"></circle><circle cx="161" cy="355" r="2"></circle><circle cx="167" cy="389" r="2"></circle><circle cx="172" cy="446" r="2"></circle><circle cx="178" cy="449" r="2"></circle><circle cx="183" cy="428" r="2"></circle><circle cx="189" cy="403" r="2"></circle><circle cx="194" cy="423" r="2"></circle><circle cx="200" cy="459" r="2"></circle><circle cx="205" cy="416" r="2"></circle><circle cx="211" cy="317" r="2"></circle><circle cx="216" cy="318" r="2"></circle><circle cx="222" cy="370" r="2"></circle><circle cx="227" cy="439" r="2"></circle><circle cx="233" cy="440" r="2"></circle><circle cx="238" cy="205" r="2"></circle><circle cx="244" cy="308" r="2"></circle><circle cx="249" cy="244" r="2"></circle><circle cx="255" cy="437" r="2"></circle><circle cx="260" cy="474" r="2"></circle><circle cx="266" cy="471" r="2"></circle><circle cx="271" cy="475" r="2"></circle><circle cx="277" cy="473" r="2"></circle><circle cx="282" cy="442" r="2"></circle><circle cx="288" cy="381" r="2"></circle><circle cx="293" cy="473" r="2"></circle><circle cx="299" cy="487" r="2"></circle><circle cx="304" cy="476" r="2"></circle><circle cx="310" cy="471" r="2"></circle><circle cx="315" cy="454" r="2"></circle><circle cx="321" cy="483" r="2"></circle><circle cx="326" cy="465" r="2"></circle><circle cx="332" cy="474" r="2"></circle><circle cx="337" cy="455" r="2"></circle><circle cx="343" cy="481" r="2"></circle><circle cx="348" cy="494" r="2"></circle><circle cx="354" cy="504" r="2"></circle><circle cx="359" cy="494" r="2"></circle><circle cx="365" cy="488" r="2"></circle><circle cx="370" cy="453" r="2"></circle><circle cx="376" cy="412" r="2"></circle><circle cx="381" cy="511" r="2"></circle><circle cx="387" cy="520" r="2"></circle><circle cx="392" cy="519" r="2"></circle><circle cx="398" cy="521" r="2"></circle><circle cx="403" cy="521" r="2"></circle><circle cx="409" cy="521" r="2"></circle><circle cx="414" cy="521" r="2"></circle><circle cx="420" cy="521" r="2"></circle><circle cx="425" cy="521" r="2"></circle><circle cx="431" cy="521" r="2"></circle><circle cx="436" cy="521" r="2"></circle><circle cx="442" cy="521" r="2"></circle><circle cx="447" cy="521" r="2"></circle><circle cx="452" cy="521" r="2"></circle><circle cx="458" cy="521" r="2"></circle><circle cx="463" cy="521" r="2"></circle><circle cx="469" cy="521" r="2"></circle><circle cx="474" cy="521" r="2"></circle><circle cx="480" cy="521" r="2"></circle><circle cx="485" cy="521" r="2"></circle><circle cx="491" cy="521" r="2"></circle><circle cx="496" cy="521" r="2"></circle><circle cx="502" cy="521" r="2"></circle><circle cx="507" cy="521" r="2"></circle><circle cx="513" cy="521" r="2"></circle><circle cx="518" cy="521" r="2"></circle><circle cx="524" cy="521" r="2"></circle><circle cx="529" cy="521" r="2"></circle><circle cx="535" cy="521" r="2"></circle><circle cx="540" cy="521" r="2"></circle><circle cx="546" cy="521" r="2"></circle><circle cx="551" cy="521" r="2"></circle><circle cx="557" cy="521" r="2"></circle><circle cx="562" cy="521" r="2"></circle><circle cx="568" cy="521" r="2"></circle><circle cx="573" cy="521" r="2"></circle><circle cx="579" cy="521" r="2"></circle><circle cx="584" cy="521" r="2"></circle><circle cx="590" cy="521" r="2"></circle><circle cx="595" cy="521" r="2"></circle><circle cx="601" cy="521" r="2"></circle><circle cx="606" cy="521" r="2"></circle></g></g></g></g></g><g style="fill: #777;" class="SourcesFooter"><g style="fill: #777;" class="clickable"><text font-size="12.60" x="15.0" y="567.0"><tspan x="15" y="566.98">Source: World Health Organisation (2018), WHO (2018) and Tebbens et al. (2010), World Health Organization (2011)</tspan></text></g><text font-size="12.60" x="15.0" y="582.5"><tspan x="15" y="582.48"><a target='_blank' style='fill: #777;' href='https://ourworldindata.org'>OurWorldInData.org</a> • <a style="fill: #777;" href="http://creativecommons.org/licenses/by-sa/4.0/deed.en_US" target="_blank">CC BY-SA</a></tspan></text></g></g></svg>