<svg xmlns="http://www.w3.org/2000/svg" version="1.1" style="font-family: 'Helvetica Neue', Helvetica, Arial, sans-serif; font-size: 18px; background-color: white; text-rendering: optimizeLegibility; -webkit-font-smoothing: antialiased;" width="850" height="600"><g class="ChartTab"><g class="HeaderView"><g opacity="0.8" transform="translate(770, 15) scale(0.31)"><a xmlns:xlink="http://www.w3.org/1999/xlink" xlink:href="https://ourworldindata.org" target="_blank"><g><rect x="0" y="0" fill="#1B2543" width="211.2" height="130.1"/><rect x="0" y="112.2" fill="#E63912" width="211.2" height="17.9"/><g><rect x="1.2" y="12.3" fill="none" width="210.2" height="99.2"/><path fill="#FFFFFF" d="M37.8,32.2c0,12.7-7.7,19.4-17.1,19.4c-9.7,0-16.6-7.5-16.6-18.7c0-11.7,7.3-19.3,17.1-19.3 C31.3,13.7,37.8,21.3,37.8,32.2z M9.2,32.8c0,7.9,4.3,14.9,11.8,14.9c7.5,0,11.8-6.9,11.8-15.3c0-7.3-3.8-14.9-11.8-14.9 C13.1,17.5,9.2,24.8,9.2,32.8z"/><path fill="#FFFFFF" d="M62.7,43.8c0,2.7,0.1,5.1,0.2,7.2h-4.3l-0.3-4.3h-0.1c-1.3,2.1-4,4.9-8.8,4.9c-4.2,0-9.1-2.3-9.1-11.6 V24.6h4.8v14.6c0,5,1.5,8.4,5.9,8.4c3.2,0,5.5-2.2,6.3-4.4c0.3-0.7,0.4-1.6,0.4-2.5V24.6h4.8V43.8z"/><path fill="#FFFFFF" d="M67.3,32.8c0-3.1-0.1-5.8-0.2-8.2h4.2l0.2,5.2h0.2c1.2-3.5,4.1-5.8,7.3-5.8c0.5,0,0.9,0.1,1.4,0.2v4.5 c-0.5-0.1-1-0.2-1.6-0.2c-3.4,0-5.8,2.6-6.5,6.2c-0.1,0.7-0.2,1.4-0.2,2.2V51h-4.8V32.8z"/><path fill="#FFFFFF" d="M95.4,51l-9.4-36.8h5l4.4,18.6c1.1,4.6,2.1,9.2,2.7,12.7h0.1c0.6-3.7,1.8-8,3-12.8l4.9-18.5h5l4.5,18.7 c1,4.4,2,8.7,2.6,12.6h0.1c0.8-4,1.8-8.1,3-12.7l4.9-18.5h4.9L120.6,51h-5L111,31.9c-1.1-4.7-1.9-8.3-2.4-12h-0.1 c-0.7,3.7-1.5,7.3-2.8,12L100.4,51H95.4z"/><path fill="#FFFFFF" d="M154.9,37.6c0,9.8-6.8,14-13.2,14c-7.2,0-12.7-5.2-12.7-13.6c0-8.8,5.8-14,13.1-14 C149.8,24,154.9,29.5,154.9,37.6z M133.9,37.9c0,5.8,3.3,10.1,8,10.1c4.6,0,8-4.3,8-10.3c0-4.5-2.2-10.1-7.9-10.1 C136.3,27.6,133.9,32.8,133.9,37.9z"/><path fill="#FFFFFF" d="M158.2,32.8c0-3.1-0.1-5.8-0.2-8.2h4.2l0.2,5.2h0.2c1.2-3.5,4.1-5.8,7.3-5.8c0.5,0,0.9,0.1,1.4,0.2v4.5 c-0.5-0.1-1-0.2-1.6-0.2c-3.4,0-5.8,2.6-6.5,6.2c-0.1,0.7-0.2,1.4-0.2,2.2V51h-4.8V32.8z"/><path fill="#FFFFFF" d="M173.5,12.3h4.8V51h-4.8V12.3z"/><path fill="#FFFFFF" d="M206.5,12.3v31.9c0,2.3,0.1,5,0.2,6.8h-4.3l-0.2-4.6H202c-1.5,2.9-4.7,5.2-9,5.2 c-6.4,0-11.3-5.4-11.3-13.4c-0.1-8.8,5.4-14.2,11.9-14.2c4,0,6.8,1.9,8,4h0.1V12.3H206.5z M201.7,35.4c0-0.6-0.1-1.4-0.2-2 c-0.7-3.1-3.3-5.6-6.9-5.6c-5,0-7.9,4.4-7.9,10.2c0,5.3,2.6,9.8,7.8,9.8c3.2,0,6.2-2.1,7.1-5.7c0.2-0.7,0.2-1.3,0.2-2.1V35.4z"/><path fill="#FFFFFF" d="M42.8,64c0.1,1.6-1.1,2.9-3.1,2.9c-1.7,0-2.9-1.3-2.9-2.9c0-1.7,1.3-3,3-3C41.7,61,42.8,62.3,42.8,64z M37.4,97.8V71.4h4.8v26.4H37.4z"/><path fill="#FFFFFF" d="M47.5,78.6c0-2.7-0.1-5-0.2-7.1h4.3l0.3,4.4h0.1c1.3-2.5,4.4-5,8.8-5c3.7,0,9.4,2.2,9.4,11.2v15.8h-4.8 V82.6c0-4.3-1.6-7.8-6.1-7.8c-3.2,0-5.6,2.2-6.5,4.9c-0.2,0.6-0.3,1.4-0.3,2.2v15.9h-4.8V78.6z"/><path fill="#FFFFFF" d="M84,61.6c2.9-0.4,6.3-0.8,10.1-0.8c6.8,0,11.7,1.6,14.9,4.6c3.3,3,5.2,7.3,5.2,13.2c0,6-1.9,10.9-5.3,14.3 c-3.4,3.4-9.1,5.3-16.3,5.3c-3.4,0-6.2-0.2-8.6-0.4V61.6z M88.8,94.1c1.2,0.2,3,0.3,4.8,0.3c10.2,0,15.7-5.7,15.7-15.6 c0.1-8.7-4.9-14.2-14.9-14.2c-2.5,0-4.3,0.2-5.6,0.5V94.1z"/><path fill="#FFFFFF" d="M132.1,97.8l-0.4-3.3h-0.2c-1.5,2.1-4.3,3.9-8.1,3.9c-5.4,0-8.1-3.8-8.1-7.6c0-6.4,5.7-9.9,15.9-9.8v-0.5 c0-2.2-0.6-6.1-6-6.1c-2.5,0-5,0.8-6.9,2l-1.1-3.2c2.2-1.4,5.4-2.3,8.7-2.3c8.1,0,10.1,5.5,10.1,10.8v9.9c0,2.3,0.1,4.5,0.4,6.3 H132.1z M131.4,84.4c-5.3-0.1-11.2,0.8-11.2,5.9c0,3.1,2.1,4.6,4.5,4.6c3.4,0,5.6-2.2,6.4-4.4c0.2-0.5,0.3-1,0.3-1.5V84.4z"/><path fill="#FFFFFF" d="M146.6,63.9v7.6h6.9v3.7h-6.9v14.2c0,3.3,0.9,5.1,3.6,5.1c1.3,0,2.2-0.2,2.8-0.3l0.2,3.6 c-0.9,0.4-2.4,0.7-4.3,0.7c-2.2,0-4-0.7-5.2-2c-1.4-1.4-1.9-3.8-1.9-6.9V75.1h-4.1v-3.7h4.1v-6.3L146.6,63.9z"/><path fill="#FFFFFF" d="M171.4,97.8l-0.4-3.3h-0.2c-1.5,2.1-4.3,3.9-8.1,3.9c-5.4,0-8.1-3.8-8.1-7.6c0-6.4,5.7-9.9,15.9-9.8v-0.5 c0-2.2-0.6-6.1-6-6.1c-2.5,0-5,0.8-6.9,2l-1.1-3.2c2.2-1.4,5.4-2.3,8.7-2.3c8.1,0,10.1,5.5,10.1,10.8v9.9c0,2.3,0.1,4.5,0.4,6.3 H171.4z M170.7,84.4c-5.3-0.1-11.2,0.8-11.2,5.9c0,3.1,2.1,4.6,4.5,4.6c3.4,0,5.6-2.2,6.4-4.4c0.2-0.5,0.3-1,0.3-1.5V84.4z"/></g></g></a></g><a href="https://ourworldindata.org/grapher/government-expenditure-per-student-tertiary-of-gdp-per-capita" target="_blank"><text font-size="24.30" x="15.0" y="34.4" fill="#555"><tspan x="15" y="34.44">Government expenditure per student, tertiary (% of GDP per capita)</tspan></text></a><text font-size="14.40" x="15.0" y="52.8" fill="#666"><tspan x="15" y="52.81999999999999">Government expenditure per student is the average general government expenditure (current, capital, and transfers)</tspan><tspan x="15" y="68.66">per student in the given level of education, expressed as a percentage of GDP per capita.</tspan></text></g><g class="LineChart"><defs><clipPath id="boundsClip-181"><rect x="42.562" y="0" width="830" height="930.5999999999999"></rect></clipPath></defs><g class="AxisBoxView"><g class="HorizontalAxis"><text x="52.6" y="556.5" fill="#666" text-anchor="middle" font-size="16.2">1997</text><text x="168.1" y="556.5" fill="#666" text-anchor="middle" font-size="16.2">2000</text><text x="245.1" y="556.5" fill="#666" text-anchor="middle" font-size="16.2">2002</text><text x="322.1" y="556.5" fill="#666" text-anchor="middle" font-size="16.2">2004</text><text x="399.1" y="556.5" fill="#666" text-anchor="middle" font-size="16.2">2006</text><text x="476.1" y="556.5" fill="#666" text-anchor="middle" font-size="16.2">2008</text><text x="553.2" y="556.5" fill="#666" text-anchor="middle" font-size="16.2">2010</text><text x="630.2" y="556.5" fill="#666" text-anchor="middle" font-size="16.2">2012</text><text x="707.2" y="556.5" fill="#666" text-anchor="middle" font-size="16.2">2014</text></g><g class="VerticalAxis"><text x="47.56" y="535.3" fill="#666" dominant-baseline="middle" text-anchor="end" font-size="16.2">0%</text><text x="47.56" y="450.8" fill="#666" dominant-baseline="middle" text-anchor="end" font-size="16.2">10%</text><text x="47.56" y="366.2" fill="#666" dominant-baseline="middle" text-anchor="end" font-size="16.2">20%</text><text x="47.56" y="281.7" fill="#666" dominant-baseline="middle" text-anchor="end" font-size="16.2">30%</text><text x="47.56" y="197.1" fill="#666" dominant-baseline="middle" text-anchor="end" font-size="16.2">40%</text><text x="47.56" y="112.6" fill="#666" dominant-baseline="middle" text-anchor="end" font-size="16.2">50%</text></g><g class="AxisGridLines"><line x1="52.56" y1="535.3" x2="707.18" y2="535.3" stroke="#ccc"></line><line x1="52.56" y1="450.8" x2="707.18" y2="450.8" stroke="#ddd" stroke-dasharray="3,2"></line><line x1="52.56" y1="366.2" x2="707.18" y2="366.2" stroke="#ddd" stroke-dasharray="3,2"></line><line x1="52.56" y1="281.7" x2="707.18" y2="281.7" stroke="#ddd" stroke-dasharray="3,2"></line><line x1="52.56" y1="197.1" x2="707.18" y2="197.1" stroke="#ddd" stroke-dasharray="3,2"></line><line x1="52.56" y1="112.6" x2="707.18" y2="112.6" stroke="#ddd" stroke-dasharray="3,2"></line></g><g class="AxisGridLines"><line x1="91.1" y1="535.30" x2="91.1" y2="91.20" stroke="#ddd" stroke-dasharray="3,2"></line><line x1="168.1" y1="535.30" x2="168.1" y2="91.20" stroke="#ddd" stroke-dasharray="3,2"></line><line x1="245.1" y1="535.30" x2="245.1" y2="91.20" stroke="#ddd" stroke-dasharray="3,2"></line><line x1="322.1" y1="535.30" x2="322.1" y2="91.20" stroke="#ddd" stroke-dasharray="3,2"></line><line x1="399.1" y1="535.30" x2="399.1" y2="91.20" stroke="#ddd" stroke-dasharray="3,2"></line><line x1="476.1" y1="535.30" x2="476.1" y2="91.20" stroke="#ddd" stroke-dasharray="3,2"></line><line x1="553.2" y1="535.30" x2="553.2" y2="91.20" stroke="#ddd" stroke-dasharray="3,2"></line><line x1="630.2" y1="535.30" x2="630.2" y2="91.20" stroke="#ddd" stroke-dasharray="3,2"></line><line x1="707.2" y1="535.30" x2="707.2" y2="91.20" stroke="#ddd" stroke-dasharray="3,2"></line></g></g><g clip-path="url(#boundsClip-181)"><g class="HeightedLegend clickable"><g class="legendMark"><rect x="717.184" y="206.60000000000002" width="117.81600000000002" height="14.4" fill="#fff" opacity="0"></rect><rect x="717.184" y="212.55" width="10" height="2.5" fill="#2a939b"></rect><text font-size="14.40" x="732.2" y="218.1" fill="#333"><tspan x="732.184" y="218.12000000000003">United Kingdom</tspan></text></g><g class="legendMark"><rect x="717.184" y="224.20000000000002" width="57.480000000000004" height="14.4" fill="#fff" opacity="0"></rect><rect x="717.184" y="230.15" width="10" height="2.5" fill="#a652ba"></rect><text font-size="14.40" x="732.2" y="235.7" fill="#333"><tspan x="732.184" y="235.72000000000003">Bolivia</tspan></text></g><g class="legendMark"><rect x="717.184" y="290.2" width="101.83200000000001" height="14.4" fill="#fff" opacity="0"></rect><rect x="717.184" y="296.15" width="10" height="2.5" fill="#f6a324"></rect><text font-size="14.40" x="732.2" y="301.7" fill="#333"><tspan x="732.184" y="301.71999999999997">United States</tspan></text></g><g class="legendMark"><rect x="717.184" y="306.5" width="52.584" height="14.4" fill="#fff" opacity="0"></rect><rect x="717.184" y="312.45" width="10" height="2.5" fill="#34983f"></rect><text font-size="14.40" x="732.2" y="318.0" fill="#333"><tspan x="732.184" y="318.02">World</tspan></text></g><g class="legendMark"><rect x="717.184" y="375.90000000000003" width="70.44" height="14.4" fill="#fff" opacity="0"></rect><rect x="717.184" y="381.85" width="10" height="2.5" fill="#ca2628"></rect><text font-size="14.40" x="732.2" y="387.4" fill="#333"><tspan x="732.184" y="387.42">Thailand</tspan></text></g><g class="legendMark"><rect x="717.184" y="483.5" width="80.808" height="14.4" fill="#fff" opacity="0"></rect><rect x="717.184" y="489.45" width="10" height="2.5" fill="#3360a9"></rect><text font-size="14.40" x="732.2" y="495.0" fill="#333"><tspan x="732.184" y="495.02">Cambodia</tspan></text></g></g><g class="Lines"><rect x="53" y="91" width="655" height="444" fill="rgba(255,255,255,0)" opacity="0"></rect><g class="key-Cambodia_0"><path stroke="#3360a9" stroke-linecap="round" d="M515 461L553 480L592 491" fill="none" stroke-width="1.5"></path><g fill="#3360a9"><circle cx="515" cy="461" r="2"></circle><circle cx="553" cy="480" r="2"></circle><circle cx="592" cy="491" r="2"></circle></g></g><g class="key-Thailand_0"><path stroke="#ca2628" stroke-linecap="round" d="M53 161L91 156L168 238L207 271L322 331L361 334L399 305L476 364L515 362L553 401L592 373L630 382L669 383" fill="none" stroke-width="1.5"></path><g fill="#ca2628"><circle cx="53" cy="161" r="2"></circle><circle cx="91" cy="156" r="2"></circle><circle cx="168" cy="238" r="2"></circle><circle cx="207" cy="271" r="2"></circle><circle cx="322" cy="331" r="2"></circle><circle cx="361" cy="334" r="2"></circle><circle cx="399" cy="305" r="2"></circle><circle cx="476" cy="364" r="2"></circle><circle cx="515" cy="362" r="2"></circle><circle cx="553" cy="401" r="2"></circle><circle cx="592" cy="373" r="2"></circle><circle cx="630" cy="382" r="2"></circle><circle cx="669" cy="383" r="2"></circle></g></g><g class="key-World_0"><path stroke="#34983f" stroke-linecap="round" d="M515 273L553 285L592 283L669 314" fill="none" stroke-width="1.5"></path><g fill="#34983f"><circle cx="515" cy="273" r="2"></circle><circle cx="553" cy="285" r="2"></circle><circle cx="592" cy="283" r="2"></circle><circle cx="669" cy="314" r="2"></circle></g></g><g class="key-United-Kingdom_0"><path stroke="#2a939b" stroke-linecap="round" d="M91 297L130 341L168 359L207 362L245 318L284 324L322 328L361 288L399 314L438 347L476 362L515 375L553 333L592 267L669 230L707 214" fill="none" stroke-width="1.5"></path><g fill="#2a939b"><circle cx="91" cy="297" r="2"></circle><circle cx="130" cy="341" r="2"></circle><circle cx="168" cy="359" r="2"></circle><circle cx="207" cy="362" r="2"></circle><circle cx="245" cy="318" r="2"></circle><circle cx="284" cy="324" r="2"></circle><circle cx="322" cy="328" r="2"></circle><circle cx="361" cy="288" r="2"></circle><circle cx="399" cy="314" r="2"></circle><circle cx="438" cy="347" r="2"></circle><circle cx="476" cy="362" r="2"></circle><circle cx="515" cy="375" r="2"></circle><circle cx="553" cy="333" r="2"></circle><circle cx="592" cy="267" r="2"></circle><circle cx="669" cy="230" r="2"></circle><circle cx="707" cy="214" r="2"></circle></g></g><g class="key-United-States_0"><path stroke="#f6a324" stroke-linecap="round" d="M91 313L130 317L207 284L245 329L284 322L322 347L361 348L399 333L438 359L476 363L515 376L553 359L592 366L630 350L669 356L707 297" fill="none" stroke-width="1.5"></path><g fill="#f6a324"><circle cx="91" cy="313" r="2"></circle><circle cx="130" cy="317" r="2"></circle><circle cx="207" cy="284" r="2"></circle><circle cx="245" cy="329" r="2"></circle><circle cx="284" cy="322" r="2"></circle><circle cx="322" cy="347" r="2"></circle><circle cx="361" cy="348" r="2"></circle><circle cx="399" cy="333" r="2"></circle><circle cx="438" cy="359" r="2"></circle><circle cx="476" cy="363" r="2"></circle><circle cx="515" cy="376" r="2"></circle><circle cx="553" cy="359" r="2"></circle><circle cx="592" cy="366" r="2"></circle><circle cx="630" cy="350" r="2"></circle><circle cx="669" cy="356" r="2"></circle><circle cx="707" cy="297" r="2"></circle></g></g><g class="key-Bolivia_0"><path stroke="#a652ba" stroke-linecap="round" d="M91 91L130 161L168 136L245 168L284 231" fill="none" stroke-width="1.5"></path><g fill="#a652ba"><circle cx="91" cy="91" r="2"></circle><circle cx="130" cy="161" r="2"></circle><circle cx="168" cy="136" r="2"></circle><circle cx="245" cy="168" r="2"></circle><circle cx="284" cy="231" r="2"></circle></g></g></g></g></g><g style="fill: #777;" class="SourcesFooter"><g style="fill: #777;" class="clickable"><text font-size="12.60" x="15.0" y="581.6"><tspan x="15" y="581.58">Source: World Bank – WDI</tspan></text></g><text font-size="12.60" x="649.0" y="581.6"><tspan x="649.024" y="581.58"><a target='_blank' style='fill: #777;' href='https://ourworldindata.org'>OurWorldInData.org</a> • <a style="fill: #777;" href="http://creativecommons.org/licenses/by-sa/4.0/deed.en_US" target="_blank">CC BY-SA</a></tspan></text></g></g></svg>