<svg xmlns="http://www.w3.org/2000/svg" version="1.1" style="font-family: 'Helvetica Neue', Helvetica, Arial, sans-serif; font-size: 18px; background-color: white; text-rendering: optimizeLegibility; -webkit-font-smoothing: antialiased;" width="850" height="600"><g class="ChartTab"><g class="HeaderView"><g opacity="0.8" transform="translate(770, 15) scale(0.31)"><a xmlns:xlink="http://www.w3.org/1999/xlink" xlink:href="https://ourworldindata.org" target="_blank"><g><rect x="0" y="0" fill="#1B2543" width="211.2" height="130.1"/><rect x="0" y="112.2" fill="#E63912" width="211.2" height="17.9"/><g><rect x="1.2" y="12.3" fill="none" width="210.2" height="99.2"/><path fill="#FFFFFF" d="M37.8,32.2c0,12.7-7.7,19.4-17.1,19.4c-9.7,0-16.6-7.5-16.6-18.7c0-11.7,7.3-19.3,17.1-19.3 C31.3,13.7,37.8,21.3,37.8,32.2z M9.2,32.8c0,7.9,4.3,14.9,11.8,14.9c7.5,0,11.8-6.9,11.8-15.3c0-7.3-3.8-14.9-11.8-14.9 C13.1,17.5,9.2,24.8,9.2,32.8z"/><path fill="#FFFFFF" d="M62.7,43.8c0,2.7,0.1,5.1,0.2,7.2h-4.3l-0.3-4.3h-0.1c-1.3,2.1-4,4.9-8.8,4.9c-4.2,0-9.1-2.3-9.1-11.6 V24.6h4.8v14.6c0,5,1.5,8.4,5.9,8.4c3.2,0,5.5-2.2,6.3-4.4c0.3-0.7,0.4-1.6,0.4-2.5V24.6h4.8V43.8z"/><path fill="#FFFFFF" d="M67.3,32.8c0-3.1-0.1-5.8-0.2-8.2h4.2l0.2,5.2h0.2c1.2-3.5,4.1-5.8,7.3-5.8c0.5,0,0.9,0.1,1.4,0.2v4.5 c-0.5-0.1-1-0.2-1.6-0.2c-3.4,0-5.8,2.6-6.5,6.2c-0.1,0.7-0.2,1.4-0.2,2.2V51h-4.8V32.8z"/><path fill="#FFFFFF" d="M95.4,51l-9.4-36.8h5l4.4,18.6c1.1,4.6,2.1,9.2,2.7,12.7h0.1c0.6-3.7,1.8-8,3-12.8l4.9-18.5h5l4.5,18.7 c1,4.4,2,8.7,2.6,12.6h0.1c0.8-4,1.8-8.1,3-12.7l4.9-18.5h4.9L120.6,51h-5L111,31.9c-1.1-4.7-1.9-8.3-2.4-12h-0.1 c-0.7,3.7-1.5,7.3-2.8,12L100.4,51H95.4z"/><path fill="#FFFFFF" d="M154.9,37.6c0,9.8-6.8,14-13.2,14c-7.2,0-12.7-5.2-12.7-13.6c0-8.8,5.8-14,13.1-14 C149.8,24,154.9,29.5,154.9,37.6z M133.9,37.9c0,5.8,3.3,10.1,8,10.1c4.6,0,8-4.3,8-10.3c0-4.5-2.2-10.1-7.9-10.1 C136.3,27.6,133.9,32.8,133.9,37.9z"/><path fill="#FFFFFF" d="M158.2,32.8c0-3.1-0.1-5.8-0.2-8.2h4.2l0.2,5.2h0.2c1.2-3.5,4.1-5.8,7.3-5.8c0.5,0,0.9,0.1,1.4,0.2v4.5 c-0.5-0.1-1-0.2-1.6-0.2c-3.4,0-5.8,2.6-6.5,6.2c-0.1,0.7-0.2,1.4-0.2,2.2V51h-4.8V32.8z"/><path fill="#FFFFFF" d="M173.5,12.3h4.8V51h-4.8V12.3z"/><path fill="#FFFFFF" d="M206.5,12.3v31.9c0,2.3,0.1,5,0.2,6.8h-4.3l-0.2-4.6H202c-1.5,2.9-4.7,5.2-9,5.2 c-6.4,0-11.3-5.4-11.3-13.4c-0.1-8.8,5.4-14.2,11.9-14.2c4,0,6.8,1.9,8,4h0.1V12.3H206.5z M201.7,35.4c0-0.6-0.1-1.4-0.2-2 c-0.7-3.1-3.3-5.6-6.9-5.6c-5,0-7.9,4.4-7.9,10.2c0,5.3,2.6,9.8,7.8,9.8c3.2,0,6.2-2.1,7.1-5.7c0.2-0.7,0.2-1.3,0.2-2.1V35.4z"/><path fill="#FFFFFF" d="M42.8,64c0.1,1.6-1.1,2.9-3.1,2.9c-1.7,0-2.9-1.3-2.9-2.9c0-1.7,1.3-3,3-3C41.7,61,42.8,62.3,42.8,64z M37.4,97.8V71.4h4.8v26.4H37.4z"/><path fill="#FFFFFF" d="M47.5,78.6c0-2.7-0.1-5-0.2-7.1h4.3l0.3,4.4h0.1c1.3-2.5,4.4-5,8.8-5c3.7,0,9.4,2.2,9.4,11.2v15.8h-4.8 V82.6c0-4.3-1.6-7.8-6.1-7.8c-3.2,0-5.6,2.2-6.5,4.9c-0.2,0.6-0.3,1.4-0.3,2.2v15.9h-4.8V78.6z"/><path fill="#FFFFFF" d="M84,61.6c2.9-0.4,6.3-0.8,10.1-0.8c6.8,0,11.7,1.6,14.9,4.6c3.3,3,5.2,7.3,5.2,13.2c0,6-1.9,10.9-5.3,14.3 c-3.4,3.4-9.1,5.3-16.3,5.3c-3.4,0-6.2-0.2-8.6-0.4V61.6z M88.8,94.1c1.2,0.2,3,0.3,4.8,0.3c10.2,0,15.7-5.7,15.7-15.6 c0.1-8.7-4.9-14.2-14.9-14.2c-2.5,0-4.3,0.2-5.6,0.5V94.1z"/><path fill="#FFFFFF" d="M132.1,97.8l-0.4-3.3h-0.2c-1.5,2.1-4.3,3.9-8.1,3.9c-5.4,0-8.1-3.8-8.1-7.6c0-6.4,5.7-9.9,15.9-9.8v-0.5 c0-2.2-0.6-6.1-6-6.1c-2.5,0-5,0.8-6.9,2l-1.1-3.2c2.2-1.4,5.4-2.3,8.7-2.3c8.1,0,10.1,5.5,10.1,10.8v9.9c0,2.3,0.1,4.5,0.4,6.3 H132.1z M131.4,84.4c-5.3-0.1-11.2,0.8-11.2,5.9c0,3.1,2.1,4.6,4.5,4.6c3.4,0,5.6-2.2,6.4-4.4c0.2-0.5,0.3-1,0.3-1.5V84.4z"/><path fill="#FFFFFF" d="M146.6,63.9v7.6h6.9v3.7h-6.9v14.2c0,3.3,0.9,5.1,3.6,5.1c1.3,0,2.2-0.2,2.8-0.3l0.2,3.6 c-0.9,0.4-2.4,0.7-4.3,0.7c-2.2,0-4-0.7-5.2-2c-1.4-1.4-1.9-3.8-1.9-6.9V75.1h-4.1v-3.7h4.1v-6.3L146.6,63.9z"/><path fill="#FFFFFF" d="M171.4,97.8l-0.4-3.3h-0.2c-1.5,2.1-4.3,3.9-8.1,3.9c-5.4,0-8.1-3.8-8.1-7.6c0-6.4,5.7-9.9,15.9-9.8v-0.5 c0-2.2-0.6-6.1-6-6.1c-2.5,0-5,0.8-6.9,2l-1.1-3.2c2.2-1.4,5.4-2.3,8.7-2.3c8.1,0,10.1,5.5,10.1,10.8v9.9c0,2.3,0.1,4.5,0.4,6.3 H171.4z M170.7,84.4c-5.3-0.1-11.2,0.8-11.2,5.9c0,3.1,2.1,4.6,4.5,4.6c3.4,0,5.6-2.2,6.4-4.4c0.2-0.5,0.3-1,0.3-1.5V84.4z"/></g></g></a></g><a href="https://ourworldindata.org/grapher/granted-patents-United-States" target="_blank"><text font-size="27.00" x="15.0" y="36.6" fill="#555"><tspan x="15" y="36.6">Two centuries of granted patents in the United States</tspan></text></a><text font-size="14.40" x="15.0" y="55.5" fill="#666"><tspan x="15" y="55.519999999999996">Annual number of patents for invention granted in the United States over the long-term.</tspan></text></g><g class="LineChart"><defs><clipPath id="boundsClip-189"><rect x="68.968" y="0" width="830" height="956.2"></rect></clipPath></defs><g class="AxisBoxView"><g class="HorizontalAxis"><text x="79" y="556.5" fill="#666" text-anchor="middle" font-size="16.2">1790</text><text x="250.8" y="556.5" fill="#666" text-anchor="middle" font-size="16.2">1850</text><text x="393.9" y="556.5" fill="#666" text-anchor="middle" font-size="16.2">1900</text><text x="537.1" y="556.5" fill="#666" text-anchor="middle" font-size="16.2">1950</text><text x="680.2" y="556.5" fill="#666" text-anchor="middle" font-size="16.2">2000</text><text x="723.2" y="556.5" fill="#666" text-anchor="middle" font-size="16.2">2015</text></g><g class="VerticalAxis"><text x="73.97" y="535.3" fill="#666" dominant-baseline="middle" text-anchor="end" font-size="16.2">0</text><text x="73.97" y="459.2" fill="#666" dominant-baseline="middle" text-anchor="end" font-size="16.2">50,000</text><text x="73.97" y="383.1" fill="#666" dominant-baseline="middle" text-anchor="end" font-size="16.2">100,000</text><text x="73.97" y="307" fill="#666" dominant-baseline="middle" text-anchor="end" font-size="16.2">150,000</text><text x="73.97" y="230.9" fill="#666" dominant-baseline="middle" text-anchor="end" font-size="16.2">200,000</text><text x="73.97" y="154.8" fill="#666" dominant-baseline="middle" text-anchor="end" font-size="16.2">250,000</text><text x="73.97" y="78.7" fill="#666" dominant-baseline="middle" text-anchor="end" font-size="16.2">300,000</text></g><g class="AxisGridLines"><line x1="78.97" y1="535.3" x2="723.17" y2="535.3" stroke="#ccc"></line><line x1="78.97" y1="459.2" x2="723.17" y2="459.2" stroke="#ddd" stroke-dasharray="3,2"></line><line x1="78.97" y1="383.1" x2="723.17" y2="383.1" stroke="#ddd" stroke-dasharray="3,2"></line><line x1="78.97" y1="307" x2="723.17" y2="307" stroke="#ddd" stroke-dasharray="3,2"></line><line x1="78.97" y1="230.9" x2="723.17" y2="230.9" stroke="#ddd" stroke-dasharray="3,2"></line><line x1="78.97" y1="154.8" x2="723.17" y2="154.8" stroke="#ddd" stroke-dasharray="3,2"></line><line x1="78.97" y1="78.7" x2="723.17" y2="78.7" stroke="#ddd" stroke-dasharray="3,2"></line></g><g class="AxisGridLines"><line x1="107.6" y1="535.30" x2="107.6" y2="78.40" stroke="#ddd" stroke-dasharray="3,2"></line><line x1="250.8" y1="535.30" x2="250.8" y2="78.40" stroke="#ddd" stroke-dasharray="3,2"></line><line x1="393.9" y1="535.30" x2="393.9" y2="78.40" stroke="#ddd" stroke-dasharray="3,2"></line><line x1="537.1" y1="535.30" x2="537.1" y2="78.40" stroke="#ddd" stroke-dasharray="3,2"></line><line x1="680.2" y1="535.30" x2="680.2" y2="78.40" stroke="#ddd" stroke-dasharray="3,2"></line></g></g><g clip-path="url(#boundsClip-189)"><g class="HeightedLegend clickable"><g class="legendMark"><rect x="733.168" y="73.89999999999999" width="101.83200000000001" height="14.4" fill="#fff" opacity="0"></rect><rect x="733.168" y="79.85" width="10" height="2.5" fill="#3360a9"></rect><text font-size="14.40" x="748.2" y="85.4" fill="#333"><tspan x="748.168" y="85.42">United States</tspan></text></g></g><g class="Lines"><rect x="79" y="78" width="644" height="457" fill="rgba(255,255,255,0)" opacity="0"></rect><g class="key-United-States_0"><path stroke="#3360a9" stroke-linecap="round" d="M79 535L82 535L85 535L88 535L90 535L93 535L96 535L99 535L102 535L105 535L108 535L111 535L113 535L116 535L119 535L122 535L125 535L128 535L131 535L133 535L136 535L139 535L142 535L145 535L148 535L151 535L153 535L156 535L159 535L162 535L165 535L168 535L171 535L174 535L176 535L179 535L182 535L185 535L188 535L191 535L194 535L196 534L199 535L202 534L205 534L208 534L211 534L214 535L216 535L219 535L222 535L225 535L228 535L231 535L234 535L236 535L239 534L242 535L245 534L248 534L251 534L254 534L257 534L259 534L262 533L265 532L268 532L271 531L274 530L277 529L279 529L282 531L285 530L288 530L291 528L294 526L297 522L299 517L302 516L305 516L308 517L311 518L314 517L317 518L320 517L322 515L325 514L328 516L331 517L334 517L337 516L340 512L342 508L345 503L348 506L351 500L354 502L357 504L360 506L362 500L365 497L368 501L371 501L374 501L377 505L380 504L383 502L385 502L388 504L391 500L394 498L397 496L400 494L403 488L405 489L408 490L411 488L414 481L417 486L420 480L423 482L425 485L428 480L431 484L434 475L437 470L440 469L443 473L445 477L448 479L451 479L454 478L457 477L460 477L463 471L466 465L468 467L471 472L474 471L477 466L480 467L483 457L486 454L488 461L491 468L494 474L497 475L500 478L503 477L506 470L508 471L511 473L514 477L517 488L520 493L523 496L526 502L529 505L531 499L534 482L537 470L540 468L543 469L546 474L549 484L551 489L554 464L557 470L560 462L563 456L566 464L569 462L571 451L574 466L577 463L580 440L583 431L586 435L589 445L592 433L594 437L597 416L600 422L603 423L606 420L609 426L612 429L614 436L617 435L620 461L623 441L626 435L629 447L632 449L634 433L637 426L640 428L643 409L646 417L649 390L652 398L655 389L657 387L660 386L663 381L666 381L669 369L672 365L675 311L677 302L680 296L683 283L686 281L689 278L692 285L695 317L697 271L700 296L703 295L706 280L709 200L712 192L715 148L717 111L720 78L723 81" fill="none" stroke-width="1.5"></path><g fill="#3360a9"><circle cx="79" cy="535" r="2"></circle><circle cx="82" cy="535" r="2"></circle><circle cx="85" cy="535" r="2"></circle><circle cx="88" cy="535" r="2"></circle><circle cx="90" cy="535" r="2"></circle><circle cx="93" cy="535" r="2"></circle><circle cx="96" cy="535" r="2"></circle><circle cx="99" cy="535" r="2"></circle><circle cx="102" cy="535" r="2"></circle><circle cx="105" cy="535" r="2"></circle><circle cx="108" cy="535" r="2"></circle><circle cx="111" cy="535" r="2"></circle><circle cx="113" cy="535" r="2"></circle><circle cx="116" cy="535" r="2"></circle><circle cx="119" cy="535" r="2"></circle><circle cx="122" cy="535" r="2"></circle><circle cx="125" cy="535" r="2"></circle><circle cx="128" cy="535" r="2"></circle><circle cx="131" cy="535" r="2"></circle><circle cx="133" cy="535" r="2"></circle><circle cx="136" cy="535" r="2"></circle><circle cx="139" cy="535" r="2"></circle><circle cx="142" cy="535" r="2"></circle><circle cx="145" cy="535" r="2"></circle><circle cx="148" cy="535" r="2"></circle><circle cx="151" cy="535" r="2"></circle><circle cx="153" cy="535" r="2"></circle><circle cx="156" cy="535" r="2"></circle><circle cx="159" cy="535" r="2"></circle><circle cx="162" cy="535" r="2"></circle><circle cx="165" cy="535" r="2"></circle><circle cx="168" cy="535" r="2"></circle><circle cx="171" cy="535" r="2"></circle><circle cx="174" cy="535" r="2"></circle><circle cx="176" cy="535" r="2"></circle><circle cx="179" cy="535" r="2"></circle><circle cx="182" cy="535" r="2"></circle><circle cx="185" cy="535" r="2"></circle><circle cx="188" cy="535" r="2"></circle><circle cx="191" cy="535" r="2"></circle><circle cx="194" cy="535" r="2"></circle><circle cx="196" cy="534" r="2"></circle><circle cx="199" cy="535" r="2"></circle><circle cx="202" cy="534" r="2"></circle><circle cx="205" cy="534" r="2"></circle><circle cx="208" cy="534" r="2"></circle><circle cx="211" cy="534" r="2"></circle><circle cx="214" cy="535" r="2"></circle><circle cx="216" cy="535" r="2"></circle><circle cx="219" cy="535" r="2"></circle><circle cx="222" cy="535" r="2"></circle><circle cx="225" cy="535" r="2"></circle><circle cx="228" cy="535" r="2"></circle><circle cx="231" cy="535" r="2"></circle><circle cx="234" cy="535" r="2"></circle><circle cx="236" cy="535" r="2"></circle><circle cx="239" cy="534" r="2"></circle><circle cx="242" cy="535" r="2"></circle><circle cx="245" cy="534" r="2"></circle><circle cx="248" cy="534" r="2"></circle><circle cx="251" cy="534" r="2"></circle><circle cx="254" cy="534" r="2"></circle><circle cx="257" cy="534" r="2"></circle><circle cx="259" cy="534" r="2"></circle><circle cx="262" cy="533" r="2"></circle><circle cx="265" cy="532" r="2"></circle><circle cx="268" cy="532" r="2"></circle><circle cx="271" cy="531" r="2"></circle><circle cx="274" cy="530" r="2"></circle><circle cx="277" cy="529" r="2"></circle><circle cx="279" cy="529" r="2"></circle><circle cx="282" cy="531" r="2"></circle><circle cx="285" cy="530" r="2"></circle><circle cx="288" cy="530" r="2"></circle><circle cx="291" cy="528" r="2"></circle><circle cx="294" cy="526" r="2"></circle><circle cx="297" cy="522" r="2"></circle><circle cx="299" cy="517" r="2"></circle><circle cx="302" cy="516" r="2"></circle><circle cx="305" cy="516" r="2"></circle><circle cx="308" cy="517" r="2"></circle><circle cx="311" cy="518" r="2"></circle><circle cx="314" cy="517" r="2"></circle><circle cx="317" cy="518" r="2"></circle><circle cx="320" cy="517" r="2"></circle><circle cx="322" cy="515" r="2"></circle><circle cx="325" cy="514" r="2"></circle><circle cx="328" cy="516" r="2"></circle><circle cx="331" cy="517" r="2"></circle><circle cx="334" cy="517" r="2"></circle><circle cx="337" cy="516" r="2"></circle><circle cx="340" cy="512" r="2"></circle><circle cx="342" cy="508" r="2"></circle><circle cx="345" cy="503" r="2"></circle><circle cx="348" cy="506" r="2"></circle><circle cx="351" cy="500" r="2"></circle><circle cx="354" cy="502" r="2"></circle><circle cx="357" cy="504" r="2"></circle><circle cx="360" cy="506" r="2"></circle><circle cx="362" cy="500" r="2"></circle><circle cx="365" cy="497" r="2"></circle><circle cx="368" cy="501" r="2"></circle><circle cx="371" cy="501" r="2"></circle><circle cx="374" cy="501" r="2"></circle><circle cx="377" cy="505" r="2"></circle><circle cx="380" cy="504" r="2"></circle><circle cx="383" cy="502" r="2"></circle><circle cx="385" cy="502" r="2"></circle><circle cx="388" cy="504" r="2"></circle><circle cx="391" cy="500" r="2"></circle><circle cx="394" cy="498" r="2"></circle><circle cx="397" cy="496" r="2"></circle><circle cx="400" cy="494" r="2"></circle><circle cx="403" cy="488" r="2"></circle><circle cx="405" cy="489" r="2"></circle><circle cx="408" cy="490" r="2"></circle><circle cx="411" cy="488" r="2"></circle><circle cx="414" cy="481" r="2"></circle><circle cx="417" cy="486" r="2"></circle><circle cx="420" cy="480" r="2"></circle><circle cx="423" cy="482" r="2"></circle><circle cx="425" cy="485" r="2"></circle><circle cx="428" cy="480" r="2"></circle><circle cx="431" cy="484" r="2"></circle><circle cx="434" cy="475" r="2"></circle><circle cx="437" cy="470" r="2"></circle><circle cx="440" cy="469" r="2"></circle><circle cx="443" cy="473" r="2"></circle><circle cx="445" cy="477" r="2"></circle><circle cx="448" cy="479" r="2"></circle><circle cx="451" cy="479" r="2"></circle><circle cx="454" cy="478" r="2"></circle><circle cx="457" cy="477" r="2"></circle><circle cx="460" cy="477" r="2"></circle><circle cx="463" cy="471" r="2"></circle><circle cx="466" cy="465" r="2"></circle><circle cx="468" cy="467" r="2"></circle><circle cx="471" cy="472" r="2"></circle><circle cx="474" cy="471" r="2"></circle><circle cx="477" cy="466" r="2"></circle><circle cx="480" cy="467" r="2"></circle><circle cx="483" cy="457" r="2"></circle><circle cx="486" cy="454" r="2"></circle><circle cx="488" cy="461" r="2"></circle><circle cx="491" cy="468" r="2"></circle><circle cx="494" cy="474" r="2"></circle><circle cx="497" cy="475" r="2"></circle><circle cx="500" cy="478" r="2"></circle><circle cx="503" cy="477" r="2"></circle><circle cx="506" cy="470" r="2"></circle><circle cx="508" cy="471" r="2"></circle><circle cx="511" cy="473" r="2"></circle><circle cx="514" cy="477" r="2"></circle><circle cx="517" cy="488" r="2"></circle><circle cx="520" cy="493" r="2"></circle><circle cx="523" cy="496" r="2"></circle><circle cx="526" cy="502" r="2"></circle><circle cx="529" cy="505" r="2"></circle><circle cx="531" cy="499" r="2"></circle><circle cx="534" cy="482" r="2"></circle><circle cx="537" cy="470" r="2"></circle><circle cx="540" cy="468" r="2"></circle><circle cx="543" cy="469" r="2"></circle><circle cx="546" cy="474" r="2"></circle><circle cx="549" cy="484" r="2"></circle><circle cx="551" cy="489" r="2"></circle><circle cx="554" cy="464" r="2"></circle><circle cx="557" cy="470" r="2"></circle><circle cx="560" cy="462" r="2"></circle><circle cx="563" cy="456" r="2"></circle><circle cx="566" cy="464" r="2"></circle><circle cx="569" cy="462" r="2"></circle><circle cx="571" cy="451" r="2"></circle><circle cx="574" cy="466" r="2"></circle><circle cx="577" cy="463" r="2"></circle><circle cx="580" cy="440" r="2"></circle><circle cx="583" cy="431" r="2"></circle><circle cx="586" cy="435" r="2"></circle><circle cx="589" cy="445" r="2"></circle><circle cx="592" cy="433" r="2"></circle><circle cx="594" cy="437" r="2"></circle><circle cx="597" cy="416" r="2"></circle><circle cx="600" cy="422" r="2"></circle><circle cx="603" cy="423" r="2"></circle><circle cx="606" cy="420" r="2"></circle><circle cx="609" cy="426" r="2"></circle><circle cx="612" cy="429" r="2"></circle><circle cx="614" cy="436" r="2"></circle><circle cx="617" cy="435" r="2"></circle><circle cx="620" cy="461" r="2"></circle><circle cx="623" cy="441" r="2"></circle><circle cx="626" cy="435" r="2"></circle><circle cx="629" cy="447" r="2"></circle><circle cx="632" cy="449" r="2"></circle><circle cx="634" cy="433" r="2"></circle><circle cx="637" cy="426" r="2"></circle><circle cx="640" cy="428" r="2"></circle><circle cx="643" cy="409" r="2"></circle><circle cx="646" cy="417" r="2"></circle><circle cx="649" cy="390" r="2"></circle><circle cx="652" cy="398" r="2"></circle><circle cx="655" cy="389" r="2"></circle><circle cx="657" cy="387" r="2"></circle><circle cx="660" cy="386" r="2"></circle><circle cx="663" cy="381" r="2"></circle><circle cx="666" cy="381" r="2"></circle><circle cx="669" cy="369" r="2"></circle><circle cx="672" cy="365" r="2"></circle><circle cx="675" cy="311" r="2"></circle><circle cx="677" cy="302" r="2"></circle><circle cx="680" cy="296" r="2"></circle><circle cx="683" cy="283" r="2"></circle><circle cx="686" cy="281" r="2"></circle><circle cx="689" cy="278" r="2"></circle><circle cx="692" cy="285" r="2"></circle><circle cx="695" cy="317" r="2"></circle><circle cx="697" cy="271" r="2"></circle><circle cx="700" cy="296" r="2"></circle><circle cx="703" cy="295" r="2"></circle><circle cx="706" cy="280" r="2"></circle><circle cx="709" cy="200" r="2"></circle><circle cx="712" cy="192" r="2"></circle><circle cx="715" cy="148" r="2"></circle><circle cx="717" cy="111" r="2"></circle><circle cx="720" cy="78" r="2"></circle><circle cx="723" cy="81" r="2"></circle></g></g></g></g></g><g style="fill: #777;" class="SourcesFooter"><g style="fill: #777;" class="clickable"><text font-size="12.60" x="15.0" y="581.6"><tspan x="15" y="581.58">Source: US Patents &amp; Trademarks Office (USPTO)</tspan></text></g><text font-size="12.60" x="649.0" y="581.6"><tspan x="649.024" y="581.58"><a target='_blank' style='fill: #777;' href='https://ourworldindata.org'>OurWorldInData.org</a> • <a style="fill: #777;" href="http://creativecommons.org/licenses/by-sa/4.0/deed.en_US" target="_blank">CC BY-SA</a></tspan></text></g></g></svg>