<svg xmlns="http://www.w3.org/2000/svg" version="1.1" style="font-family: 'Helvetica Neue', Helvetica, Arial, sans-serif; font-size: 18px; background-color: white; text-rendering: optimizeLegibility; -webkit-font-smoothing: antialiased;" width="850" height="600"><g class="ChartTab"><g class="HeaderView"><g opacity="0.8" transform="translate(778, 15) scale(0.27)"><a xmlns:xlink="http://www.w3.org/1999/xlink" xlink:href="https://ourworldindata.org" target="_blank"><g><rect x="0" y="0" fill="#1B2543" width="211.2" height="130.1"/><rect x="0" y="112.2" fill="#E63912" width="211.2" height="17.9"/><g><rect x="1.2" y="12.3" fill="none" width="210.2" height="99.2"/><path fill="#FFFFFF" d="M37.8,32.2c0,12.7-7.7,19.4-17.1,19.4c-9.7,0-16.6-7.5-16.6-18.7c0-11.7,7.3-19.3,17.1-19.3 C31.3,13.7,37.8,21.3,37.8,32.2z M9.2,32.8c0,7.9,4.3,14.9,11.8,14.9c7.5,0,11.8-6.9,11.8-15.3c0-7.3-3.8-14.9-11.8-14.9 C13.1,17.5,9.2,24.8,9.2,32.8z"/><path fill="#FFFFFF" d="M62.7,43.8c0,2.7,0.1,5.1,0.2,7.2h-4.3l-0.3-4.3h-0.1c-1.3,2.1-4,4.9-8.8,4.9c-4.2,0-9.1-2.3-9.1-11.6 V24.6h4.8v14.6c0,5,1.5,8.4,5.9,8.4c3.2,0,5.5-2.2,6.3-4.4c0.3-0.7,0.4-1.6,0.4-2.5V24.6h4.8V43.8z"/><path fill="#FFFFFF" d="M67.3,32.8c0-3.1-0.1-5.8-0.2-8.2h4.2l0.2,5.2h0.2c1.2-3.5,4.1-5.8,7.3-5.8c0.5,0,0.9,0.1,1.4,0.2v4.5 c-0.5-0.1-1-0.2-1.6-0.2c-3.4,0-5.8,2.6-6.5,6.2c-0.1,0.7-0.2,1.4-0.2,2.2V51h-4.8V32.8z"/><path fill="#FFFFFF" d="M95.4,51l-9.4-36.8h5l4.4,18.6c1.1,4.6,2.1,9.2,2.7,12.7h0.1c0.6-3.7,1.8-8,3-12.8l4.9-18.5h5l4.5,18.7 c1,4.4,2,8.7,2.6,12.6h0.1c0.8-4,1.8-8.1,3-12.7l4.9-18.5h4.9L120.6,51h-5L111,31.9c-1.1-4.7-1.9-8.3-2.4-12h-0.1 c-0.7,3.7-1.5,7.3-2.8,12L100.4,51H95.4z"/><path fill="#FFFFFF" d="M154.9,37.6c0,9.8-6.8,14-13.2,14c-7.2,0-12.7-5.2-12.7-13.6c0-8.8,5.8-14,13.1-14 C149.8,24,154.9,29.5,154.9,37.6z M133.9,37.9c0,5.8,3.3,10.1,8,10.1c4.6,0,8-4.3,8-10.3c0-4.5-2.2-10.1-7.9-10.1 C136.3,27.6,133.9,32.8,133.9,37.9z"/><path fill="#FFFFFF" d="M158.2,32.8c0-3.1-0.1-5.8-0.2-8.2h4.2l0.2,5.2h0.2c1.2-3.5,4.1-5.8,7.3-5.8c0.5,0,0.9,0.1,1.4,0.2v4.5 c-0.5-0.1-1-0.2-1.6-0.2c-3.4,0-5.8,2.6-6.5,6.2c-0.1,0.7-0.2,1.4-0.2,2.2V51h-4.8V32.8z"/><path fill="#FFFFFF" d="M173.5,12.3h4.8V51h-4.8V12.3z"/><path fill="#FFFFFF" d="M206.5,12.3v31.9c0,2.3,0.1,5,0.2,6.8h-4.3l-0.2-4.6H202c-1.5,2.9-4.7,5.2-9,5.2 c-6.4,0-11.3-5.4-11.3-13.4c-0.1-8.8,5.4-14.2,11.9-14.2c4,0,6.8,1.9,8,4h0.1V12.3H206.5z M201.7,35.4c0-0.6-0.1-1.4-0.2-2 c-0.7-3.1-3.3-5.6-6.9-5.6c-5,0-7.9,4.4-7.9,10.2c0,5.3,2.6,9.8,7.8,9.8c3.2,0,6.2-2.1,7.1-5.7c0.2-0.7,0.2-1.3,0.2-2.1V35.4z"/><path fill="#FFFFFF" d="M42.8,64c0.1,1.6-1.1,2.9-3.1,2.9c-1.7,0-2.9-1.3-2.9-2.9c0-1.7,1.3-3,3-3C41.7,61,42.8,62.3,42.8,64z M37.4,97.8V71.4h4.8v26.4H37.4z"/><path fill="#FFFFFF" d="M47.5,78.6c0-2.7-0.1-5-0.2-7.1h4.3l0.3,4.4h0.1c1.3-2.5,4.4-5,8.8-5c3.7,0,9.4,2.2,9.4,11.2v15.8h-4.8 V82.6c0-4.3-1.6-7.8-6.1-7.8c-3.2,0-5.6,2.2-6.5,4.9c-0.2,0.6-0.3,1.4-0.3,2.2v15.9h-4.8V78.6z"/><path fill="#FFFFFF" d="M84,61.6c2.9-0.4,6.3-0.8,10.1-0.8c6.8,0,11.7,1.6,14.9,4.6c3.3,3,5.2,7.3,5.2,13.2c0,6-1.9,10.9-5.3,14.3 c-3.4,3.4-9.1,5.3-16.3,5.3c-3.4,0-6.2-0.2-8.6-0.4V61.6z M88.8,94.1c1.2,0.2,3,0.3,4.8,0.3c10.2,0,15.7-5.7,15.7-15.6 c0.1-8.7-4.9-14.2-14.9-14.2c-2.5,0-4.3,0.2-5.6,0.5V94.1z"/><path fill="#FFFFFF" d="M132.1,97.8l-0.4-3.3h-0.2c-1.5,2.1-4.3,3.9-8.1,3.9c-5.4,0-8.1-3.8-8.1-7.6c0-6.4,5.7-9.9,15.9-9.8v-0.5 c0-2.2-0.6-6.1-6-6.1c-2.5,0-5,0.8-6.9,2l-1.1-3.2c2.2-1.4,5.4-2.3,8.7-2.3c8.1,0,10.1,5.5,10.1,10.8v9.9c0,2.3,0.1,4.5,0.4,6.3 H132.1z M131.4,84.4c-5.3-0.1-11.2,0.8-11.2,5.9c0,3.1,2.1,4.6,4.5,4.6c3.4,0,5.6-2.2,6.4-4.4c0.2-0.5,0.3-1,0.3-1.5V84.4z"/><path fill="#FFFFFF" d="M146.6,63.9v7.6h6.9v3.7h-6.9v14.2c0,3.3,0.9,5.1,3.6,5.1c1.3,0,2.2-0.2,2.8-0.3l0.2,3.6 c-0.9,0.4-2.4,0.7-4.3,0.7c-2.2,0-4-0.7-5.2-2c-1.4-1.4-1.9-3.8-1.9-6.9V75.1h-4.1v-3.7h4.1v-6.3L146.6,63.9z"/><path fill="#FFFFFF" d="M171.4,97.8l-0.4-3.3h-0.2c-1.5,2.1-4.3,3.9-8.1,3.9c-5.4,0-8.1-3.8-8.1-7.6c0-6.4,5.7-9.9,15.9-9.8v-0.5 c0-2.2-0.6-6.1-6-6.1c-2.5,0-5,0.8-6.9,2l-1.1-3.2c2.2-1.4,5.4-2.3,8.7-2.3c8.1,0,10.1,5.5,10.1,10.8v9.9c0,2.3,0.1,4.5,0.4,6.3 H171.4z M170.7,84.4c-5.3-0.1-11.2,0.8-11.2,5.9c0,3.1,2.1,4.6,4.5,4.6c3.4,0,5.6-2.2,6.4-4.4c0.2-0.5,0.3-1,0.3-1.5V84.4z"/></g></g></a></g><a href="https://ourworldindata.org/grapher/growth-of-income-and-trade" target="_blank"><text font-size="25.20" x="15.0" y="35.2" fill="#555"><tspan x="15" y="35.160000000000004">Growth of income and trade, 1945 to 2014</tspan></text></a><text font-size="14.40" x="15.0" y="53.7" fill="#666"><tspan x="15" y="53.72">Average annual change in real GDP per capita vs Average annual change in export volumes.</tspan></text></g><g><g class="AxisBoxView"><g class="HorizontalAxis"><text font-size="12.60" x="67.1" y="525.7"><tspan x="67.13600000000002" y="525.6800000000001">Average annual change in real GDP per capita in 2011US$, 2011 benchmark (Maddison Project Database</tspan><tspan x="67.13600000000002" y="539.5400000000001">(2018))</tspan></text><text x="110.3" y="505.59999999999997" fill="#666" text-anchor="middle" font-size="16.2">-2%</text><text x="230.6" y="505.59999999999997" fill="#666" text-anchor="middle" font-size="16.2">0%</text><text x="350.9" y="505.59999999999997" fill="#666" text-anchor="middle" font-size="16.2">2%</text><text x="471.3" y="505.59999999999997" fill="#666" text-anchor="middle" font-size="16.2">4%</text><text x="591.6" y="505.59999999999997" fill="#666" text-anchor="middle" font-size="16.2">6%</text><text x="712" y="505.59999999999997" fill="#666" text-anchor="middle" font-size="16.2">8%</text></g><g class="VerticalAxis"><text font-size="12.60" x="-517.1" y="25.1" transform="rotate(-90)"><tspan x="-517.15" y="25.080000000000002">Average annual change in value of global merchandise exports as a share</tspan><tspan x="-517.15" y="38.940000000000005">of GDP (CEPII National (2016))</tspan></text><text x="80.14" y="458.5" fill="#666" dominant-baseline="middle" text-anchor="end" font-size="16.2">-8%</text><text x="80.14" y="412.6" fill="#666" dominant-baseline="middle" text-anchor="end" font-size="16.2">-6%</text><text x="80.14" y="366.6" fill="#666" dominant-baseline="middle" text-anchor="end" font-size="16.2">-4%</text><text x="80.14" y="320.7" fill="#666" dominant-baseline="middle" text-anchor="end" font-size="16.2">-2%</text><text x="80.14" y="274.7" fill="#666" dominant-baseline="middle" text-anchor="end" font-size="16.2">0%</text><text x="80.14" y="228.8" fill="#666" dominant-baseline="middle" text-anchor="end" font-size="16.2">2%</text><text x="80.14" y="182.8" fill="#666" dominant-baseline="middle" text-anchor="end" font-size="16.2">4%</text><text x="80.14" y="136.8" fill="#666" dominant-baseline="middle" text-anchor="end" font-size="16.2">6%</text><text x="80.14" y="90.9" fill="#666" dominant-baseline="middle" text-anchor="end" font-size="16.2">8%</text></g><g class="AxisGridLines"><line x1="85.14" y1="458.5" x2="715.00" y2="458.5" stroke="#ddd" stroke-dasharray="3,2"></line><line x1="85.14" y1="412.6" x2="715.00" y2="412.6" stroke="#ddd" stroke-dasharray="3,2"></line><line x1="85.14" y1="366.6" x2="715.00" y2="366.6" stroke="#ddd" stroke-dasharray="3,2"></line><line x1="85.14" y1="320.7" x2="715.00" y2="320.7" stroke="#ddd" stroke-dasharray="3,2"></line><line x1="85.14" y1="274.7" x2="715.00" y2="274.7" stroke="#ccc"></line><line x1="85.14" y1="228.8" x2="715.00" y2="228.8" stroke="#ddd" stroke-dasharray="3,2"></line><line x1="85.14" y1="182.8" x2="715.00" y2="182.8" stroke="#ddd" stroke-dasharray="3,2"></line><line x1="85.14" y1="136.8" x2="715.00" y2="136.8" stroke="#ddd" stroke-dasharray="3,2"></line><line x1="85.14" y1="90.9" x2="715.00" y2="90.9" stroke="#ddd" stroke-dasharray="3,2"></line></g><g class="AxisGridLines"><line x1="110.3" y1="498.10" x2="110.3" y2="76.60" stroke="#ddd" stroke-dasharray="3,2"></line><line x1="230.6" y1="498.10" x2="230.6" y2="76.60" stroke="#ccc"></line><line x1="350.9" y1="498.10" x2="350.9" y2="76.60" stroke="#ddd" stroke-dasharray="3,2"></line><line x1="471.3" y1="498.10" x2="471.3" y2="76.60" stroke="#ddd" stroke-dasharray="3,2"></line><line x1="591.6" y1="498.10" x2="591.6" y2="76.60" stroke="#ddd" stroke-dasharray="3,2"></line><line x1="712" y1="498.10" x2="712" y2="76.60" stroke="#ddd" stroke-dasharray="3,2"></line></g></g><g clip-path="url(#scatterBounds-1)" font-family="Arial Narrow, Arial, sans-serif" class="PointsWithLabels clickable"><rect x="85.136" y="76.6" width="629.864" height="421.49999999999994" fill="rgba(255,255,255,0)"></rect><defs><clipPath id="scatterBounds-1"><rect x="75.136" y="66.6" width="649.864" height="441.49999999999994"></rect></clipPath></defs><g class="key-China_0"><circle cx="512.00" cy="203.00" r="17.84" fill="#d14e5b" opacity="0.8" stroke="#333" stroke-width="0.7"></circle></g><g class="key-India_0"><circle cx="407.00" cy="235.00" r="17.29" fill="#d14e5b" opacity="0.8" stroke="#333" stroke-width="0.7"></circle></g><g class="key-United-States_0"><circle cx="333.00" cy="247.00" r="8.78" fill="#4d824b" opacity="0.8" stroke="#333" stroke-width="0.7"></circle></g><g class="key-Indonesia_0"><circle cx="425.00" cy="305.00" r="7.78" fill="#d14e5b" opacity="0.8" stroke="#333" stroke-width="0.7"></circle></g><g class="key-Brazil_0"><circle cx="397.00" cy="277.00" r="7.04" fill="#69c487" opacity="0.8" stroke="#333" stroke-width="0.7"></circle></g><g class="key-Pakistan_0"><circle cx="358.00" cy="292.00" r="6.76" fill="#d14e5b" opacity="0.8" stroke="#333" stroke-width="0.7"></circle></g><g class="key-Nigeria_0"><circle cx="329.00" cy="274.00" r="6.54" fill="#5675c1" opacity="0.8" stroke="#333" stroke-width="0.7"></circle></g><g class="key-Bangladesh_0"><circle cx="393.00" cy="194.00" r="6.24" fill="#d14e5b" opacity="0.8" stroke="#333" stroke-width="0.7"></circle></g><g class="key-Russia_0"><circle cx="343.00" cy="212.00" r="6.02" fill="#ffd336" opacity="0.8" stroke="#333" stroke-width="0.7"></circle></g><g class="key-Japan_0"><circle cx="484.00" cy="190.00" r="5.70" fill="#d14e5b" opacity="0.8" stroke="#fff" stroke-width="0.7"></circle></g><g class="key-Mexico_0"><circle cx="361.00" cy="219.00" r="5.51" fill="#4d824b" opacity="0.8" stroke="#fff" stroke-width="0.7"></circle></g><g class="key-Philippines_0"><circle cx="384.00" cy="220.00" r="5.09" fill="#d14e5b" opacity="0.8" stroke="#fff" stroke-width="0.7"></circle></g><g class="key-Vietnam_0"><circle cx="395.00" cy="187.00" r="4.92" fill="#d14e5b" opacity="0.8" stroke="#fff" stroke-width="0.7"></circle></g><g class="key-Ethiopia_0"><circle cx="328.00" cy="290.00" r="4.86" fill="#5675c1" opacity="0.8" stroke="#fff" stroke-width="0.7"></circle></g><g class="key-Egypt_0"><circle cx="377.00" cy="303.00" r="4.79" fill="#5675c1" opacity="0.8" stroke="#333" stroke-width="0.7"></circle></g><g class="key-Germany_0"><circle cx="419.00" cy="193.00" r="4.71" fill="#ffd336" opacity="0.8" stroke="#fff" stroke-width="0.7"></circle></g><g class="key-Iran_0"><circle cx="348.00" cy="289.00" r="4.57" fill="#d14e5b" opacity="0.8" stroke="#fff" stroke-width="0.7"></circle></g><g class="key-Turkey_0"><circle cx="425.00" cy="239.00" r="4.54" fill="#d14e5b" opacity="0.8" stroke="#333" stroke-width="0.7"></circle></g><g class="key-Democratic-Republic-of-Congo_0"><circle cx="167.00" cy="268.00" r="4.44" fill="#5675c1" opacity="0.8" stroke="#333" stroke-width="0.7"></circle></g><g class="key-Thailand_0"><circle cx="475.00" cy="235.00" r="4.41" fill="#d14e5b" opacity="0.8" stroke="#333" stroke-width="0.7"></circle></g><g class="key-France_0"><circle cx="421.00" cy="172.00" r="4.24" fill="#ffd336" opacity="0.8" stroke="#333" stroke-width="0.7"></circle></g><g class="key-United-Kingdom_0"><circle cx="335.00" cy="232.00" r="4.22" fill="#ffd336" opacity="0.8" stroke="#fff" stroke-width="0.7"></circle></g><g class="key-Italy_0"><circle cx="398.00" cy="206.00" r="4.16" fill="#ffd336" opacity="0.8" stroke="#333" stroke-width="0.7"></circle></g><g class="key-South-Africa_0"><circle cx="302.00" cy="233.00" r="3.87" fill="#5675c1" opacity="0.8" stroke="#fff" stroke-width="0.7"></circle></g><g class="key-Tanzania_0"><circle cx="298.00" cy="314.00" r="3.82" fill="#5675c1" opacity="0.8" stroke="#333" stroke-width="0.7"></circle></g><g class="key-Myanmar_0"><circle cx="452.00" cy="249.00" r="3.82" fill="#d14e5b" opacity="0.8" stroke="#fff" stroke-width="0.7"></circle></g><g class="key-South-Korea_0"><circle cx="556.00" cy="148.00" r="3.81" fill="#d14e5b" opacity="0.8" stroke="#333" stroke-width="0.7"></circle></g><g class="key-Colombia_0"><circle cx="359.00" cy="247.00" r="3.79" fill="#69c487" opacity="0.8" stroke="#fff" stroke-width="0.7"></circle></g><g class="key-Spain_0"><circle cx="412.00" cy="213.00" r="3.75" fill="#ffd336" opacity="0.8" stroke="#fff" stroke-width="0.7"></circle></g><g class="key-Ukraine_0"><circle cx="316.00" cy="180.00" r="3.68" fill="#ffd336" opacity="0.8" stroke="#333" stroke-width="0.7"></circle></g><g class="key-Kenya_0"><circle cx="289.00" cy="288.00" r="3.65" fill="#5675c1" opacity="0.8" stroke="#333" stroke-width="0.7"></circle></g><g class="key-Argentina_0"><circle cx="311.00" cy="270.00" r="3.58" fill="#69c487" opacity="0.8" stroke="#fff" stroke-width="0.7"></circle></g><g class="key-Poland_0"><circle cx="381.00" cy="224.00" r="3.47" fill="#ffd336" opacity="0.8" stroke="#fff" stroke-width="0.7"></circle></g><g class="key-Algeria_0"><circle cx="302.00" cy="258.00" r="3.43" fill="#5675c1" opacity="0.8" stroke="#fff" stroke-width="0.7"></circle></g><g class="key-Uganda_0"><circle cx="295.00" cy="329.00" r="3.42" fill="#5675c1" opacity="0.8" stroke="#333" stroke-width="0.7"></circle></g><g class="key-Sudan_0"><circle cx="282.00" cy="307.00" r="3.39" fill="#5675c1" opacity="0.8" stroke="#fff" stroke-width="0.7"></circle></g><g class="key-Canada_0"><circle cx="343.00" cy="275.00" r="3.36" fill="#4d824b" opacity="0.8" stroke="#fff" stroke-width="0.7"></circle></g><g class="key-Iraq_0"><circle cx="258.00" cy="272.00" r="3.35" fill="#d14e5b" opacity="0.8" stroke="#fff" stroke-width="0.7"></circle></g><g class="key-Afghanistan_0"><circle cx="202.00" cy="344.00" r="3.34" fill="#d14e5b" opacity="0.8" stroke="#333" stroke-width="0.7"></circle></g><g class="key-Morocco_0"><circle cx="345.00" cy="266.00" r="3.29" fill="#5675c1" opacity="0.8" stroke="#fff" stroke-width="0.7"></circle></g><g class="key-Nepal_0"><circle cx="335.00" cy="266.00" r="3.24" fill="#d14e5b" opacity="0.8" stroke="#fff" stroke-width="0.7"></circle></g><g class="key-Venezuela_0"><circle cx="314.00" cy="295.00" r="3.19" fill="#69c487" opacity="0.8" stroke="#fff" stroke-width="0.7"></circle></g><g class="key-Peru_0"><circle cx="337.00" cy="267.00" r="3.19" fill="#69c487" opacity="0.8" stroke="#fff" stroke-width="0.7"></circle></g><g class="key-Malaysia_0"><circle cx="421.00" cy="253.00" r="3.17" fill="#d14e5b" opacity="0.8" stroke="#333" stroke-width="0.7"></circle></g><g class="key-Saudi-Arabia_0"><circle cx="378.00" cy="278.00" r="3.16" fill="#d14e5b" opacity="0.8" stroke="#fff" stroke-width="0.7"></circle></g><g class="key-Uzbekistan_0"><circle cx="512.00" cy="267.00" r="3.12" fill="#d14e5b" opacity="0.8" stroke="#333" stroke-width="0.7"></circle></g><g class="key-Ghana_0"><circle cx="302.00" cy="288.00" r="3.04" fill="#5675c1" opacity="0.8" stroke="#fff" stroke-width="0.7"></circle></g><g class="key-Mozambique_0"><circle cx="372.00" cy="227.00" r="3.00" fill="#5675c1" opacity="0.8" stroke="#fff" stroke-width="0.7"></circle></g><g class="key-Australia_0"><circle cx="348.00" cy="267.00" r="2.92" fill="#a652ba" opacity="0.8" stroke="#fff" stroke-width="0.7"></circle></g><g class="key-Madagascar_0"><circle cx="197.00" cy="267.00" r="2.90" fill="#5675c1" opacity="0.8" stroke="#fff" stroke-width="0.7"></circle></g><g class="key-Sri-Lanka_0"><circle cx="403.00" cy="307.00" r="2.85" fill="#d14e5b" opacity="0.8" stroke="#fff" stroke-width="0.7"></circle></g><g class="key-Romania_0"><circle cx="465.00" cy="93.00" r="2.85" fill="#ffd336" opacity="0.8" stroke="#333" stroke-width="0.7"></circle></g><g class="key-Cote-d__0027Ivoire_0"><circle cx="230.00" cy="261.00" r="2.84" fill="#5675c1" opacity="0.8" stroke="#fff" stroke-width="0.7"></circle></g><g class="key-Cameroon_0"><circle cx="276.00" cy="280.00" r="2.83" fill="#5675c1" opacity="0.8" stroke="#fff" stroke-width="0.7"></circle></g><g class="key-Angola_0"><circle cx="305.00" cy="232.00" r="2.82" fill="#5675c1" opacity="0.8" stroke="#fff" stroke-width="0.7"></circle></g><g class="key-Syria_0"><circle cx="357.00" cy="270.00" r="2.77" fill="#d14e5b" opacity="0.8" stroke="#fff" stroke-width="0.7"></circle></g><g class="key-Burkina-Faso_0"><circle cx="327.00" cy="196.00" r="2.71" fill="#5675c1" opacity="0.8" stroke="#333" stroke-width="0.7"></circle></g><g class="key-Chile_0"><circle cx="361.00" cy="252.00" r="2.69" fill="#69c487" opacity="0.8" stroke="#333" stroke-width="0.7"></circle></g><g class="key-Niger_0"><circle cx="202.00" cy="235.00" r="2.68" fill="#5675c1" opacity="0.8" stroke="#333" stroke-width="0.7"></circle></g><g class="key-Mali_0"><circle cx="315.00" cy="223.00" r="2.66" fill="#5675c1" opacity="0.8" stroke="#333" stroke-width="0.7"></circle></g><g class="key-Netherlands_0"><circle cx="383.00" cy="195.00" r="2.66" fill="#ffd336" opacity="0.8" stroke="#fff" stroke-width="0.7"></circle></g><g class="key-Kazakhstan_0"><circle cx="532.00" cy="196.00" r="2.65" fill="#d14e5b" opacity="0.8" stroke="#fff" stroke-width="0.7"></circle></g><g class="key-Malawi_0"><circle cx="309.00" cy="281.00" r="2.64" fill="#5675c1" opacity="0.8" stroke="#fff" stroke-width="0.7"></circle></g><g class="key-Guatemala_0"><circle cx="315.00" cy="271.00" r="2.60" fill="#4d824b" opacity="0.8" stroke="#fff" stroke-width="0.7"></circle></g><g class="key-Ecuador_0"><circle cx="360.00" cy="223.00" r="2.58" fill="#69c487" opacity="0.8" stroke="#333" stroke-width="0.7"></circle></g><g class="key-Cambodia_0"><circle cx="399.00" cy="193.00" r="2.56" fill="#d14e5b" opacity="0.8" stroke="#fff" stroke-width="0.7"></circle></g><g class="key-Zambia_0"><circle cx="283.00" cy="302.00" r="2.55" fill="#5675c1" opacity="0.8" stroke="#fff" stroke-width="0.7"></circle></g><g class="key-Senegal_0"><circle cx="239.00" cy="281.00" r="2.51" fill="#5675c1" opacity="0.8" stroke="#333" stroke-width="0.7"></circle></g><g class="key-Zimbabwe_0"><circle cx="261.00" cy="278.00" r="2.50" fill="#5675c1" opacity="0.8" stroke="#fff" stroke-width="0.7"></circle></g><g class="key-Chad_0"><circle cx="303.00" cy="189.00" r="2.45" fill="#5675c1" opacity="0.8" stroke="#fff" stroke-width="0.7"></circle></g><g class="key-Rwanda_0"><circle cx="321.00" cy="253.00" r="2.42" fill="#5675c1" opacity="0.8" stroke="#fff" stroke-width="0.7"></circle></g><g class="key-Greece_0"><circle cx="402.00" cy="227.00" r="2.41" fill="#ffd336" opacity="0.8" stroke="#fff" stroke-width="0.7"></circle></g><g class="key-Cuba_0"><circle cx="301.00" cy="330.00" r="2.40" fill="#4d824b" opacity="0.8" stroke="#fff" stroke-width="0.7"></circle></g><g class="key-Belgium_0"><circle cx="376.00" cy="212.00" r="2.38" fill="#ffd336" opacity="0.8" stroke="#fff" stroke-width="0.7"></circle></g><g class="key-Tunisia_0"><circle cx="410.00" cy="242.00" r="2.38" fill="#5675c1" opacity="0.8" stroke="#fff" stroke-width="0.7"></circle></g><g class="key-Guinea_0"><circle cx="270.00" cy="219.00" r="2.38" fill="#5675c1" opacity="0.8" stroke="#333" stroke-width="0.7"></circle></g><g class="key-Portugal_0"><circle cx="412.00" cy="236.00" r="2.38" fill="#ffd336" opacity="0.8" stroke="#fff" stroke-width="0.7"></circle></g><g class="key-Czech-Republic_0"><circle cx="370.00" cy="182.00" r="2.37" fill="#ffd336" opacity="0.8" stroke="#fff" stroke-width="0.7"></circle></g><g class="key-Bolivia_0"><circle cx="287.00" cy="273.00" r="2.36" fill="#69c487" opacity="0.8" stroke="#fff" stroke-width="0.7"></circle></g><g class="key-Haiti_0"><circle cx="200.00" cy="248.00" r="2.36" fill="#4d824b" opacity="0.8" stroke="#333" stroke-width="0.7"></circle></g><g class="key-Dominican-Republic_0"><circle cx="392.00" cy="288.00" r="2.36" fill="#4d824b" opacity="0.8" stroke="#fff" stroke-width="0.7"></circle></g><g class="key-Hungary_0"><circle cx="356.00" cy="226.00" r="2.34" fill="#ffd336" opacity="0.8" stroke="#fff" stroke-width="0.7"></circle></g><g class="key-Benin_0"><circle cx="288.00" cy="235.00" r="2.32" fill="#5675c1" opacity="0.8" stroke="#333" stroke-width="0.7"></circle></g><g class="key-Sweden_0"><circle cx="370.00" cy="238.00" r="2.32" fill="#ffd336" opacity="0.8" stroke="#fff" stroke-width="0.7"></circle></g><g class="key-Azerbaijan_0"><circle cx="489.00" cy="252.00" r="2.32" fill="#d14e5b" opacity="0.8" stroke="#333" stroke-width="0.7"></circle></g><g class="key-Belarus_0"><circle cx="469.00" cy="184.00" r="2.32" fill="#ffd336" opacity="0.8" stroke="#333" stroke-width="0.7"></circle></g><g class="key-Burundi_0"><circle cx="244.00" cy="313.00" r="2.29" fill="#5675c1" opacity="0.8" stroke="#333" stroke-width="0.7"></circle></g><g class="key-Austria_0"><circle cx="430.00" cy="207.00" r="2.27" fill="#ffd336" opacity="0.8" stroke="#fff" stroke-width="0.7"></circle></g><g class="key-United-Arab-Emirates_0"><circle cx="104.00" cy="200.00" r="2.25" fill="#d14e5b" opacity="0.8" stroke="#333" stroke-width="0.7"></circle></g><g class="key-Honduras_0"><circle cx="295.00" cy="247.00" r="2.25" fill="#4d824b" opacity="0.8" stroke="#fff" stroke-width="0.7"></circle></g><g class="key-Israel_0"><circle cx="420.00" cy="200.00" r="2.23" fill="#d14e5b" opacity="0.8" stroke="#fff" stroke-width="0.7"></circle></g><g class="key-Switzerland_0"><circle cx="338.00" cy="228.00" r="2.23" fill="#ffd336" opacity="0.8" stroke="#fff" stroke-width="0.7"></circle></g><g class="key-Bulgaria_0"><circle cx="392.00" cy="158.00" r="2.21" fill="#ffd336" opacity="0.8" stroke="#333" stroke-width="0.7"></circle></g><g class="key-Hong-Kong_0"><circle cx="502.00" cy="225.00" r="2.20" fill="#d14e5b" opacity="0.8" stroke="#fff" stroke-width="0.7"></circle></g><g class="key-Tajikistan_0"><circle cx="441.00" cy="433.00" r="2.20" fill="#d14e5b" opacity="0.8" stroke="#333" stroke-width="0.7"></circle></g><g class="key-Paraguay_0"><circle cx="332.00" cy="242.00" r="2.18" fill="#69c487" opacity="0.8" stroke="#fff" stroke-width="0.7"></circle></g><g class="key-Jordan_0"><circle cx="345.00" cy="213.00" r="2.17" fill="#d14e5b" opacity="0.8" stroke="#fff" stroke-width="0.7"></circle></g><g class="key-Libya_0"><circle cx="278.00" cy="164.00" r="2.16" fill="#5675c1" opacity="0.8" stroke="#333" stroke-width="0.7"></circle></g><g class="key-Laos_0"><circle cx="459.00" cy="132.00" r="2.16" fill="#d14e5b" opacity="0.8" stroke="#333" stroke-width="0.7"></circle></g><g class="key-Togo_0"><circle cx="233.00" cy="227.00" r="2.16" fill="#5675c1" opacity="0.8" stroke="#333" stroke-width="0.7"></circle></g><g class="key-El-Salvador_0"><circle cx="310.00" cy="257.00" r="2.15" fill="#4d824b" opacity="0.8" stroke="#fff" stroke-width="0.7"></circle></g><g class="key-Sierra-Leone_0"><circle cx="288.00" cy="246.00" r="2.15" fill="#5675c1" opacity="0.8" stroke="#fff" stroke-width="0.7"></circle></g><g class="key-Nicaragua_0"><circle cx="260.00" cy="246.00" r="2.14" fill="#4d824b" opacity="0.8" stroke="#333" stroke-width="0.7"></circle></g><g class="key-Denmark_0"><circle cx="370.00" cy="221.00" r="2.12" fill="#ffd336" opacity="0.8" stroke="#fff" stroke-width="0.7"></circle></g><g class="key-Kyrgyzstan_0"><circle cx="300.00" cy="253.00" r="2.11" fill="#d14e5b" opacity="0.8" stroke="#fff" stroke-width="0.7"></circle></g><g class="key-Slovakia_0"><circle cx="487.00" cy="202.00" r="2.11" fill="#ffd336" opacity="0.8" stroke="#333" stroke-width="0.7"></circle></g><g class="key-Finland_0"><circle cx="397.00" cy="204.00" r="2.10" fill="#ffd336" opacity="0.8" stroke="#fff" stroke-width="0.7"></circle></g><g class="key-Singapore_0"><circle cx="540.00" cy="282.00" r="2.10" fill="#d14e5b" opacity="0.8" stroke="#333" stroke-width="0.7"></circle></g><g class="key-Turkmenistan_0"><circle cx="715.00" cy="329.00" r="2.09" fill="#d14e5b" opacity="0.8" stroke="#333" stroke-width="0.7"></circle></g><g class="key-Norway_0"><circle cx="400.00" cy="208.00" r="2.08" fill="#ffd336" opacity="0.8" stroke="#fff" stroke-width="0.7"></circle></g><g class="key-Costa-Rica_0"><circle cx="372.00" cy="210.00" r="2.07" fill="#4d824b" opacity="0.8" stroke="#fff" stroke-width="0.7"></circle></g><g class="key-Central-African-Republic_0"><circle cx="118.00" cy="305.00" r="2.06" fill="#5675c1" opacity="0.8" stroke="#333" stroke-width="0.7"></circle></g><g class="key-Ireland_0"><circle cx="425.00" cy="219.00" r="2.06" fill="#ffd336" opacity="0.8" stroke="#fff" stroke-width="0.7"></circle></g><g class="key-New-Zealand_0"><circle cx="324.00" cy="273.00" r="2.05" fill="#a652ba" opacity="0.8" stroke="#fff" stroke-width="0.7"></circle></g><g class="key-Croatia_0"><circle cx="358.00" cy="257.00" r="2.05" fill="#ffd336" opacity="0.8" stroke="#fff" stroke-width="0.7"></circle></g><g class="key-Liberia_0"><circle cx="218.00" cy="264.00" r="2.04" fill="#5675c1" opacity="0.8" stroke="#fff" stroke-width="0.7"></circle></g><g class="key-Congo_0"><circle cx="306.00" cy="180.00" r="2.04" fill="#5675c1" opacity="0.8" stroke="#fff" stroke-width="0.7"></circle></g><g class="key-Lebanon_0"><circle cx="281.00" cy="316.00" r="2.04" fill="#d14e5b" opacity="0.8" stroke="#fff" stroke-width="0.7"></circle></g><g class="key-Georgia_0"><circle cx="440.00" cy="78.00" r="2.04" fill="#d14e5b" opacity="0.8" stroke="#fff" stroke-width="0.7"></circle></g><g class="key-Bosnia-and-Herzegovina_0"><circle cx="641.00" cy="98.00" r="2.01" fill="#ffd336" opacity="0.8" stroke="#333" stroke-width="0.7"></circle></g><g class="key-Mauritania_0"><circle cx="331.00" cy="138.00" r="2.01" fill="#5675c1" opacity="0.8" stroke="#333" stroke-width="0.7"></circle></g><g class="key-Panama_0"><circle cx="398.00" cy="227.00" r="2.01" fill="#4d824b" opacity="0.8" stroke="#fff" stroke-width="0.7"></circle></g><g class="key-Moldova_0"><circle cx="334.00" cy="222.00" r="2.00" fill="#ffd336" opacity="0.8" stroke="#fff" stroke-width="0.7"></circle></g><g class="key-Uruguay_0"><circle cx="343.00" cy="292.00" r="1.99" fill="#69c487" opacity="0.8" stroke="#fff" stroke-width="0.7"></circle></g><g class="key-Lithuania_0"><circle cx="566.00" cy="192.00" r="1.98" fill="#ffd336" opacity="0.8" stroke="#333" stroke-width="0.7"></circle></g><g class="key-Albania_0"><circle cx="391.00" cy="76.00" r="1.98" fill="#ffd336" opacity="0.8" stroke="#333" stroke-width="0.7"></circle></g><g class="key-Armenia_0"><circle cx="648.00" cy="280.00" r="1.97" fill="#d14e5b" opacity="0.8" stroke="#333" stroke-width="0.7"></circle></g><g class="key-Kuwait_0"><circle cx="130.00" cy="293.00" r="1.96" fill="#d14e5b" opacity="0.8" stroke="#333" stroke-width="0.7"></circle></g><g class="key-Oman_0"><circle cx="469.00" cy="315.00" r="1.96" fill="#d14e5b" opacity="0.8" stroke="#333" stroke-width="0.7"></circle></g><g class="key-Mongolia_0"><circle cx="422.00" cy="224.00" r="1.96" fill="#d14e5b" opacity="0.8" stroke="#fff" stroke-width="0.7"></circle></g><g class="key-Jamaica_0"><circle cx="300.00" cy="283.00" r="1.95" fill="#4d824b" opacity="0.8" stroke="#fff" stroke-width="0.7"></circle></g><g class="key-Namibia_0"><circle cx="292.00" cy="306.00" r="1.93" fill="#5675c1" opacity="0.8" stroke="#fff" stroke-width="0.7"></circle></g><g class="key-Lesotho_0"><circle cx="418.00" cy="218.00" r="1.92" fill="#5675c1" opacity="0.8" stroke="#fff" stroke-width="0.7"></circle></g><g class="key-Latvia_0"><circle cx="552.00" cy="276.00" r="1.92" fill="#ffd336" opacity="0.8" stroke="#fff" stroke-width="0.7"></circle></g><g class="key-Botswana_0"><circle cx="553.00" cy="245.00" r="1.91" fill="#5675c1" opacity="0.8" stroke="#333" stroke-width="0.7"></circle></g><g class="key-Macedonia_0"><circle cx="316.00" cy="288.00" r="1.91" fill="#ffd336" opacity="0.8" stroke="#fff" stroke-width="0.7"></circle></g><g class="key-Slovenia_0"><circle cx="369.00" cy="199.00" r="1.91" fill="#ffd336" opacity="0.8" stroke="#fff" stroke-width="0.7"></circle></g><g class="key-Qatar_0"><circle cx="85.00" cy="280.00" r="1.91" fill="#d14e5b" opacity="0.8" stroke="#333" stroke-width="0.7"></circle></g><g class="key-Gambia_0"><circle cx="241.00" cy="322.00" r="1.90" fill="#5675c1" opacity="0.8" stroke="#fff" stroke-width="0.7"></circle></g><g class="key-Guinea__002dBissau_0"><circle cx="216.00" cy="221.00" r="1.88" fill="#5675c1" opacity="0.8" stroke="#fff" stroke-width="0.7"></circle></g><g class="key-Gabon_0"><circle cx="300.00" cy="252.00" r="1.88" fill="#5675c1" opacity="0.8" stroke="#fff" stroke-width="0.7"></circle></g><g class="key-Bahrain_0"><circle cx="249.00" cy="292.00" r="1.87" fill="#d14e5b" opacity="0.8" stroke="#333" stroke-width="0.7"></circle></g><g class="key-Trinidad-and-Tobago_0"><circle cx="415.00" cy="271.00" r="1.87" fill="#4d824b" opacity="0.8" stroke="#fff" stroke-width="0.7"></circle></g><g class="key-Estonia_0"><circle cx="518.00" cy="243.00" r="1.87" fill="#ffd336" opacity="0.8" stroke="#fff" stroke-width="0.7"></circle></g><g class="key-Mauritius_0"><circle cx="410.00" cy="300.00" r="1.87" fill="#5675c1" opacity="0.8" stroke="#fff" stroke-width="0.7"></circle></g><g class="key-Swaziland_0"><circle cx="445.00" cy="273.00" r="1.86" fill="#5675c1" opacity="0.8" stroke="#333" stroke-width="0.7"></circle></g><g class="key-Cyprus_0"><circle cx="415.00" cy="293.00" r="1.85" fill="#ffd336" opacity="0.8" stroke="#fff" stroke-width="0.7"></circle></g><g class="key-Djibouti_0"><circle cx="212.00" cy="218.00" r="1.84" fill="#5675c1" opacity="0.8" stroke="#fff" stroke-width="0.7"></circle></g><g class="key-Comoros_0"><circle cx="255.00" cy="289.00" r="1.83" fill="#5675c1" opacity="0.8" stroke="#fff" stroke-width="0.7"></circle></g><g class="key-Equatorial-Guinea_0"><circle cx="631.00" cy="325.00" r="1.83" fill="#5675c1" opacity="0.8" stroke="#333" stroke-width="0.7"></circle></g><g class="key-Montenegro_0"><circle cx="474.00" cy="498.00" r="1.82" fill="#ffd336" opacity="0.8" stroke="#333" stroke-width="0.7"></circle></g><g class="key-Luxembourg_0"><circle cx="313.00" cy="307.00" r="1.82" fill="#ffd336" opacity="0.8" stroke="#fff" stroke-width="0.7"></circle></g><g class="key-Cape-Verde_0"><circle cx="425.00" cy="231.00" r="1.81" fill="#5675c1" opacity="0.8" stroke="#fff" stroke-width="0.7"></circle></g><g class="key-Malta_0"><circle cx="528.00" cy="200.00" r="1.81" fill="#ffd336" opacity="0.8" stroke="#fff" stroke-width="0.7"></circle></g><g class="key-Iceland_0"><circle cx="382.00" cy="263.00" r="1.80" fill="#ffd336" opacity="0.8" stroke="#fff" stroke-width="0.7"></circle></g><g class="key-Barbados_0"><circle cx="326.00" cy="325.00" r="1.80" fill="#4d824b" opacity="0.8" stroke="#fff" stroke-width="0.7"></circle></g><g class="key-Saint-Lucia_0"><circle cx="350.00" cy="341.00" r="1.79" fill="#4d824b" opacity="0.8" stroke="#333" stroke-width="0.7"></circle></g><g class="key-Sao-Tome-and-Principe_0"><circle cx="269.00" cy="362.00" r="1.79" fill="#5675c1" opacity="0.8" stroke="#333" stroke-width="0.7"></circle></g><g class="key-Seychelles_0"><circle cx="399.00" cy="232.00" r="1.79" fill="#5675c1" opacity="0.8" stroke="#fff" stroke-width="0.7"></circle></g><g class="key-Dominica_0"><circle cx="408.00" cy="269.00" r="1.79" fill="#4d824b" opacity="0.8" stroke="#fff" stroke-width="0.7"></circle></g><g class="key-Czechoslovakia_0"><circle cx="343.00" cy="188.00" r="1.78" fill="#ffd336" opacity="0.8" stroke="#fff" stroke-width="0.7"></circle></g><g class="key-Yemen_0"><circle cx="268.00" cy="276.00" r="1.78" fill="#d14e5b" opacity="0.8" stroke="#fff" stroke-width="0.7"></circle></g><g fill="#333" class="backgroundLabels"><text x="512.00" y="184.16" font-size="14.30">China</text><text x="407.00" y="216.71" font-size="14.10">India</text><text x="333.00" y="237.22" font-size="11.77">United States</text><text x="425.00" y="296.22" font-size="11.60">Indonesia</text><text x="397.00" y="268.96" font-size="11.49">Brazil</text><text x="358.00" y="284.24" font-size="11.44">Pakistan</text><text x="329.00" y="266.46" font-size="11.41">Nigeria</text><text x="393.00" y="186.76" font-size="11.37">Bangladesh</text><text x="343.00" y="204.98" font-size="11.35">Russia</text><text x="377.00" y="297.21" font-size="11.21">Egypt</text><text x="425.00" y="233.46" font-size="11.18">Turkey</text><text x="167.00" y="262.56" font-size="11.17">Democratic Republic of Congo</text><text x="475.00" y="229.59" font-size="11.17">Thailand</text><text x="421.00" y="166.76" font-size="11.15">France</text><text x="398.00" y="200.84" font-size="11.15">Italy</text><text x="298.00" y="309.18" font-size="11.12">Tanzania</text><text x="556.00" y="143.19" font-size="11.12">South Korea</text><text x="316.00" y="175.32" font-size="11.11">Ukraine</text><text x="289.00" y="283.35" font-size="11.11">Kenya</text><text x="295.00" y="324.58" font-size="11.09">Uganda</text><text x="202.00" y="339.66" font-size="11.08">Afghanistan</text><text x="421.00" y="248.83" font-size="11.07">Malaysia</text><text x="512.00" y="262.88" font-size="11.07">Uzbekistan</text><text x="465.00" y="89.15" font-size="11.05">Romania</text><text x="327.00" y="192.29" font-size="11.04">Burkina Faso</text><text x="361.00" y="248.31" font-size="11.04">Chile</text><text x="202.00" y="231.32" font-size="11.04">Niger</text><text x="315.00" y="219.34" font-size="11.04">Mali</text><text x="360.00" y="219.42" font-size="11.04">Ecuador</text><text x="239.00" y="277.49" font-size="11.03">Senegal</text><text x="270.00" y="215.62" font-size="11.03">Guinea</text><text x="200.00" y="244.64" font-size="11.03">Haiti</text><text x="288.00" y="231.68" font-size="11.02">Benin</text><text x="489.00" y="248.68" font-size="11.02">Azerbaijan</text><text x="469.00" y="180.68" font-size="11.02">Belarus</text><text x="244.00" y="309.71" font-size="11.02">Burundi</text><text x="104.00" y="196.75" font-size="11.02">United Arab Emirates</text><text x="392.00" y="154.79" font-size="11.02">Bulgaria</text><text x="441.00" y="429.80" font-size="11.02">Tajikistan</text><text x="278.00" y="160.84" font-size="11.02">Libya</text><text x="459.00" y="128.84" font-size="11.02">Laos</text><text x="233.00" y="223.84" font-size="11.02">Togo</text><text x="260.00" y="242.86" font-size="11.01">Nicaragua</text><text x="487.00" y="198.89" font-size="11.01">Slovakia</text><text x="540.00" y="278.90" font-size="11.01">Singapore</text><text x="648.15" y="325.91" font-size="11.01">Turkmenistan</text><text x="118.00" y="301.94" font-size="11.01">Central African Republic</text><text x="520.56" y="94.99" font-size="11.01">Bosnia and Herzegovina</text><text x="331.00" y="134.99" font-size="11.01">Mauritania</text><text x="566.00" y="189.02" font-size="11.01">Lithuania</text><text x="391.00" y="87.61" font-size="11.01">Albania</text><text x="648.00" y="277.03" font-size="11.01">Armenia</text><text x="130.00" y="290.04" font-size="11.01">Kuwait</text><text x="469.00" y="312.04" font-size="11.01">Oman</text><text x="553.00" y="242.09" font-size="11.00">Botswana</text><text x="85.00" y="277.09" font-size="11.00">Qatar</text><text x="249.00" y="289.13" font-size="11.00">Bahrain</text><text x="445.00" y="270.14" font-size="11.00">Swaziland</text><text x="542.55" y="322.17" font-size="11.00">Equatorial Guinea</text><text x="474.00" y="495.18" font-size="11.00">Montenegro</text><text x="350.00" y="338.21" font-size="11.00">Saint Lucia</text><text x="269.00" y="359.21" font-size="11.00">Sao Tome and Principe</text></g></g><g style="cursor: pointer;" class="ScatterColorLegend clickable"><g class="legendMark"><rect x="735" y="74.1" width="43.256" height="17.6" fill="#fff" opacity="0"></rect>,<rect x="735" y="79.6" width="6" height="6" fill="#5675c1"></rect>,<text font-size="12.60" x="746.0" y="86.7"><tspan x="746" y="86.67999999999999">Africa</tspan></text></g><g class="legendMark"><rect x="735" y="91.69999999999999" width="35.57" height="17.6" fill="#fff" opacity="0"></rect>,<rect x="735" y="97.19999999999999" width="6" height="6" fill="#d14e5b"></rect>,<text font-size="12.60" x="746.0" y="104.3"><tspan x="746" y="104.27999999999999">Asia</tspan></text></g><g class="legendMark"><rect x="735" y="109.3" width="51.824" height="17.6" fill="#fff" opacity="0"></rect>,<rect x="735" y="114.8" width="6" height="6" fill="#ffd336"></rect>,<text font-size="12.60" x="746.0" y="121.9"><tspan x="746" y="121.88">Europe</tspan></text></g><g class="legendMark"><rect x="735" y="126.9" width="91.64" height="17.6" fill="#fff" opacity="0"></rect>,<rect x="735" y="132.4" width="6" height="6" fill="#4d824b"></rect>,<text font-size="12.60" x="746.0" y="139.5"><tspan x="746" y="139.48">North America</tspan></text></g><g class="legendMark"><rect x="735" y="144.5" width="58.124" height="17.6" fill="#fff" opacity="0"></rect>,<rect x="735" y="150" width="6" height="6" fill="#a652ba"></rect>,<text font-size="12.60" x="746.0" y="157.1"><tspan x="746" y="157.07999999999998">Oceania</tspan></text></g><g class="legendMark"><rect x="735" y="162.1" width="93.908" height="17.6" fill="#fff" opacity="0"></rect>,<rect x="735" y="167.6" width="6" height="6" fill="#69c487"></rect>,<text font-size="12.60" x="746.0" y="174.7"><tspan x="746" y="174.67999999999998">South America</tspan></text></g></g></g><g style="fill: #777;" class="SourcesFooter"><g style="fill: #777;" class="clickable"><text font-size="12.60" x="15.0" y="567.0"><tspan x="15" y="566.98">Source: CEPII imports - Two Centuries of Bilateral Trade and Gravity Data: 1827-2014 (2016), Maddison Project Database (2018)</tspan></text></g><text font-size="12.60" x="15.0" y="582.5"><tspan x="15" y="582.48"><a target='_blank' style='fill: #777;' href='https://ourworldindata.org'>OurWorldInData.org</a> • <a style="fill: #777;" href="http://creativecommons.org/licenses/by-sa/4.0/deed.en_US" target="_blank">CC BY-SA</a></tspan></text></g></g></svg>