<svg xmlns="http://www.w3.org/2000/svg" version="1.1" style="font-family: 'Helvetica Neue', Helvetica, Arial, sans-serif; font-size: 24px; background-color: white;" width="1200" height="630"><g class="ChartTab"><g><g class="AxisBoxView"><g class="HorizontalAxis"><text font-size="16.80" x="418.7" y="596.6"><tspan x="418.692" y="596.64">LivingStandardGDPperCapita</tspan></text><text x="182" y="573.2" fill="#666" text-anchor="middle" font-size="21.6">15,000</text><text x="300.6" y="573.2" fill="#666" text-anchor="middle" font-size="21.6">20,000</text><text x="419.1" y="573.2" fill="#666" text-anchor="middle" font-size="21.6">25,000</text><text x="537.7" y="573.2" fill="#666" text-anchor="middle" font-size="21.6">30,000</text><text x="656.2" y="573.2" fill="#666" text-anchor="middle" font-size="21.6">35,000</text><text x="774.8" y="573.2" fill="#666" text-anchor="middle" font-size="21.6">40,000</text><text x="893.4" y="573.2" fill="#666" text-anchor="middle" font-size="21.6">45,000</text><text x="1011.9" y="573.2" fill="#666" text-anchor="middle" font-size="21.6">50,000</text></g><g class="VerticalAxis"><text font-size="16.80" x="-454.9" y="28.4" transform="rotate(-90)"><tspan x="-454.924" y="28.439999999999998">Standard deviation of life satisfaction</tspan></text><text x="72.04" y="503.1" fill="#666" dominant-baseline="middle" text-anchor="end" font-size="21.6">1.4</text><text x="72.04" y="416" fill="#666" dominant-baseline="middle" text-anchor="end" font-size="21.6">1.6</text><text x="72.04" y="328.9" fill="#666" dominant-baseline="middle" text-anchor="end" font-size="21.6">1.8</text><text x="72.04" y="241.8" fill="#666" dominant-baseline="middle" text-anchor="end" font-size="21.6">2</text><text x="72.04" y="154.8" fill="#666" dominant-baseline="middle" text-anchor="end" font-size="21.6">2.2</text><text x="72.04" y="67.7" fill="#666" dominant-baseline="middle" text-anchor="end" font-size="21.6">2.4</text></g><g class="AxisGridLines"><line x1="77.04" y1="503.1" x2="1044.48" y2="503.1" stroke="#ddd" stroke-dasharray="3,2"></line><line x1="77.04" y1="416" x2="1044.48" y2="416" stroke="#ddd" stroke-dasharray="3,2"></line><line x1="77.04" y1="328.9" x2="1044.48" y2="328.9" stroke="#ddd" stroke-dasharray="3,2"></line><line x1="77.04" y1="241.8" x2="1044.48" y2="241.8" stroke="#ddd" stroke-dasharray="3,2"></line><line x1="77.04" y1="154.8" x2="1044.48" y2="154.8" stroke="#ddd" stroke-dasharray="3,2"></line><line x1="77.04" y1="67.7" x2="1044.48" y2="67.7" stroke="#ddd" stroke-dasharray="3,2"></line></g><g class="AxisGridLines"><line x1="182" y1="546.60" x2="182" y2="35.00" stroke="#ddd" stroke-dasharray="3,2"></line><line x1="300.6" y1="546.60" x2="300.6" y2="35.00" stroke="#ddd" stroke-dasharray="3,2"></line><line x1="419.1" y1="546.60" x2="419.1" y2="35.00" stroke="#ddd" stroke-dasharray="3,2"></line><line x1="537.7" y1="546.60" x2="537.7" y2="35.00" stroke="#ddd" stroke-dasharray="3,2"></line><line x1="656.2" y1="546.60" x2="656.2" y2="35.00" stroke="#ddd" stroke-dasharray="3,2"></line><line x1="774.8" y1="546.60" x2="774.8" y2="35.00" stroke="#ddd" stroke-dasharray="3,2"></line><line x1="893.4" y1="546.60" x2="893.4" y2="35.00" stroke="#ddd" stroke-dasharray="3,2"></line><line x1="1011.9" y1="546.60" x2="1011.9" y2="35.00" stroke="#ddd" stroke-dasharray="3,2"></line></g></g><g clip-path="url(#scatterBounds-309)" class="PointsWithLabels clickable"><rect x="77.03999999999999" y="35" width="967.44" height="511.6" fill="rgba(255,255,255,0)"></rect><defs><clipPath id="scatterBounds-309"><rect x="67.03999999999999" y="25" width="987.44" height="531.6"></rect></clipPath></defs><g class="key-United-States_0"><circle cx="689" cy="315" r="2.0262716342071654" fill="#4d824b" stroke="#ccc" opacity="0.6"></circle><polyline stroke-linecap="round" stroke="#4d824b" points="689,315 765,239 904,318 1044,343" fill="none" stroke-width="1.415077572595482" opacity="0.6"></polyline><polygon points="1041.8849224274045,348.8849224274045 1044,340.8849224274045 1046.1150775725955,345.11507757259545" transform="rotate(100.12467250628899, 1044, 343)" cx="1044" cy="343" r="2.115077572595482" fill="#4d824b" stroke="#ccc" stroke-width="0.2" opacity="0.6"></polygon></g><g class="key-France_0"><circle cx="354" cy="209" r="1.4834658997530608" fill="#ffd336" stroke="#ccc" opacity="0.6"></circle><polyline stroke-linecap="round" stroke="#ffd336" points="354,209 426,252 564,244 641,273" fill="none" stroke-width="0.8133550755966039" opacity="0.6"></polyline><polygon points="639.4866449244034,279.4866449244034 641,271.4866449244034 642.5133550755967,274.51335507559656" transform="rotate(110.63754792492074, 641, 273)" cx="641" cy="273" r="1.5133550755966039" fill="#ffd336" stroke="#ccc" stroke-width="0.2" opacity="0.6"></polygon></g><g class="key-Italy_0"><circle cx="294" cy="35" r="1.492905804261748" fill="#ffd336" stroke="#ccc" opacity="0.6"></circle><polyline stroke-linecap="round" stroke="#ffd336" points="294,35 430,213 605,193 597,354" fill="none" stroke-width="0.8023920835757474" opacity="0.6"></polyline><polygon points="595.4976079164243,360.4976079164243 597,352.4976079164243 598.5023920835757,355.5023920835758" transform="rotate(-177.15534590074876, 597, 354)" cx="597" cy="354" r="1.5023920835757476" fill="#ffd336" stroke="#ccc" stroke-width="0.2" opacity="0.6"></polygon></g><g class="key-Spain_0"><circle cx="151" cy="238" r="1.4078747544688244" fill="#ffd336" stroke="#ccc" opacity="0.6"></circle><polyline stroke-linecap="round" stroke="#ffd336" points="151,238 245,286 324,255 438,237 466,317 654,458" fill="none" stroke-width="0.7410543348232375" opacity="0.6"></polyline><polygon points="652.5589456651768,464.55894566517674 654,456.55894566517674 655.4410543348233,459.4410543348232" transform="rotate(126.86989872402458, 654, 458)" cx="654" cy="458" r="1.4410543348232374" fill="#ffd336" stroke="#ccc" stroke-width="0.2" opacity="0.6"></polygon></g><g class="key-Canada_0"><circle cx="727" cy="292" r="1.3703971351629898" fill="#4d824b" stroke="#ccc" opacity="0.6"></circle><polyline stroke-linecap="round" stroke="#4d824b" points="727,292 803,368" fill="none" stroke-width="0.6811295281021692" opacity="0.6"></polyline><polygon points="801.6188704718978,374.6188704718978 803,366.6188704718978 804.3811295281022,369.3811295281022" transform="rotate(135.00000114727274, 803, 368)" cx="803" cy="368" r="1.3811295281021692" fill="#4d824b" stroke="#ccc" stroke-width="0.2" opacity="0.6"></polygon></g><g class="key-Netherlands_0"><circle cx="450" cy="426" r="1.2688778581157956" fill="#ffd336" stroke="#ccc" opacity="0.6"></circle><polyline stroke-linecap="round" stroke="#ffd336" points="450,426 726,531" fill="none" stroke-width="0.5755561321275664" opacity="0.6"></polyline><polygon points="724.7244438678724,537.7244438678724 726,529.7244438678724 727.2755561321276,532.2755561321276" transform="rotate(110.828556732063, 726, 531)" cx="726" cy="531" r="1.2755561321275664" fill="#ffd336" stroke="#ccc" stroke-width="0.2" opacity="0.6"></polygon></g><g class="key-Portugal_0"><circle cx="172" cy="175" r="1.2277386624780762" fill="#ffd336" stroke="#ccc" opacity="0.6"></circle><polyline stroke-linecap="round" stroke="#ffd336" points="172,175 343,260" fill="none" stroke-width="0.5310402197089328" opacity="0.6"></polyline><polygon points="341.7689597802911,266.7689597802911 343,258.7689597802911 344.231040219709,261.231040219709" transform="rotate(116.43087025842857, 343, 260)" cx="343" cy="260" r="1.2310402197089327" fill="#ffd336" stroke="#ccc" stroke-width="0.2" opacity="0.6"></polygon></g><g class="key-Belgium_0"><circle cx="337" cy="326" r="1.2270225933512346" fill="#ffd336" stroke="#ccc" opacity="0.6"></circle><polyline stroke-linecap="round" stroke="#ffd336" points="337,326 443,288 618,183" fill="none" stroke-width="0.5297430133764214" opacity="0.6"></polyline><polygon points="616.7702569866236,189.77025698662356 618,181.77025698662356 619.2297430133765,184.2297430133764" transform="rotate(59.03624396963517, 618, 183)" cx="618" cy="183" r="1.2297430133764213" fill="#ffd336" stroke="#ccc" stroke-width="0.2" opacity="0.6"></polygon></g><g class="key-Sweden_0"><circle cx="542" cy="326" r="1.2177841392249804" fill="#ffd336" stroke="#ccc" opacity="0.6"></circle><polyline stroke-linecap="round" stroke="#ffd336" points="542,326 667,303 754,412" fill="none" stroke-width="0.5200699317409363" opacity="0.6"></polyline><polygon points="752.7799300682591,418.7799300682591 754,410.7799300682591 755.2200699317409,413.22006993174097" transform="rotate(141.40435392808308, 754, 412)" cx="754" cy="412" r="1.2200699317409363" fill="#ffd336" stroke="#ccc" stroke-width="0.2" opacity="0.6"></polygon></g><g class="key-Austria_0"><circle cx="424" cy="312" r="1.2063693323154452" fill="#ffd336" stroke="#ccc" opacity="0.6"></circle><polyline stroke-linecap="round" stroke="#ffd336" points="424,312 672,276" fill="none" stroke-width="0.5094774372011144" opacity="0.6"></polyline><polygon points="670.7905225627989,282.7905225627989 672,274.7905225627989 673.209477437201,277.20947743720114" transform="rotate(81.74056271477838, 672, 276)" cx="672" cy="276" r="1.2094774372011143" fill="#ffd336" stroke="#ccc" stroke-width="0.2" opacity="0.6"></polygon></g><circle cx="664" cy="322" r="1.1814404502665834" fill="#ffd336" opacity="0.8"></circle><g class="key-Finland_0"><circle cx="429" cy="439" r="1.1792125990928544" fill="#ffd336" stroke="#ccc" opacity="0.6"></circle><polyline stroke-linecap="round" stroke="#ffd336" points="429,439 619,392 660,352" fill="none" stroke-width="0.48057514590280964" opacity="0.6"></polyline><polygon points="658.8194248540972,358.8194248540972 660,350.8194248540972 661.1805751459028,353.1805751459028" transform="rotate(45.70731975697952, 660, 352)" cx="660" cy="352" r="1.1805751459028095" fill="#ffd336" stroke="#ccc" stroke-width="0.2" opacity="0.6"></polygon></g><g class="key-Norway_0"><circle cx="410" cy="303" r="1.167174477809667" fill="#ffd336" stroke="#ccc" opacity="0.6"></circle><polyline stroke-linecap="round" stroke="#ffd336" points="410,303 455,342 611,299" fill="none" stroke-width="0.4705073193284314" opacity="0.6"></polyline><polygon points="609.8294926806716,305.8294926806716 611,297.8294926806716 612.1705073193284,300.17050731932846" transform="rotate(74.58960919573641, 611, 299)" cx="611" cy="299" r="1.1705073193284314" fill="#ffd336" stroke="#ccc" stroke-width="0.2" opacity="0.6"></polygon></g><g class="key-Ireland_0"><circle cx="253" cy="274" r="1.1598744572228308" fill="#ffd336" stroke="#ccc" opacity="0.6"></circle><polyline stroke-linecap="round" stroke="#ffd336" points="253,274 623,317" fill="none" stroke-width="0.46267686739245584" opacity="0.6"></polyline><polygon points="621.8373231326076,323.83732313260754 623,315.83732313260754 624.1626768673925,318.16267686739246" transform="rotate(96.62896220969007, 623, 317)" cx="623" cy="317" r="1.162676867392456" fill="#ffd336" stroke="#ccc" stroke-width="0.2" opacity="0.6"></polygon></g><g class="key-Malta_0"><circle cx="77" cy="279" r="1.1115077572595482" fill="#ffd336" stroke="#ccc" opacity="0.6"></circle><polyline stroke-linecap="round" stroke="#ffd336" points="77,279 177,245 372,407" fill="none" stroke-width="0.41251348131594107" opacity="0.6"></polyline><polygon points="370.88748651868406,413.88748651868406 372,405.88748651868406 373.11251348131594,408.11251348131594" transform="rotate(129.718760473946, 372, 407)" cx="372" cy="407" r="1.1125134813159412" fill="#ffd336" stroke="#ccc" stroke-width="0.2" opacity="0.6"></polygon></g><text x="962.6931378775423" y="351.02895319241827" font-size="14.3" font-family="Arial Narrow, Arial, sans-serif" fill="#666">United States</text><text x="645.6791438320997" y="280.59885188803503" font-size="11.67315387656637" font-family="Arial Narrow, Arial, sans-serif" fill="#666">France</text><text x="575.328184736123" y="364.8154894047137" font-size="11.643301198489167" font-family="Arial Narrow, Arial, sans-serif" fill="#666">Italy</text><text x="658" y="466.7440824088188" font-size="11.488164817637662" font-family="Arial Narrow, Arial, sans-serif" fill="#666">Spain</text><text x="806.5355339059328" y="377.2135752330329" font-size="11.356082654200302" font-family="Arial Narrow, Arial, sans-serif" fill="#666">Canada</text><text x="730.6732428881617" y="538.3629766087538" font-size="11.170224933036598" font-family="Arial Narrow, Arial, sans-serif" fill="#666">Netherlands</text><text x="347.4773603699269" y="267.78047250128367" font-size="11.109768026616644" font-family="Arial Narrow, Arial, sans-serif" fill="#666">Portugal</text><text x="622.2874646285627" y="180.42752122286237" font-size="11.10816561416495" font-family="Arial Narrow, Arial, sans-serif" fill="#666">Belgium</text><text x="757.119101116312" y="421.4560898966709" font-size="11.0965011340772" font-family="Arial Narrow, Arial, sans-serif" fill="#666">Sweden</text><text x="664" y="318.09695279573464" font-size="11.054921157400337" font-family="Arial Narrow, Arial, sans-serif" fill="#666">Denmark</text><text x="663.578909741886" y="348.50838073962336" font-size="11.054081378887727" font-family="Arial Narrow, Arial, sans-serif" fill="#666">Finland</text><text x="615.8202361292178" y="297.67134516951046" font-size="11.044605632067531" font-family="Arial Narrow, Arial, sans-serif" fill="#666">Norway</text><text x="627.9665727061754" y="323.09600198945077" font-size="11.037611403952768" font-family="Arial Narrow, Arial, sans-serif" fill="#666">Ireland</text><text x="375.84595186525974" y="415.6954004724528" font-size="11.000603999550867" font-family="Arial Narrow, Arial, sans-serif" fill="#666">Malta</text></g><g style="cursor: pointer;" class="ScatterColorLegend clickable"><g class="legendMark"><rect x="1064.48" y="32.5" width="67.43199999999999" height="21.799999999999997" fill="#fff" opacity="0"></rect>,<rect x="1064.48" y="39" width="8" height="8" fill="#ffd336"></rect>,<text font-size="16.80" x="1077.5" y="48.4"><tspan x="1077.48" y="48.44">Europe</tspan></text></g><g class="legendMark"><rect x="1064.48" y="54.3" width="120.51999999999998" height="21.799999999999997" fill="#fff" opacity="0"></rect>,<rect x="1064.48" y="60.8" width="8" height="8" fill="#4d824b"></rect>,<text font-size="16.80" x="1077.5" y="70.2"><tspan x="1077.48" y="70.24">North America</tspan></text></g></g><line x1="1064.48" y1="80.6" x2="1180" y2="80.6" stroke="#ccc"></line><g class="clickable"><g class="ConnectedScatterLegend"><rect x="1064.48" y="89.6" width="120.51999999999998" height="16.799999999999997" fill="#fff" opacity="0"></rect><text font-size="16.80" x="1064.5" y="103.0" fill="#333"><tspan x="1064.48" y="103.03999999999999">1981</tspan></text><text font-size="16.80" x="1147.4" y="103.0" fill="#333"><tspan x="1147.368" y="103.03999999999999">2007</tspan></text><line x1="1107.112" y1="97.5" x2="1142.368" y2="97.5" stroke="#666" stroke-width="1"></line><circle cx="1107.112" cy="97.5" r="2" fill="#666" stroke="#ccc" stroke-width="0.2"></circle><circle cx="1118.864" cy="97.5" r="2" fill="#666" stroke="#ccc" stroke-width="0.2"></circle><circle cx="1130.616" cy="97.5" r="2" fill="#666" stroke="#ccc" stroke-width="0.2"></circle><polygon points="1139.368,102.5 1142.368,94.5 1145.368,100.5" cx="1142.368" cy="97.5" r="3" fill="#666" stroke="#ccc" stroke-width="0.2" transform="rotate(90, 1142.368, 97.5)"></polygon></g></g></g></g></svg>