<svg xmlns="http://www.w3.org/2000/svg" version="1.1" style="font-family: 'Helvetica Neue', Helvetica, Arial, sans-serif; font-size: 18px; background-color: white; text-rendering: optimizeLegibility; -webkit-font-smoothing: antialiased;" width="850" height="600"><g class="ChartTab"><g class="HeaderView"><g opacity="0.8" transform="translate(770, 15) scale(0.31)"><a xmlns:xlink="http://www.w3.org/1999/xlink" xlink:href="https://ourworldindata.org" target="_blank"><g><rect x="0" y="0" fill="#1B2543" width="211.2" height="130.1"/><rect x="0" y="112.2" fill="#E63912" width="211.2" height="17.9"/><g><rect x="1.2" y="12.3" fill="none" width="210.2" height="99.2"/><path fill="#FFFFFF" d="M37.8,32.2c0,12.7-7.7,19.4-17.1,19.4c-9.7,0-16.6-7.5-16.6-18.7c0-11.7,7.3-19.3,17.1-19.3 C31.3,13.7,37.8,21.3,37.8,32.2z M9.2,32.8c0,7.9,4.3,14.9,11.8,14.9c7.5,0,11.8-6.9,11.8-15.3c0-7.3-3.8-14.9-11.8-14.9 C13.1,17.5,9.2,24.8,9.2,32.8z"/><path fill="#FFFFFF" d="M62.7,43.8c0,2.7,0.1,5.1,0.2,7.2h-4.3l-0.3-4.3h-0.1c-1.3,2.1-4,4.9-8.8,4.9c-4.2,0-9.1-2.3-9.1-11.6 V24.6h4.8v14.6c0,5,1.5,8.4,5.9,8.4c3.2,0,5.5-2.2,6.3-4.4c0.3-0.7,0.4-1.6,0.4-2.5V24.6h4.8V43.8z"/><path fill="#FFFFFF" d="M67.3,32.8c0-3.1-0.1-5.8-0.2-8.2h4.2l0.2,5.2h0.2c1.2-3.5,4.1-5.8,7.3-5.8c0.5,0,0.9,0.1,1.4,0.2v4.5 c-0.5-0.1-1-0.2-1.6-0.2c-3.4,0-5.8,2.6-6.5,6.2c-0.1,0.7-0.2,1.4-0.2,2.2V51h-4.8V32.8z"/><path fill="#FFFFFF" d="M95.4,51l-9.4-36.8h5l4.4,18.6c1.1,4.6,2.1,9.2,2.7,12.7h0.1c0.6-3.7,1.8-8,3-12.8l4.9-18.5h5l4.5,18.7 c1,4.4,2,8.7,2.6,12.6h0.1c0.8-4,1.8-8.1,3-12.7l4.9-18.5h4.9L120.6,51h-5L111,31.9c-1.1-4.7-1.9-8.3-2.4-12h-0.1 c-0.7,3.7-1.5,7.3-2.8,12L100.4,51H95.4z"/><path fill="#FFFFFF" d="M154.9,37.6c0,9.8-6.8,14-13.2,14c-7.2,0-12.7-5.2-12.7-13.6c0-8.8,5.8-14,13.1-14 C149.8,24,154.9,29.5,154.9,37.6z M133.9,37.9c0,5.8,3.3,10.1,8,10.1c4.6,0,8-4.3,8-10.3c0-4.5-2.2-10.1-7.9-10.1 C136.3,27.6,133.9,32.8,133.9,37.9z"/><path fill="#FFFFFF" d="M158.2,32.8c0-3.1-0.1-5.8-0.2-8.2h4.2l0.2,5.2h0.2c1.2-3.5,4.1-5.8,7.3-5.8c0.5,0,0.9,0.1,1.4,0.2v4.5 c-0.5-0.1-1-0.2-1.6-0.2c-3.4,0-5.8,2.6-6.5,6.2c-0.1,0.7-0.2,1.4-0.2,2.2V51h-4.8V32.8z"/><path fill="#FFFFFF" d="M173.5,12.3h4.8V51h-4.8V12.3z"/><path fill="#FFFFFF" d="M206.5,12.3v31.9c0,2.3,0.1,5,0.2,6.8h-4.3l-0.2-4.6H202c-1.5,2.9-4.7,5.2-9,5.2 c-6.4,0-11.3-5.4-11.3-13.4c-0.1-8.8,5.4-14.2,11.9-14.2c4,0,6.8,1.9,8,4h0.1V12.3H206.5z M201.7,35.4c0-0.6-0.1-1.4-0.2-2 c-0.7-3.1-3.3-5.6-6.9-5.6c-5,0-7.9,4.4-7.9,10.2c0,5.3,2.6,9.8,7.8,9.8c3.2,0,6.2-2.1,7.1-5.7c0.2-0.7,0.2-1.3,0.2-2.1V35.4z"/><path fill="#FFFFFF" d="M42.8,64c0.1,1.6-1.1,2.9-3.1,2.9c-1.7,0-2.9-1.3-2.9-2.9c0-1.7,1.3-3,3-3C41.7,61,42.8,62.3,42.8,64z M37.4,97.8V71.4h4.8v26.4H37.4z"/><path fill="#FFFFFF" d="M47.5,78.6c0-2.7-0.1-5-0.2-7.1h4.3l0.3,4.4h0.1c1.3-2.5,4.4-5,8.8-5c3.7,0,9.4,2.2,9.4,11.2v15.8h-4.8 V82.6c0-4.3-1.6-7.8-6.1-7.8c-3.2,0-5.6,2.2-6.5,4.9c-0.2,0.6-0.3,1.4-0.3,2.2v15.9h-4.8V78.6z"/><path fill="#FFFFFF" d="M84,61.6c2.9-0.4,6.3-0.8,10.1-0.8c6.8,0,11.7,1.6,14.9,4.6c3.3,3,5.2,7.3,5.2,13.2c0,6-1.9,10.9-5.3,14.3 c-3.4,3.4-9.1,5.3-16.3,5.3c-3.4,0-6.2-0.2-8.6-0.4V61.6z M88.8,94.1c1.2,0.2,3,0.3,4.8,0.3c10.2,0,15.7-5.7,15.7-15.6 c0.1-8.7-4.9-14.2-14.9-14.2c-2.5,0-4.3,0.2-5.6,0.5V94.1z"/><path fill="#FFFFFF" d="M132.1,97.8l-0.4-3.3h-0.2c-1.5,2.1-4.3,3.9-8.1,3.9c-5.4,0-8.1-3.8-8.1-7.6c0-6.4,5.7-9.9,15.9-9.8v-0.5 c0-2.2-0.6-6.1-6-6.1c-2.5,0-5,0.8-6.9,2l-1.1-3.2c2.2-1.4,5.4-2.3,8.7-2.3c8.1,0,10.1,5.5,10.1,10.8v9.9c0,2.3,0.1,4.5,0.4,6.3 H132.1z M131.4,84.4c-5.3-0.1-11.2,0.8-11.2,5.9c0,3.1,2.1,4.6,4.5,4.6c3.4,0,5.6-2.2,6.4-4.4c0.2-0.5,0.3-1,0.3-1.5V84.4z"/><path fill="#FFFFFF" d="M146.6,63.9v7.6h6.9v3.7h-6.9v14.2c0,3.3,0.9,5.1,3.6,5.1c1.3,0,2.2-0.2,2.8-0.3l0.2,3.6 c-0.9,0.4-2.4,0.7-4.3,0.7c-2.2,0-4-0.7-5.2-2c-1.4-1.4-1.9-3.8-1.9-6.9V75.1h-4.1v-3.7h4.1v-6.3L146.6,63.9z"/><path fill="#FFFFFF" d="M171.4,97.8l-0.4-3.3h-0.2c-1.5,2.1-4.3,3.9-8.1,3.9c-5.4,0-8.1-3.8-8.1-7.6c0-6.4,5.7-9.9,15.9-9.8v-0.5 c0-2.2-0.6-6.1-6-6.1c-2.5,0-5,0.8-6.9,2l-1.1-3.2c2.2-1.4,5.4-2.3,8.7-2.3c8.1,0,10.1,5.5,10.1,10.8v9.9c0,2.3,0.1,4.5,0.4,6.3 H171.4z M170.7,84.4c-5.3-0.1-11.2,0.8-11.2,5.9c0,3.1,2.1,4.6,4.5,4.6c3.4,0,5.6-2.2,6.4-4.4c0.2-0.5,0.3-1,0.3-1.5V84.4z"/></g></g></a></g><a href="https://ourworldindata.org/grapher/happiness-inequality-within-countries-vs-gdp-per-capita" target="_blank"><text font-size="23.40" x="15.0" y="33.7" fill="#555"><tspan x="15" y="33.72">Happiness inequality within countries vs GDP per capita, 1981 to 2007</tspan></text></a></g><g><g class="AxisBoxView"><g class="HorizontalAxis"><text font-size="12.60" x="281.7" y="554.0"><tspan x="281.714" y="553.98">LivingStandardGDPperCapita</tspan></text><text x="135.8" y="533.9" fill="#666" text-anchor="middle" font-size="16.2">15,000</text><text x="215.4" y="533.9" fill="#666" text-anchor="middle" font-size="16.2">20,000</text><text x="295" y="533.9" fill="#666" text-anchor="middle" font-size="16.2">25,000</text><text x="374.6" y="533.9" fill="#666" text-anchor="middle" font-size="16.2">30,000</text><text x="454.3" y="533.9" fill="#666" text-anchor="middle" font-size="16.2">35,000</text><text x="533.9" y="533.9" fill="#666" text-anchor="middle" font-size="16.2">40,000</text><text x="613.5" y="533.9" fill="#666" text-anchor="middle" font-size="16.2">45,000</text><text x="693.1" y="533.9" fill="#666" text-anchor="middle" font-size="16.2">50,000</text></g><g class="VerticalAxis"><text font-size="12.60" x="-418.8" y="25.1" transform="rotate(-90)"><tspan x="-418.818" y="25.080000000000002">Standard deviation of life satisfaction</tspan></text><text x="60.28" y="475.5" fill="#666" dominant-baseline="middle" text-anchor="end" font-size="16.2">1.4</text><text x="60.28" y="401" fill="#666" dominant-baseline="middle" text-anchor="end" font-size="16.2">1.6</text><text x="60.28" y="326.5" fill="#666" dominant-baseline="middle" text-anchor="end" font-size="16.2">1.8</text><text x="60.28" y="252" fill="#666" dominant-baseline="middle" text-anchor="end" font-size="16.2">2</text><text x="60.28" y="177.5" fill="#666" dominant-baseline="middle" text-anchor="end" font-size="16.2">2.2</text><text x="60.28" y="103" fill="#666" dominant-baseline="middle" text-anchor="end" font-size="16.2">2.4</text></g><g class="AxisGridLines"><line x1="65.28" y1="475.5" x2="715.00" y2="475.5" stroke="#ddd" stroke-dasharray="3,2"></line><line x1="65.28" y1="401" x2="715.00" y2="401" stroke="#ddd" stroke-dasharray="3,2"></line><line x1="65.28" y1="326.5" x2="715.00" y2="326.5" stroke="#ddd" stroke-dasharray="3,2"></line><line x1="65.28" y1="252" x2="715.00" y2="252" stroke="#ddd" stroke-dasharray="3,2"></line><line x1="65.28" y1="177.5" x2="715.00" y2="177.5" stroke="#ddd" stroke-dasharray="3,2"></line><line x1="65.28" y1="103" x2="715.00" y2="103" stroke="#ddd" stroke-dasharray="3,2"></line></g><g class="AxisGridLines"><line x1="135.8" y1="512.70" x2="135.8" y2="75.00" stroke="#ddd" stroke-dasharray="3,2"></line><line x1="215.4" y1="512.70" x2="215.4" y2="75.00" stroke="#ddd" stroke-dasharray="3,2"></line><line x1="295" y1="512.70" x2="295" y2="75.00" stroke="#ddd" stroke-dasharray="3,2"></line><line x1="374.6" y1="512.70" x2="374.6" y2="75.00" stroke="#ddd" stroke-dasharray="3,2"></line><line x1="454.3" y1="512.70" x2="454.3" y2="75.00" stroke="#ddd" stroke-dasharray="3,2"></line><line x1="533.9" y1="512.70" x2="533.9" y2="75.00" stroke="#ddd" stroke-dasharray="3,2"></line><line x1="613.5" y1="512.70" x2="613.5" y2="75.00" stroke="#ddd" stroke-dasharray="3,2"></line><line x1="693.1" y1="512.70" x2="693.1" y2="75.00" stroke="#ddd" stroke-dasharray="3,2"></line></g></g><g clip-path="url(#scatterBounds-227)" class="PointsWithLabels clickable"><rect x="65.28" y="75" width="649.72" height="437.7" fill="rgba(255,255,255,0)"></rect><defs><clipPath id="scatterBounds-227"><rect x="55.28" y="65" width="669.72" height="457.7"></rect></clipPath></defs><g class="key-United-States_0"><circle cx="476" cy="314" r="2.0262716342071654" fill="#4d824b" stroke="#ccc" opacity="0.6"></circle><polyline stroke-linecap="round" stroke="#4d824b" points="476,314 527,249 621,317 715,338" fill="none" stroke-width="1.415077572595482" opacity="0.6"></polyline><polygon points="712.8849224274045,343.8849224274045 715,335.8849224274045 717.1150775725955,340.11507757259545" transform="rotate(102.59333082797373, 715, 338)" cx="715" cy="338" r="2.115077572595482" fill="#4d824b" stroke="#ccc" stroke-width="0.2" opacity="0.6"></polygon></g><g class="key-France_0"><circle cx="251" cy="224" r="1.4834658997530608" fill="#ffd336" stroke="#ccc" opacity="0.6"></circle><polyline stroke-linecap="round" stroke="#ffd336" points="251,224 300,260 392,254 444,279" fill="none" stroke-width="0.8133550755966039" opacity="0.6"></polyline><polygon points="442.4866449244034,285.4866449244034 444,277.4866449244034 445.51335507559656,280.51335507559656" transform="rotate(115.67681666489645, 444, 279)" cx="444" cy="279" r="1.5133550755966039" fill="#ffd336" stroke="#ccc" stroke-width="0.2" opacity="0.6"></polygon></g><g class="key-Italy_0"><circle cx="211" cy="75" r="1.492905804261748" fill="#ffd336" stroke="#ccc" opacity="0.6"></circle><polyline stroke-linecap="round" stroke="#ffd336" points="211,75 302,227 420,210 414,348" fill="none" stroke-width="0.8023920835757474" opacity="0.6"></polyline><polygon points="412.4976079164243,354.4976079164243 414,346.4976079164243 415.5023920835758,349.5023920835758" transform="rotate(-177.51044858654086, 414, 348)" cx="414" cy="348" r="1.5023920835757476" fill="#ffd336" stroke="#ccc" stroke-width="0.2" opacity="0.6"></polygon></g><g class="key-Spain_0"><circle cx="115" cy="249" r="1.4078747544688244" fill="#ffd336" stroke="#ccc" opacity="0.6"></circle><polyline stroke-linecap="round" stroke="#ffd336" points="115,249 178,290 231,263 308,248 326,316 453,437" fill="none" stroke-width="0.7410543348232375" opacity="0.6"></polyline><polygon points="451.55894566517674,443.55894566517674 453,435.55894566517674 454.4410543348232,438.4410543348232" transform="rotate(133.6140832846826, 453, 437)" cx="453" cy="437" r="1.4410543348232374" fill="#ffd336" stroke="#ccc" stroke-width="0.2" opacity="0.6"></polygon></g><g class="key-Canada_0"><circle cx="502" cy="295" r="1.3703971351629898" fill="#4d824b" stroke="#ccc" opacity="0.6"></circle><polyline stroke-linecap="round" stroke="#4d824b" points="502,295 553,359" fill="none" stroke-width="0.6811295281021692" opacity="0.6"></polyline><polygon points="551.6188704718978,365.6188704718978 553,357.6188704718978 554.3811295281022,360.3811295281022" transform="rotate(141.44953590592522, 553, 359)" cx="553" cy="359" r="1.3811295281021692" fill="#4d824b" stroke="#ccc" stroke-width="0.2" opacity="0.6"></polygon></g><g class="key-Netherlands_0"><circle cx="316" cy="409" r="1.2688778581157956" fill="#ffd336" stroke="#ccc" opacity="0.6"></circle><polyline stroke-linecap="round" stroke="#ffd336" points="316,409 501,499" fill="none" stroke-width="0.5755561321275664" opacity="0.6"></polyline><polygon points="499.7244438678724,505.7244438678724 501,497.7244438678724 502.2755561321276,500.2755561321276" transform="rotate(115.94229647518603, 501, 499)" cx="501" cy="499" r="1.2755561321275664" fill="#ffd336" stroke="#ccc" stroke-width="0.2" opacity="0.6"></polygon></g><g class="key-Portugal_0"><circle cx="129" cy="195" r="1.2277386624780762" fill="#ffd336" stroke="#ccc" opacity="0.6"></circle><polyline stroke-linecap="round" stroke="#ffd336" points="129,195 244,268" fill="none" stroke-width="0.5310402197089328" opacity="0.6"></polyline><polygon points="242.76895978029106,274.7689597802911 244,266.7689597802911 245.23104021970892,269.231040219709" transform="rotate(122.40667108414752, 244, 268)" cx="244" cy="268" r="1.2310402197089327" fill="#ffd336" stroke="#ccc" stroke-width="0.2" opacity="0.6"></polygon></g><g class="key-Belgium_0"><circle cx="240" cy="324" r="1.2270225933512346" fill="#ffd336" stroke="#ccc" opacity="0.6"></circle><polyline stroke-linecap="round" stroke="#ffd336" points="240,324 311,291 428,201" fill="none" stroke-width="0.5297430133764214" opacity="0.6"></polyline><polygon points="426.77025698662356,207.77025698662356 428,199.77025698662356 429.22974301337644,202.2297430133764" transform="rotate(52.43140841675121, 428, 201)" cx="428" cy="201" r="1.2297430133764213" fill="#ffd336" stroke="#ccc" stroke-width="0.2" opacity="0.6"></polygon></g><g class="key-Sweden_0"><circle cx="377" cy="324" r="1.2177841392249804" fill="#ffd336" stroke="#ccc" opacity="0.6"></circle><polyline stroke-linecap="round" stroke="#ffd336" points="377,324 461,304 520,398" fill="none" stroke-width="0.5200699317409363" opacity="0.6"></polyline><polygon points="518.7799300682591,404.7799300682591 520,396.7799300682591 521.2200699317409,399.22006993174097" transform="rotate(147.88517065647827, 520, 398)" cx="520" cy="398" r="1.2200699317409363" fill="#ffd336" stroke="#ccc" stroke-width="0.2" opacity="0.6"></polygon></g><g class="key-Austria_0"><circle cx="298" cy="312" r="1.2063693323154452" fill="#ffd336" stroke="#ccc" opacity="0.6"></circle><polyline stroke-linecap="round" stroke="#ffd336" points="298,312 465,281" fill="none" stroke-width="0.5094774372011144" opacity="0.6"></polyline><polygon points="463.7905225627989,287.7905225627989 465,279.7905225627989 466.20947743720114,282.20947743720114" transform="rotate(79.48395429093503, 465, 281)" cx="465" cy="281" r="1.2094774372011143" fill="#ffd336" stroke="#ccc" stroke-width="0.2" opacity="0.6"></polygon></g><circle cx="459" cy="320" r="1.1814404502665834" fill="#ffd336" opacity="0.8"></circle><g class="key-Finland_0"><circle cx="301" cy="421" r="1.1792125990928544" fill="#ffd336" stroke="#ccc" opacity="0.6"></circle><polyline stroke-linecap="round" stroke="#ffd336" points="301,421 429,380 457,346" fill="none" stroke-width="0.48057514590280964" opacity="0.6"></polyline><polygon points="455.8194248540972,352.8194248540972 457,344.8194248540972 458.1805751459028,347.1805751459028" transform="rotate(39.47246018379328, 457, 346)" cx="457" cy="346" r="1.1805751459028095" fill="#ffd336" stroke="#ccc" stroke-width="0.2" opacity="0.6"></polygon></g><g class="key-Norway_0"><circle cx="289" cy="304" r="1.167174477809667" fill="#ffd336" stroke="#ccc" opacity="0.6"></circle><polyline stroke-linecap="round" stroke="#ffd336" points="289,304 319,338 424,300" fill="none" stroke-width="0.4705073193284314" opacity="0.6"></polyline><polygon points="422.8294926806716,306.8294926806716 424,298.8294926806716 425.17050731932846,301.17050731932846" transform="rotate(70.10456926100517, 424, 300)" cx="424" cy="300" r="1.1705073193284314" fill="#ffd336" stroke="#ccc" stroke-width="0.2" opacity="0.6"></polygon></g><g class="key-Ireland_0"><circle cx="183" cy="280" r="1.1598744572228308" fill="#ffd336" stroke="#ccc" opacity="0.6"></circle><polyline stroke-linecap="round" stroke="#ffd336" points="183,280 431,317" fill="none" stroke-width="0.46267686739245584" opacity="0.6"></polyline><polygon points="429.83732313260754,323.83732313260754 431,315.83732313260754 432.16267686739246,318.16267686739246" transform="rotate(98.48557159963707, 431, 317)" cx="431" cy="317" r="1.162676867392456" fill="#ffd336" stroke="#ccc" stroke-width="0.2" opacity="0.6"></polygon></g><g class="key-Malta_0"><circle cx="65" cy="284" r="1.1115077572595482" fill="#ffd336" stroke="#ccc" opacity="0.6"></circle><polyline stroke-linecap="round" stroke="#ffd336" points="65,284 132,255 263,393" fill="none" stroke-width="0.41251348131594107" opacity="0.6"></polyline><polygon points="261.88748651868406,399.88748651868406 263,391.88748651868406 264.11251348131594,394.11251348131594" transform="rotate(136.49063299520293, 263, 393)" cx="263" cy="393" r="1.1125134813159412" fill="#ffd336" stroke="#ccc" stroke-width="0.2" opacity="0.6"></polygon></g><text x="633.6507107515131" y="346.2401481466146" font-size="14.3" font-family="Arial Narrow, Arial, sans-serif" fill="#666">United States</text><text x="448.5062621226259" y="287.0030491126226" font-size="11.67315387656637" font-family="Arial Narrow, Arial, sans-serif" fill="#666">France</text><text x="392.35913967339843" y="358.8169313910199" font-size="11.643301198489167" font-family="Arial Narrow, Arial, sans-serif" fill="#666">Italy</text><text x="456.620011724826" y="446.1930699576688" font-size="11.488164817637662" font-family="Arial Narrow, Arial, sans-serif" fill="#666">Spain</text><text x="556.1160185252824" y="368.5883390843173" font-size="11.356082654200302" font-family="Arial Narrow, Arial, sans-serif" fill="#666">Canada</text><text x="505.496175443729" y="506.77244106076483" font-size="11.170224933036598" font-family="Arial Narrow, Arial, sans-serif" fill="#666">Netherlands</text><text x="248.22132770959297" y="276.234509428963" font-size="11.109768026616644" font-family="Arial Narrow, Arial, sans-serif" fill="#666">Portugal</text><text x="431.963119945523" y="197.95144619575154" font-size="11.10816561416495" font-family="Arial Narrow, Arial, sans-serif" fill="#666">Belgium</text><text x="522.658089165642" y="407.78317228856986" font-size="11.0965011340772" font-family="Arial Narrow, Arial, sans-serif" fill="#666">Sweden</text><text x="459" y="316.09695279573464" font-size="11.054921157400337" font-family="Arial Narrow, Arial, sans-serif" fill="#666">Denmark</text><text x="460.1785362643055" y="342.14034882191476" font-size="11.054081378887727" font-family="Arial Narrow, Arial, sans-serif" fill="#666">Finland</text><text x="428.70157632645527" y="298.29847713899716" font-size="11.044605632067531" font-family="Arial Narrow, Arial, sans-serif" fill="#666">Norway</text><text x="266.4423658453016" y="402.1266110581847" font-size="11.000603999550867" font-family="Arial Narrow, Arial, sans-serif" fill="#666">Malta</text></g><g style="cursor: pointer;" class="ScatterColorLegend clickable"><g class="legendMark"><rect x="735" y="72.5" width="51.824" height="17.6" fill="#fff" opacity="0"></rect>,<rect x="735" y="78" width="6" height="6" fill="#ffd336"></rect>,<text font-size="12.60" x="746.0" y="85.1"><tspan x="746" y="85.08">Europe</tspan></text></g><g class="legendMark"><rect x="735" y="90.1" width="91.64" height="17.6" fill="#fff" opacity="0"></rect>,<rect x="735" y="95.6" width="6" height="6" fill="#4d824b"></rect>,<text font-size="12.60" x="746.0" y="102.7"><tspan x="746" y="102.67999999999999">North America</tspan></text></g></g><line x1="735" y1="112.2" x2="830" y2="112.2" stroke="#ccc"></line><g class="clickable"><g class="ConnectedScatterLegend"><rect x="735" y="121.2" width="100" height="12.6" fill="#fff" opacity="0"></rect><text font-size="12.60" x="735.0" y="131.3" fill="#333"><tspan x="735" y="131.28">1981</tspan></text><text font-size="12.60" x="806.8" y="131.3" fill="#333"><tspan x="806.776" y="131.28">2007</tspan></text><line x1="768.224" y1="127" x2="801.776" y2="127" stroke="#666" stroke-width="1"></line><circle cx="768.224" cy="127" r="2" fill="#666" stroke="#ccc" stroke-width="0.2"></circle><circle cx="779.408" cy="127" r="2" fill="#666" stroke="#ccc" stroke-width="0.2"></circle><circle cx="790.592" cy="127" r="2" fill="#666" stroke="#ccc" stroke-width="0.2"></circle><polygon points="798.776,132 801.776,124 804.776,130" cx="801.776" cy="127" r="3" fill="#666" stroke="#ccc" stroke-width="0.2" transform="rotate(90, 801.776, 127)"></polygon></g></g></g><g style="fill: #777;" class="SourcesFooter"><g style="fill: #777;" class="clickable"><text font-size="12.60" x="15.0" y="581.6"><tspan x="15" y="581.58">Source: Clark, Flèche &amp; Senik – Happiness Inequality, Penn World Table 9.0 - OWID's team calculations</tspan></text></g><text font-size="12.60" x="649.0" y="581.6"><tspan x="649.024" y="581.58"><a target='_blank' style='fill: #777;' href='https://ourworldindata.org'>OurWorldInData.org</a> • <a style="fill: #777;" href="http://creativecommons.org/licenses/by-sa/4.0/deed.en_US" target="_blank">CC BY-SA</a></tspan></text></g></g></svg>