<svg xmlns="http://www.w3.org/2000/svg" version="1.1" style="font-family: 'Helvetica Neue', Helvetica, Arial, sans-serif; font-size: 24px; background-color: white;" width="1200" height="630"><g class="ChartTab"><g><g class="AxisBoxView"><g class="HorizontalAxis"><text font-size="16.80" x="320.8" y="596.6"><tspan x="320.8320000000001" y="596.64">Real GDP per capita (OECD 1960s, Non-OECD 2000s)</tspan></text><text x="178.2" y="573.2" fill="#666" text-anchor="middle" font-size="21.6">$1,000</text><text x="571.4" y="573.2" fill="#666" text-anchor="middle" font-size="21.6">$10,000</text><text x="964.5" y="573.2" fill="#666" text-anchor="middle" font-size="21.6">$100,000</text></g><g class="VerticalAxis"><text font-size="16.80" x="-509.0" y="28.4" transform="rotate(-90)"><tspan x="-509.02" y="28.439999999999998">Health coverage (OECD 1960s, Non-OECD 2000s)</tspan></text><text x="97.31" y="546.6" fill="#666" dominant-baseline="middle" text-anchor="end" font-size="21.6">0%</text><text x="97.31" y="444.3" fill="#666" dominant-baseline="middle" text-anchor="end" font-size="21.6">20%</text><text x="97.31" y="342" fill="#666" dominant-baseline="middle" text-anchor="end" font-size="21.6">40%</text><text x="97.31" y="239.6" fill="#666" dominant-baseline="middle" text-anchor="end" font-size="21.6">60%</text><text x="97.31" y="137.3" fill="#666" dominant-baseline="middle" text-anchor="end" font-size="21.6">80%</text><text x="97.31" y="35" fill="#666" dominant-baseline="middle" text-anchor="end" font-size="21.6">100%</text></g><g class="AxisGridLines"><line x1="102.31" y1="546.6" x2="1041.46" y2="546.6" stroke="#ccc"></line><line x1="102.31" y1="444.3" x2="1041.46" y2="444.3" stroke="#ddd" stroke-dasharray="3,2"></line><line x1="102.31" y1="342" x2="1041.46" y2="342" stroke="#ddd" stroke-dasharray="3,2"></line><line x1="102.31" y1="239.6" x2="1041.46" y2="239.6" stroke="#ddd" stroke-dasharray="3,2"></line><line x1="102.31" y1="137.3" x2="1041.46" y2="137.3" stroke="#ddd" stroke-dasharray="3,2"></line><line x1="102.31" y1="35" x2="1041.46" y2="35" stroke="#ddd" stroke-dasharray="3,2"></line></g><g class="AxisGridLines"><line x1="178.2" y1="546.60" x2="178.2" y2="35.00" stroke="#ddd" stroke-dasharray="3,2"></line><line x1="571.4" y1="546.60" x2="571.4" y2="35.00" stroke="#ddd" stroke-dasharray="3,2"></line><line x1="964.5" y1="546.60" x2="964.5" y2="35.00" stroke="#ddd" stroke-dasharray="3,2"></line></g></g><g clip-path="url(#scatterBounds-317)" class="PointsWithLabels clickable"><rect x="102.31200000000001" y="35" width="939.1440000000001" height="511.6" fill="rgba(255,255,255,0)"></rect><defs><clipPath id="scatterBounds-317"><rect x="92.31200000000001" y="25" width="959.1440000000001" height="531.6"></rect></clipPath></defs><circle cx="574" cy="50" r="17.841241161527712" fill="#e2e2e2" opacity="0.8"></circle><circle cx="437" cy="482" r="17.131951458809365" fill="#e2e2e2" opacity="0.8"></circle><circle cx="551" cy="244" r="7.735666012113487" fill="#e2e2e2" opacity="0.8"></circle><circle cx="639" cy="35" r="7.0114248892457995" fill="#e2e2e2" opacity="0.8"></circle><circle cx="429" cy="410" r="6.6711351488375215" fill="#e2e2e2" opacity="0.8"></circle><circle cx="458" cy="535" r="6.416058422092516" fill="#e2e2e2" opacity="0.8"></circle><circle cx="339" cy="539" r="6.193937972289232" fill="#e2e2e2" opacity="0.8"></circle><circle cx="782" cy="35" r="5.723033186068944" fill="#e2e2e2" opacity="0.8"></circle><circle cx="645" cy="108" r="5.478691077752282" fill="#e2e2e2" opacity="0.8"></circle><circle cx="477" cy="127" r="5.035138224285824" fill="#e2e2e2" opacity="0.8"></circle><circle cx="437" cy="234" r="4.892384728065008" fill="#e2e2e2" opacity="0.8"></circle><circle cx="569" cy="285" r="4.740526602438714" fill="#e2e2e2" opacity="0.8"></circle><circle cx="674" cy="86" r="4.54565262301366" fill="#e2e2e2" opacity="0.8"></circle><circle cx="667" cy="106" r="4.515740849520942" fill="#e2e2e2" opacity="0.8"></circle><circle cx="624" cy="45" r="4.407740488280992" fill="#e2e2e2" opacity="0.8"></circle><circle cx="115" cy="495" r="4.360774825220588" fill="#e2e2e2" opacity="0.8"></circle><circle cx="602" cy="35" r="3.86925985219099" fill="#e2e2e2" opacity="0.8"></circle><circle cx="596" cy="97" r="3.760981943525258" fill="#e2e2e2" opacity="0.8"></circle><circle cx="300" cy="480" r="3.738885414449416" fill="#e2e2e2" opacity="0.8"></circle><circle cx="337" cy="345" r="3.591861400068483" fill="#e2e2e2" opacity="0.8"></circle><circle cx="691" cy="51" r="3.564241727012002" fill="#e2e2e2" opacity="0.8"></circle><circle cx="621" cy="110" r="3.403667937085632" fill="#e2e2e2" opacity="0.8"></circle><circle cx="407" cy="394" r="3.3606285409482743" fill="#e2e2e2" opacity="0.8"></circle><circle cx="277" cy="536" r="3.352753022224217" fill="#e2e2e2" opacity="0.8"></circle><circle cx="813" cy="35" r="3.3471807197132355" fill="#e2e2e2" opacity="0.8"></circle><circle cx="504" cy="330" r="3.273834431326164" fill="#e2e2e2" opacity="0.8"></circle><circle cx="291" cy="546" r="3.2093684941124345" fill="#e2e2e2" opacity="0.8"></circle><circle cx="659" cy="35" r="3.170922678608202" fill="#e2e2e2" opacity="0.8"></circle><circle cx="576" cy="217" r="3.169555264545233" fill="#e2e2e2" opacity="0.8"></circle><circle cx="699" cy="35" r="3.1495463327210644" fill="#e2e2e2" opacity="0.8"></circle><circle cx="512" cy="35" r="3.10848168276773" fill="#e2e2e2" opacity="0.8"></circle><circle cx="389" cy="168" r="3.0015251300686887" fill="#e2e2e2" opacity="0.8"></circle><circle cx="810" cy="37" r="2.926818873082162" fill="#e2e2e2" opacity="0.8"></circle><circle cx="823" cy="127" r="2.9081313799698116" fill="#e2e2e2" opacity="0.8"></circle><circle cx="219" cy="527" r="2.855768099624038" fill="#e2e2e2" opacity="0.8"></circle><circle cx="540" cy="35" r="2.8447021453166825" fill="#e2e2e2" opacity="0.8"></circle><circle cx="473" cy="86" r="2.8331961407409496" fill="#e2e2e2" opacity="0.8"></circle><circle cx="342" cy="540" r="2.8077770311969976" fill="#e2e2e2" opacity="0.8"></circle><circle cx="332" cy="536" r="2.8026695746414036" fill="#e2e2e2" opacity="0.8"></circle><circle cx="522" cy="546" r="2.785430584044816" fill="#e2e2e2" opacity="0.8"></circle><circle cx="694" cy="70" r="2.685016273377909" fill="#e2e2e2" opacity="0.8"></circle><circle cx="233" cy="541" r="2.6718461872209125" fill="#e2e2e2" opacity="0.8"></circle><circle cx="703" cy="188" r="2.638327831330334" fill="#e2e2e2" opacity="0.8"></circle><circle cx="134" cy="530" r="2.6322154881622666" fill="#e2e2e2" opacity="0.8"></circle><circle cx="246" cy="536" r="2.6220027098057193" fill="#e2e2e2" opacity="0.8"></circle><circle cx="499" cy="393" r="2.573288115852324" fill="#e2e2e2" opacity="0.8"></circle><circle cx="568" cy="430" r="2.5691379088115016" fill="#e2e2e2" opacity="0.8"></circle><circle cx="341" cy="413" r="2.552660713863518" fill="#e2e2e2" opacity="0.8"></circle><circle cx="386" cy="503" r="2.514343261047547" fill="#e2e2e2" opacity="0.8"></circle><circle cx="303" cy="443" r="2.481227528052043" fill="#e2e2e2" opacity="0.8"></circle><circle cx="242" cy="541" r="2.4806064304268896" fill="#e2e2e2" opacity="0.8"></circle><circle cx="233" cy="81" r="2.393698180850163" fill="#e2e2e2" opacity="0.8"></circle><circle cx="574" cy="137" r="2.3765940953238056" fill="#e2e2e2" opacity="0.8"></circle><circle cx="215" cy="545" r="2.35820822126848" fill="#e2e2e2" opacity="0.8"></circle><circle cx="248" cy="530" r="2.3533429415978673" fill="#e2e2e2" opacity="0.8"></circle><circle cx="471" cy="328" r="2.351569512951831" fill="#e2e2e2" opacity="0.8"></circle><circle cx="592" cy="411" r="2.34998144326004" fill="#e2e2e2" opacity="0.8"></circle><circle cx="660" cy="531" r="2.3123542523034453" fill="#e2e2e2" opacity="0.8"></circle><circle cx="270" cy="500" r="2.3019087254683175" fill="#e2e2e2" opacity="0.8"></circle><circle cx="102" cy="401" r="2.2750970732669047" fill="#e2e2e2" opacity="0.8"></circle><circle cx="884" cy="35" r="2.239653922120758" fill="#e2e2e2" opacity="0.8"></circle><circle cx="427" cy="485" r="2.232529854675529" fill="#e2e2e2" opacity="0.8"></circle><circle cx="766" cy="35" r="2.222425136325309" fill="#e2e2e2" opacity="0.8"></circle><circle cx="845" cy="35" r="2.1991530742431964" fill="#e2e2e2" opacity="0.8"></circle><circle cx="332" cy="545" r="2.19141763527959" fill="#e2e2e2" opacity="0.8"></circle><circle cx="520" cy="425" r="2.169502452535302" fill="#e2e2e2" opacity="0.8"></circle><circle cx="575" cy="162" r="2.156630321684264" fill="#e2e2e2" opacity="0.8"></circle><circle cx="428" cy="487" r="2.154344779963141" fill="#e2e2e2" opacity="0.8"></circle><circle cx="521" cy="436" r="2.151056078466139" fill="#e2e2e2" opacity="0.8"></circle><circle cx="211" cy="526" r="2.147101745805567" fill="#e2e2e2" opacity="0.8"></circle><circle cx="221" cy="546" r="2.1385167052572958" fill="#e2e2e2" opacity="0.8"></circle><circle cx="417" cy="484" r="2.13152693599363" fill="#e2e2e2" opacity="0.8"></circle><circle cx="389" cy="122" r="2.105182052370101" fill="#e2e2e2" opacity="0.8"></circle><circle cx="907" cy="35" r="2.0937843957001494" fill="#e2e2e2" opacity="0.8"></circle><circle cx="655" cy="125" r="2.0891646477345676" fill="#e2e2e2" opacity="0.8"></circle><circle cx="615" cy="35" r="2.0678589765136195" fill="#e2e2e2" opacity="0.8"></circle><circle cx="161" cy="515" r="2.0542580292890715" fill="#e2e2e2" opacity="0.8"></circle><circle cx="770" cy="35" r="2.05013696015703" fill="#e2e2e2" opacity="0.8"></circle><circle cx="533" cy="418" r="2.0452556454770283" fill="#e2e2e2" opacity="0.8"></circle><circle cx="646" cy="299" r="2.0412714699401544" fill="#e2e2e2" opacity="0.8"></circle><circle cx="654" cy="281" r="2.0014602987134356" fill="#e2e2e2" opacity="0.8"></circle><circle cx="374" cy="515" r="1.9997276317409096" fill="#e2e2e2" opacity="0.8"></circle><circle cx="671" cy="49" r="1.9902600381013418" fill="#e2e2e2" opacity="0.8"></circle><circle cx="530" cy="35" r="1.9737548085951524" fill="#e2e2e2" opacity="0.8"></circle><circle cx="828" cy="50" r="1.9586441182452003" fill="#e2e2e2" opacity="0.8"></circle><circle cx="914" cy="35" r="1.9569656780573785" fill="#e2e2e2" opacity="0.8"></circle><circle cx="546" cy="127" r="1.9558941830739107" fill="#e2e2e2" opacity="0.8"></circle><circle cx="524" cy="443" r="1.9529721419675874" fill="#e2e2e2" opacity="0.8"></circle><circle cx="551" cy="403" r="1.927220752889146" fill="#e2e2e2" opacity="0.8"></circle><circle cx="321" cy="456" r="1.919307326590363" fill="#e2e2e2" opacity="0.8"></circle><circle cx="1041" cy="35" r="1.8994780500932225" fill="#e2e2e2" opacity="0.8"></circle><circle cx="246" cy="35" r="1.8936865347001401" fill="#e2e2e2" opacity="0.8"></circle><circle cx="237" cy="538" r="1.8794907137584878" fill="#e2e2e2" opacity="0.8"></circle><circle cx="644" cy="251" r="1.878694278500926" fill="#e2e2e2" opacity="0.8"></circle><circle cx="814" cy="35" r="1.865532620005716" fill="#e2e2e2" opacity="0.8"></circle><circle cx="653" cy="35" r="1.8644704156336247" fill="#e2e2e2" opacity="0.8"></circle><circle cx="524" cy="514" r="1.8579830548278284" fill="#e2e2e2" opacity="0.8"></circle><circle cx="341" cy="393" r="1.8391481758856802" fill="#e2e2e2" opacity="0.8"></circle><circle cx="518" cy="35" r="1.8367842306786795" fill="#e2e2e2" opacity="0.8"></circle><circle cx="502" cy="86" r="1.8284808553788547" fill="#e2e2e2" opacity="0.8"></circle><circle cx="947" cy="40" r="1.8142076732065353" fill="#e2e2e2" opacity="0.8"></circle><circle cx="922" cy="35" r="1.8071038649021844" fill="#e2e2e2" opacity="0.8"></circle><circle cx="719" cy="35" r="1.8032976469000366" fill="#e2e2e2" opacity="0.8"></circle><circle cx="618" cy="393" r="1.801539901177154" fill="#e2e2e2" opacity="0.8"></circle><circle cx="527" cy="418" r="1.801400155112818" fill="#e2e2e2" opacity="0.8"></circle><circle cx="648" cy="35" r="1.7985416471977822" fill="#e2e2e2" opacity="0.8"></circle><circle cx="577" cy="365" r="1.7921667843039621" fill="#e2e2e2" opacity="0.8"></circle><circle cx="353" cy="535" r="1.7916762087094986" fill="#e2e2e2" opacity="0.8"></circle><circle cx="558" cy="498" r="1.7878110504767575" fill="#e2e2e2" opacity="0.8"></circle><circle cx="796" cy="39" r="1.7877309948022537" fill="#e2e2e2" opacity="0.8"></circle><circle cx="586" cy="508" r="1.7875183458600126" fill="#e2e2e2" opacity="0.8"></circle><circle cx="687" cy="285" r="1.786518668049541" fill="#e2e2e2" opacity="0.8"></circle><circle cx="576" cy="478" r="1.7850822961631962" fill="#e2e2e2" opacity="0.8"></circle><circle cx="694" cy="399" r="1.7841241161527712" fill="#e2e2e2" opacity="0.8"></circle><circle cx="429" cy="463" r="1.7806438960713276" fill="#e2e2e2" opacity="0.8"></circle><circle cx="406" cy="331" r="1.7806438960713276" fill="#e2e2e2" opacity="0.8"></circle><text x="437" y="463.86804854119066" font-size="14.040230862298053" font-family="Arial Narrow, Arial, sans-serif" fill="#aaa">India</text><text x="429" y="402.3288648511625" font-size="11.432711927440828" font-family="Arial Narrow, Arial, sans-serif" fill="#aaa">Pakistan</text><text x="458" y="527.5839415779075" font-size="11.397753975632993" font-family="Arial Narrow, Arial, sans-serif" fill="#aaa">Nigeria</text><text x="339" y="531.8060620277108" font-size="11.368422620741505" font-family="Arial Narrow, Arial, sans-serif" fill="#aaa">Bangladesh</text><text x="477" y="120.96486177571418" font-size="11.232158650402141" font-family="Arial Narrow, Arial, sans-serif" fill="#aaa">Philippines</text><text x="437" y="228.107615271935" font-size="11.217317885979655" font-family="Arial Narrow, Arial, sans-serif" fill="#aaa">Vietnam</text><text x="569" y="279.2594733975613" font-size="11.201999104686447" font-family="Arial Narrow, Arial, sans-serif" fill="#aaa">Egypt</text><text x="674" y="80.45434737698633" font-size="11.183048654429586" font-family="Arial Narrow, Arial, sans-serif" fill="#aaa">Iran</text><text x="115" y="489.6392251747794" font-size="11.165805492296247" font-family="Arial Narrow, Arial, sans-serif" fill="#aaa">Democratic Republic of Congo</text><text x="596" y="92.23901805647475" font-size="11.114792605083755" font-family="Arial Narrow, Arial, sans-serif" fill="#aaa">Colombia</text><text x="300" y="475.26111458555056" font-size="11.113057178441002" font-family="Arial Narrow, Arial, sans-serif" fill="#aaa">Tanzania</text><text x="337" y="340.40813859993153" font-size="11.101770526953858" font-family="Arial Narrow, Arial, sans-serif" fill="#aaa">Kenya</text><text x="407" y="389.63937145905174" font-size="11.084935317023268" font-family="Arial Narrow, Arial, sans-serif" fill="#aaa">Sudan</text><text x="277" y="531.6472469777758" font-size="11.084381649413" font-family="Arial Narrow, Arial, sans-serif" fill="#aaa">Uganda</text><text x="504" y="325.7261655686738" font-size="11.07890521521061" font-family="Arial Narrow, Arial, sans-serif" fill="#aaa">Morocco</text><text x="576" y="212.83044473545476" font-size="11.07186897643937" font-family="Arial Narrow, Arial, sans-serif" fill="#aaa">Peru</text><text x="512" y="46.06785378851982" font-size="11.067853788519818" font-family="Arial Narrow, Arial, sans-serif" fill="#aaa">Uzbekistan</text><text x="389" y="163.9984748699313" font-size="11.061010297380795" font-family="Arial Narrow, Arial, sans-serif" fill="#aaa">Ghana</text><text x="473" y="82.16680385925905" font-size="11.050725217995845" font-family="Arial Narrow, Arial, sans-serif" fill="#aaa">Syria</text><text x="522" y="542.2145694159552" font-size="11.047914782368741" font-family="Arial Narrow, Arial, sans-serif" fill="#aaa">Angola</text><text x="134" y="526.3677845118377" font-size="11.039222360314637" font-family="Arial Narrow, Arial, sans-serif" fill="#aaa">Niger</text><text x="246" y="532.3779972901942" font-size="11.038660432371438" font-family="Arial Narrow, Arial, sans-serif" fill="#aaa">Mali</text><text x="499" y="389.42671188414766" font-size="11.036010116918616" font-family="Arial Narrow, Arial, sans-serif" fill="#aaa">Guatemala</text><text x="341" y="409.44733928613647" font-size="11.034902862513668" font-family="Arial Narrow, Arial, sans-serif" fill="#aaa">Cambodia</text><text x="386" y="499.48565673895246" font-size="11.032869679399202" font-family="Arial Narrow, Arial, sans-serif" fill="#aaa">Zambia</text><text x="303" y="439.51877247194795" font-size="11.031137279667657" font-family="Arial Narrow, Arial, sans-serif" fill="#aaa">Senegal</text><text x="233" y="77.60630181914983" font-size="11.02666889750844" font-family="Arial Narrow, Arial, sans-serif" fill="#aaa">Rwanda</text><text x="574" y="133.6234059046762" font-size="11.02581447345378" font-family="Arial Narrow, Arial, sans-serif" fill="#aaa">Tunisia</text><text x="471" y="324.6484304870482" font-size="11.024575425963487" font-family="Arial Narrow, Arial, sans-serif" fill="#aaa">Bolivia</text><text x="592" y="407.65001855673995" font-size="11.024497238104193" font-family="Arial Narrow, Arial, sans-serif" fill="#aaa">Dominican Republic</text><text x="660" y="527.6876457476966" font-size="11.02266013320385" font-family="Arial Narrow, Arial, sans-serif" fill="#aaa">Azerbaijan</text><text x="270" y="496.6980912745317" font-size="11.022155400658084" font-family="Arial Narrow, Arial, sans-serif" fill="#aaa">Benin</text><text x="102" y="397.7249029267331" font-size="11.020870310321842" font-family="Arial Narrow, Arial, sans-serif" fill="#aaa">Burundi</text><text x="427" y="481.76747014532447" font-size="11.018860977602392" font-family="Arial Narrow, Arial, sans-serif" fill="#aaa">Honduras</text><text x="575" y="158.84336967831572" font-size="11.01537239386613" font-family="Arial Narrow, Arial, sans-serif" fill="#aaa">Jordan</text><text x="211" y="522.8528982541944" font-size="11.014942954512149" font-family="Arial Narrow, Arial, sans-serif" fill="#aaa">Togo</text><text x="389" y="118.8948179476299" font-size="11.01307627845257" font-family="Arial Narrow, Arial, sans-serif" fill="#aaa">Kyrgyzstan</text><text x="907" y="46.0125751066907" font-size="11.012575106690699" font-family="Arial Narrow, Arial, sans-serif" fill="#aaa">Singapore</text><text x="655" y="121.91083535226544" font-size="11.012372744452177" font-family="Arial Narrow, Arial, sans-serif" fill="#aaa">Turkmenistan</text><text x="646" y="295.95872853005983" font-size="11.010301181279113" font-family="Arial Narrow, Arial, sans-serif" fill="#aaa">Lebanon</text><text x="654" y="277.9985397012866" font-size="11.008615759895198" font-family="Arial Narrow, Arial, sans-serif" fill="#aaa">Panama</text><text x="374" y="512.0002723682591" font-size="11.008543160556433" font-family="Arial Narrow, Arial, sans-serif" fill="#aaa">Mauritania</text><text x="524" y="440.04702785803244" font-size="11.006607830428273" font-family="Arial Narrow, Arial, sans-serif" fill="#aaa">Jamaica</text><text x="321" y="453.08069267340966" font-size="11.0052427081679" font-family="Arial Narrow, Arial, sans-serif" fill="#aaa">Lesotho</text><text x="1013.3788311754397" y="46.00444973090052" font-size="11.004449730900522" font-family="Arial Narrow, Arial, sans-serif" fill="#aaa">Qatar</text><text x="246" y="46.004219680750914" font-size="11.004219680750916" font-family="Arial Narrow, Arial, sans-serif" fill="#aaa">Gambia</text><text x="524" y="511.14201694517214" font-size="11.00281698413889" font-family="Arial Narrow, Arial, sans-serif" fill="#aaa">Swaziland</text><text x="341" y="390.16085182411433" font-size="11.002087767923433" font-family="Arial Narrow, Arial, sans-serif" fill="#aaa">Djibouti</text><text x="502" y="83.17151914462114" font-size="11.001678064716225" font-family="Arial Narrow, Arial, sans-serif" fill="#aaa">Bhutan</text><text x="618" y="390.19846009882286" font-size="11.000653945064292" font-family="Arial Narrow, Arial, sans-serif" fill="#aaa">Maldives</text><text x="577" y="362.20783321569604" font-size="11.000301204603575" font-family="Arial Narrow, Arial, sans-serif" fill="#aaa">Saint Lucia</text><text x="558" y="495.21218894952324" font-size="11.000137910580648" font-family="Arial Narrow, Arial, sans-serif" fill="#aaa">Saint Vincent and the Grenadines</text><text x="576" y="475.2149177038368" font-size="11.000035813551362" font-family="Arial Narrow, Arial, sans-serif" fill="#aaa">Dominica</text><text x="694" y="396.2158758838472" font-size="11" font-family="Arial Narrow, Arial, sans-serif" fill="#aaa">Saint Kitts and Nevis</text><text x="406" y="328.21935610392865" font-size="10.999870082815937" font-family="Arial Narrow, Arial, sans-serif" fill="#aaa">Yemen</text><g><circle cx="712" cy="96" fill="none" stroke="#ffd336" r="8.047640652615772"></circle><circle cx="712" cy="96" fill="#ffd336" r="6.047640652615773"></circle></g><g><circle cx="819" cy="101" fill="none" stroke="#ffd336" r="6.7312862065453745"></circle><circle cx="819" cy="101" fill="#ffd336" r="4.7312862065453745"></circle></g><g><circle cx="792" cy="35" fill="none" stroke="#ffd336" r="6.215153635870029"></circle><circle cx="792" cy="35" fill="#ffd336" r="4.215153635870029"></circle></g><g><circle cx="790" cy="81" fill="none" stroke="#ffd336" r="6.169727410723905"></circle><circle cx="790" cy="81" fill="#ffd336" r="4.169727410723905"></circle></g><g><circle cx="774" cy="265" fill="none" stroke="#ffd336" r="5.7462715230348955"></circle><circle cx="774" cy="265" fill="#ffd336" r="3.7462715230348955"></circle></g><g><circle cx="571" cy="35" fill="none" stroke="#ffd336" r="5.706586887927919"></circle><circle cx="571" cy="35" fill="#ffd336" r="3.7065868879279193"></circle></g><g><circle cx="709" cy="47" fill="none" stroke="#ffd336" r="5.482415184573544"></circle><circle cx="709" cy="47" fill="#ffd336" r="3.482415184573544"></circle></g><g><circle cx="668" cy="64" fill="none" stroke="#ffd336" r="4.860732855287795"></circle><circle cx="668" cy="64" fill="#ffd336" r="2.860732855287795"></circle></g><g><circle cx="832" cy="183" fill="none" stroke="#ffd336" r="4.658548450423948"></circle><circle cx="832" cy="183" fill="#ffd336" r="2.6585484504239476"></circle></g><g><circle cx="736" cy="321" fill="none" stroke="#ffd336" r="4.415438787568631"></circle><circle cx="736" cy="321" fill="#ffd336" r="2.415438787568631"></circle></g><g><circle cx="815" cy="196" fill="none" stroke="#ffd336" r="4.384453096875813"></circle><circle cx="815" cy="196" fill="#ffd336" r="2.3844530968758133"></circle></g><g><circle cx="740" cy="382" fill="none" stroke="#ffd336" r="4.381293291570326"></circle><circle cx="740" cy="382" fill="#ffd336" r="2.381293291570327"></circle></g><g><circle cx="753" cy="35" fill="none" stroke="#ffd336" r="4.373651868490368"></circle><circle cx="753" cy="35" fill="#ffd336" r="2.3736518684903687"></circle></g><g><circle cx="715" cy="35" fill="none" stroke="#ffd336" r="4.345495756843908"></circle><circle cx="715" cy="35" fill="#ffd336" r="2.3454957568439077"></circle></g><g><circle cx="606" cy="75" fill="none" stroke="#ffd336" r="4.339898256426241"></circle><circle cx="606" cy="75" fill="#ffd336" r="2.339898256426241"></circle></g><g><circle cx="671" cy="35" fill="none" stroke="#ffd336" r="4.325133558335273"></circle><circle cx="671" cy="35" fill="#ffd336" r="2.3251335583352732"></circle></g><g><circle cx="821" cy="35" fill="none" stroke="#ffd336" r="4.319156851002278"></circle><circle cx="821" cy="35" fill="#ffd336" r="2.3191568510022775"></circle></g><g><circle cx="825" cy="75" fill="none" stroke="#ffd336" r="4.26676901488079"></circle><circle cx="825" cy="75" fill="#ffd336" r="2.2667690148807904"></circle></g><g><circle cx="862" cy="127" fill="none" stroke="#ffd336" r="4.229752400891188"></circle><circle cx="862" cy="127" fill="#ffd336" r="2.2297524008911886"></circle></g><g><circle cx="649" cy="101" fill="none" stroke="#ffd336" r="4.216310478783874"></circle><circle cx="649" cy="101" fill="#ffd336" r="2.216310478783874"></circle></g><g><circle cx="819" cy="60" fill="none" stroke="#ffd336" r="4.115157020804401"></circle><circle cx="819" cy="60" fill="#ffd336" r="2.115157020804401"></circle></g><g><circle cx="730" cy="61" fill="none" stroke="#ffd336" r="4.109561098914389"></circle><circle cx="730" cy="61" fill="#ffd336" r="2.1095610989143885"></circle></g><g><circle cx="810" cy="35" fill="none" stroke="#ffd336" r="4.104748213236352"></circle><circle cx="810" cy="35" fill="#ffd336" r="2.1047482132363515"></circle></g><g><circle cx="879" cy="35" fill="none" stroke="#ffd336" r="4.079040286420522"></circle><circle cx="879" cy="35" fill="#ffd336" r="2.0790402864205224"></circle></g><g><circle cx="828" cy="111" fill="none" stroke="#ffd336" r="4.056474734940831"></circle><circle cx="828" cy="111" fill="#ffd336" r="2.056474734940831"></circle></g><g><circle cx="554" cy="243" fill="none" stroke="#ffd336" r="4.012009372852234"></circle><circle cx="554" cy="243" fill="#ffd336" r="2.0120093728522344"></circle></g><g><circle cx="427" cy="159" fill="none" stroke="#ffd336" r="3.999921984925125"></circle><circle cx="427" cy="159" fill="#ffd336" r="1.9999219849251249"></circle></g><g><circle cx="709" cy="60" fill="none" stroke="#ffd336" r="3.9859944576926"></circle><circle cx="709" cy="60" fill="#ffd336" r="1.9859944576926"></circle></g><g><circle cx="557" cy="425" fill="none" stroke="#ffd336" r="3.9806003125795266"></circle><circle cx="557" cy="425" fill="#ffd336" r="1.9806003125795264"></circle></g><g><circle cx="688" cy="188" fill="none" stroke="#ffd336" r="3.922308401125442"></circle><circle cx="688" cy="188" fill="#ffd336" r="1.9223084011254419"></circle></g><g><circle cx="592" cy="61" fill="none" stroke="#ffd336" r="3.9113740454236945"></circle><circle cx="592" cy="61" fill="#ffd336" r="1.9113740454236947"></circle></g><g><circle cx="750" cy="35" fill="none" stroke="#ffd336" r="3.9096064209679495"></circle><circle cx="750" cy="35" fill="#ffd336" r="1.9096064209679497"></circle></g><g><circle cx="724" cy="71" fill="none" stroke="#ffd336" r="3.8665979784970936"></circle><circle cx="724" cy="71" fill="#ffd336" r="1.8665979784970934"></circle></g><g><circle cx="775" cy="214" fill="none" stroke="#ffd336" r="3.852514532174435"></circle><circle cx="775" cy="214" fill="#ffd336" r="1.852514532174435"></circle></g><g><circle cx="625" cy="60" fill="none" stroke="#ffd336" r="3.821689289289921"></circle><circle cx="625" cy="60" fill="#ffd336" r="1.8216892892899208"></circle></g><g><circle cx="754" cy="35" fill="none" stroke="#ffd336" r="3.80787479285737"></circle><circle cx="754" cy="35" fill="#ffd336" r="1.8078747928573697"></circle></g><g><circle cx="803" cy="36" fill="none" stroke="#ffd336" r="3.801817997994557"></circle><circle cx="803" cy="36" fill="#ffd336" r="1.8018179979945572"></circle></g><text x="712" y="88.95235934738423" font-size="13.413244299705164" font-family="Arial Narrow, Arial, sans-serif" fill="#333">Russia</text><text x="819" y="95.26871379345462" font-size="13.237643028799338" font-family="Arial Narrow, Arial, sans-serif" fill="#333">Germany</text><text x="792" y="48.18049637608013" font-size="13.180496376080132" font-family="Arial Narrow, Arial, sans-serif" fill="#333">United Kingdom</text><text x="790" y="75.83027258927609" font-size="13.175782449218554" font-family="Arial Narrow, Arial, sans-serif" fill="#333">Italy</text><text x="774" y="260.2537284769651" font-size="13.134297249254072" font-family="Arial Narrow, Arial, sans-serif" fill="#333">Spain</text><text x="571" y="48.130636882963664" font-size="13.130636882963662" font-family="Arial Narrow, Arial, sans-serif" fill="#333">Ukraine</text><text x="709" y="48.1106921288872" font-size="13.110692128887202" font-family="Arial Narrow, Arial, sans-serif" fill="#333">Poland</text><text x="832" y="179.34145154957605" font-size="13.048077937246363" font-family="Arial Narrow, Arial, sans-serif" fill="#333">Netherlands</text><text x="736" y="317.58456121243137" font-size="13.032811739741387" font-family="Arial Narrow, Arial, sans-serif" fill="#333">Greece</text><text x="815" y="192.6155469031242" font-size="13.0309710867472" font-family="Arial Narrow, Arial, sans-serif" fill="#333">Belgium</text><text x="740" y="378.61870670842967" font-size="13.030784719093983" font-family="Arial Narrow, Arial, sans-serif" fill="#333">Portugal</text><text x="606" y="71.66010174357376" font-size="13.028366034926645" font-family="Arial Narrow, Arial, sans-serif" fill="#333">Serbia</text><text x="825" y="71.7332309851192" font-size="13.024196792009478" font-family="Arial Narrow, Arial, sans-serif" fill="#333">Austria</text><text x="862" y="123.77024759910881" font-size="13.022136861160893" font-family="Arial Narrow, Arial, sans-serif" fill="#333">Switzerland</text><text x="649" y="97.78368952121613" font-size="13.0213972281943" font-family="Arial Narrow, Arial, sans-serif" fill="#333">Bulgaria</text><text x="554" y="239.98799062714775" font-size="13.010706240372775" font-family="Arial Narrow, Arial, sans-serif" fill="#333">Bosnia and Herzegovina</text><text x="427" y="156.0000780150749" font-size="13.010106082870536" font-family="Arial Narrow, Arial, sans-serif" fill="#333">Moldova</text><text x="557" y="422.01939968742045" font-size="13.009154242634494" font-family="Arial Narrow, Arial, sans-serif" fill="#333">Albania</text><text x="688" y="185.07769159887457" font-size="13.006338610097394" font-family="Arial Narrow, Arial, sans-serif" fill="#333">Latvia</text><text x="724" y="68.1334020215029" font-size="13.003726270625219" font-family="Arial Narrow, Arial, sans-serif" fill="#333">Estonia</text><text x="775" y="211.14748546782556" font-size="13.00307804298566" font-family="Arial Narrow, Arial, sans-serif" fill="#333">Cyprus</text><text x="625" y="57.17831071071008" font-size="13.001676362468277" font-family="Arial Narrow, Arial, sans-serif" fill="#333">Montenegro</text><text x="754" y="48.001055823852965" font-size="13.001055823852969" font-family="Arial Narrow, Arial, sans-serif" fill="#333">Malta</text></g><g style="cursor: pointer;" class="ScatterColorLegend clickable"><g fill="#ccc" class="legendMark"><rect x="1061.4560000000001" y="32.5" width="56.007999999999996" height="21.799999999999997" fill="#fff" opacity="0"></rect>,<rect x="1061.4560000000001" y="39" width="8" height="8"></rect>,<text font-size="16.80" x="1074.5" y="48.4"><tspan x="1074.4560000000001" y="48.44">Africa</tspan></text></g><g fill="#ccc" class="legendMark"><rect x="1061.4560000000001" y="54.3" width="45.76" height="21.799999999999997" fill="#fff" opacity="0"></rect>,<rect x="1061.4560000000001" y="60.8" width="8" height="8"></rect>,<text font-size="16.80" x="1074.5" y="70.2"><tspan x="1074.4560000000001" y="70.24">Asia</tspan></text></g><g class="legendMark"><rect x="1061.4560000000001" y="76.1" width="67.43199999999999" height="21.799999999999997" fill="#fff" opacity="0"></rect>,<rect x="1061.4560000000001" y="82.6" width="8" height="8" fill="#ffd336"></rect>,<text font-size="16.80" x="1074.5" y="92.0"><tspan x="1074.4560000000001" y="92.03999999999999">Europe</tspan></text></g><g fill="#ccc" class="legendMark"><rect x="1061.4560000000001" y="97.89999999999999" width="120.51999999999998" height="21.799999999999997" fill="#fff" opacity="0"></rect>,<rect x="1061.4560000000001" y="104.39999999999999" width="8" height="8"></rect>,<text font-size="16.80" x="1074.5" y="113.8"><tspan x="1074.4560000000001" y="113.83999999999999">North America</tspan></text></g><g fill="#ccc" class="legendMark"><rect x="1061.4560000000001" y="119.69999999999999" width="75.832" height="21.799999999999997" fill="#fff" opacity="0"></rect>,<rect x="1061.4560000000001" y="126.19999999999999" width="8" height="8"></rect>,<text font-size="16.80" x="1074.5" y="135.6"><tspan x="1074.4560000000001" y="135.64">Oceania</tspan></text></g><g fill="#ccc" class="legendMark"><rect x="1061.4560000000001" y="141.5" width="123.54399999999998" height="21.799999999999997" fill="#fff" opacity="0"></rect>,<rect x="1061.4560000000001" y="148" width="8" height="8"></rect>,<text font-size="16.80" x="1074.5" y="157.4"><tspan x="1074.4560000000001" y="157.44">South America</tspan></text></g></g></g></g></svg>