<svg xmlns="http://www.w3.org/2000/svg" version="1.1" style="font-family: 'Helvetica Neue', Helvetica, Arial, sans-serif; font-size: 18px; background-color: white; text-rendering: optimizeLegibility; -webkit-font-smoothing: antialiased;" width="850" height="600"><g class="ChartTab"><g class="HeaderView"><g opacity="0.8" transform="translate(770, 15) scale(0.31)"><a xmlns:xlink="http://www.w3.org/1999/xlink" xlink:href="https://ourworldindata.org" target="_blank"><g><rect x="0" y="0" fill="#1B2543" width="211.2" height="130.1"/><rect x="0" y="112.2" fill="#E63912" width="211.2" height="17.9"/><g><rect x="1.2" y="12.3" fill="none" width="210.2" height="99.2"/><path fill="#FFFFFF" d="M37.8,32.2c0,12.7-7.7,19.4-17.1,19.4c-9.7,0-16.6-7.5-16.6-18.7c0-11.7,7.3-19.3,17.1-19.3 C31.3,13.7,37.8,21.3,37.8,32.2z M9.2,32.8c0,7.9,4.3,14.9,11.8,14.9c7.5,0,11.8-6.9,11.8-15.3c0-7.3-3.8-14.9-11.8-14.9 C13.1,17.5,9.2,24.8,9.2,32.8z"/><path fill="#FFFFFF" d="M62.7,43.8c0,2.7,0.1,5.1,0.2,7.2h-4.3l-0.3-4.3h-0.1c-1.3,2.1-4,4.9-8.8,4.9c-4.2,0-9.1-2.3-9.1-11.6 V24.6h4.8v14.6c0,5,1.5,8.4,5.9,8.4c3.2,0,5.5-2.2,6.3-4.4c0.3-0.7,0.4-1.6,0.4-2.5V24.6h4.8V43.8z"/><path fill="#FFFFFF" d="M67.3,32.8c0-3.1-0.1-5.8-0.2-8.2h4.2l0.2,5.2h0.2c1.2-3.5,4.1-5.8,7.3-5.8c0.5,0,0.9,0.1,1.4,0.2v4.5 c-0.5-0.1-1-0.2-1.6-0.2c-3.4,0-5.8,2.6-6.5,6.2c-0.1,0.7-0.2,1.4-0.2,2.2V51h-4.8V32.8z"/><path fill="#FFFFFF" d="M95.4,51l-9.4-36.8h5l4.4,18.6c1.1,4.6,2.1,9.2,2.7,12.7h0.1c0.6-3.7,1.8-8,3-12.8l4.9-18.5h5l4.5,18.7 c1,4.4,2,8.7,2.6,12.6h0.1c0.8-4,1.8-8.1,3-12.7l4.9-18.5h4.9L120.6,51h-5L111,31.9c-1.1-4.7-1.9-8.3-2.4-12h-0.1 c-0.7,3.7-1.5,7.3-2.8,12L100.4,51H95.4z"/><path fill="#FFFFFF" d="M154.9,37.6c0,9.8-6.8,14-13.2,14c-7.2,0-12.7-5.2-12.7-13.6c0-8.8,5.8-14,13.1-14 C149.8,24,154.9,29.5,154.9,37.6z M133.9,37.9c0,5.8,3.3,10.1,8,10.1c4.6,0,8-4.3,8-10.3c0-4.5-2.2-10.1-7.9-10.1 C136.3,27.6,133.9,32.8,133.9,37.9z"/><path fill="#FFFFFF" d="M158.2,32.8c0-3.1-0.1-5.8-0.2-8.2h4.2l0.2,5.2h0.2c1.2-3.5,4.1-5.8,7.3-5.8c0.5,0,0.9,0.1,1.4,0.2v4.5 c-0.5-0.1-1-0.2-1.6-0.2c-3.4,0-5.8,2.6-6.5,6.2c-0.1,0.7-0.2,1.4-0.2,2.2V51h-4.8V32.8z"/><path fill="#FFFFFF" d="M173.5,12.3h4.8V51h-4.8V12.3z"/><path fill="#FFFFFF" d="M206.5,12.3v31.9c0,2.3,0.1,5,0.2,6.8h-4.3l-0.2-4.6H202c-1.5,2.9-4.7,5.2-9,5.2 c-6.4,0-11.3-5.4-11.3-13.4c-0.1-8.8,5.4-14.2,11.9-14.2c4,0,6.8,1.9,8,4h0.1V12.3H206.5z M201.7,35.4c0-0.6-0.1-1.4-0.2-2 c-0.7-3.1-3.3-5.6-6.9-5.6c-5,0-7.9,4.4-7.9,10.2c0,5.3,2.6,9.8,7.8,9.8c3.2,0,6.2-2.1,7.1-5.7c0.2-0.7,0.2-1.3,0.2-2.1V35.4z"/><path fill="#FFFFFF" d="M42.8,64c0.1,1.6-1.1,2.9-3.1,2.9c-1.7,0-2.9-1.3-2.9-2.9c0-1.7,1.3-3,3-3C41.7,61,42.8,62.3,42.8,64z M37.4,97.8V71.4h4.8v26.4H37.4z"/><path fill="#FFFFFF" d="M47.5,78.6c0-2.7-0.1-5-0.2-7.1h4.3l0.3,4.4h0.1c1.3-2.5,4.4-5,8.8-5c3.7,0,9.4,2.2,9.4,11.2v15.8h-4.8 V82.6c0-4.3-1.6-7.8-6.1-7.8c-3.2,0-5.6,2.2-6.5,4.9c-0.2,0.6-0.3,1.4-0.3,2.2v15.9h-4.8V78.6z"/><path fill="#FFFFFF" d="M84,61.6c2.9-0.4,6.3-0.8,10.1-0.8c6.8,0,11.7,1.6,14.9,4.6c3.3,3,5.2,7.3,5.2,13.2c0,6-1.9,10.9-5.3,14.3 c-3.4,3.4-9.1,5.3-16.3,5.3c-3.4,0-6.2-0.2-8.6-0.4V61.6z M88.8,94.1c1.2,0.2,3,0.3,4.8,0.3c10.2,0,15.7-5.7,15.7-15.6 c0.1-8.7-4.9-14.2-14.9-14.2c-2.5,0-4.3,0.2-5.6,0.5V94.1z"/><path fill="#FFFFFF" d="M132.1,97.8l-0.4-3.3h-0.2c-1.5,2.1-4.3,3.9-8.1,3.9c-5.4,0-8.1-3.8-8.1-7.6c0-6.4,5.7-9.9,15.9-9.8v-0.5 c0-2.2-0.6-6.1-6-6.1c-2.5,0-5,0.8-6.9,2l-1.1-3.2c2.2-1.4,5.4-2.3,8.7-2.3c8.1,0,10.1,5.5,10.1,10.8v9.9c0,2.3,0.1,4.5,0.4,6.3 H132.1z M131.4,84.4c-5.3-0.1-11.2,0.8-11.2,5.9c0,3.1,2.1,4.6,4.5,4.6c3.4,0,5.6-2.2,6.4-4.4c0.2-0.5,0.3-1,0.3-1.5V84.4z"/><path fill="#FFFFFF" d="M146.6,63.9v7.6h6.9v3.7h-6.9v14.2c0,3.3,0.9,5.1,3.6,5.1c1.3,0,2.2-0.2,2.8-0.3l0.2,3.6 c-0.9,0.4-2.4,0.7-4.3,0.7c-2.2,0-4-0.7-5.2-2c-1.4-1.4-1.9-3.8-1.9-6.9V75.1h-4.1v-3.7h4.1v-6.3L146.6,63.9z"/><path fill="#FFFFFF" d="M171.4,97.8l-0.4-3.3h-0.2c-1.5,2.1-4.3,3.9-8.1,3.9c-5.4,0-8.1-3.8-8.1-7.6c0-6.4,5.7-9.9,15.9-9.8v-0.5 c0-2.2-0.6-6.1-6-6.1c-2.5,0-5,0.8-6.9,2l-1.1-3.2c2.2-1.4,5.4-2.3,8.7-2.3c8.1,0,10.1,5.5,10.1,10.8v9.9c0,2.3,0.1,4.5,0.4,6.3 H171.4z M170.7,84.4c-5.3-0.1-11.2,0.8-11.2,5.9c0,3.1,2.1,4.6,4.5,4.6c3.4,0,5.6-2.2,6.4-4.4c0.2-0.5,0.3-1,0.3-1.5V84.4z"/></g></g></a></g><a href="https://ourworldindata.org/grapher/historical-gov-spending-gdp" target="_blank"><text font-size="27.00" x="15.0" y="36.6" fill="#555"><tspan x="15" y="36.6">Government spending (% GDP)</tspan></text></a><text font-size="14.40" x="15.0" y="55.5" fill="#666"><tspan x="15" y="55.519999999999996">Total government spending, including interest government expenditures, as share of national GDP</tspan></text></g><g class="LineChart"><defs><clipPath id="boundsClip-257"><rect x="42.562" y="0" width="830" height="956.2"></rect></clipPath></defs><g class="AxisBoxView"><g class="HorizontalAxis"><text x="52.6" y="556.5" fill="#666" text-anchor="middle" font-size="16.2">1880</text><text x="152.5" y="556.5" fill="#666" text-anchor="middle" font-size="16.2">1900</text><text x="252.4" y="556.5" fill="#666" text-anchor="middle" font-size="16.2">1920</text><text x="352.4" y="556.5" fill="#666" text-anchor="middle" font-size="16.2">1940</text><text x="452.3" y="556.5" fill="#666" text-anchor="middle" font-size="16.2">1960</text><text x="552.3" y="556.5" fill="#666" text-anchor="middle" font-size="16.2">1980</text><text x="652.2" y="556.5" fill="#666" text-anchor="middle" font-size="16.2">2000</text><text x="707.2" y="556.5" fill="#666" text-anchor="middle" font-size="16.2">2011</text></g><g class="VerticalAxis"><text x="47.56" y="535.3" fill="#666" dominant-baseline="middle" text-anchor="end" font-size="16.2">0%</text><text x="47.56" y="471.5" fill="#666" dominant-baseline="middle" text-anchor="end" font-size="16.2">10%</text><text x="47.56" y="407.8" fill="#666" dominant-baseline="middle" text-anchor="end" font-size="16.2">20%</text><text x="47.56" y="344" fill="#666" dominant-baseline="middle" text-anchor="end" font-size="16.2">30%</text><text x="47.56" y="280.2" fill="#666" dominant-baseline="middle" text-anchor="end" font-size="16.2">40%</text><text x="47.56" y="216.5" fill="#666" dominant-baseline="middle" text-anchor="end" font-size="16.2">50%</text><text x="47.56" y="152.7" fill="#666" dominant-baseline="middle" text-anchor="end" font-size="16.2">60%</text><text x="47.56" y="89" fill="#666" dominant-baseline="middle" text-anchor="end" font-size="16.2">70%</text></g><g class="AxisGridLines"><line x1="52.56" y1="535.3" x2="707.18" y2="535.3" stroke="#ccc"></line><line x1="52.56" y1="471.5" x2="707.18" y2="471.5" stroke="#ddd" stroke-dasharray="3,2"></line><line x1="52.56" y1="407.8" x2="707.18" y2="407.8" stroke="#ddd" stroke-dasharray="3,2"></line><line x1="52.56" y1="344" x2="707.18" y2="344" stroke="#ddd" stroke-dasharray="3,2"></line><line x1="52.56" y1="280.2" x2="707.18" y2="280.2" stroke="#ddd" stroke-dasharray="3,2"></line><line x1="52.56" y1="216.5" x2="707.18" y2="216.5" stroke="#ddd" stroke-dasharray="3,2"></line><line x1="52.56" y1="152.7" x2="707.18" y2="152.7" stroke="#ddd" stroke-dasharray="3,2"></line><line x1="52.56" y1="89" x2="707.18" y2="89" stroke="#ddd" stroke-dasharray="3,2"></line></g><g class="AxisGridLines"><line x1="52.6" y1="535.30" x2="52.6" y2="78.40" stroke="#ddd" stroke-dasharray="3,2"></line><line x1="152.5" y1="535.30" x2="152.5" y2="78.40" stroke="#ddd" stroke-dasharray="3,2"></line><line x1="252.4" y1="535.30" x2="252.4" y2="78.40" stroke="#ddd" stroke-dasharray="3,2"></line><line x1="352.4" y1="535.30" x2="352.4" y2="78.40" stroke="#ddd" stroke-dasharray="3,2"></line><line x1="452.3" y1="535.30" x2="452.3" y2="78.40" stroke="#ddd" stroke-dasharray="3,2"></line><line x1="552.3" y1="535.30" x2="552.3" y2="78.40" stroke="#ddd" stroke-dasharray="3,2"></line><line x1="652.2" y1="535.30" x2="652.2" y2="78.40" stroke="#ddd" stroke-dasharray="3,2"></line></g></g><g clip-path="url(#boundsClip-257)"><g class="HeightedLegend clickable"><g class="legendMark"><rect x="717.184" y="220.9" width="117.81600000000002" height="14.4" fill="#fff" opacity="0"></rect><rect x="717.184" y="226.85" width="10" height="2.5" fill="#f6a324"></rect><text font-size="14.40" x="732.2" y="232.4" fill="#333"><tspan x="732.184" y="232.42000000000002">United Kingdom</tspan></text></g><g class="legendMark"><rect x="717.184" y="235.3" width="74.328" height="14.4" fill="#fff" opacity="0"></rect><rect x="717.184" y="241.25" width="10" height="2.5" fill="#34983f"></rect><text font-size="14.40" x="732.2" y="246.8" fill="#333"><tspan x="732.184" y="246.82000000000002">Germany</tspan></text></g><g class="legendMark"><rect x="717.184" y="249.70000000000002" width="101.83200000000001" height="14.4" fill="#fff" opacity="0"></rect><rect x="717.184" y="255.65000000000003" width="10" height="2.5" fill="#ca2628"></rect><text font-size="14.40" x="732.2" y="261.2" fill="#333"><tspan x="732.184" y="261.22">United States</tspan></text></g><g class="legendMark"><rect x="717.184" y="265.2" width="54.456" height="14.4" fill="#fff" opacity="0"></rect><rect x="717.184" y="271.15" width="10" height="2.5" fill="#3360a9"></rect><text font-size="14.40" x="732.2" y="276.7" fill="#333"><tspan x="732.184" y="276.71999999999997">Japan</tspan></text></g></g><g class="Lines"><rect x="53" y="78" width="655" height="457" fill="rgba(255,255,255,0)" opacity="0"></rect><g class="key-Japan_0"><path stroke="#3360a9" stroke-linecap="round" d="M53 528L58 528L63 528L68 527L73 527L78 530L83 527L88 528L93 528L98 529L103 530L108 530L113 530L118 530L123 527L128 525L133 528L138 526L143 526L148 524L153 528L158 527L163 526L168 527L173 519L178 515L183 515L188 516L193 519L198 520L203 513L208 520L213 521L218 520L223 521L228 522L233 524L238 526L243 526L247 524L252 522L257 521L262 521L267 520L272 519L277 522L282 521L287 520L292 520L297 519L302 515L307 516L312 513L317 511L322 510L327 512L332 504L337 509L342 503L347 510L352 508L357 501L362 496L367 486L387 457L392 437L397 418L402 432L407 425L412 411L417 407L422 409L427 408L432 418L437 418L442 414L447 423L452 415L457 417L462 410L467 405L472 407L477 403L482 400L487 405L492 404L497 406L502 403L507 393L512 383L517 382L522 367L527 347L532 341L537 330L542 317L547 308L552 303L557 306L562 303L567 299L572 303L577 310L582 310L587 309L592 316L597 322L602 321L607 323L612 317L617 306L622 303L627 296L632 290L637 297L642 289L647 278L652 276L657 280L662 279L667 283L672 301L677 302L682 298L687 307L692 291L697 263L702 265L707 272" fill="none" stroke-width="1.5"></path><g fill="#3360a9"><circle cx="53" cy="528" r="2"></circle><circle cx="58" cy="528" r="2"></circle><circle cx="63" cy="528" r="2"></circle><circle cx="68" cy="527" r="2"></circle><circle cx="73" cy="527" r="2"></circle><circle cx="78" cy="530" r="2"></circle><circle cx="83" cy="527" r="2"></circle><circle cx="88" cy="528" r="2"></circle><circle cx="93" cy="528" r="2"></circle><circle cx="98" cy="529" r="2"></circle><circle cx="103" cy="530" r="2"></circle><circle cx="108" cy="530" r="2"></circle><circle cx="113" cy="530" r="2"></circle><circle cx="118" cy="530" r="2"></circle><circle cx="123" cy="527" r="2"></circle><circle cx="128" cy="525" r="2"></circle><circle cx="133" cy="528" r="2"></circle><circle cx="138" cy="526" r="2"></circle><circle cx="143" cy="526" r="2"></circle><circle cx="148" cy="524" r="2"></circle><circle cx="153" cy="528" r="2"></circle><circle cx="158" cy="527" r="2"></circle><circle cx="163" cy="526" r="2"></circle><circle cx="168" cy="527" r="2"></circle><circle cx="173" cy="519" r="2"></circle><circle cx="178" cy="515" r="2"></circle><circle cx="183" cy="515" r="2"></circle><circle cx="188" cy="516" r="2"></circle><circle cx="193" cy="519" r="2"></circle><circle cx="198" cy="520" r="2"></circle><circle cx="203" cy="513" r="2"></circle><circle cx="208" cy="520" r="2"></circle><circle cx="213" cy="521" r="2"></circle><circle cx="218" cy="520" r="2"></circle><circle cx="223" cy="521" r="2"></circle><circle cx="228" cy="522" r="2"></circle><circle cx="233" cy="524" r="2"></circle><circle cx="238" cy="526" r="2"></circle><circle cx="243" cy="526" r="2"></circle><circle cx="247" cy="524" r="2"></circle><circle cx="252" cy="522" r="2"></circle><circle cx="257" cy="521" r="2"></circle><circle cx="262" cy="521" r="2"></circle><circle cx="267" cy="520" r="2"></circle><circle cx="272" cy="519" r="2"></circle><circle cx="277" cy="522" r="2"></circle><circle cx="282" cy="521" r="2"></circle><circle cx="287" cy="520" r="2"></circle><circle cx="292" cy="520" r="2"></circle><circle cx="297" cy="519" r="2"></circle><circle cx="302" cy="515" r="2"></circle><circle cx="307" cy="516" r="2"></circle><circle cx="312" cy="513" r="2"></circle><circle cx="317" cy="511" r="2"></circle><circle cx="322" cy="510" r="2"></circle><circle cx="327" cy="512" r="2"></circle><circle cx="332" cy="504" r="2"></circle><circle cx="337" cy="509" r="2"></circle><circle cx="342" cy="503" r="2"></circle><circle cx="347" cy="510" r="2"></circle><circle cx="352" cy="508" r="2"></circle><circle cx="357" cy="501" r="2"></circle><circle cx="362" cy="496" r="2"></circle><circle cx="367" cy="486" r="2"></circle><circle cx="387" cy="457" r="2"></circle><circle cx="392" cy="437" r="2"></circle><circle cx="397" cy="418" r="2"></circle><circle cx="402" cy="432" r="2"></circle><circle cx="407" cy="425" r="2"></circle><circle cx="412" cy="411" r="2"></circle><circle cx="417" cy="407" r="2"></circle><circle cx="422" cy="409" r="2"></circle><circle cx="427" cy="408" r="2"></circle><circle cx="432" cy="418" r="2"></circle><circle cx="437" cy="418" r="2"></circle><circle cx="442" cy="414" r="2"></circle><circle cx="447" cy="423" r="2"></circle><circle cx="452" cy="415" r="2"></circle><circle cx="457" cy="417" r="2"></circle><circle cx="462" cy="410" r="2"></circle><circle cx="467" cy="405" r="2"></circle><circle cx="472" cy="407" r="2"></circle><circle cx="477" cy="403" r="2"></circle><circle cx="482" cy="400" r="2"></circle><circle cx="487" cy="405" r="2"></circle><circle cx="492" cy="404" r="2"></circle><circle cx="497" cy="406" r="2"></circle><circle cx="502" cy="403" r="2"></circle><circle cx="507" cy="393" r="2"></circle><circle cx="512" cy="383" r="2"></circle><circle cx="517" cy="382" r="2"></circle><circle cx="522" cy="367" r="2"></circle><circle cx="527" cy="347" r="2"></circle><circle cx="532" cy="341" r="2"></circle><circle cx="537" cy="330" r="2"></circle><circle cx="542" cy="317" r="2"></circle><circle cx="547" cy="308" r="2"></circle><circle cx="552" cy="303" r="2"></circle><circle cx="557" cy="306" r="2"></circle><circle cx="562" cy="303" r="2"></circle><circle cx="567" cy="299" r="2"></circle><circle cx="572" cy="303" r="2"></circle><circle cx="577" cy="310" r="2"></circle><circle cx="582" cy="310" r="2"></circle><circle cx="587" cy="309" r="2"></circle><circle cx="592" cy="316" r="2"></circle><circle cx="597" cy="322" r="2"></circle><circle cx="602" cy="321" r="2"></circle><circle cx="607" cy="323" r="2"></circle><circle cx="612" cy="317" r="2"></circle><circle cx="617" cy="306" r="2"></circle><circle cx="622" cy="303" r="2"></circle><circle cx="627" cy="296" r="2"></circle><circle cx="632" cy="290" r="2"></circle><circle cx="637" cy="297" r="2"></circle><circle cx="642" cy="289" r="2"></circle><circle cx="647" cy="278" r="2"></circle><circle cx="652" cy="276" r="2"></circle><circle cx="657" cy="280" r="2"></circle><circle cx="662" cy="279" r="2"></circle><circle cx="667" cy="283" r="2"></circle><circle cx="672" cy="301" r="2"></circle><circle cx="677" cy="302" r="2"></circle><circle cx="682" cy="298" r="2"></circle><circle cx="687" cy="307" r="2"></circle><circle cx="692" cy="291" r="2"></circle><circle cx="697" cy="263" r="2"></circle><circle cx="702" cy="265" r="2"></circle><circle cx="707" cy="272" r="2"></circle></g></g><g class="key-United-States_0"><path stroke="#ca2628" stroke-linecap="round" d="M53 516L58 517L63 520L68 519L73 520L78 519L83 521L88 521L93 521L98 520L103 520L108 519L113 520L118 518L123 517L128 519L133 519L138 519L143 517L148 513L153 517L158 519L163 521L168 521L173 519L178 521L183 523L188 523L193 519L198 520L203 521L208 521L213 522L218 523L223 521L228 522L233 525L238 511L243 413L247 376L252 481L257 483L262 498L267 504L272 507L277 509L282 511L287 511L292 511L297 512L302 508L307 500L312 478L317 476L322 464L327 472L332 465L337 476L342 478L347 468L352 472L357 463L362 396L367 274L372 252L377 244L382 349L387 421L392 445L397 429L402 437L407 442L412 409L417 400L422 406L427 420L432 423L437 419L442 412L447 410L452 346L457 338L462 337L467 338L472 342L477 345L482 339L487 327L492 325L497 327L502 320L507 320L512 321L517 326L522 318L527 302L532 308L537 314L542 319L547 319L552 305L557 301L562 284L567 282L572 286L577 281L582 279L587 279L592 284L597 283L602 277L607 270L612 266L617 271L622 277L627 276L632 281L637 289L642 295L647 300L652 304L657 292L662 288L667 288L672 289L677 287L682 288L687 282L692 269L697 247L702 248L707 257" fill="none" stroke-width="1.5"></path><g fill="#ca2628"><circle cx="53" cy="516" r="2"></circle><circle cx="58" cy="517" r="2"></circle><circle cx="63" cy="520" r="2"></circle><circle cx="68" cy="519" r="2"></circle><circle cx="73" cy="520" r="2"></circle><circle cx="78" cy="519" r="2"></circle><circle cx="83" cy="521" r="2"></circle><circle cx="88" cy="521" r="2"></circle><circle cx="93" cy="521" r="2"></circle><circle cx="98" cy="520" r="2"></circle><circle cx="103" cy="520" r="2"></circle><circle cx="108" cy="519" r="2"></circle><circle cx="113" cy="520" r="2"></circle><circle cx="118" cy="518" r="2"></circle><circle cx="123" cy="517" r="2"></circle><circle cx="128" cy="519" r="2"></circle><circle cx="133" cy="519" r="2"></circle><circle cx="138" cy="519" r="2"></circle><circle cx="143" cy="517" r="2"></circle><circle cx="148" cy="513" r="2"></circle><circle cx="153" cy="517" r="2"></circle><circle cx="158" cy="519" r="2"></circle><circle cx="163" cy="521" r="2"></circle><circle cx="168" cy="521" r="2"></circle><circle cx="173" cy="519" r="2"></circle><circle cx="178" cy="521" r="2"></circle><circle cx="183" cy="523" r="2"></circle><circle cx="188" cy="523" r="2"></circle><circle cx="193" cy="519" r="2"></circle><circle cx="198" cy="520" r="2"></circle><circle cx="203" cy="521" r="2"></circle><circle cx="208" cy="521" r="2"></circle><circle cx="213" cy="522" r="2"></circle><circle cx="218" cy="523" r="2"></circle><circle cx="223" cy="521" r="2"></circle><circle cx="228" cy="522" r="2"></circle><circle cx="233" cy="525" r="2"></circle><circle cx="238" cy="511" r="2"></circle><circle cx="243" cy="413" r="2"></circle><circle cx="247" cy="376" r="2"></circle><circle cx="252" cy="481" r="2"></circle><circle cx="257" cy="483" r="2"></circle><circle cx="262" cy="498" r="2"></circle><circle cx="267" cy="504" r="2"></circle><circle cx="272" cy="507" r="2"></circle><circle cx="277" cy="509" r="2"></circle><circle cx="282" cy="511" r="2"></circle><circle cx="287" cy="511" r="2"></circle><circle cx="292" cy="511" r="2"></circle><circle cx="297" cy="512" r="2"></circle><circle cx="302" cy="508" r="2"></circle><circle cx="307" cy="500" r="2"></circle><circle cx="312" cy="478" r="2"></circle><circle cx="317" cy="476" r="2"></circle><circle cx="322" cy="464" r="2"></circle><circle cx="327" cy="472" r="2"></circle><circle cx="332" cy="465" r="2"></circle><circle cx="337" cy="476" r="2"></circle><circle cx="342" cy="478" r="2"></circle><circle cx="347" cy="468" r="2"></circle><circle cx="352" cy="472" r="2"></circle><circle cx="357" cy="463" r="2"></circle><circle cx="362" cy="396" r="2"></circle><circle cx="367" cy="274" r="2"></circle><circle cx="372" cy="252" r="2"></circle><circle cx="377" cy="244" r="2"></circle><circle cx="382" cy="349" r="2"></circle><circle cx="387" cy="421" r="2"></circle><circle cx="392" cy="445" r="2"></circle><circle cx="397" cy="429" r="2"></circle><circle cx="402" cy="437" r="2"></circle><circle cx="407" cy="442" r="2"></circle><circle cx="412" cy="409" r="2"></circle><circle cx="417" cy="400" r="2"></circle><circle cx="422" cy="406" r="2"></circle><circle cx="427" cy="420" r="2"></circle><circle cx="432" cy="423" r="2"></circle><circle cx="437" cy="419" r="2"></circle><circle cx="442" cy="412" r="2"></circle><circle cx="447" cy="410" r="2"></circle><circle cx="452" cy="346" r="2"></circle><circle cx="457" cy="338" r="2"></circle><circle cx="462" cy="337" r="2"></circle><circle cx="467" cy="338" r="2"></circle><circle cx="472" cy="342" r="2"></circle><circle cx="477" cy="345" r="2"></circle><circle cx="482" cy="339" r="2"></circle><circle cx="487" cy="327" r="2"></circle><circle cx="492" cy="325" r="2"></circle><circle cx="497" cy="327" r="2"></circle><circle cx="502" cy="320" r="2"></circle><circle cx="507" cy="320" r="2"></circle><circle cx="512" cy="321" r="2"></circle><circle cx="517" cy="326" r="2"></circle><circle cx="522" cy="318" r="2"></circle><circle cx="527" cy="302" r="2"></circle><circle cx="532" cy="308" r="2"></circle><circle cx="537" cy="314" r="2"></circle><circle cx="542" cy="319" r="2"></circle><circle cx="547" cy="319" r="2"></circle><circle cx="552" cy="305" r="2"></circle><circle cx="557" cy="301" r="2"></circle><circle cx="562" cy="284" r="2"></circle><circle cx="567" cy="282" r="2"></circle><circle cx="572" cy="286" r="2"></circle><circle cx="577" cy="281" r="2"></circle><circle cx="582" cy="279" r="2"></circle><circle cx="587" cy="279" r="2"></circle><circle cx="592" cy="284" r="2"></circle><circle cx="597" cy="283" r="2"></circle><circle cx="602" cy="277" r="2"></circle><circle cx="607" cy="270" r="2"></circle><circle cx="612" cy="266" r="2"></circle><circle cx="617" cy="271" r="2"></circle><circle cx="622" cy="277" r="2"></circle><circle cx="627" cy="276" r="2"></circle><circle cx="632" cy="281" r="2"></circle><circle cx="637" cy="289" r="2"></circle><circle cx="642" cy="295" r="2"></circle><circle cx="647" cy="300" r="2"></circle><circle cx="652" cy="304" r="2"></circle><circle cx="657" cy="292" r="2"></circle><circle cx="662" cy="288" r="2"></circle><circle cx="667" cy="288" r="2"></circle><circle cx="672" cy="289" r="2"></circle><circle cx="677" cy="287" r="2"></circle><circle cx="682" cy="288" r="2"></circle><circle cx="687" cy="282" r="2"></circle><circle cx="692" cy="269" r="2"></circle><circle cx="697" cy="247" r="2"></circle><circle cx="702" cy="248" r="2"></circle><circle cx="707" cy="257" r="2"></circle></g></g><g class="key-Germany_0"><path stroke="#34983f" stroke-linecap="round" d="M53 463L58 457L63 449L68 447L73 445L78 441L83 438L88 429L93 428L98 427L103 420L108 415L113 416L118 420L123 414L128 419L133 417L138 418L143 411L148 419L153 412L158 405L163 401L168 407L173 418L178 421L183 416L188 413L193 408L198 398L203 400L208 403L213 413L218 285L277 457L282 444L287 454L292 444L297 442L302 429L307 452L312 452L317 459L322 449L402 361L407 342L412 340L417 340L422 335L427 342L432 345L437 351L442 348L447 346L452 386L457 346L462 344L467 343L472 344L477 348L482 348L487 343L492 343L497 336L502 278L507 268L512 262L517 258L522 234L527 205L532 210L537 212L542 221L547 221L552 214L557 207L562 204L567 211L572 216L577 219L582 226L587 225L592 227L597 236L602 233L607 223L612 215L617 208L622 210L627 163L632 200L637 206L642 208L647 208L652 227L657 212L662 211L667 207L672 217L677 218L682 228L687 240L692 237L697 212L702 214L707 235" fill="none" stroke-width="1.5"></path><g fill="#34983f"><circle cx="53" cy="463" r="2"></circle><circle cx="58" cy="457" r="2"></circle><circle cx="63" cy="449" r="2"></circle><circle cx="68" cy="447" r="2"></circle><circle cx="73" cy="445" r="2"></circle><circle cx="78" cy="441" r="2"></circle><circle cx="83" cy="438" r="2"></circle><circle cx="88" cy="429" r="2"></circle><circle cx="93" cy="428" r="2"></circle><circle cx="98" cy="427" r="2"></circle><circle cx="103" cy="420" r="2"></circle><circle cx="108" cy="415" r="2"></circle><circle cx="113" cy="416" r="2"></circle><circle cx="118" cy="420" r="2"></circle><circle cx="123" cy="414" r="2"></circle><circle cx="128" cy="419" r="2"></circle><circle cx="133" cy="417" r="2"></circle><circle cx="138" cy="418" r="2"></circle><circle cx="143" cy="411" r="2"></circle><circle cx="148" cy="419" r="2"></circle><circle cx="153" cy="412" r="2"></circle><circle cx="158" cy="405" r="2"></circle><circle cx="163" cy="401" r="2"></circle><circle cx="168" cy="407" r="2"></circle><circle cx="173" cy="418" r="2"></circle><circle cx="178" cy="421" r="2"></circle><circle cx="183" cy="416" r="2"></circle><circle cx="188" cy="413" r="2"></circle><circle cx="193" cy="408" r="2"></circle><circle cx="198" cy="398" r="2"></circle><circle cx="203" cy="400" r="2"></circle><circle cx="208" cy="403" r="2"></circle><circle cx="213" cy="413" r="2"></circle><circle cx="218" cy="285" r="2"></circle><circle cx="277" cy="457" r="2"></circle><circle cx="282" cy="444" r="2"></circle><circle cx="287" cy="454" r="2"></circle><circle cx="292" cy="444" r="2"></circle><circle cx="297" cy="442" r="2"></circle><circle cx="302" cy="429" r="2"></circle><circle cx="307" cy="452" r="2"></circle><circle cx="312" cy="452" r="2"></circle><circle cx="317" cy="459" r="2"></circle><circle cx="322" cy="449" r="2"></circle><circle cx="402" cy="361" r="2"></circle><circle cx="407" cy="342" r="2"></circle><circle cx="412" cy="340" r="2"></circle><circle cx="417" cy="340" r="2"></circle><circle cx="422" cy="335" r="2"></circle><circle cx="427" cy="342" r="2"></circle><circle cx="432" cy="345" r="2"></circle><circle cx="437" cy="351" r="2"></circle><circle cx="442" cy="348" r="2"></circle><circle cx="447" cy="346" r="2"></circle><circle cx="452" cy="386" r="2"></circle><circle cx="457" cy="346" r="2"></circle><circle cx="462" cy="344" r="2"></circle><circle cx="467" cy="343" r="2"></circle><circle cx="472" cy="344" r="2"></circle><circle cx="477" cy="348" r="2"></circle><circle cx="482" cy="348" r="2"></circle><circle cx="487" cy="343" r="2"></circle><circle cx="492" cy="343" r="2"></circle><circle cx="497" cy="336" r="2"></circle><circle cx="502" cy="278" r="2"></circle><circle cx="507" cy="268" r="2"></circle><circle cx="512" cy="262" r="2"></circle><circle cx="517" cy="258" r="2"></circle><circle cx="522" cy="234" r="2"></circle><circle cx="527" cy="205" r="2"></circle><circle cx="532" cy="210" r="2"></circle><circle cx="537" cy="212" r="2"></circle><circle cx="542" cy="221" r="2"></circle><circle cx="547" cy="221" r="2"></circle><circle cx="552" cy="214" r="2"></circle><circle cx="557" cy="207" r="2"></circle><circle cx="562" cy="204" r="2"></circle><circle cx="567" cy="211" r="2"></circle><circle cx="572" cy="216" r="2"></circle><circle cx="577" cy="219" r="2"></circle><circle cx="582" cy="226" r="2"></circle><circle cx="587" cy="225" r="2"></circle><circle cx="592" cy="227" r="2"></circle><circle cx="597" cy="236" r="2"></circle><circle cx="602" cy="233" r="2"></circle><circle cx="607" cy="223" r="2"></circle><circle cx="612" cy="215" r="2"></circle><circle cx="617" cy="208" r="2"></circle><circle cx="622" cy="210" r="2"></circle><circle cx="627" cy="163" r="2"></circle><circle cx="632" cy="200" r="2"></circle><circle cx="637" cy="206" r="2"></circle><circle cx="642" cy="208" r="2"></circle><circle cx="647" cy="208" r="2"></circle><circle cx="652" cy="227" r="2"></circle><circle cx="657" cy="212" r="2"></circle><circle cx="662" cy="211" r="2"></circle><circle cx="667" cy="207" r="2"></circle><circle cx="672" cy="217" r="2"></circle><circle cx="677" cy="218" r="2"></circle><circle cx="682" cy="228" r="2"></circle><circle cx="687" cy="240" r="2"></circle><circle cx="692" cy="237" r="2"></circle><circle cx="697" cy="212" r="2"></circle><circle cx="702" cy="214" r="2"></circle><circle cx="707" cy="235" r="2"></circle></g></g><g class="key-United-Kingdom_0"><path stroke="#f6a324" stroke-linecap="round" d="M53 481L58 477L63 476L68 480L73 477L78 475L83 474L88 479L93 479L98 480L103 481L108 481L113 481L118 478L123 480L128 479L133 479L138 478L143 480L148 475L153 460L158 460L163 459L168 473L173 476L178 479L183 481L188 483L193 482L198 479L203 477L208 478L213 476L218 478L223 363L228 253L233 81L238 88L243 172L247 295L252 362L257 342L262 357L267 356L272 361L277 366L282 355L287 364L292 365L297 366L302 360L307 344L312 337L317 351L322 366L327 370L332 369L337 377L342 371L347 380L352 332L357 194L362 154L367 115L372 108L377 78L382 115L387 181L392 271L397 300L402 297L407 328L412 301L417 301L422 291L427 328L432 313L437 305L442 296L447 305L452 300L457 311L462 298L467 275L472 306L477 296L482 288L487 260L492 258L497 265L502 242L507 249L512 242L517 234L522 203L527 197L532 193L537 208L542 213L547 218L552 200L557 176L562 178L567 183L572 182L577 192L582 220L587 235L592 252L597 257L602 250L607 243L612 229L617 229L622 231L627 233L632 243L637 254L642 262L647 269L652 284L657 264L662 261L667 254L672 249L677 241L682 241L687 241L692 216L697 195L702 195L707 228" fill="none" stroke-width="1.5"></path><g fill="#f6a324"><circle cx="53" cy="481" r="2"></circle><circle cx="58" cy="477" r="2"></circle><circle cx="63" cy="476" r="2"></circle><circle cx="68" cy="480" r="2"></circle><circle cx="73" cy="477" r="2"></circle><circle cx="78" cy="475" r="2"></circle><circle cx="83" cy="474" r="2"></circle><circle cx="88" cy="479" r="2"></circle><circle cx="93" cy="479" r="2"></circle><circle cx="98" cy="480" r="2"></circle><circle cx="103" cy="481" r="2"></circle><circle cx="108" cy="481" r="2"></circle><circle cx="113" cy="481" r="2"></circle><circle cx="118" cy="478" r="2"></circle><circle cx="123" cy="480" r="2"></circle><circle cx="128" cy="479" r="2"></circle><circle cx="133" cy="479" r="2"></circle><circle cx="138" cy="478" r="2"></circle><circle cx="143" cy="480" r="2"></circle><circle cx="148" cy="475" r="2"></circle><circle cx="153" cy="460" r="2"></circle><circle cx="158" cy="460" r="2"></circle><circle cx="163" cy="459" r="2"></circle><circle cx="168" cy="473" r="2"></circle><circle cx="173" cy="476" r="2"></circle><circle cx="178" cy="479" r="2"></circle><circle cx="183" cy="481" r="2"></circle><circle cx="188" cy="483" r="2"></circle><circle cx="193" cy="482" r="2"></circle><circle cx="198" cy="479" r="2"></circle><circle cx="203" cy="477" r="2"></circle><circle cx="208" cy="478" r="2"></circle><circle cx="213" cy="476" r="2"></circle><circle cx="218" cy="478" r="2"></circle><circle cx="223" cy="363" r="2"></circle><circle cx="228" cy="253" r="2"></circle><circle cx="233" cy="81" r="2"></circle><circle cx="238" cy="88" r="2"></circle><circle cx="243" cy="172" r="2"></circle><circle cx="247" cy="295" r="2"></circle><circle cx="252" cy="362" r="2"></circle><circle cx="257" cy="342" r="2"></circle><circle cx="262" cy="357" r="2"></circle><circle cx="267" cy="356" r="2"></circle><circle cx="272" cy="361" r="2"></circle><circle cx="277" cy="366" r="2"></circle><circle cx="282" cy="355" r="2"></circle><circle cx="287" cy="364" r="2"></circle><circle cx="292" cy="365" r="2"></circle><circle cx="297" cy="366" r="2"></circle><circle cx="302" cy="360" r="2"></circle><circle cx="307" cy="344" r="2"></circle><circle cx="312" cy="337" r="2"></circle><circle cx="317" cy="351" r="2"></circle><circle cx="322" cy="366" r="2"></circle><circle cx="327" cy="370" r="2"></circle><circle cx="332" cy="369" r="2"></circle><circle cx="337" cy="377" r="2"></circle><circle cx="342" cy="371" r="2"></circle><circle cx="347" cy="380" r="2"></circle><circle cx="352" cy="332" r="2"></circle><circle cx="357" cy="194" r="2"></circle><circle cx="362" cy="154" r="2"></circle><circle cx="367" cy="115" r="2"></circle><circle cx="372" cy="108" r="2"></circle><circle cx="377" cy="78" r="2"></circle><circle cx="382" cy="115" r="2"></circle><circle cx="387" cy="181" r="2"></circle><circle cx="392" cy="271" r="2"></circle><circle cx="397" cy="300" r="2"></circle><circle cx="402" cy="297" r="2"></circle><circle cx="407" cy="328" r="2"></circle><circle cx="412" cy="301" r="2"></circle><circle cx="417" cy="301" r="2"></circle><circle cx="422" cy="291" r="2"></circle><circle cx="427" cy="328" r="2"></circle><circle cx="432" cy="313" r="2"></circle><circle cx="437" cy="305" r="2"></circle><circle cx="442" cy="296" r="2"></circle><circle cx="447" cy="305" r="2"></circle><circle cx="452" cy="300" r="2"></circle><circle cx="457" cy="311" r="2"></circle><circle cx="462" cy="298" r="2"></circle><circle cx="467" cy="275" r="2"></circle><circle cx="472" cy="306" r="2"></circle><circle cx="477" cy="296" r="2"></circle><circle cx="482" cy="288" r="2"></circle><circle cx="487" cy="260" r="2"></circle><circle cx="492" cy="258" r="2"></circle><circle cx="497" cy="265" r="2"></circle><circle cx="502" cy="242" r="2"></circle><circle cx="507" cy="249" r="2"></circle><circle cx="512" cy="242" r="2"></circle><circle cx="517" cy="234" r="2"></circle><circle cx="522" cy="203" r="2"></circle><circle cx="527" cy="197" r="2"></circle><circle cx="532" cy="193" r="2"></circle><circle cx="537" cy="208" r="2"></circle><circle cx="542" cy="213" r="2"></circle><circle cx="547" cy="218" r="2"></circle><circle cx="552" cy="200" r="2"></circle><circle cx="557" cy="176" r="2"></circle><circle cx="562" cy="178" r="2"></circle><circle cx="567" cy="183" r="2"></circle><circle cx="572" cy="182" r="2"></circle><circle cx="577" cy="192" r="2"></circle><circle cx="582" cy="220" r="2"></circle><circle cx="587" cy="235" r="2"></circle><circle cx="592" cy="252" r="2"></circle><circle cx="597" cy="257" r="2"></circle><circle cx="602" cy="250" r="2"></circle><circle cx="607" cy="243" r="2"></circle><circle cx="612" cy="229" r="2"></circle><circle cx="617" cy="229" r="2"></circle><circle cx="622" cy="231" r="2"></circle><circle cx="627" cy="233" r="2"></circle><circle cx="632" cy="243" r="2"></circle><circle cx="637" cy="254" r="2"></circle><circle cx="642" cy="262" r="2"></circle><circle cx="647" cy="269" r="2"></circle><circle cx="652" cy="284" r="2"></circle><circle cx="657" cy="264" r="2"></circle><circle cx="662" cy="261" r="2"></circle><circle cx="667" cy="254" r="2"></circle><circle cx="672" cy="249" r="2"></circle><circle cx="677" cy="241" r="2"></circle><circle cx="682" cy="241" r="2"></circle><circle cx="687" cy="241" r="2"></circle><circle cx="692" cy="216" r="2"></circle><circle cx="697" cy="195" r="2"></circle><circle cx="702" cy="195" r="2"></circle><circle cx="707" cy="228" r="2"></circle></g></g></g></g></g><g style="fill: #777;" class="SourcesFooter"><g style="fill: #777;" class="clickable"><text font-size="12.60" x="15.0" y="581.6"><tspan x="15" y="581.58">Source: IMF Fiscal Affairs Departmental Data, based on Mauro et al. (2015)</tspan></text></g><text font-size="12.60" x="553.4" y="581.6"><tspan x="553.39" y="581.58"><a target='_blank' style='fill: #777;' href='https://ourworldindata.org/public-spending/'>OurWorldInData.org/public-spending/</a> • <a style="fill: #777;" href="http://creativecommons.org/licenses/by-sa/4.0/deed.en_US" target="_blank">CC BY-SA</a></tspan></text></g></g></svg>