<svg xmlns="http://www.w3.org/2000/svg" version="1.1" style="font-family: 'Helvetica Neue', Helvetica, Arial, sans-serif; font-size: 18px; background-color: white; text-rendering: optimizeLegibility; -webkit-font-smoothing: antialiased;" width="850" height="600"><g class="ChartTab"><g class="HeaderView"><g opacity="0.8" transform="translate(770, 15) scale(0.31)"><a xmlns:xlink="http://www.w3.org/1999/xlink" xlink:href="https://ourworldindata.org" target="_blank"><g><rect x="0" y="0" fill="#1B2543" width="211.2" height="130.1"/><rect x="0" y="112.2" fill="#E63912" width="211.2" height="17.9"/><g><rect x="1.2" y="12.3" fill="none" width="210.2" height="99.2"/><path fill="#FFFFFF" d="M37.8,32.2c0,12.7-7.7,19.4-17.1,19.4c-9.7,0-16.6-7.5-16.6-18.7c0-11.7,7.3-19.3,17.1-19.3 C31.3,13.7,37.8,21.3,37.8,32.2z M9.2,32.8c0,7.9,4.3,14.9,11.8,14.9c7.5,0,11.8-6.9,11.8-15.3c0-7.3-3.8-14.9-11.8-14.9 C13.1,17.5,9.2,24.8,9.2,32.8z"/><path fill="#FFFFFF" d="M62.7,43.8c0,2.7,0.1,5.1,0.2,7.2h-4.3l-0.3-4.3h-0.1c-1.3,2.1-4,4.9-8.8,4.9c-4.2,0-9.1-2.3-9.1-11.6 V24.6h4.8v14.6c0,5,1.5,8.4,5.9,8.4c3.2,0,5.5-2.2,6.3-4.4c0.3-0.7,0.4-1.6,0.4-2.5V24.6h4.8V43.8z"/><path fill="#FFFFFF" d="M67.3,32.8c0-3.1-0.1-5.8-0.2-8.2h4.2l0.2,5.2h0.2c1.2-3.5,4.1-5.8,7.3-5.8c0.5,0,0.9,0.1,1.4,0.2v4.5 c-0.5-0.1-1-0.2-1.6-0.2c-3.4,0-5.8,2.6-6.5,6.2c-0.1,0.7-0.2,1.4-0.2,2.2V51h-4.8V32.8z"/><path fill="#FFFFFF" d="M95.4,51l-9.4-36.8h5l4.4,18.6c1.1,4.6,2.1,9.2,2.7,12.7h0.1c0.6-3.7,1.8-8,3-12.8l4.9-18.5h5l4.5,18.7 c1,4.4,2,8.7,2.6,12.6h0.1c0.8-4,1.8-8.1,3-12.7l4.9-18.5h4.9L120.6,51h-5L111,31.9c-1.1-4.7-1.9-8.3-2.4-12h-0.1 c-0.7,3.7-1.5,7.3-2.8,12L100.4,51H95.4z"/><path fill="#FFFFFF" d="M154.9,37.6c0,9.8-6.8,14-13.2,14c-7.2,0-12.7-5.2-12.7-13.6c0-8.8,5.8-14,13.1-14 C149.8,24,154.9,29.5,154.9,37.6z M133.9,37.9c0,5.8,3.3,10.1,8,10.1c4.6,0,8-4.3,8-10.3c0-4.5-2.2-10.1-7.9-10.1 C136.3,27.6,133.9,32.8,133.9,37.9z"/><path fill="#FFFFFF" d="M158.2,32.8c0-3.1-0.1-5.8-0.2-8.2h4.2l0.2,5.2h0.2c1.2-3.5,4.1-5.8,7.3-5.8c0.5,0,0.9,0.1,1.4,0.2v4.5 c-0.5-0.1-1-0.2-1.6-0.2c-3.4,0-5.8,2.6-6.5,6.2c-0.1,0.7-0.2,1.4-0.2,2.2V51h-4.8V32.8z"/><path fill="#FFFFFF" d="M173.5,12.3h4.8V51h-4.8V12.3z"/><path fill="#FFFFFF" d="M206.5,12.3v31.9c0,2.3,0.1,5,0.2,6.8h-4.3l-0.2-4.6H202c-1.5,2.9-4.7,5.2-9,5.2 c-6.4,0-11.3-5.4-11.3-13.4c-0.1-8.8,5.4-14.2,11.9-14.2c4,0,6.8,1.9,8,4h0.1V12.3H206.5z M201.7,35.4c0-0.6-0.1-1.4-0.2-2 c-0.7-3.1-3.3-5.6-6.9-5.6c-5,0-7.9,4.4-7.9,10.2c0,5.3,2.6,9.8,7.8,9.8c3.2,0,6.2-2.1,7.1-5.7c0.2-0.7,0.2-1.3,0.2-2.1V35.4z"/><path fill="#FFFFFF" d="M42.8,64c0.1,1.6-1.1,2.9-3.1,2.9c-1.7,0-2.9-1.3-2.9-2.9c0-1.7,1.3-3,3-3C41.7,61,42.8,62.3,42.8,64z M37.4,97.8V71.4h4.8v26.4H37.4z"/><path fill="#FFFFFF" d="M47.5,78.6c0-2.7-0.1-5-0.2-7.1h4.3l0.3,4.4h0.1c1.3-2.5,4.4-5,8.8-5c3.7,0,9.4,2.2,9.4,11.2v15.8h-4.8 V82.6c0-4.3-1.6-7.8-6.1-7.8c-3.2,0-5.6,2.2-6.5,4.9c-0.2,0.6-0.3,1.4-0.3,2.2v15.9h-4.8V78.6z"/><path fill="#FFFFFF" d="M84,61.6c2.9-0.4,6.3-0.8,10.1-0.8c6.8,0,11.7,1.6,14.9,4.6c3.3,3,5.2,7.3,5.2,13.2c0,6-1.9,10.9-5.3,14.3 c-3.4,3.4-9.1,5.3-16.3,5.3c-3.4,0-6.2-0.2-8.6-0.4V61.6z M88.8,94.1c1.2,0.2,3,0.3,4.8,0.3c10.2,0,15.7-5.7,15.7-15.6 c0.1-8.7-4.9-14.2-14.9-14.2c-2.5,0-4.3,0.2-5.6,0.5V94.1z"/><path fill="#FFFFFF" d="M132.1,97.8l-0.4-3.3h-0.2c-1.5,2.1-4.3,3.9-8.1,3.9c-5.4,0-8.1-3.8-8.1-7.6c0-6.4,5.7-9.9,15.9-9.8v-0.5 c0-2.2-0.6-6.1-6-6.1c-2.5,0-5,0.8-6.9,2l-1.1-3.2c2.2-1.4,5.4-2.3,8.7-2.3c8.1,0,10.1,5.5,10.1,10.8v9.9c0,2.3,0.1,4.5,0.4,6.3 H132.1z M131.4,84.4c-5.3-0.1-11.2,0.8-11.2,5.9c0,3.1,2.1,4.6,4.5,4.6c3.4,0,5.6-2.2,6.4-4.4c0.2-0.5,0.3-1,0.3-1.5V84.4z"/><path fill="#FFFFFF" d="M146.6,63.9v7.6h6.9v3.7h-6.9v14.2c0,3.3,0.9,5.1,3.6,5.1c1.3,0,2.2-0.2,2.8-0.3l0.2,3.6 c-0.9,0.4-2.4,0.7-4.3,0.7c-2.2,0-4-0.7-5.2-2c-1.4-1.4-1.9-3.8-1.9-6.9V75.1h-4.1v-3.7h4.1v-6.3L146.6,63.9z"/><path fill="#FFFFFF" d="M171.4,97.8l-0.4-3.3h-0.2c-1.5,2.1-4.3,3.9-8.1,3.9c-5.4,0-8.1-3.8-8.1-7.6c0-6.4,5.7-9.9,15.9-9.8v-0.5 c0-2.2-0.6-6.1-6-6.1c-2.5,0-5,0.8-6.9,2l-1.1-3.2c2.2-1.4,5.4-2.3,8.7-2.3c8.1,0,10.1,5.5,10.1,10.8v9.9c0,2.3,0.1,4.5,0.4,6.3 H171.4z M170.7,84.4c-5.3-0.1-11.2,0.8-11.2,5.9c0,3.1,2.1,4.6,4.5,4.6c3.4,0,5.6-2.2,6.4-4.4c0.2-0.5,0.3-1,0.3-1.5V84.4z"/></g></g></a></g><a href="https://ourworldindata.org/grapher/increase-in-life-expectancy-between-1950-2015-by-hours-per-day" target="_blank"><text font-size="25.20" x="15.0" y="35.2" fill="#555"><tspan x="15" y="35.160000000000004">Increase in life expectancy between 1950-2015 by hours per day</tspan></text></a><text font-size="14.40" x="15.0" y="53.7" fill="#666"><tspan x="15" y="53.72">Measures the increase in life expectancy by hours per day for the 65 year period between 1950-2015. With a</tspan><tspan x="15" y="69.56">starting point of life expectancy in 1950, how many additional hours per day can people expect to live in 2015? </tspan></text></g><g class="LineChart"><defs><clipPath id="boundsClip-1"><rect x="73.342" y="0" width="830" height="928.8"></rect></clipPath></defs><g class="AxisBoxView"><g class="HorizontalAxis"><text x="83.3" y="556.5" fill="#666" text-anchor="middle" font-size="16.2">1950</text><text x="179.3" y="556.5" fill="#666" text-anchor="middle" font-size="16.2">1960</text><text x="275.3" y="556.5" fill="#666" text-anchor="middle" font-size="16.2">1970</text><text x="371.3" y="556.5" fill="#666" text-anchor="middle" font-size="16.2">1980</text><text x="467.2" y="556.5" fill="#666" text-anchor="middle" font-size="16.2">1990</text><text x="563.2" y="556.5" fill="#666" text-anchor="middle" font-size="16.2">2000</text><text x="659.2" y="556.5" fill="#666" text-anchor="middle" font-size="16.2">2010</text><text x="707.2" y="556.5" fill="#666" text-anchor="middle" font-size="16.2">2015</text></g><g class="VerticalAxis"><text x="78.34" y="535.3" fill="#666" dominant-baseline="middle" text-anchor="end" font-size="16.2">0 hours</text><text x="78.34" y="467.2" fill="#666" dominant-baseline="middle" text-anchor="end" font-size="16.2">2 hours</text><text x="78.34" y="399.1" fill="#666" dominant-baseline="middle" text-anchor="end" font-size="16.2">4 hours</text><text x="78.34" y="331" fill="#666" dominant-baseline="middle" text-anchor="end" font-size="16.2">6 hours</text><text x="78.34" y="262.9" fill="#666" dominant-baseline="middle" text-anchor="end" font-size="16.2">8 hours</text><text x="78.34" y="194.8" fill="#666" dominant-baseline="middle" text-anchor="end" font-size="16.2">10 hours</text><text x="78.34" y="126.7" fill="#666" dominant-baseline="middle" text-anchor="end" font-size="16.2">12 hours</text></g><g class="AxisGridLines"><line x1="83.34" y1="535.3" x2="707.18" y2="535.3" stroke="#ccc"></line><line x1="83.34" y1="467.2" x2="707.18" y2="467.2" stroke="#ddd" stroke-dasharray="3,2"></line><line x1="83.34" y1="399.1" x2="707.18" y2="399.1" stroke="#ddd" stroke-dasharray="3,2"></line><line x1="83.34" y1="331" x2="707.18" y2="331" stroke="#ddd" stroke-dasharray="3,2"></line><line x1="83.34" y1="262.9" x2="707.18" y2="262.9" stroke="#ddd" stroke-dasharray="3,2"></line><line x1="83.34" y1="194.8" x2="707.18" y2="194.8" stroke="#ddd" stroke-dasharray="3,2"></line><line x1="83.34" y1="126.7" x2="707.18" y2="126.7" stroke="#ddd" stroke-dasharray="3,2"></line></g><g class="AxisGridLines"><line x1="83.3" y1="535.30" x2="83.3" y2="92.10" stroke="#ddd" stroke-dasharray="3,2"></line><line x1="179.3" y1="535.30" x2="179.3" y2="92.10" stroke="#ddd" stroke-dasharray="3,2"></line><line x1="275.3" y1="535.30" x2="275.3" y2="92.10" stroke="#ddd" stroke-dasharray="3,2"></line><line x1="371.3" y1="535.30" x2="371.3" y2="92.10" stroke="#ddd" stroke-dasharray="3,2"></line><line x1="467.2" y1="535.30" x2="467.2" y2="92.10" stroke="#ddd" stroke-dasharray="3,2"></line><line x1="563.2" y1="535.30" x2="563.2" y2="92.10" stroke="#ddd" stroke-dasharray="3,2"></line><line x1="659.2" y1="535.30" x2="659.2" y2="92.10" stroke="#ddd" stroke-dasharray="3,2"></line></g></g><g clip-path="url(#boundsClip-1)"><g class="HeightedLegend clickable"><g class="legendMark"><rect x="717.184" y="84.89999999999999" width="95.49600000000001" height="14.4" fill="#fff" opacity="0"></rect><rect x="717.184" y="90.85" width="10" height="2.5" fill="rgb(185, 222, 40)"></rect><text font-size="14.40" x="732.2" y="96.4" fill="#333"><tspan x="732.184" y="96.42">South Korea</tspan></text></g><g class="legendMark"><rect x="717.184" y="111.7" width="52.728" height="14.4" fill="#fff" opacity="0"></rect><rect x="717.184" y="117.65" width="10" height="2.5" fill="rgb(120, 209, 83)"></rect><text font-size="14.40" x="732.2" y="123.2" fill="#333"><tspan x="732.184" y="123.22000000000001">China</tspan></text></g><g class="legendMark"><rect x="717.184" y="169.5" width="68.85600000000001" height="14.4" fill="#fff" opacity="0"></rect><rect x="717.184" y="175.45" width="10" height="2.5" fill="rgb(66, 190, 113)"></rect><text font-size="14.40" x="732.2" y="181.0" fill="#333"><tspan x="732.184" y="181.02">Ecuador</tspan></text></g><g class="legendMark"><rect x="717.184" y="209.70000000000002" width="47.832" height="14.4" fill="#fff" opacity="0"></rect><rect x="717.184" y="215.65" width="10" height="2.5" fill="rgb(34, 167, 133)"></rect><text font-size="14.40" x="732.2" y="221.2" fill="#333"><tspan x="732.184" y="221.22000000000003">Chile</tspan></text></g><g class="legendMark"><rect x="717.184" y="224.10000000000002" width="51.00000000000001" height="14.4" fill="#fff" opacity="0"></rect><rect x="717.184" y="230.05" width="10" height="2.5" fill="rgb(33, 144, 141)"></rect><text font-size="14.40" x="732.2" y="235.6" fill="#333"><tspan x="732.184" y="235.62000000000003">Brazil</tspan></text></g><g class="legendMark"><rect x="717.184" y="245.60000000000002" width="54.456" height="14.4" fill="#fff" opacity="0"></rect><rect x="717.184" y="251.55" width="10" height="2.5" fill="rgb(42, 120, 142)"></rect><text font-size="14.40" x="732.2" y="257.1" fill="#333"><tspan x="732.184" y="257.12">Japan</tspan></text></g><g class="legendMark"><rect x="717.184" y="352.1" width="67.12800000000001" height="14.4" fill="#fff" opacity="0"></rect><rect x="717.184" y="358.05" width="10" height="2.5" fill="rgb(53, 95, 141)"></rect><text font-size="14.40" x="732.2" y="363.6" fill="#333"><tspan x="732.184" y="363.62">Belgium</tspan></text></g><g class="legendMark"><rect x="717.184" y="368.5" width="117.81600000000002" height="14.4" fill="#fff" opacity="0"></rect><rect x="717.184" y="374.45" width="10" height="2.5" fill="rgb(65, 68, 135)"></rect><text font-size="14.40" x="732.2" y="380.0" fill="#333"><tspan x="732.184" y="380.02">United Kingdom</tspan></text></g><g class="legendMark"><rect x="717.184" y="389.3" width="101.83200000000001" height="14.4" fill="#fff" opacity="0"></rect><rect x="717.184" y="395.25" width="10" height="2.5" fill="rgb(72, 36, 117)"></rect><text font-size="14.40" x="732.2" y="400.8" fill="#333"><tspan x="732.184" y="400.82">United States</tspan></text></g><g class="legendMark"><rect x="717.184" y="403.7" width="73.464" height="14.4" fill="#fff" opacity="0"></rect><rect x="717.184" y="409.65" width="10" height="2.5" fill="rgb(68, 1, 84)"></rect><text font-size="14.40" x="732.2" y="415.2" fill="#333"><tspan x="732.184" y="415.21999999999997">Denmark</tspan></text></g></g><g class="Lines"><rect x="83" y="92" width="624" height="443" fill="rgba(255,255,255,0)" opacity="0"></rect><g class="key-Brazil_0"><path stroke="rgb(33, 144, 141)" stroke-linecap="round" d="M83 535L707 218" fill="none" stroke-width="1.5"></path><g fill="rgb(33, 144, 141)"><circle cx="83" cy="535" r="2"></circle><circle cx="707" cy="218" r="2"></circle></g></g><g class="key-Belgium_0"><path stroke="rgb(53, 95, 141)" stroke-linecap="round" d="M83 535L707 359" fill="none" stroke-width="1.5"></path><g fill="rgb(53, 95, 141)"><circle cx="83" cy="535" r="2"></circle><circle cx="707" cy="359" r="2"></circle></g></g><g class="key-China_0"><path stroke="rgb(120, 209, 83)" stroke-linecap="round" d="M83 535L707 119" fill="none" stroke-width="1.5"></path><g fill="rgb(120, 209, 83)"><circle cx="83" cy="535" r="2"></circle><circle cx="707" cy="119" r="2"></circle></g></g><g class="key-Chile_0"><path stroke="rgb(34, 167, 133)" stroke-linecap="round" d="M83 535L707 217" fill="none" stroke-width="1.5"></path><g fill="rgb(34, 167, 133)"><circle cx="83" cy="535" r="2"></circle><circle cx="707" cy="217" r="2"></circle></g></g><g class="key-Denmark_0"><path stroke="rgb(68, 1, 84)" stroke-linecap="round" d="M83 535L707 408" fill="none" stroke-width="1.5"></path><g fill="rgb(68, 1, 84)"><circle cx="83" cy="535" r="2"></circle><circle cx="707" cy="408" r="2"></circle></g></g><g class="key-Japan_0"><path stroke="rgb(42, 120, 142)" stroke-linecap="round" d="M83 535L707 253" fill="none" stroke-width="1.5"></path><g fill="rgb(42, 120, 142)"><circle cx="83" cy="535" r="2"></circle><circle cx="707" cy="253" r="2"></circle></g></g><g class="key-United-Kingdom_0"><path stroke="rgb(65, 68, 135)" stroke-linecap="round" d="M83 535L707 376" fill="none" stroke-width="1.5"></path><g fill="rgb(65, 68, 135)"><circle cx="83" cy="535" r="2"></circle><circle cx="707" cy="376" r="2"></circle></g></g><g class="key-United-States_0"><path stroke="rgb(72, 36, 117)" stroke-linecap="round" d="M83 535L707 397" fill="none" stroke-width="1.5"></path><g fill="rgb(72, 36, 117)"><circle cx="83" cy="535" r="2"></circle><circle cx="707" cy="397" r="2"></circle></g></g><g class="key-South-Korea_0"><path stroke="rgb(185, 222, 40)" stroke-linecap="round" d="M83 535L707 92" fill="none" stroke-width="1.5"></path><g fill="rgb(185, 222, 40)"><circle cx="83" cy="535" r="2"></circle><circle cx="707" cy="92" r="2"></circle></g></g><g class="key-Ecuador_0"><path stroke="rgb(66, 190, 113)" stroke-linecap="round" d="M83 535L707 177" fill="none" stroke-width="1.5"></path><g fill="rgb(66, 190, 113)"><circle cx="83" cy="535" r="2"></circle><circle cx="707" cy="177" r="2"></circle></g></g></g></g></g><g style="fill: #777;" class="SourcesFooter"><g style="fill: #777;" class="clickable"><text font-size="12.60" x="15.0" y="581.6"><tspan x="15" y="581.58">Source: OWID calculations based on UN Population Division (2017 Revision)</tspan></text></g><text font-size="12.60" x="649.0" y="581.6"><tspan x="649.024" y="581.58"><a target='_blank' style='fill: #777;' href='https://ourworldindata.org'>OurWorldInData.org</a> • <a style="fill: #777;" href="http://creativecommons.org/licenses/by-sa/4.0/deed.en_US" target="_blank">CC BY-SA</a></tspan></text></g></g></svg>