<svg xmlns="http://www.w3.org/2000/svg" version="1.1" style="font-family: 'Helvetica Neue', Helvetica, Arial, sans-serif; font-size: 18px; background-color: white; text-rendering: optimizeLegibility; -webkit-font-smoothing: antialiased;" width="850" height="600"><g class="ChartTab"><g class="HeaderView"><g opacity="0.8" transform="translate(770, 15) scale(0.31)"><a xmlns:xlink="http://www.w3.org/1999/xlink" xlink:href="https://ourworldindata.org" target="_blank"><g><rect x="0" y="0" fill="#1B2543" width="211.2" height="130.1"/><rect x="0" y="112.2" fill="#E63912" width="211.2" height="17.9"/><g><rect x="1.2" y="12.3" fill="none" width="210.2" height="99.2"/><path fill="#FFFFFF" d="M37.8,32.2c0,12.7-7.7,19.4-17.1,19.4c-9.7,0-16.6-7.5-16.6-18.7c0-11.7,7.3-19.3,17.1-19.3 C31.3,13.7,37.8,21.3,37.8,32.2z M9.2,32.8c0,7.9,4.3,14.9,11.8,14.9c7.5,0,11.8-6.9,11.8-15.3c0-7.3-3.8-14.9-11.8-14.9 C13.1,17.5,9.2,24.8,9.2,32.8z"/><path fill="#FFFFFF" d="M62.7,43.8c0,2.7,0.1,5.1,0.2,7.2h-4.3l-0.3-4.3h-0.1c-1.3,2.1-4,4.9-8.8,4.9c-4.2,0-9.1-2.3-9.1-11.6 V24.6h4.8v14.6c0,5,1.5,8.4,5.9,8.4c3.2,0,5.5-2.2,6.3-4.4c0.3-0.7,0.4-1.6,0.4-2.5V24.6h4.8V43.8z"/><path fill="#FFFFFF" d="M67.3,32.8c0-3.1-0.1-5.8-0.2-8.2h4.2l0.2,5.2h0.2c1.2-3.5,4.1-5.8,7.3-5.8c0.5,0,0.9,0.1,1.4,0.2v4.5 c-0.5-0.1-1-0.2-1.6-0.2c-3.4,0-5.8,2.6-6.5,6.2c-0.1,0.7-0.2,1.4-0.2,2.2V51h-4.8V32.8z"/><path fill="#FFFFFF" d="M95.4,51l-9.4-36.8h5l4.4,18.6c1.1,4.6,2.1,9.2,2.7,12.7h0.1c0.6-3.7,1.8-8,3-12.8l4.9-18.5h5l4.5,18.7 c1,4.4,2,8.7,2.6,12.6h0.1c0.8-4,1.8-8.1,3-12.7l4.9-18.5h4.9L120.6,51h-5L111,31.9c-1.1-4.7-1.9-8.3-2.4-12h-0.1 c-0.7,3.7-1.5,7.3-2.8,12L100.4,51H95.4z"/><path fill="#FFFFFF" d="M154.9,37.6c0,9.8-6.8,14-13.2,14c-7.2,0-12.7-5.2-12.7-13.6c0-8.8,5.8-14,13.1-14 C149.8,24,154.9,29.5,154.9,37.6z M133.9,37.9c0,5.8,3.3,10.1,8,10.1c4.6,0,8-4.3,8-10.3c0-4.5-2.2-10.1-7.9-10.1 C136.3,27.6,133.9,32.8,133.9,37.9z"/><path fill="#FFFFFF" d="M158.2,32.8c0-3.1-0.1-5.8-0.2-8.2h4.2l0.2,5.2h0.2c1.2-3.5,4.1-5.8,7.3-5.8c0.5,0,0.9,0.1,1.4,0.2v4.5 c-0.5-0.1-1-0.2-1.6-0.2c-3.4,0-5.8,2.6-6.5,6.2c-0.1,0.7-0.2,1.4-0.2,2.2V51h-4.8V32.8z"/><path fill="#FFFFFF" d="M173.5,12.3h4.8V51h-4.8V12.3z"/><path fill="#FFFFFF" d="M206.5,12.3v31.9c0,2.3,0.1,5,0.2,6.8h-4.3l-0.2-4.6H202c-1.5,2.9-4.7,5.2-9,5.2 c-6.4,0-11.3-5.4-11.3-13.4c-0.1-8.8,5.4-14.2,11.9-14.2c4,0,6.8,1.9,8,4h0.1V12.3H206.5z M201.7,35.4c0-0.6-0.1-1.4-0.2-2 c-0.7-3.1-3.3-5.6-6.9-5.6c-5,0-7.9,4.4-7.9,10.2c0,5.3,2.6,9.8,7.8,9.8c3.2,0,6.2-2.1,7.1-5.7c0.2-0.7,0.2-1.3,0.2-2.1V35.4z"/><path fill="#FFFFFF" d="M42.8,64c0.1,1.6-1.1,2.9-3.1,2.9c-1.7,0-2.9-1.3-2.9-2.9c0-1.7,1.3-3,3-3C41.7,61,42.8,62.3,42.8,64z M37.4,97.8V71.4h4.8v26.4H37.4z"/><path fill="#FFFFFF" d="M47.5,78.6c0-2.7-0.1-5-0.2-7.1h4.3l0.3,4.4h0.1c1.3-2.5,4.4-5,8.8-5c3.7,0,9.4,2.2,9.4,11.2v15.8h-4.8 V82.6c0-4.3-1.6-7.8-6.1-7.8c-3.2,0-5.6,2.2-6.5,4.9c-0.2,0.6-0.3,1.4-0.3,2.2v15.9h-4.8V78.6z"/><path fill="#FFFFFF" d="M84,61.6c2.9-0.4,6.3-0.8,10.1-0.8c6.8,0,11.7,1.6,14.9,4.6c3.3,3,5.2,7.3,5.2,13.2c0,6-1.9,10.9-5.3,14.3 c-3.4,3.4-9.1,5.3-16.3,5.3c-3.4,0-6.2-0.2-8.6-0.4V61.6z M88.8,94.1c1.2,0.2,3,0.3,4.8,0.3c10.2,0,15.7-5.7,15.7-15.6 c0.1-8.7-4.9-14.2-14.9-14.2c-2.5,0-4.3,0.2-5.6,0.5V94.1z"/><path fill="#FFFFFF" d="M132.1,97.8l-0.4-3.3h-0.2c-1.5,2.1-4.3,3.9-8.1,3.9c-5.4,0-8.1-3.8-8.1-7.6c0-6.4,5.7-9.9,15.9-9.8v-0.5 c0-2.2-0.6-6.1-6-6.1c-2.5,0-5,0.8-6.9,2l-1.1-3.2c2.2-1.4,5.4-2.3,8.7-2.3c8.1,0,10.1,5.5,10.1,10.8v9.9c0,2.3,0.1,4.5,0.4,6.3 H132.1z M131.4,84.4c-5.3-0.1-11.2,0.8-11.2,5.9c0,3.1,2.1,4.6,4.5,4.6c3.4,0,5.6-2.2,6.4-4.4c0.2-0.5,0.3-1,0.3-1.5V84.4z"/><path fill="#FFFFFF" d="M146.6,63.9v7.6h6.9v3.7h-6.9v14.2c0,3.3,0.9,5.1,3.6,5.1c1.3,0,2.2-0.2,2.8-0.3l0.2,3.6 c-0.9,0.4-2.4,0.7-4.3,0.7c-2.2,0-4-0.7-5.2-2c-1.4-1.4-1.9-3.8-1.9-6.9V75.1h-4.1v-3.7h4.1v-6.3L146.6,63.9z"/><path fill="#FFFFFF" d="M171.4,97.8l-0.4-3.3h-0.2c-1.5,2.1-4.3,3.9-8.1,3.9c-5.4,0-8.1-3.8-8.1-7.6c0-6.4,5.7-9.9,15.9-9.8v-0.5 c0-2.2-0.6-6.1-6-6.1c-2.5,0-5,0.8-6.9,2l-1.1-3.2c2.2-1.4,5.4-2.3,8.7-2.3c8.1,0,10.1,5.5,10.1,10.8v9.9c0,2.3,0.1,4.5,0.4,6.3 H171.4z M170.7,84.4c-5.3-0.1-11.2,0.8-11.2,5.9c0,3.1,2.1,4.6,4.5,4.6c3.4,0,5.6-2.2,6.4-4.4c0.2-0.5,0.3-1,0.3-1.5V84.4z"/></g></g></a></g><a href="https://ourworldindata.org/grapher/index-of-us-maternal-mortality-and-female-labor-force-participation-flfp" target="_blank"><text font-size="21.60" x="15.0" y="32.3" fill="#555"><tspan x="15" y="32.279999999999994">Index of US maternal mortality and female labor force participation (FLFP),</tspan><tspan x="15" y="53.87999999999999">United States</tspan></text></a><text font-size="14.40" x="15.0" y="72.7" fill="#666"><tspan x="15" y="72.72">The index of maternal mortality (maternal deaths per 100,000 live births) and female labor force participation (% of the female</tspan><tspan x="15" y="88.56">population that is economically active) is calculated as maternal mortality and FLFP in each year divided by the starting value in</tspan><tspan x="15" y="104.4">1900 (therefore 1900 = 100). In 1900, maternal mortality was 850 deaths per 100,000 live births and FLFP was 20.4%.</tspan></text></g><g class="LineChart"><defs><clipPath id="boundsClip-47"><rect x="37.216" y="0" width="830" height="830.5999999999999"></rect></clipPath></defs><g class="AxisBoxView"><g class="HorizontalAxis"><text x="47.2" y="541.9" fill="#666" text-anchor="middle" font-size="16.2">1900</text><text x="144.3" y="541.9" fill="#666" text-anchor="middle" font-size="16.2">1920</text><text x="241.4" y="541.9" fill="#666" text-anchor="middle" font-size="16.2">1940</text><text x="338.5" y="541.9" fill="#666" text-anchor="middle" font-size="16.2">1960</text><text x="435.6" y="541.9" fill="#666" text-anchor="middle" font-size="16.2">1980</text><text x="557" y="541.9" fill="#666" text-anchor="middle" font-size="16.2">2005</text></g><g class="VerticalAxis"><text x="42.22" y="520.7" fill="#666" dominant-baseline="middle" text-anchor="end" font-size="16.2">0</text><text x="42.22" y="452.1" fill="#666" dominant-baseline="middle" text-anchor="end" font-size="16.2">50</text><text x="42.22" y="383.5" fill="#666" dominant-baseline="middle" text-anchor="end" font-size="16.2">100</text><text x="42.22" y="314.9" fill="#666" dominant-baseline="middle" text-anchor="end" font-size="16.2">150</text><text x="42.22" y="246.3" fill="#666" dominant-baseline="middle" text-anchor="end" font-size="16.2">200</text><text x="42.22" y="177.7" fill="#666" dominant-baseline="middle" text-anchor="end" font-size="16.2">250</text></g><g class="AxisGridLines"><line x1="47.22" y1="520.7" x2="556.99" y2="520.7" stroke="#ccc"></line><line x1="47.22" y1="452.1" x2="556.99" y2="452.1" stroke="#ddd" stroke-dasharray="3,2"></line><line x1="47.22" y1="383.5" x2="556.99" y2="383.5" stroke="#ddd" stroke-dasharray="3,2"></line><line x1="47.22" y1="314.9" x2="556.99" y2="314.9" stroke="#ddd" stroke-dasharray="3,2"></line><line x1="47.22" y1="246.3" x2="556.99" y2="246.3" stroke="#ddd" stroke-dasharray="3,2"></line><line x1="47.22" y1="177.7" x2="556.99" y2="177.7" stroke="#ddd" stroke-dasharray="3,2"></line></g><g class="AxisGridLines"><line x1="47.2" y1="520.70" x2="47.2" y2="126.60" stroke="#ddd" stroke-dasharray="3,2"></line><line x1="144.3" y1="520.70" x2="144.3" y2="126.60" stroke="#ddd" stroke-dasharray="3,2"></line><line x1="241.4" y1="520.70" x2="241.4" y2="126.60" stroke="#ddd" stroke-dasharray="3,2"></line><line x1="338.5" y1="520.70" x2="338.5" y2="126.60" stroke="#ddd" stroke-dasharray="3,2"></line><line x1="435.6" y1="520.70" x2="435.6" y2="126.60" stroke="#ddd" stroke-dasharray="3,2"></line><line x1="532.7" y1="520.70" x2="532.7" y2="126.60" stroke="#ddd" stroke-dasharray="3,2"></line></g></g><g clip-path="url(#boundsClip-47)"><g class="HeightedLegend clickable"><g class="legendMark"><rect x="566.992" y="113.64999999999999" width="268.00800000000004" height="29.900000000000002" fill="#fff" opacity="0"></rect><rect x="566.992" y="127.35" width="10" height="2.5" fill="#ca2628"></rect><text font-size="14.40" x="582.0" y="125.2" fill="#333"><tspan x="581.992" y="125.16999999999999">Female Labor Force Participation Index</tspan><tspan x="581.992" y="141.01">(OWID (2017))</tspan></text></g><g class="legendMark"><rect x="566.992" y="511.40000000000003" width="267.576" height="14.4" fill="#fff" opacity="0"></rect><rect x="566.992" y="517.35" width="10" height="2.5" fill="#3360a9"></rect><text font-size="14.40" x="582.0" y="522.9" fill="#333"><tspan x="581.992" y="522.9200000000001">Maternal Mortality Index (OWID (2017))</tspan></text></g></g><g class="Lines"><rect x="47" y="127" width="510" height="394" fill="rgba(255,255,255,0)" opacity="0"></rect><g class="key-United-States_0"><path stroke="#3360a9" stroke-linecap="round" d="M47 384L52 392L57 401L62 408L67 393L72 392L76 406L81 405L86 413L91 408L96 409L101 408L106 416L110 411L115 406L120 423L125 420L130 414L135 373L140 402L144 392L149 411L154 414L159 413L164 415L169 416L173 415L178 416L183 409L188 409L193 412L198 414L203 419L207 421L212 425L217 427L222 429L227 442L232 451L237 456L241 460L246 470L251 479L256 481L261 484L266 487L271 495L275 499L280 502L285 506L290 507L295 509L300 510L305 511L309 512L314 513L319 514L324 514L329 515L334 515L339 515L343 515L348 515L353 515L358 515L363 516L368 516L373 516L377 517L382 517L387 517L392 518L397 518L402 518L407 518L411 519L416 519L421 519L426 519L431 519L484 519L489 519L494 519L499 519L504 519L508 519L513 519L518 519L523 519L528 519L533 519L538 519L542 519L547 519L552 519L557 519" fill="none" stroke-width="1.5"></path><g fill="#3360a9"><circle cx="47" cy="384" r="2"></circle><circle cx="52" cy="392" r="2"></circle><circle cx="57" cy="401" r="2"></circle><circle cx="62" cy="408" r="2"></circle><circle cx="67" cy="393" r="2"></circle><circle cx="72" cy="392" r="2"></circle><circle cx="76" cy="406" r="2"></circle><circle cx="81" cy="405" r="2"></circle><circle cx="86" cy="413" r="2"></circle><circle cx="91" cy="408" r="2"></circle><circle cx="96" cy="409" r="2"></circle><circle cx="101" cy="408" r="2"></circle><circle cx="106" cy="416" r="2"></circle><circle cx="110" cy="411" r="2"></circle><circle cx="115" cy="406" r="2"></circle><circle cx="120" cy="423" r="2"></circle><circle cx="125" cy="420" r="2"></circle><circle cx="130" cy="414" r="2"></circle><circle cx="135" cy="373" r="2"></circle><circle cx="140" cy="402" r="2"></circle><circle cx="144" cy="392" r="2"></circle><circle cx="149" cy="411" r="2"></circle><circle cx="154" cy="414" r="2"></circle><circle cx="159" cy="413" r="2"></circle><circle cx="164" cy="415" r="2"></circle><circle cx="169" cy="416" r="2"></circle><circle cx="173" cy="415" r="2"></circle><circle cx="178" cy="416" r="2"></circle><circle cx="183" cy="409" r="2"></circle><circle cx="188" cy="409" r="2"></circle><circle cx="193" cy="412" r="2"></circle><circle cx="198" cy="414" r="2"></circle><circle cx="203" cy="419" r="2"></circle><circle cx="207" cy="421" r="2"></circle><circle cx="212" cy="425" r="2"></circle><circle cx="217" cy="427" r="2"></circle><circle cx="222" cy="429" r="2"></circle><circle cx="227" cy="442" r="2"></circle><circle cx="232" cy="451" r="2"></circle><circle cx="237" cy="456" r="2"></circle><circle cx="241" cy="460" r="2"></circle><circle cx="246" cy="470" r="2"></circle><circle cx="251" cy="479" r="2"></circle><circle cx="256" cy="481" r="2"></circle><circle cx="261" cy="484" r="2"></circle><circle cx="266" cy="487" r="2"></circle><circle cx="271" cy="495" r="2"></circle><circle cx="275" cy="499" r="2"></circle><circle cx="280" cy="502" r="2"></circle><circle cx="285" cy="506" r="2"></circle><circle cx="290" cy="507" r="2"></circle><circle cx="295" cy="509" r="2"></circle><circle cx="300" cy="510" r="2"></circle><circle cx="305" cy="511" r="2"></circle><circle cx="309" cy="512" r="2"></circle><circle cx="314" cy="513" r="2"></circle><circle cx="319" cy="514" r="2"></circle><circle cx="324" cy="514" r="2"></circle><circle cx="329" cy="515" r="2"></circle><circle cx="334" cy="515" r="2"></circle><circle cx="339" cy="515" r="2"></circle><circle cx="343" cy="515" r="2"></circle><circle cx="348" cy="515" r="2"></circle><circle cx="353" cy="515" r="2"></circle><circle cx="358" cy="515" r="2"></circle><circle cx="363" cy="516" r="2"></circle><circle cx="368" cy="516" r="2"></circle><circle cx="373" cy="516" r="2"></circle><circle cx="377" cy="517" r="2"></circle><circle cx="382" cy="517" r="2"></circle><circle cx="387" cy="517" r="2"></circle><circle cx="392" cy="518" r="2"></circle><circle cx="397" cy="518" r="2"></circle><circle cx="402" cy="518" r="2"></circle><circle cx="407" cy="518" r="2"></circle><circle cx="411" cy="519" r="2"></circle><circle cx="416" cy="519" r="2"></circle><circle cx="421" cy="519" r="2"></circle><circle cx="426" cy="519" r="2"></circle><circle cx="431" cy="519" r="2"></circle><circle cx="484" cy="519" r="2"></circle><circle cx="489" cy="519" r="2"></circle><circle cx="494" cy="519" r="2"></circle><circle cx="499" cy="519" r="2"></circle><circle cx="504" cy="519" r="2"></circle><circle cx="508" cy="519" r="2"></circle><circle cx="513" cy="519" r="2"></circle><circle cx="518" cy="519" r="2"></circle><circle cx="523" cy="519" r="2"></circle><circle cx="528" cy="519" r="2"></circle><circle cx="533" cy="519" r="2"></circle><circle cx="538" cy="519" r="2"></circle><circle cx="542" cy="519" r="2"></circle><circle cx="547" cy="519" r="2"></circle><circle cx="552" cy="519" r="2"></circle><circle cx="557" cy="519" r="2"></circle></g></g><g class="key-United-States_1"><path stroke="#ca2628" stroke-linecap="round" d="M47 384L96 367L144 364L193 357L241 349L290 320L339 285L387 248L411 211L436 184L460 165L484 139L508 127L533 127L557 129" fill="none" stroke-width="1.5"></path><g fill="#ca2628"><circle cx="47" cy="384" r="2"></circle><circle cx="96" cy="367" r="2"></circle><circle cx="144" cy="364" r="2"></circle><circle cx="193" cy="357" r="2"></circle><circle cx="241" cy="349" r="2"></circle><circle cx="290" cy="320" r="2"></circle><circle cx="339" cy="285" r="2"></circle><circle cx="387" cy="248" r="2"></circle><circle cx="411" cy="211" r="2"></circle><circle cx="436" cy="184" r="2"></circle><circle cx="460" cy="165" r="2"></circle><circle cx="484" cy="139" r="2"></circle><circle cx="508" cy="127" r="2"></circle><circle cx="533" cy="127" r="2"></circle><circle cx="557" cy="129" r="2"></circle></g></g></g></g></g><g style="fill: #777;" class="SourcesFooter"><g style="fill: #777;" class="clickable"><text font-size="12.60" x="15.0" y="567.0"><tspan x="15" y="566.98">Source: OWID based on Gapminder and World Bank, OWID based on Olivetti (2013)</tspan></text></g><text font-size="12.60" x="15.0" y="582.5"><tspan x="15" y="582.48"><a target='_blank' style='fill: #777;' href='https://ourworldindata.org/women-in-the-labor-force-determinants/'>OurWorldInData.org/women-in-the-labor-force-determinants/</a> • <a style="fill: #777;" href="http://creativecommons.org/licenses/by-sa/4.0/deed.en_US" target="_blank">CC BY-SA</a></tspan></text></g></g></svg>