<svg xmlns="http://www.w3.org/2000/svg" version="1.1" style="font-family: 'Helvetica Neue', Helvetica, Arial, sans-serif; font-size: 18px; background-color: white; text-rendering: optimizeLegibility; -webkit-font-smoothing: antialiased;" width="850" height="600"><g class="ChartTab"><g class="HeaderView"><g opacity="0.8" transform="translate(770, 15) scale(0.31)"><a xmlns:xlink="http://www.w3.org/1999/xlink" xlink:href="https://ourworldindata.org" target="_blank"><g><rect x="0" y="0" fill="#1B2543" width="211.2" height="130.1"/><rect x="0" y="112.2" fill="#E63912" width="211.2" height="17.9"/><g><rect x="1.2" y="12.3" fill="none" width="210.2" height="99.2"/><path fill="#FFFFFF" d="M37.8,32.2c0,12.7-7.7,19.4-17.1,19.4c-9.7,0-16.6-7.5-16.6-18.7c0-11.7,7.3-19.3,17.1-19.3 C31.3,13.7,37.8,21.3,37.8,32.2z M9.2,32.8c0,7.9,4.3,14.9,11.8,14.9c7.5,0,11.8-6.9,11.8-15.3c0-7.3-3.8-14.9-11.8-14.9 C13.1,17.5,9.2,24.8,9.2,32.8z"/><path fill="#FFFFFF" d="M62.7,43.8c0,2.7,0.1,5.1,0.2,7.2h-4.3l-0.3-4.3h-0.1c-1.3,2.1-4,4.9-8.8,4.9c-4.2,0-9.1-2.3-9.1-11.6 V24.6h4.8v14.6c0,5,1.5,8.4,5.9,8.4c3.2,0,5.5-2.2,6.3-4.4c0.3-0.7,0.4-1.6,0.4-2.5V24.6h4.8V43.8z"/><path fill="#FFFFFF" d="M67.3,32.8c0-3.1-0.1-5.8-0.2-8.2h4.2l0.2,5.2h0.2c1.2-3.5,4.1-5.8,7.3-5.8c0.5,0,0.9,0.1,1.4,0.2v4.5 c-0.5-0.1-1-0.2-1.6-0.2c-3.4,0-5.8,2.6-6.5,6.2c-0.1,0.7-0.2,1.4-0.2,2.2V51h-4.8V32.8z"/><path fill="#FFFFFF" d="M95.4,51l-9.4-36.8h5l4.4,18.6c1.1,4.6,2.1,9.2,2.7,12.7h0.1c0.6-3.7,1.8-8,3-12.8l4.9-18.5h5l4.5,18.7 c1,4.4,2,8.7,2.6,12.6h0.1c0.8-4,1.8-8.1,3-12.7l4.9-18.5h4.9L120.6,51h-5L111,31.9c-1.1-4.7-1.9-8.3-2.4-12h-0.1 c-0.7,3.7-1.5,7.3-2.8,12L100.4,51H95.4z"/><path fill="#FFFFFF" d="M154.9,37.6c0,9.8-6.8,14-13.2,14c-7.2,0-12.7-5.2-12.7-13.6c0-8.8,5.8-14,13.1-14 C149.8,24,154.9,29.5,154.9,37.6z M133.9,37.9c0,5.8,3.3,10.1,8,10.1c4.6,0,8-4.3,8-10.3c0-4.5-2.2-10.1-7.9-10.1 C136.3,27.6,133.9,32.8,133.9,37.9z"/><path fill="#FFFFFF" d="M158.2,32.8c0-3.1-0.1-5.8-0.2-8.2h4.2l0.2,5.2h0.2c1.2-3.5,4.1-5.8,7.3-5.8c0.5,0,0.9,0.1,1.4,0.2v4.5 c-0.5-0.1-1-0.2-1.6-0.2c-3.4,0-5.8,2.6-6.5,6.2c-0.1,0.7-0.2,1.4-0.2,2.2V51h-4.8V32.8z"/><path fill="#FFFFFF" d="M173.5,12.3h4.8V51h-4.8V12.3z"/><path fill="#FFFFFF" d="M206.5,12.3v31.9c0,2.3,0.1,5,0.2,6.8h-4.3l-0.2-4.6H202c-1.5,2.9-4.7,5.2-9,5.2 c-6.4,0-11.3-5.4-11.3-13.4c-0.1-8.8,5.4-14.2,11.9-14.2c4,0,6.8,1.9,8,4h0.1V12.3H206.5z M201.7,35.4c0-0.6-0.1-1.4-0.2-2 c-0.7-3.1-3.3-5.6-6.9-5.6c-5,0-7.9,4.4-7.9,10.2c0,5.3,2.6,9.8,7.8,9.8c3.2,0,6.2-2.1,7.1-5.7c0.2-0.7,0.2-1.3,0.2-2.1V35.4z"/><path fill="#FFFFFF" d="M42.8,64c0.1,1.6-1.1,2.9-3.1,2.9c-1.7,0-2.9-1.3-2.9-2.9c0-1.7,1.3-3,3-3C41.7,61,42.8,62.3,42.8,64z M37.4,97.8V71.4h4.8v26.4H37.4z"/><path fill="#FFFFFF" d="M47.5,78.6c0-2.7-0.1-5-0.2-7.1h4.3l0.3,4.4h0.1c1.3-2.5,4.4-5,8.8-5c3.7,0,9.4,2.2,9.4,11.2v15.8h-4.8 V82.6c0-4.3-1.6-7.8-6.1-7.8c-3.2,0-5.6,2.2-6.5,4.9c-0.2,0.6-0.3,1.4-0.3,2.2v15.9h-4.8V78.6z"/><path fill="#FFFFFF" d="M84,61.6c2.9-0.4,6.3-0.8,10.1-0.8c6.8,0,11.7,1.6,14.9,4.6c3.3,3,5.2,7.3,5.2,13.2c0,6-1.9,10.9-5.3,14.3 c-3.4,3.4-9.1,5.3-16.3,5.3c-3.4,0-6.2-0.2-8.6-0.4V61.6z M88.8,94.1c1.2,0.2,3,0.3,4.8,0.3c10.2,0,15.7-5.7,15.7-15.6 c0.1-8.7-4.9-14.2-14.9-14.2c-2.5,0-4.3,0.2-5.6,0.5V94.1z"/><path fill="#FFFFFF" d="M132.1,97.8l-0.4-3.3h-0.2c-1.5,2.1-4.3,3.9-8.1,3.9c-5.4,0-8.1-3.8-8.1-7.6c0-6.4,5.7-9.9,15.9-9.8v-0.5 c0-2.2-0.6-6.1-6-6.1c-2.5,0-5,0.8-6.9,2l-1.1-3.2c2.2-1.4,5.4-2.3,8.7-2.3c8.1,0,10.1,5.5,10.1,10.8v9.9c0,2.3,0.1,4.5,0.4,6.3 H132.1z M131.4,84.4c-5.3-0.1-11.2,0.8-11.2,5.9c0,3.1,2.1,4.6,4.5,4.6c3.4,0,5.6-2.2,6.4-4.4c0.2-0.5,0.3-1,0.3-1.5V84.4z"/><path fill="#FFFFFF" d="M146.6,63.9v7.6h6.9v3.7h-6.9v14.2c0,3.3,0.9,5.1,3.6,5.1c1.3,0,2.2-0.2,2.8-0.3l0.2,3.6 c-0.9,0.4-2.4,0.7-4.3,0.7c-2.2,0-4-0.7-5.2-2c-1.4-1.4-1.9-3.8-1.9-6.9V75.1h-4.1v-3.7h4.1v-6.3L146.6,63.9z"/><path fill="#FFFFFF" d="M171.4,97.8l-0.4-3.3h-0.2c-1.5,2.1-4.3,3.9-8.1,3.9c-5.4,0-8.1-3.8-8.1-7.6c0-6.4,5.7-9.9,15.9-9.8v-0.5 c0-2.2-0.6-6.1-6-6.1c-2.5,0-5,0.8-6.9,2l-1.1-3.2c2.2-1.4,5.4-2.3,8.7-2.3c8.1,0,10.1,5.5,10.1,10.8v9.9c0,2.3,0.1,4.5,0.4,6.3 H171.4z M170.7,84.4c-5.3-0.1-11.2,0.8-11.2,5.9c0,3.1,2.1,4.6,4.5,4.6c3.4,0,5.6-2.2,6.4-4.4c0.2-0.5,0.3-1,0.3-1.5V84.4z"/></g></g></a></g><a href="https://ourworldindata.org/grapher/labor-productivity-per-hour-2013100" target="_blank"><text font-size="27.00" x="15.0" y="36.6" fill="#555"><tspan x="15" y="36.6">Labor productivity per hour (2013=100)</tspan></text></a><text font-size="14.40" x="15.0" y="55.5" fill="#666"><tspan x="15" y="55.519999999999996">Measures labor productivity per hour using GDP at factor prices (total net value added in various economic</tspan><tspan x="15" y="71.36">activities). Labor productivity is measured relative to productivity per hour observed in 2013. </tspan></text></g><g class="LineChart"><defs><clipPath id="boundsClip-1"><rect x="37.216" y="0" width="830" height="925.2"></rect></clipPath></defs><g class="AxisBoxView"><g class="HorizontalAxis"><text x="47.2" y="556.5" fill="#666" text-anchor="middle" font-size="16.2">1760</text><text x="150.3" y="556.5" fill="#666" text-anchor="middle" font-size="16.2">1800</text><text x="279.2" y="556.5" fill="#666" text-anchor="middle" font-size="16.2">1850</text><text x="408.1" y="556.5" fill="#666" text-anchor="middle" font-size="16.2">1900</text><text x="537" y="556.5" fill="#666" text-anchor="middle" font-size="16.2">1950</text><text x="665.9" y="556.5" fill="#666" text-anchor="middle" font-size="16.2">2000</text><text x="707.2" y="556.5" fill="#666" text-anchor="middle" font-size="16.2">2016</text></g><g class="VerticalAxis"><text x="42.22" y="535.3" fill="#666" dominant-baseline="middle" text-anchor="end" font-size="16.2">0</text><text x="42.22" y="448.7" fill="#666" dominant-baseline="middle" text-anchor="end" font-size="16.2">20</text><text x="42.22" y="362.2" fill="#666" dominant-baseline="middle" text-anchor="end" font-size="16.2">40</text><text x="42.22" y="275.6" fill="#666" dominant-baseline="middle" text-anchor="end" font-size="16.2">60</text><text x="42.22" y="189" fill="#666" dominant-baseline="middle" text-anchor="end" font-size="16.2">80</text><text x="42.22" y="102.5" fill="#666" dominant-baseline="middle" text-anchor="end" font-size="16.2">100</text></g><g class="AxisGridLines"><line x1="47.22" y1="535.3" x2="707.18" y2="535.3" stroke="#ccc"></line><line x1="47.22" y1="448.7" x2="707.18" y2="448.7" stroke="#ddd" stroke-dasharray="3,2"></line><line x1="47.22" y1="362.2" x2="707.18" y2="362.2" stroke="#ddd" stroke-dasharray="3,2"></line><line x1="47.22" y1="275.6" x2="707.18" y2="275.6" stroke="#ddd" stroke-dasharray="3,2"></line><line x1="47.22" y1="189" x2="707.18" y2="189" stroke="#ddd" stroke-dasharray="3,2"></line><line x1="47.22" y1="102.5" x2="707.18" y2="102.5" stroke="#ddd" stroke-dasharray="3,2"></line></g><g class="AxisGridLines"><line x1="150.3" y1="535.30" x2="150.3" y2="93.90" stroke="#ddd" stroke-dasharray="3,2"></line><line x1="279.2" y1="535.30" x2="279.2" y2="93.90" stroke="#ddd" stroke-dasharray="3,2"></line><line x1="408.1" y1="535.30" x2="408.1" y2="93.90" stroke="#ddd" stroke-dasharray="3,2"></line><line x1="537" y1="535.30" x2="537" y2="93.90" stroke="#ddd" stroke-dasharray="3,2"></line><line x1="665.9" y1="535.30" x2="665.9" y2="93.90" stroke="#ddd" stroke-dasharray="3,2"></line></g></g><g clip-path="url(#boundsClip-1)"><g class="HeightedLegend clickable"><g class="legendMark"><rect x="717.184" y="86.7" width="117.81600000000002" height="14.4" fill="#fff" opacity="0"></rect><rect x="717.184" y="92.65" width="10" height="2.5" fill="#3360a9"></rect><text font-size="14.40" x="732.2" y="98.2" fill="#333"><tspan x="732.184" y="98.22000000000001">United Kingdom</tspan></text></g></g><g class="Lines"><rect x="47" y="94" width="660" height="441" fill="rgba(255,255,255,0)" opacity="0"></rect><g class="key-United-Kingdom_0"><path stroke="#3360a9" stroke-linecap="round" d="M47 519L50 518L52 519L55 519L58 519L60 519L63 519L65 519L68 519L70 519L73 520L76 519L78 520L81 520L83 520L86 520L89 520L91 520L94 520L96 520L99 519L101 519L104 520L107 520L109 520L112 520L114 520L117 521L119 521L122 521L125 520L127 520L130 520L132 520L135 520L137 520L140 520L143 520L145 520L148 520L150 519L153 519L156 519L158 519L161 519L163 519L166 519L168 519L171 519L174 519L176 519L179 519L181 519L184 519L186 519L189 518L192 519L194 519L197 519L199 519L202 518L205 518L207 518L210 518L212 518L215 518L217 518L220 517L223 517L225 517L228 517L230 517L233 517L235 517L238 516L241 516L243 515L246 516L248 515L251 515L254 514L256 515L259 515L261 515L264 514L266 514L269 513L272 513L274 512L277 512L279 512L282 512L284 511L287 511L290 511L292 511L295 510L297 510L300 510L302 510L305 509L308 509L310 509L313 508L315 508L318 507L321 507L323 506L326 505L328 505L331 503L333 501L336 501L339 500L341 499L344 498L346 498L349 497L351 497L354 497L357 496L359 496L362 496L364 495L367 495L370 495L372 495L375 494L377 494L380 494L382 494L385 493L388 494L390 494L393 492L395 491L398 490L400 491L403 489L406 488L408 489L411 488L413 487L416 488L418 487L421 486L424 486L426 486L429 487L431 486L434 486L437 485L439 485L442 484L444 483L447 481L449 481L452 481L455 480L457 479L460 483L462 479L465 476L467 475L470 472L473 471L475 472L478 471L480 471L483 469L486 468L488 470L491 470L493 469L496 467L498 466L501 465L504 466L506 462L509 463L511 459L514 455L516 456L519 455L522 458L524 457L527 454L529 453L532 449L535 446L537 444L540 442L542 439L545 434L547 432L550 429L553 427L555 424L558 420L560 414L563 407L565 403L568 400L571 397L573 391L576 387L578 381L581 375L583 364L586 359L589 350L591 337L594 332L596 322L599 326L602 324L604 316L607 312L609 305L612 299L614 299L617 290L620 279L622 265L625 267L627 259L630 252L632 244L635 238L638 239L640 235L643 225L645 214L648 202L651 195L653 192L656 187L658 183L661 174L663 165L666 152L669 147L671 138L674 125L676 120L679 111L681 104L684 97L687 101L689 108L692 102L694 98L697 101L699 103L702 100L705 96L707 94" fill="none" stroke-width="1.5"></path><g fill="#3360a9"><circle cx="47" cy="519" r="2"></circle><circle cx="50" cy="518" r="2"></circle><circle cx="52" cy="519" r="2"></circle><circle cx="55" cy="519" r="2"></circle><circle cx="58" cy="519" r="2"></circle><circle cx="60" cy="519" r="2"></circle><circle cx="63" cy="519" r="2"></circle><circle cx="65" cy="519" r="2"></circle><circle cx="68" cy="519" r="2"></circle><circle cx="70" cy="519" r="2"></circle><circle cx="73" cy="520" r="2"></circle><circle cx="76" cy="519" r="2"></circle><circle cx="78" cy="520" r="2"></circle><circle cx="81" cy="520" r="2"></circle><circle cx="83" cy="520" r="2"></circle><circle cx="86" cy="520" r="2"></circle><circle cx="89" cy="520" r="2"></circle><circle cx="91" cy="520" r="2"></circle><circle cx="94" cy="520" r="2"></circle><circle cx="96" cy="520" r="2"></circle><circle cx="99" cy="519" r="2"></circle><circle cx="101" cy="519" r="2"></circle><circle cx="104" cy="520" r="2"></circle><circle cx="107" cy="520" r="2"></circle><circle cx="109" cy="520" r="2"></circle><circle cx="112" cy="520" r="2"></circle><circle cx="114" cy="520" r="2"></circle><circle cx="117" cy="521" r="2"></circle><circle cx="119" cy="521" r="2"></circle><circle cx="122" cy="521" r="2"></circle><circle cx="125" cy="520" r="2"></circle><circle cx="127" cy="520" r="2"></circle><circle cx="130" cy="520" r="2"></circle><circle cx="132" cy="520" r="2"></circle><circle cx="135" cy="520" r="2"></circle><circle cx="137" cy="520" r="2"></circle><circle cx="140" cy="520" r="2"></circle><circle cx="143" cy="520" r="2"></circle><circle cx="145" cy="520" r="2"></circle><circle cx="148" cy="520" r="2"></circle><circle cx="150" cy="519" r="2"></circle><circle cx="153" cy="519" r="2"></circle><circle cx="156" cy="519" r="2"></circle><circle cx="158" cy="519" r="2"></circle><circle cx="161" cy="519" r="2"></circle><circle cx="163" cy="519" r="2"></circle><circle cx="166" cy="519" r="2"></circle><circle cx="168" cy="519" r="2"></circle><circle cx="171" cy="519" r="2"></circle><circle cx="174" cy="519" r="2"></circle><circle cx="176" cy="519" r="2"></circle><circle cx="179" cy="519" r="2"></circle><circle cx="181" cy="519" r="2"></circle><circle cx="184" cy="519" r="2"></circle><circle cx="186" cy="519" r="2"></circle><circle cx="189" cy="518" r="2"></circle><circle cx="192" cy="519" r="2"></circle><circle cx="194" cy="519" r="2"></circle><circle cx="197" cy="519" r="2"></circle><circle cx="199" cy="519" r="2"></circle><circle cx="202" cy="518" r="2"></circle><circle cx="205" cy="518" r="2"></circle><circle cx="207" cy="518" r="2"></circle><circle cx="210" cy="518" r="2"></circle><circle cx="212" cy="518" r="2"></circle><circle cx="215" cy="518" r="2"></circle><circle cx="217" cy="518" r="2"></circle><circle cx="220" cy="517" r="2"></circle><circle cx="223" cy="517" r="2"></circle><circle cx="225" cy="517" r="2"></circle><circle cx="228" cy="517" r="2"></circle><circle cx="230" cy="517" r="2"></circle><circle cx="233" cy="517" r="2"></circle><circle cx="235" cy="517" r="2"></circle><circle cx="238" cy="516" r="2"></circle><circle cx="241" cy="516" r="2"></circle><circle cx="243" cy="515" r="2"></circle><circle cx="246" cy="516" r="2"></circle><circle cx="248" cy="515" r="2"></circle><circle cx="251" cy="515" r="2"></circle><circle cx="254" cy="514" r="2"></circle><circle cx="256" cy="515" r="2"></circle><circle cx="259" cy="515" r="2"></circle><circle cx="261" cy="515" r="2"></circle><circle cx="264" cy="514" r="2"></circle><circle cx="266" cy="514" r="2"></circle><circle cx="269" cy="513" r="2"></circle><circle cx="272" cy="513" r="2"></circle><circle cx="274" cy="512" r="2"></circle><circle cx="277" cy="512" r="2"></circle><circle cx="279" cy="512" r="2"></circle><circle cx="282" cy="512" r="2"></circle><circle cx="284" cy="511" r="2"></circle><circle cx="287" cy="511" r="2"></circle><circle cx="290" cy="511" r="2"></circle><circle cx="292" cy="511" r="2"></circle><circle cx="295" cy="510" r="2"></circle><circle cx="297" cy="510" r="2"></circle><circle cx="300" cy="510" r="2"></circle><circle cx="302" cy="510" r="2"></circle><circle cx="305" cy="509" r="2"></circle><circle cx="308" cy="509" r="2"></circle><circle cx="310" cy="509" r="2"></circle><circle cx="313" cy="508" r="2"></circle><circle cx="315" cy="508" r="2"></circle><circle cx="318" cy="507" r="2"></circle><circle cx="321" cy="507" r="2"></circle><circle cx="323" cy="506" r="2"></circle><circle cx="326" cy="505" r="2"></circle><circle cx="328" cy="505" r="2"></circle><circle cx="331" cy="503" r="2"></circle><circle cx="333" cy="501" r="2"></circle><circle cx="336" cy="501" r="2"></circle><circle cx="339" cy="500" r="2"></circle><circle cx="341" cy="499" r="2"></circle><circle cx="344" cy="498" r="2"></circle><circle cx="346" cy="498" r="2"></circle><circle cx="349" cy="497" r="2"></circle><circle cx="351" cy="497" r="2"></circle><circle cx="354" cy="497" r="2"></circle><circle cx="357" cy="496" r="2"></circle><circle cx="359" cy="496" r="2"></circle><circle cx="362" cy="496" r="2"></circle><circle cx="364" cy="495" r="2"></circle><circle cx="367" cy="495" r="2"></circle><circle cx="370" cy="495" r="2"></circle><circle cx="372" cy="495" r="2"></circle><circle cx="375" cy="494" r="2"></circle><circle cx="377" cy="494" r="2"></circle><circle cx="380" cy="494" r="2"></circle><circle cx="382" cy="494" r="2"></circle><circle cx="385" cy="493" r="2"></circle><circle cx="388" cy="494" r="2"></circle><circle cx="390" cy="494" r="2"></circle><circle cx="393" cy="492" r="2"></circle><circle cx="395" cy="491" r="2"></circle><circle cx="398" cy="490" r="2"></circle><circle cx="400" cy="491" r="2"></circle><circle cx="403" cy="489" r="2"></circle><circle cx="406" cy="488" r="2"></circle><circle cx="408" cy="489" r="2"></circle><circle cx="411" cy="488" r="2"></circle><circle cx="413" cy="487" r="2"></circle><circle cx="416" cy="488" r="2"></circle><circle cx="418" cy="487" r="2"></circle><circle cx="421" cy="486" r="2"></circle><circle cx="424" cy="486" r="2"></circle><circle cx="426" cy="486" r="2"></circle><circle cx="429" cy="487" r="2"></circle><circle cx="431" cy="486" r="2"></circle><circle cx="434" cy="486" r="2"></circle><circle cx="437" cy="485" r="2"></circle><circle cx="439" cy="485" r="2"></circle><circle cx="442" cy="484" r="2"></circle><circle cx="444" cy="483" r="2"></circle><circle cx="447" cy="481" r="2"></circle><circle cx="449" cy="481" r="2"></circle><circle cx="452" cy="481" r="2"></circle><circle cx="455" cy="480" r="2"></circle><circle cx="457" cy="479" r="2"></circle><circle cx="460" cy="483" r="2"></circle><circle cx="462" cy="479" r="2"></circle><circle cx="465" cy="476" r="2"></circle><circle cx="467" cy="475" r="2"></circle><circle cx="470" cy="472" r="2"></circle><circle cx="473" cy="471" r="2"></circle><circle cx="475" cy="472" r="2"></circle><circle cx="478" cy="471" r="2"></circle><circle cx="480" cy="471" r="2"></circle><circle cx="483" cy="469" r="2"></circle><circle cx="486" cy="468" r="2"></circle><circle cx="488" cy="470" r="2"></circle><circle cx="491" cy="470" r="2"></circle><circle cx="493" cy="469" r="2"></circle><circle cx="496" cy="467" r="2"></circle><circle cx="498" cy="466" r="2"></circle><circle cx="501" cy="465" r="2"></circle><circle cx="504" cy="466" r="2"></circle><circle cx="506" cy="462" r="2"></circle><circle cx="509" cy="463" r="2"></circle><circle cx="511" cy="459" r="2"></circle><circle cx="514" cy="455" r="2"></circle><circle cx="516" cy="456" r="2"></circle><circle cx="519" cy="455" r="2"></circle><circle cx="522" cy="458" r="2"></circle><circle cx="524" cy="457" r="2"></circle><circle cx="527" cy="454" r="2"></circle><circle cx="529" cy="453" r="2"></circle><circle cx="532" cy="449" r="2"></circle><circle cx="535" cy="446" r="2"></circle><circle cx="537" cy="444" r="2"></circle><circle cx="540" cy="442" r="2"></circle><circle cx="542" cy="439" r="2"></circle><circle cx="545" cy="434" r="2"></circle><circle cx="547" cy="432" r="2"></circle><circle cx="550" cy="429" r="2"></circle><circle cx="553" cy="427" r="2"></circle><circle cx="555" cy="424" r="2"></circle><circle cx="558" cy="420" r="2"></circle><circle cx="560" cy="414" r="2"></circle><circle cx="563" cy="407" r="2"></circle><circle cx="565" cy="403" r="2"></circle><circle cx="568" cy="400" r="2"></circle><circle cx="571" cy="397" r="2"></circle><circle cx="573" cy="391" r="2"></circle><circle cx="576" cy="387" r="2"></circle><circle cx="578" cy="381" r="2"></circle><circle cx="581" cy="375" r="2"></circle><circle cx="583" cy="364" r="2"></circle><circle cx="586" cy="359" r="2"></circle><circle cx="589" cy="350" r="2"></circle><circle cx="591" cy="337" r="2"></circle><circle cx="594" cy="332" r="2"></circle><circle cx="596" cy="322" r="2"></circle><circle cx="599" cy="326" r="2"></circle><circle cx="602" cy="324" r="2"></circle><circle cx="604" cy="316" r="2"></circle><circle cx="607" cy="312" r="2"></circle><circle cx="609" cy="305" r="2"></circle><circle cx="612" cy="299" r="2"></circle><circle cx="614" cy="299" r="2"></circle><circle cx="617" cy="290" r="2"></circle><circle cx="620" cy="279" r="2"></circle><circle cx="622" cy="265" r="2"></circle><circle cx="625" cy="267" r="2"></circle><circle cx="627" cy="259" r="2"></circle><circle cx="630" cy="252" r="2"></circle><circle cx="632" cy="244" r="2"></circle><circle cx="635" cy="238" r="2"></circle><circle cx="638" cy="239" r="2"></circle><circle cx="640" cy="235" r="2"></circle><circle cx="643" cy="225" r="2"></circle><circle cx="645" cy="214" r="2"></circle><circle cx="648" cy="202" r="2"></circle><circle cx="651" cy="195" r="2"></circle><circle cx="653" cy="192" r="2"></circle><circle cx="656" cy="187" r="2"></circle><circle cx="658" cy="183" r="2"></circle><circle cx="661" cy="174" r="2"></circle><circle cx="663" cy="165" r="2"></circle><circle cx="666" cy="152" r="2"></circle><circle cx="669" cy="147" r="2"></circle><circle cx="671" cy="138" r="2"></circle><circle cx="674" cy="125" r="2"></circle><circle cx="676" cy="120" r="2"></circle><circle cx="679" cy="111" r="2"></circle><circle cx="681" cy="104" r="2"></circle><circle cx="684" cy="97" r="2"></circle><circle cx="687" cy="101" r="2"></circle><circle cx="689" cy="108" r="2"></circle><circle cx="692" cy="102" r="2"></circle><circle cx="694" cy="98" r="2"></circle><circle cx="697" cy="101" r="2"></circle><circle cx="699" cy="103" r="2"></circle><circle cx="702" cy="100" r="2"></circle><circle cx="705" cy="96" r="2"></circle><circle cx="707" cy="94" r="2"></circle></g></g></g></g></g><g style="fill: #777;" class="SourcesFooter"><g style="fill: #777;" class="clickable"><text font-size="12.60" x="15.0" y="581.6"><tspan x="15" y="581.58">Source: Bank of England, A Millennium of UK Data (2016)</tspan></text></g><text font-size="12.60" x="649.0" y="581.6"><tspan x="649.024" y="581.58"><a target='_blank' style='fill: #777;' href='https://ourworldindata.org'>OurWorldInData.org</a> • <a style="fill: #777;" href="http://creativecommons.org/licenses/by-sa/4.0/deed.en_US" target="_blank">CC BY-SA</a></tspan></text></g></g></svg>