<svg xmlns="http://www.w3.org/2000/svg" version="1.1" style="font-family: 'Helvetica Neue', Helvetica, Arial, sans-serif; font-size: 18px; background-color: white; text-rendering: optimizeLegibility; -webkit-font-smoothing: antialiased;" width="850" height="600"><g class="ChartTab"><g class="HeaderView"><g opacity="0.8" transform="translate(770, 15) scale(0.31)"><a xmlns:xlink="http://www.w3.org/1999/xlink" xlink:href="https://ourworldindata.org" target="_blank"><g><rect x="0" y="0" fill="#1B2543" width="211.2" height="130.1"/><rect x="0" y="112.2" fill="#E63912" width="211.2" height="17.9"/><g><rect x="1.2" y="12.3" fill="none" width="210.2" height="99.2"/><path fill="#FFFFFF" d="M37.8,32.2c0,12.7-7.7,19.4-17.1,19.4c-9.7,0-16.6-7.5-16.6-18.7c0-11.7,7.3-19.3,17.1-19.3 C31.3,13.7,37.8,21.3,37.8,32.2z M9.2,32.8c0,7.9,4.3,14.9,11.8,14.9c7.5,0,11.8-6.9,11.8-15.3c0-7.3-3.8-14.9-11.8-14.9 C13.1,17.5,9.2,24.8,9.2,32.8z"/><path fill="#FFFFFF" d="M62.7,43.8c0,2.7,0.1,5.1,0.2,7.2h-4.3l-0.3-4.3h-0.1c-1.3,2.1-4,4.9-8.8,4.9c-4.2,0-9.1-2.3-9.1-11.6 V24.6h4.8v14.6c0,5,1.5,8.4,5.9,8.4c3.2,0,5.5-2.2,6.3-4.4c0.3-0.7,0.4-1.6,0.4-2.5V24.6h4.8V43.8z"/><path fill="#FFFFFF" d="M67.3,32.8c0-3.1-0.1-5.8-0.2-8.2h4.2l0.2,5.2h0.2c1.2-3.5,4.1-5.8,7.3-5.8c0.5,0,0.9,0.1,1.4,0.2v4.5 c-0.5-0.1-1-0.2-1.6-0.2c-3.4,0-5.8,2.6-6.5,6.2c-0.1,0.7-0.2,1.4-0.2,2.2V51h-4.8V32.8z"/><path fill="#FFFFFF" d="M95.4,51l-9.4-36.8h5l4.4,18.6c1.1,4.6,2.1,9.2,2.7,12.7h0.1c0.6-3.7,1.8-8,3-12.8l4.9-18.5h5l4.5,18.7 c1,4.4,2,8.7,2.6,12.6h0.1c0.8-4,1.8-8.1,3-12.7l4.9-18.5h4.9L120.6,51h-5L111,31.9c-1.1-4.7-1.9-8.3-2.4-12h-0.1 c-0.7,3.7-1.5,7.3-2.8,12L100.4,51H95.4z"/><path fill="#FFFFFF" d="M154.9,37.6c0,9.8-6.8,14-13.2,14c-7.2,0-12.7-5.2-12.7-13.6c0-8.8,5.8-14,13.1-14 C149.8,24,154.9,29.5,154.9,37.6z M133.9,37.9c0,5.8,3.3,10.1,8,10.1c4.6,0,8-4.3,8-10.3c0-4.5-2.2-10.1-7.9-10.1 C136.3,27.6,133.9,32.8,133.9,37.9z"/><path fill="#FFFFFF" d="M158.2,32.8c0-3.1-0.1-5.8-0.2-8.2h4.2l0.2,5.2h0.2c1.2-3.5,4.1-5.8,7.3-5.8c0.5,0,0.9,0.1,1.4,0.2v4.5 c-0.5-0.1-1-0.2-1.6-0.2c-3.4,0-5.8,2.6-6.5,6.2c-0.1,0.7-0.2,1.4-0.2,2.2V51h-4.8V32.8z"/><path fill="#FFFFFF" d="M173.5,12.3h4.8V51h-4.8V12.3z"/><path fill="#FFFFFF" d="M206.5,12.3v31.9c0,2.3,0.1,5,0.2,6.8h-4.3l-0.2-4.6H202c-1.5,2.9-4.7,5.2-9,5.2 c-6.4,0-11.3-5.4-11.3-13.4c-0.1-8.8,5.4-14.2,11.9-14.2c4,0,6.8,1.9,8,4h0.1V12.3H206.5z M201.7,35.4c0-0.6-0.1-1.4-0.2-2 c-0.7-3.1-3.3-5.6-6.9-5.6c-5,0-7.9,4.4-7.9,10.2c0,5.3,2.6,9.8,7.8,9.8c3.2,0,6.2-2.1,7.1-5.7c0.2-0.7,0.2-1.3,0.2-2.1V35.4z"/><path fill="#FFFFFF" d="M42.8,64c0.1,1.6-1.1,2.9-3.1,2.9c-1.7,0-2.9-1.3-2.9-2.9c0-1.7,1.3-3,3-3C41.7,61,42.8,62.3,42.8,64z M37.4,97.8V71.4h4.8v26.4H37.4z"/><path fill="#FFFFFF" d="M47.5,78.6c0-2.7-0.1-5-0.2-7.1h4.3l0.3,4.4h0.1c1.3-2.5,4.4-5,8.8-5c3.7,0,9.4,2.2,9.4,11.2v15.8h-4.8 V82.6c0-4.3-1.6-7.8-6.1-7.8c-3.2,0-5.6,2.2-6.5,4.9c-0.2,0.6-0.3,1.4-0.3,2.2v15.9h-4.8V78.6z"/><path fill="#FFFFFF" d="M84,61.6c2.9-0.4,6.3-0.8,10.1-0.8c6.8,0,11.7,1.6,14.9,4.6c3.3,3,5.2,7.3,5.2,13.2c0,6-1.9,10.9-5.3,14.3 c-3.4,3.4-9.1,5.3-16.3,5.3c-3.4,0-6.2-0.2-8.6-0.4V61.6z M88.8,94.1c1.2,0.2,3,0.3,4.8,0.3c10.2,0,15.7-5.7,15.7-15.6 c0.1-8.7-4.9-14.2-14.9-14.2c-2.5,0-4.3,0.2-5.6,0.5V94.1z"/><path fill="#FFFFFF" d="M132.1,97.8l-0.4-3.3h-0.2c-1.5,2.1-4.3,3.9-8.1,3.9c-5.4,0-8.1-3.8-8.1-7.6c0-6.4,5.7-9.9,15.9-9.8v-0.5 c0-2.2-0.6-6.1-6-6.1c-2.5,0-5,0.8-6.9,2l-1.1-3.2c2.2-1.4,5.4-2.3,8.7-2.3c8.1,0,10.1,5.5,10.1,10.8v9.9c0,2.3,0.1,4.5,0.4,6.3 H132.1z M131.4,84.4c-5.3-0.1-11.2,0.8-11.2,5.9c0,3.1,2.1,4.6,4.5,4.6c3.4,0,5.6-2.2,6.4-4.4c0.2-0.5,0.3-1,0.3-1.5V84.4z"/><path fill="#FFFFFF" d="M146.6,63.9v7.6h6.9v3.7h-6.9v14.2c0,3.3,0.9,5.1,3.6,5.1c1.3,0,2.2-0.2,2.8-0.3l0.2,3.6 c-0.9,0.4-2.4,0.7-4.3,0.7c-2.2,0-4-0.7-5.2-2c-1.4-1.4-1.9-3.8-1.9-6.9V75.1h-4.1v-3.7h4.1v-6.3L146.6,63.9z"/><path fill="#FFFFFF" d="M171.4,97.8l-0.4-3.3h-0.2c-1.5,2.1-4.3,3.9-8.1,3.9c-5.4,0-8.1-3.8-8.1-7.6c0-6.4,5.7-9.9,15.9-9.8v-0.5 c0-2.2-0.6-6.1-6-6.1c-2.5,0-5,0.8-6.9,2l-1.1-3.2c2.2-1.4,5.4-2.3,8.7-2.3c8.1,0,10.1,5.5,10.1,10.8v9.9c0,2.3,0.1,4.5,0.4,6.3 H171.4z M170.7,84.4c-5.3-0.1-11.2,0.8-11.2,5.9c0,3.1,2.1,4.6,4.5,4.6c3.4,0,5.6-2.2,6.4-4.4c0.2-0.5,0.3-1,0.3-1.5V84.4z"/></g></g></a></g><a href="https://ourworldindata.org/grapher/life-expectancy-vs-health-expenditure" target="_blank"><text font-size="27.00" x="15.0" y="36.6" fill="#555"><tspan x="15" y="36.6">Life expectancy vs. health expenditure, 1970 to 2013</tspan></text></a><text font-size="14.40" x="15.0" y="55.5" fill="#666"><tspan x="15" y="55.519999999999996">Health financing is reported as the annual per capita health expenditure and is adjusted for inflation and price level</tspan><tspan x="15" y="71.36">differences between countries (measured in 2010 international dollars).</tspan></text></g><g><g class="AxisBoxView"><g class="HorizontalAxis"><text font-size="12.60" x="277.8" y="539.4"><tspan x="277.808" y="539.38">Health expenditure (2010 int-$)</tspan></text><text x="131.7" y="519.3" fill="#666" text-anchor="middle" font-size="16.2">$1,000</text><text x="213.2" y="519.3" fill="#666" text-anchor="middle" font-size="16.2">$2,000</text><text x="294.7" y="519.3" fill="#666" text-anchor="middle" font-size="16.2">$3,000</text><text x="376.2" y="519.3" fill="#666" text-anchor="middle" font-size="16.2">$4,000</text><text x="457.7" y="519.3" fill="#666" text-anchor="middle" font-size="16.2">$5,000</text><text x="539.2" y="519.3" fill="#666" text-anchor="middle" font-size="16.2">$6,000</text><text x="620.7" y="519.3" fill="#666" text-anchor="middle" font-size="16.2">$7,000</text><text x="702.2" y="519.3" fill="#666" text-anchor="middle" font-size="16.2">$8,000</text></g><g class="VerticalAxis"><text font-size="12.60" x="-383.0" y="25.1" transform="rotate(-90)"><tspan x="-382.979" y="25.080000000000002">Life expectancy at birth</tspan></text><text x="55.74" y="462.5" fill="#666" dominant-baseline="middle" text-anchor="end" font-size="16.2">55</text><text x="55.74" y="397.4" fill="#666" dominant-baseline="middle" text-anchor="end" font-size="16.2">60</text><text x="55.74" y="332.4" fill="#666" dominant-baseline="middle" text-anchor="end" font-size="16.2">65</text><text x="55.74" y="267.3" fill="#666" dominant-baseline="middle" text-anchor="end" font-size="16.2">70</text><text x="55.74" y="202.3" fill="#666" dominant-baseline="middle" text-anchor="end" font-size="16.2">75</text><text x="55.74" y="137.2" fill="#666" dominant-baseline="middle" text-anchor="end" font-size="16.2">80</text></g><g class="AxisGridLines"><line x1="60.74" y1="462.5" x2="715.00" y2="462.5" stroke="#ddd" stroke-dasharray="3,2"></line><line x1="60.74" y1="397.4" x2="715.00" y2="397.4" stroke="#ddd" stroke-dasharray="3,2"></line><line x1="60.74" y1="332.4" x2="715.00" y2="332.4" stroke="#ddd" stroke-dasharray="3,2"></line><line x1="60.74" y1="267.3" x2="715.00" y2="267.3" stroke="#ddd" stroke-dasharray="3,2"></line><line x1="60.74" y1="202.3" x2="715.00" y2="202.3" stroke="#ddd" stroke-dasharray="3,2"></line><line x1="60.74" y1="137.2" x2="715.00" y2="137.2" stroke="#ddd" stroke-dasharray="3,2"></line></g><g class="AxisGridLines"><line x1="131.7" y1="498.10" x2="131.7" y2="93.90" stroke="#ddd" stroke-dasharray="3,2"></line><line x1="213.2" y1="498.10" x2="213.2" y2="93.90" stroke="#ddd" stroke-dasharray="3,2"></line><line x1="294.7" y1="498.10" x2="294.7" y2="93.90" stroke="#ddd" stroke-dasharray="3,2"></line><line x1="376.2" y1="498.10" x2="376.2" y2="93.90" stroke="#ddd" stroke-dasharray="3,2"></line><line x1="457.7" y1="498.10" x2="457.7" y2="93.90" stroke="#ddd" stroke-dasharray="3,2"></line><line x1="539.2" y1="498.10" x2="539.2" y2="93.90" stroke="#ddd" stroke-dasharray="3,2"></line><line x1="620.7" y1="498.10" x2="620.7" y2="93.90" stroke="#ddd" stroke-dasharray="3,2"></line><line x1="702.2" y1="498.10" x2="702.2" y2="93.90" stroke="#ddd" stroke-dasharray="3,2"></line></g></g><g clip-path="url(#scatterBounds-137)" class="PointsWithLabels clickable"><rect x="60.744" y="93.9" width="654.256" height="404.2" fill="rgba(255,255,255,0)"></rect><defs><clipPath id="scatterBounds-137"><rect x="50.744" y="83.9" width="674.256" height="424.2"></rect></clipPath></defs><g class="key-Japan_0"><circle cx="101" cy="242" r="1.6424425102515516" fill="#e2e2e2" stroke="#ccc" opacity="0.6"></circle><polyline stroke-linecap="round" stroke="#ccc" points="101,242 104,229 109,221 111,218 115,210 123,201 125,196 130,190 136,188 142,184 150,188 155,183 160,177 165,176 166,171 173,167 175,162 180,157 183,158 184,152 187,152 192,148 199,148 205,146 213,141 210,143 210,134 219,131 222,130 231,129 240,123 246,118 249,116 256,114 262,110 269,112 273,107 280,104 287,103 297,99 311,100 353,103 364,97 372,93" fill="none" stroke-width="1.0072980031924086" opacity="0.6"></polyline><polygon points="370.2927019968076,99.2927019968076 372,91.2927019968076 373.7072980031924,94.7072980031924" transform="rotate(63.43494936201229, 372, 93)" cx="372" cy="93" r="1.7072980031924088" fill="#e2e2e2" stroke="#ccc" stroke-width="0.2" opacity="0.6"></polygon></g><g class="key-Mexico_0"><circle cx="91" cy="257" r="1.5811117230678482" fill="#e2e2e2" stroke="#ccc" opacity="0.6"></circle><polyline stroke-linecap="round" stroke="#ccc" points="91,257 95,251 99,246 101,241 103,236 98,231 95,227 99,222 101,218 104,215 106,211 110,208 111,205 117,202 121,199 121,196 121,192 123,189 122,186 123,183 124,180 123,177 127,174 128,171" fill="none" stroke-width="0.9826264553416333" opacity="0.6"></polyline><polygon points="126.31737354465837,177.31737354465838 128,169.31737354465838 129.68262645534162,172.68262645534165" transform="rotate(18.43494897958805, 128, 171)" cx="128" cy="171" r="1.6826264553416332" fill="#e2e2e2" stroke="#ccc" stroke-width="0.2" opacity="0.6"></polygon></g><g class="key-Germany_0"><circle cx="149" cy="259" r="1.560317291480057" fill="#e2e2e2" stroke="#ccc" opacity="0.6"></circle><polyline stroke-linecap="round" stroke="#ccc" points="149,259 160,257 170,256 182,254 193,251 205,249 214,246 218,242 225,239 229,236 236,232 243,228 239,225 242,221 251,218 260,214 262,211 267,208 279,205 269,202 276,200 287,191 282,191 293,185 304,183 314,180 315,175 321,170 328,166 338,164 343,159 350,160 355,158 352,154 358,151 366,148 372,143 382,140 395,139 405,137 408,127 418,125 424,123" fill="none" stroke-width="0.8727243559712088" opacity="0.6"></polyline><polygon points="422.4272756440288,129.42727564402878 424,121.4272756440288 425.5727243559712,124.57272435597122" transform="rotate(71.56505178526047, 424, 123)" cx="424" cy="123" r="1.572724355971209" fill="#e2e2e2" stroke="#ccc" stroke-width="0.2" opacity="0.6"></polygon></g><g class="key-Turkey_0"><circle cx="63" cy="498" r="1.3857439383873322" fill="#e2e2e2" stroke="#ccc" opacity="0.6"></circle><polyline stroke-linecap="round" stroke="#ccc" points="63,498 61,448 63,440 65,431 65,422 65,414 66,406 64,398 64,390 64,382 60,375 63,368 65,361 66,354 67,348 70,341 73,335 73,328 74,321 72,314 71,306 76,298 80,290 85,282 92,274 97,267 97,260 101,253 103,247 107,241 111,235 118,230 121,225 121,221 120,216 119,212 120,208 120,204 123,200" fill="none" stroke-width="0.8505334918292047" opacity="0.6"></polyline><polygon points="121.4494665081708,206.4494665081708 123,198.4494665081708 124.55053349182921,201.55053349182919" transform="rotate(36.86989795917608, 123, 200)" cx="123" cy="200" r="1.5505334918292046" fill="#e2e2e2" stroke="#ccc" stroke-width="0.2" opacity="0.6"></polygon></g><g class="key-France_0"><circle cx="125" cy="245" r="1.4560324439129038" fill="#e2e2e2" stroke="#ccc" opacity="0.6"></circle><polyline stroke-linecap="round" stroke="#ccc" points="125,245 153,230 181,214 206,198 237,181 244,178 251,175 259,172 262,167 291,166 294,163 296,159 301,155 308,153 315,149 321,148 331,146 333,148 341,135 346,135 347,126 350,122 352,121 362,118 364,115 369,109 371,111 375,111" fill="none" stroke-width="0.8082499342953244" opacity="0.6"></polyline><polygon points="373.49175006570465,117.49175006570468 375,109.49175006570468 376.5082499342953,112.50824993429532" transform="rotate(90.0000007648485, 375, 111)" cx="375" cy="111" r="1.5082499342953244" fill="#e2e2e2" stroke="#ccc" stroke-width="0.2" opacity="0.6"></polygon></g><g class="key-United-Kingdom_0"><circle cx="103" cy="241" r="1.476284429620324" fill="#e2e2e2" stroke="#ccc" opacity="0.6"></circle><polyline stroke-linecap="round" stroke="#ccc" points="103,241 105,237 109,239 111,237 119,234 122,231 125,231 125,225 127,226 129,224 133,219 136,215 135,213 142,210 142,205 144,207 146,203 153,198 157,197 158,194 159,190 166,188 176,183 180,184 187,177 189,178 192,175 192,173 200,173 210,171 216,166 229,163 240,161 252,157 262,153 271,149 279,147 286,144 290,142 301,136 297,132 299,124 302,125 349,124" fill="none" stroke-width="0.8059407800370038" opacity="0.6"></polyline><polygon points="347.494059219963,130.494059219963 349,122.49405921996299 350.505940780037,125.505940780037" transform="rotate(88.78112551935882, 349, 124)" cx="349" cy="124" r="1.5059407800370037" fill="#e2e2e2" stroke="#ccc" stroke-width="0.2" opacity="0.6"></polygon></g><g class="key-Italy_0"><circle cx="204" cy="184" r="1.4810485476128323" fill="#e2e2e2" stroke="#ccc" opacity="0.6"></circle><polyline stroke-linecap="round" stroke="#ccc" points="204,184 209,178 220,176 229,176 227,170 225,166 224,164 228,161 232,156 243,152 247,150 252,144 266,140 275,135 279,134 277,137 289,127 295,127 303,120 296,118 304,117 300,116 303,110 301,108 293,108 285,107" fill="none" stroke-width="0.7978887356935569" opacity="0.6"></polyline><polygon points="283.50211126430645,113.50211126430645 285,105.50211126430645 286.49788873569355,108.49788873569356" transform="rotate(-82.87498435539605, 285, 107)" cx="285" cy="107" r="1.4978887356935568" fill="#e2e2e2" stroke="#ccc" stroke-width="0.2" opacity="0.6"></polygon></g><g class="key-Spain_0"><circle cx="86" cy="241" r="1.3772670591284344" fill="#e2e2e2" stroke="#ccc" opacity="0.6"></circle><polyline stroke-linecap="round" stroke="#ccc" points="86,241 93,246 99,230 101,233 108,228 110,224 118,219 123,213 123,211 122,204 124,197 126,195 127,187 131,190 129,185 129,185 130,182 136,179 150,179 157,178 167,178 174,176 182,170 186,169 188,164 194,163 198,161 201,155 206,154 212,153 217,150 221,145 223,142 244,142 249,138 255,135 262,126 268,125 280,122 288,118 288,116 286,105 280,105 274,105" fill="none" stroke-width="0.73997335600995" opacity="0.6"></polyline><polygon points="272.56002664399006,111.56002664399006 274,103.56002664399006 275.43997335600994,106.43997335600996" transform="rotate(-90.0000007648485, 274, 105)" cx="274" cy="105" r="1.43997335600995" fill="#e2e2e2" stroke="#ccc" stroke-width="0.2" opacity="0.6"></polygon></g><g class="key-Poland_0"><circle cx="85" cy="255" r="1.3985254898285475" fill="#e2e2e2" stroke="#ccc" opacity="0.6"></circle><polyline stroke-linecap="round" stroke="#ccc" points="85,255 85,259 88,253 90,246 91,245 93,242 99,238 101,232 102,228 109,227 111,218 116,212 122,208 123,207 127,204 128,202 133,200 140,199 152,195 158,193 159,186 161,179 162,178 168,178" fill="none" stroke-width="0.6998606380276153" opacity="0.6"></polyline><polygon points="166.6001393619724,184.6001393619724 168,176.6001393619724 169.39986063802763,179.39986063802763" transform="rotate(90.0000007648485, 168, 178)" cx="168" cy="178" r="1.3998606380276153" fill="#e2e2e2" stroke="#ccc" stroke-width="0.2" opacity="0.6"></polygon></g><g class="key-Canada_0"><circle cx="155" cy="232" r="1.3092444156994427" fill="#e2e2e2" stroke="#ccc" opacity="0.6"></circle><polyline stroke-linecap="round" stroke="#ccc" points="155,232 163,227 166,229 167,226 167,225 176,221 182,217 184,212 188,208 189,204 194,201 202,196 211,193 217,188 223,185 230,185 238,183 241,179 247,178 254,175 261,171 271,169 276,172 277,167 276,165 271,163 268,160 274,157 287,154 291,151 299,147 312,143 324,142 332,139 339,135 345,133 355,128 361,132 367,130 389,127 395,125 392,123 393,121 394,119" fill="none" stroke-width="0.6833783744753441" opacity="0.6"></polyline><polygon points="392.61662162552466,125.61662162552466 394,117.61662162552466 395.38337837447534,120.38337837447534" transform="rotate(26.565051402836207, 394, 119)" cx="394" cy="119" r="1.383378374475344" fill="#e2e2e2" stroke="#ccc" stroke-width="0.2" opacity="0.6"></polygon></g><g class="key-Australia_0"><circle cx="130" cy="254" r="1.2467187356751377" fill="#e2e2e2" stroke="#ccc" opacity="0.6"></circle><polyline stroke-linecap="round" stroke="#ccc" points="130,254 130,248 132,243 143,238 156,233 159,228 164,223 165,219 165,215 167,211 169,206 170,203 173,200 177,197 182,194 187,191 189,187 191,183 195,180 201,176 206,172 212,171 218,164 223,164 229,165 238,162 245,157 257,155 265,151 275,147 284,142 294,138 302,134 314,130 314,126 321,123 328,120 335,119 346,117 344,115 354,112 362,110 368,108" fill="none" stroke-width="0.6184680989260177" opacity="0.6"></polyline><polygon points="366.681531901074,114.68153190107398 368,106.68153190107398 369.318468098926,109.31846809892602" transform="rotate(71.56505178526047, 368, 108)" cx="368" cy="108" r="1.3184680989260178" fill="#e2e2e2" stroke="#ccc" stroke-width="0.2" opacity="0.6"></polygon></g><g class="key-Chile_0"><circle cx="92" cy="202" r="1.2595600501507436" fill="#e2e2e2" stroke="#ccc" opacity="0.6"></circle><polyline stroke-linecap="round" stroke="#ccc" points="92,202 96,198 99,194 102,189 102,184 105,179 107,174 109,170 119,166 123,163 127,161 130,159 136,157 138,155 144,152 149,149 154,146 160,142 169,139" fill="none" stroke-width="0.5821557773728545" opacity="0.6"></polyline><polygon points="167.71784422262715,145.71784422262715 169,137.71784422262715 170.28215577737285,140.28215577737285" transform="rotate(71.56505178526047, 169, 139)" cx="169" cy="139" r="1.2821557773728545" fill="#e2e2e2" stroke="#ccc" stroke-width="0.2" opacity="0.6"></polygon></g><g class="key-Netherlands_0"><circle cx="153" cy="220" r="1.24851792890035" fill="#e2e2e2" stroke="#ccc" opacity="0.6"></circle><polyline stroke-linecap="round" stroke="#ccc" points="153,220 159,213 166,208 172,208 176,206 179,199 184,200 189,194 194,192 193,190 196,189 198,187 196,186 199,185 204,185 209,180 211,177 222,179 232,177 240,176 247,173 251,177 252,171 255,171 259,170 261,165 272,164 282,165 286,163 302,160 318,159 334,156 341,149 378,145 385,141 397,136 410,134 421,130 430,128 437,121 445,122 445,122" fill="none" stroke-width="0.5765285483005695" opacity="0.6"></polyline><polygon points="443.7234714516994,128.72347145169942 445,120.72347145169942 446.2765285483006,123.27652854830056" transform="rotate(90.0000007648485, 445, 122)" cx="445" cy="122" r="1.2765285483005697" fill="#e2e2e2" stroke="#ccc" stroke-width="0.2" opacity="0.6"></polygon></g><g class="key-Greece_0"><circle cx="141" cy="190" r="1.2247056176791837" fill="#e2e2e2" stroke="#ccc" opacity="0.6"></circle><polyline stroke-linecap="round" stroke="#ccc" points="141,190 153,180 153,177 152,174 162,171 173,171 187,168 189,168 191,167 193,161 195,165 203,163 198,164 219,158 230,154 239,152 242,149 268,147 279,144 289,144 306,138 294,134 282,132 253,127 229,129 221,129" fill="none" stroke-width="0.5364520043534609" opacity="0.6"></polyline><polygon points="219.76354799564655,135.76354799564655 221,127.76354799564653 222.23645200435348,130.23645200435345" transform="rotate(-90.0000007648485, 221, 129)" cx="221" cy="129" r="1.2364520043534608" fill="#e2e2e2" stroke="#ccc" stroke-width="0.2" opacity="0.6"></polygon></g><g class="key-Belgium_0"><circle cx="105" cy="254" r="1.221060804418872" fill="#e2e2e2" stroke="#ccc" opacity="0.6"></circle><polyline stroke-linecap="round" stroke="#ccc" points="105,254 109,253 114,249 122,246 126,241 144,241 153,239 162,231 168,232 171,225 172,225 179,220 185,216 188,217 189,210 192,208 198,205 204,197 210,194 214,194 220,188 230,186 236,184 237,184 237,180 240,178 250,173 253,171 260,170 271,168 280,166 286,163 294,162 319,161 328,151 330,150 333,145 341,140 353,141 368,137 368,134 375,129 376,132 381,132" fill="none" stroke-width="0.5312417376572096" opacity="0.6"></polyline><polygon points="379.76875826234277,138.7687582623428 381,130.7687582623428 382.2312417376572,133.23124173765723" transform="rotate(90.0000007648485, 381, 132)" cx="381" cy="132" r="1.2312417376572096" fill="#e2e2e2" stroke="#ccc" stroke-width="0.2" opacity="0.6"></polygon></g><g class="key-Portugal_0"><circle cx="69" cy="305" r="1.2126733203120899" fill="#e2e2e2" stroke="#ccc" opacity="0.6"></circle><polyline stroke-linecap="round" stroke="#ccc" points="69,305 72,309 79,289 85,299 88,293 98,289 98,282 95,267 97,263 98,252 108,251 111,246 112,235 109,237 109,234 116,230 126,224 128,219 138,219 136,211 139,215 152,215 156,211 158,208 159,203 177,198 185,198 190,196 195,193 205,189 225,185 228,178 232,175 237,173 248,167 252,162 248,157 251,159 258,156 263,153 265,149 256,131 244,132 238,132" fill="none" stroke-width="0.5303111156293905" opacity="0.6"></polyline><polygon points="236.76968888437062,138.76968888437062 238,130.76968888437062 239.2303111156294,133.2303111156294" transform="rotate(-90.0000007648485, 238, 132)" cx="238" cy="132" r="1.2303111156293904" fill="#e2e2e2" stroke="#ccc" stroke-width="0.2" opacity="0.6"></polygon></g><g class="key-Czech-Republic_0"><circle cx="108" cy="249" r="1.2269123890728724" fill="#e2e2e2" stroke="#ccc" opacity="0.6"></circle><polyline stroke-linecap="round" stroke="#ccc" points="108,249 103,242 105,237 123,231 128,228 136,227 138,219 138,217 137,208 141,206 144,202 150,200 158,199 168,200 170,192 178,190 182,182 185,179 195,176 208,175 203,170 207,164 207,162 221,159" fill="none" stroke-width="0.5293458360084213" opacity="0.6"></polyline><polygon points="219.77065416399157,165.77065416399157 221,157.77065416399157 222.2293458360084,160.2293458360084" transform="rotate(77.90524358505132, 221, 159)" cx="221" cy="159" r="1.2293458360084213" fill="#e2e2e2" stroke="#ccc" stroke-width="0.2" opacity="0.6"></polygon></g><g class="key-Hungary_0"><circle cx="126" cy="275" r="1.2274070749362815" fill="#e2e2e2" stroke="#ccc" opacity="0.6"></circle><polyline stroke-linecap="round" stroke="#ccc" points="126,275 129,278 129,279 137,274 131,270 130,263 129,258 137,260 143,258 145,251 150,238 159,236 180,237 181,232 191,232 193,227 184,226 183,219 177,216 183,212 186,204 183,201 182,198" fill="none" stroke-width="0.5237464292061764" opacity="0.6"></polyline><polygon points="180.7762535707938,204.7762535707938 182,196.7762535707938 183.22374642920616,199.22374642920616" transform="rotate(-18.43494897958805, 182, 198)" cx="182" cy="198" r="1.2237464292061764" fill="#e2e2e2" stroke="#ccc" stroke-width="0.2" opacity="0.6"></polygon></g><g class="key-Sweden_0"><circle cx="145" cy="206" r="1.206759298160311" fill="#e2e2e2" stroke="#ccc" opacity="0.6"></circle><polyline stroke-linecap="round" stroke="#ccc" points="145,206 153,207 157,206 160,204 168,202 176,202 182,202 194,197 197,196 200,195 209,192 212,188 215,185 217,182 219,178 214,180 213,177 219,175 221,176 226,166 228,169 224,167 228,163 229,162 225,154 229,153 237,150 238,147 248,145 257,144 266,141 287,139 301,139 310,136 313,130 320,130 327,127 332,125 336,122 339,119 339,118 420,113 425,115 432,115" fill="none" stroke-width="0.5203679355302537" opacity="0.6"></polyline><polygon points="430.77963206446975,121.77963206446975 432,113.77963206446975 433.22036793553025,116.22036793553026" transform="rotate(90.0000007648485, 432, 115)" cx="432" cy="115" r="1.2203679355302537" fill="#e2e2e2" stroke="#ccc" stroke-width="0.2" opacity="0.6"></polygon></g><g class="key-Austria_0"><circle cx="119" cy="268" r="1.2012913122004492" fill="#e2e2e2" stroke="#ccc" opacity="0.6"></circle><polyline stroke-linecap="round" stroke="#ccc" points="119,268 121,265 125,261 130,254 137,254 161,252 171,247 175,242 180,241 187,237 191,235 171,230 173,228 173,228 174,220 180,217 185,211 193,205 198,199 206,198 241,194 247,194 257,191 270,188 284,183 288,180 292,178 300,172 314,167 327,164 333,161 338,155 345,154 351,155 359,147 362,145 367,138 377,134 387,131 390,132 395,129 396,124 405,125 404,125" fill="none" stroke-width="0.5104525287786503" opacity="0.6"></polyline><polygon points="402.78954747122134,131.78954747122134 404,123.78954747122135 405.21045252877866,126.21045252877866" transform="rotate(-90.0000007648485, 404, 125)" cx="404" cy="125" r="1.2104525287786503" fill="#e2e2e2" stroke="#ccc" stroke-width="0.2" opacity="0.6"></polygon></g><g class="key-Israel_0"><circle cx="106" cy="251" r="1.1505486336729729" fill="#e2e2e2" stroke="#ccc" opacity="0.6"></circle><polyline stroke-linecap="round" stroke="#ccc" points="106,251 113,228 120,228 129,225 139,221 140,216 140,211 141,213 149,209 169,204 141,199 137,202 143,198 147,209 153,185 151,181 148,179 156,182 160,174 174,171 175,170 181,161 186,163 187,161 182,154 191,150 197,145 192,144 190,141 193,135 199,135 201,130 206,130 210,124 210,119 215,116 220,115 224,115 234,110" fill="none" stroke-width="0.5046538396269464" opacity="0.6"></polyline><polygon points="232.79534616037304,116.79534616037306 234,108.79534616037306 235.20465383962693,111.20465383962696" transform="rotate(63.43494936201229, 234, 110)" cx="234" cy="110" r="1.2046538396269464" fill="#e2e2e2" stroke="#ccc" stroke-width="0.2" opacity="0.6"></polygon></g><g class="key-Switzerland_0"><circle cx="186" cy="228" r="1.1884224715236067" fill="#e2e2e2" stroke="#ccc" opacity="0.6"></circle><polyline stroke-linecap="round" stroke="#ccc" points="186,228 197,226 200,219 205,216 218,211 227,206 232,205 237,199 238,199 245,196 254,196 258,193 258,188 270,188 268,181 275,179 284,177 293,173 301,173 310,170 315,173 330,169 340,165 340,162 344,158 356,157 368,151 374,149 387,146 396,142 404,141 420,134 433,132 442,130 451,123 454,121 450,117 455,114 465,111 476,110 488,108 497,102 513,102 524,101" fill="none" stroke-width="0.5041141797209735" opacity="0.6"></polyline><polygon points="522.7958858202791,107.79588582027903 524,99.79588582027903 525.204114179721,102.20411417972097" transform="rotate(84.80557181296979, 524, 101)" cx="524" cy="101" r="1.2041141797209736" fill="#e2e2e2" stroke="#ccc" stroke-width="0.2" opacity="0.6"></polygon></g><g class="key-Denmark_0"><circle cx="193" cy="223" r="1.1752308321630094" fill="#e2e2e2" stroke="#ccc" opacity="0.6"></circle><polyline stroke-linecap="round" stroke="#ccc" points="193,223 199,222 200,219 211,217 213,214 221,218 219,207 225,210 234,212 232,214 234,212 243,208 243,209 240,208 247,209 250,207 259,206 262,205 260,204 262,204 262,200 266,199 274,200 279,197 276,199 283,194 287,190 285,187 316,184 318,181 330,179 339,177 346,174 357,169 366,165 380,162 387,160 390,157 411,155 406,149 401,139 401,136 400,133" fill="none" stroke-width="0.48260687254553203" opacity="0.6"></polyline><polygon points="398.81739312745447,139.81739312745447 400,131.81739312745447 401.18260687254553,134.18260687254553" transform="rotate(-18.43494897958805, 400, 133)" cx="400" cy="133" r="1.182606872545532" fill="#e2e2e2" stroke="#ccc" stroke-width="0.2" opacity="0.6"></polygon></g><g class="key-Finland_0"><circle cx="112" cy="265" r="1.1716327934805975" fill="#e2e2e2" stroke="#ccc" opacity="0.6"></circle><polyline stroke-linecap="round" stroke="#ccc" points="112,265 117,267 123,258 125,251 127,252 135,245 140,243 143,236 144,229 149,226 152,222 155,218 160,211 164,212 168,208 179,212 184,208 192,207 194,207 202,205 214,204 226,199 223,196 207,193 201,184 209,184 217,180 219,177 220,175 226,172 237,170 246,163 260,161 272,158 284,154 296,152 305,147 311,146 320,142 321,140 327,138 335,131 341,129 343,126" fill="none" stroke-width="0.4805577247636781" opacity="0.6"></polyline><polygon points="341.8194422752363,132.81944227523633 343,124.81944227523633 344.1805577247637,127.18055772476369" transform="rotate(33.690067812288646, 343, 126)" cx="343" cy="126" r="1.180557724763678" fill="#e2e2e2" stroke="#ccc" stroke-width="0.2" opacity="0.6"></polygon></g><g class="key-Norway_0"><circle cx="119" cy="214" r="1.163217585375496" fill="#e2e2e2" stroke="#ccc" opacity="0.6"></circle><polyline stroke-linecap="round" stroke="#ccc" points="119,214 127,213 137,210 143,209 146,205 157,204 164,201 172,197 188,196 184,196 191,193 195,191 199,189 208,188 208,186 215,190 219,186 224,188 222,186 222,182 255,182 267,176 273,173 275,174 278,167 283,166 297,161 329,161 346,159 362,159 376,155 387,153 417,150 427,145 436,139 443,136 445,132 454,132 469,129 478,126 477,124 489,120 498,118 503,118" fill="none" stroke-width="0.4759278915282019" opacity="0.6"></polyline><polygon points="501.8240721084718,124.8240721084718 503,116.8240721084718 504.1759278915282,119.1759278915282" transform="rotate(90.0000007648485, 503, 118)" cx="503" cy="118" r="1.1759278915282019" fill="#e2e2e2" stroke="#ccc" stroke-width="0.2" opacity="0.6"></polygon></g><g class="key-Ireland_0"><circle cx="93" cy="254" r="1.1519992937323953" fill="#e2e2e2" stroke="#ccc" opacity="0.6"></circle><polyline stroke-linecap="round" stroke="#ccc" points="93,254 102,253 105,252 108,250 115,249 118,247 116,245 118,242 125,240 131,237 141,234 137,231 137,228 136,225 138,222 140,220 139,217 139,214 139,211 139,208 144,205 153,202 160,200 163,198 168,196 175,194 182,191 193,189 198,186 211,188 235,182 259,174 277,168 294,161 308,156 334,151 339,147 358,141 394,136 421,134 423,127 406,127 414,125 431,123" fill="none" stroke-width="0.4719186445288507" opacity="0.6"></polyline><polygon points="429.82808135547117,129.82808135547117 431,121.82808135547116 432.1719186445289,124.17191864452886" transform="rotate(83.29016390006926, 431, 123)" cx="431" cy="123" r="1.1719186445288508" fill="#e2e2e2" stroke="#ccc" stroke-width="0.2" opacity="0.6"></polygon></g><g class="key-New-Zealand_0"><circle cx="128" cy="250" r="1.1501636212904442" fill="#e2e2e2" stroke="#ccc" opacity="0.6"></circle><polyline stroke-linecap="round" stroke="#ccc" points="128,250 129,244 132,243 140,245 155,242 160,238 152,235 152,239 159,228 154,227 146,230 148,220 151,218 151,218 149,210 142,217 146,213 151,213 163,209 166,204 173,197 175,188 177,187 179,183 184,177 188,179 189,179 196,171 205,162 209,164 213,155 221,154 234,152 235,148 242,143 256,139 267,136 265,135 281,132 297,128 296,128 298,125 307,122 301,118" fill="none" stroke-width="0.4705270115487266" opacity="0.6"></polyline><polygon points="299.8294729884513,124.82947298845127 301,116.82947298845127 302.17052701154876,119.17052701154873" transform="rotate(-56.309932952559855, 301, 118)" cx="301" cy="118" r="1.1705270115487267" fill="#e2e2e2" stroke="#ccc" stroke-width="0.2" opacity="0.6"></polygon></g><g class="key-Latvia_0"><circle cx="84" cy="314" r="1.1458853537271172" fill="#e2e2e2" stroke="#ccc" opacity="0.6"></circle><polyline stroke-linecap="round" stroke="#ccc" points="84,314 88,283 93,275 96,280 100,270 101,263 107,257 111,254 115,250 126,241 130,249 138,256 148,254 143,235 139,227 137,222 136,220 138,218 141,215" fill="none" stroke-width="0.44231812889477895" opacity="0.6"></polyline><polygon points="139.85768187110523,221.85768187110523 141,213.85768187110523 142.1423181288948,216.1423181288948" transform="rotate(45.00000038242425, 141, 215)" cx="141" cy="215" r="1.142318128894779" fill="#e2e2e2" stroke="#ccc" stroke-width="0.2" opacity="0.6"></polygon></g><g class="key-Slovenia_0"><circle cx="156" cy="215" r="1.1387397444302758" fill="#e2e2e2" stroke="#ccc" opacity="0.6"></circle><polyline stroke-linecap="round" stroke="#ccc" points="156,215 162,209 170,206 175,204 181,202 194,196 204,192 202,189 208,178 211,173 218,168 224,162 227,156 241,153 241,150 242,144 243,137 241,135 240,133" fill="none" stroke-width="0.43983040590173306" opacity="0.6"></polyline><polygon points="238.86016959409827,139.86016959409827 240,131.86016959409827 241.13983040590173,134.13983040590173" transform="rotate(-26.565051402836207, 240, 133)" cx="240" cy="133" r="1.139830405901733" fill="#e2e2e2" stroke="#ccc" stroke-width="0.2" opacity="0.6"></polygon></g><g class="key-Estonia_0"><circle cx="111" cy="266" r="1.1303130406965685" fill="#e2e2e2" stroke="#ccc" opacity="0.6"></circle><polyline stroke-linecap="round" stroke="#ccc" points="111,266 111,261 110,264 114,255 121,250 129,242 135,233 144,232 154,230 162,218 159,204 158,196 158,186 163,185 169,183" fill="none" stroke-width="0.4297012836471171" opacity="0.6"></polyline><polygon points="167.8702987163529,189.8702987163529 169,181.8702987163529 170.12970128364714,184.12970128364714" transform="rotate(71.56505178526047, 169, 183)" cx="169" cy="183" r="1.1297012836471172" fill="#e2e2e2" stroke="#ccc" stroke-width="0.2" opacity="0.6"></polygon></g><g class="key-Luxembourg_0"><circle cx="320" cy="182" r="1.1149812484908417" fill="#e2e2e2" stroke="#ccc" opacity="0.6"></circle><polyline stroke-linecap="round" stroke="#ccc" points="320,182 325,182 334,177 352,176 380,166 425,164 467,165 501,163 517,166 556,148 554,144 540,146 537,145 549,130 576,129 571,129 508,124 523,119 521,113" fill="none" stroke-width="0.41702318936366667" opacity="0.6"></polyline><polygon points="519.8829768106364,119.88297681063634 521,111.88297681063634 522.1170231893637,114.11702318936366" transform="rotate(-18.43494897958805, 521, 113)" cx="521" cy="113" r="1.1170231893636666" fill="#e2e2e2" stroke="#ccc" stroke-width="0.2" opacity="0.6"></polygon></g><g class="key-Iceland_0"><circle cx="105" cy="216" r="1.1115077572595482" fill="#e2e2e2" stroke="#ccc" opacity="0.6"></circle><polyline stroke-linecap="round" stroke="#ccc" points="105,216 117,220 119,209 117,209 129,208 135,194 134,176 140,184 152,180 169,179 166,178 172,182 179,175 186,178 182,168 190,168 208,163 224,171 235,175 229,161 221,162 223,163 219,153 222,151 223,147 225,163 233,153 238,151 268,142 284,145 296,141 298,128 317,130 335,124 340,124 341,117 338,122 350,118 351,116 346,114 327,112 326,106 330,99 340,96" fill="none" stroke-width="0.41370399857380985" opacity="0.6"></polyline><polygon points="338.8862960014262,102.88629600142619 340,94.88629600142619 341.11370399857384,97.11370399857381" transform="rotate(73.30075638893942, 340, 96)" cx="340" cy="96" r="1.1137039985738098" fill="#e2e2e2" stroke="#ccc" stroke-width="0.2" opacity="0.6"></polygon></g><text x="376.4721359549996" y="106.20780460258746" font-size="12.307804602587446" font-family="Arial Narrow, Arial, sans-serif" fill="#aaa">Japan</text><text x="129.5811388300842" y="166.25658350974743" font-size="12.2158748316872" font-family="Arial Narrow, Arial, sans-serif" fill="#aaa">Mexico</text><text x="428.74341649025257" y="121.41886116991581" font-size="11.846012860977769" font-family="Arial Narrow, Arial, sans-serif" fill="#aaa">Germany</text><text x="126" y="196" font-size="11.779190431797941" font-family="Arial Narrow, Arial, sans-serif" fill="#aaa">Turkey</text><text x="258.6371564004774" y="106.37982632705396" font-size="11.63122511736643" font-family="Arial Narrow, Arial, sans-serif" fill="#aaa">Italy</text><text x="173" y="178" font-size="11.395299951573946" font-family="Arial Narrow, Arial, sans-serif" fill="#aaa">Poland</text><text x="173.74341649025257" y="137.4188611699158" font-size="11.180092250320303" font-family="Arial Narrow, Arial, sans-serif" fill="#aaa">Chile</text><text x="386" y="132" font-size="11.11001776727921" font-family="Arial Narrow, Arial, sans-serif" fill="#aaa">Belgium</text><text x="225.88901207038705" y="157.95235455634563" font-size="11.107676793203044" font-family="Arial Narrow, Arial, sans-serif" fill="#aaa">Czech Republic</text><text x="528.9794660323386" y="104.9783568323816" font-size="11.0783568323816" font-family="Arial Narrow, Arial, sans-serif" fill="#aaa">Switzerland</text><text x="345.7735009811261" y="121.83974852831078" font-size="11.054064512885526" font-family="Arial Narrow, Arial, sans-serif" fill="#aaa">Finland</text><text x="508" y="118" font-size="11.04963989324458" font-family="Arial Narrow, Arial, sans-serif" fill="#aaa">Norway</text><text x="144.53553390593274" y="211.46446609406726" font-size="11.020965316891505" font-family="Arial Narrow, Arial, sans-serif" fill="#aaa">Latvia</text><g class="key-United-States_0"><defs><marker id="key-United-States_0-arrow-137" fill="#4d824b" viewBox="0 -5 10 10" refX="5" refY="0" marker-width="4" marker-height="4" orient="auto"><path d="M0,-5L10,0L0,5"></path></marker><marker id="key-United-States_0-circle-137" viewBox="0 0 12 12" refX="4" refY="4" orient="auto" fill="#4d824b"><circle cx="4" cy="4" r="4"></circle></marker></defs><circle cx="168" cy="256" r="3.8920620580763856" fill="none" stroke="#4d824b" opacity="0.6"></circle><polyline stroke-linecap="round" stroke="#4d824b" points="168,256 173,252 181,252 187,249 192,241 197,233 209,230 220,225 227,223 234,217 242,219 252,215 263,210 273,209 286,208 300,208 311,207 324,205 344,205 362,202 383,199 398,197 414,193 427,196 435,194 444,194 453,189 463,183 477,181 492,181 509,181 533,179 567,178 595,176 614,171 628,171 642,168 657,165 666,164 684,162 696,156 702,154 710,153 715,152" fill="none" stroke-width="2.8920620580763856" opacity="1" marker-start="url(#key-United-States_0-circle-137)" marker-mid="url(#key-United-States_0-circle-137)" marker-end="url(#key-United-States_0-arrow-137)"></polyline></g><text x="145.93565595278486" y="263.62347523777214" font-size="9" font-family="Arial Narrow, Arial, sans-serif" fill="#333">1970</text><text x="173" y="252" font-size="9" font-family="Arial Narrow, Arial, sans-serif" fill="#333">1971</text><text x="182.4704292441876" y="261.27889504360974" font-size="9" font-family="Arial Narrow, Arial, sans-serif" fill="#333">1972</text><text x="195.53553390593274" y="249.03553390593274" font-size="9" font-family="Arial Narrow, Arial, sans-serif" fill="#333">1974</text><text x="174.60000847997458" y="230.3500052999841" font-size="9" font-family="Arial Narrow, Arial, sans-serif" fill="#333">1975</text><text x="211.71625639078638" y="238.69785078576075" font-size="9" font-family="Arial Narrow, Arial, sans-serif" fill="#333">1976</text><text x="207.02776869422527" y="218.33997664229352" font-size="9" font-family="Arial Narrow, Arial, sans-serif" fill="#333">1978</text><text x="236.48069469178418" y="225.8412157106223" font-size="9" font-family="Arial Narrow, Arial, sans-serif" fill="#333">1979</text><text x="264.96959649289585" y="219.0957251500903" font-size="9" font-family="Arial Narrow, Arial, sans-serif" fill="#333">1982</text><text x="253.46639436051314" y="204.19238026179588" font-size="9" font-family="Arial Narrow, Arial, sans-serif" fill="#333">1983</text><text x="300.1850583025494" y="217.49657416883383" font-size="9" font-family="Arial Narrow, Arial, sans-serif" fill="#333">1985</text><text x="324.62017367294607" y="214.46138938356833" font-size="9" font-family="Arial Narrow, Arial, sans-serif" fill="#333">1987</text><text x="325.53752469799053" y="200.00915751684406" font-size="9" font-family="Arial Narrow, Arial, sans-serif" fill="#333">1988</text><text x="362.39351242710006" y="211.48449074326734" font-size="9" font-family="Arial Narrow, Arial, sans-serif" fill="#333">1989</text><text x="383.7602859212697" y="208.44185848825308" font-size="9" font-family="Arial Narrow, Arial, sans-serif" fill="#333">1990</text><text x="394.8898904671707" y="188.09110074704859" font-size="9" font-family="Arial Narrow, Arial, sans-serif" fill="#333">1992</text><text x="427.1723113791989" y="205.49702999676794" font-size="9" font-family="Arial Narrow, Arial, sans-serif" fill="#333">1993</text><text x="454.3382193189305" y="198.3175895481497" font-size="9" font-family="Arial Narrow, Arial, sans-serif" fill="#333">1996</text><text x="457.2588611699158" y="176.25658350974743" font-size="9" font-family="Arial Narrow, Arial, sans-serif" fill="#333">1998</text><text x="509" y="190.5" font-size="9" font-family="Arial Narrow, Arial, sans-serif" fill="#333">2000</text><text x="514.596387231433" y="174.00593824437553" font-size="9" font-family="Arial Narrow, Arial, sans-serif" fill="#333">2001</text><text x="567.2582754271402" y="187.49332492471055" font-size="9" font-family="Arial Narrow, Arial, sans-serif" fill="#333">2002</text><text x="595.2416527571166" y="185.49415698041" font-size="9" font-family="Arial Narrow, Arial, sans-serif" fill="#333">2003</text><text x="609.0909731028601" y="166.05642247887616" font-size="9" font-family="Arial Narrow, Arial, sans-serif" fill="#333">2005</text><text x="642.5326656181713" y="177.47154576959903" font-size="9" font-family="Arial Narrow, Arial, sans-serif" fill="#333">2006</text><text x="637.8269719798203" y="160.1036979024645" font-size="9" font-family="Arial Narrow, Arial, sans-serif" fill="#333">2007</text><text x="666.8219949365268" y="173.43196961916072" font-size="9" font-family="Arial Narrow, Arial, sans-serif" fill="#333">2008</text><text x="683.8706923302673" y="163.0690577431013" font-size="9" font-family="Arial Narrow, Arial, sans-serif" fill="#333">2011</text><text x="617.9959033784546" y="151.01941932430907" font-size="16.900000000000002" font-family="Arial Narrow, Arial, sans-serif" fill="#333">United States</text></g><g style="cursor: pointer;" class="ScatterColorLegend clickable"><g fill="#ccc" class="legendMark"><rect x="735" y="91.4" width="35.57" height="17.6" fill="#fff" opacity="0"></rect>,<rect x="735" y="96.9" width="6" height="6"></rect>,<text font-size="12.60" x="746.0" y="104.0"><tspan x="746" y="103.98">Asia</tspan></text></g><g fill="#ccc" class="legendMark"><rect x="735" y="109" width="51.824" height="17.6" fill="#fff" opacity="0"></rect>,<rect x="735" y="114.5" width="6" height="6"></rect>,<text font-size="12.60" x="746.0" y="121.6"><tspan x="746" y="121.58">Europe</tspan></text></g><g class="legendMark"><rect x="735" y="126.60000000000002" width="91.64" height="17.6" fill="#fff" opacity="0"></rect>,<rect x="735" y="132.10000000000002" width="6" height="6" fill="#4d824b"></rect>,<text font-size="12.60" x="746.0" y="139.2"><tspan x="746" y="139.18">North America</tspan></text></g><g fill="#ccc" class="legendMark"><rect x="735" y="144.20000000000002" width="58.124" height="17.6" fill="#fff" opacity="0"></rect>,<rect x="735" y="149.70000000000002" width="6" height="6"></rect>,<text font-size="12.60" x="746.0" y="156.8"><tspan x="746" y="156.78">Oceania</tspan></text></g><g fill="#ccc" class="legendMark"><rect x="735" y="161.8" width="93.908" height="17.6" fill="#fff" opacity="0"></rect>,<rect x="735" y="167.3" width="6" height="6"></rect>,<text font-size="12.60" x="746.0" y="174.4"><tspan x="746" y="174.38">South America</tspan></text></g></g><line x1="735" y1="183.9" x2="830" y2="183.9" stroke="#ccc"></line><g class="clickable"><g class="ConnectedScatterLegend"><rect x="735" y="192.9" width="100" height="12.6" fill="#fff" opacity="0"></rect><text font-size="12.60" x="735.0" y="203.0" fill="#333"><tspan x="735" y="202.98">1970</tspan></text><text font-size="12.60" x="806.8" y="203.0" fill="#333"><tspan x="806.776" y="202.98">2013</tspan></text><line x1="768.224" y1="198.70000000000002" x2="801.776" y2="198.70000000000002" stroke="#666" stroke-width="1"></line><circle cx="768.224" cy="198.70000000000002" r="2" fill="#666" stroke="#ccc" stroke-width="0.2"></circle><circle cx="779.408" cy="198.70000000000002" r="2" fill="#666" stroke="#ccc" stroke-width="0.2"></circle><circle cx="790.592" cy="198.70000000000002" r="2" fill="#666" stroke="#ccc" stroke-width="0.2"></circle><polygon points="798.776,203.70000000000002 801.776,195.70000000000002 804.776,201.70000000000002" cx="801.776" cy="198.70000000000002" r="3" fill="#666" stroke="#ccc" stroke-width="0.2" transform="rotate(90, 801.776, 198.70000000000002)"></polygon></g></g><g class="scatterTooltip"><text font-size="13.50" x="735.0" y="226.3"><tspan x="735" y="226.3">United States</tspan></text><text font-size="11.70" x="735.0" y="243.4"><tspan x="735" y="243.35999999999999">1970</tspan></text><text font-size="9.90" x="735.0" y="253.6"><tspan x="735" y="253.62">Y Axis: 70.81 years</tspan></text><text font-size="9.90" x="735.0" y="263.5"><tspan x="735" y="263.52">X Axis: 1,452.59 2010</tspan><tspan x="735" y="274.40999999999997">int-$</tspan></text><text font-size="11.70" x="735.0" y="290.9"><tspan x="735" y="290.86">2013</tspan></text><text font-size="9.90" x="735.0" y="301.1"><tspan x="735" y="301.11999999999995">Y Axis: 78.84 years</tspan></text><text font-size="9.90" x="735.0" y="311.0"><tspan x="735" y="311.02">X Axis: 8,157.42 2010</tspan><tspan x="735" y="321.90999999999997">int-$</tspan></text></g></g><g style="fill: #777;" class="SourcesFooter"><g style="fill: #777;" class="clickable"><text font-size="12.60" x="15.0" y="567.0"><tspan x="15" y="566.98">Source: Health Expenditure and Financing - OECDstat (2017), Life Expectancy at birth - World Bank (2015)</tspan></text></g><text font-size="12.60" x="15.0" y="582.5"><tspan x="15" y="582.48"><a target='_blank' style='fill: #777;' href='https://ourworldindata.org/the-link-between-life-expectancy-and-health-spending-us-focus'>OurWorldInData.org/the-link-between-life-expectancy-and-health-spending-us-focus</a> • <a style="fill: #777;" href="http://creativecommons.org/licenses/by-sa/4.0/deed.en_US" target="_blank">CC BY-SA</a></tspan></text></g></g></svg>