<svg xmlns="http://www.w3.org/2000/svg" version="1.1" style="font-family: 'Helvetica Neue', Helvetica, Arial, sans-serif; font-size: 18px; background-color: white; text-rendering: optimizeLegibility; -webkit-font-smoothing: antialiased;" width="850" height="600"><g class="ChartTab"><g class="HeaderView"><g opacity="0.8" transform="translate(778, 15) scale(0.27)"><a xmlns:xlink="http://www.w3.org/1999/xlink" xlink:href="https://ourworldindata.org" target="_blank"><g><rect x="0" y="0" fill="#1B2543" width="211.2" height="130.1"/><rect x="0" y="112.2" fill="#E63912" width="211.2" height="17.9"/><g><rect x="1.2" y="12.3" fill="none" width="210.2" height="99.2"/><path fill="#FFFFFF" d="M37.8,32.2c0,12.7-7.7,19.4-17.1,19.4c-9.7,0-16.6-7.5-16.6-18.7c0-11.7,7.3-19.3,17.1-19.3 C31.3,13.7,37.8,21.3,37.8,32.2z M9.2,32.8c0,7.9,4.3,14.9,11.8,14.9c7.5,0,11.8-6.9,11.8-15.3c0-7.3-3.8-14.9-11.8-14.9 C13.1,17.5,9.2,24.8,9.2,32.8z"/><path fill="#FFFFFF" d="M62.7,43.8c0,2.7,0.1,5.1,0.2,7.2h-4.3l-0.3-4.3h-0.1c-1.3,2.1-4,4.9-8.8,4.9c-4.2,0-9.1-2.3-9.1-11.6 V24.6h4.8v14.6c0,5,1.5,8.4,5.9,8.4c3.2,0,5.5-2.2,6.3-4.4c0.3-0.7,0.4-1.6,0.4-2.5V24.6h4.8V43.8z"/><path fill="#FFFFFF" d="M67.3,32.8c0-3.1-0.1-5.8-0.2-8.2h4.2l0.2,5.2h0.2c1.2-3.5,4.1-5.8,7.3-5.8c0.5,0,0.9,0.1,1.4,0.2v4.5 c-0.5-0.1-1-0.2-1.6-0.2c-3.4,0-5.8,2.6-6.5,6.2c-0.1,0.7-0.2,1.4-0.2,2.2V51h-4.8V32.8z"/><path fill="#FFFFFF" d="M95.4,51l-9.4-36.8h5l4.4,18.6c1.1,4.6,2.1,9.2,2.7,12.7h0.1c0.6-3.7,1.8-8,3-12.8l4.9-18.5h5l4.5,18.7 c1,4.4,2,8.7,2.6,12.6h0.1c0.8-4,1.8-8.1,3-12.7l4.9-18.5h4.9L120.6,51h-5L111,31.9c-1.1-4.7-1.9-8.3-2.4-12h-0.1 c-0.7,3.7-1.5,7.3-2.8,12L100.4,51H95.4z"/><path fill="#FFFFFF" d="M154.9,37.6c0,9.8-6.8,14-13.2,14c-7.2,0-12.7-5.2-12.7-13.6c0-8.8,5.8-14,13.1-14 C149.8,24,154.9,29.5,154.9,37.6z M133.9,37.9c0,5.8,3.3,10.1,8,10.1c4.6,0,8-4.3,8-10.3c0-4.5-2.2-10.1-7.9-10.1 C136.3,27.6,133.9,32.8,133.9,37.9z"/><path fill="#FFFFFF" d="M158.2,32.8c0-3.1-0.1-5.8-0.2-8.2h4.2l0.2,5.2h0.2c1.2-3.5,4.1-5.8,7.3-5.8c0.5,0,0.9,0.1,1.4,0.2v4.5 c-0.5-0.1-1-0.2-1.6-0.2c-3.4,0-5.8,2.6-6.5,6.2c-0.1,0.7-0.2,1.4-0.2,2.2V51h-4.8V32.8z"/><path fill="#FFFFFF" d="M173.5,12.3h4.8V51h-4.8V12.3z"/><path fill="#FFFFFF" d="M206.5,12.3v31.9c0,2.3,0.1,5,0.2,6.8h-4.3l-0.2-4.6H202c-1.5,2.9-4.7,5.2-9,5.2 c-6.4,0-11.3-5.4-11.3-13.4c-0.1-8.8,5.4-14.2,11.9-14.2c4,0,6.8,1.9,8,4h0.1V12.3H206.5z M201.7,35.4c0-0.6-0.1-1.4-0.2-2 c-0.7-3.1-3.3-5.6-6.9-5.6c-5,0-7.9,4.4-7.9,10.2c0,5.3,2.6,9.8,7.8,9.8c3.2,0,6.2-2.1,7.1-5.7c0.2-0.7,0.2-1.3,0.2-2.1V35.4z"/><path fill="#FFFFFF" d="M42.8,64c0.1,1.6-1.1,2.9-3.1,2.9c-1.7,0-2.9-1.3-2.9-2.9c0-1.7,1.3-3,3-3C41.7,61,42.8,62.3,42.8,64z M37.4,97.8V71.4h4.8v26.4H37.4z"/><path fill="#FFFFFF" d="M47.5,78.6c0-2.7-0.1-5-0.2-7.1h4.3l0.3,4.4h0.1c1.3-2.5,4.4-5,8.8-5c3.7,0,9.4,2.2,9.4,11.2v15.8h-4.8 V82.6c0-4.3-1.6-7.8-6.1-7.8c-3.2,0-5.6,2.2-6.5,4.9c-0.2,0.6-0.3,1.4-0.3,2.2v15.9h-4.8V78.6z"/><path fill="#FFFFFF" d="M84,61.6c2.9-0.4,6.3-0.8,10.1-0.8c6.8,0,11.7,1.6,14.9,4.6c3.3,3,5.2,7.3,5.2,13.2c0,6-1.9,10.9-5.3,14.3 c-3.4,3.4-9.1,5.3-16.3,5.3c-3.4,0-6.2-0.2-8.6-0.4V61.6z M88.8,94.1c1.2,0.2,3,0.3,4.8,0.3c10.2,0,15.7-5.7,15.7-15.6 c0.1-8.7-4.9-14.2-14.9-14.2c-2.5,0-4.3,0.2-5.6,0.5V94.1z"/><path fill="#FFFFFF" d="M132.1,97.8l-0.4-3.3h-0.2c-1.5,2.1-4.3,3.9-8.1,3.9c-5.4,0-8.1-3.8-8.1-7.6c0-6.4,5.7-9.9,15.9-9.8v-0.5 c0-2.2-0.6-6.1-6-6.1c-2.5,0-5,0.8-6.9,2l-1.1-3.2c2.2-1.4,5.4-2.3,8.7-2.3c8.1,0,10.1,5.5,10.1,10.8v9.9c0,2.3,0.1,4.5,0.4,6.3 H132.1z M131.4,84.4c-5.3-0.1-11.2,0.8-11.2,5.9c0,3.1,2.1,4.6,4.5,4.6c3.4,0,5.6-2.2,6.4-4.4c0.2-0.5,0.3-1,0.3-1.5V84.4z"/><path fill="#FFFFFF" d="M146.6,63.9v7.6h6.9v3.7h-6.9v14.2c0,3.3,0.9,5.1,3.6,5.1c1.3,0,2.2-0.2,2.8-0.3l0.2,3.6 c-0.9,0.4-2.4,0.7-4.3,0.7c-2.2,0-4-0.7-5.2-2c-1.4-1.4-1.9-3.8-1.9-6.9V75.1h-4.1v-3.7h4.1v-6.3L146.6,63.9z"/><path fill="#FFFFFF" d="M171.4,97.8l-0.4-3.3h-0.2c-1.5,2.1-4.3,3.9-8.1,3.9c-5.4,0-8.1-3.8-8.1-7.6c0-6.4,5.7-9.9,15.9-9.8v-0.5 c0-2.2-0.6-6.1-6-6.1c-2.5,0-5,0.8-6.9,2l-1.1-3.2c2.2-1.4,5.4-2.3,8.7-2.3c8.1,0,10.1,5.5,10.1,10.8v9.9c0,2.3,0.1,4.5,0.4,6.3 H171.4z M170.7,84.4c-5.3-0.1-11.2,0.8-11.2,5.9c0,3.1,2.1,4.6,4.5,4.6c3.4,0,5.6-2.2,6.4-4.4c0.2-0.5,0.3-1,0.3-1.5V84.4z"/></g></g></a></g><a href="https://ourworldindata.org/grapher/life-expectation-age-45-by-sex" target="_blank"><text font-size="25.20" x="15.0" y="35.2" fill="#555"><tspan x="15" y="35.160000000000004">Life expectation age 45, by sex, United States</tspan></text></a><text font-size="14.40" x="15.0" y="53.7" fill="#666"><tspan x="15" y="53.72">Life expectation at birth for those currently aged 45, by sex, for the United States. For example in 1790, a 45 year old</tspan><tspan x="15" y="69.56">female could expect to live until the age of 69.</tspan></text></g><g class="LineChart"><defs><clipPath id="boundsClip-1"><rect x="28.144000000000005" y="0" width="830" height="928.8"></rect></clipPath></defs><g class="AxisBoxView"><g class="HorizontalAxis"><text x="38.1" y="556.5" fill="#666" text-anchor="middle" font-size="16.2">1790</text><text x="228.3" y="556.5" fill="#666" text-anchor="middle" font-size="16.2">1850</text><text x="386.8" y="556.5" fill="#666" text-anchor="middle" font-size="16.2">1900</text><text x="545.3" y="556.5" fill="#666" text-anchor="middle" font-size="16.2">1950</text><text x="703.8" y="556.5" fill="#666" text-anchor="middle" font-size="16.2">2000</text><text x="748.2" y="556.5" fill="#666" text-anchor="middle" font-size="16.2">2014</text></g><g class="VerticalAxis"><text x="33.14" y="535.3" fill="#666" dominant-baseline="middle" text-anchor="end" font-size="16.2">30</text><text x="33.14" y="451.4" fill="#666" dominant-baseline="middle" text-anchor="end" font-size="16.2">40</text><text x="33.14" y="367.5" fill="#666" dominant-baseline="middle" text-anchor="end" font-size="16.2">50</text><text x="33.14" y="283.5" fill="#666" dominant-baseline="middle" text-anchor="end" font-size="16.2">60</text><text x="33.14" y="199.6" fill="#666" dominant-baseline="middle" text-anchor="end" font-size="16.2">70</text><text x="33.14" y="115.7" fill="#666" dominant-baseline="middle" text-anchor="end" font-size="16.2">80</text></g><g class="AxisGridLines"><line x1="38.14" y1="535.3" x2="748.16" y2="535.3" stroke="#ddd" stroke-dasharray="3,2"></line><line x1="38.14" y1="451.4" x2="748.16" y2="451.4" stroke="#ddd" stroke-dasharray="3,2"></line><line x1="38.14" y1="367.5" x2="748.16" y2="367.5" stroke="#ddd" stroke-dasharray="3,2"></line><line x1="38.14" y1="283.5" x2="748.16" y2="283.5" stroke="#ddd" stroke-dasharray="3,2"></line><line x1="38.14" y1="199.6" x2="748.16" y2="199.6" stroke="#ddd" stroke-dasharray="3,2"></line><line x1="38.14" y1="115.7" x2="748.16" y2="115.7" stroke="#ddd" stroke-dasharray="3,2"></line></g></g><g clip-path="url(#boundsClip-1)"><g class="HeightedLegend clickable"><g class="legendMark"><rect x="748.16" y="85.35" width="86.84" height="13.5" fill="#fff" opacity="0"></rect><text font-size="13.50" x="753.2" y="96.1" fill="#ca2628"><tspan x="753.16" y="96.14999999999999">Females</tspan></text></g><g class="legendMark"><rect x="748.16" y="116.95" width="71.045" height="13.5" fill="#fff" opacity="0"></rect><text font-size="13.50" x="753.2" y="127.7" fill="#3360a9"><tspan x="753.16" y="127.74999999999999">Males</tspan></text></g></g><g class="Lines"><rect x="38" y="92" width="710" height="443" fill="rgba(255,255,255,0)" opacity="0"></rect><g class="key-United-States_0"><path stroke="#ca2628" stroke-linecap="round" d="M38 205L70 209L102 211L133 211L165 211L197 213L228 216L260 212L292 207L323 200L355 194L387 199L390 199L393 191L396 196L400 199L403 197L406 194L409 198L412 192L415 190L419 193L422 192L425 191L428 190L431 189L434 192L438 193L441 193L444 194L447 185L450 189L453 183L457 187L460 189L463 185L466 186L469 189L472 184L476 188L479 187L482 183L485 181L488 181L491 178L495 179L498 178L501 181L504 178L507 173L510 173L514 172L517 168L520 165L523 168L526 163L529 161L533 158L536 158L539 155L542 153L545 151L549 150L552 148L555 147L558 143L561 143L564 142L568 143L571 142L574 140L577 140L580 138L583 138L587 139L590 136L593 136L596 136L599 133L602 134L606 131L609 130L612 129L615 128L618 127L621 123L625 120L628 119L631 116L634 116L637 113L640 115L644 113L647 111L650 112L653 112L656 112L659 111L663 112L666 111L669 109L672 107L675 106L678 105L682 107L685 106L688 106L691 106L694 105L697 105L701 106L704 105L707 105L710 104L713 103L717 101L720 101L723 98L726 97L729 97L732 94L736 94L739 93L742 93L745 93L748 92" fill="none" stroke-width="1.5"></path><g fill="#ca2628"><circle cx="38" cy="205" r="2"></circle><circle cx="70" cy="209" r="2"></circle><circle cx="102" cy="211" r="2"></circle><circle cx="133" cy="211" r="2"></circle><circle cx="165" cy="211" r="2"></circle><circle cx="197" cy="213" r="2"></circle><circle cx="228" cy="216" r="2"></circle><circle cx="260" cy="212" r="2"></circle><circle cx="292" cy="207" r="2"></circle><circle cx="323" cy="200" r="2"></circle><circle cx="355" cy="194" r="2"></circle><circle cx="387" cy="199" r="2"></circle><circle cx="390" cy="199" r="2"></circle><circle cx="393" cy="191" r="2"></circle><circle cx="396" cy="196" r="2"></circle><circle cx="400" cy="199" r="2"></circle><circle cx="403" cy="197" r="2"></circle><circle cx="406" cy="194" r="2"></circle><circle cx="409" cy="198" r="2"></circle><circle cx="412" cy="192" r="2"></circle><circle cx="415" cy="190" r="2"></circle><circle cx="419" cy="193" r="2"></circle><circle cx="422" cy="192" r="2"></circle><circle cx="425" cy="191" r="2"></circle><circle cx="428" cy="190" r="2"></circle><circle cx="431" cy="189" r="2"></circle><circle cx="434" cy="192" r="2"></circle><circle cx="438" cy="193" r="2"></circle><circle cx="441" cy="193" r="2"></circle><circle cx="444" cy="194" r="2"></circle><circle cx="447" cy="185" r="2"></circle><circle cx="450" cy="189" r="2"></circle><circle cx="453" cy="183" r="2"></circle><circle cx="457" cy="187" r="2"></circle><circle cx="460" cy="189" r="2"></circle><circle cx="463" cy="185" r="2"></circle><circle cx="466" cy="186" r="2"></circle><circle cx="469" cy="189" r="2"></circle><circle cx="472" cy="184" r="2"></circle><circle cx="476" cy="188" r="2"></circle><circle cx="479" cy="187" r="2"></circle><circle cx="482" cy="183" r="2"></circle><circle cx="485" cy="181" r="2"></circle><circle cx="488" cy="181" r="2"></circle><circle cx="491" cy="178" r="2"></circle><circle cx="495" cy="179" r="2"></circle><circle cx="498" cy="178" r="2"></circle><circle cx="501" cy="181" r="2"></circle><circle cx="504" cy="178" r="2"></circle><circle cx="507" cy="173" r="2"></circle><circle cx="510" cy="173" r="2"></circle><circle cx="514" cy="172" r="2"></circle><circle cx="517" cy="168" r="2"></circle><circle cx="520" cy="165" r="2"></circle><circle cx="523" cy="168" r="2"></circle><circle cx="526" cy="163" r="2"></circle><circle cx="529" cy="161" r="2"></circle><circle cx="533" cy="158" r="2"></circle><circle cx="536" cy="158" r="2"></circle><circle cx="539" cy="155" r="2"></circle><circle cx="542" cy="153" r="2"></circle><circle cx="545" cy="151" r="2"></circle><circle cx="549" cy="150" r="2"></circle><circle cx="552" cy="148" r="2"></circle><circle cx="555" cy="147" r="2"></circle><circle cx="558" cy="143" r="2"></circle><circle cx="561" cy="143" r="2"></circle><circle cx="564" cy="142" r="2"></circle><circle cx="568" cy="143" r="2"></circle><circle cx="571" cy="142" r="2"></circle><circle cx="574" cy="140" r="2"></circle><circle cx="577" cy="140" r="2"></circle><circle cx="580" cy="138" r="2"></circle><circle cx="583" cy="138" r="2"></circle><circle cx="587" cy="139" r="2"></circle><circle cx="590" cy="136" r="2"></circle><circle cx="593" cy="136" r="2"></circle><circle cx="596" cy="136" r="2"></circle><circle cx="599" cy="133" r="2"></circle><circle cx="602" cy="134" r="2"></circle><circle cx="606" cy="131" r="2"></circle><circle cx="609" cy="130" r="2"></circle><circle cx="612" cy="129" r="2"></circle><circle cx="615" cy="128" r="2"></circle><circle cx="618" cy="127" r="2"></circle><circle cx="621" cy="123" r="2"></circle><circle cx="625" cy="120" r="2"></circle><circle cx="628" cy="119" r="2"></circle><circle cx="631" cy="116" r="2"></circle><circle cx="634" cy="116" r="2"></circle><circle cx="637" cy="113" r="2"></circle><circle cx="640" cy="115" r="2"></circle><circle cx="644" cy="113" r="2"></circle><circle cx="647" cy="111" r="2"></circle><circle cx="650" cy="112" r="2"></circle><circle cx="653" cy="112" r="2"></circle><circle cx="656" cy="112" r="2"></circle><circle cx="659" cy="111" r="2"></circle><circle cx="663" cy="112" r="2"></circle><circle cx="666" cy="111" r="2"></circle><circle cx="669" cy="109" r="2"></circle><circle cx="672" cy="107" r="2"></circle><circle cx="675" cy="106" r="2"></circle><circle cx="678" cy="105" r="2"></circle><circle cx="682" cy="107" r="2"></circle><circle cx="685" cy="106" r="2"></circle><circle cx="688" cy="106" r="2"></circle><circle cx="691" cy="106" r="2"></circle><circle cx="694" cy="105" r="2"></circle><circle cx="697" cy="105" r="2"></circle><circle cx="701" cy="106" r="2"></circle><circle cx="704" cy="105" r="2"></circle><circle cx="707" cy="105" r="2"></circle><circle cx="710" cy="104" r="2"></circle><circle cx="713" cy="103" r="2"></circle><circle cx="717" cy="101" r="2"></circle><circle cx="720" cy="101" r="2"></circle><circle cx="723" cy="98" r="2"></circle><circle cx="726" cy="97" r="2"></circle><circle cx="729" cy="97" r="2"></circle><circle cx="732" cy="94" r="2"></circle><circle cx="736" cy="94" r="2"></circle><circle cx="739" cy="93" r="2"></circle><circle cx="742" cy="93" r="2"></circle><circle cx="745" cy="93" r="2"></circle><circle cx="748" cy="92" r="2"></circle></g></g><g class="key-United-States_1"><path stroke="#3360a9" stroke-linecap="round" d="M38 207L70 212L102 215L133 215L165 214L197 216L228 220L260 217L292 210L323 205L355 201L387 208L390 210L393 205L396 208L400 213L403 209L406 209L409 214L412 205L415 204L419 207L422 206L425 206L428 206L431 204L434 205L438 208L441 209L444 208L447 194L450 196L453 191L457 197L460 200L463 198L466 199L469 203L472 198L476 204L479 203L482 200L485 198L488 198L491 197L495 199L498 198L501 203L504 201L507 195L510 195L514 197L517 194L520 193L523 195L526 191L529 190L533 187L536 189L539 188L542 187L545 186L549 186L552 185L555 185L558 181L561 181L564 182L568 184L571 183L574 182L577 183L580 181L583 182L587 184L590 182L593 183L596 183L599 182L602 184L606 182L609 181L612 180L615 180L618 178L621 175L625 172L628 171L631 169L634 168L637 165L640 166L644 163L647 161L650 161L653 160L656 160L659 158L663 158L666 157L669 154L672 152L675 151L678 149L682 150L685 149L688 148L691 146L694 144L697 143L701 143L704 141L707 140L710 139L713 137L717 134L720 134L723 131L726 129L729 129L732 127L736 126L739 125L742 124L745 124L748 124" fill="none" stroke-width="1.5"></path><g fill="#3360a9"><circle cx="38" cy="207" r="2"></circle><circle cx="70" cy="212" r="2"></circle><circle cx="102" cy="215" r="2"></circle><circle cx="133" cy="215" r="2"></circle><circle cx="165" cy="214" r="2"></circle><circle cx="197" cy="216" r="2"></circle><circle cx="228" cy="220" r="2"></circle><circle cx="260" cy="217" r="2"></circle><circle cx="292" cy="210" r="2"></circle><circle cx="323" cy="205" r="2"></circle><circle cx="355" cy="201" r="2"></circle><circle cx="387" cy="208" r="2"></circle><circle cx="390" cy="210" r="2"></circle><circle cx="393" cy="205" r="2"></circle><circle cx="396" cy="208" r="2"></circle><circle cx="400" cy="213" r="2"></circle><circle cx="403" cy="209" r="2"></circle><circle cx="406" cy="209" r="2"></circle><circle cx="409" cy="214" r="2"></circle><circle cx="412" cy="205" r="2"></circle><circle cx="415" cy="204" r="2"></circle><circle cx="419" cy="207" r="2"></circle><circle cx="422" cy="206" r="2"></circle><circle cx="425" cy="206" r="2"></circle><circle cx="428" cy="206" r="2"></circle><circle cx="431" cy="204" r="2"></circle><circle cx="434" cy="205" r="2"></circle><circle cx="438" cy="208" r="2"></circle><circle cx="441" cy="209" r="2"></circle><circle cx="444" cy="208" r="2"></circle><circle cx="447" cy="194" r="2"></circle><circle cx="450" cy="196" r="2"></circle><circle cx="453" cy="191" r="2"></circle><circle cx="457" cy="197" r="2"></circle><circle cx="460" cy="200" r="2"></circle><circle cx="463" cy="198" r="2"></circle><circle cx="466" cy="199" r="2"></circle><circle cx="469" cy="203" r="2"></circle><circle cx="472" cy="198" r="2"></circle><circle cx="476" cy="204" r="2"></circle><circle cx="479" cy="203" r="2"></circle><circle cx="482" cy="200" r="2"></circle><circle cx="485" cy="198" r="2"></circle><circle cx="488" cy="198" r="2"></circle><circle cx="491" cy="197" r="2"></circle><circle cx="495" cy="199" r="2"></circle><circle cx="498" cy="198" r="2"></circle><circle cx="501" cy="203" r="2"></circle><circle cx="504" cy="201" r="2"></circle><circle cx="507" cy="195" r="2"></circle><circle cx="510" cy="195" r="2"></circle><circle cx="514" cy="197" r="2"></circle><circle cx="517" cy="194" r="2"></circle><circle cx="520" cy="193" r="2"></circle><circle cx="523" cy="195" r="2"></circle><circle cx="526" cy="191" r="2"></circle><circle cx="529" cy="190" r="2"></circle><circle cx="533" cy="187" r="2"></circle><circle cx="536" cy="189" r="2"></circle><circle cx="539" cy="188" r="2"></circle><circle cx="542" cy="187" r="2"></circle><circle cx="545" cy="186" r="2"></circle><circle cx="549" cy="186" r="2"></circle><circle cx="552" cy="185" r="2"></circle><circle cx="555" cy="185" r="2"></circle><circle cx="558" cy="181" r="2"></circle><circle cx="561" cy="181" r="2"></circle><circle cx="564" cy="182" r="2"></circle><circle cx="568" cy="184" r="2"></circle><circle cx="571" cy="183" r="2"></circle><circle cx="574" cy="182" r="2"></circle><circle cx="577" cy="183" r="2"></circle><circle cx="580" cy="181" r="2"></circle><circle cx="583" cy="182" r="2"></circle><circle cx="587" cy="184" r="2"></circle><circle cx="590" cy="182" r="2"></circle><circle cx="593" cy="183" r="2"></circle><circle cx="596" cy="183" r="2"></circle><circle cx="599" cy="182" r="2"></circle><circle cx="602" cy="184" r="2"></circle><circle cx="606" cy="182" r="2"></circle><circle cx="609" cy="181" r="2"></circle><circle cx="612" cy="180" r="2"></circle><circle cx="615" cy="180" r="2"></circle><circle cx="618" cy="178" r="2"></circle><circle cx="621" cy="175" r="2"></circle><circle cx="625" cy="172" r="2"></circle><circle cx="628" cy="171" r="2"></circle><circle cx="631" cy="169" r="2"></circle><circle cx="634" cy="168" r="2"></circle><circle cx="637" cy="165" r="2"></circle><circle cx="640" cy="166" r="2"></circle><circle cx="644" cy="163" r="2"></circle><circle cx="647" cy="161" r="2"></circle><circle cx="650" cy="161" r="2"></circle><circle cx="653" cy="160" r="2"></circle><circle cx="656" cy="160" r="2"></circle><circle cx="659" cy="158" r="2"></circle><circle cx="663" cy="158" r="2"></circle><circle cx="666" cy="157" r="2"></circle><circle cx="669" cy="154" r="2"></circle><circle cx="672" cy="152" r="2"></circle><circle cx="675" cy="151" r="2"></circle><circle cx="678" cy="149" r="2"></circle><circle cx="682" cy="150" r="2"></circle><circle cx="685" cy="149" r="2"></circle><circle cx="688" cy="148" r="2"></circle><circle cx="691" cy="146" r="2"></circle><circle cx="694" cy="144" r="2"></circle><circle cx="697" cy="143" r="2"></circle><circle cx="701" cy="143" r="2"></circle><circle cx="704" cy="141" r="2"></circle><circle cx="707" cy="140" r="2"></circle><circle cx="710" cy="139" r="2"></circle><circle cx="713" cy="137" r="2"></circle><circle cx="717" cy="134" r="2"></circle><circle cx="720" cy="134" r="2"></circle><circle cx="723" cy="131" r="2"></circle><circle cx="726" cy="129" r="2"></circle><circle cx="729" cy="129" r="2"></circle><circle cx="732" cy="127" r="2"></circle><circle cx="736" cy="126" r="2"></circle><circle cx="739" cy="125" r="2"></circle><circle cx="742" cy="124" r="2"></circle><circle cx="745" cy="124" r="2"></circle><circle cx="748" cy="124" r="2"></circle></g></g></g></g></g><g style="fill: #777;" class="SourcesFooter"><g style="fill: #777;" class="clickable"><text font-size="12.60" x="15.0" y="581.6"><tspan x="15" y="581.58">Source: OWID based on Hacker (2010) and the US Social Security Administration (2017)</tspan></text></g><text font-size="12.60" x="775.4" y="581.6"><tspan x="775.402" y="581.58"><a style="fill: #777;" class="cclogo" href="http://creativecommons.org/licenses/by-sa/4.0/deed.en_US" target="_blank">CC BY-SA</a></tspan></text></g></g></svg>