<svg xmlns="http://www.w3.org/2000/svg" version="1.1" style="font-family: 'Helvetica Neue', Helvetica, Arial, sans-serif; font-size: 24px; background-color: white;" width="1200" height="630"><g class="ChartTab"><g class="LineChart"><defs><clipPath id="boundsClip-569"><rect x="46.288000000000004" y="0" width="1180" height="1130"></rect></clipPath></defs><g class="AxisBoxView"><g class="HorizontalAxis"><text x="56.3" y="600" fill="#666" text-anchor="middle" font-size="21.6">1850</text><text x="118.9" y="600" fill="#666" text-anchor="middle" font-size="21.6">1860</text><text x="244.1" y="600" fill="#666" text-anchor="middle" font-size="21.6">1880</text><text x="369.3" y="600" fill="#666" text-anchor="middle" font-size="21.6">1900</text><text x="494.5" y="600" fill="#666" text-anchor="middle" font-size="21.6">1920</text><text x="619.7" y="600" fill="#666" text-anchor="middle" font-size="21.6">1940</text><text x="744.9" y="600" fill="#666" text-anchor="middle" font-size="21.6">1960</text><text x="870.1" y="600" fill="#666" text-anchor="middle" font-size="21.6">1980</text><text x="995.3" y="600" fill="#666" text-anchor="middle" font-size="21.6">2000</text><text x="1089.2" y="600" fill="#666" text-anchor="middle" font-size="21.6">2015</text></g><g class="VerticalAxis"><text x="51.29" y="573.4" fill="#666" dominant-baseline="middle" text-anchor="end" font-size="21.6">0</text><text x="51.29" y="464.1" fill="#666" dominant-baseline="middle" text-anchor="end" font-size="21.6">100</text><text x="51.29" y="354.8" fill="#666" dominant-baseline="middle" text-anchor="end" font-size="21.6">200</text><text x="51.29" y="245.5" fill="#666" dominant-baseline="middle" text-anchor="end" font-size="21.6">300</text><text x="51.29" y="136.2" fill="#666" dominant-baseline="middle" text-anchor="end" font-size="21.6">400</text></g><g class="AxisGridLines"><line x1="56.29" y1="573.4" x2="1089.15" y2="573.4" stroke="#ccc"></line><line x1="56.29" y1="464.1" x2="1089.15" y2="464.1" stroke="#ddd" stroke-dasharray="3,2"></line><line x1="56.29" y1="354.8" x2="1089.15" y2="354.8" stroke="#ddd" stroke-dasharray="3,2"></line><line x1="56.29" y1="245.5" x2="1089.15" y2="245.5" stroke="#ddd" stroke-dasharray="3,2"></line><line x1="56.29" y1="136.2" x2="1089.15" y2="136.2" stroke="#ddd" stroke-dasharray="3,2"></line></g><g class="AxisGridLines"><line x1="118.9" y1="573.40" x2="118.9" y2="35.00" stroke="#ddd" stroke-dasharray="3,2"></line><line x1="244.1" y1="573.40" x2="244.1" y2="35.00" stroke="#ddd" stroke-dasharray="3,2"></line><line x1="369.3" y1="573.40" x2="369.3" y2="35.00" stroke="#ddd" stroke-dasharray="3,2"></line><line x1="494.5" y1="573.40" x2="494.5" y2="35.00" stroke="#ddd" stroke-dasharray="3,2"></line><line x1="619.7" y1="573.40" x2="619.7" y2="35.00" stroke="#ddd" stroke-dasharray="3,2"></line><line x1="744.9" y1="573.40" x2="744.9" y2="35.00" stroke="#ddd" stroke-dasharray="3,2"></line><line x1="870.1" y1="573.40" x2="870.1" y2="35.00" stroke="#ddd" stroke-dasharray="3,2"></line><line x1="995.3" y1="573.40" x2="995.3" y2="35.00" stroke="#ddd" stroke-dasharray="3,2"></line></g></g><g clip-path="url(#boundsClip-569)"><g class="HeightedLegend clickable"><g class="legendMark"><rect x="1099.152" y="548.8" width="54.55200000000001" height="19.200000000000003" fill="#fff" opacity="0"></rect><rect x="1099.152" y="557.15" width="10" height="2.5" fill="#3360a9"></rect><text font-size="19.20" x="1114.2" y="564.2" fill="#333"><tspan x="1114.152" y="564.16">Pork</tspan></text></g><g class="legendMark"><rect x="1099.152" y="529.5999999999999" width="66.45600000000002" height="19.200000000000003" fill="#fff" opacity="0"></rect><rect x="1099.152" y="537.9499999999999" width="10" height="2.5" fill="#ca2628"></rect><text font-size="19.20" x="1114.2" y="545.0" fill="#333"><tspan x="1114.152" y="544.9599999999999">Sugar</tspan></text></g><g class="legendMark"><rect x="1099.152" y="510.39999999999986" width="53.400000000000006" height="19.200000000000003" fill="#fff" opacity="0"></rect><rect x="1099.152" y="518.7499999999999" width="10" height="2.5" fill="#34983f"></rect><text font-size="19.20" x="1114.2" y="525.8" fill="#333"><tspan x="1114.152" y="525.7599999999999">Rice</tspan></text></g><g class="legendMark"><rect x="1099.152" y="491.1999999999998" width="70.68" height="19.200000000000003" fill="#fff" opacity="0"></rect><rect x="1099.152" y="499.54999999999984" width="10" height="2.5" fill="#f6a324"></rect><text font-size="19.20" x="1114.2" y="506.6" fill="#333"><tspan x="1114.152" y="506.55999999999983">Wheat</tspan></text></g><g class="legendMark"><rect x="1099.152" y="471.99999999999983" width="83.35200000000002" height="19.200000000000003" fill="#fff" opacity="0"></rect><rect x="1099.152" y="480.34999999999985" width="10" height="2.5" fill="#a652ba"></rect><text font-size="19.20" x="1114.2" y="487.4" fill="#333"><tspan x="1114.152" y="487.35999999999984">Palm oil</tspan></text></g><g class="legendMark"><rect x="1099.152" y="452.79999999999984" width="85.84800000000001" height="19.200000000000003" fill="#fff" opacity="0"></rect><rect x="1099.152" y="461.14999999999986" width="10" height="2.5" fill="#2a939b"></rect><text font-size="19.20" x="1114.2" y="468.2" fill="#333"><tspan x="1114.152" y="468.15999999999985">Peanuts</tspan></text></g><g class="legendMark"><rect x="1099.152" y="433.59999999999985" width="48.21600000000001" height="19.200000000000003" fill="#fff" opacity="0"></rect><rect x="1099.152" y="441.9499999999999" width="10" height="2.5" fill="#e6332e"></rect><text font-size="19.20" x="1114.2" y="449.0" fill="#333"><tspan x="1114.152" y="448.95999999999987">Tea</tspan></text></g><g class="legendMark"><rect x="1099.152" y="414.39999999999986" width="70.68" height="19.200000000000003" fill="#fff" opacity="0"></rect><rect x="1099.152" y="422.7499999999999" width="10" height="2.5" fill="#9ecc8a"></rect><text font-size="19.20" x="1114.2" y="429.8" fill="#333"><tspan x="1114.152" y="429.7599999999999">Cocoa</tspan></text></g><g class="legendMark"><rect x="1099.152" y="395.1999999999999" width="56.66400000000001" height="19.200000000000003" fill="#fff" opacity="0"></rect><rect x="1099.152" y="403.5499999999999" width="10" height="2.5" fill="#ffd53e"></rect><text font-size="19.20" x="1114.2" y="410.6" fill="#333"><tspan x="1114.152" y="410.5599999999999">Corn</tspan></text></g><g class="legendMark"><rect x="1099.152" y="375.9999999999999" width="49.17600000000001" height="19.200000000000003" fill="#fff" opacity="0"></rect><rect x="1099.152" y="384.3499999999999" width="10" height="2.5" fill="#b077b1"></rect><text font-size="19.20" x="1114.2" y="391.4" fill="#333"><tspan x="1114.152" y="391.3599999999999">Rye</tspan></text></g><g class="legendMark"><rect x="1099.152" y="356.7999999999999" width="71.83200000000001" height="19.200000000000003" fill="#fff" opacity="0"></rect><rect x="1099.152" y="365.1499999999999" width="10" height="2.5" fill="#7ec7ce"></rect><text font-size="19.20" x="1114.2" y="372.2" fill="#333"><tspan x="1114.152" y="372.1599999999999">Coffee</tspan></text></g><g class="legendMark"><rect x="1099.152" y="337.5999999999999" width="69.528" height="19.200000000000003" fill="#fff" opacity="0"></rect><rect x="1099.152" y="345.94999999999993" width="10" height="2.5" fill="#e6332e"></rect><text font-size="19.20" x="1114.2" y="353.0" fill="#333"><tspan x="1114.152" y="352.9599999999999">Barley</tspan></text></g><g class="legendMark"><rect x="1099.152" y="318.3999999999999" width="63.19200000000001" height="19.200000000000003" fill="#fff" opacity="0"></rect><rect x="1099.152" y="326.74999999999994" width="10" height="2.5" fill="#6bb537"></rect><text font-size="19.20" x="1114.2" y="333.8" fill="#333"><tspan x="1114.152" y="333.75999999999993">Lamb</tspan></text></g><g class="legendMark"><rect x="1099.152" y="299.19999999999993" width="54.74400000000001" height="19.200000000000003" fill="#fff" opacity="0"></rect><rect x="1099.152" y="307.54999999999995" width="10" height="2.5" fill="#f07f59"></rect><text font-size="19.20" x="1114.2" y="314.6" fill="#333"><tspan x="1114.152" y="314.55999999999995">Beef</tspan></text></g></g><g class="Lines"><rect x="56" y="35" width="1033" height="538" fill="rgba(255,255,255,0)" opacity="0"></rect><g class="key-World_0"><path stroke="#e6332e" stroke-linecap="round" d="M56 365L63 374L69 404L75 362L81 376L88 387L94 389L100 360L106 358L113 334L119 334L125 367L131 369L138 414L144 449L150 443L156 444L163 437L169 428L175 434L182 433L188 429L194 427L200 424L207 414L213 410L219 410L225 410L232 410L238 416L244 433L250 439L257 442L263 440L269 445L275 439L282 440L288 454L294 450L300 448L307 448L313 447L319 454L326 456L332 454L338 451L344 452L351 453L357 456L363 460L369 464L376 470L382 465L388 493L394 478L401 480L407 493L413 498L419 502L426 495L432 496L438 495L444 496L451 496L457 497L463 500L469 506L476 502L482 502L488 514L495 532L501 534L507 514L513 499L520 497L526 499L532 494L538 494L545 503L551 504L557 507L563 519L570 537L576 516L582 499L588 505L595 503L601 495L607 499L613 508L620 507L626 492L632 478L638 492L645 496L651 497L657 507L664 493L670 494L676 488L682 498L689 486L695 502L701 489L707 451L714 457L720 463L726 475L732 475L739 476L745 477L751 485L757 484L764 487L770 490L776 485L782 498L789 504L795 514L801 518L808 514L814 515L820 521L826 524L833 512L839 514L845 515L851 484L858 513L864 516L870 517L876 528L883 529L889 515L895 500L901 528L908 531L914 533L920 536L926 532L933 530L939 539L945 542L951 542L958 545L964 546L970 544L977 538L983 538L989 543L995 543L1002 548L1008 550L1014 550L1020 549L1027 550L1033 548L1039 546L1045 542L1052 538L1058 537L1064 537L1070 538L1077 539L1083 541L1089 542" fill="none" stroke-width="1.5"></path></g><g class="key-World_1"><path stroke="#ca2628" stroke-linecap="round" d="M56 343L63 329L69 359L75 331L81 359L88 332L94 293L100 235L106 285L113 305L119 296L125 337L131 373L138 419L144 427L150 454L156 456L163 437L169 432L175 415L182 408L188 391L194 397L200 405L207 406L213 410L219 399L225 367L232 393L238 400L244 394L250 387L257 394L263 397L269 445L275 442L282 463L288 464L294 452L300 425L307 453L313 451L319 447L326 454L332 458L338 471L344 466L351 478L357 471L363 467L369 464L376 486L382 504L388 501L394 478L401 471L407 497L413 497L419 483L426 484L432 481L438 470L444 486L451 510L457 488L463 467L469 444L476 460L482 485L488 482L495 386L501 519L507 521L513 481L520 503L526 533L532 534L538 526L545 533L551 542L557 550L563 551L570 557L576 550L582 546L588 537L595 534L601 535L607 541L613 539L620 543L626 537L632 525L638 529L645 529L651 522L657 516L664 506L670 518L676 519L682 508L689 505L695 524L701 533L707 535L714 535L720 533L726 516L732 535L739 541L745 540L751 544L757 543L764 484L770 513L776 553L782 555L789 555L795 555L801 545L808 542L814 537L820 516L826 503L833 376L839 449L845 507L851 529L858 534L864 530L870 459L876 512L883 545L889 546L895 557L901 561L908 555L914 554L920 545L926 540L933 542L939 552L945 552L951 551L958 547L964 545L970 548L977 550L983 555L989 561L995 558L1002 557L1008 561L1014 561L1020 561L1027 557L1033 549L1039 557L1045 554L1052 546L1058 541L1064 535L1070 543L1077 548L1083 550L1089 555" fill="none" stroke-width="1.5"></path></g><g class="key-World_2"><path stroke="#2a939b" stroke-linecap="round" d="M182 351L188 331L194 367L200 378L207 321L213 358L219 386L225 407L232 398L238 428L244 429L250 414L257 365L263 340L269 383L275 450L282 435L288 449L294 430L300 384L307 388L313 450L319 463L326 462L332 481L338 468L344 454L351 474L357 470L363 452L369 464L376 472L382 456L388 452L394 420L401 439L407 445L413 435L419 454L426 440L432 449L438 443L444 439L451 439L457 449L463 453L469 444L476 417L482 450L488 418L495 506L501 513L507 481L513 466L520 476L526 503L532 492L538 488L545 491L551 511L557 513L563 543L570 542L576 511L582 503L588 509L595 497L601 508L607 506L613 503L620 506L626 482L632 466L638 456L645 443L651 441L657 440L664 444L670 448L676 448L682 444L689 459L695 456L701 454L707 443L714 448L720 455L726 467L732 468L739 479L745 477L751 469L757 469L764 468L770 470L776 470L782 474L789 476L795 475L801 477L808 479L814 477L820 475L826 469L833 469L839 469L845 473L851 474L858 481L864 492L870 486L876 493L883 524L889 517L895 527L901 537L908 521L914 535L920 527L926 535L933 514L939 521L945 540L951 529L958 536L964 539L970 538L977 538L983 538L989 544L995 545L1002 546L1008 549L1014 543L1020 543L1027 547L1033 547L1039 538L1045 529L1052 542L1058 539L1064 519L1070 518L1077 539L1083 541L1089 543" fill="none" stroke-width="1.5"></path></g><g class="key-World_3"><path stroke="#a652ba" stroke-linecap="round" d="M56 445L63 451L69 448L75 414L81 383L88 404L94 408L100 401L106 415L113 393L119 389L125 403L131 431L138 475L144 501L150 498L156 485L163 481L169 480L175 473L182 474L188 470L194 467L200 467L207 468L213 464L219 455L225 446L232 446L238 460L244 469L250 469L257 459L263 437L269 451L275 469L282 488L288 496L294 496L300 483L307 474L313 478L319 485L326 483L332 478L338 482L344 486L351 485L357 481L363 473L369 464L376 471L382 467L388 467L394 470L401 471L407 461L413 457L419 474L426 467L432 450L438 451L444 459L451 453L457 443L463 437L469 394L476 356L482 405L488 411L495 475L501 512L507 505L513 504L520 499L526 491L532 498L538 502L545 500L551 499L557 513L563 524L570 530L576 528L582 510L588 486L595 486L601 480L607 498L613 495L620 493L626 471L632 460L638 496L645 497L651 499L657 505L664 449L670 432L676 468L682 479L689 435L695 492L701 502L707 501L714 498L720 487L726 489L732 496L739 495L745 499L751 498L757 503L764 502L770 497L776 488L782 502L789 507L795 526L801 525L808 507L814 510L820 522L826 490L833 440L839 494L845 503L851 487L858 483L864 484L870 503L876 511L883 528L889 524L895 504L901 528L908 550L914 544L920 537L926 546L933 552L939 549L945 546L951 548L958 538L964 533L970 540L977 540L983 533L989 548L995 556L1002 558L1008 552L1014 550L1020 549L1027 552L1033 550L1039 536L1045 530L1052 542L1058 533L1064 524L1070 530L1077 537L1083 539L1089 547" fill="none" stroke-width="1.5"></path></g><g class="key-World_4"><path stroke="#7ec7ce" stroke-linecap="round" d="M56 422L63 442L69 451L75 447L81 439L88 446L94 432L100 433L106 433L113 422L119 412L125 399L131 329L138 306L144 459L150 464L156 476L163 482L169 491L175 487L182 477L188 455L194 420L200 385L207 369L213 381L219 372L225 357L232 388L238 410L244 415L250 444L257 460L263 458L269 453L275 473L282 456L288 362L294 386L300 350L307 340L313 354L319 365L326 339L332 334L338 349L344 369L351 469L357 489L363 491L369 464L376 489L382 498L388 501L394 475L401 468L407 474L413 496L419 497L426 477L432 459L438 415L444 405L451 450L457 483L463 490L469 479L476 496L482 503L488 462L495 509L501 530L507 507L513 501L520 467L526 448L532 462L538 461L545 428L551 432L557 489L563 512L570 489L576 497L582 484L588 504L595 500L601 491L607 514L613 516L620 518L626 490L632 484L638 490L645 491L651 492L657 470L664 448L670 452L676 424L682 344L689 348L695 354L701 337L707 259L714 346L720 341L726 357L732 393L739 436L745 439L751 445L757 455L764 460L770 433L776 437L782 450L789 462L795 466L801 471L808 446L814 468L820 459L826 440L833 447L839 458L845 336L851 206L858 337L864 347L870 392L876 438L883 436L889 448L895 441L901 444L908 405L914 479L920 463L926 491L933 509L939 514L945 530L951 527L958 477L964 479L970 500L977 462L983 495L989 514L995 525L1002 540L1008 541L1014 540L1020 533L1027 518L1033 520L1039 517L1045 512L1052 510L1058 488L1064 459L1070 496L1077 517L1083 492L1089 509" fill="none" stroke-width="1.5"></path></g><g class="key-World_5"><path stroke="#9ecc8a" stroke-linecap="round" d="M56 486L63 487L69 504L75 472L81 470L88 473L94 471L100 480L106 475L113 490L119 495L125 497L131 438L138 427L144 446L150 429L156 471L163 489L169 495L175 499L182 487L188 501L194 495L200 502L207 497L213 498L219 485L225 478L232 469L238 455L244 468L250 477L257 478L263 470L269 478L275 478L282 472L288 477L294 477L300 482L307 485L313 490L319 492L326 483L332 491L338 493L344 500L351 495L357 468L363 478L369 464L376 472L382 472L388 474L394 473L401 474L407 473L413 457L419 491L426 502L432 509L438 506L444 503L451 497L457 506L463 483L469 503L476 527L482 528L488 517L495 538L501 550L507 544L513 550L520 550L526 545L532 539L538 525L545 534L551 541L557 547L563 555L570 556L576 555L582 553L588 554L595 547L601 542L607 554L613 555L620 554L626 546L632 545L638 546L645 547L651 547L657 542L664 491L670 486L676 525L682 503L689 501L695 503L701 500L707 460L714 499L720 520L726 516L732 492L739 507L745 523L751 533L757 535L764 527L770 532L776 544L782 533L789 528L795 521L801 511L808 529L814 540L820 534L826 508L833 493L839 514L845 482L851 414L858 440L864 458L870 493L876 515L883 528L889 519L895 515L901 520L908 525L914 529L920 539L926 548L933 549L939 551L945 553L951 554L958 549L964 549L970 550L977 548L983 547L989 556L995 560L1002 558L1008 548L1014 549L1020 553L1027 553L1033 553L1039 549L1045 543L1052 539L1058 537L1064 540L1070 547L1077 547L1083 540L1089 540" fill="none" stroke-width="1.5"></path></g><g class="key-World_6"><path stroke="#f6a324" stroke-linecap="round" d="M56 466L63 497L69 499L75 451L81 407L88 378L94 416L100 438L106 471L113 437L119 429L125 468L131 475L138 471L144 447L150 483L156 466L163 399L169 417L175 467L182 477L188 444L194 441L200 447L207 450L213 453L219 449L225 416L232 448L238 444L244 439L250 428L257 425L263 442L269 464L275 461L282 468L288 471L294 449L300 453L307 446L313 436L319 461L326 476L332 487L338 479L344 470L351 439L357 433L363 462L369 464L376 464L382 461L388 457L394 423L401 425L407 459L413 447L419 436L426 401L432 423L438 439L444 433L451 449L457 442L463 404L469 410L476 341L482 388L488 390L495 413L501 469L507 471L513 487L520 466L526 446L532 458L538 472L545 456L551 476L557 499L563 517L570 521L576 497L582 482L588 479L595 470L601 466L607 502L613 503L620 487L626 485L632 475L638 461L645 454L651 453L657 447L664 422L670 442L676 460L682 457L689 455L695 462L701 476L707 473L714 474L720 469L726 474L732 484L739 489L745 489L751 485L757 486L764 490L770 504L776 510L782 506L789 516L795 525L801 526L808 522L814 524L820 518L826 458L833 454L839 492L845 505L851 519L858 511L864 503L870 508L876 521L883 531L889 529L895 531L901 536L908 540L914 541L920 535L926 534L933 543L939 544L945 542L951 545L958 544L964 536L970 537L977 547L983 553L989 557L995 558L1002 556L1008 553L1014 553L1020 553L1027 555L1033 552L1039 544L1045 534L1052 547L1058 548L1064 538L1070 538L1077 540L1083 545L1089 549" fill="none" stroke-width="1.5"></path></g><g class="key-World_7"><path stroke="#b077b1" stroke-linecap="round" d="M56 366L63 348L69 328L75 354L81 413L88 443L94 368L100 379L106 332L113 373L119 362L125 325L131 382L138 466L144 514L150 498L156 489L163 509L169 514L175 491L182 460L188 458L194 462L200 458L207 436L213 447L219 457L225 467L232 473L238 450L244 440L250 409L257 460L263 467L269 474L275 463L282 470L288 470L294 459L300 490L307 448L313 418L319 465L326 472L332 470L338 485L344 493L351 479L357 476L363 464L369 464L376 455L382 467L388 462L394 431L401 448L407 454L413 432L419 429L426 429L432 434L438 418L444 454L451 464L457 425L463 421L469 387L476 334L482 398L488 425L495 444L501 491L507 507L513 513L520 475L526 495L532 491L538 489L545 489L551 485L557 526L563 534L570 537L576 488L582 478L588 522L595 469L601 489L607 525L613 517L620 520L626 508L632 508L638 473L645 463L651 439L657 397L664 392L670 468L676 484L682 477L689 470L695 458L701 488L707 494L714 503L720 498L726 505L732 511L739 513L745 521L751 514L757 518L764 511L770 514L776 518L782 515L789 517L795 522L801 525L808 528L814 534L820 533L826 497L833 483L839 496L845 496L851 513L858 519L864 523L870 517L876 515L883 529L889 535L895 543L901 540L908 549L914 548L920 536L926 544L933 545L939 545L945 543L951 542L958 541L964 540L970 532L977 532L983 546L989 549L995 547L1002 545L1008 541L1014 545L1020 543L1027 543L1033 544L1039 531L1045 521L1052 533L1058 532L1064 512L1070 514L1077 512L1083 515L1089 517" fill="none" stroke-width="1.5"></path></g><g class="key-World_8"><path stroke="#34983f" stroke-linecap="round" d="M56 437L63 444L69 429L75 398L81 392L88 387L94 427L100 427L106 459L113 445L119 420L125 424L131 443L138 465L144 498L150 490L156 480L163 474L169 477L175 486L182 482L188 481L194 472L200 474L207 465L213 480L219 469L225 455L232 449L238 453L244 463L250 472L257 482L263 473L269 475L275 483L282 485L288 494L294 481L300 475L307 474L313 477L319 467L326 485L332 500L338 491L344 482L351 470L357 466L363 466L369 464L376 476L382 481L388 459L394 479L401 466L407 450L413 446L419 439L426 466L432 471L438 439L444 422L451 457L457 465L463 464L469 481L476 507L482 509L488 513L495 513L501 495L507 481L513 487L520 480L526 482L532 476L538 481L545 489L551 489L557 505L563 531L570 532L576 537L582 527L588 514L595 516L601 515L607 518L613 519L620 509L626 505L632 505L638 507L645 508L651 509L657 505L664 478L670 479L676 491L682 505L689 506L695 502L701 495L707 503L714 510L720 513L726 515L732 513L739 519L745 523L751 519L757 513L764 517L770 520L776 522L782 512L789 494L795 503L801 513L808 529L814 535L820 530L826 493L833 442L839 492L845 520L851 519L858 506L864 518L870 510L876 510L883 537L889 540L895 544L901 549L908 552L914 551L920 545L926 544L933 549L939 548L945 551L951 554L958 552L964 548L970 548L977 551L983 551L989 555L995 559L1002 562L1008 561L1014 560L1020 558L1027 556L1033 555L1039 554L1045 534L1052 540L1058 545L1064 544L1070 543L1077 547L1083 552L1089 554" fill="none" stroke-width="1.5"></path></g><g class="key-World_9"><path stroke="#ffd53e" stroke-linecap="round" d="M56 465L63 465L69 457L75 454L81 444L88 425L94 467L100 457L106 452L113 438L119 456L125 504L131 506L138 461L144 408L150 479L156 491L163 433L169 432L175 453L182 441L188 477L194 498L200 500L207 434L213 435L219 474L225 470L232 484L238 487L244 485L250 456L257 416L263 446L269 447L275 467L282 479L288 474L294 456L300 485L307 471L313 419L319 452L326 468L332 453L338 462L344 500L351 500L357 482L363 476L369 464L376 432L382 406L388 448L394 437L401 436L407 450L413 439L419 395L426 398L432 426L438 424L444 402L451 422L457 406L463 399L469 392L476 274L482 326L488 357L495 406L501 498L507 488L513 462L520 443L526 437L532 475L538 458L545 441L551 447L557 459L563 494L570 522L576 502L582 461L588 436L595 433L601 407L607 483L613 490L620 469L626 460L632 453L638 432L645 424L651 422L657 398L664 353L670 377L676 442L682 426L689 411L695 417L701 434L707 435L714 452L720 449L726 469L732 473L739 476L745 483L751 486L757 486L764 478L770 480L776 478L782 475L789 484L795 497L801 495L808 490L814 495L820 500L826 457L833 418L839 450L845 464L851 488L858 490L864 488L870 486L876 495L883 516L889 500L895 505L901 519L908 533L914 540L920 527L926 528L933 530L939 532L945 535L951 537L958 536L964 531L970 518L977 535L983 542L989 547L995 549L1002 549L1008 546L1014 545L1020 544L1027 550L1033 547L1039 537L1045 524L1052 535L1058 534L1064 512L1070 507L1077 513L1083 533L1089 537" fill="none" stroke-width="1.5"></path></g><g class="key-World_10"><path stroke="#e6332e" stroke-linecap="round" d="M56 446L63 435L69 416L75 391L81 392L88 402L94 368L100 369L106 394L113 402L119 386L125 400L131 425L138 462L144 495L150 496L156 473L163 459L169 445L175 450L182 461L188 431L194 437L200 392L207 383L213 398L219 429L225 437L232 441L238 438L244 427L250 393L257 434L263 441L269 462L275 443L282 446L288 450L294 433L300 472L307 420L313 444L319 458L326 473L332 459L338 485L344 494L351 480L357 468L363 468L369 464L376 453L382 455L388 459L394 469L401 472L407 469L413 414L419 435L426 435L432 429L438 378L444 455L451 454L457 453L463 457L469 408L476 364L482 435L488 417L495 481L501 515L507 508L513 504L520 479L526 497L532 502L538 487L545 501L551 505L557 520L563 526L570 538L576 500L582 461L588 513L595 450L601 491L607 516L613 510L620 512L626 495L632 489L638 448L645 448L651 451L657 419L664 404L670 468L676 476L682 465L689 467L695 461L701 478L707 485L714 498L720 494L726 505L732 505L739 509L745 511L751 510L757 505L764 502L770 500L776 503L782 501L789 502L795 508L801 510L808 512L814 510L820 508L826 469L833 454L839 474L845 484L851 501L858 497L864 492L870 487L876 494L883 513L889 509L895 504L901 524L908 534L914 529L920 519L926 518L933 518L939 521L945 522L951 528L958 529L964 511L970 504L977 518L983 526L989 532L995 533L1002 525L1008 518L1014 522L1020 526L1027 529L1033 521L1039 498L1045 489L1052 519L1058 507L1064 490L1070 478L1077 494L1083 519L1089 499" fill="none" stroke-width="1.5"></path></g><g class="key-World_11"><path stroke="#3360a9" stroke-linecap="round" d="M56 513L63 490L69 473L75 482L81 500L88 481L94 479L100 464L106 485L113 477L119 463L125 500L131 522L138 513L144 482L150 459L156 474L163 497L169 471L175 448L182 456L188 499L194 509L200 505L207 478L213 450L219 458L225 482L232 508L238 507L244 491L250 465L257 442L263 463L269 473L275 494L282 493L288 480L294 464L300 487L307 495L313 486L319 472L326 441L332 467L338 480L344 500L351 494L357 489L363 485L369 464L376 447L382 427L388 449L394 469L401 466L407 447L413 457L419 460L426 424L432 403L438 446L444 432L451 422L457 424L463 447L469 415L476 358L482 368L488 390L495 454L501 495L507 481L513 499L520 489L526 458L532 459L538 477L545 480L551 473L557 480L563 508L570 529L576 524L582 513L588 457L595 453L601 452L607 476L613 493L620 505L626 477L632 465L638 488L645 501L651 499L657 508L664 514L670 520L676 510L682 516L689 525L695 531L701 516L707 516L714 528L720 532L726 518L732 512L739 528L745 522L751 518L757 519L764 529L770 530L776 515L782 515L789 523L795 523L801 511L808 513L814 525L820 505L826 475L833 497L839 476L845 493L851 502L858 495L864 513L870 521L876 517L883 495L889 512L895 516L901 519L908 514L914 519L920 539L926 546L933 533L939 539L945 552L951 550L958 554L964 552L970 543L977 550L983 559L989 560L995 555L1002 555L1008 560L1014 558L1020 554L1027 555L1033 557L1039 557L1045 558L1052 560L1058 556L1064 553L1070 555L1077 554L1083 551L1089 558" fill="none" stroke-width="1.5"></path></g><g class="key-World_12"><path stroke="#f07f59" stroke-linecap="round" d="M56 490L63 488L69 486L75 463L81 462L88 462L94 468L100 468L106 465L113 466L119 463L125 469L131 489L138 502L144 512L150 512L156 509L163 507L169 507L175 500L182 493L188 479L194 480L200 471L207 476L213 464L219 467L225 471L232 466L238 475L244 469L250 471L257 464L263 462L269 464L275 473L282 481L288 491L294 484L300 481L307 482L313 477L319 482L326 482L332 479L338 477L344 485L351 479L357 479L363 468L369 464L376 465L382 467L388 474L394 470L401 470L407 471L413 478L419 474L426 473L432 477L438 478L444 479L451 482L457 485L463 385L469 386L476 419L482 396L488 382L495 467L501 481L507 515L513 511L520 511L526 497L532 501L538 507L545 490L551 485L557 492L563 424L570 452L576 454L582 480L588 477L595 475L601 438L607 451L613 455L620 425L626 409L632 381L638 382L645 388L651 392L657 381L664 411L670 449L676 474L682 505L689 510L695 508L701 500L707 503L714 490L720 432L726 453L732 448L739 290L745 278L751 302L757 293L764 314L770 251L776 241L782 199L789 202L795 202L801 177L808 174L814 178L820 152L826 35L833 192L839 280L845 243L851 278L858 183L864 100L870 175L876 250L883 279L889 282L895 313L901 335L908 346L914 323L920 320L926 327L933 340L939 341L945 365L951 358L958 386L964 425L970 438L977 436L983 447L989 442L995 440L1002 430L1008 434L1014 445L1020 415L1027 414L1033 423L1039 424L1045 400L1052 427L1058 391L1064 360L1070 359L1077 365L1083 323L1089 351" fill="none" stroke-width="1.5"></path></g><g class="key-World_13"><path stroke="#6bb537" stroke-linecap="round" d="M56 488L63 484L69 485L75 465L81 473L88 478L94 476L100 477L106 477L113 474L119 469L125 476L131 491L138 507L144 519L150 512L156 514L163 516L169 518L175 507L182 504L188 493L194 488L200 481L207 489L213 473L219 469L225 471L232 467L238 474L244 473L250 468L257 464L263 460L269 472L275 483L282 471L288 488L294 479L300 467L307 473L313 483L319 483L326 480L332 474L338 466L344 475L351 470L357 476L363 472L369 464L376 475L382 474L388 471L394 470L401 469L407 470L413 474L419 475L426 485L432 478L438 483L444 479L451 476L457 474L463 457L469 463L476 472L482 464L488 459L495 497L501 509L507 537L513 517L520 503L526 493L532 521L538 517L545 504L551 509L557 514L563 465L570 481L576 462L582 460L588 392L595 367L601 354L607 380L613 413L620 411L626 414L632 424L638 422L645 422L651 430L657 430L664 455L670 493L676 502L682 537L689 534L695 536L701 524L707 533L714 523L720 480L726 486L732 489L739 436L745 385L751 421L757 430L764 402L770 386L776 432L782 434L789 428L795 415L801 415L808 415L814 428L820 384L826 342L833 360L839 370L845 370L851 365L858 324L864 331L870 314L876 350L883 391L889 430L895 436L901 446L908 428L914 432L920 422L926 435L933 423L939 447L945 433L951 424L958 425L964 446L970 418L977 417L983 448L989 457L995 461L1002 452L1008 437L1014 417L1020 393L1027 405L1033 425L1039 426L1045 416L1052 426L1058 393L1064 355L1070 377L1077 394L1083 372L1089 410" fill="none" stroke-width="1.5"></path></g></g></g></g></g></svg>