<svg xmlns="http://www.w3.org/2000/svg" version="1.1" style="font-family: 'Helvetica Neue', Helvetica, Arial, sans-serif; font-size: 18px; background-color: white; text-rendering: optimizeLegibility; -webkit-font-smoothing: antialiased;" width="850" height="600"><g class="ChartTab"><g class="HeaderView"><g opacity="0.8" transform="translate(770, 15) scale(0.31)"><a xmlns:xlink="http://www.w3.org/1999/xlink" xlink:href="https://ourworldindata.org" target="_blank"><g><rect x="0" y="0" fill="#1B2543" width="211.2" height="130.1"/><rect x="0" y="112.2" fill="#E63912" width="211.2" height="17.9"/><g><rect x="1.2" y="12.3" fill="none" width="210.2" height="99.2"/><path fill="#FFFFFF" d="M37.8,32.2c0,12.7-7.7,19.4-17.1,19.4c-9.7,0-16.6-7.5-16.6-18.7c0-11.7,7.3-19.3,17.1-19.3 C31.3,13.7,37.8,21.3,37.8,32.2z M9.2,32.8c0,7.9,4.3,14.9,11.8,14.9c7.5,0,11.8-6.9,11.8-15.3c0-7.3-3.8-14.9-11.8-14.9 C13.1,17.5,9.2,24.8,9.2,32.8z"/><path fill="#FFFFFF" d="M62.7,43.8c0,2.7,0.1,5.1,0.2,7.2h-4.3l-0.3-4.3h-0.1c-1.3,2.1-4,4.9-8.8,4.9c-4.2,0-9.1-2.3-9.1-11.6 V24.6h4.8v14.6c0,5,1.5,8.4,5.9,8.4c3.2,0,5.5-2.2,6.3-4.4c0.3-0.7,0.4-1.6,0.4-2.5V24.6h4.8V43.8z"/><path fill="#FFFFFF" d="M67.3,32.8c0-3.1-0.1-5.8-0.2-8.2h4.2l0.2,5.2h0.2c1.2-3.5,4.1-5.8,7.3-5.8c0.5,0,0.9,0.1,1.4,0.2v4.5 c-0.5-0.1-1-0.2-1.6-0.2c-3.4,0-5.8,2.6-6.5,6.2c-0.1,0.7-0.2,1.4-0.2,2.2V51h-4.8V32.8z"/><path fill="#FFFFFF" d="M95.4,51l-9.4-36.8h5l4.4,18.6c1.1,4.6,2.1,9.2,2.7,12.7h0.1c0.6-3.7,1.8-8,3-12.8l4.9-18.5h5l4.5,18.7 c1,4.4,2,8.7,2.6,12.6h0.1c0.8-4,1.8-8.1,3-12.7l4.9-18.5h4.9L120.6,51h-5L111,31.9c-1.1-4.7-1.9-8.3-2.4-12h-0.1 c-0.7,3.7-1.5,7.3-2.8,12L100.4,51H95.4z"/><path fill="#FFFFFF" d="M154.9,37.6c0,9.8-6.8,14-13.2,14c-7.2,0-12.7-5.2-12.7-13.6c0-8.8,5.8-14,13.1-14 C149.8,24,154.9,29.5,154.9,37.6z M133.9,37.9c0,5.8,3.3,10.1,8,10.1c4.6,0,8-4.3,8-10.3c0-4.5-2.2-10.1-7.9-10.1 C136.3,27.6,133.9,32.8,133.9,37.9z"/><path fill="#FFFFFF" d="M158.2,32.8c0-3.1-0.1-5.8-0.2-8.2h4.2l0.2,5.2h0.2c1.2-3.5,4.1-5.8,7.3-5.8c0.5,0,0.9,0.1,1.4,0.2v4.5 c-0.5-0.1-1-0.2-1.6-0.2c-3.4,0-5.8,2.6-6.5,6.2c-0.1,0.7-0.2,1.4-0.2,2.2V51h-4.8V32.8z"/><path fill="#FFFFFF" d="M173.5,12.3h4.8V51h-4.8V12.3z"/><path fill="#FFFFFF" d="M206.5,12.3v31.9c0,2.3,0.1,5,0.2,6.8h-4.3l-0.2-4.6H202c-1.5,2.9-4.7,5.2-9,5.2 c-6.4,0-11.3-5.4-11.3-13.4c-0.1-8.8,5.4-14.2,11.9-14.2c4,0,6.8,1.9,8,4h0.1V12.3H206.5z M201.7,35.4c0-0.6-0.1-1.4-0.2-2 c-0.7-3.1-3.3-5.6-6.9-5.6c-5,0-7.9,4.4-7.9,10.2c0,5.3,2.6,9.8,7.8,9.8c3.2,0,6.2-2.1,7.1-5.7c0.2-0.7,0.2-1.3,0.2-2.1V35.4z"/><path fill="#FFFFFF" d="M42.8,64c0.1,1.6-1.1,2.9-3.1,2.9c-1.7,0-2.9-1.3-2.9-2.9c0-1.7,1.3-3,3-3C41.7,61,42.8,62.3,42.8,64z M37.4,97.8V71.4h4.8v26.4H37.4z"/><path fill="#FFFFFF" d="M47.5,78.6c0-2.7-0.1-5-0.2-7.1h4.3l0.3,4.4h0.1c1.3-2.5,4.4-5,8.8-5c3.7,0,9.4,2.2,9.4,11.2v15.8h-4.8 V82.6c0-4.3-1.6-7.8-6.1-7.8c-3.2,0-5.6,2.2-6.5,4.9c-0.2,0.6-0.3,1.4-0.3,2.2v15.9h-4.8V78.6z"/><path fill="#FFFFFF" d="M84,61.6c2.9-0.4,6.3-0.8,10.1-0.8c6.8,0,11.7,1.6,14.9,4.6c3.3,3,5.2,7.3,5.2,13.2c0,6-1.9,10.9-5.3,14.3 c-3.4,3.4-9.1,5.3-16.3,5.3c-3.4,0-6.2-0.2-8.6-0.4V61.6z M88.8,94.1c1.2,0.2,3,0.3,4.8,0.3c10.2,0,15.7-5.7,15.7-15.6 c0.1-8.7-4.9-14.2-14.9-14.2c-2.5,0-4.3,0.2-5.6,0.5V94.1z"/><path fill="#FFFFFF" d="M132.1,97.8l-0.4-3.3h-0.2c-1.5,2.1-4.3,3.9-8.1,3.9c-5.4,0-8.1-3.8-8.1-7.6c0-6.4,5.7-9.9,15.9-9.8v-0.5 c0-2.2-0.6-6.1-6-6.1c-2.5,0-5,0.8-6.9,2l-1.1-3.2c2.2-1.4,5.4-2.3,8.7-2.3c8.1,0,10.1,5.5,10.1,10.8v9.9c0,2.3,0.1,4.5,0.4,6.3 H132.1z M131.4,84.4c-5.3-0.1-11.2,0.8-11.2,5.9c0,3.1,2.1,4.6,4.5,4.6c3.4,0,5.6-2.2,6.4-4.4c0.2-0.5,0.3-1,0.3-1.5V84.4z"/><path fill="#FFFFFF" d="M146.6,63.9v7.6h6.9v3.7h-6.9v14.2c0,3.3,0.9,5.1,3.6,5.1c1.3,0,2.2-0.2,2.8-0.3l0.2,3.6 c-0.9,0.4-2.4,0.7-4.3,0.7c-2.2,0-4-0.7-5.2-2c-1.4-1.4-1.9-3.8-1.9-6.9V75.1h-4.1v-3.7h4.1v-6.3L146.6,63.9z"/><path fill="#FFFFFF" d="M171.4,97.8l-0.4-3.3h-0.2c-1.5,2.1-4.3,3.9-8.1,3.9c-5.4,0-8.1-3.8-8.1-7.6c0-6.4,5.7-9.9,15.9-9.8v-0.5 c0-2.2-0.6-6.1-6-6.1c-2.5,0-5,0.8-6.9,2l-1.1-3.2c2.2-1.4,5.4-2.3,8.7-2.3c8.1,0,10.1,5.5,10.1,10.8v9.9c0,2.3,0.1,4.5,0.4,6.3 H171.4z M170.7,84.4c-5.3-0.1-11.2,0.8-11.2,5.9c0,3.1,2.1,4.6,4.5,4.6c3.4,0,5.6-2.2,6.4-4.4c0.2-0.5,0.3-1,0.3-1.5V84.4z"/></g></g></a></g><a href="https://ourworldindata.org/grapher/male-and-female-suicide-rate" target="_blank"><text font-size="27.00" x="15.0" y="36.6" fill="#555"><tspan x="15" y="36.6">Male and female suicide rate</tspan></text></a><text font-size="14.40" x="15.0" y="55.5" fill="#666"><tspan x="15" y="55.519999999999996">The suicide rates are adjusted for change in the age composition in the countries.</tspan></text></g><g class="LineChart"><defs><clipPath id="boundsClip-199"><rect x="28.144000000000005" y="0" width="830" height="956.2"></rect></clipPath></defs><g class="AxisBoxView"><g class="HorizontalAxis"><text x="38.1" y="556.5" fill="#666" text-anchor="middle" font-size="16.2">1950</text><text x="136.3" y="556.5" fill="#666" text-anchor="middle" font-size="16.2">1960</text><text x="234.5" y="556.5" fill="#666" text-anchor="middle" font-size="16.2">1970</text><text x="332.7" y="556.5" fill="#666" text-anchor="middle" font-size="16.2">1980</text><text x="430.9" y="556.5" fill="#666" text-anchor="middle" font-size="16.2">1990</text><text x="568.4" y="556.5" fill="#666" text-anchor="middle" font-size="16.2">2004</text></g><g class="VerticalAxis"><text x="33.14" y="535.3" fill="#666" dominant-baseline="middle" text-anchor="end" font-size="16.2">0</text><text x="33.14" y="471.6" fill="#666" dominant-baseline="middle" text-anchor="end" font-size="16.2">5</text><text x="33.14" y="407.9" fill="#666" dominant-baseline="middle" text-anchor="end" font-size="16.2">10</text><text x="33.14" y="344.2" fill="#666" dominant-baseline="middle" text-anchor="end" font-size="16.2">15</text><text x="33.14" y="280.5" fill="#666" dominant-baseline="middle" text-anchor="end" font-size="16.2">20</text><text x="33.14" y="216.8" fill="#666" dominant-baseline="middle" text-anchor="end" font-size="16.2">25</text><text x="33.14" y="153.1" fill="#666" dominant-baseline="middle" text-anchor="end" font-size="16.2">30</text><text x="33.14" y="89.4" fill="#666" dominant-baseline="middle" text-anchor="end" font-size="16.2">35</text></g><g class="AxisGridLines"><line x1="38.14" y1="535.3" x2="568.37" y2="535.3" stroke="#ccc"></line><line x1="38.14" y1="471.6" x2="568.37" y2="471.6" stroke="#ddd" stroke-dasharray="3,2"></line><line x1="38.14" y1="407.9" x2="568.37" y2="407.9" stroke="#ddd" stroke-dasharray="3,2"></line><line x1="38.14" y1="344.2" x2="568.37" y2="344.2" stroke="#ddd" stroke-dasharray="3,2"></line><line x1="38.14" y1="280.5" x2="568.37" y2="280.5" stroke="#ddd" stroke-dasharray="3,2"></line><line x1="38.14" y1="216.8" x2="568.37" y2="216.8" stroke="#ddd" stroke-dasharray="3,2"></line><line x1="38.14" y1="153.1" x2="568.37" y2="153.1" stroke="#ddd" stroke-dasharray="3,2"></line><line x1="38.14" y1="89.4" x2="568.37" y2="89.4" stroke="#ddd" stroke-dasharray="3,2"></line></g><g class="AxisGridLines"><line x1="38.1" y1="535.30" x2="38.1" y2="78.40" stroke="#ddd" stroke-dasharray="3,2"></line><line x1="136.3" y1="535.30" x2="136.3" y2="78.40" stroke="#ddd" stroke-dasharray="3,2"></line><line x1="234.5" y1="535.30" x2="234.5" y2="78.40" stroke="#ddd" stroke-dasharray="3,2"></line><line x1="332.7" y1="535.30" x2="332.7" y2="78.40" stroke="#ddd" stroke-dasharray="3,2"></line><line x1="430.9" y1="535.30" x2="430.9" y2="78.40" stroke="#ddd" stroke-dasharray="3,2"></line><line x1="529.1" y1="535.30" x2="529.1" y2="78.40" stroke="#ddd" stroke-dasharray="3,2"></line></g></g><g clip-path="url(#boundsClip-199)"><g class="HeightedLegend clickable"><g class="legendMark"><rect x="578.3679999999999" y="173.3" width="176.424" height="14.4" fill="#fff" opacity="0"></rect><rect x="578.3679999999999" y="179.25" width="10" height="2.5" fill="#2E8B57"></rect><text font-size="14.40" x="593.4" y="184.8" fill="#333"><tspan x="593.3679999999999" y="184.82000000000002">Japan - Male suicide rate</tspan></text></g><g class="legendMark"><rect x="578.3679999999999" y="403.5" width="239.78400000000002" height="14.4" fill="#fff" opacity="0"></rect><rect x="578.3679999999999" y="409.45" width="10" height="2.5" fill="#436EEE"></rect><text font-size="14.40" x="593.4" y="415.0" fill="#333"><tspan x="593.3679999999999" y="415.02">United Kingdom - Male suicide rate</tspan></text></g><g class="legendMark"><rect x="578.3679999999999" y="417.9" width="193.27200000000002" height="14.4" fill="#fff" opacity="0"></rect><rect x="578.3679999999999" y="423.84999999999997" width="10" height="2.5" fill="#2E8B57"></rect><text font-size="14.40" x="593.4" y="429.4" fill="#333"><tspan x="593.3679999999999" y="429.41999999999996">Japan - Female suicide rate</tspan></text></g><g class="legendMark"><rect x="578.3679999999999" y="491.40000000000003" width="256.63200000000006" height="14.4" fill="#fff" opacity="0"></rect><rect x="578.3679999999999" y="497.35" width="10" height="2.5" fill="#436EEE"></rect><text font-size="14.40" x="593.4" y="502.9" fill="#333"><tspan x="593.3679999999999" y="502.92">United Kingdom - Female suicide rate</tspan></text></g></g><g class="Lines"><rect x="38" y="78" width="530" height="457" fill="rgba(255,255,255,0)" opacity="0"></rect><g class="key-Japan_0"><path stroke="#2E8B57" stroke-linecap="round" d="M38 135L48 182L58 191L68 161L77 105L87 78L97 101L107 112L117 102L127 155L136 183L146 218L156 245L166 267L176 287L185 290L195 291L205 310L215 308L225 310L235 300L244 297L254 277L264 269L274 272L284 257L293 263L303 254L313 256L323 251L333 258L343 265L352 260L362 189L372 208L382 230L392 213L401 242L411 265L421 294L431 309L441 310L451 296L460 299L470 291L480 292L490 285L500 271L510 169L519 170L529 186L539 198L549 189L559 157L568 181" fill="none" stroke-width="1.5"></path><g fill="#2E8B57"><circle cx="38" cy="135" r="2"></circle><circle cx="48" cy="182" r="2"></circle><circle cx="58" cy="191" r="2"></circle><circle cx="68" cy="161" r="2"></circle><circle cx="77" cy="105" r="2"></circle><circle cx="87" cy="78" r="2"></circle><circle cx="97" cy="101" r="2"></circle><circle cx="107" cy="112" r="2"></circle><circle cx="117" cy="102" r="2"></circle><circle cx="127" cy="155" r="2"></circle><circle cx="136" cy="183" r="2"></circle><circle cx="146" cy="218" r="2"></circle><circle cx="156" cy="245" r="2"></circle><circle cx="166" cy="267" r="2"></circle><circle cx="176" cy="287" r="2"></circle><circle cx="185" cy="290" r="2"></circle><circle cx="195" cy="291" r="2"></circle><circle cx="205" cy="310" r="2"></circle><circle cx="215" cy="308" r="2"></circle><circle cx="225" cy="310" r="2"></circle><circle cx="235" cy="300" r="2"></circle><circle cx="244" cy="297" r="2"></circle><circle cx="254" cy="277" r="2"></circle><circle cx="264" cy="269" r="2"></circle><circle cx="274" cy="272" r="2"></circle><circle cx="284" cy="257" r="2"></circle><circle cx="293" cy="263" r="2"></circle><circle cx="303" cy="254" r="2"></circle><circle cx="313" cy="256" r="2"></circle><circle cx="323" cy="251" r="2"></circle><circle cx="333" cy="258" r="2"></circle><circle cx="343" cy="265" r="2"></circle><circle cx="352" cy="260" r="2"></circle><circle cx="362" cy="189" r="2"></circle><circle cx="372" cy="208" r="2"></circle><circle cx="382" cy="230" r="2"></circle><circle cx="392" cy="213" r="2"></circle><circle cx="401" cy="242" r="2"></circle><circle cx="411" cy="265" r="2"></circle><circle cx="421" cy="294" r="2"></circle><circle cx="431" cy="309" r="2"></circle><circle cx="441" cy="310" r="2"></circle><circle cx="451" cy="296" r="2"></circle><circle cx="460" cy="299" r="2"></circle><circle cx="470" cy="291" r="2"></circle><circle cx="480" cy="292" r="2"></circle><circle cx="490" cy="285" r="2"></circle><circle cx="500" cy="271" r="2"></circle><circle cx="510" cy="169" r="2"></circle><circle cx="519" cy="170" r="2"></circle><circle cx="529" cy="186" r="2"></circle><circle cx="539" cy="198" r="2"></circle><circle cx="549" cy="189" r="2"></circle><circle cx="559" cy="157" r="2"></circle><circle cx="568" cy="181" r="2"></circle></g></g><g class="key-Japan_1"><path stroke="#2E8B57" stroke-linecap="round" d="M38 299L48 312L58 310L68 297L77 283L87 269L97 267L107 273L117 255L127 281L136 291L146 309L156 337L166 357L176 364L185 373L195 364L205 377L215 374L225 374L235 369L244 369L254 359L264 354L274 351L284 359L293 366L303 371L313 378L323 378L333 386L343 396L352 397L362 388L372 392L382 396L392 378L401 394L411 398L421 406L431 415L441 423L451 425L460 432L470 434L480 431L490 431L500 427L510 401L519 407L529 414L539 418L549 419L559 409L568 415" fill="none" stroke-width="1.5"></path><g fill="#2E8B57"><circle cx="38" cy="299" r="2"></circle><circle cx="48" cy="312" r="2"></circle><circle cx="58" cy="310" r="2"></circle><circle cx="68" cy="297" r="2"></circle><circle cx="77" cy="283" r="2"></circle><circle cx="87" cy="269" r="2"></circle><circle cx="97" cy="267" r="2"></circle><circle cx="107" cy="273" r="2"></circle><circle cx="117" cy="255" r="2"></circle><circle cx="127" cy="281" r="2"></circle><circle cx="136" cy="291" r="2"></circle><circle cx="146" cy="309" r="2"></circle><circle cx="156" cy="337" r="2"></circle><circle cx="166" cy="357" r="2"></circle><circle cx="176" cy="364" r="2"></circle><circle cx="185" cy="373" r="2"></circle><circle cx="195" cy="364" r="2"></circle><circle cx="205" cy="377" r="2"></circle><circle cx="215" cy="374" r="2"></circle><circle cx="225" cy="374" r="2"></circle><circle cx="235" cy="369" r="2"></circle><circle cx="244" cy="369" r="2"></circle><circle cx="254" cy="359" r="2"></circle><circle cx="264" cy="354" r="2"></circle><circle cx="274" cy="351" r="2"></circle><circle cx="284" cy="359" r="2"></circle><circle cx="293" cy="366" r="2"></circle><circle cx="303" cy="371" r="2"></circle><circle cx="313" cy="378" r="2"></circle><circle cx="323" cy="378" r="2"></circle><circle cx="333" cy="386" r="2"></circle><circle cx="343" cy="396" r="2"></circle><circle cx="352" cy="397" r="2"></circle><circle cx="362" cy="388" r="2"></circle><circle cx="372" cy="392" r="2"></circle><circle cx="382" cy="396" r="2"></circle><circle cx="392" cy="378" r="2"></circle><circle cx="401" cy="394" r="2"></circle><circle cx="411" cy="398" r="2"></circle><circle cx="421" cy="406" r="2"></circle><circle cx="431" cy="415" r="2"></circle><circle cx="441" cy="423" r="2"></circle><circle cx="451" cy="425" r="2"></circle><circle cx="460" cy="432" r="2"></circle><circle cx="470" cy="434" r="2"></circle><circle cx="480" cy="431" r="2"></circle><circle cx="490" cy="431" r="2"></circle><circle cx="500" cy="427" r="2"></circle><circle cx="510" cy="401" r="2"></circle><circle cx="519" cy="407" r="2"></circle><circle cx="529" cy="414" r="2"></circle><circle cx="539" cy="418" r="2"></circle><circle cx="549" cy="419" r="2"></circle><circle cx="559" cy="409" r="2"></circle><circle cx="568" cy="415" r="2"></circle></g></g><g class="key-United-Kingdom_0"><path stroke="#436EEE" stroke-linecap="round" d="M38 390L48 391L58 394L68 384L77 377L87 381L97 375L107 377L117 376L127 380L136 383L146 386L156 374L166 372L176 382L185 393L195 397L205 400L215 405L225 413L235 424L244 425L254 426L264 424L274 422L284 428L293 421L303 419L313 415L323 408L333 405L343 399L352 398L362 397L372 395L382 391L392 394L401 399L411 385L421 401L431 389L441 390L451 388L460 394L470 396L480 398L490 407L500 406L510 398L519 398L529 404L539 405L549 407L559 413L568 411" fill="none" stroke-width="1.5"></path><g fill="#436EEE"><circle cx="38" cy="390" r="2"></circle><circle cx="48" cy="391" r="2"></circle><circle cx="58" cy="394" r="2"></circle><circle cx="68" cy="384" r="2"></circle><circle cx="77" cy="377" r="2"></circle><circle cx="87" cy="381" r="2"></circle><circle cx="97" cy="375" r="2"></circle><circle cx="107" cy="377" r="2"></circle><circle cx="117" cy="376" r="2"></circle><circle cx="127" cy="380" r="2"></circle><circle cx="136" cy="383" r="2"></circle><circle cx="146" cy="386" r="2"></circle><circle cx="156" cy="374" r="2"></circle><circle cx="166" cy="372" r="2"></circle><circle cx="176" cy="382" r="2"></circle><circle cx="185" cy="393" r="2"></circle><circle cx="195" cy="397" r="2"></circle><circle cx="205" cy="400" r="2"></circle><circle cx="215" cy="405" r="2"></circle><circle cx="225" cy="413" r="2"></circle><circle cx="235" cy="424" r="2"></circle><circle cx="244" cy="425" r="2"></circle><circle cx="254" cy="426" r="2"></circle><circle cx="264" cy="424" r="2"></circle><circle cx="274" cy="422" r="2"></circle><circle cx="284" cy="428" r="2"></circle><circle cx="293" cy="421" r="2"></circle><circle cx="303" cy="419" r="2"></circle><circle cx="313" cy="415" r="2"></circle><circle cx="323" cy="408" r="2"></circle><circle cx="333" cy="405" r="2"></circle><circle cx="343" cy="399" r="2"></circle><circle cx="352" cy="398" r="2"></circle><circle cx="362" cy="397" r="2"></circle><circle cx="372" cy="395" r="2"></circle><circle cx="382" cy="391" r="2"></circle><circle cx="392" cy="394" r="2"></circle><circle cx="401" cy="399" r="2"></circle><circle cx="411" cy="385" r="2"></circle><circle cx="421" cy="401" r="2"></circle><circle cx="431" cy="389" r="2"></circle><circle cx="441" cy="390" r="2"></circle><circle cx="451" cy="388" r="2"></circle><circle cx="460" cy="394" r="2"></circle><circle cx="470" cy="396" r="2"></circle><circle cx="480" cy="398" r="2"></circle><circle cx="490" cy="407" r="2"></circle><circle cx="500" cy="406" r="2"></circle><circle cx="510" cy="398" r="2"></circle><circle cx="519" cy="398" r="2"></circle><circle cx="529" cy="404" r="2"></circle><circle cx="539" cy="405" r="2"></circle><circle cx="549" cy="407" r="2"></circle><circle cx="559" cy="413" r="2"></circle><circle cx="568" cy="411" r="2"></circle></g></g><g class="key-United-Kingdom_1"><path stroke="#436EEE" stroke-linecap="round" d="M38 467L48 466L58 471L68 463L77 458L87 455L97 450L107 448L117 449L127 449L136 450L146 447L156 440L166 436L176 438L185 443L195 446L205 455L215 457L225 462L235 466L244 467L254 469L264 467L274 467L284 470L293 471L303 468L313 469L323 465L333 464L343 469L352 472L362 475L372 476L382 476L392 484L401 487L411 486L421 495L431 495L441 497L451 496L460 498L470 500L480 501L490 499L500 500L510 499L519 499L529 499L539 502L549 500L559 501L568 499" fill="none" stroke-width="1.5"></path><g fill="#436EEE"><circle cx="38" cy="467" r="2"></circle><circle cx="48" cy="466" r="2"></circle><circle cx="58" cy="471" r="2"></circle><circle cx="68" cy="463" r="2"></circle><circle cx="77" cy="458" r="2"></circle><circle cx="87" cy="455" r="2"></circle><circle cx="97" cy="450" r="2"></circle><circle cx="107" cy="448" r="2"></circle><circle cx="117" cy="449" r="2"></circle><circle cx="127" cy="449" r="2"></circle><circle cx="136" cy="450" r="2"></circle><circle cx="146" cy="447" r="2"></circle><circle cx="156" cy="440" r="2"></circle><circle cx="166" cy="436" r="2"></circle><circle cx="176" cy="438" r="2"></circle><circle cx="185" cy="443" r="2"></circle><circle cx="195" cy="446" r="2"></circle><circle cx="205" cy="455" r="2"></circle><circle cx="215" cy="457" r="2"></circle><circle cx="225" cy="462" r="2"></circle><circle cx="235" cy="466" r="2"></circle><circle cx="244" cy="467" r="2"></circle><circle cx="254" cy="469" r="2"></circle><circle cx="264" cy="467" r="2"></circle><circle cx="274" cy="467" r="2"></circle><circle cx="284" cy="470" r="2"></circle><circle cx="293" cy="471" r="2"></circle><circle cx="303" cy="468" r="2"></circle><circle cx="313" cy="469" r="2"></circle><circle cx="323" cy="465" r="2"></circle><circle cx="333" cy="464" r="2"></circle><circle cx="343" cy="469" r="2"></circle><circle cx="352" cy="472" r="2"></circle><circle cx="362" cy="475" r="2"></circle><circle cx="372" cy="476" r="2"></circle><circle cx="382" cy="476" r="2"></circle><circle cx="392" cy="484" r="2"></circle><circle cx="401" cy="487" r="2"></circle><circle cx="411" cy="486" r="2"></circle><circle cx="421" cy="495" r="2"></circle><circle cx="431" cy="495" r="2"></circle><circle cx="441" cy="497" r="2"></circle><circle cx="451" cy="496" r="2"></circle><circle cx="460" cy="498" r="2"></circle><circle cx="470" cy="500" r="2"></circle><circle cx="480" cy="501" r="2"></circle><circle cx="490" cy="499" r="2"></circle><circle cx="500" cy="500" r="2"></circle><circle cx="510" cy="499" r="2"></circle><circle cx="519" cy="499" r="2"></circle><circle cx="529" cy="499" r="2"></circle><circle cx="539" cy="502" r="2"></circle><circle cx="549" cy="500" r="2"></circle><circle cx="559" cy="501" r="2"></circle><circle cx="568" cy="499" r="2"></circle></g></g></g></g></g><g style="fill: #777;" class="SourcesFooter"><g style="fill: #777;" class="clickable"><text font-size="12.60" x="15.0" y="581.6"><tspan x="15" y="581.58">Source: World Health Organization (2005)</tspan></text></g><text font-size="12.60" x="602.7" y="581.6"><tspan x="602.656" y="581.58"><a target='_blank' style='fill: #777;' href='https://ourworldindata.org/suicide/'>OurWorldInData.org/suicide/</a> • <a style="fill: #777;" href="http://creativecommons.org/licenses/by-sa/4.0/deed.en_US" target="_blank">CC BY-SA</a></tspan></text></g></g></svg>