<svg xmlns="http://www.w3.org/2000/svg" version="1.1" style="font-family: 'Helvetica Neue', Helvetica, Arial, sans-serif; font-size: 18px; background-color: white; text-rendering: optimizeLegibility; -webkit-font-smoothing: antialiased;" width="850" height="600"><g class="ChartTab"><g class="HeaderView"><g opacity="0.8" transform="translate(770, 15) scale(0.31)"><a xmlns:xlink="http://www.w3.org/1999/xlink" xlink:href="https://ourworldindata.org" target="_blank"><g><rect x="0" y="0" fill="#1B2543" width="211.2" height="130.1"/><rect x="0" y="112.2" fill="#E63912" width="211.2" height="17.9"/><g><rect x="1.2" y="12.3" fill="none" width="210.2" height="99.2"/><path fill="#FFFFFF" d="M37.8,32.2c0,12.7-7.7,19.4-17.1,19.4c-9.7,0-16.6-7.5-16.6-18.7c0-11.7,7.3-19.3,17.1-19.3 C31.3,13.7,37.8,21.3,37.8,32.2z M9.2,32.8c0,7.9,4.3,14.9,11.8,14.9c7.5,0,11.8-6.9,11.8-15.3c0-7.3-3.8-14.9-11.8-14.9 C13.1,17.5,9.2,24.8,9.2,32.8z"/><path fill="#FFFFFF" d="M62.7,43.8c0,2.7,0.1,5.1,0.2,7.2h-4.3l-0.3-4.3h-0.1c-1.3,2.1-4,4.9-8.8,4.9c-4.2,0-9.1-2.3-9.1-11.6 V24.6h4.8v14.6c0,5,1.5,8.4,5.9,8.4c3.2,0,5.5-2.2,6.3-4.4c0.3-0.7,0.4-1.6,0.4-2.5V24.6h4.8V43.8z"/><path fill="#FFFFFF" d="M67.3,32.8c0-3.1-0.1-5.8-0.2-8.2h4.2l0.2,5.2h0.2c1.2-3.5,4.1-5.8,7.3-5.8c0.5,0,0.9,0.1,1.4,0.2v4.5 c-0.5-0.1-1-0.2-1.6-0.2c-3.4,0-5.8,2.6-6.5,6.2c-0.1,0.7-0.2,1.4-0.2,2.2V51h-4.8V32.8z"/><path fill="#FFFFFF" d="M95.4,51l-9.4-36.8h5l4.4,18.6c1.1,4.6,2.1,9.2,2.7,12.7h0.1c0.6-3.7,1.8-8,3-12.8l4.9-18.5h5l4.5,18.7 c1,4.4,2,8.7,2.6,12.6h0.1c0.8-4,1.8-8.1,3-12.7l4.9-18.5h4.9L120.6,51h-5L111,31.9c-1.1-4.7-1.9-8.3-2.4-12h-0.1 c-0.7,3.7-1.5,7.3-2.8,12L100.4,51H95.4z"/><path fill="#FFFFFF" d="M154.9,37.6c0,9.8-6.8,14-13.2,14c-7.2,0-12.7-5.2-12.7-13.6c0-8.8,5.8-14,13.1-14 C149.8,24,154.9,29.5,154.9,37.6z M133.9,37.9c0,5.8,3.3,10.1,8,10.1c4.6,0,8-4.3,8-10.3c0-4.5-2.2-10.1-7.9-10.1 C136.3,27.6,133.9,32.8,133.9,37.9z"/><path fill="#FFFFFF" d="M158.2,32.8c0-3.1-0.1-5.8-0.2-8.2h4.2l0.2,5.2h0.2c1.2-3.5,4.1-5.8,7.3-5.8c0.5,0,0.9,0.1,1.4,0.2v4.5 c-0.5-0.1-1-0.2-1.6-0.2c-3.4,0-5.8,2.6-6.5,6.2c-0.1,0.7-0.2,1.4-0.2,2.2V51h-4.8V32.8z"/><path fill="#FFFFFF" d="M173.5,12.3h4.8V51h-4.8V12.3z"/><path fill="#FFFFFF" d="M206.5,12.3v31.9c0,2.3,0.1,5,0.2,6.8h-4.3l-0.2-4.6H202c-1.5,2.9-4.7,5.2-9,5.2 c-6.4,0-11.3-5.4-11.3-13.4c-0.1-8.8,5.4-14.2,11.9-14.2c4,0,6.8,1.9,8,4h0.1V12.3H206.5z M201.7,35.4c0-0.6-0.1-1.4-0.2-2 c-0.7-3.1-3.3-5.6-6.9-5.6c-5,0-7.9,4.4-7.9,10.2c0,5.3,2.6,9.8,7.8,9.8c3.2,0,6.2-2.1,7.1-5.7c0.2-0.7,0.2-1.3,0.2-2.1V35.4z"/><path fill="#FFFFFF" d="M42.8,64c0.1,1.6-1.1,2.9-3.1,2.9c-1.7,0-2.9-1.3-2.9-2.9c0-1.7,1.3-3,3-3C41.7,61,42.8,62.3,42.8,64z M37.4,97.8V71.4h4.8v26.4H37.4z"/><path fill="#FFFFFF" d="M47.5,78.6c0-2.7-0.1-5-0.2-7.1h4.3l0.3,4.4h0.1c1.3-2.5,4.4-5,8.8-5c3.7,0,9.4,2.2,9.4,11.2v15.8h-4.8 V82.6c0-4.3-1.6-7.8-6.1-7.8c-3.2,0-5.6,2.2-6.5,4.9c-0.2,0.6-0.3,1.4-0.3,2.2v15.9h-4.8V78.6z"/><path fill="#FFFFFF" d="M84,61.6c2.9-0.4,6.3-0.8,10.1-0.8c6.8,0,11.7,1.6,14.9,4.6c3.3,3,5.2,7.3,5.2,13.2c0,6-1.9,10.9-5.3,14.3 c-3.4,3.4-9.1,5.3-16.3,5.3c-3.4,0-6.2-0.2-8.6-0.4V61.6z M88.8,94.1c1.2,0.2,3,0.3,4.8,0.3c10.2,0,15.7-5.7,15.7-15.6 c0.1-8.7-4.9-14.2-14.9-14.2c-2.5,0-4.3,0.2-5.6,0.5V94.1z"/><path fill="#FFFFFF" d="M132.1,97.8l-0.4-3.3h-0.2c-1.5,2.1-4.3,3.9-8.1,3.9c-5.4,0-8.1-3.8-8.1-7.6c0-6.4,5.7-9.9,15.9-9.8v-0.5 c0-2.2-0.6-6.1-6-6.1c-2.5,0-5,0.8-6.9,2l-1.1-3.2c2.2-1.4,5.4-2.3,8.7-2.3c8.1,0,10.1,5.5,10.1,10.8v9.9c0,2.3,0.1,4.5,0.4,6.3 H132.1z M131.4,84.4c-5.3-0.1-11.2,0.8-11.2,5.9c0,3.1,2.1,4.6,4.5,4.6c3.4,0,5.6-2.2,6.4-4.4c0.2-0.5,0.3-1,0.3-1.5V84.4z"/><path fill="#FFFFFF" d="M146.6,63.9v7.6h6.9v3.7h-6.9v14.2c0,3.3,0.9,5.1,3.6,5.1c1.3,0,2.2-0.2,2.8-0.3l0.2,3.6 c-0.9,0.4-2.4,0.7-4.3,0.7c-2.2,0-4-0.7-5.2-2c-1.4-1.4-1.9-3.8-1.9-6.9V75.1h-4.1v-3.7h4.1v-6.3L146.6,63.9z"/><path fill="#FFFFFF" d="M171.4,97.8l-0.4-3.3h-0.2c-1.5,2.1-4.3,3.9-8.1,3.9c-5.4,0-8.1-3.8-8.1-7.6c0-6.4,5.7-9.9,15.9-9.8v-0.5 c0-2.2-0.6-6.1-6-6.1c-2.5,0-5,0.8-6.9,2l-1.1-3.2c2.2-1.4,5.4-2.3,8.7-2.3c8.1,0,10.1,5.5,10.1,10.8v9.9c0,2.3,0.1,4.5,0.4,6.3 H171.4z M170.7,84.4c-5.3-0.1-11.2,0.8-11.2,5.9c0,3.1,2.1,4.6,4.5,4.6c3.4,0,5.6-2.2,6.4-4.4c0.2-0.5,0.3-1,0.3-1.5V84.4z"/></g></g></a></g><a href="https://ourworldindata.org/grapher/Male-Female-Ratio-of-Suicide-Rates" target="_blank"><text font-size="27.00" x="15.0" y="36.6" fill="#555"><tspan x="15" y="36.6">Male to female ratio of suicide rates</tspan></text></a><text font-size="14.40" x="15.0" y="55.5" fill="#666"><tspan x="15" y="55.519999999999996">Gender ratio of suicides per 100,000 people per year. Values higher than 1 indicate countries where more men die</tspan><tspan x="15" y="71.36">from suicide than women.</tspan></text></g><g class="LineChart"><defs><clipPath id="boundsClip-203"><rect x="19.072000000000003" y="0" width="830" height="870.4000000000001"></rect></clipPath></defs><g class="AxisBoxView"><g class="HorizontalAxis"><text x="29.1" y="529.1" fill="#666" text-anchor="middle" font-size="16.2">1950</text><text x="154.6" y="529.1" fill="#666" text-anchor="middle" font-size="16.2">1960</text><text x="280.2" y="529.1" fill="#666" text-anchor="middle" font-size="16.2">1970</text><text x="405.8" y="529.1" fill="#666" text-anchor="middle" font-size="16.2">1980</text><text x="531.4" y="529.1" fill="#666" text-anchor="middle" font-size="16.2">1990</text><text x="657" y="529.1" fill="#666" text-anchor="middle" font-size="16.2">2000</text><text x="707.2" y="529.1" fill="#666" text-anchor="middle" font-size="16.2">2004</text></g><g class="VerticalAxis"><text x="24.07" y="507.9" fill="#666" dominant-baseline="middle" text-anchor="end" font-size="16.2">0</text><text x="24.07" y="449" fill="#666" dominant-baseline="middle" text-anchor="end" font-size="16.2">1</text><text x="24.07" y="390" fill="#666" dominant-baseline="middle" text-anchor="end" font-size="16.2">2</text><text x="24.07" y="331.1" fill="#666" dominant-baseline="middle" text-anchor="end" font-size="16.2">3</text><text x="24.07" y="272.2" fill="#666" dominant-baseline="middle" text-anchor="end" font-size="16.2">4</text><text x="24.07" y="213.3" fill="#666" dominant-baseline="middle" text-anchor="end" font-size="16.2">5</text><text x="24.07" y="154.3" fill="#666" dominant-baseline="middle" text-anchor="end" font-size="16.2">6</text><text x="24.07" y="95.4" fill="#666" dominant-baseline="middle" text-anchor="end" font-size="16.2">7</text></g><g class="AxisGridLines"><line x1="29.07" y1="507.9" x2="707.18" y2="507.9" stroke="#ccc"></line><line x1="29.07" y1="449" x2="707.18" y2="449" stroke="#ddd" stroke-dasharray="3,2"></line><line x1="29.07" y1="390" x2="707.18" y2="390" stroke="#ddd" stroke-dasharray="3,2"></line><line x1="29.07" y1="331.1" x2="707.18" y2="331.1" stroke="#ddd" stroke-dasharray="3,2"></line><line x1="29.07" y1="272.2" x2="707.18" y2="272.2" stroke="#ddd" stroke-dasharray="3,2"></line><line x1="29.07" y1="213.3" x2="707.18" y2="213.3" stroke="#ddd" stroke-dasharray="3,2"></line><line x1="29.07" y1="154.3" x2="707.18" y2="154.3" stroke="#ddd" stroke-dasharray="3,2"></line><line x1="29.07" y1="95.4" x2="707.18" y2="95.4" stroke="#ddd" stroke-dasharray="3,2"></line></g><g class="AxisGridLines"><line x1="29.1" y1="507.90" x2="29.1" y2="93.90" stroke="#ddd" stroke-dasharray="3,2"></line><line x1="154.6" y1="507.90" x2="154.6" y2="93.90" stroke="#ddd" stroke-dasharray="3,2"></line><line x1="280.2" y1="507.90" x2="280.2" y2="93.90" stroke="#ddd" stroke-dasharray="3,2"></line><line x1="405.8" y1="507.90" x2="405.8" y2="93.90" stroke="#ddd" stroke-dasharray="3,2"></line><line x1="531.4" y1="507.90" x2="531.4" y2="93.90" stroke="#ddd" stroke-dasharray="3,2"></line><line x1="657" y1="507.90" x2="657" y2="93.90" stroke="#ddd" stroke-dasharray="3,2"></line></g></g><g clip-path="url(#boundsClip-203)"><g class="HeightedLegend clickable"><g class="legendMark"><rect x="717.184" y="123.2" width="59.06400000000001" height="14.4" fill="#fff" opacity="0"></rect><rect x="717.184" y="129.15" width="10" height="2.5" fill="#a652ba"></rect><text font-size="14.40" x="732.2" y="134.7" fill="#333"><tspan x="732.184" y="134.72">Russia</tspan></text></g><g class="legendMark"><rect x="717.184" y="183.5" width="59.208000000000006" height="14.4" fill="#fff" opacity="0"></rect><rect x="717.184" y="189.45" width="10" height="2.5" fill="#f6a324"></rect><text font-size="14.40" x="732.2" y="195.0" fill="#333"><tspan x="732.184" y="195.02">Ireland</tspan></text></g><g class="legendMark"><rect x="717.184" y="231.9" width="83.4" height="14.4" fill="#fff" opacity="0"></rect><rect x="717.184" y="237.85" width="10" height="2.5" fill="#34983f"></rect><text font-size="14.40" x="732.2" y="243.4" fill="#333"><tspan x="732.184" y="243.42000000000002">Venezuela</tspan></text></g><g class="legendMark"><rect x="717.184" y="296.40000000000003" width="74.328" height="14.4" fill="#fff" opacity="0"></rect><rect x="717.184" y="302.35" width="10" height="2.5" fill="#ca2628"></rect><text font-size="14.40" x="732.2" y="307.9" fill="#333"><tspan x="732.184" y="307.92">Germany</tspan></text></g><g class="legendMark"><rect x="717.184" y="310.8" width="117.81600000000002" height="14.4" fill="#fff" opacity="0"></rect><rect x="717.184" y="316.75" width="10" height="2.5" fill="#3360a9"></rect><text font-size="14.40" x="732.2" y="322.3" fill="#333"><tspan x="732.184" y="322.32">United Kingdom</tspan></text></g></g><g class="Lines"><rect x="29" y="94" width="678" height="414" fill="rgba(255,255,255,0)" opacity="0"></rect><g class="key-Venezuela_0"><path stroke="#34983f" stroke-linecap="round" d="M92 258L104 294L117 287L130 292L142 366L155 322L167 363L180 359L192 344L205 317L217 309L230 333L243 330L255 331L268 334L280 323L293 322L305 319L318 270L331 303L343 292L356 269L368 250L381 252L393 230L406 202L418 227L431 276L444 233L469 217L481 218L494 230L506 153L519 230L531 236L557 139L569 153L582 216L607 154L619 217L632 196L644 196L657 135L670 179L682 196L695 229L707 239" fill="none" stroke-width="1.5"></path><g fill="#34983f"><circle cx="92" cy="258" r="2"></circle><circle cx="104" cy="294" r="2"></circle><circle cx="117" cy="287" r="2"></circle><circle cx="130" cy="292" r="2"></circle><circle cx="142" cy="366" r="2"></circle><circle cx="155" cy="322" r="2"></circle><circle cx="167" cy="363" r="2"></circle><circle cx="180" cy="359" r="2"></circle><circle cx="192" cy="344" r="2"></circle><circle cx="205" cy="317" r="2"></circle><circle cx="217" cy="309" r="2"></circle><circle cx="230" cy="333" r="2"></circle><circle cx="243" cy="330" r="2"></circle><circle cx="255" cy="331" r="2"></circle><circle cx="268" cy="334" r="2"></circle><circle cx="280" cy="323" r="2"></circle><circle cx="293" cy="322" r="2"></circle><circle cx="305" cy="319" r="2"></circle><circle cx="318" cy="270" r="2"></circle><circle cx="331" cy="303" r="2"></circle><circle cx="343" cy="292" r="2"></circle><circle cx="356" cy="269" r="2"></circle><circle cx="368" cy="250" r="2"></circle><circle cx="381" cy="252" r="2"></circle><circle cx="393" cy="230" r="2"></circle><circle cx="406" cy="202" r="2"></circle><circle cx="418" cy="227" r="2"></circle><circle cx="431" cy="276" r="2"></circle><circle cx="444" cy="233" r="2"></circle><circle cx="469" cy="217" r="2"></circle><circle cx="481" cy="218" r="2"></circle><circle cx="494" cy="230" r="2"></circle><circle cx="506" cy="153" r="2"></circle><circle cx="519" cy="230" r="2"></circle><circle cx="531" cy="236" r="2"></circle><circle cx="557" cy="139" r="2"></circle><circle cx="569" cy="153" r="2"></circle><circle cx="582" cy="216" r="2"></circle><circle cx="607" cy="154" r="2"></circle><circle cx="619" cy="217" r="2"></circle><circle cx="632" cy="196" r="2"></circle><circle cx="644" cy="196" r="2"></circle><circle cx="657" cy="135" r="2"></circle><circle cx="670" cy="179" r="2"></circle><circle cx="682" cy="196" r="2"></circle><circle cx="695" cy="229" r="2"></circle><circle cx="707" cy="239" r="2"></circle></g></g><g class="key-Russia_0"><path stroke="#a652ba" stroke-linecap="round" d="M406 215L418 201L431 199L469 216L481 270L494 261L506 261L519 230L531 230L544 219L557 197L569 163L582 137L594 154L607 135L619 147L632 145L644 148L657 113L670 110L682 124L695 119L707 130" fill="none" stroke-width="1.5"></path><g fill="#a652ba"><circle cx="406" cy="215" r="2"></circle><circle cx="418" cy="201" r="2"></circle><circle cx="431" cy="199" r="2"></circle><circle cx="469" cy="216" r="2"></circle><circle cx="481" cy="270" r="2"></circle><circle cx="494" cy="261" r="2"></circle><circle cx="506" cy="261" r="2"></circle><circle cx="519" cy="230" r="2"></circle><circle cx="531" cy="230" r="2"></circle><circle cx="544" cy="219" r="2"></circle><circle cx="557" cy="197" r="2"></circle><circle cx="569" cy="163" r="2"></circle><circle cx="582" cy="137" r="2"></circle><circle cx="594" cy="154" r="2"></circle><circle cx="607" cy="135" r="2"></circle><circle cx="619" cy="147" r="2"></circle><circle cx="632" cy="145" r="2"></circle><circle cx="644" cy="148" r="2"></circle><circle cx="657" cy="113" r="2"></circle><circle cx="670" cy="110" r="2"></circle><circle cx="682" cy="124" r="2"></circle><circle cx="695" cy="119" r="2"></circle><circle cx="707" cy="130" r="2"></circle></g></g><g class="key-Germany_0"><path stroke="#ca2628" stroke-linecap="round" d="M531 342L544 340L557 336L569 329L582 321L594 323L607 326L619 320L632 309L644 317L657 309L670 306L682 316L695 313L707 304" fill="none" stroke-width="1.5"></path><g fill="#ca2628"><circle cx="531" cy="342" r="2"></circle><circle cx="544" cy="340" r="2"></circle><circle cx="557" cy="336" r="2"></circle><circle cx="569" cy="329" r="2"></circle><circle cx="582" cy="321" r="2"></circle><circle cx="594" cy="323" r="2"></circle><circle cx="607" cy="326" r="2"></circle><circle cx="619" cy="320" r="2"></circle><circle cx="632" cy="309" r="2"></circle><circle cx="644" cy="317" r="2"></circle><circle cx="657" cy="309" r="2"></circle><circle cx="670" cy="306" r="2"></circle><circle cx="682" cy="316" r="2"></circle><circle cx="695" cy="313" r="2"></circle><circle cx="707" cy="304" r="2"></circle></g></g><g class="key-Ireland_0"><path stroke="#f6a324" stroke-linecap="round" d="M29 213L42 302L54 282L67 276L79 237L92 296L104 190L117 292L130 305L142 306L155 362L167 281L180 292L192 345L205 205L217 94L230 329L243 336L255 297L268 349L280 192L293 346L305 361L318 357L331 305L343 370L356 368L368 404L381 394L393 335L406 393L418 371L431 343L444 364L456 369L469 299L481 326L494 323L506 352L519 305L531 330L544 240L557 185L569 281L582 300L594 282L607 181L619 249L632 158L644 256L657 224L670 200L682 238L695 283L707 191" fill="none" stroke-width="1.5"></path><g fill="#f6a324"><circle cx="29" cy="213" r="2"></circle><circle cx="42" cy="302" r="2"></circle><circle cx="54" cy="282" r="2"></circle><circle cx="67" cy="276" r="2"></circle><circle cx="79" cy="237" r="2"></circle><circle cx="92" cy="296" r="2"></circle><circle cx="104" cy="190" r="2"></circle><circle cx="117" cy="292" r="2"></circle><circle cx="130" cy="305" r="2"></circle><circle cx="142" cy="306" r="2"></circle><circle cx="155" cy="362" r="2"></circle><circle cx="167" cy="281" r="2"></circle><circle cx="180" cy="292" r="2"></circle><circle cx="192" cy="345" r="2"></circle><circle cx="205" cy="205" r="2"></circle><circle cx="217" cy="94" r="2"></circle><circle cx="230" cy="329" r="2"></circle><circle cx="243" cy="336" r="2"></circle><circle cx="255" cy="297" r="2"></circle><circle cx="268" cy="349" r="2"></circle><circle cx="280" cy="192" r="2"></circle><circle cx="293" cy="346" r="2"></circle><circle cx="305" cy="361" r="2"></circle><circle cx="318" cy="357" r="2"></circle><circle cx="331" cy="305" r="2"></circle><circle cx="343" cy="370" r="2"></circle><circle cx="356" cy="368" r="2"></circle><circle cx="368" cy="404" r="2"></circle><circle cx="381" cy="394" r="2"></circle><circle cx="393" cy="335" r="2"></circle><circle cx="406" cy="393" r="2"></circle><circle cx="418" cy="371" r="2"></circle><circle cx="431" cy="343" r="2"></circle><circle cx="444" cy="364" r="2"></circle><circle cx="456" cy="369" r="2"></circle><circle cx="469" cy="299" r="2"></circle><circle cx="481" cy="326" r="2"></circle><circle cx="494" cy="323" r="2"></circle><circle cx="506" cy="352" r="2"></circle><circle cx="519" cy="305" r="2"></circle><circle cx="531" cy="330" r="2"></circle><circle cx="544" cy="240" r="2"></circle><circle cx="557" cy="185" r="2"></circle><circle cx="569" cy="281" r="2"></circle><circle cx="582" cy="300" r="2"></circle><circle cx="594" cy="282" r="2"></circle><circle cx="607" cy="181" r="2"></circle><circle cx="619" cy="249" r="2"></circle><circle cx="632" cy="158" r="2"></circle><circle cx="644" cy="256" r="2"></circle><circle cx="657" cy="224" r="2"></circle><circle cx="670" cy="200" r="2"></circle><circle cx="682" cy="238" r="2"></circle><circle cx="695" cy="283" r="2"></circle><circle cx="707" cy="191" r="2"></circle></g></g><g class="key-United-Kingdom_0"><path stroke="#3360a9" stroke-linecap="round" d="M29 382L42 386L54 378L67 384L79 387L92 395L104 397L117 401L130 400L142 402L155 402L167 408L180 408L192 411L205 415L217 417L230 416L243 409L255 410L268 410L280 413L293 413L305 412L318 411L331 411L343 411L356 403L368 406L381 402L393 401L406 400L418 387L431 379L444 373L456 368L469 365L481 344L494 343L506 327L519 312L531 296L544 285L557 285L569 282L582 278L594 275L607 298L619 291L632 285L644 285L657 296L670 280L682 292L695 296L707 308" fill="none" stroke-width="1.5"></path><g fill="#3360a9"><circle cx="29" cy="382" r="2"></circle><circle cx="42" cy="386" r="2"></circle><circle cx="54" cy="378" r="2"></circle><circle cx="67" cy="384" r="2"></circle><circle cx="79" cy="387" r="2"></circle><circle cx="92" cy="395" r="2"></circle><circle cx="104" cy="397" r="2"></circle><circle cx="117" cy="401" r="2"></circle><circle cx="130" cy="400" r="2"></circle><circle cx="142" cy="402" r="2"></circle><circle cx="155" cy="402" r="2"></circle><circle cx="167" cy="408" r="2"></circle><circle cx="180" cy="408" r="2"></circle><circle cx="192" cy="411" r="2"></circle><circle cx="205" cy="415" r="2"></circle><circle cx="217" cy="417" r="2"></circle><circle cx="230" cy="416" r="2"></circle><circle cx="243" cy="409" r="2"></circle><circle cx="255" cy="410" r="2"></circle><circle cx="268" cy="410" r="2"></circle><circle cx="280" cy="413" r="2"></circle><circle cx="293" cy="413" r="2"></circle><circle cx="305" cy="412" r="2"></circle><circle cx="318" cy="411" r="2"></circle><circle cx="331" cy="411" r="2"></circle><circle cx="343" cy="411" r="2"></circle><circle cx="356" cy="403" r="2"></circle><circle cx="368" cy="406" r="2"></circle><circle cx="381" cy="402" r="2"></circle><circle cx="393" cy="401" r="2"></circle><circle cx="406" cy="400" r="2"></circle><circle cx="418" cy="387" r="2"></circle><circle cx="431" cy="379" r="2"></circle><circle cx="444" cy="373" r="2"></circle><circle cx="456" cy="368" r="2"></circle><circle cx="469" cy="365" r="2"></circle><circle cx="481" cy="344" r="2"></circle><circle cx="494" cy="343" r="2"></circle><circle cx="506" cy="327" r="2"></circle><circle cx="519" cy="312" r="2"></circle><circle cx="531" cy="296" r="2"></circle><circle cx="544" cy="285" r="2"></circle><circle cx="557" cy="285" r="2"></circle><circle cx="569" cy="282" r="2"></circle><circle cx="582" cy="278" r="2"></circle><circle cx="594" cy="275" r="2"></circle><circle cx="607" cy="298" r="2"></circle><circle cx="619" cy="291" r="2"></circle><circle cx="632" cy="285" r="2"></circle><circle cx="644" cy="285" r="2"></circle><circle cx="657" cy="296" r="2"></circle><circle cx="670" cy="280" r="2"></circle><circle cx="682" cy="292" r="2"></circle><circle cx="695" cy="296" r="2"></circle><circle cx="707" cy="308" r="2"></circle></g></g></g></g></g><g style="fill: #777;" class="SourcesFooter"><g style="fill: #777;" class="clickable"><text font-size="12.60" x="15.0" y="554.2"><tspan x="15" y="554.1800000000001">Source: World Health Organization (2005)</tspan></text></g><text font-size="12.60" x="15.0" y="568.8"><tspan x="15" y="568.7800000000001">Note: Suicide rates are adjusted for the changing age structure of the population. This chart shows a ratio and does not depict the overall number</tspan><tspan x="15" y="582.6400000000001">or frequency of suicides in a country.</tspan></text><text font-size="12.60" x="602.7" y="554.2"><tspan x="602.656" y="554.1800000000001"><a target='_blank' style='fill: #777;' href='https://ourworldindata.org/suicide/'>OurWorldInData.org/suicide/</a> • <a style="fill: #777;" href="http://creativecommons.org/licenses/by-sa/4.0/deed.en_US" target="_blank">CC BY-SA</a></tspan></text></g></g></svg>