<svg xmlns="http://www.w3.org/2000/svg" version="1.1" style="font-family: 'Helvetica Neue', Helvetica, Arial, sans-serif; font-size: 24px; background-color: white;" width="1200" height="630"><g class="ChartTab"><g><g class="AxisBoxView"><g class="HorizontalAxis"><text font-size="16.80" x="236.6" y="596.6"><tspan x="236.5800000000001" y="596.64">Median monthly per capita expenditure in 2011 int-$ (PovcalNet 2017) in 1985</tspan></text><text x="448.1" y="573.2" fill="#666" text-anchor="middle" font-size="21.6">$100</text><text x="982.5" y="573.2" fill="#666" text-anchor="middle" font-size="21.6">$1,000</text></g><g class="VerticalAxis"><text font-size="16.80" x="-555.1" y="28.4" transform="rotate(-90)"><tspan x="-555.136" y="28.439999999999998">Median monthly per capita expenditure in 2011 int-$ (PovcalNet</tspan><tspan x="-555.136" y="46.919999999999995">2017)</tspan></text><text x="126.23" y="437.7" fill="#666" dominant-baseline="middle" text-anchor="end" font-size="21.6">$100</text><text x="126.23" y="92.4" fill="#666" dominant-baseline="middle" text-anchor="end" font-size="21.6">$1,000</text></g><g class="AxisGridLines"><line x1="113.33" y1="437.7" x2="1041.46" y2="437.7" stroke="#ddd" stroke-dasharray="3,2"></line><line x1="113.33" y1="92.4" x2="1041.46" y2="92.4" stroke="#ddd" stroke-dasharray="3,2"></line></g><g class="AxisGridLines"><line x1="448.1" y1="546.60" x2="448.1" y2="35.00" stroke="#ddd" stroke-dasharray="3,2"></line><line x1="982.5" y1="546.60" x2="982.5" y2="35.00" stroke="#ddd" stroke-dasharray="3,2"></line></g></g><g class="ComparisonLine"><defs><clipPath id="axisBounds-653"><rect x="113.328" y="35" width="928.1280000000002" height="511.6"></rect></clipPath></defs><path d="M113.3,654.1L212.9,589.8L282.3,544.9L335.7,510.4L379,482.4L415.6,458.8L447.1,438.4L474.9,420.5L499.7,404.4L522.1,389.9L542.5,376.7L561.3,364.6L578.7,353.4L594.8,342.9L609.9,333.2L624.1,324L637.5,315.4L650.1,307.2L662.1,299.4L673.5,292.1L684.4,285.1L694.7,278.4L704.7,271.9L714.2,265.8L723.4,259.9L732.2,254.2L740.6,248.7L748.8,243.4L756.7,238.3L764.4,233.4L771.8,228.6L778.9,223.9L785.9,219.4L792.6,215.1L799.2,210.8L805.6,206.7L811.8,202.7L817.8,198.8L823.7,195L829.5,191.3L835.1,187.6L840.6,184.1L845.9,180.6L851.2,177.2L856.3,173.9L861.3,170.7L866.2,167.5L871,164.4L875.7,161.4L880.3,158.4L884.8,155.5L889.2,152.6L893.6,149.8L897.9,147.1L902,144.4L906.2,141.7L910.2,139.1L914.2,136.5L918.1,134L921.9,131.5L925.7,129.1L929.4,126.6L933.1,124.3L936.7,122L940.3,119.7L943.8,117.4L947.2,115.2L950.6,113L953.9,110.8L957.2,108.7L960.5,106.6L963.7,104.5L966.9,102.5L970,100.4L973.1,98.5L976.1,96.5L979.1,94.6L982.1,92.6L985,90.7L987.9,88.9L990.7,87L993.5,85.2L996.3,83.4L999.1,81.6L1001.8,79.9L1004.5,78.1L1007.1,76.4L1009.8,74.7L1012.4,73.1L1014.9,71.4L1017.5,69.7L1020,68.1L1022.5,66.5L1024.9,64.9L1027.4,63.4L1029.8,61.8L1032.2,60.3L1034.5,58.7L1036.9,57.2L1039.2,55.7" clip-path="url(#axisBounds-653)" fill="none" stroke="#ccc"></path></g><g clip-path="url(#scatterBounds-654)" class="PointsWithLabels clickable"><rect x="113.328" y="35" width="928.1280000000002" height="511.6" fill="rgba(255,255,255,0)"></rect><defs><clipPath id="scatterBounds-654"><rect x="103.328" y="25" width="948.1280000000002" height="531.6"></rect></clipPath></defs><circle cx="1041" cy="35" r="17.841241161527712" fill="#4d824b" opacity="0.8"></circle><circle cx="477" cy="246" r="14.164096314829715" fill="#69c487" opacity="0.8"></circle><circle cx="284" cy="423" r="13.559794083051376" fill="#d14e5b" opacity="0.8"></circle><circle cx="556" cy="178" r="11.979039185419465" fill="#ffd336" opacity="0.8"></circle><circle cx="601" cy="322" r="10.889377450589073" fill="#4d824b" opacity="0.8"></circle><circle cx="411" cy="411" r="9.966796076534095" fill="#d14e5b" opacity="0.8"></circle><circle cx="595" cy="232" r="8.818748444010374" fill="#d14e5b" opacity="0.8"></circle><circle cx="628" cy="233" r="8.759512397842009" fill="#d14e5b" opacity="0.8"></circle><circle cx="484" cy="255" r="8.464400081465033" fill="#d14e5b" opacity="0.8"></circle><circle cx="581" cy="252" r="6.801706937072537" fill="#ffd336" opacity="0.8"></circle><circle cx="771" cy="220" r="6.319735666861842" fill="#ffd336" opacity="0.8"></circle><circle cx="113" cy="483" r="6.194885387533944" fill="#5675c1" opacity="0.8"></circle><circle cx="494" cy="268" r="5.633412853716756" fill="#69c487" opacity="0.8"></circle><circle cx="455" cy="362" r="4.807249923043896" fill="#d14e5b" opacity="0.8"></circle><circle cx="769" cy="307" r="4.80155637204894" fill="#ffd336" opacity="0.8"></circle><circle cx="587" cy="218" r="4.394850450846365" fill="#69c487" opacity="0.8"></circle><circle cx="776" cy="264" r="4.2775903142143825" fill="#d14e5b" opacity="0.8"></circle><circle cx="315" cy="360" r="4.157025764258169" fill="#4d824b" opacity="0.8"></circle><circle cx="488" cy="301" r="4.1009444638040415" fill="#69c487" opacity="0.8"></circle><circle cx="285" cy="546" r="3.6588125564552283" fill="#5675c1" opacity="0.8"></circle><circle cx="842" cy="142" r="3.5177837657014637" fill="#ffd336" opacity="0.8"></circle><circle cx="381" cy="302" r="3.47784519905497" fill="#4d824b" opacity="0.8"></circle><circle cx="857" cy="196" r="3.423885896385516" fill="#ffd336" opacity="0.8"></circle><circle cx="696" cy="177" r="3.3601011705984214" fill="#ffd336" opacity="0.8"></circle><circle cx="391" cy="375" r="3.1420778258082347" fill="#4d824b" opacity="0.8"></circle><circle cx="882" cy="231" r="3.0257592837588905" fill="#ffd336" opacity="0.8"></circle><circle cx="707" cy="249" r="2.9338583645938643" fill="#69c487" opacity="0.8"></circle><circle cx="460" cy="390" r="2.7057048535413153" fill="#d14e5b" opacity="0.8"></circle><circle cx="846" cy="126" r="2.703045229708151" fill="#ffd336" opacity="0.8"></circle><circle cx="560" cy="219" r="2.584891545063132" fill="#4d824b" opacity="0.8"></circle><circle cx="858" cy="212" r="2.4907019081265926" fill="#ffd336" opacity="0.8"></circle><circle cx="369" cy="379" r="2.352344526202639" fill="#5675c1" opacity="0.8"></circle><circle cx="564" cy="228" r="2.3468153550893542" fill="#4d824b" opacity="0.8"></circle><circle cx="777" cy="302" r="2.307835622203564" fill="#ffd336" opacity="0.8"></circle><circle cx="810" cy="175" r="2.2878282617760295" fill="#69c487" opacity="0.8"></circle><circle cx="750" cy="198" r="2.26057019592711" fill="#ffd336" opacity="0.8"></circle><circle cx="903" cy="212" r="2.016145129365922" fill="#ffd336" opacity="0.8"></circle><circle cx="836" cy="106" r="1.9709160306806075" fill="#ffd336" opacity="0.8"></circle><circle cx="823" cy="175" r="1.7841241161527712" fill="#ffd336" opacity="0.8"></circle><circle cx="211" cy="372" r="1.361192728233159" fill="#000" opacity="0.8"></circle><circle cx="334" cy="274" r="1.361192728233159" fill="#000" opacity="0.8"></circle><circle cx="293" cy="475" r="1.361192728233159" fill="#000" opacity="0.8"></circle><circle cx="371" cy="427" r="1.361192728233159" fill="#000" opacity="0.8"></circle><circle cx="233" cy="426" r="1.361192728233159" fill="#000" opacity="0.8"></circle><circle cx="330" cy="397" r="1.361192728233159" fill="#000" opacity="0.8"></circle><circle cx="845" cy="215" r="1.361192728233159" fill="#000" opacity="0.8"></circle><text x="954.771" y="49.3" font-size="14.3" font-family="Arial Narrow, Arial, sans-serif" fill="#666">United States</text><text x="477" y="230.83590368517028" font-size="13.067571404719475" font-family="Arial Narrow, Arial, sans-serif" fill="#666">Brazil</text><text x="284" y="408.4402059169486" font-size="12.892128023199282" font-family="Arial Narrow, Arial, sans-serif" fill="#666">Pakistan</text><text x="556" y="165.02096081458055" font-size="12.469367714024445" font-family="Arial Narrow, Arial, sans-serif" fill="#666">Russia</text><text x="601" y="310.11062254941095" font-size="12.208418247000672" font-family="Arial Narrow, Arial, sans-serif" fill="#666">Mexico</text><text x="411" y="400.0332039234659" font-size="12.006921549753132" font-family="Arial Narrow, Arial, sans-serif" fill="#666">Philippines</text><text x="595" y="222.18125155598966" font-size="11.781075596395723" font-family="Arial Narrow, Arial, sans-serif" fill="#666">Iran</text><text x="628" y="223.240487602158" font-size="11.770171477317808" font-family="Arial Narrow, Arial, sans-serif" fill="#666">Turkey</text><text x="484" y="245.53559991853496" font-size="11.716942544031209" font-family="Arial Narrow, Arial, sans-serif" fill="#666">Thailand</text><text x="581" y="244.19829306292746" font-size="11.451133944895329" font-family="Arial Narrow, Arial, sans-serif" fill="#666">Ukraine</text><text x="771" y="212.68026433313815" font-size="11.384907513428022" font-family="Arial Narrow, Arial, sans-serif" fill="#666">Poland</text><text x="113" y="475.80511461246607" font-size="11.368545534089204" font-family="Arial Narrow, Arial, sans-serif" fill="#666">Uganda</text><text x="494" y="261.3665871462832" font-size="11.298998373994344" font-family="Arial Narrow, Arial, sans-serif" fill="#666">Peru</text><text x="455" y="356.1927500769561" font-size="11.208670374643052" font-family="Arial Narrow, Arial, sans-serif" fill="#666">Sri Lanka</text><text x="769" y="301.19844362795106" font-size="11.208097471412414" font-family="Arial Narrow, Arial, sans-serif" fill="#666">Romania</text><text x="776" y="258.72240968578564" font-size="11.158280559191677" font-family="Arial Narrow, Arial, sans-serif" fill="#666">Kazakhstan</text><text x="315" y="354.84297423574185" font-size="11.147631442971985" font-family="Arial Narrow, Arial, sans-serif" fill="#666">Guatemala</text><text x="488" y="295.89905553619593" font-size="11.142781685658932" font-family="Arial Narrow, Arial, sans-serif" fill="#666">Ecuador</text><text x="285" y="541.3411874435448" font-size="11.106854053280905" font-family="Arial Narrow, Arial, sans-serif" fill="#666">Rwanda</text><text x="842" y="137.48221623429853" font-size="11.096255296692101" font-family="Arial Narrow, Arial, sans-serif" fill="#666">Czech Republic</text><text x="381" y="297.52215480094503" font-size="11.093329474971714" font-family="Arial Narrow, Arial, sans-serif" fill="#666">Dominican Republic</text><text x="857" y="191.5761141036145" font-size="11.089429579374306" font-family="Arial Narrow, Arial, sans-serif" fill="#666">Hungary</text><text x="696" y="172.63989882940157" font-size="11.08489820105826" font-family="Arial Narrow, Arial, sans-serif" fill="#666">Belarus</text><text x="391" y="370.85792217419174" font-size="11.070052847785103" font-family="Arial Narrow, Arial, sans-serif" fill="#666">Honduras</text><text x="882" y="226.9742407162411" font-size="11.062539898388694" font-family="Arial Narrow, Arial, sans-serif" fill="#666">Bulgaria</text><text x="707" y="245.06614163540613" font-size="11.05680445667473" font-family="Arial Narrow, Arial, sans-serif" fill="#666">Paraguay</text><text x="460" y="386.2942951464587" font-size="11.043330310830603" font-family="Arial Narrow, Arial, sans-serif" fill="#666">Kyrgyzstan</text><text x="846" y="122.29695477029185" font-size="11.043179668943003" font-family="Arial Narrow, Arial, sans-serif" fill="#666">Slovakia</text><text x="858" y="208.5092980918734" font-size="11.031630572013961" font-family="Arial Narrow, Arial, sans-serif" fill="#666">Croatia</text><text x="810" y="171.71217173822396" font-size="11.021478642695577" font-family="Arial Narrow, Arial, sans-serif" fill="#666">Uruguay</text><text x="750" y="194.7394298040729" font-size="11.02018032146786" font-family="Arial Narrow, Arial, sans-serif" fill="#666">Lithuania</text><text x="903" y="208.98385487063408" font-size="11.009233583991577" font-family="Arial Narrow, Arial, sans-serif" fill="#666">Latvia</text><text x="836" y="103.02908396931939" font-size="11.00734516026259" font-family="Arial Narrow, Arial, sans-serif" fill="#666">Slovenia</text><text x="211" y="369.63880727176684" font-size="10.986069620871751" font-family="Arial Narrow, Arial, sans-serif" fill="#666">China (Rural)</text><text x="334" y="271.63880727176684" font-size="10.986069620871751" font-family="Arial Narrow, Arial, sans-serif" fill="#666">China (Urban)</text><text x="293" y="472.63880727176684" font-size="10.986069620871751" font-family="Arial Narrow, Arial, sans-serif" fill="#666">India (Rural)</text><text x="371" y="424.63880727176684" font-size="10.986069620871751" font-family="Arial Narrow, Arial, sans-serif" fill="#666">India (Urban)</text><text x="233" y="423.63880727176684" font-size="10.986069620871751" font-family="Arial Narrow, Arial, sans-serif" fill="#666">Indonesia (Rural)</text></g><g style="cursor: pointer;" class="ScatterColorLegend clickable"><g class="legendMark"><rect x="1061.4560000000001" y="32.5" width="56.007999999999996" height="21.799999999999997" fill="#fff" opacity="0"></rect>,<rect x="1061.4560000000001" y="39" width="8" height="8" fill="#5675c1"></rect>,<text font-size="16.80" x="1074.5" y="48.4"><tspan x="1074.4560000000001" y="48.44">Africa</tspan></text></g><g class="legendMark"><rect x="1061.4560000000001" y="54.3" width="45.76" height="21.799999999999997" fill="#fff" opacity="0"></rect>,<rect x="1061.4560000000001" y="60.8" width="8" height="8" fill="#d14e5b"></rect>,<text font-size="16.80" x="1074.5" y="70.2"><tspan x="1074.4560000000001" y="70.24">Asia</tspan></text></g><g class="legendMark"><rect x="1061.4560000000001" y="76.1" width="67.43199999999999" height="21.799999999999997" fill="#fff" opacity="0"></rect>,<rect x="1061.4560000000001" y="82.6" width="8" height="8" fill="#ffd336"></rect>,<text font-size="16.80" x="1074.5" y="92.0"><tspan x="1074.4560000000001" y="92.03999999999999">Europe</tspan></text></g><g class="legendMark"><rect x="1061.4560000000001" y="97.89999999999999" width="120.51999999999998" height="21.799999999999997" fill="#fff" opacity="0"></rect>,<rect x="1061.4560000000001" y="104.39999999999999" width="8" height="8" fill="#4d824b"></rect>,<text font-size="16.80" x="1074.5" y="113.8"><tspan x="1074.4560000000001" y="113.83999999999999">North America</tspan></text></g><g class="legendMark"><rect x="1061.4560000000001" y="119.69999999999999" width="123.54399999999998" height="21.799999999999997" fill="#fff" opacity="0"></rect>,<rect x="1061.4560000000001" y="126.19999999999999" width="8" height="8" fill="#69c487"></rect>,<text font-size="16.80" x="1074.5" y="135.6"><tspan x="1074.4560000000001" y="135.64">South America</tspan></text></g></g></g></g></svg>