<svg xmlns="http://www.w3.org/2000/svg" version="1.1" style="font-family: 'Helvetica Neue', Helvetica, Arial, sans-serif; font-size: 18px; background-color: white; text-rendering: optimizeLegibility; -webkit-font-smoothing: antialiased;" width="850" height="600"><g class="ChartTab"><g class="HeaderView"><g opacity="0.8" transform="translate(770, 15) scale(0.31)"><a xmlns:xlink="http://www.w3.org/1999/xlink" xlink:href="https://ourworldindata.org" target="_blank"><g><rect x="0" y="0" fill="#1B2543" width="211.2" height="130.1"/><rect x="0" y="112.2" fill="#E63912" width="211.2" height="17.9"/><g><rect x="1.2" y="12.3" fill="none" width="210.2" height="99.2"/><path fill="#FFFFFF" d="M37.8,32.2c0,12.7-7.7,19.4-17.1,19.4c-9.7,0-16.6-7.5-16.6-18.7c0-11.7,7.3-19.3,17.1-19.3 C31.3,13.7,37.8,21.3,37.8,32.2z M9.2,32.8c0,7.9,4.3,14.9,11.8,14.9c7.5,0,11.8-6.9,11.8-15.3c0-7.3-3.8-14.9-11.8-14.9 C13.1,17.5,9.2,24.8,9.2,32.8z"/><path fill="#FFFFFF" d="M62.7,43.8c0,2.7,0.1,5.1,0.2,7.2h-4.3l-0.3-4.3h-0.1c-1.3,2.1-4,4.9-8.8,4.9c-4.2,0-9.1-2.3-9.1-11.6 V24.6h4.8v14.6c0,5,1.5,8.4,5.9,8.4c3.2,0,5.5-2.2,6.3-4.4c0.3-0.7,0.4-1.6,0.4-2.5V24.6h4.8V43.8z"/><path fill="#FFFFFF" d="M67.3,32.8c0-3.1-0.1-5.8-0.2-8.2h4.2l0.2,5.2h0.2c1.2-3.5,4.1-5.8,7.3-5.8c0.5,0,0.9,0.1,1.4,0.2v4.5 c-0.5-0.1-1-0.2-1.6-0.2c-3.4,0-5.8,2.6-6.5,6.2c-0.1,0.7-0.2,1.4-0.2,2.2V51h-4.8V32.8z"/><path fill="#FFFFFF" d="M95.4,51l-9.4-36.8h5l4.4,18.6c1.1,4.6,2.1,9.2,2.7,12.7h0.1c0.6-3.7,1.8-8,3-12.8l4.9-18.5h5l4.5,18.7 c1,4.4,2,8.7,2.6,12.6h0.1c0.8-4,1.8-8.1,3-12.7l4.9-18.5h4.9L120.6,51h-5L111,31.9c-1.1-4.7-1.9-8.3-2.4-12h-0.1 c-0.7,3.7-1.5,7.3-2.8,12L100.4,51H95.4z"/><path fill="#FFFFFF" d="M154.9,37.6c0,9.8-6.8,14-13.2,14c-7.2,0-12.7-5.2-12.7-13.6c0-8.8,5.8-14,13.1-14 C149.8,24,154.9,29.5,154.9,37.6z M133.9,37.9c0,5.8,3.3,10.1,8,10.1c4.6,0,8-4.3,8-10.3c0-4.5-2.2-10.1-7.9-10.1 C136.3,27.6,133.9,32.8,133.9,37.9z"/><path fill="#FFFFFF" d="M158.2,32.8c0-3.1-0.1-5.8-0.2-8.2h4.2l0.2,5.2h0.2c1.2-3.5,4.1-5.8,7.3-5.8c0.5,0,0.9,0.1,1.4,0.2v4.5 c-0.5-0.1-1-0.2-1.6-0.2c-3.4,0-5.8,2.6-6.5,6.2c-0.1,0.7-0.2,1.4-0.2,2.2V51h-4.8V32.8z"/><path fill="#FFFFFF" d="M173.5,12.3h4.8V51h-4.8V12.3z"/><path fill="#FFFFFF" d="M206.5,12.3v31.9c0,2.3,0.1,5,0.2,6.8h-4.3l-0.2-4.6H202c-1.5,2.9-4.7,5.2-9,5.2 c-6.4,0-11.3-5.4-11.3-13.4c-0.1-8.8,5.4-14.2,11.9-14.2c4,0,6.8,1.9,8,4h0.1V12.3H206.5z M201.7,35.4c0-0.6-0.1-1.4-0.2-2 c-0.7-3.1-3.3-5.6-6.9-5.6c-5,0-7.9,4.4-7.9,10.2c0,5.3,2.6,9.8,7.8,9.8c3.2,0,6.2-2.1,7.1-5.7c0.2-0.7,0.2-1.3,0.2-2.1V35.4z"/><path fill="#FFFFFF" d="M42.8,64c0.1,1.6-1.1,2.9-3.1,2.9c-1.7,0-2.9-1.3-2.9-2.9c0-1.7,1.3-3,3-3C41.7,61,42.8,62.3,42.8,64z M37.4,97.8V71.4h4.8v26.4H37.4z"/><path fill="#FFFFFF" d="M47.5,78.6c0-2.7-0.1-5-0.2-7.1h4.3l0.3,4.4h0.1c1.3-2.5,4.4-5,8.8-5c3.7,0,9.4,2.2,9.4,11.2v15.8h-4.8 V82.6c0-4.3-1.6-7.8-6.1-7.8c-3.2,0-5.6,2.2-6.5,4.9c-0.2,0.6-0.3,1.4-0.3,2.2v15.9h-4.8V78.6z"/><path fill="#FFFFFF" d="M84,61.6c2.9-0.4,6.3-0.8,10.1-0.8c6.8,0,11.7,1.6,14.9,4.6c3.3,3,5.2,7.3,5.2,13.2c0,6-1.9,10.9-5.3,14.3 c-3.4,3.4-9.1,5.3-16.3,5.3c-3.4,0-6.2-0.2-8.6-0.4V61.6z M88.8,94.1c1.2,0.2,3,0.3,4.8,0.3c10.2,0,15.7-5.7,15.7-15.6 c0.1-8.7-4.9-14.2-14.9-14.2c-2.5,0-4.3,0.2-5.6,0.5V94.1z"/><path fill="#FFFFFF" d="M132.1,97.8l-0.4-3.3h-0.2c-1.5,2.1-4.3,3.9-8.1,3.9c-5.4,0-8.1-3.8-8.1-7.6c0-6.4,5.7-9.9,15.9-9.8v-0.5 c0-2.2-0.6-6.1-6-6.1c-2.5,0-5,0.8-6.9,2l-1.1-3.2c2.2-1.4,5.4-2.3,8.7-2.3c8.1,0,10.1,5.5,10.1,10.8v9.9c0,2.3,0.1,4.5,0.4,6.3 H132.1z M131.4,84.4c-5.3-0.1-11.2,0.8-11.2,5.9c0,3.1,2.1,4.6,4.5,4.6c3.4,0,5.6-2.2,6.4-4.4c0.2-0.5,0.3-1,0.3-1.5V84.4z"/><path fill="#FFFFFF" d="M146.6,63.9v7.6h6.9v3.7h-6.9v14.2c0,3.3,0.9,5.1,3.6,5.1c1.3,0,2.2-0.2,2.8-0.3l0.2,3.6 c-0.9,0.4-2.4,0.7-4.3,0.7c-2.2,0-4-0.7-5.2-2c-1.4-1.4-1.9-3.8-1.9-6.9V75.1h-4.1v-3.7h4.1v-6.3L146.6,63.9z"/><path fill="#FFFFFF" d="M171.4,97.8l-0.4-3.3h-0.2c-1.5,2.1-4.3,3.9-8.1,3.9c-5.4,0-8.1-3.8-8.1-7.6c0-6.4,5.7-9.9,15.9-9.8v-0.5 c0-2.2-0.6-6.1-6-6.1c-2.5,0-5,0.8-6.9,2l-1.1-3.2c2.2-1.4,5.4-2.3,8.7-2.3c8.1,0,10.1,5.5,10.1,10.8v9.9c0,2.3,0.1,4.5,0.4,6.3 H171.4z M170.7,84.4c-5.3-0.1-11.2,0.8-11.2,5.9c0,3.1,2.1,4.6,4.5,4.6c3.4,0,5.6-2.2,6.4-4.4c0.2-0.5,0.3-1,0.3-1.5V84.4z"/></g></g></a></g><a href="https://ourworldindata.org/grapher/methane-emissions-by-sector-gg-coe" target="_blank"><text font-size="27.00" x="15.0" y="36.6" fill="#555"><tspan x="15" y="36.6">Methane emissions by sector (Gg CO₂e)</tspan></text></a><text font-size="14.40" x="15.0" y="55.5" fill="#666"><tspan x="15" y="55.519999999999996">Breakdown of total global methane (CH₄) emissions by sector, measured in gigagrams of carbon-dioxide</tspan><tspan x="15" y="71.36">equivalents (CO₂e). Carbon dioxide equivalents measures the total greenhouse gas potential of the full combination</tspan><tspan x="15" y="87.2">of gases, weighted by their relative warming impacts.</tspan></text></g><g class="StackedArea"><defs><clipPath id="boundsClip-269"><rect x="79.45400000000001" y="0" width="820" height="894.2"></rect></clipPath></defs><g class="AxisBoxView"><g class="HorizontalAxis"><text x="79.5" y="556.5" fill="#666" text-anchor="middle" font-size="16.2">1990</text><text x="151.1" y="556.5" fill="#666" text-anchor="middle" font-size="16.2">1992</text><text x="222.7" y="556.5" fill="#666" text-anchor="middle" font-size="16.2">1994</text><text x="294.4" y="556.5" fill="#666" text-anchor="middle" font-size="16.2">1996</text><text x="366" y="556.5" fill="#666" text-anchor="middle" font-size="16.2">1998</text><text x="437.7" y="556.5" fill="#666" text-anchor="middle" font-size="16.2">2000</text><text x="509.3" y="556.5" fill="#666" text-anchor="middle" font-size="16.2">2002</text><text x="581" y="556.5" fill="#666" text-anchor="middle" font-size="16.2">2004</text><text x="652.6" y="556.5" fill="#666" text-anchor="middle" font-size="16.2">2006</text><text x="724.3" y="556.5" fill="#666" text-anchor="middle" font-size="16.2">2008</text></g><g class="VerticalAxis"><text x="74.45" y="535.3" fill="#666" dominant-baseline="middle" text-anchor="end" font-size="16.2">0</text><text x="74.45" y="464.1" fill="#666" dominant-baseline="middle" text-anchor="end" font-size="16.2">1 million</text><text x="74.45" y="392.9" fill="#666" dominant-baseline="middle" text-anchor="end" font-size="16.2">2 million</text><text x="74.45" y="321.8" fill="#666" dominant-baseline="middle" text-anchor="end" font-size="16.2">3 million</text><text x="74.45" y="250.6" fill="#666" dominant-baseline="middle" text-anchor="end" font-size="16.2">4 million</text><text x="74.45" y="179.4" fill="#666" dominant-baseline="middle" text-anchor="end" font-size="16.2">5 million</text></g><g class="AxisGridLines"><line x1="79.45" y1="535.3" x2="724.28" y2="535.3" stroke="#ccc"></line><line x1="79.45" y1="464.1" x2="724.28" y2="464.1" stroke="#ddd" stroke-dasharray="3,2"></line><line x1="79.45" y1="392.9" x2="724.28" y2="392.9" stroke="#ddd" stroke-dasharray="3,2"></line><line x1="79.45" y1="321.8" x2="724.28" y2="321.8" stroke="#ddd" stroke-dasharray="3,2"></line><line x1="79.45" y1="250.6" x2="724.28" y2="250.6" stroke="#ddd" stroke-dasharray="3,2"></line><line x1="79.45" y1="179.4" x2="724.28" y2="179.4" stroke="#ddd" stroke-dasharray="3,2"></line></g><g class="AxisGridLines"><line x1="79.5" y1="535.30" x2="79.5" y2="109.40" stroke="#ddd" stroke-dasharray="3,2"></line><line x1="151.1" y1="535.30" x2="151.1" y2="109.40" stroke="#ddd" stroke-dasharray="3,2"></line><line x1="222.7" y1="535.30" x2="222.7" y2="109.40" stroke="#ddd" stroke-dasharray="3,2"></line><line x1="294.4" y1="535.30" x2="294.4" y2="109.40" stroke="#ddd" stroke-dasharray="3,2"></line><line x1="366" y1="535.30" x2="366" y2="109.40" stroke="#ddd" stroke-dasharray="3,2"></line><line x1="437.7" y1="535.30" x2="437.7" y2="109.40" stroke="#ddd" stroke-dasharray="3,2"></line><line x1="509.3" y1="535.30" x2="509.3" y2="109.40" stroke="#ddd" stroke-dasharray="3,2"></line><line x1="581" y1="535.30" x2="581" y2="109.40" stroke="#ddd" stroke-dasharray="3,2"></line><line x1="652.6" y1="535.30" x2="652.6" y2="109.40" stroke="#ddd" stroke-dasharray="3,2"></line><line x1="724.3" y1="535.30" x2="724.3" y2="109.40" stroke="#ddd" stroke-dasharray="3,2"></line></g></g><g clip-path="url(#boundsClip-269)"><g class="HeightedLegend clickable"><g class="legendMark"><rect x="729.28" y="102.3" width="105.72000000000001" height="14.4" fill="#fff" opacity="0"></rect><rect x="729.28" y="108.25" width="10" height="2.5" fill="#818282"></rect><text font-size="14.40" x="744.3" y="113.8" fill="#333"><tspan x="744.28" y="113.82000000000001">Other sources</tspan></text></g><g class="legendMark"><rect x="729.28" y="116.7" width="100.10400000000001" height="29.900000000000002" fill="#fff" opacity="0"></rect><rect x="729.28" y="130.4" width="10" height="2.5" fill="#df3c64"></rect><text font-size="14.40" x="744.3" y="128.2" fill="#333"><tspan x="744.28" y="128.22">Residential &amp;</tspan><tspan x="744.28" y="144.06">commercial</tspan></text></g><g class="legendMark"><rect x="729.28" y="146.6" width="66.40800000000002" height="14.4" fill="#fff" opacity="0"></rect><rect x="729.28" y="152.54999999999998" width="10" height="2.5" fill="#ffd53e"></rect><text font-size="14.40" x="744.3" y="158.1" fill="#333"><tspan x="744.28" y="158.12">Industry</tspan></text></g><g class="legendMark"><rect x="729.28" y="161" width="74.61600000000001" height="14.4" fill="#fff" opacity="0"></rect><rect x="729.28" y="166.95" width="10" height="2.5" fill="#6bb537"></rect><text font-size="14.40" x="744.3" y="172.5" fill="#333"><tspan x="744.28" y="172.52">Land use</tspan></text></g><g class="legendMark"><rect x="729.28" y="243.20000000000002" width="83.97600000000001" height="14.4" fill="#fff" opacity="0"></rect><rect x="729.28" y="249.15" width="10" height="2.5" fill="#34983f"></rect><text font-size="14.40" x="744.3" y="254.7" fill="#333"><tspan x="744.28" y="254.72000000000003">Agriculture</tspan></text></g><g class="legendMark"><rect x="729.28" y="436.2" width="60.79200000000001" height="14.4" fill="#fff" opacity="0"></rect><rect x="729.28" y="442.15" width="10" height="2.5" fill="#3360a9"></rect><text font-size="14.40" x="744.3" y="447.7" fill="#333"><tspan x="744.28" y="447.71999999999997">Energy</tspan></text></g></g><g class="Areas"><rect x="79.45400000000001" y="109.4" width="644.826" height="425.9000000000001" opacity="0" fill="rgba(255,255,255,0)"></rect><path stroke-linecap="round" d="M79.5 406.5L115.3 407.7L151.1 407.6L186.9 408.5L222.7 409.1L258.6 405.6L294.4 402.5L330.2 401.7L366 402.7L401.9 403.2L437.7 398.5L473.5 396.3L509.3 393.1L545.2 384.1L581 376.5L616.8 370.2L652.6 364L688.5 359.3L724.3 351.6L724.28 535.3000000000001L79.45400000000001 535.3000000000001" fill="#3360a9" fill-opacity="0.7" class="World_0-area"></path><path stroke-linecap="round" d="M79.5 217.6L115.3 219.2L151.1 220.2L186.9 222.3L222.7 221.6L258.6 217.6L294.4 215.4L330.2 215.2L366 215.7L401.9 214.5L437.7 209.8L473.5 207.4L509.3 203.1L545.2 193.4L581 182.3L616.8 173.5L652.6 165.4L688.5 158.3L724.3 149.3L724.3 351.6L688.5 359.3L652.6 364L616.8 370.2L581 376.5L545.2 384.1L509.3 393.1L473.5 396.3L437.7 398.5L401.9 403.2L366 402.7L330.2 401.7L294.4 402.5L258.6 405.6L222.7 409.1L186.9 408.5L151.1 407.6L115.3 407.7L79.5 406.5" fill="#34983f" fill-opacity="0.7" class="World_5-area"></path><path stroke-linecap="round" d="M79.5 194.8L115.3 196.4L151.1 197.3L186.9 199.4L222.7 198.8L258.6 194.7L294.4 194.1L330.2 178.5L366 185.1L401.9 190.8L437.7 191.1L473.5 192.6L509.3 178.3L545.2 171.1L581 158.4L616.8 150.9L652.6 139.9L688.5 137.1L724.3 128.4L724.3 149.3L688.5 158.3L652.6 165.4L616.8 173.5L581 182.3L545.2 193.4L509.3 203.1L473.5 207.4L437.7 209.8L401.9 214.5L366 215.7L330.2 215.2L294.4 215.4L258.6 217.6L222.7 221.6L186.9 222.3L151.1 220.2L115.3 219.2L79.5 217.6" fill="#6bb537" fill-opacity="0.7" class="World_4-area"></path><path stroke-linecap="round" d="M79.5 194.5L115.3 196.2L151.1 197.1L186.9 199.2L222.7 198.5L258.6 194.5L294.4 193.8L330.2 178.3L366 184.8L401.9 190.6L437.7 190.8L473.5 192.3L509.3 178L545.2 170.8L581 158.1L616.8 150.6L652.6 139.6L688.5 136.8L724.3 128L724.3 128.4L688.5 137.1L652.6 139.9L616.8 150.9L581 158.4L545.2 171.1L509.3 178.3L473.5 192.6L437.7 191.1L401.9 190.8L366 185.1L330.2 178.5L294.4 194.1L258.6 194.7L222.7 198.8L186.9 199.4L151.1 197.3L115.3 196.4L79.5 194.8" fill="#ffd53e" fill-opacity="0.7" class="World_1-area"></path><path stroke-linecap="round" d="M79.5 174.5L115.3 176.2L151.1 177.8L186.9 179.7L222.7 179.9L258.6 175.6L294.4 174.7L330.2 159.9L366 167.5L401.9 173.2L437.7 173.7L473.5 175.3L509.3 161.3L545.2 153.8L581 140.9L616.8 133.2L652.6 122.1L688.5 119.2L724.3 109.6L724.3 128L688.5 136.8L652.6 139.6L616.8 150.6L581 158.1L545.2 170.8L509.3 178L473.5 192.3L437.7 190.8L401.9 190.6L366 184.8L330.2 178.3L294.4 193.8L258.6 194.5L222.7 198.5L186.9 199.2L151.1 197.1L115.3 196.2L79.5 194.5" fill="#df3c64" fill-opacity="0.7" class="World_2-area"></path><path stroke-linecap="round" d="M79.5 174.3L115.3 176L151.1 177.6L186.9 179.5L222.7 179.7L258.6 175.4L294.4 174.5L330.2 159.7L366 167.3L401.9 173L437.7 173.5L473.5 175L509.3 161.1L545.2 153.6L581 140.7L616.8 133L652.6 121.8L688.5 119L724.3 109.4L724.3 109.6L688.5 119.2L652.6 122.1L616.8 133.2L581 140.9L545.2 153.8L509.3 161.3L473.5 175.3L437.7 173.7L401.9 173.2L366 167.5L330.2 159.9L294.4 174.7L258.6 175.6L222.7 179.9L186.9 179.7L151.1 177.8L115.3 176.2L79.5 174.5" fill="#818282" fill-opacity="0.7" class="World_3-area"></path><path stroke-linecap="round" d="M79.5 406.5L115.3 407.7L151.1 407.6L186.9 408.5L222.7 409.1L258.6 405.6L294.4 402.5L330.2 401.7L366 402.7L401.9 403.2L437.7 398.5L473.5 396.3L509.3 393.1L545.2 384.1L581 376.5L616.8 370.2L652.6 364L688.5 359.3L724.3 351.6" stroke="rgb(43, 80, 141)" stroke-opacity="0.7" stroke-width="0.5" fill="none" class="World_0-border"></path><path stroke-linecap="round" d="M79.5 217.6L115.3 219.2L151.1 220.2L186.9 222.3L222.7 221.6L258.6 217.6L294.4 215.4L330.2 215.2L366 215.7L401.9 214.5L437.7 209.8L473.5 207.4L509.3 203.1L545.2 193.4L581 182.3L616.8 173.5L652.6 165.4L688.5 158.3L724.3 149.3" stroke="rgb(44, 127, 53)" stroke-opacity="0.7" stroke-width="0.5" fill="none" class="World_5-border"></path><path stroke-linecap="round" d="M79.5 194.8L115.3 196.4L151.1 197.3L186.9 199.4L222.7 198.8L258.6 194.7L294.4 194.1L330.2 178.5L366 185.1L401.9 190.8L437.7 191.1L473.5 192.6L509.3 178.3L545.2 171.1L581 158.4L616.8 150.9L652.6 139.9L688.5 137.1L724.3 128.4" stroke="rgb(90, 151, 46)" stroke-opacity="0.7" stroke-width="0.5" fill="none" class="World_4-border"></path><path stroke-linecap="round" d="M79.5 194.5L115.3 196.2L151.1 197.1L186.9 199.2L222.7 198.5L258.6 194.5L294.4 193.8L330.2 178.3L366 184.8L401.9 190.6L437.7 190.8L473.5 192.3L509.3 178L545.2 170.8L581 158.1L616.8 150.6L652.6 139.6L688.5 136.8L724.3 128" stroke="rgb(213, 178, 52)" stroke-opacity="0.7" stroke-width="0.5" fill="none" class="World_1-border"></path><path stroke-linecap="round" d="M79.5 174.5L115.3 176.2L151.1 177.8L186.9 179.7L222.7 179.9L258.6 175.6L294.4 174.7L330.2 159.9L366 167.5L401.9 173.2L437.7 173.7L473.5 175.3L509.3 161.3L545.2 153.8L581 140.9L616.8 133.2L652.6 122.1L688.5 119.2L724.3 109.6" stroke="rgb(187, 50, 84)" stroke-opacity="0.7" stroke-width="0.5" fill="none" class="World_2-border"></path><path stroke-linecap="round" d="M79.5 174.3L115.3 176L151.1 177.6L186.9 179.5L222.7 179.7L258.6 175.4L294.4 174.5L330.2 159.7L366 167.3L401.9 173L437.7 173.5L473.5 175L509.3 161.1L545.2 153.6L581 140.7L616.8 133L652.6 121.8L688.5 119L724.3 109.4" stroke="rgb(108, 109, 109)" stroke-opacity="0.7" stroke-width="0.5" fill="none" class="World_3-border"></path></g></g></g><g style="fill: #777;" class="SourcesFooter"><g style="fill: #777;" class="clickable"><text font-size="12.60" x="15.0" y="581.6"><tspan x="15" y="581.58">Source: UN Food and Agricultural Organization (FAO)</tspan></text></g><text font-size="12.60" x="407.4" y="581.6"><tspan x="407.356" y="581.58"><a target='_blank' style='fill: #777;' href='https://ourworldindata.org/co2-and-other-greenhouse-gas-emissions/'>OurWorldInData.org/co2-and-other-greenhouse-gas-emissions/</a> • <a style="fill: #777;" href="http://creativecommons.org/licenses/by-sa/4.0/deed.en_US" target="_blank">CC BY-SA</a></tspan></text></g></g></svg>