<svg xmlns="http://www.w3.org/2000/svg" version="1.1" style="font-family: 'Helvetica Neue', Helvetica, Arial, sans-serif; font-size: 18px; background-color: white; text-rendering: optimizeLegibility; -webkit-font-smoothing: antialiased;" width="850" height="600"><g class="ChartTab"><g class="HeaderView"><g opacity="0.8" transform="translate(778, 15) scale(0.27)"><a xmlns:xlink="http://www.w3.org/1999/xlink" xlink:href="https://ourworldindata.org" target="_blank"><g><rect x="0" y="0" fill="#1B2543" width="211.2" height="130.1"/><rect x="0" y="112.2" fill="#E63912" width="211.2" height="17.9"/><g><rect x="1.2" y="12.3" fill="none" width="210.2" height="99.2"/><path fill="#FFFFFF" d="M37.8,32.2c0,12.7-7.7,19.4-17.1,19.4c-9.7,0-16.6-7.5-16.6-18.7c0-11.7,7.3-19.3,17.1-19.3 C31.3,13.7,37.8,21.3,37.8,32.2z M9.2,32.8c0,7.9,4.3,14.9,11.8,14.9c7.5,0,11.8-6.9,11.8-15.3c0-7.3-3.8-14.9-11.8-14.9 C13.1,17.5,9.2,24.8,9.2,32.8z"/><path fill="#FFFFFF" d="M62.7,43.8c0,2.7,0.1,5.1,0.2,7.2h-4.3l-0.3-4.3h-0.1c-1.3,2.1-4,4.9-8.8,4.9c-4.2,0-9.1-2.3-9.1-11.6 V24.6h4.8v14.6c0,5,1.5,8.4,5.9,8.4c3.2,0,5.5-2.2,6.3-4.4c0.3-0.7,0.4-1.6,0.4-2.5V24.6h4.8V43.8z"/><path fill="#FFFFFF" d="M67.3,32.8c0-3.1-0.1-5.8-0.2-8.2h4.2l0.2,5.2h0.2c1.2-3.5,4.1-5.8,7.3-5.8c0.5,0,0.9,0.1,1.4,0.2v4.5 c-0.5-0.1-1-0.2-1.6-0.2c-3.4,0-5.8,2.6-6.5,6.2c-0.1,0.7-0.2,1.4-0.2,2.2V51h-4.8V32.8z"/><path fill="#FFFFFF" d="M95.4,51l-9.4-36.8h5l4.4,18.6c1.1,4.6,2.1,9.2,2.7,12.7h0.1c0.6-3.7,1.8-8,3-12.8l4.9-18.5h5l4.5,18.7 c1,4.4,2,8.7,2.6,12.6h0.1c0.8-4,1.8-8.1,3-12.7l4.9-18.5h4.9L120.6,51h-5L111,31.9c-1.1-4.7-1.9-8.3-2.4-12h-0.1 c-0.7,3.7-1.5,7.3-2.8,12L100.4,51H95.4z"/><path fill="#FFFFFF" d="M154.9,37.6c0,9.8-6.8,14-13.2,14c-7.2,0-12.7-5.2-12.7-13.6c0-8.8,5.8-14,13.1-14 C149.8,24,154.9,29.5,154.9,37.6z M133.9,37.9c0,5.8,3.3,10.1,8,10.1c4.6,0,8-4.3,8-10.3c0-4.5-2.2-10.1-7.9-10.1 C136.3,27.6,133.9,32.8,133.9,37.9z"/><path fill="#FFFFFF" d="M158.2,32.8c0-3.1-0.1-5.8-0.2-8.2h4.2l0.2,5.2h0.2c1.2-3.5,4.1-5.8,7.3-5.8c0.5,0,0.9,0.1,1.4,0.2v4.5 c-0.5-0.1-1-0.2-1.6-0.2c-3.4,0-5.8,2.6-6.5,6.2c-0.1,0.7-0.2,1.4-0.2,2.2V51h-4.8V32.8z"/><path fill="#FFFFFF" d="M173.5,12.3h4.8V51h-4.8V12.3z"/><path fill="#FFFFFF" d="M206.5,12.3v31.9c0,2.3,0.1,5,0.2,6.8h-4.3l-0.2-4.6H202c-1.5,2.9-4.7,5.2-9,5.2 c-6.4,0-11.3-5.4-11.3-13.4c-0.1-8.8,5.4-14.2,11.9-14.2c4,0,6.8,1.9,8,4h0.1V12.3H206.5z M201.7,35.4c0-0.6-0.1-1.4-0.2-2 c-0.7-3.1-3.3-5.6-6.9-5.6c-5,0-7.9,4.4-7.9,10.2c0,5.3,2.6,9.8,7.8,9.8c3.2,0,6.2-2.1,7.1-5.7c0.2-0.7,0.2-1.3,0.2-2.1V35.4z"/><path fill="#FFFFFF" d="M42.8,64c0.1,1.6-1.1,2.9-3.1,2.9c-1.7,0-2.9-1.3-2.9-2.9c0-1.7,1.3-3,3-3C41.7,61,42.8,62.3,42.8,64z M37.4,97.8V71.4h4.8v26.4H37.4z"/><path fill="#FFFFFF" d="M47.5,78.6c0-2.7-0.1-5-0.2-7.1h4.3l0.3,4.4h0.1c1.3-2.5,4.4-5,8.8-5c3.7,0,9.4,2.2,9.4,11.2v15.8h-4.8 V82.6c0-4.3-1.6-7.8-6.1-7.8c-3.2,0-5.6,2.2-6.5,4.9c-0.2,0.6-0.3,1.4-0.3,2.2v15.9h-4.8V78.6z"/><path fill="#FFFFFF" d="M84,61.6c2.9-0.4,6.3-0.8,10.1-0.8c6.8,0,11.7,1.6,14.9,4.6c3.3,3,5.2,7.3,5.2,13.2c0,6-1.9,10.9-5.3,14.3 c-3.4,3.4-9.1,5.3-16.3,5.3c-3.4,0-6.2-0.2-8.6-0.4V61.6z M88.8,94.1c1.2,0.2,3,0.3,4.8,0.3c10.2,0,15.7-5.7,15.7-15.6 c0.1-8.7-4.9-14.2-14.9-14.2c-2.5,0-4.3,0.2-5.6,0.5V94.1z"/><path fill="#FFFFFF" d="M132.1,97.8l-0.4-3.3h-0.2c-1.5,2.1-4.3,3.9-8.1,3.9c-5.4,0-8.1-3.8-8.1-7.6c0-6.4,5.7-9.9,15.9-9.8v-0.5 c0-2.2-0.6-6.1-6-6.1c-2.5,0-5,0.8-6.9,2l-1.1-3.2c2.2-1.4,5.4-2.3,8.7-2.3c8.1,0,10.1,5.5,10.1,10.8v9.9c0,2.3,0.1,4.5,0.4,6.3 H132.1z M131.4,84.4c-5.3-0.1-11.2,0.8-11.2,5.9c0,3.1,2.1,4.6,4.5,4.6c3.4,0,5.6-2.2,6.4-4.4c0.2-0.5,0.3-1,0.3-1.5V84.4z"/><path fill="#FFFFFF" d="M146.6,63.9v7.6h6.9v3.7h-6.9v14.2c0,3.3,0.9,5.1,3.6,5.1c1.3,0,2.2-0.2,2.8-0.3l0.2,3.6 c-0.9,0.4-2.4,0.7-4.3,0.7c-2.2,0-4-0.7-5.2-2c-1.4-1.4-1.9-3.8-1.9-6.9V75.1h-4.1v-3.7h4.1v-6.3L146.6,63.9z"/><path fill="#FFFFFF" d="M171.4,97.8l-0.4-3.3h-0.2c-1.5,2.1-4.3,3.9-8.1,3.9c-5.4,0-8.1-3.8-8.1-7.6c0-6.4,5.7-9.9,15.9-9.8v-0.5 c0-2.2-0.6-6.1-6-6.1c-2.5,0-5,0.8-6.9,2l-1.1-3.2c2.2-1.4,5.4-2.3,8.7-2.3c8.1,0,10.1,5.5,10.1,10.8v9.9c0,2.3,0.1,4.5,0.4,6.3 H171.4z M170.7,84.4c-5.3-0.1-11.2,0.8-11.2,5.9c0,3.1,2.1,4.6,4.5,4.6c3.4,0,5.6-2.2,6.4-4.4c0.2-0.5,0.3-1,0.3-1.5V84.4z"/></g></g></a></g><a href="https://ourworldindata.org/grapher/military-personnel-relative-to-total-population" target="_blank"><text font-size="25.20" x="15.0" y="35.2" fill="#555"><tspan x="15" y="35.160000000000004">Military personnel per 100,000 people</tspan></text></a><text font-size="14.40" x="15.0" y="53.7" fill="#666"><tspan x="15" y="53.72">Ratio of military personnel and total population estimates, multiplied by 100,000.</tspan></text></g><g class="LineChart"><defs><clipPath id="boundsClip-1"><rect x="59.896" y="0" width="830" height="959.8"></rect></clipPath></defs><g class="AxisBoxView"><g class="HorizontalAxis"><text x="69.9" y="556.5" fill="#666" text-anchor="middle" font-size="16.2">1816</text><text x="179.8" y="556.5" fill="#666" text-anchor="middle" font-size="16.2">1850</text><text x="341.5" y="556.5" fill="#666" text-anchor="middle" font-size="16.2">1900</text><text x="503.1" y="556.5" fill="#666" text-anchor="middle" font-size="16.2">1950</text><text x="703.6" y="556.5" fill="#666" text-anchor="middle" font-size="16.2">2012</text></g><g class="VerticalAxis"><text x="64.90" y="535.3" fill="#666" dominant-baseline="middle" text-anchor="end" font-size="16.2">0</text><text x="64.90" y="446.7" fill="#666" dominant-baseline="middle" text-anchor="end" font-size="16.2">2,000</text><text x="64.90" y="358" fill="#666" dominant-baseline="middle" text-anchor="end" font-size="16.2">4,000</text><text x="64.90" y="269.4" fill="#666" dominant-baseline="middle" text-anchor="end" font-size="16.2">6,000</text><text x="64.90" y="180.7" fill="#666" dominant-baseline="middle" text-anchor="end" font-size="16.2">8,000</text><text x="64.90" y="92.1" fill="#666" dominant-baseline="middle" text-anchor="end" font-size="16.2">10,000</text></g><g class="AxisGridLines"><line x1="69.90" y1="535.3" x2="703.61" y2="535.3" stroke="#ccc"></line><line x1="69.90" y1="446.7" x2="703.61" y2="446.7" stroke="#ddd" stroke-dasharray="3,2"></line><line x1="69.90" y1="358" x2="703.61" y2="358" stroke="#ddd" stroke-dasharray="3,2"></line><line x1="69.90" y1="269.4" x2="703.61" y2="269.4" stroke="#ddd" stroke-dasharray="3,2"></line><line x1="69.90" y1="180.7" x2="703.61" y2="180.7" stroke="#ddd" stroke-dasharray="3,2"></line><line x1="69.90" y1="92.1" x2="703.61" y2="92.1" stroke="#ddd" stroke-dasharray="3,2"></line></g></g><g clip-path="url(#boundsClip-1)"><g class="HeightedLegend clickable"><g class="legendMark"><g class="indicator"><line x1="708.61" y1="526.7" x2="729.11" y2="526.7" stroke="#666" stroke-width="0.5"></line><line x1="729.11" y1="526.7" x2="729.11" y2="526.7" stroke="#666" stroke-width="0.5"></line><line x1="729.11" y1="526.7" x2="733.61" y2="526.7" stroke="#666" stroke-width="0.5"></line></g><rect x="703.61" y="519.95" width="71.99000000000001" height="13.5" fill="#fff" opacity="0"></rect><text font-size="13.50" x="738.6" y="530.8" fill="#3360a9"><tspan x="738.61" y="530.75">Japan</tspan></text></g><g class="legendMark"><g class="indicator"><line x1="708.61" y1="524.3" x2="725.11" y2="524.3" stroke="#666" stroke-width="0.5"></line><line x1="725.11" y1="524.3" x2="725.11" y2="511.20000000000005" stroke="#666" stroke-width="0.5"></line><line x1="725.11" y1="511.20000000000005" x2="733.61" y2="511.20000000000005" stroke="#666" stroke-width="0.5"></line></g><rect x="703.61" y="504.45000000000005" width="87.65" height="13.5" fill="#fff" opacity="0"></rect><text font-size="13.50" x="738.6" y="515.3" fill="#ca2628"><tspan x="738.61" y="515.25">Australia</tspan></text></g><g class="legendMark"><g class="indicator"><line x1="708.61" y1="523" x2="721.11" y2="523" stroke="#666" stroke-width="0.5"></line><line x1="721.11" y1="523" x2="721.11" y2="495.70000000000005" stroke="#666" stroke-width="0.5"></line><line x1="721.11" y1="495.70000000000005" x2="733.61" y2="495.70000000000005" stroke="#666" stroke-width="0.5"></line></g><rect x="703.61" y="488.95000000000005" width="131.39" height="13.5" fill="#fff" opacity="0"></rect><text font-size="13.50" x="738.6" y="499.8" fill="#34983f"><tspan x="738.61" y="499.75000000000006">United Kingdom</tspan></text></g><g class="legendMark"><g class="indicator"><line x1="708.61" y1="513.4" x2="717.11" y2="513.4" stroke="#666" stroke-width="0.5"></line><line x1="717.11" y1="513.4" x2="717.11" y2="480.20000000000005" stroke="#666" stroke-width="0.5"></line><line x1="717.11" y1="480.20000000000005" x2="733.61" y2="480.20000000000005" stroke="#666" stroke-width="0.5"></line></g><rect x="703.61" y="473.45000000000005" width="116.405" height="13.5" fill="#fff" opacity="0"></rect><text font-size="13.50" x="738.6" y="484.3" fill="#f6a324"><tspan x="738.61" y="484.25000000000006">United States</tspan></text></g><g class="legendMark"><g class="indicator"><line x1="708.61" y1="498.7" x2="713.11" y2="498.7" stroke="#666" stroke-width="0.5"></line><line x1="713.11" y1="498.7" x2="713.11" y2="464.70000000000005" stroke="#666" stroke-width="0.5"></line><line x1="713.11" y1="464.70000000000005" x2="733.61" y2="464.70000000000005" stroke="#666" stroke-width="0.5"></line></g><rect x="703.61" y="457.95000000000005" width="58.355000000000004" height="13.5" fill="#fff" opacity="0"></rect><text font-size="13.50" x="738.6" y="468.8" fill="#a652ba"><tspan x="738.61" y="468.75000000000006">Iraq</tspan></text></g></g><g class="Lines"><rect x="70" y="77" width="634" height="459" fill="rgba(255,255,255,0)" opacity="0"></rect><g class="key-United-States_0"><path stroke="#f6a324" stroke-linecap="round" d="M70 527L73 528L76 529L80 529L83 528L86 530L89 531L93 531L96 531L99 531L102 531L106 531L109 531L112 531L115 531L118 532L122 531L125 531L128 531L131 531L135 530L138 529L141 530L144 530L148 530L151 530L154 530L157 530L160 531L164 531L167 527L170 523L173 523L177 531L180 531L183 531L186 532L190 532L193 532L196 531L199 531L203 531L206 531L209 531L212 531L215 506L219 445L222 410L225 404L228 403L232 526L235 526L238 528L241 529L245 530L248 531L251 531L254 531L257 531L261 532L264 531L267 532L270 532L274 532L277 532L280 532L283 532L287 532L290 532L293 532L296 532L300 532L303 532L306 533L309 533L312 533L316 533L319 533L322 533L325 533L329 533L332 533L335 521L338 529L342 528L345 529L348 529L351 530L354 529L358 530L361 530L364 530L367 529L371 528L374 529L377 529L380 528L384 528L387 528L390 528L393 528L397 508L400 411L403 486L406 521L409 520L413 524L416 526L419 525L422 526L426 526L429 526L432 526L435 526L439 526L442 526L445 527L448 527L451 527L455 527L458 525L461 525L464 524L468 524L471 520L474 476L477 409L481 242L484 169L487 151L490 440L493 487L497 492L500 488L503 493L506 442L510 433L513 437L516 446L519 457L523 462L526 463L529 474L532 477L536 479L539 480L542 469L545 472L548 473L552 475L555 466L558 460L561 457L565 460L568 469L571 477L574 486L578 489L581 491L584 492L587 493L590 494L594 494L597 495L600 495L603 495L607 494L610 494L613 494L616 494L620 494L623 494L626 495L629 495L633 497L636 498L639 502L642 504L645 506L649 508L652 509L655 510L658 511L662 511L665 514L668 514L671 514L675 514L678 514L681 513L684 513L687 513L691 514L694 513L697 513L700 513L704 513" fill="none" stroke-width="1.5"></path></g><g class="key-United-Kingdom_0"><path stroke="#34983f" stroke-linecap="round" d="M70 477L73 493L76 497L80 504L83 504L86 506L89 509L93 510L96 509L99 509L102 506L106 505L109 506L112 507L115 509L118 508L122 509L125 509L128 511L131 511L135 510L138 511L141 509L144 508L148 507L151 507L154 505L157 510L160 506L164 507L167 505L170 505L173 502L177 503L180 503L183 503L186 503L190 501L193 498L196 483L199 475L203 493L206 490L209 487L212 482L215 487L219 489L222 488L225 492L228 492L232 493L235 494L238 495L241 497L245 499L248 502L251 500L254 501L257 502L261 502L264 503L267 502L270 501L274 502L277 504L280 504L283 504L287 505L290 506L293 504L296 503L300 502L303 503L306 503L309 502L312 502L316 502L319 501L322 501L325 500L329 500L332 500L335 499L338 499L342 483L345 480L348 484L351 492L354 493L358 495L361 496L364 498L367 499L371 497L374 499L377 499L380 484L384 484L387 484L390 100L397 82L400 101L403 403L406 479L409 493L413 499L416 502L419 502L422 502L426 502L429 502L432 503L435 504L439 505L442 505L445 505L448 505L451 505L455 505L458 504L461 503L464 501L468 499L471 442L474 324L477 225L481 159L484 92L487 77L490 350L493 419L497 460L500 468L503 475L506 463L510 459L513 460L516 463L519 465L523 470L526 475L529 483L532 487L536 491L539 495L542 496L545 498L548 500L552 501L555 501L558 501L561 502L565 504L568 504L571 506L574 506L578 506L581 507L584 508L587 509L590 510L594 510L597 510L600 509L603 509L607 509L610 509L613 509L616 509L620 510L623 510L626 510L629 511L633 512L636 512L639 513L642 515L645 516L649 518L652 519L655 519L658 519L662 519L665 519L668 520L671 520L675 520L678 520L681 520L684 519L687 521L691 522L694 524L697 523L700 523L704 523" fill="none" stroke-width="1.5"></path></g><g class="key-Australia_0"><path stroke="#ca2628" stroke-linecap="round" d="M406 530L409 530L413 531L416 530L419 530L422 530L426 529L429 530L432 530L435 530L439 531L442 531L445 531L448 531L451 530L455 530L458 530L461 530L464 530L468 530L471 484L474 286L481 119L484 123L487 178L490 474L493 487L497 500L500 512L503 515L506 518L510 519L513 507L516 509L519 510L523 511L526 513L529 515L532 514L536 515L539 516L542 515L545 516L548 514L552 515L555 513L558 508L561 506L565 506L568 505L571 506L574 507L578 512L581 513L584 513L587 513L590 513L594 514L597 514L600 514L603 514L607 514L610 514L613 515L616 516L620 516L623 516L626 516L629 517L633 518L636 518L639 518L642 518L645 519L649 519L652 520L655 520L658 520L662 522L665 523L668 524L671 524L675 523L678 524L681 524L684 524L687 525L691 525L694 524L697 524L700 524L704 524" fill="none" stroke-width="1.5"></path></g><g class="key-Japan_0"><path stroke="#3360a9" stroke-linecap="round" d="M212 534L215 534L219 534L222 535L225 535L228 535L232 535L235 535L238 535L241 535L245 535L248 533L251 533L254 530L257 530L261 530L264 531L267 531L270 530L274 530L277 530L280 530L283 530L287 530L290 530L293 529L296 529L300 528L303 528L306 528L309 527L312 526L316 527L319 528L322 526L325 513L329 524L332 522L335 519L338 520L342 517L345 515L348 515L351 515L354 514L358 512L361 510L364 511L367 510L371 510L374 510L377 511L380 511L384 510L387 510L390 481L393 481L397 481L400 482L403 511L406 511L409 511L413 512L416 512L419 512L422 513L426 513L429 516L432 515L435 515L439 515L442 516L445 511L448 511L451 509L455 509L458 509L461 511L464 512L468 476L471 476L474 347L477 348L481 351L484 278L487 161L510 529L513 529L516 527L519 526L523 525L526 524L529 524L532 523L536 523L539 525L542 524L545 524L548 524L552 524L555 525L558 525L561 525L565 525L568 525L571 526L574 526L578 526L581 526L584 526L587 526L590 526L594 526L597 526L600 526L603 526L607 526L610 526L613 526L616 527L620 526L623 526L626 526L629 526L633 526L636 526L639 527L642 527L645 527L649 527L652 527L655 527L658 526L662 527L665 527L668 527L671 527L675 527L678 527L681 527L684 526L687 527L691 527L694 527L697 527L700 527L704 527" fill="none" stroke-width="1.5"></path></g><g class="key-Iraq_0"><path stroke="#a652ba" stroke-linecap="round" d="M445 520L448 523L451 523L455 518L458 512L461 507L464 501L468 513L490 488L493 507L497 508L500 508L503 506L506 504L510 501L513 499L516 498L519 496L523 494L526 493L529 492L532 498L536 488L539 479L542 480L545 488L548 490L552 486L555 487L558 489L561 490L565 492L568 491L571 488L574 489L578 491L581 490L584 474L587 462L590 484L594 406L597 382L600 391L603 408L607 408L610 403L613 304L616 311L620 315L623 291L626 273L629 281L633 195L636 422L639 440L642 442L645 439L649 436L652 439L655 452L658 450L662 452L665 453L668 460L671 467L675 469L678 488L681 506L684 499L687 500L691 461L694 451L697 453L700 501L704 499" fill="none" stroke-width="1.5"></path></g></g></g></g><g style="fill: #777;" class="SourcesFooter"><g style="fill: #777;" class="clickable"><text font-size="12.60" x="15.0" y="581.6"><tspan x="15" y="581.58">Source: Military Personnel, COW Project (2017)</tspan></text></g><text font-size="12.60" x="649.0" y="581.6"><tspan x="649.024" y="581.58"><a target='_blank' style='fill: #777;' href='https://ourworldindata.org'>OurWorldInData.org</a> • <a style="fill: #777;" href="http://creativecommons.org/licenses/by-sa/4.0/deed.en_US" target="_blank">CC BY-SA</a></tspan></text></g></g></svg>