<svg xmlns="http://www.w3.org/2000/svg" version="1.1" style="font-family: 'Helvetica Neue', Helvetica, Arial, sans-serif; font-size: 18px; background-color: white; text-rendering: optimizeLegibility; -webkit-font-smoothing: antialiased;" width="850" height="600"><g class="ChartTab"><g class="HeaderView"><g opacity="0.8" transform="translate(770, 15) scale(0.31)"><a xmlns:xlink="http://www.w3.org/1999/xlink" xlink:href="https://ourworldindata.org" target="_blank"><g><rect x="0" y="0" fill="#1B2543" width="211.2" height="130.1"/><rect x="0" y="112.2" fill="#E63912" width="211.2" height="17.9"/><g><rect x="1.2" y="12.3" fill="none" width="210.2" height="99.2"/><path fill="#FFFFFF" d="M37.8,32.2c0,12.7-7.7,19.4-17.1,19.4c-9.7,0-16.6-7.5-16.6-18.7c0-11.7,7.3-19.3,17.1-19.3 C31.3,13.7,37.8,21.3,37.8,32.2z M9.2,32.8c0,7.9,4.3,14.9,11.8,14.9c7.5,0,11.8-6.9,11.8-15.3c0-7.3-3.8-14.9-11.8-14.9 C13.1,17.5,9.2,24.8,9.2,32.8z"/><path fill="#FFFFFF" d="M62.7,43.8c0,2.7,0.1,5.1,0.2,7.2h-4.3l-0.3-4.3h-0.1c-1.3,2.1-4,4.9-8.8,4.9c-4.2,0-9.1-2.3-9.1-11.6 V24.6h4.8v14.6c0,5,1.5,8.4,5.9,8.4c3.2,0,5.5-2.2,6.3-4.4c0.3-0.7,0.4-1.6,0.4-2.5V24.6h4.8V43.8z"/><path fill="#FFFFFF" d="M67.3,32.8c0-3.1-0.1-5.8-0.2-8.2h4.2l0.2,5.2h0.2c1.2-3.5,4.1-5.8,7.3-5.8c0.5,0,0.9,0.1,1.4,0.2v4.5 c-0.5-0.1-1-0.2-1.6-0.2c-3.4,0-5.8,2.6-6.5,6.2c-0.1,0.7-0.2,1.4-0.2,2.2V51h-4.8V32.8z"/><path fill="#FFFFFF" d="M95.4,51l-9.4-36.8h5l4.4,18.6c1.1,4.6,2.1,9.2,2.7,12.7h0.1c0.6-3.7,1.8-8,3-12.8l4.9-18.5h5l4.5,18.7 c1,4.4,2,8.7,2.6,12.6h0.1c0.8-4,1.8-8.1,3-12.7l4.9-18.5h4.9L120.6,51h-5L111,31.9c-1.1-4.7-1.9-8.3-2.4-12h-0.1 c-0.7,3.7-1.5,7.3-2.8,12L100.4,51H95.4z"/><path fill="#FFFFFF" d="M154.9,37.6c0,9.8-6.8,14-13.2,14c-7.2,0-12.7-5.2-12.7-13.6c0-8.8,5.8-14,13.1-14 C149.8,24,154.9,29.5,154.9,37.6z M133.9,37.9c0,5.8,3.3,10.1,8,10.1c4.6,0,8-4.3,8-10.3c0-4.5-2.2-10.1-7.9-10.1 C136.3,27.6,133.9,32.8,133.9,37.9z"/><path fill="#FFFFFF" d="M158.2,32.8c0-3.1-0.1-5.8-0.2-8.2h4.2l0.2,5.2h0.2c1.2-3.5,4.1-5.8,7.3-5.8c0.5,0,0.9,0.1,1.4,0.2v4.5 c-0.5-0.1-1-0.2-1.6-0.2c-3.4,0-5.8,2.6-6.5,6.2c-0.1,0.7-0.2,1.4-0.2,2.2V51h-4.8V32.8z"/><path fill="#FFFFFF" d="M173.5,12.3h4.8V51h-4.8V12.3z"/><path fill="#FFFFFF" d="M206.5,12.3v31.9c0,2.3,0.1,5,0.2,6.8h-4.3l-0.2-4.6H202c-1.5,2.9-4.7,5.2-9,5.2 c-6.4,0-11.3-5.4-11.3-13.4c-0.1-8.8,5.4-14.2,11.9-14.2c4,0,6.8,1.9,8,4h0.1V12.3H206.5z M201.7,35.4c0-0.6-0.1-1.4-0.2-2 c-0.7-3.1-3.3-5.6-6.9-5.6c-5,0-7.9,4.4-7.9,10.2c0,5.3,2.6,9.8,7.8,9.8c3.2,0,6.2-2.1,7.1-5.7c0.2-0.7,0.2-1.3,0.2-2.1V35.4z"/><path fill="#FFFFFF" d="M42.8,64c0.1,1.6-1.1,2.9-3.1,2.9c-1.7,0-2.9-1.3-2.9-2.9c0-1.7,1.3-3,3-3C41.7,61,42.8,62.3,42.8,64z M37.4,97.8V71.4h4.8v26.4H37.4z"/><path fill="#FFFFFF" d="M47.5,78.6c0-2.7-0.1-5-0.2-7.1h4.3l0.3,4.4h0.1c1.3-2.5,4.4-5,8.8-5c3.7,0,9.4,2.2,9.4,11.2v15.8h-4.8 V82.6c0-4.3-1.6-7.8-6.1-7.8c-3.2,0-5.6,2.2-6.5,4.9c-0.2,0.6-0.3,1.4-0.3,2.2v15.9h-4.8V78.6z"/><path fill="#FFFFFF" d="M84,61.6c2.9-0.4,6.3-0.8,10.1-0.8c6.8,0,11.7,1.6,14.9,4.6c3.3,3,5.2,7.3,5.2,13.2c0,6-1.9,10.9-5.3,14.3 c-3.4,3.4-9.1,5.3-16.3,5.3c-3.4,0-6.2-0.2-8.6-0.4V61.6z M88.8,94.1c1.2,0.2,3,0.3,4.8,0.3c10.2,0,15.7-5.7,15.7-15.6 c0.1-8.7-4.9-14.2-14.9-14.2c-2.5,0-4.3,0.2-5.6,0.5V94.1z"/><path fill="#FFFFFF" d="M132.1,97.8l-0.4-3.3h-0.2c-1.5,2.1-4.3,3.9-8.1,3.9c-5.4,0-8.1-3.8-8.1-7.6c0-6.4,5.7-9.9,15.9-9.8v-0.5 c0-2.2-0.6-6.1-6-6.1c-2.5,0-5,0.8-6.9,2l-1.1-3.2c2.2-1.4,5.4-2.3,8.7-2.3c8.1,0,10.1,5.5,10.1,10.8v9.9c0,2.3,0.1,4.5,0.4,6.3 H132.1z M131.4,84.4c-5.3-0.1-11.2,0.8-11.2,5.9c0,3.1,2.1,4.6,4.5,4.6c3.4,0,5.6-2.2,6.4-4.4c0.2-0.5,0.3-1,0.3-1.5V84.4z"/><path fill="#FFFFFF" d="M146.6,63.9v7.6h6.9v3.7h-6.9v14.2c0,3.3,0.9,5.1,3.6,5.1c1.3,0,2.2-0.2,2.8-0.3l0.2,3.6 c-0.9,0.4-2.4,0.7-4.3,0.7c-2.2,0-4-0.7-5.2-2c-1.4-1.4-1.9-3.8-1.9-6.9V75.1h-4.1v-3.7h4.1v-6.3L146.6,63.9z"/><path fill="#FFFFFF" d="M171.4,97.8l-0.4-3.3h-0.2c-1.5,2.1-4.3,3.9-8.1,3.9c-5.4,0-8.1-3.8-8.1-7.6c0-6.4,5.7-9.9,15.9-9.8v-0.5 c0-2.2-0.6-6.1-6-6.1c-2.5,0-5,0.8-6.9,2l-1.1-3.2c2.2-1.4,5.4-2.3,8.7-2.3c8.1,0,10.1,5.5,10.1,10.8v9.9c0,2.3,0.1,4.5,0.4,6.3 H171.4z M170.7,84.4c-5.3-0.1-11.2,0.8-11.2,5.9c0,3.1,2.1,4.6,4.5,4.6c3.4,0,5.6-2.2,6.4-4.4c0.2-0.5,0.3-1,0.3-1.5V84.4z"/></g></g></a></g><a href="https://ourworldindata.org/grapher/natural-gas-production-by-region-terrawatt-hours-twh" target="_blank"><text font-size="27.00" x="15.0" y="36.6" fill="#555"><tspan x="15" y="36.6">Natural gas production by region, terrawatt-hours (TWh)</tspan></text></a><text font-size="14.40" x="15.0" y="55.5" fill="#666"><tspan x="15" y="55.519999999999996">Annual natural gas production, measured in terrawatt-hour (TWh) equivalents.</tspan></text></g><g class="StackedArea"><defs><clipPath id="boundsClip-331"><rect x="108.614" y="0" width="820" height="956.2"></rect></clipPath></defs><g class="AxisBoxView"><g class="HorizontalAxis"><text x="108.6" y="556.5" fill="#666" text-anchor="middle" font-size="16.2">1970</text><text x="237.5" y="556.5" fill="#666" text-anchor="middle" font-size="16.2">1980</text><text x="366.5" y="556.5" fill="#666" text-anchor="middle" font-size="16.2">1990</text><text x="495.4" y="556.5" fill="#666" text-anchor="middle" font-size="16.2">2000</text><text x="624.3" y="556.5" fill="#666" text-anchor="middle" font-size="16.2">2010</text><text x="701.7" y="556.5" fill="#666" text-anchor="middle" font-size="16.2">2016</text></g><g class="VerticalAxis"><text x="103.61" y="535.3" fill="#666" dominant-baseline="middle" text-anchor="end" font-size="16.2">0 TWh</text><text x="103.61" y="474.2" fill="#666" dominant-baseline="middle" text-anchor="end" font-size="16.2">5,000 TWh</text><text x="103.61" y="413" fill="#666" dominant-baseline="middle" text-anchor="end" font-size="16.2">10,000 TWh</text><text x="103.61" y="351.9" fill="#666" dominant-baseline="middle" text-anchor="end" font-size="16.2">15,000 TWh</text><text x="103.61" y="290.7" fill="#666" dominant-baseline="middle" text-anchor="end" font-size="16.2">20,000 TWh</text><text x="103.61" y="229.6" fill="#666" dominant-baseline="middle" text-anchor="end" font-size="16.2">25,000 TWh</text><text x="103.61" y="168.5" fill="#666" dominant-baseline="middle" text-anchor="end" font-size="16.2">30,000 TWh</text><text x="103.61" y="107.3" fill="#666" dominant-baseline="middle" text-anchor="end" font-size="16.2">35,000 TWh</text></g><g class="AxisGridLines"><line x1="108.61" y1="535.3" x2="701.67" y2="535.3" stroke="#ccc"></line><line x1="108.61" y1="474.2" x2="701.67" y2="474.2" stroke="#ddd" stroke-dasharray="3,2"></line><line x1="108.61" y1="413" x2="701.67" y2="413" stroke="#ddd" stroke-dasharray="3,2"></line><line x1="108.61" y1="351.9" x2="701.67" y2="351.9" stroke="#ddd" stroke-dasharray="3,2"></line><line x1="108.61" y1="290.7" x2="701.67" y2="290.7" stroke="#ddd" stroke-dasharray="3,2"></line><line x1="108.61" y1="229.6" x2="701.67" y2="229.6" stroke="#ddd" stroke-dasharray="3,2"></line><line x1="108.61" y1="168.5" x2="701.67" y2="168.5" stroke="#ddd" stroke-dasharray="3,2"></line><line x1="108.61" y1="107.3" x2="701.67" y2="107.3" stroke="#ddd" stroke-dasharray="3,2"></line></g><g class="AxisGridLines"><line x1="108.6" y1="535.30" x2="108.6" y2="78.40" stroke="#ddd" stroke-dasharray="3,2"></line><line x1="237.5" y1="535.30" x2="237.5" y2="78.40" stroke="#ddd" stroke-dasharray="3,2"></line><line x1="366.5" y1="535.30" x2="366.5" y2="78.40" stroke="#ddd" stroke-dasharray="3,2"></line><line x1="495.4" y1="535.30" x2="495.4" y2="78.40" stroke="#ddd" stroke-dasharray="3,2"></line><line x1="624.3" y1="535.30" x2="624.3" y2="78.40" stroke="#ddd" stroke-dasharray="3,2"></line></g></g><g clip-path="url(#boundsClip-331)"><g class="HeightedLegend clickable"><g class="legendMark"><rect x="706.672" y="74.75" width="117.09600000000002" height="29.900000000000002" fill="#fff" opacity="0"></rect><rect x="706.672" y="88.45" width="10" height="2.5" fill="#5eb77e"></rect><text font-size="14.40" x="721.7" y="86.3" fill="#333"><tspan x="721.672" y="86.27000000000001">South &amp; Central</tspan><tspan x="721.672" y="102.11000000000001">America</tspan></text></g><g class="legendMark"><rect x="706.672" y="107.2" width="51.864000000000004" height="14.4" fill="#fff" opacity="0"></rect><rect x="706.672" y="113.15" width="10" height="2.5" fill="#3360a9"></rect><text font-size="14.40" x="721.7" y="118.7" fill="#333"><tspan x="721.672" y="118.72000000000001">Africa</tspan></text></g><g class="legendMark"><rect x="706.672" y="157.60000000000002" width="89.59200000000001" height="14.4" fill="#fff" opacity="0"></rect><rect x="706.672" y="163.55" width="10" height="2.5" fill="#ca2628"></rect><text font-size="14.40" x="721.7" y="169.1" fill="#333"><tspan x="721.672" y="169.12000000000003">Asia Pacific</tspan></text></g><g class="legendMark"><rect x="706.672" y="235.60000000000002" width="90.456" height="14.4" fill="#fff" opacity="0"></rect><rect x="706.672" y="241.55" width="10" height="2.5" fill="#e6332e"></rect><text font-size="14.40" x="721.7" y="247.1" fill="#333"><tspan x="721.672" y="247.12000000000003">Middle East</tspan></text></g><g class="legendMark"><rect x="706.672" y="338.2" width="107.16000000000001" height="14.4" fill="#fff" opacity="0"></rect><rect x="706.672" y="344.15" width="10" height="2.5" fill="#34983f"></rect><text font-size="14.40" x="721.7" y="349.7" fill="#333"><tspan x="721.672" y="349.71999999999997">North America</tspan></text></g><g class="legendMark"><rect x="706.672" y="464.1" width="128.32800000000003" height="14.4" fill="#fff" opacity="0"></rect><rect x="706.672" y="470.05" width="10" height="2.5" fill="#ffd53e"></rect><text font-size="14.40" x="721.7" y="475.6" fill="#333"><tspan x="721.672" y="475.62">Europe &amp; Eurasia</tspan></text></g></g><g class="Areas"><rect x="108.614" y="78.4" width="593.058" height="456.9000000000001" opacity="0" fill="rgba(255,255,255,0)"></rect><path stroke-linecap="round" d="M108.6 499.3L121.5 494.7L134.4 490.5L147.3 486.4L160.2 481.1L173.1 476.9L186 471.6L198.9 467.8L211.8 464L224.6 459.1L237.5 456.1L250.4 453.1L263.3 450.9L276.2 446.4L289.1 439.9L302 432.8L314.9 428.4L327.8 422.9L340.7 419.4L353.6 416.1L366.5 413.2L379.4 413.4L392.3 416.5L405.1 417.6L418 422.3L430.9 423.5L443.8 417.7L456.7 423.4L469.6 421.5L482.5 418.6L495.4 415.6L508.3 414.7L521.2 411.9L534.1 407.6L547 404.3L559.9 403.9L572.7 401.9L585.6 402.5L598.5 398.8L611.4 414L624.3 404.6L637.2 403.2L650.1 404L663 403.1L675.9 406.9L688.8 407.9L701.7 407.3L701.672 535.3000000000001L108.614 535.3000000000001" fill="#ffd53e" fill-opacity="0.7" class="Europe-__0026-Eurasia_0-area"></path><path stroke-linecap="round" d="M108.6 413.5L121.5 406.1L134.4 401.2L147.3 396.5L160.2 395L173.1 396.2L186 391.4L198.9 386.8L211.8 383.2L224.6 374.9L237.5 372.5L250.4 370.2L263.3 372.5L276.2 374.7L289.1 362.4L302 358.4L314.9 356.7L327.8 348.2L340.7 341.3L353.6 336.6L366.5 331.4L379.4 331.1L392.3 332.3L405.1 330.9L418 331.3L430.9 332.3L443.8 324.5L456.7 329.5L469.6 325.9L482.5 323.8L495.4 318.8L508.3 315.5L521.2 315.3L534.1 310.6L547 308.9L559.9 308.9L572.7 304.4L585.6 303.5L598.5 297.4L611.4 311.7L624.3 300.6L637.2 293.3L650.1 290.5L663 288.5L675.9 285L688.8 281.3L701.7 283.6L701.7 407.3L688.8 407.9L675.9 406.9L663 403.1L650.1 404L637.2 403.2L624.3 404.6L611.4 414L598.5 398.8L585.6 402.5L572.7 401.9L559.9 403.9L547 404.3L534.1 407.6L521.2 411.9L508.3 414.7L495.4 415.6L482.5 418.6L469.6 421.5L456.7 423.4L443.8 417.7L430.9 423.5L418 422.3L405.1 417.6L392.3 416.5L379.4 413.4L366.5 413.2L353.6 416.1L340.7 419.4L327.8 422.9L314.9 428.4L302 432.8L289.1 439.9L276.2 446.4L263.3 450.9L250.4 453.1L237.5 456.1L224.6 459.1L211.8 464L198.9 467.8L186 471.6L173.1 476.9L160.2 481.1L147.3 486.4L134.4 490.5L121.5 494.7L108.6 499.3" fill="#34983f" fill-opacity="0.7" class="North-America_0-area"></path><path stroke-linecap="round" d="M108.6 412.1L121.5 404L134.4 398.5L147.3 393.5L160.2 391.8L173.1 392.6L186 387.8L198.9 382.7L211.8 379.2L224.6 370L237.5 367.9L250.4 365.3L263.3 367L276.2 369.2L289.1 355.4L302 350.8L314.9 347.6L327.8 338.2L340.7 330.2L353.6 324.1L366.5 317.9L379.4 316.9L392.3 316.6L405.1 316.2L418 314.3L430.9 313.3L443.8 304.1L456.7 307.5L469.6 302.4L482.5 298.7L495.4 291.9L508.3 285.4L521.2 283L534.1 276.5L547 271L559.9 267.8L572.7 260.5L585.6 256L598.5 246.1L611.4 257.7L624.3 237.2L637.2 225.7L650.1 219.5L663 213.3L675.9 207.9L688.8 202.5L701.7 201.9L701.7 283.6L688.8 281.3L675.9 285L663 288.5L650.1 290.5L637.2 293.3L624.3 300.6L611.4 311.7L598.5 297.4L585.6 303.5L572.7 304.4L559.9 308.9L547 308.9L534.1 310.6L521.2 315.3L508.3 315.5L495.4 318.8L482.5 323.8L469.6 325.9L456.7 329.5L443.8 324.5L430.9 332.3L418 331.3L405.1 330.9L392.3 332.3L379.4 331.1L366.5 331.4L353.6 336.6L340.7 341.3L327.8 348.2L314.9 356.7L302 358.4L289.1 362.4L276.2 374.7L263.3 372.5L250.4 370.2L237.5 372.5L224.6 374.9L211.8 383.2L198.9 386.8L186 391.4L173.1 396.2L160.2 395L147.3 396.5L134.4 401.2L121.5 406.1L108.6 413.5" fill="#e6332e" fill-opacity="0.7" class="Middle-East_0-area"></path><path stroke-linecap="round" d="M108.6 410.1L121.5 401.6L134.4 395.8L147.3 390.1L160.2 387.8L173.1 387.9L186 382.4L198.9 376.2L211.8 371.5L224.6 361.2L237.5 358.6L250.4 355.9L263.3 357.2L276.2 358.2L289.1 342.7L302 337L314.9 332.4L327.8 322.1L340.7 313L353.6 306.1L366.5 298.8L379.4 296.1L392.3 294.6L405.1 292.9L418 289L430.9 286.6L443.8 275L456.7 276.6L469.6 271L482.5 265.3L495.4 256.4L508.3 248.9L521.2 244L534.1 235L547 226.7L559.9 219.8L572.7 210.4L585.6 203.8L598.5 191.3L611.4 200.1L624.3 174.4L637.2 161.5L650.1 154.8L663 147.2L675.9 138.9L688.8 130.6L701.7 127.7L701.7 201.9L688.8 202.5L675.9 207.9L663 213.3L650.1 219.5L637.2 225.7L624.3 237.2L611.4 257.7L598.5 246.1L585.6 256L572.7 260.5L559.9 267.8L547 271L534.1 276.5L521.2 283L508.3 285.4L495.4 291.9L482.5 298.7L469.6 302.4L456.7 307.5L443.8 304.1L430.9 313.3L418 314.3L405.1 316.2L392.3 316.6L379.4 316.9L366.5 317.9L353.6 324.1L340.7 330.2L327.8 338.2L314.9 347.6L302 350.8L289.1 355.4L276.2 369.2L263.3 367L250.4 365.3L237.5 367.9L224.6 370L211.8 379.2L198.9 382.7L186 387.8L173.1 392.6L160.2 391.8L147.3 393.5L134.4 398.5L121.5 404L108.6 412.1" fill="#ca2628" fill-opacity="0.7" class="Asia-Pacific_0-area"></path><path stroke-linecap="round" d="M108.6 409.7L121.5 401.1L134.4 394.9L147.3 388.8L160.2 386.4L173.1 386.4L186 380.6L198.9 374.3L211.8 369L224.6 357.4L237.5 355.4L250.4 352.6L263.3 353.1L276.2 352.7L289.1 336.9L302 330.7L314.9 325.7L327.8 314.8L340.7 305.2L353.6 297.6L366.5 290L379.4 286.6L392.3 284.5L405.1 282.5L418 279.1L430.9 275.7L443.8 263.3L456.7 263.6L469.6 257L482.5 250.1L495.4 239.4L508.3 231.4L521.2 225.8L534.1 215.2L547 206L559.9 197.2L572.7 185.7L585.6 177.7L598.5 164.1L611.4 174.5L624.3 147.1L637.2 134.7L650.1 127.4L663 120.8L675.9 112.4L688.8 103.7L701.7 101.1L701.7 127.7L688.8 130.6L675.9 138.9L663 147.2L650.1 154.8L637.2 161.5L624.3 174.4L611.4 200.1L598.5 191.3L585.6 203.8L572.7 210.4L559.9 219.8L547 226.7L534.1 235L521.2 244L508.3 248.9L495.4 256.4L482.5 265.3L469.6 271L456.7 276.6L443.8 275L430.9 286.6L418 289L405.1 292.9L392.3 294.6L379.4 296.1L366.5 298.8L353.6 306.1L340.7 313L327.8 322.1L314.9 332.4L302 337L289.1 342.7L276.2 358.2L263.3 357.2L250.4 355.9L237.5 358.6L224.6 361.2L211.8 371.5L198.9 376.2L186 382.4L173.1 387.9L160.2 387.8L147.3 390.1L134.4 395.8L121.5 401.6L108.6 410.1" fill="#3360a9" fill-opacity="0.7" class="Africa_0-area"></path><path stroke-linecap="round" d="M108.6 407.4L121.5 398.8L134.4 392.4L147.3 386.1L160.2 383.5L173.1 383.5L186 377.2L198.9 370.7L211.8 365.3L224.6 353.4L237.5 351L250.4 348L263.3 348.2L276.2 347.5L289.1 331.3L302 324.9L314.9 319.4L327.8 308.5L340.7 298.3L353.6 290.3L366.5 282.5L379.4 278.9L392.3 276.7L405.1 274.3L418 270.3L430.9 266.2L443.8 253L456.7 252.8L469.6 245.5L482.5 238.3L495.4 226.4L508.3 217.8L521.2 211.7L534.1 199.8L547 188.8L559.9 179.2L572.7 166L585.6 157L598.5 143.3L611.4 154.3L624.3 125.9L637.2 113.3L650.1 105.2L663 98.3L675.9 89.8L688.8 80.9L701.7 78.4L701.7 101.1L688.8 103.7L675.9 112.4L663 120.8L650.1 127.4L637.2 134.7L624.3 147.1L611.4 174.5L598.5 164.1L585.6 177.7L572.7 185.7L559.9 197.2L547 206L534.1 215.2L521.2 225.8L508.3 231.4L495.4 239.4L482.5 250.1L469.6 257L456.7 263.6L443.8 263.3L430.9 275.7L418 279.1L405.1 282.5L392.3 284.5L379.4 286.6L366.5 290L353.6 297.6L340.7 305.2L327.8 314.8L314.9 325.7L302 330.7L289.1 336.9L276.2 352.7L263.3 353.1L250.4 352.6L237.5 355.4L224.6 357.4L211.8 369L198.9 374.3L186 380.6L173.1 386.4L160.2 386.4L147.3 388.8L134.4 394.9L121.5 401.1L108.6 409.7" fill="#5eb77e" fill-opacity="0.7" class="South-__0026-Central-America_0-area"></path><path stroke-linecap="round" d="M108.6 499.3L121.5 494.7L134.4 490.5L147.3 486.4L160.2 481.1L173.1 476.9L186 471.6L198.9 467.8L211.8 464L224.6 459.1L237.5 456.1L250.4 453.1L263.3 450.9L276.2 446.4L289.1 439.9L302 432.8L314.9 428.4L327.8 422.9L340.7 419.4L353.6 416.1L366.5 413.2L379.4 413.4L392.3 416.5L405.1 417.6L418 422.3L430.9 423.5L443.8 417.7L456.7 423.4L469.6 421.5L482.5 418.6L495.4 415.6L508.3 414.7L521.2 411.9L534.1 407.6L547 404.3L559.9 403.9L572.7 401.9L585.6 402.5L598.5 398.8L611.4 414L624.3 404.6L637.2 403.2L650.1 404L663 403.1L675.9 406.9L688.8 407.9L701.7 407.3" stroke="rgb(213, 178, 52)" stroke-opacity="0.7" stroke-width="0.5" fill="none" class="Europe-__0026-Eurasia_0-border"></path><path stroke-linecap="round" d="M108.6 413.5L121.5 406.1L134.4 401.2L147.3 396.5L160.2 395L173.1 396.2L186 391.4L198.9 386.8L211.8 383.2L224.6 374.9L237.5 372.5L250.4 370.2L263.3 372.5L276.2 374.7L289.1 362.4L302 358.4L314.9 356.7L327.8 348.2L340.7 341.3L353.6 336.6L366.5 331.4L379.4 331.1L392.3 332.3L405.1 330.9L418 331.3L430.9 332.3L443.8 324.5L456.7 329.5L469.6 325.9L482.5 323.8L495.4 318.8L508.3 315.5L521.2 315.3L534.1 310.6L547 308.9L559.9 308.9L572.7 304.4L585.6 303.5L598.5 297.4L611.4 311.7L624.3 300.6L637.2 293.3L650.1 290.5L663 288.5L675.9 285L688.8 281.3L701.7 283.6" stroke="rgb(44, 127, 53)" stroke-opacity="0.7" stroke-width="0.5" fill="none" class="North-America_0-border"></path><path stroke-linecap="round" d="M108.6 412.1L121.5 404L134.4 398.5L147.3 393.5L160.2 391.8L173.1 392.6L186 387.8L198.9 382.7L211.8 379.2L224.6 370L237.5 367.9L250.4 365.3L263.3 367L276.2 369.2L289.1 355.4L302 350.8L314.9 347.6L327.8 338.2L340.7 330.2L353.6 324.1L366.5 317.9L379.4 316.9L392.3 316.6L405.1 316.2L418 314.3L430.9 313.3L443.8 304.1L456.7 307.5L469.6 302.4L482.5 298.7L495.4 291.9L508.3 285.4L521.2 283L534.1 276.5L547 271L559.9 267.8L572.7 260.5L585.6 256L598.5 246.1L611.4 257.7L624.3 237.2L637.2 225.7L650.1 219.5L663 213.3L675.9 207.9L688.8 202.5L701.7 201.9" stroke="rgb(192, 43, 38)" stroke-opacity="0.7" stroke-width="0.5" fill="none" class="Middle-East_0-border"></path><path stroke-linecap="round" d="M108.6 410.1L121.5 401.6L134.4 395.8L147.3 390.1L160.2 387.8L173.1 387.9L186 382.4L198.9 376.2L211.8 371.5L224.6 361.2L237.5 358.6L250.4 355.9L263.3 357.2L276.2 358.2L289.1 342.7L302 337L314.9 332.4L327.8 322.1L340.7 313L353.6 306.1L366.5 298.8L379.4 296.1L392.3 294.6L405.1 292.9L418 289L430.9 286.6L443.8 275L456.7 276.6L469.6 271L482.5 265.3L495.4 256.4L508.3 248.9L521.2 244L534.1 235L547 226.7L559.9 219.8L572.7 210.4L585.6 203.8L598.5 191.3L611.4 200.1L624.3 174.4L637.2 161.5L650.1 154.8L663 147.2L675.9 138.9L688.8 130.6L701.7 127.7" stroke="rgb(169, 32, 33)" stroke-opacity="0.7" stroke-width="0.5" fill="none" class="Asia-Pacific_0-border"></path><path stroke-linecap="round" d="M108.6 409.7L121.5 401.1L134.4 394.9L147.3 388.8L160.2 386.4L173.1 386.4L186 380.6L198.9 374.3L211.8 369L224.6 357.4L237.5 355.4L250.4 352.6L263.3 353.1L276.2 352.7L289.1 336.9L302 330.7L314.9 325.7L327.8 314.8L340.7 305.2L353.6 297.6L366.5 290L379.4 286.6L392.3 284.5L405.1 282.5L418 279.1L430.9 275.7L443.8 263.3L456.7 263.6L469.6 257L482.5 250.1L495.4 239.4L508.3 231.4L521.2 225.8L534.1 215.2L547 206L559.9 197.2L572.7 185.7L585.6 177.7L598.5 164.1L611.4 174.5L624.3 147.1L637.2 134.7L650.1 127.4L663 120.8L675.9 112.4L688.8 103.7L701.7 101.1" stroke="rgb(43, 80, 141)" stroke-opacity="0.7" stroke-width="0.5" fill="none" class="Africa_0-border"></path><path stroke-linecap="round" d="M108.6 407.4L121.5 398.8L134.4 392.4L147.3 386.1L160.2 383.5L173.1 383.5L186 377.2L198.9 370.7L211.8 365.3L224.6 353.4L237.5 351L250.4 348L263.3 348.2L276.2 347.5L289.1 331.3L302 324.9L314.9 319.4L327.8 308.5L340.7 298.3L353.6 290.3L366.5 282.5L379.4 278.9L392.3 276.7L405.1 274.3L418 270.3L430.9 266.2L443.8 253L456.7 252.8L469.6 245.5L482.5 238.3L495.4 226.4L508.3 217.8L521.2 211.7L534.1 199.8L547 188.8L559.9 179.2L572.7 166L585.6 157L598.5 143.3L611.4 154.3L624.3 125.9L637.2 113.3L650.1 105.2L663 98.3L675.9 89.8L688.8 80.9L701.7 78.4" stroke="rgb(79, 153, 105)" stroke-opacity="0.7" stroke-width="0.5" fill="none" class="South-__0026-Central-America_0-border"></path></g></g></g><g style="fill: #777;" class="SourcesFooter"><g style="fill: #777;" class="clickable"><text font-size="12.60" x="15.0" y="581.6"><tspan x="15" y="581.58">Source: BP Statistical Review of Global Energy</tspan></text></g><text font-size="12.60" x="582.4" y="581.6"><tspan x="582.37" y="581.58"><a target='_blank' style='fill: #777;' href='https://ourworldindata.org/fossil-fuels/'>OurWorldInData.org/fossil-fuels/</a> • <a style="fill: #777;" href="http://creativecommons.org/licenses/by-sa/4.0/deed.en_US" target="_blank">CC BY-SA</a></tspan></text></g></g></svg>