<svg xmlns="http://www.w3.org/2000/svg" version="1.1" style="font-family: 'Helvetica Neue', Helvetica, Arial, sans-serif; font-size: 24px; background-color: white;" width="1200" height="630"><g class="ChartTab"><g class="LineChart"><defs><clipPath id="boundsClip-837"><rect x="22.096000000000004" y="0" width="1180" height="1130"></rect></clipPath></defs><g class="AxisBoxView"><g class="HorizontalAxis"><text x="32.1" y="600" fill="#666" text-anchor="middle" font-size="21.6">2010</text><text x="243.5" y="600" fill="#666" text-anchor="middle" font-size="21.6">2011</text><text x="454.9" y="600" fill="#666" text-anchor="middle" font-size="21.6">2012</text><text x="666.3" y="600" fill="#666" text-anchor="middle" font-size="21.6">2013</text><text x="877.7" y="600" fill="#666" text-anchor="middle" font-size="21.6">2014</text><text x="1089.2" y="600" fill="#666" text-anchor="middle" font-size="21.6">2015</text></g><g class="VerticalAxis"><text x="27.10" y="573.4" fill="#666" dominant-baseline="middle" text-anchor="end" font-size="21.6">0</text><text x="27.10" y="490.7" fill="#666" dominant-baseline="middle" text-anchor="end" font-size="21.6">1</text><text x="27.10" y="408" fill="#666" dominant-baseline="middle" text-anchor="end" font-size="21.6">2</text><text x="27.10" y="325.3" fill="#666" dominant-baseline="middle" text-anchor="end" font-size="21.6">3</text><text x="27.10" y="242.6" fill="#666" dominant-baseline="middle" text-anchor="end" font-size="21.6">4</text><text x="27.10" y="159.9" fill="#666" dominant-baseline="middle" text-anchor="end" font-size="21.6">5</text><text x="27.10" y="77.2" fill="#666" dominant-baseline="middle" text-anchor="end" font-size="21.6">6</text></g><g class="AxisGridLines"><line x1="32.10" y1="573.4" x2="1089.15" y2="573.4" stroke="#ccc"></line><line x1="32.10" y1="490.7" x2="1089.15" y2="490.7" stroke="#ddd" stroke-dasharray="3,2"></line><line x1="32.10" y1="408" x2="1089.15" y2="408" stroke="#ddd" stroke-dasharray="3,2"></line><line x1="32.10" y1="325.3" x2="1089.15" y2="325.3" stroke="#ddd" stroke-dasharray="3,2"></line><line x1="32.10" y1="242.6" x2="1089.15" y2="242.6" stroke="#ddd" stroke-dasharray="3,2"></line><line x1="32.10" y1="159.9" x2="1089.15" y2="159.9" stroke="#ddd" stroke-dasharray="3,2"></line><line x1="32.10" y1="77.2" x2="1089.15" y2="77.2" stroke="#ddd" stroke-dasharray="3,2"></line></g><g class="AxisGridLines"><line x1="32.1" y1="573.40" x2="32.1" y2="35.00" stroke="#ddd" stroke-dasharray="3,2"></line><line x1="243.5" y1="573.40" x2="243.5" y2="35.00" stroke="#ddd" stroke-dasharray="3,2"></line><line x1="454.9" y1="573.40" x2="454.9" y2="35.00" stroke="#ddd" stroke-dasharray="3,2"></line><line x1="666.3" y1="573.40" x2="666.3" y2="35.00" stroke="#ddd" stroke-dasharray="3,2"></line><line x1="877.7" y1="573.40" x2="877.7" y2="35.00" stroke="#ddd" stroke-dasharray="3,2"></line><line x1="1089.2" y1="573.40" x2="1089.2" y2="35.00" stroke="#ddd" stroke-dasharray="3,2"></line></g></g><g clip-path="url(#boundsClip-837)"><g class="HeightedLegend clickable"><g class="legendMark"><rect x="1099.152" y="25.4" width="85.84800000000001" height="19.200000000000003" fill="#fff" opacity="0"></rect><rect x="1099.152" y="33.75" width="10" height="2.5" fill="#3360a9"></rect><text font-size="19.20" x="1114.2" y="40.8" fill="#333"><tspan x="1114.152" y="40.76">England</tspan></text></g></g><g class="Lines"><rect x="32" y="35" width="1057" height="538" fill="rgba(255,255,255,0)" opacity="0"></rect><g class="key-England_0"><path stroke="#3360a9" stroke-linecap="round" d="M32 296L244 234L455 216L666 203L878 156L1089 35" fill="none" stroke-width="1.5"></path><g fill="#3360a9"><circle cx="32" cy="296" r="2"></circle><circle cx="244" cy="234" r="2"></circle><circle cx="455" cy="216" r="2"></circle><circle cx="666" cy="203" r="2"></circle><circle cx="878" cy="156" r="2"></circle><circle cx="1089" cy="35" r="2"></circle></g></g></g></g></g></g></svg>