<svg xmlns="http://www.w3.org/2000/svg" version="1.1" style="font-family: 'Helvetica Neue', Helvetica, Arial, sans-serif; font-size: 24px; background-color: white;" width="1200" height="630"><g class="ChartTab"><g class="LineChart"><defs><clipPath id="boundsClip-835"><rect x="64.43200000000002" y="0" width="1180" height="1130"></rect></clipPath></defs><g class="AxisBoxView"><g class="HorizontalAxis"><text x="74.4" y="600" fill="#666" text-anchor="middle" font-size="21.6">2010</text><text x="243.6" y="600" fill="#666" text-anchor="middle" font-size="21.6">2011</text><text x="412.7" y="600" fill="#666" text-anchor="middle" font-size="21.6">2012</text><text x="581.8" y="600" fill="#666" text-anchor="middle" font-size="21.6">2013</text><text x="750.9" y="600" fill="#666" text-anchor="middle" font-size="21.6">2014</text><text x="920" y="600" fill="#666" text-anchor="middle" font-size="21.6">2015</text><text x="1089.2" y="600" fill="#666" text-anchor="middle" font-size="21.6">2016</text></g><g class="VerticalAxis"><text x="69.43" y="573.4" fill="#666" dominant-baseline="middle" text-anchor="end" font-size="21.6">0</text><text x="69.43" y="508.3" fill="#666" dominant-baseline="middle" text-anchor="end" font-size="21.6">500</text><text x="69.43" y="443.2" fill="#666" dominant-baseline="middle" text-anchor="end" font-size="21.6">1,000</text><text x="69.43" y="378" fill="#666" dominant-baseline="middle" text-anchor="end" font-size="21.6">1,500</text><text x="69.43" y="312.9" fill="#666" dominant-baseline="middle" text-anchor="end" font-size="21.6">2,000</text><text x="69.43" y="247.8" fill="#666" dominant-baseline="middle" text-anchor="end" font-size="21.6">2,500</text><text x="69.43" y="182.7" fill="#666" dominant-baseline="middle" text-anchor="end" font-size="21.6">3,000</text><text x="69.43" y="117.6" fill="#666" dominant-baseline="middle" text-anchor="end" font-size="21.6">3,500</text><text x="69.43" y="52.5" fill="#666" dominant-baseline="middle" text-anchor="end" font-size="21.6">4,000</text></g><g class="AxisGridLines"><line x1="74.43" y1="573.4" x2="1089.15" y2="573.4" stroke="#ccc"></line><line x1="74.43" y1="508.3" x2="1089.15" y2="508.3" stroke="#ddd" stroke-dasharray="3,2"></line><line x1="74.43" y1="443.2" x2="1089.15" y2="443.2" stroke="#ddd" stroke-dasharray="3,2"></line><line x1="74.43" y1="378" x2="1089.15" y2="378" stroke="#ddd" stroke-dasharray="3,2"></line><line x1="74.43" y1="312.9" x2="1089.15" y2="312.9" stroke="#ddd" stroke-dasharray="3,2"></line><line x1="74.43" y1="247.8" x2="1089.15" y2="247.8" stroke="#ddd" stroke-dasharray="3,2"></line><line x1="74.43" y1="182.7" x2="1089.15" y2="182.7" stroke="#ddd" stroke-dasharray="3,2"></line><line x1="74.43" y1="117.6" x2="1089.15" y2="117.6" stroke="#ddd" stroke-dasharray="3,2"></line><line x1="74.43" y1="52.5" x2="1089.15" y2="52.5" stroke="#ddd" stroke-dasharray="3,2"></line></g><g class="AxisGridLines"><line x1="74.4" y1="573.40" x2="74.4" y2="35.00" stroke="#ddd" stroke-dasharray="3,2"></line><line x1="243.6" y1="573.40" x2="243.6" y2="35.00" stroke="#ddd" stroke-dasharray="3,2"></line><line x1="412.7" y1="573.40" x2="412.7" y2="35.00" stroke="#ddd" stroke-dasharray="3,2"></line><line x1="581.8" y1="573.40" x2="581.8" y2="35.00" stroke="#ddd" stroke-dasharray="3,2"></line><line x1="750.9" y1="573.40" x2="750.9" y2="35.00" stroke="#ddd" stroke-dasharray="3,2"></line><line x1="920" y1="573.40" x2="920" y2="35.00" stroke="#ddd" stroke-dasharray="3,2"></line><line x1="1089.2" y1="573.40" x2="1089.2" y2="35.00" stroke="#ddd" stroke-dasharray="3,2"></line></g></g><g clip-path="url(#boundsClip-835)"><g class="HeightedLegend clickable"><g class="legendMark"><rect x="1099.152" y="25.4" width="85.84800000000001" height="19.200000000000003" fill="#fff" opacity="0"></rect><rect x="1099.152" y="33.75" width="10" height="2.5" fill="#3360a9"></rect><text font-size="19.20" x="1114.2" y="40.8" fill="#333"><tspan x="1114.152" y="40.76">England</tspan></text></g></g><g class="Lines"><rect x="74" y="35" width="1015" height="538" fill="rgba(255,255,255,0)" opacity="0"></rect><g class="key-England_0"><path stroke="#3360a9" stroke-linecap="round" d="M74 343L244 289L413 273L582 259L751 216L920 109L1089 35" fill="none" stroke-width="1.5"></path><g fill="#3360a9"><circle cx="74" cy="343" r="2"></circle><circle cx="244" cy="289" r="2"></circle><circle cx="413" cy="273" r="2"></circle><circle cx="582" cy="259" r="2"></circle><circle cx="751" cy="216" r="2"></circle><circle cx="920" cy="109" r="2"></circle><circle cx="1089" cy="35" r="2"></circle></g></g></g></g></g></g></svg>