<svg xmlns="http://www.w3.org/2000/svg" version="1.1" style="font-family: 'Helvetica Neue', Helvetica, Arial, sans-serif; font-size: 18px; background-color: white; text-rendering: optimizeLegibility; -webkit-font-smoothing: antialiased;" width="850" height="600"><g class="ChartTab"><g class="HeaderView"><g opacity="0.8" transform="translate(770, 15) scale(0.31)"><a xmlns:xlink="http://www.w3.org/1999/xlink" xlink:href="https://ourworldindata.org" target="_blank"><g><rect x="0" y="0" fill="#1B2543" width="211.2" height="130.1"/><rect x="0" y="112.2" fill="#E63912" width="211.2" height="17.9"/><g><rect x="1.2" y="12.3" fill="none" width="210.2" height="99.2"/><path fill="#FFFFFF" d="M37.8,32.2c0,12.7-7.7,19.4-17.1,19.4c-9.7,0-16.6-7.5-16.6-18.7c0-11.7,7.3-19.3,17.1-19.3 C31.3,13.7,37.8,21.3,37.8,32.2z M9.2,32.8c0,7.9,4.3,14.9,11.8,14.9c7.5,0,11.8-6.9,11.8-15.3c0-7.3-3.8-14.9-11.8-14.9 C13.1,17.5,9.2,24.8,9.2,32.8z"/><path fill="#FFFFFF" d="M62.7,43.8c0,2.7,0.1,5.1,0.2,7.2h-4.3l-0.3-4.3h-0.1c-1.3,2.1-4,4.9-8.8,4.9c-4.2,0-9.1-2.3-9.1-11.6 V24.6h4.8v14.6c0,5,1.5,8.4,5.9,8.4c3.2,0,5.5-2.2,6.3-4.4c0.3-0.7,0.4-1.6,0.4-2.5V24.6h4.8V43.8z"/><path fill="#FFFFFF" d="M67.3,32.8c0-3.1-0.1-5.8-0.2-8.2h4.2l0.2,5.2h0.2c1.2-3.5,4.1-5.8,7.3-5.8c0.5,0,0.9,0.1,1.4,0.2v4.5 c-0.5-0.1-1-0.2-1.6-0.2c-3.4,0-5.8,2.6-6.5,6.2c-0.1,0.7-0.2,1.4-0.2,2.2V51h-4.8V32.8z"/><path fill="#FFFFFF" d="M95.4,51l-9.4-36.8h5l4.4,18.6c1.1,4.6,2.1,9.2,2.7,12.7h0.1c0.6-3.7,1.8-8,3-12.8l4.9-18.5h5l4.5,18.7 c1,4.4,2,8.7,2.6,12.6h0.1c0.8-4,1.8-8.1,3-12.7l4.9-18.5h4.9L120.6,51h-5L111,31.9c-1.1-4.7-1.9-8.3-2.4-12h-0.1 c-0.7,3.7-1.5,7.3-2.8,12L100.4,51H95.4z"/><path fill="#FFFFFF" d="M154.9,37.6c0,9.8-6.8,14-13.2,14c-7.2,0-12.7-5.2-12.7-13.6c0-8.8,5.8-14,13.1-14 C149.8,24,154.9,29.5,154.9,37.6z M133.9,37.9c0,5.8,3.3,10.1,8,10.1c4.6,0,8-4.3,8-10.3c0-4.5-2.2-10.1-7.9-10.1 C136.3,27.6,133.9,32.8,133.9,37.9z"/><path fill="#FFFFFF" d="M158.2,32.8c0-3.1-0.1-5.8-0.2-8.2h4.2l0.2,5.2h0.2c1.2-3.5,4.1-5.8,7.3-5.8c0.5,0,0.9,0.1,1.4,0.2v4.5 c-0.5-0.1-1-0.2-1.6-0.2c-3.4,0-5.8,2.6-6.5,6.2c-0.1,0.7-0.2,1.4-0.2,2.2V51h-4.8V32.8z"/><path fill="#FFFFFF" d="M173.5,12.3h4.8V51h-4.8V12.3z"/><path fill="#FFFFFF" d="M206.5,12.3v31.9c0,2.3,0.1,5,0.2,6.8h-4.3l-0.2-4.6H202c-1.5,2.9-4.7,5.2-9,5.2 c-6.4,0-11.3-5.4-11.3-13.4c-0.1-8.8,5.4-14.2,11.9-14.2c4,0,6.8,1.9,8,4h0.1V12.3H206.5z M201.7,35.4c0-0.6-0.1-1.4-0.2-2 c-0.7-3.1-3.3-5.6-6.9-5.6c-5,0-7.9,4.4-7.9,10.2c0,5.3,2.6,9.8,7.8,9.8c3.2,0,6.2-2.1,7.1-5.7c0.2-0.7,0.2-1.3,0.2-2.1V35.4z"/><path fill="#FFFFFF" d="M42.8,64c0.1,1.6-1.1,2.9-3.1,2.9c-1.7,0-2.9-1.3-2.9-2.9c0-1.7,1.3-3,3-3C41.7,61,42.8,62.3,42.8,64z M37.4,97.8V71.4h4.8v26.4H37.4z"/><path fill="#FFFFFF" d="M47.5,78.6c0-2.7-0.1-5-0.2-7.1h4.3l0.3,4.4h0.1c1.3-2.5,4.4-5,8.8-5c3.7,0,9.4,2.2,9.4,11.2v15.8h-4.8 V82.6c0-4.3-1.6-7.8-6.1-7.8c-3.2,0-5.6,2.2-6.5,4.9c-0.2,0.6-0.3,1.4-0.3,2.2v15.9h-4.8V78.6z"/><path fill="#FFFFFF" d="M84,61.6c2.9-0.4,6.3-0.8,10.1-0.8c6.8,0,11.7,1.6,14.9,4.6c3.3,3,5.2,7.3,5.2,13.2c0,6-1.9,10.9-5.3,14.3 c-3.4,3.4-9.1,5.3-16.3,5.3c-3.4,0-6.2-0.2-8.6-0.4V61.6z M88.8,94.1c1.2,0.2,3,0.3,4.8,0.3c10.2,0,15.7-5.7,15.7-15.6 c0.1-8.7-4.9-14.2-14.9-14.2c-2.5,0-4.3,0.2-5.6,0.5V94.1z"/><path fill="#FFFFFF" d="M132.1,97.8l-0.4-3.3h-0.2c-1.5,2.1-4.3,3.9-8.1,3.9c-5.4,0-8.1-3.8-8.1-7.6c0-6.4,5.7-9.9,15.9-9.8v-0.5 c0-2.2-0.6-6.1-6-6.1c-2.5,0-5,0.8-6.9,2l-1.1-3.2c2.2-1.4,5.4-2.3,8.7-2.3c8.1,0,10.1,5.5,10.1,10.8v9.9c0,2.3,0.1,4.5,0.4,6.3 H132.1z M131.4,84.4c-5.3-0.1-11.2,0.8-11.2,5.9c0,3.1,2.1,4.6,4.5,4.6c3.4,0,5.6-2.2,6.4-4.4c0.2-0.5,0.3-1,0.3-1.5V84.4z"/><path fill="#FFFFFF" d="M146.6,63.9v7.6h6.9v3.7h-6.9v14.2c0,3.3,0.9,5.1,3.6,5.1c1.3,0,2.2-0.2,2.8-0.3l0.2,3.6 c-0.9,0.4-2.4,0.7-4.3,0.7c-2.2,0-4-0.7-5.2-2c-1.4-1.4-1.9-3.8-1.9-6.9V75.1h-4.1v-3.7h4.1v-6.3L146.6,63.9z"/><path fill="#FFFFFF" d="M171.4,97.8l-0.4-3.3h-0.2c-1.5,2.1-4.3,3.9-8.1,3.9c-5.4,0-8.1-3.8-8.1-7.6c0-6.4,5.7-9.9,15.9-9.8v-0.5 c0-2.2-0.6-6.1-6-6.1c-2.5,0-5,0.8-6.9,2l-1.1-3.2c2.2-1.4,5.4-2.3,8.7-2.3c8.1,0,10.1,5.5,10.1,10.8v9.9c0,2.3,0.1,4.5,0.4,6.3 H171.4z M170.7,84.4c-5.3-0.1-11.2,0.8-11.2,5.9c0,3.1,2.1,4.6,4.5,4.6c3.4,0,5.6-2.2,6.4-4.4c0.2-0.5,0.3-1,0.3-1.5V84.4z"/></g></g></a></g><a href="https://ourworldindata.org/grapher/number-of-people-in-the-world-with-and-without-electricity-access" target="_blank"><text font-size="25.20" x="15.0" y="35.2" fill="#555"><tspan x="15" y="35.160000000000004">Number of people in the world with and without electricity access</tspan></text></a><text font-size="14.40" x="15.0" y="53.7" fill="#666"><tspan x="15" y="53.72">Absolute number of the global population with and without access to electricity in a given year.</tspan></text></g><g class="StackedArea"><defs><clipPath id="boundsClip-427"><rect x="75.08" y="0" width="820" height="930.5999999999999"></rect></clipPath></defs><g class="AxisBoxView"><g class="HorizontalAxis"><text x="75.1" y="541.9" fill="#666" text-anchor="middle" font-size="16.2">1990</text><text x="205.3" y="541.9" fill="#666" text-anchor="middle" font-size="16.2">1995</text><text x="335.5" y="541.9" fill="#666" text-anchor="middle" font-size="16.2">2000</text><text x="465.7" y="541.9" fill="#666" text-anchor="middle" font-size="16.2">2005</text><text x="595.9" y="541.9" fill="#666" text-anchor="middle" font-size="16.2">2010</text><text x="700.1" y="541.9" fill="#666" text-anchor="middle" font-size="16.2">2014</text></g><g class="VerticalAxis"><text x="70.08" y="520.7" fill="#666" dominant-baseline="middle" text-anchor="end" font-size="16.2">0</text><text x="70.08" y="459.6" fill="#666" dominant-baseline="middle" text-anchor="end" font-size="16.2">1 billion</text><text x="70.08" y="398.5" fill="#666" dominant-baseline="middle" text-anchor="end" font-size="16.2">2 billion</text><text x="70.08" y="337.3" fill="#666" dominant-baseline="middle" text-anchor="end" font-size="16.2">3 billion</text><text x="70.08" y="276.2" fill="#666" dominant-baseline="middle" text-anchor="end" font-size="16.2">4 billion</text><text x="70.08" y="215.1" fill="#666" dominant-baseline="middle" text-anchor="end" font-size="16.2">5 billion</text><text x="70.08" y="154" fill="#666" dominant-baseline="middle" text-anchor="end" font-size="16.2">6 billion</text><text x="70.08" y="92.8" fill="#666" dominant-baseline="middle" text-anchor="end" font-size="16.2">7 billion</text></g><g class="AxisGridLines"><line x1="75.08" y1="520.7" x2="700.09" y2="520.7" stroke="#ccc"></line><line x1="75.08" y1="459.6" x2="700.09" y2="459.6" stroke="#ddd" stroke-dasharray="3,2"></line><line x1="75.08" y1="398.5" x2="700.09" y2="398.5" stroke="#ddd" stroke-dasharray="3,2"></line><line x1="75.08" y1="337.3" x2="700.09" y2="337.3" stroke="#ddd" stroke-dasharray="3,2"></line><line x1="75.08" y1="276.2" x2="700.09" y2="276.2" stroke="#ddd" stroke-dasharray="3,2"></line><line x1="75.08" y1="215.1" x2="700.09" y2="215.1" stroke="#ddd" stroke-dasharray="3,2"></line><line x1="75.08" y1="154" x2="700.09" y2="154" stroke="#ddd" stroke-dasharray="3,2"></line><line x1="75.08" y1="92.8" x2="700.09" y2="92.8" stroke="#ddd" stroke-dasharray="3,2"></line></g><g class="AxisGridLines"><line x1="75.1" y1="520.70" x2="75.1" y2="76.60" stroke="#ddd" stroke-dasharray="3,2"></line><line x1="205.3" y1="520.70" x2="205.3" y2="76.60" stroke="#ddd" stroke-dasharray="3,2"></line><line x1="335.5" y1="520.70" x2="335.5" y2="76.60" stroke="#ddd" stroke-dasharray="3,2"></line><line x1="465.7" y1="520.70" x2="465.7" y2="76.60" stroke="#ddd" stroke-dasharray="3,2"></line><line x1="595.9" y1="520.70" x2="595.9" y2="76.60" stroke="#ddd" stroke-dasharray="3,2"></line></g></g><g clip-path="url(#boundsClip-427)"><g class="HeightedLegend clickable"><g class="legendMark"><rect x="705.088" y="243.40000000000003" width="129.91200000000003" height="45.400000000000006" fill="#fff" opacity="0"></rect><rect x="705.088" y="264.85" width="10" height="2.5" fill="#34983f"></rect><text font-size="14.40" x="720.1" y="254.9" fill="#333"><tspan x="720.088" y="254.92000000000002">Number of people</tspan><tspan x="720.088" y="270.76">with access to</tspan><tspan x="720.088" y="286.6">electricity</tspan></text></g><g class="legendMark"><rect x="705.088" y="465.40000000000003" width="129.91200000000003" height="45.400000000000006" fill="#fff" opacity="0"></rect><rect x="705.088" y="486.85" width="10" height="2.5" fill="#3360a9"></rect><text font-size="14.40" x="720.1" y="476.9" fill="#333"><tspan x="720.088" y="476.92">Number of people</tspan><tspan x="720.088" y="492.76">without access to</tspan><tspan x="720.088" y="508.6">electricity</tspan></text></g></g><g class="Areas"><rect x="75.08" y="76.6" width="625.0079999999999" height="444.0999999999999" opacity="0" fill="rgba(255,255,255,0)"></rect><path stroke-linecap="round" d="M75.1 434.5L101.1 426.8L127.2 428.4L153.2 428.7L179.2 429.3L205.3 431.1L231.3 432.6L257.4 434.1L283.4 435.2L309.5 437.1L335.5 436.9L361.5 434.1L387.6 438.7L413.6 439.9L439.7 440.3L465.7 441.9L491.8 443.7L517.8 445.2L543.8 446.5L569.9 450.2L595.9 451.1L622 445.9L648 455.4L674 453.5L700.1 455.6L700.088 520.6999999999999L75.08 520.6999999999999" fill="#3360a9" fill-opacity="0.7" class="World_1-area"></path><path stroke-linecap="round" d="M75.1 196.2L101.1 190.7L127.2 185.4L153.2 180.2L179.2 175.2L205.3 170.2L231.3 165.3L257.4 160.4L283.4 155.7L309.5 151L335.5 146.2L361.5 141.5L387.6 136.7L413.6 131.9L439.7 127.1L465.7 122.2L491.8 117.3L517.8 112.3L543.8 107.3L569.9 102.2L595.9 97.1L622 92L648 86.9L674 81.7L700.1 76.6L700.1 455.6L674 453.5L648 455.4L622 445.9L595.9 451.1L569.9 450.2L543.8 446.5L517.8 445.2L491.8 443.7L465.7 441.9L439.7 440.3L413.6 439.9L387.6 438.7L361.5 434.1L335.5 436.9L309.5 437.1L283.4 435.2L257.4 434.1L231.3 432.6L205.3 431.1L179.2 429.3L153.2 428.7L127.2 428.4L101.1 426.8L75.1 434.5" fill="#34983f" fill-opacity="0.7" class="World_0-area"></path><path stroke-linecap="round" d="M75.1 434.5L101.1 426.8L127.2 428.4L153.2 428.7L179.2 429.3L205.3 431.1L231.3 432.6L257.4 434.1L283.4 435.2L309.5 437.1L335.5 436.9L361.5 434.1L387.6 438.7L413.6 439.9L439.7 440.3L465.7 441.9L491.8 443.7L517.8 445.2L543.8 446.5L569.9 450.2L595.9 451.1L622 445.9L648 455.4L674 453.5L700.1 455.6" stroke="rgb(43, 80, 141)" stroke-opacity="0.7" stroke-width="0.5" fill="none" class="World_1-border"></path><path stroke-linecap="round" d="M75.1 196.2L101.1 190.7L127.2 185.4L153.2 180.2L179.2 175.2L205.3 170.2L231.3 165.3L257.4 160.4L283.4 155.7L309.5 151L335.5 146.2L361.5 141.5L387.6 136.7L413.6 131.9L439.7 127.1L465.7 122.2L491.8 117.3L517.8 112.3L543.8 107.3L569.9 102.2L595.9 97.1L622 92L648 86.9L674 81.7L700.1 76.6" stroke="rgb(44, 127, 53)" stroke-opacity="0.7" stroke-width="0.5" fill="none" class="World_0-border"></path></g></g></g><g style="fill: #777;" class="SourcesFooter"><g style="fill: #777;" class="clickable"><text font-size="12.60" x="15.0" y="567.0"><tspan x="15" y="566.98">Source: The World Bank, World Development Indicators (WDI) and UN Population Prospects</tspan></text></g><text font-size="12.60" x="15.0" y="582.5"><tspan x="15" y="582.48"><a target='_blank' style='fill: #777;' href='https://ourworldindata.org/energy-production-and-changing-energy-sources/'>OurWorldInData.org/energy-production-and-changing-energy-sources/</a> • <a style="fill: #777;" href="http://creativecommons.org/licenses/by-sa/4.0/deed.en_US" target="_blank">CC BY-SA</a></tspan></text></g></g></svg>