<svg xmlns="http://www.w3.org/2000/svg" version="1.1" style="font-family: 'Helvetica Neue', Helvetica, Arial, sans-serif; font-size: 24px; background-color: white;" width="1200" height="630"><g class="ChartTab"><g class="StackedArea"><defs><clipPath id="boundsClip-891"><rect x="123.46400000000001" y="0" width="1170" height="1130"></rect></clipPath></defs><g class="AxisBoxView"><g class="HorizontalAxis"><text x="123.5" y="600" fill="#666" text-anchor="middle" font-size="21.6">1992</text><text x="248.7" y="600" fill="#666" text-anchor="middle" font-size="21.6">1995</text><text x="457.5" y="600" fill="#666" text-anchor="middle" font-size="21.6">2000</text><text x="666.3" y="600" fill="#666" text-anchor="middle" font-size="21.6">2005</text><text x="875.1" y="600" fill="#666" text-anchor="middle" font-size="21.6">2010</text><text x="1042.1" y="600" fill="#666" text-anchor="middle" font-size="21.6">2014</text></g><g class="VerticalAxis"><text x="118.46" y="573.4" fill="#666" dominant-baseline="middle" text-anchor="end" font-size="21.6">0  </text><text x="118.46" y="491" fill="#666" dominant-baseline="middle" text-anchor="end" font-size="21.6">10 million  </text><text x="118.46" y="408.5" fill="#666" dominant-baseline="middle" text-anchor="end" font-size="21.6">20 million  </text><text x="118.46" y="326.1" fill="#666" dominant-baseline="middle" text-anchor="end" font-size="21.6">30 million  </text><text x="118.46" y="243.7" fill="#666" dominant-baseline="middle" text-anchor="end" font-size="21.6">40 million  </text><text x="118.46" y="161.3" fill="#666" dominant-baseline="middle" text-anchor="end" font-size="21.6">50 million  </text><text x="118.46" y="78.8" fill="#666" dominant-baseline="middle" text-anchor="end" font-size="21.6">60 million  </text></g><g class="AxisGridLines"><line x1="123.46" y1="573.4" x2="1042.12" y2="573.4" stroke="#ccc"></line><line x1="123.46" y1="491" x2="1042.12" y2="491" stroke="#ddd" stroke-dasharray="3,2"></line><line x1="123.46" y1="408.5" x2="1042.12" y2="408.5" stroke="#ddd" stroke-dasharray="3,2"></line><line x1="123.46" y1="326.1" x2="1042.12" y2="326.1" stroke="#ddd" stroke-dasharray="3,2"></line><line x1="123.46" y1="243.7" x2="1042.12" y2="243.7" stroke="#ddd" stroke-dasharray="3,2"></line><line x1="123.46" y1="161.3" x2="1042.12" y2="161.3" stroke="#ddd" stroke-dasharray="3,2"></line><line x1="123.46" y1="78.8" x2="1042.12" y2="78.8" stroke="#ddd" stroke-dasharray="3,2"></line></g><g class="AxisGridLines"><line x1="248.7" y1="573.40" x2="248.7" y2="35.00" stroke="#ddd" stroke-dasharray="3,2"></line><line x1="457.5" y1="573.40" x2="457.5" y2="35.00" stroke="#ddd" stroke-dasharray="3,2"></line><line x1="666.3" y1="573.40" x2="666.3" y2="35.00" stroke="#ddd" stroke-dasharray="3,2"></line><line x1="875.1" y1="573.40" x2="875.1" y2="35.00" stroke="#ddd" stroke-dasharray="3,2"></line></g></g><g clip-path="url(#boundsClip-891)"><g class="HeightedLegend clickable"><g class="legendMark"><rect x="1047.12" y="327.2" width="108.31200000000001" height="19.200000000000003" fill="#fff" opacity="0"></rect><rect x="1047.12" y="335.55" width="10" height="2.5" fill="#f6a324"></rect><text font-size="19.20" x="1062.1" y="342.6" fill="#333"><tspan x="1062.12" y="342.56">South Asia</tspan></text></g><g class="legendMark"><rect x="1047.12" y="346.85" width="133.848" height="39.50000000000001" fill="#fff" opacity="0"></rect><rect x="1047.12" y="365.35" width="10" height="2.5" fill="#932834"></rect><text font-size="19.20" x="1062.1" y="362.2" fill="#333"><tspan x="1062.12" y="362.21000000000004">Middle East &amp;</tspan><tspan x="1062.12" y="383.33000000000004">North Africa</tspan></text></g><g class="legendMark"><rect x="1047.12" y="386.35" width="132.69600000000003" height="39.50000000000001" fill="#fff" opacity="0"></rect><rect x="1047.12" y="404.85" width="10" height="2.5" fill="#6bb537"></rect><text font-size="19.20" x="1062.1" y="401.7" fill="#333"><tspan x="1062.12" y="401.71000000000004">Latin America</tspan><tspan x="1062.12" y="422.83000000000004">&amp; Caribbean</tspan></text></g><g class="legendMark"><rect x="1047.12" y="425.85" width="137.88000000000002" height="19.200000000000003" fill="#fff" opacity="0"></rect><rect x="1047.12" y="434.20000000000005" width="10" height="2.5" fill="#34983f"></rect><text font-size="19.20" x="1062.1" y="441.2" fill="#333"><tspan x="1062.12" y="441.21000000000004">North America</tspan></text></g><g class="legendMark"><rect x="1047.12" y="445.05" width="119.83200000000002" height="39.50000000000001" fill="#fff" opacity="0"></rect><rect x="1047.12" y="463.55" width="10" height="2.5" fill="#ffd53e"></rect><text font-size="19.20" x="1062.1" y="460.4" fill="#333"><tspan x="1062.12" y="460.41">Europe &amp;</tspan><tspan x="1062.12" y="481.53000000000003">Central Asia</tspan></text></g><g class="legendMark"><rect x="1047.12" y="484.55" width="114.64800000000001" height="39.50000000000001" fill="#fff" opacity="0"></rect><rect x="1047.12" y="503.05" width="10" height="2.5" fill="#e6332e"></rect><text font-size="19.20" x="1062.1" y="499.9" fill="#333"><tspan x="1062.12" y="499.91">East Asia &amp;</tspan><tspan x="1062.12" y="521.03">Pacific</tspan></text></g><g class="legendMark"><rect x="1047.12" y="524.0500000000001" width="128.66400000000002" height="39.50000000000001" fill="#fff" opacity="0"></rect><rect x="1047.12" y="542.5500000000001" width="10" height="2.5" fill="#3360a9"></rect><text font-size="19.20" x="1062.1" y="539.4" fill="#333"><tspan x="1062.12" y="539.4100000000001">Sub-Saharan</tspan><tspan x="1062.12" y="560.5300000000001">Africa</tspan></text></g></g><g class="Areas"><rect x="123.46400000000001" y="35" width="918.6559999999998" height="538.4" opacity="0" fill="rgba(255,255,255,0)"></rect><path stroke-linecap="round" d="M123.5 384.1L165.2 381.1L207 377.5L248.7 374.8L290.5 364.3L332.2 370.9L374 370.6L415.8 371.4L457.5 376.3L499.3 381.1L541 384.1L582.8 391.5L624.5 397L666.3 404.5L708.1 411L749.8 416L791.6 419.3L833.3 418.4L875.1 414.8L916.8 417.8L958.6 420.3L1000.4 421L1042.1 420.6L1042.12 573.4L123.46400000000001 573.4" fill="#3360a9" fill-opacity="0.7" class="Sub__002dSaharan-Africa_0-area"></path><path stroke-linecap="round" d="M123.5 341.1L165.2 333.2L207 322.5L248.7 310.5L290.5 293.6L332.2 294.7L374 308.7L415.8 324.4L457.5 332.7L499.3 343L541 363.9L582.8 369.7L624.5 374.1L666.3 366.3L708.1 370.5L749.8 384.6L791.6 389L833.3 391L875.1 390.3L916.8 396.5L958.6 397.1L1000.4 396.6L1042.1 395.9L1042.1 420.6L1000.4 421L958.6 420.3L916.8 417.8L875.1 414.8L833.3 418.4L791.6 419.3L749.8 416L708.1 411L666.3 404.5L624.5 397L582.8 391.5L541 384.1L499.3 381.1L457.5 376.3L415.8 371.4L374 370.6L332.2 370.9L290.5 364.3L248.7 374.8L207 377.5L165.2 381.1L123.5 384.1" fill="#e6332e" fill-opacity="0.7" class="East-Asia-__0026-Pacific_0-area"></path><path stroke-linecap="round" d="M123.5 334.2L165.2 325L207 313.9L248.7 301.3L290.5 284.4L332.2 284.9L374 299.5L415.8 316.1L457.5 325.9L499.3 338L541 360.3L582.8 365.6L624.5 370.5L666.3 361.1L708.1 365.6L749.8 380L791.6 384.6L833.3 386.5L875.1 386.1L916.8 392.5L958.6 392.8L1000.4 392.6L1042.1 391.5L1042.1 395.9L1000.4 396.6L958.6 397.1L916.8 396.5L875.1 390.3L833.3 391L791.6 389L749.8 384.6L708.1 370.5L666.3 366.3L624.5 374.1L582.8 369.7L541 363.9L499.3 343L457.5 332.7L415.8 324.4L374 308.7L332.2 294.7L290.5 293.6L248.7 310.5L207 322.5L165.2 333.2L123.5 341.1" fill="#ffd53e" fill-opacity="0.7" class="Europe-__0026-Central-Asia_0-area"></path><path stroke-linecap="round" d="M123.5 315.4L165.2 306.8L207 294.7L248.7 282L290.5 265.8L332.2 266.7L374 285.3L415.8 304.6L457.5 316L499.3 328.2L541 350.3L582.8 353.3L624.5 358.9L666.3 350.8L708.1 354.1L749.8 367.4L791.6 373.9L833.3 376.8L875.1 376.5L916.8 382.8L958.6 382.5L1000.4 379.5L1042.1 378L1042.1 391.5L1000.4 392.6L958.6 392.8L916.8 392.5L875.1 386.1L833.3 386.5L791.6 384.6L749.8 380L708.1 365.6L666.3 361.1L624.5 370.5L582.8 365.6L541 360.3L499.3 338L457.5 325.9L415.8 316.1L374 299.5L332.2 284.9L290.5 284.4L248.7 301.3L207 313.9L165.2 325L123.5 334.2" fill="#6bb537" fill-opacity="0.7" class="Latin-America-__0026-Caribbean_0-area"></path><path stroke-linecap="round" d="M123.5 312.6L165.2 302.8L207 290.5L248.7 278.7L290.5 262.3L332.2 263.7L374 282.9L415.8 302.5L457.5 313.8L499.3 326.2L541 347L582.8 349.4L624.5 353.9L666.3 346.7L708.1 351.4L749.8 365.2L791.6 371.8L833.3 374L875.1 371.6L916.8 377.5L958.6 376.6L1000.4 372.1L1042.1 372.4L1042.1 378L1000.4 379.5L958.6 382.5L916.8 382.8L875.1 376.5L833.3 376.8L791.6 373.9L749.8 367.4L708.1 354.1L666.3 350.8L624.5 358.9L582.8 353.3L541 350.3L499.3 328.2L457.5 316L415.8 304.6L374 285.3L332.2 266.7L290.5 265.8L248.7 282L207 294.7L165.2 306.8L123.5 315.4" fill="#34983f" fill-opacity="0.7" class="North-America_0-area"></path><path stroke-linecap="round" d="M123.5 277.3L165.2 267.3L207 258.1L248.7 243.1L290.5 230.7L332.2 231.7L374 251.2L415.8 271.8L457.5 285.2L499.3 302.2L541 326.9L582.8 331.8L624.5 338.6L666.3 331.8L708.1 337.2L749.8 353.1L791.6 360.3L833.3 363.2L875.1 362.2L916.8 368.3L958.6 367.7L1000.4 361.6L1042.1 360.9L1042.1 372.4L1000.4 372.1L958.6 376.6L916.8 377.5L875.1 371.6L833.3 374L791.6 371.8L749.8 365.2L708.1 351.4L666.3 346.7L624.5 353.9L582.8 349.4L541 347L499.3 326.2L457.5 313.8L415.8 302.5L374 282.9L332.2 263.7L290.5 262.3L248.7 278.7L207 290.5L165.2 302.8L123.5 312.6" fill="#932834" fill-opacity="0.7" class="Middle-East-__0026-North-Africa_0-area"></path><path stroke-linecap="round" d="M123.5 60.4L165.2 60.7L207 60.3L248.7 45.8L290.5 35L332.2 35.4L374 47.3L415.8 74.6L457.5 103.7L499.3 125.1L541 158.7L582.8 214.9L624.5 238.1L666.3 244.3L708.1 261.7L749.8 291.9L791.6 304.1L833.3 307.7L875.1 309.1L916.8 314.5L958.6 317.1L1000.4 313.1L1042.1 312.6L1042.1 360.9L1000.4 361.6L958.6 367.7L916.8 368.3L875.1 362.2L833.3 363.2L791.6 360.3L749.8 353.1L708.1 337.2L666.3 331.8L624.5 338.6L582.8 331.8L541 326.9L499.3 302.2L457.5 285.2L415.8 271.8L374 251.2L332.2 231.7L290.5 230.7L248.7 243.1L207 258.1L165.2 267.3L123.5 277.3" fill="#f6a324" fill-opacity="0.7" class="South-Asia_0-area"></path><path stroke-linecap="round" d="M123.5 384.1L165.2 381.1L207 377.5L248.7 374.8L290.5 364.3L332.2 370.9L374 370.6L415.8 371.4L457.5 376.3L499.3 381.1L541 384.1L582.8 391.5L624.5 397L666.3 404.5L708.1 411L749.8 416L791.6 419.3L833.3 418.4L875.1 414.8L916.8 417.8L958.6 420.3L1000.4 421L1042.1 420.6" stroke="rgb(43, 80, 141)" stroke-opacity="0.7" stroke-width="0.5" fill="none" class="Sub__002dSaharan-Africa_0-border"></path><path stroke-linecap="round" d="M123.5 341.1L165.2 333.2L207 322.5L248.7 310.5L290.5 293.6L332.2 294.7L374 308.7L415.8 324.4L457.5 332.7L499.3 343L541 363.9L582.8 369.7L624.5 374.1L666.3 366.3L708.1 370.5L749.8 384.6L791.6 389L833.3 391L875.1 390.3L916.8 396.5L958.6 397.1L1000.4 396.6L1042.1 395.9" stroke="rgb(192, 43, 38)" stroke-opacity="0.7" stroke-width="0.5" fill="none" class="East-Asia-__0026-Pacific_0-border"></path><path stroke-linecap="round" d="M123.5 334.2L165.2 325L207 313.9L248.7 301.3L290.5 284.4L332.2 284.9L374 299.5L415.8 316.1L457.5 325.9L499.3 338L541 360.3L582.8 365.6L624.5 370.5L666.3 361.1L708.1 365.6L749.8 380L791.6 384.6L833.3 386.5L875.1 386.1L916.8 392.5L958.6 392.8L1000.4 392.6L1042.1 391.5" stroke="rgb(213, 178, 52)" stroke-opacity="0.7" stroke-width="0.5" fill="none" class="Europe-__0026-Central-Asia_0-border"></path><path stroke-linecap="round" d="M123.5 315.4L165.2 306.8L207 294.7L248.7 282L290.5 265.8L332.2 266.7L374 285.3L415.8 304.6L457.5 316L499.3 328.2L541 350.3L582.8 353.3L624.5 358.9L666.3 350.8L708.1 354.1L749.8 367.4L791.6 373.9L833.3 376.8L875.1 376.5L916.8 382.8L958.6 382.5L1000.4 379.5L1042.1 378" stroke="rgb(90, 151, 46)" stroke-opacity="0.7" stroke-width="0.5" fill="none" class="Latin-America-__0026-Caribbean_0-border"></path><path stroke-linecap="round" d="M123.5 312.6L165.2 302.8L207 290.5L248.7 278.7L290.5 262.3L332.2 263.7L374 282.9L415.8 302.5L457.5 313.8L499.3 326.2L541 347L582.8 349.4L624.5 353.9L666.3 346.7L708.1 351.4L749.8 365.2L791.6 371.8L833.3 374L875.1 371.6L916.8 377.5L958.6 376.6L1000.4 372.1L1042.1 372.4" stroke="rgb(44, 127, 53)" stroke-opacity="0.7" stroke-width="0.5" fill="none" class="North-America_0-border"></path><path stroke-linecap="round" d="M123.5 277.3L165.2 267.3L207 258.1L248.7 243.1L290.5 230.7L332.2 231.7L374 251.2L415.8 271.8L457.5 285.2L499.3 302.2L541 326.9L582.8 331.8L624.5 338.6L666.3 331.8L708.1 337.2L749.8 353.1L791.6 360.3L833.3 363.2L875.1 362.2L916.8 368.3L958.6 367.7L1000.4 361.6L1042.1 360.9" stroke="rgb(123, 33, 44)" stroke-opacity="0.7" stroke-width="0.5" fill="none" class="Middle-East-__0026-North-Africa_0-border"></path><path stroke-linecap="round" d="M123.5 60.4L165.2 60.7L207 60.3L248.7 45.8L290.5 35L332.2 35.4L374 47.3L415.8 74.6L457.5 103.7L499.3 125.1L541 158.7L582.8 214.9L624.5 238.1L666.3 244.3L708.1 261.7L749.8 291.9L791.6 304.1L833.3 307.7L875.1 309.1L916.8 314.5L958.6 317.1L1000.4 313.1L1042.1 312.6" stroke="rgb(206, 136, 30)" stroke-opacity="0.7" stroke-width="0.5" fill="none" class="South-Asia_0-border"></path></g></g></g></g></svg>