<svg xmlns="http://www.w3.org/2000/svg" version="1.1" style="font-family: 'Helvetica Neue', Helvetica, Arial, sans-serif; font-size: 18px; background-color: white; text-rendering: optimizeLegibility; -webkit-font-smoothing: antialiased;" width="850" height="600"><g class="ChartTab"><g class="HeaderView"><g opacity="0.8" transform="translate(770, 15) scale(0.31)"><a xmlns:xlink="http://www.w3.org/1999/xlink" xlink:href="https://ourworldindata.org" target="_blank"><g><rect x="0" y="0" fill="#1B2543" width="211.2" height="130.1"/><rect x="0" y="112.2" fill="#E63912" width="211.2" height="17.9"/><g><rect x="1.2" y="12.3" fill="none" width="210.2" height="99.2"/><path fill="#FFFFFF" d="M37.8,32.2c0,12.7-7.7,19.4-17.1,19.4c-9.7,0-16.6-7.5-16.6-18.7c0-11.7,7.3-19.3,17.1-19.3 C31.3,13.7,37.8,21.3,37.8,32.2z M9.2,32.8c0,7.9,4.3,14.9,11.8,14.9c7.5,0,11.8-6.9,11.8-15.3c0-7.3-3.8-14.9-11.8-14.9 C13.1,17.5,9.2,24.8,9.2,32.8z"/><path fill="#FFFFFF" d="M62.7,43.8c0,2.7,0.1,5.1,0.2,7.2h-4.3l-0.3-4.3h-0.1c-1.3,2.1-4,4.9-8.8,4.9c-4.2,0-9.1-2.3-9.1-11.6 V24.6h4.8v14.6c0,5,1.5,8.4,5.9,8.4c3.2,0,5.5-2.2,6.3-4.4c0.3-0.7,0.4-1.6,0.4-2.5V24.6h4.8V43.8z"/><path fill="#FFFFFF" d="M67.3,32.8c0-3.1-0.1-5.8-0.2-8.2h4.2l0.2,5.2h0.2c1.2-3.5,4.1-5.8,7.3-5.8c0.5,0,0.9,0.1,1.4,0.2v4.5 c-0.5-0.1-1-0.2-1.6-0.2c-3.4,0-5.8,2.6-6.5,6.2c-0.1,0.7-0.2,1.4-0.2,2.2V51h-4.8V32.8z"/><path fill="#FFFFFF" d="M95.4,51l-9.4-36.8h5l4.4,18.6c1.1,4.6,2.1,9.2,2.7,12.7h0.1c0.6-3.7,1.8-8,3-12.8l4.9-18.5h5l4.5,18.7 c1,4.4,2,8.7,2.6,12.6h0.1c0.8-4,1.8-8.1,3-12.7l4.9-18.5h4.9L120.6,51h-5L111,31.9c-1.1-4.7-1.9-8.3-2.4-12h-0.1 c-0.7,3.7-1.5,7.3-2.8,12L100.4,51H95.4z"/><path fill="#FFFFFF" d="M154.9,37.6c0,9.8-6.8,14-13.2,14c-7.2,0-12.7-5.2-12.7-13.6c0-8.8,5.8-14,13.1-14 C149.8,24,154.9,29.5,154.9,37.6z M133.9,37.9c0,5.8,3.3,10.1,8,10.1c4.6,0,8-4.3,8-10.3c0-4.5-2.2-10.1-7.9-10.1 C136.3,27.6,133.9,32.8,133.9,37.9z"/><path fill="#FFFFFF" d="M158.2,32.8c0-3.1-0.1-5.8-0.2-8.2h4.2l0.2,5.2h0.2c1.2-3.5,4.1-5.8,7.3-5.8c0.5,0,0.9,0.1,1.4,0.2v4.5 c-0.5-0.1-1-0.2-1.6-0.2c-3.4,0-5.8,2.6-6.5,6.2c-0.1,0.7-0.2,1.4-0.2,2.2V51h-4.8V32.8z"/><path fill="#FFFFFF" d="M173.5,12.3h4.8V51h-4.8V12.3z"/><path fill="#FFFFFF" d="M206.5,12.3v31.9c0,2.3,0.1,5,0.2,6.8h-4.3l-0.2-4.6H202c-1.5,2.9-4.7,5.2-9,5.2 c-6.4,0-11.3-5.4-11.3-13.4c-0.1-8.8,5.4-14.2,11.9-14.2c4,0,6.8,1.9,8,4h0.1V12.3H206.5z M201.7,35.4c0-0.6-0.1-1.4-0.2-2 c-0.7-3.1-3.3-5.6-6.9-5.6c-5,0-7.9,4.4-7.9,10.2c0,5.3,2.6,9.8,7.8,9.8c3.2,0,6.2-2.1,7.1-5.7c0.2-0.7,0.2-1.3,0.2-2.1V35.4z"/><path fill="#FFFFFF" d="M42.8,64c0.1,1.6-1.1,2.9-3.1,2.9c-1.7,0-2.9-1.3-2.9-2.9c0-1.7,1.3-3,3-3C41.7,61,42.8,62.3,42.8,64z M37.4,97.8V71.4h4.8v26.4H37.4z"/><path fill="#FFFFFF" d="M47.5,78.6c0-2.7-0.1-5-0.2-7.1h4.3l0.3,4.4h0.1c1.3-2.5,4.4-5,8.8-5c3.7,0,9.4,2.2,9.4,11.2v15.8h-4.8 V82.6c0-4.3-1.6-7.8-6.1-7.8c-3.2,0-5.6,2.2-6.5,4.9c-0.2,0.6-0.3,1.4-0.3,2.2v15.9h-4.8V78.6z"/><path fill="#FFFFFF" d="M84,61.6c2.9-0.4,6.3-0.8,10.1-0.8c6.8,0,11.7,1.6,14.9,4.6c3.3,3,5.2,7.3,5.2,13.2c0,6-1.9,10.9-5.3,14.3 c-3.4,3.4-9.1,5.3-16.3,5.3c-3.4,0-6.2-0.2-8.6-0.4V61.6z M88.8,94.1c1.2,0.2,3,0.3,4.8,0.3c10.2,0,15.7-5.7,15.7-15.6 c0.1-8.7-4.9-14.2-14.9-14.2c-2.5,0-4.3,0.2-5.6,0.5V94.1z"/><path fill="#FFFFFF" d="M132.1,97.8l-0.4-3.3h-0.2c-1.5,2.1-4.3,3.9-8.1,3.9c-5.4,0-8.1-3.8-8.1-7.6c0-6.4,5.7-9.9,15.9-9.8v-0.5 c0-2.2-0.6-6.1-6-6.1c-2.5,0-5,0.8-6.9,2l-1.1-3.2c2.2-1.4,5.4-2.3,8.7-2.3c8.1,0,10.1,5.5,10.1,10.8v9.9c0,2.3,0.1,4.5,0.4,6.3 H132.1z M131.4,84.4c-5.3-0.1-11.2,0.8-11.2,5.9c0,3.1,2.1,4.6,4.5,4.6c3.4,0,5.6-2.2,6.4-4.4c0.2-0.5,0.3-1,0.3-1.5V84.4z"/><path fill="#FFFFFF" d="M146.6,63.9v7.6h6.9v3.7h-6.9v14.2c0,3.3,0.9,5.1,3.6,5.1c1.3,0,2.2-0.2,2.8-0.3l0.2,3.6 c-0.9,0.4-2.4,0.7-4.3,0.7c-2.2,0-4-0.7-5.2-2c-1.4-1.4-1.9-3.8-1.9-6.9V75.1h-4.1v-3.7h4.1v-6.3L146.6,63.9z"/><path fill="#FFFFFF" d="M171.4,97.8l-0.4-3.3h-0.2c-1.5,2.1-4.3,3.9-8.1,3.9c-5.4,0-8.1-3.8-8.1-7.6c0-6.4,5.7-9.9,15.9-9.8v-0.5 c0-2.2-0.6-6.1-6-6.1c-2.5,0-5,0.8-6.9,2l-1.1-3.2c2.2-1.4,5.4-2.3,8.7-2.3c8.1,0,10.1,5.5,10.1,10.8v9.9c0,2.3,0.1,4.5,0.4,6.3 H171.4z M170.7,84.4c-5.3-0.1-11.2,0.8-11.2,5.9c0,3.1,2.1,4.6,4.5,4.6c3.4,0,5.6-2.2,6.4-4.4c0.2-0.5,0.3-1,0.3-1.5V84.4z"/></g></g></a></g><a href="https://ourworldindata.org/grapher/out-of-school-girls-of-primary-school-age-by-world-region" target="_blank"><text font-size="27.00" x="15.0" y="36.6" fill="#555"><tspan x="15" y="36.6">Out-of-school girls of primary school age by world region</tspan></text></a><text font-size="14.40" x="15.0" y="55.5" fill="#666"><tspan x="15" y="55.519999999999996">Children in the official primary school age range who are not enrolled in either primary or secondary schools.</tspan></text></g><g class="StackedArea"><defs><clipPath id="boundsClip-501"><rect x="97.598" y="0" width="820" height="956.2"></rect></clipPath></defs><g class="AxisBoxView"><g class="HorizontalAxis"><text x="97.6" y="556.5" fill="#666" text-anchor="middle" font-size="16.2">1992</text><text x="177.9" y="556.5" fill="#666" text-anchor="middle" font-size="16.2">1995</text><text x="311.8" y="556.5" fill="#666" text-anchor="middle" font-size="16.2">2000</text><text x="445.6" y="556.5" fill="#666" text-anchor="middle" font-size="16.2">2005</text><text x="579.5" y="556.5" fill="#666" text-anchor="middle" font-size="16.2">2010</text><text x="686.6" y="556.5" fill="#666" text-anchor="middle" font-size="16.2">2014</text></g><g class="VerticalAxis"><text x="92.60" y="535.3" fill="#666" dominant-baseline="middle" text-anchor="end" font-size="16.2">0  </text><text x="92.60" y="465.4" fill="#666" dominant-baseline="middle" text-anchor="end" font-size="16.2">10 million  </text><text x="92.60" y="395.4" fill="#666" dominant-baseline="middle" text-anchor="end" font-size="16.2">20 million  </text><text x="92.60" y="325.5" fill="#666" dominant-baseline="middle" text-anchor="end" font-size="16.2">30 million  </text><text x="92.60" y="255.5" fill="#666" dominant-baseline="middle" text-anchor="end" font-size="16.2">40 million  </text><text x="92.60" y="185.6" fill="#666" dominant-baseline="middle" text-anchor="end" font-size="16.2">50 million  </text><text x="92.60" y="115.6" fill="#666" dominant-baseline="middle" text-anchor="end" font-size="16.2">60 million  </text></g><g class="AxisGridLines"><line x1="97.60" y1="535.3" x2="686.55" y2="535.3" stroke="#ccc"></line><line x1="97.60" y1="465.4" x2="686.55" y2="465.4" stroke="#ddd" stroke-dasharray="3,2"></line><line x1="97.60" y1="395.4" x2="686.55" y2="395.4" stroke="#ddd" stroke-dasharray="3,2"></line><line x1="97.60" y1="325.5" x2="686.55" y2="325.5" stroke="#ddd" stroke-dasharray="3,2"></line><line x1="97.60" y1="255.5" x2="686.55" y2="255.5" stroke="#ddd" stroke-dasharray="3,2"></line><line x1="97.60" y1="185.6" x2="686.55" y2="185.6" stroke="#ddd" stroke-dasharray="3,2"></line><line x1="97.60" y1="115.6" x2="686.55" y2="115.6" stroke="#ddd" stroke-dasharray="3,2"></line></g><g class="AxisGridLines"><line x1="177.9" y1="535.30" x2="177.9" y2="78.40" stroke="#ddd" stroke-dasharray="3,2"></line><line x1="311.8" y1="535.30" x2="311.8" y2="78.40" stroke="#ddd" stroke-dasharray="3,2"></line><line x1="445.6" y1="535.30" x2="445.6" y2="78.40" stroke="#ddd" stroke-dasharray="3,2"></line><line x1="579.5" y1="535.30" x2="579.5" y2="78.40" stroke="#ddd" stroke-dasharray="3,2"></line></g></g><g clip-path="url(#boundsClip-501)"><g class="HeightedLegend clickable"><g class="legendMark"><rect x="691.552" y="327.3" width="84.98400000000001" height="14.4" fill="#fff" opacity="0"></rect><rect x="691.552" y="333.25" width="10" height="2.5" fill="#f6a324"></rect><text font-size="14.40" x="706.6" y="338.8" fill="#333"><tspan x="706.552" y="338.82">South Asia</tspan></text></g><g class="legendMark"><rect x="691.552" y="344.85" width="143.448" height="29.900000000000002" fill="#fff" opacity="0"></rect><rect x="691.552" y="358.55" width="10" height="2.5" fill="#932834"></rect><text font-size="14.40" x="706.6" y="356.4" fill="#333"><tspan x="706.552" y="356.37">Middle East &amp; North</tspan><tspan x="706.552" y="372.21">Africa</tspan></text></g><g class="legendMark"><rect x="691.552" y="374.75" width="107.16000000000001" height="14.4" fill="#fff" opacity="0"></rect><rect x="691.552" y="380.7" width="10" height="2.5" fill="#34983f"></rect><text font-size="14.40" x="706.6" y="386.3" fill="#333"><tspan x="706.552" y="386.27">North America</tspan></text></g><g class="legendMark"><rect x="691.552" y="389.15" width="116.95200000000001" height="29.900000000000002" fill="#fff" opacity="0"></rect><rect x="691.552" y="402.84999999999997" width="10" height="2.5" fill="#6bb537"></rect><text font-size="14.40" x="706.6" y="400.7" fill="#333"><tspan x="706.552" y="400.66999999999996">Latin America &amp;</tspan><tspan x="706.552" y="416.50999999999993">Caribbean</tspan></text></g><g class="legendMark"><rect x="691.552" y="419.04999999999995" width="125.88000000000001" height="29.900000000000002" fill="#fff" opacity="0"></rect><rect x="691.552" y="432.74999999999994" width="10" height="2.5" fill="#ffd53e"></rect><text font-size="14.40" x="706.6" y="430.6" fill="#333"><tspan x="706.552" y="430.56999999999994">Europe &amp; Central</tspan><tspan x="706.552" y="446.4099999999999">Asia</tspan></text></g><g class="legendMark"><rect x="691.552" y="448.94999999999993" width="136.24800000000002" height="14.4" fill="#fff" opacity="0"></rect><rect x="691.552" y="454.8999999999999" width="10" height="2.5" fill="#e6332e"></rect><text font-size="14.40" x="706.6" y="460.5" fill="#333"><tspan x="706.552" y="460.4699999999999">East Asia &amp; Pacific</tspan></text></g><g class="legendMark"><rect x="691.552" y="463.3499999999999" width="141.144" height="14.4" fill="#fff" opacity="0"></rect><rect x="691.552" y="469.2999999999999" width="10" height="2.5" fill="#3360a9"></rect><text font-size="14.40" x="706.6" y="474.9" fill="#333"><tspan x="706.552" y="474.8699999999999">Sub-Saharan Africa</tspan></text></g></g><g class="Areas"><rect x="97.598" y="78.4" width="588.9540000000001" height="456.9000000000001" opacity="0" fill="rgba(255,255,255,0)"></rect><path stroke-linecap="round" d="M97.6 374.7L124.4 372.1L151.1 369L177.9 366.8L204.7 357.9L231.5 363.4L258.2 363.2L285 363.9L311.8 368.1L338.5 372.1L365.3 374.6L392.1 380.9L418.8 385.6L445.6 392L472.4 397.5L499.2 401.7L525.9 404.5L552.7 403.7L579.5 400.7L606.2 403.2L633 405.3L659.8 406L686.6 405.6L686.552 535.3000000000001L97.598 535.3000000000001" fill="#3360a9" fill-opacity="0.7" class="Sub__002dSaharan-Africa_0-area"></path><path stroke-linecap="round" d="M97.6 338.2L124.4 331.4L151.1 322.4L177.9 312.2L204.7 297.9L231.5 298.8L258.2 310.6L285 324L311.8 331.1L338.5 339.7L365.3 357.5L392.1 362.4L418.8 366.2L445.6 359.5L472.4 363.2L499.2 375.1L525.9 378.8L552.7 380.5L579.5 379.9L606.2 385.2L633 385.7L659.8 385.3L686.6 384.7L686.6 405.6L659.8 406L633 405.3L606.2 403.2L579.5 400.7L552.7 403.7L525.9 404.5L499.2 401.7L472.4 397.5L445.6 392L418.8 385.6L392.1 380.9L365.3 374.6L338.5 372.1L311.8 368.1L285 363.9L258.2 363.2L231.5 363.4L204.7 357.9L177.9 366.8L151.1 369L124.4 372.1L97.6 374.7" fill="#e6332e" fill-opacity="0.7" class="East-Asia-__0026-Pacific_0-area"></path><path stroke-linecap="round" d="M97.6 332.3L124.4 324.5L151.1 315.1L177.9 304.4L204.7 290.1L231.5 290.4L258.2 302.9L285 316.9L311.8 325.3L338.5 335.5L365.3 354.4L392.1 359L418.8 363.1L445.6 355.1L472.4 359L499.2 371.2L525.9 375.1L552.7 376.7L579.5 376.4L606.2 381.8L633 382.1L659.8 381.8L686.6 380.9L686.6 384.7L659.8 385.3L633 385.7L606.2 385.2L579.5 379.9L552.7 380.5L525.9 378.8L499.2 375.1L472.4 363.2L445.6 359.5L418.8 366.2L392.1 362.4L365.3 357.5L338.5 339.7L311.8 331.1L285 324L258.2 310.6L231.5 298.8L204.7 297.9L177.9 312.2L151.1 322.4L124.4 331.4L97.6 338.2" fill="#ffd53e" fill-opacity="0.7" class="Europe-__0026-Central-Asia_0-area"></path><path stroke-linecap="round" d="M97.6 316.3L124.4 309L151.1 298.8L177.9 288L204.7 274.3L231.5 275L258.2 290.8L285 307.2L311.8 316.9L338.5 327.2L365.3 346L392.1 348.5L418.8 353.2L445.6 346.4L472.4 349.2L499.2 360.5L525.9 366L552.7 368.5L579.5 368.2L606.2 373.6L633 373.3L659.8 370.7L686.6 369.5L686.6 380.9L659.8 381.8L633 382.1L606.2 381.8L579.5 376.4L552.7 376.7L525.9 375.1L499.2 371.2L472.4 359L445.6 355.1L418.8 363.1L392.1 359L365.3 354.4L338.5 335.5L311.8 325.3L285 316.9L258.2 302.9L231.5 290.4L204.7 290.1L177.9 304.4L151.1 315.1L124.4 324.5L97.6 332.3" fill="#6bb537" fill-opacity="0.7" class="Latin-America-__0026-Caribbean_0-area"></path><path stroke-linecap="round" d="M97.6 314L124.4 305.6L151.1 295.2L177.9 285.2L204.7 271.3L231.5 272.5L258.2 288.8L285 305.4L311.8 315L338.5 325.5L365.3 343.2L392.1 345.2L418.8 349.1L445.6 342.9L472.4 346.9L499.2 358.7L525.9 364.2L552.7 366.1L579.5 364.1L606.2 369L633 368.3L659.8 364.5L686.6 364.7L686.6 369.5L659.8 370.7L633 373.3L606.2 373.6L579.5 368.2L552.7 368.5L525.9 366L499.2 360.5L472.4 349.2L445.6 346.4L418.8 353.2L392.1 348.5L365.3 346L338.5 327.2L311.8 316.9L285 307.2L258.2 290.8L231.5 275L204.7 274.3L177.9 288L151.1 298.8L124.4 309L97.6 316.3" fill="#34983f" fill-opacity="0.7" class="North-America_0-area"></path><path stroke-linecap="round" d="M97.6 284L124.4 275.6L151.1 267.7L177.9 255L204.7 244.5L231.5 245.3L258.2 261.9L285 279.3L311.8 290.7L338.5 305.1L365.3 326.1L392.1 330.3L418.8 336L445.6 330.2L472.4 334.8L499.2 348.3L525.9 354.4L552.7 356.9L579.5 356.1L606.2 361.2L633 360.7L659.8 355.6L686.6 355L686.6 364.7L659.8 364.5L633 368.3L606.2 369L579.5 364.1L552.7 366.1L525.9 364.2L499.2 358.7L472.4 346.9L445.6 342.9L418.8 349.1L392.1 345.2L365.3 343.2L338.5 325.5L311.8 315L285 305.4L258.2 288.8L231.5 272.5L204.7 271.3L177.9 285.2L151.1 295.2L124.4 305.6L97.6 314" fill="#932834" fill-opacity="0.7" class="Middle-East-__0026-North-Africa_0-area"></path><path stroke-linecap="round" d="M97.6 99.9L124.4 100.2L151.1 99.9L177.9 87.6L204.7 78.4L231.5 78.7L258.2 88.8L285 112L311.8 136.7L338.5 154.9L365.3 183.4L392.1 231.1L418.8 250.8L445.6 256L472.4 270.8L499.2 296.4L525.9 306.8L552.7 309.8L579.5 311L606.2 315.6L633 317.8L659.8 314.4L686.6 314L686.6 355L659.8 355.6L633 360.7L606.2 361.2L579.5 356.1L552.7 356.9L525.9 354.4L499.2 348.3L472.4 334.8L445.6 330.2L418.8 336L392.1 330.3L365.3 326.1L338.5 305.1L311.8 290.7L285 279.3L258.2 261.9L231.5 245.3L204.7 244.5L177.9 255L151.1 267.7L124.4 275.6L97.6 284" fill="#f6a324" fill-opacity="0.7" class="South-Asia_0-area"></path><path stroke-linecap="round" d="M97.6 374.7L124.4 372.1L151.1 369L177.9 366.8L204.7 357.9L231.5 363.4L258.2 363.2L285 363.9L311.8 368.1L338.5 372.1L365.3 374.6L392.1 380.9L418.8 385.6L445.6 392L472.4 397.5L499.2 401.7L525.9 404.5L552.7 403.7L579.5 400.7L606.2 403.2L633 405.3L659.8 406L686.6 405.6" stroke="rgb(43, 80, 141)" stroke-opacity="0.7" stroke-width="0.5" fill="none" class="Sub__002dSaharan-Africa_0-border"></path><path stroke-linecap="round" d="M97.6 338.2L124.4 331.4L151.1 322.4L177.9 312.2L204.7 297.9L231.5 298.8L258.2 310.6L285 324L311.8 331.1L338.5 339.7L365.3 357.5L392.1 362.4L418.8 366.2L445.6 359.5L472.4 363.2L499.2 375.1L525.9 378.8L552.7 380.5L579.5 379.9L606.2 385.2L633 385.7L659.8 385.3L686.6 384.7" stroke="rgb(192, 43, 38)" stroke-opacity="0.7" stroke-width="0.5" fill="none" class="East-Asia-__0026-Pacific_0-border"></path><path stroke-linecap="round" d="M97.6 332.3L124.4 324.5L151.1 315.1L177.9 304.4L204.7 290.1L231.5 290.4L258.2 302.9L285 316.9L311.8 325.3L338.5 335.5L365.3 354.4L392.1 359L418.8 363.1L445.6 355.1L472.4 359L499.2 371.2L525.9 375.1L552.7 376.7L579.5 376.4L606.2 381.8L633 382.1L659.8 381.8L686.6 380.9" stroke="rgb(213, 178, 52)" stroke-opacity="0.7" stroke-width="0.5" fill="none" class="Europe-__0026-Central-Asia_0-border"></path><path stroke-linecap="round" d="M97.6 316.3L124.4 309L151.1 298.8L177.9 288L204.7 274.3L231.5 275L258.2 290.8L285 307.2L311.8 316.9L338.5 327.2L365.3 346L392.1 348.5L418.8 353.2L445.6 346.4L472.4 349.2L499.2 360.5L525.9 366L552.7 368.5L579.5 368.2L606.2 373.6L633 373.3L659.8 370.7L686.6 369.5" stroke="rgb(90, 151, 46)" stroke-opacity="0.7" stroke-width="0.5" fill="none" class="Latin-America-__0026-Caribbean_0-border"></path><path stroke-linecap="round" d="M97.6 314L124.4 305.6L151.1 295.2L177.9 285.2L204.7 271.3L231.5 272.5L258.2 288.8L285 305.4L311.8 315L338.5 325.5L365.3 343.2L392.1 345.2L418.8 349.1L445.6 342.9L472.4 346.9L499.2 358.7L525.9 364.2L552.7 366.1L579.5 364.1L606.2 369L633 368.3L659.8 364.5L686.6 364.7" stroke="rgb(44, 127, 53)" stroke-opacity="0.7" stroke-width="0.5" fill="none" class="North-America_0-border"></path><path stroke-linecap="round" d="M97.6 284L124.4 275.6L151.1 267.7L177.9 255L204.7 244.5L231.5 245.3L258.2 261.9L285 279.3L311.8 290.7L338.5 305.1L365.3 326.1L392.1 330.3L418.8 336L445.6 330.2L472.4 334.8L499.2 348.3L525.9 354.4L552.7 356.9L579.5 356.1L606.2 361.2L633 360.7L659.8 355.6L686.6 355" stroke="rgb(123, 33, 44)" stroke-opacity="0.7" stroke-width="0.5" fill="none" class="Middle-East-__0026-North-Africa_0-border"></path><path stroke-linecap="round" d="M97.6 99.9L124.4 100.2L151.1 99.9L177.9 87.6L204.7 78.4L231.5 78.7L258.2 88.8L285 112L311.8 136.7L338.5 154.9L365.3 183.4L392.1 231.1L418.8 250.8L445.6 256L472.4 270.8L499.2 296.4L525.9 306.8L552.7 309.8L579.5 311L606.2 315.6L633 317.8L659.8 314.4L686.6 314" stroke="rgb(206, 136, 30)" stroke-opacity="0.7" stroke-width="0.5" fill="none" class="South-Asia_0-border"></path></g></g></g><g style="fill: #777;" class="SourcesFooter"><g style="fill: #777;" class="clickable"><text font-size="12.60" x="15.0" y="581.6"><tspan x="15" y="581.58">Source: World Bank</tspan></text></g><text font-size="12.60" x="456.6" y="581.6"><tspan x="456.622" y="581.58"><a target='_blank' style='fill: #777;' href='https://ourworldindata.org/primary-and-secondary-education'>OurWorldInData.org/primary-and-secondary-education</a> • <a style="fill: #777;" href="http://creativecommons.org/licenses/by-sa/4.0/deed.en_US" target="_blank">CC BY-SA</a></tspan></text></g></g></svg>