<svg xmlns="http://www.w3.org/2000/svg" version="1.1" style="font-family: 'Helvetica Neue', Helvetica, Arial, sans-serif; font-size: 18px; background-color: white; text-rendering: optimizeLegibility; -webkit-font-smoothing: antialiased;" width="850" height="600"><g class="ChartTab"><g class="HeaderView"><g opacity="0.8" transform="translate(770, 15) scale(0.31)"><a xmlns:xlink="http://www.w3.org/1999/xlink" xlink:href="https://ourworldindata.org" target="_blank"><g><rect x="0" y="0" fill="#1B2543" width="211.2" height="130.1"/><rect x="0" y="112.2" fill="#E63912" width="211.2" height="17.9"/><g><rect x="1.2" y="12.3" fill="none" width="210.2" height="99.2"/><path fill="#FFFFFF" d="M37.8,32.2c0,12.7-7.7,19.4-17.1,19.4c-9.7,0-16.6-7.5-16.6-18.7c0-11.7,7.3-19.3,17.1-19.3 C31.3,13.7,37.8,21.3,37.8,32.2z M9.2,32.8c0,7.9,4.3,14.9,11.8,14.9c7.5,0,11.8-6.9,11.8-15.3c0-7.3-3.8-14.9-11.8-14.9 C13.1,17.5,9.2,24.8,9.2,32.8z"/><path fill="#FFFFFF" d="M62.7,43.8c0,2.7,0.1,5.1,0.2,7.2h-4.3l-0.3-4.3h-0.1c-1.3,2.1-4,4.9-8.8,4.9c-4.2,0-9.1-2.3-9.1-11.6 V24.6h4.8v14.6c0,5,1.5,8.4,5.9,8.4c3.2,0,5.5-2.2,6.3-4.4c0.3-0.7,0.4-1.6,0.4-2.5V24.6h4.8V43.8z"/><path fill="#FFFFFF" d="M67.3,32.8c0-3.1-0.1-5.8-0.2-8.2h4.2l0.2,5.2h0.2c1.2-3.5,4.1-5.8,7.3-5.8c0.5,0,0.9,0.1,1.4,0.2v4.5 c-0.5-0.1-1-0.2-1.6-0.2c-3.4,0-5.8,2.6-6.5,6.2c-0.1,0.7-0.2,1.4-0.2,2.2V51h-4.8V32.8z"/><path fill="#FFFFFF" d="M95.4,51l-9.4-36.8h5l4.4,18.6c1.1,4.6,2.1,9.2,2.7,12.7h0.1c0.6-3.7,1.8-8,3-12.8l4.9-18.5h5l4.5,18.7 c1,4.4,2,8.7,2.6,12.6h0.1c0.8-4,1.8-8.1,3-12.7l4.9-18.5h4.9L120.6,51h-5L111,31.9c-1.1-4.7-1.9-8.3-2.4-12h-0.1 c-0.7,3.7-1.5,7.3-2.8,12L100.4,51H95.4z"/><path fill="#FFFFFF" d="M154.9,37.6c0,9.8-6.8,14-13.2,14c-7.2,0-12.7-5.2-12.7-13.6c0-8.8,5.8-14,13.1-14 C149.8,24,154.9,29.5,154.9,37.6z M133.9,37.9c0,5.8,3.3,10.1,8,10.1c4.6,0,8-4.3,8-10.3c0-4.5-2.2-10.1-7.9-10.1 C136.3,27.6,133.9,32.8,133.9,37.9z"/><path fill="#FFFFFF" d="M158.2,32.8c0-3.1-0.1-5.8-0.2-8.2h4.2l0.2,5.2h0.2c1.2-3.5,4.1-5.8,7.3-5.8c0.5,0,0.9,0.1,1.4,0.2v4.5 c-0.5-0.1-1-0.2-1.6-0.2c-3.4,0-5.8,2.6-6.5,6.2c-0.1,0.7-0.2,1.4-0.2,2.2V51h-4.8V32.8z"/><path fill="#FFFFFF" d="M173.5,12.3h4.8V51h-4.8V12.3z"/><path fill="#FFFFFF" d="M206.5,12.3v31.9c0,2.3,0.1,5,0.2,6.8h-4.3l-0.2-4.6H202c-1.5,2.9-4.7,5.2-9,5.2 c-6.4,0-11.3-5.4-11.3-13.4c-0.1-8.8,5.4-14.2,11.9-14.2c4,0,6.8,1.9,8,4h0.1V12.3H206.5z M201.7,35.4c0-0.6-0.1-1.4-0.2-2 c-0.7-3.1-3.3-5.6-6.9-5.6c-5,0-7.9,4.4-7.9,10.2c0,5.3,2.6,9.8,7.8,9.8c3.2,0,6.2-2.1,7.1-5.7c0.2-0.7,0.2-1.3,0.2-2.1V35.4z"/><path fill="#FFFFFF" d="M42.8,64c0.1,1.6-1.1,2.9-3.1,2.9c-1.7,0-2.9-1.3-2.9-2.9c0-1.7,1.3-3,3-3C41.7,61,42.8,62.3,42.8,64z M37.4,97.8V71.4h4.8v26.4H37.4z"/><path fill="#FFFFFF" d="M47.5,78.6c0-2.7-0.1-5-0.2-7.1h4.3l0.3,4.4h0.1c1.3-2.5,4.4-5,8.8-5c3.7,0,9.4,2.2,9.4,11.2v15.8h-4.8 V82.6c0-4.3-1.6-7.8-6.1-7.8c-3.2,0-5.6,2.2-6.5,4.9c-0.2,0.6-0.3,1.4-0.3,2.2v15.9h-4.8V78.6z"/><path fill="#FFFFFF" d="M84,61.6c2.9-0.4,6.3-0.8,10.1-0.8c6.8,0,11.7,1.6,14.9,4.6c3.3,3,5.2,7.3,5.2,13.2c0,6-1.9,10.9-5.3,14.3 c-3.4,3.4-9.1,5.3-16.3,5.3c-3.4,0-6.2-0.2-8.6-0.4V61.6z M88.8,94.1c1.2,0.2,3,0.3,4.8,0.3c10.2,0,15.7-5.7,15.7-15.6 c0.1-8.7-4.9-14.2-14.9-14.2c-2.5,0-4.3,0.2-5.6,0.5V94.1z"/><path fill="#FFFFFF" d="M132.1,97.8l-0.4-3.3h-0.2c-1.5,2.1-4.3,3.9-8.1,3.9c-5.4,0-8.1-3.8-8.1-7.6c0-6.4,5.7-9.9,15.9-9.8v-0.5 c0-2.2-0.6-6.1-6-6.1c-2.5,0-5,0.8-6.9,2l-1.1-3.2c2.2-1.4,5.4-2.3,8.7-2.3c8.1,0,10.1,5.5,10.1,10.8v9.9c0,2.3,0.1,4.5,0.4,6.3 H132.1z M131.4,84.4c-5.3-0.1-11.2,0.8-11.2,5.9c0,3.1,2.1,4.6,4.5,4.6c3.4,0,5.6-2.2,6.4-4.4c0.2-0.5,0.3-1,0.3-1.5V84.4z"/><path fill="#FFFFFF" d="M146.6,63.9v7.6h6.9v3.7h-6.9v14.2c0,3.3,0.9,5.1,3.6,5.1c1.3,0,2.2-0.2,2.8-0.3l0.2,3.6 c-0.9,0.4-2.4,0.7-4.3,0.7c-2.2,0-4-0.7-5.2-2c-1.4-1.4-1.9-3.8-1.9-6.9V75.1h-4.1v-3.7h4.1v-6.3L146.6,63.9z"/><path fill="#FFFFFF" d="M171.4,97.8l-0.4-3.3h-0.2c-1.5,2.1-4.3,3.9-8.1,3.9c-5.4,0-8.1-3.8-8.1-7.6c0-6.4,5.7-9.9,15.9-9.8v-0.5 c0-2.2-0.6-6.1-6-6.1c-2.5,0-5,0.8-6.9,2l-1.1-3.2c2.2-1.4,5.4-2.3,8.7-2.3c8.1,0,10.1,5.5,10.1,10.8v9.9c0,2.3,0.1,4.5,0.4,6.3 H171.4z M170.7,84.4c-5.3-0.1-11.2,0.8-11.2,5.9c0,3.1,2.1,4.6,4.5,4.6c3.4,0,5.6-2.2,6.4-4.4c0.2-0.5,0.3-1,0.3-1.5V84.4z"/></g></g></a></g><a href="https://ourworldindata.org/grapher/output-of-key-service-and-industrial-sectors-in-england-and-the-uk" target="_blank"><text font-size="24.30" x="15.0" y="34.4" fill="#555"><tspan x="15" y="34.44">Output of key service and industrial sectors in England and the UK</tspan></text></a></g><g class="LineChart"><defs><clipPath id="boundsClip-507"><rect x="50.824" y="0" width="830" height="963"></rect></clipPath></defs><g class="AxisBoxView"><g class="HorizontalAxis"><text x="60.8" y="556.5" fill="#666" text-anchor="middle" font-size="16.2">1270</text><text x="178.8" y="556.5" fill="#666" text-anchor="middle" font-size="16.2">1400</text><text x="269.6" y="556.5" fill="#666" text-anchor="middle" font-size="16.2">1500</text><text x="360.3" y="556.5" fill="#666" text-anchor="middle" font-size="16.2">1600</text><text x="451.1" y="556.5" fill="#666" text-anchor="middle" font-size="16.2">1700</text><text x="541.8" y="556.5" fill="#666" text-anchor="middle" font-size="16.2">1800</text><text x="605.4" y="556.5" fill="#666" text-anchor="middle" font-size="16.2">1870</text></g><g class="VerticalAxis"><text x="55.82" y="511.8" fill="#666" dominant-baseline="middle" text-anchor="end" font-size="16.2">1</text><text x="55.82" y="384.4" fill="#666" dominant-baseline="middle" text-anchor="end" font-size="16.2">10</text><text x="55.82" y="257.1" fill="#666" dominant-baseline="middle" text-anchor="end" font-size="16.2">100</text><text x="55.82" y="129.7" fill="#666" dominant-baseline="middle" text-anchor="end" font-size="16.2">1,000</text></g><g class="AxisGridLines"><line x1="60.82" y1="511.8" x2="605.38" y2="511.8" stroke="#ddd" stroke-dasharray="3,2"></line><line x1="60.82" y1="384.4" x2="605.38" y2="384.4" stroke="#ddd" stroke-dasharray="3,2"></line><line x1="60.82" y1="257.1" x2="605.38" y2="257.1" stroke="#ddd" stroke-dasharray="3,2"></line><line x1="60.82" y1="129.7" x2="605.38" y2="129.7" stroke="#ddd" stroke-dasharray="3,2"></line></g><g class="AxisGridLines"><line x1="88.1" y1="535.30" x2="88.1" y2="75.00" stroke="#ddd" stroke-dasharray="3,2"></line><line x1="178.8" y1="535.30" x2="178.8" y2="75.00" stroke="#ddd" stroke-dasharray="3,2"></line><line x1="269.6" y1="535.30" x2="269.6" y2="75.00" stroke="#ddd" stroke-dasharray="3,2"></line><line x1="360.3" y1="535.30" x2="360.3" y2="75.00" stroke="#ddd" stroke-dasharray="3,2"></line><line x1="451.1" y1="535.30" x2="451.1" y2="75.00" stroke="#ddd" stroke-dasharray="3,2"></line><line x1="541.8" y1="535.30" x2="541.8" y2="75.00" stroke="#ddd" stroke-dasharray="3,2"></line></g></g><g clip-path="url(#boundsClip-507)"><g class="HeightedLegend clickable"><g class="legendMark"><rect x="615.376" y="67.8" width="132.072" height="14.4" fill="#fff" opacity="0"></rect><rect x="615.376" y="73.75" width="10" height="2.5" fill="#9ecc8a"></rect><text font-size="14.40" x="630.4" y="79.3" fill="#333"><tspan x="630.376" y="79.32000000000001">Financial Services</tspan></text></g><g class="legendMark"><rect x="615.376" y="82.2" width="132.072" height="14.4" fill="#fff" opacity="0"></rect><rect x="615.376" y="88.15" width="10" height="2.5" fill="#ffd53e"></rect><text font-size="14.40" x="630.4" y="93.7" fill="#333"><tspan x="630.376" y="93.72000000000001">Financial Services</tspan></text></g><g class="legendMark"><rect x="615.376" y="96.60000000000001" width="146.76000000000002" height="14.4" fill="#fff" opacity="0"></rect><rect x="615.376" y="102.55000000000001" width="10" height="2.5" fill="#2a939b"></rect><text font-size="14.40" x="630.4" y="108.1" fill="#333"><tspan x="630.376" y="108.12000000000002">Trade and Transport</tspan></text></g><g class="legendMark"><rect x="615.376" y="111.00000000000001" width="146.76000000000002" height="14.4" fill="#fff" opacity="0"></rect><rect x="615.376" y="116.95000000000002" width="10" height="2.5" fill="#e6332e"></rect><text font-size="14.40" x="630.4" y="122.5" fill="#333"><tspan x="630.376" y="122.52000000000002">Trade and Transport</tspan></text></g><g class="legendMark"><rect x="615.376" y="125.40000000000002" width="153.816" height="14.4" fill="#fff" opacity="0"></rect><rect x="615.376" y="131.35000000000002" width="10" height="2.5" fill="#f6a324"></rect><text font-size="14.40" x="630.4" y="136.9" fill="#333"><tspan x="630.376" y="136.92000000000002">Government Services</tspan></text></g><g class="legendMark"><rect x="615.376" y="139.8" width="153.816" height="14.4" fill="#fff" opacity="0"></rect><rect x="615.376" y="145.75" width="10" height="2.5" fill="#a652ba"></rect><text font-size="14.40" x="630.4" y="151.3" fill="#333"><tspan x="630.376" y="151.32000000000002">Government Services</tspan></text></g><g class="legendMark"><rect x="615.376" y="154.20000000000002" width="106.44000000000001" height="14.4" fill="#fff" opacity="0"></rect><rect x="615.376" y="160.15" width="10" height="2.5" fill="#34983f"></rect><text font-size="14.40" x="630.4" y="165.7" fill="#333"><tspan x="630.376" y="165.72000000000003">Total Services</tspan></text></g><g class="legendMark"><rect x="615.376" y="169.20000000000002" width="219.62400000000002" height="14.4" fill="#fff" opacity="0"></rect><rect x="615.376" y="175.15" width="10" height="2.5" fill="#3360a9"></rect><text font-size="14.40" x="630.4" y="180.7" fill="#333"><tspan x="630.376" y="180.72000000000003">Housing and Domestic Services</tspan></text></g><g class="legendMark"><rect x="615.376" y="183.60000000000002" width="219.62400000000002" height="14.4" fill="#fff" opacity="0"></rect><rect x="615.376" y="189.55" width="10" height="2.5" fill="#ca2628"></rect><text font-size="14.40" x="630.4" y="195.1" fill="#333"><tspan x="630.376" y="195.12000000000003">Housing and Domestic Services</tspan></text></g></g><g class="Lines"><rect x="61" y="75" width="545" height="460" fill="rgba(255,255,255,0)" opacity="0"></rect><g class="key-England_0"><path stroke="#34983f" stroke-linecap="round" d="M61 312L62 312L63 311L64 311L65 311L65 311L66 311L67 311L68 311L69 311L70 310L71 310L72 310L73 310L74 309L74 309L75 309L76 308L77 308L78 307L79 306L80 306L81 306L82 306L83 306L84 306L84 306L85 305L86 304L87 305L88 304L89 304L90 305L91 305L92 305L93 304L94 305L94 305L95 305L96 305L97 305L98 305L99 305L100 305L101 306L102 305L103 307L104 307L104 308L105 309L106 309L107 310L108 311L109 311L110 312L111 313L112 313L113 312L114 312L114 311L115 311L116 311L117 310L118 310L119 310L120 309L121 309L122 309L123 307L123 305L124 305L125 304L126 303L127 303L128 302L129 302L130 301L131 300L132 300L133 310L133 320L134 330L135 331L136 331L137 329L138 330L139 330L140 330L141 330L142 331L143 330L143 331L144 331L145 332L146 333L147 332L148 333L149 333L150 334L151 334L152 335L153 335L153 335L154 334L155 334L156 333L157 334L158 335L159 333L160 334L161 333L162 333L163 333L163 334L164 333L165 334L166 334L167 334L168 335L169 336L170 335L171 337L172 337L173 337L173 338L174 338L175 338L176 339L177 340L178 340L179 341L180 342L181 340L182 342L182 341L183 342L184 341L185 341L186 341L187 341L188 341L189 341L190 342L191 341L192 341L192 340L193 341L194 340L195 340L196 340L197 340L198 340L199 340L200 338L201 339L202 340L202 341L203 342L204 342L205 343L206 344L207 344L208 344L209 345L210 346L211 345L212 347L212 346L213 345L214 346L215 344L216 345L217 346L218 345L219 345L220 346L221 346L222 347L222 346L223 348L224 347L225 347L226 347L227 347L228 348L229 348L230 346L231 348L232 347L232 348L233 349L234 348L235 348L236 349L237 348L238 349L239 348L240 348L241 348L241 347L242 348L243 348L244 347L245 347L246 345L247 345L248 344L249 344L250 344L251 342L251 342L252 342L253 341L254 343L255 342L256 343L257 343L258 344L259 342L260 341L261 340L261 340L262 339L263 339L264 337L265 339L266 338L267 335L268 334L269 335L270 335L271 335L271 335L272 335L273 335L274 335L275 335L276 335L277 335L278 335L279 335L280 335L281 335L281 334L282 333L283 333L284 332L285 332L286 332L287 331L288 332L289 332L290 332L290 330L291 329L292 329L293 329L294 329L295 329L296 329L297 329L298 329L299 328L300 327L300 328L301 328L302 328L303 327L304 327L305 326L306 326L307 325L308 324L309 323L310 322L310 322L311 321L312 321L313 320L314 320L315 320L316 320L317 321L318 321L319 322L320 322L320 322L321 323L322 324L323 324L324 323L325 323L326 323L327 322L328 321L329 320L330 319L330 318L331 318L332 318L333 320L334 320L335 320L336 319L337 318L338 317L339 317L340 316L340 315L341 315L342 315L343 314L344 314L345 313L346 313L347 313L348 312L349 311L349 311L350 311L351 309L352 309L353 308L354 308L355 308L356 307L357 307L358 307L359 306L359 305L360 305L361 304L362 303L363 302L364 301L365 301L366 300L367 300L368 300L369 299L369 298L370 298L371 299L372 298L373 298L374 297L375 298L376 297L377 297L378 297L379 296L379 295L380 295L381 294L382 294L383 293L384 294L385 293L386 290L387 291L388 292L389 292L389 290L390 289L391 288L392 287L393 288L394 287L395 286L396 286L397 286L398 287L398 286L399 284L400 285L401 285L402 285L403 284L404 283L405 281L406 280L407 279L408 276L408 275L409 276L410 275L411 275L412 276L413 277L414 279L415 279L416 279L417 279L418 278L418 278L419 277L420 275L421 276L422 276L423 275L424 276L425 276L426 275L427 274L428 274L428 273L429 271L430 272L431 271L432 271L433 270L434 271L435 272L436 271L437 273L438 272L438 272L439 272L440 270L441 269L442 268L443 267L444 264L445 265L446 262L447 261L448 260L448 260L449 259L450 258L451 257L452 255L453 255L454 255L455 252L456 253L457 255L457 251L458 249L459 251L460 253L461 250L462 253L463 254L464 253L465 253L466 252L467 251L467 250L468 250L469 251L470 252L471 249L472 250L473 250L474 249L475 250L476 249L477 249L477 251L478 250L479 250L480 250L481 249L482 248L483 248L484 247L485 249L486 248L487 247L487 247L488 246L489 245L490 245L491 244L492 244L493 243L494 242L495 241L496 241L497 243L497 243L498 242L499 242L500 242L501 241L502 239L503 239L504 238L505 235L506 233L506 231L507 232L508 233L509 236L510 236L511 235L512 236L513 236L514 234L515 233L516 233L516 233L517 234L518 233L519 233L520 230L521 229L522 229L523 228L524 226L525 226L526 223L526 226L527 225L528 223L529 226L530 224L531 224L532 223L533 221L534 220L535 219L536 218L536 215L537 212L538 212L539 209L540 210L541 208L542 208L543 209L544 205L545 207L546 206L546 204L547 202L548 200L549 202L550 199L551 196L552 196L553 198L554 196L555 193L556 188L556 191L557 195L558 194L559 195L560 193L561 191L562 189L563 188L564 186L565 185L565 186L566 183L567 181L568 182L569 180L570 180L571 179L572 178L573 177L574 175L575 171L575 174L576 171L577 171L578 168L579 168L580 168L581 165L582 163L583 160L584 159L585 159L585 156L586 154L587 153L588 151L589 150L590 147L591 146L592 146L593 141L594 141L595 142L595 139L596 137L597 137L598 138L599 136L600 135L601 132L602 130L603 129L604 127L605 126L605 124" fill="none" stroke-width="1.5"></path></g><g class="key-England_1"><path stroke="#3360a9" stroke-linecap="round" d="M61 267L62 267L63 267L64 266L65 266L65 266L66 266L67 266L68 266L69 266L70 266L71 265L72 265L73 265L74 264L74 264L75 263L76 263L77 263L78 262L79 262L80 262L81 262L82 262L83 262L84 262L84 262L85 262L86 262L87 262L88 262L89 262L90 262L91 262L92 262L93 262L94 263L94 263L95 263L96 263L97 263L98 263L99 263L100 263L101 263L102 263L103 264L104 264L104 265L105 266L106 266L107 267L108 268L109 269L110 269L111 270L112 270L113 269L114 269L114 268L115 268L116 268L117 267L118 267L119 267L120 266L121 266L122 265L123 265L123 265L124 264L125 264L126 264L127 263L128 263L129 262L130 262L131 262L132 261L133 273L133 284L134 295L135 295L136 296L137 296L138 296L139 296L140 296L141 296L142 296L143 296L143 296L144 296L145 296L146 296L147 297L148 297L149 297L150 297L151 297L152 297L153 297L153 297L154 297L155 297L156 297L157 297L158 298L159 298L160 298L161 299L162 299L163 300L163 300L164 301L165 301L166 302L167 302L168 302L169 303L170 303L171 304L172 304L173 305L173 305L174 305L175 306L176 306L177 307L178 307L179 308L180 308L181 308L182 308L182 308L183 308L184 308L185 308L186 308L187 308L188 308L189 308L190 308L191 308L192 308L192 309L193 309L194 309L195 309L196 309L197 309L198 309L199 309L200 309L201 309L202 309L202 309L203 309L204 309L205 309L206 309L207 310L208 310L209 310L210 310L211 310L212 310L212 311L213 311L214 311L215 311L216 311L217 311L218 312L219 312L220 312L221 312L222 312L222 312L223 312L224 313L225 312L226 312L227 312L228 312L229 312L230 312L231 312L232 311L232 311L233 311L234 311L235 311L236 311L237 310L238 310L239 310L240 310L241 310L241 310L242 309L243 309L244 309L245 309L246 309L247 309L248 308L249 308L250 308L251 308L251 308L252 308L253 307L254 307L255 307L256 307L257 307L258 307L259 306L260 306L261 306L261 306L262 306L263 306L264 306L265 305L266 305L267 305L268 305L269 305L270 305L271 304L271 304L272 304L273 304L274 304L275 304L276 303L277 303L278 303L279 303L280 303L281 303L281 302L282 302L283 302L284 302L285 302L286 302L287 301L288 301L289 301L290 301L290 300L291 300L292 299L293 299L294 298L295 298L296 297L297 297L298 296L299 295L300 295L300 294L301 294L302 293L303 293L304 292L305 291L306 291L307 291L308 290L309 290L310 289L310 289L311 289L312 289L313 288L314 288L315 287L316 286L317 286L318 285L319 285L320 285L320 284L321 284L322 285L323 287L324 287L325 287L326 286L327 286L328 285L329 285L330 284L330 284L331 283L332 283L333 282L334 282L335 282L336 281L337 281L338 280L339 280L340 279L340 279L341 278L342 277L343 277L344 276L345 276L346 275L347 274L348 274L349 274L349 274L350 273L351 272L352 272L353 272L354 272L355 272L356 271L357 271L358 271L359 271L359 271L360 270L361 269L362 269L363 269L364 269L365 268L366 267L367 267L368 266L369 266L369 266L370 265L371 265L372 265L373 265L374 264L375 264L376 264L377 264L378 263L379 263L379 262L380 261L381 261L382 261L383 261L384 262L385 262L386 260L387 260L388 260L389 260L389 259L390 258L391 257L392 257L393 258L394 257L395 257L396 257L397 257L398 258L398 257L399 256L400 257L401 257L402 257L403 256L404 256L405 256L406 256L407 256L408 255L408 255L409 256L410 255L411 255L412 255L413 256L414 256L415 257L416 256L417 257L418 257L418 257L419 257L420 257L421 258L422 257L423 257L424 257L425 257L426 258L427 257L428 257L428 257L429 257L430 257L431 257L432 257L433 257L434 258L435 260L436 260L437 260L438 259L438 259L439 259L440 260L441 259L442 259L443 258L444 258L445 258L446 258L447 258L448 258L448 258L449 257L450 257L451 257L452 257L453 256L454 256L455 256L456 255L457 255L457 255L458 255L459 255L460 255L461 255L462 255L463 255L464 254L465 254L466 254L467 254L467 253L468 253L469 253L470 253L471 253L472 253L473 253L474 253L475 252L476 252L477 252L477 253L478 254L479 254L480 254L481 253L482 253L483 252L484 252L485 252L486 251L487 251L487 251L488 250L489 251L490 251L491 251L492 250L493 250L494 250L495 249L496 249L497 249L497 248L498 248L499 248L500 247L501 247L502 246L503 246L504 246L505 246L506 246L506 245L507 245L508 245L509 245L510 244L511 244L512 244L513 244L514 243L515 243L516 243L516 242L517 242L518 242L519 241L520 240L521 240L522 239L523 239L524 239L525 238L526 238L526 237L527 237L528 236L529 236L530 235L531 235L532 234L533 233L534 233L535 232L536 231L536 231L537 230L538 230L539 229L540 228L541 228L542 227L543 227L544 226L545 226L546 225L546 224L547 223L548 223L549 222L550 221L551 221L552 220L553 219L554 218L555 217L556 216L556 215L557 214L558 214L559 213L560 212L561 211L562 210L563 209L564 208L565 208L565 207L566 206L567 205L568 205L569 204L570 203L571 203L572 202L573 201L574 200L575 200L575 199L576 198L577 198L578 197L579 196L580 196L581 195L582 194L583 194L584 193L585 192L585 192L586 191L587 190L588 190L589 189L590 188L591 188L592 187L593 186L594 186L595 185L595 184L596 184L597 183L598 182L599 182L600 181L601 180L602 179L603 179L604 178L605 177L605 176" fill="none" stroke-width="1.5"></path></g><g class="key-England_2"><path stroke="#9ecc8a" stroke-linecap="round" d="M61 276L62 276L63 275L64 275L65 274L65 274L66 274L67 273L68 273L69 272L70 272L71 271L72 270L73 270L74 269L74 268L75 268L76 267L77 267L78 266L79 265L80 266L81 267L82 268L83 269L84 270L84 271L85 271L86 272L87 273L88 274L89 274L90 273L91 273L92 272L93 272L94 271L94 271L95 270L96 270L97 269L98 269L99 268L100 268L101 267L102 267L103 267L104 267L104 268L105 268L106 268L107 269L108 270L109 270L110 271L111 272L112 271L113 271L114 271L114 270L115 270L116 270L117 269L118 269L119 269L120 268L121 268L122 268L123 267L123 267L124 267L125 266L126 266L127 266L128 265L129 265L130 265L131 264L132 264L133 275L133 287L134 298L135 298L136 298L137 299L138 299L139 299L140 299L141 299L142 299L143 299L143 299L144 300L145 300L146 300L147 300L148 300L149 300L150 300L151 300L152 301L153 301L153 301L154 301L155 301L156 301L157 301L158 301L159 302L160 302L161 303L162 303L163 304L163 304L164 305L165 305L166 306L167 306L168 307L169 307L170 308L171 308L172 309L173 309L173 310L174 310L175 311L176 311L177 312L178 312L179 312L180 313L181 313L182 313L182 313L183 313L184 313L185 313L186 313L187 313L188 313L189 314L190 314L191 314L192 314L192 314L193 314L194 314L195 314L196 314L197 314L198 315L199 315L200 315L201 315L202 315L202 315L203 315L204 315L205 315L206 315L207 316L208 316L209 316L210 316L211 316L212 317L212 317L213 317L214 317L215 317L216 318L217 318L218 318L219 318L220 318L221 319L222 319L222 319L223 319L224 319L225 319L226 319L227 319L228 319L229 319L230 319L231 319L232 318L232 318L233 318L234 318L235 318L236 318L237 318L238 318L239 317L240 317L241 317L241 317L242 317L243 317L244 317L245 316L246 316L247 316L248 316L249 315L250 315L251 315L251 315L252 314L253 314L254 314L255 314L256 313L257 313L258 313L259 313L260 312L261 312L261 312L262 312L263 311L264 311L265 311L266 311L267 310L268 310L269 310L270 310L271 310L271 309L272 309L273 309L274 309L275 308L276 308L277 308L278 308L279 307L280 307L281 307L281 307L282 306L283 306L284 306L285 306L286 305L287 305L288 305L289 305L290 304L290 304L291 303L292 303L293 302L294 303L295 303L296 304L297 304L298 305L299 306L300 306L300 307L301 307L302 308L303 309L304 309L305 310L306 310L307 311L308 312L309 313L310 313L310 315L311 316L312 318L313 319L314 320L315 321L316 323L317 324L318 326L319 327L320 329L320 330L321 332L322 335L323 339L324 341L325 343L326 341L327 340L328 339L329 338L330 337L330 336L331 335L332 334L333 333L334 332L335 331L336 330L337 329L338 328L339 327L340 326L340 325L341 324L342 323L343 322L344 320L345 319L346 318L347 317L348 316L349 315L349 314L350 313L351 312L352 312L353 311L354 310L355 309L356 308L357 307L358 307L359 306L359 305L360 304L361 303L362 302L363 301L364 300L365 298L366 297L367 296L368 294L369 293L369 292L370 291L371 290L372 289L373 288L374 287L375 286L376 285L377 284L378 283L379 282L379 280L380 279L381 278L382 277L383 276L384 276L385 275L386 273L387 272L388 271L389 271L389 269L390 267L391 266L392 265L393 265L394 263L395 263L396 262L397 261L398 261L398 259L399 258L400 258L401 258L402 258L403 257L404 257L405 257L406 257L407 257L408 256L408 256L409 257L410 256L411 256L412 256L413 257L414 257L415 257L416 257L417 257L418 258L418 257L419 258L420 257L421 258L422 257L423 257L424 257L425 257L426 258L427 257L428 257L428 257L429 257L430 257L431 257L432 257L433 257L434 258L435 260L436 260L437 260L438 259L438 259L439 259L440 260L441 259L442 259L443 258L444 258L445 258L446 258L447 258L448 258L448 258L449 257L450 257L451 257L452 256L453 255L454 254L455 253L456 252L457 251L457 250L458 249L459 248L460 246L461 245L462 244L463 243L464 242L465 241L466 240L467 239L467 238L468 237L469 241L470 249L471 236L472 228L473 223L474 217L475 233L476 215L477 216L477 217L478 213L479 205L480 210L481 210L482 210L483 209L484 205L485 212L486 209L487 213L487 212L488 216L489 206L490 212L491 209L492 217L493 215L494 216L495 215L496 211L497 209L497 201L498 204L499 205L500 207L501 207L502 203L503 201L504 202L505 201L506 199L506 195L507 190L508 194L509 188L510 189L511 189L512 191L513 188L514 185L515 187L516 180L516 186L517 185L518 177L519 170L520 171L521 172L522 178L523 171L524 174L525 177L526 173L526 177L527 191L528 180L529 173L530 168L531 166L532 162L533 161L534 157L535 158L536 161L536 163L537 155L538 161L539 162L540 158L541 153L542 155L543 154L544 148L545 147L546 145L546 144L547 139L548 134L549 131L550 126L551 125L552 123L553 125L554 125L555 124L556 123L556 125L557 128L558 126L559 124L560 121L561 119L562 116L563 116L564 114L565 115L565 117L566 117L567 114L568 113L569 113L570 114L571 114L572 112L573 110L574 110L575 113L575 114L576 114L577 116L578 115L579 114L580 113L581 107L582 106L583 102L584 94L585 103L585 98L586 95L587 91L588 93L589 89L590 89L591 95L592 91L593 92L594 90L595 85L595 83L596 84L597 88L598 82L599 82L600 84L601 83L602 80L603 76L604 76L605 78L605 75" fill="none" stroke-width="1.5"></path></g><g class="key-England_3"><path stroke="#2a939b" stroke-linecap="round" d="M61 434L62 434L63 432L64 434L65 434L65 430L66 433L67 432L68 431L69 436L70 435L71 431L72 433L73 434L74 426L74 430L75 434L76 432L77 429L78 428L79 425L80 428L81 430L82 433L83 437L84 438L84 439L85 432L86 424L87 431L88 419L89 416L90 435L91 416L92 418L93 404L94 409L94 407L95 411L96 407L97 412L98 409L99 408L100 409L101 427L102 416L103 431L104 421L104 418L105 424L106 414L107 421L108 433L109 418L110 429L111 422L112 431L113 422L114 432L114 417L115 420L116 416L117 412L118 419L119 414L120 415L121 431L122 446L123 424L123 408L124 427L125 428L126 421L127 433L128 426L129 426L130 425L131 420L132 416L133 423L133 421L134 420L135 432L136 439L137 410L138 421L139 423L140 410L141 413L142 416L143 412L143 421L144 408L145 419L146 428L147 411L148 414L149 413L150 424L151 419L152 428L153 418L153 426L154 421L155 427L156 422L157 428L158 438L159 419L160 437L161 430L162 429L163 425L163 433L164 416L165 419L166 422L167 421L168 426L169 425L170 413L171 424L172 419L173 421L173 420L174 418L175 417L176 423L177 418L178 417L179 423L180 423L181 412L182 424L182 416L183 428L184 415L185 419L186 422L187 413L188 415L189 424L190 428L191 416L192 424L192 414L193 421L194 417L195 417L196 416L197 420L198 421L199 417L200 400L201 407L202 405L202 411L203 411L204 411L205 408L206 414L207 411L208 416L209 416L210 417L211 413L212 436L212 424L213 411L214 413L215 397L216 408L217 410L218 400L219 403L220 410L221 404L222 411L222 401L223 427L224 414L225 417L226 422L227 414L228 427L229 420L230 411L231 431L232 415L232 419L233 436L234 423L235 420L236 429L237 420L238 441L239 422L240 413L241 415L241 412L242 424L243 435L244 417L245 421L246 411L247 422L248 417L249 417L250 416L251 396L251 403L252 398L253 398L254 422L255 409L256 413L257 402L258 420L259 409L260 405L261 401L261 407L262 407L263 405L264 401L265 425L266 427L267 402L268 398L269 404L270 395L271 395L271 393L272 393L273 394L274 393L275 395L276 394L277 392L278 392L279 392L280 392L281 394L281 393L282 392L283 392L284 392L285 392L286 392L287 390L288 390L289 391L290 392L290 392L291 391L292 392L293 391L294 390L295 391L296 391L297 390L298 391L299 390L300 390L300 388L301 389L302 389L303 388L304 389L305 386L306 386L307 387L308 385L309 387L310 383L310 382L311 379L312 377L313 376L314 376L315 375L316 380L317 389L318 385L319 386L320 385L320 390L321 387L322 381L323 383L324 381L325 385L326 387L327 387L328 385L329 381L330 373L330 374L331 373L332 372L333 376L334 377L335 379L336 371L337 372L338 365L339 364L340 368L340 363L341 364L342 364L343 365L344 369L345 364L346 364L347 367L348 365L349 363L349 358L350 361L351 357L352 355L353 351L354 349L355 354L356 353L357 354L358 355L359 349L359 343L360 343L361 341L362 336L363 334L364 330L365 332L366 328L367 332L368 333L369 329L369 327L370 329L371 332L372 330L373 328L374 328L375 332L376 327L377 325L378 330L379 325L379 323L380 328L381 326L382 321L383 320L384 321L385 321L386 312L387 323L388 324L389 324L389 315L390 319L391 316L392 311L393 309L394 310L395 307L396 308L397 308L398 312L398 307L399 303L400 304L401 308L402 307L403 305L404 304L405 304L406 305L407 302L408 295L408 290L409 290L410 287L411 290L412 292L413 292L414 301L415 296L416 293L417 293L418 284L418 285L419 284L420 278L421 277L422 280L423 279L424 280L425 282L426 281L427 279L428 281L428 279L429 271L430 273L431 271L432 274L433 269L434 273L435 271L436 268L437 275L438 270L438 272L439 269L440 265L441 265L442 262L443 261L444 258L445 264L446 258L447 259L448 261L448 261L449 259L450 260L451 257L452 254L453 260L454 261L455 254L456 257L457 262L457 259L458 252L459 257L460 261L461 260L462 259L463 257L464 253L465 254L466 253L467 250L467 250L468 250L469 250L470 251L471 249L472 249L473 249L474 248L475 248L476 249L477 248L477 250L478 248L479 249L480 248L481 245L482 246L483 245L484 245L485 247L486 244L487 245L487 247L488 244L489 245L490 244L491 246L492 244L493 244L494 243L495 240L496 241L497 239L497 238L498 237L499 236L500 238L501 236L502 236L503 238L504 237L505 234L506 232L506 233L507 233L508 230L509 229L510 230L511 227L512 228L513 228L514 224L515 224L516 224L516 224L517 226L518 224L519 227L520 224L521 222L522 226L523 226L524 224L525 226L526 225L526 222L527 220L528 218L529 216L530 213L531 213L532 211L533 209L534 207L535 205L536 205L536 204L537 203L538 203L539 205L540 199L541 196L542 194L543 195L544 193L545 196L546 193L546 192L547 193L548 191L549 193L550 188L551 182L552 188L553 189L554 186L555 184L556 177L556 182L557 181L558 176L559 180L560 178L561 177L562 174L563 171L564 166L565 165L565 168L566 164L567 161L568 161L569 159L570 158L571 159L572 157L573 154L574 152L575 148L575 151L576 145L577 144L578 141L579 140L580 142L581 137L582 133L583 128L584 129L585 128L585 124L586 120L587 119L588 115L589 114L590 109L591 108L592 110L593 104L594 102L595 104L595 100L596 96L597 97L598 100L599 96L600 94L601 91L602 87L603 87L604 84L605 83L605 80" fill="none" stroke-width="1.5"></path></g><g class="key-England_4"><path stroke="#f6a324" stroke-linecap="round" d="M61 491L62 458L63 458L64 458L65 456L65 452L66 462L67 470L68 455L69 459L70 464L71 472L72 518L73 525L74 530L74 535L75 505L76 480L77 478L78 487L79 458L80 441L81 427L82 425L83 430L84 409L84 400L85 389L86 385L87 386L88 386L89 386L90 385L91 390L92 389L93 389L94 402L94 403L95 408L96 415L97 409L98 407L99 406L100 412L101 407L102 406L103 409L104 409L104 416L105 425L106 418L107 422L108 426L109 421L110 423L111 432L112 440L113 438L114 432L114 434L115 435L116 445L117 445L118 435L119 438L120 429L121 422L122 413L123 402L123 384L124 371L125 364L126 360L127 360L128 359L129 356L130 353L131 350L132 349L133 351L133 358L134 363L135 367L136 368L137 362L138 361L139 363L140 366L141 367L142 369L143 367L143 368L144 370L145 372L146 375L147 381L148 382L149 382L150 385L151 390L152 393L153 394L153 389L154 388L155 383L156 378L157 378L158 379L159 370L160 368L161 363L162 360L163 362L163 363L164 362L165 363L166 362L167 359L168 358L169 362L170 362L171 367L172 367L173 365L173 365L174 365L175 364L176 367L177 370L178 369L179 374L180 375L181 373L182 374L182 376L183 374L184 374L185 374L186 371L187 371L188 373L189 372L190 371L191 370L192 368L192 367L193 368L194 366L195 366L196 365L197 363L198 363L199 362L200 362L201 364L202 368L202 370L203 374L204 378L205 385L206 389L207 392L208 389L209 392L210 395L211 393L212 389L212 390L213 392L214 395L215 393L216 393L217 393L218 395L219 392L220 392L221 391L222 393L222 392L223 393L224 389L225 389L226 391L227 394L228 396L229 397L230 395L231 399L232 401L232 405L233 406L234 411L235 414L236 414L237 410L238 414L239 419L240 422L241 423L241 416L242 414L243 414L244 412L245 410L246 402L247 396L248 393L249 393L250 393L251 391L251 392L252 392L253 388L254 390L255 392L256 400L257 406L258 407L259 398L260 387L261 384L261 384L262 376L263 375L264 371L265 367L266 364L267 357L268 357L269 359L270 363L271 364L271 365L272 369L273 367L274 366L275 368L276 368L277 374L278 372L279 372L280 373L281 371L281 368L282 364L283 362L284 360L285 358L286 358L287 359L288 360L289 361L290 362L290 353L291 353L292 354L293 356L294 358L295 362L296 364L297 365L298 365L299 363L300 362L300 373L301 373L302 376L303 375L304 375L305 373L306 371L307 366L308 360L309 359L310 356L310 352L311 349L312 349L313 350L314 351L315 352L316 352L317 356L318 363L319 367L320 372L320 380L321 389L322 389L323 373L324 369L325 367L326 366L327 363L328 360L329 358L330 356L330 356L331 355L332 358L333 376L334 384L335 380L336 378L337 378L338 378L339 379L340 377L340 377L341 378L342 379L343 379L344 376L345 379L346 382L347 382L348 380L349 381L349 380L350 378L351 376L352 375L353 371L354 371L355 369L356 367L357 367L358 368L359 368L359 368L360 368L361 369L362 367L363 367L364 367L365 368L366 369L367 368L368 366L369 365L369 365L370 364L371 365L372 365L373 367L374 367L375 370L376 371L377 372L378 372L379 372L379 373L380 372L381 371L382 371L383 368L384 367L385 362L386 357L387 355L388 354L389 354L389 354L390 355L391 355L392 355L393 354L394 354L395 355L396 355L397 352L398 351L398 350L399 349L400 347L401 344L402 341L403 341L404 339L405 325L406 317L407 308L408 305L408 302L409 307L410 307L411 306L412 308L413 310L414 311L415 316L416 319L417 322L418 325L418 329L419 322L420 321L421 321L422 321L423 317L424 318L425 314L426 309L427 305L428 302L428 301L429 304L430 304L431 302L432 299L433 299L434 298L435 298L436 300L437 302L438 306L438 304L439 302L440 301L441 298L442 295L443 290L444 283L445 278L446 274L447 269L448 264L448 263L449 261L450 258L451 257L452 242L453 211L454 203L455 201L456 193L457 191L457 172L458 182L459 181L460 182L461 160L462 193L463 216L464 224L465 229L466 208L467 234L467 213L468 216L469 222L470 234L471 205L472 224L473 231L474 229L475 229L476 222L477 207L477 220L478 218L479 214L480 224L481 228L482 198L483 208L484 207L485 221L486 227L487 216L487 209L488 198L489 182L490 176L491 167L492 172L493 171L494 161L495 161L496 159L497 207L497 212L498 204L499 216L500 216L501 200L502 175L503 173L504 160L505 147L506 137L506 125L507 131L508 144L509 190L510 180L511 194L512 206L513 211L514 199L515 190L516 196L516 196L517 203L518 206L519 197L520 170L521 160L522 153L523 146L524 136L525 131L526 124L526 149L527 147L528 141L529 184L530 194L531 190L532 191L533 187L534 178L535 185L536 170L536 141L537 122L538 121L539 99L540 117L541 123L542 130L543 139L544 107L545 123L546 126L546 117L547 104L548 101L549 108L550 105L551 104L552 98L553 104L554 102L555 89L556 76L556 83L557 125L558 143L559 138L560 132L561 125L562 120L563 127L564 127L565 134L565 128L566 124L567 123L568 128L569 128L570 133L571 131L572 132L573 136L574 135L575 108L575 130L576 139L577 141L578 137L579 133L580 127L581 121L582 122L583 127L584 124L585 123L585 107L586 105L587 109L588 108L589 111L590 118L591 123L592 101L593 76L594 95L595 97L595 104L596 99L597 90L598 93L599 96L600 98L601 98L602 100L603 98L604 92L605 83L605 96" fill="none" stroke-width="1.5"></path></g><g class="key-England_5"><path stroke="#a652ba" stroke-linecap="round" d="M61 491L62 458L63 458L64 458L65 456L65 452L66 462L67 470L68 455L69 459L70 464L71 472L72 518L73 525L74 530L74 535L75 505L76 480L77 478L78 487L79 458L80 441L81 427L82 425L83 430L84 409L84 400L85 389L86 385L87 386L88 386L89 386L90 385L91 390L92 389L93 389L94 402L94 403L95 408L96 415L97 409L98 407L99 406L100 412L101 407L102 406L103 409L104 409L104 416L105 425L106 418L107 422L108 426L109 421L110 423L111 432L112 440L113 438L114 432L114 434L115 435L116 445L117 445L118 435L119 438L120 429L121 422L122 413L123 402L123 384L124 371L125 364L126 360L127 360L128 359L129 356L130 353L131 350L132 349L133 351L133 358L134 363L135 367L136 368L137 362L138 361L139 363L140 366L141 367L142 369L143 367L143 368L144 370L145 372L146 375L147 381L148 382L149 382L150 385L151 390L152 393L153 394L153 389L154 388L155 383L156 378L157 378L158 379L159 370L160 368L161 363L162 360L163 362L163 363L164 362L165 363L166 362L167 359L168 358L169 362L170 362L171 367L172 367L173 365L173 365L174 365L175 364L176 367L177 370L178 369L179 374L180 375L181 373L182 374L182 376L183 374L184 374L185 374L186 371L187 371L188 373L189 372L190 371L191 370L192 368L192 367L193 368L194 366L195 366L196 365L197 363L198 363L199 362L200 362L201 364L202 368L202 370L203 374L204 378L205 385L206 389L207 392L208 389L209 392L210 395L211 393L212 389L212 390L213 392L214 395L215 393L216 393L217 393L218 395L219 392L220 392L221 391L222 393L222 392L223 393L224 389L225 389L226 391L227 394L228 396L229 397L230 395L231 399L232 401L232 405L233 406L234 411L235 414L236 414L237 410L238 414L239 419L240 422L241 423L241 416L242 414L243 414L244 412L245 410L246 402L247 396L248 393L249 393L250 393L251 391L251 392L252 392L253 388L254 390L255 392L256 400L257 406L258 407L259 398L260 387L261 384L261 384L262 376L263 375L264 371L265 367L266 364L267 357L268 357L269 359L270 363L271 364L271 365L272 369L273 367L274 366L275 368L276 368L277 374L278 372L279 372L280 373L281 371L281 368L282 364L283 362L284 360L285 358L286 358L287 359L288 360L289 361L290 362L290 353L291 353L292 354L293 356L294 358L295 362L296 364L297 365L298 365L299 363L300 362L300 373L301 373L302 376L303 375L304 375L305 373L306 371L307 366L308 360L309 359L310 356L310 352L311 349L312 349L313 350L314 351L315 352L316 352L317 356L318 363L319 367L320 372L320 380L321 389L322 389L323 373L324 369L325 367L326 366L327 363L328 360L329 358L330 356L330 356L331 355L332 358L333 376L334 384L335 380L336 378L337 378L338 378L339 379L340 377L340 377L341 378L342 379L343 379L344 376L345 379L346 382L347 382L348 380L349 381L349 380L350 378L351 376L352 375L353 371L354 371L355 369L356 367L357 367L358 368L359 368L359 368L360 368L361 369L362 367L363 367L364 367L365 368L366 369L367 368L368 366L369 365L369 365L370 364L371 365L372 365L373 367L374 367L375 370L376 371L377 372L378 372L379 372L379 373L380 372L381 371L382 371L383 368L384 367L385 362L386 357L387 355L388 354L389 354L389 354L390 355L391 355L392 355L393 354L394 354L395 355L396 355L397 352L398 351L398 350L399 349L400 347L401 344L402 341L403 341L404 339L405 325L406 317L407 308L408 305L408 302L409 307L410 307L411 306L412 308L413 310L414 311L415 316L416 319L417 322L418 325L418 329L419 322L420 321L421 321L422 321L423 317L424 318L425 314L426 309L427 305L428 302L428 301L429 304L430 304L431 302L432 299L433 299L434 298L435 298L436 300L437 302L438 306L438 304L439 302L440 301L441 298L442 295L443 290L444 283L445 278L446 274L447 269L448 264L448 263L449 261L450 258L451 257L452 242L453 211L454 203L455 201L456 193L457 191L457 172L458 182L459 181L460 182L461 160L462 193L463 216L464 224L465 229L466 208L467 234L467 213L468 216L469 222L470 234L471 205L472 224L473 231L474 229L475 229L476 222L477 207L477 220L478 218L479 214L480 224L481 228L482 198L483 208L484 207L485 221L486 227L487 216L487 209L488 198L489 182L490 176L491 167L492 172L493 171L494 161L495 161L496 159L497 207L497 212L498 204L499 216L500 216L501 200L502 175L503 173L504 160L505 147L506 137L506 125L507 131L508 144L509 190L510 180L511 194L512 206L513 211L514 199L515 190L516 196L516 196L517 203L518 206L519 197L520 170L521 160L522 153L523 146L524 136L525 131L526 124L526 149L527 147L528 141L529 184L530 194L531 190L532 191L533 187L534 178L535 185L536 170L536 141L537 122L538 121L539 99L540 117L541 123L542 130L543 139L544 107L545 123L546 126L546 117L547 104L548 101L549 108L550 105L551 104L552 98L553 104L554 102L555 89L556 76L556 83L557 125L558 143L559 138L560 132L561 125L562 120L563 127L564 127L565 134L565 128L566 124L567 123L568 128L569 128L570 133L571 131L572 132L573 136L574 135L575 108L575 130L576 139L577 141L578 137L579 133L580 127L581 121L582 122L583 127L584 124L585 123L585 107L586 105L587 109L588 108L589 111L590 118L591 123L592 101L593 76L594 95L595 97L595 104L596 99L597 90L598 93L599 96L600 98L601 98L602 100L603 98L604 92L605 83L605 96" fill="none" stroke-width="1.5"></path></g><g class="key-England_6"><path stroke="#ffd53e" stroke-linecap="round" d="M61 276L62 276L63 275L64 275L65 274L65 274L66 274L67 273L68 273L69 272L70 272L71 271L72 270L73 270L74 269L74 268L75 268L76 267L77 267L78 266L79 265L80 266L81 267L82 268L83 269L84 270L84 271L85 271L86 272L87 273L88 274L89 274L90 273L91 273L92 272L93 272L94 271L94 271L95 270L96 270L97 269L98 269L99 268L100 268L101 267L102 267L103 267L104 267L104 268L105 268L106 268L107 269L108 270L109 270L110 271L111 272L112 271L113 271L114 271L114 270L115 270L116 270L117 269L118 269L119 269L120 268L121 268L122 268L123 267L123 267L124 267L125 266L126 266L127 266L128 265L129 265L130 265L131 264L132 264L133 275L133 287L134 298L135 298L136 298L137 299L138 299L139 299L140 299L141 299L142 299L143 299L143 299L144 300L145 300L146 300L147 300L148 300L149 300L150 300L151 300L152 301L153 301L153 301L154 301L155 301L156 301L157 301L158 301L159 302L160 302L161 303L162 303L163 304L163 304L164 305L165 305L166 306L167 306L168 307L169 307L170 308L171 308L172 309L173 309L173 310L174 310L175 311L176 311L177 312L178 312L179 312L180 313L181 313L182 313L182 313L183 313L184 313L185 313L186 313L187 313L188 313L189 314L190 314L191 314L192 314L192 314L193 314L194 314L195 314L196 314L197 314L198 315L199 315L200 315L201 315L202 315L202 315L203 315L204 315L205 315L206 315L207 316L208 316L209 316L210 316L211 316L212 317L212 317L213 317L214 317L215 317L216 318L217 318L218 318L219 318L220 318L221 319L222 319L222 319L223 319L224 319L225 319L226 319L227 319L228 319L229 319L230 319L231 319L232 318L232 318L233 318L234 318L235 318L236 318L237 318L238 318L239 317L240 317L241 317L241 317L242 317L243 317L244 317L245 316L246 316L247 316L248 316L249 315L250 315L251 315L251 315L252 314L253 314L254 314L255 314L256 313L257 313L258 313L259 313L260 312L261 312L261 312L262 312L263 311L264 311L265 311L266 311L267 310L268 310L269 310L270 310L271 310L271 309L272 309L273 309L274 309L275 308L276 308L277 308L278 308L279 307L280 307L281 307L281 307L282 306L283 306L284 306L285 306L286 305L287 305L288 305L289 305L290 304L290 304L291 303L292 303L293 302L294 303L295 303L296 304L297 304L298 305L299 306L300 306L300 307L301 307L302 308L303 309L304 309L305 310L306 310L307 311L308 312L309 313L310 313L310 315L311 316L312 318L313 319L314 320L315 321L316 323L317 324L318 326L319 327L320 329L320 330L321 332L322 335L323 339L324 341L325 343L326 341L327 340L328 339L329 338L330 337L330 336L331 335L332 334L333 333L334 332L335 331L336 330L337 329L338 328L339 327L340 326L340 325L341 324L342 323L343 322L344 320L345 319L346 318L347 317L348 316L349 315L349 314L350 313L351 312L352 312L353 311L354 310L355 309L356 308L357 307L358 307L359 306L359 305L360 304L361 303L362 302L363 301L364 300L365 298L366 297L367 296L368 294L369 293L369 292L370 291L371 290L372 289L373 288L374 287L375 286L376 285L377 284L378 283L379 282L379 280L380 279L381 278L382 277L383 276L384 276L385 275L386 273L387 272L388 271L389 271L389 269L390 267L391 266L392 265L393 265L394 263L395 263L396 262L397 261L398 261L398 259L399 258L400 258L401 258L402 258L403 257L404 257L405 257L406 257L407 257L408 256L408 256L409 257L410 256L411 256L412 256L413 257L414 257L415 257L416 257L417 257L418 258L418 257L419 258L420 257L421 258L422 257L423 257L424 257L425 257L426 258L427 257L428 257L428 257L429 257L430 257L431 257L432 257L433 257L434 258L435 260L436 260L437 260L438 259L438 259L439 259L440 260L441 259L442 259L443 258L444 258L445 258L446 258L447 258L448 258L448 258L449 257L450 257L451 257L452 256L453 255L454 254L455 253L456 252L457 251L457 250L458 249L459 248L460 246L461 245L462 244L463 243L464 242L465 241L466 240L467 239L467 238L468 237L469 241L470 249L471 236L472 228L473 223L474 217L475 233L476 215L477 216L477 217L478 213L479 205L480 210L481 210L482 210L483 209L484 205L485 212L486 209L487 213L487 212L488 216L489 206L490 212L491 209L492 217L493 215L494 216L495 215L496 211L497 209L497 201L498 204L499 205L500 207L501 207L502 203L503 201L504 202L505 201L506 199L506 195L507 190L508 194L509 188L510 189L511 189L512 191L513 188L514 185L515 187L516 180L516 186L517 185L518 177L519 170L520 171L521 172L522 178L523 171L524 174L525 177L526 173L526 177L527 191L528 180L529 173L530 168L531 166L532 162L533 161L534 157L535 158L536 161L536 163L537 155L538 161L539 162L540 158L541 153L542 155L543 154L544 148L545 147L546 145L546 144L547 139L548 134L549 131L550 126L551 125L552 123L553 125L554 125L555 124L556 123L556 125L557 128L558 126L559 124L560 121L561 119L562 116L563 116L564 114L565 115L565 117L566 117L567 114L568 113L569 113L570 114L571 114L572 112L573 110L574 110L575 113L575 114L576 114L577 116L578 115L579 114L580 113L581 107L582 106L583 102L584 94L585 103L585 98L586 95L587 91L588 93L589 89L590 89L591 95L592 91L593 92L594 90L595 85L595 83L596 84L597 88L598 82L599 82L600 84L601 83L602 80L603 76L604 76L605 78L605 75" fill="none" stroke-width="1.5"></path></g><g class="key-England_7"><path stroke="#ca2628" stroke-linecap="round" d="M61 267L62 267L63 267L64 266L65 266L65 266L66 266L67 266L68 266L69 266L70 266L71 265L72 265L73 265L74 264L74 264L75 263L76 263L77 263L78 262L79 262L80 262L81 262L82 262L83 262L84 262L84 262L85 262L86 262L87 262L88 262L89 262L90 262L91 262L92 262L93 262L94 263L94 263L95 263L96 263L97 263L98 263L99 263L100 263L101 263L102 263L103 264L104 264L104 265L105 266L106 266L107 267L108 268L109 269L110 269L111 270L112 270L113 269L114 269L114 268L115 268L116 268L117 267L118 267L119 267L120 266L121 266L122 265L123 265L123 265L124 264L125 264L126 264L127 263L128 263L129 262L130 262L131 262L132 261L133 273L133 284L134 295L135 295L136 296L137 296L138 296L139 296L140 296L141 296L142 296L143 296L143 296L144 296L145 296L146 296L147 297L148 297L149 297L150 297L151 297L152 297L153 297L153 297L154 297L155 297L156 297L157 297L158 298L159 298L160 298L161 299L162 299L163 300L163 300L164 301L165 301L166 302L167 302L168 302L169 303L170 303L171 304L172 304L173 305L173 305L174 305L175 306L176 306L177 307L178 307L179 308L180 308L181 308L182 308L182 308L183 308L184 308L185 308L186 308L187 308L188 308L189 308L190 308L191 308L192 308L192 309L193 309L194 309L195 309L196 309L197 309L198 309L199 309L200 309L201 309L202 309L202 309L203 309L204 309L205 309L206 309L207 310L208 310L209 310L210 310L211 310L212 310L212 311L213 311L214 311L215 311L216 311L217 311L218 312L219 312L220 312L221 312L222 312L222 312L223 312L224 313L225 312L226 312L227 312L228 312L229 312L230 312L231 312L232 311L232 311L233 311L234 311L235 311L236 311L237 310L238 310L239 310L240 310L241 310L241 310L242 309L243 309L244 309L245 309L246 309L247 309L248 308L249 308L250 308L251 308L251 308L252 308L253 307L254 307L255 307L256 307L257 307L258 307L259 306L260 306L261 306L261 306L262 306L263 306L264 306L265 305L266 305L267 305L268 305L269 305L270 305L271 304L271 304L272 304L273 304L274 304L275 304L276 303L277 303L278 303L279 303L280 303L281 303L281 302L282 302L283 302L284 302L285 302L286 302L287 301L288 301L289 301L290 301L290 300L291 300L292 299L293 299L294 298L295 298L296 297L297 297L298 296L299 295L300 295L300 294L301 294L302 293L303 293L304 292L305 291L306 291L307 291L308 290L309 290L310 289L310 289L311 289L312 289L313 288L314 288L315 287L316 286L317 286L318 285L319 285L320 285L320 284L321 284L322 285L323 287L324 287L325 287L326 286L327 286L328 285L329 285L330 284L330 284L331 283L332 283L333 282L334 282L335 282L336 281L337 281L338 280L339 280L340 279L340 279L341 278L342 277L343 277L344 276L345 276L346 275L347 274L348 274L349 274L349 274L350 273L351 272L352 272L353 272L354 272L355 272L356 271L357 271L358 271L359 271L359 271L360 270L361 269L362 269L363 269L364 269L365 268L366 267L367 267L368 266L369 266L369 266L370 265L371 265L372 265L373 265L374 264L375 264L376 264L377 264L378 263L379 263L379 262L380 261L381 261L382 261L383 261L384 262L385 262L386 260L387 260L388 260L389 260L389 259L390 258L391 257L392 257L393 258L394 257L395 257L396 257L397 257L398 258L398 257L399 256L400 257L401 257L402 257L403 256L404 256L405 256L406 256L407 256L408 255L408 255L409 256L410 255L411 255L412 255L413 256L414 256L415 257L416 256L417 257L418 257L418 257L419 257L420 257L421 258L422 257L423 257L424 257L425 257L426 258L427 257L428 257L428 257L429 257L430 257L431 257L432 257L433 257L434 258L435 260L436 260L437 260L438 259L438 259L439 259L440 260L441 259L442 259L443 258L444 258L445 258L446 258L447 258L448 258L448 258L449 257L450 257L451 257L452 257L453 256L454 256L455 256L456 255L457 255L457 255L458 255L459 255L460 255L461 255L462 255L463 255L464 254L465 254L466 254L467 254L467 253L468 253L469 253L470 253L471 253L472 253L473 253L474 253L475 252L476 252L477 252L477 253L478 254L479 254L480 254L481 253L482 253L483 252L484 252L485 252L486 251L487 251L487 251L488 250L489 251L490 251L491 251L492 250L493 250L494 250L495 249L496 249L497 249L497 248L498 248L499 248L500 247L501 247L502 246L503 246L504 246L505 246L506 246L506 245L507 245L508 245L509 245L510 244L511 244L512 244L513 244L514 243L515 243L516 243L516 242L517 242L518 242L519 241L520 240L521 240L522 239L523 239L524 239L525 238L526 238L526 237L527 237L528 236L529 236L530 235L531 235L532 234L533 233L534 233L535 232L536 231L536 231L537 230L538 230L539 229L540 228L541 228L542 227L543 227L544 226L545 226L546 225L546 224L547 223L548 223L549 222L550 221L551 221L552 220L553 219L554 218L555 217L556 216L556 215L557 214L558 214L559 213L560 212L561 211L562 210L563 209L564 208L565 208L565 207L566 206L567 205L568 205L569 204L570 203L571 203L572 202L573 201L574 200L575 200L575 199L576 198L577 198L578 197L579 196L580 196L581 195L582 194L583 194L584 193L585 192L585 192L586 191L587 190L588 190L589 189L590 188L591 188L592 187L593 186L594 186L595 185L595 184L596 184L597 183L598 182L599 182L600 181L601 180L602 179L603 179L604 178L605 177L605 176" fill="none" stroke-width="1.5"></path></g><g class="key-England_8"><path stroke="#e6332e" stroke-linecap="round" d="M61 434L62 434L63 432L64 434L65 434L65 430L66 433L67 432L68 431L69 436L70 435L71 431L72 433L73 434L74 426L74 430L75 434L76 432L77 429L78 428L79 425L80 428L81 430L82 433L83 437L84 438L84 439L85 432L86 424L87 431L88 419L89 416L90 435L91 416L92 418L93 404L94 409L94 407L95 411L96 407L97 412L98 409L99 408L100 409L101 427L102 416L103 431L104 421L104 418L105 424L106 414L107 421L108 433L109 418L110 429L111 422L112 431L113 422L114 432L114 417L115 420L116 416L117 412L118 419L119 414L120 415L121 431L122 446L123 424L123 408L124 427L125 428L126 421L127 433L128 426L129 426L130 425L131 420L132 416L133 423L133 421L134 420L135 432L136 439L137 410L138 421L139 423L140 410L141 413L142 416L143 412L143 421L144 408L145 419L146 428L147 411L148 414L149 413L150 424L151 419L152 428L153 418L153 426L154 421L155 427L156 422L157 428L158 438L159 419L160 437L161 430L162 429L163 425L163 433L164 416L165 419L166 422L167 421L168 426L169 425L170 413L171 424L172 419L173 421L173 420L174 418L175 417L176 423L177 418L178 417L179 423L180 423L181 412L182 424L182 416L183 428L184 415L185 419L186 422L187 413L188 415L189 424L190 428L191 416L192 424L192 414L193 421L194 417L195 417L196 416L197 420L198 421L199 417L200 400L201 407L202 405L202 411L203 411L204 411L205 408L206 414L207 411L208 416L209 416L210 417L211 413L212 436L212 424L213 411L214 413L215 397L216 408L217 410L218 400L219 403L220 410L221 404L222 411L222 401L223 427L224 414L225 417L226 422L227 414L228 427L229 420L230 411L231 431L232 415L232 419L233 436L234 423L235 420L236 429L237 420L238 441L239 422L240 413L241 415L241 412L242 424L243 435L244 417L245 421L246 411L247 422L248 417L249 417L250 416L251 396L251 403L252 398L253 398L254 422L255 409L256 413L257 402L258 420L259 409L260 405L261 401L261 407L262 407L263 405L264 401L265 425L266 427L267 402L268 398L269 404L270 395L271 395L271 393L272 393L273 394L274 393L275 395L276 394L277 392L278 392L279 392L280 392L281 394L281 393L282 392L283 392L284 392L285 392L286 392L287 390L288 390L289 391L290 392L290 392L291 391L292 392L293 391L294 390L295 391L296 391L297 390L298 391L299 390L300 390L300 388L301 389L302 389L303 388L304 389L305 386L306 386L307 387L308 385L309 387L310 383L310 382L311 379L312 377L313 376L314 376L315 375L316 380L317 389L318 385L319 386L320 385L320 390L321 387L322 381L323 383L324 381L325 385L326 387L327 387L328 385L329 381L330 373L330 374L331 373L332 372L333 376L334 377L335 379L336 371L337 372L338 365L339 364L340 368L340 363L341 364L342 364L343 365L344 369L345 364L346 364L347 367L348 365L349 363L349 358L350 361L351 357L352 355L353 351L354 349L355 354L356 353L357 354L358 355L359 349L359 343L360 343L361 341L362 336L363 334L364 330L365 332L366 328L367 332L368 333L369 329L369 327L370 329L371 332L372 330L373 328L374 328L375 332L376 327L377 325L378 330L379 325L379 323L380 328L381 326L382 321L383 320L384 321L385 321L386 312L387 323L388 324L389 324L389 315L390 319L391 316L392 311L393 309L394 310L395 307L396 308L397 308L398 312L398 307L399 303L400 304L401 308L402 307L403 305L404 304L405 304L406 305L407 302L408 295L408 290L409 290L410 287L411 290L412 292L413 292L414 301L415 296L416 293L417 293L418 284L418 285L419 284L420 278L421 277L422 280L423 279L424 280L425 282L426 281L427 279L428 281L428 279L429 271L430 273L431 271L432 274L433 269L434 273L435 271L436 268L437 275L438 270L438 272L439 269L440 265L441 265L442 262L443 261L444 258L445 264L446 258L447 259L448 261L448 261L449 259L450 260L451 257L452 254L453 260L454 261L455 254L456 257L457 262L457 259L458 252L459 257L460 261L461 260L462 259L463 257L464 253L465 254L466 253L467 250L467 250L468 250L469 250L470 251L471 249L472 249L473 249L474 248L475 248L476 249L477 248L477 250L478 248L479 249L480 248L481 245L482 246L483 245L484 245L485 247L486 244L487 245L487 247L488 244L489 245L490 244L491 246L492 244L493 244L494 243L495 240L496 241L497 239L497 238L498 237L499 236L500 238L501 236L502 236L503 238L504 237L505 234L506 232L506 233L507 233L508 230L509 229L510 230L511 227L512 228L513 228L514 224L515 224L516 224L516 224L517 226L518 224L519 227L520 224L521 222L522 226L523 226L524 224L525 226L526 225L526 222L527 220L528 218L529 216L530 213L531 213L532 211L533 209L534 207L535 205L536 205L536 204L537 203L538 203L539 205L540 199L541 196L542 194L543 195L544 193L545 196L546 193L546 192L547 193L548 191L549 193L550 188L551 182L552 188L553 189L554 186L555 184L556 177L556 182L557 181L558 176L559 180L560 178L561 177L562 174L563 171L564 166L565 165L565 168L566 164L567 161L568 161L569 159L570 158L571 159L572 157L573 154L574 152L575 148L575 151L576 145L577 144L578 141L579 140L580 142L581 137L582 133L583 128L584 129L585 128L585 124L586 120L587 119L588 115L589 114L590 109L591 108L592 110L593 104L594 102L595 104L595 100L596 96L597 97L598 100L599 96L600 94L601 91L602 87L603 87L604 84L605 83L605 80" fill="none" stroke-width="1.5"></path></g></g></g></g><g style="fill: #777;" class="SourcesFooter"><g style="fill: #777;" class="clickable"><text font-size="12.60" x="15.0" y="581.6"><tspan x="15" y="581.58">Source: Output of key services sectors in England - using Bank of England (2017)</tspan></text></g><text font-size="12.60" x="549.4" y="581.6"><tspan x="549.358" y="581.58"><a target='_blank' style='fill: #777;' href='https://ourworldindata.org/economic-growth'>OurWorldInData.org/economic-growth</a>  <a style="fill: #777;" href="http://creativecommons.org/licenses/by-sa/4.0/deed.en_US" target="_blank">CC BY-SA</a></tspan></text></g></g></svg>