<svg xmlns="http://www.w3.org/2000/svg" version="1.1" style="font-family: 'Helvetica Neue', Helvetica, Arial, sans-serif; font-size: 18px; background-color: white; text-rendering: optimizeLegibility; -webkit-font-smoothing: antialiased;" width="850" height="600"><g class="ChartTab"><g class="HeaderView"><g opacity="0.8" transform="translate(778, 15) scale(0.27)"><a xmlns:xlink="http://www.w3.org/1999/xlink" xlink:href="https://ourworldindata.org" target="_blank"><g><rect x="0" y="0" fill="#1B2543" width="211.2" height="130.1"/><rect x="0" y="112.2" fill="#E63912" width="211.2" height="17.9"/><g><rect x="1.2" y="12.3" fill="none" width="210.2" height="99.2"/><path fill="#FFFFFF" d="M37.8,32.2c0,12.7-7.7,19.4-17.1,19.4c-9.7,0-16.6-7.5-16.6-18.7c0-11.7,7.3-19.3,17.1-19.3 C31.3,13.7,37.8,21.3,37.8,32.2z M9.2,32.8c0,7.9,4.3,14.9,11.8,14.9c7.5,0,11.8-6.9,11.8-15.3c0-7.3-3.8-14.9-11.8-14.9 C13.1,17.5,9.2,24.8,9.2,32.8z"/><path fill="#FFFFFF" d="M62.7,43.8c0,2.7,0.1,5.1,0.2,7.2h-4.3l-0.3-4.3h-0.1c-1.3,2.1-4,4.9-8.8,4.9c-4.2,0-9.1-2.3-9.1-11.6 V24.6h4.8v14.6c0,5,1.5,8.4,5.9,8.4c3.2,0,5.5-2.2,6.3-4.4c0.3-0.7,0.4-1.6,0.4-2.5V24.6h4.8V43.8z"/><path fill="#FFFFFF" d="M67.3,32.8c0-3.1-0.1-5.8-0.2-8.2h4.2l0.2,5.2h0.2c1.2-3.5,4.1-5.8,7.3-5.8c0.5,0,0.9,0.1,1.4,0.2v4.5 c-0.5-0.1-1-0.2-1.6-0.2c-3.4,0-5.8,2.6-6.5,6.2c-0.1,0.7-0.2,1.4-0.2,2.2V51h-4.8V32.8z"/><path fill="#FFFFFF" d="M95.4,51l-9.4-36.8h5l4.4,18.6c1.1,4.6,2.1,9.2,2.7,12.7h0.1c0.6-3.7,1.8-8,3-12.8l4.9-18.5h5l4.5,18.7 c1,4.4,2,8.7,2.6,12.6h0.1c0.8-4,1.8-8.1,3-12.7l4.9-18.5h4.9L120.6,51h-5L111,31.9c-1.1-4.7-1.9-8.3-2.4-12h-0.1 c-0.7,3.7-1.5,7.3-2.8,12L100.4,51H95.4z"/><path fill="#FFFFFF" d="M154.9,37.6c0,9.8-6.8,14-13.2,14c-7.2,0-12.7-5.2-12.7-13.6c0-8.8,5.8-14,13.1-14 C149.8,24,154.9,29.5,154.9,37.6z M133.9,37.9c0,5.8,3.3,10.1,8,10.1c4.6,0,8-4.3,8-10.3c0-4.5-2.2-10.1-7.9-10.1 C136.3,27.6,133.9,32.8,133.9,37.9z"/><path fill="#FFFFFF" d="M158.2,32.8c0-3.1-0.1-5.8-0.2-8.2h4.2l0.2,5.2h0.2c1.2-3.5,4.1-5.8,7.3-5.8c0.5,0,0.9,0.1,1.4,0.2v4.5 c-0.5-0.1-1-0.2-1.6-0.2c-3.4,0-5.8,2.6-6.5,6.2c-0.1,0.7-0.2,1.4-0.2,2.2V51h-4.8V32.8z"/><path fill="#FFFFFF" d="M173.5,12.3h4.8V51h-4.8V12.3z"/><path fill="#FFFFFF" d="M206.5,12.3v31.9c0,2.3,0.1,5,0.2,6.8h-4.3l-0.2-4.6H202c-1.5,2.9-4.7,5.2-9,5.2 c-6.4,0-11.3-5.4-11.3-13.4c-0.1-8.8,5.4-14.2,11.9-14.2c4,0,6.8,1.9,8,4h0.1V12.3H206.5z M201.7,35.4c0-0.6-0.1-1.4-0.2-2 c-0.7-3.1-3.3-5.6-6.9-5.6c-5,0-7.9,4.4-7.9,10.2c0,5.3,2.6,9.8,7.8,9.8c3.2,0,6.2-2.1,7.1-5.7c0.2-0.7,0.2-1.3,0.2-2.1V35.4z"/><path fill="#FFFFFF" d="M42.8,64c0.1,1.6-1.1,2.9-3.1,2.9c-1.7,0-2.9-1.3-2.9-2.9c0-1.7,1.3-3,3-3C41.7,61,42.8,62.3,42.8,64z M37.4,97.8V71.4h4.8v26.4H37.4z"/><path fill="#FFFFFF" d="M47.5,78.6c0-2.7-0.1-5-0.2-7.1h4.3l0.3,4.4h0.1c1.3-2.5,4.4-5,8.8-5c3.7,0,9.4,2.2,9.4,11.2v15.8h-4.8 V82.6c0-4.3-1.6-7.8-6.1-7.8c-3.2,0-5.6,2.2-6.5,4.9c-0.2,0.6-0.3,1.4-0.3,2.2v15.9h-4.8V78.6z"/><path fill="#FFFFFF" d="M84,61.6c2.9-0.4,6.3-0.8,10.1-0.8c6.8,0,11.7,1.6,14.9,4.6c3.3,3,5.2,7.3,5.2,13.2c0,6-1.9,10.9-5.3,14.3 c-3.4,3.4-9.1,5.3-16.3,5.3c-3.4,0-6.2-0.2-8.6-0.4V61.6z M88.8,94.1c1.2,0.2,3,0.3,4.8,0.3c10.2,0,15.7-5.7,15.7-15.6 c0.1-8.7-4.9-14.2-14.9-14.2c-2.5,0-4.3,0.2-5.6,0.5V94.1z"/><path fill="#FFFFFF" d="M132.1,97.8l-0.4-3.3h-0.2c-1.5,2.1-4.3,3.9-8.1,3.9c-5.4,0-8.1-3.8-8.1-7.6c0-6.4,5.7-9.9,15.9-9.8v-0.5 c0-2.2-0.6-6.1-6-6.1c-2.5,0-5,0.8-6.9,2l-1.1-3.2c2.2-1.4,5.4-2.3,8.7-2.3c8.1,0,10.1,5.5,10.1,10.8v9.9c0,2.3,0.1,4.5,0.4,6.3 H132.1z M131.4,84.4c-5.3-0.1-11.2,0.8-11.2,5.9c0,3.1,2.1,4.6,4.5,4.6c3.4,0,5.6-2.2,6.4-4.4c0.2-0.5,0.3-1,0.3-1.5V84.4z"/><path fill="#FFFFFF" d="M146.6,63.9v7.6h6.9v3.7h-6.9v14.2c0,3.3,0.9,5.1,3.6,5.1c1.3,0,2.2-0.2,2.8-0.3l0.2,3.6 c-0.9,0.4-2.4,0.7-4.3,0.7c-2.2,0-4-0.7-5.2-2c-1.4-1.4-1.9-3.8-1.9-6.9V75.1h-4.1v-3.7h4.1v-6.3L146.6,63.9z"/><path fill="#FFFFFF" d="M171.4,97.8l-0.4-3.3h-0.2c-1.5,2.1-4.3,3.9-8.1,3.9c-5.4,0-8.1-3.8-8.1-7.6c0-6.4,5.7-9.9,15.9-9.8v-0.5 c0-2.2-0.6-6.1-6-6.1c-2.5,0-5,0.8-6.9,2l-1.1-3.2c2.2-1.4,5.4-2.3,8.7-2.3c8.1,0,10.1,5.5,10.1,10.8v9.9c0,2.3,0.1,4.5,0.4,6.3 H171.4z M170.7,84.4c-5.3-0.1-11.2,0.8-11.2,5.9c0,3.1,2.1,4.6,4.5,4.6c3.4,0,5.6-2.2,6.4-4.4c0.2-0.5,0.3-1,0.3-1.5V84.4z"/></g></g></a></g><a href="https://ourworldindata.org/grapher/participation-time-in-leisure-social-and-associative-life-per-day" target="_blank"><text font-size="25.20" x="15.0" y="35.2" fill="#555"><tspan x="15" y="35.160000000000004">Participation time in leisure, social, and associative life per day</tspan></text></a><text font-size="14.40" x="15.0" y="53.7" fill="#666"><tspan x="15" y="53.72">Average minutes spent on leisure, social, and associative life, per day, by individuals engaging in leisure activities.</tspan><tspan x="15" y="69.56">Estimates come from time use surveys and include both weekdays and weekends. </tspan></text></g><g><g class="LabelledSlopes"><rect x="15" y="92.1" width="700" height="479.4" fill="rgba(0,0,0,0)" opacity="0"></rect><g class="gridlines"><line x1="225.916" y1="521.5" x2="504.08400000000006" y2="521.5" stroke="#eee" stroke-dasharray="3,2"></line><line x1="225.916" y1="470.64199320985205" x2="504.08400000000006" y2="470.64199320985205" stroke="#eee" stroke-dasharray="3,2"></line><line x1="225.916" y1="419.7839864197041" x2="504.08400000000006" y2="419.7839864197041" stroke="#eee" stroke-dasharray="3,2"></line><line x1="225.916" y1="368.9259796295562" x2="504.08400000000006" y2="368.9259796295562" stroke="#eee" stroke-dasharray="3,2"></line><line x1="225.916" y1="318.0679728394082" x2="504.08400000000006" y2="318.0679728394082" stroke="#eee" stroke-dasharray="3,2"></line><line x1="225.916" y1="267.2099660492603" x2="504.08400000000006" y2="267.2099660492603" stroke="#eee" stroke-dasharray="3,2"></line><line x1="225.916" y1="216.35195925911233" x2="504.08400000000006" y2="216.35195925911233" stroke="#eee" stroke-dasharray="3,2"></line><line x1="225.916" y1="165.49395246896438" x2="504.08400000000006" y2="165.49395246896438" stroke="#eee" stroke-dasharray="3,2"></line><line x1="225.916" y1="114.63594567881643" x2="504.08400000000006" y2="114.63594567881643" stroke="#eee" stroke-dasharray="3,2"></line></g><g font-size="0.8em" class="axis"><text x="15" y="521.5" fill="#666" dominant-baseline="middle" text-anchor="start">180</text><text x="15" y="470.64199320985205" fill="#666" dominant-baseline="middle" text-anchor="start">190</text><text x="15" y="419.7839864197041" fill="#666" dominant-baseline="middle" text-anchor="start">200</text><text x="15" y="368.9259796295562" fill="#666" dominant-baseline="middle" text-anchor="start">210</text><text x="15" y="318.0679728394082" fill="#666" dominant-baseline="middle" text-anchor="start">220</text><text x="15" y="267.2099660492603" fill="#666" dominant-baseline="middle" text-anchor="start">230</text><text x="15" y="216.35195925911233" fill="#666" dominant-baseline="middle" text-anchor="start">240</text><text x="15" y="165.49395246896438" fill="#666" dominant-baseline="middle" text-anchor="start">250</text><text x="15" y="114.63594567881643" fill="#666" dominant-baseline="middle" text-anchor="start">260</text></g><g font-size="0.8em" class="axis"><text x="715" y="521.5" fill="#666" dominant-baseline="middle" text-anchor="end">180</text><text x="715" y="470.64199320985205" fill="#666" dominant-baseline="middle" text-anchor="end">190</text><text x="715" y="419.7839864197041" fill="#666" dominant-baseline="middle" text-anchor="end">200</text><text x="715" y="368.9259796295562" fill="#666" dominant-baseline="middle" text-anchor="end">210</text><text x="715" y="318.0679728394082" fill="#666" dominant-baseline="middle" text-anchor="end">220</text><text x="715" y="267.2099660492603" fill="#666" dominant-baseline="middle" text-anchor="end">230</text><text x="715" y="216.35195925911233" fill="#666" dominant-baseline="middle" text-anchor="end">240</text><text x="715" y="165.49395246896438" fill="#666" dominant-baseline="middle" text-anchor="end">250</text><text x="715" y="114.63594567881643" fill="#666" dominant-baseline="middle" text-anchor="end">260</text></g><line x1="225.916" y1="521.5" x2="225.916" y2="92.1" stroke="#333"></line><line x1="504.08400000000006" y1="521.5" x2="504.08400000000006" y2="92.1" stroke="#333"></line><text x="225.916" y="545.9" text-anchor="middle" fill="#666" font-size="18">2000</text><text x="504.08400000000006" y="545.9" text-anchor="middle" fill="#666" font-size="18">2010</text><g class="slopes"><g class="slope"><text font-size="11.70" x="177.9" y="365.2" text-anchor="end" fill="#333"><tspan x="177.88" y="365.2302137955008">Estonia</tspan></text><text x="217.916" y="365.2302137955008" text-anchor="end" font-size="11.700000000000001" fill="#333">211.42</text><circle cx="225.916" cy="361.7202137955008" r="2" fill="#ffd336" opacity="0.5"></circle><line x1="225.916" y1="361.7202137955008" x2="504.08400000000006" y2="275.59263701844634" stroke="#ffd336" stroke-width="1" opacity="0.5"></line><circle cx="504.08400000000006" cy="275.59263701844634" r="2" fill="#ffd336" opacity="0.5"></circle><text x="512.0840000000001" y="279.10263701844633" dominant-baseline="middle" font-size="11.700000000000001" fill="#333">228.35</text><text font-size="11.70" x="552.1" y="279.1" fill="#333"><tspan x="552.1200000000001" y="279.10263701844633">Estonia</tspan></text></g><g class="slope"><circle cx="225.916" cy="174.64895312926564" r="2" fill="#ffd336" opacity="0.5"></circle><line x1="225.916" y1="174.64895312926564" x2="504.08400000000006" y2="92.10000000000002" stroke="#ffd336" stroke-width="1.0093482174082211" opacity="0.5"></line><circle cx="504.08400000000006" cy="92.10000000000002" r="2" fill="#ffd336" opacity="0.5"></circle><text x="512.0840000000001" y="95.61000000000003" dominant-baseline="middle" font-size="11.700000000000001" fill="#333">264.43</text><text font-size="11.70" x="552.1" y="95.6" fill="#333"><tspan x="552.1200000000001" y="95.61000000000003">Finland</tspan></text></g><g class="slope"><text font-size="11.70" x="177.9" y="114.8" text-anchor="end" fill="#333"><tspan x="177.88" y="114.7694317500118">Norway</tspan></text><text x="217.916" y="114.7694317500118" text-anchor="end" font-size="11.700000000000001" fill="#333">260.66</text><circle cx="225.916" cy="111.2594317500118" r="2" fill="#ffd336" opacity="0.5"></circle><line x1="225.916" y1="111.2594317500118" x2="504.08400000000006" y2="116.54729129000367" stroke="#ffd336" stroke-width="1.0235414297977221" opacity="0.5"></line><circle cx="504.08400000000006" cy="116.54729129000367" r="2" fill="#ffd336" opacity="0.5"></circle><text x="512.0840000000001" y="120.05729129000368" dominant-baseline="middle" font-size="11.700000000000001" fill="#333">259.62</text><text font-size="11.70" x="552.1" y="120.1" fill="#333"><tspan x="552.1200000000001" y="120.05729129000368">Norway</tspan></text></g><g class="slope"><circle cx="225.916" cy="182.4466553043515" r="2" fill="#ffd336" opacity="0.5"></circle><line x1="225.916" y1="182.4466553043515" x2="504.08400000000006" y2="225.7141554390767" stroke="#ffd336" stroke-width="1.2364396156402389" opacity="0.5"></line><circle cx="504.08400000000006" cy="225.7141554390767" r="2" fill="#ffd336" opacity="0.5"></circle><text x="512.0840000000001" y="229.2241554390767" dominant-baseline="middle" font-size="11.700000000000001" fill="#333">238.16</text><text font-size="11.70" x="552.1" y="229.2" fill="#333"><tspan x="552.1200000000001" y="229.2241554390767">Belgium</tspan></text></g><g class="slope"><text font-size="11.70" x="177.9" y="311.7" text-anchor="end" fill="#333"><tspan x="177.88" y="311.72097911138246">Poland</tspan></text><text x="217.916" y="311.72097911138246" text-anchor="end" font-size="11.700000000000001" fill="#333">221.94</text><circle cx="225.916" cy="308.21097911138247" r="2" fill="#ffd336" opacity="0.5"></circle><line x1="225.916" y1="308.21097911138247" x2="504.08400000000006" y2="338.2328673836612" stroke="#ffd336" stroke-width="1.8041681112202832" opacity="0.5"></line><circle cx="504.08400000000006" cy="338.2328673836612" r="2" fill="#ffd336" opacity="0.5"></circle><text x="512.0840000000001" y="341.7428673836612" dominant-baseline="middle" font-size="11.700000000000001" fill="#333">216.04</text><text font-size="11.70" x="552.1" y="341.7" fill="#333"><tspan x="552.1200000000001" y="341.7428673836612">Poland</tspan></text></g><g class="slope"><text font-size="11.70" x="177.9" y="246.0" text-anchor="end" fill="#333"><tspan x="177.88" y="246.0220465017947">United Kingdom</tspan></text><text x="217.916" y="246.0220465017947" text-anchor="end" font-size="11.700000000000001" fill="#333">234.86</text><circle cx="225.916" cy="242.5120465017947" r="2" fill="#ffd336" opacity="0.5"></circle><line x1="225.916" y1="242.5120465017947" x2="504.08400000000006" y2="255.01324971885379" stroke="#ffd336" stroke-width="1.9745728126935007" opacity="0.5"></line><circle cx="504.08400000000006" cy="255.01324971885379" r="2" fill="#ffd336" opacity="0.5"></circle><text x="512.0840000000001" y="258.52324971885383" dominant-baseline="middle" font-size="11.700000000000001" fill="#333">232.4</text><text font-size="11.70" x="545.6" y="258.5" fill="#333"><tspan x="545.5680000000001" y="258.52324971885383">United Kingdom</tspan></text></g><g class="slope"><text font-size="11.70" x="177.9" y="352.5" text-anchor="end" fill="#333"><tspan x="177.88" y="352.5085919770132">Spain</tspan></text><text x="217.916" y="352.5085919770132" text-anchor="end" font-size="11.700000000000001" fill="#333">213.92</text><circle cx="225.916" cy="348.99859197701323" r="2" fill="#ffd336" opacity="0.5"></circle><line x1="225.916" y1="348.99859197701323" x2="504.08400000000006" y2="297.0078756596351" stroke="#ffd336" stroke-width="2.1973200944094637" opacity="0.5"></line><circle cx="504.08400000000006" cy="297.0078756596351" r="2" fill="#ffd336" opacity="0.5"></circle><text x="512.0840000000001" y="300.5178756596351" dominant-baseline="middle" font-size="11.700000000000001" fill="#333">224.14</text><text font-size="11.70" x="552.1" y="300.5" fill="#333"><tspan x="552.1200000000001" y="300.5178756596351">Spain</tspan></text></g><g class="slope"><text font-size="11.70" x="177.9" y="440.2" text-anchor="end" fill="#333"><tspan x="177.88" y="440.1639941360505">Italy</tspan></text><text x="217.916" y="440.1639941360505" text-anchor="end" font-size="11.700000000000001" fill="#333">196.68</text><circle cx="225.916" cy="436.6539941360505" r="2" fill="#ffd336" opacity="0.5"></circle><line x1="225.916" y1="436.6539941360505" x2="504.08400000000006" y2="397.67392568974844" stroke="#ffd336" stroke-width="2.840272615653864" opacity="0.5"></line><circle cx="504.08400000000006" cy="397.67392568974844" r="2" fill="#ffd336" opacity="0.5"></circle><text x="512.0840000000001" y="401.18392568974843" dominant-baseline="middle" font-size="11.700000000000001" fill="#333">204.35</text><text font-size="11.70" x="552.1" y="401.2" fill="#333"><tspan x="552.1200000000001" y="401.18392568974843">Italy</tspan></text></g><g class="slope"><text font-size="11.70" x="177.9" y="191.5" text-anchor="end" fill="#333"><tspan x="177.88" y="191.47612220726592">Germany</tspan></text><text x="217.916" y="191.47612220726592" text-anchor="end" font-size="11.700000000000001" fill="#333">245.58</text><circle cx="225.916" cy="187.96612220726593" r="2" fill="#ffd336" opacity="0.5"></circle><line x1="225.916" y1="187.96612220726593" x2="504.08400000000006" y2="128.902837175616" stroke="#ffd336" stroke-width="3.081557226275383" opacity="0.5"></line><circle cx="504.08400000000006" cy="128.902837175616" r="2" fill="#ffd336" opacity="0.5"></circle><text x="512.0840000000001" y="132.412837175616" dominant-baseline="middle" font-size="11.700000000000001" fill="#333">257.19</text><text font-size="11.70" x="552.1" y="132.4" fill="#333"><tspan x="552.1200000000001" y="132.412837175616">Germany</tspan></text></g><g class="slope"><text font-size="11.70" x="177.9" y="454.1" text-anchor="end" fill="#333"><tspan x="177.88" y="454.10483495131837">France</tspan></text><text x="217.916" y="454.10483495131837" text-anchor="end" font-size="11.700000000000001" fill="#333">193.94</text><circle cx="225.916" cy="450.5948349513184" r="2" fill="#ffd336" opacity="0.5"></circle><line x1="225.916" y1="450.5948349513184" x2="504.08400000000006" y2="325.36528308568586" stroke="#ffd336" stroke-width="4" opacity="0.5"></line><circle cx="504.08400000000006" cy="325.36528308568586" r="2" fill="#ffd336" opacity="0.5"></circle><text x="512.0840000000001" y="328.87528308568585" dominant-baseline="middle" font-size="11.700000000000001" fill="#333">218.57</text><text font-size="11.70" x="552.1" y="328.9" fill="#333"><tspan x="552.1200000000001" y="328.87528308568585">France</tspan></text></g></g></g><g style="cursor: pointer;" class="ScatterColorLegend clickable"><g class="legendMark"><rect x="735" y="89.6" width="51.824" height="17.6" fill="#fff" opacity="0"></rect>,<rect x="735" y="95.1" width="6" height="6" fill="#ffd336"></rect>,<text font-size="12.60" x="746.0" y="102.2"><tspan x="746" y="102.17999999999999">Europe</tspan></text></g></g></g><g style="fill: #777;" class="SourcesFooter"><g style="fill: #777;" class="clickable"><text font-size="12.60" x="15.0" y="581.6"><tspan x="15" y="581.58">Source: Eurostat</tspan></text></g><text font-size="12.60" x="775.4" y="581.6"><tspan x="775.402" y="581.58"><a style="fill: #777;" class="cclogo" href="http://creativecommons.org/licenses/by-sa/4.0/deed.en_US" target="_blank">CC BY-SA</a></tspan></text></g></g></svg>