<svg xmlns="http://www.w3.org/2000/svg" version="1.1" style="font-family: 'Helvetica Neue', Helvetica, Arial, sans-serif; font-size: 18px; background-color: white; text-rendering: optimizeLegibility; -webkit-font-smoothing: antialiased;" width="850" height="600"><g class="ChartTab"><g class="HeaderView"><g opacity="0.8" transform="translate(778, 15) scale(0.27)"><a xmlns:xlink="http://www.w3.org/1999/xlink" xlink:href="https://ourworldindata.org" target="_blank"><g><rect x="0" y="0" fill="#1B2543" width="211.2" height="130.1"/><rect x="0" y="112.2" fill="#E63912" width="211.2" height="17.9"/><g><rect x="1.2" y="12.3" fill="none" width="210.2" height="99.2"/><path fill="#FFFFFF" d="M37.8,32.2c0,12.7-7.7,19.4-17.1,19.4c-9.7,0-16.6-7.5-16.6-18.7c0-11.7,7.3-19.3,17.1-19.3 C31.3,13.7,37.8,21.3,37.8,32.2z M9.2,32.8c0,7.9,4.3,14.9,11.8,14.9c7.5,0,11.8-6.9,11.8-15.3c0-7.3-3.8-14.9-11.8-14.9 C13.1,17.5,9.2,24.8,9.2,32.8z"/><path fill="#FFFFFF" d="M62.7,43.8c0,2.7,0.1,5.1,0.2,7.2h-4.3l-0.3-4.3h-0.1c-1.3,2.1-4,4.9-8.8,4.9c-4.2,0-9.1-2.3-9.1-11.6 V24.6h4.8v14.6c0,5,1.5,8.4,5.9,8.4c3.2,0,5.5-2.2,6.3-4.4c0.3-0.7,0.4-1.6,0.4-2.5V24.6h4.8V43.8z"/><path fill="#FFFFFF" d="M67.3,32.8c0-3.1-0.1-5.8-0.2-8.2h4.2l0.2,5.2h0.2c1.2-3.5,4.1-5.8,7.3-5.8c0.5,0,0.9,0.1,1.4,0.2v4.5 c-0.5-0.1-1-0.2-1.6-0.2c-3.4,0-5.8,2.6-6.5,6.2c-0.1,0.7-0.2,1.4-0.2,2.2V51h-4.8V32.8z"/><path fill="#FFFFFF" d="M95.4,51l-9.4-36.8h5l4.4,18.6c1.1,4.6,2.1,9.2,2.7,12.7h0.1c0.6-3.7,1.8-8,3-12.8l4.9-18.5h5l4.5,18.7 c1,4.4,2,8.7,2.6,12.6h0.1c0.8-4,1.8-8.1,3-12.7l4.9-18.5h4.9L120.6,51h-5L111,31.9c-1.1-4.7-1.9-8.3-2.4-12h-0.1 c-0.7,3.7-1.5,7.3-2.8,12L100.4,51H95.4z"/><path fill="#FFFFFF" d="M154.9,37.6c0,9.8-6.8,14-13.2,14c-7.2,0-12.7-5.2-12.7-13.6c0-8.8,5.8-14,13.1-14 C149.8,24,154.9,29.5,154.9,37.6z M133.9,37.9c0,5.8,3.3,10.1,8,10.1c4.6,0,8-4.3,8-10.3c0-4.5-2.2-10.1-7.9-10.1 C136.3,27.6,133.9,32.8,133.9,37.9z"/><path fill="#FFFFFF" d="M158.2,32.8c0-3.1-0.1-5.8-0.2-8.2h4.2l0.2,5.2h0.2c1.2-3.5,4.1-5.8,7.3-5.8c0.5,0,0.9,0.1,1.4,0.2v4.5 c-0.5-0.1-1-0.2-1.6-0.2c-3.4,0-5.8,2.6-6.5,6.2c-0.1,0.7-0.2,1.4-0.2,2.2V51h-4.8V32.8z"/><path fill="#FFFFFF" d="M173.5,12.3h4.8V51h-4.8V12.3z"/><path fill="#FFFFFF" d="M206.5,12.3v31.9c0,2.3,0.1,5,0.2,6.8h-4.3l-0.2-4.6H202c-1.5,2.9-4.7,5.2-9,5.2 c-6.4,0-11.3-5.4-11.3-13.4c-0.1-8.8,5.4-14.2,11.9-14.2c4,0,6.8,1.9,8,4h0.1V12.3H206.5z M201.7,35.4c0-0.6-0.1-1.4-0.2-2 c-0.7-3.1-3.3-5.6-6.9-5.6c-5,0-7.9,4.4-7.9,10.2c0,5.3,2.6,9.8,7.8,9.8c3.2,0,6.2-2.1,7.1-5.7c0.2-0.7,0.2-1.3,0.2-2.1V35.4z"/><path fill="#FFFFFF" d="M42.8,64c0.1,1.6-1.1,2.9-3.1,2.9c-1.7,0-2.9-1.3-2.9-2.9c0-1.7,1.3-3,3-3C41.7,61,42.8,62.3,42.8,64z M37.4,97.8V71.4h4.8v26.4H37.4z"/><path fill="#FFFFFF" d="M47.5,78.6c0-2.7-0.1-5-0.2-7.1h4.3l0.3,4.4h0.1c1.3-2.5,4.4-5,8.8-5c3.7,0,9.4,2.2,9.4,11.2v15.8h-4.8 V82.6c0-4.3-1.6-7.8-6.1-7.8c-3.2,0-5.6,2.2-6.5,4.9c-0.2,0.6-0.3,1.4-0.3,2.2v15.9h-4.8V78.6z"/><path fill="#FFFFFF" d="M84,61.6c2.9-0.4,6.3-0.8,10.1-0.8c6.8,0,11.7,1.6,14.9,4.6c3.3,3,5.2,7.3,5.2,13.2c0,6-1.9,10.9-5.3,14.3 c-3.4,3.4-9.1,5.3-16.3,5.3c-3.4,0-6.2-0.2-8.6-0.4V61.6z M88.8,94.1c1.2,0.2,3,0.3,4.8,0.3c10.2,0,15.7-5.7,15.7-15.6 c0.1-8.7-4.9-14.2-14.9-14.2c-2.5,0-4.3,0.2-5.6,0.5V94.1z"/><path fill="#FFFFFF" d="M132.1,97.8l-0.4-3.3h-0.2c-1.5,2.1-4.3,3.9-8.1,3.9c-5.4,0-8.1-3.8-8.1-7.6c0-6.4,5.7-9.9,15.9-9.8v-0.5 c0-2.2-0.6-6.1-6-6.1c-2.5,0-5,0.8-6.9,2l-1.1-3.2c2.2-1.4,5.4-2.3,8.7-2.3c8.1,0,10.1,5.5,10.1,10.8v9.9c0,2.3,0.1,4.5,0.4,6.3 H132.1z M131.4,84.4c-5.3-0.1-11.2,0.8-11.2,5.9c0,3.1,2.1,4.6,4.5,4.6c3.4,0,5.6-2.2,6.4-4.4c0.2-0.5,0.3-1,0.3-1.5V84.4z"/><path fill="#FFFFFF" d="M146.6,63.9v7.6h6.9v3.7h-6.9v14.2c0,3.3,0.9,5.1,3.6,5.1c1.3,0,2.2-0.2,2.8-0.3l0.2,3.6 c-0.9,0.4-2.4,0.7-4.3,0.7c-2.2,0-4-0.7-5.2-2c-1.4-1.4-1.9-3.8-1.9-6.9V75.1h-4.1v-3.7h4.1v-6.3L146.6,63.9z"/><path fill="#FFFFFF" d="M171.4,97.8l-0.4-3.3h-0.2c-1.5,2.1-4.3,3.9-8.1,3.9c-5.4,0-8.1-3.8-8.1-7.6c0-6.4,5.7-9.9,15.9-9.8v-0.5 c0-2.2-0.6-6.1-6-6.1c-2.5,0-5,0.8-6.9,2l-1.1-3.2c2.2-1.4,5.4-2.3,8.7-2.3c8.1,0,10.1,5.5,10.1,10.8v9.9c0,2.3,0.1,4.5,0.4,6.3 H171.4z M170.7,84.4c-5.3-0.1-11.2,0.8-11.2,5.9c0,3.1,2.1,4.6,4.5,4.6c3.4,0,5.6-2.2,6.4-4.4c0.2-0.5,0.3-1,0.3-1.5V84.4z"/></g></g></a></g><a href="https://ourworldindata.org/grapher/participation-time-in-travel" target="_blank"><text font-size="25.20" x="15.0" y="35.2" fill="#555"><tspan x="15" y="35.160000000000004">Participation time in travel</tspan></text></a><text font-size="14.40" x="15.0" y="53.7" fill="#666"><tspan x="15" y="53.72">The average time per day, in minutes, spent on travel by individuals who took part in travel activities. Travel includes</tspan><tspan x="15" y="69.56">travel to/from work, travel related to study, shopping and services, leisure, transporting a child, unspecified travel, and</tspan><tspan x="15" y="85.4">unspecified time use.</tspan></text></g><g class="LineChart"><defs><clipPath id="boundsClip-1"><rect x="37.216" y="0" width="830" height="897.8"></rect></clipPath></defs><g class="AxisBoxView"><g class="HorizontalAxis"><text x="47.2" y="556.5" fill="#666" text-anchor="middle" font-size="16.2">2000</text><text x="178.5" y="556.5" fill="#666" text-anchor="middle" font-size="16.2">2002</text><text x="309.8" y="556.5" fill="#666" text-anchor="middle" font-size="16.2">2004</text><text x="441.1" y="556.5" fill="#666" text-anchor="middle" font-size="16.2">2006</text><text x="572.3" y="556.5" fill="#666" text-anchor="middle" font-size="16.2">2008</text><text x="703.6" y="556.5" fill="#666" text-anchor="middle" font-size="16.2">2010</text></g><g class="VerticalAxis"><text x="42.22" y="535.3" fill="#666" dominant-baseline="middle" text-anchor="end" font-size="16.2">0</text><text x="42.22" y="452.1" fill="#666" dominant-baseline="middle" text-anchor="end" font-size="16.2">20</text><text x="42.22" y="368.9" fill="#666" dominant-baseline="middle" text-anchor="end" font-size="16.2">40</text><text x="42.22" y="285.7" fill="#666" dominant-baseline="middle" text-anchor="end" font-size="16.2">60</text><text x="42.22" y="202.5" fill="#666" dominant-baseline="middle" text-anchor="end" font-size="16.2">80</text><text x="42.22" y="119.3" fill="#666" dominant-baseline="middle" text-anchor="end" font-size="16.2">100</text></g><g class="AxisGridLines"><line x1="47.22" y1="535.3" x2="703.61" y2="535.3" stroke="#ccc"></line><line x1="47.22" y1="452.1" x2="703.61" y2="452.1" stroke="#ddd" stroke-dasharray="3,2"></line><line x1="47.22" y1="368.9" x2="703.61" y2="368.9" stroke="#ddd" stroke-dasharray="3,2"></line><line x1="47.22" y1="285.7" x2="703.61" y2="285.7" stroke="#ddd" stroke-dasharray="3,2"></line><line x1="47.22" y1="202.5" x2="703.61" y2="202.5" stroke="#ddd" stroke-dasharray="3,2"></line><line x1="47.22" y1="119.3" x2="703.61" y2="119.3" stroke="#ddd" stroke-dasharray="3,2"></line></g></g><g clip-path="url(#boundsClip-1)"><g class="HeightedLegend clickable"><g class="legendMark"><g class="indicator"><line x1="708.61" y1="107.6" x2="721.11" y2="107.6" stroke="#666" stroke-width="0.5"></line><line x1="721.11" y1="107.6" x2="721.11" y2="107.6" stroke="#666" stroke-width="0.5"></line><line x1="721.11" y1="107.6" x2="733.61" y2="107.6" stroke="#666" stroke-width="0.5"></line></g><rect x="703.61" y="100.85" width="131.39" height="13.5" fill="#fff" opacity="0"></rect><text font-size="13.50" x="738.6" y="111.6" fill="#ffd53e"><tspan x="738.61" y="111.64999999999999">United Kingdom</tspan></text></g><g class="legendMark"><g class="indicator"><line x1="708.61" y1="234.2" x2="731.11" y2="234.2" stroke="#666" stroke-width="0.5"></line><line x1="731.11" y1="234.2" x2="731.11" y2="234.2" stroke="#666" stroke-width="0.5"></line><line x1="731.11" y1="234.2" x2="733.61" y2="234.2" stroke="#666" stroke-width="0.5"></line></g><rect x="703.61" y="227.45" width="77.12" height="13.5" fill="#fff" opacity="0"></rect><text font-size="13.50" x="738.6" y="238.3" fill="#9ecc8a"><tspan x="738.61" y="238.25">France</tspan></text></g><g class="legendMark"><g class="indicator"><line x1="708.61" y1="239.3" x2="728.61" y2="239.3" stroke="#666" stroke-width="0.5"></line><line x1="728.61" y1="239.3" x2="728.61" y2="249.7" stroke="#666" stroke-width="0.5"></line><line x1="728.61" y1="249.7" x2="733.61" y2="249.7" stroke="#666" stroke-width="0.5"></line></g><rect x="703.61" y="242.95" width="79.415" height="13.5" fill="#fff" opacity="0"></rect><text font-size="13.50" x="738.6" y="253.8" fill="#e6332e"><tspan x="738.61" y="253.75">Finland</tspan></text></g><g class="legendMark"><g class="indicator"><line x1="708.61" y1="240.2" x2="726.11" y2="240.2" stroke="#666" stroke-width="0.5"></line><line x1="726.11" y1="240.2" x2="726.11" y2="265.2" stroke="#666" stroke-width="0.5"></line><line x1="726.11" y1="265.2" x2="733.61" y2="265.2" stroke="#666" stroke-width="0.5"></line></g><rect x="703.61" y="258.45" width="80.765" height="13.5" fill="#fff" opacity="0"></rect><text font-size="13.50" x="738.6" y="269.3" fill="#2a939b"><tspan x="738.61" y="269.25">Norway</tspan></text></g><g class="legendMark"><g class="indicator"><line x1="708.61" y1="251.2" x2="723.61" y2="251.2" stroke="#666" stroke-width="0.5"></line><line x1="723.61" y1="251.2" x2="723.61" y2="280.7" stroke="#666" stroke-width="0.5"></line><line x1="723.61" y1="280.7" x2="733.61" y2="280.7" stroke="#666" stroke-width="0.5"></line></g><rect x="703.61" y="273.95" width="90.62" height="13.5" fill="#fff" opacity="0"></rect><text font-size="13.50" x="738.6" y="284.8" fill="#a652ba"><tspan x="738.61" y="284.75">Germany</tspan></text></g><g class="legendMark"><g class="indicator"><line x1="708.61" y1="261.8" x2="721.11" y2="261.8" stroke="#666" stroke-width="0.5"></line><line x1="721.11" y1="261.8" x2="721.11" y2="296.2" stroke="#666" stroke-width="0.5"></line><line x1="721.11" y1="296.2" x2="733.61" y2="296.2" stroke="#666" stroke-width="0.5"></line></g><rect x="703.61" y="289.45" width="80.225" height="13.5" fill="#fff" opacity="0"></rect><text font-size="13.50" x="738.6" y="300.3" fill="#f6a324"><tspan x="738.61" y="300.25">Estonia</tspan></text></g><g class="legendMark"><g class="indicator"><line x1="708.61" y1="271.1" x2="718.61" y2="271.1" stroke="#666" stroke-width="0.5"></line><line x1="718.61" y1="271.1" x2="718.61" y2="311.7" stroke="#666" stroke-width="0.5"></line><line x1="718.61" y1="311.7" x2="733.61" y2="311.7" stroke="#666" stroke-width="0.5"></line></g><rect x="703.61" y="304.95" width="83.87" height="13.5" fill="#fff" opacity="0"></rect><text font-size="13.50" x="738.6" y="315.8" fill="#34983f"><tspan x="738.61" y="315.75">Belgium</tspan></text></g><g class="legendMark"><g class="indicator"><line x1="708.61" y1="282.2" x2="716.11" y2="282.2" stroke="#666" stroke-width="0.5"></line><line x1="716.11" y1="282.2" x2="716.11" y2="327.2" stroke="#666" stroke-width="0.5"></line><line x1="716.11" y1="327.2" x2="733.61" y2="327.2" stroke="#666" stroke-width="0.5"></line></g><rect x="703.61" y="320.45" width="59.84" height="13.5" fill="#fff" opacity="0"></rect><text font-size="13.50" x="738.6" y="331.3" fill="#ca2628"><tspan x="738.61" y="331.25">Italy</tspan></text></g><g class="legendMark"><g class="indicator"><line x1="708.61" y1="291.9" x2="713.61" y2="291.9" stroke="#666" stroke-width="0.5"></line><line x1="713.61" y1="291.9" x2="713.61" y2="342.7" stroke="#666" stroke-width="0.5"></line><line x1="713.61" y1="342.7" x2="733.61" y2="342.7" stroke="#666" stroke-width="0.5"></line></g><rect x="703.61" y="335.95" width="69.695" height="13.5" fill="#fff" opacity="0"></rect><text font-size="13.50" x="738.6" y="346.8" fill="#3360a9"><tspan x="738.61" y="346.75">Spain</tspan></text></g></g><g class="Lines"><rect x="47" y="108" width="656" height="428" fill="rgba(255,255,255,0)" opacity="0"></rect><g class="key-Belgium_0"><path stroke="#34983f" stroke-linecap="round" d="M47 227L704 271" fill="none" stroke-width="1.5"></path><g fill="#34983f"><circle cx="47" cy="227" r="2"></circle><circle cx="704" cy="271" r="2"></circle></g></g><g class="key-Finland_0"><path stroke="#e6332e" stroke-linecap="round" d="M47 270L704 239" fill="none" stroke-width="1.5"></path><g fill="#e6332e"><circle cx="47" cy="270" r="2"></circle><circle cx="704" cy="239" r="2"></circle></g></g><g class="key-Norway_0"><path stroke="#2a939b" stroke-linecap="round" d="M47 268L704 240" fill="none" stroke-width="1.5"></path><g fill="#2a939b"><circle cx="47" cy="268" r="2"></circle><circle cx="704" cy="240" r="2"></circle></g></g><g class="key-Germany_0"><path stroke="#a652ba" stroke-linecap="round" d="M47 235L704 251" fill="none" stroke-width="1.5"></path><g fill="#a652ba"><circle cx="47" cy="235" r="2"></circle><circle cx="704" cy="251" r="2"></circle></g></g><g class="key-United-Kingdom_0"><path stroke="#ffd53e" stroke-linecap="round" d="M47 232L704 108" fill="none" stroke-width="1.5"></path><g fill="#ffd53e"><circle cx="47" cy="232" r="2"></circle><circle cx="704" cy="108" r="2"></circle></g></g><g class="key-France_0"><path stroke="#9ecc8a" stroke-linecap="round" d="M47 299L704 234" fill="none" stroke-width="1.5"></path><g fill="#9ecc8a"><circle cx="47" cy="299" r="2"></circle><circle cx="704" cy="234" r="2"></circle></g></g><g class="key-Spain_0"><path stroke="#3360a9" stroke-linecap="round" d="M47 287L704 292" fill="none" stroke-width="1.5"></path><g fill="#3360a9"><circle cx="47" cy="287" r="2"></circle><circle cx="704" cy="292" r="2"></circle></g></g><g class="key-Estonia_0"><path stroke="#f6a324" stroke-linecap="round" d="M47 283L704 262" fill="none" stroke-width="1.5"></path><g fill="#f6a324"><circle cx="47" cy="283" r="2"></circle><circle cx="704" cy="262" r="2"></circle></g></g><g class="key-Italy_0"><path stroke="#ca2628" stroke-linecap="round" d="M47 266L704 282" fill="none" stroke-width="1.5"></path><g fill="#ca2628"><circle cx="47" cy="266" r="2"></circle><circle cx="704" cy="282" r="2"></circle></g></g></g></g></g><g style="fill: #777;" class="SourcesFooter"><g style="fill: #777;" class="clickable"><text font-size="12.60" x="15.0" y="581.6"><tspan x="15" y="581.58">Source: Eurostat</tspan></text></g><text font-size="12.60" x="775.4" y="581.6"><tspan x="775.402" y="581.58"><a style="fill: #777;" class="cclogo" href="http://creativecommons.org/licenses/by-sa/4.0/deed.en_US" target="_blank">CC BY-SA</a></tspan></text></g></g></svg>