<svg xmlns="http://www.w3.org/2000/svg" version="1.1" style="font-family: 'Helvetica Neue', Helvetica, Arial, sans-serif; font-size: 18px; background-color: white; text-rendering: optimizeLegibility; -webkit-font-smoothing: antialiased;" width="850" height="600"><g class="ChartTab"><g class="HeaderView"><g opacity="0.8" transform="translate(770, 15) scale(0.31)"><a xmlns:xlink="http://www.w3.org/1999/xlink" xlink:href="https://ourworldindata.org" target="_blank"><g><rect x="0" y="0" fill="#1B2543" width="211.2" height="130.1"/><rect x="0" y="112.2" fill="#E63912" width="211.2" height="17.9"/><g><rect x="1.2" y="12.3" fill="none" width="210.2" height="99.2"/><path fill="#FFFFFF" d="M37.8,32.2c0,12.7-7.7,19.4-17.1,19.4c-9.7,0-16.6-7.5-16.6-18.7c0-11.7,7.3-19.3,17.1-19.3 C31.3,13.7,37.8,21.3,37.8,32.2z M9.2,32.8c0,7.9,4.3,14.9,11.8,14.9c7.5,0,11.8-6.9,11.8-15.3c0-7.3-3.8-14.9-11.8-14.9 C13.1,17.5,9.2,24.8,9.2,32.8z"/><path fill="#FFFFFF" d="M62.7,43.8c0,2.7,0.1,5.1,0.2,7.2h-4.3l-0.3-4.3h-0.1c-1.3,2.1-4,4.9-8.8,4.9c-4.2,0-9.1-2.3-9.1-11.6 V24.6h4.8v14.6c0,5,1.5,8.4,5.9,8.4c3.2,0,5.5-2.2,6.3-4.4c0.3-0.7,0.4-1.6,0.4-2.5V24.6h4.8V43.8z"/><path fill="#FFFFFF" d="M67.3,32.8c0-3.1-0.1-5.8-0.2-8.2h4.2l0.2,5.2h0.2c1.2-3.5,4.1-5.8,7.3-5.8c0.5,0,0.9,0.1,1.4,0.2v4.5 c-0.5-0.1-1-0.2-1.6-0.2c-3.4,0-5.8,2.6-6.5,6.2c-0.1,0.7-0.2,1.4-0.2,2.2V51h-4.8V32.8z"/><path fill="#FFFFFF" d="M95.4,51l-9.4-36.8h5l4.4,18.6c1.1,4.6,2.1,9.2,2.7,12.7h0.1c0.6-3.7,1.8-8,3-12.8l4.9-18.5h5l4.5,18.7 c1,4.4,2,8.7,2.6,12.6h0.1c0.8-4,1.8-8.1,3-12.7l4.9-18.5h4.9L120.6,51h-5L111,31.9c-1.1-4.7-1.9-8.3-2.4-12h-0.1 c-0.7,3.7-1.5,7.3-2.8,12L100.4,51H95.4z"/><path fill="#FFFFFF" d="M154.9,37.6c0,9.8-6.8,14-13.2,14c-7.2,0-12.7-5.2-12.7-13.6c0-8.8,5.8-14,13.1-14 C149.8,24,154.9,29.5,154.9,37.6z M133.9,37.9c0,5.8,3.3,10.1,8,10.1c4.6,0,8-4.3,8-10.3c0-4.5-2.2-10.1-7.9-10.1 C136.3,27.6,133.9,32.8,133.9,37.9z"/><path fill="#FFFFFF" d="M158.2,32.8c0-3.1-0.1-5.8-0.2-8.2h4.2l0.2,5.2h0.2c1.2-3.5,4.1-5.8,7.3-5.8c0.5,0,0.9,0.1,1.4,0.2v4.5 c-0.5-0.1-1-0.2-1.6-0.2c-3.4,0-5.8,2.6-6.5,6.2c-0.1,0.7-0.2,1.4-0.2,2.2V51h-4.8V32.8z"/><path fill="#FFFFFF" d="M173.5,12.3h4.8V51h-4.8V12.3z"/><path fill="#FFFFFF" d="M206.5,12.3v31.9c0,2.3,0.1,5,0.2,6.8h-4.3l-0.2-4.6H202c-1.5,2.9-4.7,5.2-9,5.2 c-6.4,0-11.3-5.4-11.3-13.4c-0.1-8.8,5.4-14.2,11.9-14.2c4,0,6.8,1.9,8,4h0.1V12.3H206.5z M201.7,35.4c0-0.6-0.1-1.4-0.2-2 c-0.7-3.1-3.3-5.6-6.9-5.6c-5,0-7.9,4.4-7.9,10.2c0,5.3,2.6,9.8,7.8,9.8c3.2,0,6.2-2.1,7.1-5.7c0.2-0.7,0.2-1.3,0.2-2.1V35.4z"/><path fill="#FFFFFF" d="M42.8,64c0.1,1.6-1.1,2.9-3.1,2.9c-1.7,0-2.9-1.3-2.9-2.9c0-1.7,1.3-3,3-3C41.7,61,42.8,62.3,42.8,64z M37.4,97.8V71.4h4.8v26.4H37.4z"/><path fill="#FFFFFF" d="M47.5,78.6c0-2.7-0.1-5-0.2-7.1h4.3l0.3,4.4h0.1c1.3-2.5,4.4-5,8.8-5c3.7,0,9.4,2.2,9.4,11.2v15.8h-4.8 V82.6c0-4.3-1.6-7.8-6.1-7.8c-3.2,0-5.6,2.2-6.5,4.9c-0.2,0.6-0.3,1.4-0.3,2.2v15.9h-4.8V78.6z"/><path fill="#FFFFFF" d="M84,61.6c2.9-0.4,6.3-0.8,10.1-0.8c6.8,0,11.7,1.6,14.9,4.6c3.3,3,5.2,7.3,5.2,13.2c0,6-1.9,10.9-5.3,14.3 c-3.4,3.4-9.1,5.3-16.3,5.3c-3.4,0-6.2-0.2-8.6-0.4V61.6z M88.8,94.1c1.2,0.2,3,0.3,4.8,0.3c10.2,0,15.7-5.7,15.7-15.6 c0.1-8.7-4.9-14.2-14.9-14.2c-2.5,0-4.3,0.2-5.6,0.5V94.1z"/><path fill="#FFFFFF" d="M132.1,97.8l-0.4-3.3h-0.2c-1.5,2.1-4.3,3.9-8.1,3.9c-5.4,0-8.1-3.8-8.1-7.6c0-6.4,5.7-9.9,15.9-9.8v-0.5 c0-2.2-0.6-6.1-6-6.1c-2.5,0-5,0.8-6.9,2l-1.1-3.2c2.2-1.4,5.4-2.3,8.7-2.3c8.1,0,10.1,5.5,10.1,10.8v9.9c0,2.3,0.1,4.5,0.4,6.3 H132.1z M131.4,84.4c-5.3-0.1-11.2,0.8-11.2,5.9c0,3.1,2.1,4.6,4.5,4.6c3.4,0,5.6-2.2,6.4-4.4c0.2-0.5,0.3-1,0.3-1.5V84.4z"/><path fill="#FFFFFF" d="M146.6,63.9v7.6h6.9v3.7h-6.9v14.2c0,3.3,0.9,5.1,3.6,5.1c1.3,0,2.2-0.2,2.8-0.3l0.2,3.6 c-0.9,0.4-2.4,0.7-4.3,0.7c-2.2,0-4-0.7-5.2-2c-1.4-1.4-1.9-3.8-1.9-6.9V75.1h-4.1v-3.7h4.1v-6.3L146.6,63.9z"/><path fill="#FFFFFF" d="M171.4,97.8l-0.4-3.3h-0.2c-1.5,2.1-4.3,3.9-8.1,3.9c-5.4,0-8.1-3.8-8.1-7.6c0-6.4,5.7-9.9,15.9-9.8v-0.5 c0-2.2-0.6-6.1-6-6.1c-2.5,0-5,0.8-6.9,2l-1.1-3.2c2.2-1.4,5.4-2.3,8.7-2.3c8.1,0,10.1,5.5,10.1,10.8v9.9c0,2.3,0.1,4.5,0.4,6.3 H171.4z M170.7,84.4c-5.3-0.1-11.2,0.8-11.2,5.9c0,3.1,2.1,4.6,4.5,4.6c3.4,0,5.6-2.2,6.4-4.4c0.2-0.5,0.3-1,0.3-1.5V84.4z"/></g></g></a></g><a href="https://ourworldindata.org/grapher/per-capita-consumption-of-cereals-by-commodity-type-daily-kilocalories" target="_blank"><text font-size="21.60" x="15.0" y="32.3" fill="#555"><tspan x="15" y="32.279999999999994">Per capita consumption of cereals by commodity type, daily kilocalories,</tspan><tspan x="15" y="53.87999999999999">World</tspan></text></a><text font-size="14.40" x="15.0" y="72.7" fill="#666"><tspan x="15" y="72.72">Breakdown of the average per capita intake of cereals by specific cereal-based commodity types, measured in kilocalories per</tspan><tspan x="15" y="88.56">person per day. This figure measures the primary equivalent of all food products derived from a given commodity (e.g. &quot;wheat&quot;</tspan><tspan x="15" y="104.4">represents the primary equivalent of its derived products).  Data refers to cereal food supply at the consumer level but does not</tspan><tspan x="15" y="120.24000000000001">account for consumer wastage.</tspan></text></g><g class="StackedArea"><defs><clipPath id="boundsClip-537"><rect x="94.196" y="0" width="820" height="828.8"></rect></clipPath></defs><g class="AxisBoxView"><g class="HorizontalAxis"><text x="94.2" y="556.5" fill="#666" text-anchor="middle" font-size="16.2">1961</text><text x="208.8" y="556.5" fill="#666" text-anchor="middle" font-size="16.2">1970</text><text x="336.2" y="556.5" fill="#666" text-anchor="middle" font-size="16.2">1980</text><text x="463.5" y="556.5" fill="#666" text-anchor="middle" font-size="16.2">1990</text><text x="590.8" y="556.5" fill="#666" text-anchor="middle" font-size="16.2">2000</text><text x="756.4" y="556.5" fill="#666" text-anchor="middle" font-size="16.2">2013</text></g><g class="VerticalAxis"><text x="89.20" y="535.3" fill="#666" dominant-baseline="middle" text-anchor="end" font-size="16.2">0 kcal</text><text x="89.20" y="474.4" fill="#666" dominant-baseline="middle" text-anchor="end" font-size="16.2">200 kcal</text><text x="89.20" y="413.6" fill="#666" dominant-baseline="middle" text-anchor="end" font-size="16.2">400 kcal</text><text x="89.20" y="352.7" fill="#666" dominant-baseline="middle" text-anchor="end" font-size="16.2">600 kcal</text><text x="89.20" y="291.8" fill="#666" dominant-baseline="middle" text-anchor="end" font-size="16.2">800 kcal</text><text x="89.20" y="231" fill="#666" dominant-baseline="middle" text-anchor="end" font-size="16.2">1,000 kcal</text><text x="89.20" y="170.1" fill="#666" dominant-baseline="middle" text-anchor="end" font-size="16.2">1,200 kcal</text></g><g class="AxisGridLines"><line x1="94.20" y1="535.3" x2="756.39" y2="535.3" stroke="#ccc"></line><line x1="94.20" y1="474.4" x2="756.39" y2="474.4" stroke="#ddd" stroke-dasharray="3,2"></line><line x1="94.20" y1="413.6" x2="756.39" y2="413.6" stroke="#ddd" stroke-dasharray="3,2"></line><line x1="94.20" y1="352.7" x2="756.39" y2="352.7" stroke="#ddd" stroke-dasharray="3,2"></line><line x1="94.20" y1="291.8" x2="756.39" y2="291.8" stroke="#ddd" stroke-dasharray="3,2"></line><line x1="94.20" y1="231" x2="756.39" y2="231" stroke="#ddd" stroke-dasharray="3,2"></line><line x1="94.20" y1="170.1" x2="756.39" y2="170.1" stroke="#ddd" stroke-dasharray="3,2"></line></g><g class="AxisGridLines"><line x1="208.8" y1="535.30" x2="208.8" y2="142.10" stroke="#ddd" stroke-dasharray="3,2"></line><line x1="336.2" y1="535.30" x2="336.2" y2="142.10" stroke="#ddd" stroke-dasharray="3,2"></line><line x1="463.5" y1="535.30" x2="463.5" y2="142.10" stroke="#ddd" stroke-dasharray="3,2"></line><line x1="590.8" y1="535.30" x2="590.8" y2="142.10" stroke="#ddd" stroke-dasharray="3,2"></line><line x1="718.2" y1="535.30" x2="718.2" y2="142.10" stroke="#ddd" stroke-dasharray="3,2"></line></g></g><g clip-path="url(#boundsClip-537)"><g class="HeightedLegend clickable"><g class="legendMark"><rect x="761.392" y="145.4" width="45.528000000000006" height="14.4" fill="#fff" opacity="0"></rect><rect x="761.392" y="151.35" width="10" height="2.5" fill="#34983f"></rect><text font-size="14.40" x="776.4" y="156.9" fill="#333"><tspan x="776.392" y="156.92000000000002">Oats</tspan></text></g><g class="legendMark"><rect x="761.392" y="159.8" width="40.632000000000005" height="14.4" fill="#fff" opacity="0"></rect><rect x="761.392" y="165.75" width="10" height="2.5" fill="#9ecc8a"></rect><text font-size="14.40" x="776.4" y="171.3" fill="#333"><tspan x="776.392" y="171.32000000000002">Rye</tspan></text></g><g class="legendMark"><rect x="761.392" y="174.20000000000002" width="55.89600000000001" height="14.4" fill="#fff" opacity="0"></rect><rect x="761.392" y="180.15" width="10" height="2.5" fill="#ffd53e"></rect><text font-size="14.40" x="776.4" y="185.7" fill="#333"><tspan x="776.392" y="185.72000000000003">Barley</tspan></text></g><g class="legendMark"><rect x="761.392" y="188.60000000000002" width="73.608" height="14.4" fill="#fff" opacity="0"></rect><rect x="761.392" y="194.55" width="10" height="2.5" fill="#ca2628"></rect><text font-size="14.40" x="776.4" y="200.1" fill="#333"><tspan x="776.392" y="200.12000000000003">Sorghum</tspan></text></g><g class="legendMark"><rect x="761.392" y="203.00000000000003" width="53.44800000000001" height="14.4" fill="#fff" opacity="0"></rect><rect x="761.392" y="208.95000000000002" width="10" height="2.5" fill="#e6332e"></rect><text font-size="14.40" x="776.4" y="214.5" fill="#333"><tspan x="776.392" y="214.52000000000004">Maize</tspan></text></g><g class="legendMark"><rect x="761.392" y="283.3" width="56.760000000000005" height="14.4" fill="#fff" opacity="0"></rect><rect x="761.392" y="289.25" width="10" height="2.5" fill="#2a939b"></rect><text font-size="14.40" x="776.4" y="294.8" fill="#333"><tspan x="776.392" y="294.82">Wheat</tspan></text></g><g class="legendMark"><rect x="761.392" y="445.8" width="43.800000000000004" height="14.4" fill="#fff" opacity="0"></rect><rect x="761.392" y="451.75" width="10" height="2.5" fill="#3360a9"></rect><text font-size="14.40" x="776.4" y="457.3" fill="#333"><tspan x="776.392" y="457.32">Rice</tspan></text></g></g><g class="Areas"><rect x="94.196" y="142.1" width="662.196" height="393.19999999999993" opacity="0" fill="rgba(255,255,255,0)"></rect><path stroke-linecap="round" d="M94.2 416.3L106.9 409.9L119.7 405.3L132.4 400.2L145.1 401.1L157.9 399.6L170.6 399L183.3 397.1L196.1 397.1L208.8 389.2L221.5 389.8L234.3 391L247 390.4L259.7 389.5L272.5 385.9L285.2 387.4L297.9 383.4L310.7 381.6L323.4 382.8L336.2 382.2L348.9 381.6L361.6 374L374.4 370.7L387.1 371.6L399.8 370.4L412.6 372.5L425.3 371L438 370L450.8 369.1L463.5 368.8L476.2 375.2L489 376.4L501.7 373.7L514.4 374.3L527.2 373.1L539.9 371.3L552.6 371.9L565.4 371.3L578.1 369.1L590.8 370.7L603.6 372.2L616.3 372.5L629 373.4L641.8 372.5L654.5 372.2L667.3 372.8L680 372.2L692.7 369.7L705.5 370L718.2 369.7L730.9 369.4L743.7 370.7L756.4 370.7L756.392 535.3L94.196 535.3" fill="#3360a9" fill-opacity="0.7" class="World_6-area"></path><path stroke-linecap="round" d="M94.2 290L106.9 282.1L119.7 277.5L132.4 269.3L145.1 267.2L157.9 266.6L170.6 267.8L183.3 265.7L196.1 264.7L208.8 255.6L221.5 257.1L234.3 252.9L247 251.1L259.7 252L272.5 247.1L285.2 251.1L297.9 242.8L310.7 232.2L323.4 231.3L336.2 227L348.9 224.9L361.6 215.4L374.4 207.2L387.1 208.1L399.8 204.2L412.6 205.1L425.3 201.4L438 200.2L450.8 199.9L463.5 204.2L476.2 202.1L489 204.8L501.7 202.7L514.4 201.7L527.2 200.8L539.9 200.5L552.6 199.9L565.4 199L578.1 197.8L590.8 199.9L603.6 203.3L616.3 205.4L629 209.1L641.8 208.7L654.5 210L667.3 210L680 210.3L692.7 208.7L705.5 210.3L718.2 208.4L730.9 209.4L743.7 211.8L756.4 210.3L756.4 370.7L743.7 370.7L730.9 369.4L718.2 369.7L705.5 370L692.7 369.7L680 372.2L667.3 372.8L654.5 372.2L641.8 372.5L629 373.4L616.3 372.5L603.6 372.2L590.8 370.7L578.1 369.1L565.4 371.3L552.6 371.9L539.9 371.3L527.2 373.1L514.4 374.3L501.7 373.7L489 376.4L476.2 375.2L463.5 368.8L450.8 369.1L438 370L425.3 371L412.6 372.5L399.8 370.4L387.1 371.6L374.4 370.7L361.6 374L348.9 381.6L336.2 382.2L323.4 382.8L310.7 381.6L297.9 383.4L285.2 387.4L272.5 385.9L259.7 389.5L247 390.4L234.3 391L221.5 389.8L208.8 389.2L196.1 397.1L183.3 397.1L170.6 399L157.9 399.6L145.1 401.1L132.4 400.2L119.7 405.3L106.9 409.9L94.2 416.3" fill="#2a939b" fill-opacity="0.7" class="World_5-area"></path><path stroke-linecap="round" d="M94.2 261.7L106.9 253.5L119.7 248.9L132.4 240.4L145.1 237.4L157.9 236.7L170.6 236.7L183.3 235.8L196.1 234.3L208.8 224.9L221.5 228.2L234.3 223.7L247 220.9L259.7 222.1L272.5 215.7L285.2 220L297.9 211.8L310.7 200.2L323.4 199.9L336.2 194.1L348.9 192L361.6 183.2L374.4 173.1L387.1 173.4L399.8 170.1L412.6 169.2L425.3 166.1L438 163.1L450.8 162.2L463.5 167.1L476.2 165.5L489 167.1L501.7 164.3L514.4 163.4L527.2 161.6L539.9 160.7L552.6 161L565.4 159.4L578.1 158.5L590.8 160.4L603.6 163.4L616.3 165.5L629 168L641.8 167.7L654.5 168.6L667.3 168.3L680 168.3L692.7 165.8L705.5 167.7L718.2 164.9L730.9 165.2L743.7 167.4L756.4 165.5L756.4 210.3L743.7 211.8L730.9 209.4L718.2 208.4L705.5 210.3L692.7 208.7L680 210.3L667.3 210L654.5 210L641.8 208.7L629 209.1L616.3 205.4L603.6 203.3L590.8 199.9L578.1 197.8L565.4 199L552.6 199.9L539.9 200.5L527.2 200.8L514.4 201.7L501.7 202.7L489 204.8L476.2 202.1L463.5 204.2L450.8 199.9L438 200.2L425.3 201.4L412.6 205.1L399.8 204.2L387.1 208.1L374.4 207.2L361.6 215.4L348.9 224.9L336.2 227L323.4 231.3L310.7 232.2L297.9 242.8L285.2 251.1L272.5 247.1L259.7 252L247 251.1L234.3 252.9L221.5 257.1L208.8 255.6L196.1 264.7L183.3 265.7L170.6 267.8L157.9 266.6L145.1 267.2L132.4 269.3L119.7 277.5L106.9 282.1L94.2 290" fill="#e6332e" fill-opacity="0.7" class="World_4-area"></path><path stroke-linecap="round" d="M94.2 245L106.9 234.9L119.7 231L132.4 222.4L145.1 221.5L157.9 218.8L170.6 217.6L183.3 218.5L196.1 217.6L208.8 209.4L221.5 213.3L234.3 210L247 205.4L259.7 206L272.5 201.1L285.2 204.8L297.9 196.6L310.7 185.9L323.4 185.6L336.2 180.8L348.9 178.3L361.6 170.1L374.4 159.4L387.1 160.4L399.8 157.6L412.6 157.3L425.3 153.1L438 151.2L450.8 149.4L463.5 155.2L476.2 155.5L489 154.6L501.7 152.4L514.4 152.4L527.2 150.6L539.9 148.8L552.6 150.9L565.4 149.1L578.1 148.2L590.8 150.6L603.6 154L616.3 156.1L629 158.5L641.8 158.5L654.5 159.4L667.3 158.5L680 158.8L692.7 156.1L705.5 158.2L718.2 155.8L730.9 155.8L743.7 158.5L756.4 157L756.4 165.5L743.7 167.4L730.9 165.2L718.2 164.9L705.5 167.7L692.7 165.8L680 168.3L667.3 168.3L654.5 168.6L641.8 167.7L629 168L616.3 165.5L603.6 163.4L590.8 160.4L578.1 158.5L565.4 159.4L552.6 161L539.9 160.7L527.2 161.6L514.4 163.4L501.7 164.3L489 167.1L476.2 165.5L463.5 167.1L450.8 162.2L438 163.1L425.3 166.1L412.6 169.2L399.8 170.1L387.1 173.4L374.4 173.1L361.6 183.2L348.9 192L336.2 194.1L323.4 199.9L310.7 200.2L297.9 211.8L285.2 220L272.5 215.7L259.7 222.1L247 220.9L234.3 223.7L221.5 228.2L208.8 224.9L196.1 234.3L183.3 235.8L170.6 236.7L157.9 236.7L145.1 237.4L132.4 240.4L119.7 248.9L106.9 253.5L94.2 261.7" fill="#ca2628" fill-opacity="0.7" class="World_3-area"></path><path stroke-linecap="round" d="M94.2 236.1L106.9 226.1L119.7 223.1L132.4 214.8L145.1 213.6L157.9 211.5L170.6 210.9L183.3 211.8L196.1 211.5L208.8 203.3L221.5 207.2L234.3 204.2L247 199.3L259.7 200.2L272.5 194.7L285.2 199L297.9 191.4L310.7 180.8L323.4 180.8L336.2 176.5L348.9 173.8L361.6 165.8L374.4 155.2L387.1 156.7L399.8 154.3L412.6 153.7L425.3 149.7L438 147.9L450.8 146.1L463.5 152.1L476.2 152.1L489 151.2L501.7 149.4L514.4 149.4L527.2 147.6L539.9 146.1L552.6 148.5L565.4 146.1L578.1 145.4L590.8 148.5L603.6 151.5L616.3 153.7L629 156.1L641.8 156.1L654.5 157.3L667.3 156.4L680 156.7L692.7 154.3L705.5 156.1L718.2 153.7L730.9 153.7L743.7 156.4L756.4 154.9L756.4 157L743.7 158.5L730.9 155.8L718.2 155.8L705.5 158.2L692.7 156.1L680 158.8L667.3 158.5L654.5 159.4L641.8 158.5L629 158.5L616.3 156.1L603.6 154L590.8 150.6L578.1 148.2L565.4 149.1L552.6 150.9L539.9 148.8L527.2 150.6L514.4 152.4L501.7 152.4L489 154.6L476.2 155.5L463.5 155.2L450.8 149.4L438 151.2L425.3 153.1L412.6 157.3L399.8 157.6L387.1 160.4L374.4 159.4L361.6 170.1L348.9 178.3L336.2 180.8L323.4 185.6L310.7 185.9L297.9 196.6L285.2 204.8L272.5 201.1L259.7 206L247 205.4L234.3 210L221.5 213.3L208.8 209.4L196.1 217.6L183.3 218.5L170.6 217.6L157.9 218.8L145.1 221.5L132.4 222.4L119.7 231L106.9 234.9L94.2 245" fill="#ffd53e" fill-opacity="0.7" class="World_2-area"></path><path stroke-linecap="round" d="M94.2 225.8L106.9 215.4L119.7 212.4L132.4 205.7L145.1 204.2L157.9 202.7L170.6 202.7L183.3 203.6L196.1 203.6L208.8 195.4L221.5 199.3L234.3 196.6L247 192.9L259.7 193.5L272.5 187.4L285.2 192.6L297.9 185L310.7 174.7L323.4 174.4L336.2 170.7L348.9 168.3L361.6 161L374.4 150.3L387.1 151.8L399.8 150.3L412.6 150L425.3 146.7L438 144.8L450.8 143.6L463.5 149.4L476.2 149.1L489 147.9L501.7 146.1L514.4 146.4L527.2 144.5L539.9 143.3L552.6 145.8L565.4 143.3L578.1 143L590.8 146.1L603.6 149.1L616.3 151.2L629 154L641.8 154L654.5 155.2L667.3 154.3L680 154.6L692.7 152.1L705.5 154L718.2 151.8L730.9 151.8L743.7 154.6L756.4 153.1L756.4 154.9L743.7 156.4L730.9 153.7L718.2 153.7L705.5 156.1L692.7 154.3L680 156.7L667.3 156.4L654.5 157.3L641.8 156.1L629 156.1L616.3 153.7L603.6 151.5L590.8 148.5L578.1 145.4L565.4 146.1L552.6 148.5L539.9 146.1L527.2 147.6L514.4 149.4L501.7 149.4L489 151.2L476.2 152.1L463.5 152.1L450.8 146.1L438 147.9L425.3 149.7L412.6 153.7L399.8 154.3L387.1 156.7L374.4 155.2L361.6 165.8L348.9 173.8L336.2 176.5L323.4 180.8L310.7 180.8L297.9 191.4L285.2 199L272.5 194.7L259.7 200.2L247 199.3L234.3 204.2L221.5 207.2L208.8 203.3L196.1 211.5L183.3 211.8L170.6 210.9L157.9 211.5L145.1 213.6L132.4 214.8L119.7 223.1L106.9 226.1L94.2 236.1" fill="#9ecc8a" fill-opacity="0.7" class="World_1-area"></path><path stroke-linecap="round" d="M94.2 224.3L106.9 214.2L119.7 210.9L132.4 204.5L145.1 202.7L157.9 201.4L170.6 201.4L183.3 202.4L196.1 202.4L208.8 194.1L221.5 198.1L234.3 195.4L247 191.7L259.7 192.3L272.5 186.2L285.2 191.4L297.9 184.1L310.7 173.8L323.4 173.1L336.2 169.8L348.9 167.4L361.6 160.1L374.4 149.4L387.1 150.6L399.8 149.4L412.6 149.1L425.3 145.8L438 143.6L450.8 142.4L463.5 148.2L476.2 147.9L489 146.7L501.7 144.8L514.4 145.4L527.2 143.6L539.9 142.4L552.6 144.8L565.4 142.4L578.1 142.1L590.8 145.1L603.6 148.2L616.3 150.3L629 153.1L641.8 153.1L654.5 154.3L667.3 153.4L680 153.7L692.7 151.2L705.5 153.1L718.2 150.9L730.9 150.9L743.7 153.7L756.4 152.1L756.4 153.1L743.7 154.6L730.9 151.8L718.2 151.8L705.5 154L692.7 152.1L680 154.6L667.3 154.3L654.5 155.2L641.8 154L629 154L616.3 151.2L603.6 149.1L590.8 146.1L578.1 143L565.4 143.3L552.6 145.8L539.9 143.3L527.2 144.5L514.4 146.4L501.7 146.1L489 147.9L476.2 149.1L463.5 149.4L450.8 143.6L438 144.8L425.3 146.7L412.6 150L399.8 150.3L387.1 151.8L374.4 150.3L361.6 161L348.9 168.3L336.2 170.7L323.4 174.4L310.7 174.7L297.9 185L285.2 192.6L272.5 187.4L259.7 193.5L247 192.9L234.3 196.6L221.5 199.3L208.8 195.4L196.1 203.6L183.3 203.6L170.6 202.7L157.9 202.7L145.1 204.2L132.4 205.7L119.7 212.4L106.9 215.4L94.2 225.8" fill="#34983f" fill-opacity="0.7" class="World_0-area"></path><path stroke-linecap="round" d="M94.2 416.3L106.9 409.9L119.7 405.3L132.4 400.2L145.1 401.1L157.9 399.6L170.6 399L183.3 397.1L196.1 397.1L208.8 389.2L221.5 389.8L234.3 391L247 390.4L259.7 389.5L272.5 385.9L285.2 387.4L297.9 383.4L310.7 381.6L323.4 382.8L336.2 382.2L348.9 381.6L361.6 374L374.4 370.7L387.1 371.6L399.8 370.4L412.6 372.5L425.3 371L438 370L450.8 369.1L463.5 368.8L476.2 375.2L489 376.4L501.7 373.7L514.4 374.3L527.2 373.1L539.9 371.3L552.6 371.9L565.4 371.3L578.1 369.1L590.8 370.7L603.6 372.2L616.3 372.5L629 373.4L641.8 372.5L654.5 372.2L667.3 372.8L680 372.2L692.7 369.7L705.5 370L718.2 369.7L730.9 369.4L743.7 370.7L756.4 370.7" stroke="rgb(43, 80, 141)" stroke-opacity="0.7" stroke-width="0.5" fill="none" class="World_6-border"></path><path stroke-linecap="round" d="M94.2 290L106.9 282.1L119.7 277.5L132.4 269.3L145.1 267.2L157.9 266.6L170.6 267.8L183.3 265.7L196.1 264.7L208.8 255.6L221.5 257.1L234.3 252.9L247 251.1L259.7 252L272.5 247.1L285.2 251.1L297.9 242.8L310.7 232.2L323.4 231.3L336.2 227L348.9 224.9L361.6 215.4L374.4 207.2L387.1 208.1L399.8 204.2L412.6 205.1L425.3 201.4L438 200.2L450.8 199.9L463.5 204.2L476.2 202.1L489 204.8L501.7 202.7L514.4 201.7L527.2 200.8L539.9 200.5L552.6 199.9L565.4 199L578.1 197.8L590.8 199.9L603.6 203.3L616.3 205.4L629 209.1L641.8 208.7L654.5 210L667.3 210L680 210.3L692.7 208.7L705.5 210.3L718.2 208.4L730.9 209.4L743.7 211.8L756.4 210.3" stroke="rgb(35, 123, 130)" stroke-opacity="0.7" stroke-width="0.5" fill="none" class="World_5-border"></path><path stroke-linecap="round" d="M94.2 261.7L106.9 253.5L119.7 248.9L132.4 240.4L145.1 237.4L157.9 236.7L170.6 236.7L183.3 235.8L196.1 234.3L208.8 224.9L221.5 228.2L234.3 223.7L247 220.9L259.7 222.1L272.5 215.7L285.2 220L297.9 211.8L310.7 200.2L323.4 199.9L336.2 194.1L348.9 192L361.6 183.2L374.4 173.1L387.1 173.4L399.8 170.1L412.6 169.2L425.3 166.1L438 163.1L450.8 162.2L463.5 167.1L476.2 165.5L489 167.1L501.7 164.3L514.4 163.4L527.2 161.6L539.9 160.7L552.6 161L565.4 159.4L578.1 158.5L590.8 160.4L603.6 163.4L616.3 165.5L629 168L641.8 167.7L654.5 168.6L667.3 168.3L680 168.3L692.7 165.8L705.5 167.7L718.2 164.9L730.9 165.2L743.7 167.4L756.4 165.5" stroke="rgb(192, 43, 38)" stroke-opacity="0.7" stroke-width="0.5" fill="none" class="World_4-border"></path><path stroke-linecap="round" d="M94.2 245L106.9 234.9L119.7 231L132.4 222.4L145.1 221.5L157.9 218.8L170.6 217.6L183.3 218.5L196.1 217.6L208.8 209.4L221.5 213.3L234.3 210L247 205.4L259.7 206L272.5 201.1L285.2 204.8L297.9 196.6L310.7 185.9L323.4 185.6L336.2 180.8L348.9 178.3L361.6 170.1L374.4 159.4L387.1 160.4L399.8 157.6L412.6 157.3L425.3 153.1L438 151.2L450.8 149.4L463.5 155.2L476.2 155.5L489 154.6L501.7 152.4L514.4 152.4L527.2 150.6L539.9 148.8L552.6 150.9L565.4 149.1L578.1 148.2L590.8 150.6L603.6 154L616.3 156.1L629 158.5L641.8 158.5L654.5 159.4L667.3 158.5L680 158.8L692.7 156.1L705.5 158.2L718.2 155.8L730.9 155.8L743.7 158.5L756.4 157" stroke="rgb(169, 32, 33)" stroke-opacity="0.7" stroke-width="0.5" fill="none" class="World_3-border"></path><path stroke-linecap="round" d="M94.2 236.1L106.9 226.1L119.7 223.1L132.4 214.8L145.1 213.6L157.9 211.5L170.6 210.9L183.3 211.8L196.1 211.5L208.8 203.3L221.5 207.2L234.3 204.2L247 199.3L259.7 200.2L272.5 194.7L285.2 199L297.9 191.4L310.7 180.8L323.4 180.8L336.2 176.5L348.9 173.8L361.6 165.8L374.4 155.2L387.1 156.7L399.8 154.3L412.6 153.7L425.3 149.7L438 147.9L450.8 146.1L463.5 152.1L476.2 152.1L489 151.2L501.7 149.4L514.4 149.4L527.2 147.6L539.9 146.1L552.6 148.5L565.4 146.1L578.1 145.4L590.8 148.5L603.6 151.5L616.3 153.7L629 156.1L641.8 156.1L654.5 157.3L667.3 156.4L680 156.7L692.7 154.3L705.5 156.1L718.2 153.7L730.9 153.7L743.7 156.4L756.4 154.9" stroke="rgb(213, 178, 52)" stroke-opacity="0.7" stroke-width="0.5" fill="none" class="World_2-border"></path><path stroke-linecap="round" d="M94.2 225.8L106.9 215.4L119.7 212.4L132.4 205.7L145.1 204.2L157.9 202.7L170.6 202.7L183.3 203.6L196.1 203.6L208.8 195.4L221.5 199.3L234.3 196.6L247 192.9L259.7 193.5L272.5 187.4L285.2 192.6L297.9 185L310.7 174.7L323.4 174.4L336.2 170.7L348.9 168.3L361.6 161L374.4 150.3L387.1 151.8L399.8 150.3L412.6 150L425.3 146.7L438 144.8L450.8 143.6L463.5 149.4L476.2 149.1L489 147.9L501.7 146.1L514.4 146.4L527.2 144.5L539.9 143.3L552.6 145.8L565.4 143.3L578.1 143L590.8 146.1L603.6 149.1L616.3 151.2L629 154L641.8 154L654.5 155.2L667.3 154.3L680 154.6L692.7 152.1L705.5 154L718.2 151.8L730.9 151.8L743.7 154.6L756.4 153.1" stroke="rgb(132, 171, 115)" stroke-opacity="0.7" stroke-width="0.5" fill="none" class="World_1-border"></path><path stroke-linecap="round" d="M94.2 224.3L106.9 214.2L119.7 210.9L132.4 204.5L145.1 202.7L157.9 201.4L170.6 201.4L183.3 202.4L196.1 202.4L208.8 194.1L221.5 198.1L234.3 195.4L247 191.7L259.7 192.3L272.5 186.2L285.2 191.4L297.9 184.1L310.7 173.8L323.4 173.1L336.2 169.8L348.9 167.4L361.6 160.1L374.4 149.4L387.1 150.6L399.8 149.4L412.6 149.1L425.3 145.8L438 143.6L450.8 142.4L463.5 148.2L476.2 147.9L489 146.7L501.7 144.8L514.4 145.4L527.2 143.6L539.9 142.4L552.6 144.8L565.4 142.4L578.1 142.1L590.8 145.1L603.6 148.2L616.3 150.3L629 153.1L641.8 153.1L654.5 154.3L667.3 153.4L680 153.7L692.7 151.2L705.5 153.1L718.2 150.9L730.9 150.9L743.7 153.7L756.4 152.1" stroke="rgb(44, 127, 53)" stroke-opacity="0.7" stroke-width="0.5" fill="none" class="World_0-border"></path></g></g></g><g style="fill: #777;" class="SourcesFooter"><g style="fill: #777;" class="clickable"><text font-size="12.60" x="15.0" y="581.6"><tspan x="15" y="581.58">Source: UN Food and Agricultural Organization (FAO)</tspan></text></g><text font-size="12.60" x="649.0" y="581.6"><tspan x="649.024" y="581.58"><a target='_blank' style='fill: #777;' href='http://ourworldindata.org'>OurWorldInData.org</a> • <a style="fill: #777;" href="http://creativecommons.org/licenses/by-sa/4.0/deed.en_US" target="_blank">CC BY-SA</a></tspan></text></g></g></svg>