<svg xmlns="http://www.w3.org/2000/svg" version="1.1" style="font-family: 'Helvetica Neue', Helvetica, Arial, sans-serif; font-size: 18px; background-color: white; text-rendering: optimizeLegibility; -webkit-font-smoothing: antialiased;" width="850" height="600"><g class="ChartTab"><g class="HeaderView"><g opacity="0.8" transform="translate(770, 15) scale(0.31)"><a xmlns:xlink="http://www.w3.org/1999/xlink" xlink:href="https://ourworldindata.org" target="_blank"><g><rect x="0" y="0" fill="#1B2543" width="211.2" height="130.1"/><rect x="0" y="112.2" fill="#E63912" width="211.2" height="17.9"/><g><rect x="1.2" y="12.3" fill="none" width="210.2" height="99.2"/><path fill="#FFFFFF" d="M37.8,32.2c0,12.7-7.7,19.4-17.1,19.4c-9.7,0-16.6-7.5-16.6-18.7c0-11.7,7.3-19.3,17.1-19.3 C31.3,13.7,37.8,21.3,37.8,32.2z M9.2,32.8c0,7.9,4.3,14.9,11.8,14.9c7.5,0,11.8-6.9,11.8-15.3c0-7.3-3.8-14.9-11.8-14.9 C13.1,17.5,9.2,24.8,9.2,32.8z"/><path fill="#FFFFFF" d="M62.7,43.8c0,2.7,0.1,5.1,0.2,7.2h-4.3l-0.3-4.3h-0.1c-1.3,2.1-4,4.9-8.8,4.9c-4.2,0-9.1-2.3-9.1-11.6 V24.6h4.8v14.6c0,5,1.5,8.4,5.9,8.4c3.2,0,5.5-2.2,6.3-4.4c0.3-0.7,0.4-1.6,0.4-2.5V24.6h4.8V43.8z"/><path fill="#FFFFFF" d="M67.3,32.8c0-3.1-0.1-5.8-0.2-8.2h4.2l0.2,5.2h0.2c1.2-3.5,4.1-5.8,7.3-5.8c0.5,0,0.9,0.1,1.4,0.2v4.5 c-0.5-0.1-1-0.2-1.6-0.2c-3.4,0-5.8,2.6-6.5,6.2c-0.1,0.7-0.2,1.4-0.2,2.2V51h-4.8V32.8z"/><path fill="#FFFFFF" d="M95.4,51l-9.4-36.8h5l4.4,18.6c1.1,4.6,2.1,9.2,2.7,12.7h0.1c0.6-3.7,1.8-8,3-12.8l4.9-18.5h5l4.5,18.7 c1,4.4,2,8.7,2.6,12.6h0.1c0.8-4,1.8-8.1,3-12.7l4.9-18.5h4.9L120.6,51h-5L111,31.9c-1.1-4.7-1.9-8.3-2.4-12h-0.1 c-0.7,3.7-1.5,7.3-2.8,12L100.4,51H95.4z"/><path fill="#FFFFFF" d="M154.9,37.6c0,9.8-6.8,14-13.2,14c-7.2,0-12.7-5.2-12.7-13.6c0-8.8,5.8-14,13.1-14 C149.8,24,154.9,29.5,154.9,37.6z M133.9,37.9c0,5.8,3.3,10.1,8,10.1c4.6,0,8-4.3,8-10.3c0-4.5-2.2-10.1-7.9-10.1 C136.3,27.6,133.9,32.8,133.9,37.9z"/><path fill="#FFFFFF" d="M158.2,32.8c0-3.1-0.1-5.8-0.2-8.2h4.2l0.2,5.2h0.2c1.2-3.5,4.1-5.8,7.3-5.8c0.5,0,0.9,0.1,1.4,0.2v4.5 c-0.5-0.1-1-0.2-1.6-0.2c-3.4,0-5.8,2.6-6.5,6.2c-0.1,0.7-0.2,1.4-0.2,2.2V51h-4.8V32.8z"/><path fill="#FFFFFF" d="M173.5,12.3h4.8V51h-4.8V12.3z"/><path fill="#FFFFFF" d="M206.5,12.3v31.9c0,2.3,0.1,5,0.2,6.8h-4.3l-0.2-4.6H202c-1.5,2.9-4.7,5.2-9,5.2 c-6.4,0-11.3-5.4-11.3-13.4c-0.1-8.8,5.4-14.2,11.9-14.2c4,0,6.8,1.9,8,4h0.1V12.3H206.5z M201.7,35.4c0-0.6-0.1-1.4-0.2-2 c-0.7-3.1-3.3-5.6-6.9-5.6c-5,0-7.9,4.4-7.9,10.2c0,5.3,2.6,9.8,7.8,9.8c3.2,0,6.2-2.1,7.1-5.7c0.2-0.7,0.2-1.3,0.2-2.1V35.4z"/><path fill="#FFFFFF" d="M42.8,64c0.1,1.6-1.1,2.9-3.1,2.9c-1.7,0-2.9-1.3-2.9-2.9c0-1.7,1.3-3,3-3C41.7,61,42.8,62.3,42.8,64z M37.4,97.8V71.4h4.8v26.4H37.4z"/><path fill="#FFFFFF" d="M47.5,78.6c0-2.7-0.1-5-0.2-7.1h4.3l0.3,4.4h0.1c1.3-2.5,4.4-5,8.8-5c3.7,0,9.4,2.2,9.4,11.2v15.8h-4.8 V82.6c0-4.3-1.6-7.8-6.1-7.8c-3.2,0-5.6,2.2-6.5,4.9c-0.2,0.6-0.3,1.4-0.3,2.2v15.9h-4.8V78.6z"/><path fill="#FFFFFF" d="M84,61.6c2.9-0.4,6.3-0.8,10.1-0.8c6.8,0,11.7,1.6,14.9,4.6c3.3,3,5.2,7.3,5.2,13.2c0,6-1.9,10.9-5.3,14.3 c-3.4,3.4-9.1,5.3-16.3,5.3c-3.4,0-6.2-0.2-8.6-0.4V61.6z M88.8,94.1c1.2,0.2,3,0.3,4.8,0.3c10.2,0,15.7-5.7,15.7-15.6 c0.1-8.7-4.9-14.2-14.9-14.2c-2.5,0-4.3,0.2-5.6,0.5V94.1z"/><path fill="#FFFFFF" d="M132.1,97.8l-0.4-3.3h-0.2c-1.5,2.1-4.3,3.9-8.1,3.9c-5.4,0-8.1-3.8-8.1-7.6c0-6.4,5.7-9.9,15.9-9.8v-0.5 c0-2.2-0.6-6.1-6-6.1c-2.5,0-5,0.8-6.9,2l-1.1-3.2c2.2-1.4,5.4-2.3,8.7-2.3c8.1,0,10.1,5.5,10.1,10.8v9.9c0,2.3,0.1,4.5,0.4,6.3 H132.1z M131.4,84.4c-5.3-0.1-11.2,0.8-11.2,5.9c0,3.1,2.1,4.6,4.5,4.6c3.4,0,5.6-2.2,6.4-4.4c0.2-0.5,0.3-1,0.3-1.5V84.4z"/><path fill="#FFFFFF" d="M146.6,63.9v7.6h6.9v3.7h-6.9v14.2c0,3.3,0.9,5.1,3.6,5.1c1.3,0,2.2-0.2,2.8-0.3l0.2,3.6 c-0.9,0.4-2.4,0.7-4.3,0.7c-2.2,0-4-0.7-5.2-2c-1.4-1.4-1.9-3.8-1.9-6.9V75.1h-4.1v-3.7h4.1v-6.3L146.6,63.9z"/><path fill="#FFFFFF" d="M171.4,97.8l-0.4-3.3h-0.2c-1.5,2.1-4.3,3.9-8.1,3.9c-5.4,0-8.1-3.8-8.1-7.6c0-6.4,5.7-9.9,15.9-9.8v-0.5 c0-2.2-0.6-6.1-6-6.1c-2.5,0-5,0.8-6.9,2l-1.1-3.2c2.2-1.4,5.4-2.3,8.7-2.3c8.1,0,10.1,5.5,10.1,10.8v9.9c0,2.3,0.1,4.5,0.4,6.3 H171.4z M170.7,84.4c-5.3-0.1-11.2,0.8-11.2,5.9c0,3.1,2.1,4.6,4.5,4.6c3.4,0,5.6-2.2,6.4-4.4c0.2-0.5,0.3-1,0.3-1.5V84.4z"/></g></g></a></g><a href="https://ourworldindata.org/grapher/per-capita-sugar-food-supply-vs-gdp-per-capita" target="_blank"><text font-size="26.10" x="15.0" y="35.9" fill="#555"><tspan x="15" y="35.879999999999995">Per capita sugar food supply vs GDP per capita, 2013</tspan></text></a><text font-size="14.40" x="15.0" y="54.6" fill="#666"><tspan x="15" y="54.61999999999999">Per capita sugar food supply, measured in kilocalories per person per day versus gross domestic product (GDP) per</tspan><tspan x="15" y="70.46">capita, measured in 2011 international-$.</tspan></text></g><g><g class="AxisBoxView"><g class="HorizontalAxis"><text font-size="12.60" x="218.3" y="554.0"><tspan x="218.336" y="553.98">GDP per capita, PPP (constant 2011 international $)</tspan></text><text x="165.9" y="533.9" fill="#666" text-anchor="middle" font-size="16.2">$1,000</text><text x="446.2" y="533.9" fill="#666" text-anchor="middle" font-size="16.2">$10,000</text></g><g class="VerticalAxis"><text font-size="12.60" x="-404.9" y="25.1" transform="rotate(-90)"><tspan x="-404.949" y="25.080000000000002">Per capita sugar food supply</tspan></text><text x="98.19" y="512.7" fill="#666" dominant-baseline="middle" text-anchor="end" font-size="16.2">0 kcal</text><text x="98.19" y="435.4" fill="#666" dominant-baseline="middle" text-anchor="end" font-size="16.2">100 kcal</text><text x="98.19" y="358.1" fill="#666" dominant-baseline="middle" text-anchor="end" font-size="16.2">200 kcal</text><text x="98.19" y="280.8" fill="#666" dominant-baseline="middle" text-anchor="end" font-size="16.2">300 kcal</text><text x="98.19" y="203.5" fill="#666" dominant-baseline="middle" text-anchor="end" font-size="16.2">400 kcal</text><text x="98.19" y="126.2" fill="#666" dominant-baseline="middle" text-anchor="end" font-size="16.2">500 kcal</text></g><g class="AxisGridLines"><line x1="103.19" y1="512.7" x2="715.00" y2="512.7" stroke="#ccc"></line><line x1="103.19" y1="435.4" x2="715.00" y2="435.4" stroke="#ddd" stroke-dasharray="3,2"></line><line x1="103.19" y1="358.1" x2="715.00" y2="358.1" stroke="#ddd" stroke-dasharray="3,2"></line><line x1="103.19" y1="280.8" x2="715.00" y2="280.8" stroke="#ddd" stroke-dasharray="3,2"></line><line x1="103.19" y1="203.5" x2="715.00" y2="203.5" stroke="#ddd" stroke-dasharray="3,2"></line><line x1="103.19" y1="126.2" x2="715.00" y2="126.2" stroke="#ddd" stroke-dasharray="3,2"></line></g><g class="AxisGridLines"><line x1="165.9" y1="512.70" x2="165.9" y2="93.00" stroke="#ddd" stroke-dasharray="3,2"></line><line x1="446.2" y1="512.70" x2="446.2" y2="93.00" stroke="#ddd" stroke-dasharray="3,2"></line></g></g><g clip-path="url(#scatterBounds-559)" class="PointsWithLabels clickable"><rect x="103.188" y="93" width="611.812" height="419.7" fill="rgba(255,255,255,0)"></rect><defs><clipPath id="scatterBounds-559"><rect x="93.188" y="83" width="631.812" height="439.7"></rect></clipPath></defs><circle cx="467" cy="462" r="17.841241161527712" fill="#d14e5b" opacity="0.8"></circle><circle cx="363" cy="355" r="17.285342874881966" fill="#d14e5b" opacity="0.8"></circle><circle cx="644" cy="266" r="8.775506712237535" fill="#4d824b" opacity="0.8"></circle><circle cx="441" cy="396" r="7.7767714139932025" fill="#d14e5b" opacity="0.8"></circle><circle cx="499" cy="214" r="7.039208326657244" fill="#69c487" opacity="0.8"></circle><circle cx="348" cy="316" r="6.7558490440404135" fill="#d14e5b" opacity="0.8"></circle><circle cx="372" cy="436" r="6.54162783655981" fill="#5675c1" opacity="0.8"></circle><circle cx="292" cy="471" r="6.242281794010581" fill="#d14e5b" opacity="0.8"></circle><circle cx="558" cy="199" r="6.018488697804524" fill="#ffd336" opacity="0.8"></circle><circle cx="606" cy="385" r="5.697692465564994" fill="#d14e5b" opacity="0.8"></circle><circle cx="505" cy="229" r="5.514357129194611" fill="#4d824b" opacity="0.8"></circle><circle cx="390" cy="356" r="5.091040893493657" fill="#d14e5b" opacity="0.8"></circle><circle cx="364" cy="444" r="4.918348643659223" fill="#d14e5b" opacity="0.8"></circle><circle cx="200" cy="467" r="4.863837350729827" fill="#5675c1" opacity="0.8"></circle><circle cx="443" cy="305" r="4.79234317085083" fill="#5675c1" opacity="0.8"></circle><circle cx="623" cy="246" r="4.705099329733942" fill="#ffd336" opacity="0.8"></circle><circle cx="503" cy="307" r="4.570202163699375" fill="#d14e5b" opacity="0.8"></circle><circle cx="540" cy="283" r="4.543544776140735" fill="#d14e5b" opacity="0.8"></circle><circle cx="493" cy="228" r="4.411103549542102" fill="#d14e5b" opacity="0.8"></circle><circle cx="606" cy="236" r="4.237944258218469" fill="#ffd336" opacity="0.8"></circle><circle cx="605" cy="221" r="4.221349073661661" fill="#ffd336" opacity="0.8"></circle><circle cx="596" cy="282" r="4.163564605777408" fill="#ffd336" opacity="0.8"></circle><circle cx="472" cy="266" r="3.871997947952975" fill="#5675c1" opacity="0.8"></circle><circle cx="268" cy="438" r="3.8168801397173198" fill="#5675c1" opacity="0.8"></circle><circle cx="347" cy="508" r="3.815867035249713" fill="#d14e5b" opacity="0.8"></circle><circle cx="589" cy="348" r="3.8053763934226703" fill="#d14e5b" opacity="0.8"></circle><circle cx="471" cy="263" r="3.7867639495708776" fill="#69c487" opacity="0.8"></circle><circle cx="582" cy="287" r="3.7522432672081276" fill="#ffd336" opacity="0.8"></circle><circle cx="424" cy="211" r="3.6790622739311893" fill="#ffd336" opacity="0.8"></circle><circle cx="286" cy="401" r="3.654626250335461" fill="#5675c1" opacity="0.8"></circle><circle cx="527" cy="201" r="3.5760846755397306" fill="#69c487" opacity="0.8"></circle><circle cx="550" cy="184" r="3.4727430791656726" fill="#ffd336" opacity="0.8"></circle><circle cx="480" cy="313" r="3.4274585067993883" fill="#5675c1" opacity="0.8"></circle><circle cx="225" cy="426" r="3.4198526612656037" fill="#5675c1" opacity="0.8"></circle><circle cx="339" cy="251" r="3.3920013929109687" fill="#5675c1" opacity="0.8"></circle><circle cx="621" cy="255" r="3.35947884414231" fill="#4d824b" opacity="0.8"></circle><circle cx="496" cy="378" r="3.351964547633239" fill="#d14e5b" opacity="0.8"></circle><circle cx="238" cy="447" r="3.342396635713677" fill="#d14e5b" opacity="0.8"></circle><circle cx="402" cy="217" r="3.2873451393521536" fill="#5675c1" opacity="0.8"></circle><circle cx="259" cy="480" r="3.237960778439353" fill="#d14e5b" opacity="0.8"></circle><circle cx="515" cy="231" r="3.1949004221517083" fill="#69c487" opacity="0.8"></circle><circle cx="462" cy="355" r="3.1852551190935885" fill="#69c487" opacity="0.8"></circle><circle cx="548" cy="202" r="3.1747580399452056" fill="#d14e5b" opacity="0.8"></circle><circle cx="641" cy="278" r="3.1576320917908554" fill="#d14e5b" opacity="0.8"></circle><circle cx="363" cy="438" r="3.1236312060647804" fill="#d14e5b" opacity="0.8"></circle><circle cx="328" cy="407" r="3.038349147018121" fill="#5675c1" opacity="0.8"></circle><circle cx="170" cy="429" r="2.9959734173666894" fill="#5675c1" opacity="0.8"></circle><circle cx="623" cy="227" r="2.9249341492764764" fill="#a652ba" opacity="0.8"></circle><circle cx="203" cy="461" r="2.8987049593445002" fill="#5675c1" opacity="0.8"></circle><circle cx="449" cy="307" r="2.851894399220553" fill="#d14e5b" opacity="0.8"></circle><circle cx="524" cy="345" r="2.849655614682321" fill="#ffd336" opacity="0.8"></circle><circle cx="294" cy="436" r="2.838182250186745" fill="#5675c1" opacity="0.8"></circle><circle cx="291" cy="441" r="2.8323065330916206" fill="#5675c1" opacity="0.8"></circle><circle cx="387" cy="406" r="2.82414652863001" fill="#5675c1" opacity="0.8"></circle><circle cx="216" cy="458" r="2.710937548663174" fill="#5675c1" opacity="0.8"></circle><circle cx="542" cy="177" r="2.6921858582504257" fill="#69c487" opacity="0.8"></circle><circle cx="149" cy="471" r="2.6777391741691106" fill="#5675c1" opacity="0.8"></circle><circle cx="237" cy="435" r="2.658991335584527" fill="#5675c1" opacity="0.8"></circle><circle cx="629" cy="193" r="2.6569552107025065" fill="#ffd336" opacity="0.8"></circle><circle cx="547" cy="299" r="2.6477526093659596" fill="#d14e5b" opacity="0.8"></circle><circle cx="173" cy="450" r="2.6414397699840624" fill="#5675c1" opacity="0.8"></circle><circle cx="402" cy="157" r="2.6025615794160144" fill="#4d824b" opacity="0.8"></circle><circle cx="454" cy="347" r="2.5817188067990533" fill="#69c487" opacity="0.8"></circle><circle cx="298" cy="375" r="2.5634535545019808" fill="#d14e5b" opacity="0.8"></circle><circle cx="321" cy="439" r="2.547964971781995" fill="#5675c1" opacity="0.8"></circle><circle cx="261" cy="385" r="2.5085215735014907" fill="#5675c1" opacity="0.8"></circle><circle cx="244" cy="311" r="2.5026803252432863" fill="#5675c1" opacity="0.8"></circle><circle cx="250" cy="433" r="2.447131473287466" fill="#5675c1" opacity="0.8"></circle><circle cx="218" cy="474" r="2.4217324720416045" fill="#5675c1" opacity="0.8"></circle><circle cx="551" cy="313" r="2.413930205102583" fill="#ffd336" opacity="0.8"></circle><circle cx="617" cy="151" r="2.3834822556967885" fill="#ffd336" opacity="0.8"></circle><circle cx="453" cy="257" r="2.3833889296862765" fill="#5675c1" opacity="0.8"></circle><circle cx="191" cy="443" r="2.3804691264867515" fill="#5675c1" opacity="0.8"></circle><circle cx="560" cy="336" r="2.378074844864287" fill="#ffd336" opacity="0.8"></circle><circle cx="573" cy="246" r="2.372476152808937" fill="#ffd336" opacity="0.8"></circle><circle cx="385" cy="308" r="2.3636632754090856" fill="#69c487" opacity="0.8"></circle><circle cx="225" cy="389" r="2.3626166890838" fill="#4d824b" opacity="0.8"></circle><circle cx="467" cy="259" r="2.3586976215536013" fill="#4d824b" opacity="0.8"></circle><circle cx="547" cy="368" r="2.3402057686224498" fill="#ffd336" opacity="0.8"></circle><circle cx="480" cy="310" r="2.3353077229303603" fill="#ffd336" opacity="0.8"></circle><circle cx="246" cy="455" r="2.323939673373" fill="#5675c1" opacity="0.8"></circle><circle cx="625" cy="211" r="2.320909573761066" fill="#ffd336" opacity="0.8"></circle><circle cx="507" cy="375" r="2.3202912993739617" fill="#d14e5b" opacity="0.8"></circle><circle cx="515" cy="287" r="2.318534427105422" fill="#ffd336" opacity="0.8"></circle><circle cx="627" cy="212" r="2.2650730920250104" fill="#ffd336" opacity="0.8"></circle><circle cx="669" cy="236" r="2.253101395605194" fill="#d14e5b" opacity="0.8"></circle><circle cx="339" cy="195" r="2.2460722901052965" fill="#4d824b" opacity="0.8"></circle><circle cx="585" cy="330" r="2.232995129045984" fill="#d14e5b" opacity="0.8"></circle><circle cx="656" cy="95" r="2.230032269212635" fill="#ffd336" opacity="0.8"></circle><circle cx="503" cy="314" r="2.2084946991070047" fill="#ffd336" opacity="0.8"></circle><circle cx="274" cy="375" r="2.199768474371464" fill="#d14e5b" opacity="0.8"></circle><circle cx="422" cy="326" r="2.1793716092822475" fill="#69c487" opacity="0.8"></circle><circle cx="430" cy="161" r="2.1673538436272377" fill="#d14e5b" opacity="0.8"></circle><circle cx="357" cy="477" r="2.1612488137417096" fill="#d14e5b" opacity="0.8"></circle><circle cx="195" cy="423" r="2.158761471932166" fill="#5675c1" opacity="0.8"></circle><circle cx="413" cy="212" r="2.1528557961290717" fill="#4d824b" opacity="0.8"></circle><circle cx="227" cy="471" r="2.1502935752441417" fill="#5675c1" opacity="0.8"></circle><circle cx="352" cy="229" r="2.1387591975650597" fill="#4d824b" opacity="0.8"></circle><circle cx="628" cy="195" r="2.1152948785153245" fill="#ffd336" opacity="0.8"></circle><circle cx="304" cy="308" r="2.1093720803034866" fill="#d14e5b" opacity="0.8"></circle><circle cx="565" cy="257" r="2.108576345323732" fill="#ffd336" opacity="0.8"></circle><circle cx="613" cy="300" r="2.104724124319608" fill="#ffd336" opacity="0.8"></circle><circle cx="480" cy="451" r="2.094559437951275" fill="#d14e5b" opacity="0.8"></circle><circle cx="669" cy="289" r="2.08108827598077" fill="#ffd336" opacity="0.8"></circle><circle cx="487" cy="151" r="2.073720853398079" fill="#4d824b" opacity="0.8"></circle><circle cx="103" cy="477" r="2.062897747444414" fill="#5675c1" opacity="0.8"></circle><circle cx="630" cy="304" r="2.060905324905753" fill="#ffd336" opacity="0.8"></circle><circle cx="594" cy="133" r="2.053963014541934" fill="#a652ba" opacity="0.8"></circle><circle cx="531" cy="258" r="2.04664973132924" fill="#ffd336" opacity="0.8"></circle><circle cx="141" cy="473" r="2.044946223809323" fill="#5675c1" opacity="0.8"></circle><circle cx="369" cy="381" r="2.0435547043073727" fill="#5675c1" opacity="0.8"></circle><circle cx="487" cy="229" r="2.043546820055009" fill="#d14e5b" opacity="0.8"></circle><circle cx="422" cy="260" r="2.040955847931991" fill="#d14e5b" opacity="0.8"></circle><circle cx="449" cy="396" r="2.0099075856434" fill="#ffd336" opacity="0.8"></circle><circle cx="320" cy="243" r="2.008092100152689" fill="#5675c1" opacity="0.8"></circle><circle cx="524" cy="297" r="2.00658208073946" fill="#4d824b" opacity="0.8"></circle><circle cx="350" cy="380" r="1.9960056848039907" fill="#ffd336" opacity="0.8"></circle><circle cx="526" cy="267" r="1.990624415878847" fill="#69c487" opacity="0.8"></circle><circle cx="558" cy="268" r="1.9833452506746723" fill="#ffd336" opacity="0.8"></circle><circle cx="452" cy="379" r="1.9810049208358826" fill="#ffd336" opacity="0.8"></circle><circle cx="414" cy="279" r="1.9739361023244502" fill="#d14e5b" opacity="0.8"></circle><circle cx="690" cy="254" r="1.9645944649560965" fill="#d14e5b" opacity="0.8"></circle><circle cx="620" cy="275" r="1.964495223028387" fill="#d14e5b" opacity="0.8"></circle><circle cx="454" cy="409" r="1.9603919419693578" fill="#d14e5b" opacity="0.8"></circle><circle cx="419" cy="174" r="1.953480545947811" fill="#4d824b" opacity="0.8"></circle><circle cx="436" cy="358" r="1.9315991771463843" fill="#5675c1" opacity="0.8"></circle><circle cx="284" cy="401" r="1.9217113815283315" fill="#5675c1" opacity="0.8"></circle><circle cx="540" cy="292" r="1.92087483766538" fill="#ffd336" opacity="0.8"></circle><circle cx="500" cy="321" r="1.9117021736982747" fill="#5675c1" opacity="0.8"></circle><circle cx="467" cy="241" r="1.9113749079862912" fill="#ffd336" opacity="0.8"></circle><circle cx="569" cy="352" r="1.9098914133388436" fill="#ffd336" opacity="0.8"></circle><circle cx="223" cy="315" r="1.8995211923767192" fill="#5675c1" opacity="0.8"></circle><circle cx="206" cy="435" r="1.8834995852212582" fill="#5675c1" opacity="0.8"></circle><circle cx="507" cy="400" r="1.8823479212674705" fill="#5675c1" opacity="0.8"></circle><circle cx="587" cy="93" r="1.8675811013922459" fill="#4d824b" opacity="0.8"></circle><circle cx="563" cy="351" r="1.8665561153697794" fill="#ffd336" opacity="0.8"></circle><circle cx="515" cy="259" r="1.8654350639003876" fill="#5675c1" opacity="0.8"></circle><circle cx="417" cy="329" r="1.8602319650891692" fill="#5675c1" opacity="0.8"></circle><circle cx="579" cy="311" r="1.8542584105397024" fill="#ffd336" opacity="0.8"></circle><circle cx="294" cy="260" r="1.8416278618741875" fill="#5675c1" opacity="0.8"></circle><circle cx="418" cy="261" r="1.8380224442741733" fill="#a652ba" opacity="0.8"></circle><circle cx="397" cy="238" r="1.8302110933336284" fill="#69c487" opacity="0.8"></circle><circle cx="491" cy="348" r="1.822207620978934" fill="#ffd336" opacity="0.8"></circle><circle cx="252" cy="481" r="1.8188728716753066" fill="#a652ba" opacity="0.8"></circle><circle cx="498" cy="195" r="1.8162001403583492" fill="#69c487" opacity="0.8"></circle><circle cx="715" cy="397" r="1.8156343378835857" fill="#ffd336" opacity="0.8"></circle><circle cx="580" cy="136" r="1.8086326883878898" fill="#ffd336" opacity="0.8"></circle><circle cx="698" cy="289" r="1.80858237813873" fill="#d14e5b" opacity="0.8"></circle><circle cx="546" cy="277" r="1.8044413081967126" fill="#4d824b" opacity="0.8"></circle><circle cx="618" cy="226" r="1.8029480043417394" fill="#ffd336" opacity="0.8"></circle><circle cx="417" cy="199" r="1.802866031875352" fill="#4d824b" opacity="0.8"></circle><circle cx="462" cy="297" r="1.8027265093816949" fill="#d14e5b" opacity="0.8"></circle><circle cx="498" cy="96" r="1.7992890455559778" fill="#4d824b" opacity="0.8"></circle><circle cx="295" cy="384" r="1.7981723404466727" fill="#a652ba" opacity="0.8"></circle><circle cx="373" cy="320" r="1.7935196199622152" fill="#a652ba" opacity="0.8"></circle><circle cx="452" cy="225" r="1.79311810190825" fill="#4d824b" opacity="0.8"></circle><circle cx="290" cy="413" r="1.7928509766746252" fill="#5675c1" opacity="0.8"></circle><circle cx="448" cy="181" r="1.788576926170826" fill="#4d824b" opacity="0.8"></circle><circle cx="460" cy="238" r="1.788341336339257" fill="#4d824b" opacity="0.8"></circle><circle cx="239" cy="174" r="1.7882461842472215" fill="#a652ba" opacity="0.8"></circle><circle cx="523" cy="297" r="1.7874132576731268" fill="#4d824b" opacity="0.8"></circle><circle cx="446" cy="215" r="1.7858755349959021" fill="#4d824b" opacity="0.8"></circle><circle cx="643" cy="331" r="1.785721897613824" fill="#4d824b" opacity="0.8"></circle><circle cx="544" cy="225" r="1.7850079302237265" fill="#4d824b" opacity="0.8"></circle><circle cx="330" cy="314" r="1.7814759640770652" fill="#d14e5b" opacity="0.8"></circle><circle cx="488" cy="358" r="1.7814759640770652" fill="#000" opacity="0.8"></circle><circle cx="596" cy="253" r="1.7814759640770652" fill="#000" opacity="0.8"></circle><text x="467" y="443.1587588384723" font-size="14.3" font-family="Arial Narrow, Arial, sans-serif" fill="#666">China</text><text x="363" y="336.71465712511804" font-size="14.095515746037462" font-family="Arial Narrow, Arial, sans-serif" fill="#666">India</text><text x="644" y="256.22449328776247" font-size="11.773108453942909" font-family="Arial Narrow, Arial, sans-serif" fill="#666">United States</text><text x="441" y="387.2232285860068" font-size="11.59999261988135" font-family="Arial Narrow, Arial, sans-serif" fill="#666">Indonesia</text><text x="499" y="205.96079167334275" font-size="11.485557806159063" font-family="Arial Narrow, Arial, sans-serif" fill="#666">Brazil</text><text x="348" y="308.2441509559596" font-size="11.444623298311138" font-family="Arial Narrow, Arial, sans-serif" fill="#666">Pakistan</text><text x="372" y="428.4583721634402" font-size="11.414792812596316" font-family="Arial Narrow, Arial, sans-serif" fill="#666">Nigeria</text><text x="292" y="463.7577182059894" font-size="11.37471852312432" font-family="Arial Narrow, Arial, sans-serif" fill="#666">Bangladesh</text><text x="558" y="191.98151130219549" font-size="11.3459847230411" font-family="Arial Narrow, Arial, sans-serif" fill="#666">Russia</text><text x="606" y="378.302307534435" font-size="11.30662573214803" font-family="Arial Narrow, Arial, sans-serif" fill="#666">Japan</text><text x="505" y="222.48564287080538" font-size="11.285099907021026" font-family="Arial Narrow, Arial, sans-serif" fill="#666">Mexico</text><text x="390" y="349.90895910650636" font-size="11.238086630923966" font-family="Arial Narrow, Arial, sans-serif" fill="#666">Philippines</text><text x="200" y="461.13616264927015" font-size="11.2144012884004" font-family="Arial Narrow, Arial, sans-serif" fill="#666">Ethiopia</text><text x="443" y="299.2076568291492" font-size="11.207171847980659" font-family="Arial Narrow, Arial, sans-serif" fill="#666">Egypt</text><text x="623" y="240.29490067026606" font-size="11.198494838557842" font-family="Arial Narrow, Arial, sans-serif" fill="#666">Germany</text><text x="503" y="301.4297978363006" font-size="11.185392178331764" font-family="Arial Narrow, Arial, sans-serif" fill="#666">Iran</text><text x="540" y="277.4564552238593" font-size="11.182848025659249" font-family="Arial Narrow, Arial, sans-serif" fill="#666">Turkey</text><text x="605" y="215.77865092633834" font-size="11.153275050248938" font-family="Arial Narrow, Arial, sans-serif" fill="#666">United Kingdom</text><text x="596" y="276.8364353942226" font-size="11.148201191971703" font-family="Arial Narrow, Arial, sans-serif" fill="#666">Italy</text><text x="472" y="261.128002052047" font-size="11.123666378369993" font-family="Arial Narrow, Arial, sans-serif" fill="#666">South Africa</text><text x="268" y="433.18311986028266" font-size="11.119228416849074" font-family="Arial Narrow, Arial, sans-serif" fill="#666">Tanzania</text><text x="347" y="503.1841329647503" font-size="11.11914743946824" font-family="Arial Narrow, Arial, sans-serif" fill="#666">Myanmar</text><text x="589" y="343.19462360657735" font-size="11.11831018685627" font-family="Arial Narrow, Arial, sans-serif" fill="#666">South Korea</text><text x="424" y="206.32093772606882" font-size="11.108410082993238" font-family="Arial Narrow, Arial, sans-serif" fill="#666">Ukraine</text><text x="286" y="396.34537374966453" font-size="11.106533440203709" font-family="Arial Narrow, Arial, sans-serif" fill="#666">Kenya</text><text x="550" y="179.52725692083433" font-size="11.092958110082384" font-family="Arial Narrow, Arial, sans-serif" fill="#666">Poland</text><text x="225" y="421.5801473387344" font-size="11.089140527647249" font-family="Arial Narrow, Arial, sans-serif" fill="#666">Uganda</text><text x="339" y="246.60799860708903" font-size="11.087153797278612" font-family="Arial Narrow, Arial, sans-serif" fill="#666">Sudan</text><text x="496" y="373.64803545236674" font-size="11.084326289320284" font-family="Arial Narrow, Arial, sans-serif" fill="#666">Iraq</text><text x="259" y="475.76203922156066" font-size="11.076458942032966" font-family="Arial Narrow, Arial, sans-serif" fill="#666">Nepal</text><text x="462" y="350.8147448809064" font-size="11.072913761233854" font-family="Arial Narrow, Arial, sans-serif" fill="#666">Peru</text><text x="641" y="273.84236790820916" font-size="11.071078969057956" font-family="Arial Narrow, Arial, sans-serif" fill="#666">Saudi Arabia</text><text x="328" y="402.9616508529819" font-size="11.063339394930129" font-family="Arial Narrow, Arial, sans-serif" fill="#666">Ghana</text><text x="524" y="341.1503443853177" font-size="11.051704732555304" font-family="Arial Narrow, Arial, sans-serif" fill="#666">Romania</text><text x="387" y="402.17585347137" font-size="11.05018908681301" font-family="Arial Narrow, Arial, sans-serif" fill="#666">Angola</text><text x="149" y="467.3222608258309" font-size="11.041753737433295" font-family="Arial Narrow, Arial, sans-serif" fill="#666">Niger</text><text x="629" y="189.3430447892975" font-size="11.040592645700436" font-family="Arial Narrow, Arial, sans-serif" fill="#666">Netherlands</text><text x="547" y="295.35224739063403" font-size="11.040081434106598" font-family="Arial Narrow, Arial, sans-serif" fill="#666">Kazakhstan</text><text x="173" y="446.35856023001594" font-size="11.039731776708782" font-family="Arial Narrow, Arial, sans-serif" fill="#666">Malawi</text><text x="402" y="153.397438420584" font-size="11.037596778785371" font-family="Arial Narrow, Arial, sans-serif" fill="#666">Guatemala</text><text x="298" y="371.43654644549804" font-size="11.035481097836994" font-family="Arial Narrow, Arial, sans-serif" fill="#666">Cambodia</text><text x="321" y="435.452035028218" font-size="11.034652045896344" font-family="Arial Narrow, Arial, sans-serif" fill="#666">Zambia</text><text x="244" y="307.49731967475674" font-size="11.032256930350188" font-family="Arial Narrow, Arial, sans-serif" fill="#666">Zimbabwe</text><text x="551" y="309.5860697948974" font-size="11.027687486189084" font-family="Arial Narrow, Arial, sans-serif" fill="#666">Greece</text><text x="617" y="147.61651774430322" font-size="11.026157830359702" font-family="Arial Narrow, Arial, sans-serif" fill="#666">Belgium</text><text x="225" y="385.6373833109162" font-size="11.025120790167295" font-family="Arial Narrow, Arial, sans-serif" fill="#666">Haiti</text><text x="547" y="364.65979423137753" font-size="11.024017100705985" font-family="Arial Narrow, Arial, sans-serif" fill="#666">Hungary</text><text x="246" y="451.676060326627" font-size="11.023222618794804" font-family="Arial Narrow, Arial, sans-serif" fill="#666">Benin</text><text x="339" y="191.7539277098947" font-size="11.019496115277907" font-family="Arial Narrow, Arial, sans-serif" fill="#666">Honduras</text><text x="585" y="326.767004870954" font-size="11.01888273516649" font-family="Arial Narrow, Arial, sans-serif" fill="#666">Israel</text><text x="656" y="104.01874426083495" font-size="11.018744260834952" font-family="Arial Narrow, Arial, sans-serif" fill="#666">Switzerland</text><text x="422" y="322.82062839071773" font-size="11.016404996278826" font-family="Arial Narrow, Arial, sans-serif" fill="#666">Paraguay</text><text x="357" y="473.83875118625826" font-size="11.01558122694942" font-family="Arial Narrow, Arial, sans-serif" fill="#666">Laos</text><text x="195" y="419.84123852806783" font-size="11.01546870198902" font-family="Arial Narrow, Arial, sans-serif" fill="#666">Togo</text><text x="352" y="225.86124080243493" font-size="11.014568529010209" font-family="Arial Narrow, Arial, sans-serif" fill="#666">Nicaragua</text><text x="565" y="253.89142365467626" font-size="11.013226056295466" font-family="Arial Narrow, Arial, sans-serif" fill="#666">Slovakia</text><text x="613" y="296.8952758756804" font-size="11.013056090220788" font-family="Arial Narrow, Arial, sans-serif" fill="#666">Finland</text><text x="669" y="285.9189117240192" font-size="11.012020042945656" font-family="Arial Narrow, Arial, sans-serif" fill="#666">Norway</text><text x="487" y="147.92627914660193" font-size="11.01169949331844" font-family="Arial Narrow, Arial, sans-serif" fill="#666">Costa Rica</text><text x="594" y="129.94603698545808" font-size="11.010845460647221" font-family="Arial Narrow, Arial, sans-serif" fill="#666">New Zealand</text><text x="369" y="377.9564452956926" font-size="11.010398849368292" font-family="Arial Narrow, Arial, sans-serif" fill="#666">Congo</text><text x="422" y="256.95904415206803" font-size="11.010287688758774" font-family="Arial Narrow, Arial, sans-serif" fill="#666">Georgia</text><text x="558" y="265.0166547493253" font-size="11.007859840929799" font-family="Arial Narrow, Arial, sans-serif" fill="#666">Lithuania</text><text x="414" y="276.02606389767556" font-size="11.007469920614929" font-family="Arial Narrow, Arial, sans-serif" fill="#666">Armenia</text><text x="454" y="406.03960805803064" font-size="11.006911898676409" font-family="Arial Narrow, Arial, sans-serif" fill="#666">Mongolia</text><text x="419" y="171.0465194540522" font-size="11.006628628359067" font-family="Arial Narrow, Arial, sans-serif" fill="#666">Jamaica</text><text x="500" y="318.08829782630175" font-size="11.004937602836634" font-family="Arial Narrow, Arial, sans-serif" fill="#666">Botswana</text><text x="467" y="238.0886250920137" font-size="11.004924500698358" font-family="Arial Narrow, Arial, sans-serif" fill="#666">Macedonia</text><text x="507" y="397.11765207873253" font-size="11.003771323171682" font-family="Arial Narrow, Arial, sans-serif" fill="#666">Gabon</text><text x="294" y="257.1583721381258" font-size="11.002183347411261" font-family="Arial Narrow, Arial, sans-serif" fill="#666">Djibouti</text><text x="498" y="192.18379985964162" font-size="11.001209346541557" font-family="Arial Narrow, Arial, sans-serif" fill="#666">Suriname</text><text x="653.6133719216054" y="394.1843656621164" font-size="11.001187827669277" font-family="Arial Narrow, Arial, sans-serif" fill="#666">Luxembourg</text><text x="498" y="104.00056907026746" font-size="11.000569070267463" font-family="Arial Narrow, Arial, sans-serif" fill="#666">Barbados</text><text x="239" y="171.2117538157528" font-size="11.000154205637086" font-family="Arial Narrow, Arial, sans-serif" fill="#666">Kiribati</text><text x="643" y="328.2142781023862" font-size="11.000059730407665" font-family="Arial Narrow, Arial, sans-serif" fill="#666">Bermuda</text><text x="488" y="355.21852403592294" font-size="10.999901120976096" font-family="Arial Narrow, Arial, sans-serif" fill="#666">World</text></g><g style="cursor: pointer;" class="ScatterColorLegend clickable"><g class="legendMark"><rect x="735" y="90.5" width="43.256" height="17.6" fill="#fff" opacity="0"></rect>,<rect x="735" y="96" width="6" height="6" fill="#5675c1"></rect>,<text font-size="12.60" x="746.0" y="103.1"><tspan x="746" y="103.08">Africa</tspan></text></g><g class="legendMark"><rect x="735" y="108.1" width="35.57" height="17.6" fill="#fff" opacity="0"></rect>,<rect x="735" y="113.6" width="6" height="6" fill="#d14e5b"></rect>,<text font-size="12.60" x="746.0" y="120.7"><tspan x="746" y="120.67999999999999">Asia</tspan></text></g><g class="legendMark"><rect x="735" y="125.69999999999999" width="51.824" height="17.6" fill="#fff" opacity="0"></rect>,<rect x="735" y="131.2" width="6" height="6" fill="#ffd336"></rect>,<text font-size="12.60" x="746.0" y="138.3"><tspan x="746" y="138.27999999999997">Europe</tspan></text></g><g class="legendMark"><rect x="735" y="143.3" width="91.64" height="17.6" fill="#fff" opacity="0"></rect>,<rect x="735" y="148.8" width="6" height="6" fill="#4d824b"></rect>,<text font-size="12.60" x="746.0" y="155.9"><tspan x="746" y="155.88">North America</tspan></text></g><g class="legendMark"><rect x="735" y="160.9" width="58.124" height="17.6" fill="#fff" opacity="0"></rect>,<rect x="735" y="166.4" width="6" height="6" fill="#a652ba"></rect>,<text font-size="12.60" x="746.0" y="173.5"><tspan x="746" y="173.48">Oceania</tspan></text></g><g class="legendMark"><rect x="735" y="178.5" width="93.908" height="17.6" fill="#fff" opacity="0"></rect>,<rect x="735" y="184" width="6" height="6" fill="#69c487"></rect>,<text font-size="12.60" x="746.0" y="191.1"><tspan x="746" y="191.07999999999998">South America</tspan></text></g></g></g><g style="fill: #777;" class="SourcesFooter"><g style="fill: #777;" class="clickable"><text font-size="12.60" x="15.0" y="581.6"><tspan x="15" y="581.58">Source: Food Balance Sheets - FAO (2017), World Bank – WDI</tspan></text></g><text font-size="12.60" x="649.0" y="581.6"><tspan x="649.024" y="581.58"><a target='_blank' style='fill: #777;' href='https://ourworldindata.org'>OurWorldInData.org</a> • <a style="fill: #777;" href="http://creativecommons.org/licenses/by-sa/4.0/deed.en_US" target="_blank">CC BY-SA</a></tspan></text></g></g></svg>