<svg xmlns="http://www.w3.org/2000/svg" version="1.1" style="font-family: 'Helvetica Neue', Helvetica, Arial, sans-serif; font-size: 18px; background-color: white; text-rendering: optimizeLegibility; -webkit-font-smoothing: antialiased;" width="850" height="600"><g class="ChartTab"><g class="HeaderView"><g opacity="0.8" transform="translate(778, 15) scale(0.27)"><a xmlns:xlink="http://www.w3.org/1999/xlink" xlink:href="https://ourworldindata.org" target="_blank"><g><rect x="0" y="0" fill="#1B2543" width="211.2" height="130.1"/><rect x="0" y="112.2" fill="#E63912" width="211.2" height="17.9"/><g><rect x="1.2" y="12.3" fill="none" width="210.2" height="99.2"/><path fill="#FFFFFF" d="M37.8,32.2c0,12.7-7.7,19.4-17.1,19.4c-9.7,0-16.6-7.5-16.6-18.7c0-11.7,7.3-19.3,17.1-19.3 C31.3,13.7,37.8,21.3,37.8,32.2z M9.2,32.8c0,7.9,4.3,14.9,11.8,14.9c7.5,0,11.8-6.9,11.8-15.3c0-7.3-3.8-14.9-11.8-14.9 C13.1,17.5,9.2,24.8,9.2,32.8z"/><path fill="#FFFFFF" d="M62.7,43.8c0,2.7,0.1,5.1,0.2,7.2h-4.3l-0.3-4.3h-0.1c-1.3,2.1-4,4.9-8.8,4.9c-4.2,0-9.1-2.3-9.1-11.6 V24.6h4.8v14.6c0,5,1.5,8.4,5.9,8.4c3.2,0,5.5-2.2,6.3-4.4c0.3-0.7,0.4-1.6,0.4-2.5V24.6h4.8V43.8z"/><path fill="#FFFFFF" d="M67.3,32.8c0-3.1-0.1-5.8-0.2-8.2h4.2l0.2,5.2h0.2c1.2-3.5,4.1-5.8,7.3-5.8c0.5,0,0.9,0.1,1.4,0.2v4.5 c-0.5-0.1-1-0.2-1.6-0.2c-3.4,0-5.8,2.6-6.5,6.2c-0.1,0.7-0.2,1.4-0.2,2.2V51h-4.8V32.8z"/><path fill="#FFFFFF" d="M95.4,51l-9.4-36.8h5l4.4,18.6c1.1,4.6,2.1,9.2,2.7,12.7h0.1c0.6-3.7,1.8-8,3-12.8l4.9-18.5h5l4.5,18.7 c1,4.4,2,8.7,2.6,12.6h0.1c0.8-4,1.8-8.1,3-12.7l4.9-18.5h4.9L120.6,51h-5L111,31.9c-1.1-4.7-1.9-8.3-2.4-12h-0.1 c-0.7,3.7-1.5,7.3-2.8,12L100.4,51H95.4z"/><path fill="#FFFFFF" d="M154.9,37.6c0,9.8-6.8,14-13.2,14c-7.2,0-12.7-5.2-12.7-13.6c0-8.8,5.8-14,13.1-14 C149.8,24,154.9,29.5,154.9,37.6z M133.9,37.9c0,5.8,3.3,10.1,8,10.1c4.6,0,8-4.3,8-10.3c0-4.5-2.2-10.1-7.9-10.1 C136.3,27.6,133.9,32.8,133.9,37.9z"/><path fill="#FFFFFF" d="M158.2,32.8c0-3.1-0.1-5.8-0.2-8.2h4.2l0.2,5.2h0.2c1.2-3.5,4.1-5.8,7.3-5.8c0.5,0,0.9,0.1,1.4,0.2v4.5 c-0.5-0.1-1-0.2-1.6-0.2c-3.4,0-5.8,2.6-6.5,6.2c-0.1,0.7-0.2,1.4-0.2,2.2V51h-4.8V32.8z"/><path fill="#FFFFFF" d="M173.5,12.3h4.8V51h-4.8V12.3z"/><path fill="#FFFFFF" d="M206.5,12.3v31.9c0,2.3,0.1,5,0.2,6.8h-4.3l-0.2-4.6H202c-1.5,2.9-4.7,5.2-9,5.2 c-6.4,0-11.3-5.4-11.3-13.4c-0.1-8.8,5.4-14.2,11.9-14.2c4,0,6.8,1.9,8,4h0.1V12.3H206.5z M201.7,35.4c0-0.6-0.1-1.4-0.2-2 c-0.7-3.1-3.3-5.6-6.9-5.6c-5,0-7.9,4.4-7.9,10.2c0,5.3,2.6,9.8,7.8,9.8c3.2,0,6.2-2.1,7.1-5.7c0.2-0.7,0.2-1.3,0.2-2.1V35.4z"/><path fill="#FFFFFF" d="M42.8,64c0.1,1.6-1.1,2.9-3.1,2.9c-1.7,0-2.9-1.3-2.9-2.9c0-1.7,1.3-3,3-3C41.7,61,42.8,62.3,42.8,64z M37.4,97.8V71.4h4.8v26.4H37.4z"/><path fill="#FFFFFF" d="M47.5,78.6c0-2.7-0.1-5-0.2-7.1h4.3l0.3,4.4h0.1c1.3-2.5,4.4-5,8.8-5c3.7,0,9.4,2.2,9.4,11.2v15.8h-4.8 V82.6c0-4.3-1.6-7.8-6.1-7.8c-3.2,0-5.6,2.2-6.5,4.9c-0.2,0.6-0.3,1.4-0.3,2.2v15.9h-4.8V78.6z"/><path fill="#FFFFFF" d="M84,61.6c2.9-0.4,6.3-0.8,10.1-0.8c6.8,0,11.7,1.6,14.9,4.6c3.3,3,5.2,7.3,5.2,13.2c0,6-1.9,10.9-5.3,14.3 c-3.4,3.4-9.1,5.3-16.3,5.3c-3.4,0-6.2-0.2-8.6-0.4V61.6z M88.8,94.1c1.2,0.2,3,0.3,4.8,0.3c10.2,0,15.7-5.7,15.7-15.6 c0.1-8.7-4.9-14.2-14.9-14.2c-2.5,0-4.3,0.2-5.6,0.5V94.1z"/><path fill="#FFFFFF" d="M132.1,97.8l-0.4-3.3h-0.2c-1.5,2.1-4.3,3.9-8.1,3.9c-5.4,0-8.1-3.8-8.1-7.6c0-6.4,5.7-9.9,15.9-9.8v-0.5 c0-2.2-0.6-6.1-6-6.1c-2.5,0-5,0.8-6.9,2l-1.1-3.2c2.2-1.4,5.4-2.3,8.7-2.3c8.1,0,10.1,5.5,10.1,10.8v9.9c0,2.3,0.1,4.5,0.4,6.3 H132.1z M131.4,84.4c-5.3-0.1-11.2,0.8-11.2,5.9c0,3.1,2.1,4.6,4.5,4.6c3.4,0,5.6-2.2,6.4-4.4c0.2-0.5,0.3-1,0.3-1.5V84.4z"/><path fill="#FFFFFF" d="M146.6,63.9v7.6h6.9v3.7h-6.9v14.2c0,3.3,0.9,5.1,3.6,5.1c1.3,0,2.2-0.2,2.8-0.3l0.2,3.6 c-0.9,0.4-2.4,0.7-4.3,0.7c-2.2,0-4-0.7-5.2-2c-1.4-1.4-1.9-3.8-1.9-6.9V75.1h-4.1v-3.7h4.1v-6.3L146.6,63.9z"/><path fill="#FFFFFF" d="M171.4,97.8l-0.4-3.3h-0.2c-1.5,2.1-4.3,3.9-8.1,3.9c-5.4,0-8.1-3.8-8.1-7.6c0-6.4,5.7-9.9,15.9-9.8v-0.5 c0-2.2-0.6-6.1-6-6.1c-2.5,0-5,0.8-6.9,2l-1.1-3.2c2.2-1.4,5.4-2.3,8.7-2.3c8.1,0,10.1,5.5,10.1,10.8v9.9c0,2.3,0.1,4.5,0.4,6.3 H171.4z M170.7,84.4c-5.3-0.1-11.2,0.8-11.2,5.9c0,3.1,2.1,4.6,4.5,4.6c3.4,0,5.6-2.2,6.4-4.4c0.2-0.5,0.3-1,0.3-1.5V84.4z"/></g></g></a></g><a href="https://ourworldindata.org/grapher/percentage-of-americans-living-alone-by-year" target="_blank"><text font-size="25.20" x="15.0" y="35.2" fill="#555"><tspan x="15" y="35.160000000000004">Percentage of Americans living alone (1900-2016)</tspan></text></a><text font-size="14.40" x="15.0" y="53.7" fill="#666"><tspan x="15" y="53.72">The share of Americans living alone, by age (18-89), with age on the x-axis. An individual is defined as living alone</tspan><tspan x="15" y="69.56">where there is one person in the household and those who do not live in group quarters. See the source tab for more</tspan><tspan x="15" y="85.4">details.</tspan></text></g><g class="LineChart"><defs><clipPath id="boundsClip-1"><rect x="42.562" y="0" width="830" height="897.8"></rect></clipPath></defs><g class="AxisBoxView"><g class="HorizontalAxis"><text x="52.6" y="556.5" fill="#666" text-anchor="middle" font-size="16.2">18</text><text x="168.3" y="556.5" fill="#666" text-anchor="middle" font-size="16.2">30</text><text x="264.8" y="556.5" fill="#666" text-anchor="middle" font-size="16.2">40</text><text x="361.2" y="556.5" fill="#666" text-anchor="middle" font-size="16.2">50</text><text x="457.7" y="556.5" fill="#666" text-anchor="middle" font-size="16.2">60</text><text x="554.1" y="556.5" fill="#666" text-anchor="middle" font-size="16.2">70</text><text x="650.6" y="556.5" fill="#666" text-anchor="middle" font-size="16.2">80</text><text x="737.4" y="556.5" fill="#666" text-anchor="middle" font-size="16.2">89</text></g><g class="VerticalAxis"><text x="47.56" y="535.3" fill="#666" dominant-baseline="middle" text-anchor="end" font-size="16.2">0%</text><text x="47.56" y="482.9" fill="#666" dominant-baseline="middle" text-anchor="end" font-size="16.2">5%</text><text x="47.56" y="430.6" fill="#666" dominant-baseline="middle" text-anchor="end" font-size="16.2">10%</text><text x="47.56" y="378.2" fill="#666" dominant-baseline="middle" text-anchor="end" font-size="16.2">15%</text><text x="47.56" y="325.9" fill="#666" dominant-baseline="middle" text-anchor="end" font-size="16.2">20%</text><text x="47.56" y="273.5" fill="#666" dominant-baseline="middle" text-anchor="end" font-size="16.2">25%</text><text x="47.56" y="221.1" fill="#666" dominant-baseline="middle" text-anchor="end" font-size="16.2">30%</text><text x="47.56" y="168.8" fill="#666" dominant-baseline="middle" text-anchor="end" font-size="16.2">35%</text><text x="47.56" y="116.4" fill="#666" dominant-baseline="middle" text-anchor="end" font-size="16.2">40%</text></g><g class="AxisGridLines"><line x1="52.56" y1="535.3" x2="737.36" y2="535.3" stroke="#ccc"></line><line x1="52.56" y1="482.9" x2="737.36" y2="482.9" stroke="#ddd" stroke-dasharray="3,2"></line><line x1="52.56" y1="430.6" x2="737.36" y2="430.6" stroke="#ddd" stroke-dasharray="3,2"></line><line x1="52.56" y1="378.2" x2="737.36" y2="378.2" stroke="#ddd" stroke-dasharray="3,2"></line><line x1="52.56" y1="325.9" x2="737.36" y2="325.9" stroke="#ddd" stroke-dasharray="3,2"></line><line x1="52.56" y1="273.5" x2="737.36" y2="273.5" stroke="#ddd" stroke-dasharray="3,2"></line><line x1="52.56" y1="221.1" x2="737.36" y2="221.1" stroke="#ddd" stroke-dasharray="3,2"></line><line x1="52.56" y1="168.8" x2="737.36" y2="168.8" stroke="#ddd" stroke-dasharray="3,2"></line><line x1="52.56" y1="116.4" x2="737.36" y2="116.4" stroke="#ddd" stroke-dasharray="3,2"></line></g></g><g clip-path="url(#boundsClip-1)"><g class="HeightedLegend clickable"><g class="legendMark"><g class="indicator"><line x1="742.36" y1="107.6" x2="764.86" y2="107.6" stroke="#666" stroke-width="0.5"></line><line x1="764.86" y1="107.6" x2="764.86" y2="107.6" stroke="#666" stroke-width="0.5"></line><line x1="764.86" y1="107.6" x2="767.36" y2="107.6" stroke="#666" stroke-width="0.5"></line></g><rect x="737.36" y="100.85" width="97.64" height="13.5" fill="#fff" opacity="0"></rect><text font-size="13.50" x="772.4" y="111.6" fill="#e6332e"><tspan x="772.36" y="111.64999999999999">Year 2000</tspan></text></g><g class="legendMark"><g class="indicator"><line x1="742.36" y1="116.6" x2="754.86" y2="116.6" stroke="#666" stroke-width="0.5"></line><line x1="754.86" y1="116.6" x2="754.86" y2="123.1" stroke="#666" stroke-width="0.5"></line><line x1="754.86" y1="123.1" x2="767.36" y2="123.1" stroke="#666" stroke-width="0.5"></line></g><rect x="737.36" y="116.35" width="97.64" height="13.5" fill="#fff" opacity="0"></rect><text font-size="13.50" x="772.4" y="127.1" fill="#2a939b"><tspan x="772.36" y="127.14999999999999">Year 2016</tspan></text></g><g class="legendMark"><g class="indicator"><line x1="742.36" y1="229.9" x2="754.86" y2="229.9" stroke="#666" stroke-width="0.5"></line><line x1="754.86" y1="229.9" x2="754.86" y2="229.9" stroke="#666" stroke-width="0.5"></line><line x1="754.86" y1="229.9" x2="767.36" y2="229.9" stroke="#666" stroke-width="0.5"></line></g><rect x="737.36" y="223.15" width="97.64" height="13.5" fill="#fff" opacity="0"></rect><text font-size="13.50" x="772.4" y="234.0" fill="#a652ba"><tspan x="772.36" y="233.95000000000002">Year 1980</tspan></text></g><g class="legendMark"><g class="indicator"><line x1="742.36" y1="383.3" x2="754.86" y2="383.3" stroke="#666" stroke-width="0.5"></line><line x1="754.86" y1="383.3" x2="754.86" y2="383.3" stroke="#666" stroke-width="0.5"></line><line x1="754.86" y1="383.3" x2="767.36" y2="383.3" stroke="#666" stroke-width="0.5"></line></g><rect x="737.36" y="376.55" width="97.64" height="13.5" fill="#fff" opacity="0"></rect><text font-size="13.50" x="772.4" y="387.4" fill="#f6a324"><tspan x="772.36" y="387.35">Year 1960</tspan></text></g><g class="legendMark"><g class="indicator"><line x1="742.36" y1="443.4" x2="754.86" y2="443.4" stroke="#666" stroke-width="0.5"></line><line x1="754.86" y1="443.4" x2="754.86" y2="443.4" stroke="#666" stroke-width="0.5"></line><line x1="754.86" y1="443.4" x2="767.36" y2="443.4" stroke="#666" stroke-width="0.5"></line></g><rect x="737.36" y="436.65" width="97.64" height="13.5" fill="#fff" opacity="0"></rect><text font-size="13.50" x="772.4" y="447.4" fill="#34983f"><tspan x="772.36" y="447.45">Year 1940</tspan></text></g><g class="legendMark"><g class="indicator"><line x1="742.36" y1="469.5" x2="754.86" y2="469.5" stroke="#666" stroke-width="0.5"></line><line x1="754.86" y1="469.5" x2="754.86" y2="469.5" stroke="#666" stroke-width="0.5"></line><line x1="754.86" y1="469.5" x2="767.36" y2="469.5" stroke="#666" stroke-width="0.5"></line></g><rect x="737.36" y="462.75" width="97.64" height="13.5" fill="#fff" opacity="0"></rect><text font-size="13.50" x="772.4" y="473.6" fill="#ca2628"><tspan x="772.36" y="473.55">Year 1920</tspan></text></g><g class="legendMark"><g class="indicator"><line x1="742.36" y1="492.2" x2="754.86" y2="492.2" stroke="#666" stroke-width="0.5"></line><line x1="754.86" y1="492.2" x2="754.86" y2="492.2" stroke="#666" stroke-width="0.5"></line><line x1="754.86" y1="492.2" x2="767.36" y2="492.2" stroke="#666" stroke-width="0.5"></line></g><rect x="737.36" y="485.45" width="97.64" height="13.5" fill="#fff" opacity="0"></rect><text font-size="13.50" x="772.4" y="496.3" fill="#3360a9"><tspan x="772.36" y="496.25">Year 1900</tspan></text></g></g><g class="Lines"><rect x="53" y="108" width="685" height="428" fill="rgba(255,255,255,0)" opacity="0"></rect><g class="key-Year-1900_0"><path stroke="#3360a9" stroke-linecap="round" d="M53 532L62 530L72 528L82 526L91 525L101 523L110 524L120 521L130 522L139 523L149 522L159 522L168 520L178 523L188 522L197 521L207 521L217 518L226 522L236 521L246 521L255 519L265 516L274 520L284 520L294 520L303 520L313 513L323 518L332 518L342 515L352 514L361 507L371 513L381 512L390 512L400 509L409 503L419 507L429 507L438 504L448 500L458 490L467 495L477 492L487 493L496 494L506 481L516 486L525 481L535 482L545 478L554 469L564 476L573 472L583 475L593 476L602 470L612 458L622 466L631 461L641 456L651 458L660 457L670 462L680 468L689 466L699 461L708 483L718 467L728 472L737 492" fill="none" stroke-width="1.5"></path></g><g class="key-Year-1920_0"><path stroke="#ca2628" stroke-linecap="round" d="M53 530L62 530L72 529L82 528L91 527L101 526L110 526L120 525L130 525L139 525L149 524L159 524L168 521L178 524L188 521L197 522L207 520L217 518L226 520L236 521L246 518L255 518L265 512L274 519L284 519L294 515L303 518L313 509L323 512L332 514L342 508L352 510L361 506L371 509L381 506L390 504L400 504L409 497L419 497L429 495L438 498L448 496L458 482L467 489L477 478L487 482L496 479L506 472L516 477L525 474L535 465L545 472L554 459L564 470L573 450L583 452L593 456L602 446L612 464L622 451L631 452L641 454L651 441L660 453L670 451L680 446L689 459L699 468L708 474L718 503L728 477L737 470" fill="none" stroke-width="1.5"></path></g><g class="key-Year-1940_0"><path stroke="#34983f" stroke-linecap="round" d="M53 534L62 532L72 531L82 528L91 528L101 526L110 524L120 524L130 525L139 526L149 524L159 524L168 519L178 523L188 522L197 520L207 520L217 517L226 517L236 518L246 516L255 512L265 512L274 514L284 512L294 512L303 512L313 506L323 510L332 508L342 504L352 503L361 499L371 502L381 500L390 499L400 495L409 484L419 484L429 484L438 481L448 478L458 469L467 472L477 471L487 465L496 458L506 449L516 447L525 436L535 437L545 426L554 426L564 426L573 418L583 406L593 417L602 408L612 418L622 416L631 402L641 411L651 403L660 407L670 423L680 421L689 411L699 430L708 430L718 437L728 471L737 443" fill="none" stroke-width="1.5"></path></g><g class="key-Year-1960_0"><path stroke="#f6a324" stroke-linecap="round" d="M53 530L62 525L72 522L82 518L91 515L101 515L110 513L120 513L130 512L139 511L149 511L159 510L168 510L178 511L188 511L197 511L207 510L217 509L226 510L236 509L246 508L255 506L265 505L274 503L284 503L294 500L303 497L313 495L323 493L332 491L342 487L352 479L361 478L371 475L381 470L390 467L400 459L409 453L419 447L429 443L438 438L448 428L458 421L467 415L477 410L487 404L496 396L506 386L516 381L525 372L535 365L545 356L554 348L564 339L573 336L583 330L593 323L602 319L612 319L622 312L631 312L641 313L651 312L660 318L670 324L680 334L689 333L699 339L708 351L718 367L728 371L737 383" fill="none" stroke-width="1.5"></path></g><g class="key-Year-1980_0"><path stroke="#a652ba" stroke-linecap="round" d="M53 524L62 510L72 493L82 477L91 455L101 438L110 431L120 427L130 428L139 430L149 432L159 436L168 441L178 447L188 453L197 459L207 462L217 464L226 471L236 474L246 476L255 473L265 473L274 475L284 477L294 475L303 473L313 471L323 469L332 467L342 464L352 459L361 454L371 451L381 447L390 444L400 438L409 431L419 427L429 420L438 414L448 406L458 393L467 388L477 376L487 365L496 354L506 340L516 326L525 313L535 298L545 282L554 273L564 257L573 246L583 229L593 215L602 203L612 194L622 180L631 169L641 167L651 151L660 153L670 157L680 159L689 164L699 174L708 179L718 195L728 205L737 230" fill="none" stroke-width="1.5"></path></g><g class="key-Year-2000_0"><path stroke="#e6332e" stroke-linecap="round" d="M53 526L62 513L72 499L82 485L91 467L101 450L110 443L120 437L130 436L139 437L149 433L159 433L168 433L178 440L188 441L197 443L207 443L217 443L226 446L236 447L246 445L255 445L265 440L274 440L284 437L294 436L303 432L313 425L323 425L332 420L342 414L352 411L361 405L371 402L381 401L390 396L400 390L409 387L419 384L429 382L438 381L448 376L458 371L467 373L477 364L487 359L496 352L506 334L516 335L525 326L535 315L545 314L554 302L564 292L573 278L583 264L593 249L602 233L612 220L622 211L631 194L641 184L651 170L660 159L670 149L680 134L689 127L699 120L708 117L718 115L728 114L737 108" fill="none" stroke-width="1.5"></path></g><g class="key-Year-2016_0"><path stroke="#2a939b" stroke-linecap="round" d="M53 530L62 523L72 507L82 500L91 483L101 466L110 455L120 450L130 443L139 436L149 436L159 440L168 436L178 442L188 438L197 443L207 444L217 446L226 450L236 452L246 452L255 456L265 449L274 452L284 454L294 446L303 445L313 436L323 434L332 434L342 425L352 424L361 407L371 405L381 404L390 396L400 387L409 380L419 376L429 369L438 360L448 358L458 348L467 350L477 339L487 336L496 332L506 324L516 320L525 320L535 316L545 308L554 306L564 300L573 293L583 290L593 280L602 273L612 273L622 260L631 245L641 239L651 226L660 206L670 209L680 197L689 173L699 182L708 145L718 132L728 120L737 117" fill="none" stroke-width="1.5"></path></g></g></g></g><g style="fill: #777;" class="SourcesFooter"><g style="fill: #777;" class="clickable"><text font-size="12.60" x="15.0" y="581.6"><tspan x="15" y="581.58">Source: IPUMS</tspan></text></g><text font-size="12.60" x="775.4" y="581.6"><tspan x="775.402" y="581.58"><a style="fill: #777;" class="cclogo" href="http://creativecommons.org/licenses/by-sa/4.0/deed.en_US" target="_blank">CC BY-SA</a></tspan></text></g></g></svg>