<svg xmlns="http://www.w3.org/2000/svg" version="1.1" style="font-family: 'Helvetica Neue', Helvetica, Arial, sans-serif; font-size: 18px; background-color: white; text-rendering: optimizeLegibility; -webkit-font-smoothing: antialiased;" width="850" height="600"><g class="ChartTab"><g class="HeaderView"><g opacity="0.8" transform="translate(770, 15) scale(0.31)"><a xmlns:xlink="http://www.w3.org/1999/xlink" xlink:href="https://ourworldindata.org" target="_blank"><g><rect x="0" y="0" fill="#1B2543" width="211.2" height="130.1"/><rect x="0" y="112.2" fill="#E63912" width="211.2" height="17.9"/><g><rect x="1.2" y="12.3" fill="none" width="210.2" height="99.2"/><path fill="#FFFFFF" d="M37.8,32.2c0,12.7-7.7,19.4-17.1,19.4c-9.7,0-16.6-7.5-16.6-18.7c0-11.7,7.3-19.3,17.1-19.3 C31.3,13.7,37.8,21.3,37.8,32.2z M9.2,32.8c0,7.9,4.3,14.9,11.8,14.9c7.5,0,11.8-6.9,11.8-15.3c0-7.3-3.8-14.9-11.8-14.9 C13.1,17.5,9.2,24.8,9.2,32.8z"/><path fill="#FFFFFF" d="M62.7,43.8c0,2.7,0.1,5.1,0.2,7.2h-4.3l-0.3-4.3h-0.1c-1.3,2.1-4,4.9-8.8,4.9c-4.2,0-9.1-2.3-9.1-11.6 V24.6h4.8v14.6c0,5,1.5,8.4,5.9,8.4c3.2,0,5.5-2.2,6.3-4.4c0.3-0.7,0.4-1.6,0.4-2.5V24.6h4.8V43.8z"/><path fill="#FFFFFF" d="M67.3,32.8c0-3.1-0.1-5.8-0.2-8.2h4.2l0.2,5.2h0.2c1.2-3.5,4.1-5.8,7.3-5.8c0.5,0,0.9,0.1,1.4,0.2v4.5 c-0.5-0.1-1-0.2-1.6-0.2c-3.4,0-5.8,2.6-6.5,6.2c-0.1,0.7-0.2,1.4-0.2,2.2V51h-4.8V32.8z"/><path fill="#FFFFFF" d="M95.4,51l-9.4-36.8h5l4.4,18.6c1.1,4.6,2.1,9.2,2.7,12.7h0.1c0.6-3.7,1.8-8,3-12.8l4.9-18.5h5l4.5,18.7 c1,4.4,2,8.7,2.6,12.6h0.1c0.8-4,1.8-8.1,3-12.7l4.9-18.5h4.9L120.6,51h-5L111,31.9c-1.1-4.7-1.9-8.3-2.4-12h-0.1 c-0.7,3.7-1.5,7.3-2.8,12L100.4,51H95.4z"/><path fill="#FFFFFF" d="M154.9,37.6c0,9.8-6.8,14-13.2,14c-7.2,0-12.7-5.2-12.7-13.6c0-8.8,5.8-14,13.1-14 C149.8,24,154.9,29.5,154.9,37.6z M133.9,37.9c0,5.8,3.3,10.1,8,10.1c4.6,0,8-4.3,8-10.3c0-4.5-2.2-10.1-7.9-10.1 C136.3,27.6,133.9,32.8,133.9,37.9z"/><path fill="#FFFFFF" d="M158.2,32.8c0-3.1-0.1-5.8-0.2-8.2h4.2l0.2,5.2h0.2c1.2-3.5,4.1-5.8,7.3-5.8c0.5,0,0.9,0.1,1.4,0.2v4.5 c-0.5-0.1-1-0.2-1.6-0.2c-3.4,0-5.8,2.6-6.5,6.2c-0.1,0.7-0.2,1.4-0.2,2.2V51h-4.8V32.8z"/><path fill="#FFFFFF" d="M173.5,12.3h4.8V51h-4.8V12.3z"/><path fill="#FFFFFF" d="M206.5,12.3v31.9c0,2.3,0.1,5,0.2,6.8h-4.3l-0.2-4.6H202c-1.5,2.9-4.7,5.2-9,5.2 c-6.4,0-11.3-5.4-11.3-13.4c-0.1-8.8,5.4-14.2,11.9-14.2c4,0,6.8,1.9,8,4h0.1V12.3H206.5z M201.7,35.4c0-0.6-0.1-1.4-0.2-2 c-0.7-3.1-3.3-5.6-6.9-5.6c-5,0-7.9,4.4-7.9,10.2c0,5.3,2.6,9.8,7.8,9.8c3.2,0,6.2-2.1,7.1-5.7c0.2-0.7,0.2-1.3,0.2-2.1V35.4z"/><path fill="#FFFFFF" d="M42.8,64c0.1,1.6-1.1,2.9-3.1,2.9c-1.7,0-2.9-1.3-2.9-2.9c0-1.7,1.3-3,3-3C41.7,61,42.8,62.3,42.8,64z M37.4,97.8V71.4h4.8v26.4H37.4z"/><path fill="#FFFFFF" d="M47.5,78.6c0-2.7-0.1-5-0.2-7.1h4.3l0.3,4.4h0.1c1.3-2.5,4.4-5,8.8-5c3.7,0,9.4,2.2,9.4,11.2v15.8h-4.8 V82.6c0-4.3-1.6-7.8-6.1-7.8c-3.2,0-5.6,2.2-6.5,4.9c-0.2,0.6-0.3,1.4-0.3,2.2v15.9h-4.8V78.6z"/><path fill="#FFFFFF" d="M84,61.6c2.9-0.4,6.3-0.8,10.1-0.8c6.8,0,11.7,1.6,14.9,4.6c3.3,3,5.2,7.3,5.2,13.2c0,6-1.9,10.9-5.3,14.3 c-3.4,3.4-9.1,5.3-16.3,5.3c-3.4,0-6.2-0.2-8.6-0.4V61.6z M88.8,94.1c1.2,0.2,3,0.3,4.8,0.3c10.2,0,15.7-5.7,15.7-15.6 c0.1-8.7-4.9-14.2-14.9-14.2c-2.5,0-4.3,0.2-5.6,0.5V94.1z"/><path fill="#FFFFFF" d="M132.1,97.8l-0.4-3.3h-0.2c-1.5,2.1-4.3,3.9-8.1,3.9c-5.4,0-8.1-3.8-8.1-7.6c0-6.4,5.7-9.9,15.9-9.8v-0.5 c0-2.2-0.6-6.1-6-6.1c-2.5,0-5,0.8-6.9,2l-1.1-3.2c2.2-1.4,5.4-2.3,8.7-2.3c8.1,0,10.1,5.5,10.1,10.8v9.9c0,2.3,0.1,4.5,0.4,6.3 H132.1z M131.4,84.4c-5.3-0.1-11.2,0.8-11.2,5.9c0,3.1,2.1,4.6,4.5,4.6c3.4,0,5.6-2.2,6.4-4.4c0.2-0.5,0.3-1,0.3-1.5V84.4z"/><path fill="#FFFFFF" d="M146.6,63.9v7.6h6.9v3.7h-6.9v14.2c0,3.3,0.9,5.1,3.6,5.1c1.3,0,2.2-0.2,2.8-0.3l0.2,3.6 c-0.9,0.4-2.4,0.7-4.3,0.7c-2.2,0-4-0.7-5.2-2c-1.4-1.4-1.9-3.8-1.9-6.9V75.1h-4.1v-3.7h4.1v-6.3L146.6,63.9z"/><path fill="#FFFFFF" d="M171.4,97.8l-0.4-3.3h-0.2c-1.5,2.1-4.3,3.9-8.1,3.9c-5.4,0-8.1-3.8-8.1-7.6c0-6.4,5.7-9.9,15.9-9.8v-0.5 c0-2.2-0.6-6.1-6-6.1c-2.5,0-5,0.8-6.9,2l-1.1-3.2c2.2-1.4,5.4-2.3,8.7-2.3c8.1,0,10.1,5.5,10.1,10.8v9.9c0,2.3,0.1,4.5,0.4,6.3 H171.4z M170.7,84.4c-5.3-0.1-11.2,0.8-11.2,5.9c0,3.1,2.1,4.6,4.5,4.6c3.4,0,5.6-2.2,6.4-4.4c0.2-0.5,0.3-1,0.3-1.5V84.4z"/></g></g></a></g><a href="https://ourworldindata.org/grapher/phosphate-fertilizer-production-tonnes" target="_blank"><text font-size="27.00" x="15.0" y="36.6" fill="#555"><tspan x="15" y="36.6">Phosphate fertilizer production, tonnes</tspan></text></a><text font-size="14.40" x="15.0" y="55.5" fill="#666"><tspan x="15" y="55.519999999999996">Phosphate fertilizer production, measured in tonnes of total nutrient production per year.</tspan></text></g><g class="StackedArea"><defs><clipPath id="boundsClip-605"><rect x="88.526" y="0" width="820" height="956.2"></rect></clipPath></defs><g class="AxisBoxView"><g class="HorizontalAxis"><text x="88.5" y="556.5" fill="#666" text-anchor="middle" font-size="16.2">1961</text><text x="192.7" y="556.5" fill="#666" text-anchor="middle" font-size="16.2">1970</text><text x="308.4" y="556.5" fill="#666" text-anchor="middle" font-size="16.2">1980</text><text x="424.2" y="556.5" fill="#666" text-anchor="middle" font-size="16.2">1990</text><text x="539.9" y="556.5" fill="#666" text-anchor="middle" font-size="16.2">2000</text><text x="655.7" y="556.5" fill="#666" text-anchor="middle" font-size="16.2">2010</text><text x="702" y="556.5" fill="#666" text-anchor="middle" font-size="16.2">2014</text></g><g class="VerticalAxis"><text x="83.53" y="535.3" fill="#666" dominant-baseline="middle" text-anchor="end" font-size="16.2">0</text><text x="83.53" y="449.6" fill="#666" dominant-baseline="middle" text-anchor="end" font-size="16.2">10 million</text><text x="83.53" y="363.9" fill="#666" dominant-baseline="middle" text-anchor="end" font-size="16.2">20 million</text><text x="83.53" y="278.1" fill="#666" dominant-baseline="middle" text-anchor="end" font-size="16.2">30 million</text><text x="83.53" y="192.4" fill="#666" dominant-baseline="middle" text-anchor="end" font-size="16.2">40 million</text><text x="83.53" y="106.7" fill="#666" dominant-baseline="middle" text-anchor="end" font-size="16.2">50 million</text></g><g class="AxisGridLines"><line x1="88.53" y1="535.3" x2="701.96" y2="535.3" stroke="#ccc"></line><line x1="88.53" y1="449.6" x2="701.96" y2="449.6" stroke="#ddd" stroke-dasharray="3,2"></line><line x1="88.53" y1="363.9" x2="701.96" y2="363.9" stroke="#ddd" stroke-dasharray="3,2"></line><line x1="88.53" y1="278.1" x2="701.96" y2="278.1" stroke="#ddd" stroke-dasharray="3,2"></line><line x1="88.53" y1="192.4" x2="701.96" y2="192.4" stroke="#ddd" stroke-dasharray="3,2"></line><line x1="88.53" y1="106.7" x2="701.96" y2="106.7" stroke="#ddd" stroke-dasharray="3,2"></line></g><g class="AxisGridLines"><line x1="192.7" y1="535.30" x2="192.7" y2="78.40" stroke="#ddd" stroke-dasharray="3,2"></line><line x1="308.4" y1="535.30" x2="308.4" y2="78.40" stroke="#ddd" stroke-dasharray="3,2"></line><line x1="424.2" y1="535.30" x2="424.2" y2="78.40" stroke="#ddd" stroke-dasharray="3,2"></line><line x1="539.9" y1="535.30" x2="539.9" y2="78.40" stroke="#ddd" stroke-dasharray="3,2"></line><line x1="655.7" y1="535.30" x2="655.7" y2="78.40" stroke="#ddd" stroke-dasharray="3,2"></line></g></g><g clip-path="url(#boundsClip-605)"><g class="HeightedLegend clickable"><g class="legendMark"><rect x="706.96" y="73.39999999999999" width="118.39200000000001" height="14.4" fill="#fff" opacity="0"></rect><rect x="706.96" y="79.35" width="10" height="2.5" fill="#6bb537"></rect><text font-size="14.40" x="722.0" y="84.9" fill="#333"><tspan x="721.96" y="84.92">Central America</tspan></text></g><g class="legendMark"><rect x="706.96" y="129.70000000000002" width="128.04000000000002" height="14.4" fill="#fff" opacity="0"></rect><rect x="706.96" y="135.65" width="10" height="2.5" fill="#34983f"></rect><text font-size="14.40" x="722.0" y="141.2" fill="#333"><tspan x="721.96" y="141.22000000000003">Northern America</tspan></text></g><g class="legendMark"><rect x="706.96" y="184" width="81.67200000000001" height="14.4" fill="#fff" opacity="0"></rect><rect x="706.96" y="189.95" width="10" height="2.5" fill="#cfcd1e"></rect><text font-size="14.40" x="722.0" y="195.5" fill="#333"><tspan x="721.96" y="195.52">Caribbean</tspan></text></g><g class="legendMark"><rect x="706.96" y="198.4" width="109.75200000000001" height="14.4" fill="#fff" opacity="0"></rect><rect x="706.96" y="204.35" width="10" height="2.5" fill="#9ecc8a"></rect><text font-size="14.40" x="722.0" y="209.9" fill="#333"><tspan x="721.96" y="209.92000000000002">South America</tspan></text></g><g class="legendMark"><rect x="706.96" y="212.8" width="68.85600000000001" height="14.4" fill="#fff" opacity="0"></rect><rect x="706.96" y="218.75" width="10" height="2.5" fill="#b077b1"></rect><text font-size="14.40" x="722.0" y="224.3" fill="#333"><tspan x="721.96" y="224.32000000000002">Oceania</tspan></text></g><g class="legendMark"><rect x="706.96" y="230.3" width="61.656000000000006" height="14.4" fill="#fff" opacity="0"></rect><rect x="706.96" y="236.25" width="10" height="2.5" fill="#ffd53e"></rect><text font-size="14.40" x="722.0" y="241.8" fill="#333"><tspan x="721.96" y="241.82000000000002">Europe</tspan></text></g><g class="legendMark"><rect x="706.96" y="375.40000000000003" width="43.08" height="14.4" fill="#fff" opacity="0"></rect><rect x="706.96" y="381.35" width="10" height="2.5" fill="#ca2628"></rect><text font-size="14.40" x="722.0" y="386.9" fill="#333"><tspan x="721.96" y="386.92">Asia</tspan></text></g><g class="legendMark"><rect x="706.96" y="513.3" width="51.864000000000004" height="14.4" fill="#fff" opacity="0"></rect><rect x="706.96" y="519.25" width="10" height="2.5" fill="#3360a9"></rect><text font-size="14.40" x="722.0" y="524.8" fill="#333"><tspan x="721.96" y="524.8199999999999">Africa</tspan></text></g></g><g class="Areas"><rect x="88.526" y="78.4" width="613.4340000000001" height="456.9000000000001" opacity="0" fill="rgba(255,255,255,0)"></rect><path stroke-linecap="round" d="M88.5 533.2L100.1 532.9L111.7 532.5L123.2 532.1L134.8 531.4L146.4 530.3L158 528.7L169.5 529.1L181.1 528.9L192.7 528.7L204.3 528.2L215.8 527.2L227.4 527L239 526.8L250.6 527.7L262.1 527.6L273.7 526.2L285.3 525.1L296.9 525.7L308.4 524.3L320 523.2L331.6 522.6L343.2 520.8L354.7 521.5L366.3 519.7L377.9 519.3L389.5 518.5L401 513.8L412.6 514.5L424.2 512.9L435.8 514.7L447.3 514.8L458.9 514L470.5 516.3L482 515.5L493.6 514.2L505.2 515.9L516.8 514.5L528.3 514.1L539.9 513.6L551.5 512.2L563.1 512.4L574.6 511.5L586.2 511L597.8 513L609.4 514.2L620.9 513.2L632.5 515.3L644.1 513.3L655.7 506.4L667.2 505.8L678.8 504.5L690.4 507.3L702 505.7L701.96 535.3000000000001L88.526 535.3000000000001" fill="#3360a9" fill-opacity="0.7" class="Africa_0-area"></path><path stroke-linecap="round" d="M88.5 525.9L100.1 525.3L111.7 523.3L123.2 521L134.8 517.5L146.4 513.6L158 513.5L169.5 513.9L181.1 510.8L192.7 509L204.3 505.3L215.8 501.8L227.4 498.8L239 497.3L250.6 497.7L262.1 496.8L273.7 490.3L285.3 492.7L296.9 485.7L308.4 476L320 475L331.6 469L343.2 460.4L354.7 459.5L366.3 459.4L377.9 453.6L389.5 444.2L401 429.9L412.6 437L424.2 429.3L435.8 425.8L447.3 418.8L458.9 427.2L470.5 423.3L482 412.5L493.6 412.3L505.2 406.2L516.8 400.5L528.3 398.3L539.9 397.3L551.5 387.3L563.1 381.8L574.6 368L586.2 355.7L597.8 353.9L609.4 353.7L620.9 339.2L632.5 341.2L644.1 331.3L655.7 303.7L667.2 276.4L678.8 281.9L690.4 278.7L702 259.5L702 505.7L690.4 507.3L678.8 504.5L667.2 505.8L655.7 506.4L644.1 513.3L632.5 515.3L620.9 513.2L609.4 514.2L597.8 513L586.2 511L574.6 511.5L563.1 512.4L551.5 512.2L539.9 513.6L528.3 514.1L516.8 514.5L505.2 515.9L493.6 514.2L482 515.5L470.5 516.3L458.9 514L447.3 514.8L435.8 514.7L424.2 512.9L412.6 514.5L401 513.8L389.5 518.5L377.9 519.3L366.3 519.7L354.7 521.5L343.2 520.8L331.6 522.6L320 523.2L308.4 524.3L296.9 525.7L285.3 525.1L273.7 526.2L262.1 527.6L250.6 527.7L239 526.8L227.4 527L215.8 527.2L204.3 528.2L192.7 528.7L181.1 528.9L169.5 529.1L158 528.7L146.4 530.3L134.8 531.4L123.2 532.1L111.7 532.5L100.1 532.9L88.5 533.2" fill="#ca2628" fill-opacity="0.7" class="Asia_0-area"></path><path stroke-linecap="round" d="M88.5 473.3L100.1 471.6L111.7 464L123.2 452L134.8 444.9L146.4 434.9L158 431.2L169.5 425.9L181.1 420.5L192.7 409.9L204.3 401.5L215.8 384.4L227.4 387.7L239 381.5L250.6 386.9L262.1 379.9L273.7 368.1L285.3 369.2L296.9 359.5L308.4 353.8L320 353.1L331.6 345.4L343.2 333.3L354.7 331.4L366.3 328.4L377.9 319.1L389.5 308.3L401 289.6L412.6 301.5L424.2 307.4L435.8 322L447.3 354.5L458.9 371.8L470.5 379.9L482 362.3L493.6 364.6L505.2 353.8L516.8 351.8L528.3 349.8L539.9 351.6L551.5 343.8L563.1 333.2L574.6 318.2L586.2 302.1L597.8 297.5L609.4 297.6L620.9 284.1L632.5 289.3L644.1 300.7L655.7 253.2L667.2 227.5L678.8 236.4L690.4 237L702 215.5L702 259.5L690.4 278.7L678.8 281.9L667.2 276.4L655.7 303.7L644.1 331.3L632.5 341.2L620.9 339.2L609.4 353.7L597.8 353.9L586.2 355.7L574.6 368L563.1 381.8L551.5 387.3L539.9 397.3L528.3 398.3L516.8 400.5L505.2 406.2L493.6 412.3L482 412.5L470.5 423.3L458.9 427.2L447.3 418.8L435.8 425.8L424.2 429.3L412.6 437L401 429.9L389.5 444.2L377.9 453.6L366.3 459.4L354.7 459.5L343.2 460.4L331.6 469L320 475L308.4 476L296.9 485.7L285.3 492.7L273.7 490.3L262.1 496.8L250.6 497.7L239 497.3L227.4 498.8L215.8 501.8L204.3 505.3L192.7 509L181.1 510.8L169.5 513.9L158 513.5L146.4 513.6L134.8 517.5L123.2 521L111.7 523.3L100.1 525.3L88.5 525.9" fill="#ffd53e" fill-opacity="0.7" class="Europe_0-area"></path><path stroke-linecap="round" d="M88.5 466.6L100.1 464.1L111.7 455.2L123.2 442.2L134.8 434L146.4 424.1L158 420.6L169.5 415.5L181.1 410.8L192.7 401.2L204.3 391.6L215.8 371.5L227.4 374L239 372.7L250.6 379.6L262.1 370.8L273.7 358.3L285.3 358.9L296.9 348.1L308.4 343.7L320 343.5L331.6 337.3L343.2 325.4L354.7 323.9L366.3 321.6L377.9 312.2L389.5 300.1L401 282L412.6 295.4L424.2 303.6L435.8 317.8L447.3 349.6L458.9 366.9L470.5 374.2L482 356.7L493.6 359.7L505.2 348.2L516.8 346.5L528.3 343.4L539.9 343.3L551.5 334.7L563.1 325.3L574.6 310.3L586.2 295.2L597.8 291.2L609.4 291.6L620.9 275L632.5 283L644.1 294.2L655.7 247.4L667.2 220.6L678.8 229.5L690.4 231.4L702 209.6L702 215.5L690.4 237L678.8 236.4L667.2 227.5L655.7 253.2L644.1 300.7L632.5 289.3L620.9 284.1L609.4 297.6L597.8 297.5L586.2 302.1L574.6 318.2L563.1 333.2L551.5 343.8L539.9 351.6L528.3 349.8L516.8 351.8L505.2 353.8L493.6 364.6L482 362.3L470.5 379.9L458.9 371.8L447.3 354.5L435.8 322L424.2 307.4L412.6 301.5L401 289.6L389.5 308.3L377.9 319.1L366.3 328.4L354.7 331.4L343.2 333.3L331.6 345.4L320 353.1L308.4 353.8L296.9 359.5L285.3 369.2L273.7 368.1L262.1 379.9L250.6 386.9L239 381.5L227.4 387.7L215.8 384.4L204.3 401.5L192.7 409.9L181.1 420.5L169.5 425.9L158 431.2L146.4 434.9L134.8 444.9L123.2 452L111.7 464L100.1 471.6L88.5 473.3" fill="#b077b1" fill-opacity="0.7" class="Oceania_0-area"></path><path stroke-linecap="round" d="M88.5 465.2L100.1 462.7L111.7 453.9L123.2 441L134.8 432.8L146.4 422.8L158 418.9L169.5 413.4L181.1 409L192.7 398.7L204.3 388.4L215.8 367.4L227.4 369L239 366.9L250.6 373.3L262.1 362.1L273.7 347.7L285.3 348.3L296.9 336.4L308.4 329.2L320 332.5L331.6 326.9L343.2 315.7L354.7 309.8L366.3 309L377.9 297.8L389.5 285.8L401 268.4L412.6 282.8L424.2 292.7L435.8 306.7L447.3 338.9L458.9 355.6L470.5 360.9L482 345L493.6 347.6L505.2 336.1L516.8 333.9L528.3 331L539.9 329.8L551.5 321.5L563.1 312L574.6 294.1L586.2 278.3L597.8 275.2L609.4 274.2L620.9 255.2L632.5 264.8L644.1 277.2L655.7 228.2L667.2 201.6L678.8 209.2L690.4 211.6L702 191.2L702 209.6L690.4 231.4L678.8 229.5L667.2 220.6L655.7 247.4L644.1 294.2L632.5 283L620.9 275L609.4 291.6L597.8 291.2L586.2 295.2L574.6 310.3L563.1 325.3L551.5 334.7L539.9 343.3L528.3 343.4L516.8 346.5L505.2 348.2L493.6 359.7L482 356.7L470.5 374.2L458.9 366.9L447.3 349.6L435.8 317.8L424.2 303.6L412.6 295.4L401 282L389.5 300.1L377.9 312.2L366.3 321.6L354.7 323.9L343.2 325.4L331.6 337.3L320 343.5L308.4 343.7L296.9 348.1L285.3 358.9L273.7 358.3L262.1 370.8L250.6 379.6L239 372.7L227.4 374L215.8 371.5L204.3 391.6L192.7 401.2L181.1 410.8L169.5 415.5L158 420.6L146.4 424.1L134.8 434L123.2 442.2L111.7 455.2L100.1 464.1L88.5 466.6" fill="#9ecc8a" fill-opacity="0.7" class="South-America_0-area"></path><path stroke-linecap="round" d="M88.5 465.1L100.1 462.6L111.7 453.8L123.2 440.9L134.8 432.7L146.4 422.6L158 418.8L169.5 413.4L181.1 409L192.7 398.7L204.3 388.3L215.8 367.3L227.4 368.9L239 366.9L250.6 373.3L262.1 362L273.7 347.6L285.3 348.2L296.9 336.4L308.4 329.1L320 332.4L331.6 326.8L343.2 315.6L354.7 309.6L366.3 308.8L377.9 297.6L389.5 285.6L401 268.3L412.6 282.7L424.2 292.7L435.8 306.6L447.3 338.8L458.9 355.6L470.5 360.9L482 345L493.6 347.6L505.2 336.1L516.8 333.9L528.3 331L539.9 329.8L551.5 321.5L563.1 312L574.6 294.1L586.2 278.3L597.8 275.2L609.4 274.1L620.9 255.2L632.5 264.8L644.1 277.2L655.7 228.2L667.2 201.6L678.8 209.1L690.4 211.6L702 191.2L702 191.2L690.4 211.6L678.8 209.2L667.2 201.6L655.7 228.2L644.1 277.2L632.5 264.8L620.9 255.2L609.4 274.2L597.8 275.2L586.2 278.3L574.6 294.1L563.1 312L551.5 321.5L539.9 329.8L528.3 331L516.8 333.9L505.2 336.1L493.6 347.6L482 345L470.5 360.9L458.9 355.6L447.3 338.9L435.8 306.7L424.2 292.7L412.6 282.8L401 268.4L389.5 285.8L377.9 297.8L366.3 309L354.7 309.8L343.2 315.7L331.6 326.9L320 332.5L308.4 329.2L296.9 336.4L285.3 348.3L273.7 347.7L262.1 362.1L250.6 373.3L239 366.9L227.4 369L215.8 367.4L204.3 388.4L192.7 398.7L181.1 409L169.5 413.4L158 418.9L146.4 422.8L134.8 432.8L123.2 441L111.7 453.9L100.1 462.7L88.5 465.2" fill="#cfcd1e" fill-opacity="0.7" class="Caribbean_0-area"></path><path stroke-linecap="round" d="M88.5 439.6L100.1 434.4L111.7 421.8L123.2 406.7L134.8 392.6L146.4 378.2L158 371.8L169.5 369.7L181.1 362.2L192.7 347.9L204.3 334.1L215.8 311.3L227.4 309.5L239 304.9L250.6 312L262.1 295.9L273.7 277.9L285.3 269.2L296.9 252.5L308.4 241.5L320 266L331.6 258.8L343.2 235L354.7 221.2L366.3 236.7L377.9 216.6L389.5 202.4L401 182.2L412.6 196.7L424.2 202.8L435.8 207.2L447.3 243.8L458.9 264.1L470.5 263.1L482 251.8L493.6 250.9L505.2 255.7L516.8 253.7L528.3 256L539.9 265.6L551.5 248.9L563.1 220.4L574.6 201.2L586.2 183.4L597.8 174.7L609.4 180.3L620.9 159.1L632.5 140.6L644.1 164.1L655.7 112.9L667.2 83.6L678.8 89L690.4 91.3L702 82.7L702 191.2L690.4 211.6L678.8 209.1L667.2 201.6L655.7 228.2L644.1 277.2L632.5 264.8L620.9 255.2L609.4 274.1L597.8 275.2L586.2 278.3L574.6 294.1L563.1 312L551.5 321.5L539.9 329.8L528.3 331L516.8 333.9L505.2 336.1L493.6 347.6L482 345L470.5 360.9L458.9 355.6L447.3 338.8L435.8 306.6L424.2 292.7L412.6 282.7L401 268.3L389.5 285.6L377.9 297.6L366.3 308.8L354.7 309.6L343.2 315.6L331.6 326.8L320 332.4L308.4 329.1L296.9 336.4L285.3 348.2L273.7 347.6L262.1 362L250.6 373.3L239 366.9L227.4 368.9L215.8 367.3L204.3 388.3L192.7 398.7L181.1 409L169.5 413.4L158 418.8L146.4 422.6L134.8 432.7L123.2 440.9L111.7 453.8L100.1 462.6L88.5 465.1" fill="#34983f" fill-opacity="0.7" class="Northern-America_0-area"></path><path stroke-linecap="round" d="M88.5 439.2L100.1 434L111.7 421.4L123.2 406.2L134.8 392L146.4 377.5L158 371L169.5 368.7L181.1 360.8L192.7 346.4L204.3 332.4L215.8 309.5L227.4 307.4L239 302.7L250.6 309.8L262.1 293.7L273.7 275.4L285.3 267.2L296.9 250.5L308.4 239.7L320 263.9L331.6 256.7L343.2 232.6L354.7 219.1L366.3 234.3L377.9 214.5L389.5 199.2L401 178.9L412.6 192.8L424.2 199.4L435.8 202.9L447.3 240.5L458.9 261.4L470.5 259.9L482 248.1L493.6 247.2L505.2 251.7L516.8 249.6L528.3 251.6L539.9 261.9L551.5 246.1L563.1 219.4L574.6 200.3L586.2 182.1L597.8 174.1L609.4 179.8L620.9 158.2L632.5 139.7L644.1 162.4L655.7 108.2L667.2 78.9L678.8 84.8L690.4 86.8L702 78.4L702 82.7L690.4 91.3L678.8 89L667.2 83.6L655.7 112.9L644.1 164.1L632.5 140.6L620.9 159.1L609.4 180.3L597.8 174.7L586.2 183.4L574.6 201.2L563.1 220.4L551.5 248.9L539.9 265.6L528.3 256L516.8 253.7L505.2 255.7L493.6 250.9L482 251.8L470.5 263.1L458.9 264.1L447.3 243.8L435.8 207.2L424.2 202.8L412.6 196.7L401 182.2L389.5 202.4L377.9 216.6L366.3 236.7L354.7 221.2L343.2 235L331.6 258.8L320 266L308.4 241.5L296.9 252.5L285.3 269.2L273.7 277.9L262.1 295.9L250.6 312L239 304.9L227.4 309.5L215.8 311.3L204.3 334.1L192.7 347.9L181.1 362.2L169.5 369.7L158 371.8L146.4 378.2L134.8 392.6L123.2 406.7L111.7 421.8L100.1 434.4L88.5 439.6" fill="#6bb537" fill-opacity="0.7" class="Central-America_0-area"></path><path stroke-linecap="round" d="M88.5 533.2L100.1 532.9L111.7 532.5L123.2 532.1L134.8 531.4L146.4 530.3L158 528.7L169.5 529.1L181.1 528.9L192.7 528.7L204.3 528.2L215.8 527.2L227.4 527L239 526.8L250.6 527.7L262.1 527.6L273.7 526.2L285.3 525.1L296.9 525.7L308.4 524.3L320 523.2L331.6 522.6L343.2 520.8L354.7 521.5L366.3 519.7L377.9 519.3L389.5 518.5L401 513.8L412.6 514.5L424.2 512.9L435.8 514.7L447.3 514.8L458.9 514L470.5 516.3L482 515.5L493.6 514.2L505.2 515.9L516.8 514.5L528.3 514.1L539.9 513.6L551.5 512.2L563.1 512.4L574.6 511.5L586.2 511L597.8 513L609.4 514.2L620.9 513.2L632.5 515.3L644.1 513.3L655.7 506.4L667.2 505.8L678.8 504.5L690.4 507.3L702 505.7" stroke="rgb(43, 80, 141)" stroke-opacity="0.7" stroke-width="0.5" fill="none" class="Africa_0-border"></path><path stroke-linecap="round" d="M88.5 525.9L100.1 525.3L111.7 523.3L123.2 521L134.8 517.5L146.4 513.6L158 513.5L169.5 513.9L181.1 510.8L192.7 509L204.3 505.3L215.8 501.8L227.4 498.8L239 497.3L250.6 497.7L262.1 496.8L273.7 490.3L285.3 492.7L296.9 485.7L308.4 476L320 475L331.6 469L343.2 460.4L354.7 459.5L366.3 459.4L377.9 453.6L389.5 444.2L401 429.9L412.6 437L424.2 429.3L435.8 425.8L447.3 418.8L458.9 427.2L470.5 423.3L482 412.5L493.6 412.3L505.2 406.2L516.8 400.5L528.3 398.3L539.9 397.3L551.5 387.3L563.1 381.8L574.6 368L586.2 355.7L597.8 353.9L609.4 353.7L620.9 339.2L632.5 341.2L644.1 331.3L655.7 303.7L667.2 276.4L678.8 281.9L690.4 278.7L702 259.5" stroke="rgb(169, 32, 33)" stroke-opacity="0.7" stroke-width="0.5" fill="none" class="Asia_0-border"></path><path stroke-linecap="round" d="M88.5 473.3L100.1 471.6L111.7 464L123.2 452L134.8 444.9L146.4 434.9L158 431.2L169.5 425.9L181.1 420.5L192.7 409.9L204.3 401.5L215.8 384.4L227.4 387.7L239 381.5L250.6 386.9L262.1 379.9L273.7 368.1L285.3 369.2L296.9 359.5L308.4 353.8L320 353.1L331.6 345.4L343.2 333.3L354.7 331.4L366.3 328.4L377.9 319.1L389.5 308.3L401 289.6L412.6 301.5L424.2 307.4L435.8 322L447.3 354.5L458.9 371.8L470.5 379.9L482 362.3L493.6 364.6L505.2 353.8L516.8 351.8L528.3 349.8L539.9 351.6L551.5 343.8L563.1 333.2L574.6 318.2L586.2 302.1L597.8 297.5L609.4 297.6L620.9 284.1L632.5 289.3L644.1 300.7L655.7 253.2L667.2 227.5L678.8 236.4L690.4 237L702 215.5" stroke="rgb(213, 178, 52)" stroke-opacity="0.7" stroke-width="0.5" fill="none" class="Europe_0-border"></path><path stroke-linecap="round" d="M88.5 466.6L100.1 464.1L111.7 455.2L123.2 442.2L134.8 434L146.4 424.1L158 420.6L169.5 415.5L181.1 410.8L192.7 401.2L204.3 391.6L215.8 371.5L227.4 374L239 372.7L250.6 379.6L262.1 370.8L273.7 358.3L285.3 358.9L296.9 348.1L308.4 343.7L320 343.5L331.6 337.3L343.2 325.4L354.7 323.9L366.3 321.6L377.9 312.2L389.5 300.1L401 282L412.6 295.4L424.2 303.6L435.8 317.8L447.3 349.6L458.9 366.9L470.5 374.2L482 356.7L493.6 359.7L505.2 348.2L516.8 346.5L528.3 343.4L539.9 343.3L551.5 334.7L563.1 325.3L574.6 310.3L586.2 295.2L597.8 291.2L609.4 291.6L620.9 275L632.5 283L644.1 294.2L655.7 247.4L667.2 220.6L678.8 229.5L690.4 231.4L702 209.6" stroke="rgb(147, 100, 148)" stroke-opacity="0.7" stroke-width="0.5" fill="none" class="Oceania_0-border"></path><path stroke-linecap="round" d="M88.5 465.2L100.1 462.7L111.7 453.9L123.2 441L134.8 432.8L146.4 422.8L158 418.9L169.5 413.4L181.1 409L192.7 398.7L204.3 388.4L215.8 367.4L227.4 369L239 366.9L250.6 373.3L262.1 362.1L273.7 347.7L285.3 348.3L296.9 336.4L308.4 329.2L320 332.5L331.6 326.9L343.2 315.7L354.7 309.8L366.3 309L377.9 297.8L389.5 285.8L401 268.4L412.6 282.8L424.2 292.7L435.8 306.7L447.3 338.9L458.9 355.6L470.5 360.9L482 345L493.6 347.6L505.2 336.1L516.8 333.9L528.3 331L539.9 329.8L551.5 321.5L563.1 312L574.6 294.1L586.2 278.3L597.8 275.2L609.4 274.2L620.9 255.2L632.5 264.8L644.1 277.2L655.7 228.2L667.2 201.6L678.8 209.2L690.4 211.6L702 191.2" stroke="rgb(132, 171, 115)" stroke-opacity="0.7" stroke-width="0.5" fill="none" class="South-America_0-border"></path><path stroke-linecap="round" d="M88.5 465.1L100.1 462.6L111.7 453.8L123.2 440.9L134.8 432.7L146.4 422.6L158 418.8L169.5 413.4L181.1 409L192.7 398.7L204.3 388.3L215.8 367.3L227.4 368.9L239 366.9L250.6 373.3L262.1 362L273.7 347.6L285.3 348.2L296.9 336.4L308.4 329.1L320 332.4L331.6 326.8L343.2 315.6L354.7 309.6L366.3 308.8L377.9 297.6L389.5 285.6L401 268.3L412.6 282.7L424.2 292.7L435.8 306.6L447.3 338.8L458.9 355.6L470.5 360.9L482 345L493.6 347.6L505.2 336.1L516.8 333.9L528.3 331L539.9 329.8L551.5 321.5L563.1 312L574.6 294.1L586.2 278.3L597.8 275.2L609.4 274.1L620.9 255.2L632.5 264.8L644.1 277.2L655.7 228.2L667.2 201.6L678.8 209.1L690.4 211.6L702 191.2" stroke="rgb(173, 172, 25)" stroke-opacity="0.7" stroke-width="0.5" fill="none" class="Caribbean_0-border"></path><path stroke-linecap="round" d="M88.5 439.6L100.1 434.4L111.7 421.8L123.2 406.7L134.8 392.6L146.4 378.2L158 371.8L169.5 369.7L181.1 362.2L192.7 347.9L204.3 334.1L215.8 311.3L227.4 309.5L239 304.9L250.6 312L262.1 295.9L273.7 277.9L285.3 269.2L296.9 252.5L308.4 241.5L320 266L331.6 258.8L343.2 235L354.7 221.2L366.3 236.7L377.9 216.6L389.5 202.4L401 182.2L412.6 196.7L424.2 202.8L435.8 207.2L447.3 243.8L458.9 264.1L470.5 263.1L482 251.8L493.6 250.9L505.2 255.7L516.8 253.7L528.3 256L539.9 265.6L551.5 248.9L563.1 220.4L574.6 201.2L586.2 183.4L597.8 174.7L609.4 180.3L620.9 159.1L632.5 140.6L644.1 164.1L655.7 112.9L667.2 83.6L678.8 89L690.4 91.3L702 82.7" stroke="rgb(44, 127, 53)" stroke-opacity="0.7" stroke-width="0.5" fill="none" class="Northern-America_0-border"></path><path stroke-linecap="round" d="M88.5 439.2L100.1 434L111.7 421.4L123.2 406.2L134.8 392L146.4 377.5L158 371L169.5 368.7L181.1 360.8L192.7 346.4L204.3 332.4L215.8 309.5L227.4 307.4L239 302.7L250.6 309.8L262.1 293.7L273.7 275.4L285.3 267.2L296.9 250.5L308.4 239.7L320 263.9L331.6 256.7L343.2 232.6L354.7 219.1L366.3 234.3L377.9 214.5L389.5 199.2L401 178.9L412.6 192.8L424.2 199.4L435.8 202.9L447.3 240.5L458.9 261.4L470.5 259.9L482 248.1L493.6 247.2L505.2 251.7L516.8 249.6L528.3 251.6L539.9 261.9L551.5 246.1L563.1 219.4L574.6 200.3L586.2 182.1L597.8 174.1L609.4 179.8L620.9 158.2L632.5 139.7L644.1 162.4L655.7 108.2L667.2 78.9L678.8 84.8L690.4 86.8L702 78.4" stroke="rgb(90, 151, 46)" stroke-opacity="0.7" stroke-width="0.5" fill="none" class="Central-America_0-border"></path></g></g></g><g style="fill: #777;" class="SourcesFooter"><g style="fill: #777;" class="clickable"><text font-size="12.60" x="15.0" y="581.6"><tspan x="15" y="581.58">Source: UN Food and Agricultural Organization (FAO)</tspan></text></g><text font-size="12.60" x="512.2" y="581.6"><tspan x="512.188" y="581.58"><a target='_blank' style='fill: #777;' href='https://ourworldindata.org/fertilizer-and-pesticides/'>OurWorldInData.org/fertilizer-and-pesticides/</a> • <a style="fill: #777;" href="http://creativecommons.org/licenses/by-sa/4.0/deed.en_US" target="_blank">CC BY-SA</a></tspan></text></g></g></svg>