<svg xmlns="http://www.w3.org/2000/svg" version="1.1" style="font-family: 'Helvetica Neue', Helvetica, Arial, sans-serif; font-size: 18px; background-color: white; text-rendering: optimizeLegibility; -webkit-font-smoothing: antialiased;" width="850" height="600"><g class="ChartTab"><g class="HeaderView"><g opacity="0.8" transform="translate(778, 15) scale(0.27)"><a xmlns:xlink="http://www.w3.org/1999/xlink" xlink:href="https://ourworldindata.org" target="_blank"><g><rect x="0" y="0" fill="#1B2543" width="211.2" height="130.1"/><rect x="0" y="112.2" fill="#E63912" width="211.2" height="17.9"/><g><rect x="1.2" y="12.3" fill="none" width="210.2" height="99.2"/><path fill="#FFFFFF" d="M37.8,32.2c0,12.7-7.7,19.4-17.1,19.4c-9.7,0-16.6-7.5-16.6-18.7c0-11.7,7.3-19.3,17.1-19.3 C31.3,13.7,37.8,21.3,37.8,32.2z M9.2,32.8c0,7.9,4.3,14.9,11.8,14.9c7.5,0,11.8-6.9,11.8-15.3c0-7.3-3.8-14.9-11.8-14.9 C13.1,17.5,9.2,24.8,9.2,32.8z"/><path fill="#FFFFFF" d="M62.7,43.8c0,2.7,0.1,5.1,0.2,7.2h-4.3l-0.3-4.3h-0.1c-1.3,2.1-4,4.9-8.8,4.9c-4.2,0-9.1-2.3-9.1-11.6 V24.6h4.8v14.6c0,5,1.5,8.4,5.9,8.4c3.2,0,5.5-2.2,6.3-4.4c0.3-0.7,0.4-1.6,0.4-2.5V24.6h4.8V43.8z"/><path fill="#FFFFFF" d="M67.3,32.8c0-3.1-0.1-5.8-0.2-8.2h4.2l0.2,5.2h0.2c1.2-3.5,4.1-5.8,7.3-5.8c0.5,0,0.9,0.1,1.4,0.2v4.5 c-0.5-0.1-1-0.2-1.6-0.2c-3.4,0-5.8,2.6-6.5,6.2c-0.1,0.7-0.2,1.4-0.2,2.2V51h-4.8V32.8z"/><path fill="#FFFFFF" d="M95.4,51l-9.4-36.8h5l4.4,18.6c1.1,4.6,2.1,9.2,2.7,12.7h0.1c0.6-3.7,1.8-8,3-12.8l4.9-18.5h5l4.5,18.7 c1,4.4,2,8.7,2.6,12.6h0.1c0.8-4,1.8-8.1,3-12.7l4.9-18.5h4.9L120.6,51h-5L111,31.9c-1.1-4.7-1.9-8.3-2.4-12h-0.1 c-0.7,3.7-1.5,7.3-2.8,12L100.4,51H95.4z"/><path fill="#FFFFFF" d="M154.9,37.6c0,9.8-6.8,14-13.2,14c-7.2,0-12.7-5.2-12.7-13.6c0-8.8,5.8-14,13.1-14 C149.8,24,154.9,29.5,154.9,37.6z M133.9,37.9c0,5.8,3.3,10.1,8,10.1c4.6,0,8-4.3,8-10.3c0-4.5-2.2-10.1-7.9-10.1 C136.3,27.6,133.9,32.8,133.9,37.9z"/><path fill="#FFFFFF" d="M158.2,32.8c0-3.1-0.1-5.8-0.2-8.2h4.2l0.2,5.2h0.2c1.2-3.5,4.1-5.8,7.3-5.8c0.5,0,0.9,0.1,1.4,0.2v4.5 c-0.5-0.1-1-0.2-1.6-0.2c-3.4,0-5.8,2.6-6.5,6.2c-0.1,0.7-0.2,1.4-0.2,2.2V51h-4.8V32.8z"/><path fill="#FFFFFF" d="M173.5,12.3h4.8V51h-4.8V12.3z"/><path fill="#FFFFFF" d="M206.5,12.3v31.9c0,2.3,0.1,5,0.2,6.8h-4.3l-0.2-4.6H202c-1.5,2.9-4.7,5.2-9,5.2 c-6.4,0-11.3-5.4-11.3-13.4c-0.1-8.8,5.4-14.2,11.9-14.2c4,0,6.8,1.9,8,4h0.1V12.3H206.5z M201.7,35.4c0-0.6-0.1-1.4-0.2-2 c-0.7-3.1-3.3-5.6-6.9-5.6c-5,0-7.9,4.4-7.9,10.2c0,5.3,2.6,9.8,7.8,9.8c3.2,0,6.2-2.1,7.1-5.7c0.2-0.7,0.2-1.3,0.2-2.1V35.4z"/><path fill="#FFFFFF" d="M42.8,64c0.1,1.6-1.1,2.9-3.1,2.9c-1.7,0-2.9-1.3-2.9-2.9c0-1.7,1.3-3,3-3C41.7,61,42.8,62.3,42.8,64z M37.4,97.8V71.4h4.8v26.4H37.4z"/><path fill="#FFFFFF" d="M47.5,78.6c0-2.7-0.1-5-0.2-7.1h4.3l0.3,4.4h0.1c1.3-2.5,4.4-5,8.8-5c3.7,0,9.4,2.2,9.4,11.2v15.8h-4.8 V82.6c0-4.3-1.6-7.8-6.1-7.8c-3.2,0-5.6,2.2-6.5,4.9c-0.2,0.6-0.3,1.4-0.3,2.2v15.9h-4.8V78.6z"/><path fill="#FFFFFF" d="M84,61.6c2.9-0.4,6.3-0.8,10.1-0.8c6.8,0,11.7,1.6,14.9,4.6c3.3,3,5.2,7.3,5.2,13.2c0,6-1.9,10.9-5.3,14.3 c-3.4,3.4-9.1,5.3-16.3,5.3c-3.4,0-6.2-0.2-8.6-0.4V61.6z M88.8,94.1c1.2,0.2,3,0.3,4.8,0.3c10.2,0,15.7-5.7,15.7-15.6 c0.1-8.7-4.9-14.2-14.9-14.2c-2.5,0-4.3,0.2-5.6,0.5V94.1z"/><path fill="#FFFFFF" d="M132.1,97.8l-0.4-3.3h-0.2c-1.5,2.1-4.3,3.9-8.1,3.9c-5.4,0-8.1-3.8-8.1-7.6c0-6.4,5.7-9.9,15.9-9.8v-0.5 c0-2.2-0.6-6.1-6-6.1c-2.5,0-5,0.8-6.9,2l-1.1-3.2c2.2-1.4,5.4-2.3,8.7-2.3c8.1,0,10.1,5.5,10.1,10.8v9.9c0,2.3,0.1,4.5,0.4,6.3 H132.1z M131.4,84.4c-5.3-0.1-11.2,0.8-11.2,5.9c0,3.1,2.1,4.6,4.5,4.6c3.4,0,5.6-2.2,6.4-4.4c0.2-0.5,0.3-1,0.3-1.5V84.4z"/><path fill="#FFFFFF" d="M146.6,63.9v7.6h6.9v3.7h-6.9v14.2c0,3.3,0.9,5.1,3.6,5.1c1.3,0,2.2-0.2,2.8-0.3l0.2,3.6 c-0.9,0.4-2.4,0.7-4.3,0.7c-2.2,0-4-0.7-5.2-2c-1.4-1.4-1.9-3.8-1.9-6.9V75.1h-4.1v-3.7h4.1v-6.3L146.6,63.9z"/><path fill="#FFFFFF" d="M171.4,97.8l-0.4-3.3h-0.2c-1.5,2.1-4.3,3.9-8.1,3.9c-5.4,0-8.1-3.8-8.1-7.6c0-6.4,5.7-9.9,15.9-9.8v-0.5 c0-2.2-0.6-6.1-6-6.1c-2.5,0-5,0.8-6.9,2l-1.1-3.2c2.2-1.4,5.4-2.3,8.7-2.3c8.1,0,10.1,5.5,10.1,10.8v9.9c0,2.3,0.1,4.5,0.4,6.3 H171.4z M170.7,84.4c-5.3-0.1-11.2,0.8-11.2,5.9c0,3.1,2.1,4.6,4.5,4.6c3.4,0,5.6-2.2,6.4-4.4c0.2-0.5,0.3-1,0.3-1.5V84.4z"/></g></g></a></g><a href="https://ourworldindata.org/grapher/political-participation-iod" target="_blank"><text font-size="27.00" x="15.0" y="36.6" fill="#555"><tspan x="15" y="36.6">Political participation</tspan></text></a><text font-size="14.40" x="15.0" y="55.5" fill="#666"><tspan x="15" y="55.519999999999996">Political participation measures the share of the adult population who voted in previous elections.  It is one of the</tspan><tspan x="15" y="71.36">component's of Vanhanen's Index of Democracy, alongside political competition.</tspan></text></g><g class="LineChart"><defs><clipPath id="boundsClip-1"><rect x="42.562" y="0" width="830" height="925.2"></rect></clipPath></defs><g class="AxisBoxView"><g class="HorizontalAxis"><text x="52.6" y="556.5" fill="#666" text-anchor="middle" font-size="16.2">1820</text><text x="115.9" y="556.5" fill="#666" text-anchor="middle" font-size="16.2">1840</text><text x="179.3" y="556.5" fill="#666" text-anchor="middle" font-size="16.2">1860</text><text x="242.6" y="556.5" fill="#666" text-anchor="middle" font-size="16.2">1880</text><text x="306" y="556.5" fill="#666" text-anchor="middle" font-size="16.2">1900</text><text x="369.4" y="556.5" fill="#666" text-anchor="middle" font-size="16.2">1920</text><text x="432.7" y="556.5" fill="#666" text-anchor="middle" font-size="16.2">1940</text><text x="496.1" y="556.5" fill="#666" text-anchor="middle" font-size="16.2">1960</text><text x="559.4" y="556.5" fill="#666" text-anchor="middle" font-size="16.2">1980</text><text x="622.8" y="556.5" fill="#666" text-anchor="middle" font-size="16.2">2000</text></g><g class="VerticalAxis"><text x="47.56" y="535.3" fill="#666" dominant-baseline="middle" text-anchor="end" font-size="16.2">0%</text><text x="47.56" y="458.5" fill="#666" dominant-baseline="middle" text-anchor="end" font-size="16.2">10%</text><text x="47.56" y="381.6" fill="#666" dominant-baseline="middle" text-anchor="end" font-size="16.2">20%</text><text x="47.56" y="304.8" fill="#666" dominant-baseline="middle" text-anchor="end" font-size="16.2">30%</text><text x="47.56" y="228" fill="#666" dominant-baseline="middle" text-anchor="end" font-size="16.2">40%</text><text x="47.56" y="151.1" fill="#666" dominant-baseline="middle" text-anchor="end" font-size="16.2">50%</text></g><g class="AxisGridLines"><line x1="52.56" y1="535.3" x2="622.80" y2="535.3" stroke="#ccc"></line><line x1="52.56" y1="458.5" x2="622.80" y2="458.5" stroke="#ddd" stroke-dasharray="3,2"></line><line x1="52.56" y1="381.6" x2="622.80" y2="381.6" stroke="#ddd" stroke-dasharray="3,2"></line><line x1="52.56" y1="304.8" x2="622.80" y2="304.8" stroke="#ddd" stroke-dasharray="3,2"></line><line x1="52.56" y1="228" x2="622.80" y2="228" stroke="#ddd" stroke-dasharray="3,2"></line><line x1="52.56" y1="151.1" x2="622.80" y2="151.1" stroke="#ddd" stroke-dasharray="3,2"></line></g><g class="AxisGridLines"><line x1="52.6" y1="535.30" x2="52.6" y2="93.90" stroke="#ddd" stroke-dasharray="3,2"></line><line x1="115.9" y1="535.30" x2="115.9" y2="93.90" stroke="#ddd" stroke-dasharray="3,2"></line><line x1="179.3" y1="535.30" x2="179.3" y2="93.90" stroke="#ddd" stroke-dasharray="3,2"></line><line x1="242.6" y1="535.30" x2="242.6" y2="93.90" stroke="#ddd" stroke-dasharray="3,2"></line><line x1="306" y1="535.30" x2="306" y2="93.90" stroke="#ddd" stroke-dasharray="3,2"></line><line x1="369.4" y1="535.30" x2="369.4" y2="93.90" stroke="#ddd" stroke-dasharray="3,2"></line><line x1="432.7" y1="535.30" x2="432.7" y2="93.90" stroke="#ddd" stroke-dasharray="3,2"></line><line x1="496.1" y1="535.30" x2="496.1" y2="93.90" stroke="#ddd" stroke-dasharray="3,2"></line><line x1="559.4" y1="535.30" x2="559.4" y2="93.90" stroke="#ddd" stroke-dasharray="3,2"></line><line x1="622.8" y1="535.30" x2="622.8" y2="93.90" stroke="#ddd" stroke-dasharray="3,2"></line></g></g><g clip-path="url(#boundsClip-1)"><g class="HeightedLegend clickable"><g class="legendMark"><rect x="632.8" y="118.3" width="119.4" height="14.4" fill="#fff" opacity="0"></rect><rect x="632.8" y="124.25" width="10" height="2.5" fill="#ffd53e"></rect><text font-size="14.40" x="647.8" y="129.8" fill="#333"><tspan x="647.8" y="129.82">Western Europe</tspan></text></g><g class="legendMark"><rect x="632.8" y="244.5" width="202.20000000000002" height="14.4" fill="#fff" opacity="0"></rect><rect x="632.8" y="250.45" width="10" height="2.5" fill="#9ecc8a"></rect><text font-size="14.40" x="647.8" y="256.0" fill="#333"><tspan x="647.8" y="256.02">Latin America and Caribbean</tspan></text></g><g class="legendMark"><rect x="632.8" y="258.9" width="134.66400000000002" height="14.4" fill="#fff" opacity="0"></rect><rect x="632.8" y="264.84999999999997" width="10" height="2.5" fill="#e6332e"></rect><text font-size="14.40" x="647.8" y="270.4" fill="#333"><tspan x="647.8" y="270.41999999999996">Western Offshoots</tspan></text></g><g class="legendMark"><rect x="632.8" y="309.40000000000003" width="188.80800000000002" height="14.4" fill="#fff" opacity="0"></rect><rect x="632.8" y="315.35" width="10" height="2.5" fill="#2a939b"></rect><text font-size="14.40" x="647.8" y="320.9" fill="#333"><tspan x="647.8" y="320.92">South and South-East Asia</tspan></text></g><g class="legendMark"><rect x="632.8" y="323.8" width="115.51200000000001" height="14.4" fill="#fff" opacity="0"></rect><rect x="632.8" y="329.75" width="10" height="2.5" fill="#a652ba"></rect><text font-size="14.40" x="647.8" y="335.3" fill="#333"><tspan x="647.8" y="335.32">Eastern Europe</tspan></text></g><g class="legendMark"><rect x="632.8" y="338.2" width="52.584" height="14.4" fill="#fff" opacity="0"></rect><rect x="632.8" y="344.15" width="10" height="2.5" fill="#f6a324"></rect><text font-size="14.40" x="647.8" y="349.7" fill="#333"><tspan x="647.8" y="349.71999999999997">World</tspan></text></g><g class="legendMark"><rect x="632.8" y="366.90000000000003" width="133.08" height="14.4" fill="#fff" opacity="0"></rect><rect x="632.8" y="372.85" width="10" height="2.5" fill="#34983f"></rect><text font-size="14.40" x="647.8" y="378.4" fill="#333"><tspan x="647.8" y="378.42">Sub-Sahara Africa</tspan></text></g><g class="legendMark"><rect x="632.8" y="496.1" width="198.88800000000003" height="14.4" fill="#fff" opacity="0"></rect><rect x="632.8" y="502.05" width="10" height="2.5" fill="#ca2628"></rect><text font-size="14.40" x="647.8" y="507.6" fill="#333"><tspan x="647.8" y="507.62">Middle East and North Africa</tspan></text></g><g class="legendMark"><rect x="632.8" y="515.6999999999999" width="76.05600000000001" height="14.4" fill="#fff" opacity="0"></rect><rect x="632.8" y="521.65" width="10" height="2.5" fill="#3360a9"></rect><text font-size="14.40" x="647.8" y="527.2" fill="#333"><tspan x="647.8" y="527.2199999999999">East Asia</tspan></text></g></g><g class="Lines"><rect x="53" y="94" width="570" height="441" fill="rgba(255,255,255,0)" opacity="0"></rect><g class="key-East-Asia_0"><path stroke="#3360a9" stroke-linecap="round" d="M53 535L56 535L59 535L62 535L65 535L68 535L72 535L75 535L78 535L81 535L84 535L87 535L91 535L94 535L97 535L100 535L103 535L106 535L110 535L113 535L116 535L119 535L122 535L125 535L129 535L132 535L135 535L138 535L141 535L144 535L148 535L151 535L154 535L157 535L160 535L163 535L167 535L170 535L173 535L176 535L179 535L182 535L186 535L189 535L192 535L195 535L198 535L202 535L205 535L208 535L211 535L214 535L217 535L221 535L224 535L227 535L230 535L233 535L236 535L240 535L243 535L246 535L249 535L252 535L255 535L259 535L262 535L265 535L268 535L271 535L274 535L278 535L281 535L284 535L287 535L290 535L293 535L297 535L300 535L303 535L306 535L309 535L312 535L316 535L319 535L322 535L325 535L328 535L331 534L335 534L338 534L341 534L344 534L347 534L350 534L354 534L357 534L360 535L363 535L366 535L369 533L373 533L376 533L379 533L382 533L385 533L388 533L392 533L395 528L398 528L401 528L404 528L407 529L411 529L414 529L417 529L420 528L423 528L426 528L430 528L433 528L436 528L439 528L442 528L445 528L449 503L452 503L455 500L458 495L461 495L464 490L468 491L471 488L474 486L477 486L480 487L483 483L487 484L490 485L493 485L496 485L499 495L502 496L506 486L509 486L512 484L515 484L518 485L521 485L525 486L528 484L531 484L534 494L537 494L540 494L544 494L547 494L550 497L553 494L556 495L559 492L563 495L566 495L569 496L572 494L575 494L578 494L582 485L585 483L588 483L591 483L594 486L598 486L601 486L604 491L607 491L610 492L613 492L617 490L620 522L623 523" fill="none" stroke-width="1.5"></path></g><g class="key-Eastern-Europe_0"><path stroke="#a652ba" stroke-linecap="round" d="M53 535L56 535L59 535L62 535L65 535L68 535L72 535L75 535L78 535L81 535L84 535L87 535L91 535L94 535L97 535L100 535L103 535L106 535L110 535L113 535L116 535L119 535L122 535L125 535L129 535L132 535L135 535L138 535L141 535L144 535L148 535L151 535L154 535L157 535L160 535L163 535L167 535L170 535L173 535L176 535L179 535L182 535L186 535L189 535L192 535L195 535L198 535L202 535L205 535L208 518L211 518L214 518L217 524L221 524L224 534L227 534L230 528L233 529L236 528L240 532L243 533L246 533L249 533L252 533L255 533L259 533L262 533L265 533L268 533L271 533L274 533L278 529L281 529L284 529L287 529L290 529L293 529L297 529L300 529L303 528L306 528L309 528L312 528L316 529L319 529L322 529L325 529L328 528L331 528L335 528L338 529L341 529L344 529L347 529L350 528L354 528L357 529L360 529L363 528L366 506L369 496L373 495L376 487L379 491L382 491L385 491L388 521L392 521L395 504L398 505L401 505L404 491L407 491L411 477L414 484L417 499L420 499L423 323L426 326L430 353L433 353L436 354L439 356L442 357L445 362L449 340L452 305L455 275L458 290L461 261L464 257L468 257L471 241L474 240L477 237L480 237L483 238L487 237L490 231L493 232L496 232L499 232L502 236L506 237L509 237L512 237L515 243L518 243L521 244L525 243L528 239L531 239L534 238L537 238L540 237L544 237L547 235L550 197L553 197L556 193L559 193L563 193L566 189L569 189L572 189L575 202L578 205L582 205L585 206L588 252L591 247L594 175L598 182L601 310L604 311L607 307L610 300L613 304L617 311L620 309L623 320" fill="none" stroke-width="1.5"></path></g><g class="key-Latin-America-and-Caribbean_0"><path stroke="#9ecc8a" stroke-linecap="round" d="M53 535L56 535L59 535L62 535L65 535L68 535L72 535L75 535L78 535L81 535L84 535L87 535L91 535L94 535L97 535L100 535L103 535L106 535L110 535L113 535L116 535L119 535L122 535L125 535L129 535L132 535L135 535L138 535L141 535L144 535L148 535L151 535L154 535L157 534L160 535L163 535L167 534L170 530L173 519L176 523L179 522L182 522L186 534L189 534L192 533L195 533L198 533L202 532L205 533L208 534L211 534L214 534L217 534L221 530L224 529L227 527L230 529L233 529L236 533L240 533L243 527L246 526L249 530L252 529L255 528L259 529L262 529L265 529L268 530L271 530L274 530L278 529L281 529L284 525L287 521L290 521L293 521L297 522L300 526L303 525L306 525L309 521L312 518L316 515L319 515L322 515L325 517L328 516L331 517L335 516L338 513L341 513L344 513L347 512L350 511L354 508L357 502L360 495L363 497L366 496L369 491L373 492L376 489L379 489L382 487L385 481L388 485L392 486L395 483L398 480L401 497L404 486L407 485L411 487L414 484L417 479L420 481L423 472L426 473L430 470L433 469L436 474L439 465L442 475L445 474L449 438L452 429L455 428L458 428L461 441L464 426L468 402L471 394L474 400L477 404L480 436L483 437L487 436L490 373L493 374L496 369L499 369L502 406L506 381L509 423L512 421L515 445L518 445L521 453L525 453L528 446L531 443L534 446L537 426L540 420L544 419L547 445L550 443L553 444L556 446L559 436L563 430L566 427L569 399L572 388L575 378L578 382L582 382L585 338L588 261L591 278L594 278L598 278L601 282L604 244L607 246L610 242L613 242L617 245L620 246L623 252" fill="none" stroke-width="1.5"></path></g><g class="key-Middle-East-and-North-Africa_0"><path stroke="#ca2628" stroke-linecap="round" d="M53 535L56 535L59 535L62 535L65 535L68 535L72 535L75 535L78 535L81 535L84 535L87 535L91 535L94 535L97 535L100 535L103 535L106 535L110 535L113 535L116 535L119 535L122 535L125 535L129 535L132 535L135 535L138 535L141 535L144 535L148 535L151 535L154 535L157 535L160 535L163 535L167 535L170 535L173 535L176 535L179 535L182 535L186 535L189 535L192 535L195 535L198 535L202 535L205 535L208 535L211 535L214 535L217 535L221 535L224 535L227 535L230 535L233 535L236 535L240 535L243 535L246 535L249 535L252 535L255 535L259 535L262 535L265 535L268 535L271 535L274 535L278 535L281 535L284 535L287 535L290 535L293 535L297 535L300 535L303 535L306 535L309 535L312 535L316 535L319 535L322 535L325 535L328 535L331 535L335 535L338 535L341 535L344 535L347 535L350 534L354 535L357 535L360 535L363 535L366 535L369 535L373 534L376 534L379 534L382 534L385 535L388 535L392 535L395 535L398 535L401 535L404 535L407 535L411 535L414 535L417 535L420 535L423 535L426 535L430 535L433 535L436 534L439 534L442 534L445 534L449 533L452 533L455 532L458 532L461 523L464 523L468 522L471 522L474 521L477 521L480 521L483 521L487 522L490 522L493 522L496 525L499 525L502 525L506 518L509 518L512 518L515 518L518 518L521 518L525 518L528 518L531 519L534 519L537 519L540 520L544 513L547 513L550 513L553 513L556 526L559 500L563 498L566 499L569 500L572 500L575 504L578 505L582 505L585 506L588 507L591 508L594 508L598 509L601 509L604 509L607 509L610 507L613 502L617 503L620 503L623 503" fill="none" stroke-width="1.5"></path></g><g class="key-South-and-South__002dEast-Asia_0"><path stroke="#2a939b" stroke-linecap="round" d="M53 535L56 535L59 535L62 535L65 535L68 535L72 535L75 535L78 535L81 535L84 535L87 535L91 535L94 535L97 535L100 535L103 535L106 535L110 535L113 535L116 535L119 535L122 535L125 535L129 535L132 535L135 535L138 535L141 535L144 535L148 535L151 535L154 535L157 535L160 535L163 535L167 535L170 535L173 535L176 535L179 535L182 535L186 535L189 535L192 535L195 535L198 535L202 535L205 535L208 535L211 535L214 535L217 535L221 535L224 535L227 535L230 535L233 535L236 535L240 535L243 535L246 535L249 535L252 535L255 535L259 535L262 535L265 535L268 535L271 535L274 535L278 535L281 535L284 535L287 535L290 535L293 535L297 535L300 535L303 535L306 535L309 535L312 535L316 535L319 535L322 535L325 535L328 535L331 535L335 535L338 535L341 535L344 535L347 535L350 535L354 535L357 535L360 535L363 535L366 535L369 535L373 535L376 535L379 535L382 535L385 535L388 535L392 535L395 535L398 535L401 535L404 535L407 535L411 535L414 535L417 535L420 535L423 535L426 535L430 535L433 535L436 535L439 535L442 535L445 535L449 535L452 531L455 506L458 503L461 502L464 502L468 502L471 415L474 416L477 416L480 397L483 396L487 390L490 393L493 412L496 401L499 400L502 422L506 422L509 418L512 417L515 416L518 403L521 403L525 400L528 400L531 398L534 386L537 374L540 365L544 375L547 375L550 372L553 363L556 363L559 367L563 352L566 361L569 360L572 349L575 349L578 337L582 337L585 336L588 325L591 337L594 337L598 331L601 331L604 330L607 329L610 316L613 315L617 302L620 317L623 317" fill="none" stroke-width="1.5"></path></g><g class="key-Sub__002dSahara-Africa_0"><path stroke="#34983f" stroke-linecap="round" d="M53 535L56 535L59 535L62 535L65 535L68 535L72 535L75 535L78 535L81 535L84 535L87 535L91 535L94 535L97 535L100 535L103 535L106 535L110 535L113 535L116 535L119 535L122 535L125 535L129 535L132 535L135 535L138 535L141 535L144 535L148 535L151 535L154 535L157 535L160 535L163 535L167 535L170 535L173 535L176 535L179 535L182 535L186 535L189 535L192 535L195 535L198 535L202 535L205 535L208 535L211 535L214 535L217 535L221 535L224 535L227 535L230 535L233 535L236 535L240 535L243 535L246 535L249 535L252 535L255 535L259 535L262 535L265 535L268 535L271 535L274 535L278 535L281 535L284 535L287 535L290 535L293 535L297 535L300 535L303 535L306 535L309 535L312 535L316 535L319 535L322 535L325 535L328 535L331 535L335 535L338 534L341 534L344 534L347 534L350 534L354 533L357 533L360 533L363 533L366 533L369 533L373 533L376 533L379 533L382 533L385 533L388 533L392 533L395 533L398 533L401 533L404 533L407 533L411 533L414 533L417 533L420 533L423 533L426 530L430 530L433 530L436 530L439 530L442 530L445 530L449 530L452 530L455 530L458 529L461 529L464 529L468 528L471 528L474 528L477 528L480 528L483 528L487 525L490 526L493 525L496 460L499 450L502 443L506 440L509 423L512 410L515 448L518 453L521 457L525 453L528 423L531 423L534 435L537 445L540 451L544 445L547 444L550 443L553 441L556 387L559 380L563 383L566 382L569 422L572 419L575 424L578 414L582 417L585 425L588 420L591 421L594 467L598 456L601 460L604 425L607 425L610 409L613 410L617 410L620 372L623 374" fill="none" stroke-width="1.5"></path></g><g class="key-Western-Europe_0"><path stroke="#ffd53e" stroke-linecap="round" d="M53 535L56 535L59 535L62 535L65 535L68 535L72 535L75 535L78 535L81 535L84 535L87 534L91 533L94 533L97 533L100 533L103 533L106 533L110 533L113 533L116 533L119 533L122 533L125 533L129 532L132 532L135 532L138 532L141 498L144 499L148 499L151 531L154 496L157 496L160 496L163 496L167 497L170 497L173 497L176 497L179 497L182 496L186 496L189 495L192 495L195 494L198 494L202 488L205 486L208 474L211 474L214 477L217 481L221 480L224 485L227 485L230 482L233 479L236 478L240 481L243 480L246 486L249 483L252 483L255 482L259 472L262 477L265 474L268 473L271 473L274 474L278 471L281 466L284 468L287 464L290 469L293 469L297 468L300 466L303 466L306 467L309 467L312 465L316 464L319 463L322 463L325 456L328 453L331 453L335 452L338 456L341 454L344 454L347 444L350 444L354 444L357 445L360 441L363 424L366 386L369 389L373 383L376 365L379 366L382 355L385 332L388 333L392 332L395 329L398 288L401 282L404 271L407 263L411 240L414 356L417 359L420 359L423 359L426 359L430 384L433 429L436 428L439 428L442 451L445 450L449 368L452 308L455 306L458 297L461 288L464 276L468 279L471 280L474 276L477 276L480 281L483 277L487 277L490 298L493 297L496 296L499 296L502 299L506 299L509 312L512 289L515 291L518 287L521 287L525 289L528 287L531 276L534 273L537 273L540 269L544 269L547 253L550 213L553 205L556 203L559 201L563 201L566 195L569 196L572 196L575 195L578 193L582 188L585 193L588 194L591 100L594 102L598 100L601 94L604 96L607 98L610 102L613 108L617 120L620 121L623 126" fill="none" stroke-width="1.5"></path></g><g class="key-Western-Offshoots_0"><path stroke="#e6332e" stroke-linecap="round" d="M53 532L56 532L59 532L62 532L65 513L68 513L72 513L75 513L78 473L81 473L84 472L87 472L91 476L94 476L97 476L100 476L103 470L106 470L110 470L113 470L116 441L119 441L122 440L125 440L129 442L132 442L135 442L138 442L141 447L144 447L148 447L151 447L154 450L157 450L160 451L163 451L167 439L170 439L173 439L176 440L179 437L182 437L186 437L189 437L192 456L195 456L198 456L202 451L205 431L208 431L211 431L214 431L217 427L221 427L224 427L227 427L230 408L233 408L236 405L240 405L243 405L246 405L249 405L252 405L255 407L259 407L262 407L265 405L268 400L271 400L274 400L278 400L281 403L284 403L287 403L290 403L293 394L297 394L300 393L303 393L306 402L309 399L312 399L316 398L319 411L322 411L325 410L328 410L331 409L335 409L338 408L341 407L344 413L347 410L350 411L354 411L357 394L360 393L363 393L366 394L369 348L373 340L376 342L379 342L382 340L385 336L388 336L392 336L395 303L398 303L401 301L404 300L407 290L411 291L414 290L417 288L420 265L423 265L426 265L430 265L433 252L436 252L439 252L442 252L445 272L449 270L452 270L455 270L458 279L461 279L464 279L468 279L471 240L474 244L477 244L480 245L483 261L487 260L490 258L493 258L496 249L499 249L502 250L506 250L509 259L512 260L515 261L518 261L521 264L525 264L528 264L531 264L534 255L537 255L540 256L544 256L547 252L550 252L553 252L556 248L559 251L563 251L566 251L569 251L572 240L575 240L578 240L582 240L585 258L588 258L591 258L594 258L598 228L601 231L604 231L607 231L610 261L613 264L617 264L620 264L623 260" fill="none" stroke-width="1.5"></path></g><g class="key-World_0"><path stroke="#f6a324" stroke-linecap="round" d="M53 535L56 535L59 535L62 535L65 535L68 535L72 535L75 535L78 534L81 534L84 534L87 534L91 534L94 534L97 534L100 534L103 534L106 534L110 534L113 534L116 533L119 533L122 533L125 533L129 533L132 533L135 533L138 533L141 529L144 529L148 529L151 533L154 528L157 528L160 528L163 528L167 528L170 528L173 527L176 527L179 527L182 527L186 527L189 527L192 527L195 527L198 527L202 526L205 525L208 523L211 523L214 523L217 524L221 523L224 524L227 524L230 523L233 522L236 522L240 522L243 522L246 522L249 522L252 522L255 522L259 520L262 521L265 520L268 520L271 520L274 520L278 519L281 519L284 519L287 518L290 519L293 518L297 518L300 518L303 518L306 518L309 518L312 517L316 517L319 517L322 517L325 516L328 515L331 515L335 515L338 515L341 515L344 515L347 513L350 513L354 513L357 512L360 511L363 509L366 501L369 497L373 495L376 492L379 492L382 490L385 486L388 490L392 490L395 484L398 478L401 478L404 476L407 475L411 472L414 488L417 490L420 488L423 488L426 488L430 492L433 497L436 497L439 497L442 500L445 501L449 479L452 465L455 454L458 453L461 448L464 445L468 444L471 414L474 413L477 414L480 412L483 411L487 408L490 407L493 412L496 407L499 407L502 415L506 410L509 412L512 410L515 415L518 412L521 413L525 413L528 410L531 408L534 408L537 403L540 400L544 403L547 402L550 398L553 393L556 390L559 391L563 387L566 389L569 387L572 381L575 383L578 378L582 375L585 373L588 364L591 363L594 357L598 356L601 345L604 341L607 337L610 332L613 333L617 330L620 340L623 342" fill="none" stroke-width="1.5"></path></g></g></g></g><g style="fill: #777;" class="SourcesFooter"><g style="fill: #777;" class="clickable"><text font-size="12.60" x="15.0" y="581.6"><tspan x="15" y="581.58">Source: How Was Life, OECD (2014)</tspan></text></g><text font-size="12.60" x="649.0" y="581.6"><tspan x="649.024" y="581.58"><a target='_blank' style='fill: #777;' href='https://ourworldindata.org'>OurWorldInData.org</a> • <a style="fill: #777;" href="http://creativecommons.org/licenses/by-sa/4.0/deed.en_US" target="_blank">CC BY-SA</a></tspan></text></g></g></svg>