<svg xmlns="http://www.w3.org/2000/svg" version="1.1" style="font-family: 'Helvetica Neue', Helvetica, Arial, sans-serif; font-size: 18px; background-color: white; text-rendering: optimizeLegibility; -webkit-font-smoothing: antialiased;" width="850" height="600"><g class="ChartTab"><g class="HeaderView"><g opacity="0.8" transform="translate(778, 15) scale(0.27)"><a xmlns:xlink="http://www.w3.org/1999/xlink" xlink:href="https://ourworldindata.org" target="_blank"><g><rect x="0" y="0" fill="#1B2543" width="211.2" height="130.1"/><rect x="0" y="112.2" fill="#E63912" width="211.2" height="17.9"/><g><rect x="1.2" y="12.3" fill="none" width="210.2" height="99.2"/><path fill="#FFFFFF" d="M37.8,32.2c0,12.7-7.7,19.4-17.1,19.4c-9.7,0-16.6-7.5-16.6-18.7c0-11.7,7.3-19.3,17.1-19.3 C31.3,13.7,37.8,21.3,37.8,32.2z M9.2,32.8c0,7.9,4.3,14.9,11.8,14.9c7.5,0,11.8-6.9,11.8-15.3c0-7.3-3.8-14.9-11.8-14.9 C13.1,17.5,9.2,24.8,9.2,32.8z"/><path fill="#FFFFFF" d="M62.7,43.8c0,2.7,0.1,5.1,0.2,7.2h-4.3l-0.3-4.3h-0.1c-1.3,2.1-4,4.9-8.8,4.9c-4.2,0-9.1-2.3-9.1-11.6 V24.6h4.8v14.6c0,5,1.5,8.4,5.9,8.4c3.2,0,5.5-2.2,6.3-4.4c0.3-0.7,0.4-1.6,0.4-2.5V24.6h4.8V43.8z"/><path fill="#FFFFFF" d="M67.3,32.8c0-3.1-0.1-5.8-0.2-8.2h4.2l0.2,5.2h0.2c1.2-3.5,4.1-5.8,7.3-5.8c0.5,0,0.9,0.1,1.4,0.2v4.5 c-0.5-0.1-1-0.2-1.6-0.2c-3.4,0-5.8,2.6-6.5,6.2c-0.1,0.7-0.2,1.4-0.2,2.2V51h-4.8V32.8z"/><path fill="#FFFFFF" d="M95.4,51l-9.4-36.8h5l4.4,18.6c1.1,4.6,2.1,9.2,2.7,12.7h0.1c0.6-3.7,1.8-8,3-12.8l4.9-18.5h5l4.5,18.7 c1,4.4,2,8.7,2.6,12.6h0.1c0.8-4,1.8-8.1,3-12.7l4.9-18.5h4.9L120.6,51h-5L111,31.9c-1.1-4.7-1.9-8.3-2.4-12h-0.1 c-0.7,3.7-1.5,7.3-2.8,12L100.4,51H95.4z"/><path fill="#FFFFFF" d="M154.9,37.6c0,9.8-6.8,14-13.2,14c-7.2,0-12.7-5.2-12.7-13.6c0-8.8,5.8-14,13.1-14 C149.8,24,154.9,29.5,154.9,37.6z M133.9,37.9c0,5.8,3.3,10.1,8,10.1c4.6,0,8-4.3,8-10.3c0-4.5-2.2-10.1-7.9-10.1 C136.3,27.6,133.9,32.8,133.9,37.9z"/><path fill="#FFFFFF" d="M158.2,32.8c0-3.1-0.1-5.8-0.2-8.2h4.2l0.2,5.2h0.2c1.2-3.5,4.1-5.8,7.3-5.8c0.5,0,0.9,0.1,1.4,0.2v4.5 c-0.5-0.1-1-0.2-1.6-0.2c-3.4,0-5.8,2.6-6.5,6.2c-0.1,0.7-0.2,1.4-0.2,2.2V51h-4.8V32.8z"/><path fill="#FFFFFF" d="M173.5,12.3h4.8V51h-4.8V12.3z"/><path fill="#FFFFFF" d="M206.5,12.3v31.9c0,2.3,0.1,5,0.2,6.8h-4.3l-0.2-4.6H202c-1.5,2.9-4.7,5.2-9,5.2 c-6.4,0-11.3-5.4-11.3-13.4c-0.1-8.8,5.4-14.2,11.9-14.2c4,0,6.8,1.9,8,4h0.1V12.3H206.5z M201.7,35.4c0-0.6-0.1-1.4-0.2-2 c-0.7-3.1-3.3-5.6-6.9-5.6c-5,0-7.9,4.4-7.9,10.2c0,5.3,2.6,9.8,7.8,9.8c3.2,0,6.2-2.1,7.1-5.7c0.2-0.7,0.2-1.3,0.2-2.1V35.4z"/><path fill="#FFFFFF" d="M42.8,64c0.1,1.6-1.1,2.9-3.1,2.9c-1.7,0-2.9-1.3-2.9-2.9c0-1.7,1.3-3,3-3C41.7,61,42.8,62.3,42.8,64z M37.4,97.8V71.4h4.8v26.4H37.4z"/><path fill="#FFFFFF" d="M47.5,78.6c0-2.7-0.1-5-0.2-7.1h4.3l0.3,4.4h0.1c1.3-2.5,4.4-5,8.8-5c3.7,0,9.4,2.2,9.4,11.2v15.8h-4.8 V82.6c0-4.3-1.6-7.8-6.1-7.8c-3.2,0-5.6,2.2-6.5,4.9c-0.2,0.6-0.3,1.4-0.3,2.2v15.9h-4.8V78.6z"/><path fill="#FFFFFF" d="M84,61.6c2.9-0.4,6.3-0.8,10.1-0.8c6.8,0,11.7,1.6,14.9,4.6c3.3,3,5.2,7.3,5.2,13.2c0,6-1.9,10.9-5.3,14.3 c-3.4,3.4-9.1,5.3-16.3,5.3c-3.4,0-6.2-0.2-8.6-0.4V61.6z M88.8,94.1c1.2,0.2,3,0.3,4.8,0.3c10.2,0,15.7-5.7,15.7-15.6 c0.1-8.7-4.9-14.2-14.9-14.2c-2.5,0-4.3,0.2-5.6,0.5V94.1z"/><path fill="#FFFFFF" d="M132.1,97.8l-0.4-3.3h-0.2c-1.5,2.1-4.3,3.9-8.1,3.9c-5.4,0-8.1-3.8-8.1-7.6c0-6.4,5.7-9.9,15.9-9.8v-0.5 c0-2.2-0.6-6.1-6-6.1c-2.5,0-5,0.8-6.9,2l-1.1-3.2c2.2-1.4,5.4-2.3,8.7-2.3c8.1,0,10.1,5.5,10.1,10.8v9.9c0,2.3,0.1,4.5,0.4,6.3 H132.1z M131.4,84.4c-5.3-0.1-11.2,0.8-11.2,5.9c0,3.1,2.1,4.6,4.5,4.6c3.4,0,5.6-2.2,6.4-4.4c0.2-0.5,0.3-1,0.3-1.5V84.4z"/><path fill="#FFFFFF" d="M146.6,63.9v7.6h6.9v3.7h-6.9v14.2c0,3.3,0.9,5.1,3.6,5.1c1.3,0,2.2-0.2,2.8-0.3l0.2,3.6 c-0.9,0.4-2.4,0.7-4.3,0.7c-2.2,0-4-0.7-5.2-2c-1.4-1.4-1.9-3.8-1.9-6.9V75.1h-4.1v-3.7h4.1v-6.3L146.6,63.9z"/><path fill="#FFFFFF" d="M171.4,97.8l-0.4-3.3h-0.2c-1.5,2.1-4.3,3.9-8.1,3.9c-5.4,0-8.1-3.8-8.1-7.6c0-6.4,5.7-9.9,15.9-9.8v-0.5 c0-2.2-0.6-6.1-6-6.1c-2.5,0-5,0.8-6.9,2l-1.1-3.2c2.2-1.4,5.4-2.3,8.7-2.3c8.1,0,10.1,5.5,10.1,10.8v9.9c0,2.3,0.1,4.5,0.4,6.3 H171.4z M170.7,84.4c-5.3-0.1-11.2,0.8-11.2,5.9c0,3.1,2.1,4.6,4.5,4.6c3.4,0,5.6-2.2,6.4-4.4c0.2-0.5,0.3-1,0.3-1.5V84.4z"/></g></g></a></g><a href="https://ourworldindata.org/grapher/political-regime-vs-mean-years-of-schooling" target="_blank"><text font-size="27.00" x="15.0" y="36.6" fill="#555"><tspan x="15" y="36.6">Political regime vs. Mean years of schooling, 1870 to 2010</tspan></text></a><text font-size="14.40" x="15.0" y="55.5" fill="#666"><tspan x="15" y="55.519999999999996">Political regimes are classified on a range from -10 (full autocracy) to +10 (full democracy).</tspan></text></g><g><g class="AxisBoxView"><g class="HorizontalAxis"><text font-size="12.60" x="221.1" y="554.0"><tspan x="221.108" y="553.98">Average annual change in mean years of schooling</tspan></text><text x="130.4" y="533.9" fill="#666" text-anchor="middle" font-size="16.2">1%</text><text x="245.4" y="533.9" fill="#666" text-anchor="middle" font-size="16.2">2%</text><text x="360.4" y="533.9" fill="#666" text-anchor="middle" font-size="16.2">3%</text><text x="475.4" y="533.9" fill="#666" text-anchor="middle" font-size="16.2">4%</text><text x="590.4" y="533.9" fill="#666" text-anchor="middle" font-size="16.2">5%</text><text x="705.4" y="533.9" fill="#666" text-anchor="middle" font-size="16.2">6%</text></g><g class="VerticalAxis"><text font-size="12.60" x="-530.6" y="25.1" transform="rotate(-90)"><tspan x="-530.5790000000001" y="25.080000000000002">Average annual change in political regime (from -10 full autocracy to +10 full</tspan><tspan x="-530.5790000000001" y="38.940000000000005">democracy)</tspan></text><text x="93.74" y="500.7" fill="#666" dominant-baseline="middle" text-anchor="end" font-size="16.2">-2%</text><text x="93.74" y="449.4" fill="#666" dominant-baseline="middle" text-anchor="end" font-size="16.2">-1.5%</text><text x="93.74" y="398.1" fill="#666" dominant-baseline="middle" text-anchor="end" font-size="16.2">-1%</text><text x="93.74" y="346.8" fill="#666" dominant-baseline="middle" text-anchor="end" font-size="16.2">-0.5%</text><text x="93.74" y="295.6" fill="#666" dominant-baseline="middle" text-anchor="end" font-size="16.2">0%</text><text x="93.74" y="244.3" fill="#666" dominant-baseline="middle" text-anchor="end" font-size="16.2">0.5%</text><text x="93.74" y="193" fill="#666" dominant-baseline="middle" text-anchor="end" font-size="16.2">1%</text><text x="93.74" y="141.7" fill="#666" dominant-baseline="middle" text-anchor="end" font-size="16.2">1.5%</text><text x="93.74" y="90.4" fill="#666" dominant-baseline="middle" text-anchor="end" font-size="16.2">2%</text></g><g class="AxisGridLines"><line x1="98.74" y1="500.7" x2="715.00" y2="500.7" stroke="#ddd" stroke-dasharray="3,2"></line><line x1="98.74" y1="449.4" x2="715.00" y2="449.4" stroke="#ddd" stroke-dasharray="3,2"></line><line x1="98.74" y1="398.1" x2="715.00" y2="398.1" stroke="#ddd" stroke-dasharray="3,2"></line><line x1="98.74" y1="346.8" x2="715.00" y2="346.8" stroke="#ddd" stroke-dasharray="3,2"></line><line x1="98.74" y1="295.6" x2="715.00" y2="295.6" stroke="#ccc"></line><line x1="98.74" y1="244.3" x2="715.00" y2="244.3" stroke="#ddd" stroke-dasharray="3,2"></line><line x1="98.74" y1="193" x2="715.00" y2="193" stroke="#ddd" stroke-dasharray="3,2"></line><line x1="98.74" y1="141.7" x2="715.00" y2="141.7" stroke="#ddd" stroke-dasharray="3,2"></line><line x1="98.74" y1="90.4" x2="715.00" y2="90.4" stroke="#ddd" stroke-dasharray="3,2"></line></g><g class="AxisGridLines"><line x1="130.4" y1="512.70" x2="130.4" y2="78.40" stroke="#ddd" stroke-dasharray="3,2"></line><line x1="245.4" y1="512.70" x2="245.4" y2="78.40" stroke="#ddd" stroke-dasharray="3,2"></line><line x1="360.4" y1="512.70" x2="360.4" y2="78.40" stroke="#ddd" stroke-dasharray="3,2"></line><line x1="475.4" y1="512.70" x2="475.4" y2="78.40" stroke="#ddd" stroke-dasharray="3,2"></line><line x1="590.4" y1="512.70" x2="590.4" y2="78.40" stroke="#ddd" stroke-dasharray="3,2"></line><line x1="705.4" y1="512.70" x2="705.4" y2="78.40" stroke="#ddd" stroke-dasharray="3,2"></line></g></g><g clip-path="url(#scatterBounds-1)" font-family="Arial Narrow, Arial, sans-serif" class="PointsWithLabels clickable"><rect x="98.744" y="78.4" width="616.256" height="434.3" fill="rgba(255,255,255,0)"></rect><defs><clipPath id="scatterBounds-1"><rect x="88.744" y="68.4" width="636.256" height="454.3"></rect></clipPath></defs><g class="key-China_0"><circle cx="580.00" cy="284.00" r="17.84" fill="#d14e5b" opacity="0.8"></circle></g><g class="key-India_0"><circle cx="467.00" cy="237.00" r="17.06" fill="#d14e5b" opacity="0.8"></circle></g><g class="key-United-States_0"><circle cx="108.00" cy="279.00" r="8.72" fill="#4d824b" opacity="0.8"></circle></g><g class="key-Indonesia_0"><circle cx="578.00" cy="228.00" r="7.72" fill="#d14e5b" opacity="0.8"></circle></g><g class="key-Brazil_0"><circle cx="354.00" cy="316.00" r="7.00" fill="#69c487" opacity="0.8"></circle></g><g class="key-Pakistan_0"><circle cx="540.00" cy="207.00" r="6.63" fill="#d14e5b" opacity="0.8"></circle></g><g class="key-Bangladesh_0"><circle cx="556.00" cy="194.00" r="6.17" fill="#d14e5b" opacity="0.8"></circle></g><g class="key-Russia_0"><circle cx="381.00" cy="228.00" r="6.06" fill="#ffd336" opacity="0.8"></circle></g><g class="key-Japan_0"><circle cx="277.00" cy="125.00" r="5.74" fill="#d14e5b" opacity="0.8"></circle></g><g class="key-Mexico_0"><circle cx="282.00" cy="330.00" r="5.46" fill="#4d824b" opacity="0.8"></circle></g><g class="key-Philippines_0"><circle cx="490.00" cy="228.00" r="5.01" fill="#d14e5b" opacity="0.8"></circle></g><g class="key-Germany_0"><circle cx="158.00" cy="346.00" r="4.74" fill="#ffd336" opacity="0.8"></circle></g><g class="key-Egypt_0"><circle cx="512.00" cy="433.00" r="4.72" fill="#5675c1" opacity="0.8"></circle></g><g class="key-Iran_0"><circle cx="589.00" cy="321.00" r="4.53" fill="#d14e5b" opacity="0.8"></circle></g><g class="key-Turkey_0"><circle cx="571.00" cy="269.00" r="4.50" fill="#d14e5b" opacity="0.8"></circle></g><g class="key-Thailand_0"><circle cx="582.00" cy="228.00" r="4.41" fill="#d14e5b" opacity="0.8"></circle></g><g class="key-Democratic-Republic-of-Congo_0"><circle cx="513.00" cy="194.00" r="4.32" fill="#5675c1" opacity="0.8"></circle></g><g class="key-France_0"><circle cx="245.00" cy="406.00" r="4.23" fill="#ffd336" opacity="0.8"></circle></g><g class="key-United-Kingdom_0"><circle cx="231.00" cy="207.00" r="4.21" fill="#ffd336" opacity="0.8"></circle></g><g class="key-Italy_0"><circle cx="222.00" cy="362.00" r="4.17" fill="#ffd336" opacity="0.8"></circle></g><g class="key-South-Africa_0"><circle cx="237.00" cy="237.00" r="3.87" fill="#5675c1" opacity="0.8"></circle></g><g class="key-South-Korea_0"><circle cx="282.00" cy="197.00" r="3.81" fill="#d14e5b" opacity="0.8"></circle></g><g class="key-Myanmar_0"><circle cx="401.00" cy="383.00" r="3.80" fill="#d14e5b" opacity="0.8"></circle></g><g class="key-Colombia_0"><circle cx="296.00" cy="305.00" r="3.75" fill="#69c487" opacity="0.8"></circle></g><g class="key-Spain_0"><circle cx="174.00" cy="465.00" r="3.74" fill="#ffd336" opacity="0.8"></circle></g><g class="key-Kenya_0"><circle cx="559.00" cy="228.00" r="3.56" fill="#5675c1" opacity="0.8"></circle></g><g class="key-Argentina_0"><circle cx="282.00" cy="367.00" r="3.56" fill="#69c487" opacity="0.8"></circle></g><g class="key-Poland_0"><circle cx="191.00" cy="244.00" r="3.49" fill="#ffd336" opacity="0.8"></circle></g><g class="key-Algeria_0"><circle cx="369.00" cy="128.00" r="3.39" fill="#5675c1" opacity="0.8"></circle></g><g class="key-Sudan_0"><circle cx="506.00" cy="462.00" r="3.35" fill="#5675c1" opacity="0.8"></circle></g><g class="key-Canada_0"><circle cx="143.00" cy="228.00" r="3.34" fill="#4d824b" opacity="0.8"></circle></g><g class="key-Uganda_0"><circle cx="551.00" cy="512.00" r="3.32" fill="#5675c1" opacity="0.8"></circle></g><g class="key-Morocco_0"><circle cx="541.00" cy="295.00" r="3.27" fill="#5675c1" opacity="0.8"></circle></g><g class="key-Iraq_0"><circle cx="571.00" cy="157.00" r="3.26" fill="#d14e5b" opacity="0.8"></circle></g><g class="key-Nepal_0"><circle cx="527.00" cy="346.00" r="3.20" fill="#d14e5b" opacity="0.8"></circle></g><g class="key-Peru_0"><circle cx="496.00" cy="457.00" r="3.16" fill="#69c487" opacity="0.8"></circle></g><g class="key-Venezuela_0"><circle cx="526.00" cy="332.00" r="3.16" fill="#69c487" opacity="0.8"></circle></g><g class="key-Malaysia_0"><circle cx="544.00" cy="207.00" r="3.14" fill="#d14e5b" opacity="0.8"></circle></g><g class="key-Ghana_0"><circle cx="574.00" cy="228.00" r="2.98" fill="#5675c1" opacity="0.8"></circle></g><g class="key-Mozambique_0"><circle cx="460.00" cy="194.00" r="2.94" fill="#5675c1" opacity="0.8"></circle></g><g class="key-Taiwan_0"><circle cx="715.00" cy="236.00" r="2.93" fill="#d14e5b" opacity="0.8"></circle></g><g class="key-Afghanistan_0"><circle cx="532.00" cy="283.00" r="2.92" fill="#d14e5b" opacity="0.8"></circle></g><g class="key-Australia_0"><circle cx="173.00" cy="244.00" r="2.90" fill="#a652ba" opacity="0.8"></circle></g><g class="key-Romania_0"><circle cx="408.00" cy="314.00" r="2.87" fill="#ffd336" opacity="0.8"></circle></g><g class="key-Sri-Lanka_0"><circle cx="360.00" cy="157.00" r="2.84" fill="#d14e5b" opacity="0.8"></circle></g><g class="key-Syria_0"><circle cx="567.00" cy="372.00" r="2.82" fill="#d14e5b" opacity="0.8"></circle></g><g class="key-Cameroon_0"><circle cx="558.00" cy="426.00" r="2.79" fill="#5675c1" opacity="0.8"></circle></g><g class="key-Chile_0"><circle cx="274.00" cy="203.00" r="2.68" fill="#69c487" opacity="0.8"></circle></g><g class="key-Netherlands_0"><circle cx="129.00" cy="384.00" r="2.66" fill="#ffd336" opacity="0.8"></circle></g><g class="key-Cote-d__0027Ivoire_0"><circle cx="559.00" cy="169.00" r="2.66" fill="#5675c1" opacity="0.8"></circle></g><g class="key-Niger_0"><circle cx="456.00" cy="157.00" r="2.61" fill="#5675c1" opacity="0.8"></circle></g><g class="key-Mali_0"><circle cx="464.00" cy="218.00" r="2.61" fill="#5675c1" opacity="0.8"></circle></g><g class="key-Malawi_0"><circle cx="537.00" cy="207.00" r="2.58" fill="#5675c1" opacity="0.8"></circle></g><g class="key-Ecuador_0"><circle cx="327.00" cy="414.00" r="2.56" fill="#69c487" opacity="0.8"></circle></g><g class="key-Guatemala_0"><circle cx="278.00" cy="367.00" r="2.56" fill="#4d824b" opacity="0.8"></circle></g><g class="key-Cambodia_0"><circle cx="536.00" cy="128.00" r="2.55" fill="#d14e5b" opacity="0.8"></circle></g><g class="key-Zambia_0"><circle cx="571.00" cy="218.00" r="2.50" fill="#5675c1" opacity="0.8"></circle></g><g class="key-Zimbabwe_0"><circle cx="576.00" cy="78.00" r="2.48" fill="#5675c1" opacity="0.8"></circle></g><g class="key-Senegal_0"><circle cx="496.00" cy="218.00" r="2.47" fill="#5675c1" opacity="0.8"></circle></g><g class="key-Greece_0"><circle cx="237.00" cy="287.00" r="2.42" fill="#ffd336" opacity="0.8"></circle></g><g class="key-Cuba_0"><circle cx="393.00" cy="372.00" r="2.41" fill="#4d824b" opacity="0.8"></circle></g><g class="key-Belgium_0"><circle cx="142.00" cy="274.00" r="2.39" fill="#ffd336" opacity="0.8"></circle></g><g class="key-Portugal_0"><circle cx="304.00" cy="321.00" r="2.38" fill="#ffd336" opacity="0.8"></circle></g><g class="key-Czech-Republic_0"><circle cx="131.00" cy="237.00" r="2.38" fill="#ffd336" opacity="0.8"></circle></g><g class="key-Tunisia_0"><circle cx="577.00" cy="412.00" r="2.37" fill="#5675c1" opacity="0.8"></circle></g><g class="key-Hungary_0"><circle cx="171.00" cy="362.00" r="2.35" fill="#ffd336" opacity="0.8"></circle></g><g class="key-Bolivia_0"><circle cx="430.00" cy="295.00" r="2.35" fill="#69c487" opacity="0.8"></circle></g><g class="key-Dominican-Republic_0"><circle cx="412.00" cy="367.00" r="2.35" fill="#4d824b" opacity="0.8"></circle></g><g class="key-Serbia_0"><circle cx="421.00" cy="330.00" r="2.34" fill="#ffd336" opacity="0.8"></circle></g><g class="key-Sweden_0"><circle cx="114.00" cy="362.00" r="2.32" fill="#ffd336" opacity="0.8"></circle></g><g class="key-Haiti_0"><circle cx="555.00" cy="295.00" r="2.32" fill="#4d824b" opacity="0.8"></circle></g><g class="key-Benin_0"><circle cx="529.00" cy="218.00" r="2.29" fill="#5675c1" opacity="0.8"></circle></g><g class="key-Austria_0"><circle cx="143.00" cy="362.00" r="2.27" fill="#ffd336" opacity="0.8"></circle></g><g class="key-Switzerland_0"><circle cx="110.00" cy="295.00" r="2.23" fill="#ffd336" opacity="0.8"></circle></g><g class="key-Honduras_0"><circle cx="287.00" cy="357.00" r="2.23" fill="#4d824b" opacity="0.8"></circle></g><g class="key-Bulgaria_0"><circle cx="222.00" cy="237.00" r="2.22" fill="#ffd336" opacity="0.8"></circle></g><g class="key-Paraguay_0"><circle cx="411.00" cy="367.00" r="2.17" fill="#69c487" opacity="0.8"></circle></g><g class="key-Libya_0"><circle cx="585.00" cy="295.00" r="2.16" fill="#5675c1" opacity="0.8"></circle></g><g class="key-El-Salvador_0"><circle cx="315.00" cy="449.00" r="2.15" fill="#4d824b" opacity="0.8"></circle></g><g class="key-Jordan_0"><circle cx="597.00" cy="433.00" r="2.15" fill="#d14e5b" opacity="0.8"></circle></g><g class="key-Togo_0"><circle cx="553.00" cy="482.00" r="2.14" fill="#5675c1" opacity="0.8"></circle></g><g class="key-Sierra-Leone_0"><circle cx="464.00" cy="218.00" r="2.13" fill="#5675c1" opacity="0.8"></circle></g><g class="key-Nicaragua_0"><circle cx="322.00" cy="338.00" r="2.13" fill="#4d824b" opacity="0.8"></circle></g><g class="key-Denmark_0"><circle cx="146.00" cy="384.00" r="2.12" fill="#ffd336" opacity="0.8"></circle></g><g class="key-Finland_0"><circle cx="383.00" cy="244.00" r="2.11" fill="#ffd336" opacity="0.8"></circle></g><g class="key-Norway_0"><circle cx="98.00" cy="321.00" r="2.08" fill="#ffd336" opacity="0.8"></circle></g><g class="key-Costa-Rica_0"><circle cx="287.00" cy="244.00" r="2.07" fill="#4d824b" opacity="0.8"></circle></g><g class="key-Ireland_0"><circle cx="249.00" cy="244.00" r="2.06" fill="#ffd336" opacity="0.8"></circle></g><g class="key-New-Zealand_0"><circle cx="110.00" cy="295.00" r="2.05" fill="#a652ba" opacity="0.8"></circle></g><g class="key-Liberia_0"><circle cx="388.00" cy="265.00" r="2.03" fill="#5675c1" opacity="0.8"></circle></g><g class="key-Panama_0"><circle cx="416.00" cy="237.00" r="2.00" fill="#4d824b" opacity="0.8"></circle></g><g class="key-Uruguay_0"><circle cx="284.00" cy="384.00" r="1.99" fill="#69c487" opacity="0.8"></circle></g><g class="key-Albania_0"><circle cx="541.00" cy="237.00" r="1.98" fill="#ffd336" opacity="0.8"></circle></g><g class="key-Jamaica_0"><circle cx="239.00" cy="317.00" r="1.95" fill="#4d824b" opacity="0.8"></circle></g><g class="key-Kuwait_0"><circle cx="213.00" cy="352.00" r="1.95" fill="#d14e5b" opacity="0.8"></circle></g><g class="key-Lesotho_0"><circle cx="460.00" cy="228.00" r="1.92" fill="#5675c1" opacity="0.8"></circle></g><g class="key-Gambia_0"><circle cx="379.00" cy="396.00" r="1.89" fill="#5675c1" opacity="0.8"></circle></g><g class="key-Trinidad-and-Tobago_0"><circle cx="168.00" cy="244.00" r="1.87" fill="#4d824b" opacity="0.8"></circle></g><g class="key-Mauritius_0"><circle cx="200.00" cy="268.00" r="1.87" fill="#5675c1" opacity="0.8"></circle></g><g class="key-Swaziland_0"><circle cx="542.00" cy="353.00" r="1.86" fill="#5675c1" opacity="0.8"></circle></g><g class="key-Cyprus_0"><circle cx="323.00" cy="244.00" r="1.85" fill="#ffd336" opacity="0.8"></circle></g><g class="key-Fiji_0"><circle cx="189.00" cy="89.00" r="1.84" fill="#a652ba" opacity="0.8"></circle></g><g class="key-Guyana_0"><circle cx="313.00" cy="207.00" r="1.83" fill="#69c487" opacity="0.8"></circle></g><g class="key-Luxembourg_0"><circle cx="488.00" cy="384.00" r="1.82" fill="#ffd336" opacity="0.8"></circle></g><g class="key-Belize_0"><circle cx="304.00" cy="295.00" r="1.79" fill="#4d824b" opacity="0.8"></circle></g><g class="key-Iceland_0"><circle cx="328.00" cy="295.00" r="1.79" fill="#ffd336" opacity="0.8"></circle></g><g class="key-Yemen_0"><circle cx="514.00" cy="462.00" r="1.78" fill="#d14e5b" opacity="0.8"></circle></g><g fill="#666" class="backgroundLabels"><text x="580.00" y="265.16" font-size="14.30">China</text><text x="467.00" y="218.94" font-size="14.01">India</text><text x="108.00" y="269.28" font-size="11.76">United States</text><text x="578.00" y="219.28" font-size="11.59">Indonesia</text><text x="354.00" y="308.00" font-size="11.48">Brazil</text><text x="540.00" y="199.37" font-size="11.43">Pakistan</text><text x="556.00" y="186.83" font-size="11.37">Bangladesh</text><text x="381.00" y="220.94" font-size="11.35">Russia</text><text x="277.00" y="118.26" font-size="11.31">Japan</text><text x="282.00" y="323.54" font-size="11.28">Mexico</text><text x="158.00" y="340.26" font-size="11.20">Germany</text><text x="512.00" y="427.28" font-size="11.20">Egypt</text><text x="589.00" y="315.47" font-size="11.18">Iran</text><text x="245.00" y="400.77" font-size="11.15">France</text><text x="231.00" y="201.79" font-size="11.15">United Kingdom</text><text x="222.00" y="356.83" font-size="11.15">Italy</text><text x="237.00" y="232.13" font-size="11.12">South Africa</text><text x="401.00" y="378.20" font-size="11.12">Myanmar</text><text x="296.00" y="300.25" font-size="11.11">Colombia</text><text x="174.00" y="460.26" font-size="11.11">Spain</text><text x="282.00" y="362.44" font-size="11.10">Argentina</text><text x="191.00" y="239.51" font-size="11.09">Poland</text><text x="369.00" y="123.61" font-size="11.09">Algeria</text><text x="506.00" y="457.65" font-size="11.08">Sudan</text><text x="143.00" y="223.66" font-size="11.08">Canada</text><text x="551.00" y="507.68" font-size="11.08">Uganda</text><text x="541.00" y="290.73" font-size="11.08">Morocco</text><text x="571.00" y="152.74" font-size="11.08">Iraq</text><text x="527.00" y="341.80" font-size="11.07">Nepal</text><text x="526.00" y="327.84" font-size="11.07">Venezuela</text><text x="460.00" y="190.06" font-size="11.06">Mozambique</text><text x="679.29" y="232.07" font-size="11.06">Taiwan</text><text x="532.00" y="279.08" font-size="11.06">Afghanistan</text><text x="408.00" y="310.13" font-size="11.05">Romania</text><text x="360.00" y="153.16" font-size="11.05">Sri Lanka</text><text x="567.00" y="368.18" font-size="11.05">Syria</text><text x="558.00" y="422.21" font-size="11.05">Cameroon</text><text x="129.00" y="380.34" font-size="11.04">Netherlands</text><text x="559.00" y="165.34" font-size="11.05">Cote d'Ivoire</text><text x="456.00" y="153.39" font-size="11.04">Niger</text><text x="327.00" y="410.44" font-size="11.04">Ecuador</text><text x="536.00" y="124.45" font-size="11.03">Cambodia</text><text x="576.00" y="89.43" font-size="11.03">Zimbabwe</text><text x="237.00" y="283.58" font-size="11.03">Greece</text><text x="577.00" y="408.63" font-size="11.03">Tunisia</text><text x="171.00" y="358.65" font-size="11.02">Hungary</text><text x="430.00" y="291.65" font-size="11.02">Bolivia</text><text x="412.00" y="363.65" font-size="11.02">Dominican Republic</text><text x="421.00" y="326.66" font-size="11.02">Serbia</text><text x="114.00" y="358.68" font-size="11.02">Sweden</text><text x="529.00" y="214.71" font-size="11.02">Benin</text><text x="110.00" y="291.77" font-size="11.02">Switzerland</text><text x="585.00" y="291.84" font-size="11.02">Libya</text><text x="315.00" y="445.85" font-size="11.02">El Salvador</text><text x="553.00" y="478.86" font-size="11.01">Togo</text><text x="322.00" y="334.87" font-size="11.01">Nicaragua</text><text x="383.00" y="240.89" font-size="11.01">Finland</text><text x="98.00" y="317.92" font-size="11.01">Norway</text><text x="388.00" y="261.97" font-size="11.01">Liberia</text><text x="284.00" y="381.01" font-size="11.01">Uruguay</text><text x="541.00" y="234.02" font-size="11.01">Albania</text><text x="239.00" y="314.05" font-size="11.01">Jamaica</text><text x="379.00" y="393.11" font-size="11.00">Gambia</text><text x="200.00" y="265.13" font-size="11.00">Mauritius</text><text x="323.00" y="241.15" font-size="11.00">Cyprus</text><text x="189.00" y="89.40" font-size="11.00">Fiji</text><text x="313.00" y="204.17" font-size="11.00">Guyana</text><text x="488.00" y="381.18" font-size="11.00">Luxembourg</text></g></g><g style="cursor: pointer;" class="ScatterColorLegend clickable"><g class="legendMark"><rect x="735" y="75.9" width="43.256" height="17.6" fill="#fff" opacity="0"></rect>,<rect x="735" y="81.4" width="6" height="6" fill="#5675c1"></rect>,<text font-size="12.60" x="746.0" y="88.5"><tspan x="746" y="88.48">Africa</tspan></text></g><g class="legendMark"><rect x="735" y="93.5" width="35.57" height="17.6" fill="#fff" opacity="0"></rect>,<rect x="735" y="99" width="6" height="6" fill="#d14e5b"></rect>,<text font-size="12.60" x="746.0" y="106.1"><tspan x="746" y="106.08">Asia</tspan></text></g><g class="legendMark"><rect x="735" y="111.10000000000001" width="51.824" height="17.6" fill="#fff" opacity="0"></rect>,<rect x="735" y="116.60000000000001" width="6" height="6" fill="#ffd336"></rect>,<text font-size="12.60" x="746.0" y="123.7"><tspan x="746" y="123.68">Europe</tspan></text></g><g class="legendMark"><rect x="735" y="128.70000000000002" width="91.64" height="17.6" fill="#fff" opacity="0"></rect>,<rect x="735" y="134.20000000000002" width="6" height="6" fill="#4d824b"></rect>,<text font-size="12.60" x="746.0" y="141.3"><tspan x="746" y="141.28">North America</tspan></text></g><g class="legendMark"><rect x="735" y="146.3" width="58.124" height="17.6" fill="#fff" opacity="0"></rect>,<rect x="735" y="151.8" width="6" height="6" fill="#a652ba"></rect>,<text font-size="12.60" x="746.0" y="158.9"><tspan x="746" y="158.88">Oceania</tspan></text></g><g class="legendMark"><rect x="735" y="163.9" width="93.908" height="17.6" fill="#fff" opacity="0"></rect>,<rect x="735" y="169.4" width="6" height="6" fill="#69c487"></rect>,<text font-size="12.60" x="746.0" y="176.5"><tspan x="746" y="176.48">South America</tspan></text></g></g></g><g style="fill: #777;" class="SourcesFooter"><g style="fill: #777;" class="clickable"><text font-size="12.60" x="15.0" y="581.6"><tspan x="15" y="581.58">Source: Political Regime (OWID based on Polity IV and Wimmer &amp; Min), Lee and Lee (2016)</tspan></text></g><text font-size="12.60" x="649.0" y="581.6"><tspan x="649.024" y="581.58"><a target='_blank' style='fill: #777;' href='https://ourworldindata.org'>OurWorldInData.org</a> • <a style="fill: #777;" href="http://creativecommons.org/licenses/by-sa/4.0/deed.en_US" target="_blank">CC BY-SA</a></tspan></text></g></g></svg>