<svg xmlns="http://www.w3.org/2000/svg" version="1.1" style="font-family: 'Helvetica Neue', Helvetica, Arial, sans-serif; font-size: 24px; background-color: white;" width="1200" height="630"><g class="ChartTab"><g><g class="AxisBoxView"><g class="HorizontalAxis"><text font-size="16.80" x="337.4" y="596.6"><tspan x="337.3800000000001" y="596.64">Population density (people per sq. km of land area)</tspan></text><text x="299.1" y="573.2" fill="#666" text-anchor="middle" font-size="21.6">10 people</text><text x="524.2" y="573.2" fill="#666" text-anchor="middle" font-size="21.6">100 people</text><text x="749.4" y="573.2" fill="#666" text-anchor="middle" font-size="21.6">1,000 people</text><text x="974.5" y="573.2" fill="#666" text-anchor="middle" font-size="21.6">10,000 people</text></g><g class="VerticalAxis"><text font-size="16.80" x="-375.1" y="28.4" transform="rotate(-90)"><tspan x="-375.124" y="28.439999999999998">GDP per capita</tspan></text><text x="132.52" y="501" fill="#666" dominant-baseline="middle" text-anchor="end" font-size="21.6">$1,000</text><text x="132.52" y="276.8" fill="#666" dominant-baseline="middle" text-anchor="end" font-size="21.6">$10,000</text><text x="132.52" y="52.6" fill="#666" dominant-baseline="middle" text-anchor="end" font-size="21.6">$100,000</text></g><g class="AxisGridLines"><line x1="137.52" y1="501" x2="1041.46" y2="501" stroke="#ddd" stroke-dasharray="3,2"></line><line x1="137.52" y1="276.8" x2="1041.46" y2="276.8" stroke="#ddd" stroke-dasharray="3,2"></line><line x1="137.52" y1="52.6" x2="1041.46" y2="52.6" stroke="#ddd" stroke-dasharray="3,2"></line></g><g class="AxisGridLines"><line x1="299.1" y1="546.60" x2="299.1" y2="35.00" stroke="#ddd" stroke-dasharray="3,2"></line><line x1="524.2" y1="546.60" x2="524.2" y2="35.00" stroke="#ddd" stroke-dasharray="3,2"></line><line x1="749.4" y1="546.60" x2="749.4" y2="35.00" stroke="#ddd" stroke-dasharray="3,2"></line><line x1="974.5" y1="546.60" x2="974.5" y2="35.00" stroke="#ddd" stroke-dasharray="3,2"></line></g></g><g clip-path="url(#scatterBounds-1053)" class="PointsWithLabels clickable"><rect x="137.52" y="35" width="903.9360000000001" height="511.6" fill="rgba(255,255,255,0)"></rect><defs><clipPath id="scatterBounds-1053"><rect x="127.52000000000001" y="25" width="923.9360000000001" height="531.6"></rect></clipPath></defs><circle cx="561" cy="247" r="17.841241161527712" fill="#d14e5b" opacity="0.8"></circle><circle cx="669" cy="330" r="17.285356057989244" fill="#d14e5b" opacity="0.8"></circle><circle cx="421" cy="114" r="8.775827592156181" fill="#4d824b" opacity="0.8"></circle><circle cx="558" cy="273" r="7.7771583070124555" fill="#d14e5b" opacity="0.8"></circle><circle cx="387" cy="239" r="7.039653870913959" fill="#69c487" opacity="0.8"></circle><circle cx="612" cy="350" r="6.756320026155555" fill="#d14e5b" opacity="0.8"></circle><circle cx="591" cy="332" r="6.542119322317531" fill="#5675c1" opacity="0.8"></circle><circle cx="770" cy="389" r="6.2428040004284355" fill="#d14e5b" opacity="0.8"></circle><circle cx="286" cy="191" r="6.019035640256906" fill="#ffd336" opacity="0.8"></circle><circle cx="646" cy="147" r="5.698277896658096" fill="#d14e5b" opacity="0.8"></circle><circle cx="481" cy="227" r="5.51496637160097" fill="#4d824b" opacity="0.8"></circle><circle cx="644" cy="313" r="5.091711077112722" fill="#d14e5b" opacity="0.8"></circle><circle cx="630" cy="332" r="4.919046456153572" fill="#d14e5b" opacity="0.8"></circle><circle cx="524" cy="459" r="4.864544262025267" fill="#5675c1" opacity="0.8"></circle><circle cx="518" cy="275" r="4.793062307423032" fill="#5675c1" opacity="0.8"></circle><circle cx="607" cy="133" r="4.705833853569043" fill="#ffd336" opacity="0.8"></circle><circle cx="453" cy="231" r="4.570961559090974" fill="#d14e5b" opacity="0.8"></circle><circle cx="525" cy="194" r="4.5443092501218025" fill="#d14e5b" opacity="0.8"></circle><circle cx="417" cy="529" r="4.442693238350774" fill="#5675c1" opacity="0.8"></circle><circle cx="553" cy="235" r="4.411894109421844" fill="#d14e5b" opacity="0.8"></circle><circle cx="543" cy="147" r="4.238771236890895" fill="#ffd336" opacity="0.8"></circle><circle cx="621" cy="145" r="4.2221796907682725" fill="#ffd336" opacity="0.8"></circle><circle cx="595" cy="156" r="4.164408106129703" fill="#ffd336" opacity="0.8"></circle><circle cx="446" cy="255" r="3.8729120102874" fill="#5675c1" opacity="0.8"></circle><circle cx="475" cy="412" r="3.8178086938267426" fill="#5675c1" opacity="0.8"></circle><circle cx="502" cy="342" r="3.816795859471172" fill="#d14e5b" opacity="0.8"></circle><circle cx="686" cy="157" r="3.80630802272181" fill="#d14e5b" opacity="0.8"></circle><circle cx="442" cy="251" r="3.787700592189955" fill="#69c487" opacity="0.8"></circle><circle cx="517" cy="162" r="3.7531893339935762" fill="#ffd336" opacity="0.8"></circle><circle cx="499" cy="305" r="3.68002887879672" fill="#ffd336" opacity="0.8"></circle><circle cx="506" cy="399" r="3.6555998886049053" fill="#5675c1" opacity="0.8"></circle><circle cx="344" cy="213" r="3.5770815446984026" fill="#69c487" opacity="0.8"></circle><circle cx="545" cy="186" r="3.473772051555195" fill="#ffd336" opacity="0.8"></circle><circle cx="349" cy="246" r="3.42850213374781" fill="#5675c1" opacity="0.8"></circle><circle cx="592" cy="449" r="3.420898786220902" fill="#5675c1" opacity="0.8"></circle><circle cx="376" cy="359" r="3.393056757303889" fill="#5675c1" opacity="0.8"></circle><circle cx="208" cy="134" r="3.360545184613839" fill="#4d824b" opacity="0.8"></circle><circle cx="506" cy="237" r="3.3530334533437878" fill="#d14e5b" opacity="0.8"></circle><circle cx="459" cy="446" r="3.3434688238434447" fill="#d14e5b" opacity="0.8"></circle><circle cx="499" cy="307" r="3.288436572180214" fill="#5675c1" opacity="0.8"></circle><circle cx="591" cy="419" r="3.239070012813064" fill="#d14e5b" opacity="0.8"></circle><circle cx="422" cy="221" r="3.1960256128161664" fill="#69c487" opacity="0.8"></circle><circle cx="386" cy="260" r="3.1863839411333825" fill="#69c487" opacity="0.8"></circle><circle cx="517" cy="187" r="3.175890838330289" fill="#d14e5b" opacity="0.8"></circle><circle cx="336" cy="118" r="3.158771432542371" fill="#d14e5b" opacity="0.8"></circle><circle cx="494" cy="331" r="3.124783741646527" fill="#d14e5b" opacity="0.8"></circle><circle cx="543" cy="367" r="3.0395360377674896" fill="#5675c1" opacity="0.8"></circle><circle cx="423" cy="490" r="2.997178084703784" fill="#5675c1" opacity="0.8"></circle><circle cx="184" cy="132" r="2.926169740210685" fill="#a652ba" opacity="0.8"></circle><circle cx="438" cy="469" r="2.8999523405339462" fill="#5675c1" opacity="0.8"></circle><circle cx="642" cy="267" r="2.8531633467298065" fill="#d14e5b" opacity="0.8"></circle><circle cx="509" cy="206" r="2.850925610924903" fill="#ffd336" opacity="0.8"></circle><circle cx="493" cy="386" r="2.8394576462992256" fill="#5675c1" opacity="0.8"></circle><circle cx="453" cy="394" r="2.8335847110825885" fill="#5675c1" opacity="0.8"></circle><circle cx="377" cy="322" r="2.8254285887174957" fill="#5675c1" opacity="0.8"></circle><circle cx="483" cy="458" r="2.7122758179530764" fill="#5675c1" opacity="0.8"></circle><circle cx="384" cy="197" r="2.693533883207381" fill="#69c487" opacity="0.8"></circle><circle cx="343" cy="511" r="2.6790948061123694" fill="#5675c1" opacity="0.8"></circle><circle cx="334" cy="437" r="2.6603569597248296" fill="#5675c1" opacity="0.8"></circle><circle cx="682" cy="127" r="2.6583219283504627" fill="#ffd336" opacity="0.8"></circle><circle cx="256" cy="193" r="2.6491242898077068" fill="#d14e5b" opacity="0.8"></circle><circle cx="585" cy="492" r="2.6428148743727373" fill="#5675c1" opacity="0.8"></circle><circle cx="564" cy="307" r="2.6039581284715454" fill="#4d824b" opacity="0.8"></circle><circle cx="482" cy="269" r="2.583127112536918" fill="#69c487" opacity="0.8"></circle><circle cx="511" cy="385" r="2.5648723168307304" fill="#d14e5b" opacity="0.8"></circle><circle cx="374" cy="375" r="2.549392716070518" fill="#5675c1" opacity="0.8"></circle><circle cx="499" cy="420" r="2.509972681729497" fill="#5675c1" opacity="0.8"></circle><circle cx="436" cy="439" r="2.5041349548011587" fill="#5675c1" opacity="0.8"></circle><circle cx="309" cy="431" r="2.4486204128941145" fill="#5675c1" opacity="0.8"></circle><circle cx="675" cy="448" r="2.423237613465051" fill="#5675c1" opacity="0.8"></circle><circle cx="507" cy="191" r="2.41544039066649" fill="#ffd336" opacity="0.8"></circle><circle cx="652" cy="137" r="2.385012435656345" fill="#ffd336" opacity="0.8"></circle><circle cx="492" cy="269" r="2.3849191717012643" fill="#5675c1" opacity="0.8"></circle><circle cx="454" cy="484" r="2.3820013123836703" fill="#5675c1" opacity="0.8"></circle><circle cx="536" cy="181" r="2.3796086282691435" fill="#ffd336" opacity="0.8"></circle><circle cx="554" cy="168" r="2.374013684115139" fill="#ffd336" opacity="0.8"></circle><circle cx="298" cy="318" r="2.3652067415791094" fill="#69c487" opacity="0.8"></circle><circle cx="657" cy="452" r="2.364160862944757" fill="#4d824b" opacity="0.8"></circle><circle cx="600" cy="248" r="2.3602444509250318" fill="#4d824b" opacity="0.8"></circle><circle cx="532" cy="188" r="2.341765245645004" fill="#ffd336" opacity="0.8"></circle><circle cx="503" cy="249" r="2.3368705829579284" fill="#ffd336" opacity="0.8"></circle><circle cx="517" cy="434" r="2.325510439111125" fill="#5675c1" opacity="0.8"></circle><circle cx="384" cy="129" r="2.322482459568725" fill="#ffd336" opacity="0.8"></circle><circle cx="539" cy="226" r="2.321864618437764" fill="#d14e5b" opacity="0.8"></circle><circle cx="449" cy="223" r="2.320108978537409" fill="#ffd336" opacity="0.8"></circle><circle cx="659" cy="529" r="2.2905899883573086" fill="#5675c1" opacity="0.8"></circle><circle cx="528" cy="132" r="2.2666860422475614" fill="#ffd336" opacity="0.8"></circle><circle cx="533" cy="93" r="2.2547231899348357" fill="#d14e5b" opacity="0.8"></circle><circle cx="502" cy="358" r="2.2476993203833153" fill="#4d824b" opacity="0.8"></circle><circle cx="656" cy="163" r="2.2346319866818414" fill="#d14e5b" opacity="0.8"></circle><circle cx="596" cy="108" r="2.231671369157255" fill="#ffd336" opacity="0.8"></circle><circle cx="483" cy="225" r="2.210150276639116" fill="#ffd336" opacity="0.8"></circle><circle cx="353" cy="407" r="2.20898670088103" fill="#a652ba" opacity="0.8"></circle><circle cx="939" cy="113" r="2.206195734240447" fill="#d14e5b" opacity="0.8"></circle><circle cx="476" cy="406" r="2.201430818354596" fill="#d14e5b" opacity="0.8"></circle><circle cx="349" cy="291" r="2.1810499772413703" fill="#69c487" opacity="0.8"></circle><circle cx="527" cy="292" r="2.1690417918013463" fill="#d14e5b" opacity="0.8"></circle><circle cx="197" cy="265" r="2.165468739162466" fill="#5675c1" opacity="0.8"></circle><circle cx="402" cy="336" r="2.1629416688331835" fill="#d14e5b" opacity="0.8"></circle><circle cx="554" cy="471" r="2.1604563340568568" fill="#5675c1" opacity="0.8"></circle><circle cx="633" cy="300" r="2.154555441823791" fill="#4d824b" opacity="0.8"></circle><circle cx="524" cy="474" r="2.1519953043713893" fill="#5675c1" opacity="0.8"></circle><circle cx="457" cy="345" r="2.1404703665594447" fill="#4d824b" opacity="0.8"></circle><circle cx="444" cy="460" r="2.124519641789837" fill="#5675c1" opacity="0.8"></circle><circle cx="553" cy="129" r="2.1170255637930966" fill="#ffd336" opacity="0.8"></circle><circle cx="409" cy="386" r="2.111107759411128" fill="#d14e5b" opacity="0.8"></circle><circle cx="536" cy="175" r="2.110312697463896" fill="#ffd336" opacity="0.8"></circle><circle cx="356" cy="144" r="2.1064637417547694" fill="#ffd336" opacity="0.8"></circle><circle cx="950" cy="73" r="2.09996898395338" fill="#d14e5b" opacity="0.8"></circle><circle cx="315" cy="237" r="2.0963077281699602" fill="#d14e5b" opacity="0.8"></circle><circle cx="333" cy="96" r="2.0828481887489136" fill="#ffd336" opacity="0.8"></circle><circle cx="518" cy="237" r="2.075487185506289" fill="#4d824b" opacity="0.8"></circle><circle cx="268" cy="546" r="2.0646735918143935" fill="#5675c1" opacity="0.8"></circle><circle cx="486" cy="100" r="2.0626829311158033" fill="#ffd336" opacity="0.8"></circle><circle cx="353" cy="155" r="2.055746785947857" fill="#a652ba" opacity="0.8"></circle><circle cx="496" cy="206" r="2.0484400419613937" fill="#ffd336" opacity="0.8"></circle><circle cx="449" cy="524" r="2.046738064265125" fill="#5675c1" opacity="0.8"></circle><circle cx="336" cy="334" r="2.045347796273595" fill="#5675c1" opacity="0.8"></circle><circle cx="694" cy="250" r="2.0453399191169885" fill="#d14e5b" opacity="0.8"></circle><circle cx="482" cy="286" r="2.042751281772735" fill="#d14e5b" opacity="0.8"></circle><circle cx="657" cy="158" r="2.0121032853526253" fill="#4d824b" opacity="0.8"></circle><circle cx="488" cy="268" r="2.0117314592873483" fill="#ffd336" opacity="0.8"></circle><circle cx="210" cy="376" r="2.009917663589525" fill="#5675c1" opacity="0.8"></circle><circle cx="462" cy="206" r="2.0084090519485365" fill="#4d824b" opacity="0.8"></circle><circle cx="545" cy="349" r="1.9978425751322544" fill="#ffd336" opacity="0.8"></circle><circle cx="364" cy="210" r="1.9924663929520003" fill="#69c487" opacity="0.8"></circle><circle cx="449" cy="180" r="1.985194151833714" fill="#ffd336" opacity="0.8"></circle><circle cx="529" cy="267" r="1.982856058825197" fill="#ffd336" opacity="0.8"></circle><circle cx="526" cy="296" r="1.9757940282846251" fill="#d14e5b" opacity="0.8"></circle><circle cx="601" cy="88" r="1.9664614353203438" fill="#d14e5b" opacity="0.8"></circle><circle cx="328" cy="141" r="1.9663622899324058" fill="#d14e5b" opacity="0.8"></circle><circle cx="137" cy="264" r="1.9622630088723179" fill="#d14e5b" opacity="0.8"></circle><circle cx="619" cy="297" r="1.955358387762302" fill="#4d824b" opacity="0.8"></circle><circle cx="179" cy="277" r="1.9334987836752853" fill="#5675c1" opacity="0.8"></circle><circle cx="491" cy="401" r="1.9236209835816351" fill="#5675c1" opacity="0.8"></circle><circle cx="412" cy="195" r="1.9227852900366245" fill="#ffd336" opacity="0.8"></circle><circle cx="207" cy="235" r="1.9136219979485558" fill="#5675c1" opacity="0.8"></circle><circle cx="505" cy="253" r="1.9132950682503798" fill="#ffd336" opacity="0.8"></circle><circle cx="526" cy="172" r="1.911813098178177" fill="#ffd336" opacity="0.8"></circle><circle cx="598" cy="35" r="1.9076904133669834" fill="#d14e5b" opacity="0.8"></circle><circle cx="589" cy="456" r="1.9014536002567264" fill="#5675c1" opacity="0.8"></circle><circle cx="479" cy="466" r="1.8854487889594564" fill="#5675c1" opacity="0.8"></circle><circle cx="270" cy="226" r="1.8842983431993796" fill="#5675c1" opacity="0.8"></circle><circle cx="805" cy="131" r="1.8709064802467534" fill="#d14e5b" opacity="0.8"></circle><circle cx="619" cy="165" r="1.8695472746589084" fill="#4d824b" opacity="0.8"></circle><circle cx="409" cy="178" r="1.8685233910932306" fill="#ffd336" opacity="0.8"></circle><circle cx="702" cy="215" r="1.8674035467768357" fill="#5675c1" opacity="0.8"></circle><circle cx="498" cy="297" r="1.8622060694952582" fill="#5675c1" opacity="0.8"></circle><circle cx="546" cy="168" r="1.8562390073101733" fill="#ffd336" opacity="0.8"></circle><circle cx="434" cy="389" r="1.843622323133098" fill="#5675c1" opacity="0.8"></circle><circle cx="454" cy="289" r="1.8400208977125292" fill="#a652ba" opacity="0.8"></circle><circle cx="664" cy="467" r="1.8343458479783843" fill="#5675c1" opacity="0.8"></circle><circle cx="370" cy="301" r="1.8324112519537397" fill="#d14e5b" opacity="0.8"></circle><circle cx="439" cy="179" r="1.8323313585583092" fill="#5675c1" opacity="0.8"></circle><circle cx="207" cy="310" r="1.8322182493623098" fill="#69c487" opacity="0.8"></circle><circle cx="448" cy="235" r="1.8242237700881092" fill="#ffd336" opacity="0.8"></circle><circle cx="371" cy="431" r="1.820892790943366" fill="#a652ba" opacity="0.8"></circle><circle cx="1041" cy="52" r="1.8207688492669218" fill="#d14e5b" opacity="0.8"></circle><circle cx="197" cy="238" r="1.8182230912044597" fill="#69c487" opacity="0.8"></circle><circle cx="601" cy="57" r="1.8176579316290753" fill="#ffd336" opacity="0.8"></circle><circle cx="551" cy="327" r="1.8163945497077643" fill="#5675c1" opacity="0.8"></circle><circle cx="778" cy="156" r="1.8106642707253064" fill="#ffd336" opacity="0.8"></circle><circle cx="501" cy="81" r="1.8106140180992103" fill="#d14e5b" opacity="0.8"></circle><circle cx="431" cy="201" r="1.8064777020359726" fill="#4d824b" opacity="0.8"></circle><circle cx="190" cy="135" r="1.8049861177625413" fill="#ffd336" opacity="0.8"></circle><circle cx="343" cy="297" r="1.8049042397712651" fill="#4d824b" opacity="0.8"></circle><circle cx="779" cy="259" r="1.8047648780999435" fill="#d14e5b" opacity="0.8"></circle><circle cx="708" cy="234" r="1.8013313842934082" fill="#4d824b" opacity="0.8"></circle><circle cx="374" cy="400" r="1.8002159721246402" fill="#a652ba" opacity="0.8"></circle><circle cx="487" cy="334" r="1.7955686557653692" fill="#a652ba" opacity="0.8"></circle><circle cx="628" cy="270" r="1.7951676053728645" fill="#4d824b" opacity="0.8"></circle><circle cx="593" cy="395" r="1.794900791383577" fill="#5675c1" opacity="0.8"></circle><circle cx="625" cy="272" r="1.790631733339377" fill="#4d824b" opacity="0.8"></circle><circle cx="696" cy="152" r="1.790601244609106" fill="#4d824b" opacity="0.8"></circle><circle cx="636" cy="253" r="1.7903964193828652" fill="#4d824b" opacity="0.8"></circle><circle cx="562" cy="340" r="1.7903670272415182" fill="#a652ba" opacity="0.8"></circle><circle cx="556" cy="439" r="1.7903013787340398" fill="#a652ba" opacity="0.8"></circle><circle cx="604" cy="208" r="1.7894694281936083" fill="#4d824b" opacity="0.8"></circle><circle cx="593" cy="185" r="1.7892111579902759" fill="#5675c1" opacity="0.8"></circle><circle cx="521" cy="275" r="1.7879335098028433" fill="#4d824b" opacity="0.8"></circle><circle cx="775" cy="118" r="1.7877800528598948" fill="#4d824b" opacity="0.8"></circle><circle cx="613" cy="120" r="1.7872854908597553" fill="#4d824b" opacity="0.8"></circle><circle cx="629" cy="374" r="1.7872192751760423" fill="#a652ba" opacity="0.8"></circle><circle cx="596" cy="191" r="1.7870669243902417" fill="#4d824b" opacity="0.8"></circle><circle cx="448" cy="241" r="1.784898230506006" fill="#a652ba" opacity="0.8"></circle><circle cx="703" cy="256" r="1.784217212106736" fill="#a652ba" opacity="0.8"></circle><circle cx="651" cy="384" r="1.7841815464708948" fill="#a652ba" opacity="0.8"></circle><circle cx="404" cy="235" r="1.7835391181230458" fill="#000" opacity="0.8"></circle><circle cx="355" cy="241" r="1.7835391181230458" fill="#000" opacity="0.8"></circle><circle cx="517" cy="190" r="1.7835391181230458" fill="#000" opacity="0.8"></circle><circle cx="518" cy="295" r="1.7835391181230458" fill="#000" opacity="0.8"></circle><circle cx="517" cy="236" r="1.7835391181230458" fill="#000" opacity="0.8"></circle><circle cx="548" cy="257" r="1.7835391181230458" fill="#000" opacity="0.8"></circle><circle cx="547" cy="256" r="1.7835391181230458" fill="#000" opacity="0.8"></circle><circle cx="547" cy="147" r="1.7835391181230458" fill="#000" opacity="0.8"></circle><circle cx="416" cy="174" r="1.7835391181230458" fill="#000" opacity="0.8"></circle><circle cx="358" cy="217" r="1.7835391181230458" fill="#000" opacity="0.8"></circle><circle cx="365" cy="214" r="1.7835391181230458" fill="#000" opacity="0.8"></circle><circle cx="542" cy="153" r="1.7835391181230458" fill="#000" opacity="0.8"></circle><circle cx="413" cy="371" r="1.7835391181230458" fill="#000" opacity="0.8"></circle><circle cx="426" cy="431" r="1.7835391181230458" fill="#000" opacity="0.8"></circle><circle cx="418" cy="135" r="1.7835391181230458" fill="#000" opacity="0.8"></circle><circle cx="485" cy="261" r="1.7835391181230458" fill="#000" opacity="0.8"></circle><circle cx="481" cy="281" r="1.7835391181230458" fill="#000" opacity="0.8"></circle><circle cx="509" cy="348" r="1.7835391181230458" fill="#000" opacity="0.8"></circle><circle cx="457" cy="409" r="1.7835391181230458" fill="#000" opacity="0.8"></circle><circle cx="471" cy="384" r="1.7835391181230458" fill="#000" opacity="0.8"></circle><circle cx="457" cy="236" r="1.7835391181230458" fill="#000" opacity="0.8"></circle><circle cx="411" cy="240" r="1.7835391181230458" fill="#000" opacity="0.8"></circle><circle cx="411" cy="243" r="1.7835391181230458" fill="#000" opacity="0.8"></circle><circle cx="409" cy="240" r="1.7835391181230458" fill="#000" opacity="0.8"></circle><circle cx="451" cy="416" r="1.7835391181230458" fill="#000" opacity="0.8"></circle><circle cx="482" cy="282" r="1.7835391181230458" fill="#000" opacity="0.8"></circle><circle cx="452" cy="459" r="1.7835391181230458" fill="#000" opacity="0.8"></circle><circle cx="548" cy="325" r="1.7835391181230458" fill="#000" opacity="0.8"></circle><circle cx="430" cy="223" r="1.7835391181230458" fill="#000" opacity="0.8"></circle><circle cx="440" cy="264" r="1.7835391181230458" fill="#000" opacity="0.8"></circle><circle cx="439" cy="263" r="1.7835391181230458" fill="#000" opacity="0.8"></circle><circle cx="486" cy="273" r="1.7835391181230458" fill="#000" opacity="0.8"></circle><circle cx="364" cy="116" r="1.7835391181230458" fill="#000" opacity="0.8"></circle><circle cx="427" cy="146" r="1.7835391181230458" fill="#000" opacity="0.8"></circle><circle cx="335" cy="194" r="1.7835391181230458" fill="#000" opacity="0.8"></circle><circle cx="426" cy="337" r="1.7835391181230458" fill="#000" opacity="0.8"></circle><circle cx="421" cy="139" r="1.7835391181230458" fill="#000" opacity="0.8"></circle><circle cx="440" cy="379" r="1.7835391181230458" fill="#000" opacity="0.8"></circle><circle cx="342" cy="206" r="1.7835391181230458" fill="#000" opacity="0.8"></circle><circle cx="651" cy="338" r="1.7835391181230458" fill="#000" opacity="0.8"></circle><circle cx="651" cy="338" r="1.7835391181230458" fill="#000" opacity="0.8"></circle><circle cx="440" cy="379" r="1.7835391181230458" fill="#000" opacity="0.8"></circle><circle cx="440" cy="379" r="1.7835391181230458" fill="#000" opacity="0.8"></circle><circle cx="440" cy="379" r="1.7835391181230458" fill="#000" opacity="0.8"></circle><circle cx="444" cy="235" r="1.7835391181230458" fill="#000" opacity="0.8"></circle><circle cx="468" cy="239" r="1.7835391181230458" fill="#000" opacity="0.8"></circle><circle cx="573" cy="286" r="1.7835391181230458" fill="#ffd336" opacity="0.8"></circle><circle cx="506" cy="426" r="1.7835391181230458" fill="#d14e5b" opacity="0.8"></circle><circle cx="458" cy="406" r="1.7835391181230458" fill="#d14e5b" opacity="0.8"></circle><circle cx="719" cy="406" r="1.7835391181230458" fill="#d14e5b" opacity="0.8"></circle><circle cx="563" cy="385" r="1.7835391181230458" fill="#a652ba" opacity="0.8"></circle><circle cx="762" cy="151" r="1.7835391181230458" fill="#4d824b" opacity="0.8"></circle><text x="561" y="228.1587588384723" font-size="14.3" font-family="Arial Narrow, Arial, sans-serif" fill="#666">China</text><text x="669" y="311.71464394201075" font-size="14.095520518632267" font-family="Arial Narrow, Arial, sans-serif" fill="#666">India</text><text x="421" y="104.22417240784382" font-size="11.773167430755214" font-family="Arial Narrow, Arial, sans-serif" fill="#666">United States</text><text x="558" y="264.2228416929876" font-size="11.600055637159922" font-family="Arial Narrow, Arial, sans-serif" fill="#666">Indonesia</text><text x="387" y="230.96034612908605" font-size="11.485623494308312" font-family="Arial Narrow, Arial, sans-serif" fill="#666">Brazil</text><text x="612" y="342.24367997384445" font-size="11.444689941858249" font-family="Arial Narrow, Arial, sans-serif" fill="#666">Pakistan</text><text x="591" y="324.45788067768245" font-size="11.414860152377091" font-family="Arial Narrow, Arial, sans-serif" fill="#666">Nigeria</text><text x="770" y="381.75719599957154" font-size="11.374786798225747" font-family="Arial Narrow, Arial, sans-serif" fill="#666">Bangladesh</text><text x="286" y="183.9809643597431" font-size="11.346053668779913" font-family="Arial Narrow, Arial, sans-serif" fill="#666">Russia</text><text x="646" y="140.30172210334192" font-size="11.306695596512661" font-family="Arial Narrow, Arial, sans-serif" fill="#666">Japan</text><text x="481" y="220.48503362839904" font-size="11.28517027379129" font-family="Arial Narrow, Arial, sans-serif" fill="#666">Mexico</text><text x="630" y="326.0809535438464" font-size="11.220057247021078" font-family="Arial Narrow, Arial, sans-serif" fill="#666">Vietnam</text><text x="524" y="453.1354557379747" font-size="11.214473305253021" font-family="Arial Narrow, Arial, sans-serif" fill="#666">Ethiopia</text><text x="518" y="269.20693769257696" font-size="11.207244033566027" font-family="Arial Narrow, Arial, sans-serif" fill="#666">Egypt</text><text x="607" y="127.29416614643095" font-size="11.198567226661737" font-family="Arial Narrow, Arial, sans-serif" fill="#666">Germany</text><text x="453" y="225.42903844090904" font-size="11.185464872247413" font-family="Arial Narrow, Arial, sans-serif" fill="#666">Iran</text><text x="525" y="188.4556907498782" font-size="11.18292077895458" font-family="Arial Narrow, Arial, sans-serif" fill="#666">Turkey</text><text x="417" y="523.5573067616492" font-size="11.173357526389566" font-family="Arial Narrow, Arial, sans-serif" fill="#666">Democratic Republic of Congo</text><text x="543" y="141.7612287631091" font-size="11.154818552387233" font-family="Arial Narrow, Arial, sans-serif" fill="#666">France</text><text x="595" y="150.8355918938703" font-size="11.148274753912665" font-family="Arial Narrow, Arial, sans-serif" fill="#666">Italy</text><text x="446" y="250.1270879897126" font-size="11.123740512945382" font-family="Arial Narrow, Arial, sans-serif" fill="#666">South Africa</text><text x="475" y="407.18219130617325" font-size="11.119302655005017" font-family="Arial Narrow, Arial, sans-serif" fill="#666">Tanzania</text><text x="502" y="337.1832041405288" font-size="11.119221679514167" font-family="Arial Narrow, Arial, sans-serif" fill="#666">Myanmar</text><text x="686" y="152.19369197727818" font-size="11.118384446443397" font-family="Arial Narrow, Arial, sans-serif" fill="#666">South Korea</text><text x="517" y="157.2468106660064" font-size="11.114179418529169" font-family="Arial Narrow, Arial, sans-serif" fill="#666">Spain</text><text x="499" y="300.31997112120325" font-size="11.108484573645512" font-family="Arial Narrow, Arial, sans-serif" fill="#666">Ukraine</text><text x="506" y="394.3444001113951" font-size="11.106607974656207" font-family="Arial Narrow, Arial, sans-serif" fill="#666">Kenya</text><text x="344" y="208.42291845530158" font-size="11.100660958946088" font-family="Arial Narrow, Arial, sans-serif" fill="#666">Argentina</text><text x="349" y="241.5714978662522" font-size="11.089760831517982" font-family="Arial Narrow, Arial, sans-serif" fill="#666">Algeria</text><text x="592" y="444.5791012137791" font-size="11.089215468044566" font-family="Arial Narrow, Arial, sans-serif" fill="#666">Uganda</text><text x="376" y="354.6069432426961" font-size="11.08722878404556" font-family="Arial Narrow, Arial, sans-serif" fill="#666">Sudan</text><text x="208" y="129.63945481538616" font-size="11.084929450073805" font-family="Arial Narrow, Arial, sans-serif" fill="#666">Canada</text><text x="506" y="232.64696654665622" font-size="11.08440134208033" font-family="Arial Narrow, Arial, sans-serif" fill="#666">Iraq</text><text x="459" y="441.65653117615653" font-size="11.083730616622638" font-family="Arial Narrow, Arial, sans-serif" fill="#666">Afghanistan</text><text x="591" y="414.76092998718696" font-size="11.076534178414292" font-family="Arial Narrow, Arial, sans-serif" fill="#666">Nepal</text><text x="386" y="255.81361605886661" font-size="11.07298908035853" font-family="Arial Narrow, Arial, sans-serif" fill="#666">Peru</text><text x="336" y="113.84122856745763" font-size="11.071154331006072" font-family="Arial Narrow, Arial, sans-serif" fill="#666">Saudi Arabia</text><text x="543" y="362.9604639622325" font-size="11.063414937517345" font-family="Arial Narrow, Arial, sans-serif" fill="#666">Ghana</text><text x="423" y="486.00282191529624" font-size="11.060737223497584" font-family="Arial Narrow, Arial, sans-serif" fill="#666">Mozambique</text><text x="438" y="465.10004765946604" font-size="11.054733086031272" font-family="Arial Narrow, Arial, sans-serif" fill="#666">Madagascar</text><text x="642" y="263.1468366532702" font-size="11.051914213543279" font-family="Arial Narrow, Arial, sans-serif" fill="#666">Sri Lanka</text><text x="509" y="202.1490743890751" font-size="11.051780546691688" font-family="Arial Narrow, Arial, sans-serif" fill="#666">Romania</text><text x="493" y="382.16054235370075" font-size="11.051097175792941" font-family="Arial Narrow, Arial, sans-serif" fill="#666">Cote d'Ivoire</text><text x="377" y="318.1745714112825" font-size="11.050264936324062" font-family="Arial Narrow, Arial, sans-serif" fill="#666">Angola</text><text x="384" y="193.30646611679262" font-size="11.04264215569894" font-family="Arial Narrow, Arial, sans-serif" fill="#666">Chile</text><text x="343" y="507.32090519388765" font-size="11.041829783822612" font-family="Arial Narrow, Arial, sans-serif" fill="#666">Niger</text><text x="334" y="433.3396430402752" font-size="11.04078206448448" font-family="Arial Narrow, Arial, sans-serif" fill="#666">Mali</text><text x="682" y="123.34167807164954" font-size="11.040668719189249" font-family="Arial Narrow, Arial, sans-serif" fill="#666">Netherlands</text><text x="585" y="488.35718512562727" font-size="11.039807870289993" font-family="Arial Narrow, Arial, sans-serif" fill="#666">Malawi</text><text x="564" y="303.39604187152844" font-size="11.037672922196725" font-family="Arial Narrow, Arial, sans-serif" fill="#666">Guatemala</text><text x="374" y="371.45060728392946" font-size="11.03472825803679" font-family="Arial Narrow, Arial, sans-serif" fill="#666">Zambia</text><text x="675" y="444.57676238653494" font-size="11.028158950194856" font-family="Arial Narrow, Arial, sans-serif" fill="#666">Rwanda</text><text x="554" y="164.62598631588486" font-size="11.025686102516168" font-family="Arial Narrow, Arial, sans-serif" fill="#666">Czech Republic</text><text x="298" y="314.63479325842087" font-size="11.025249022762903" font-family="Arial Narrow, Arial, sans-serif" fill="#666">Bolivia</text><text x="600" y="244.63975554907498" font-size="11.025003464756834" font-family="Arial Narrow, Arial, sans-serif" fill="#666">Dominican Republic</text><text x="384" y="125.67751754043128" font-size="11.0231517148239" font-family="Arial Narrow, Arial, sans-serif" fill="#666">Sweden</text><text x="659" y="525.7094100116427" font-size="11.021611053907945" font-family="Arial Narrow, Arial, sans-serif" fill="#666">Burundi</text><text x="528" y="128.73331395775244" font-size="11.020470269561505" font-family="Arial Narrow, Arial, sans-serif" fill="#666">Austria</text><text x="533" y="89.74527681006516" font-size="11.019903851392316" font-family="Arial Narrow, Arial, sans-serif" fill="#666">United Arab Emirates</text><text x="656" y="159.76536801331815" font-size="11.01895931535743" font-family="Arial Narrow, Arial, sans-serif" fill="#666">Israel</text><text x="596" y="104.76832863084275" font-size="11.018820844257837" font-family="Arial Narrow, Arial, sans-serif" fill="#666">Switzerland</text><text x="353" y="403.79101329911896" font-size="11.017765951320488" font-family="Arial Narrow, Arial, sans-serif" fill="#666">Papua New Guinea</text><text x="939" y="109.79380426575955" font-size="11.017636909073468" font-family="Arial Narrow, Arial, sans-serif" fill="#666">Hong Kong</text><text x="349" y="287.81895002275866" font-size="11.016481634299371" font-family="Arial Narrow, Arial, sans-serif" fill="#666">Paraguay</text><text x="527" y="288.83095820819864" font-size="11.01593461276563" font-family="Arial Narrow, Arial, sans-serif" fill="#666">Jordan</text><text x="197" y="261.83453126083754" font-size="11.01577242873299" font-family="Arial Narrow, Arial, sans-serif" fill="#666">Libya</text><text x="402" y="332.8370583311668" font-size="11.015657884196468" font-family="Arial Narrow, Arial, sans-serif" fill="#666">Laos</text><text x="554" y="467.8395436659431" font-size="11.015545361862365" font-family="Arial Narrow, Arial, sans-serif" fill="#666">Togo</text><text x="633" y="296.8454445581762" font-size="11.01527872002916" font-family="Arial Narrow, Arial, sans-serif" fill="#666">El Salvador</text><text x="409" y="382.88889224058886" font-size="11.013337915506156" font-family="Arial Narrow, Arial, sans-serif" fill="#666">Kyrgyzstan</text><text x="356" y="140.89353625824523" font-size="11.013132806403691" font-family="Arial Narrow, Arial, sans-serif" fill="#666">Finland</text><text x="950" y="69.90003101604663" font-size="11.012846714527532" font-family="Arial Narrow, Arial, sans-serif" fill="#666">Singapore</text><text x="333" y="92.91715181125109" font-size="11.01209678330956" font-family="Arial Narrow, Arial, sans-serif" fill="#666">Norway</text><text x="268" y="542.9353264081856" font-size="11.011307410647776" font-family="Arial Narrow, Arial, sans-serif" fill="#666">Central African Republic</text><text x="353" y="151.94425321405214" font-size="11.010922228425487" font-family="Arial Narrow, Arial, sans-serif" fill="#666">New Zealand</text><text x="336" y="330.9546522037264" font-size="11.010475627570317" font-family="Arial Narrow, Arial, sans-serif" fill="#666">Congo</text><text x="482" y="282.9572487182273" font-size="11.010364469555252" font-family="Arial Narrow, Arial, sans-serif" fill="#666">Georgia</text><text x="210" y="372.99008233641047" font-size="11.008971028859559" font-family="Arial Narrow, Arial, sans-serif" fill="#666">Mauritania</text><text x="462" y="202.99159094805145" font-size="11.008907546754818" font-family="Arial Narrow, Arial, sans-serif" fill="#666">Panama</text><text x="449" y="177.01480584816628" font-size="11.00793667839144" font-family="Arial Narrow, Arial, sans-serif" fill="#666">Lithuania</text><text x="137" y="261.0377369911277" font-size="11.006988758262711" font-family="Arial Narrow, Arial, sans-serif" fill="#666">Mongolia</text><text x="179" y="274.0665012163247" font-size="11.005815283666847" font-family="Arial Narrow, Arial, sans-serif" fill="#666">Namibia</text><text x="412" y="192.07721470996339" font-size="11.005382641591876" font-family="Arial Narrow, Arial, sans-serif" fill="#666">Latvia</text><text x="207" y="232.08637800205145" font-size="11.005014508502347" font-family="Arial Narrow, Arial, sans-serif" fill="#666">Botswana</text><text x="598" y="46.004777146120965" font-size="11.004777146120967" font-family="Arial Narrow, Arial, sans-serif" fill="#666">Qatar</text><text x="270" y="223.1157016568006" font-size="11.003848256057976" font-family="Arial Narrow, Arial, sans-serif" fill="#666">Gabon</text><text x="805" y="128.12909351975324" font-size="11.003321628909008" font-family="Arial Narrow, Arial, sans-serif" fill="#666">Bahrain</text><text x="409" y="175.13147660890678" font-size="11.003228309001235" font-family="Arial Narrow, Arial, sans-serif" fill="#666">Estonia</text><text x="702" y="212.13259645322316" font-size="11.003184497852315" font-family="Arial Narrow, Arial, sans-serif" fill="#666">Mauritius</text><text x="454" y="286.1599791022875" font-size="11.002121392296981" font-family="Arial Narrow, Arial, sans-serif" fill="#666">Fiji</text><text x="664" y="464.1656541520216" font-size="11.00190302842236" font-family="Arial Narrow, Arial, sans-serif" fill="#666">Comoros</text><text x="207" y="307.1677817506377" font-size="11.001821336785396" font-family="Arial Narrow, Arial, sans-serif" fill="#666">Guyana</text><text x="371" y="428.1791072090566" font-size="11.001388078096483" font-family="Arial Narrow, Arial, sans-serif" fill="#666">Solomon Islands</text><text x="1007.8858361118884" y="49.17923115073308" font-size="11.001383351532127" font-family="Arial Narrow, Arial, sans-serif" fill="#666">Macao</text><text x="778" y="153.1893357292747" font-size="11.00099909180314" font-family="Arial Narrow, Arial, sans-serif" fill="#666">Malta</text><text x="501" y="78.18938598190078" font-size="11.000997186126192" font-family="Arial Narrow, Arial, sans-serif" fill="#666">Brunei</text><text x="779" y="256.19523512190005" font-size="11.00077573675424" font-family="Arial Narrow, Arial, sans-serif" fill="#666">Maldives</text><text x="708" y="231.1986686157066" font-size="11.000646077893279" font-family="Arial Narrow, Arial, sans-serif" fill="#666">Barbados</text><text x="593" y="392.20509920861645" font-size="11.000403903981054" font-family="Arial Narrow, Arial, sans-serif" fill="#666">Sao Tome and Principe</text><text x="562" y="337.20963297275847" font-size="11.00023368454625" font-family="Arial Narrow, Arial, sans-serif" fill="#666">Tonga</text><text x="556" y="436.20969862126594" font-size="11.000231222945706" font-family="Arial Narrow, Arial, sans-serif" fill="#666">Kiribati</text><text x="593" y="182.21078884200972" font-size="11.000190356492505" font-family="Arial Narrow, Arial, sans-serif" fill="#666">Seychelles</text><text x="775" y="115.2122199471401" font-size="11.000136749921307" font-family="Arial Narrow, Arial, sans-serif" fill="#666">Bermuda</text><text x="629" y="371.212780724824" font-size="11.000115755915882" font-family="Arial Narrow, Arial, sans-serif" fill="#666">Marshall Islands</text><text x="448" y="238.215101769494" font-size="11.000028932303033" font-family="Arial Narrow, Arial, sans-serif" fill="#666">Palau</text><text x="703" y="253.21578278789326" font-size="11.000003478770788" font-family="Arial Narrow, Arial, sans-serif" fill="#666">Nauru</text><text x="427" y="143.21646088187694" font-size="10.999978144191626" font-family="Arial Narrow, Arial, sans-serif" fill="#666">OECD members</text><text x="573" y="283.21646088187697" font-size="10.999978144191626" font-family="Arial Narrow, Arial, sans-serif" fill="#666">Kosovo</text><text x="506" y="423.21646088187697" font-size="10.999978144191626" font-family="Arial Narrow, Arial, sans-serif" fill="#666">Timor</text><text x="719" y="403.21646088187697" font-size="10.999978144191626" font-family="Arial Narrow, Arial, sans-serif" fill="#666">Palestine</text></g><g style="cursor: pointer;" class="ScatterColorLegend clickable"><g class="legendMark"><rect x="1061.4560000000001" y="32.5" width="56.007999999999996" height="21.799999999999997" fill="#fff" opacity="0"></rect>,<rect x="1061.4560000000001" y="39" width="8" height="8" fill="#5675c1"></rect>,<text font-size="16.80" x="1074.5" y="48.4"><tspan x="1074.4560000000001" y="48.44">Africa</tspan></text></g><g class="legendMark"><rect x="1061.4560000000001" y="54.3" width="45.76" height="21.799999999999997" fill="#fff" opacity="0"></rect>,<rect x="1061.4560000000001" y="60.8" width="8" height="8" fill="#d14e5b"></rect>,<text font-size="16.80" x="1074.5" y="70.2"><tspan x="1074.4560000000001" y="70.24">Asia</tspan></text></g><g class="legendMark"><rect x="1061.4560000000001" y="76.1" width="67.43199999999999" height="21.799999999999997" fill="#fff" opacity="0"></rect>,<rect x="1061.4560000000001" y="82.6" width="8" height="8" fill="#ffd336"></rect>,<text font-size="16.80" x="1074.5" y="92.0"><tspan x="1074.4560000000001" y="92.03999999999999">Europe</tspan></text></g><g class="legendMark"><rect x="1061.4560000000001" y="97.89999999999999" width="120.51999999999998" height="21.799999999999997" fill="#fff" opacity="0"></rect>,<rect x="1061.4560000000001" y="104.39999999999999" width="8" height="8" fill="#4d824b"></rect>,<text font-size="16.80" x="1074.5" y="113.8"><tspan x="1074.4560000000001" y="113.83999999999999">North America</tspan></text></g><g class="legendMark"><rect x="1061.4560000000001" y="119.69999999999999" width="75.832" height="21.799999999999997" fill="#fff" opacity="0"></rect>,<rect x="1061.4560000000001" y="126.19999999999999" width="8" height="8" fill="#a652ba"></rect>,<text font-size="16.80" x="1074.5" y="135.6"><tspan x="1074.4560000000001" y="135.64">Oceania</tspan></text></g><g class="legendMark"><rect x="1061.4560000000001" y="141.5" width="123.54399999999998" height="21.799999999999997" fill="#fff" opacity="0"></rect>,<rect x="1061.4560000000001" y="148" width="8" height="8" fill="#69c487"></rect>,<text font-size="16.80" x="1074.5" y="157.4"><tspan x="1074.4560000000001" y="157.44">South America</tspan></text></g></g></g></g></svg>