<svg xmlns="http://www.w3.org/2000/svg" version="1.1" style="font-family: 'Helvetica Neue', Helvetica, Arial, sans-serif; font-size: 24px; background-color: white;" width="1200" height="630"><g class="ChartTab"><g class="StackedArea"><defs><clipPath id="boundsClip-1081"><rect x="111.36800000000001" y="0" width="1170" height="1130"></rect></clipPath></defs><g class="AxisBoxView"><g class="HorizontalAxis"><text x="111.4" y="600" fill="#666" text-anchor="middle" font-size="21.6">1961</text><text x="268.8" y="600" fill="#666" text-anchor="middle" font-size="21.6">1970</text><text x="443.8" y="600" fill="#666" text-anchor="middle" font-size="21.6">1980</text><text x="618.8" y="600" fill="#666" text-anchor="middle" font-size="21.6">1990</text><text x="793.7" y="600" fill="#666" text-anchor="middle" font-size="21.6">2000</text><text x="968.7" y="600" fill="#666" text-anchor="middle" font-size="21.6">2010</text><text x="1038.7" y="600" fill="#666" text-anchor="middle" font-size="21.6">2014</text></g><g class="VerticalAxis"><text x="106.37" y="573.4" fill="#666" dominant-baseline="middle" text-anchor="end" font-size="21.6">0</text><text x="106.37" y="501.9" fill="#666" dominant-baseline="middle" text-anchor="end" font-size="21.6">5 million</text><text x="106.37" y="430.4" fill="#666" dominant-baseline="middle" text-anchor="end" font-size="21.6">10 million</text><text x="106.37" y="358.9" fill="#666" dominant-baseline="middle" text-anchor="end" font-size="21.6">15 million</text><text x="106.37" y="287.4" fill="#666" dominant-baseline="middle" text-anchor="end" font-size="21.6">20 million</text><text x="106.37" y="215.9" fill="#666" dominant-baseline="middle" text-anchor="end" font-size="21.6">25 million</text><text x="106.37" y="144.5" fill="#666" dominant-baseline="middle" text-anchor="end" font-size="21.6">30 million</text><text x="106.37" y="73" fill="#666" dominant-baseline="middle" text-anchor="end" font-size="21.6">35 million</text></g><g class="AxisGridLines"><line x1="111.37" y1="573.4" x2="1038.66" y2="573.4" stroke="#ccc"></line><line x1="111.37" y1="501.9" x2="1038.66" y2="501.9" stroke="#ddd" stroke-dasharray="3,2"></line><line x1="111.37" y1="430.4" x2="1038.66" y2="430.4" stroke="#ddd" stroke-dasharray="3,2"></line><line x1="111.37" y1="358.9" x2="1038.66" y2="358.9" stroke="#ddd" stroke-dasharray="3,2"></line><line x1="111.37" y1="287.4" x2="1038.66" y2="287.4" stroke="#ddd" stroke-dasharray="3,2"></line><line x1="111.37" y1="215.9" x2="1038.66" y2="215.9" stroke="#ddd" stroke-dasharray="3,2"></line><line x1="111.37" y1="144.5" x2="1038.66" y2="144.5" stroke="#ddd" stroke-dasharray="3,2"></line><line x1="111.37" y1="73" x2="1038.66" y2="73" stroke="#ddd" stroke-dasharray="3,2"></line></g><g class="AxisGridLines"><line x1="268.8" y1="573.40" x2="268.8" y2="35.00" stroke="#ddd" stroke-dasharray="3,2"></line><line x1="443.8" y1="573.40" x2="443.8" y2="35.00" stroke="#ddd" stroke-dasharray="3,2"></line><line x1="618.8" y1="573.40" x2="618.8" y2="35.00" stroke="#ddd" stroke-dasharray="3,2"></line><line x1="793.7" y1="573.40" x2="793.7" y2="35.00" stroke="#ddd" stroke-dasharray="3,2"></line><line x1="968.7" y1="573.40" x2="968.7" y2="35.00" stroke="#ddd" stroke-dasharray="3,2"></line></g></g><g clip-path="url(#boundsClip-1081)"><g class="HeightedLegend clickable"><g class="legendMark"><rect x="1043.664" y="17.549999999999994" width="85.46400000000001" height="39.50000000000001" fill="#fff" opacity="0"></rect><rect x="1043.664" y="36.05" width="10" height="2.5" fill="#6bb537"></rect><text font-size="19.20" x="1058.7" y="32.9" fill="#333"><tspan x="1058.664" y="32.91">Central</tspan><tspan x="1058.664" y="54.03">America</tspan></text></g><g class="legendMark"><rect x="1043.664" y="57.05" width="89.88000000000001" height="39.50000000000001" fill="#fff" opacity="0"></rect><rect x="1043.664" y="75.55" width="10" height="2.5" fill="#34983f"></rect><text font-size="19.20" x="1058.7" y="72.4" fill="#333"><tspan x="1058.664" y="72.41">Northern</tspan><tspan x="1058.664" y="93.53">America</tspan></text></g><g class="legendMark"><rect x="1043.664" y="101.6" width="103.89600000000002" height="19.200000000000003" fill="#fff" opacity="0"></rect><rect x="1043.664" y="109.94999999999999" width="10" height="2.5" fill="#cfcd1e"></rect><text font-size="19.20" x="1058.7" y="117.0" fill="#333"><tspan x="1058.664" y="116.96">Caribbean</tspan></text></g><g class="legendMark"><rect x="1043.664" y="147.1" width="141.336" height="19.200000000000003" fill="#fff" opacity="0"></rect><rect x="1043.664" y="155.45" width="10" height="2.5" fill="#9ecc8a"></rect><text font-size="19.20" x="1058.7" y="162.5" fill="#333"><tspan x="1058.664" y="162.46">South America</tspan></text></g><g class="legendMark"><rect x="1043.664" y="194.3" width="86.808" height="19.200000000000003" fill="#fff" opacity="0"></rect><rect x="1043.664" y="202.65" width="10" height="2.5" fill="#b077b1"></rect><text font-size="19.20" x="1058.7" y="209.7" fill="#333"><tspan x="1058.664" y="209.66">Oceania</tspan></text></g><g class="legendMark"><rect x="1043.664" y="226.1" width="77.20800000000001" height="19.200000000000003" fill="#fff" opacity="0"></rect><rect x="1043.664" y="234.45" width="10" height="2.5" fill="#ffd53e"></rect><text font-size="19.20" x="1058.7" y="241.5" fill="#333"><tspan x="1058.664" y="241.46">Europe</tspan></text></g><g class="legendMark"><rect x="1043.664" y="405.5" width="52.440000000000005" height="19.200000000000003" fill="#fff" opacity="0"></rect><rect x="1043.664" y="413.85" width="10" height="2.5" fill="#ca2628"></rect><text font-size="19.20" x="1058.7" y="420.9" fill="#333"><tspan x="1058.664" y="420.86">Asia</tspan></text></g><g class="legendMark"><rect x="1043.664" y="559.4" width="64.15200000000002" height="19.200000000000003" fill="#fff" opacity="0"></rect><rect x="1043.664" y="567.75" width="10" height="2.5" fill="#3360a9"></rect><text font-size="19.20" x="1058.7" y="574.8" fill="#333"><tspan x="1058.664" y="574.76">Africa</tspan></text></g></g><g class="Areas"><rect x="111.36800000000001" y="35" width="927.2959999999999" height="538.4" opacity="0" fill="rgba(255,255,255,0)"></rect><path stroke-linecap="round" d="M111.4 572L128.9 571.9L146.4 571.6L163.9 571.2L181.4 571.1L198.8 570.8L216.3 570.7L233.8 570.4L251.3 570.4L268.8 570.1L286.3 569.5L303.8 569L321.3 569L338.8 568.5L356.3 568.9L373.8 568.6L391.3 568.2L408.8 568.2L426.3 568.4L443.8 567.8L461.3 567.2L478.8 567.6L496.3 567.7L513.8 567.3L531.3 567L548.8 566.8L566.3 566.9L583.8 566.7L601.3 566.8L618.8 566.5L636.3 566.7L653.7 566.9L671.2 566.5L688.7 567L706.2 567.4L723.7 566.7L741.2 566.6L758.7 566.2L776.2 566.5L793.7 566.7L811.2 566.4L828.7 566.8L846.2 566.3L863.7 566.1L881.2 566.6L898.7 565.1L916.2 565.4L933.7 565.6L951.2 567.6L968.7 566.4L986.2 566.1L1003.7 565.2L1021.2 565.3L1038.7 564.7L1038.664 573.4L111.36800000000001 573.4" fill="#3360a9" fill-opacity="0.7" class="Africa_0-area"></path><path stroke-linecap="round" d="M111.4 562.7L128.9 561.8L146.4 560.2L163.9 559.6L181.4 558.4L198.8 556.8L216.3 554.1L233.8 552.8L251.3 552.1L268.8 551.6L286.3 550.9L303.8 548L321.3 543.5L338.8 542.3L356.3 546.4L373.8 544.7L391.3 540.9L408.8 535.3L426.3 531.6L443.8 533L461.3 527.3L478.8 529.9L496.3 524.1L513.8 519.5L531.3 523.3L548.8 518.6L566.3 506.2L583.8 497.7L601.3 501.4L618.8 489.8L636.3 483.8L653.7 493.3L671.2 498.1L688.7 480.8L706.2 473.2L723.7 477.7L741.2 460.5L758.7 458L776.2 451.7L793.7 454.2L811.2 442.7L828.7 396.9L846.2 383.1L863.7 358.5L881.2 351.3L898.7 341.5L916.2 316.1L933.7 303.9L951.2 313.3L968.7 291.4L986.2 285.8L1003.7 291.6L1021.2 282.9L1038.7 265.4L1038.7 564.7L1021.2 565.3L1003.7 565.2L986.2 566.1L968.7 566.4L951.2 567.6L933.7 565.6L916.2 565.4L898.7 565.1L881.2 566.6L863.7 566.1L846.2 566.3L828.7 566.8L811.2 566.4L793.7 566.7L776.2 566.5L758.7 566.2L741.2 566.6L723.7 566.7L706.2 567.4L688.7 567L671.2 566.5L653.7 566.9L636.3 566.7L618.8 566.5L601.3 566.8L583.8 566.7L566.3 566.9L548.8 566.8L531.3 567L513.8 567.3L496.3 567.7L478.8 567.6L461.3 567.2L443.8 567.8L426.3 568.4L408.8 568.2L391.3 568.2L373.8 568.6L356.3 568.9L338.8 568.5L321.3 569L303.8 569L286.3 569.5L268.8 570.1L251.3 570.4L233.8 570.4L216.3 570.7L198.8 570.8L181.4 571.1L163.9 571.2L146.4 571.6L128.9 571.9L111.4 572" fill="#ca2628" fill-opacity="0.7" class="Asia_0-area"></path><path stroke-linecap="round" d="M111.4 485.1L128.9 479.8L146.4 473.1L163.9 461.8L181.4 450.7L198.8 447.9L216.3 433.2L233.8 428.7L251.3 421.2L268.8 408L286.3 396.4L303.8 385.8L321.3 367.5L338.8 371.8L356.3 354.9L373.8 345.5L391.3 344.6L408.8 334.4L426.3 341.6L443.8 344L461.3 334.2L478.8 337.8L496.3 312.1L513.8 308.1L531.3 305.1L548.8 299.7L566.3 286L583.8 276.2L601.3 297.4L618.8 321.9L636.3 335L653.7 383.3L671.2 410.1L688.7 398L706.2 390.8L723.7 394.9L741.2 376.9L758.7 378.5L776.2 376.7L793.7 385.9L811.2 376.9L828.7 322L846.2 315L863.7 289.2L881.2 287.6L898.7 275.7L916.2 245.7L933.7 251.2L951.2 268.5L968.7 231.9L986.2 228.6L1003.7 235.1L1021.2 225.1L1038.7 206L1038.7 265.4L1021.2 282.9L1003.7 291.6L986.2 285.8L968.7 291.4L951.2 313.3L933.7 303.9L916.2 316.1L898.7 341.5L881.2 351.3L863.7 358.5L846.2 383.1L828.7 396.9L811.2 442.7L793.7 454.2L776.2 451.7L758.7 458L741.2 460.5L723.7 477.7L706.2 473.2L688.7 480.8L671.2 498.1L653.7 493.3L636.3 483.8L618.8 489.8L601.3 501.4L583.8 497.7L566.3 506.2L548.8 518.6L531.3 523.3L513.8 519.5L496.3 524.1L478.8 529.9L461.3 527.3L443.8 533L426.3 531.6L408.8 535.3L391.3 540.9L373.8 544.7L356.3 546.4L338.8 542.3L321.3 543.5L303.8 548L286.3 550.9L268.8 551.6L251.3 552.1L233.8 552.8L216.3 554.1L198.8 556.8L181.4 558.4L163.9 559.6L146.4 560.2L128.9 561.8L111.4 562.7" fill="#ffd53e" fill-opacity="0.7" class="Europe_0-area"></path><path stroke-linecap="round" d="M111.4 483.3L128.9 478.5L146.4 471.2L163.9 459.6L181.4 448.3L198.8 445.5L216.3 431.1L233.8 426.4L251.3 418.7L268.8 405L286.3 393.6L303.8 382.2L321.3 363.3L338.8 367.9L356.3 352.2L373.8 341.9L391.3 341.3L408.8 330.8L426.3 338.3L443.8 340.6L461.3 330.4L478.8 334.3L496.3 308.3L513.8 304L531.3 301.9L548.8 296.5L566.3 282.8L583.8 272.4L601.3 293.5L618.8 318.4L636.3 331.4L653.7 379.3L671.2 405.6L688.7 392.8L706.2 385.4L723.7 389.9L741.2 371.3L758.7 373.2L776.2 371.5L793.7 380.9L811.2 371.4L828.7 316.5L846.2 309.5L863.7 284.5L881.2 284L898.7 272.2L916.2 242.2L933.7 247.9L951.2 266L968.7 229.1L986.2 225.3L1003.7 231.5L1021.2 221.2L1038.7 201.9L1038.7 206L1021.2 225.1L1003.7 235.1L986.2 228.6L968.7 231.9L951.2 268.5L933.7 251.2L916.2 245.7L898.7 275.7L881.2 287.6L863.7 289.2L846.2 315L828.7 322L811.2 376.9L793.7 385.9L776.2 376.7L758.7 378.5L741.2 376.9L723.7 394.9L706.2 390.8L688.7 398L671.2 410.1L653.7 383.3L636.3 335L618.8 321.9L601.3 297.4L583.8 276.2L566.3 286L548.8 299.7L531.3 305.1L513.8 308.1L496.3 312.1L478.8 337.8L461.3 334.2L443.8 344L426.3 341.6L408.8 334.4L391.3 344.6L373.8 345.5L356.3 354.9L338.8 371.8L321.3 367.5L303.8 385.8L286.3 396.4L268.8 408L251.3 421.2L233.8 428.7L216.3 433.2L198.8 447.9L181.4 450.7L163.9 461.8L146.4 473.1L128.9 479.8L111.4 485.1" fill="#b077b1" fill-opacity="0.7" class="Oceania_0-area"></path><path stroke-linecap="round" d="M111.4 481.5L128.9 476.6L146.4 468.7L163.9 457.3L181.4 445.8L198.8 442.9L216.3 427.8L233.8 422.5L251.3 414.7L268.8 399.2L286.3 387.2L303.8 374L321.3 354L338.8 358.6L356.3 342.7L373.8 329.7L391.3 325.2L408.8 314.2L426.3 319.7L443.8 319.2L461.3 317.3L478.8 319.4L496.3 295.6L513.8 285.7L531.3 283.2L548.8 273.6L566.3 258.9L583.8 246.9L601.3 270.6L618.8 296.1L636.3 308.1L653.7 355.6L671.2 376.2L688.7 361.3L706.2 355.2L723.7 355.2L741.2 331.3L758.7 334.4L776.2 332.9L793.7 337.7L811.2 325.7L828.7 266.3L846.2 245.5L863.7 212.3L881.2 224.4L898.7 211L916.2 168.8L933.7 174.1L951.2 221.1L968.7 163L986.2 144.2L1003.7 153.7L1021.2 141.2L1038.7 111.6L1038.7 201.9L1021.2 221.2L1003.7 231.5L986.2 225.3L968.7 229.1L951.2 266L933.7 247.9L916.2 242.2L898.7 272.2L881.2 284L863.7 284.5L846.2 309.5L828.7 316.5L811.2 371.4L793.7 380.9L776.2 371.5L758.7 373.2L741.2 371.3L723.7 389.9L706.2 385.4L688.7 392.8L671.2 405.6L653.7 379.3L636.3 331.4L618.8 318.4L601.3 293.5L583.8 272.4L566.3 282.8L548.8 296.5L531.3 301.9L513.8 304L496.3 308.3L478.8 334.3L461.3 330.4L443.8 340.6L426.3 338.3L408.8 330.8L391.3 341.3L373.8 341.9L356.3 352.2L338.8 367.9L321.3 363.3L303.8 382.2L286.3 393.6L268.8 405L251.3 418.7L233.8 426.4L216.3 431.1L198.8 445.5L181.4 448.3L163.9 459.6L146.4 471.2L128.9 478.5L111.4 483.3" fill="#9ecc8a" fill-opacity="0.7" class="South-America_0-area"></path><path stroke-linecap="round" d="M111.4 480.8L128.9 475.8L146.4 467.7L163.9 456.2L181.4 444.5L198.8 441.5L216.3 426.5L233.8 419.5L251.3 411.6L268.8 396.5L286.3 385.1L303.8 372.3L321.3 351.8L338.8 356.3L356.3 340.4L373.8 327.4L391.3 322.8L408.8 311.2L426.3 317.3L443.8 316L461.3 313.6L478.8 316.1L496.3 292.3L513.8 282.1L531.3 279.6L548.8 269.4L566.3 254.5L583.8 243.2L601.3 266.9L618.8 292.3L636.3 306.4L653.7 354.3L671.2 375L688.7 359.9L706.2 353L723.7 352.9L741.2 329.5L758.7 332.9L776.2 331.3L793.7 336.4L811.2 324L828.7 265.3L846.2 245.1L863.7 211.9L881.2 223.7L898.7 210L916.2 167.7L933.7 173.3L951.2 220.8L968.7 162.5L986.2 143.4L1003.7 152.9L1021.2 140.6L1038.7 110.8L1038.7 111.6L1021.2 141.2L1003.7 153.7L986.2 144.2L968.7 163L951.2 221.1L933.7 174.1L916.2 168.8L898.7 211L881.2 224.4L863.7 212.3L846.2 245.5L828.7 266.3L811.2 325.7L793.7 337.7L776.2 332.9L758.7 334.4L741.2 331.3L723.7 355.2L706.2 355.2L688.7 361.3L671.2 376.2L653.7 355.6L636.3 308.1L618.8 296.1L601.3 270.6L583.8 246.9L566.3 258.9L548.8 273.6L531.3 283.2L513.8 285.7L496.3 295.6L478.8 319.4L461.3 317.3L443.8 319.2L426.3 319.7L408.8 314.2L391.3 325.2L373.8 329.7L356.3 342.7L338.8 358.6L321.3 354L303.8 374L286.3 387.2L268.8 399.2L251.3 414.7L233.8 422.5L216.3 427.8L198.8 442.9L181.4 445.8L163.9 457.3L146.4 468.7L128.9 476.6L111.4 481.5" fill="#cfcd1e" fill-opacity="0.7" class="Caribbean_0-area"></path><path stroke-linecap="round" d="M111.4 449.8L128.9 441.7L146.4 430.8L163.9 417.7L181.4 400.7L198.8 391.9L216.3 375L233.8 366.6L251.3 356.7L268.8 339.2L286.3 326.4L303.8 309.4L321.3 283.2L338.8 295.6L356.3 269.4L373.8 248.4L391.3 247.1L408.8 225.5L426.3 231.4L443.8 228.8L461.3 235.7L478.8 248.5L496.3 211.8L513.8 204.5L531.3 208.4L548.8 201.1L566.3 184.2L583.8 175.4L601.3 194.3L618.8 222.6L636.3 236.4L653.7 282.9L671.2 302.2L688.7 289L706.2 280L723.7 277.9L741.2 255.6L758.7 262.7L776.2 262.1L793.7 268.1L811.2 254.8L828.7 196.1L846.2 171.4L863.7 138.3L881.2 155.4L898.7 143.6L916.2 101.2L933.7 117.4L951.2 170.1L968.7 103.2L986.2 79.1L1003.7 86.9L1021.2 70.6L1038.7 39.7L1038.7 110.8L1021.2 140.6L1003.7 152.9L986.2 143.4L968.7 162.5L951.2 220.8L933.7 173.3L916.2 167.7L898.7 210L881.2 223.7L863.7 211.9L846.2 245.1L828.7 265.3L811.2 324L793.7 336.4L776.2 331.3L758.7 332.9L741.2 329.5L723.7 352.9L706.2 353L688.7 359.9L671.2 375L653.7 354.3L636.3 306.4L618.8 292.3L601.3 266.9L583.8 243.2L566.3 254.5L548.8 269.4L531.3 279.6L513.8 282.1L496.3 292.3L478.8 316.1L461.3 313.6L443.8 316L426.3 317.3L408.8 311.2L391.3 322.8L373.8 327.4L356.3 340.4L338.8 356.3L321.3 351.8L303.8 372.3L286.3 385.1L268.8 396.5L251.3 411.6L233.8 419.5L216.3 426.5L198.8 441.5L181.4 444.5L163.9 456.2L146.4 467.7L128.9 475.8L111.4 480.8" fill="#34983f" fill-opacity="0.7" class="Northern-America_0-area"></path><path stroke-linecap="round" d="M111.4 449.5L128.9 441.4L146.4 430.4L163.9 417.3L181.4 400.3L198.8 391.3L216.3 374.3L233.8 365.7L251.3 355.9L268.8 338.4L286.3 325.5L303.8 308.3L321.3 281.7L338.8 294.1L356.3 267.8L373.8 246.7L391.3 245.4L408.8 223.7L426.3 229.5L443.8 226.7L461.3 233.8L478.8 246.6L496.3 210.1L513.8 202.2L531.3 206.3L548.8 199.3L566.3 182L583.8 173L601.3 191.9L618.8 220.5L636.3 234.1L653.7 280.4L671.2 299.9L688.7 286.7L706.2 278L723.7 274.8L741.2 250.6L758.7 258.2L776.2 257.5L793.7 263.2L811.2 250.4L828.7 192.2L846.2 167.2L863.7 132.5L881.2 150.1L898.7 138.1L916.2 95.1L933.7 112.8L951.2 167.6L968.7 98.5L986.2 74.6L1003.7 82.3L1021.2 65.8L1038.7 35L1038.7 39.7L1021.2 70.6L1003.7 86.9L986.2 79.1L968.7 103.2L951.2 170.1L933.7 117.4L916.2 101.2L898.7 143.6L881.2 155.4L863.7 138.3L846.2 171.4L828.7 196.1L811.2 254.8L793.7 268.1L776.2 262.1L758.7 262.7L741.2 255.6L723.7 277.9L706.2 280L688.7 289L671.2 302.2L653.7 282.9L636.3 236.4L618.8 222.6L601.3 194.3L583.8 175.4L566.3 184.2L548.8 201.1L531.3 208.4L513.8 204.5L496.3 211.8L478.8 248.5L461.3 235.7L443.8 228.8L426.3 231.4L408.8 225.5L391.3 247.1L373.8 248.4L356.3 269.4L338.8 295.6L321.3 283.2L303.8 309.4L286.3 326.4L268.8 339.2L251.3 356.7L233.8 366.6L216.3 375L198.8 391.9L181.4 400.7L163.9 417.7L146.4 430.8L128.9 441.7L111.4 449.8" fill="#6bb537" fill-opacity="0.7" class="Central-America_0-area"></path><path stroke-linecap="round" d="M111.4 572L128.9 571.9L146.4 571.6L163.9 571.2L181.4 571.1L198.8 570.8L216.3 570.7L233.8 570.4L251.3 570.4L268.8 570.1L286.3 569.5L303.8 569L321.3 569L338.8 568.5L356.3 568.9L373.8 568.6L391.3 568.2L408.8 568.2L426.3 568.4L443.8 567.8L461.3 567.2L478.8 567.6L496.3 567.7L513.8 567.3L531.3 567L548.8 566.8L566.3 566.9L583.8 566.7L601.3 566.8L618.8 566.5L636.3 566.7L653.7 566.9L671.2 566.5L688.7 567L706.2 567.4L723.7 566.7L741.2 566.6L758.7 566.2L776.2 566.5L793.7 566.7L811.2 566.4L828.7 566.8L846.2 566.3L863.7 566.1L881.2 566.6L898.7 565.1L916.2 565.4L933.7 565.6L951.2 567.6L968.7 566.4L986.2 566.1L1003.7 565.2L1021.2 565.3L1038.7 564.7" stroke="rgb(43, 80, 141)" stroke-opacity="0.7" stroke-width="0.5" fill="none" class="Africa_0-border"></path><path stroke-linecap="round" d="M111.4 562.7L128.9 561.8L146.4 560.2L163.9 559.6L181.4 558.4L198.8 556.8L216.3 554.1L233.8 552.8L251.3 552.1L268.8 551.6L286.3 550.9L303.8 548L321.3 543.5L338.8 542.3L356.3 546.4L373.8 544.7L391.3 540.9L408.8 535.3L426.3 531.6L443.8 533L461.3 527.3L478.8 529.9L496.3 524.1L513.8 519.5L531.3 523.3L548.8 518.6L566.3 506.2L583.8 497.7L601.3 501.4L618.8 489.8L636.3 483.8L653.7 493.3L671.2 498.1L688.7 480.8L706.2 473.2L723.7 477.7L741.2 460.5L758.7 458L776.2 451.7L793.7 454.2L811.2 442.7L828.7 396.9L846.2 383.1L863.7 358.5L881.2 351.3L898.7 341.5L916.2 316.1L933.7 303.9L951.2 313.3L968.7 291.4L986.2 285.8L1003.7 291.6L1021.2 282.9L1038.7 265.4" stroke="rgb(169, 32, 33)" stroke-opacity="0.7" stroke-width="0.5" fill="none" class="Asia_0-border"></path><path stroke-linecap="round" d="M111.4 485.1L128.9 479.8L146.4 473.1L163.9 461.8L181.4 450.7L198.8 447.9L216.3 433.2L233.8 428.7L251.3 421.2L268.8 408L286.3 396.4L303.8 385.8L321.3 367.5L338.8 371.8L356.3 354.9L373.8 345.5L391.3 344.6L408.8 334.4L426.3 341.6L443.8 344L461.3 334.2L478.8 337.8L496.3 312.1L513.8 308.1L531.3 305.1L548.8 299.7L566.3 286L583.8 276.2L601.3 297.4L618.8 321.9L636.3 335L653.7 383.3L671.2 410.1L688.7 398L706.2 390.8L723.7 394.9L741.2 376.9L758.7 378.5L776.2 376.7L793.7 385.9L811.2 376.9L828.7 322L846.2 315L863.7 289.2L881.2 287.6L898.7 275.7L916.2 245.7L933.7 251.2L951.2 268.5L968.7 231.9L986.2 228.6L1003.7 235.1L1021.2 225.1L1038.7 206" stroke="rgb(213, 178, 52)" stroke-opacity="0.7" stroke-width="0.5" fill="none" class="Europe_0-border"></path><path stroke-linecap="round" d="M111.4 483.3L128.9 478.5L146.4 471.2L163.9 459.6L181.4 448.3L198.8 445.5L216.3 431.1L233.8 426.4L251.3 418.7L268.8 405L286.3 393.6L303.8 382.2L321.3 363.3L338.8 367.9L356.3 352.2L373.8 341.9L391.3 341.3L408.8 330.8L426.3 338.3L443.8 340.6L461.3 330.4L478.8 334.3L496.3 308.3L513.8 304L531.3 301.9L548.8 296.5L566.3 282.8L583.8 272.4L601.3 293.5L618.8 318.4L636.3 331.4L653.7 379.3L671.2 405.6L688.7 392.8L706.2 385.4L723.7 389.9L741.2 371.3L758.7 373.2L776.2 371.5L793.7 380.9L811.2 371.4L828.7 316.5L846.2 309.5L863.7 284.5L881.2 284L898.7 272.2L916.2 242.2L933.7 247.9L951.2 266L968.7 229.1L986.2 225.3L1003.7 231.5L1021.2 221.2L1038.7 201.9" stroke="rgb(147, 100, 148)" stroke-opacity="0.7" stroke-width="0.5" fill="none" class="Oceania_0-border"></path><path stroke-linecap="round" d="M111.4 481.5L128.9 476.6L146.4 468.7L163.9 457.3L181.4 445.8L198.8 442.9L216.3 427.8L233.8 422.5L251.3 414.7L268.8 399.2L286.3 387.2L303.8 374L321.3 354L338.8 358.6L356.3 342.7L373.8 329.7L391.3 325.2L408.8 314.2L426.3 319.7L443.8 319.2L461.3 317.3L478.8 319.4L496.3 295.6L513.8 285.7L531.3 283.2L548.8 273.6L566.3 258.9L583.8 246.9L601.3 270.6L618.8 296.1L636.3 308.1L653.7 355.6L671.2 376.2L688.7 361.3L706.2 355.2L723.7 355.2L741.2 331.3L758.7 334.4L776.2 332.9L793.7 337.7L811.2 325.7L828.7 266.3L846.2 245.5L863.7 212.3L881.2 224.4L898.7 211L916.2 168.8L933.7 174.1L951.2 221.1L968.7 163L986.2 144.2L1003.7 153.7L1021.2 141.2L1038.7 111.6" stroke="rgb(132, 171, 115)" stroke-opacity="0.7" stroke-width="0.5" fill="none" class="South-America_0-border"></path><path stroke-linecap="round" d="M111.4 480.8L128.9 475.8L146.4 467.7L163.9 456.2L181.4 444.5L198.8 441.5L216.3 426.5L233.8 419.5L251.3 411.6L268.8 396.5L286.3 385.1L303.8 372.3L321.3 351.8L338.8 356.3L356.3 340.4L373.8 327.4L391.3 322.8L408.8 311.2L426.3 317.3L443.8 316L461.3 313.6L478.8 316.1L496.3 292.3L513.8 282.1L531.3 279.6L548.8 269.4L566.3 254.5L583.8 243.2L601.3 266.9L618.8 292.3L636.3 306.4L653.7 354.3L671.2 375L688.7 359.9L706.2 353L723.7 352.9L741.2 329.5L758.7 332.9L776.2 331.3L793.7 336.4L811.2 324L828.7 265.3L846.2 245.1L863.7 211.9L881.2 223.7L898.7 210L916.2 167.7L933.7 173.3L951.2 220.8L968.7 162.5L986.2 143.4L1003.7 152.9L1021.2 140.6L1038.7 110.8" stroke="rgb(173, 172, 25)" stroke-opacity="0.7" stroke-width="0.5" fill="none" class="Caribbean_0-border"></path><path stroke-linecap="round" d="M111.4 449.8L128.9 441.7L146.4 430.8L163.9 417.7L181.4 400.7L198.8 391.9L216.3 375L233.8 366.6L251.3 356.7L268.8 339.2L286.3 326.4L303.8 309.4L321.3 283.2L338.8 295.6L356.3 269.4L373.8 248.4L391.3 247.1L408.8 225.5L426.3 231.4L443.8 228.8L461.3 235.7L478.8 248.5L496.3 211.8L513.8 204.5L531.3 208.4L548.8 201.1L566.3 184.2L583.8 175.4L601.3 194.3L618.8 222.6L636.3 236.4L653.7 282.9L671.2 302.2L688.7 289L706.2 280L723.7 277.9L741.2 255.6L758.7 262.7L776.2 262.1L793.7 268.1L811.2 254.8L828.7 196.1L846.2 171.4L863.7 138.3L881.2 155.4L898.7 143.6L916.2 101.2L933.7 117.4L951.2 170.1L968.7 103.2L986.2 79.1L1003.7 86.9L1021.2 70.6L1038.7 39.7" stroke="rgb(44, 127, 53)" stroke-opacity="0.7" stroke-width="0.5" fill="none" class="Northern-America_0-border"></path><path stroke-linecap="round" d="M111.4 449.5L128.9 441.4L146.4 430.4L163.9 417.3L181.4 400.3L198.8 391.3L216.3 374.3L233.8 365.7L251.3 355.9L268.8 338.4L286.3 325.5L303.8 308.3L321.3 281.7L338.8 294.1L356.3 267.8L373.8 246.7L391.3 245.4L408.8 223.7L426.3 229.5L443.8 226.7L461.3 233.8L478.8 246.6L496.3 210.1L513.8 202.2L531.3 206.3L548.8 199.3L566.3 182L583.8 173L601.3 191.9L618.8 220.5L636.3 234.1L653.7 280.4L671.2 299.9L688.7 286.7L706.2 278L723.7 274.8L741.2 250.6L758.7 258.2L776.2 257.5L793.7 263.2L811.2 250.4L828.7 192.2L846.2 167.2L863.7 132.5L881.2 150.1L898.7 138.1L916.2 95.1L933.7 112.8L951.2 167.6L968.7 98.5L986.2 74.6L1003.7 82.3L1021.2 65.8L1038.7 35" stroke="rgb(90, 151, 46)" stroke-opacity="0.7" stroke-width="0.5" fill="none" class="Central-America_0-border"></path></g></g></g></g></svg>