<svg xmlns="http://www.w3.org/2000/svg" version="1.1" style="font-family: 'Helvetica Neue', Helvetica, Arial, sans-serif; font-size: 18px; background-color: white; text-rendering: optimizeLegibility; -webkit-font-smoothing: antialiased;" width="850" height="600"><g class="ChartTab"><g class="HeaderView"><g opacity="0.8" transform="translate(778, 15) scale(0.27)"><a xmlns:xlink="http://www.w3.org/1999/xlink" xlink:href="https://ourworldindata.org" target="_blank"><g><rect x="0" y="0" fill="#1B2543" width="211.2" height="130.1"/><rect x="0" y="112.2" fill="#E63912" width="211.2" height="17.9"/><g><rect x="1.2" y="12.3" fill="none" width="210.2" height="99.2"/><path fill="#FFFFFF" d="M37.8,32.2c0,12.7-7.7,19.4-17.1,19.4c-9.7,0-16.6-7.5-16.6-18.7c0-11.7,7.3-19.3,17.1-19.3 C31.3,13.7,37.8,21.3,37.8,32.2z M9.2,32.8c0,7.9,4.3,14.9,11.8,14.9c7.5,0,11.8-6.9,11.8-15.3c0-7.3-3.8-14.9-11.8-14.9 C13.1,17.5,9.2,24.8,9.2,32.8z"/><path fill="#FFFFFF" d="M62.7,43.8c0,2.7,0.1,5.1,0.2,7.2h-4.3l-0.3-4.3h-0.1c-1.3,2.1-4,4.9-8.8,4.9c-4.2,0-9.1-2.3-9.1-11.6 V24.6h4.8v14.6c0,5,1.5,8.4,5.9,8.4c3.2,0,5.5-2.2,6.3-4.4c0.3-0.7,0.4-1.6,0.4-2.5V24.6h4.8V43.8z"/><path fill="#FFFFFF" d="M67.3,32.8c0-3.1-0.1-5.8-0.2-8.2h4.2l0.2,5.2h0.2c1.2-3.5,4.1-5.8,7.3-5.8c0.5,0,0.9,0.1,1.4,0.2v4.5 c-0.5-0.1-1-0.2-1.6-0.2c-3.4,0-5.8,2.6-6.5,6.2c-0.1,0.7-0.2,1.4-0.2,2.2V51h-4.8V32.8z"/><path fill="#FFFFFF" d="M95.4,51l-9.4-36.8h5l4.4,18.6c1.1,4.6,2.1,9.2,2.7,12.7h0.1c0.6-3.7,1.8-8,3-12.8l4.9-18.5h5l4.5,18.7 c1,4.4,2,8.7,2.6,12.6h0.1c0.8-4,1.8-8.1,3-12.7l4.9-18.5h4.9L120.6,51h-5L111,31.9c-1.1-4.7-1.9-8.3-2.4-12h-0.1 c-0.7,3.7-1.5,7.3-2.8,12L100.4,51H95.4z"/><path fill="#FFFFFF" d="M154.9,37.6c0,9.8-6.8,14-13.2,14c-7.2,0-12.7-5.2-12.7-13.6c0-8.8,5.8-14,13.1-14 C149.8,24,154.9,29.5,154.9,37.6z M133.9,37.9c0,5.8,3.3,10.1,8,10.1c4.6,0,8-4.3,8-10.3c0-4.5-2.2-10.1-7.9-10.1 C136.3,27.6,133.9,32.8,133.9,37.9z"/><path fill="#FFFFFF" d="M158.2,32.8c0-3.1-0.1-5.8-0.2-8.2h4.2l0.2,5.2h0.2c1.2-3.5,4.1-5.8,7.3-5.8c0.5,0,0.9,0.1,1.4,0.2v4.5 c-0.5-0.1-1-0.2-1.6-0.2c-3.4,0-5.8,2.6-6.5,6.2c-0.1,0.7-0.2,1.4-0.2,2.2V51h-4.8V32.8z"/><path fill="#FFFFFF" d="M173.5,12.3h4.8V51h-4.8V12.3z"/><path fill="#FFFFFF" d="M206.5,12.3v31.9c0,2.3,0.1,5,0.2,6.8h-4.3l-0.2-4.6H202c-1.5,2.9-4.7,5.2-9,5.2 c-6.4,0-11.3-5.4-11.3-13.4c-0.1-8.8,5.4-14.2,11.9-14.2c4,0,6.8,1.9,8,4h0.1V12.3H206.5z M201.7,35.4c0-0.6-0.1-1.4-0.2-2 c-0.7-3.1-3.3-5.6-6.9-5.6c-5,0-7.9,4.4-7.9,10.2c0,5.3,2.6,9.8,7.8,9.8c3.2,0,6.2-2.1,7.1-5.7c0.2-0.7,0.2-1.3,0.2-2.1V35.4z"/><path fill="#FFFFFF" d="M42.8,64c0.1,1.6-1.1,2.9-3.1,2.9c-1.7,0-2.9-1.3-2.9-2.9c0-1.7,1.3-3,3-3C41.7,61,42.8,62.3,42.8,64z M37.4,97.8V71.4h4.8v26.4H37.4z"/><path fill="#FFFFFF" d="M47.5,78.6c0-2.7-0.1-5-0.2-7.1h4.3l0.3,4.4h0.1c1.3-2.5,4.4-5,8.8-5c3.7,0,9.4,2.2,9.4,11.2v15.8h-4.8 V82.6c0-4.3-1.6-7.8-6.1-7.8c-3.2,0-5.6,2.2-6.5,4.9c-0.2,0.6-0.3,1.4-0.3,2.2v15.9h-4.8V78.6z"/><path fill="#FFFFFF" d="M84,61.6c2.9-0.4,6.3-0.8,10.1-0.8c6.8,0,11.7,1.6,14.9,4.6c3.3,3,5.2,7.3,5.2,13.2c0,6-1.9,10.9-5.3,14.3 c-3.4,3.4-9.1,5.3-16.3,5.3c-3.4,0-6.2-0.2-8.6-0.4V61.6z M88.8,94.1c1.2,0.2,3,0.3,4.8,0.3c10.2,0,15.7-5.7,15.7-15.6 c0.1-8.7-4.9-14.2-14.9-14.2c-2.5,0-4.3,0.2-5.6,0.5V94.1z"/><path fill="#FFFFFF" d="M132.1,97.8l-0.4-3.3h-0.2c-1.5,2.1-4.3,3.9-8.1,3.9c-5.4,0-8.1-3.8-8.1-7.6c0-6.4,5.7-9.9,15.9-9.8v-0.5 c0-2.2-0.6-6.1-6-6.1c-2.5,0-5,0.8-6.9,2l-1.1-3.2c2.2-1.4,5.4-2.3,8.7-2.3c8.1,0,10.1,5.5,10.1,10.8v9.9c0,2.3,0.1,4.5,0.4,6.3 H132.1z M131.4,84.4c-5.3-0.1-11.2,0.8-11.2,5.9c0,3.1,2.1,4.6,4.5,4.6c3.4,0,5.6-2.2,6.4-4.4c0.2-0.5,0.3-1,0.3-1.5V84.4z"/><path fill="#FFFFFF" d="M146.6,63.9v7.6h6.9v3.7h-6.9v14.2c0,3.3,0.9,5.1,3.6,5.1c1.3,0,2.2-0.2,2.8-0.3l0.2,3.6 c-0.9,0.4-2.4,0.7-4.3,0.7c-2.2,0-4-0.7-5.2-2c-1.4-1.4-1.9-3.8-1.9-6.9V75.1h-4.1v-3.7h4.1v-6.3L146.6,63.9z"/><path fill="#FFFFFF" d="M171.4,97.8l-0.4-3.3h-0.2c-1.5,2.1-4.3,3.9-8.1,3.9c-5.4,0-8.1-3.8-8.1-7.6c0-6.4,5.7-9.9,15.9-9.8v-0.5 c0-2.2-0.6-6.1-6-6.1c-2.5,0-5,0.8-6.9,2l-1.1-3.2c2.2-1.4,5.4-2.3,8.7-2.3c8.1,0,10.1,5.5,10.1,10.8v9.9c0,2.3,0.1,4.5,0.4,6.3 H171.4z M170.7,84.4c-5.3-0.1-11.2,0.8-11.2,5.9c0,3.1,2.1,4.6,4.5,4.6c3.4,0,5.6-2.2,6.4-4.4c0.2-0.5,0.3-1,0.3-1.5V84.4z"/></g></g></a></g><a href="https://ourworldindata.org/grapher/prevalence-of-schizophrenia-by-age" target="_blank"><text font-size="25.20" x="15.0" y="35.2" fill="#555"><tspan x="15" y="35.160000000000004">Prevalence of schizophrenia by age, World</tspan></text></a><text font-size="14.40" x="15.0" y="53.7" fill="#666"><tspan x="15" y="53.72">Share of population within each age group suffering from schizophrenia. This is measured across both sexes.</tspan></text></g><g class="LineChart"><defs><clipPath id="boundsClip-283"><rect x="47.098" y="0" width="830" height="959.8"></rect></clipPath></defs><g class="AxisBoxView"><g class="HorizontalAxis"><text x="57.1" y="556.5" fill="#666" text-anchor="middle" font-size="16.2">1990</text><text x="180.1" y="556.5" fill="#666" text-anchor="middle" font-size="16.2">1995</text><text x="303.1" y="556.5" fill="#666" text-anchor="middle" font-size="16.2">2000</text><text x="426.1" y="556.5" fill="#666" text-anchor="middle" font-size="16.2">2005</text><text x="549.1" y="556.5" fill="#666" text-anchor="middle" font-size="16.2">2010</text><text x="696.7" y="556.5" fill="#666" text-anchor="middle" font-size="16.2">2016</text></g><g class="VerticalAxis"><text x="52.10" y="535.3" fill="#666" dominant-baseline="middle" text-anchor="end" font-size="16.2">0%</text><text x="52.10" y="447.2" fill="#666" dominant-baseline="middle" text-anchor="end" font-size="16.2">0.1%</text><text x="52.10" y="359.2" fill="#666" dominant-baseline="middle" text-anchor="end" font-size="16.2">0.2%</text><text x="52.10" y="271.1" fill="#666" dominant-baseline="middle" text-anchor="end" font-size="16.2">0.3%</text><text x="52.10" y="183.1" fill="#666" dominant-baseline="middle" text-anchor="end" font-size="16.2">0.4%</text><text x="52.10" y="95" fill="#666" dominant-baseline="middle" text-anchor="end" font-size="16.2">0.5%</text></g><g class="AxisGridLines"><line x1="57.10" y1="535.3" x2="696.67" y2="535.3" stroke="#ccc"></line><line x1="57.10" y1="447.2" x2="696.67" y2="447.2" stroke="#ddd" stroke-dasharray="3,2"></line><line x1="57.10" y1="359.2" x2="696.67" y2="359.2" stroke="#ddd" stroke-dasharray="3,2"></line><line x1="57.10" y1="271.1" x2="696.67" y2="271.1" stroke="#ddd" stroke-dasharray="3,2"></line><line x1="57.10" y1="183.1" x2="696.67" y2="183.1" stroke="#ddd" stroke-dasharray="3,2"></line><line x1="57.10" y1="95" x2="696.67" y2="95" stroke="#ddd" stroke-dasharray="3,2"></line></g></g><g clip-path="url(#boundsClip-283)"><g class="HeightedLegend clickable"><g class="legendMark"><rect x="706.672" y="520.9" width="106.58400000000002" height="14.4" fill="#fff" opacity="0"></rect><rect x="706.672" y="526.85" width="10" height="2.5" fill="#3360a9"></rect><text font-size="14.40" x="721.7" y="532.4" fill="#333"><tspan x="721.672" y="532.42">5-14 years old</tspan></text></g><g class="legendMark"><rect x="706.672" y="506.5" width="114.64800000000001" height="14.4" fill="#fff" opacity="0"></rect><rect x="706.672" y="512.45" width="10" height="2.5" fill="#ca2628"></rect><text font-size="14.40" x="721.7" y="518.0" fill="#333"><tspan x="721.672" y="518.02">10-14 years old</tspan></text></g><g class="legendMark"><rect x="706.672" y="484.7" width="114.64800000000001" height="14.4" fill="#fff" opacity="0"></rect><rect x="706.672" y="490.65" width="10" height="2.5" fill="#34983f"></rect><text font-size="14.40" x="721.7" y="496.2" fill="#333"><tspan x="721.672" y="496.21999999999997">15-19 years old</tspan></text></g><g class="legendMark"><rect x="706.672" y="351.40000000000003" width="102.12" height="14.4" fill="#fff" opacity="0"></rect><rect x="706.672" y="357.35" width="10" height="2.5" fill="#f6a324"></rect><text font-size="14.40" x="721.7" y="362.9" fill="#333"><tspan x="721.672" y="362.92">70+ years old</tspan></text></g><g class="legendMark"><rect x="706.672" y="329.90000000000003" width="114.64800000000001" height="14.4" fill="#fff" opacity="0"></rect><rect x="706.672" y="335.85" width="10" height="2.5" fill="#a652ba"></rect><text font-size="14.40" x="721.7" y="341.4" fill="#333"><tspan x="721.672" y="341.42">20-24 years old</tspan></text></g><g class="legendMark"><rect x="706.672" y="275.40000000000003" width="128.32800000000003" height="14.4" fill="#fff" opacity="0"></rect><rect x="706.672" y="281.35" width="10" height="2.5" fill="#2a939b"></rect><text font-size="14.40" x="721.7" y="286.9" fill="#333"><tspan x="721.672" y="286.92">Age-standardized</tspan></text></g><g class="legendMark"><rect x="706.672" y="261.00000000000006" width="66.40800000000002" height="14.4" fill="#fff" opacity="0"></rect><rect x="706.672" y="266.95000000000005" width="10" height="2.5" fill="#e6332e"></rect><text font-size="14.40" x="721.7" y="272.5" fill="#333"><tspan x="721.672" y="272.52000000000004">All ages</tspan></text></g><g class="legendMark"><rect x="706.672" y="190.4" width="114.64800000000001" height="14.4" fill="#fff" opacity="0"></rect><rect x="706.672" y="196.35" width="10" height="2.5" fill="#9ecc8a"></rect><text font-size="14.40" x="721.7" y="201.9" fill="#333"><tspan x="721.672" y="201.92000000000002">15-49 years old</tspan></text></g><g class="legendMark"><rect x="706.672" y="171.60000000000002" width="114.64800000000001" height="14.4" fill="#fff" opacity="0"></rect><rect x="706.672" y="177.55" width="10" height="2.5" fill="#ffd53e"></rect><text font-size="14.40" x="721.7" y="183.1" fill="#333"><tspan x="721.672" y="183.12000000000003">25-29 years old</tspan></text></g><g class="legendMark"><rect x="706.672" y="131.8" width="114.64800000000001" height="14.4" fill="#fff" opacity="0"></rect><rect x="706.672" y="137.75" width="10" height="2.5" fill="#b077b1"></rect><text font-size="14.40" x="721.7" y="143.3" fill="#333"><tspan x="721.672" y="143.32000000000002">50-69 years old</tspan></text></g><g class="legendMark"><rect x="706.672" y="102" width="114.64800000000001" height="14.4" fill="#fff" opacity="0"></rect><rect x="706.672" y="107.95" width="10" height="2.5" fill="#7ec7ce"></rect><text font-size="14.40" x="721.7" y="113.5" fill="#333"><tspan x="721.672" y="113.52000000000001">30-34 years old</tspan></text></g></g><g class="Lines"><rect x="57" y="77" width="640" height="459" fill="rgba(255,255,255,0)" opacity="0"></rect><g class="key-World_0"><path stroke="#34983f" stroke-linecap="round" d="M57 487L82 488L106 488L131 489L156 489L180 489L205 490L229 490L254 490L279 490L303 490L328 489L352 489L377 489L402 488L426 488L451 488L475 489L500 489L525 490L549 490L574 490L598 491L623 491L648 491L672 492L697 492" fill="none" stroke-width="1.5"></path><g fill="#34983f"><circle cx="57" cy="487" r="2"></circle><circle cx="82" cy="488" r="2"></circle><circle cx="106" cy="488" r="2"></circle><circle cx="131" cy="489" r="2"></circle><circle cx="156" cy="489" r="2"></circle><circle cx="180" cy="489" r="2"></circle><circle cx="205" cy="490" r="2"></circle><circle cx="229" cy="490" r="2"></circle><circle cx="254" cy="490" r="2"></circle><circle cx="279" cy="490" r="2"></circle><circle cx="303" cy="490" r="2"></circle><circle cx="328" cy="489" r="2"></circle><circle cx="352" cy="489" r="2"></circle><circle cx="377" cy="489" r="2"></circle><circle cx="402" cy="488" r="2"></circle><circle cx="426" cy="488" r="2"></circle><circle cx="451" cy="488" r="2"></circle><circle cx="475" cy="489" r="2"></circle><circle cx="500" cy="489" r="2"></circle><circle cx="525" cy="490" r="2"></circle><circle cx="549" cy="490" r="2"></circle><circle cx="574" cy="490" r="2"></circle><circle cx="598" cy="491" r="2"></circle><circle cx="623" cy="491" r="2"></circle><circle cx="648" cy="491" r="2"></circle><circle cx="672" cy="492" r="2"></circle><circle cx="697" cy="492" r="2"></circle></g></g><g class="key-World_1"><path stroke="#ca2628" stroke-linecap="round" d="M57 531L82 531L106 531L131 531L156 531L180 531L205 531L229 531L254 531L279 531L303 531L328 531L352 531L377 531L402 531L426 531L451 531L475 531L500 531L525 531L549 531L574 531L598 531L623 531L648 531L672 531L697 531" fill="none" stroke-width="1.5"></path><g fill="#ca2628"><circle cx="57" cy="531" r="2"></circle><circle cx="82" cy="531" r="2"></circle><circle cx="106" cy="531" r="2"></circle><circle cx="131" cy="531" r="2"></circle><circle cx="156" cy="531" r="2"></circle><circle cx="180" cy="531" r="2"></circle><circle cx="205" cy="531" r="2"></circle><circle cx="229" cy="531" r="2"></circle><circle cx="254" cy="531" r="2"></circle><circle cx="279" cy="531" r="2"></circle><circle cx="303" cy="531" r="2"></circle><circle cx="328" cy="531" r="2"></circle><circle cx="352" cy="531" r="2"></circle><circle cx="377" cy="531" r="2"></circle><circle cx="402" cy="531" r="2"></circle><circle cx="426" cy="531" r="2"></circle><circle cx="451" cy="531" r="2"></circle><circle cx="475" cy="531" r="2"></circle><circle cx="500" cy="531" r="2"></circle><circle cx="525" cy="531" r="2"></circle><circle cx="549" cy="531" r="2"></circle><circle cx="574" cy="531" r="2"></circle><circle cx="598" cy="531" r="2"></circle><circle cx="623" cy="531" r="2"></circle><circle cx="648" cy="531" r="2"></circle><circle cx="672" cy="531" r="2"></circle><circle cx="697" cy="531" r="2"></circle></g></g><g class="key-World_10"><path stroke="#e6332e" stroke-linecap="round" d="M57 309L82 307L106 305L131 304L156 302L180 301L205 299L229 298L254 297L279 296L303 294L328 293L352 292L377 291L402 290L426 288L451 287L475 286L500 284L525 283L549 282L574 281L598 280L623 279L648 278L672 278L697 277" fill="none" stroke-width="1.5"></path><g fill="#e6332e"><circle cx="57" cy="309" r="2"></circle><circle cx="82" cy="307" r="2"></circle><circle cx="106" cy="305" r="2"></circle><circle cx="131" cy="304" r="2"></circle><circle cx="156" cy="302" r="2"></circle><circle cx="180" cy="301" r="2"></circle><circle cx="205" cy="299" r="2"></circle><circle cx="229" cy="298" r="2"></circle><circle cx="254" cy="297" r="2"></circle><circle cx="279" cy="296" r="2"></circle><circle cx="303" cy="294" r="2"></circle><circle cx="328" cy="293" r="2"></circle><circle cx="352" cy="292" r="2"></circle><circle cx="377" cy="291" r="2"></circle><circle cx="402" cy="290" r="2"></circle><circle cx="426" cy="288" r="2"></circle><circle cx="451" cy="287" r="2"></circle><circle cx="475" cy="286" r="2"></circle><circle cx="500" cy="284" r="2"></circle><circle cx="525" cy="283" r="2"></circle><circle cx="549" cy="282" r="2"></circle><circle cx="574" cy="281" r="2"></circle><circle cx="598" cy="280" r="2"></circle><circle cx="623" cy="279" r="2"></circle><circle cx="648" cy="278" r="2"></circle><circle cx="672" cy="278" r="2"></circle><circle cx="697" cy="277" r="2"></circle></g></g><g class="key-World_2"><path stroke="#ffd53e" stroke-linecap="round" d="M57 165L82 162L106 160L131 157L156 156L180 155L205 155L229 156L254 158L279 161L303 164L328 169L352 173L377 178L402 183L426 186L451 189L475 190L500 191L525 190L549 189L574 187L598 184L623 181L648 179L672 178L697 179" fill="none" stroke-width="1.5"></path><g fill="#ffd53e"><circle cx="57" cy="165" r="2"></circle><circle cx="82" cy="162" r="2"></circle><circle cx="106" cy="160" r="2"></circle><circle cx="131" cy="157" r="2"></circle><circle cx="156" cy="156" r="2"></circle><circle cx="180" cy="155" r="2"></circle><circle cx="205" cy="155" r="2"></circle><circle cx="229" cy="156" r="2"></circle><circle cx="254" cy="158" r="2"></circle><circle cx="279" cy="161" r="2"></circle><circle cx="303" cy="164" r="2"></circle><circle cx="328" cy="169" r="2"></circle><circle cx="352" cy="173" r="2"></circle><circle cx="377" cy="178" r="2"></circle><circle cx="402" cy="183" r="2"></circle><circle cx="426" cy="186" r="2"></circle><circle cx="451" cy="189" r="2"></circle><circle cx="475" cy="190" r="2"></circle><circle cx="500" cy="191" r="2"></circle><circle cx="525" cy="190" r="2"></circle><circle cx="549" cy="189" r="2"></circle><circle cx="574" cy="187" r="2"></circle><circle cx="598" cy="184" r="2"></circle><circle cx="623" cy="181" r="2"></circle><circle cx="648" cy="179" r="2"></circle><circle cx="672" cy="178" r="2"></circle><circle cx="697" cy="179" r="2"></circle></g></g><g class="key-World_3"><path stroke="#3360a9" stroke-linecap="round" d="M57 533L82 533L106 533L131 533L156 533L180 533L205 533L229 533L254 533L279 533L303 533L328 533L352 533L377 533L402 533L426 533L451 533L475 533L500 533L525 533L549 533L574 533L598 533L623 533L648 533L672 533L697 533" fill="none" stroke-width="1.5"></path><g fill="#3360a9"><circle cx="57" cy="533" r="2"></circle><circle cx="82" cy="533" r="2"></circle><circle cx="106" cy="533" r="2"></circle><circle cx="131" cy="533" r="2"></circle><circle cx="156" cy="533" r="2"></circle><circle cx="180" cy="533" r="2"></circle><circle cx="205" cy="533" r="2"></circle><circle cx="229" cy="533" r="2"></circle><circle cx="254" cy="533" r="2"></circle><circle cx="279" cy="533" r="2"></circle><circle cx="303" cy="533" r="2"></circle><circle cx="328" cy="533" r="2"></circle><circle cx="352" cy="533" r="2"></circle><circle cx="377" cy="533" r="2"></circle><circle cx="402" cy="533" r="2"></circle><circle cx="426" cy="533" r="2"></circle><circle cx="451" cy="533" r="2"></circle><circle cx="475" cy="533" r="2"></circle><circle cx="500" cy="533" r="2"></circle><circle cx="525" cy="533" r="2"></circle><circle cx="549" cy="533" r="2"></circle><circle cx="574" cy="533" r="2"></circle><circle cx="598" cy="533" r="2"></circle><circle cx="623" cy="533" r="2"></circle><circle cx="648" cy="533" r="2"></circle><circle cx="672" cy="533" r="2"></circle><circle cx="697" cy="533" r="2"></circle></g></g><g class="key-World_4"><path stroke="#b077b1" stroke-linecap="round" d="M57 151L82 152L106 152L131 152L156 151L180 151L205 151L229 150L254 149L279 149L303 147L328 146L352 145L377 143L402 142L426 141L451 140L475 140L500 139L525 139L549 139L574 139L598 139L623 139L648 139L672 139L697 139" fill="none" stroke-width="1.5"></path><g fill="#b077b1"><circle cx="57" cy="151" r="2"></circle><circle cx="82" cy="152" r="2"></circle><circle cx="106" cy="152" r="2"></circle><circle cx="131" cy="152" r="2"></circle><circle cx="156" cy="151" r="2"></circle><circle cx="180" cy="151" r="2"></circle><circle cx="205" cy="151" r="2"></circle><circle cx="229" cy="150" r="2"></circle><circle cx="254" cy="149" r="2"></circle><circle cx="279" cy="149" r="2"></circle><circle cx="303" cy="147" r="2"></circle><circle cx="328" cy="146" r="2"></circle><circle cx="352" cy="145" r="2"></circle><circle cx="377" cy="143" r="2"></circle><circle cx="402" cy="142" r="2"></circle><circle cx="426" cy="141" r="2"></circle><circle cx="451" cy="140" r="2"></circle><circle cx="475" cy="140" r="2"></circle><circle cx="500" cy="139" r="2"></circle><circle cx="525" cy="139" r="2"></circle><circle cx="549" cy="139" r="2"></circle><circle cx="574" cy="139" r="2"></circle><circle cx="598" cy="139" r="2"></circle><circle cx="623" cy="139" r="2"></circle><circle cx="648" cy="139" r="2"></circle><circle cx="672" cy="139" r="2"></circle><circle cx="697" cy="139" r="2"></circle></g></g><g class="key-World_5"><path stroke="#2a939b" stroke-linecap="round" d="M57 282L82 281L106 281L131 280L156 280L180 280L205 279L229 279L254 279L279 280L303 280L328 280L352 280L377 280L402 281L426 281L451 281L475 281L500 281L525 281L549 281L574 281L598 281L623 282L648 282L672 282L697 283" fill="none" stroke-width="1.5"></path><g fill="#2a939b"><circle cx="57" cy="282" r="2"></circle><circle cx="82" cy="281" r="2"></circle><circle cx="106" cy="281" r="2"></circle><circle cx="131" cy="280" r="2"></circle><circle cx="156" cy="280" r="2"></circle><circle cx="180" cy="280" r="2"></circle><circle cx="205" cy="279" r="2"></circle><circle cx="229" cy="279" r="2"></circle><circle cx="254" cy="279" r="2"></circle><circle cx="279" cy="280" r="2"></circle><circle cx="303" cy="280" r="2"></circle><circle cx="328" cy="280" r="2"></circle><circle cx="352" cy="280" r="2"></circle><circle cx="377" cy="280" r="2"></circle><circle cx="402" cy="281" r="2"></circle><circle cx="426" cy="281" r="2"></circle><circle cx="451" cy="281" r="2"></circle><circle cx="475" cy="281" r="2"></circle><circle cx="500" cy="281" r="2"></circle><circle cx="525" cy="281" r="2"></circle><circle cx="549" cy="281" r="2"></circle><circle cx="574" cy="281" r="2"></circle><circle cx="598" cy="281" r="2"></circle><circle cx="623" cy="282" r="2"></circle><circle cx="648" cy="282" r="2"></circle><circle cx="672" cy="282" r="2"></circle><circle cx="697" cy="283" r="2"></circle></g></g><g class="key-World_6"><path stroke="#9ecc8a" stroke-linecap="round" d="M57 209L82 207L106 205L131 203L156 201L180 199L205 198L229 197L254 197L279 197L303 198L328 198L352 199L377 201L402 202L426 202L451 202L475 202L500 201L525 200L549 199L574 199L598 198L623 198L648 198L672 198L697 198" fill="none" stroke-width="1.5"></path><g fill="#9ecc8a"><circle cx="57" cy="209" r="2"></circle><circle cx="82" cy="207" r="2"></circle><circle cx="106" cy="205" r="2"></circle><circle cx="131" cy="203" r="2"></circle><circle cx="156" cy="201" r="2"></circle><circle cx="180" cy="199" r="2"></circle><circle cx="205" cy="198" r="2"></circle><circle cx="229" cy="197" r="2"></circle><circle cx="254" cy="197" r="2"></circle><circle cx="279" cy="197" r="2"></circle><circle cx="303" cy="198" r="2"></circle><circle cx="328" cy="198" r="2"></circle><circle cx="352" cy="199" r="2"></circle><circle cx="377" cy="201" r="2"></circle><circle cx="402" cy="202" r="2"></circle><circle cx="426" cy="202" r="2"></circle><circle cx="451" cy="202" r="2"></circle><circle cx="475" cy="202" r="2"></circle><circle cx="500" cy="201" r="2"></circle><circle cx="525" cy="200" r="2"></circle><circle cx="549" cy="199" r="2"></circle><circle cx="574" cy="199" r="2"></circle><circle cx="598" cy="198" r="2"></circle><circle cx="623" cy="198" r="2"></circle><circle cx="648" cy="198" r="2"></circle><circle cx="672" cy="198" r="2"></circle><circle cx="697" cy="198" r="2"></circle></g></g><g class="key-World_7"><path stroke="#f6a324" stroke-linecap="round" d="M57 360L82 360L106 359L131 359L156 359L180 359L205 359L229 359L254 359L279 359L303 359L328 359L352 359L377 359L402 359L426 359L451 359L475 359L500 359L525 359L549 359L574 359L598 359L623 359L648 359L672 359L697 359" fill="none" stroke-width="1.5"></path><g fill="#f6a324"><circle cx="57" cy="360" r="2"></circle><circle cx="82" cy="360" r="2"></circle><circle cx="106" cy="359" r="2"></circle><circle cx="131" cy="359" r="2"></circle><circle cx="156" cy="359" r="2"></circle><circle cx="180" cy="359" r="2"></circle><circle cx="205" cy="359" r="2"></circle><circle cx="229" cy="359" r="2"></circle><circle cx="254" cy="359" r="2"></circle><circle cx="279" cy="359" r="2"></circle><circle cx="303" cy="359" r="2"></circle><circle cx="328" cy="359" r="2"></circle><circle cx="352" cy="359" r="2"></circle><circle cx="377" cy="359" r="2"></circle><circle cx="402" cy="359" r="2"></circle><circle cx="426" cy="359" r="2"></circle><circle cx="451" cy="359" r="2"></circle><circle cx="475" cy="359" r="2"></circle><circle cx="500" cy="359" r="2"></circle><circle cx="525" cy="359" r="2"></circle><circle cx="549" cy="359" r="2"></circle><circle cx="574" cy="359" r="2"></circle><circle cx="598" cy="359" r="2"></circle><circle cx="623" cy="359" r="2"></circle><circle cx="648" cy="359" r="2"></circle><circle cx="672" cy="359" r="2"></circle><circle cx="697" cy="359" r="2"></circle></g></g><g class="key-World_8"><path stroke="#a652ba" stroke-linecap="round" d="M57 312L82 312L106 312L131 313L156 315L180 317L205 319L229 322L254 326L279 329L303 331L328 333L352 334L377 335L402 335L426 334L451 332L475 330L500 328L525 327L549 326L574 326L598 328L623 330L648 332L672 335L697 337" fill="none" stroke-width="1.5"></path><g fill="#a652ba"><circle cx="57" cy="312" r="2"></circle><circle cx="82" cy="312" r="2"></circle><circle cx="106" cy="312" r="2"></circle><circle cx="131" cy="313" r="2"></circle><circle cx="156" cy="315" r="2"></circle><circle cx="180" cy="317" r="2"></circle><circle cx="205" cy="319" r="2"></circle><circle cx="229" cy="322" r="2"></circle><circle cx="254" cy="326" r="2"></circle><circle cx="279" cy="329" r="2"></circle><circle cx="303" cy="331" r="2"></circle><circle cx="328" cy="333" r="2"></circle><circle cx="352" cy="334" r="2"></circle><circle cx="377" cy="335" r="2"></circle><circle cx="402" cy="335" r="2"></circle><circle cx="426" cy="334" r="2"></circle><circle cx="451" cy="332" r="2"></circle><circle cx="475" cy="330" r="2"></circle><circle cx="500" cy="328" r="2"></circle><circle cx="525" cy="327" r="2"></circle><circle cx="549" cy="326" r="2"></circle><circle cx="574" cy="326" r="2"></circle><circle cx="598" cy="328" r="2"></circle><circle cx="623" cy="330" r="2"></circle><circle cx="648" cy="332" r="2"></circle><circle cx="672" cy="335" r="2"></circle><circle cx="697" cy="337" r="2"></circle></g></g><g class="key-World_9"><path stroke="#7ec7ce" stroke-linecap="round" d="M57 92L82 92L106 92L131 90L156 88L180 86L205 83L229 81L254 79L279 77L303 77L328 77L352 78L377 80L402 83L426 86L451 90L475 94L500 99L525 103L549 107L574 109L598 111L623 112L648 112L672 111L697 109" fill="none" stroke-width="1.5"></path><g fill="#7ec7ce"><circle cx="57" cy="92" r="2"></circle><circle cx="82" cy="92" r="2"></circle><circle cx="106" cy="92" r="2"></circle><circle cx="131" cy="90" r="2"></circle><circle cx="156" cy="88" r="2"></circle><circle cx="180" cy="86" r="2"></circle><circle cx="205" cy="83" r="2"></circle><circle cx="229" cy="81" r="2"></circle><circle cx="254" cy="79" r="2"></circle><circle cx="279" cy="77" r="2"></circle><circle cx="303" cy="77" r="2"></circle><circle cx="328" cy="77" r="2"></circle><circle cx="352" cy="78" r="2"></circle><circle cx="377" cy="80" r="2"></circle><circle cx="402" cy="83" r="2"></circle><circle cx="426" cy="86" r="2"></circle><circle cx="451" cy="90" r="2"></circle><circle cx="475" cy="94" r="2"></circle><circle cx="500" cy="99" r="2"></circle><circle cx="525" cy="103" r="2"></circle><circle cx="549" cy="107" r="2"></circle><circle cx="574" cy="109" r="2"></circle><circle cx="598" cy="111" r="2"></circle><circle cx="623" cy="112" r="2"></circle><circle cx="648" cy="112" r="2"></circle><circle cx="672" cy="111" r="2"></circle><circle cx="697" cy="109" r="2"></circle></g></g></g></g></g><g style="fill: #777;" class="SourcesFooter"><g style="fill: #777;" class="clickable"><text font-size="12.60" x="15.0" y="581.6"><tspan x="15" y="581.58">Source: IHME, Global Burden of Disease</tspan></text></g><text font-size="12.60" x="649.0" y="581.6"><tspan x="649.024" y="581.58"><a target='_blank' style='fill: #777;' href='https://ourworldindata.org'>OurWorldInData.org</a> • <a style="fill: #777;" href="http://creativecommons.org/licenses/by-sa/4.0/deed.en_US" target="_blank">CC BY-SA</a></tspan></text></g></g></svg>