<svg xmlns="http://www.w3.org/2000/svg" version="1.1" style="font-family: 'Helvetica Neue', Helvetica, Arial, sans-serif; font-size: 24px; background-color: white;" width="1200" height="630"><g class="ChartTab"><g class="LineChart"><defs><clipPath id="boundsClip-1115"><rect x="53.416000000000004" y="0" width="1180" height="1130"></rect></clipPath></defs><g class="AxisBoxView"><g class="HorizontalAxis"><text x="63.4" y="600" fill="#666" text-anchor="middle" font-size="21.6">1995</text><text x="117.6" y="600" fill="#666" text-anchor="middle" font-size="21.6">1996</text><text x="225.9" y="600" fill="#666" text-anchor="middle" font-size="21.6">1998</text><text x="334.2" y="600" fill="#666" text-anchor="middle" font-size="21.6">2000</text><text x="442.5" y="600" fill="#666" text-anchor="middle" font-size="21.6">2002</text><text x="550.8" y="600" fill="#666" text-anchor="middle" font-size="21.6">2004</text><text x="659" y="600" fill="#666" text-anchor="middle" font-size="21.6">2006</text><text x="767.3" y="600" fill="#666" text-anchor="middle" font-size="21.6">2008</text><text x="875.6" y="600" fill="#666" text-anchor="middle" font-size="21.6">2010</text><text x="929.8" y="600" fill="#666" text-anchor="middle" font-size="21.6">2011</text></g><g class="VerticalAxis"><text x="58.42" y="573.4" fill="#666" dominant-baseline="middle" text-anchor="end" font-size="21.6">0%</text><text x="58.42" y="472.4" fill="#666" dominant-baseline="middle" text-anchor="end" font-size="21.6">10%</text><text x="58.42" y="371.3" fill="#666" dominant-baseline="middle" text-anchor="end" font-size="21.6">20%</text><text x="58.42" y="270.3" fill="#666" dominant-baseline="middle" text-anchor="end" font-size="21.6">30%</text><text x="58.42" y="169.3" fill="#666" dominant-baseline="middle" text-anchor="end" font-size="21.6">40%</text><text x="58.42" y="68.3" fill="#666" dominant-baseline="middle" text-anchor="end" font-size="21.6">50%</text></g><g class="AxisGridLines"><line x1="63.42" y1="573.4" x2="929.79" y2="573.4" stroke="#ccc"></line><line x1="63.42" y1="472.4" x2="929.79" y2="472.4" stroke="#ddd" stroke-dasharray="3,2"></line><line x1="63.42" y1="371.3" x2="929.79" y2="371.3" stroke="#ddd" stroke-dasharray="3,2"></line><line x1="63.42" y1="270.3" x2="929.79" y2="270.3" stroke="#ddd" stroke-dasharray="3,2"></line><line x1="63.42" y1="169.3" x2="929.79" y2="169.3" stroke="#ddd" stroke-dasharray="3,2"></line><line x1="63.42" y1="68.3" x2="929.79" y2="68.3" stroke="#ddd" stroke-dasharray="3,2"></line></g><g class="AxisGridLines"><line x1="117.6" y1="573.40" x2="117.6" y2="35.00" stroke="#ddd" stroke-dasharray="3,2"></line><line x1="225.9" y1="573.40" x2="225.9" y2="35.00" stroke="#ddd" stroke-dasharray="3,2"></line><line x1="334.2" y1="573.40" x2="334.2" y2="35.00" stroke="#ddd" stroke-dasharray="3,2"></line><line x1="442.5" y1="573.40" x2="442.5" y2="35.00" stroke="#ddd" stroke-dasharray="3,2"></line><line x1="550.8" y1="573.40" x2="550.8" y2="35.00" stroke="#ddd" stroke-dasharray="3,2"></line><line x1="659" y1="573.40" x2="659" y2="35.00" stroke="#ddd" stroke-dasharray="3,2"></line><line x1="767.3" y1="573.40" x2="767.3" y2="35.00" stroke="#ddd" stroke-dasharray="3,2"></line><line x1="875.6" y1="573.40" x2="875.6" y2="35.00" stroke="#ddd" stroke-dasharray="3,2"></line></g></g><g clip-path="url(#boundsClip-1115)"><g class="HeightedLegend clickable"><g class="legendMark"><rect x="939.7919999999999" y="38.6" width="108.31200000000001" height="19.200000000000003" fill="#fff" opacity="0"></rect><rect x="939.7919999999999" y="46.95" width="10" height="2.5" fill="#9ecc8a"></rect><text font-size="19.20" x="954.8" y="54.0" fill="#333"><tspan x="954.7919999999999" y="53.96">South Asia</tspan></text></g><g class="legendMark"><rect x="939.7919999999999" y="98.69999999999999" width="183.19200000000004" height="19.200000000000003" fill="#fff" opacity="0"></rect><rect x="939.7919999999999" y="107.04999999999998" width="10" height="2.5" fill="#e6332e"></rect><text font-size="19.20" x="954.8" y="114.1" fill="#333"><tspan x="954.7919999999999" y="114.05999999999999">Sub-Saharan Africa</tspan></text></g><g class="legendMark"><rect x="939.7919999999999" y="178.20000000000002" width="65.11200000000001" height="19.200000000000003" fill="#fff" opacity="0"></rect><rect x="939.7919999999999" y="186.55" width="10" height="2.5" fill="#2a939b"></rect><text font-size="19.20" x="954.8" y="193.6" fill="#333"><tspan x="954.7919999999999" y="193.56000000000003">World</tspan></text></g><g class="legendMark"><rect x="939.7919999999999" y="252.1" width="240.79200000000003" height="19.200000000000003" fill="#fff" opacity="0"></rect><rect x="939.7919999999999" y="260.45" width="10" height="2.5" fill="#a652ba"></rect><text font-size="19.20" x="954.8" y="267.5" fill="#333"><tspan x="954.7919999999999" y="267.46000000000004">Middle East &amp; North Africa</tspan></text></g><g class="legendMark"><rect x="939.7919999999999" y="278.59999999999997" width="245.20800000000003" height="19.200000000000003" fill="#fff" opacity="0"></rect><rect x="939.7919999999999" y="286.95" width="10" height="2.5" fill="#f6a324"></rect><text font-size="19.20" x="954.8" y="294.0" fill="#333"><tspan x="954.7919999999999" y="293.96">Latin America &amp; Caribbean</tspan></text></g><g class="legendMark"><rect x="939.7919999999999" y="302.4" width="205.65600000000003" height="19.200000000000003" fill="#fff" opacity="0"></rect><rect x="939.7919999999999" y="310.75" width="10" height="2.5" fill="#34983f"></rect><text font-size="19.20" x="954.8" y="317.8" fill="#333"><tspan x="954.7919999999999" y="317.76">Europe &amp; Central Asia</tspan></text></g><g class="legendMark"><rect x="939.7919999999999" y="321.59999999999997" width="176.66400000000002" height="19.200000000000003" fill="#fff" opacity="0"></rect><rect x="939.7919999999999" y="329.95" width="10" height="2.5" fill="#ca2628"></rect><text font-size="19.20" x="954.8" y="337.0" fill="#333"><tspan x="954.7919999999999" y="336.96">East Asia &amp; Pacific</tspan></text></g><g class="legendMark"><rect x="939.7919999999999" y="390.7" width="137.88000000000002" height="19.200000000000003" fill="#fff" opacity="0"></rect><rect x="939.7919999999999" y="399.05" width="10" height="2.5" fill="#3360a9"></rect><text font-size="19.20" x="954.8" y="406.1" fill="#333"><tspan x="954.7919999999999" y="406.06">North America</tspan></text></g></g><g class="Lines"><rect x="63" y="35" width="866" height="538" fill="rgba(255,255,255,0)" opacity="0"></rect><g class="key-Europe-__0026-Central-Asia_0"><path stroke="#34983f" stroke-linecap="round" d="M63 265L118 270L172 276L226 282L280 287L334 292L388 296L443 299L497 301L551 303L605 304L659 306L713 307L767 309L822 310L876 311L930 312" fill="none" stroke-width="1.5"></path><g fill="#34983f"><circle cx="63" cy="265" r="2"></circle><circle cx="118" cy="270" r="2"></circle><circle cx="172" cy="276" r="2"></circle><circle cx="226" cy="282" r="2"></circle><circle cx="280" cy="287" r="2"></circle><circle cx="334" cy="292" r="2"></circle><circle cx="388" cy="296" r="2"></circle><circle cx="443" cy="299" r="2"></circle><circle cx="497" cy="301" r="2"></circle><circle cx="551" cy="303" r="2"></circle><circle cx="605" cy="304" r="2"></circle><circle cx="659" cy="306" r="2"></circle><circle cx="713" cy="307" r="2"></circle><circle cx="767" cy="309" r="2"></circle><circle cx="822" cy="310" r="2"></circle><circle cx="876" cy="311" r="2"></circle><circle cx="930" cy="312" r="2"></circle></g></g><g class="key-World_0"><path stroke="#2a939b" stroke-linecap="round" d="M63 143L118 145L172 147L226 149L280 152L334 155L388 157L443 160L497 163L551 165L605 168L659 171L713 174L767 178L822 181L876 185L930 188" fill="none" stroke-width="1.5"></path><g fill="#2a939b"><circle cx="63" cy="143" r="2"></circle><circle cx="118" cy="145" r="2"></circle><circle cx="172" cy="147" r="2"></circle><circle cx="226" cy="149" r="2"></circle><circle cx="280" cy="152" r="2"></circle><circle cx="334" cy="155" r="2"></circle><circle cx="388" cy="157" r="2"></circle><circle cx="443" cy="160" r="2"></circle><circle cx="497" cy="163" r="2"></circle><circle cx="551" cy="165" r="2"></circle><circle cx="605" cy="168" r="2"></circle><circle cx="659" cy="171" r="2"></circle><circle cx="713" cy="174" r="2"></circle><circle cx="767" cy="178" r="2"></circle><circle cx="822" cy="181" r="2"></circle><circle cx="876" cy="185" r="2"></circle><circle cx="930" cy="188" r="2"></circle></g></g><g class="key-East-Asia-__0026-Pacific_0"><path stroke="#ca2628" stroke-linecap="round" d="M63 227L118 233L172 239L226 245L280 251L334 259L388 265L443 272L497 278L551 284L605 289L659 294L713 299L767 304L822 308L876 312L930 315" fill="none" stroke-width="1.5"></path><g fill="#ca2628"><circle cx="63" cy="227" r="2"></circle><circle cx="118" cy="233" r="2"></circle><circle cx="172" cy="239" r="2"></circle><circle cx="226" cy="245" r="2"></circle><circle cx="280" cy="251" r="2"></circle><circle cx="334" cy="259" r="2"></circle><circle cx="388" cy="265" r="2"></circle><circle cx="443" cy="272" r="2"></circle><circle cx="497" cy="278" r="2"></circle><circle cx="551" cy="284" r="2"></circle><circle cx="605" cy="289" r="2"></circle><circle cx="659" cy="294" r="2"></circle><circle cx="713" cy="299" r="2"></circle><circle cx="767" cy="304" r="2"></circle><circle cx="822" cy="308" r="2"></circle><circle cx="876" cy="312" r="2"></circle><circle cx="930" cy="315" r="2"></circle></g></g><g class="key-Latin-America-__0026-Caribbean_0"><path stroke="#f6a324" stroke-linecap="round" d="M63 199L118 204L172 209L226 214L280 219L334 225L388 231L443 236L497 242L551 247L605 253L659 259L713 265L767 271L822 277L876 283L930 288" fill="none" stroke-width="1.5"></path><g fill="#f6a324"><circle cx="63" cy="199" r="2"></circle><circle cx="118" cy="204" r="2"></circle><circle cx="172" cy="209" r="2"></circle><circle cx="226" cy="214" r="2"></circle><circle cx="280" cy="219" r="2"></circle><circle cx="334" cy="225" r="2"></circle><circle cx="388" cy="231" r="2"></circle><circle cx="443" cy="236" r="2"></circle><circle cx="497" cy="242" r="2"></circle><circle cx="551" cy="247" r="2"></circle><circle cx="605" cy="253" r="2"></circle><circle cx="659" cy="259" r="2"></circle><circle cx="713" cy="265" r="2"></circle><circle cx="767" cy="271" r="2"></circle><circle cx="822" cy="277" r="2"></circle><circle cx="876" cy="283" r="2"></circle><circle cx="930" cy="288" r="2"></circle></g></g><g class="key-South-Asia_0"><path stroke="#9ecc8a" stroke-linecap="round" d="M63 41L118 39L172 37L226 37L280 36L334 35L388 35L443 35L497 35L551 36L605 38L659 40L713 42L767 44L822 45L876 47L930 48" fill="none" stroke-width="1.5"></path><g fill="#9ecc8a"><circle cx="63" cy="41" r="2"></circle><circle cx="118" cy="39" r="2"></circle><circle cx="172" cy="37" r="2"></circle><circle cx="226" cy="37" r="2"></circle><circle cx="280" cy="36" r="2"></circle><circle cx="334" cy="35" r="2"></circle><circle cx="388" cy="35" r="2"></circle><circle cx="443" cy="35" r="2"></circle><circle cx="497" cy="35" r="2"></circle><circle cx="551" cy="36" r="2"></circle><circle cx="605" cy="38" r="2"></circle><circle cx="659" cy="40" r="2"></circle><circle cx="713" cy="42" r="2"></circle><circle cx="767" cy="44" r="2"></circle><circle cx="822" cy="45" r="2"></circle><circle cx="876" cy="47" r="2"></circle><circle cx="930" cy="48" r="2"></circle></g></g><g class="key-North-America_0"><path stroke="#3360a9" stroke-linecap="round" d="M63 406L118 413L172 419L226 426L280 432L334 437L388 442L443 445L497 445L551 443L605 440L659 434L713 427L767 421L822 414L876 407L930 400" fill="none" stroke-width="1.5"></path><g fill="#3360a9"><circle cx="63" cy="406" r="2"></circle><circle cx="118" cy="413" r="2"></circle><circle cx="172" cy="419" r="2"></circle><circle cx="226" cy="426" r="2"></circle><circle cx="280" cy="432" r="2"></circle><circle cx="334" cy="437" r="2"></circle><circle cx="388" cy="442" r="2"></circle><circle cx="443" cy="445" r="2"></circle><circle cx="497" cy="445" r="2"></circle><circle cx="551" cy="443" r="2"></circle><circle cx="605" cy="440" r="2"></circle><circle cx="659" cy="434" r="2"></circle><circle cx="713" cy="427" r="2"></circle><circle cx="767" cy="421" r="2"></circle><circle cx="822" cy="414" r="2"></circle><circle cx="876" cy="407" r="2"></circle><circle cx="930" cy="400" r="2"></circle></g></g><g class="key-Middle-East-__0026-North-Africa_0"><path stroke="#a652ba" stroke-linecap="round" d="M63 198L118 205L172 212L226 219L280 226L334 231L388 235L443 238L497 240L551 241L605 243L659 246L713 249L767 252L822 256L876 260L930 262" fill="none" stroke-width="1.5"></path><g fill="#a652ba"><circle cx="63" cy="198" r="2"></circle><circle cx="118" cy="205" r="2"></circle><circle cx="172" cy="212" r="2"></circle><circle cx="226" cy="219" r="2"></circle><circle cx="280" cy="226" r="2"></circle><circle cx="334" cy="231" r="2"></circle><circle cx="388" cy="235" r="2"></circle><circle cx="443" cy="238" r="2"></circle><circle cx="497" cy="240" r="2"></circle><circle cx="551" cy="241" r="2"></circle><circle cx="605" cy="243" r="2"></circle><circle cx="659" cy="246" r="2"></circle><circle cx="713" cy="249" r="2"></circle><circle cx="767" cy="252" r="2"></circle><circle cx="822" cy="256" r="2"></circle><circle cx="876" cy="260" r="2"></circle><circle cx="930" cy="262" r="2"></circle></g></g><g class="key-Sub__002dSaharan-Africa_0"><path stroke="#e6332e" stroke-linecap="round" d="M63 38L118 39L172 39L226 41L280 43L334 45L388 48L443 52L497 56L551 60L605 65L659 71L713 77L767 84L822 92L876 101L930 108" fill="none" stroke-width="1.5"></path><g fill="#e6332e"><circle cx="63" cy="38" r="2"></circle><circle cx="118" cy="39" r="2"></circle><circle cx="172" cy="39" r="2"></circle><circle cx="226" cy="41" r="2"></circle><circle cx="280" cy="43" r="2"></circle><circle cx="334" cy="45" r="2"></circle><circle cx="388" cy="48" r="2"></circle><circle cx="443" cy="52" r="2"></circle><circle cx="497" cy="56" r="2"></circle><circle cx="551" cy="60" r="2"></circle><circle cx="605" cy="65" r="2"></circle><circle cx="659" cy="71" r="2"></circle><circle cx="713" cy="77" r="2"></circle><circle cx="767" cy="84" r="2"></circle><circle cx="822" cy="92" r="2"></circle><circle cx="876" cy="101" r="2"></circle><circle cx="930" cy="108" r="2"></circle></g></g></g></g></g></g></svg>