<svg xmlns="http://www.w3.org/2000/svg" version="1.1" style="font-family: 'Helvetica Neue', Helvetica, Arial, sans-serif; font-size: 24px; background-color: white;" width="1200" height="630"><g class="ChartTab"><g><g class="AxisBoxView"><g class="HorizontalAxis"><text font-size="16.80" x="390.7" y="596.6"><tspan x="390.7200000000001" y="596.64">Daily caloric supply (kcal per person)</tspan></text><text x="90.2" y="573.2" fill="#666" text-anchor="middle" font-size="21.6">1,506 kcal</text><text x="301.6" y="573.2" fill="#666" text-anchor="middle" font-size="21.6">2,000 kcal</text><text x="515.6" y="573.2" fill="#666" text-anchor="middle" font-size="21.6">2,500 kcal</text><text x="729.5" y="573.2" fill="#666" text-anchor="middle" font-size="21.6">3,000 kcal</text><text x="1041.5" y="573.2" fill="#666" text-anchor="middle" font-size="21.6">3,729 kcal</text></g><g class="VerticalAxis"><text font-size="16.80" x="-439.4" y="28.4" transform="rotate(-90)"><tspan x="-439.384" y="28.439999999999998">Prevalence of undernourishment</tspan></text><text x="85.22" y="546.6" fill="#666" dominant-baseline="middle" text-anchor="end" font-size="21.6">0%</text><text x="85.22" y="483.3" fill="#666" dominant-baseline="middle" text-anchor="end" font-size="21.6">10%</text><text x="85.22" y="420" fill="#666" dominant-baseline="middle" text-anchor="end" font-size="21.6">20%</text><text x="85.22" y="356.6" fill="#666" dominant-baseline="middle" text-anchor="end" font-size="21.6">30%</text><text x="85.22" y="293.3" fill="#666" dominant-baseline="middle" text-anchor="end" font-size="21.6">40%</text><text x="85.22" y="230" fill="#666" dominant-baseline="middle" text-anchor="end" font-size="21.6">50%</text><text x="85.22" y="166.7" fill="#666" dominant-baseline="middle" text-anchor="end" font-size="21.6">60%</text><text x="85.22" y="103.4" fill="#666" dominant-baseline="middle" text-anchor="end" font-size="21.6">70%</text><text x="85.22" y="40.1" fill="#666" dominant-baseline="middle" text-anchor="end" font-size="21.6">80%</text></g><g class="AxisGridLines"><line x1="90.22" y1="546.6" x2="1041.46" y2="546.6" stroke="#ccc"></line><line x1="90.22" y1="483.3" x2="1041.46" y2="483.3" stroke="#ddd" stroke-dasharray="3,2"></line><line x1="90.22" y1="420" x2="1041.46" y2="420" stroke="#ddd" stroke-dasharray="3,2"></line><line x1="90.22" y1="356.6" x2="1041.46" y2="356.6" stroke="#ddd" stroke-dasharray="3,2"></line><line x1="90.22" y1="293.3" x2="1041.46" y2="293.3" stroke="#ddd" stroke-dasharray="3,2"></line><line x1="90.22" y1="230" x2="1041.46" y2="230" stroke="#ddd" stroke-dasharray="3,2"></line><line x1="90.22" y1="166.7" x2="1041.46" y2="166.7" stroke="#ddd" stroke-dasharray="3,2"></line><line x1="90.22" y1="103.4" x2="1041.46" y2="103.4" stroke="#ddd" stroke-dasharray="3,2"></line><line x1="90.22" y1="40.1" x2="1041.46" y2="40.1" stroke="#ddd" stroke-dasharray="3,2"></line></g><g class="AxisGridLines"><line x1="301.6" y1="546.60" x2="301.6" y2="35.00" stroke="#ddd" stroke-dasharray="3,2"></line><line x1="515.6" y1="546.60" x2="515.6" y2="35.00" stroke="#ddd" stroke-dasharray="3,2"></line><line x1="729.5" y1="546.60" x2="729.5" y2="35.00" stroke="#ddd" stroke-dasharray="3,2"></line><line x1="943.5" y1="546.60" x2="943.5" y2="35.00" stroke="#ddd" stroke-dasharray="3,2"></line></g></g><g clip-path="url(#scatterBounds-1147)" class="PointsWithLabels clickable"><rect x="90.21600000000001" y="35" width="951.2400000000001" height="511.6" fill="rgba(255,255,255,0)"></rect><defs><clipPath id="scatterBounds-1147"><rect x="80.21600000000001" y="25" width="971.2400000000001" height="531.6"></rect></clipPath></defs><g class="key-China_0"><circle cx="491" cy="395" r="2.0312981939172268" fill="#d14e5b" stroke="#ccc" opacity="0.6"></circle><polyline stroke-linecap="round" stroke="#d14e5b" points="491,395 501,391 537,398 564,407 601,419 602,429 615,435 633,439 631,442 649,444 652,445 659,445 660,445 670,446 679,447 680,449 695,452 719,457 727,462 748,467 763,472 771,477 775,480" fill="none" stroke-width="1.415077572595482" opacity="0.6"></polyline><polygon points="772.8849224274045,485.8849224274045 775,477.8849224274045 777.1150775725955,482.11507757259545" transform="rotate(126.86989872402458, 775, 480)" cx="775" cy="480" r="2.115077572595482" fill="#d14e5b" stroke="#ccc" stroke-width="0.2" opacity="0.6"></polygon></g><g class="key-India_0"><circle cx="428" cy="396" r="1.9055785538142138" fill="#d14e5b" stroke="#ccc" opacity="0.6"></circle><polyline stroke-linecap="round" stroke="#d14e5b" points="428,396 444,406 416,404 426,406 440,409 448,416 459,425 456,432 471,437 464,439 444,435 423,428 422,420 411,414 417,412 444,416 472,426 484,437 479,444 490,447 496,447 487,449 498,449" fill="none" stroke-width="1.380333087386797" opacity="0.6"></polyline><polygon points="495.9196669126132,454.9196669126132 498,446.9196669126132 500.0803330873868,451.0803330873868" transform="rotate(90.0000007648485, 498, 449)" cx="498" cy="449" r="2.080333087386797" fill="#d14e5b" stroke="#ccc" stroke-width="0.2" opacity="0.6"></polygon></g><g class="key-Indonesia_0"><circle cx="453" cy="421" r="1.4267577403154492" fill="#d14e5b" stroke="#ccc" opacity="0.6"></circle><polyline stroke-linecap="round" stroke="#d14e5b" points="453,421 479,426 486,432 503,440 537,448 536,454 514,454 509,450 501,444 488,437 483,432 494,428 501,427 503,428 501,427 508,427 525,429 534,434 559,445 580,461 606,476 631,487 634,494" fill="none" stroke-width="0.786023492833092" opacity="0.6"></polyline><polygon points="632.513976507167,500.5139765071669 634,492.5139765071669 635.4860234928332,495.48602349283306" transform="rotate(156.80141081889985, 634, 494)" cx="634" cy="494" r="1.486023492833092" fill="#d14e5b" stroke="#ccc" stroke-width="0.2" opacity="0.6"></polygon></g><g class="key-Brazil_0"><circle cx="634" cy="452" r="1.3874924497016052" fill="#69c487" stroke="#ccc" opacity="0.6"></circle><polyline stroke-linecap="round" stroke="#69c487" points="634,452 631,456 632,456 651,457 649,459 661,460 667,462 666,463 671,464 678,468 683,475 698,485 758,497 764,508 762,514 770,514 774,514 805,514 800,514 827,514 851,514 835,514 842,514" fill="none" stroke-width="0.7399220519620413" opacity="0.6"></polyline><polygon points="840.5600779480379,520.5600779480379 842,512.5600779480379 843.439922051962,515.439922051962" transform="rotate(90.0000007648485, 842, 514)" cx="842" cy="514" r="1.4399220519620413" fill="#69c487" stroke="#ccc" stroke-width="0.2" opacity="0.6"></polygon></g><g class="key-Pakistan_0"><circle cx="397" cy="387" r="1.341296762329304" fill="#d14e5b" stroke="#ccc" opacity="0.6"></circle><polyline stroke-linecap="round" stroke="#d14e5b" points="397,387 440,383 450,394 471,400 468,406 475,408 473,408 460,407 482,406 471,404 435,398 410,389 435,382 447,384 455,390 464,396 481,401 482,406 485,408 486,409 483,408 487,407 489,407" fill="none" stroke-width="0.7222104712281037" opacity="0.6"></polyline><polygon points="487.5777895287719,413.5777895287719 489,405.5777895287719 490.42221047122814,408.42221047122814" transform="rotate(90.0000007648485, 489, 407)" cx="489" cy="407" r="1.4222104712281036" fill="#d14e5b" stroke="#ccc" stroke-width="0.2" opacity="0.6"></polygon></g><g class="key-Nigeria_0"><circle cx="446" cy="411" r="1.3208023576545869" fill="#5675c1" stroke="#ccc" opacity="0.6"></circle><polyline stroke-linecap="round" stroke="#5675c1" points="446,411 487,433 525,444 515,459 541,466 539,471 557,475 571,480 572,485 562,488 563,490 560,489 561,491 581,495 603,501 611,505 609,508 611,509 593,508 603,508 603,507 586,506 601,505" fill="none" stroke-width="0.708820335481204" opacity="0.6"></polyline><polygon points="599.5911796645188,511.5911796645188 601,503.5911796645188 602.4088203354812,506.4088203354812" transform="rotate(86.18592589814493, 601, 505)" cx="601" cy="505" r="1.4088203354812041" fill="#5675c1" stroke="#ccc" stroke-width="0.2" opacity="0.6"></polygon></g><g class="key-Bangladesh_0"><circle cx="351" cy="338" r="1.3316051988440334" fill="#d14e5b" stroke="#ccc" opacity="0.6"></circle><polyline stroke-linecap="round" stroke="#d14e5b" points="351,338 349,336 305,326 302,316 320,313 322,318 342,330 370,351 415,376 412,400 443,416 435,425 451,430 465,435 460,438 460,440 480,439 466,439 483,437 489,437 485,437 487,437 494,437" fill="none" stroke-width="0.6901092445863379" opacity="0.6"></polyline><polygon points="492.6098907554137,443.6098907554137 494,435.6098907554137 495.39010924458637,438.39010924458637" transform="rotate(90.0000007648485, 494, 437)" cx="494" cy="437" r="1.390109244586338" fill="#d14e5b" stroke="#ccc" stroke-width="0.2" opacity="0.6"></polygon></g><g class="key-Mexico_0"><circle cx="724" cy="502" r="1.3002989231269244" fill="#4d824b" stroke="#ccc" opacity="0.6"></circle><polyline stroke-linecap="round" stroke="#4d824b" points="724,502 729,503 732,504 731,504 715,506 725,508 715,509 717,511 721,514 745,514 765,514 773,514 776,512 774,511 757,513 763,514 772,514 763,514 747,514 747,514 741,514 750,514 760,514" fill="none" stroke-width="0.6446083906213964" opacity="0.6"></polyline><polygon points="758.6553916093786,520.6553916093786 760,512.6553916093786 761.3446083906214,515.3446083906214" transform="rotate(90.0000007648485, 760, 514)" cx="760" cy="514" r="1.3446083906213964" fill="#4d824b" stroke="#ccc" stroke-width="0.2" opacity="0.6"></polygon></g><g class="key-Philippines_0"><circle cx="393" cy="380" r="1.2637288252856755" fill="#d14e5b" stroke="#ccc" opacity="0.6"></circle><polyline stroke-linecap="round" stroke="#d14e5b" points="393,380 406,375 390,379 435,382 425,390 457,397 448,402 426,403 455,406 469,411 461,418 469,421 468,425 498,428 503,435 521,442 545,451 551,459 556,464 550,464 546,461 551,458 545,458" fill="none" stroke-width="0.6181472308940279" opacity="0.6"></polyline><polygon points="543.681852769106,464.68185276910594 545,456.68185276910594 546.318147230894,459.318147230894" transform="rotate(-90.0000007648485, 545, 458)" cx="545" cy="458" r="1.318147230894028" fill="#d14e5b" stroke="#ccc" stroke-width="0.2" opacity="0.6"></polygon></g><g class="key-Vietnam_0"><circle cx="240" cy="257" r="1.2728239218284703" fill="#d14e5b" stroke="#ccc" opacity="0.6"></circle><polyline stroke-linecap="round" stroke="#d14e5b" points="240,257 268,262 312,285 325,306 313,322 309,325 295,325 350,330 387,348 403,368 429,385 455,399 479,411 506,420 501,426 508,429 536,433 564,440 574,447 591,454 608,460 606,464 620,467" fill="none" stroke-width="0.6073521993235966" opacity="0.6"></polyline><polygon points="618.6926478006764,473.6926478006764 620,465.6926478006764 621.3073521993235,468.3073521993236" transform="rotate(102.09475794464568, 620, 467)" cx="620" cy="467" r="1.3073521993235966" fill="#d14e5b" stroke="#ccc" stroke-width="0.2" opacity="0.6"></polygon></g><g class="key-Ethiopia_0"><circle cx="124" cy="73" r="1.2400961683593081" fill="#5675c1" stroke="#ccc" opacity="0.6"></circle><polyline stroke-linecap="round" stroke="#5675c1" points="124,73 112,70 91,87 106,81 118,94 154,109 166,130 166,147 184,162 210,180 228,199 234,218 252,230 251,243 292,256 287,269 283,278 309,286 323,296 335,308 345,318 354,325 357,332" fill="none" stroke-width="0.6039446619350681" opacity="0.6"></polyline><polygon points="355.6960553380649,338.6960553380649 357,330.6960553380649 358.3039446619351,333.3039446619351" transform="rotate(156.80141081889985, 357, 332)" cx="357" cy="332" r="1.303944661935068" fill="#5675c1" stroke="#ccc" stroke-width="0.2" opacity="0.6"></polygon></g><g class="key-Egypt_0"><circle cx="802" cy="514" r="1.2546543067450695" fill="#5675c1" stroke="#ccc" opacity="0.6"></circle><polyline stroke-linecap="round" stroke="#5675c1" points="802,514 804,514 813,514 840,514 864,514 871,514 884,514 874,514 881,514 887,514 904,514 915,514 891,514 861,514 886,514 896,514 919,514 939,514 918,514 946,514 964,514 969,514 952,514" fill="none" stroke-width="0.5994754942633651" opacity="0.6"></polyline><polygon points="950.7005245057367,520.7005245057367 952,512.7005245057367 953.2994754942634,515.2994754942634" transform="rotate(-90.0000007648485, 952, 514)" cx="952" cy="514" r="1.299475494263365" fill="#5675c1" stroke="#ccc" stroke-width="0.2" opacity="0.6"></polygon></g><g class="key-Iran_0"><circle cx="704" cy="514" r="1.2512877741807038" fill="#d14e5b" stroke="#ccc" opacity="0.6"></circle><polyline stroke-linecap="round" stroke="#d14e5b" points="704,514 740,514 777,514 758,514 749,514 751,514 768,514 772,514 766,514 750,513 744,511 740,508 744,506 767,505 761,505 729,504 741,504 734,504 754,505 769,506 751,507 756,509 769,510" fill="none" stroke-width="0.5855891079266891" opacity="0.6"></polyline><polygon points="767.7144108920733,516.7144108920734 769,508.7144108920733 770.2855891079266,511.2855891079267" transform="rotate(94.39870615722563, 769, 510)" cx="769" cy="510" r="1.285589107926689" fill="#d14e5b" stroke="#ccc" stroke-width="0.2" opacity="0.6"></polygon></g><g class="key-Turkey_0"><circle cx="1039" cy="514" r="1.2494745322084782" fill="#d14e5b" stroke="#ccc" opacity="0.6"></circle><polyline stroke-linecap="round" stroke="#d14e5b" points="1039,514 1033,514 1041,514 1041,514 1035,514 1023,514 988,514 1011,514 994,514 1012,514 995,514 989,514 981,514 990,514 991,514 1006,514 999,514 984,514 995,514 1007,514 1017,514 1024,514 1031,514" fill="none" stroke-width="0.5839226965660536" opacity="0.6"></polyline><polygon points="1029.7160773034338,520.716077303434 1031,512.716077303434 1032.283922696566,515.283922696566" transform="rotate(90.0000007648485, 1031, 514)" cx="1031" cy="514" r="1.2839226965660537" fill="#d14e5b" stroke="#ccc" stroke-width="0.2" opacity="0.6"></polygon></g><g class="key-Thailand_0"><circle cx="412" cy="327" r="1.2542256659682312" fill="#d14e5b" stroke="#ccc" opacity="0.6"></circle><polyline stroke-linecap="round" stroke="#d14e5b" points="412,327 417,336 415,340 456,351 479,370 540,390 532,410 558,420 540,425 560,426 548,430 571,435 576,443 580,451 609,461 642,472 629,480 625,485 615,486 625,487 626,490 637,492 637,494" fill="none" stroke-width="0.5756434523843448" opacity="0.6"></polyline><polygon points="635.7243565476157,500.7243565476156 637,492.7243565476156 638.2756434523844,495.2756434523843" transform="rotate(180.000001529697, 637, 494)" cx="637" cy="494" r="1.2756434523843447" fill="#d14e5b" stroke="#ccc" stroke-width="0.2" opacity="0.6"></polygon></g><g class="key-South-Africa_0"><circle cx="650" cy="514" r="1.215639147446566" fill="#5675c1" stroke="#ccc" opacity="0.6"></circle><polyline stroke-linecap="round" stroke="#5675c1" points="650,514 642,514 660,514 655,514 648,513 642,512 650,511 664,511 658,513 680,514 690,514 689,514 699,514 703,514 709,514 698,514 695,514 697,514 702,514 726,514 730,514 735,514 738,514" fill="none" stroke-width="0.541941456700135" opacity="0.6"></polyline><polygon points="736.7580585432999,520.7580585432999 738,512.7580585432999 739.2419414567001,515.2419414567001" transform="rotate(90.0000007648485, 738, 514)" cx="738" cy="514" r="1.241941456700135" fill="#5675c1" stroke="#ccc" stroke-width="0.2" opacity="0.6"></polygon></g><g class="key-Tanzania_0"><circle cx="400" cy="393" r="1.1902978532866149" fill="#5675c1" stroke="#ccc" opacity="0.6"></circle><polyline stroke-linecap="round" stroke="#5675c1" points="400,393 363,389 344,375 337,359 314,343 318,328 303,321 334,316 327,316 303,313 314,311 348,307 294,307 343,307 358,314 361,322 393,330 358,332 358,328 343,326 387,326 383,335 390,339" fill="none" stroke-width="0.5384956671260396" opacity="0.6"></polyline><polygon points="388.761504332874,345.761504332874 390,337.761504332874 391.2384956671261,340.2384956671261" transform="rotate(119.74488231457215, 390, 339)" cx="390" cy="339" r="1.2384956671260396" fill="#5675c1" stroke="#ccc" stroke-width="0.2" opacity="0.6"></polygon></g><g class="key-Myanmar_0"><circle cx="169" cy="150" r="1.220138157952142" fill="#d14e5b" stroke="#ccc" opacity="0.6"></circle><polyline stroke-linecap="round" stroke="#d14e5b" points="169,150 170,149 189,150 179,156 203,162 210,174 233,186 231,197 231,204 263,214 283,232 302,253 326,275 341,294 360,313 390,333 422,356 460,379 474,401 515,418 528,432 543,442 545,448" fill="none" stroke-width="0.5384323308264918" opacity="0.6"></polyline><polygon points="543.7615676691735,454.76156766917353 545,446.76156766917353 546.2384323308264,449.2384323308265" transform="rotate(161.56505255010896, 545, 448)" cx="545" cy="448" r="1.2384323308264917" fill="#d14e5b" stroke="#ccc" stroke-width="0.2" opacity="0.6"></polygon></g><g class="key-South-Korea_0"><circle cx="708" cy="514" r="1.22725637734023" fill="#d14e5b" stroke="#ccc" opacity="0.6"></circle><polyline stroke-linecap="round" stroke="#d14e5b" points="708,514 729,514 710,514 721,514 738,514 755,514 761,514 721,514 770,514 769,514 764,514 764,514 754,514 771,514 773,514 777,514 789,514 809,514 816,514 849,514 881,514 868,514 872,514" fill="none" stroke-width="0.5377764863618761" opacity="0.6"></polyline><polygon points="870.7622235136381,520.7622235136381 872,512.7622235136381 873.2377764863619,515.2377764863619" transform="rotate(90.0000007648485, 872, 514)" cx="872" cy="514" r="1.237776486361876" fill="#d14e5b" stroke="#ccc" stroke-width="0.2" opacity="0.6"></polygon></g><g class="key-Colombia_0"><circle cx="544" cy="454" r="1.2074172459498511" fill="#69c487" stroke="#ccc" opacity="0.6"></circle><polyline stroke-linecap="round" stroke="#69c487" points="544,454 574,459 594,465 606,472 631,478 626,482 630,483 613,482 628,482 634,483 650,485 636,489 643,490 634,490 615,486 631,485 645,487 646,488 604,485 586,478 599,475 623,476 645,481" fill="none" stroke-width="0.5366128880787088" opacity="0.6"></polyline><polygon points="643.7633871119212,487.7633871119213 645,479.7633871119213 646.2366128880786,482.2366128880787" transform="rotate(102.80426693894997, 645, 481)" cx="645" cy="481" r="1.2366128880787088" fill="#69c487" stroke="#ccc" stroke-width="0.2" opacity="0.6"></polygon></g><g class="key-Kenya_0"><circle cx="312" cy="341" r="1.185254742631618" fill="#5675c1" stroke="#ccc" opacity="0.6"></circle><polyline stroke-linecap="round" stroke="#5675c1" points="312,341 270,323 252,309 326,307 325,323 323,333 308,337 322,335 334,337 322,342 329,342 311,337 303,328 311,331 370,345 370,368 348,380 347,383 372,383 370,389 374,395 383,402 389,406" fill="none" stroke-width="0.5283519163659681" opacity="0.6"></polyline><polygon points="387.77164808363403,412.77164808363403 389,404.77164808363403 390.22835191636597,407.22835191636597" transform="rotate(123.69006857713717, 389, 406)" cx="389" cy="406" r="1.2283519163659682" fill="#5675c1" stroke="#ccc" stroke-width="0.2" opacity="0.6"></polygon></g><g class="key-Argentina_0"><circle cx="733" cy="514" r="1.2057594056436733" fill="#69c487" stroke="#ccc" opacity="0.6"></circle><polyline stroke-linecap="round" stroke="#69c487" points="733,514 762,514 779,514 795,514 799,514 796,514 786,514 799,514 842,514 840,514 820,514 719,514 733,514 741,514 775,514 778,514 791,514 797,514 786,514 795,514 798,514 813,514 827,514" fill="none" stroke-width="0.5234415824819479" opacity="0.6"></polyline><polygon points="825.776558417518,520.776558417518 827,512.776558417518 828.2234415824819,515.2234415824819" transform="rotate(90.0000007648485, 827, 514)" cx="827" cy="514" r="1.223441582481948" fill="#69c487" stroke="#ccc" stroke-width="0.2" opacity="0.6"></polygon></g><g class="key-Algeria_0"><circle cx="615" cy="497" r="1.1893414265698443" fill="#5675c1" stroke="#ccc" opacity="0.6"></circle><polyline stroke-linecap="round" stroke="#5675c1" points="615,497 671,499 671,501 628,501 637,497 637,493 615,490 640,488 662,489 649,491 680,493 697,495 716,498 723,501 711,502 749,503 747,506 750,508 776,511 790,514 822,514 845,514 856,514" fill="none" stroke-width="0.5141494569174435" opacity="0.6"></polyline><polygon points="854.7858505430826,520.7858505430826 856,512.7858505430826 857.2141494569174,515.2141494569174" transform="rotate(90.0000007648485, 856, 514)" cx="856" cy="514" r="1.2141494569174436" fill="#5675c1" stroke="#ccc" stroke-width="0.2" opacity="0.6"></polygon></g><g class="key-Uganda_0"><circle cx="418" cy="399" r="1.17015678452305" fill="#5675c1" stroke="#ccc" opacity="0.6"></circle><polyline stroke-linecap="round" stroke="#5675c1" points="418,399 395,392 405,388 399,385 402,379 357,369 367,360 415,356 408,362 415,366 421,368 442,374 465,386 451,401 441,407 419,405 392,396 377,389 384,386 387,387 377,389 370,389 357,388" fill="none" stroke-width="0.5136739318250384" opacity="0.6"></polyline><polygon points="355.78632606817496,394.78632606817496 357,386.78632606817496 358.21367393182504,389.21367393182504" transform="rotate(-85.60129537247138, 357, 388)" cx="357" cy="388" r="1.2136739318250385" fill="#5675c1" stroke="#ccc" stroke-width="0.2" opacity="0.6"></polygon></g><g class="key-Iraq_0"><circle cx="453" cy="496" r="1.168973620385693" fill="#d14e5b" stroke="#ccc" opacity="0.6"></circle><polyline stroke-linecap="round" stroke="#d14e5b" points="453,496 408,461 413,449 399,422 388,413 376,403 343,392 352,384 365,383 377,390 410,397 418,399 409,395 458,390 451,387 461,382 463,378 454,378 490,382 517,387 513,391 527,394 534,397" fill="none" stroke-width="0.5094294678711297" opacity="0.6"></polyline><polygon points="532.7905705321289,403.79057053212887 534,395.79057053212887 535.2094294678711,398.20942946787113" transform="rotate(113.19859147564566, 534, 397)" cx="534" cy="397" r="1.2094294678711297" fill="#d14e5b" stroke="#ccc" stroke-width="0.2" opacity="0.6"></polygon></g><g class="key-Afghanistan_0"><circle cx="320" cy="359" r="1.1584589569077357" fill="#d14e5b" stroke="#ccc" opacity="0.6"></circle><polyline stroke-linecap="round" stroke="#d14e5b" points="320,359 255,321 263,298 224,272 234,259 234,257 247,261 260,268 238,269 211,260 189,250 227,250 255,270 287,297 279,323 287,342 321,357 319,371 336,382 346,390 347,392 344,392 340,387" fill="none" stroke-width="0.5088312634574454" opacity="0.6"></polyline><polygon points="338.79116873654255,393.79116873654255 340,385.79116873654255 341.20883126345745,388.20883126345745" transform="rotate(-38.659808582633374, 340, 387)" cx="340" cy="387" r="1.2088312634574454" fill="#d14e5b" stroke="#ccc" stroke-width="0.2" opacity="0.6"></polygon></g><g class="key-Morocco_0"><circle cx="760" cy="509" r="1.1876777987546085" fill="#5675c1" stroke="#ccc" opacity="0.6"></circle><polyline stroke-linecap="round" stroke="#5675c1" points="760,509 687,504 677,499 729,495 709,497 767,501 771,505 794,507 762,507 756,505 779,504 795,505 816,508 842,509 817,511 845,511 836,512 845,512 854,512 855,513 878,513 886,514 902,514" fill="none" stroke-width="0.5053893141650706" opacity="0.6"></polyline><polygon points="900.794610685835,520.794610685835 902,512.794610685835 903.2053893141651,515.2053893141651" transform="rotate(90.0000007648485, 902, 514)" cx="902" cy="514" r="1.2053893141650707" fill="#5675c1" stroke="#ccc" stroke-width="0.2" opacity="0.6"></polygon></g><g class="key-Nepal_0"><circle cx="395" cy="402" r="1.1734237061263486" fill="#d14e5b" stroke="#ccc" opacity="0.6"></circle><polyline stroke-linecap="round" stroke="#d14e5b" points="395,402 399,398 380,393 409,389 404,388 394,389 418,392 406,396 433,400 411,406 419,407 421,413 446,419 461,430 475,439 463,446 485,452 511,462 529,473 541,482 564,488 581,492 589,496" fill="none" stroke-width="0.5023016530956119" opacity="0.6"></polyline><polygon points="587.7976983469044,502.7976983469044 589,494.7976983469044 590.2023016530957,497.2023016530956" transform="rotate(116.56505216768471, 589, 496)" cx="589" cy="496" r="1.2023016530956119" fill="#d14e5b" stroke="#ccc" stroke-width="0.2" opacity="0.6"></polygon></g><g class="key-Venezuela_0"><circle cx="482" cy="457" r="1.175005431860043" fill="#69c487" stroke="#ccc" opacity="0.6"></circle><polyline stroke-linecap="round" stroke="#69c487" points="482,457 525,463 473,463 460,458 487,452 464,445 422,437 453,429 447,432 495,441 519,449 394,451 479,449 512,459 511,472 521,489 561,503 647,514 668,514 646,514 645,514 597,514 571,514" fill="none" stroke-width="0.4996093602988104" opacity="0.6"></polyline><polygon points="569.8003906397012,520.8003906397012 571,512.8003906397012 572.1996093602988,515.1996093602988" transform="rotate(-90.0000007648485, 571, 514)" cx="571" cy="514" r="1.1996093602988105" fill="#69c487" stroke="#ccc" stroke-width="0.2" opacity="0.6"></polygon></g><g class="key-Peru_0"><circle cx="378" cy="346" r="1.1800034484567223" fill="#69c487" stroke="#ccc" opacity="0.6"></circle><polyline stroke-linecap="round" stroke="#69c487" points="378,346 360,368 370,365 389,372 388,378 418,387 439,396 412,401 418,405 458,409 439,415 445,416 420,414 428,412 476,418 486,426 498,439 526,449 542,459 565,469 572,478 593,485 601,490" fill="none" stroke-width="0.49900629659883133" opacity="0.6"></polyline><polygon points="599.8009937034012,496.80099370340116 601,488.80099370340116 602.1990062965989,491.19900629659884" transform="rotate(122.0053842449239, 601, 490)" cx="601" cy="490" r="1.1990062965988313" fill="#69c487" stroke="#ccc" stroke-width="0.2" opacity="0.6"></polygon></g><g class="key-Malaysia_0"><circle cx="579" cy="514" r="1.1711995742766106" fill="#d14e5b" stroke="#ccc" opacity="0.6"></circle><polyline stroke-linecap="round" stroke="#d14e5b" points="579,514 629,514 642,514 659,514 693,514 697,514 690,514 681,514 691,514 661,514 652,514 632,514 641,514 655,514 640,514 647,514 660,514 638,514 660,514 676,514 682,514 687,514 693,514" fill="none" stroke-width="0.49834997482752036" opacity="0.6"></polyline><polygon points="691.8016500251725,520.8016500251725 693,512.8016500251725 694.1983499748276,515.1983499748276" transform="rotate(90.0000007648485, 693, 514)" cx="693" cy="514" r="1.1983499748275204" fill="#d14e5b" stroke="#ccc" stroke-width="0.2" opacity="0.6"></polygon></g><g class="key-Saudi-Arabia_0"><circle cx="671" cy="514" r="1.1657217339173518" fill="#d14e5b" stroke="#ccc" opacity="0.6"></circle><polyline stroke-linecap="round" stroke="#d14e5b" points="671,514 635,514 619,514 602,514 664,514 692,514 719,514 734,514 760,514 777,514 763,514 738,514 730,514 712,514 725,514 748,514 749,514 735,514 732,514 782,514 773,514 844,514 838,514" fill="none" stroke-width="0.4972791846181659" opacity="0.6"></polyline><polygon points="836.8027208153818,520.8027208153818 838,512.8027208153818 839.1972791846181,515.1972791846181" transform="rotate(-90.0000007648485, 838, 514)" cx="838" cy="514" r="1.1972791846181658" fill="#d14e5b" stroke="#ccc" stroke-width="0.2" opacity="0.6"></polygon></g><g class="key-Uzbekistan_0"><circle cx="743" cy="514" r="1.177172143357296" fill="#d14e5b" stroke="#ccc" opacity="0.6"></circle><polyline stroke-linecap="round" stroke="#d14e5b" points="743,514 608,514 604,514 599,514 581,514 555,514 533,509 515,500 486,489 459,473 424,455 425,440 451,434 466,440 503,453 539,468 550,480 557,487 560,490 578,492 598,497 614,504 626,511" fill="none" stroke-width="0.49515328530350866" opacity="0.6"></polyline><polygon points="624.8048467146965,517.8048467146965 626,509.8048467146965 627.1951532853035,512.1951532853035" transform="rotate(120.25643818550655, 626, 511)" cx="626" cy="511" r="1.1951532853035087" fill="#d14e5b" stroke="#ccc" stroke-width="0.2" opacity="0.6"></polygon></g><g class="key-Ghana_0"><circle cx="340" cy="247" r="1.1617012666460136" fill="#5675c1" stroke="#ccc" opacity="0.6"></circle><polyline stroke-linecap="round" stroke="#5675c1" points="340,247 352,313 421,332 435,373 451,393 462,405 470,411 484,416 500,425 519,435 542,445 581,454 587,460 593,466 623,473 654,480 645,487 708,494 743,500 762,505 730,511 747,514 736,514" fill="none" stroke-width="0.489820959117386" opacity="0.6"></polyline><polygon points="734.8101790408826,520.8101790408826 736,512.8101790408826 737.1898209591175,515.1898209591175" transform="rotate(-90.0000007648485, 736, 514)" cx="736" cy="514" r="1.189820959117386" fill="#5675c1" stroke="#ccc" stroke-width="0.2" opacity="0.6"></polygon></g><g class="key-Mozambique_0"><circle cx="178" cy="191" r="1.1578794497798244" fill="#5675c1" stroke="#ccc" opacity="0.6"></circle><polyline stroke-linecap="round" stroke="#5675c1" points="178,191 170,174 171,170 166,171 236,191 275,225 289,256 296,276 301,281 297,280 294,280 319,285 341,295 326,304 317,310 349,313 337,318 371,325 372,335 405,345 412,357 429,366 422,374" fill="none" stroke-width="0.4871713388943823" opacity="0.6"></polyline><polygon points="420.81282866110564,380.81282866110564 422,372.81282866110564 423.1871713388944,375.1871713388944" transform="rotate(-138.81407601397632, 422, 374)" cx="422" cy="374" r="1.1871713388943823" fill="#5675c1" stroke="#ccc" stroke-width="0.2" opacity="0.6"></polygon></g><g class="key-North-Korea_0"><circle cx="459" cy="399" r="1.1757887619620397" fill="#d14e5b" stroke="#ccc" opacity="0.6"></circle><polyline stroke-linecap="round" stroke="#d14e5b" points="459,399 396,390 419,377 406,366 345,347 335,327 358,313 353,307 349,308 364,306 342,307 379,311 382,321 389,328 378,330 361,321 348,309 342,296 339,287 339,281 344,280 346,281 341,281" fill="none" stroke-width="0.48626449005839767" opacity="0.6"></polyline><polygon points="339.8137355099416,287.8137355099416 341,279.8137355099416 342.18626449005836,282.18626449005836" transform="rotate(-90.0000007648485, 341, 281)" cx="341" cy="281" r="1.1862644900583976" fill="#d14e5b" stroke="#ccc" stroke-width="0.2" opacity="0.6"></polygon></g><g class="key-Madagascar_0"><circle cx="343" cy="373" r="1.1512988048789732" fill="#5675c1" stroke="#ccc" opacity="0.6"></circle><polyline stroke-linecap="round" stroke="#5675c1" points="343,373 344,362 342,358 315,349 313,339 309,332 310,328 307,326 304,326 304,326 298,321 278,313 291,303 293,302 327,309 337,325 342,337 327,344 329,345 330,346 338,345 326,344 323,340" fill="none" stroke-width="0.4810893278156442" opacity="0.6"></polyline><polygon points="321.81891067218436,346.81891067218436 323,338.81891067218436 324.18108932781564,341.18108932781564" transform="rotate(-36.86989795917608, 323, 340)" cx="323" cy="340" r="1.1810893278156442" fill="#5675c1" stroke="#ccc" stroke-width="0.2" opacity="0.6"></polygon></g><g class="key-Sri-Lanka_0"><circle cx="381" cy="352" r="1.1680903488865921" fill="#d14e5b" stroke="#ccc" opacity="0.6"></circle><polyline stroke-linecap="round" stroke="#d14e5b" points="381,352 367,348 342,344 425,343 396,348 404,348 417,348 428,348 465,352 436,357 453,358 443,358 442,357 450,357 451,359 462,362 465,366 491,371 493,377 500,382 511,386 520,390 532,395" fill="none" stroke-width="0.47816228809669337" opacity="0.6"></polyline><polygon points="530.8218377119033,401.8218377119033 532,393.8218377119033 533.1781622880967,396.1781622880967" transform="rotate(112.61986590511971, 532, 395)" cx="532" cy="395" r="1.1781622880966933" fill="#d14e5b" stroke="#ccc" stroke-width="0.2" opacity="0.6"></polygon></g><g class="key-Cote-d__0027Ivoire_0"><circle cx="551" cy="478" r="1.1552139864668225" fill="#5675c1" stroke="#ccc" opacity="0.6"></circle><polyline stroke-linecap="round" stroke="#5675c1" points="551,478 553,478 522,475 532,472 546,473 562,473 589,473 575,468 577,460 563,452 569,443 586,440 596,442 617,447 638,452 636,457 640,458 617,457 612,454 617,453 637,454 635,457 643,459" fill="none" stroke-width="0.4773048662189889" opacity="0.6"></polyline><polygon points="641.822695133781,465.822695133781 643,457.822695133781 644.1773048662191,460.17730486621895" transform="rotate(104.03624435205943, 643, 459)" cx="643" cy="459" r="1.1773048662189889" fill="#5675c1" stroke="#ccc" stroke-width="0.2" opacity="0.6"></polygon></g><g class="key-Cameroon_0"><circle cx="308" cy="307" r="1.1539957075949185" fill="#5675c1" stroke="#ccc" opacity="0.6"></circle><polyline stroke-linecap="round" stroke="#5675c1" points="308,307 350,309 310,314 315,309 322,306 315,306 343,311 344,321 353,331 351,342 370,351 388,363 401,375 406,388 434,400 453,413 463,427 492,439 512,451 519,461 546,471 567,478 588,480" fill="none" stroke-width="0.47693745592224673" opacity="0.6"></polyline><polygon points="586.8230625440777,486.82306254407774 588,478.82306254407774 589.1769374559223,481.17693745592226" transform="rotate(95.44033284208767, 588, 480)" cx="588" cy="480" r="1.1769374559222467" fill="#5675c1" stroke="#ccc" stroke-width="0.2" opacity="0.6"></polygon></g><g class="key-Angola_0"><circle cx="135" cy="144" r="1.1483760059864332" fill="#5675c1" stroke="#ccc" opacity="0.6"></circle><polyline stroke-linecap="round" stroke="#5675c1" points="135,144 141,138 115,137 149,138 167,152 186,169 186,187 195,199 218,210 212,223 230,237 265,256 294,281 314,307 334,330 352,348 375,365 406,383 431,400 449,415 475,426 465,435 504,442" fill="none" stroke-width="0.4764272072739073" opacity="0.6"></polyline><polygon points="502.8235727927261,448.8235727927261 504,440.8235727927261 505.17642720727395,443.17642720727395" transform="rotate(100.17551169436642, 504, 442)" cx="504" cy="442" r="1.1764272072739073" fill="#5675c1" stroke="#ccc" stroke-width="0.2" opacity="0.6"></polygon></g><g class="key-Burkina-Faso_0"><circle cx="401" cy="382" r="1.1450631123899426" fill="#5675c1" stroke="#ccc" opacity="0.6"></circle><polyline stroke-linecap="round" stroke="#5675c1" points="401,382 426,391 435,399 448,407 445,413 446,414 434,407 423,397 448,386 437,378 443,371 477,369 512,371 517,376 499,382 540,385 535,389 553,393 575,399 593,404 585,409 604,412 609,414" fill="none" stroke-width="0.46934804963372734" opacity="0.6"></polyline><polygon points="607.8306519503662,420.83065195036625 609,412.83065195036625 610.1693480496338,415.1693480496337" transform="rotate(111.80141043647559, 609, 414)" cx="609" cy="414" r="1.1693480496337274" fill="#5675c1" stroke="#ccc" stroke-width="0.2" opacity="0.6"></polygon></g><g class="key-Chile_0"><circle cx="558" cy="489" r="1.1566179281464137" fill="#69c487" stroke="#ccc" opacity="0.6"></circle><polyline stroke-linecap="round" stroke="#69c487" points="558,489 604,495 606,501 620,506 625,509 634,511 639,513 641,513 643,514 658,514 673,514 686,514 682,514 694,514 690,514 711,514 700,514 705,514 683,514 693,514 710,514 711,514 720,514" fill="none" stroke-width="0.4681754447487121" opacity="0.6"></polyline><polygon points="718.8318245552513,520.8318245552513 720,512.8318245552513 721.1681754447487,515.1681754447487" transform="rotate(90.0000007648485, 720, 514)" cx="720" cy="514" r="1.168175444748712" fill="#69c487" stroke="#ccc" stroke-width="0.2" opacity="0.6"></polygon></g><g class="key-Niger_0"><circle cx="340" cy="371" r="1.1401618813418481" fill="#5675c1" stroke="#ccc" opacity="0.6"></circle><polyline stroke-linecap="round" stroke="#5675c1" points="340,371 329,350 317,341 297,326 326,325 344,336 375,352 381,369 394,385 442,402 447,416 433,425 473,433 495,441 491,449 490,454 498,459 524,465 525,471 529,476 530,480 544,482 535,483" fill="none" stroke-width="0.4672720402373769" opacity="0.6"></polyline><polygon points="533.8327279597627,489.8327279597626 535,481.8327279597626 536.1672720402374,484.1672720402374" transform="rotate(-96.34019256463937, 535, 483)" cx="535" cy="483" r="1.1672720402373769" fill="#5675c1" stroke="#ccc" stroke-width="0.2" opacity="0.6"></polygon></g><g class="key-Mali_0"><circle cx="460" cy="440" r="1.1428022535279663" fill="#5675c1" stroke="#ccc" opacity="0.6"></circle><polyline stroke-linecap="round" stroke="#5675c1" points="460,440 453,437 449,434 443,431 447,430 461,432 455,435 484,440 494,449 494,458 516,466 514,471 524,474 532,477 551,482 581,489 610,497 634,506 657,513 649,514 657,514 669,514 682,514" fill="none" stroke-width="0.4660996609321175" opacity="0.6"></polyline><polygon points="680.8339003390679,520.8339003390679 682,512.8339003390679 683.1660996609321,515.1660996609321" transform="rotate(90.0000007648485, 682, 514)" cx="682" cy="514" r="1.1660996609321175" fill="#5675c1" stroke="#ccc" stroke-width="0.2" opacity="0.6"></polygon></g><g class="key-Kazakhstan_0"><circle cx="743" cy="514" r="1.1652941737956244" fill="#d14e5b" stroke="#ccc" opacity="0.6"></circle><polyline stroke-linecap="round" stroke="#d14e5b" points="743,514 706,514 706,514 706,514 674,514 670,514 667,514 612,514 619,514 646,514 682,514 701,514 718,514 720,512 743,511 760,514 798,514 809,514 795,514 790,514 818,514 809,514 842,514" fill="none" stroke-width="0.46539685299801425" opacity="0.6"></polyline><polygon points="840.834603147002,520.834603147002 842,512.834603147002 843.165396852998,515.165396852998" transform="rotate(90.0000007648485, 842, 514)" cx="842" cy="514" r="1.1653968529980143" fill="#d14e5b" stroke="#ccc" stroke-width="0.2" opacity="0.6"></polygon></g><g class="key-Malawi_0"><circle cx="264" cy="263" r="1.1450745392570438" fill="#5675c1" stroke="#ccc" opacity="0.6"></circle><polyline stroke-linecap="round" stroke="#5675c1" points="264,263 216,257 249,249 259,257 303,273 308,296 326,314 351,331 378,349 388,365 402,375 375,378 373,373 372,369 383,371 416,379 427,390 437,400 434,406 442,408 450,411 444,413 458,414" fill="none" stroke-width="0.46500208143442057" opacity="0.6"></polyline><polygon points="456.8349979185656,420.8349979185656 458,412.8349979185656 459.1650020814344,415.1650020814344" transform="rotate(94.08561757954425, 458, 414)" cx="458" cy="414" r="1.1650020814344206" fill="#5675c1" stroke="#ccc" stroke-width="0.2" opacity="0.6"></polygon></g><g class="key-Guatemala_0"><circle cx="438" cy="452" r="1.1436549502681312" fill="#4d824b" stroke="#ccc" opacity="0.6"></circle><polyline stroke-linecap="round" stroke="#4d824b" points="438,452 421,449 445,449 456,450 419,448 406,438 357,424 367,409 361,405 370,406 394,417 455,428 449,439 440,443 465,444 479,445 492,448 463,451 498,450 486,452 509,452 479,452 480,449" fill="none" stroke-width="0.46257082221697643" opacity="0.6"></polyline><polygon points="478.837429177783,455.837429177783 480,447.837429177783 481.16257082221694,450.16257082221694" transform="rotate(18.43494897958805, 480, 449)" cx="480" cy="449" r="1.1625708222169764" fill="#4d824b" stroke="#ccc" stroke-width="0.2" opacity="0.6"></polygon></g><g class="key-Ecuador_0"><circle cx="384" cy="423" r="1.147886880364135" fill="#69c487" stroke="#ccc" opacity="0.6"></circle><polyline stroke-linecap="round" stroke="#69c487" points="384,423 439,423 439,439 476,447 434,453 429,451 443,446 408,442 442,437 423,433 394,428 403,424 388,422 398,421 407,424 399,427 392,433 428,438 425,446 450,455 462,465 450,471 448,474" fill="none" stroke-width="0.46126739655548604" opacity="0.6"></polyline><polygon points="446.8387326034445,480.8387326034445 448,472.8387326034445 449.16126739655544,475.16126739655544" transform="rotate(-146.30993371740837, 448, 474)" cx="448" cy="474" r="1.161267396555486" fill="#69c487" stroke="#ccc" stroke-width="0.2" opacity="0.6"></polygon></g><g class="key-Cambodia_0"><circle cx="305" cy="343" r="1.1459598897520709" fill="#d14e5b" stroke="#ccc" opacity="0.6"></circle><polyline stroke-linecap="round" stroke="#d14e5b" points="305,343 317,358 312,363 317,367 317,361 259,344 256,323 291,314 323,323 350,344 375,366 414,382 413,397 419,406 441,414 462,422 467,430 474,435 480,438 480,439 483,440 486,442 505,447" fill="none" stroke-width="0.4601251490966818" opacity="0.6"></polyline><polygon points="503.8398748509033,453.8398748509033 505,445.8398748509033 506.16012514909664,448.16012514909664" transform="rotate(104.74356372661471, 505, 447)" cx="505" cy="447" r="1.1601251490966817" fill="#d14e5b" stroke="#ccc" stroke-width="0.2" opacity="0.6"></polygon></g><g class="key-Zambia_0"><circle cx="304" cy="332" r="1.1402640285082448" fill="#5675c1" stroke="#ccc" opacity="0.6"></circle><polyline stroke-linecap="round" stroke="#5675c1" points="304,332 294,325 293,323 311,323 323,329 316,330 288,321 271,305 283,288 247,275 237,259 237,248 258,241 244,239 247,233 232,225 207,214 216,207 249,210 260,219 261,228 268,233 271,237" fill="none" stroke-width="0.4591565378454291" opacity="0.6"></polyline><polygon points="269.84084346215457,243.84084346215457 271,235.84084346215457 272.15915653784543,238.15915653784543" transform="rotate(143.13010357052093, 271, 237)" cx="271" cy="237" r="1.1591565378454292" fill="#5675c1" stroke="#ccc" stroke-width="0.2" opacity="0.6"></polygon></g><g class="key-Senegal_0"><circle cx="404" cy="391" r="1.138292600992902" fill="#5675c1" stroke="#ccc" opacity="0.6"></circle><polyline stroke-linecap="round" stroke="#5675c1" points="404,391 347,385 398,375 365,372 373,365 347,360 350,350 347,347 367,351 371,360 376,368 363,373 397,379 407,390 403,401 434,413 447,426 489,441 492,454 487,460 484,464 491,468 496,475" fill="none" stroke-width="0.45668983014099607" opacity="0.6"></polyline><polygon points="494.843310169859,481.843310169859 496,473.843310169859 497.15668983014103,476.15668983014103" transform="rotate(144.4623234357122, 496, 475)" cx="496" cy="475" r="1.156689830140996" fill="#5675c1" stroke="#ccc" stroke-width="0.2" opacity="0.6"></polygon></g><g class="key-Zimbabwe_0"><circle cx="285" cy="276" r="1.1486647184434629" fill="#5675c1" stroke="#ccc" opacity="0.6"></circle><polyline stroke-linecap="round" stroke="#5675c1" points="285,276 282,265 277,261 272,254 277,253 293,256 305,263 307,269 299,270 292,269 313,269 310,273 305,275 320,277 312,283 350,290 348,302 341,310 364,318 373,326 387,334 385,336 348,334" fill="none" stroke-width="0.4563245267496117" opacity="0.6"></polyline><polygon points="346.8436754732504,340.8436754732504 348,332.8436754732504 349.15632452674964,335.15632452674964" transform="rotate(-86.9059426796371, 348, 334)" cx="348" cy="334" r="1.1563245267496116" fill="#5675c1" stroke="#ccc" stroke-width="0.2" opacity="0.6"></polygon></g><g class="key-Chad_0"><circle cx="216" cy="172" r="1.134090857817149" fill="#5675c1" stroke="#ccc" opacity="0.6"></circle><polyline stroke-linecap="round" stroke="#5675c1" points="216,172 224,189 152,193 292,203 215,220 222,224 257,241 317,258 296,282 278,292 309,292 287,292 311,292 312,295 316,295 311,295 313,291 313,288 310,286 326,287 328,292 354,299 348,309" fill="none" stroke-width="0.45285052746100973" opacity="0.6"></polyline><polygon points="346.847149472539,315.847149472539 348,307.847149472539 349.152850527461,310.152850527461" transform="rotate(-149.0362447344837, 348, 309)" cx="348" cy="309" r="1.1528505274610097" fill="#5675c1" stroke="#ccc" stroke-width="0.2" opacity="0.6"></polygon></g><g class="key-Rwanda_0"><circle cx="280" cy="194" r="1.1363459052940705" fill="#5675c1" stroke="#ccc" opacity="0.6"></circle><polyline stroke-linecap="round" stroke="#5675c1" points="280,194 255,205 275,191 242,181 222,161 203,142 183,130 189,126 189,138 240,162 263,202 341,236 303,255 288,255 317,250 320,252 324,260 344,275 385,292 386,310 392,322 417,329 399,333" fill="none" stroke-width="0.45126205280975096" opacity="0.6"></polyline><polygon points="397.8487379471903,339.8487379471903 399,331.8487379471903 400.1512620528098,334.1512620528098" transform="rotate(-102.52880858047378, 399, 333)" cx="399" cy="333" r="1.151262052809751" fill="#5675c1" stroke="#ccc" stroke-width="0.2" opacity="0.6"></polygon></g><g class="key-Cuba_0"><circle cx="616" cy="510" r="1.1483778552882005" fill="#4d824b" stroke="#ccc" opacity="0.6"></circle><polyline stroke-linecap="round" stroke="#4d824b" points="616,510 516,489 439,463 456,430 440,415 492,419 542,440 580,466 685,491 742,511 762,514 795,514 834,514 877,514 838,514 840,514 836,514 780,514 829,514 798,514 851,514 877,514 904,514" fill="none" stroke-width="0.45016843988128935" opacity="0.6"></polyline><polygon points="902.8498315601187,520.8498315601187 904,512.8498315601187 905.1501684398812,515.1501684398812" transform="rotate(90.0000007648485, 904, 514)" cx="904" cy="514" r="1.1501684398812895" fill="#4d824b" stroke="#ccc" stroke-width="0.2" opacity="0.6"></polygon></g><g class="key-Tunisia_0"><circle cx="777" cy="514" r="1.1412535688416372" fill="#5675c1" stroke="#ccc" opacity="0.6"></circle><polyline stroke-linecap="round" stroke="#5675c1" points="777,514 791,514 800,514 777,514 783,514 814,514 834,514 859,514 889,514 836,514 839,514 811,514 832,514 835,514 823,514 846,514 837,514 858,514 872,514 869,514 883,514 896,514 878,514" fill="none" stroke-width="0.4488639746494487" opacity="0.6"></polyline><polygon points="876.8511360253506,520.8511360253506 878,512.8511360253506 879.1488639746494,515.1488639746494" transform="rotate(-90.0000007648485, 878, 514)" cx="878" cy="514" r="1.1488639746494487" fill="#5675c1" stroke="#ccc" stroke-width="0.2" opacity="0.6"></polygon></g><g class="key-Guinea_0"><circle cx="481" cy="399" r="1.1337054492944763" fill="#5675c1" stroke="#ccc" opacity="0.6"></circle><polyline stroke-linecap="round" stroke="#5675c1" points="481,399 493,402 486,402 477,400 462,395 452,387 427,378 414,369 439,369 455,374 442,381 454,385 472,388 483,393 491,400 516,407 517,415 530,421 535,426 537,430 535,433 541,435 543,438" fill="none" stroke-width="0.44868136251165824" opacity="0.6"></polyline><polygon points="541.8513186374884,444.85131863748836 543,436.85131863748836 544.1486813625116,439.1486813625117" transform="rotate(146.30993371740837, 543, 438)" cx="543" cy="438" r="1.1486813625116583" fill="#5675c1" stroke="#ccc" stroke-width="0.2" opacity="0.6"></polygon></g><g class="key-Bolivia_0"><circle cx="310" cy="306" r="1.1361552902706888" fill="#69c487" stroke="#ccc" opacity="0.6"></circle><polyline stroke-linecap="round" stroke="#69c487" points="310,306 311,319 304,315 284,320 347,323 321,333 325,330 280,325 317,318 334,327 337,338 345,350 351,351 323,350 347,349 369,357 372,364 364,369 358,369 377,375 396,391 401,413 411,430" fill="none" stroke-width="0.44763027469936745" opacity="0.6"></polyline><polygon points="409.8523697253006,436.8523697253006 411,428.8523697253006 412.14763027469934,431.14763027469934" transform="rotate(149.53445635133127, 411, 430)" cx="411" cy="430" r="1.1476302746993674" fill="#69c487" stroke="#ccc" stroke-width="0.2" opacity="0.6"></polygon></g><g class="key-Haiti_0"><circle cx="196" cy="159" r="1.1376755573569661" fill="#4d824b" stroke="#ccc" opacity="0.6"></circle><polyline stroke-linecap="round" stroke="#4d824b" points="196,159 183,157 179,150 174,147 199,149 219,157 232,169 267,180 282,191 283,197 257,197 259,191 246,185 254,181 252,181 276,185 288,193 307,202 327,215 373,226 343,234 337,234 340,225" fill="none" stroke-width="0.4475648177496867" opacity="0.6"></polyline><polygon points="338.8524351822503,231.8524351822503 340,223.8524351822503 341.1475648177497,226.14756481774967" transform="rotate(18.43494897958805, 340, 225)" cx="340" cy="225" r="1.1475648177496867" fill="#4d824b" stroke="#ccc" stroke-width="0.2" opacity="0.6"></polygon></g><g class="key-Dominican-Republic_0"><circle cx="362" cy="329" r="1.1378934228934139" fill="#4d824b" stroke="#ccc" opacity="0.6"></circle><polyline stroke-linecap="round" stroke="#4d824b" points="362,329 361,343 395,352 409,368 411,376 376,373 367,360 361,347 365,344 397,352 412,366 423,373 362,371 394,367 442,376 458,393 474,409 452,416 469,421 529,432 542,445 546,458 564,464" fill="none" stroke-width="0.4473197060301382" opacity="0.6"></polyline><polygon points="562.8526802939699,470.85268029396985 564,462.85268029396985 565.1473197060302,465.14731970603015" transform="rotate(108.43494974443654, 564, 464)" cx="564" cy="464" r="1.1473197060301383" fill="#4d824b" stroke="#ccc" stroke-width="0.2" opacity="0.6"></polygon></g><g class="key-Benin_0"><circle cx="386" cy="368" r="1.1297535133896466" fill="#5675c1" stroke="#ccc" opacity="0.6"></circle><polyline stroke-linecap="round" stroke="#5675c1" points="386,368 362,371 367,366 378,368 388,372 409,380 405,385 402,388 401,390 406,395 436,404 473,416 455,428 498,437 487,445 494,451 542,458 524,464 543,467 539,470 557,471 562,478 566,487" fill="none" stroke-width="0.44514580187280145" opacity="0.6"></polyline><polygon points="564.8548541981272,493.8548541981272 566,485.8548541981272 567.1451458018728,488.14514580187284" transform="rotate(156.03751235147803, 566, 487)" cx="566" cy="487" r="1.1451458018728013" fill="#5675c1" stroke="#ccc" stroke-width="0.2" opacity="0.6"></polygon></g><g class="key-Azerbaijan_0"><circle cx="743" cy="397" r="1.1378531724997374" fill="#d14e5b" stroke="#ccc" opacity="0.6"></circle><polyline stroke-linecap="round" stroke="#d14e5b" points="743,397 437,397 402,397 369,397 355,385 397,373 310,369 352,366 380,378 422,404 460,438 498,465 538,487 575,504 659,514 732,514 737,514 740,514 727,514 718,514 746,514 753,514 780,514" fill="none" stroke-width="0.444917615029498" opacity="0.6"></polyline><polygon points="778.8550823849705,520.8550823849705 780,512.8550823849705 781.1449176150295,515.1449176150295" transform="rotate(90.0000007648485, 780, 514)" cx="780" cy="514" r="1.144917615029498" fill="#d14e5b" stroke="#ccc" stroke-width="0.2" opacity="0.6"></polygon></g><g class="key-United-Arab-Emirates_0"><circle cx="760" cy="514" r="1.1187317589955583" fill="#d14e5b" stroke="#ccc" opacity="0.6"></circle><polyline stroke-linecap="round" stroke="#d14e5b" points="760,514 813,514 828,514 864,514 841,514 838,514 840,514 862,514 890,514 855,514 866,514 881,514 874,514 851,514 817,514 815,514 809,514 793,514 802,514 798,514 819,514 827,514 849,514" fill="none" stroke-width="0.4407151423671488" opacity="0.6"></polyline><polygon points="847.8592848576328,520.8592848576328 849,512.8592848576328 850.1407151423671,515.1407151423671" transform="rotate(90.0000007648485, 849, 514)" cx="849" cy="514" r="1.1407151423671489" fill="#d14e5b" stroke="#ccc" stroke-width="0.2" opacity="0.6"></polygon></g><g class="key-Honduras_0"><circle cx="420" cy="401" r="1.130076831847966" fill="#4d824b" stroke="#ccc" opacity="0.6"></circle><polyline stroke-linecap="round" stroke="#4d824b" points="420,401 439,402 442,407 453,411 468,416 476,421 474,424 477,424 471,425 459,426 495,429 504,433 507,438 507,440 511,440 528,442 545,445 559,449 556,451 556,452 568,454 570,459 575,465" fill="none" stroke-width="0.44027548801296845" opacity="0.6"></polyline><polygon points="573.859724511987,471.85972451198705 575,463.85972451198705 576.1402754880129,466.140275488013" transform="rotate(140.19443009915148, 575, 465)" cx="575" cy="465" r="1.1402754880129684" fill="#4d824b" stroke="#ccc" stroke-width="0.2" opacity="0.6"></polygon></g><g class="key-Tajikistan_0"><circle cx="743" cy="368" r="1.1314340932740419" fill="#d14e5b" stroke="#ccc" opacity="0.6"></circle><polyline stroke-linecap="round" stroke="#d14e5b" points="743,368 320,368 330,368 314,368 290,352 273,333 264,315 273,305 274,302 284,300 285,296 276,287 282,276 292,273 326,278 328,290 329,299 336,304 343,306 346,309 322,313 369,319 387,325" fill="none" stroke-width="0.43737923825235964" opacity="0.6"></polyline><polygon points="385.8626207617476,331.8626207617476 387,323.8626207617476 388.1373792382523,326.1373792382523" transform="rotate(108.43494974443654, 387, 325)" cx="387" cy="325" r="1.1373792382523598" fill="#d14e5b" stroke="#ccc" stroke-width="0.2" opacity="0.6"></polygon></g><g class="key-Paraguay_0"><circle cx="468" cy="423" r="1.1277143772344858" fill="#69c487" stroke="#ccc" opacity="0.6"></circle><polyline stroke-linecap="round" stroke="#69c487" points="468,423 465,420 491,425 536,432 531,442 536,447 559,451 556,454 575,458 553,462 575,464 592,470 614,476 584,480 556,478 567,475 546,474 530,471 527,468 547,468 564,470 554,471 553,473" fill="none" stroke-width="0.43610340803391723" opacity="0.6"></polyline><polygon points="551.8638965919661,479.86389659196607 553,471.86389659196607 554.1361034080339,474.1361034080339" transform="rotate(-153.4349501268608, 553, 473)" cx="553" cy="473" r="1.1361034080339172" fill="#69c487" stroke="#ccc" stroke-width="0.2" opacity="0.6"></polygon></g><g class="key-Jordan_0"><circle cx="653" cy="511" r="1.1250090684045568" fill="#d14e5b" stroke="#ccc" opacity="0.6"></circle><polyline stroke-linecap="round" stroke="#d14e5b" points="653,511 617,509 612,504 571,499 595,494 583,493 621,495 612,497 582,499 612,502 660,508 703,514 762,514 781,514 780,514 795,514 782,514 760,514 771,514 774,514 789,514 789,514 772,514" fill="none" stroke-width="0.43535168415695735" opacity="0.6"></polyline><polygon points="770.864648315843,520.864648315843 772,512.864648315843 773.135351684157,515.135351684157" transform="rotate(-90.0000007648485, 772, 514)" cx="772" cy="514" r="1.1353516841569573" fill="#d14e5b" stroke="#ccc" stroke-width="0.2" opacity="0.6"></polygon></g><g class="key-Laos_0"><circle cx="297" cy="275" r="1.127565445063872" fill="#d14e5b" stroke="#ccc" opacity="0.6"></circle><polyline stroke-linecap="round" stroke="#d14e5b" points="297,275 284,270 283,267 294,264 291,268 314,274 317,282 323,287 318,294 351,298 341,306 360,314 378,326 391,342 416,359 405,376 420,384 406,390 435,393 447,402 473,411 463,419 494,423" fill="none" stroke-width="0.43496980554048803" opacity="0.6"></polyline><polygon points="492.8650301944595,429.8650301944595 494,421.8650301944595 495.1349698055405,424.1349698055405" transform="rotate(97.35238018722372, 494, 423)" cx="494" cy="423" r="1.134969805540488" fill="#d14e5b" stroke="#ccc" stroke-width="0.2" opacity="0.6"></polygon></g><g class="key-Togo_0"><circle cx="271" cy="306" r="1.1255454043945927" fill="#5675c1" stroke="#ccc" opacity="0.6"></circle><polyline stroke-linecap="round" stroke="#5675c1" points="271,306 257,285 284,289 319,295 321,313 349,331 367,344 354,352 365,357 374,361 367,364 368,366 386,370 406,377 403,386 422,393 427,399 436,405 447,411 459,416 465,426 478,438 495,454" fill="none" stroke-width="0.4348142181418134" opacity="0.6"></polyline><polygon points="493.8651857818582,460.8651857818582 495,452.8651857818582 496.13481421814186,455.13481421814186" transform="rotate(133.26429654359382, 495, 454)" cx="495" cy="454" r="1.1348142181418135" fill="#5675c1" stroke="#ccc" stroke-width="0.2" opacity="0.6"></polygon></g><g class="key-El-Salvador_0"><circle cx="475" cy="444" r="1.131415089092687" fill="#4d824b" stroke="#ccc" opacity="0.6"></circle><polyline stroke-linecap="round" stroke="#4d824b" points="475,444 477,451 465,449 463,449 469,447 474,449 484,451 486,454 477,459 533,467 570,479 576,487 557,490 544,487 545,482 548,478 543,477 547,475 547,473 522,470 531,466 540,464 548,465" fill="none" stroke-width="0.4344448070490857" opacity="0.6"></polyline><polygon points="546.8655551929509,471.8655551929509 548,463.8655551929509 549.134444807049,466.1344448070491" transform="rotate(97.12501717430095, 548, 465)" cx="548" cy="465" r="1.1344448070490858" fill="#4d824b" stroke="#ccc" stroke-width="0.2" opacity="0.6"></polygon></g><g class="key-Sierra-Leone_0"><circle cx="297" cy="275" r="1.1264350357788262" fill="#5675c1" stroke="#ccc" opacity="0.6"></circle><polyline stroke-linecap="round" stroke="#5675c1" points="297,275 309,282 317,288 351,300 359,314 377,325 388,333 367,333 331,323 297,306 299,292 320,287 315,287 311,290 336,297 367,311 384,328 385,341 409,352 419,363 445,375 461,388 474,397" fill="none" stroke-width="0.4342845348128611" opacity="0.6"></polyline><polygon points="472.8657154651871,403.8657154651871 474,395.8657154651871 475.1342845348128,398.1342845348128" transform="rotate(124.69515459093287, 474, 397)" cx="474" cy="397" r="1.1342845348128612" fill="#5675c1" stroke="#ccc" stroke-width="0.2" opacity="0.6"></polygon></g><g class="key-Nicaragua_0"><circle cx="216" cy="202" r="1.1272343002425989" fill="#4d824b" stroke="#ccc" opacity="0.6"></circle><polyline stroke-linecap="round" stroke="#4d824b" points="216,202 209,212 237,220 270,240 286,261 291,275 282,284 330,292 335,307 358,326 430,348 426,367 438,379 455,387 472,392 477,399 503,405 501,410 504,413 521,418 534,423 541,429 574,434" fill="none" stroke-width="0.4335630316333343" opacity="0.6"></polyline><polygon points="572.8664369683667,440.86643696836666 574,432.86643696836666 575.1335630316333,435.13356303163334" transform="rotate(98.61564902223112, 574, 434)" cx="574" cy="434" r="1.1335630316333343" fill="#4d824b" stroke="#ccc" stroke-width="0.2" opacity="0.6"></polygon></g><g class="key-Kyrgyzstan_0"><circle cx="743" cy="445" r="1.1280233407277696" fill="#d14e5b" stroke="#ccc" opacity="0.6"></circle><polyline stroke-linecap="round" stroke="#d14e5b" points="743,445 588,445 476,445 480,445 465,447 507,446 575,456 514,463 525,458 471,450 497,440 510,442 568,451 617,468 623,480 584,487 593,488 592,489 617,491 639,496 631,501 633,504 651,507" fill="none" stroke-width="0.43172476698390605" opacity="0.6"></polyline><polygon points="649.8682752330161,513.8682752330161 651,505.8682752330161 652.1317247669839,508.1317247669839" transform="rotate(99.46232305328793, 651, 507)" cx="651" cy="507" r="1.1317247669839061" fill="#d14e5b" stroke="#ccc" stroke-width="0.2" opacity="0.6"></polygon></g><g class="key-Turkmenistan_0"><circle cx="743" cy="492" r="1.125634095987301" fill="#d14e5b" stroke="#ccc" opacity="0.6"></circle><polyline stroke-linecap="round" stroke="#d14e5b" points="743,492 541,492 548,492 535,492 532,488 519,485 532,482 541,482 559,485 563,489 568,493 593,496 619,501 649,506 657,511 658,514 687,514 674,514 675,514 672,514 665,514 661,514 661,514" fill="none" stroke-width="0.4307981690796059" opacity="0.6"></polyline><polygon points="659.8692018309204,520.8692018309204 661,512.8692018309204 662.1307981690795,515.1307981690795" transform="rotate(90.0000007648485, 661, 514)" cx="661" cy="514" r="1.1307981690796058" fill="#d14e5b" stroke="#ccc" stroke-width="0.2" opacity="0.6"></polygon></g><g class="key-Costa-Rica_0"><circle cx="612" cy="513" r="1.123361354938066" fill="#4d824b" stroke="#ccc" opacity="0.6"></circle><polyline stroke-linecap="round" stroke="#4d824b" points="612,513 605,512 622,512 620,512 631,512 606,511 608,509 626,509 645,511 643,513 644,514 629,512 622,509 627,508 649,508 675,511 668,513 662,513 662,513 664,513 679,513 665,512 664,510" fill="none" stroke-width="0.42949460188894517" opacity="0.6"></polyline><polygon points="662.870505398111,516.870505398111 664,508.87050539811105 665.129494601889,511.12949460188895" transform="rotate(-26.565051402836207, 664, 510)" cx="664" cy="510" r="1.1294946018889451" fill="#4d824b" stroke="#ccc" stroke-width="0.2" opacity="0.6"></polygon></g><g class="key-Central-African-Republic_0"><circle cx="263" cy="247" r="1.1228460301918326" fill="#5675c1" stroke="#ccc" opacity="0.6"></circle><polyline stroke-linecap="round" stroke="#5675c1" points="263,247 260,245 249,240 250,235 250,232 257,233 265,241 296,250 271,261 294,267 296,275 299,277 287,279 296,278 312,281 314,289 340,299 358,311 361,323 371,330 367,333 351,323 249,297" fill="none" stroke-width="0.4288175484437361" opacity="0.6"></polyline><polygon points="247.87118245155625,303.87118245155625 249,295.87118245155625 250.12881754844372,298.12881754844375" transform="rotate(-75.69972319413462, 249, 297)" cx="249" cy="297" r="1.1288175484437362" fill="#5675c1" stroke="#ccc" stroke-width="0.2" opacity="0.6"></polygon></g><g class="key-Liberia_0"><circle cx="451" cy="363" r="1.1194220837601683" fill="#5675c1" stroke="#ccc" opacity="0.6"></circle><polyline stroke-linecap="round" stroke="#5675c1" points="451,363 427,371 353,352 330,330 296,303 296,292 374,298 363,311 341,319 353,315 317,307 329,295 323,290 341,290 370,295 351,300 363,307 398,314 400,321 386,325 410,326 387,330 388,335" fill="none" stroke-width="0.42769455352372804" opacity="0.6"></polyline><polygon points="386.8723054464763,341.8723054464763 388,333.8723054464763 389.1276945535237,336.1276945535237" transform="rotate(168.69006895956142, 388, 335)" cx="388" cy="335" r="1.1276945535237282" fill="#5675c1" stroke="#ccc" stroke-width="0.2" opacity="0.6"></polygon></g><g class="key-Congo_0"><circle cx="302" cy="273" r="1.1207890126162814" fill="#5675c1" stroke="#ccc" opacity="0.6"></circle><polyline stroke-linecap="round" stroke="#5675c1" points="302,273 306,272 299,270 293,266 292,261 288,259 298,261 320,273 344,294 377,319 400,344 412,361 402,371 414,366 320,355 362,338 359,335 348,335 362,340 362,347 380,357 369,367 390,369" fill="none" stroke-width="0.42760750338236386" opacity="0.6"></polyline><polygon points="388.87239249661764,375.87239249661764 390,367.87239249661764 391.12760750338236,370.12760750338236" transform="rotate(95.44033284208767, 390, 369)" cx="390" cy="369" r="1.1276075033823638" fill="#5675c1" stroke="#ccc" stroke-width="0.2" opacity="0.6"></polygon></g><g class="key-Lebanon_0"><circle cx="849" cy="514" r="1.1229149882726575" fill="#d14e5b" stroke="#ccc" opacity="0.6"></circle><polyline stroke-linecap="round" stroke="#d14e5b" points="849,514 838,514 837,514 851,514 853,514 853,514 889,514 886,514 893,514 852,514 864,514 845,514 814,514 804,514 781,514 784,514 807,514 783,514 791,514 798,514 783,514 768,514 757,514" fill="none" stroke-width="0.42760701016203195" opacity="0.6"></polyline><polygon points="755.872392989838,520.872392989838 757,512.872392989838 758.127607010162,515.127607010162" transform="rotate(-90.0000007648485, 757, 514)" cx="757" cy="514" r="1.127607010162032" fill="#d14e5b" stroke="#ccc" stroke-width="0.2" opacity="0.6"></polygon></g><g class="key-Georgia_0"><circle cx="743" cy="188" r="1.1314331837819243" fill="#d14e5b" stroke="#ccc" opacity="0.6"></circle><polyline stroke-linecap="round" stroke="#d14e5b" points="743,188 270,35 264,121 283,135 467,252 534,360 578,443 560,476 561,466 543,452 574,443 622,459 671,480 687,497 722,506 671,508 686,506 718,503 706,498 663,489 646,482 660,482 688,489" fill="none" stroke-width="0.4274449248362549" opacity="0.6"></polyline><polygon points="686.8725550751637,495.87255507516375 688,487.87255507516375 689.1274449248363,490.12744492483625" transform="rotate(104.03624435205943, 688, 489)" cx="688" cy="489" r="1.1274449248362548" fill="#d14e5b" stroke="#ccc" stroke-width="0.2" opacity="0.6"></polygon></g><g class="key-Mauritania_0"><circle cx="523" cy="454" r="1.119266912305774" fill="#5675c1" stroke="#ccc" opacity="0.6"></circle><polyline stroke-linecap="round" stroke="#5675c1" points="523,454 532,455 559,457 528,458 547,457 559,458 567,461 581,466 574,470 572,473 569,475 574,476 606,477 557,477 570,474 559,476 612,480 631,488 627,494 642,496 646,498 675,501 676,506" fill="none" stroke-width="0.42538901037772847" opacity="0.6"></polyline><polygon points="674.8746109896223,512.8746109896223 676,504.8746109896223 677.1253890103777,507.1253890103777" transform="rotate(168.69006895956142, 676, 506)" cx="676" cy="506" r="1.1253890103777284" fill="#5675c1" stroke="#ccc" stroke-width="0.2" opacity="0.6"></polygon></g><g class="key-Panama_0"><circle cx="387" cy="379" r="1.1208345313118895" fill="#4d824b" stroke="#ccc" opacity="0.6"></circle><polyline stroke-linecap="round" stroke="#4d824b" points="387,379 431,382 447,395 448,399 398,397 409,384 376,380 468,378 391,382 358,373 415,371 449,380 457,392 408,398 444,395 450,401 500,413 525,430 524,442 549,452 578,461 602,470 615,478" fill="none" stroke-width="0.4252945439726611" opacity="0.6"></polyline><polygon points="613.8747054560273,484.87470545602736 615,476.87470545602736 616.1252945439726,479.1252945439727" transform="rotate(121.60750327970797, 615, 478)" cx="615" cy="478" r="1.1252945439726612" fill="#4d824b" stroke="#ccc" stroke-width="0.2" opacity="0.6"></polygon></g><g class="key-Uruguay_0"><circle cx="600" cy="492" r="1.1233014712659768" fill="#69c487" stroke="#ccc" opacity="0.6"></circle><polyline stroke-linecap="round" stroke="#69c487" points="600,492 627,506 620,509 636,514 591,514 652,513 648,513 652,514 654,514 648,514 673,514 660,514 658,514 657,514 647,514 653,514 682,514 711,514 719,514 722,514 734,514 736,514 750,514" fill="none" stroke-width="0.4242962285145736" opacity="0.6"></polyline><polygon points="748.8757037714854,520.8757037714854 750,512.8757037714854 751.1242962285146,515.1242962285146" transform="rotate(90.0000007648485, 750, 514)" cx="750" cy="514" r="1.1242962285145737" fill="#69c487" stroke="#ccc" stroke-width="0.2" opacity="0.6"></polygon></g><g class="key-Armenia_0"><circle cx="743" cy="373" r="1.1246924293854625" fill="#d14e5b" stroke="#ccc" opacity="0.6"></circle><polyline stroke-linecap="round" stroke="#d14e5b" points="743,373 380,373 344,373 379,373 417,402 438,422 442,439 438,436 424,426 402,411 403,401 412,405 486,425 538,453 587,477 625,494 627,504 673,508 652,508 630,505 638,503 679,503 698,504" fill="none" stroke-width="0.42325218704731593" opacity="0.6"></polyline><polygon points="696.8767478129527,510.87674781295266 698,502.87674781295266 699.1232521870473,505.1232521870473" transform="rotate(93.01278829463546, 698, 504)" cx="698" cy="504" r="1.123252187047316" fill="#d14e5b" stroke="#ccc" stroke-width="0.2" opacity="0.6"></polygon></g><g class="key-Kuwait_0"><circle cx="258" cy="297" r="1.1191930402224892" fill="#d14e5b" stroke="#ccc" opacity="0.6"></circle><polyline stroke-linecap="round" stroke="#d14e5b" points="258,297 395,270 510,347 698,408 820,478 843,512 874,514 882,514 899,514 915,514 935,514 919,514 943,514 946,514 976,514 980,514 973,514 948,514 931,514 928,514 929,514 917,514 943,514" fill="none" stroke-width="0.4226677552007069" opacity="0.6"></polyline><polygon points="941.8773322447993,520.8773322447993 943,512.8773322447993 944.1226677552007,515.1226677552007" transform="rotate(90.0000007648485, 943, 514)" cx="943" cy="514" r="1.122667755200707" fill="#d14e5b" stroke="#ccc" stroke-width="0.2" opacity="0.6"></polygon></g><g class="key-Oman_0"><circle cx="444" cy="431" r="1.1188736543719495" fill="#d14e5b" stroke="#ccc" opacity="0.6"></circle><polyline stroke-linecap="round" stroke="#d14e5b" points="444,431 477,426 438,424 471,418 456,417 472,415 454,421 534,431 569,448 554,463 594,470 569,473 571,473 585,474 608,477 630,482 658,488 705,496 740,504 754,509 762,512 778,513 790,514" fill="none" stroke-width="0.42266154639445014" opacity="0.6"></polyline><polygon points="788.8773384536056,520.8773384536056 790,512.8773384536056 791.1226615463945,515.1226615463945" transform="rotate(94.76364249605761, 790, 514)" cx="790" cy="514" r="1.1226615463944503" fill="#d14e5b" stroke="#ccc" stroke-width="0.2" opacity="0.6"></polygon></g><g class="key-Mongolia_0"><circle cx="382" cy="357" r="1.1199332812634013" fill="#d14e5b" stroke="#ccc" opacity="0.6"></circle><polyline stroke-linecap="round" stroke="#d14e5b" points="382,357 237,311 238,254 238,221 315,219 318,245 315,264 344,278 359,290 377,304 394,318 399,325 396,326 400,325 409,325 424,331 447,341 462,356 494,369 486,382 495,391 510,398 519,404" fill="none" stroke-width="0.4224048350271773" opacity="0.6"></polyline><polygon points="517.8775951649728,410.87759516497283 519,402.87759516497283 520.1224048350272,405.12240483502717" transform="rotate(123.69006857713714, 519, 404)" cx="519" cy="404" r="1.1224048350271774" fill="#d14e5b" stroke="#ccc" stroke-width="0.2" opacity="0.6"></polygon></g><g class="key-Jamaica_0"><circle cx="548" cy="480" r="1.1205132061902003" fill="#4d824b" stroke="#ccc" opacity="0.6"></circle><polyline stroke-linecap="round" stroke="#4d824b" points="548,480 569,480 603,485 608,490 594,493 608,493 599,493 605,492 611,494 613,497 643,500 641,503 648,504 640,504 641,503 640,502 640,500 621,498 622,495 627,494 630,494 624,492 620,490" fill="none" stroke-width="0.4219724386642601" opacity="0.6"></polyline><polygon points="618.8780275613358,496.8780275613357 620,488.8780275613357 621.1219724386643,491.1219724386643" transform="rotate(-63.43494936201229, 620, 490)" cx="620" cy="490" r="1.1219724386642602" fill="#4d824b" stroke="#ccc" stroke-width="0.2" opacity="0.6"></polygon></g><g class="key-Namibia_0"><circle cx="330" cy="319" r="1.1170239094885601" fill="#5675c1" stroke="#ccc" opacity="0.6"></circle><polyline stroke-linecap="round" stroke="#5675c1" points="330,319 316,314 302,304 300,296 315,294 317,298 336,304 329,314 372,330 406,354 418,373 393,384 407,386 416,386 405,385 400,382 394,371 353,353 328,329 325,308 340,297 363,292 374,284" fill="none" stroke-width="0.42060345844949965" opacity="0.6"></polyline><polygon points="372.8793965415505,290.8793965415505 374,282.8793965415505 375.12060345844947,285.12060345844947" transform="rotate(53.97262707357287, 374, 284)" cx="374" cy="284" r="1.1206034584494997" fill="#5675c1" stroke="#ccc" stroke-width="0.2" opacity="0.6"></polygon></g><g class="key-Lesotho_0"><circle cx="465" cy="447" r="1.1178105502782651" fill="#5675c1" stroke="#ccc" opacity="0.6"></circle><polyline stroke-linecap="round" stroke="#5675c1" points="465,447 465,450 462,449 474,447 428,445 455,441 471,444 484,450 496,458 499,464 509,468 522,471 523,473 533,475 544,477 556,478 541,478 540,475 545,474 546,474 537,475 535,476 528,475" fill="none" stroke-width="0.41998483068698583" opacity="0.6"></polyline><polygon points="526.880015169313,481.880015169313 528,473.880015169313 529.1199848306869,476.119984830687" transform="rotate(-81.86989834160035, 528, 475)" cx="528" cy="475" r="1.1199848306869857" fill="#5675c1" stroke="#ccc" stroke-width="0.2" opacity="0.6"></polygon></g><g class="key-Botswana_0"><circle cx="397" cy="387" r="1.116862717671462" fill="#5675c1" stroke="#ccc" opacity="0.6"></circle><polyline stroke-linecap="round" stroke="#5675c1" points="397,387 388,377 331,365 381,354 382,356 393,359 372,356 336,343 351,328 335,321 367,318 349,321 350,324 383,331 386,338 365,342 372,341 380,340 386,345 401,354 418,364 447,375 441,383" fill="none" stroke-width="0.41935860011482284" opacity="0.6"></polyline><polygon points="439.8806413998852,389.8806413998852 441,381.8806413998852 442.1193586001148,384.1193586001148" transform="rotate(-143.13010357052093, 441, 383)" cx="441" cy="383" r="1.1193586001148228" fill="#5675c1" stroke="#ccc" stroke-width="0.2" opacity="0.6"></polygon></g><g class="key-Gambia_0"><circle cx="535" cy="462" r="1.1152147902552536" fill="#5675c1" stroke="#ccc" opacity="0.6"></circle><polyline stroke-linecap="round" stroke="#5675c1" points="535,462 514,461 501,454 464,445 469,437 468,435 505,434 454,439 520,445 554,457 524,464 496,464 496,458 500,454 490,451 471,452 530,454 553,463 567,475 590,490 597,501 580,508 570,511" fill="none" stroke-width="0.41859648233967084" opacity="0.6"></polyline><polygon points="568.8814035176604,517.8814035176604 570,509.8814035176603 571.1185964823397,512.1185964823396" transform="rotate(-106.6992451407576, 570, 511)" cx="570" cy="511" r="1.1185964823396708" fill="#5675c1" stroke="#ccc" stroke-width="0.2" opacity="0.6"></polygon></g><g class="key-Guinea__002dBissau_0"><circle cx="438" cy="400" r="1.1153568863493104" fill="#5675c1" stroke="#ccc" opacity="0.6"></circle><polyline stroke-linecap="round" stroke="#5675c1" points="438,400 461,408 433,411 447,413 445,411 409,404 380,388 366,370 370,363 408,366 419,378 418,385 398,387 411,387 418,385 409,383 427,383 431,387 420,395 449,401 445,404 443,404 426,403" fill="none" stroke-width="0.4175940554522859" opacity="0.6"></polyline><polygon points="424.8824059445477,409.8824059445477 426,401.8824059445477 427.1175940554523,404.1175940554523" transform="rotate(-86.63354007280945, 426, 403)" cx="426" cy="403" r="1.1175940554522859" fill="#5675c1" stroke="#ccc" stroke-width="0.2" opacity="0.6"></polygon></g><g class="key-Gabon_0"><circle cx="540" cy="472" r="1.115051103163045" fill="#5675c1" stroke="#ccc" opacity="0.6"></circle><polyline stroke-linecap="round" stroke="#5675c1" points="540,472 515,486 531,482 499,485 535,486 572,492 569,499 583,505 605,511 608,514 599,514 577,514 584,514 590,514 607,514 608,514 605,514 581,514 600,514 614,514 631,514 641,514 656,514" fill="none" stroke-width="0.4175219983793649" opacity="0.6"></polyline><polygon points="654.8824780016206,520.8824780016206 656,512.8824780016206 657.1175219983793,515.1175219983793" transform="rotate(90.0000007648485, 656, 514)" cx="656" cy="514" r="1.117521998379365" fill="#5675c1" stroke="#ccc" stroke-width="0.2" opacity="0.6"></polygon></g><g class="key-Trinidad-and-Tobago_0"><circle cx="587" cy="466" r="1.1160877996199086" fill="#4d824b" stroke="#ccc" opacity="0.6"></circle><polyline stroke-linecap="round" stroke="#4d824b" points="587,466 544,463 535,453 537,448 556,446 575,449 565,453 585,455 590,459 634,464 657,471 639,475 622,475 633,471 625,470 644,472 663,475 655,478 661,480 661,482 689,483 724,487 751,491" fill="none" stroke-width="0.41659806258376575" opacity="0.6"></polyline><polygon points="749.8834019374162,497.88340193741624 751,489.88340193741624 752.1165980625838,492.11659806258376" transform="rotate(98.42696985794423, 751, 491)" cx="751" cy="491" r="1.1165980625837657" fill="#4d824b" stroke="#ccc" stroke-width="0.2" opacity="0.6"></polygon></g><g class="key-Mauritius_0"><circle cx="639" cy="495" r="1.1154973962932182" fill="#5675c1" stroke="#ccc" opacity="0.6"></circle><polyline stroke-linecap="round" stroke="#5675c1" points="639,495 649,495 639,496 658,498 684,501 674,503 655,503 670,502 670,501 688,501 709,504 709,506 711,508 739,509 733,511 738,512 762,513 729,513 782,514 794,514 754,514 735,514 757,514" fill="none" stroke-width="0.4164637872059583" opacity="0.6"></polyline><polygon points="755.8835362127941,520.8835362127941 757,512.8835362127941 758.1164637872059,515.1164637872059" transform="rotate(90.0000007648485, 757, 514)" cx="757" cy="514" r="1.1164637872059582" fill="#5675c1" stroke="#ccc" stroke-width="0.2" opacity="0.6"></polygon></g><g class="key-Swaziland_0"><circle cx="423" cy="445" r="1.1147667432411077" fill="#5675c1" stroke="#ccc" opacity="0.6"></circle><polyline stroke-linecap="round" stroke="#5675c1" points="423,445 439,441 422,440 431,432 392,423 394,409 368,395 376,387 415,395 451,409 436,425 467,434 488,443 502,447 460,446 440,436 434,423 411,411 408,403 423,397 422,392 427,387 442,381" fill="none" stroke-width="0.4161382332133993" opacity="0.6"></polyline><polygon points="440.8838617667866,387.8838617667866 442,379.8838617667866 443.1161382332134,382.1161382332134" transform="rotate(68.19859109322141, 442, 381)" cx="442" cy="381" r="1.1161382332133993" fill="#5675c1" stroke="#ccc" stroke-width="0.2" opacity="0.6"></polygon></g><g class="key-Djibouti_0"><circle cx="90" cy="73" r="1.1135537425065682" fill="#5675c1" stroke="#ccc" opacity="0.6"></circle><polyline stroke-linecap="round" stroke="#5675c1" points="90,73 90,60 119,66 128,76 176,93 169,116 197,135 239,160 259,188 298,214 293,237 324,252 341,269 359,287 415,311 436,337 478,361 492,380 501,392 501,400 517,407 534,416 561,426" fill="none" stroke-width="0.4149741719172836" opacity="0.6"></polyline><polygon points="559.8850258280827,432.8850258280827 561,424.8850258280827 562.1149741719173,427.11497417191725" transform="rotate(110.3231377672239, 561, 426)" cx="561" cy="426" r="1.1149741719172837" fill="#5675c1" stroke="#ccc" stroke-width="0.2" opacity="0.6"></polygon></g><g class="key-Fiji_0"><circle cx="610" cy="504" r="1.114164662016372" fill="#a652ba" stroke="#ccc" opacity="0.6"></circle><polyline stroke-linecap="round" stroke="#a652ba" points="610,504 617,508 667,510 642,513 619,513 654,512 663,513 656,514 658,514 656,514 676,514 687,514 683,514 687,514 704,514 707,514 697,514 707,514 693,514 692,514 696,514 700,514 705,514" fill="none" stroke-width="0.4147485774141421" opacity="0.6"></polyline><polygon points="703.8852514225858,520.8852514225858 705,512.8852514225858 706.1147485774142,515.1147485774142" transform="rotate(90.0000007648485, 705, 514)" cx="705" cy="514" r="1.1147485774141421" fill="#a652ba" stroke="#ccc" stroke-width="0.2" opacity="0.6"></polygon></g><g class="key-Guyana_0"><circle cx="458" cy="402" r="1.1141177962239024" fill="#69c487" stroke="#ccc" opacity="0.6"></circle><polyline stroke-linecap="round" stroke="#69c487" points="458,402 478,407 499,416 530,429 551,442 554,454 590,463 590,469 591,475 615,480 626,485 614,487 605,487 595,485 595,482 584,480 584,478 557,475 568,472 576,471 574,471 613,473 628,473" fill="none" stroke-width="0.414259810123052" opacity="0.6"></polyline><polygon points="626.885740189877,479.88574018987697 628,471.88574018987697 629.114259810123,474.1142598101231" transform="rotate(90.0000007648485, 628, 473)" cx="628" cy="473" r="1.114259810123052" fill="#69c487" stroke="#ccc" stroke-width="0.2" opacity="0.6"></polygon></g><g class="key-Solomon-Islands_0"><circle cx="376" cy="389" r="1.1124990568909356" fill="#a652ba" stroke="#ccc" opacity="0.6"></circle><polyline stroke-linecap="round" stroke="#a652ba" points="376,389 377,396 370,400 424,413 464,430 433,444 475,451 467,454 434,454 452,451 436,451 469,453 476,459 473,463 484,468 497,470 481,473 507,474 495,477 507,477 511,478 481,479 468,479" fill="none" stroke-width="0.4135503530857044" opacity="0.6"></polyline><polygon points="466.8864496469143,485.8864496469143 468,477.8864496469143 469.1135503530857,480.1135503530857" transform="rotate(-90.0000007648485, 468, 479)" cx="468" cy="479" r="1.1135503530857045" fill="#a652ba" stroke="#ccc" stroke-width="0.2" opacity="0.6"></polygon></g><g class="key-Suriname_0"><circle cx="535" cy="448" r="1.1128793285918546" fill="#69c487" stroke="#ccc" opacity="0.6"></circle><polyline stroke-linecap="round" stroke="#69c487" points="535,448 518,454 533,452 521,455 536,456 551,460 534,463 542,462 511,461 534,457 518,458 539,459 540,463 539,465 564,469 572,473 588,477 577,482 616,486 641,491 606,494 612,494 623,493" fill="none" stroke-width="0.4133831130349098" opacity="0.6"></polyline><polygon points="621.886616886965,499.8866168869651 623,491.8866168869651 624.1133831130348,494.1133831130349" transform="rotate(84.80557181296979, 623, 493)" cx="623" cy="493" r="1.1133831130349099" fill="#69c487" stroke="#ccc" stroke-width="0.2" opacity="0.6"></polygon></g><g class="key-Brunei_0"><circle cx="602" cy="514" r="1.1122612814946404" fill="#d14e5b" stroke="#ccc" opacity="0.6"></circle><polyline stroke-linecap="round" stroke="#d14e5b" points="602,514 657,514 644,514 682,514 659,514 691,514 654,514 666,514 647,514 642,514 676,514 698,514 719,514 727,514 719,514 717,514 693,514 690,514 683,514 684,514 704,514 716,514 723,514" fill="none" stroke-width="0.4129064458577246" opacity="0.6"></polyline><polygon points="721.8870935541423,520.8870935541423 723,512.8870935541423 724.1129064458578,515.1129064458578" transform="rotate(90.0000007648485, 723, 514)" cx="723" cy="514" r="1.1129064458577247" fill="#d14e5b" stroke="#ccc" stroke-width="0.2" opacity="0.6"></polygon></g><g class="key-Belize_0"><circle cx="524" cy="485" r="1.1120050212298584" fill="#4d824b" stroke="#ccc" opacity="0.6"></circle><polyline stroke-linecap="round" stroke="#4d824b" points="524,485 604,492 596,500 579,504 598,505 578,504 584,502 580,501 575,502 596,505 625,509 634,513 646,514 633,514 651,514 643,514 640,514 609,512 628,510 660,510 627,510 616,509 623,507" fill="none" stroke-width="0.4125487531508635" opacity="0.6"></polyline><polygon points="621.8874512468491,513.8874512468492 623,505.88745124684914 624.1125487531508,508.11254875315086" transform="rotate(74.05460472841662, 623, 507)" cx="623" cy="507" r="1.1125487531508635" fill="#4d824b" stroke="#ccc" stroke-width="0.2" opacity="0.6"></polygon></g><g class="key-Maldives_0"><circle cx="459" cy="469" r="1.11212548343729" fill="#d14e5b" stroke="#ccc" opacity="0.6"></circle><polyline stroke-linecap="round" stroke="#d14e5b" points="459,469 457,474 479,476 522,481 481,483 482,480 472,475 484,472 508,471 487,471 504,471 515,468 472,463 489,455 498,449 467,449 513,453 538,462 559,472 608,483 622,491 606,497 614,504" fill="none" stroke-width="0.41254002268469536" opacity="0.6"></polyline><polygon points="612.8874599773153,510.8874599773153 614,502.8874599773153 615.1125400226847,505.1125400226847" transform="rotate(131.1859262805692, 614, 504)" cx="614" cy="504" r="1.1125400226846953" fill="#d14e5b" stroke="#ccc" stroke-width="0.2" opacity="0.6"></polygon></g><g class="key-Barbados_0"><circle cx="732" cy="514" r="1.1122652906249968" fill="#4d824b" stroke="#ccc" opacity="0.6"></circle><polyline stroke-linecap="round" stroke="#4d824b" points="732,514 722,514 691,514 688,514 672,514 688,514 716,514 646,514 704,514 644,514 658,513 646,512 660,508 631,506 681,502 660,504 689,506 679,513 690,514 690,514 683,514 691,514 702,514" fill="none" stroke-width="0.4123249266760356" opacity="0.6"></polyline><polygon points="700.887675073324,520.887675073324 702,512.887675073324 703.112324926676,515.112324926676" transform="rotate(90.0000007648485, 702, 514)" cx="702" cy="514" r="1.1123249266760356" fill="#4d824b" stroke="#ccc" stroke-width="0.2" opacity="0.6"></polygon></g><g class="key-Vanuatu_0"><circle cx="541" cy="475" r="1.1118225337612093" fill="#a652ba" stroke="#ccc" opacity="0.6"></circle><polyline stroke-linecap="round" stroke="#a652ba" points="541,475 537,473 523,471 528,469 533,470 571,475 590,482 608,489 608,494 600,495 589,494 600,494 623,494 620,497 635,499 643,502 669,505 671,508 671,509 667,508 661,508 651,506 659,506" fill="none" stroke-width="0.4122550497150288" opacity="0.6"></polyline><polygon points="657.887744950285,512.887744950285 659,504.88774495028497 660.112255049715,507.11225504971503" transform="rotate(90.0000007648485, 659, 506)" cx="659" cy="506" r="1.1122550497150288" fill="#a652ba" stroke="#ccc" stroke-width="0.2" opacity="0.6"></polygon></g><g class="key-Samoa_0"><circle cx="545" cy="478" r="1.111869952313013" fill="#a652ba" stroke="#ccc" opacity="0.6"></circle><polyline stroke-linecap="round" stroke="#a652ba" points="545,478 490,470 448,458 471,449 500,450 516,459 538,470 564,480 604,493 631,504 652,513 651,514 656,514 679,514 684,514 669,514 665,514 692,514 678,514 691,514 679,514 713,514 712,514" fill="none" stroke-width="0.41196390821714524" opacity="0.6"></polyline><polygon points="710.8880360917829,520.8880360917829 712,512.8880360917829 713.1119639082171,515.1119639082171" transform="rotate(-90.0000007648485, 712, 514)" cx="712" cy="514" r="1.1119639082171453" fill="#a652ba" stroke="#ccc" stroke-width="0.2" opacity="0.6"></polygon></g><g class="key-Sao-Tome-and-Principe_0"><circle cx="399" cy="401" r="1.1116917522581153" fill="#5675c1" stroke="#ccc" opacity="0.6"></circle><polyline stroke-linecap="round" stroke="#5675c1" points="399,401 380,399 384,394 399,388 348,382 373,373 381,371 395,373 403,390 463,410 474,435 498,451 518,465 521,475 535,483 538,490 520,496 501,501 487,504 459,507 443,509 446,509 472,508" fill="none" stroke-width="0.41192206807418547" opacity="0.6"></polyline><polygon points="470.8880779319258,514.8880779319259 472,506.8880779319258 473.1119220680742,509.1119220680742" transform="rotate(87.79740258436432, 472, 508)" cx="472" cy="508" r="1.1119220680741855" fill="#5675c1" stroke="#ccc" stroke-width="0.2" opacity="0.6"></polygon></g><g class="key-Saint-Vincent-and-the-Grenadines_0"><circle cx="458" cy="415" r="1.1116481351954952" fill="#4d824b" stroke="#ccc" opacity="0.6"></circle><polyline stroke-linecap="round" stroke="#4d824b" points="458,415 453,419 497,418 442,419 441,409 442,401 436,395 462,400 501,413 514,426 504,440 583,451 594,464 606,475 635,483 643,488 657,492 673,496 675,500 689,503 704,506 699,506 715,506" fill="none" stroke-width="0.41165461983625207" opacity="0.6"></polyline><polygon points="713.8883453801637,512.8883453801637 715,504.88834538016374 716.1116546198363,507.11165461983626" transform="rotate(90.0000007648485, 715, 506)" cx="715" cy="506" r="1.111654619836252" fill="#4d824b" stroke="#ccc" stroke-width="0.2" opacity="0.6"></polygon></g><g class="key-Kiribati_0"><circle cx="608" cy="499" r="1.1115077572595482" fill="#a652ba" stroke="#ccc" opacity="0.6"></circle><polyline stroke-linecap="round" stroke="#a652ba" points="608,499 611,504 632,504 588,506 645,506 629,508 630,509 659,511 669,514 661,514 679,514 667,514 674,514 661,514 701,514 688,514 684,514 678,514 704,514 712,514 741,514 753,514 746,514" fill="none" stroke-width="0.41163392363367524" opacity="0.6"></polyline><polygon points="744.8883660763663,520.8883660763663 746,512.8883660763663 747.1116339236337,515.1116339236337" transform="rotate(-90.0000007648485, 746, 514)" cx="746" cy="514" r="1.1116339236336752" fill="#a652ba" stroke="#ccc" stroke-width="0.2" opacity="0.6"></polygon></g><g class="key-Timor_0"><circle cx="272" cy="260" r="1.1112102745502213" fill="#d14e5b" stroke="#ccc" opacity="0.6"></circle><polyline stroke-linecap="round" stroke="#d14e5b" points="272,260 295,288 315,302 304,321 315,323 253,317 268,298 215,281 228,267 246,268 275,283 328,305 326,325 318,332 314,332 317,331 321,333 327,337 318,340 336,343 346,349 365,355 357,363" fill="none" stroke-width="0.41121027455022136" opacity="0.6"></polyline><polygon points="355.8887897254498,369.8887897254498 357,361.8887897254498 358.1112102745502,364.1112102745502" transform="rotate(-135.00000114727274, 357, 363)" cx="357" cy="363" r="1.1112102745502213" fill="#d14e5b" stroke="#ccc" stroke-width="0.2" opacity="0.6"></polygon></g><g class="key-World_0"><circle cx="558" cy="428" r="1.1112102745502213" fill="#000" stroke="#ccc" opacity="0.6"></circle><polyline stroke-linecap="round" stroke="#000" points="558,428 562,429 565,431 575,433 585,437 589,441 595,444 601,447 607,449 612,451 611,452 613,451 616,451 621,451 627,453 634,456 646,459 654,464 654,467 665,470 673,471 675,474 679,475" fill="none" stroke-width="0.41121027455022136" opacity="0.6"></polyline><polygon points="677.8887897254498,481.8887897254498 679,473.8887897254498 680.1112102745502,476.1112102745502" transform="rotate(104.03624435205943, 679, 475)" cx="679" cy="475" r="1.1112102745502213" fill="#000" stroke="#ccc" stroke-width="0.2" opacity="0.6"></polygon></g><g class="key-Yemen_0"><circle cx="314" cy="363" r="1.1112102745502213" fill="#d14e5b" stroke="#ccc" opacity="0.6"></circle><polyline stroke-linecap="round" stroke="#d14e5b" points="314,363 347,365 341,369 323,367 320,361 316,354 323,351 330,352 337,356 340,359 330,360 336,356 330,353 333,351 341,352 351,358 368,366 358,371 370,373 385,375 389,380 400,383 397,383" fill="none" stroke-width="0.41121027455022136" opacity="0.6"></polyline><polygon points="395.8887897254498,389.8887897254498 397,381.8887897254498 398.1112102745502,384.1112102745502" transform="rotate(-90.0000007648485, 397, 383)" cx="397" cy="383" r="1.1112102745502213" fill="#d14e5b" stroke="#ccc" stroke-width="0.2" opacity="0.6"></polygon></g><text x="779" y="490.15" font-size="14.3" font-family="Arial Narrow, Arial, sans-serif" fill="#666">China</text><text x="503" y="449" font-size="14.095510867161407" font-family="Arial Narrow, Arial, sans-serif" fill="#666">India</text><text x="635.9695964928958" y="504.39568924972355" font-size="11.599928199266563" font-family="Arial Narrow, Arial, sans-serif" fill="#666">Indonesia</text><text x="847" y="514" font-size="11.485490655195797" font-family="Arial Narrow, Arial, sans-serif" fill="#666">Brazil</text><text x="494" y="407" font-size="11.444555170674182" font-family="Arial Narrow, Arial, sans-serif" fill="#666">Pakistan</text><text x="765" y="514" font-size="11.285027973248202" font-family="Arial Narrow, Arial, sans-serif" fill="#666">Mexico</text><text x="624.889012070387" y="473.6576013802196" font-size="11.219911873130599" font-family="Arial Narrow, Arial, sans-serif" fill="#666">Vietnam</text><text x="358.96959649289585" y="342.20288898399" font-size="11.214327667799417" font-family="Arial Narrow, Arial, sans-serif" fill="#666">Ethiopia</text><text x="918.1977579989342" y="514" font-size="11.207098054889409" font-family="Arial Narrow, Arial, sans-serif" fill="#666">Egypt</text><text x="1001.7807126242201" y="514" font-size="11.182773652215664" font-family="Arial Narrow, Arial, sans-serif" fill="#666">Turkey</text><text x="546.5811388300842" y="458.3029522633353" font-size="11.119071546165502" font-family="Arial Narrow, Arial, sans-serif" fill="#666">Myanmar</text><text x="649.8756642789573" y="487.66648274862564" font-size="11.116754461361502" font-family="Arial Narrow, Arial, sans-serif" fill="#666">Colombia</text><text x="393.1602514716892" y="414.32672960409525" font-size="11.106457245938245" font-family="Arial Narrow, Arial, sans-serif" fill="#666">Kenya</text><text x="312.9812225797349" y="387.6165175055763" font-size="11.089063918396947" font-family="Arial Narrow, Arial, sans-serif" fill="#666">Uganda</text><text x="538.5957251500903" y="404.51172127549836" font-size="11.08424956520504" font-family="Arial Narrow, Arial, sans-serif" fill="#666">Iraq</text><text x="593.4721359549995" y="503.77425899260345" font-size="11.076382030207363" font-family="Arial Narrow, Arial, sans-serif" fill="#666">Nepal</text><text x="513.4009642514715" y="514" font-size="11.073481210216524" font-family="Arial Narrow, Arial, sans-serif" fill="#666">Venezuela</text><text x="698" y="514" font-size="11.072137622704235" font-family="Arial Narrow, Arial, sans-serif" fill="#666">Malaysia</text><text x="630.3188945044922" y="519.0537378232417" font-size="11.06876539124254" font-family="Arial Narrow, Arial, sans-serif" fill="#666">Uzbekistan</text><text x="355.2197229083439" y="383.29317563837003" font-size="11.060584329671345" font-family="Arial Narrow, Arial, sans-serif" fill="#666">Mozambique</text><text x="276.16715030569515" y="281" font-size="11.059676468448222" font-family="Arial Narrow, Arial, sans-serif" fill="#666">North Korea</text><text x="258.9787189033766" y="336" font-size="11.054579908808588" font-family="Arial Narrow, Arial, sans-serif" fill="#666">Madagascar</text><text x="592.9774773629698" y="485.99934291883113" font-size="11.050594911382271" font-family="Arial Narrow, Arial, sans-serif" fill="#666">Cameroon</text><text x="613.6423834544263" y="421.37872809654186" font-size="11.043549429542761" font-family="Arial Narrow, Arial, sans-serif" fill="#666">Burkina Faso</text><text x="503.64097569245973" y="489.072995629155" font-size="11.041675997561581" font-family="Arial Narrow, Arial, sans-serif" fill="#666">Niger</text><text x="462.9872934991537" y="419.8760622442367" font-size="11.039653988594255" font-family="Arial Narrow, Arial, sans-serif" fill="#666">Malawi</text><text x="403.9504102709636" y="483.67844515456494" font-size="11.036387365751422" font-family="Arial Narrow, Arial, sans-serif" fill="#666">Ecuador</text><text x="274" y="246.51728706829118" font-size="11.034574136582377" font-family="Arial Narrow, Arial, sans-serif" fill="#666">Zambia</text><text x="318.9572022815199" y="318.80211440800906" font-size="11.029299558892689" font-family="Arial Narrow, Arial, sans-serif" fill="#666">Chad</text><text x="413.535100632817" y="439.8222183027322" font-size="11.02509445388676" font-family="Arial Narrow, Arial, sans-serif" fill="#666">Bolivia</text><text x="341.58113883008417" y="220.25658350974743" font-size="11.025042653443077" font-family="Arial Narrow, Arial, sans-serif" fill="#666">Haiti</text><text x="498.95888933317013" y="429.14760811945933" font-size="11.01550286261674" font-family="Arial Narrow, Arial, sans-serif" fill="#666">Laos</text><text x="498.640999963464" y="462.93451866251075" font-size="11.015390334971562" font-family="Arial Narrow, Arial, sans-serif" fill="#666">Togo</text><text x="552.9613893835683" y="471.1277355132225" font-size="11.01512368055281" font-family="Arial Narrow, Arial, sans-serif" fill="#666">El Salvador</text><text x="578.9435775211239" y="440.25627196739754" font-size="11.014490140515141" font-family="Arial Narrow, Arial, sans-serif" fill="#666">Nicaragua</text><text x="125.12437221729905" y="295.7649814745832" font-size="11.011152183724858" font-family="Arial Narrow, Arial, sans-serif" fill="#666">Central African Republic</text><text x="948" y="514" font-size="11.007006065239068" font-family="Arial Narrow, Arial, sans-serif" fill="#666">Kuwait</text><text x="378.04368042151594" y="281.0591415116248" font-size="11.005659797514479" font-family="Arial Narrow, Arial, sans-serif" fill="#666">Namibia</text><text x="483.65141887520303" y="474.29289321881345" font-size="11.005260797902544" font-family="Arial Narrow, Arial, sans-serif" fill="#666">Lesotho</text><text x="348.60403146897966" y="402.70638989024263" font-size="11.0037380950069" font-family="Arial Narrow, Arial, sans-serif" fill="#666">Guinea-Bissau</text><text x="446.6423834544263" y="379.1430466182295" font-size="11.002825883294248" font-family="Arial Narrow, Arial, sans-serif" fill="#666">Swaziland</text><text x="325.41491901862815" y="372.0354450971953" font-size="10.999822382525155" font-family="Arial Narrow, Arial, sans-serif" fill="#666">Timor</text></g><g style="cursor: pointer;" class="ScatterColorLegend clickable"><g class="legendMark"><rect x="1061.4560000000001" y="32.5" width="56.007999999999996" height="21.799999999999997" fill="#fff" opacity="0"></rect>,<rect x="1061.4560000000001" y="39" width="8" height="8" fill="#5675c1"></rect>,<text font-size="16.80" x="1074.5" y="48.4"><tspan x="1074.4560000000001" y="48.44">Africa</tspan></text></g><g class="legendMark"><rect x="1061.4560000000001" y="54.3" width="45.76" height="21.799999999999997" fill="#fff" opacity="0"></rect>,<rect x="1061.4560000000001" y="60.8" width="8" height="8" fill="#d14e5b"></rect>,<text font-size="16.80" x="1074.5" y="70.2"><tspan x="1074.4560000000001" y="70.24">Asia</tspan></text></g><g class="legendMark"><rect x="1061.4560000000001" y="76.1" width="120.51999999999998" height="21.799999999999997" fill="#fff" opacity="0"></rect>,<rect x="1061.4560000000001" y="82.6" width="8" height="8" fill="#4d824b"></rect>,<text font-size="16.80" x="1074.5" y="92.0"><tspan x="1074.4560000000001" y="92.03999999999999">North America</tspan></text></g><g class="legendMark"><rect x="1061.4560000000001" y="97.89999999999999" width="75.832" height="21.799999999999997" fill="#fff" opacity="0"></rect>,<rect x="1061.4560000000001" y="104.39999999999999" width="8" height="8" fill="#a652ba"></rect>,<text font-size="16.80" x="1074.5" y="113.8"><tspan x="1074.4560000000001" y="113.83999999999999">Oceania</tspan></text></g><g class="legendMark"><rect x="1061.4560000000001" y="119.69999999999999" width="123.54399999999998" height="21.799999999999997" fill="#fff" opacity="0"></rect>,<rect x="1061.4560000000001" y="126.19999999999999" width="8" height="8" fill="#69c487"></rect>,<text font-size="16.80" x="1074.5" y="135.6"><tspan x="1074.4560000000001" y="135.64">South America</tspan></text></g></g><line x1="1061.4560000000001" y1="146" x2="1180" y2="146" stroke="#ccc"></line><g class="clickable"><g class="ConnectedScatterLegend"><rect x="1061.4560000000001" y="155" width="123.54399999999998" height="16.799999999999997" fill="#fff" opacity="0"></rect><text font-size="16.80" x="1061.5" y="168.4" fill="#333"><tspan x="1061.4560000000001" y="168.44">1991</tspan></text><text font-size="16.80" x="1147.4" y="168.4" fill="#333"><tspan x="1147.368" y="168.44">2013</tspan></text><line x1="1104.0880000000002" y1="162.9" x2="1142.368" y2="162.9" stroke="#666" stroke-width="1"></line><circle cx="1104.0880000000002" cy="162.9" r="2" fill="#666" stroke="#ccc" stroke-width="0.2"></circle><circle cx="1116.8480000000002" cy="162.9" r="2" fill="#666" stroke="#ccc" stroke-width="0.2"></circle><circle cx="1129.608" cy="162.9" r="2" fill="#666" stroke="#ccc" stroke-width="0.2"></circle><polygon points="1139.368,167.9 1142.368,159.9 1145.368,165.9" cx="1142.368" cy="162.9" r="3" fill="#666" stroke="#ccc" stroke-width="0.2" transform="rotate(90, 1142.368, 162.9)"></polygon></g></g></g></g></svg>