<svg xmlns="http://www.w3.org/2000/svg" version="1.1" style="font-family: 'Helvetica Neue', Helvetica, Arial, sans-serif; font-size: 18px; background-color: white; text-rendering: optimizeLegibility; -webkit-font-smoothing: antialiased;" width="850" height="600"><g class="ChartTab"><g class="HeaderView"><g opacity="0.8" transform="translate(770, 15) scale(0.31)"><a xmlns:xlink="http://www.w3.org/1999/xlink" xlink:href="https://ourworldindata.org" target="_blank"><g><rect x="0" y="0" fill="#1B2543" width="211.2" height="130.1"/><rect x="0" y="112.2" fill="#E63912" width="211.2" height="17.9"/><g><rect x="1.2" y="12.3" fill="none" width="210.2" height="99.2"/><path fill="#FFFFFF" d="M37.8,32.2c0,12.7-7.7,19.4-17.1,19.4c-9.7,0-16.6-7.5-16.6-18.7c0-11.7,7.3-19.3,17.1-19.3 C31.3,13.7,37.8,21.3,37.8,32.2z M9.2,32.8c0,7.9,4.3,14.9,11.8,14.9c7.5,0,11.8-6.9,11.8-15.3c0-7.3-3.8-14.9-11.8-14.9 C13.1,17.5,9.2,24.8,9.2,32.8z"/><path fill="#FFFFFF" d="M62.7,43.8c0,2.7,0.1,5.1,0.2,7.2h-4.3l-0.3-4.3h-0.1c-1.3,2.1-4,4.9-8.8,4.9c-4.2,0-9.1-2.3-9.1-11.6 V24.6h4.8v14.6c0,5,1.5,8.4,5.9,8.4c3.2,0,5.5-2.2,6.3-4.4c0.3-0.7,0.4-1.6,0.4-2.5V24.6h4.8V43.8z"/><path fill="#FFFFFF" d="M67.3,32.8c0-3.1-0.1-5.8-0.2-8.2h4.2l0.2,5.2h0.2c1.2-3.5,4.1-5.8,7.3-5.8c0.5,0,0.9,0.1,1.4,0.2v4.5 c-0.5-0.1-1-0.2-1.6-0.2c-3.4,0-5.8,2.6-6.5,6.2c-0.1,0.7-0.2,1.4-0.2,2.2V51h-4.8V32.8z"/><path fill="#FFFFFF" d="M95.4,51l-9.4-36.8h5l4.4,18.6c1.1,4.6,2.1,9.2,2.7,12.7h0.1c0.6-3.7,1.8-8,3-12.8l4.9-18.5h5l4.5,18.7 c1,4.4,2,8.7,2.6,12.6h0.1c0.8-4,1.8-8.1,3-12.7l4.9-18.5h4.9L120.6,51h-5L111,31.9c-1.1-4.7-1.9-8.3-2.4-12h-0.1 c-0.7,3.7-1.5,7.3-2.8,12L100.4,51H95.4z"/><path fill="#FFFFFF" d="M154.9,37.6c0,9.8-6.8,14-13.2,14c-7.2,0-12.7-5.2-12.7-13.6c0-8.8,5.8-14,13.1-14 C149.8,24,154.9,29.5,154.9,37.6z M133.9,37.9c0,5.8,3.3,10.1,8,10.1c4.6,0,8-4.3,8-10.3c0-4.5-2.2-10.1-7.9-10.1 C136.3,27.6,133.9,32.8,133.9,37.9z"/><path fill="#FFFFFF" d="M158.2,32.8c0-3.1-0.1-5.8-0.2-8.2h4.2l0.2,5.2h0.2c1.2-3.5,4.1-5.8,7.3-5.8c0.5,0,0.9,0.1,1.4,0.2v4.5 c-0.5-0.1-1-0.2-1.6-0.2c-3.4,0-5.8,2.6-6.5,6.2c-0.1,0.7-0.2,1.4-0.2,2.2V51h-4.8V32.8z"/><path fill="#FFFFFF" d="M173.5,12.3h4.8V51h-4.8V12.3z"/><path fill="#FFFFFF" d="M206.5,12.3v31.9c0,2.3,0.1,5,0.2,6.8h-4.3l-0.2-4.6H202c-1.5,2.9-4.7,5.2-9,5.2 c-6.4,0-11.3-5.4-11.3-13.4c-0.1-8.8,5.4-14.2,11.9-14.2c4,0,6.8,1.9,8,4h0.1V12.3H206.5z M201.7,35.4c0-0.6-0.1-1.4-0.2-2 c-0.7-3.1-3.3-5.6-6.9-5.6c-5,0-7.9,4.4-7.9,10.2c0,5.3,2.6,9.8,7.8,9.8c3.2,0,6.2-2.1,7.1-5.7c0.2-0.7,0.2-1.3,0.2-2.1V35.4z"/><path fill="#FFFFFF" d="M42.8,64c0.1,1.6-1.1,2.9-3.1,2.9c-1.7,0-2.9-1.3-2.9-2.9c0-1.7,1.3-3,3-3C41.7,61,42.8,62.3,42.8,64z M37.4,97.8V71.4h4.8v26.4H37.4z"/><path fill="#FFFFFF" d="M47.5,78.6c0-2.7-0.1-5-0.2-7.1h4.3l0.3,4.4h0.1c1.3-2.5,4.4-5,8.8-5c3.7,0,9.4,2.2,9.4,11.2v15.8h-4.8 V82.6c0-4.3-1.6-7.8-6.1-7.8c-3.2,0-5.6,2.2-6.5,4.9c-0.2,0.6-0.3,1.4-0.3,2.2v15.9h-4.8V78.6z"/><path fill="#FFFFFF" d="M84,61.6c2.9-0.4,6.3-0.8,10.1-0.8c6.8,0,11.7,1.6,14.9,4.6c3.3,3,5.2,7.3,5.2,13.2c0,6-1.9,10.9-5.3,14.3 c-3.4,3.4-9.1,5.3-16.3,5.3c-3.4,0-6.2-0.2-8.6-0.4V61.6z M88.8,94.1c1.2,0.2,3,0.3,4.8,0.3c10.2,0,15.7-5.7,15.7-15.6 c0.1-8.7-4.9-14.2-14.9-14.2c-2.5,0-4.3,0.2-5.6,0.5V94.1z"/><path fill="#FFFFFF" d="M132.1,97.8l-0.4-3.3h-0.2c-1.5,2.1-4.3,3.9-8.1,3.9c-5.4,0-8.1-3.8-8.1-7.6c0-6.4,5.7-9.9,15.9-9.8v-0.5 c0-2.2-0.6-6.1-6-6.1c-2.5,0-5,0.8-6.9,2l-1.1-3.2c2.2-1.4,5.4-2.3,8.7-2.3c8.1,0,10.1,5.5,10.1,10.8v9.9c0,2.3,0.1,4.5,0.4,6.3 H132.1z M131.4,84.4c-5.3-0.1-11.2,0.8-11.2,5.9c0,3.1,2.1,4.6,4.5,4.6c3.4,0,5.6-2.2,6.4-4.4c0.2-0.5,0.3-1,0.3-1.5V84.4z"/><path fill="#FFFFFF" d="M146.6,63.9v7.6h6.9v3.7h-6.9v14.2c0,3.3,0.9,5.1,3.6,5.1c1.3,0,2.2-0.2,2.8-0.3l0.2,3.6 c-0.9,0.4-2.4,0.7-4.3,0.7c-2.2,0-4-0.7-5.2-2c-1.4-1.4-1.9-3.8-1.9-6.9V75.1h-4.1v-3.7h4.1v-6.3L146.6,63.9z"/><path fill="#FFFFFF" d="M171.4,97.8l-0.4-3.3h-0.2c-1.5,2.1-4.3,3.9-8.1,3.9c-5.4,0-8.1-3.8-8.1-7.6c0-6.4,5.7-9.9,15.9-9.8v-0.5 c0-2.2-0.6-6.1-6-6.1c-2.5,0-5,0.8-6.9,2l-1.1-3.2c2.2-1.4,5.4-2.3,8.7-2.3c8.1,0,10.1,5.5,10.1,10.8v9.9c0,2.3,0.1,4.5,0.4,6.3 H171.4z M170.7,84.4c-5.3-0.1-11.2,0.8-11.2,5.9c0,3.1,2.1,4.6,4.5,4.6c3.4,0,5.6-2.2,6.4-4.4c0.2-0.5,0.3-1,0.3-1.5V84.4z"/></g></g></a></g><a href="https://ourworldindata.org/grapher/prevalence-of-stunting-vs-people-practicing-open-defecation" target="_blank"><text font-size="21.60" x="15.0" y="32.3" fill="#555"><tspan x="15" y="32.279999999999994">Prevalence of stunting vs. people practicing open defecation, 2010</tspan></text></a><text font-size="14.40" x="15.0" y="50.1" fill="#666"><tspan x="15" y="50.11999999999999">The share of children under 5 years old who are stunted versus the share of the total population practicing open</tspan><tspan x="15" y="65.96">defecation. A child is defined as stunted if their height-for-age is more than two standard deviations below the</tspan><tspan x="15" y="81.8">median for the international reference population ages 0-59 months. open defecation refers to the percentage of the</tspan><tspan x="15" y="97.63999999999999">population defecating in the open, such as in fields, forest, bushes, open bodies of water, on beaches, in other open</tspan><tspan x="15" y="113.47999999999999">spaces or disposed of with solid waste.</tspan></text></g><g><g class="AxisBoxView"><g class="HorizontalAxis"><text font-size="12.60" x="220.0" y="554.0"><tspan x="220.037" y="553.98">People practicing open defecation (% of population)</tspan></text><text x="75.2" y="533.9" fill="#666" text-anchor="middle" font-size="16.2">0%</text><text x="155.7" y="533.9" fill="#666" text-anchor="middle" font-size="16.2">10%</text><text x="236.3" y="533.9" fill="#666" text-anchor="middle" font-size="16.2">20%</text><text x="316.9" y="533.9" fill="#666" text-anchor="middle" font-size="16.2">30%</text><text x="397.5" y="533.9" fill="#666" text-anchor="middle" font-size="16.2">40%</text><text x="478.1" y="533.9" fill="#666" text-anchor="middle" font-size="16.2">50%</text><text x="558.7" y="533.9" fill="#666" text-anchor="middle" font-size="16.2">60%</text><text x="639.3" y="533.9" fill="#666" text-anchor="middle" font-size="16.2">70%</text></g><g class="VerticalAxis"><text font-size="12.60" x="-516.4" y="25.1" transform="rotate(-90)"><tspan x="-516.354" y="25.080000000000002">Prevalence of stunting, height for age (% of children under 5)</tspan></text><text x="70.16" y="512.7" fill="#666" dominant-baseline="middle" text-anchor="end" font-size="16.2">0%</text><text x="70.16" y="447" fill="#666" dominant-baseline="middle" text-anchor="end" font-size="16.2">10%</text><text x="70.16" y="381.3" fill="#666" dominant-baseline="middle" text-anchor="end" font-size="16.2">20%</text><text x="70.16" y="315.6" fill="#666" dominant-baseline="middle" text-anchor="end" font-size="16.2">30%</text><text x="70.16" y="250" fill="#666" dominant-baseline="middle" text-anchor="end" font-size="16.2">40%</text><text x="70.16" y="184.3" fill="#666" dominant-baseline="middle" text-anchor="end" font-size="16.2">50%</text></g><g class="AxisGridLines"><line x1="75.16" y1="512.7" x2="715.00" y2="512.7" stroke="#ccc"></line><line x1="75.16" y1="447" x2="715.00" y2="447" stroke="#ddd" stroke-dasharray="3,2"></line><line x1="75.16" y1="381.3" x2="715.00" y2="381.3" stroke="#ddd" stroke-dasharray="3,2"></line><line x1="75.16" y1="315.6" x2="715.00" y2="315.6" stroke="#ddd" stroke-dasharray="3,2"></line><line x1="75.16" y1="250" x2="715.00" y2="250" stroke="#ddd" stroke-dasharray="3,2"></line><line x1="75.16" y1="184.3" x2="715.00" y2="184.3" stroke="#ddd" stroke-dasharray="3,2"></line></g><g class="AxisGridLines"><line x1="75.2" y1="512.70" x2="75.2" y2="135.00" stroke="#ccc"></line><line x1="155.7" y1="512.70" x2="155.7" y2="135.00" stroke="#ddd" stroke-dasharray="3,2"></line><line x1="236.3" y1="512.70" x2="236.3" y2="135.00" stroke="#ddd" stroke-dasharray="3,2"></line><line x1="316.9" y1="512.70" x2="316.9" y2="135.00" stroke="#ddd" stroke-dasharray="3,2"></line><line x1="397.5" y1="512.70" x2="397.5" y2="135.00" stroke="#ddd" stroke-dasharray="3,2"></line><line x1="478.1" y1="512.70" x2="478.1" y2="135.00" stroke="#ddd" stroke-dasharray="3,2"></line><line x1="558.7" y1="512.70" x2="558.7" y2="135.00" stroke="#ddd" stroke-dasharray="3,2"></line><line x1="639.3" y1="512.70" x2="639.3" y2="135.00" stroke="#ddd" stroke-dasharray="3,2"></line></g></g><g clip-path="url(#scatterBounds-751)" class="PointsWithLabels clickable"><rect x="75.162" y="135" width="639.838" height="377.7" fill="rgba(255,255,255,0)"></rect><defs><clipPath id="scatterBounds-751"><rect x="65.162" y="125" width="659.838" height="397.7"></rect></clipPath></defs><circle cx="81" cy="451" r="17.841241161527712" fill="#d14e5b" opacity="0.8"></circle><circle cx="262" cy="255" r="7.715914222596104" fill="#d14e5b" opacity="0.8"></circle><circle cx="75" cy="466" r="5.7366155752432455" fill="#d14e5b" opacity="0.8"></circle><circle cx="112" cy="359" r="4.880537267086507" fill="#d14e5b" opacity="0.8"></circle><circle cx="164" cy="227" r="4.32187491036831" fill="#5675c1" opacity="0.8"></circle><circle cx="75" cy="496" r="3.808005483997671" fill="#d14e5b" opacity="0.8"></circle><circle cx="124" cy="429" r="3.7492893192647045" fill="#69c487" opacity="0.8"></circle><circle cx="169" cy="233" r="3.7034663010273796" fill="#5675c1" opacity="0.8"></circle><circle cx="156" cy="359" r="3.164166572156847" fill="#69c487" opacity="0.8"></circle><circle cx="549" cy="282" r="2.6551673224732744" fill="#5675c1" opacity="0.8"></circle><circle cx="75" cy="426" r="2.635524595061907" fill="#d14e5b" opacity="0.8"></circle><circle cx="147" cy="198" r="2.584871822132484" fill="#5675c1" opacity="0.8"></circle><circle cx="532" cy="244" r="2.5499809351711966" fill="#d14e5b" opacity="0.8"></circle><circle cx="301" cy="300" r="2.476752601408679" fill="#5675c1" opacity="0.8"></circle><circle cx="606" cy="258" r="2.4121547426096" fill="#5675c1" opacity="0.8"></circle><circle cx="96" cy="221" r="2.3825985558113283" fill="#5675c1" opacity="0.8"></circle><circle cx="76" cy="469" r="2.344439238736748" fill="#ffd336" opacity="0.8"></circle><circle cx="97" cy="135" r="2.2694152781643036" fill="#5675c1" opacity="0.8"></circle><circle cx="507" cy="317" r="2.144051631069526" fill="#5675c1" opacity="0.8"></circle><circle cx="260" cy="217" r="2.1352531335197567" fill="#5675c1" opacity="0.8"></circle><circle cx="715" cy="182" r="2.1012109836601756" fill="#5675c1" opacity="0.8"></circle><circle cx="264" cy="245" r="2.0529916098211514" fill="#5675c1" opacity="0.8"></circle><circle cx="75" cy="376" r="1.9766757757056097" fill="#d14e5b" opacity="0.8"></circle><circle cx="167" cy="410" r="1.9566020683287777" fill="#d14e5b" opacity="0.8"></circle><circle cx="81" cy="481" r="1.9557043699227779" fill="#4d824b" opacity="0.8"></circle><circle cx="75" cy="485" r="1.9554448740021642" fill="#d14e5b" opacity="0.8"></circle><circle cx="94" cy="359" r="1.893903081663356" fill="#5675c1" opacity="0.8"></circle><circle cx="242" cy="301" r="1.8806348370663242" fill="#5675c1" opacity="0.8"></circle><circle cx="199" cy="309" r="1.859960669240259" fill="#5675c1" opacity="0.8"></circle><circle cx="106" cy="292" r="1.8306707728980836" fill="#d14e5b" opacity="0.8"></circle><circle cx="110" cy="340" r="1.8290312807735307" fill="#5675c1" opacity="0.8"></circle><circle cx="127" cy="454" r="1.8177078278104342" fill="#69c487" opacity="0.8"></circle><circle cx="110" cy="408" r="1.7834813268045264" fill="#000" opacity="0.8"></circle><circle cx="115" cy="424" r="1.7834813268045264" fill="#000" opacity="0.8"></circle><circle cx="221" cy="320" r="1.7834813268045264" fill="#000" opacity="0.8"></circle><circle cx="306" cy="248" r="1.7834813268045264" fill="#000" opacity="0.8"></circle><circle cx="321" cy="271" r="1.7834813268045264" fill="#000" opacity="0.8"></circle><circle cx="99" cy="395" r="1.7834813268045264" fill="#000" opacity="0.8"></circle><circle cx="212" cy="335" r="1.7834813268045264" fill="#000" opacity="0.8"></circle><circle cx="408" cy="240" r="1.7834813268045264" fill="#000" opacity="0.8"></circle><circle cx="289" cy="266" r="1.7834813268045264" fill="#000" opacity="0.8"></circle><circle cx="88" cy="445" r="1.7834813268045264" fill="#000" opacity="0.8"></circle><circle cx="204" cy="339" r="1.7834813268045264" fill="#000" opacity="0.8"></circle><circle cx="77" cy="441" r="1.7834813268045264" fill="#d14e5b" opacity="0.8"></circle><text x="81" y="432.1587588384723" font-size="14.3" font-family="Arial Narrow, Arial, sans-serif" fill="#666">China</text><text x="262" y="246.2840857774039" font-size="11.59011920850913" font-family="Arial Narrow, Arial, sans-serif" fill="#666">Indonesia</text><text x="75" y="459.26338442475674" font-size="11.311286377274945" font-family="Arial Narrow, Arial, sans-serif" fill="#666">Japan</text><text x="112" y="353.1194627329135" font-size="11.216105395499895" font-family="Arial Narrow, Arial, sans-serif" fill="#666">Vietnam</text><text x="164" y="221.6781250896317" font-size="11.16226853716681" font-family="Arial Narrow, Arial, sans-serif" fill="#666">Democratic Republic of Congo</text><text x="75" y="491.19199451600235" font-size="11.118519796751182" font-family="Arial Narrow, Arial, sans-serif" fill="#666">South Korea</text><text x="124" y="424.2507106807353" font-size="11.113873010858313" font-family="Arial Narrow, Arial, sans-serif" fill="#666">Colombia</text><text x="156" y="354.83583342784317" font-size="11.071511562902721" font-family="Arial Narrow, Arial, sans-serif" fill="#666">Peru</text><text x="549" y="278.3448326775267" font-size="11.040493188308321" font-family="Arial Narrow, Arial, sans-serif" fill="#666">Burkina Faso</text><text x="147" y="194.41512817786753" font-size="11.036635823839882" font-family="Arial Narrow, Arial, sans-serif" fill="#666">Malawi</text><text x="532" y="240.4500190648288" font-size="11.034759669240287" font-family="Arial Narrow, Arial, sans-serif" fill="#666">Cambodia</text><text x="301" y="296.5232473985913" font-size="11.030904942163215" font-family="Arial Narrow, Arial, sans-serif" fill="#666">Zimbabwe</text><text x="606" y="254.5878452573904" font-size="11.027597756723297" font-family="Arial Narrow, Arial, sans-serif" fill="#666">Chad</text><text x="96" y="217.61740144418866" font-size="11.026113724649617" font-family="Arial Narrow, Arial, sans-serif" fill="#666">Rwanda</text><text x="97" y="146.0205999135676" font-size="11.020599913567581" font-family="Arial Narrow, Arial, sans-serif" fill="#666">Burundi</text><text x="507" y="313.85594836893046" font-size="11.014805891954376" font-family="Arial Narrow, Arial, sans-serif" fill="#666">Togo</text><text x="682.5119410001699" y="178.89878901633983" font-size="11.012901355874583" font-family="Arial Narrow, Arial, sans-serif" fill="#666">Eritrea</text><text x="75" y="373.0233242242944" font-size="11.007583262850188" font-family="Arial Narrow, Arial, sans-serif" fill="#666">Armenia</text><text x="167" y="407.0433979316712" font-size="11.006756443117805" font-family="Arial Narrow, Arial, sans-serif" fill="#666">Mongolia</text><text x="81" y="478.0442956300772" font-size="11.006719664793643" font-family="Arial Narrow, Arial, sans-serif" fill="#666">Jamaica</text><text x="199" y="306.14003933075975" font-size="11.002893981004865" font-family="Arial Narrow, Arial, sans-serif" fill="#666">Swaziland</text><text x="106" y="289.1693292271019" font-size="11.001761979171961" font-family="Arial Narrow, Arial, sans-serif" fill="#666">Bhutan</text><text x="110" y="337.1709687192265" font-size="11.001699146767065" font-family="Arial Narrow, Arial, sans-serif" fill="#666">Equatorial Guinea</text><text x="127" y="451.1822921721896" font-size="11.001266720374241" font-family="Arial Narrow, Arial, sans-serif" fill="#666">Suriname</text><text x="221" y="317.2165186731955" font-size="10.99997598546912" font-family="Arial Narrow, Arial, sans-serif" fill="#666">Low &amp; middle income</text><text x="321" y="268.2165186731955" font-size="10.99997598546912" font-family="Arial Narrow, Arial, sans-serif" fill="#666">Lower middle income</text><text x="99" y="392.2165186731955" font-size="10.99997598546912" font-family="Arial Narrow, Arial, sans-serif" fill="#666">Middle East &amp; North Africa</text><text x="212" y="332.2165186731955" font-size="10.99997598546912" font-family="Arial Narrow, Arial, sans-serif" fill="#666">Middle income</text><text x="408" y="237.21651867319548" font-size="10.99997598546912" font-family="Arial Narrow, Arial, sans-serif" fill="#666">South Asia</text></g><g style="cursor: pointer;" class="ScatterColorLegend clickable"><g class="legendMark"><rect x="735" y="132.5" width="43.256" height="17.6" fill="#fff" opacity="0"></rect>,<rect x="735" y="138" width="6" height="6" fill="#5675c1"></rect>,<text font-size="12.60" x="746.0" y="145.1"><tspan x="746" y="145.07999999999998">Africa</tspan></text></g><g class="legendMark"><rect x="735" y="150.1" width="35.57" height="17.6" fill="#fff" opacity="0"></rect>,<rect x="735" y="155.6" width="6" height="6" fill="#d14e5b"></rect>,<text font-size="12.60" x="746.0" y="162.7"><tspan x="746" y="162.67999999999998">Asia</tspan></text></g><g class="legendMark"><rect x="735" y="167.7" width="51.824" height="17.6" fill="#fff" opacity="0"></rect>,<rect x="735" y="173.2" width="6" height="6" fill="#ffd336"></rect>,<text font-size="12.60" x="746.0" y="180.3"><tspan x="746" y="180.27999999999997">Europe</tspan></text></g><g class="legendMark"><rect x="735" y="185.3" width="91.64" height="17.6" fill="#fff" opacity="0"></rect>,<rect x="735" y="190.8" width="6" height="6" fill="#4d824b"></rect>,<text font-size="12.60" x="746.0" y="197.9"><tspan x="746" y="197.88">North America</tspan></text></g><g class="legendMark"><rect x="735" y="202.9" width="93.908" height="17.6" fill="#fff" opacity="0"></rect>,<rect x="735" y="208.4" width="6" height="6" fill="#69c487"></rect>,<text font-size="12.60" x="746.0" y="215.5"><tspan x="746" y="215.48">South America</tspan></text></g></g></g><g style="fill: #777;" class="SourcesFooter"><g style="fill: #777;" class="clickable"><text font-size="12.60" x="15.0" y="581.6"><tspan x="15" y="581.58">Source: World Bank – WDI</tspan></text></g><text font-size="12.60" x="649.0" y="581.6"><tspan x="649.024" y="581.58"><a target='_blank' style='fill: #777;' href='https://ourworldindata.org'>OurWorldInData.org</a> • <a style="fill: #777;" href="http://creativecommons.org/licenses/by-sa/4.0/deed.en_US" target="_blank">CC BY-SA</a></tspan></text></g></g></svg>