<svg xmlns="http://www.w3.org/2000/svg" version="1.1" style="font-family: 'Helvetica Neue', Helvetica, Arial, sans-serif; font-size: 18px; background-color: white; text-rendering: optimizeLegibility; -webkit-font-smoothing: antialiased;" width="850" height="600"><g class="ChartTab"><g class="HeaderView"><g opacity="0.8" transform="translate(770, 15) scale(0.31)"><a xmlns:xlink="http://www.w3.org/1999/xlink" xlink:href="https://ourworldindata.org" target="_blank"><g><rect x="0" y="0" fill="#1B2543" width="211.2" height="130.1"/><rect x="0" y="112.2" fill="#E63912" width="211.2" height="17.9"/><g><rect x="1.2" y="12.3" fill="none" width="210.2" height="99.2"/><path fill="#FFFFFF" d="M37.8,32.2c0,12.7-7.7,19.4-17.1,19.4c-9.7,0-16.6-7.5-16.6-18.7c0-11.7,7.3-19.3,17.1-19.3 C31.3,13.7,37.8,21.3,37.8,32.2z M9.2,32.8c0,7.9,4.3,14.9,11.8,14.9c7.5,0,11.8-6.9,11.8-15.3c0-7.3-3.8-14.9-11.8-14.9 C13.1,17.5,9.2,24.8,9.2,32.8z"/><path fill="#FFFFFF" d="M62.7,43.8c0,2.7,0.1,5.1,0.2,7.2h-4.3l-0.3-4.3h-0.1c-1.3,2.1-4,4.9-8.8,4.9c-4.2,0-9.1-2.3-9.1-11.6 V24.6h4.8v14.6c0,5,1.5,8.4,5.9,8.4c3.2,0,5.5-2.2,6.3-4.4c0.3-0.7,0.4-1.6,0.4-2.5V24.6h4.8V43.8z"/><path fill="#FFFFFF" d="M67.3,32.8c0-3.1-0.1-5.8-0.2-8.2h4.2l0.2,5.2h0.2c1.2-3.5,4.1-5.8,7.3-5.8c0.5,0,0.9,0.1,1.4,0.2v4.5 c-0.5-0.1-1-0.2-1.6-0.2c-3.4,0-5.8,2.6-6.5,6.2c-0.1,0.7-0.2,1.4-0.2,2.2V51h-4.8V32.8z"/><path fill="#FFFFFF" d="M95.4,51l-9.4-36.8h5l4.4,18.6c1.1,4.6,2.1,9.2,2.7,12.7h0.1c0.6-3.7,1.8-8,3-12.8l4.9-18.5h5l4.5,18.7 c1,4.4,2,8.7,2.6,12.6h0.1c0.8-4,1.8-8.1,3-12.7l4.9-18.5h4.9L120.6,51h-5L111,31.9c-1.1-4.7-1.9-8.3-2.4-12h-0.1 c-0.7,3.7-1.5,7.3-2.8,12L100.4,51H95.4z"/><path fill="#FFFFFF" d="M154.9,37.6c0,9.8-6.8,14-13.2,14c-7.2,0-12.7-5.2-12.7-13.6c0-8.8,5.8-14,13.1-14 C149.8,24,154.9,29.5,154.9,37.6z M133.9,37.9c0,5.8,3.3,10.1,8,10.1c4.6,0,8-4.3,8-10.3c0-4.5-2.2-10.1-7.9-10.1 C136.3,27.6,133.9,32.8,133.9,37.9z"/><path fill="#FFFFFF" d="M158.2,32.8c0-3.1-0.1-5.8-0.2-8.2h4.2l0.2,5.2h0.2c1.2-3.5,4.1-5.8,7.3-5.8c0.5,0,0.9,0.1,1.4,0.2v4.5 c-0.5-0.1-1-0.2-1.6-0.2c-3.4,0-5.8,2.6-6.5,6.2c-0.1,0.7-0.2,1.4-0.2,2.2V51h-4.8V32.8z"/><path fill="#FFFFFF" d="M173.5,12.3h4.8V51h-4.8V12.3z"/><path fill="#FFFFFF" d="M206.5,12.3v31.9c0,2.3,0.1,5,0.2,6.8h-4.3l-0.2-4.6H202c-1.5,2.9-4.7,5.2-9,5.2 c-6.4,0-11.3-5.4-11.3-13.4c-0.1-8.8,5.4-14.2,11.9-14.2c4,0,6.8,1.9,8,4h0.1V12.3H206.5z M201.7,35.4c0-0.6-0.1-1.4-0.2-2 c-0.7-3.1-3.3-5.6-6.9-5.6c-5,0-7.9,4.4-7.9,10.2c0,5.3,2.6,9.8,7.8,9.8c3.2,0,6.2-2.1,7.1-5.7c0.2-0.7,0.2-1.3,0.2-2.1V35.4z"/><path fill="#FFFFFF" d="M42.8,64c0.1,1.6-1.1,2.9-3.1,2.9c-1.7,0-2.9-1.3-2.9-2.9c0-1.7,1.3-3,3-3C41.7,61,42.8,62.3,42.8,64z M37.4,97.8V71.4h4.8v26.4H37.4z"/><path fill="#FFFFFF" d="M47.5,78.6c0-2.7-0.1-5-0.2-7.1h4.3l0.3,4.4h0.1c1.3-2.5,4.4-5,8.8-5c3.7,0,9.4,2.2,9.4,11.2v15.8h-4.8 V82.6c0-4.3-1.6-7.8-6.1-7.8c-3.2,0-5.6,2.2-6.5,4.9c-0.2,0.6-0.3,1.4-0.3,2.2v15.9h-4.8V78.6z"/><path fill="#FFFFFF" d="M84,61.6c2.9-0.4,6.3-0.8,10.1-0.8c6.8,0,11.7,1.6,14.9,4.6c3.3,3,5.2,7.3,5.2,13.2c0,6-1.9,10.9-5.3,14.3 c-3.4,3.4-9.1,5.3-16.3,5.3c-3.4,0-6.2-0.2-8.6-0.4V61.6z M88.8,94.1c1.2,0.2,3,0.3,4.8,0.3c10.2,0,15.7-5.7,15.7-15.6 c0.1-8.7-4.9-14.2-14.9-14.2c-2.5,0-4.3,0.2-5.6,0.5V94.1z"/><path fill="#FFFFFF" d="M132.1,97.8l-0.4-3.3h-0.2c-1.5,2.1-4.3,3.9-8.1,3.9c-5.4,0-8.1-3.8-8.1-7.6c0-6.4,5.7-9.9,15.9-9.8v-0.5 c0-2.2-0.6-6.1-6-6.1c-2.5,0-5,0.8-6.9,2l-1.1-3.2c2.2-1.4,5.4-2.3,8.7-2.3c8.1,0,10.1,5.5,10.1,10.8v9.9c0,2.3,0.1,4.5,0.4,6.3 H132.1z M131.4,84.4c-5.3-0.1-11.2,0.8-11.2,5.9c0,3.1,2.1,4.6,4.5,4.6c3.4,0,5.6-2.2,6.4-4.4c0.2-0.5,0.3-1,0.3-1.5V84.4z"/><path fill="#FFFFFF" d="M146.6,63.9v7.6h6.9v3.7h-6.9v14.2c0,3.3,0.9,5.1,3.6,5.1c1.3,0,2.2-0.2,2.8-0.3l0.2,3.6 c-0.9,0.4-2.4,0.7-4.3,0.7c-2.2,0-4-0.7-5.2-2c-1.4-1.4-1.9-3.8-1.9-6.9V75.1h-4.1v-3.7h4.1v-6.3L146.6,63.9z"/><path fill="#FFFFFF" d="M171.4,97.8l-0.4-3.3h-0.2c-1.5,2.1-4.3,3.9-8.1,3.9c-5.4,0-8.1-3.8-8.1-7.6c0-6.4,5.7-9.9,15.9-9.8v-0.5 c0-2.2-0.6-6.1-6-6.1c-2.5,0-5,0.8-6.9,2l-1.1-3.2c2.2-1.4,5.4-2.3,8.7-2.3c8.1,0,10.1,5.5,10.1,10.8v9.9c0,2.3,0.1,4.5,0.4,6.3 H171.4z M170.7,84.4c-5.3-0.1-11.2,0.8-11.2,5.9c0,3.1,2.1,4.6,4.5,4.6c3.4,0,5.6-2.2,6.4-4.4c0.2-0.5,0.3-1,0.3-1.5V84.4z"/></g></g></a></g><a href="https://ourworldindata.org/grapher/prevalence-of-undernourishment-vs-daily-supply-of-calories" target="_blank"><text font-size="22.50" x="15.0" y="33.0" fill="#555"><tspan x="15" y="33">Prevalence of undernourishment vs. daily supply of calories, 1991 to 2013</tspan></text></a><text font-size="14.40" x="15.0" y="51.0" fill="#666"><tspan x="15" y="51.019999999999996">The prevalence of undernourishment, defined as the share of the total population with caloric intakes which fall</tspan><tspan x="15" y="66.86">below minimum energy requirements, versus the daily supply of calories in kilocalories per person per day. Due to</tspan><tspan x="15" y="82.7">technical restrictions of the visualisation: data shown as 5% signify a prevalence of undernourishment below 5%.</tspan></text></g><g><g class="AxisBoxView"><g class="HorizontalAxis"><text font-size="12.60" x="261.9" y="554.0"><tspan x="261.869" y="553.98">Daily caloric supply (kcal per person)</tspan></text><text x="75.2" y="533.9" fill="#666" text-anchor="middle" font-size="16.2">1,506 kcal</text><text x="217.3" y="533.9" fill="#666" text-anchor="middle" font-size="16.2">2,000 kcal</text><text x="361.3" y="533.9" fill="#666" text-anchor="middle" font-size="16.2">2,500 kcal</text><text x="505.2" y="533.9" fill="#666" text-anchor="middle" font-size="16.2">3,000 kcal</text><text x="715" y="533.9" fill="#666" text-anchor="middle" font-size="16.2">3,729 kcal</text></g><g class="VerticalAxis"><text font-size="12.60" x="-422.1" y="25.1" transform="rotate(-90)"><tspan x="-422.11300000000006" y="25.080000000000002">Prevalence of undernourishment</tspan></text><text x="70.16" y="512.7" fill="#666" dominant-baseline="middle" text-anchor="end" font-size="16.2">0%</text><text x="70.16" y="462.2" fill="#666" dominant-baseline="middle" text-anchor="end" font-size="16.2">10%</text><text x="70.16" y="411.8" fill="#666" dominant-baseline="middle" text-anchor="end" font-size="16.2">20%</text><text x="70.16" y="361.3" fill="#666" dominant-baseline="middle" text-anchor="end" font-size="16.2">30%</text><text x="70.16" y="310.8" fill="#666" dominant-baseline="middle" text-anchor="end" font-size="16.2">40%</text><text x="70.16" y="260.3" fill="#666" dominant-baseline="middle" text-anchor="end" font-size="16.2">50%</text><text x="70.16" y="209.9" fill="#666" dominant-baseline="middle" text-anchor="end" font-size="16.2">60%</text><text x="70.16" y="159.4" fill="#666" dominant-baseline="middle" text-anchor="end" font-size="16.2">70%</text><text x="70.16" y="108.9" fill="#666" dominant-baseline="middle" text-anchor="end" font-size="16.2">80%</text></g><g class="AxisGridLines"><line x1="75.16" y1="512.7" x2="715.00" y2="512.7" stroke="#ccc"></line><line x1="75.16" y1="462.2" x2="715.00" y2="462.2" stroke="#ddd" stroke-dasharray="3,2"></line><line x1="75.16" y1="411.8" x2="715.00" y2="411.8" stroke="#ddd" stroke-dasharray="3,2"></line><line x1="75.16" y1="361.3" x2="715.00" y2="361.3" stroke="#ddd" stroke-dasharray="3,2"></line><line x1="75.16" y1="310.8" x2="715.00" y2="310.8" stroke="#ddd" stroke-dasharray="3,2"></line><line x1="75.16" y1="260.3" x2="715.00" y2="260.3" stroke="#ddd" stroke-dasharray="3,2"></line><line x1="75.16" y1="209.9" x2="715.00" y2="209.9" stroke="#ddd" stroke-dasharray="3,2"></line><line x1="75.16" y1="159.4" x2="715.00" y2="159.4" stroke="#ddd" stroke-dasharray="3,2"></line><line x1="75.16" y1="108.9" x2="715.00" y2="108.9" stroke="#ddd" stroke-dasharray="3,2"></line></g><g class="AxisGridLines"><line x1="217.3" y1="512.70" x2="217.3" y2="104.90" stroke="#ddd" stroke-dasharray="3,2"></line><line x1="361.3" y1="512.70" x2="361.3" y2="104.90" stroke="#ddd" stroke-dasharray="3,2"></line><line x1="505.2" y1="512.70" x2="505.2" y2="104.90" stroke="#ddd" stroke-dasharray="3,2"></line><line x1="649.1" y1="512.70" x2="649.1" y2="104.90" stroke="#ddd" stroke-dasharray="3,2"></line></g></g><g clip-path="url(#scatterBounds-757)" class="PointsWithLabels clickable"><rect x="75.162" y="104.9" width="639.838" height="407.8" fill="rgba(255,255,255,0)"></rect><defs><clipPath id="scatterBounds-757"><rect x="65.162" y="94.9" width="659.838" height="427.8"></rect></clipPath></defs><g class="key-China_0"><circle cx="345" cy="392" r="2.0312981939172268" fill="#d14e5b" stroke="#ccc" opacity="0.6"></circle><polyline stroke-linecap="round" stroke="#d14e5b" points="345,392 352,389 375,394 394,401 419,411 420,419 428,423 440,427 439,429 451,430 453,431 458,432 458,432 465,433 471,434 472,435 482,438 498,441 503,445 517,449 528,453 533,457 536,460" fill="none" stroke-width="1.415077572595482" opacity="0.6"></polyline><polygon points="533.8849224274045,465.8849224274045 536,457.8849224274045 538.1150775725955,462.11507757259545" transform="rotate(135.00000114727274, 536, 460)" cx="536" cy="460" r="2.115077572595482" fill="#d14e5b" stroke="#ccc" stroke-width="0.2" opacity="0.6"></polygon></g><g class="key-India_0"><circle cx="302" cy="393" r="1.9055785538142138" fill="#d14e5b" stroke="#ccc" opacity="0.6"></circle><polyline stroke-linecap="round" stroke="#d14e5b" points="302,393 313,400 294,399 301,401 310,403 316,409 323,415 321,421 331,425 326,426 313,424 299,418 298,412 291,407 295,405 313,409 332,417 340,425 336,430 344,433 348,434 342,435 349,435" fill="none" stroke-width="1.380333087386797" opacity="0.6"></polyline><polygon points="346.9196669126132,440.9196669126132 349,432.9196669126132 351.0803330873868,437.0803330873868" transform="rotate(90.0000007648485, 349, 435)" cx="349" cy="435" r="2.080333087386797" fill="#d14e5b" stroke="#ccc" stroke-width="0.2" opacity="0.6"></polygon></g><g class="key-Indonesia_0"><circle cx="319" cy="413" r="1.4267577403154492" fill="#d14e5b" stroke="#ccc" opacity="0.6"></circle><polyline stroke-linecap="round" stroke="#d14e5b" points="319,413 337,416 341,421 352,427 376,434 375,439 360,439 357,436 351,431 342,425 339,421 347,418 352,417 352,418 352,417 356,417 367,419 373,423 390,432 404,444 422,456 439,465 441,471" fill="none" stroke-width="0.786023492833092" opacity="0.6"></polyline><polygon points="439.5139765071669,477.5139765071669 441,469.5139765071669 442.48602349283306,472.48602349283306" transform="rotate(161.56505255010896, 441, 471)" cx="441" cy="471" r="1.486023492833092" fill="#d14e5b" stroke="#ccc" stroke-width="0.2" opacity="0.6"></polygon></g><g class="key-Brazil_0"><circle cx="441" cy="438" r="1.3874924497016052" fill="#69c487" stroke="#ccc" opacity="0.6"></circle><polyline stroke-linecap="round" stroke="#69c487" points="441,438 439,440 440,440 452,441 451,443 459,444 463,445 462,446 466,447 470,450 474,456 484,464 524,473 528,481 527,487 532,487 535,487 556,487 553,487 571,487 587,487 576,487 580,487" fill="none" stroke-width="0.7399220519620413" opacity="0.6"></polyline><polygon points="578.5600779480379,493.560077948038 580,485.560077948038 581.439922051962,488.43992205196207" transform="rotate(90.0000007648485, 580, 487)" cx="580" cy="487" r="1.4399220519620413" fill="#69c487" stroke="#ccc" stroke-width="0.2" opacity="0.6"></polygon></g><g class="key-Pakistan_0"><circle cx="281" cy="386" r="1.341296762329304" fill="#d14e5b" stroke="#ccc" opacity="0.6"></circle><polyline stroke-linecap="round" stroke="#d14e5b" points="281,386 310,383 317,391 331,396 329,401 334,402 333,402 324,401 338,401 331,399 307,394 290,387 307,382 315,383 320,388 327,393 338,397 338,400 340,402 341,403 340,402 342,402 344,401" fill="none" stroke-width="0.7222104712281037" opacity="0.6"></polyline><polygon points="342.5777895287719,407.5777895287719 344,399.5777895287719 345.42221047122814,402.42221047122814" transform="rotate(63.43494936201229, 344, 401)" cx="344" cy="401" r="1.4222104712281036" fill="#d14e5b" stroke="#ccc" stroke-width="0.2" opacity="0.6"></polygon></g><g class="key-Nigeria_0"><circle cx="314" cy="405" r="1.3208023576545869" fill="#5675c1" stroke="#ccc" opacity="0.6"></circle><polyline stroke-linecap="round" stroke="#5675c1" points="314,405 342,422 368,431 361,443 378,448 377,452 389,456 399,459 399,463 392,466 393,467 391,467 392,468 405,471 420,476 426,479 424,482 425,482 413,482 420,481 420,481 408,480 418,479" fill="none" stroke-width="0.708820335481204" opacity="0.6"></polyline><polygon points="416.5911796645188,485.5911796645188 418,477.5911796645188 419.4088203354812,480.4088203354812" transform="rotate(84.28940757881844, 418, 479)" cx="418" cy="479" r="1.4088203354812041" fill="#5675c1" stroke="#ccc" stroke-width="0.2" opacity="0.6"></polygon></g><g class="key-Bangladesh_0"><circle cx="250" cy="347" r="1.3316051988440334" fill="#d14e5b" stroke="#ccc" opacity="0.6"></circle><polyline stroke-linecap="round" stroke="#d14e5b" points="250,347 249,345 220,337 218,329 229,326 231,330 245,340 263,357 293,376 291,396 312,408 307,416 318,420 327,424 324,426 324,427 337,427 328,426 339,425 343,425 340,425 342,425 346,425" fill="none" stroke-width="0.6901092445863379" opacity="0.6"></polyline><polygon points="344.6098907554137,431.6098907554137 346,423.6098907554137 347.39010924458637,426.39010924458637" transform="rotate(90.0000007648485, 346, 425)" cx="346" cy="425" r="1.390109244586338" fill="#d14e5b" stroke="#ccc" stroke-width="0.2" opacity="0.6"></polygon></g><g class="key-Mexico_0"><circle cx="502" cy="477" r="1.3002989231269244" fill="#4d824b" stroke="#ccc" opacity="0.6"></circle><polyline stroke-linecap="round" stroke="#4d824b" points="502,477 505,478 507,478 506,479 495,480 502,481 495,483 496,484 500,487 515,487 529,487 534,487 536,485 535,484 523,486 527,487 534,487 527,487 517,487 517,487 513,487 519,487 525,487" fill="none" stroke-width="0.6446083906213964" opacity="0.6"></polyline><polygon points="523.6553916093786,493.6553916093786 525,485.6553916093786 526.3446083906214,488.34460839062143" transform="rotate(90.0000007648485, 525, 487)" cx="525" cy="487" r="1.3446083906213964" fill="#4d824b" stroke="#ccc" stroke-width="0.2" opacity="0.6"></polygon></g><g class="key-Philippines_0"><circle cx="278" cy="380" r="1.2637288252856755" fill="#d14e5b" stroke="#ccc" opacity="0.6"></circle><polyline stroke-linecap="round" stroke="#d14e5b" points="278,380 288,376 276,379 307,381 300,388 322,393 316,398 301,398 320,401 330,405 324,410 330,413 329,415 350,418 353,423 365,429 381,437 385,443 388,447 384,447 382,445 385,442 381,442" fill="none" stroke-width="0.6181472308940279" opacity="0.6"></polyline><polygon points="379.68185276910594,448.68185276910594 381,440.68185276910594 382.318147230894,443.318147230894" transform="rotate(-90.0000007648485, 381, 442)" cx="381" cy="442" r="1.318147230894028" fill="#d14e5b" stroke="#ccc" stroke-width="0.2" opacity="0.6"></polygon></g><g class="key-Vietnam_0"><circle cx="175" cy="282" r="1.2728239218284703" fill="#d14e5b" stroke="#ccc" opacity="0.6"></circle><polyline stroke-linecap="round" stroke="#d14e5b" points="175,282 195,286 224,304 233,321 225,334 222,336 213,336 249,340 274,354 286,370 303,384 321,395 337,404 354,412 352,416 356,419 375,422 394,427 401,434 412,439 423,444 422,447 431,449" fill="none" stroke-width="0.6073521993235966" opacity="0.6"></polyline><polygon points="429.6926478006764,455.6926478006764 431,447.6926478006764 432.3073521993236,450.3073521993236" transform="rotate(102.52880858047378, 431, 449)" cx="431" cy="449" r="1.3073521993235966" fill="#d14e5b" stroke="#ccc" stroke-width="0.2" opacity="0.6"></polygon></g><g class="key-Ethiopia_0"><circle cx="98" cy="135" r="1.2400961683593081" fill="#5675c1" stroke="#ccc" opacity="0.6"></circle><polyline stroke-linecap="round" stroke="#5675c1" points="98,135 89,133 75,146 86,142 93,152 118,164 126,181 126,194 138,206 155,220 168,236 172,250 184,260 183,271 211,281 207,291 205,298 222,305 232,313 240,322 247,331 253,336 255,341" fill="none" stroke-width="0.6039446619350681" opacity="0.6"></polyline><polygon points="253.69605533806492,347.6960553380649 255,339.6960553380649 256.3039446619351,342.3039446619351" transform="rotate(158.19859185806993, 255, 341)" cx="255" cy="341" r="1.303944661935068" fill="#5675c1" stroke="#ccc" stroke-width="0.2" opacity="0.6"></polygon></g><g class="key-Egypt_0"><circle cx="554" cy="487" r="1.2546543067450695" fill="#5675c1" stroke="#ccc" opacity="0.6"></circle><polyline stroke-linecap="round" stroke="#5675c1" points="554,487 555,487 561,487 579,487 595,487 600,487 609,487 602,487 607,487 611,487 622,487 630,487 614,487 594,487 610,487 617,487 633,487 646,487 632,487 651,487 663,487 666,487 655,487" fill="none" stroke-width="0.5994754942633651" opacity="0.6"></polyline><polygon points="653.7005245057367,493.7005245057366 655,485.7005245057366 656.2994754942634,488.29947549426333" transform="rotate(-90.0000007648485, 655, 487)" cx="655" cy="487" r="1.299475494263365" fill="#5675c1" stroke="#ccc" stroke-width="0.2" opacity="0.6"></polygon></g><g class="key-Iran_0"><circle cx="488" cy="487" r="1.2512877741807038" fill="#d14e5b" stroke="#ccc" opacity="0.6"></circle><polyline stroke-linecap="round" stroke="#d14e5b" points="488,487 512,487 537,487 524,487 518,487 520,487 531,487 534,487 529,487 519,486 515,484 512,481 515,480 530,479 526,479 505,479 513,479 508,479 521,479 532,480 519,481 523,482 532,483" fill="none" stroke-width="0.5855891079266891" opacity="0.6"></polyline><polygon points="530.7144108920733,489.7144108920733 532,481.7144108920733 533.2855891079266,484.2855891079267" transform="rotate(96.34019256463937, 532, 483)" cx="532" cy="483" r="1.285589107926689" fill="#d14e5b" stroke="#ccc" stroke-width="0.2" opacity="0.6"></polygon></g><g class="key-Turkey_0"><circle cx="713" cy="487" r="1.2494745322084782" fill="#d14e5b" stroke="#ccc" opacity="0.6"></circle><polyline stroke-linecap="round" stroke="#d14e5b" points="713,487 709,487 715,487 714,487 711,487 702,487 679,487 694,487 683,487 695,487 683,487 679,487 674,487 680,487 681,487 691,487 686,487 676,487 683,487 692,487 699,487 703,487 708,487" fill="none" stroke-width="0.5839226965660536" opacity="0.6"></polyline><polygon points="706.716077303434,493.71607730343396 708,485.71607730343396 709.283922696566,488.2839226965661" transform="rotate(90.0000007648485, 708, 487)" cx="708" cy="487" r="1.2839226965660537" fill="#d14e5b" stroke="#ccc" stroke-width="0.2" opacity="0.6"></polygon></g><g class="key-Thailand_0"><circle cx="292" cy="338" r="1.2542256659682312" fill="#d14e5b" stroke="#ccc" opacity="0.6"></circle><polyline stroke-linecap="round" stroke="#d14e5b" points="292,338 295,345 293,348 321,357 336,372 378,388 372,404 390,411 378,415 391,416 383,419 398,424 402,430 404,437 424,445 446,453 437,460 435,463 428,464 434,465 436,467 443,469 443,470" fill="none" stroke-width="0.5756434523843448" opacity="0.6"></polyline><polygon points="441.7243565476156,476.7243565476156 443,468.7243565476156 444.2756434523843,471.2756434523843" transform="rotate(180.000001529697, 443, 470)" cx="443" cy="470" r="1.2756434523843447" fill="#d14e5b" stroke="#ccc" stroke-width="0.2" opacity="0.6"></polygon></g><g class="key-South-Africa_0"><circle cx="452" cy="487" r="1.215639147446566" fill="#5675c1" stroke="#ccc" opacity="0.6"></circle><polyline stroke-linecap="round" stroke="#5675c1" points="452,487 446,487 458,487 455,487 450,486 446,485 451,484 461,484 457,486 472,487 479,487 478,487 484,487 487,487 491,487 484,487 482,487 483,487 486,487 502,487 505,487 509,487 511,487" fill="none" stroke-width="0.541941456700135" opacity="0.6"></polyline><polygon points="509.75805854329985,493.75805854329985 511,485.75805854329985 512.2419414567001,488.24194145670015" transform="rotate(90.0000007648485, 511, 487)" cx="511" cy="487" r="1.241941456700135" fill="#5675c1" stroke="#ccc" stroke-width="0.2" opacity="0.6"></polygon></g><g class="key-Tanzania_0"><circle cx="283" cy="390" r="1.1902978532866149" fill="#5675c1" stroke="#ccc" opacity="0.6"></circle><polyline stroke-linecap="round" stroke="#5675c1" points="283,390 259,387 246,375 241,363 226,350 228,338 218,333 239,329 234,329 218,327 226,325 248,321 212,322 245,322 255,327 257,334 279,340 255,342 255,338 245,337 274,337 272,344 277,347" fill="none" stroke-width="0.5384956671260396" opacity="0.6"></polyline><polygon points="275.761504332874,353.761504332874 277,345.761504332874 278.2384956671261,348.2384956671261" transform="rotate(120.96375756006182, 277, 347)" cx="277" cy="347" r="1.2384956671260396" fill="#5675c1" stroke="#ccc" stroke-width="0.2" opacity="0.6"></polygon></g><g class="key-Myanmar_0"><circle cx="128" cy="196" r="1.220138157952142" fill="#d14e5b" stroke="#ccc" opacity="0.6"></circle><polyline stroke-linecap="round" stroke="#d14e5b" points="128,196 129,196 141,197 135,201 151,206 156,216 171,225 170,234 170,239 191,248 205,262 217,279 233,296 244,311 256,326 276,342 298,360 324,379 333,396 361,410 370,421 380,429 381,434" fill="none" stroke-width="0.5384323308264918" opacity="0.6"></polyline><polygon points="379.76156766917353,440.76156766917353 381,432.76156766917353 382.2384323308265,435.2384323308265" transform="rotate(168.69006895956142, 381, 434)" cx="381" cy="434" r="1.2384323308264917" fill="#d14e5b" stroke="#ccc" stroke-width="0.2" opacity="0.6"></polygon></g><g class="key-South-Korea_0"><circle cx="490" cy="487" r="1.22725637734023" fill="#d14e5b" stroke="#ccc" opacity="0.6"></circle><polyline stroke-linecap="round" stroke="#d14e5b" points="490,487 505,487 492,487 499,487 511,487 522,487 526,487 499,487 532,487 532,487 528,487 528,487 522,487 533,487 534,487 537,487 545,487 559,487 563,487 586,487 607,487 598,487 601,487" fill="none" stroke-width="0.5377764863618761" opacity="0.6"></polyline><polygon points="599.7622235136381,493.7622235136381 601,485.7622235136381 602.2377764863619,488.23777648636184" transform="rotate(90.0000007648485, 601, 487)" cx="601" cy="487" r="1.237776486361876" fill="#d14e5b" stroke="#ccc" stroke-width="0.2" opacity="0.6"></polygon></g><g class="key-Colombia_0"><circle cx="380" cy="439" r="1.2074172459498511" fill="#69c487" stroke="#ccc" opacity="0.6"></circle><polyline stroke-linecap="round" stroke="#69c487" points="380,439 400,443 414,448 422,453 439,458 435,461 438,462 426,461 437,461 441,462 451,464 442,467 447,467 441,467 428,464 439,463 448,465 449,466 421,464 408,458 417,456 433,456 448,460" fill="none" stroke-width="0.5366128880787088" opacity="0.6"></polyline><polygon points="446.7633871119213,466.7633871119213 448,458.7633871119213 449.2366128880787,461.2366128880787" transform="rotate(104.93141806987796, 448, 460)" cx="448" cy="460" r="1.2366128880787088" fill="#69c487" stroke="#ccc" stroke-width="0.2" opacity="0.6"></polygon></g><g class="key-Kenya_0"><circle cx="224" cy="349" r="1.185254742631618" fill="#5675c1" stroke="#ccc" opacity="0.6"></circle><polyline stroke-linecap="round" stroke="#5675c1" points="224,349 196,334 184,323 233,321 233,334 232,343 222,346 231,344 239,346 231,349 236,349 224,345 218,339 223,341 263,352 263,370 249,380 247,383 264,383 263,387 266,392 272,397 276,401" fill="none" stroke-width="0.5283519163659681" opacity="0.6"></polyline><polygon points="274.77164808363403,407.77164808363403 276,399.77164808363403 277.22835191636597,402.22835191636597" transform="rotate(135.00000114727274, 276, 401)" cx="276" cy="401" r="1.2283519163659682" fill="#5675c1" stroke="#ccc" stroke-width="0.2" opacity="0.6"></polygon></g><g class="key-Argentina_0"><circle cx="508" cy="487" r="1.2057594056436733" fill="#69c487" stroke="#ccc" opacity="0.6"></circle><polyline stroke-linecap="round" stroke="#69c487" points="508,487 527,487 538,487 549,487 552,487 550,487 543,487 552,487 581,487 580,487 566,487 498,487 507,487 513,487 536,487 538,487 546,487 550,487 543,487 549,487 551,487 561,487 571,487" fill="none" stroke-width="0.5234415824819479" opacity="0.6"></polyline><polygon points="569.776558417518,493.77655841751806 571,485.77655841751806 572.2234415824819,488.22344158248194" transform="rotate(90.0000007648485, 571, 487)" cx="571" cy="487" r="1.223441582481948" fill="#69c487" stroke="#ccc" stroke-width="0.2" opacity="0.6"></polygon></g><g class="key-Algeria_0"><circle cx="428" cy="473" r="1.1893414265698443" fill="#5675c1" stroke="#ccc" opacity="0.6"></circle><polyline stroke-linecap="round" stroke="#5675c1" points="428,473 466,475 466,476 437,476 443,473 443,470 428,467 445,466 460,466 451,468 472,470 483,472 496,474 501,476 493,477 518,478 517,480 519,481 536,484 546,487 567,487 583,487 590,487" fill="none" stroke-width="0.5141494569174435" opacity="0.6"></polyline><polygon points="588.7858505430826,493.7858505430826 590,485.7858505430826 591.2141494569174,488.2141494569175" transform="rotate(90.0000007648485, 590, 487)" cx="590" cy="487" r="1.2141494569174436" fill="#5675c1" stroke="#ccc" stroke-width="0.2" opacity="0.6"></polygon></g><g class="key-Uganda_0"><circle cx="295" cy="395" r="1.17015678452305" fill="#5675c1" stroke="#ccc" opacity="0.6"></circle><polyline stroke-linecap="round" stroke="#5675c1" points="295,395 280,389 287,386 283,384 285,379 254,371 262,364 293,361 289,365 294,369 297,370 312,375 327,385 318,397 311,402 296,400 278,393 268,387 273,385 274,386 268,387 263,387 254,386" fill="none" stroke-width="0.5136739318250384" opacity="0.6"></polyline><polygon points="252.78632606817496,392.78632606817496 254,384.78632606817496 255.21367393182504,387.21367393182504" transform="rotate(-83.65980896505764, 254, 386)" cx="254" cy="386" r="1.2136739318250385" fill="#5675c1" stroke="#ccc" stroke-width="0.2" opacity="0.6"></polygon></g><g class="key-Iraq_0"><circle cx="319" cy="472" r="1.168973620385693" fill="#d14e5b" stroke="#ccc" opacity="0.6"></circle><polyline stroke-linecap="round" stroke="#d14e5b" points="319,472 289,444 292,435 283,413 275,406 267,398 245,390 251,383 260,383 268,388 290,394 295,395 289,392 323,388 318,386 325,381 326,379 320,378 344,382 362,385 359,389 369,391 374,393" fill="none" stroke-width="0.5094294678711297" opacity="0.6"></polyline><polygon points="372.79057053212887,399.79057053212887 374,391.79057053212887 375.20942946787113,394.20942946787113" transform="rotate(111.80141043647559, 374, 393)" cx="374" cy="393" r="1.2094294678711297" fill="#d14e5b" stroke="#ccc" stroke-width="0.2" opacity="0.6"></polygon></g><g class="key-Afghanistan_0"><circle cx="230" cy="363" r="1.1584589569077357" fill="#d14e5b" stroke="#ccc" opacity="0.6"></circle><polyline stroke-linecap="round" stroke="#d14e5b" points="230,363 186,333 191,314 165,294 172,283 172,282 181,285 189,290 174,291 156,284 141,277 167,277 186,292 207,314 202,335 207,349 230,361 229,372 240,381 247,388 248,390 246,389 243,386" fill="none" stroke-width="0.5088312634574454" opacity="0.6"></polyline><polygon points="241.79116873654255,392.79116873654255 243,384.79116873654255 244.20883126345743,387.20883126345745" transform="rotate(-45.00000038242425, 243, 386)" cx="243" cy="386" r="1.2088312634574454" fill="#d14e5b" stroke="#ccc" stroke-width="0.2" opacity="0.6"></polygon></g><g class="key-Morocco_0"><circle cx="525" cy="482" r="1.1876777987546085" fill="#5675c1" stroke="#ccc" opacity="0.6"></circle><polyline stroke-linecap="round" stroke="#5675c1" points="525,482 477,478 470,474 505,472 491,473 530,476 533,479 548,481 527,481 523,479 538,479 549,479 563,481 580,483 564,484 583,484 577,485 583,485 589,485 589,486 605,486 610,487 621,487" fill="none" stroke-width="0.5053893141650706" opacity="0.6"></polyline><polygon points="619.794610685835,493.7946106858349 621,485.7946106858349 622.2053893141651,488.2053893141651" transform="rotate(90.0000007648485, 621, 487)" cx="621" cy="487" r="1.2053893141650707" fill="#5675c1" stroke="#ccc" stroke-width="0.2" opacity="0.6"></polygon></g><g class="key-Nepal_0"><circle cx="280" cy="397" r="1.1734237061263486" fill="#d14e5b" stroke="#ccc" opacity="0.6"></circle><polyline stroke-linecap="round" stroke="#d14e5b" points="280,397 283,394 270,390 290,387 286,387 279,387 295,389 287,393 305,396 291,400 296,402 297,406 314,411 325,419 334,426 326,433 340,438 358,445 370,454 378,461 394,466 405,469 411,472" fill="none" stroke-width="0.5023016530956119" opacity="0.6"></polyline><polygon points="409.7976983469044,478.7976983469044 411,470.7976983469044 412.2023016530956,473.2023016530956" transform="rotate(116.56505216768471, 411, 472)" cx="411" cy="472" r="1.2023016530956119" fill="#d14e5b" stroke="#ccc" stroke-width="0.2" opacity="0.6"></polygon></g><g class="key-Venezuela_0"><circle cx="339" cy="441" r="1.175005431860043" fill="#69c487" stroke="#ccc" opacity="0.6"></circle><polyline stroke-linecap="round" stroke="#69c487" points="339,441 367,446 332,446 324,442 342,438 326,431 298,425 319,419 315,421 348,428 363,435 280,436 336,435 359,443 358,453 365,467 392,478 449,487 464,487 449,487 448,487 416,487 399,487" fill="none" stroke-width="0.4996093602988104" opacity="0.6"></polyline><polygon points="397.80039063970116,493.80039063970116 399,485.80039063970116 400.1996093602988,488.1996093602988" transform="rotate(-90.0000007648485, 399, 487)" cx="399" cy="487" r="1.1996093602988105" fill="#69c487" stroke="#ccc" stroke-width="0.2" opacity="0.6"></polygon></g><g class="key-Peru_0"><circle cx="269" cy="353" r="1.1800034484567223" fill="#69c487" stroke="#ccc" opacity="0.6"></circle><polyline stroke-linecap="round" stroke="#69c487" points="269,353 257,370 263,368 276,373 275,379 296,386 309,393 291,397 295,400 322,403 310,408 314,408 297,407 302,405 334,410 342,417 350,426 368,435 379,443 394,451 399,458 413,464 418,468" fill="none" stroke-width="0.49900629659883133" opacity="0.6"></polyline><polygon points="416.80099370340116,474.80099370340116 418,466.80099370340116 419.19900629659884,469.19900629659884" transform="rotate(128.65980934748188, 418, 468)" cx="418" cy="468" r="1.1990062965988313" fill="#69c487" stroke="#ccc" stroke-width="0.2" opacity="0.6"></polygon></g><g class="key-Malaysia_0"><circle cx="404" cy="487" r="1.1711995742766106" fill="#d14e5b" stroke="#ccc" opacity="0.6"></circle><polyline stroke-linecap="round" stroke="#d14e5b" points="404,487 438,487 446,487 458,487 481,487 483,487 478,487 472,487 479,487 459,487 453,487 440,487 445,487 455,487 445,487 450,487 458,487 443,487 458,487 469,487 473,487 476,487 481,487" fill="none" stroke-width="0.49834997482752036" opacity="0.6"></polyline><polygon points="479.8016500251725,493.8016500251725 481,485.8016500251725 482.1983499748275,488.1983499748275" transform="rotate(90.0000007648485, 481, 487)" cx="481" cy="487" r="1.1983499748275204" fill="#d14e5b" stroke="#ccc" stroke-width="0.2" opacity="0.6"></polygon></g><g class="key-Saudi-Arabia_0"><circle cx="466" cy="487" r="1.1657217339173518" fill="#d14e5b" stroke="#ccc" opacity="0.6"></circle><polyline stroke-linecap="round" stroke="#d14e5b" points="466,487 441,487 430,487 419,487 461,487 480,487 498,487 508,487 525,487 537,487 528,487 511,487 506,487 493,487 502,487 518,487 518,487 509,487 507,487 540,487 534,487 582,487 578,487" fill="none" stroke-width="0.4972791846181659" opacity="0.6"></polyline><polygon points="576.8027208153818,493.80272081538186 578,485.80272081538186 579.1972791846181,488.1972791846182" transform="rotate(-90.0000007648485, 578, 487)" cx="578" cy="487" r="1.1972791846181658" fill="#d14e5b" stroke="#ccc" stroke-width="0.2" opacity="0.6"></polygon></g><g class="key-Uzbekistan_0"><circle cx="514" cy="487" r="1.177172143357296" fill="#d14e5b" stroke="#ccc" opacity="0.6"></circle><polyline stroke-linecap="round" stroke="#d14e5b" points="514,487 424,487 420,487 418,487 405,487 388,487 373,482 361,475 341,466 323,454 299,440 300,427 318,423 328,428 352,438 377,450 384,459 389,465 391,467 403,469 417,473 427,479 436,484" fill="none" stroke-width="0.49515328530350866" opacity="0.6"></polyline><polygon points="434.8048467146965,490.8048467146965 436,482.8048467146965 437.19515328530355,485.19515328530355" transform="rotate(119.05460511084087, 436, 484)" cx="436" cy="484" r="1.1951532853035087" fill="#d14e5b" stroke="#ccc" stroke-width="0.2" opacity="0.6"></polygon></g><g class="key-Ghana_0"><circle cx="243" cy="274" r="1.1617012666460136" fill="#5675c1" stroke="#ccc" opacity="0.6"></circle><polyline stroke-linecap="round" stroke="#5675c1" points="243,274 251,326 297,341 307,374 318,390 325,400 331,404 340,409 351,416 364,424 379,432 405,439 409,444 413,449 433,454 454,459 448,465 490,470 514,475 527,479 505,484 517,487 509,487" fill="none" stroke-width="0.489820959117386" opacity="0.6"></polyline><polygon points="507.8101790408826,493.8101790408826 509,485.8101790408826 510.18982095911736,488.18982095911736" transform="rotate(-90.0000007648485, 509, 487)" cx="509" cy="487" r="1.189820959117386" fill="#5675c1" stroke="#ccc" stroke-width="0.2" opacity="0.6"></polygon></g><g class="key-Mozambique_0"><circle cx="134" cy="229" r="1.1578794497798244" fill="#5675c1" stroke="#ccc" opacity="0.6"></circle><polyline stroke-linecap="round" stroke="#5675c1" points="134,229 129,215 129,212 126,213 173,229 200,256 209,281 213,297 217,301 214,300 212,300 229,304 243,312 234,319 228,324 249,326 241,331 264,336 264,344 287,352 291,361 303,368 298,375" fill="none" stroke-width="0.4871713388943823" opacity="0.6"></polyline><polygon points="296.81282866110564,381.81282866110564 298,373.81282866110564 299.1871713388944,376.1871713388944" transform="rotate(-144.4623234357122, 298, 375)" cx="298" cy="375" r="1.1871713388943823" fill="#5675c1" stroke="#ccc" stroke-width="0.2" opacity="0.6"></polygon></g><g class="key-North-Korea_0"><circle cx="323" cy="395" r="1.1757887619620397" fill="#d14e5b" stroke="#ccc" opacity="0.6"></circle><polyline stroke-linecap="round" stroke="#d14e5b" points="323,395 281,388 296,377 288,368 247,354 240,338 255,326 252,322 249,322 259,321 245,322 269,325 271,333 276,338 269,340 257,333 248,323 244,313 242,305 243,301 246,300 247,301 244,301" fill="none" stroke-width="0.48626449005839767" opacity="0.6"></polyline><polygon points="242.8137355099416,307.8137355099416 244,299.8137355099416 245.1862644900584,302.18626449005836" transform="rotate(-90.0000007648485, 244, 301)" cx="244" cy="301" r="1.1862644900583976" fill="#d14e5b" stroke="#ccc" stroke-width="0.2" opacity="0.6"></polygon></g><g class="key-Madagascar_0"><circle cx="245" cy="374" r="1.1512988048789732" fill="#5675c1" stroke="#ccc" opacity="0.6"></circle><polyline stroke-linecap="round" stroke="#5675c1" points="245,374 245,365 245,362 226,355 225,347 222,342 223,339 221,337 219,337 219,337 215,333 202,326 210,318 211,317 234,323 241,336 245,346 234,351 236,352 236,353 241,352 234,351 232,348" fill="none" stroke-width="0.4810893278156442" opacity="0.6"></polyline><polygon points="230.81891067218436,354.81891067218436 232,346.81891067218436 233.18108932781564,349.18108932781564" transform="rotate(-33.690067812288646, 232, 348)" cx="232" cy="348" r="1.1810893278156442" fill="#5675c1" stroke="#ccc" stroke-width="0.2" opacity="0.6"></polygon></g><g class="key-Sri-Lanka_0"><circle cx="271" cy="358" r="1.1680903488865921" fill="#d14e5b" stroke="#ccc" opacity="0.6"></circle><polyline stroke-linecap="round" stroke="#d14e5b" points="271,358 261,354 244,351 300,350 281,354 286,354 295,354 302,354 327,357 308,361 319,362 312,362 312,361 317,362 318,363 325,365 327,369 344,373 346,377 351,381 358,385 364,388 372,392" fill="none" stroke-width="0.47816228809669337" opacity="0.6"></polyline><polygon points="370.8218377119033,398.8218377119033 372,390.8218377119033 373.1781622880967,393.1781622880967" transform="rotate(116.56505216768471, 372, 392)" cx="372" cy="392" r="1.1781622880966933" fill="#d14e5b" stroke="#ccc" stroke-width="0.2" opacity="0.6"></polygon></g><g class="key-Cote-d__0027Ivoire_0"><circle cx="385" cy="458" r="1.1552139864668225" fill="#5675c1" stroke="#ccc" opacity="0.6"></circle><polyline stroke-linecap="round" stroke="#5675c1" points="385,458 386,458 366,456 372,453 382,454 392,454 410,454 401,450 403,444 393,437 397,430 409,428 415,429 429,434 443,438 442,441 445,442 430,441 426,439 429,438 443,439 441,441 447,443" fill="none" stroke-width="0.4773048662189889" opacity="0.6"></polyline><polygon points="445.822695133781,449.822695133781 447,441.822695133781 448.17730486621895,444.17730486621895" transform="rotate(108.43494974443654, 447, 443)" cx="447" cy="443" r="1.1773048662189889" fill="#5675c1" stroke="#ccc" stroke-width="0.2" opacity="0.6"></polygon></g><g class="key-Cameroon_0"><circle cx="221" cy="321" r="1.1539957075949185" fill="#5675c1" stroke="#ccc" opacity="0.6"></circle><polyline stroke-linecap="round" stroke="#5675c1" points="221,321 249,323 223,327 226,323 231,320 226,320 245,325 246,333 251,341 250,349 264,357 276,366 284,375 288,386 306,396 319,406 326,417 345,427 359,437 364,445 382,452 396,458 410,460" fill="none" stroke-width="0.47693745592224673" opacity="0.6"></polyline><polygon points="408.82306254407774,466.82306254407774 410,458.82306254407774 411.17693745592226,461.17693745592226" transform="rotate(98.13010318809667, 410, 460)" cx="410" cy="460" r="1.1769374559222467" fill="#5675c1" stroke="#ccc" stroke-width="0.2" opacity="0.6"></polygon></g><g class="key-Angola_0"><circle cx="105" cy="192" r="1.1483760059864332" fill="#5675c1" stroke="#ccc" opacity="0.6"></circle><polyline stroke-linecap="round" stroke="#5675c1" points="105,192 109,187 91,186 114,187 127,198 139,212 140,226 146,236 161,244 157,254 169,265 192,281 212,301 226,322 239,340 251,354 267,368 287,382 304,396 316,408 334,417 327,424 353,429" fill="none" stroke-width="0.4764272072739073" opacity="0.6"></polyline><polygon points="351.8235727927261,435.8235727927261 353,427.8235727927261 354.17642720727395,430.17642720727395" transform="rotate(100.8855279120159, 353, 429)" cx="353" cy="429" r="1.1764272072739073" fill="#5675c1" stroke="#ccc" stroke-width="0.2" opacity="0.6"></polygon></g><g class="key-Burkina-Faso_0"><circle cx="284" cy="381" r="1.1450631123899426" fill="#5675c1" stroke="#ccc" opacity="0.6"></circle><polyline stroke-linecap="round" stroke="#5675c1" points="284,381 301,389 307,395 316,402 314,406 314,407 306,402 299,394 316,385 308,378 312,373 335,371 359,373 362,377 350,382 378,384 374,387 386,390 401,395 413,399 408,403 420,405 424,407" fill="none" stroke-width="0.46934804963372734" opacity="0.6"></polyline><polygon points="422.83065195036625,413.83065195036625 424,405.83065195036625 425.1693480496337,408.1693480496337" transform="rotate(116.56505216768471, 424, 407)" cx="424" cy="407" r="1.1693480496337274" fill="#5675c1" stroke="#ccc" stroke-width="0.2" opacity="0.6"></polygon></g><g class="key-Chile_0"><circle cx="390" cy="467" r="1.1566179281464137" fill="#69c487" stroke="#ccc" opacity="0.6"></circle><polyline stroke-linecap="round" stroke="#69c487" points="390,467 421,471 422,476 431,480 434,483 441,484 444,486 446,486 447,487 457,487 467,487 476,487 473,487 481,487 479,487 492,487 485,487 488,487 474,487 480,487 492,487 493,487 499,487" fill="none" stroke-width="0.4681754447487121" opacity="0.6"></polyline><polygon points="497.8318245552513,493.8318245552513 499,485.8318245552513 500.16817544474867,488.16817544474867" transform="rotate(90.0000007648485, 499, 487)" cx="499" cy="487" r="1.168175444748712" fill="#69c487" stroke="#ccc" stroke-width="0.2" opacity="0.6"></polygon></g><g class="key-Niger_0"><circle cx="243" cy="372" r="1.1401618813418481" fill="#5675c1" stroke="#ccc" opacity="0.6"></circle><polyline stroke-linecap="round" stroke="#5675c1" points="243,372 236,356 228,349 214,337 234,336 245,345 267,358 270,371 279,384 311,397 315,409 306,416 332,422 347,428 345,435 344,439 350,443 367,448 367,453 370,456 371,459 380,461 374,462" fill="none" stroke-width="0.4672720402373769" opacity="0.6"></polyline><polygon points="372.8327279597626,468.8327279597626 374,460.8327279597626 375.1672720402374,463.1672720402374" transform="rotate(-99.46232305328793, 374, 462)" cx="374" cy="462" r="1.1672720402373769" fill="#5675c1" stroke="#ccc" stroke-width="0.2" opacity="0.6"></polygon></g><g class="key-Mali_0"><circle cx="324" cy="428" r="1.1428022535279663" fill="#5675c1" stroke="#ccc" opacity="0.6"></circle><polyline stroke-linecap="round" stroke="#5675c1" points="324,428 319,425 316,423 312,420 315,420 324,421 321,424 340,428 347,435 347,442 361,449 360,452 367,455 372,457 385,461 405,467 425,473 441,480 456,486 451,487 456,487 464,487 473,487" fill="none" stroke-width="0.4660996609321175" opacity="0.6"></polyline><polygon points="471.8339003390679,493.8339003390679 473,485.8339003390679 474.1660996609321,488.1660996609321" transform="rotate(90.0000007648485, 473, 487)" cx="473" cy="487" r="1.1660996609321175" fill="#5675c1" stroke="#ccc" stroke-width="0.2" opacity="0.6"></polygon></g><g class="key-Kazakhstan_0"><circle cx="514" cy="487" r="1.1652941737956244" fill="#d14e5b" stroke="#ccc" opacity="0.6"></circle><polyline stroke-linecap="round" stroke="#d14e5b" points="514,487 489,487 489,487 489,487 468,487 465,487 463,487 426,487 431,487 449,487 473,487 486,487 497,487 499,485 514,484 526,487 551,487 558,487 549,487 546,487 564,487 559,487 581,487" fill="none" stroke-width="0.46539685299801425" opacity="0.6"></polyline><polygon points="579.834603147002,493.834603147002 581,485.834603147002 582.165396852998,488.165396852998" transform="rotate(90.0000007648485, 581, 487)" cx="581" cy="487" r="1.1653968529980143" fill="#d14e5b" stroke="#ccc" stroke-width="0.2" opacity="0.6"></polygon></g><g class="key-Malawi_0"><circle cx="192" cy="287" r="1.1450745392570438" fill="#5675c1" stroke="#ccc" opacity="0.6"></circle><polyline stroke-linecap="round" stroke="#5675c1" points="192,287 159,282 182,276 188,282 218,294 222,313 233,327 250,341 268,355 276,368 285,376 267,378 265,374 265,371 272,372 294,379 301,388 308,396 306,400 312,402 317,405 313,406 323,407" fill="none" stroke-width="0.46500208143442057" opacity="0.6"></polyline><polygon points="321.8349979185656,413.8349979185656 323,405.8349979185656 324.1650020814344,408.1650020814344" transform="rotate(95.71059395087858, 323, 407)" cx="323" cy="407" r="1.1650020814344206" fill="#5675c1" stroke="#ccc" stroke-width="0.2" opacity="0.6"></polygon></g><g class="key-Guatemala_0"><circle cx="309" cy="437" r="1.1436549502681312" fill="#4d824b" stroke="#ccc" opacity="0.6"></circle><polyline stroke-linecap="round" stroke="#4d824b" points="309,437 298,435 313,435 321,436 296,434 287,426 255,415 262,403 257,400 263,401 280,409 320,418 316,427 310,430 327,430 336,432 346,434 326,436 349,436 341,438 356,438 337,438 337,435" fill="none" stroke-width="0.46257082221697643" opacity="0.6"></polyline><polygon points="335.837429177783,441.837429177783 337,433.837429177783 338.16257082221694,436.16257082221694" transform="rotate(0, 337, 435)" cx="337" cy="435" r="1.1625708222169764" fill="#4d824b" stroke="#ccc" stroke-width="0.2" opacity="0.6"></polygon></g><g class="key-Ecuador_0"><circle cx="273" cy="414" r="1.147886880364135" fill="#69c487" stroke="#ccc" opacity="0.6"></circle><polyline stroke-linecap="round" stroke="#69c487" points="273,414 309,414 309,426 334,433 306,438 303,436 312,433 289,429 312,425 299,422 279,418 285,415 275,413 282,412 288,415 283,417 278,422 302,426 300,433 317,440 325,448 317,453 316,455" fill="none" stroke-width="0.46126739655548604" opacity="0.6"></polyline><polygon points="314.8387326034445,461.8387326034445 316,453.8387326034445 317.16126739655544,456.16126739655544" transform="rotate(-153.4349501268608, 316, 455)" cx="316" cy="455" r="1.161267396555486" fill="#69c487" stroke="#ccc" stroke-width="0.2" opacity="0.6"></polygon></g><g class="key-Cambodia_0"><circle cx="219" cy="350" r="1.1459598897520709" fill="#d14e5b" stroke="#ccc" opacity="0.6"></circle><polyline stroke-linecap="round" stroke="#d14e5b" points="219,350 228,362 224,366 228,369 228,364 188,351 187,334 210,327 232,335 250,351 266,368 293,382 292,393 296,401 311,407 325,413 329,420 333,424 337,426 337,426 340,427 341,429 354,433" fill="none" stroke-width="0.4601251490966818" opacity="0.6"></polyline><polygon points="352.8398748509033,439.8398748509033 354,431.8398748509033 355.16012514909664,434.16012514909664" transform="rotate(107.10272987924527, 354, 433)" cx="354" cy="433" r="1.1601251490966817" fill="#d14e5b" stroke="#ccc" stroke-width="0.2" opacity="0.6"></polygon></g><g class="key-Zambia_0"><circle cx="219" cy="342" r="1.1402640285082448" fill="#5675c1" stroke="#ccc" opacity="0.6"></circle><polyline stroke-linecap="round" stroke="#5675c1" points="219,342 212,336 211,335 223,334 231,339 227,340 208,333 197,320 205,307 180,296 174,283 173,275 188,269 178,267 180,263 170,256 154,247 160,242 182,244 189,251 190,258 195,263 197,266" fill="none" stroke-width="0.4591565378454291" opacity="0.6"></polyline><polygon points="195.84084346215457,272.84084346215457 197,264.84084346215457 198.15915653784543,267.15915653784543" transform="rotate(146.30993371740837, 197, 266)" cx="197" cy="266" r="1.1591565378454292" fill="#5675c1" stroke="#ccc" stroke-width="0.2" opacity="0.6"></polygon></g><g class="key-Senegal_0"><circle cx="286" cy="389" r="1.138292600992902" fill="#5675c1" stroke="#ccc" opacity="0.6"></circle><polyline stroke-linecap="round" stroke="#5675c1" points="286,389 248,384 282,375 260,373 265,368 248,364 250,356 248,353 261,356 264,364 267,370 258,374 281,379 288,388 285,397 306,406 315,417 343,428 345,439 342,444 340,447 344,450 348,455" fill="none" stroke-width="0.45668983014099607" opacity="0.6"></polyline><polygon points="346.843310169859,461.843310169859 348,453.843310169859 349.15668983014103,456.15668983014103" transform="rotate(141.34019294706363, 348, 455)" cx="348" cy="455" r="1.156689830140996" fill="#5675c1" stroke="#ccc" stroke-width="0.2" opacity="0.6"></polygon></g><g class="key-Zimbabwe_0"><circle cx="206" cy="297" r="1.1486647184434629" fill="#5675c1" stroke="#ccc" opacity="0.6"></circle><polyline stroke-linecap="round" stroke="#5675c1" points="206,297 204,288 200,285 197,280 201,279 212,281 219,287 221,291 216,292 211,292 225,292 223,294 220,296 230,298 224,302 250,308 248,317 244,324 259,331 265,337 274,343 274,345 249,343" fill="none" stroke-width="0.4563245267496117" opacity="0.6"></polyline><polygon points="247.84367547325039,349.8436754732504 249,341.8436754732504 250.15632452674961,344.15632452674964" transform="rotate(-85.42607946607701, 249, 343)" cx="249" cy="343" r="1.1563245267496116" fill="#5675c1" stroke="#ccc" stroke-width="0.2" opacity="0.6"></polygon></g><g class="key-Chad_0"><circle cx="159" cy="214" r="1.134090857817149" fill="#5675c1" stroke="#ccc" opacity="0.6"></circle><polyline stroke-linecap="round" stroke="#5675c1" points="159,214 165,228 117,231 211,239 159,252 164,255 187,269 228,283 214,302 202,310 222,310 208,309 224,309 224,312 227,312 223,312 225,309 225,306 223,305 233,305 235,310 253,315 249,323" fill="none" stroke-width="0.45285052746100973" opacity="0.6"></polyline><polygon points="247.847149472539,329.847149472539 249,321.847149472539 250.15285052746103,324.152850527461" transform="rotate(-153.4349501268608, 249, 323)" cx="249" cy="323" r="1.1528505274610097" fill="#5675c1" stroke="#ccc" stroke-width="0.2" opacity="0.6"></polygon></g><g class="key-Rwanda_0"><circle cx="203" cy="232" r="1.1363459052940705" fill="#5675c1" stroke="#ccc" opacity="0.6"></circle><polyline stroke-linecap="round" stroke="#5675c1" points="203,232 186,240 199,229 177,222 163,205 151,190 137,180 142,177 142,187 176,206 192,238 244,265 218,280 208,280 228,277 230,278 232,284 246,296 273,310 274,324 278,334 295,339 283,343" fill="none" stroke-width="0.45126205280975096" opacity="0.6"></polyline><polygon points="281.8487379471903,349.8487379471903 283,341.8487379471903 284.1512620528098,344.1512620528098" transform="rotate(-108.43494974443654, 283, 343)" cx="283" cy="343" r="1.151262052809751" fill="#5675c1" stroke="#ccc" stroke-width="0.2" opacity="0.6"></polygon></g><g class="key-Cuba_0"><circle cx="429" cy="483" r="1.1483778552882005" fill="#4d824b" stroke="#ccc" opacity="0.6"></circle><polyline stroke-linecap="round" stroke="#4d824b" points="429,483 362,467 309,446 321,420 310,408 346,411 379,427 404,449 475,468 514,484 527,487 549,487 576,487 604,487 578,487 580,487 577,487 539,487 572,487 551,487 587,487 604,487 622,487" fill="none" stroke-width="0.45016843988128935" opacity="0.6"></polyline><polygon points="620.8498315601187,493.84983156011873 622,485.84983156011873 623.1501684398812,488.1501684398813" transform="rotate(90.0000007648485, 622, 487)" cx="622" cy="487" r="1.1501684398812895" fill="#4d824b" stroke="#ccc" stroke-width="0.2" opacity="0.6"></polygon></g><g class="key-Tunisia_0"><circle cx="537" cy="487" r="1.1412535688416372" fill="#5675c1" stroke="#ccc" opacity="0.6"></circle><polyline stroke-linecap="round" stroke="#5675c1" points="537,487 546,487 552,487 537,487 541,487 562,487 576,487 592,487 612,487 577,487 579,487 560,487 574,487 576,487 568,487 583,487 577,487 592,487 601,487 599,487 608,487 617,487 605,487" fill="none" stroke-width="0.4488639746494487" opacity="0.6"></polyline><polygon points="603.8511360253506,493.85113602535057 605,485.85113602535057 606.1488639746494,488.1488639746495" transform="rotate(-90.0000007648485, 605, 487)" cx="605" cy="487" r="1.1488639746494487" fill="#5675c1" stroke="#ccc" stroke-width="0.2" opacity="0.6"></polygon></g><g class="key-Guinea_0"><circle cx="338" cy="395" r="1.1337054492944763" fill="#5675c1" stroke="#ccc" opacity="0.6"></circle><polyline stroke-linecap="round" stroke="#5675c1" points="338,395 346,397 341,398 335,396 325,392 318,386 301,378 293,371 310,371 320,375 312,381 320,384 332,386 340,390 344,396 362,401 362,408 371,412 374,417 375,420 374,422 378,424 380,426" fill="none" stroke-width="0.44868136251165824" opacity="0.6"></polyline><polygon points="378.85131863748836,432.85131863748836 380,424.85131863748836 381.1486813625117,427.1486813625117" transform="rotate(135.00000114727274, 380, 426)" cx="380" cy="426" r="1.1486813625116583" fill="#5675c1" stroke="#ccc" stroke-width="0.2" opacity="0.6"></polygon></g><g class="key-Bolivia_0"><circle cx="223" cy="320" r="1.1361552902706888" fill="#69c487" stroke="#ccc" opacity="0.6"></circle><polyline stroke-linecap="round" stroke="#69c487" points="223,320 223,331 219,328 205,332 247,334 230,342 233,340 203,336 228,331 239,338 241,347 246,356 251,357 232,356 247,355 263,361 264,367 259,371 255,371 268,376 281,389 284,406 291,420" fill="none" stroke-width="0.44763027469936745" opacity="0.6"></polyline><polygon points="289.8523697253006,426.8523697253006 291,418.8523697253006 292.14763027469934,421.14763027469934" transform="rotate(153.4349501268608, 291, 420)" cx="291" cy="420" r="1.1476302746993674" fill="#69c487" stroke="#ccc" stroke-width="0.2" opacity="0.6"></polygon></g><g class="key-Haiti_0"><circle cx="146" cy="204" r="1.1376755573569661" fill="#4d824b" stroke="#ccc" opacity="0.6"></circle><polyline stroke-linecap="round" stroke="#4d824b" points="146,204 137,202 135,196 131,194 148,195 162,202 171,211 194,221 204,229 205,234 187,234 189,229 180,225 185,221 184,222 200,224 208,231 221,238 234,248 266,257 245,263 241,263 243,256" fill="none" stroke-width="0.4475648177496867" opacity="0.6"></polyline><polygon points="241.8524351822503,262.8524351822503 243,254.8524351822503 244.14756481774967,257.1475648177497" transform="rotate(15.94539603643188, 243, 256)" cx="243" cy="256" r="1.1475648177496867" fill="#4d824b" stroke="#ccc" stroke-width="0.2" opacity="0.6"></polygon></g><g class="key-Dominican-Republic_0"><circle cx="258" cy="339" r="1.1378934228934139" fill="#4d824b" stroke="#ccc" opacity="0.6"></circle><polyline stroke-linecap="round" stroke="#4d824b" points="258,339 257,350 280,357 289,370 291,376 267,374 261,364 257,354 260,351 281,357 291,369 299,374 258,373 279,369 311,376 323,390 333,403 318,409 330,412 370,421 379,432 382,442 394,447" fill="none" stroke-width="0.4473197060301382" opacity="0.6"></polyline><polygon points="392.85268029396985,453.85268029396985 394,445.85268029396985 395.14731970603015,448.14731970603015" transform="rotate(112.61986590511971, 394, 447)" cx="394" cy="447" r="1.1473197060301383" fill="#4d824b" stroke="#ccc" stroke-width="0.2" opacity="0.6"></polygon></g><g class="key-Benin_0"><circle cx="274" cy="370" r="1.1297535133896466" fill="#5675c1" stroke="#ccc" opacity="0.6"></circle><polyline stroke-linecap="round" stroke="#5675c1" points="274,370 258,372 262,368 268,370 275,373 289,380 287,384 285,386 284,388 287,392 308,399 332,408 321,418 350,425 342,432 346,437 379,442 367,447 380,449 377,451 389,452 392,458 395,465" fill="none" stroke-width="0.44514580187280145" opacity="0.6"></polyline><polygon points="393.8548541981272,471.8548541981272 395,463.8548541981272 396.14514580187284,466.14514580187284" transform="rotate(156.80141081889985, 395, 465)" cx="395" cy="465" r="1.1451458018728013" fill="#5675c1" stroke="#ccc" stroke-width="0.2" opacity="0.6"></polygon></g><g class="key-Azerbaijan_0"><circle cx="514" cy="393" r="1.1378531724997374" fill="#d14e5b" stroke="#ccc" opacity="0.6"></circle><polyline stroke-linecap="round" stroke="#d14e5b" points="514,393 308,393 285,393 263,393 253,384 281,374 223,371 251,368 270,379 298,399 324,426 350,448 376,465 401,478 458,487 506,487 510,487 512,487 503,487 497,487 516,487 521,487 539,487" fill="none" stroke-width="0.444917615029498" opacity="0.6"></polyline><polygon points="537.8550823849705,493.8550823849705 539,485.8550823849705 540.1449176150295,488.1449176150295" transform="rotate(90.0000007648485, 539, 487)" cx="539" cy="487" r="1.144917615029498" fill="#d14e5b" stroke="#ccc" stroke-width="0.2" opacity="0.6"></polygon></g><g class="key-United-Arab-Emirates_0"><circle cx="526" cy="487" r="1.1187317589955583" fill="#d14e5b" stroke="#ccc" opacity="0.6"></circle><polyline stroke-linecap="round" stroke="#d14e5b" points="526,487 561,487 572,487 596,487 580,487 578,487 579,487 594,487 613,487 590,487 597,487 607,487 602,487 587,487 564,487 563,487 558,487 548,487 554,487 551,487 565,487 571,487 585,487" fill="none" stroke-width="0.4407151423671488" opacity="0.6"></polyline><polygon points="583.8592848576328,493.8592848576329 585,485.8592848576329 586.1407151423671,488.1407151423672" transform="rotate(90.0000007648485, 585, 487)" cx="585" cy="487" r="1.1407151423671489" fill="#d14e5b" stroke="#ccc" stroke-width="0.2" opacity="0.6"></polygon></g><g class="key-Honduras_0"><circle cx="297" cy="396" r="1.130076831847966" fill="#4d824b" stroke="#ccc" opacity="0.6"></circle><polyline stroke-linecap="round" stroke="#4d824b" points="297,396 309,398 312,402 319,405 329,409 335,412 333,415 335,415 331,415 323,416 347,419 353,422 356,426 355,427 358,428 369,429 381,432 390,435 388,437 388,437 397,439 398,443 401,448" fill="none" stroke-width="0.44027548801296845" opacity="0.6"></polyline><polygon points="399.85972451198705,454.85972451198705 401,446.85972451198705 402.140275488013,449.140275488013" transform="rotate(149.0362447344837, 401, 448)" cx="401" cy="448" r="1.1402754880129684" fill="#4d824b" stroke="#ccc" stroke-width="0.2" opacity="0.6"></polygon></g><g class="key-Tajikistan_0"><circle cx="514" cy="370" r="1.1314340932740419" fill="#d14e5b" stroke="#ccc" opacity="0.6"></circle><polyline stroke-linecap="round" stroke="#d14e5b" points="514,370 230,370 236,370 226,370 209,358 198,342 192,328 198,320 199,318 205,316 206,313 200,305 204,297 211,295 233,299 235,308 235,315 240,319 245,320 247,323 231,327 263,331 275,336" fill="none" stroke-width="0.43737923825235964" opacity="0.6"></polyline><polygon points="273.8626207617476,342.8626207617476 275,334.8626207617476 276.1373792382523,337.1373792382523" transform="rotate(112.61986590511971, 275, 336)" cx="275" cy="336" r="1.1373792382523598" fill="#d14e5b" stroke="#ccc" stroke-width="0.2" opacity="0.6"></polygon></g><g class="key-Paraguay_0"><circle cx="329" cy="414" r="1.1277143772344858" fill="#69c487" stroke="#ccc" opacity="0.6"></circle><polyline stroke-linecap="round" stroke="#69c487" points="329,414 327,412 345,415 375,421 371,429 375,434 390,437 388,439 401,442 386,445 401,447 412,451 428,456 407,459 388,458 396,456 382,455 371,452 369,450 382,450 394,451 387,453 386,454" fill="none" stroke-width="0.43610340803391723" opacity="0.6"></polyline><polygon points="384.86389659196607,460.86389659196607 386,452.86389659196607 387.1361034080339,455.1361034080339" transform="rotate(-135.00000114727274, 386, 454)" cx="386" cy="454" r="1.1361034080339172" fill="#69c487" stroke="#ccc" stroke-width="0.2" opacity="0.6"></polygon></g><g class="key-Jordan_0"><circle cx="453" cy="484" r="1.1250090684045568" fill="#d14e5b" stroke="#ccc" opacity="0.6"></circle><polyline stroke-linecap="round" stroke="#d14e5b" points="453,484 430,483 426,478 398,474 415,470 407,470 432,471 426,473 406,475 426,477 458,482 487,487 527,487 540,487 539,487 549,487 540,487 525,487 533,487 535,487 545,487 545,487 534,487" fill="none" stroke-width="0.43535168415695735" opacity="0.6"></polyline><polygon points="532.864648315843,493.86464831584306 534,485.86464831584306 535.135351684157,488.13535168415694" transform="rotate(-90.0000007648485, 534, 487)" cx="534" cy="487" r="1.1353516841569573" fill="#d14e5b" stroke="#ccc" stroke-width="0.2" opacity="0.6"></polygon></g><g class="key-Laos_0"><circle cx="214" cy="296" r="1.127565445063872" fill="#d14e5b" stroke="#ccc" opacity="0.6"></circle><polyline stroke-linecap="round" stroke="#d14e5b" points="214,296 205,292 205,290 212,288 210,290 225,295 227,302 231,305 228,311 250,314 243,321 256,327 269,337 277,350 294,363 287,376 297,383 288,388 307,390 315,397 333,404 326,411 347,414" fill="none" stroke-width="0.43496980554048803" opacity="0.6"></polyline><polygon points="345.8650301944595,420.8650301944595 347,412.8650301944595 348.1349698055405,415.1349698055405" transform="rotate(98.13010318809667, 347, 414)" cx="347" cy="414" r="1.134969805540488" fill="#d14e5b" stroke="#ccc" stroke-width="0.2" opacity="0.6"></polygon></g><g class="key-Togo_0"><circle cx="197" cy="321" r="1.1255454043945927" fill="#5675c1" stroke="#ccc" opacity="0.6"></circle><polyline stroke-linecap="round" stroke="#5675c1" points="197,321 187,304 205,307 229,312 230,327 249,341 261,351 252,358 260,362 266,365 262,367 262,369 274,372 288,377 285,385 298,390 302,395 308,400 315,405 323,409 327,417 336,426 348,439" fill="none" stroke-width="0.4348142181418134" opacity="0.6"></polyline><polygon points="346.8651857818582,445.8651857818582 348,437.8651857818582 349.13481421814186,440.13481421814186" transform="rotate(137.29061120937763, 348, 439)" cx="348" cy="439" r="1.1348142181418135" fill="#5675c1" stroke="#ccc" stroke-width="0.2" opacity="0.6"></polygon></g><g class="key-El-Salvador_0"><circle cx="334" cy="430" r="1.131415089092687" fill="#4d824b" stroke="#ccc" opacity="0.6"></circle><polyline stroke-linecap="round" stroke="#4d824b" points="334,430 335,436 327,435 326,435 330,434 333,435 340,437 341,439 335,443 373,449 398,459 402,465 389,467 380,465 381,461 383,458 380,457 382,456 382,454 365,452 371,449 378,447 383,448" fill="none" stroke-width="0.4344448070490857" opacity="0.6"></polyline><polygon points="381.8655551929509,454.8655551929509 383,446.8655551929509 384.1344448070491,449.1344448070491" transform="rotate(101.30993333498411, 383, 448)" cx="383" cy="448" r="1.1344448070490858" fill="#4d824b" stroke="#ccc" stroke-width="0.2" opacity="0.6"></polygon></g><g class="key-Sierra-Leone_0"><circle cx="214" cy="296" r="1.1264350357788262" fill="#5675c1" stroke="#ccc" opacity="0.6"></circle><polyline stroke-linecap="round" stroke="#5675c1" points="214,296 222,302 228,307 250,316 256,327 268,336 275,343 261,342 237,334 214,320 215,309 230,305 226,306 224,308 240,314 262,325 273,339 274,349 289,357 296,366 313,376 325,386 333,394" fill="none" stroke-width="0.4342845348128611" opacity="0.6"></polyline><polygon points="331.8657154651871,400.8657154651871 333,392.8657154651871 334.1342845348128,395.1342845348128" transform="rotate(135.00000114727274, 333, 394)" cx="333" cy="394" r="1.1342845348128612" fill="#5675c1" stroke="#ccc" stroke-width="0.2" opacity="0.6"></polygon></g><g class="key-Nicaragua_0"><circle cx="160" cy="238" r="1.1272343002425989" fill="#4d824b" stroke="#ccc" opacity="0.6"></circle><polyline stroke-linecap="round" stroke="#4d824b" points="160,238 155,246 173,252 196,268 207,285 210,296 204,303 236,309 240,321 255,337 304,354 301,369 309,379 321,386 332,390 335,395 352,400 351,404 353,406 365,410 373,414 378,419 401,423" fill="none" stroke-width="0.4335630316333343" opacity="0.6"></polyline><polygon points="399.86643696836666,429.86643696836666 401,421.86643696836666 402.13356303163334,424.13356303163334" transform="rotate(99.86580779177562, 401, 423)" cx="401" cy="423" r="1.1335630316333343" fill="#4d824b" stroke="#ccc" stroke-width="0.2" opacity="0.6"></polygon></g><g class="key-Kyrgyzstan_0"><circle cx="514" cy="432" r="1.1280233407277696" fill="#d14e5b" stroke="#ccc" opacity="0.6"></circle><polyline stroke-linecap="round" stroke="#d14e5b" points="514,432 410,432 334,432 337,432 327,433 355,433 401,441 360,446 367,442 331,436 348,428 358,429 397,437 430,450 434,460 407,465 413,466 412,466 429,468 444,472 439,476 440,479 452,481" fill="none" stroke-width="0.43172476698390605" opacity="0.6"></polyline><polygon points="450.8682752330161,487.8682752330161 452,479.8682752330161 453.1317247669839,482.1317247669839" transform="rotate(99.46232305328793, 452, 481)" cx="452" cy="481" r="1.1317247669839061" fill="#d14e5b" stroke="#ccc" stroke-width="0.2" opacity="0.6"></polygon></g><g class="key-Turkmenistan_0"><circle cx="514" cy="469" r="1.125634095987301" fill="#d14e5b" stroke="#ccc" opacity="0.6"></circle><polyline stroke-linecap="round" stroke="#d14e5b" points="514,469 378,469 383,469 374,469 372,466 363,463 372,461 378,461 390,464 393,467 396,470 413,472 430,476 451,480 456,484 457,487 476,487 468,487 468,487 466,487 462,487 459,487 459,487" fill="none" stroke-width="0.4307981690796059" opacity="0.6"></polyline><polygon points="457.8692018309204,493.8692018309204 459,485.8692018309204 460.13079816907964,488.13079816907964" transform="rotate(90.0000007648485, 459, 487)" cx="459" cy="487" r="1.1307981690796058" fill="#d14e5b" stroke="#ccc" stroke-width="0.2" opacity="0.6"></polygon></g><g class="key-Costa-Rica_0"><circle cx="426" cy="486" r="1.123361354938066" fill="#4d824b" stroke="#ccc" opacity="0.6"></circle><polyline stroke-linecap="round" stroke="#4d824b" points="426,486 421,485 432,485 431,485 439,485 422,484 424,483 435,482 448,484 447,486 447,487 437,485 432,482 436,481 451,482 468,484 464,486 460,486 460,486 461,486 471,486 462,485 461,483" fill="none" stroke-width="0.42949460188894517" opacity="0.6"></polyline><polygon points="459.87050539811105,489.87050539811105 461,481.87050539811105 462.12949460188895,484.12949460188895" transform="rotate(-26.565051402836207, 461, 483)" cx="461" cy="483" r="1.1294946018889451" fill="#4d824b" stroke="#ccc" stroke-width="0.2" opacity="0.6"></polygon></g><g class="key-Central-African-Republic_0"><circle cx="192" cy="274" r="1.1228460301918326" fill="#5675c1" stroke="#ccc" opacity="0.6"></circle><polyline stroke-linecap="round" stroke="#5675c1" points="192,274 189,272 181,268 182,264 183,262 187,263 193,269 213,276 197,285 212,290 213,296 216,298 207,299 214,299 224,301 225,307 243,315 255,325 257,334 264,340 261,342 250,334 182,313" fill="none" stroke-width="0.4288175484437361" opacity="0.6"></polyline><polygon points="180.87118245155625,319.87118245155625 182,311.87118245155625 183.12881754844372,314.12881754844375" transform="rotate(-72.83808181613578, 182, 313)" cx="182" cy="313" r="1.1288175484437362" fill="#5675c1" stroke="#ccc" stroke-width="0.2" opacity="0.6"></polygon></g><g class="key-Liberia_0"><circle cx="318" cy="366" r="1.1194220837601683" fill="#5675c1" stroke="#ccc" opacity="0.6"></circle><polyline stroke-linecap="round" stroke="#5675c1" points="318,366 301,373 252,357 236,340 213,318 214,309 266,314 258,325 244,331 252,328 228,321 236,312 232,308 243,308 263,312 250,316 259,321 282,328 283,333 274,336 290,337 274,340 276,344" fill="none" stroke-width="0.42769455352372804" opacity="0.6"></polyline><polygon points="274.8723054464763,350.8723054464763 276,342.8723054464763 277.1276945535237,345.1276945535237" transform="rotate(153.4349501268608, 276, 344)" cx="276" cy="344" r="1.1276945535237282" fill="#5675c1" stroke="#ccc" stroke-width="0.2" opacity="0.6"></polygon></g><g class="key-Congo_0"><circle cx="217" cy="294" r="1.1207890126162814" fill="#5675c1" stroke="#ccc" opacity="0.6"></circle><polyline stroke-linecap="round" stroke="#5675c1" points="217,294 220,294 215,292 211,289 211,285 208,283 215,285 230,294 245,311 268,331 284,351 291,365 285,373 293,368 229,360 258,347 256,344 249,344 258,348 258,353 270,361 262,369 277,371" fill="none" stroke-width="0.42760750338236386" opacity="0.6"></polyline><polygon points="275.87239249661764,377.87239249661764 277,369.87239249661764 278.12760750338236,372.12760750338236" transform="rotate(97.59464419798164, 277, 371)" cx="277" cy="371" r="1.1276075033823638" fill="#5675c1" stroke="#ccc" stroke-width="0.2" opacity="0.6"></polygon></g><g class="key-Lebanon_0"><circle cx="586" cy="487" r="1.1229149882726575" fill="#d14e5b" stroke="#ccc" opacity="0.6"></circle><polyline stroke-linecap="round" stroke="#d14e5b" points="586,487 578,487 577,487 586,487 588,487 588,487 612,487 610,487 615,487 588,487 596,487 582,487 562,487 555,487 540,487 542,487 557,487 541,487 546,487 551,487 541,487 531,487 524,487" fill="none" stroke-width="0.42760701016203195" opacity="0.6"></polyline><polygon points="522.872392989838,493.872392989838 524,485.872392989838 525.127607010162,488.127607010162" transform="rotate(-90.0000007648485, 524, 487)" cx="524" cy="487" r="1.127607010162032" fill="#d14e5b" stroke="#ccc" stroke-width="0.2" opacity="0.6"></polygon></g><g class="key-Georgia_0"><circle cx="514" cy="227" r="1.1314331837819243" fill="#d14e5b" stroke="#ccc" opacity="0.6"></circle><polyline stroke-linecap="round" stroke="#d14e5b" points="514,227 196,104 192,174 205,184 329,278 373,364 403,430 391,456 392,449 380,438 401,430 433,443 466,459 477,473 500,480 466,482 476,480 498,478 489,474 460,467 449,461 458,461 477,466" fill="none" stroke-width="0.4274449248362549" opacity="0.6"></polyline><polygon points="475.87255507516375,472.87255507516375 477,464.87255507516375 478.12744492483625,467.12744492483625" transform="rotate(104.74356372661471, 477, 466)" cx="477" cy="466" r="1.1274449248362548" fill="#d14e5b" stroke="#ccc" stroke-width="0.2" opacity="0.6"></polygon></g><g class="key-Mauritania_0"><circle cx="366" cy="439" r="1.119266912305774" fill="#5675c1" stroke="#ccc" opacity="0.6"></circle><polyline stroke-linecap="round" stroke="#5675c1" points="366,439 372,440 390,441 369,442 382,441 390,442 396,445 405,448 400,452 399,454 397,456 401,456 422,457 389,457 398,455 390,456 426,459 439,466 436,470 446,472 449,474 468,476 469,480" fill="none" stroke-width="0.42538901037772847" opacity="0.6"></polyline><polygon points="467.8746109896223,486.8746109896223 469,478.8746109896223 470.1253890103777,481.1253890103777" transform="rotate(165.96375794248607, 469, 480)" cx="469" cy="480" r="1.1253890103777284" fill="#5675c1" stroke="#ccc" stroke-width="0.2" opacity="0.6"></polygon></g><g class="key-Panama_0"><circle cx="275" cy="379" r="1.1208345313118895" fill="#4d824b" stroke="#ccc" opacity="0.6"></circle><polyline stroke-linecap="round" stroke="#4d824b" points="275,379 304,382 315,392 316,395 282,394 289,383 268,380 329,379 277,381 255,374 293,373 316,380 322,389 289,394 313,392 317,397 351,406 367,419 367,429 384,438 403,445 419,452 428,458" fill="none" stroke-width="0.4252945439726611" opacity="0.6"></polyline><polygon points="426.87470545602736,464.87470545602736 428,456.87470545602736 429.1252945439727,459.1252945439727" transform="rotate(123.69006857713714, 428, 458)" cx="428" cy="458" r="1.1252945439726612" fill="#4d824b" stroke="#ccc" stroke-width="0.2" opacity="0.6"></polygon></g><g class="key-Uruguay_0"><circle cx="418" cy="469" r="1.1233014712659768" fill="#69c487" stroke="#ccc" opacity="0.6"></circle><polyline stroke-linecap="round" stroke="#69c487" points="418,469 436,480 432,483 442,487 412,487 453,486 450,486 453,487 454,487 450,487 467,487 458,487 457,487 456,487 450,487 454,487 473,487 493,487 498,487 500,487 508,487 509,487 519,487" fill="none" stroke-width="0.4242962285145736" opacity="0.6"></polyline><polygon points="517.8757037714854,493.8757037714854 519,485.8757037714854 520.1242962285146,488.12429622851454" transform="rotate(90.0000007648485, 519, 487)" cx="519" cy="487" r="1.1242962285145737" fill="#69c487" stroke="#ccc" stroke-width="0.2" opacity="0.6"></polygon></g><g class="key-Armenia_0"><circle cx="514" cy="374" r="1.1246924293854625" fill="#d14e5b" stroke="#ccc" opacity="0.6"></circle><polyline stroke-linecap="round" stroke="#d14e5b" points="514,374 270,374 245,374 269,374 295,398 309,413 312,426 309,424 300,416 285,404 286,396 291,400 341,415 376,438 409,457 435,471 436,478 467,481 453,481 438,479 444,478 471,478 484,478" fill="none" stroke-width="0.42325218704731593" opacity="0.6"></polyline><polygon points="482.87674781295266,484.87674781295266 484,476.87674781295266 485.1232521870473,479.1232521870473" transform="rotate(90.0000007648485, 484, 478)" cx="484" cy="478" r="1.123252187047316" fill="#d14e5b" stroke="#ccc" stroke-width="0.2" opacity="0.6"></polygon></g><g class="key-Kuwait_0"><circle cx="188" cy="313" r="1.1191930402224892" fill="#d14e5b" stroke="#ccc" opacity="0.6"></circle><polyline stroke-linecap="round" stroke="#d14e5b" points="188,313 280,292 357,353 484,402 566,458 581,485 602,487 607,487 619,487 630,487 643,487 633,487 649,487 651,487 671,487 674,487 669,487 652,487 641,487 638,487 639,487 631,487 649,487" fill="none" stroke-width="0.4226677552007069" opacity="0.6"></polyline><polygon points="647.8773322447993,493.8773322447993 649,485.8773322447993 650.1226677552007,488.12266775520067" transform="rotate(90.0000007648485, 649, 487)" cx="649" cy="487" r="1.122667755200707" fill="#d14e5b" stroke="#ccc" stroke-width="0.2" opacity="0.6"></polygon></g><g class="key-Oman_0"><circle cx="313" cy="420" r="1.1188736543719495" fill="#d14e5b" stroke="#ccc" opacity="0.6"></circle><polyline stroke-linecap="round" stroke="#d14e5b" points="313,420 335,416 309,415 331,410 321,409 332,408 320,413 373,420 397,434 387,446 414,452 397,454 399,454 408,455 424,457 438,461 457,466 489,472 512,478 521,482 527,485 538,486 546,487" fill="none" stroke-width="0.42266154639445014" opacity="0.6"></polyline><polygon points="544.8773384536056,493.87733845360555 546,485.87733845360555 547.1226615463945,488.12266154639445" transform="rotate(97.12501717430095, 546, 487)" cx="546" cy="487" r="1.1226615463944503" fill="#d14e5b" stroke="#ccc" stroke-width="0.2" opacity="0.6"></polygon></g><g class="key-Mongolia_0"><circle cx="271" cy="361" r="1.1199332812634013" fill="#d14e5b" stroke="#ccc" opacity="0.6"></circle><polyline stroke-linecap="round" stroke="#d14e5b" points="271,361 174,325 174,280 174,253 226,251 228,272 226,287 245,298 256,308 268,319 280,330 283,336 281,337 283,336 290,336 300,341 315,349 325,360 347,371 341,382 348,389 357,394 364,399" fill="none" stroke-width="0.4224048350271773" opacity="0.6"></polyline><polygon points="362.87759516497283,405.87759516497283 364,397.87759516497283 365.12240483502717,400.12240483502717" transform="rotate(125.53767885883332, 364, 399)" cx="364" cy="399" r="1.1224048350271774" fill="#d14e5b" stroke="#ccc" stroke-width="0.2" opacity="0.6"></polygon></g><g class="key-Jamaica_0"><circle cx="383" cy="460" r="1.1205132061902003" fill="#4d824b" stroke="#ccc" opacity="0.6"></circle><polyline stroke-linecap="round" stroke="#4d824b" points="383,460 397,459 420,464 423,467 414,470 423,470 418,470 421,469 426,471 427,473 447,475 446,478 450,479 445,479 446,478 445,477 445,475 432,474 432,472 436,471 438,470 434,469 432,468" fill="none" stroke-width="0.4219724386642601" opacity="0.6"></polyline><polygon points="430.8780275613357,474.8780275613357 432,466.8780275613357 433.1219724386643,469.1219724386643" transform="rotate(-63.43494936201229, 432, 468)" cx="432" cy="468" r="1.1219724386642602" fill="#4d824b" stroke="#ccc" stroke-width="0.2" opacity="0.6"></polygon></g><g class="key-Namibia_0"><circle cx="236" cy="331" r="1.1170239094885601" fill="#5675c1" stroke="#ccc" opacity="0.6"></circle><polyline stroke-linecap="round" stroke="#5675c1" points="236,331 227,327 217,319 216,313 226,311 228,314 240,319 236,327 264,340 288,359 295,374 279,383 288,385 294,385 287,384 283,381 280,373 251,358 235,339 233,322 243,313 259,309 266,303" fill="none" stroke-width="0.42060345844949965" opacity="0.6"></polyline><polygon points="264.8793965415505,309.8793965415505 266,301.8793965415505 267.12060345844947,304.12060345844947" transform="rotate(49.39870577480138, 266, 303)" cx="266" cy="303" r="1.1206034584494997" fill="#5675c1" stroke="#ccc" stroke-width="0.2" opacity="0.6"></polygon></g><g class="key-Lesotho_0"><circle cx="327" cy="434" r="1.1178105502782651" fill="#5675c1" stroke="#ccc" opacity="0.6"></circle><polyline stroke-linecap="round" stroke="#5675c1" points="327,434 327,436 325,435 333,434 302,431 321,428 331,431 340,436 348,442 350,447 356,450 365,452 366,454 373,455 380,457 388,458 378,458 378,456 381,455 382,455 375,456 374,456 369,456" fill="none" stroke-width="0.41998483068698583" opacity="0.6"></polyline><polygon points="367.880015169313,462.880015169313 369,454.880015169313 370.119984830687,457.119984830687" transform="rotate(-90.0000007648485, 369, 456)" cx="369" cy="456" r="1.1199848306869857" fill="#5675c1" stroke="#ccc" stroke-width="0.2" opacity="0.6"></polygon></g><g class="key-Botswana_0"><circle cx="281" cy="386" r="1.116862717671462" fill="#5675c1" stroke="#ccc" opacity="0.6"></circle><polyline stroke-linecap="round" stroke="#5675c1" points="281,386 275,377 237,368 270,359 271,360 278,363 264,361 240,350 251,338 240,333 261,331 249,333 249,335 272,341 274,347 260,350 265,349 270,348 274,352 284,359 295,367 315,376 311,382" fill="none" stroke-width="0.41935860011482284" opacity="0.6"></polyline><polygon points="309.8806413998852,388.8806413998852 311,380.8806413998852 312.1193586001148,383.1193586001148" transform="rotate(-146.30993371740837, 311, 382)" cx="311" cy="382" r="1.1193586001148228" fill="#5675c1" stroke="#ccc" stroke-width="0.2" opacity="0.6"></polygon></g><g class="key-Gambia_0"><circle cx="374" cy="445" r="1.1152147902552536" fill="#5675c1" stroke="#ccc" opacity="0.6"></circle><polyline stroke-linecap="round" stroke="#5675c1" points="374,445 360,444 351,439 326,432 330,425 329,423 354,423 320,426 364,432 387,441 367,447 348,447 348,442 351,439 344,437 331,437 371,439 386,446 396,456 411,468 416,476 405,481 398,484" fill="none" stroke-width="0.41859648233967084" opacity="0.6"></polyline><polygon points="396.8814035176603,490.8814035176603 398,482.8814035176603 399.1185964823397,485.1185964823397" transform="rotate(-113.19859147564566, 398, 484)" cx="398" cy="484" r="1.1185964823396708" fill="#5675c1" stroke="#ccc" stroke-width="0.2" opacity="0.6"></polygon></g><g class="key-Guinea__002dBissau_0"><circle cx="309" cy="396" r="1.1153568863493104" fill="#5675c1" stroke="#ccc" opacity="0.6"></circle><polyline stroke-linecap="round" stroke="#5675c1" points="309,396 324,402 305,404 315,406 314,405 289,399 270,386 261,372 263,366 289,369 296,378 295,384 282,386 291,386 295,384 290,383 301,383 304,386 297,392 316,396 314,399 312,399 301,398" fill="none" stroke-width="0.4175940554522859" opacity="0.6"></polyline><polygon points="299.8824059445477,404.8824059445477 301,396.8824059445477 302.1175940554523,399.1175940554523" transform="rotate(-84.80557181296979, 301, 398)" cx="301" cy="398" r="1.1175940554522859" fill="#5675c1" stroke="#ccc" stroke-width="0.2" opacity="0.6"></polygon></g><g class="key-Gabon_0"><circle cx="378" cy="453" r="1.115051103163045" fill="#5675c1" stroke="#ccc" opacity="0.6"></circle><polyline stroke-linecap="round" stroke="#5675c1" points="378,453 361,464 371,461 350,463 374,464 399,469 397,475 407,479 422,484 423,487 417,487 402,487 407,487 411,487 423,487 423,487 422,487 405,487 418,487 428,487 439,487 446,487 456,487" fill="none" stroke-width="0.4175219983793649" opacity="0.6"></polyline><polygon points="454.88247800162065,493.88247800162065 456,485.88247800162065 457.1175219983794,488.1175219983794" transform="rotate(90.0000007648485, 456, 487)" cx="456" cy="487" r="1.117521998379365" fill="#5675c1" stroke="#ccc" stroke-width="0.2" opacity="0.6"></polygon></g><g class="key-Trinidad-and-Tobago_0"><circle cx="409" cy="449" r="1.1160877996199086" fill="#4d824b" stroke="#ccc" opacity="0.6"></circle><polyline stroke-linecap="round" stroke="#4d824b" points="409,449 380,446 374,438 375,434 388,433 401,435 394,438 408,440 411,443 441,447 456,452 444,455 432,455 440,453 434,452 447,453 460,456 455,458 459,460 459,461 478,462 502,465 520,468" fill="none" stroke-width="0.41659806258376575" opacity="0.6"></polyline><polygon points="518.8834019374162,474.88340193741624 520,466.88340193741624 521.1165980625838,469.11659806258376" transform="rotate(99.46232305328793, 520, 468)" cx="520" cy="468" r="1.1165980625837657" fill="#4d824b" stroke="#ccc" stroke-width="0.2" opacity="0.6"></polygon></g><g class="key-Mauritius_0"><circle cx="444" cy="471" r="1.1154973962932182" fill="#5675c1" stroke="#ccc" opacity="0.6"></circle><polyline stroke-linecap="round" stroke="#5675c1" points="444,471 451,472 444,472 457,474 475,476 468,478 455,478 465,477 465,476 477,476 491,478 491,480 493,481 511,483 507,484 511,485 527,486 505,486 540,487 548,487 521,487 509,487 523,487" fill="none" stroke-width="0.4164637872059583" opacity="0.6"></polyline><polygon points="521.8835362127941,493.88353621279407 523,485.88353621279407 524.1164637872059,488.116463787206" transform="rotate(90.0000007648485, 523, 487)" cx="523" cy="487" r="1.1164637872059582" fill="#5675c1" stroke="#ccc" stroke-width="0.2" opacity="0.6"></polygon></g><g class="key-Swaziland_0"><circle cx="299" cy="432" r="1.1147667432411077" fill="#5675c1" stroke="#ccc" opacity="0.6"></circle><polyline stroke-linecap="round" stroke="#5675c1" points="299,432 310,428 298,427 304,421 278,414 279,403 262,392 268,386 293,392 318,403 307,415 329,423 342,430 352,434 324,433 310,424 306,414 291,405 289,398 299,393 298,389 301,386 312,381" fill="none" stroke-width="0.4161382332133993" opacity="0.6"></polyline><polygon points="310.8838617667866,387.8838617667866 312,379.8838617667866 313.1161382332134,382.1161382332134" transform="rotate(65.55604577669949, 312, 381)" cx="312" cy="381" r="1.1161382332133993" fill="#5675c1" stroke="#ccc" stroke-width="0.2" opacity="0.6"></polygon></g><g class="key-Djibouti_0"><circle cx="75" cy="135" r="1.1135537425065682" fill="#5675c1" stroke="#ccc" opacity="0.6"></circle><polyline stroke-linecap="round" stroke="#5675c1" points="75,135 75,125 94,129 101,137 133,151 128,169 147,185 175,204 188,227 215,248 212,265 232,278 244,291 256,306 293,325 307,346 336,364 346,380 351,390 351,396 362,401 374,409 392,417" fill="none" stroke-width="0.4149741719172836" opacity="0.6"></polyline><polygon points="390.8850258280827,423.8850258280827 392,415.8850258280827 393.11497417191725,418.11497417191725" transform="rotate(113.96248994306751, 392, 417)" cx="392" cy="417" r="1.1149741719172837" fill="#5675c1" stroke="#ccc" stroke-width="0.2" opacity="0.6"></polygon></g><g class="key-Fiji_0"><circle cx="425" cy="479" r="1.114164662016372" fill="#a652ba" stroke="#ccc" opacity="0.6"></circle><polyline stroke-linecap="round" stroke="#a652ba" points="425,479 430,481 463,483 446,486 430,486 454,485 460,486 456,487 457,487 456,487 469,487 477,487 474,487 476,487 488,487 490,487 483,487 490,487 481,487 480,487 483,487 485,487 488,487" fill="none" stroke-width="0.4147485774141421" opacity="0.6"></polyline><polygon points="486.88525142258584,493.88525142258584 488,485.88525142258584 489.1147485774141,488.1147485774141" transform="rotate(90.0000007648485, 488, 487)" cx="488" cy="487" r="1.1147485774141421" fill="#a652ba" stroke="#ccc" stroke-width="0.2" opacity="0.6"></polygon></g><g class="key-Guyana_0"><circle cx="323" cy="397" r="1.1141177962239024" fill="#69c487" stroke="#ccc" opacity="0.6"></circle><polyline stroke-linecap="round" stroke="#69c487" points="323,397 336,401 350,409 371,419 385,429 387,439 411,446 411,451 412,456 428,460 435,463 427,465 422,465 414,463 415,461 407,460 407,458 389,456 396,453 402,452 400,453 426,454 437,454" fill="none" stroke-width="0.414259810123052" opacity="0.6"></polyline><polygon points="435.88574018987697,460.88574018987697 437,452.88574018987697 438.1142598101231,455.1142598101231" transform="rotate(90.0000007648485, 437, 454)" cx="437" cy="454" r="1.114259810123052" fill="#69c487" stroke="#ccc" stroke-width="0.2" opacity="0.6"></polygon></g><g class="key-Solomon-Islands_0"><circle cx="267" cy="387" r="1.1124990568909356" fill="#a652ba" stroke="#ccc" opacity="0.6"></circle><polyline stroke-linecap="round" stroke="#a652ba" points="267,387 268,393 263,396 300,406 327,419 305,431 334,437 329,439 306,439 319,437 308,437 330,438 335,443 333,446 340,450 349,452 338,454 355,455 347,457 356,457 358,458 338,459 329,459" fill="none" stroke-width="0.4135503530857044" opacity="0.6"></polyline><polygon points="327.8864496469143,465.8864496469143 329,457.8864496469143 330.1135503530857,460.1135503530857" transform="rotate(-90.0000007648485, 329, 459)" cx="329" cy="459" r="1.1135503530857045" fill="#a652ba" stroke="#ccc" stroke-width="0.2" opacity="0.6"></polygon></g><g class="key-Suriname_0"><circle cx="374" cy="434" r="1.1128793285918546" fill="#69c487" stroke="#ccc" opacity="0.6"></circle><polyline stroke-linecap="round" stroke="#69c487" points="374,434 363,439 373,438 365,440 375,441 385,444 373,446 379,445 358,444 374,441 363,442 377,443 378,446 377,448 394,451 399,454 410,457 403,461 429,464 446,468 422,470 426,470 434,470" fill="none" stroke-width="0.4133831130349098" opacity="0.6"></polyline><polygon points="432.8866168869651,476.8866168869651 434,468.8866168869651 435.1133831130349,471.1133831130349" transform="rotate(90.0000007648485, 434, 470)" cx="434" cy="470" r="1.1133831130349099" fill="#69c487" stroke="#ccc" stroke-width="0.2" opacity="0.6"></polygon></g><g class="key-Brunei_0"><circle cx="420" cy="487" r="1.1122612814946404" fill="#d14e5b" stroke="#ccc" opacity="0.6"></circle><polyline stroke-linecap="round" stroke="#d14e5b" points="420,487 456,487 447,487 473,487 458,487 479,487 454,487 462,487 450,487 446,487 469,487 484,487 498,487 504,487 498,487 496,487 480,487 478,487 474,487 474,487 488,487 496,487 500,487" fill="none" stroke-width="0.4129064458577246" opacity="0.6"></polyline><polygon points="498.88709355414227,493.88709355414227 500,485.88709355414227 501.11290644585773,488.11290644585773" transform="rotate(90.0000007648485, 500, 487)" cx="500" cy="487" r="1.1129064458577247" fill="#d14e5b" stroke="#ccc" stroke-width="0.2" opacity="0.6"></polygon></g><g class="key-Belize_0"><circle cx="367" cy="463" r="1.1120050212298584" fill="#4d824b" stroke="#ccc" opacity="0.6"></circle><polyline stroke-linecap="round" stroke="#4d824b" points="367,463 420,469 415,475 404,479 416,479 403,478 407,477 404,476 401,477 415,479 435,483 441,486 449,487 440,487 452,487 447,487 445,487 424,485 437,483 458,483 436,483 428,482 433,481" fill="none" stroke-width="0.4125487531508635" opacity="0.6"></polyline><polygon points="431.88745124684914,487.88745124684914 433,479.88745124684914 434.11254875315086,482.11254875315086" transform="rotate(78.69006819471291, 433, 481)" cx="433" cy="481" r="1.1125487531508635" fill="#4d824b" stroke="#ccc" stroke-width="0.2" opacity="0.6"></polygon></g><g class="key-Maldives_0"><circle cx="323" cy="451" r="1.11212548343729" fill="#d14e5b" stroke="#ccc" opacity="0.6"></circle><polyline stroke-linecap="round" stroke="#d14e5b" points="323,451 322,455 336,456 365,460 338,462 339,459 332,456 340,453 356,453 342,453 354,452 361,450 332,446 344,440 349,435 329,435 359,438 376,445 390,453 424,462 433,468 422,473 428,478" fill="none" stroke-width="0.41254002268469536" opacity="0.6"></polyline><polygon points="426.8874599773153,484.8874599773153 428,476.8874599773153 429.1125400226847,479.1125400226847" transform="rotate(129.80557219539406, 428, 478)" cx="428" cy="478" r="1.1125400226846953" fill="#d14e5b" stroke="#ccc" stroke-width="0.2" opacity="0.6"></polygon></g><g class="key-Barbados_0"><circle cx="506" cy="487" r="1.1122652906249968" fill="#4d824b" stroke="#ccc" opacity="0.6"></circle><polyline stroke-linecap="round" stroke="#4d824b" points="506,487 500,487 479,487 477,487 466,487 477,487 496,487 449,487 488,487 448,487 457,486 449,485 458,482 439,480 472,477 458,478 478,480 471,486 479,487 479,487 474,487 479,487 487,487" fill="none" stroke-width="0.4123249266760356" opacity="0.6"></polyline><polygon points="485.887675073324,493.887675073324 487,485.887675073324 488.112324926676,488.112324926676" transform="rotate(90.0000007648485, 487, 487)" cx="487" cy="487" r="1.1123249266760356" fill="#4d824b" stroke="#ccc" stroke-width="0.2" opacity="0.6"></polygon></g><g class="key-Vanuatu_0"><circle cx="378" cy="456" r="1.1118225337612093" fill="#a652ba" stroke="#ccc" opacity="0.6"></circle><polyline stroke-linecap="round" stroke="#a652ba" points="378,456 375,454 366,452 369,451 373,452 399,455 411,461 424,466 423,470 418,471 411,471 418,470 434,471 431,473 441,475 447,477 464,479 466,481 466,482 463,482 459,481 452,480 458,480" fill="none" stroke-width="0.4122550497150288" opacity="0.6"></polyline><polygon points="456.88774495028497,486.88774495028497 458,478.88774495028497 459.11225504971503,481.11225504971503" transform="rotate(90.0000007648485, 458, 480)" cx="458" cy="480" r="1.1122550497150288" fill="#a652ba" stroke="#ccc" stroke-width="0.2" opacity="0.6"></polygon></g><g class="key-Samoa_0"><circle cx="381" cy="458" r="1.111869952313013" fill="#a652ba" stroke="#ccc" opacity="0.6"></circle><polyline stroke-linecap="round" stroke="#a652ba" points="381,458 344,452 316,442 331,435 351,436 362,443 376,451 394,460 421,470 439,479 453,486 452,487 456,487 471,487 474,487 464,487 462,487 480,487 470,487 479,487 471,487 494,487 493,487" fill="none" stroke-width="0.41196390821714524" opacity="0.6"></polyline><polygon points="491.88803609178285,493.88803609178285 493,485.88803609178285 494.11196390821715,488.11196390821715" transform="rotate(-90.0000007648485, 493, 487)" cx="493" cy="487" r="1.1119639082171453" fill="#a652ba" stroke="#ccc" stroke-width="0.2" opacity="0.6"></polygon></g><g class="key-Sao-Tome-and-Principe_0"><circle cx="283" cy="397" r="1.1116917522581153" fill="#5675c1" stroke="#ccc" opacity="0.6"></circle><polyline stroke-linecap="round" stroke="#5675c1" points="283,397 270,395 272,391 283,387 248,381 265,374 271,372 280,374 285,388 326,404 333,423 349,437 363,448 365,455 374,462 376,467 364,472 351,476 342,478 323,481 312,482 314,482 332,481" fill="none" stroke-width="0.41192206807418547" opacity="0.6"></polyline><polygon points="330.8880779319258,487.8880779319258 332,479.8880779319258 333.1119220680742,482.1119220680742" transform="rotate(86.82017061796105, 332, 481)" cx="332" cy="481" r="1.1119220680741855" fill="#5675c1" stroke="#ccc" stroke-width="0.2" opacity="0.6"></polygon></g><g class="key-Saint-Vincent-and-the-Grenadines_0"><circle cx="323" cy="408" r="1.1116481351954952" fill="#4d824b" stroke="#ccc" opacity="0.6"></circle><polyline stroke-linecap="round" stroke="#4d824b" points="323,408 319,411 348,410 312,411 311,403 312,396 307,392 325,396 352,406 360,417 353,427 406,437 414,447 422,455 442,462 447,466 456,469 467,472 468,475 478,478 488,480 484,480 496,480" fill="none" stroke-width="0.41165461983625207" opacity="0.6"></polyline><polygon points="494.88834538016374,486.88834538016374 496,478.88834538016374 497.11165461983626,481.11165461983626" transform="rotate(90.0000007648485, 496, 480)" cx="496" cy="480" r="1.111654619836252" fill="#4d824b" stroke="#ccc" stroke-width="0.2" opacity="0.6"></polygon></g><g class="key-Kiribati_0"><circle cx="423" cy="474" r="1.1115077572595482" fill="#a652ba" stroke="#ccc" opacity="0.6"></circle><polyline stroke-linecap="round" stroke="#a652ba" points="423,474 426,478 439,478 410,480 448,480 437,481 438,482 458,484 464,487 459,487 471,487 463,487 468,487 459,487 486,487 477,487 474,487 470,487 488,487 493,487 512,487 521,487 516,487" fill="none" stroke-width="0.41163392363367524" opacity="0.6"></polyline><polygon points="514.8883660763663,493.8883660763663 516,485.8883660763663 517.1116339236337,488.11163392363363" transform="rotate(-90.0000007648485, 516, 487)" cx="516" cy="487" r="1.1116339236336752" fill="#a652ba" stroke="#ccc" stroke-width="0.2" opacity="0.6"></polygon></g><g class="key-Timor_0"><circle cx="198" cy="284" r="1.1112102745502213" fill="#d14e5b" stroke="#ccc" opacity="0.6"></circle><polyline stroke-linecap="round" stroke="#d14e5b" points="198,284 213,307 226,318 219,333 226,334 185,330 195,314 159,301 168,290 180,291 200,302 235,320 234,336 228,342 226,342 228,341 230,342 234,345 228,348 240,350 247,355 260,360 255,366" fill="none" stroke-width="0.41121027455022136" opacity="0.6"></polyline><polygon points="253.88878972544978,372.8887897254498 255,364.8887897254498 256.1112102745502,367.1112102745502" transform="rotate(-140.19443009915148, 255, 366)" cx="255" cy="366" r="1.1112102745502213" fill="#d14e5b" stroke="#ccc" stroke-width="0.2" opacity="0.6"></polygon></g><g class="key-World_0"><circle cx="390" cy="418" r="1.1112102745502213" fill="#000" stroke="#ccc" opacity="0.6"></circle><polyline stroke-linecap="round" stroke="#000" points="390,418 392,419 394,420 401,422 408,425 411,428 415,431 419,433 423,435 426,437 426,437 426,437 428,436 432,437 436,438 441,440 449,443 454,447 454,449 462,451 467,453 468,455 471,456" fill="none" stroke-width="0.41121027455022136" opacity="0.6"></polyline><polygon points="469.8887897254498,462.8887897254498 471,454.8887897254498 472.1112102745502,457.1112102745502" transform="rotate(108.43494974443654, 471, 456)" cx="471" cy="456" r="1.1112102745502213" fill="#000" stroke="#ccc" stroke-width="0.2" opacity="0.6"></polygon></g><g class="key-Yemen_0"><circle cx="225" cy="366" r="1.1112102745502213" fill="#d14e5b" stroke="#ccc" opacity="0.6"></circle><polyline stroke-linecap="round" stroke="#d14e5b" points="225,366 248,368 243,371 232,369 229,364 227,359 232,357 236,357 241,360 243,363 236,364 240,361 236,358 238,356 244,358 251,362 262,368 255,372 263,374 274,376 276,380 283,382 281,383" fill="none" stroke-width="0.41121027455022136" opacity="0.6"></polyline><polygon points="279.8887897254498,389.8887897254498 281,381.8887897254498 282.1112102745502,384.1112102745502" transform="rotate(-116.56505216768471, 281, 383)" cx="281" cy="383" r="1.1112102745502213" fill="#d14e5b" stroke="#ccc" stroke-width="0.2" opacity="0.6"></polygon></g><text x="539.5355339059328" y="470.68553390593274" font-size="14.3" font-family="Arial Narrow, Arial, sans-serif" fill="#666">China</text><text x="354" y="435" font-size="14.095510867161407" font-family="Arial Narrow, Arial, sans-serif" fill="#666">India</text><text x="442.58113883008417" y="481.5433805898858" font-size="11.599928199266563" font-family="Arial Narrow, Arial, sans-serif" fill="#666">Indonesia</text><text x="585" y="487" font-size="11.485490655195797" font-family="Arial Narrow, Arial, sans-serif" fill="#666">Brazil</text><text x="348.4721359549996" y="398.7639320225002" font-size="11.444555170674182" font-family="Arial Narrow, Arial, sans-serif" fill="#666">Pakistan</text><text x="530" y="487" font-size="11.285027973248202" font-family="Arial Narrow, Arial, sans-serif" fill="#666">Mexico</text><text x="435.88093530091976" y="455.6946082256586" font-size="11.219911873130599" font-family="Arial Narrow, Arial, sans-serif" fill="#666">Vietnam</text><text x="256.8569533817705" y="351.249547288326" font-size="11.214327667799417" font-family="Arial Narrow, Arial, sans-serif" fill="#666">Ethiopia</text><text x="621.1977579989342" y="487" font-size="11.207098054889409" font-family="Arial Narrow, Arial, sans-serif" fill="#666">Egypt</text><text x="678.7807126242201" y="487" font-size="11.182773652215664" font-family="Arial Narrow, Arial, sans-serif" fill="#666">Turkey</text><text x="452.83117469800624" y="466.84669048348246" font-size="11.116754461361502" font-family="Arial Narrow, Arial, sans-serif" fill="#666">Colombia</text><text x="279.5355339059327" y="410.08876252890184" font-size="11.106457245938245" font-family="Arial Narrow, Arial, sans-serif" fill="#666">Kenya</text><text x="209.99707633387465" y="385.4478423696258" font-size="11.089063918396947" font-family="Arial Narrow, Arial, sans-serif" fill="#666">Uganda</text><text x="341.4009642514715" y="487" font-size="11.073481210216524" font-family="Arial Narrow, Arial, sans-serif" fill="#666">Venezuela</text><text x="179.16715030569512" y="301" font-size="11.059676468448222" font-family="Arial Narrow, Arial, sans-serif" fill="#666">North Korea</text><text x="168.20521792225045" y="343.8397485283108" font-size="11.054579908808588" font-family="Arial Narrow, Arial, sans-serif" fill="#666">Madagascar</text><text x="428.4721359549996" y="414.75784269227114" font-size="11.043549429542761" font-family="Arial Narrow, Arial, sans-serif" fill="#666">Burkina Faso</text><text x="504" y="487" font-size="11.042488407782018" font-family="Arial Narrow, Arial, sans-serif" fill="#666">Chile</text><text x="342.6784247466671" y="468.34283293530757" font-size="11.041675997561581" font-family="Arial Narrow, Arial, sans-serif" fill="#666">Niger</text><text x="327.9751859510499" y="413.01734558940217" font-size="11.039653988594255" font-family="Arial Narrow, Arial, sans-serif" fill="#666">Malawi</text><text x="272.4878432745899" y="464.99032963787533" font-size="11.036387365751422" font-family="Arial Narrow, Arial, sans-serif" fill="#666">Ecuador</text><text x="199.77350098112615" y="275.6775385399804" font-size="11.034574136582377" font-family="Arial Narrow, Arial, sans-serif" fill="#666">Zambia</text><text x="293.2360679774998" y="429.98468318194296" font-size="11.02509445388676" font-family="Arial Narrow, Arial, sans-serif" fill="#666">Bolivia</text><text x="244.3736056394869" y="251.19238026179588" font-size="11.025042653443077" font-family="Arial Narrow, Arial, sans-serif" fill="#666">Haiti</text><text x="396.96959649289585" y="475.10729736848094" font-size="11.023144436781317" font-family="Arial Narrow, Arial, sans-serif" fill="#666">Benin</text><text x="351.3914005136653" y="448.1817123906232" font-size="11.015390334971562" font-family="Arial Narrow, Arial, sans-serif" fill="#666">Togo</text><text x="405.92605877409835" y="429.3639509440138" font-size="11.014490140515141" font-family="Arial Narrow, Arial, sans-serif" fill="#666">Nicaragua</text><text x="281.95613950341317" y="377.1659787811487" font-size="11.010320361387079" font-family="Arial Narrow, Arial, sans-serif" fill="#666">Congo</text><text x="269.79628301182646" y="299.74604313272016" font-size="11.005659797514479" font-family="Arial Narrow, Arial, sans-serif" fill="#666">Namibia</text><text x="259.6950708969941" y="391.66268096396584" font-size="11.004858984553238" font-family="Arial Narrow, Arial, sans-serif" fill="#666">Botswana</text><text x="316.551832387313" y="378.93098527849406" font-size="11.002825883294248" font-family="Arial Narrow, Arial, sans-serif" fill="#666">Swaziland</text></g><g style="cursor: pointer;" class="ScatterColorLegend clickable"><g class="legendMark"><rect x="735" y="102.4" width="43.256" height="17.6" fill="#fff" opacity="0"></rect>,<rect x="735" y="107.9" width="6" height="6" fill="#5675c1"></rect>,<text font-size="12.60" x="746.0" y="115.0"><tspan x="746" y="114.98">Africa</tspan></text></g><g class="legendMark"><rect x="735" y="120" width="35.57" height="17.6" fill="#fff" opacity="0"></rect>,<rect x="735" y="125.5" width="6" height="6" fill="#d14e5b"></rect>,<text font-size="12.60" x="746.0" y="132.6"><tspan x="746" y="132.57999999999998">Asia</tspan></text></g><g class="legendMark"><rect x="735" y="137.60000000000002" width="91.64" height="17.6" fill="#fff" opacity="0"></rect>,<rect x="735" y="143.10000000000002" width="6" height="6" fill="#4d824b"></rect>,<text font-size="12.60" x="746.0" y="150.2"><tspan x="746" y="150.18">North America</tspan></text></g><g class="legendMark"><rect x="735" y="155.20000000000002" width="58.124" height="17.6" fill="#fff" opacity="0"></rect>,<rect x="735" y="160.70000000000002" width="6" height="6" fill="#a652ba"></rect>,<text font-size="12.60" x="746.0" y="167.8"><tspan x="746" y="167.78">Oceania</tspan></text></g><g class="legendMark"><rect x="735" y="172.8" width="93.908" height="17.6" fill="#fff" opacity="0"></rect>,<rect x="735" y="178.3" width="6" height="6" fill="#69c487"></rect>,<text font-size="12.60" x="746.0" y="185.4"><tspan x="746" y="185.38">South America</tspan></text></g></g><line x1="735" y1="194.9" x2="830" y2="194.9" stroke="#ccc"></line><g class="clickable"><g class="ConnectedScatterLegend"><rect x="735" y="203.9" width="100" height="12.6" fill="#fff" opacity="0"></rect><text font-size="12.60" x="735.0" y="214.0" fill="#333"><tspan x="735" y="213.98">1991</tspan></text><text font-size="12.60" x="806.8" y="214.0" fill="#333"><tspan x="806.776" y="213.98">2013</tspan></text><line x1="768.224" y1="209.70000000000002" x2="801.776" y2="209.70000000000002" stroke="#666" stroke-width="1"></line><circle cx="768.224" cy="209.70000000000002" r="2" fill="#666" stroke="#ccc" stroke-width="0.2"></circle><circle cx="779.408" cy="209.70000000000002" r="2" fill="#666" stroke="#ccc" stroke-width="0.2"></circle><circle cx="790.592" cy="209.70000000000002" r="2" fill="#666" stroke="#ccc" stroke-width="0.2"></circle><polygon points="798.776,214.70000000000002 801.776,206.70000000000002 804.776,212.70000000000002" cx="801.776" cy="209.70000000000002" r="3" fill="#666" stroke="#ccc" stroke-width="0.2" transform="rotate(90, 801.776, 209.70000000000002)"></polygon></g></g></g><g style="fill: #777;" class="SourcesFooter"><g style="fill: #777;" class="clickable"><text font-size="12.60" x="15.0" y="581.6"><tspan x="15" y="581.58">Source: FAOstat; World Development Indicators (WDI)</tspan></text></g><text font-size="12.60" x="552.0" y="581.6"><tspan x="552.004" y="581.58"><a target='_blank' style='fill: #777;' href='https://ourworldindata.org/food-per-person/'>OurWorldInData.org/food-per-person/</a>  <a style="fill: #777;" href="http://creativecommons.org/licenses/by-sa/4.0/deed.en_US" target="_blank">CC BY-SA</a></tspan></text></g></g></svg>