<svg xmlns="http://www.w3.org/2000/svg" version="1.1" style="font-family: 'Helvetica Neue', Helvetica, Arial, sans-serif; font-size: 18px; background-color: white; text-rendering: optimizeLegibility; -webkit-font-smoothing: antialiased;" width="850" height="600"><g class="ChartTab"><g class="HeaderView"><g opacity="0.8" transform="translate(770, 15) scale(0.31)"><a xmlns:xlink="http://www.w3.org/1999/xlink" xlink:href="https://ourworldindata.org" target="_blank"><g><rect x="0" y="0" fill="#1B2543" width="211.2" height="130.1"/><rect x="0" y="112.2" fill="#E63912" width="211.2" height="17.9"/><g><rect x="1.2" y="12.3" fill="none" width="210.2" height="99.2"/><path fill="#FFFFFF" d="M37.8,32.2c0,12.7-7.7,19.4-17.1,19.4c-9.7,0-16.6-7.5-16.6-18.7c0-11.7,7.3-19.3,17.1-19.3 C31.3,13.7,37.8,21.3,37.8,32.2z M9.2,32.8c0,7.9,4.3,14.9,11.8,14.9c7.5,0,11.8-6.9,11.8-15.3c0-7.3-3.8-14.9-11.8-14.9 C13.1,17.5,9.2,24.8,9.2,32.8z"/><path fill="#FFFFFF" d="M62.7,43.8c0,2.7,0.1,5.1,0.2,7.2h-4.3l-0.3-4.3h-0.1c-1.3,2.1-4,4.9-8.8,4.9c-4.2,0-9.1-2.3-9.1-11.6 V24.6h4.8v14.6c0,5,1.5,8.4,5.9,8.4c3.2,0,5.5-2.2,6.3-4.4c0.3-0.7,0.4-1.6,0.4-2.5V24.6h4.8V43.8z"/><path fill="#FFFFFF" d="M67.3,32.8c0-3.1-0.1-5.8-0.2-8.2h4.2l0.2,5.2h0.2c1.2-3.5,4.1-5.8,7.3-5.8c0.5,0,0.9,0.1,1.4,0.2v4.5 c-0.5-0.1-1-0.2-1.6-0.2c-3.4,0-5.8,2.6-6.5,6.2c-0.1,0.7-0.2,1.4-0.2,2.2V51h-4.8V32.8z"/><path fill="#FFFFFF" d="M95.4,51l-9.4-36.8h5l4.4,18.6c1.1,4.6,2.1,9.2,2.7,12.7h0.1c0.6-3.7,1.8-8,3-12.8l4.9-18.5h5l4.5,18.7 c1,4.4,2,8.7,2.6,12.6h0.1c0.8-4,1.8-8.1,3-12.7l4.9-18.5h4.9L120.6,51h-5L111,31.9c-1.1-4.7-1.9-8.3-2.4-12h-0.1 c-0.7,3.7-1.5,7.3-2.8,12L100.4,51H95.4z"/><path fill="#FFFFFF" d="M154.9,37.6c0,9.8-6.8,14-13.2,14c-7.2,0-12.7-5.2-12.7-13.6c0-8.8,5.8-14,13.1-14 C149.8,24,154.9,29.5,154.9,37.6z M133.9,37.9c0,5.8,3.3,10.1,8,10.1c4.6,0,8-4.3,8-10.3c0-4.5-2.2-10.1-7.9-10.1 C136.3,27.6,133.9,32.8,133.9,37.9z"/><path fill="#FFFFFF" d="M158.2,32.8c0-3.1-0.1-5.8-0.2-8.2h4.2l0.2,5.2h0.2c1.2-3.5,4.1-5.8,7.3-5.8c0.5,0,0.9,0.1,1.4,0.2v4.5 c-0.5-0.1-1-0.2-1.6-0.2c-3.4,0-5.8,2.6-6.5,6.2c-0.1,0.7-0.2,1.4-0.2,2.2V51h-4.8V32.8z"/><path fill="#FFFFFF" d="M173.5,12.3h4.8V51h-4.8V12.3z"/><path fill="#FFFFFF" d="M206.5,12.3v31.9c0,2.3,0.1,5,0.2,6.8h-4.3l-0.2-4.6H202c-1.5,2.9-4.7,5.2-9,5.2 c-6.4,0-11.3-5.4-11.3-13.4c-0.1-8.8,5.4-14.2,11.9-14.2c4,0,6.8,1.9,8,4h0.1V12.3H206.5z M201.7,35.4c0-0.6-0.1-1.4-0.2-2 c-0.7-3.1-3.3-5.6-6.9-5.6c-5,0-7.9,4.4-7.9,10.2c0,5.3,2.6,9.8,7.8,9.8c3.2,0,6.2-2.1,7.1-5.7c0.2-0.7,0.2-1.3,0.2-2.1V35.4z"/><path fill="#FFFFFF" d="M42.8,64c0.1,1.6-1.1,2.9-3.1,2.9c-1.7,0-2.9-1.3-2.9-2.9c0-1.7,1.3-3,3-3C41.7,61,42.8,62.3,42.8,64z M37.4,97.8V71.4h4.8v26.4H37.4z"/><path fill="#FFFFFF" d="M47.5,78.6c0-2.7-0.1-5-0.2-7.1h4.3l0.3,4.4h0.1c1.3-2.5,4.4-5,8.8-5c3.7,0,9.4,2.2,9.4,11.2v15.8h-4.8 V82.6c0-4.3-1.6-7.8-6.1-7.8c-3.2,0-5.6,2.2-6.5,4.9c-0.2,0.6-0.3,1.4-0.3,2.2v15.9h-4.8V78.6z"/><path fill="#FFFFFF" d="M84,61.6c2.9-0.4,6.3-0.8,10.1-0.8c6.8,0,11.7,1.6,14.9,4.6c3.3,3,5.2,7.3,5.2,13.2c0,6-1.9,10.9-5.3,14.3 c-3.4,3.4-9.1,5.3-16.3,5.3c-3.4,0-6.2-0.2-8.6-0.4V61.6z M88.8,94.1c1.2,0.2,3,0.3,4.8,0.3c10.2,0,15.7-5.7,15.7-15.6 c0.1-8.7-4.9-14.2-14.9-14.2c-2.5,0-4.3,0.2-5.6,0.5V94.1z"/><path fill="#FFFFFF" d="M132.1,97.8l-0.4-3.3h-0.2c-1.5,2.1-4.3,3.9-8.1,3.9c-5.4,0-8.1-3.8-8.1-7.6c0-6.4,5.7-9.9,15.9-9.8v-0.5 c0-2.2-0.6-6.1-6-6.1c-2.5,0-5,0.8-6.9,2l-1.1-3.2c2.2-1.4,5.4-2.3,8.7-2.3c8.1,0,10.1,5.5,10.1,10.8v9.9c0,2.3,0.1,4.5,0.4,6.3 H132.1z M131.4,84.4c-5.3-0.1-11.2,0.8-11.2,5.9c0,3.1,2.1,4.6,4.5,4.6c3.4,0,5.6-2.2,6.4-4.4c0.2-0.5,0.3-1,0.3-1.5V84.4z"/><path fill="#FFFFFF" d="M146.6,63.9v7.6h6.9v3.7h-6.9v14.2c0,3.3,0.9,5.1,3.6,5.1c1.3,0,2.2-0.2,2.8-0.3l0.2,3.6 c-0.9,0.4-2.4,0.7-4.3,0.7c-2.2,0-4-0.7-5.2-2c-1.4-1.4-1.9-3.8-1.9-6.9V75.1h-4.1v-3.7h4.1v-6.3L146.6,63.9z"/><path fill="#FFFFFF" d="M171.4,97.8l-0.4-3.3h-0.2c-1.5,2.1-4.3,3.9-8.1,3.9c-5.4,0-8.1-3.8-8.1-7.6c0-6.4,5.7-9.9,15.9-9.8v-0.5 c0-2.2-0.6-6.1-6-6.1c-2.5,0-5,0.8-6.9,2l-1.1-3.2c2.2-1.4,5.4-2.3,8.7-2.3c8.1,0,10.1,5.5,10.1,10.8v9.9c0,2.3,0.1,4.5,0.4,6.3 H171.4z M170.7,84.4c-5.3-0.1-11.2,0.8-11.2,5.9c0,3.1,2.1,4.6,4.5,4.6c3.4,0,5.6-2.2,6.4-4.4c0.2-0.5,0.3-1,0.3-1.5V84.4z"/></g></g></a></g><a href="https://ourworldindata.org/grapher/primary-education-spending-vs-overall-education-spending" target="_blank"><text font-size="21.60" x="15.0" y="32.3" fill="#555"><tspan x="15" y="32.279999999999994">Primary education spending as share of all education levels vs. Overall</tspan><tspan x="15" y="53.87999999999999">education spending as share of all public spending sectors, 2014</tspan></text></a><text font-size="14.40" x="15.0" y="72.7" fill="#666"><tspan x="15" y="72.72">Government expenditure on primary education as a share of overall government expenditure on education (Y-axis) vs.</tspan><tspan x="15" y="88.56">Government expenditure on education as a share of total government expenditure  (X-axis). Colors represent different world</tspan><tspan x="15" y="104.4">regions. Observations correspond to 2010 data (or the year before/after if 2010 missing)</tspan></text></g><g><g class="AxisBoxView"><g class="HorizontalAxis"><text font-size="12.60" x="118.0" y="554.0"><tspan x="117.977" y="553.98">Government expenditure on education as share of total government expenditure in 2010</tspan></text><text x="203.1" y="533.9" fill="#666" text-anchor="middle" font-size="16.2">10%</text><text x="360.1" y="533.9" fill="#666" text-anchor="middle" font-size="16.2">15%</text><text x="517.1" y="533.9" fill="#666" text-anchor="middle" font-size="16.2">20%</text><text x="674.1" y="533.9" fill="#666" text-anchor="middle" font-size="16.2">25%</text></g><g class="VerticalAxis"><text font-size="12.60" x="-505.0" y="25.1" transform="rotate(-90)"><tspan x="-505.03499999999997" y="25.080000000000002">Government expenditure on primary education as share of</tspan><tspan x="-505.03499999999997" y="38.940000000000005">government expenditure on education</tspan></text><text x="83.86" y="512.7" fill="#666" dominant-baseline="middle" text-anchor="end" font-size="16.2">0%</text><text x="83.86" y="452.8" fill="#666" dominant-baseline="middle" text-anchor="end" font-size="16.2">10%</text><text x="83.86" y="392.8" fill="#666" dominant-baseline="middle" text-anchor="end" font-size="16.2">20%</text><text x="83.86" y="332.9" fill="#666" dominant-baseline="middle" text-anchor="end" font-size="16.2">30%</text><text x="83.86" y="273" fill="#666" dominant-baseline="middle" text-anchor="end" font-size="16.2">40%</text><text x="83.86" y="213" fill="#666" dominant-baseline="middle" text-anchor="end" font-size="16.2">50%</text><text x="83.86" y="153.1" fill="#666" dominant-baseline="middle" text-anchor="end" font-size="16.2">60%</text></g><g class="AxisGridLines"><line x1="88.86" y1="512.7" x2="715.00" y2="512.7" stroke="#ccc"></line><line x1="88.86" y1="452.8" x2="715.00" y2="452.8" stroke="#ddd" stroke-dasharray="3,2"></line><line x1="88.86" y1="392.8" x2="715.00" y2="392.8" stroke="#ddd" stroke-dasharray="3,2"></line><line x1="88.86" y1="332.9" x2="715.00" y2="332.9" stroke="#ddd" stroke-dasharray="3,2"></line><line x1="88.86" y1="273" x2="715.00" y2="273" stroke="#ddd" stroke-dasharray="3,2"></line><line x1="88.86" y1="213" x2="715.00" y2="213" stroke="#ddd" stroke-dasharray="3,2"></line><line x1="88.86" y1="153.1" x2="715.00" y2="153.1" stroke="#ddd" stroke-dasharray="3,2"></line></g><g class="AxisGridLines"><line x1="203.1" y1="512.70" x2="203.1" y2="126.60" stroke="#ddd" stroke-dasharray="3,2"></line><line x1="360.1" y1="512.70" x2="360.1" y2="126.60" stroke="#ddd" stroke-dasharray="3,2"></line><line x1="517.1" y1="512.70" x2="517.1" y2="126.60" stroke="#ddd" stroke-dasharray="3,2"></line><line x1="674.1" y1="512.70" x2="674.1" y2="126.60" stroke="#ddd" stroke-dasharray="3,2"></line></g></g><g clip-path="url(#scatterBounds-781)" class="PointsWithLabels clickable"><rect x="88.862" y="126.6" width="626.138" height="386.09999999999997" fill="rgba(255,255,255,0)"></rect><defs><clipPath id="scatterBounds-781"><rect x="78.862" y="116.6" width="646.138" height="406.09999999999997"></rect></clipPath></defs><circle cx="412" cy="258" r="17.841241161527712" fill="#d14e5b" opacity="0.8"></circle><circle cx="261" cy="302" r="15.385346887524413" fill="#d14e5b" opacity="0.8"></circle><circle cx="186" cy="312" r="12.815290533613954" fill="#d14e5b" opacity="0.8"></circle><circle cx="715" cy="368" r="10.760798686031512" fill="#5675c1" opacity="0.8"></circle><circle cx="479" cy="352" r="10.027911715533135" fill="#d14e5b" opacity="0.8"></circle><circle cx="170" cy="143" r="9.705668830933169" fill="#5675c1" opacity="0.8"></circle><circle cx="296" cy="334" r="9.148272346713627" fill="#ffd336" opacity="0.8"></circle><circle cx="455" cy="280" r="8.25470884679417" fill="#5675c1" opacity="0.8"></circle><circle cx="506" cy="218" r="8.112297555529365" fill="#5675c1" opacity="0.8"></circle><circle cx="404" cy="299" r="8.034296650431997" fill="#69c487" opacity="0.8"></circle><circle cx="312" cy="408" r="7.754193168257143" fill="#ffd336" opacity="0.8"></circle><circle cx="378" cy="332" r="7.4845442079688285" fill="#69c487" opacity="0.8"></circle><circle cx="183" cy="197" r="7.071563813061281" fill="#5675c1" opacity="0.8"></circle><circle cx="542" cy="209" r="6.583810657351509" fill="#d14e5b" opacity="0.8"></circle><circle cx="314" cy="282" r="6.440854799646319" fill="#69c487" opacity="0.8"></circle><circle cx="467" cy="331" r="6.4122870555112135" fill="#d14e5b" opacity="0.8"></circle><circle cx="556" cy="362" r="6.037887919919248" fill="#5675c1" opacity="0.8"></circle><circle cx="477" cy="309" r="5.459241876407579" fill="#5675c1" opacity="0.8"></circle><circle cx="430" cy="154" r="5.109117032441058" fill="#5675c1" opacity="0.8"></circle><circle cx="439" cy="337" r="5.054288728864464" fill="#69c487" opacity="0.8"></circle><circle cx="457" cy="199" r="5.011901989813951" fill="#5675c1" opacity="0.8"></circle><circle cx="407" cy="253" r="4.95670047913186" fill="#5675c1" opacity="0.8"></circle><circle cx="298" cy="507" r="4.923500469529629" fill="#d14e5b" opacity="0.8"></circle><circle cx="282" cy="216" r="4.904815441320948" fill="#5675c1" opacity="0.8"></circle><circle cx="495" cy="196" r="4.789143931084884" fill="#4d824b" opacity="0.8"></circle><circle cx="434" cy="332" r="4.235443593452745" fill="#5675c1" opacity="0.8"></circle><circle cx="279" cy="272" r="4.104770434132579" fill="#5675c1" opacity="0.8"></circle><circle cx="646" cy="318" r="4.051004045648579" fill="#69c487" opacity="0.8"></circle><circle cx="710" cy="219" r="3.9225624828658434" fill="#5675c1" opacity="0.8"></circle><circle cx="409" cy="240" r="3.8078739559576" fill="#5675c1" opacity="0.8"></circle><circle cx="514" cy="399" r="3.5231531898848587" fill="#d14e5b" opacity="0.8"></circle><circle cx="505" cy="159" r="3.3636421389305067" fill="#5675c1" opacity="0.8"></circle><circle cx="291" cy="254" r="3.333677064790528" fill="#5675c1" opacity="0.8"></circle><circle cx="408" cy="380" r="3.1459033785026187" fill="#d14e5b" opacity="0.8"></circle><circle cx="392" cy="253" r="2.8037697853376597" fill="#5675c1" opacity="0.8"></circle><circle cx="590" cy="376" r="2.75589438786858" fill="#ffd336" opacity="0.8"></circle><circle cx="278" cy="392" r="2.667035051763968" fill="#d14e5b" opacity="0.8"></circle><circle cx="394" cy="294" r="2.582871222765742" fill="#4d824b" opacity="0.8"></circle><circle cx="442" cy="202" r="2.3511175931409483" fill="#5675c1" opacity="0.8"></circle><circle cx="201" cy="126" r="2.279122978500486" fill="#5675c1" opacity="0.8"></circle><circle cx="346" cy="376" r="2.195889344882474" fill="#5675c1" opacity="0.8"></circle><circle cx="356" cy="281" r="2.0648406641753927" fill="#a652ba" opacity="0.8"></circle><circle cx="289" cy="321" r="2.0272795264637664" fill="#d14e5b" opacity="0.8"></circle><circle cx="341" cy="282" r="1.9463883437014973" fill="#5675c1" opacity="0.8"></circle><circle cx="612" cy="272" r="1.8866823162673259" fill="#4d824b" opacity="0.8"></circle><circle cx="477" cy="230" r="1.8618832151844624" fill="#a652ba" opacity="0.8"></circle><circle cx="335" cy="299" r="1.8348782514661641" fill="#4d824b" opacity="0.8"></circle><circle cx="495" cy="178" r="1.8334420579317017" fill="#5675c1" opacity="0.8"></circle><circle cx="295" cy="333" r="1.794768909766557" fill="#4d824b" opacity="0.8"></circle><circle cx="88" cy="416" r="1.7841241161527712" fill="#ffd336" opacity="0.8"></circle><text x="412" y="239.1587588384723" font-size="14.3" font-family="Arial Narrow, Arial, sans-serif" fill="#666">Indonesia</text><text x="261" y="285.6146531124756" font-size="13.445476458882615" font-family="Arial Narrow, Arial, sans-serif" fill="#666">Pakistan</text><text x="186" y="298.18470946638604" font-size="12.686496708494825" font-family="Arial Narrow, Arial, sans-serif" fill="#666">Japan</text><text x="670.789261317078" y="356.23920131396847" font-size="12.179266854799458" font-family="Arial Narrow, Arial, sans-serif" fill="#666">Ethiopia</text><text x="479" y="340.97208828446685" font-size="12.019718192232169" font-family="Arial Narrow, Arial, sans-serif" fill="#666">Iran</text><text x="170" y="138.55312683797027" font-size="11.95312683797027" font-family="Arial Narrow, Arial, sans-serif" fill="#666">Democratic Republic of Congo</text><text x="296" y="323.8517276532864" font-size="11.843075585168625" font-family="Arial Narrow, Arial, sans-serif" fill="#666">United Kingdom</text><text x="455" y="270.7452911532058" font-size="11.68022936246471" font-family="Arial Narrow, Arial, sans-serif" fill="#666">South Africa</text><text x="506" y="208.88770244447065" font-size="11.655820794828113" font-family="Arial Narrow, Arial, sans-serif" fill="#666">Tanzania</text><text x="404" y="289.965703349568" font-size="11.642631876136285" font-family="Arial Narrow, Arial, sans-serif" fill="#666">Colombia</text><text x="312" y="399.24580683174287" font-size="11.596320496686557" font-family="Arial Narrow, Arial, sans-serif" fill="#666">Ukraine</text><text x="183" y="188.9284361869387" font-size="11.490338900682925" font-family="Arial Narrow, Arial, sans-serif" fill="#666">Uganda</text><text x="314" y="274.55914520035367" font-size="11.401092492471044" font-family="Arial Narrow, Arial, sans-serif" fill="#666">Peru</text><text x="467" y="323.58771294448877" font-size="11.39724733733776" font-family="Arial Narrow, Arial, sans-serif" fill="#666">Malaysia</text><text x="556" y="354.9621120800808" font-size="11.348433953995565" font-family="Arial Narrow, Arial, sans-serif" fill="#666">Ghana</text><text x="477" y="302.5407581235924" font-size="11.278766323413466" font-family="Arial Narrow, Arial, sans-serif" fill="#666">Cameroon</text><text x="430" y="147.89088296755895" font-size="11.240017448239183" font-family="Arial Narrow, Arial, sans-serif" fill="#666">Burkina Faso</text><text x="439" y="330.94571127113556" font-size="11.234182020556498" font-family="Arial Narrow, Arial, sans-serif" fill="#666">Chile</text><text x="457" y="192.98809801018604" font-size="11.229713911356992" font-family="Arial Narrow, Arial, sans-serif" fill="#666">Niger</text><text x="298" y="501.07649953047036" font-size="11.220516326234598" font-family="Arial Narrow, Arial, sans-serif" fill="#666">Kazakhstan</text><text x="282" y="210.09518455867908" font-size="11.218593227937319" font-family="Arial Narrow, Arial, sans-serif" fill="#666">Malawi</text><text x="495" y="190.21085606891512" font-size="11.206850845545778" font-family="Arial Narrow, Arial, sans-serif" fill="#666">Guatemala</text><text x="646" y="312.9489959543514" font-size="11.138518421724271" font-family="Arial Narrow, Arial, sans-serif" fill="#666">Bolivia</text><text x="681.4015702410703" y="214.07743751713414" font-size="11.127793680517383" font-family="Arial Narrow, Arial, sans-serif" fill="#666">Benin</text><text x="514" y="394.47684681011515" font-size="11.096651197864764" font-family="Arial Narrow, Arial, sans-serif" fill="#666">Hong Kong</text><text x="505" y="154.63635786106948" font-size="11.085147523737882" font-family="Arial Narrow, Arial, sans-serif" fill="#666">Togo</text><text x="291" y="249.66632293520948" font-size="11.083045948352916" font-family="Arial Narrow, Arial, sans-serif" fill="#666">Sierra Leone</text><text x="408" y="375.8540966214974" font-size="11.070304751192051" font-family="Arial Narrow, Arial, sans-serif" fill="#666">Singapore</text><text x="590" y="372.2441056121314" font-size="11.046200837682019" font-family="Arial Narrow, Arial, sans-serif" fill="#666">Moldova</text><text x="346" y="372.80411065511754" font-size="11.01716179970383" font-family="Arial Narrow, Arial, sans-serif" fill="#666">Mauritius</text><text x="356" y="277.9351593358246" font-size="11.011314635553719" font-family="Arial Narrow, Arial, sans-serif" fill="#666">Fiji</text><text x="612" y="269.1133176837327" font-size="11.003942398241659" font-family="Arial Narrow, Arial, sans-serif" fill="#666">Belize</text><text x="477" y="227.13811678481554" font-size="11.00296891234458" font-family="Arial Narrow, Arial, sans-serif" fill="#666">Vanuatu</text><text x="335" y="296.16512174853386" font-size="11.001923485507241" font-family="Arial Narrow, Arial, sans-serif" fill="#666">Saint Lucia</text><text x="495" y="175.1665579420683" font-size="11.001868314763891" font-family="Arial Narrow, Arial, sans-serif" fill="#666">Sao Tome and Principe</text><text x="88" y="413.2158758838472" font-size="11" font-family="Arial Narrow, Arial, sans-serif" fill="#666">Monaco</text></g><g style="cursor: pointer;" class="ScatterColorLegend clickable"><g class="legendMark"><rect x="735" y="124.1" width="43.256" height="17.6" fill="#fff" opacity="0"></rect>,<rect x="735" y="129.6" width="6" height="6" fill="#5675c1"></rect>,<text font-size="12.60" x="746.0" y="136.7"><tspan x="746" y="136.67999999999998">Africa</tspan></text></g><g class="legendMark"><rect x="735" y="141.7" width="35.57" height="17.6" fill="#fff" opacity="0"></rect>,<rect x="735" y="147.2" width="6" height="6" fill="#d14e5b"></rect>,<text font-size="12.60" x="746.0" y="154.3"><tspan x="746" y="154.27999999999997">Asia</tspan></text></g><g class="legendMark"><rect x="735" y="159.3" width="51.824" height="17.6" fill="#fff" opacity="0"></rect>,<rect x="735" y="164.8" width="6" height="6" fill="#ffd336"></rect>,<text font-size="12.60" x="746.0" y="171.9"><tspan x="746" y="171.88">Europe</tspan></text></g><g class="legendMark"><rect x="735" y="176.9" width="91.64" height="17.6" fill="#fff" opacity="0"></rect>,<rect x="735" y="182.4" width="6" height="6" fill="#4d824b"></rect>,<text font-size="12.60" x="746.0" y="189.5"><tspan x="746" y="189.48">North America</tspan></text></g><g class="legendMark"><rect x="735" y="194.5" width="58.124" height="17.6" fill="#fff" opacity="0"></rect>,<rect x="735" y="200" width="6" height="6" fill="#a652ba"></rect>,<text font-size="12.60" x="746.0" y="207.1"><tspan x="746" y="207.07999999999998">Oceania</tspan></text></g><g class="legendMark"><rect x="735" y="212.1" width="93.908" height="17.6" fill="#fff" opacity="0"></rect>,<rect x="735" y="217.6" width="6" height="6" fill="#69c487"></rect>,<text font-size="12.60" x="746.0" y="224.7"><tspan x="746" y="224.67999999999998">South America</tspan></text></g></g></g><g style="fill: #777;" class="SourcesFooter"><g style="fill: #777;" class="clickable"><text font-size="12.60" x="15.0" y="581.6"><tspan x="15" y="581.58">Source: World Bank</tspan></text></g><text font-size="12.60" x="535.8" y="581.6"><tspan x="535.75" y="581.58"><a target='_blank' style='fill: #777;' href='https://ourworldindata.org/financing-education'>OurWorldInData.org/financing-education</a> • <a style="fill: #777;" href="http://creativecommons.org/licenses/by-sa/4.0/deed.en_US" target="_blank">CC BY-SA</a></tspan></text></g></g></svg>