<svg xmlns="http://www.w3.org/2000/svg" version="1.1" style="font-family: 'Helvetica Neue', Helvetica, Arial, sans-serif; font-size: 24px; background-color: white;" width="1200" height="630"><g class="ChartTab"><g><g class="AxisBoxView"><g class="HorizontalAxis"><text font-size="16.80" x="417.8" y="596.6"><tspan x="417.7680000000001" y="596.64">GDP per capita (current US$)</tspan></text><text x="231" y="573.2" fill="#666" text-anchor="middle" font-size="21.6">$20,000</text><text x="428.9" y="573.2" fill="#666" text-anchor="middle" font-size="21.6">$40,000</text><text x="626.8" y="573.2" fill="#666" text-anchor="middle" font-size="21.6">$60,000</text><text x="824.7" y="573.2" fill="#666" text-anchor="middle" font-size="21.6">$80,000</text><text x="1022.6" y="573.2" fill="#666" text-anchor="middle" font-size="21.6">$100,000</text></g><g class="VerticalAxis"><text font-size="16.80" x="-524.1" y="28.4" transform="rotate(-90)"><tspan x="-524.056" y="28.439999999999998">General government procurement expenditure (%GDP)</tspan></text><text x="85.22" y="546.6" fill="#666" dominant-baseline="middle" text-anchor="end" font-size="21.6">0%</text><text x="85.22" y="418.3" fill="#666" dominant-baseline="middle" text-anchor="end" font-size="21.6">5%</text><text x="85.22" y="289.9" fill="#666" dominant-baseline="middle" text-anchor="end" font-size="21.6">10%</text><text x="85.22" y="161.6" fill="#666" dominant-baseline="middle" text-anchor="end" font-size="21.6">15%</text></g><g class="AxisGridLines"><line x1="90.22" y1="546.6" x2="1041.46" y2="546.6" stroke="#ccc"></line><line x1="90.22" y1="418.3" x2="1041.46" y2="418.3" stroke="#ddd" stroke-dasharray="3,2"></line><line x1="90.22" y1="289.9" x2="1041.46" y2="289.9" stroke="#ddd" stroke-dasharray="3,2"></line><line x1="90.22" y1="161.6" x2="1041.46" y2="161.6" stroke="#ddd" stroke-dasharray="3,2"></line></g><g class="AxisGridLines"><line x1="231" y1="546.60" x2="231" y2="35.00" stroke="#ddd" stroke-dasharray="3,2"></line><line x1="428.9" y1="546.60" x2="428.9" y2="35.00" stroke="#ddd" stroke-dasharray="3,2"></line><line x1="626.8" y1="546.60" x2="626.8" y2="35.00" stroke="#ddd" stroke-dasharray="3,2"></line><line x1="824.7" y1="546.60" x2="824.7" y2="35.00" stroke="#ddd" stroke-dasharray="3,2"></line><line x1="1022.6" y1="546.60" x2="1022.6" y2="35.00" stroke="#ddd" stroke-dasharray="3,2"></line></g></g><g clip-path="url(#scatterBounds-1187)" class="PointsWithLabels clickable"><rect x="90.21600000000001" y="35" width="951.2400000000001" height="511.6" fill="rgba(255,255,255,0)"></rect><defs><clipPath id="scatterBounds-1187"><rect x="80.21600000000001" y="25" width="971.2400000000001" height="531.6"></rect></clipPath></defs><circle cx="589" cy="303" r="17.841241161527712" fill="#4d824b" opacity="0.8"></circle><circle cx="125" cy="262" r="12.00210708375551" fill="#ffd336" opacity="0.8"></circle><circle cx="374" cy="127" r="11.313388834341817" fill="#d14e5b" opacity="0.8"></circle><circle cx="123" cy="414" r="10.9183602998233" fill="#4d824b" opacity="0.8"></circle><circle cx="440" cy="154" r="9.158448428288859" fill="#ffd336" opacity="0.8"></circle><circle cx="394" cy="173" r="8.125763740179742" fill="#ffd336" opacity="0.8"></circle><circle cx="467" cy="193" r="8.088773895036537" fill="#ffd336" opacity="0.8"></circle><circle cx="330" cy="279" r="7.959787316687911" fill="#ffd336" opacity="0.8"></circle><circle cx="90" cy="237" r="7.304000415068038" fill="#5675c1" opacity="0.8"></circle><circle cx="301" cy="227" r="7.152844598092856" fill="#d14e5b" opacity="0.8"></circle><circle cx="92" cy="204" r="7.110517682123814" fill="#69c487" opacity="0.8"></circle><circle cx="287" cy="281" r="7.031896259663421" fill="#ffd336" opacity="0.8"></circle><circle cx="157" cy="234" r="6.3890503305804405" fill="#ffd336" opacity="0.8"></circle><circle cx="461" cy="201" r="6.124850234053329" fill="#4d824b" opacity="0.8"></circle><circle cx="592" cy="217" r="5.083945123361203" fill="#a652ba" opacity="0.8"></circle><circle cx="471" cy="35" r="4.410865420818407" fill="#ffd336" opacity="0.8"></circle><circle cx="211" cy="269" r="3.7670472958761234" fill="#ffd336" opacity="0.8"></circle><circle cx="432" cy="173" r="3.6832826976162307" fill="#ffd336" opacity="0.8"></circle><circle cx="223" cy="293" r="3.668319401126187" fill="#ffd336" opacity="0.8"></circle><circle cx="206" cy="167" r="3.652798244175172" fill="#ffd336" opacity="0.8"></circle><circle cx="155" cy="137" r="3.5627502957707673" fill="#ffd336" opacity="0.8"></circle><circle cx="533" cy="130" r="3.5084075087626574" fill="#ffd336" opacity="0.8"></circle><circle cx="465" cy="202" r="3.3488674297820555" fill="#ffd336" opacity="0.8"></circle><circle cx="386" cy="176" r="3.2555267967993724" fill="#d14e5b" opacity="0.8"></circle><circle cx="834" cy="332" r="3.24683838866249" fill="#ffd336" opacity="0.8"></circle><circle cx="557" cy="173" r="2.9003219706775845" fill="#ffd336" opacity="0.8"></circle><circle cx="192" cy="105" r="2.8793444928624936" fill="#ffd336" opacity="0.8"></circle><circle cx="452" cy="75" r="2.8672776990496667" fill="#ffd336" opacity="0.8"></circle><circle cx="770" cy="193" r="2.79259583688441" fill="#ffd336" opacity="0.8"></circle><circle cx="633" cy="327" r="2.727898405188183" fill="#ffd336" opacity="0.8"></circle><circle cx="411" cy="169" r="2.70543557474449" fill="#a652ba" opacity="0.8"></circle><circle cx="174" cy="273" r="2.4700807530149302" fill="#ffd336" opacity="0.8"></circle><circle cx="168" cy="239" r="2.2492822117933553" fill="#ffd336" opacity="0.8"></circle><circle cx="238" cy="197" r="2.2089612817176985" fill="#ffd336" opacity="0.8"></circle><circle cx="202" cy="188" r="2.04458270152988" fill="#ffd336" opacity="0.8"></circle><circle cx="1041" cy="235" r="1.8382680774701106" fill="#ffd336" opacity="0.8"></circle><circle cx="535" cy="191" r="1.7841241161527712" fill="#ffd336" opacity="0.8"></circle><text x="589" y="284.1587588384723" font-size="14.3" font-family="Arial Narrow, Arial, sans-serif" fill="#666">United States</text><text x="125" y="248.9978929162445" font-size="12.475160754791009" font-family="Arial Narrow, Arial, sans-serif" fill="#666">Russia</text><text x="374" y="114.68661116565818" font-size="12.307003787530366" font-family="Arial Narrow, Arial, sans-serif" fill="#666">Japan</text><text x="123" y="402.0816397001767" font-size="12.215037063053769" font-family="Arial Narrow, Arial, sans-serif" fill="#666">Mexico</text><text x="440" y="143.84155157171114" font-size="11.845026416649386" font-family="Arial Narrow, Arial, sans-serif" fill="#666">Germany</text><text x="394" y="163.87423625982026" font-size="11.65811064654456" font-family="Arial Narrow, Arial, sans-serif" fill="#666">France</text><text x="467" y="183.91122610496348" font-size="11.65182983590239" font-family="Arial Narrow, Arial, sans-serif" fill="#666">United Kingdom</text><text x="330" y="270.04021268331206" font-size="11.63015233348552" font-family="Arial Narrow, Arial, sans-serif" fill="#666">Italy</text><text x="90" y="228.69599958493197" font-size="11.525330036115717" font-family="Arial Narrow, Arial, sans-serif" fill="#666">South Africa</text><text x="301" y="218.84715540190714" font-size="11.50244629594408" font-family="Arial Narrow, Arial, sans-serif" fill="#666">South Korea</text><text x="92" y="195.88948231787617" font-size="11.496124111568882" font-family="Arial Narrow, Arial, sans-serif" fill="#666">Colombia</text><text x="287" y="272.9681037403366" font-size="11.484480356542846" font-family="Arial Narrow, Arial, sans-serif" fill="#666">Spain</text><text x="157" y="226.61094966941957" font-size="11.394132331400694" font-family="Arial Narrow, Arial, sans-serif" fill="#666">Poland</text><text x="592" y="210.9160548766388" font-size="11.237330560974415" font-family="Arial Narrow, Arial, sans-serif" fill="#666">Australia</text><text x="471" y="46.170406634174704" font-size="11.170406634174704" font-family="Arial Narrow, Arial, sans-serif" fill="#666">Netherlands</text><text x="211" y="264.2329527041239" font-size="11.1152707570548" font-family="Arial Narrow, Arial, sans-serif" fill="#666">Greece</text><text x="432" y="168.31671730238378" font-size="11.108735470468819" font-family="Arial Narrow, Arial, sans-serif" fill="#666">Belgium</text><text x="223" y="288.3316805988738" font-size="11.107583509160516" font-family="Arial Narrow, Arial, sans-serif" fill="#666">Portugal</text><text x="206" y="162.34720175582484" font-size="11.106393555376885" font-family="Arial Narrow, Arial, sans-serif" fill="#666">Czech Republic</text><text x="155" y="132.43724970422923" font-size="11.099589438059802" font-family="Arial Narrow, Arial, sans-serif" fill="#666">Hungary</text><text x="533" y="125.49159249123734" font-size="11.095565409493599" font-family="Arial Narrow, Arial, sans-serif" fill="#666">Sweden</text><text x="465" y="197.65113257021795" font-size="11.08410896162343" font-family="Arial Narrow, Arial, sans-serif" fill="#666">Austria</text><text x="834" y="327.75316161133753" font-size="11.077061808630155" font-family="Arial Narrow, Arial, sans-serif" fill="#666">Switzerland</text><text x="557" y="169.0996780293224" font-size="11.054755537488377" font-family="Arial Narrow, Arial, sans-serif" fill="#666">Denmark</text><text x="192" y="101.12065550713751" font-size="11.053485885593792" font-family="Arial Narrow, Arial, sans-serif" fill="#666">Slovakia</text><text x="452" y="71.13272230095033" font-size="11.05275972420076" font-family="Arial Narrow, Arial, sans-serif" fill="#666">Finland</text><text x="770" y="189.2074041631156" font-size="11.048333325968198" font-family="Arial Narrow, Arial, sans-serif" fill="#666">Norway</text><text x="633" y="323.27210159481183" font-size="11.044593136353628" font-family="Arial Narrow, Arial, sans-serif" fill="#666">Ireland</text><text x="238" y="193.7910387182823" font-size="11.017764775311969" font-family="Arial Narrow, Arial, sans-serif" fill="#666">Slovenia</text><text x="979.6085393747207" y="232.1617319225299" font-size="11.002053875498069" font-family="Arial Narrow, Arial, sans-serif" fill="#666">Luxembourg</text></g><g style="cursor: pointer;" class="ScatterColorLegend clickable"><g class="legendMark"><rect x="1061.4560000000001" y="32.5" width="56.007999999999996" height="21.799999999999997" fill="#fff" opacity="0"></rect>,<rect x="1061.4560000000001" y="39" width="8" height="8" fill="#5675c1"></rect>,<text font-size="16.80" x="1074.5" y="48.4"><tspan x="1074.4560000000001" y="48.44">Africa</tspan></text></g><g class="legendMark"><rect x="1061.4560000000001" y="54.3" width="45.76" height="21.799999999999997" fill="#fff" opacity="0"></rect>,<rect x="1061.4560000000001" y="60.8" width="8" height="8" fill="#d14e5b"></rect>,<text font-size="16.80" x="1074.5" y="70.2"><tspan x="1074.4560000000001" y="70.24">Asia</tspan></text></g><g class="legendMark"><rect x="1061.4560000000001" y="76.1" width="67.43199999999999" height="21.799999999999997" fill="#fff" opacity="0"></rect>,<rect x="1061.4560000000001" y="82.6" width="8" height="8" fill="#ffd336"></rect>,<text font-size="16.80" x="1074.5" y="92.0"><tspan x="1074.4560000000001" y="92.03999999999999">Europe</tspan></text></g><g class="legendMark"><rect x="1061.4560000000001" y="97.89999999999999" width="120.51999999999998" height="21.799999999999997" fill="#fff" opacity="0"></rect>,<rect x="1061.4560000000001" y="104.39999999999999" width="8" height="8" fill="#4d824b"></rect>,<text font-size="16.80" x="1074.5" y="113.8"><tspan x="1074.4560000000001" y="113.83999999999999">North America</tspan></text></g><g class="legendMark"><rect x="1061.4560000000001" y="119.69999999999999" width="75.832" height="21.799999999999997" fill="#fff" opacity="0"></rect>,<rect x="1061.4560000000001" y="126.19999999999999" width="8" height="8" fill="#a652ba"></rect>,<text font-size="16.80" x="1074.5" y="135.6"><tspan x="1074.4560000000001" y="135.64">Oceania</tspan></text></g><g class="legendMark"><rect x="1061.4560000000001" y="141.5" width="123.54399999999998" height="21.799999999999997" fill="#fff" opacity="0"></rect>,<rect x="1061.4560000000001" y="148" width="8" height="8" fill="#69c487"></rect>,<text font-size="16.80" x="1074.5" y="157.4"><tspan x="1074.4560000000001" y="157.44">South America</tspan></text></g></g></g></g></svg>