<svg xmlns="http://www.w3.org/2000/svg" version="1.1" style="font-family: 'Helvetica Neue', Helvetica, Arial, sans-serif; font-size: 18px; background-color: white; text-rendering: optimizeLegibility; -webkit-font-smoothing: antialiased;" width="850" height="600"><g class="ChartTab"><g class="HeaderView"><g opacity="0.8" transform="translate(778, 15) scale(0.27)"><a xmlns:xlink="http://www.w3.org/1999/xlink" xlink:href="https://ourworldindata.org" target="_blank"><g><rect x="0" y="0" fill="#1B2543" width="211.2" height="130.1"/><rect x="0" y="112.2" fill="#E63912" width="211.2" height="17.9"/><g><rect x="1.2" y="12.3" fill="none" width="210.2" height="99.2"/><path fill="#FFFFFF" d="M37.8,32.2c0,12.7-7.7,19.4-17.1,19.4c-9.7,0-16.6-7.5-16.6-18.7c0-11.7,7.3-19.3,17.1-19.3 C31.3,13.7,37.8,21.3,37.8,32.2z M9.2,32.8c0,7.9,4.3,14.9,11.8,14.9c7.5,0,11.8-6.9,11.8-15.3c0-7.3-3.8-14.9-11.8-14.9 C13.1,17.5,9.2,24.8,9.2,32.8z"/><path fill="#FFFFFF" d="M62.7,43.8c0,2.7,0.1,5.1,0.2,7.2h-4.3l-0.3-4.3h-0.1c-1.3,2.1-4,4.9-8.8,4.9c-4.2,0-9.1-2.3-9.1-11.6 V24.6h4.8v14.6c0,5,1.5,8.4,5.9,8.4c3.2,0,5.5-2.2,6.3-4.4c0.3-0.7,0.4-1.6,0.4-2.5V24.6h4.8V43.8z"/><path fill="#FFFFFF" d="M67.3,32.8c0-3.1-0.1-5.8-0.2-8.2h4.2l0.2,5.2h0.2c1.2-3.5,4.1-5.8,7.3-5.8c0.5,0,0.9,0.1,1.4,0.2v4.5 c-0.5-0.1-1-0.2-1.6-0.2c-3.4,0-5.8,2.6-6.5,6.2c-0.1,0.7-0.2,1.4-0.2,2.2V51h-4.8V32.8z"/><path fill="#FFFFFF" d="M95.4,51l-9.4-36.8h5l4.4,18.6c1.1,4.6,2.1,9.2,2.7,12.7h0.1c0.6-3.7,1.8-8,3-12.8l4.9-18.5h5l4.5,18.7 c1,4.4,2,8.7,2.6,12.6h0.1c0.8-4,1.8-8.1,3-12.7l4.9-18.5h4.9L120.6,51h-5L111,31.9c-1.1-4.7-1.9-8.3-2.4-12h-0.1 c-0.7,3.7-1.5,7.3-2.8,12L100.4,51H95.4z"/><path fill="#FFFFFF" d="M154.9,37.6c0,9.8-6.8,14-13.2,14c-7.2,0-12.7-5.2-12.7-13.6c0-8.8,5.8-14,13.1-14 C149.8,24,154.9,29.5,154.9,37.6z M133.9,37.9c0,5.8,3.3,10.1,8,10.1c4.6,0,8-4.3,8-10.3c0-4.5-2.2-10.1-7.9-10.1 C136.3,27.6,133.9,32.8,133.9,37.9z"/><path fill="#FFFFFF" d="M158.2,32.8c0-3.1-0.1-5.8-0.2-8.2h4.2l0.2,5.2h0.2c1.2-3.5,4.1-5.8,7.3-5.8c0.5,0,0.9,0.1,1.4,0.2v4.5 c-0.5-0.1-1-0.2-1.6-0.2c-3.4,0-5.8,2.6-6.5,6.2c-0.1,0.7-0.2,1.4-0.2,2.2V51h-4.8V32.8z"/><path fill="#FFFFFF" d="M173.5,12.3h4.8V51h-4.8V12.3z"/><path fill="#FFFFFF" d="M206.5,12.3v31.9c0,2.3,0.1,5,0.2,6.8h-4.3l-0.2-4.6H202c-1.5,2.9-4.7,5.2-9,5.2 c-6.4,0-11.3-5.4-11.3-13.4c-0.1-8.8,5.4-14.2,11.9-14.2c4,0,6.8,1.9,8,4h0.1V12.3H206.5z M201.7,35.4c0-0.6-0.1-1.4-0.2-2 c-0.7-3.1-3.3-5.6-6.9-5.6c-5,0-7.9,4.4-7.9,10.2c0,5.3,2.6,9.8,7.8,9.8c3.2,0,6.2-2.1,7.1-5.7c0.2-0.7,0.2-1.3,0.2-2.1V35.4z"/><path fill="#FFFFFF" d="M42.8,64c0.1,1.6-1.1,2.9-3.1,2.9c-1.7,0-2.9-1.3-2.9-2.9c0-1.7,1.3-3,3-3C41.7,61,42.8,62.3,42.8,64z M37.4,97.8V71.4h4.8v26.4H37.4z"/><path fill="#FFFFFF" d="M47.5,78.6c0-2.7-0.1-5-0.2-7.1h4.3l0.3,4.4h0.1c1.3-2.5,4.4-5,8.8-5c3.7,0,9.4,2.2,9.4,11.2v15.8h-4.8 V82.6c0-4.3-1.6-7.8-6.1-7.8c-3.2,0-5.6,2.2-6.5,4.9c-0.2,0.6-0.3,1.4-0.3,2.2v15.9h-4.8V78.6z"/><path fill="#FFFFFF" d="M84,61.6c2.9-0.4,6.3-0.8,10.1-0.8c6.8,0,11.7,1.6,14.9,4.6c3.3,3,5.2,7.3,5.2,13.2c0,6-1.9,10.9-5.3,14.3 c-3.4,3.4-9.1,5.3-16.3,5.3c-3.4,0-6.2-0.2-8.6-0.4V61.6z M88.8,94.1c1.2,0.2,3,0.3,4.8,0.3c10.2,0,15.7-5.7,15.7-15.6 c0.1-8.7-4.9-14.2-14.9-14.2c-2.5,0-4.3,0.2-5.6,0.5V94.1z"/><path fill="#FFFFFF" d="M132.1,97.8l-0.4-3.3h-0.2c-1.5,2.1-4.3,3.9-8.1,3.9c-5.4,0-8.1-3.8-8.1-7.6c0-6.4,5.7-9.9,15.9-9.8v-0.5 c0-2.2-0.6-6.1-6-6.1c-2.5,0-5,0.8-6.9,2l-1.1-3.2c2.2-1.4,5.4-2.3,8.7-2.3c8.1,0,10.1,5.5,10.1,10.8v9.9c0,2.3,0.1,4.5,0.4,6.3 H132.1z M131.4,84.4c-5.3-0.1-11.2,0.8-11.2,5.9c0,3.1,2.1,4.6,4.5,4.6c3.4,0,5.6-2.2,6.4-4.4c0.2-0.5,0.3-1,0.3-1.5V84.4z"/><path fill="#FFFFFF" d="M146.6,63.9v7.6h6.9v3.7h-6.9v14.2c0,3.3,0.9,5.1,3.6,5.1c1.3,0,2.2-0.2,2.8-0.3l0.2,3.6 c-0.9,0.4-2.4,0.7-4.3,0.7c-2.2,0-4-0.7-5.2-2c-1.4-1.4-1.9-3.8-1.9-6.9V75.1h-4.1v-3.7h4.1v-6.3L146.6,63.9z"/><path fill="#FFFFFF" d="M171.4,97.8l-0.4-3.3h-0.2c-1.5,2.1-4.3,3.9-8.1,3.9c-5.4,0-8.1-3.8-8.1-7.6c0-6.4,5.7-9.9,15.9-9.8v-0.5 c0-2.2-0.6-6.1-6-6.1c-2.5,0-5,0.8-6.9,2l-1.1-3.2c2.2-1.4,5.4-2.3,8.7-2.3c8.1,0,10.1,5.5,10.1,10.8v9.9c0,2.3,0.1,4.5,0.4,6.3 H171.4z M170.7,84.4c-5.3-0.1-11.2,0.8-11.2,5.9c0,3.1,2.1,4.6,4.5,4.6c3.4,0,5.6-2.2,6.4-4.4c0.2-0.5,0.3-1,0.3-1.5V84.4z"/></g></g></a></g><a href="https://ourworldindata.org/grapher/projections-of-the-share-of-the-population-aged-15-educated-to-degree-level-by-country" target="_blank"><text font-size="21.60" x="15.0" y="32.3" fill="#555"><tspan x="15" y="32.279999999999994">Projections of the share of the population aged 15+ educated to degree level</tspan><tspan x="15" y="53.87999999999999">by country</tspan></text></a><text font-size="14.40" x="15.0" y="72.7" fill="#666"><tspan x="15" y="72.72">Projections are IIASA Global Education Trends (GET) estimates based on the continuation of current trends.</tspan></text></g><g class="LineChart"><defs><clipPath id="boundsClip-347"><rect x="42.562" y="0" width="830" height="892.6"></rect></clipPath></defs><g class="AxisBoxView"><g class="HorizontalAxis"><text x="52.6" y="541.9" fill="#666" text-anchor="middle" font-size="16.2">1970</text><text x="137.2" y="541.9" fill="#666" text-anchor="middle" font-size="16.2">1980</text><text x="221.8" y="541.9" fill="#666" text-anchor="middle" font-size="16.2">1990</text><text x="306.4" y="541.9" fill="#666" text-anchor="middle" font-size="16.2">2000</text><text x="391" y="541.9" fill="#666" text-anchor="middle" font-size="16.2">2010</text><text x="475.7" y="541.9" fill="#666" text-anchor="middle" font-size="16.2">2020</text><text x="560.3" y="541.9" fill="#666" text-anchor="middle" font-size="16.2">2030</text><text x="644.9" y="541.9" fill="#666" text-anchor="middle" font-size="16.2">2040</text><text x="729.5" y="541.9" fill="#666" text-anchor="middle" font-size="16.2">2050</text></g><g class="VerticalAxis"><text x="47.56" y="520.7" fill="#666" dominant-baseline="middle" text-anchor="end" font-size="16.2">0%</text><text x="47.56" y="449.9" fill="#666" dominant-baseline="middle" text-anchor="end" font-size="16.2">10%</text><text x="47.56" y="379" fill="#666" dominant-baseline="middle" text-anchor="end" font-size="16.2">20%</text><text x="47.56" y="308.2" fill="#666" dominant-baseline="middle" text-anchor="end" font-size="16.2">30%</text><text x="47.56" y="237.3" fill="#666" dominant-baseline="middle" text-anchor="end" font-size="16.2">40%</text><text x="47.56" y="166.4" fill="#666" dominant-baseline="middle" text-anchor="end" font-size="16.2">50%</text><text x="47.56" y="95.6" fill="#666" dominant-baseline="middle" text-anchor="end" font-size="16.2">60%</text></g><g class="AxisGridLines"><line x1="52.56" y1="520.7" x2="729.50" y2="520.7" stroke="#ccc"></line><line x1="52.56" y1="449.9" x2="729.50" y2="449.9" stroke="#ddd" stroke-dasharray="3,2"></line><line x1="52.56" y1="379" x2="729.50" y2="379" stroke="#ddd" stroke-dasharray="3,2"></line><line x1="52.56" y1="308.2" x2="729.50" y2="308.2" stroke="#ddd" stroke-dasharray="3,2"></line><line x1="52.56" y1="237.3" x2="729.50" y2="237.3" stroke="#ddd" stroke-dasharray="3,2"></line><line x1="52.56" y1="166.4" x2="729.50" y2="166.4" stroke="#ddd" stroke-dasharray="3,2"></line><line x1="52.56" y1="95.6" x2="729.50" y2="95.6" stroke="#ddd" stroke-dasharray="3,2"></line></g></g><g clip-path="url(#boundsClip-347)"><g class="HeightedLegend clickable"><g class="legendMark"><rect x="739.504" y="147.10000000000002" width="95.49600000000001" height="14.4" fill="#fff" opacity="0"></rect><rect x="739.504" y="153.05" width="10" height="2.5" fill="#9ecc8a"></rect><text font-size="14.40" x="754.5" y="158.6" fill="#333"><tspan x="754.504" y="158.62000000000003">South Korea</tspan></text></g><g class="legendMark"><rect x="739.504" y="170.4" width="80.95200000000001" height="14.4" fill="#fff" opacity="0"></rect><rect x="739.504" y="176.35" width="10" height="2.5" fill="#e6332e"></rect><text font-size="14.40" x="754.5" y="181.9" fill="#333"><tspan x="754.504" y="181.92000000000002">Singapore</tspan></text></g><g class="legendMark"><rect x="739.504" y="247.3" width="71.16" height="14.4" fill="#fff" opacity="0"></rect><rect x="739.504" y="253.25" width="10" height="2.5" fill="#2a939b"></rect><text font-size="14.40" x="754.5" y="258.8" fill="#333"><tspan x="754.504" y="258.82">Australia</tspan></text></g><g class="legendMark"><rect x="739.504" y="270.5" width="92.90400000000001" height="14.4" fill="#fff" opacity="0"></rect><rect x="739.504" y="276.45" width="10" height="2.5" fill="#a652ba"></rect><text font-size="14.40" x="754.5" y="282.0" fill="#333"><tspan x="754.504" y="282.02">Netherlands</tspan></text></g><g class="legendMark"><rect x="739.504" y="290.90000000000003" width="52.008" height="14.4" fill="#fff" opacity="0"></rect><rect x="739.504" y="296.85" width="10" height="2.5" fill="#f6a324"></rect><text font-size="14.40" x="754.5" y="302.4" fill="#333"><tspan x="754.504" y="302.42">Egypt</tspan></text></g><g class="legendMark"><rect x="739.504" y="340.3" width="76.92000000000002" height="14.4" fill="#fff" opacity="0"></rect><rect x="739.504" y="346.25" width="10" height="2.5" fill="#34983f"></rect><text font-size="14.40" x="754.5" y="351.8" fill="#333"><tspan x="754.504" y="351.82">Argentina</tspan></text></g><g class="legendMark"><rect x="739.504" y="392.90000000000003" width="46.392" height="14.4" fill="#fff" opacity="0"></rect><rect x="739.504" y="398.85" width="10" height="2.5" fill="#ca2628"></rect><text font-size="14.40" x="754.5" y="404.4" fill="#333"><tspan x="754.504" y="404.42">India</tspan></text></g><g class="legendMark"><rect x="739.504" y="407.3" width="51.00000000000001" height="14.4" fill="#fff" opacity="0"></rect><rect x="739.504" y="413.25" width="10" height="2.5" fill="#3360a9"></rect><text font-size="14.40" x="754.5" y="418.8" fill="#333"><tspan x="754.504" y="418.82">Brazil</tspan></text></g></g><g class="Lines"><rect x="53" y="96" width="677" height="425" fill="rgba(255,255,255,0)" opacity="0"></rect><g class="key-India_0"><path stroke="#ca2628" stroke-linecap="round" d="M53 509L95 506L137 501L180 498L222 494L264 489L306 481L349 475L391 468L433 461L476 454L518 446L560 438L603 429L645 420L687 410L730 400" fill="none" stroke-width="1.5"></path><g fill="#ca2628"><circle cx="53" cy="509" r="2"></circle><circle cx="95" cy="506" r="2"></circle><circle cx="137" cy="501" r="2"></circle><circle cx="180" cy="498" r="2"></circle><circle cx="222" cy="494" r="2"></circle><circle cx="264" cy="489" r="2"></circle><circle cx="306" cy="481" r="2"></circle><circle cx="349" cy="475" r="2"></circle><circle cx="391" cy="468" r="2"></circle><circle cx="433" cy="461" r="2"></circle><circle cx="476" cy="454" r="2"></circle><circle cx="518" cy="446" r="2"></circle><circle cx="560" cy="438" r="2"></circle><circle cx="603" cy="429" r="2"></circle><circle cx="645" cy="420" r="2"></circle><circle cx="687" cy="410" r="2"></circle><circle cx="730" cy="400" r="2"></circle></g></g><g class="key-South-Korea_0"><path stroke="#9ecc8a" stroke-linecap="round" d="M53 499L95 491L137 477L180 457L222 433L264 403L306 374L349 349L391 327L433 305L476 280L518 258L560 238L603 218L645 197L687 176L730 154" fill="none" stroke-width="1.5"></path><g fill="#9ecc8a"><circle cx="53" cy="499" r="2"></circle><circle cx="95" cy="491" r="2"></circle><circle cx="137" cy="477" r="2"></circle><circle cx="180" cy="457" r="2"></circle><circle cx="222" cy="433" r="2"></circle><circle cx="264" cy="403" r="2"></circle><circle cx="306" cy="374" r="2"></circle><circle cx="349" cy="349" r="2"></circle><circle cx="391" cy="327" r="2"></circle><circle cx="433" cy="305" r="2"></circle><circle cx="476" cy="280" r="2"></circle><circle cx="518" cy="258" r="2"></circle><circle cx="560" cy="238" r="2"></circle><circle cx="603" cy="218" r="2"></circle><circle cx="645" cy="197" r="2"></circle><circle cx="687" cy="176" r="2"></circle><circle cx="730" cy="154" r="2"></circle></g></g><g class="key-Singapore_0"><path stroke="#e6332e" stroke-linecap="round" d="M53 498L95 489L137 476L180 458L222 432L264 400L306 361L349 345L391 331L433 309L476 287L518 269L560 253L603 237L645 220L687 199L730 178" fill="none" stroke-width="1.5"></path><g fill="#e6332e"><circle cx="53" cy="498" r="2"></circle><circle cx="95" cy="489" r="2"></circle><circle cx="137" cy="476" r="2"></circle><circle cx="180" cy="458" r="2"></circle><circle cx="222" cy="432" r="2"></circle><circle cx="264" cy="400" r="2"></circle><circle cx="306" cy="361" r="2"></circle><circle cx="349" cy="345" r="2"></circle><circle cx="391" cy="331" r="2"></circle><circle cx="433" cy="309" r="2"></circle><circle cx="476" cy="287" r="2"></circle><circle cx="518" cy="269" r="2"></circle><circle cx="560" cy="253" r="2"></circle><circle cx="603" cy="237" r="2"></circle><circle cx="645" cy="220" r="2"></circle><circle cx="687" cy="199" r="2"></circle><circle cx="730" cy="178" r="2"></circle></g></g><g class="key-Egypt_0"><path stroke="#f6a324" stroke-linecap="round" d="M53 504L95 497L137 490L180 482L222 474L264 463L306 443L349 429L391 414L433 401L476 389L518 375L560 361L603 346L645 330L687 314L730 298" fill="none" stroke-width="1.5"></path><g fill="#f6a324"><circle cx="53" cy="504" r="2"></circle><circle cx="95" cy="497" r="2"></circle><circle cx="137" cy="490" r="2"></circle><circle cx="180" cy="482" r="2"></circle><circle cx="222" cy="474" r="2"></circle><circle cx="264" cy="463" r="2"></circle><circle cx="306" cy="443" r="2"></circle><circle cx="349" cy="429" r="2"></circle><circle cx="391" cy="414" r="2"></circle><circle cx="433" cy="401" r="2"></circle><circle cx="476" cy="389" r="2"></circle><circle cx="518" cy="375" r="2"></circle><circle cx="560" cy="361" r="2"></circle><circle cx="603" cy="346" r="2"></circle><circle cx="645" cy="330" r="2"></circle><circle cx="687" cy="314" r="2"></circle><circle cx="730" cy="298" r="2"></circle></g></g><g class="key-Brazil_0"><path stroke="#3360a9" stroke-linecap="round" d="M53 499L95 495L137 491L180 486L222 483L264 480L306 477L349 473L391 468L433 463L476 459L518 453L560 446L603 439L645 431L687 422L730 412" fill="none" stroke-width="1.5"></path><g fill="#3360a9"><circle cx="53" cy="499" r="2"></circle><circle cx="95" cy="495" r="2"></circle><circle cx="137" cy="491" r="2"></circle><circle cx="180" cy="486" r="2"></circle><circle cx="222" cy="483" r="2"></circle><circle cx="264" cy="480" r="2"></circle><circle cx="306" cy="477" r="2"></circle><circle cx="349" cy="473" r="2"></circle><circle cx="391" cy="468" r="2"></circle><circle cx="433" cy="463" r="2"></circle><circle cx="476" cy="459" r="2"></circle><circle cx="518" cy="453" r="2"></circle><circle cx="560" cy="446" r="2"></circle><circle cx="603" cy="439" r="2"></circle><circle cx="645" cy="431" r="2"></circle><circle cx="687" cy="422" r="2"></circle><circle cx="730" cy="412" r="2"></circle></g></g><g class="key-Australia_0"><path stroke="#2a939b" stroke-linecap="round" d="M53 479L95 464L137 446L180 428L222 407L264 389L306 370L349 359L391 348L433 335L476 323L518 311L560 300L603 289L645 278L687 267L730 255" fill="none" stroke-width="1.5"></path><g fill="#2a939b"><circle cx="53" cy="479" r="2"></circle><circle cx="95" cy="464" r="2"></circle><circle cx="137" cy="446" r="2"></circle><circle cx="180" cy="428" r="2"></circle><circle cx="222" cy="407" r="2"></circle><circle cx="264" cy="389" r="2"></circle><circle cx="306" cy="370" r="2"></circle><circle cx="349" cy="359" r="2"></circle><circle cx="391" cy="348" r="2"></circle><circle cx="433" cy="335" r="2"></circle><circle cx="476" cy="323" r="2"></circle><circle cx="518" cy="311" r="2"></circle><circle cx="560" cy="300" r="2"></circle><circle cx="603" cy="289" r="2"></circle><circle cx="645" cy="278" r="2"></circle><circle cx="687" cy="267" r="2"></circle><circle cx="730" cy="255" r="2"></circle></g></g><g class="key-Argentina_0"><path stroke="#34983f" stroke-linecap="round" d="M53 497L95 491L137 485L180 478L222 471L264 465L306 459L349 451L391 442L433 432L476 421L518 411L560 400L603 388L645 375L687 362L730 348" fill="none" stroke-width="1.5"></path><g fill="#34983f"><circle cx="53" cy="497" r="2"></circle><circle cx="95" cy="491" r="2"></circle><circle cx="137" cy="485" r="2"></circle><circle cx="180" cy="478" r="2"></circle><circle cx="222" cy="471" r="2"></circle><circle cx="264" cy="465" r="2"></circle><circle cx="306" cy="459" r="2"></circle><circle cx="349" cy="451" r="2"></circle><circle cx="391" cy="442" r="2"></circle><circle cx="433" cy="432" r="2"></circle><circle cx="476" cy="421" r="2"></circle><circle cx="518" cy="411" r="2"></circle><circle cx="560" cy="400" r="2"></circle><circle cx="603" cy="388" r="2"></circle><circle cx="645" cy="375" r="2"></circle><circle cx="687" cy="362" r="2"></circle><circle cx="730" cy="348" r="2"></circle></g></g><g class="key-Netherlands_0"><path stroke="#a652ba" stroke-linecap="round" d="M53 464L95 452L137 441L180 430L222 418L264 405L306 392L349 384L391 375L433 365L476 355L518 343L560 330L603 317L645 305L687 292L730 278" fill="none" stroke-width="1.5"></path><g fill="#a652ba"><circle cx="53" cy="464" r="2"></circle><circle cx="95" cy="452" r="2"></circle><circle cx="137" cy="441" r="2"></circle><circle cx="180" cy="430" r="2"></circle><circle cx="222" cy="418" r="2"></circle><circle cx="264" cy="405" r="2"></circle><circle cx="306" cy="392" r="2"></circle><circle cx="349" cy="384" r="2"></circle><circle cx="391" cy="375" r="2"></circle><circle cx="433" cy="365" r="2"></circle><circle cx="476" cy="355" r="2"></circle><circle cx="518" cy="343" r="2"></circle><circle cx="560" cy="330" r="2"></circle><circle cx="603" cy="317" r="2"></circle><circle cx="645" cy="305" r="2"></circle><circle cx="687" cy="292" r="2"></circle><circle cx="730" cy="278" r="2"></circle></g></g></g></g></g><g style="fill: #777;" class="SourcesFooter"><g style="fill: #777;" class="clickable"><text font-size="12.60" x="15.0" y="567.0"><tspan x="15" y="566.98">Source: International Institute for Applied Systems Analysis (IIASA): World Population and Human Capital in the Twenty-First Century (2015)</tspan></text></g><text font-size="12.60" x="15.0" y="582.5"><tspan x="15" y="582.48"><a target='_blank' style='fill: #777;' href='https://ourworldindata.org/tertiary-education/'>OurWorldInData.org/tertiary-education/</a> • <a style="fill: #777;" href="http://creativecommons.org/licenses/by-sa/4.0/deed.en_US" target="_blank">CC BY-SA</a></tspan></text></g></g></svg>