<svg xmlns="http://www.w3.org/2000/svg" version="1.1" style="font-family: 'Helvetica Neue', Helvetica, Arial, sans-serif; font-size: 18px; background-color: white; text-rendering: optimizeLegibility; -webkit-font-smoothing: antialiased;" width="850" height="600"><g class="ChartTab"><g class="HeaderView"><g opacity="0.8" transform="translate(778, 15) scale(0.27)"><a xmlns:xlink="http://www.w3.org/1999/xlink" xlink:href="https://ourworldindata.org" target="_blank"><g><rect x="0" y="0" fill="#1B2543" width="211.2" height="130.1"/><rect x="0" y="112.2" fill="#E63912" width="211.2" height="17.9"/><g><rect x="1.2" y="12.3" fill="none" width="210.2" height="99.2"/><path fill="#FFFFFF" d="M37.8,32.2c0,12.7-7.7,19.4-17.1,19.4c-9.7,0-16.6-7.5-16.6-18.7c0-11.7,7.3-19.3,17.1-19.3 C31.3,13.7,37.8,21.3,37.8,32.2z M9.2,32.8c0,7.9,4.3,14.9,11.8,14.9c7.5,0,11.8-6.9,11.8-15.3c0-7.3-3.8-14.9-11.8-14.9 C13.1,17.5,9.2,24.8,9.2,32.8z"/><path fill="#FFFFFF" d="M62.7,43.8c0,2.7,0.1,5.1,0.2,7.2h-4.3l-0.3-4.3h-0.1c-1.3,2.1-4,4.9-8.8,4.9c-4.2,0-9.1-2.3-9.1-11.6 V24.6h4.8v14.6c0,5,1.5,8.4,5.9,8.4c3.2,0,5.5-2.2,6.3-4.4c0.3-0.7,0.4-1.6,0.4-2.5V24.6h4.8V43.8z"/><path fill="#FFFFFF" d="M67.3,32.8c0-3.1-0.1-5.8-0.2-8.2h4.2l0.2,5.2h0.2c1.2-3.5,4.1-5.8,7.3-5.8c0.5,0,0.9,0.1,1.4,0.2v4.5 c-0.5-0.1-1-0.2-1.6-0.2c-3.4,0-5.8,2.6-6.5,6.2c-0.1,0.7-0.2,1.4-0.2,2.2V51h-4.8V32.8z"/><path fill="#FFFFFF" d="M95.4,51l-9.4-36.8h5l4.4,18.6c1.1,4.6,2.1,9.2,2.7,12.7h0.1c0.6-3.7,1.8-8,3-12.8l4.9-18.5h5l4.5,18.7 c1,4.4,2,8.7,2.6,12.6h0.1c0.8-4,1.8-8.1,3-12.7l4.9-18.5h4.9L120.6,51h-5L111,31.9c-1.1-4.7-1.9-8.3-2.4-12h-0.1 c-0.7,3.7-1.5,7.3-2.8,12L100.4,51H95.4z"/><path fill="#FFFFFF" d="M154.9,37.6c0,9.8-6.8,14-13.2,14c-7.2,0-12.7-5.2-12.7-13.6c0-8.8,5.8-14,13.1-14 C149.8,24,154.9,29.5,154.9,37.6z M133.9,37.9c0,5.8,3.3,10.1,8,10.1c4.6,0,8-4.3,8-10.3c0-4.5-2.2-10.1-7.9-10.1 C136.3,27.6,133.9,32.8,133.9,37.9z"/><path fill="#FFFFFF" d="M158.2,32.8c0-3.1-0.1-5.8-0.2-8.2h4.2l0.2,5.2h0.2c1.2-3.5,4.1-5.8,7.3-5.8c0.5,0,0.9,0.1,1.4,0.2v4.5 c-0.5-0.1-1-0.2-1.6-0.2c-3.4,0-5.8,2.6-6.5,6.2c-0.1,0.7-0.2,1.4-0.2,2.2V51h-4.8V32.8z"/><path fill="#FFFFFF" d="M173.5,12.3h4.8V51h-4.8V12.3z"/><path fill="#FFFFFF" d="M206.5,12.3v31.9c0,2.3,0.1,5,0.2,6.8h-4.3l-0.2-4.6H202c-1.5,2.9-4.7,5.2-9,5.2 c-6.4,0-11.3-5.4-11.3-13.4c-0.1-8.8,5.4-14.2,11.9-14.2c4,0,6.8,1.9,8,4h0.1V12.3H206.5z M201.7,35.4c0-0.6-0.1-1.4-0.2-2 c-0.7-3.1-3.3-5.6-6.9-5.6c-5,0-7.9,4.4-7.9,10.2c0,5.3,2.6,9.8,7.8,9.8c3.2,0,6.2-2.1,7.1-5.7c0.2-0.7,0.2-1.3,0.2-2.1V35.4z"/><path fill="#FFFFFF" d="M42.8,64c0.1,1.6-1.1,2.9-3.1,2.9c-1.7,0-2.9-1.3-2.9-2.9c0-1.7,1.3-3,3-3C41.7,61,42.8,62.3,42.8,64z M37.4,97.8V71.4h4.8v26.4H37.4z"/><path fill="#FFFFFF" d="M47.5,78.6c0-2.7-0.1-5-0.2-7.1h4.3l0.3,4.4h0.1c1.3-2.5,4.4-5,8.8-5c3.7,0,9.4,2.2,9.4,11.2v15.8h-4.8 V82.6c0-4.3-1.6-7.8-6.1-7.8c-3.2,0-5.6,2.2-6.5,4.9c-0.2,0.6-0.3,1.4-0.3,2.2v15.9h-4.8V78.6z"/><path fill="#FFFFFF" d="M84,61.6c2.9-0.4,6.3-0.8,10.1-0.8c6.8,0,11.7,1.6,14.9,4.6c3.3,3,5.2,7.3,5.2,13.2c0,6-1.9,10.9-5.3,14.3 c-3.4,3.4-9.1,5.3-16.3,5.3c-3.4,0-6.2-0.2-8.6-0.4V61.6z M88.8,94.1c1.2,0.2,3,0.3,4.8,0.3c10.2,0,15.7-5.7,15.7-15.6 c0.1-8.7-4.9-14.2-14.9-14.2c-2.5,0-4.3,0.2-5.6,0.5V94.1z"/><path fill="#FFFFFF" d="M132.1,97.8l-0.4-3.3h-0.2c-1.5,2.1-4.3,3.9-8.1,3.9c-5.4,0-8.1-3.8-8.1-7.6c0-6.4,5.7-9.9,15.9-9.8v-0.5 c0-2.2-0.6-6.1-6-6.1c-2.5,0-5,0.8-6.9,2l-1.1-3.2c2.2-1.4,5.4-2.3,8.7-2.3c8.1,0,10.1,5.5,10.1,10.8v9.9c0,2.3,0.1,4.5,0.4,6.3 H132.1z M131.4,84.4c-5.3-0.1-11.2,0.8-11.2,5.9c0,3.1,2.1,4.6,4.5,4.6c3.4,0,5.6-2.2,6.4-4.4c0.2-0.5,0.3-1,0.3-1.5V84.4z"/><path fill="#FFFFFF" d="M146.6,63.9v7.6h6.9v3.7h-6.9v14.2c0,3.3,0.9,5.1,3.6,5.1c1.3,0,2.2-0.2,2.8-0.3l0.2,3.6 c-0.9,0.4-2.4,0.7-4.3,0.7c-2.2,0-4-0.7-5.2-2c-1.4-1.4-1.9-3.8-1.9-6.9V75.1h-4.1v-3.7h4.1v-6.3L146.6,63.9z"/><path fill="#FFFFFF" d="M171.4,97.8l-0.4-3.3h-0.2c-1.5,2.1-4.3,3.9-8.1,3.9c-5.4,0-8.1-3.8-8.1-7.6c0-6.4,5.7-9.9,15.9-9.8v-0.5 c0-2.2-0.6-6.1-6-6.1c-2.5,0-5,0.8-6.9,2l-1.1-3.2c2.2-1.4,5.4-2.3,8.7-2.3c8.1,0,10.1,5.5,10.1,10.8v9.9c0,2.3,0.1,4.5,0.4,6.3 H171.4z M170.7,84.4c-5.3-0.1-11.2,0.8-11.2,5.9c0,3.1,2.1,4.6,4.5,4.6c3.4,0,5.6-2.2,6.4-4.4c0.2-0.5,0.3-1,0.3-1.5V84.4z"/></g></g></a></g><a href="https://ourworldindata.org/grapher/published-book-titles" target="_blank"><text font-size="27.00" x="15.0" y="36.6" fill="#555"><tspan x="15" y="36.6">Published book titles, United Kingdom</tspan></text></a><text font-size="14.40" x="15.0" y="55.5" fill="#666"><tspan x="15" y="55.519999999999996">Figure illustrates the number of published book titles.</tspan></text></g><g class="LineChart"><defs><clipPath id="boundsClip-1"><rect x="50.824" y="0" width="830" height="956.2"></rect></clipPath></defs><g class="AxisBoxView"><g class="HorizontalAxis"><text x="60.8" y="556.5" fill="#666" text-anchor="middle" font-size="16.2">1470</text><text x="115.6" y="556.5" fill="#666" text-anchor="middle" font-size="16.2">1500</text><text x="206.9" y="556.5" fill="#666" text-anchor="middle" font-size="16.2">1550</text><text x="298.1" y="556.5" fill="#666" text-anchor="middle" font-size="16.2">1600</text><text x="389.4" y="556.5" fill="#666" text-anchor="middle" font-size="16.2">1650</text><text x="480.7" y="556.5" fill="#666" text-anchor="middle" font-size="16.2">1700</text><text x="571.9" y="556.5" fill="#666" text-anchor="middle" font-size="16.2">1750</text><text x="661.4" y="556.5" fill="#666" text-anchor="middle" font-size="16.2">1799</text></g><g class="VerticalAxis"><text x="55.82" y="535.3" fill="#666" dominant-baseline="middle" text-anchor="end" font-size="16.2">0</text><text x="55.82" y="477" fill="#666" dominant-baseline="middle" text-anchor="end" font-size="16.2">1,000</text><text x="55.82" y="418.8" fill="#666" dominant-baseline="middle" text-anchor="end" font-size="16.2">2,000</text><text x="55.82" y="360.5" fill="#666" dominant-baseline="middle" text-anchor="end" font-size="16.2">3,000</text><text x="55.82" y="302.2" fill="#666" dominant-baseline="middle" text-anchor="end" font-size="16.2">4,000</text><text x="55.82" y="244" fill="#666" dominant-baseline="middle" text-anchor="end" font-size="16.2">5,000</text><text x="55.82" y="185.7" fill="#666" dominant-baseline="middle" text-anchor="end" font-size="16.2">6,000</text><text x="55.82" y="127.5" fill="#666" dominant-baseline="middle" text-anchor="end" font-size="16.2">7,000</text></g><g class="AxisGridLines"><line x1="60.82" y1="535.3" x2="661.39" y2="535.3" stroke="#ccc"></line><line x1="60.82" y1="477" x2="661.39" y2="477" stroke="#ddd" stroke-dasharray="3,2"></line><line x1="60.82" y1="418.8" x2="661.39" y2="418.8" stroke="#ddd" stroke-dasharray="3,2"></line><line x1="60.82" y1="360.5" x2="661.39" y2="360.5" stroke="#ddd" stroke-dasharray="3,2"></line><line x1="60.82" y1="302.2" x2="661.39" y2="302.2" stroke="#ddd" stroke-dasharray="3,2"></line><line x1="60.82" y1="244" x2="661.39" y2="244" stroke="#ddd" stroke-dasharray="3,2"></line><line x1="60.82" y1="185.7" x2="661.39" y2="185.7" stroke="#ddd" stroke-dasharray="3,2"></line><line x1="60.82" y1="127.5" x2="661.39" y2="127.5" stroke="#ddd" stroke-dasharray="3,2"></line></g><g class="AxisGridLines"><line x1="115.6" y1="535.30" x2="115.6" y2="78.40" stroke="#ddd" stroke-dasharray="3,2"></line><line x1="206.9" y1="535.30" x2="206.9" y2="78.40" stroke="#ddd" stroke-dasharray="3,2"></line><line x1="298.1" y1="535.30" x2="298.1" y2="78.40" stroke="#ddd" stroke-dasharray="3,2"></line><line x1="389.4" y1="535.30" x2="389.4" y2="78.40" stroke="#ddd" stroke-dasharray="3,2"></line><line x1="480.7" y1="535.30" x2="480.7" y2="78.40" stroke="#ddd" stroke-dasharray="3,2"></line><line x1="571.9" y1="535.30" x2="571.9" y2="78.40" stroke="#ddd" stroke-dasharray="3,2"></line></g></g><g clip-path="url(#boundsClip-1)"><g class="HeightedLegend clickable"><g class="legendMark"><rect x="671.392" y="108" width="163.608" height="14.4" fill="#fff" opacity="0"></rect><rect x="671.392" y="113.95" width="10" height="2.5" fill="#ca2628"></rect><text font-size="14.40" x="686.4" y="119.5" fill="#333"><tspan x="686.392" y="119.52000000000001">Published English titles</tspan></text></g><g class="legendMark"><rect x="671.392" y="522.1999999999999" width="147.62400000000002" height="14.4" fill="#fff" opacity="0"></rect><rect x="671.392" y="528.15" width="10" height="2.5" fill="#3360a9"></rect><text font-size="14.40" x="686.4" y="533.7" fill="#333"><tspan x="686.392" y="533.7199999999999">Published Latin titles</tspan></text></g></g><g class="Lines"><rect x="61" y="78" width="601" height="457" fill="rgba(255,255,255,0)" opacity="0"></rect><g class="key-United-Kingdom_0"><path stroke="#ca2628" stroke-linecap="round" d="M61 535L63 535L65 535L66 535L68 535L70 535L72 535L74 535L75 535L77 535L79 535L81 535L83 535L85 533L86 535L88 535L90 535L92 535L94 535L96 535L97 535L99 535L101 534L103 534L105 534L107 533L108 533L110 533L112 533L114 533L116 534L117 534L119 533L121 534L123 534L125 533L127 533L128 533L130 532L132 532L134 532L136 533L138 533L139 533L141 533L143 533L145 532L147 531L148 531L150 532L152 531L154 531L156 532L158 532L159 533L161 532L163 530L165 530L167 530L169 531L170 530L172 529L174 530L176 528L178 528L180 529L181 530L183 530L185 528L187 530L189 531L190 532L192 529L194 529L196 529L198 529L200 528L201 527L203 520L205 525L207 526L209 527L211 527L212 525L214 527L216 525L218 524L220 529L222 529L223 528L225 527L227 527L229 526L231 526L232 530L234 527L236 524L238 525L240 528L242 526L243 526L245 526L247 525L249 525L251 524L253 525L254 525L256 523L258 523L260 520L262 519L263 518L265 523L267 520L269 519L271 520L273 521L274 521L276 520L278 517L280 517L282 518L284 517L285 523L287 520L289 518L291 517L293 519L295 518L296 516L298 518L300 520L302 516L304 509L305 510L307 511L309 511L311 508L313 511L315 508L316 509L318 511L320 508L322 505L324 508L326 507L327 507L329 509L331 503L333 505L335 503L337 501L338 500L340 501L342 499L344 504L346 509L347 506L349 503L351 504L353 501L355 497L357 501L358 496L360 501L362 502L364 503L366 500L368 495L369 499L371 483L373 392L375 286L377 405L378 451L380 450L382 449L384 419L386 388L388 428L389 448L391 468L393 466L395 454L397 460L399 462L400 465L402 464L404 461L406 414L408 426L410 438L411 462L413 460L415 475L417 484L419 493L420 492L422 489L424 489L426 482L428 474L430 464L431 470L433 447L435 458L437 469L439 468L441 458L442 418L444 412L446 406L448 417L450 424L452 422L453 441L455 460L457 454L459 402L461 366L462 398L464 429L466 434L468 439L470 446L472 427L473 408L475 436L477 431L479 431L481 412L483 393L484 404L486 423L488 409L490 416L492 423L494 407L495 415L497 410L499 399L501 387L503 389L504 402L506 377L508 391L510 404L512 411L514 417L515 416L517 412L519 408L521 421L523 434L525 427L526 419L528 411L530 405L532 412L534 418L535 419L537 419L539 408L541 409L543 423L545 416L546 409L548 425L550 427L552 403L554 406L556 409L557 407L559 415L561 417L563 412L565 407L567 405L568 391L570 392L572 396L574 399L576 414L577 386L579 399L581 386L583 373L585 386L587 388L588 387L590 376L592 364L594 372L596 375L598 378L599 364L601 350L603 351L605 339L607 352L609 357L610 361L612 346L614 337L616 301L618 301L619 302L621 302L623 335L625 332L627 333L629 335L630 325L632 302L634 286L636 278L638 270L640 257L641 232L643 243L645 222L647 201L649 140L650 137L652 120L654 104L656 87L658 127L660 78L661 115" fill="none" stroke-width="1.5"></path></g><g class="key-United-Kingdom_1"><path stroke="#3360a9" stroke-linecap="round" d="M61 535L63 535L65 535L66 535L68 535L70 535L72 535L74 535L75 535L77 535L79 535L81 535L83 535L85 535L86 535L88 535L90 535L92 535L94 535L96 535L97 535L99 535L101 535L103 535L105 535L107 535L108 535L110 535L112 534L114 534L116 534L117 535L119 534L121 535L123 535L125 534L127 534L128 535L130 533L132 534L134 533L136 534L138 534L139 534L141 534L143 534L145 534L147 534L148 533L150 534L152 533L154 533L156 534L158 533L159 534L161 533L163 534L165 533L167 534L169 534L170 533L172 534L174 534L176 533L178 534L180 534L181 535L183 535L185 534L187 535L189 535L190 535L192 535L194 535L196 535L198 535L200 534L201 535L203 535L205 535L207 535L209 535L211 535L212 534L214 534L216 534L218 534L220 535L222 535L223 535L225 535L227 535L229 535L231 535L232 535L234 535L236 535L238 535L240 535L242 535L243 534L245 534L247 534L249 533L251 533L253 534L254 534L256 534L258 534L260 534L262 533L263 533L265 534L267 533L269 533L271 531L273 534L274 534L276 534L278 533L280 532L282 534L284 532L285 534L287 534L289 534L291 534L293 533L295 534L296 534L298 531L300 534L302 534L304 533L305 533L307 533L309 533L311 531L313 533L315 533L316 534L318 533L320 532L322 533L324 532L326 533L327 533L329 533L331 533L333 532L335 532L337 533L338 533L340 533L342 533L344 533L346 533L347 533L349 533L351 533L353 532L355 531L357 533L358 530L360 532L362 530L364 532L366 531L368 532L369 531L371 531L373 532L375 534L377 533L378 534L380 534L382 533L384 532L386 532L388 532L389 530L391 531L393 531L395 531L397 531L399 531L400 532L402 530L404 530L406 532L408 527L410 531L411 531L413 532L415 531L417 532L419 533L420 532L422 531L424 531L426 530L428 532L430 530L431 531L433 531L435 531L437 531L439 531L441 531L442 531L444 530L446 532L448 531L450 532L452 529L453 529L455 531L457 531L459 531L461 531L462 529L464 532L466 532L468 532L470 532L472 530L473 531L475 530L477 532L479 531L481 529L483 530L484 531L486 531L488 531L490 530L492 532L494 531L495 531L497 531L499 530L501 531L503 529L504 530L506 531L508 531L510 532L512 531L514 532L515 531L517 530L519 532L521 531L523 531L525 532L526 531L528 530L530 531L532 531L534 531L535 532L537 532L539 532L541 531L543 532L545 532L546 532L548 533L550 532L552 532L554 531L556 531L557 531L559 531L561 532L563 532L565 531L567 533L568 531L570 531L572 530L574 530L576 532L577 531L579 532L581 531L583 532L585 532L587 531L588 532L590 531L592 531L594 531L596 531L598 532L599 531L601 532L603 531L605 531L607 531L609 530L610 530L612 530L614 531L616 531L618 530L619 530L621 531L623 529L625 531L627 530L629 531L630 531L632 530L634 531L636 530L638 531L640 529L641 530L643 531L645 529L647 530L649 530L650 529L652 530L654 529L656 531L658 529L660 530L661 529" fill="none" stroke-width="1.5"></path></g></g></g></g><g style="fill: #777;" class="SourcesFooter"><g style="fill: #777;" class="clickable"><text font-size="12.60" x="15.0" y="581.6"><tspan x="15" y="581.58">Source: English titles - Olaf Simons (2001), Latin titles - Olaf Simons (2001)</tspan></text></g><text font-size="12.60" x="649.0" y="581.6"><tspan x="649.024" y="581.58"><a target='_blank' style='fill: #777;' href='https://ourworldindata.org'>OurWorldInData.org</a> • <a style="fill: #777;" href="http://creativecommons.org/licenses/by-sa/4.0/deed.en_US" target="_blank">CC BY-SA</a></tspan></text></g></g></svg>