<svg xmlns="http://www.w3.org/2000/svg" version="1.1" style="font-family: 'Helvetica Neue', Helvetica, Arial, sans-serif; font-size: 18px; background-color: white; text-rendering: optimizeLegibility; -webkit-font-smoothing: antialiased;" width="850" height="600"><g class="ChartTab"><g class="HeaderView"><g opacity="0.8" transform="translate(778, 15) scale(0.27)"><a xmlns:xlink="http://www.w3.org/1999/xlink" xlink:href="https://ourworldindata.org" target="_blank"><g><rect x="0" y="0" fill="#1B2543" width="211.2" height="130.1"/><rect x="0" y="112.2" fill="#E63912" width="211.2" height="17.9"/><g><rect x="1.2" y="12.3" fill="none" width="210.2" height="99.2"/><path fill="#FFFFFF" d="M37.8,32.2c0,12.7-7.7,19.4-17.1,19.4c-9.7,0-16.6-7.5-16.6-18.7c0-11.7,7.3-19.3,17.1-19.3 C31.3,13.7,37.8,21.3,37.8,32.2z M9.2,32.8c0,7.9,4.3,14.9,11.8,14.9c7.5,0,11.8-6.9,11.8-15.3c0-7.3-3.8-14.9-11.8-14.9 C13.1,17.5,9.2,24.8,9.2,32.8z"/><path fill="#FFFFFF" d="M62.7,43.8c0,2.7,0.1,5.1,0.2,7.2h-4.3l-0.3-4.3h-0.1c-1.3,2.1-4,4.9-8.8,4.9c-4.2,0-9.1-2.3-9.1-11.6 V24.6h4.8v14.6c0,5,1.5,8.4,5.9,8.4c3.2,0,5.5-2.2,6.3-4.4c0.3-0.7,0.4-1.6,0.4-2.5V24.6h4.8V43.8z"/><path fill="#FFFFFF" d="M67.3,32.8c0-3.1-0.1-5.8-0.2-8.2h4.2l0.2,5.2h0.2c1.2-3.5,4.1-5.8,7.3-5.8c0.5,0,0.9,0.1,1.4,0.2v4.5 c-0.5-0.1-1-0.2-1.6-0.2c-3.4,0-5.8,2.6-6.5,6.2c-0.1,0.7-0.2,1.4-0.2,2.2V51h-4.8V32.8z"/><path fill="#FFFFFF" d="M95.4,51l-9.4-36.8h5l4.4,18.6c1.1,4.6,2.1,9.2,2.7,12.7h0.1c0.6-3.7,1.8-8,3-12.8l4.9-18.5h5l4.5,18.7 c1,4.4,2,8.7,2.6,12.6h0.1c0.8-4,1.8-8.1,3-12.7l4.9-18.5h4.9L120.6,51h-5L111,31.9c-1.1-4.7-1.9-8.3-2.4-12h-0.1 c-0.7,3.7-1.5,7.3-2.8,12L100.4,51H95.4z"/><path fill="#FFFFFF" d="M154.9,37.6c0,9.8-6.8,14-13.2,14c-7.2,0-12.7-5.2-12.7-13.6c0-8.8,5.8-14,13.1-14 C149.8,24,154.9,29.5,154.9,37.6z M133.9,37.9c0,5.8,3.3,10.1,8,10.1c4.6,0,8-4.3,8-10.3c0-4.5-2.2-10.1-7.9-10.1 C136.3,27.6,133.9,32.8,133.9,37.9z"/><path fill="#FFFFFF" d="M158.2,32.8c0-3.1-0.1-5.8-0.2-8.2h4.2l0.2,5.2h0.2c1.2-3.5,4.1-5.8,7.3-5.8c0.5,0,0.9,0.1,1.4,0.2v4.5 c-0.5-0.1-1-0.2-1.6-0.2c-3.4,0-5.8,2.6-6.5,6.2c-0.1,0.7-0.2,1.4-0.2,2.2V51h-4.8V32.8z"/><path fill="#FFFFFF" d="M173.5,12.3h4.8V51h-4.8V12.3z"/><path fill="#FFFFFF" d="M206.5,12.3v31.9c0,2.3,0.1,5,0.2,6.8h-4.3l-0.2-4.6H202c-1.5,2.9-4.7,5.2-9,5.2 c-6.4,0-11.3-5.4-11.3-13.4c-0.1-8.8,5.4-14.2,11.9-14.2c4,0,6.8,1.9,8,4h0.1V12.3H206.5z M201.7,35.4c0-0.6-0.1-1.4-0.2-2 c-0.7-3.1-3.3-5.6-6.9-5.6c-5,0-7.9,4.4-7.9,10.2c0,5.3,2.6,9.8,7.8,9.8c3.2,0,6.2-2.1,7.1-5.7c0.2-0.7,0.2-1.3,0.2-2.1V35.4z"/><path fill="#FFFFFF" d="M42.8,64c0.1,1.6-1.1,2.9-3.1,2.9c-1.7,0-2.9-1.3-2.9-2.9c0-1.7,1.3-3,3-3C41.7,61,42.8,62.3,42.8,64z M37.4,97.8V71.4h4.8v26.4H37.4z"/><path fill="#FFFFFF" d="M47.5,78.6c0-2.7-0.1-5-0.2-7.1h4.3l0.3,4.4h0.1c1.3-2.5,4.4-5,8.8-5c3.7,0,9.4,2.2,9.4,11.2v15.8h-4.8 V82.6c0-4.3-1.6-7.8-6.1-7.8c-3.2,0-5.6,2.2-6.5,4.9c-0.2,0.6-0.3,1.4-0.3,2.2v15.9h-4.8V78.6z"/><path fill="#FFFFFF" d="M84,61.6c2.9-0.4,6.3-0.8,10.1-0.8c6.8,0,11.7,1.6,14.9,4.6c3.3,3,5.2,7.3,5.2,13.2c0,6-1.9,10.9-5.3,14.3 c-3.4,3.4-9.1,5.3-16.3,5.3c-3.4,0-6.2-0.2-8.6-0.4V61.6z M88.8,94.1c1.2,0.2,3,0.3,4.8,0.3c10.2,0,15.7-5.7,15.7-15.6 c0.1-8.7-4.9-14.2-14.9-14.2c-2.5,0-4.3,0.2-5.6,0.5V94.1z"/><path fill="#FFFFFF" d="M132.1,97.8l-0.4-3.3h-0.2c-1.5,2.1-4.3,3.9-8.1,3.9c-5.4,0-8.1-3.8-8.1-7.6c0-6.4,5.7-9.9,15.9-9.8v-0.5 c0-2.2-0.6-6.1-6-6.1c-2.5,0-5,0.8-6.9,2l-1.1-3.2c2.2-1.4,5.4-2.3,8.7-2.3c8.1,0,10.1,5.5,10.1,10.8v9.9c0,2.3,0.1,4.5,0.4,6.3 H132.1z M131.4,84.4c-5.3-0.1-11.2,0.8-11.2,5.9c0,3.1,2.1,4.6,4.5,4.6c3.4,0,5.6-2.2,6.4-4.4c0.2-0.5,0.3-1,0.3-1.5V84.4z"/><path fill="#FFFFFF" d="M146.6,63.9v7.6h6.9v3.7h-6.9v14.2c0,3.3,0.9,5.1,3.6,5.1c1.3,0,2.2-0.2,2.8-0.3l0.2,3.6 c-0.9,0.4-2.4,0.7-4.3,0.7c-2.2,0-4-0.7-5.2-2c-1.4-1.4-1.9-3.8-1.9-6.9V75.1h-4.1v-3.7h4.1v-6.3L146.6,63.9z"/><path fill="#FFFFFF" d="M171.4,97.8l-0.4-3.3h-0.2c-1.5,2.1-4.3,3.9-8.1,3.9c-5.4,0-8.1-3.8-8.1-7.6c0-6.4,5.7-9.9,15.9-9.8v-0.5 c0-2.2-0.6-6.1-6-6.1c-2.5,0-5,0.8-6.9,2l-1.1-3.2c2.2-1.4,5.4-2.3,8.7-2.3c8.1,0,10.1,5.5,10.1,10.8v9.9c0,2.3,0.1,4.5,0.4,6.3 H171.4z M170.7,84.4c-5.3-0.1-11.2,0.8-11.2,5.9c0,3.1,2.1,4.6,4.5,4.6c3.4,0,5.6-2.2,6.4-4.4c0.2-0.5,0.3-1,0.3-1.5V84.4z"/></g></g></a></g><a href="https://ourworldindata.org/grapher/rate-of-violent-deaths-in-conflicts-and-one-sided-violence-per-100000-since-1989" target="_blank"><text font-size="21.60" x="15.0" y="32.3" fill="#555"><tspan x="15" y="32.279999999999994">Rate of violent deaths in conflicts and one-sided violence per 100,000 since</tspan><tspan x="15" y="53.87999999999999">1989</tspan></text></a><text font-size="14.40" x="15.0" y="72.7" fill="#666"><tspan x="15" y="72.72">The data refer to direct violent deaths. Deaths due to disease or famine caused by conflict are excluded. Extra-judicial killings in</tspan><tspan x="15" y="88.56">custody are also excluded. Only incidents involving more than 25 deaths are included. One-sided violence is that between a</tspan><tspan x="15" y="104.4">named organisation and civilians, such as genocides.  The spike in 1994 reflects the high death toll of the Rwandan genocide.</tspan></text></g><g class="StackedArea"><defs><clipPath id="boundsClip-1"><rect x="29.072000000000003" y="0" width="820" height="805"></rect></clipPath></defs><g class="AxisBoxView"><g class="HorizontalAxis"><text x="29.1" y="529.1" fill="#666" text-anchor="middle" font-size="16.2">1989</text><text x="175.6" y="529.1" fill="#666" text-anchor="middle" font-size="16.2">1995</text><text x="297.8" y="529.1" fill="#666" text-anchor="middle" font-size="16.2">2000</text><text x="419.9" y="529.1" fill="#666" text-anchor="middle" font-size="16.2">2005</text><text x="542.1" y="529.1" fill="#666" text-anchor="middle" font-size="16.2">2010</text><text x="688.6" y="529.1" fill="#666" text-anchor="middle" font-size="16.2">2016</text></g><g class="VerticalAxis"><text x="24.07" y="507.9" fill="#666" dominant-baseline="middle" text-anchor="end" font-size="16.2">0</text><text x="24.07" y="429.2" fill="#666" dominant-baseline="middle" text-anchor="end" font-size="16.2">2</text><text x="24.07" y="350.5" fill="#666" dominant-baseline="middle" text-anchor="end" font-size="16.2">4</text><text x="24.07" y="271.7" fill="#666" dominant-baseline="middle" text-anchor="end" font-size="16.2">6</text><text x="24.07" y="193" fill="#666" dominant-baseline="middle" text-anchor="end" font-size="16.2">8</text></g><g class="AxisGridLines"><line x1="29.07" y1="507.9" x2="688.63" y2="507.9" stroke="#ccc"></line><line x1="29.07" y1="429.2" x2="688.63" y2="429.2" stroke="#ddd" stroke-dasharray="3,2"></line><line x1="29.07" y1="350.5" x2="688.63" y2="350.5" stroke="#ddd" stroke-dasharray="3,2"></line><line x1="29.07" y1="271.7" x2="688.63" y2="271.7" stroke="#ddd" stroke-dasharray="3,2"></line><line x1="29.07" y1="193" x2="688.63" y2="193" stroke="#ddd" stroke-dasharray="3,2"></line></g></g><g clip-path="url(#boundsClip-1)"><g class="HeightedLegend clickable"><g class="legendMark"><g class="indicator"><line x1="693.625" y1="484.8" x2="706.125" y2="484.8" stroke="#666" stroke-width="0.5"></line><line x1="706.125" y1="484.8" x2="706.125" y2="484.8" stroke="#666" stroke-width="0.5"></line><line x1="706.125" y1="484.8" x2="718.625" y2="484.8" stroke="#666" stroke-width="0.5"></line></g><rect x="688.625" y="470.75" width="108.17" height="28.1" fill="#fff" opacity="0"></rect><text font-size="13.50" x="723.6" y="481.6" fill="#3360a9"><tspan x="723.625" y="481.55">State-based</tspan><tspan x="723.625" y="496.40000000000003">conflicts</tspan></text></g><g class="legendMark"><g class="indicator"><line x1="693.625" y1="459.2" x2="716.125" y2="459.2" stroke="#666" stroke-width="0.5"></line><line x1="716.125" y1="459.2" x2="716.125" y2="459.2" stroke="#666" stroke-width="0.5"></line><line x1="716.125" y1="459.2" x2="718.625" y2="459.2" stroke="#666" stroke-width="0.5"></line></g><rect x="688.625" y="452.45" width="146.375" height="13.5" fill="#fff" opacity="0"></rect><text font-size="13.50" x="723.6" y="463.3" fill="#34983f"><tspan x="723.625" y="463.25">Non-state conflicts</tspan></text></g><g class="legendMark"><g class="indicator"><line x1="693.625" y1="455" x2="706.125" y2="455" stroke="#666" stroke-width="0.5"></line><line x1="706.125" y1="455" x2="706.125" y2="436.4" stroke="#666" stroke-width="0.5"></line><line x1="706.125" y1="436.4" x2="718.625" y2="436.4" stroke="#666" stroke-width="0.5"></line></g><rect x="688.625" y="422.34999999999997" width="97.505" height="28.1" fill="#fff" opacity="0"></rect><text font-size="13.50" x="723.6" y="433.1" fill="#ffd53e"><tspan x="723.625" y="433.15">One-sided</tspan><tspan x="723.625" y="448">violence</tspan></text></g></g><g class="Areas"><rect x="29.072000000000003" y="126.6" width="659.553" height="381.29999999999995" opacity="0" fill="rgba(255,255,255,0)"></rect><path stroke-linecap="round" d="M29.1 466.9L53.5 448.8L77.9 456.7L102.4 481.8L126.8 481.9L151.2 484.7L175.6 488.4L200.1 488.9L224.5 481.4L248.9 481.8L273.4 455.5L297.8 458.2L322.2 493.8L346.6 495.7L371.1 494.5L395.5 496.2L419.9 500.6L444.3 496.2L468.8 496.6L493.2 491.3L517.6 488L542.1 495.9L566.5 495L590.9 473.6L615.3 458.4L639.8 451.1L664.2 455.5L688.6 461.7L688.625 507.9L29.072000000000003 507.9" fill="#3360a9" fill-opacity="0.7" class="State__002dbased-conflicts_0-area"></path><path stroke-linecap="round" d="M29.1 463.8L53.5 444.9L77.9 453.9L102.4 475.3L126.8 474.3L151.2 481.1L175.6 485.3L200.1 486.2L224.5 479.1L248.9 479.5L273.4 452L297.8 454.1L322.2 490.7L346.6 491.9L371.1 492.4L395.5 493.7L419.9 499.3L444.3 494.3L468.8 495L493.2 488.8L517.6 484.6L542.1 492.6L566.5 491.3L590.9 471.1L615.3 455.8L639.8 444.2L664.2 449.5L688.6 456.7L688.6 461.7L664.2 455.5L639.8 451.1L615.3 458.4L590.9 473.6L566.5 495L542.1 495.9L517.6 488L493.2 491.3L468.8 496.6L444.3 496.2L419.9 500.6L395.5 496.2L371.1 494.5L346.6 495.7L322.2 493.8L297.8 458.2L273.4 455.5L248.9 481.8L224.5 481.4L200.1 488.9L175.6 488.4L151.2 484.7L126.8 481.9L102.4 481.8L77.9 456.7L53.5 448.8L29.1 466.9" fill="#34983f" fill-opacity="0.7" class="Non__002dstate-conflicts_0-area"></path><path stroke-linecap="round" d="M29.1 457.7L53.5 437.7L77.9 447.5L102.4 467.7L126.8 468.8L151.2 126.6L175.6 471.7L200.1 459.6L224.5 467.2L248.9 468.1L273.4 443.9L297.8 449.7L322.2 486.2L346.6 484.2L371.1 485.6L395.5 488.8L419.9 496.5L444.3 491.9L468.8 492.3L493.2 486.5L517.6 481.4L542.1 490.8L566.5 488.2L590.9 469.1L615.3 450.8L639.8 436.6L664.2 444.2L688.6 453.3L688.6 456.7L664.2 449.5L639.8 444.2L615.3 455.8L590.9 471.1L566.5 491.3L542.1 492.6L517.6 484.6L493.2 488.8L468.8 495L444.3 494.3L419.9 499.3L395.5 493.7L371.1 492.4L346.6 491.9L322.2 490.7L297.8 454.1L273.4 452L248.9 479.5L224.5 479.1L200.1 486.2L175.6 485.3L151.2 481.1L126.8 474.3L102.4 475.3L77.9 453.9L53.5 444.9L29.1 463.8" fill="#ffd53e" fill-opacity="0.7" class="One__002dsided-violence_0-area"></path><path stroke-linecap="round" d="M29.1 466.9L53.5 448.8L77.9 456.7L102.4 481.8L126.8 481.9L151.2 484.7L175.6 488.4L200.1 488.9L224.5 481.4L248.9 481.8L273.4 455.5L297.8 458.2L322.2 493.8L346.6 495.7L371.1 494.5L395.5 496.2L419.9 500.6L444.3 496.2L468.8 496.6L493.2 491.3L517.6 488L542.1 495.9L566.5 495L590.9 473.6L615.3 458.4L639.8 451.1L664.2 455.5L688.6 461.7" stroke="rgb(43, 80, 141)" stroke-opacity="0.7" stroke-width="0.5" fill="none" class="State__002dbased-conflicts_0-border"></path><path stroke-linecap="round" d="M29.1 463.8L53.5 444.9L77.9 453.9L102.4 475.3L126.8 474.3L151.2 481.1L175.6 485.3L200.1 486.2L224.5 479.1L248.9 479.5L273.4 452L297.8 454.1L322.2 490.7L346.6 491.9L371.1 492.4L395.5 493.7L419.9 499.3L444.3 494.3L468.8 495L493.2 488.8L517.6 484.6L542.1 492.6L566.5 491.3L590.9 471.1L615.3 455.8L639.8 444.2L664.2 449.5L688.6 456.7" stroke="rgb(44, 127, 53)" stroke-opacity="0.7" stroke-width="0.5" fill="none" class="Non__002dstate-conflicts_0-border"></path><path stroke-linecap="round" d="M29.1 457.7L53.5 437.7L77.9 447.5L102.4 467.7L126.8 468.8L151.2 126.6L175.6 471.7L200.1 459.6L224.5 467.2L248.9 468.1L273.4 443.9L297.8 449.7L322.2 486.2L346.6 484.2L371.1 485.6L395.5 488.8L419.9 496.5L444.3 491.9L468.8 492.3L493.2 486.5L517.6 481.4L542.1 490.8L566.5 488.2L590.9 469.1L615.3 450.8L639.8 436.6L664.2 444.2L688.6 453.3" stroke="rgb(213, 178, 52)" stroke-opacity="0.7" stroke-width="0.5" fill="none" class="One__002dsided-violence_0-border"></path></g></g></g><g style="fill: #777;" class="SourcesFooter"><g style="fill: #777;" class="clickable"><text font-size="12.60" x="15.0" y="554.2"><tspan x="15" y="554.1800000000001">Source: UCDP/PRIO</tspan></text></g><text font-size="12.60" x="15.0" y="568.8"><tspan x="15" y="568.7800000000001">Note: State-based conflict is between at least two named organisations, where at least one was the government of a state. Non-state conflict is</tspan><tspan x="15" y="582.6400000000001">between two named non-state organisations. One-sided violence is that between a named organisation and civilians, such as genocides. </tspan></text><text font-size="12.60" x="649.0" y="554.2"><tspan x="649.024" y="554.1800000000001"><a target='_blank' style='fill: #777;' href='https://ourworldindata.org'>OurWorldInData.org</a> • <a style="fill: #777;" href="http://creativecommons.org/licenses/by-sa/4.0/deed.en_US" target="_blank">CC BY-SA</a></tspan></text></g></g></svg>