<svg xmlns="http://www.w3.org/2000/svg" version="1.1" style="font-family: 'Helvetica Neue', Helvetica, Arial, sans-serif; font-size: 18px; background-color: white; text-rendering: optimizeLegibility; -webkit-font-smoothing: antialiased;" width="850" height="600"><g class="ChartTab"><g class="HeaderView"><g opacity="0.8" transform="translate(778, 15) scale(0.27)"><a xmlns:xlink="http://www.w3.org/1999/xlink" xlink:href="https://ourworldindata.org" target="_blank"><g><rect x="0" y="0" fill="#1B2543" width="211.2" height="130.1"/><rect x="0" y="112.2" fill="#E63912" width="211.2" height="17.9"/><g><rect x="1.2" y="12.3" fill="none" width="210.2" height="99.2"/><path fill="#FFFFFF" d="M37.8,32.2c0,12.7-7.7,19.4-17.1,19.4c-9.7,0-16.6-7.5-16.6-18.7c0-11.7,7.3-19.3,17.1-19.3 C31.3,13.7,37.8,21.3,37.8,32.2z M9.2,32.8c0,7.9,4.3,14.9,11.8,14.9c7.5,0,11.8-6.9,11.8-15.3c0-7.3-3.8-14.9-11.8-14.9 C13.1,17.5,9.2,24.8,9.2,32.8z"/><path fill="#FFFFFF" d="M62.7,43.8c0,2.7,0.1,5.1,0.2,7.2h-4.3l-0.3-4.3h-0.1c-1.3,2.1-4,4.9-8.8,4.9c-4.2,0-9.1-2.3-9.1-11.6 V24.6h4.8v14.6c0,5,1.5,8.4,5.9,8.4c3.2,0,5.5-2.2,6.3-4.4c0.3-0.7,0.4-1.6,0.4-2.5V24.6h4.8V43.8z"/><path fill="#FFFFFF" d="M67.3,32.8c0-3.1-0.1-5.8-0.2-8.2h4.2l0.2,5.2h0.2c1.2-3.5,4.1-5.8,7.3-5.8c0.5,0,0.9,0.1,1.4,0.2v4.5 c-0.5-0.1-1-0.2-1.6-0.2c-3.4,0-5.8,2.6-6.5,6.2c-0.1,0.7-0.2,1.4-0.2,2.2V51h-4.8V32.8z"/><path fill="#FFFFFF" d="M95.4,51l-9.4-36.8h5l4.4,18.6c1.1,4.6,2.1,9.2,2.7,12.7h0.1c0.6-3.7,1.8-8,3-12.8l4.9-18.5h5l4.5,18.7 c1,4.4,2,8.7,2.6,12.6h0.1c0.8-4,1.8-8.1,3-12.7l4.9-18.5h4.9L120.6,51h-5L111,31.9c-1.1-4.7-1.9-8.3-2.4-12h-0.1 c-0.7,3.7-1.5,7.3-2.8,12L100.4,51H95.4z"/><path fill="#FFFFFF" d="M154.9,37.6c0,9.8-6.8,14-13.2,14c-7.2,0-12.7-5.2-12.7-13.6c0-8.8,5.8-14,13.1-14 C149.8,24,154.9,29.5,154.9,37.6z M133.9,37.9c0,5.8,3.3,10.1,8,10.1c4.6,0,8-4.3,8-10.3c0-4.5-2.2-10.1-7.9-10.1 C136.3,27.6,133.9,32.8,133.9,37.9z"/><path fill="#FFFFFF" d="M158.2,32.8c0-3.1-0.1-5.8-0.2-8.2h4.2l0.2,5.2h0.2c1.2-3.5,4.1-5.8,7.3-5.8c0.5,0,0.9,0.1,1.4,0.2v4.5 c-0.5-0.1-1-0.2-1.6-0.2c-3.4,0-5.8,2.6-6.5,6.2c-0.1,0.7-0.2,1.4-0.2,2.2V51h-4.8V32.8z"/><path fill="#FFFFFF" d="M173.5,12.3h4.8V51h-4.8V12.3z"/><path fill="#FFFFFF" d="M206.5,12.3v31.9c0,2.3,0.1,5,0.2,6.8h-4.3l-0.2-4.6H202c-1.5,2.9-4.7,5.2-9,5.2 c-6.4,0-11.3-5.4-11.3-13.4c-0.1-8.8,5.4-14.2,11.9-14.2c4,0,6.8,1.9,8,4h0.1V12.3H206.5z M201.7,35.4c0-0.6-0.1-1.4-0.2-2 c-0.7-3.1-3.3-5.6-6.9-5.6c-5,0-7.9,4.4-7.9,10.2c0,5.3,2.6,9.8,7.8,9.8c3.2,0,6.2-2.1,7.1-5.7c0.2-0.7,0.2-1.3,0.2-2.1V35.4z"/><path fill="#FFFFFF" d="M42.8,64c0.1,1.6-1.1,2.9-3.1,2.9c-1.7,0-2.9-1.3-2.9-2.9c0-1.7,1.3-3,3-3C41.7,61,42.8,62.3,42.8,64z M37.4,97.8V71.4h4.8v26.4H37.4z"/><path fill="#FFFFFF" d="M47.5,78.6c0-2.7-0.1-5-0.2-7.1h4.3l0.3,4.4h0.1c1.3-2.5,4.4-5,8.8-5c3.7,0,9.4,2.2,9.4,11.2v15.8h-4.8 V82.6c0-4.3-1.6-7.8-6.1-7.8c-3.2,0-5.6,2.2-6.5,4.9c-0.2,0.6-0.3,1.4-0.3,2.2v15.9h-4.8V78.6z"/><path fill="#FFFFFF" d="M84,61.6c2.9-0.4,6.3-0.8,10.1-0.8c6.8,0,11.7,1.6,14.9,4.6c3.3,3,5.2,7.3,5.2,13.2c0,6-1.9,10.9-5.3,14.3 c-3.4,3.4-9.1,5.3-16.3,5.3c-3.4,0-6.2-0.2-8.6-0.4V61.6z M88.8,94.1c1.2,0.2,3,0.3,4.8,0.3c10.2,0,15.7-5.7,15.7-15.6 c0.1-8.7-4.9-14.2-14.9-14.2c-2.5,0-4.3,0.2-5.6,0.5V94.1z"/><path fill="#FFFFFF" d="M132.1,97.8l-0.4-3.3h-0.2c-1.5,2.1-4.3,3.9-8.1,3.9c-5.4,0-8.1-3.8-8.1-7.6c0-6.4,5.7-9.9,15.9-9.8v-0.5 c0-2.2-0.6-6.1-6-6.1c-2.5,0-5,0.8-6.9,2l-1.1-3.2c2.2-1.4,5.4-2.3,8.7-2.3c8.1,0,10.1,5.5,10.1,10.8v9.9c0,2.3,0.1,4.5,0.4,6.3 H132.1z M131.4,84.4c-5.3-0.1-11.2,0.8-11.2,5.9c0,3.1,2.1,4.6,4.5,4.6c3.4,0,5.6-2.2,6.4-4.4c0.2-0.5,0.3-1,0.3-1.5V84.4z"/><path fill="#FFFFFF" d="M146.6,63.9v7.6h6.9v3.7h-6.9v14.2c0,3.3,0.9,5.1,3.6,5.1c1.3,0,2.2-0.2,2.8-0.3l0.2,3.6 c-0.9,0.4-2.4,0.7-4.3,0.7c-2.2,0-4-0.7-5.2-2c-1.4-1.4-1.9-3.8-1.9-6.9V75.1h-4.1v-3.7h4.1v-6.3L146.6,63.9z"/><path fill="#FFFFFF" d="M171.4,97.8l-0.4-3.3h-0.2c-1.5,2.1-4.3,3.9-8.1,3.9c-5.4,0-8.1-3.8-8.1-7.6c0-6.4,5.7-9.9,15.9-9.8v-0.5 c0-2.2-0.6-6.1-6-6.1c-2.5,0-5,0.8-6.9,2l-1.1-3.2c2.2-1.4,5.4-2.3,8.7-2.3c8.1,0,10.1,5.5,10.1,10.8v9.9c0,2.3,0.1,4.5,0.4,6.3 H171.4z M170.7,84.4c-5.3-0.1-11.2,0.8-11.2,5.9c0,3.1,2.1,4.6,4.5,4.6c3.4,0,5.6-2.2,6.4-4.4c0.2-0.5,0.3-1,0.3-1.5V84.4z"/></g></g></a></g><a href="https://ourworldindata.org/grapher/real-price-of-nails-matched-model" target="_blank"><text font-size="25.20" x="15.0" y="35.2" fill="#555"><tspan x="15" y="35.160000000000004">Real price of nails: matched-model</tspan></text></a><text font-size="14.40" x="15.0" y="53.7" fill="#666"><tspan x="15" y="53.72">Measures the real price of nails, adjusted for inflation in 2010 dollars.  Prices are in cents per nail. The</tspan><tspan x="15" y="69.56">matched-model constructs a single price index and holds the quality of nails constant.</tspan></text></g><g class="LineChart"><defs><clipPath id="boundsClip-457"><rect x="105.904" y="0" width="830" height="928.8"></rect></clipPath></defs><g class="AxisBoxView"><g class="HorizontalAxis"><text x="115.9" y="556.5" fill="#666" text-anchor="middle" font-size="16.2">1695</text><text x="230.2" y="556.5" fill="#666" text-anchor="middle" font-size="16.2">1750</text><text x="334" y="556.5" fill="#666" text-anchor="middle" font-size="16.2">1800</text><text x="437.9" y="556.5" fill="#666" text-anchor="middle" font-size="16.2">1850</text><text x="541.8" y="556.5" fill="#666" text-anchor="middle" font-size="16.2">1900</text><text x="645.7" y="556.5" fill="#666" text-anchor="middle" font-size="16.2">1950</text><text x="772.4" y="556.5" fill="#666" text-anchor="middle" font-size="16.2">2011</text></g><g class="VerticalAxis"><text x="110.90" y="535.3" fill="#666" dominant-baseline="middle" text-anchor="end" font-size="16.2">0 cents/nail</text><text x="110.90" y="456.4" fill="#666" dominant-baseline="middle" text-anchor="end" font-size="16.2">0.5 cents/nail</text><text x="110.90" y="377.6" fill="#666" dominant-baseline="middle" text-anchor="end" font-size="16.2">1 cents/nail</text><text x="110.90" y="298.7" fill="#666" dominant-baseline="middle" text-anchor="end" font-size="16.2">1.5 cents/nail</text><text x="110.90" y="219.9" fill="#666" dominant-baseline="middle" text-anchor="end" font-size="16.2">2 cents/nail</text><text x="110.90" y="141" fill="#666" dominant-baseline="middle" text-anchor="end" font-size="16.2">2.5 cents/nail</text></g><g class="AxisGridLines"><line x1="115.90" y1="535.3" x2="772.42" y2="535.3" stroke="#ccc"></line><line x1="115.90" y1="456.4" x2="772.42" y2="456.4" stroke="#ddd" stroke-dasharray="3,2"></line><line x1="115.90" y1="377.6" x2="772.42" y2="377.6" stroke="#ddd" stroke-dasharray="3,2"></line><line x1="115.90" y1="298.7" x2="772.42" y2="298.7" stroke="#ddd" stroke-dasharray="3,2"></line><line x1="115.90" y1="219.9" x2="772.42" y2="219.9" stroke="#ddd" stroke-dasharray="3,2"></line><line x1="115.90" y1="141" x2="772.42" y2="141" stroke="#ddd" stroke-dasharray="3,2"></line></g></g><g clip-path="url(#boundsClip-457)"><g class="HeightedLegend clickable"><g class="legendMark"><rect x="782.4159999999999" y="444.5" width="52.584" height="14.4" fill="#fff" opacity="0"></rect><rect x="782.4159999999999" y="450.45" width="10" height="2.5" fill="#3360a9"></rect><text font-size="14.40" x="797.4" y="456.0" fill="#333"><tspan x="797.4159999999999" y="456.02">World</tspan></text></g></g><g class="Lines"><rect x="116" y="92" width="657" height="443" fill="rgba(255,255,255,0)" opacity="0"></rect><g class="key-World_0"><path stroke="#3360a9" stroke-linecap="round" d="M116 292L118 250L120 296L122 299L124 281L126 236L128 214L130 210L133 223L135 209L137 190L139 168L141 193L143 251L145 285L147 255L149 264L151 221L153 244L155 210L158 221L160 218L162 209L164 147L166 173L168 157L170 155L172 160L174 160L176 168L178 196L180 182L182 220L185 228L187 206L189 192L191 166L193 92L195 180L197 163L199 144L201 151L203 133L205 136L207 182L209 218L212 182L214 136L216 98L218 106L220 144L222 149L224 143L226 163L228 187L230 203L232 218L234 215L236 212L239 226L241 242L243 255L245 269L247 223L249 209L251 190L253 198L255 210L257 233L259 262L261 270L263 278L266 288L268 264L270 256L272 274L274 289L276 296L278 302L280 299L282 289L284 280L286 281L288 281L290 283L293 285L295 289L297 294L299 280L301 267L303 255L305 250L307 244L309 244L311 237L313 259L315 250L317 262L320 272L322 299L324 281L326 299L328 289L330 281L332 286L334 315L336 310L338 248L340 288L342 289L344 289L347 321L349 307L351 326L353 321L355 321L357 338L359 359L361 381L363 346L365 296L367 269L369 296L371 315L374 313L376 289L378 277L380 277L382 247L384 251L386 307L388 311L390 326L392 308L394 308L396 359L399 356L401 338L403 359L405 348L407 337L409 349L411 354L413 343L415 340L417 348L419 362L421 368L423 381L426 371L428 362L430 365L432 371L434 368L436 371L438 384L440 401L442 408L444 337L446 356L448 386L450 387L453 400L455 397L457 387L459 417L461 431L463 417L465 393L467 365L469 378L471 373L473 392L475 403L477 411L480 417L482 408L484 381L486 397L488 415L490 430L492 441L494 453L496 453L498 438L500 406L502 427L504 412L507 423L509 445L511 447L513 449L515 449L517 458L519 460L521 460L523 472L525 480L527 485L529 491L531 477L534 455L536 494L538 496L540 469L542 463L544 471L546 480L548 482L550 486L552 486L554 485L556 483L558 482L561 486L563 490L565 491L567 494L569 493L571 497L573 496L575 480L577 471L579 480L581 488L583 488L585 496L588 499L590 494L592 496L594 499L596 499L598 501L600 499L602 499L604 505L606 505L608 501L610 499L612 491L615 491L617 499L619 491L621 493L623 494L625 494L627 496L629 505L631 507L633 509L635 502L637 499L640 494L642 486L644 482L646 482L648 480L650 480L652 479L654 477L656 472L658 468L660 466L662 466L664 466L667 469L669 471L671 471L673 474L675 474L677 475L679 480L681 482L683 485L685 483L687 482L689 480L691 477L694 479L696 460L698 455L700 458L702 458L704 460L706 461L708 463L710 464L712 466L714 471L716 472L718 474L721 475L723 475L725 477L727 475L729 479L731 480L733 480L735 482L737 482L739 483L741 485L743 486L745 486L748 486L750 490L752 491L754 491L756 493L758 483L760 482L762 482L764 482L766 463L768 466L770 455L772 452" fill="none" stroke-width="1.5"></path><g fill="#3360a9"><circle cx="116" cy="292" r="2"></circle><circle cx="118" cy="250" r="2"></circle><circle cx="120" cy="296" r="2"></circle><circle cx="122" cy="299" r="2"></circle><circle cx="124" cy="281" r="2"></circle><circle cx="126" cy="236" r="2"></circle><circle cx="128" cy="214" r="2"></circle><circle cx="130" cy="210" r="2"></circle><circle cx="133" cy="223" r="2"></circle><circle cx="135" cy="209" r="2"></circle><circle cx="137" cy="190" r="2"></circle><circle cx="139" cy="168" r="2"></circle><circle cx="141" cy="193" r="2"></circle><circle cx="143" cy="251" r="2"></circle><circle cx="145" cy="285" r="2"></circle><circle cx="147" cy="255" r="2"></circle><circle cx="149" cy="264" r="2"></circle><circle cx="151" cy="221" r="2"></circle><circle cx="153" cy="244" r="2"></circle><circle cx="155" cy="210" r="2"></circle><circle cx="158" cy="221" r="2"></circle><circle cx="160" cy="218" r="2"></circle><circle cx="162" cy="209" r="2"></circle><circle cx="164" cy="147" r="2"></circle><circle cx="166" cy="173" r="2"></circle><circle cx="168" cy="157" r="2"></circle><circle cx="170" cy="155" r="2"></circle><circle cx="172" cy="160" r="2"></circle><circle cx="174" cy="160" r="2"></circle><circle cx="176" cy="168" r="2"></circle><circle cx="178" cy="196" r="2"></circle><circle cx="180" cy="182" r="2"></circle><circle cx="182" cy="220" r="2"></circle><circle cx="185" cy="228" r="2"></circle><circle cx="187" cy="206" r="2"></circle><circle cx="189" cy="192" r="2"></circle><circle cx="191" cy="166" r="2"></circle><circle cx="193" cy="92" r="2"></circle><circle cx="195" cy="180" r="2"></circle><circle cx="197" cy="163" r="2"></circle><circle cx="199" cy="144" r="2"></circle><circle cx="201" cy="151" r="2"></circle><circle cx="203" cy="133" r="2"></circle><circle cx="205" cy="136" r="2"></circle><circle cx="207" cy="182" r="2"></circle><circle cx="209" cy="218" r="2"></circle><circle cx="212" cy="182" r="2"></circle><circle cx="214" cy="136" r="2"></circle><circle cx="216" cy="98" r="2"></circle><circle cx="218" cy="106" r="2"></circle><circle cx="220" cy="144" r="2"></circle><circle cx="222" cy="149" r="2"></circle><circle cx="224" cy="143" r="2"></circle><circle cx="226" cy="163" r="2"></circle><circle cx="228" cy="187" r="2"></circle><circle cx="230" cy="203" r="2"></circle><circle cx="232" cy="218" r="2"></circle><circle cx="234" cy="215" r="2"></circle><circle cx="236" cy="212" r="2"></circle><circle cx="239" cy="226" r="2"></circle><circle cx="241" cy="242" r="2"></circle><circle cx="243" cy="255" r="2"></circle><circle cx="245" cy="269" r="2"></circle><circle cx="247" cy="223" r="2"></circle><circle cx="249" cy="209" r="2"></circle><circle cx="251" cy="190" r="2"></circle><circle cx="253" cy="198" r="2"></circle><circle cx="255" cy="210" r="2"></circle><circle cx="257" cy="233" r="2"></circle><circle cx="259" cy="262" r="2"></circle><circle cx="261" cy="270" r="2"></circle><circle cx="263" cy="278" r="2"></circle><circle cx="266" cy="288" r="2"></circle><circle cx="268" cy="264" r="2"></circle><circle cx="270" cy="256" r="2"></circle><circle cx="272" cy="274" r="2"></circle><circle cx="274" cy="289" r="2"></circle><circle cx="276" cy="296" r="2"></circle><circle cx="278" cy="302" r="2"></circle><circle cx="280" cy="299" r="2"></circle><circle cx="282" cy="289" r="2"></circle><circle cx="284" cy="280" r="2"></circle><circle cx="286" cy="281" r="2"></circle><circle cx="288" cy="281" r="2"></circle><circle cx="290" cy="283" r="2"></circle><circle cx="293" cy="285" r="2"></circle><circle cx="295" cy="289" r="2"></circle><circle cx="297" cy="294" r="2"></circle><circle cx="299" cy="280" r="2"></circle><circle cx="301" cy="267" r="2"></circle><circle cx="303" cy="255" r="2"></circle><circle cx="305" cy="250" r="2"></circle><circle cx="307" cy="244" r="2"></circle><circle cx="309" cy="244" r="2"></circle><circle cx="311" cy="237" r="2"></circle><circle cx="313" cy="259" r="2"></circle><circle cx="315" cy="250" r="2"></circle><circle cx="317" cy="262" r="2"></circle><circle cx="320" cy="272" r="2"></circle><circle cx="322" cy="299" r="2"></circle><circle cx="324" cy="281" r="2"></circle><circle cx="326" cy="299" r="2"></circle><circle cx="328" cy="289" r="2"></circle><circle cx="330" cy="281" r="2"></circle><circle cx="332" cy="286" r="2"></circle><circle cx="334" cy="315" r="2"></circle><circle cx="336" cy="310" r="2"></circle><circle cx="338" cy="248" r="2"></circle><circle cx="340" cy="288" r="2"></circle><circle cx="342" cy="289" r="2"></circle><circle cx="344" cy="289" r="2"></circle><circle cx="347" cy="321" r="2"></circle><circle cx="349" cy="307" r="2"></circle><circle cx="351" cy="326" r="2"></circle><circle cx="353" cy="321" r="2"></circle><circle cx="355" cy="321" r="2"></circle><circle cx="357" cy="338" r="2"></circle><circle cx="359" cy="359" r="2"></circle><circle cx="361" cy="381" r="2"></circle><circle cx="363" cy="346" r="2"></circle><circle cx="365" cy="296" r="2"></circle><circle cx="367" cy="269" r="2"></circle><circle cx="369" cy="296" r="2"></circle><circle cx="371" cy="315" r="2"></circle><circle cx="374" cy="313" r="2"></circle><circle cx="376" cy="289" r="2"></circle><circle cx="378" cy="277" r="2"></circle><circle cx="380" cy="277" r="2"></circle><circle cx="382" cy="247" r="2"></circle><circle cx="384" cy="251" r="2"></circle><circle cx="386" cy="307" r="2"></circle><circle cx="388" cy="311" r="2"></circle><circle cx="390" cy="326" r="2"></circle><circle cx="392" cy="308" r="2"></circle><circle cx="394" cy="308" r="2"></circle><circle cx="396" cy="359" r="2"></circle><circle cx="399" cy="356" r="2"></circle><circle cx="401" cy="338" r="2"></circle><circle cx="403" cy="359" r="2"></circle><circle cx="405" cy="348" r="2"></circle><circle cx="407" cy="337" r="2"></circle><circle cx="409" cy="349" r="2"></circle><circle cx="411" cy="354" r="2"></circle><circle cx="413" cy="343" r="2"></circle><circle cx="415" cy="340" r="2"></circle><circle cx="417" cy="348" r="2"></circle><circle cx="419" cy="362" r="2"></circle><circle cx="421" cy="368" r="2"></circle><circle cx="423" cy="381" r="2"></circle><circle cx="426" cy="371" r="2"></circle><circle cx="428" cy="362" r="2"></circle><circle cx="430" cy="365" r="2"></circle><circle cx="432" cy="371" r="2"></circle><circle cx="434" cy="368" r="2"></circle><circle cx="436" cy="371" r="2"></circle><circle cx="438" cy="384" r="2"></circle><circle cx="440" cy="401" r="2"></circle><circle cx="442" cy="408" r="2"></circle><circle cx="444" cy="337" r="2"></circle><circle cx="446" cy="356" r="2"></circle><circle cx="448" cy="386" r="2"></circle><circle cx="450" cy="387" r="2"></circle><circle cx="453" cy="400" r="2"></circle><circle cx="455" cy="397" r="2"></circle><circle cx="457" cy="387" r="2"></circle><circle cx="459" cy="417" r="2"></circle><circle cx="461" cy="431" r="2"></circle><circle cx="463" cy="417" r="2"></circle><circle cx="465" cy="393" r="2"></circle><circle cx="467" cy="365" r="2"></circle><circle cx="469" cy="378" r="2"></circle><circle cx="471" cy="373" r="2"></circle><circle cx="473" cy="392" r="2"></circle><circle cx="475" cy="403" r="2"></circle><circle cx="477" cy="411" r="2"></circle><circle cx="480" cy="417" r="2"></circle><circle cx="482" cy="408" r="2"></circle><circle cx="484" cy="381" r="2"></circle><circle cx="486" cy="397" r="2"></circle><circle cx="488" cy="415" r="2"></circle><circle cx="490" cy="430" r="2"></circle><circle cx="492" cy="441" r="2"></circle><circle cx="494" cy="453" r="2"></circle><circle cx="496" cy="453" r="2"></circle><circle cx="498" cy="438" r="2"></circle><circle cx="500" cy="406" r="2"></circle><circle cx="502" cy="427" r="2"></circle><circle cx="504" cy="412" r="2"></circle><circle cx="507" cy="423" r="2"></circle><circle cx="509" cy="445" r="2"></circle><circle cx="511" cy="447" r="2"></circle><circle cx="513" cy="449" r="2"></circle><circle cx="515" cy="449" r="2"></circle><circle cx="517" cy="458" r="2"></circle><circle cx="519" cy="460" r="2"></circle><circle cx="521" cy="460" r="2"></circle><circle cx="523" cy="472" r="2"></circle><circle cx="525" cy="480" r="2"></circle><circle cx="527" cy="485" r="2"></circle><circle cx="529" cy="491" r="2"></circle><circle cx="531" cy="477" r="2"></circle><circle cx="534" cy="455" r="2"></circle><circle cx="536" cy="494" r="2"></circle><circle cx="538" cy="496" r="2"></circle><circle cx="540" cy="469" r="2"></circle><circle cx="542" cy="463" r="2"></circle><circle cx="544" cy="471" r="2"></circle><circle cx="546" cy="480" r="2"></circle><circle cx="548" cy="482" r="2"></circle><circle cx="550" cy="486" r="2"></circle><circle cx="552" cy="486" r="2"></circle><circle cx="554" cy="485" r="2"></circle><circle cx="556" cy="483" r="2"></circle><circle cx="558" cy="482" r="2"></circle><circle cx="561" cy="486" r="2"></circle><circle cx="563" cy="490" r="2"></circle><circle cx="565" cy="491" r="2"></circle><circle cx="567" cy="494" r="2"></circle><circle cx="569" cy="493" r="2"></circle><circle cx="571" cy="497" r="2"></circle><circle cx="573" cy="496" r="2"></circle><circle cx="575" cy="480" r="2"></circle><circle cx="577" cy="471" r="2"></circle><circle cx="579" cy="480" r="2"></circle><circle cx="581" cy="488" r="2"></circle><circle cx="583" cy="488" r="2"></circle><circle cx="585" cy="496" r="2"></circle><circle cx="588" cy="499" r="2"></circle><circle cx="590" cy="494" r="2"></circle><circle cx="592" cy="496" r="2"></circle><circle cx="594" cy="499" r="2"></circle><circle cx="596" cy="499" r="2"></circle><circle cx="598" cy="501" r="2"></circle><circle cx="600" cy="499" r="2"></circle><circle cx="602" cy="499" r="2"></circle><circle cx="604" cy="505" r="2"></circle><circle cx="606" cy="505" r="2"></circle><circle cx="608" cy="501" r="2"></circle><circle cx="610" cy="499" r="2"></circle><circle cx="612" cy="491" r="2"></circle><circle cx="615" cy="491" r="2"></circle><circle cx="617" cy="499" r="2"></circle><circle cx="619" cy="491" r="2"></circle><circle cx="621" cy="493" r="2"></circle><circle cx="623" cy="494" r="2"></circle><circle cx="625" cy="494" r="2"></circle><circle cx="627" cy="496" r="2"></circle><circle cx="629" cy="505" r="2"></circle><circle cx="631" cy="507" r="2"></circle><circle cx="633" cy="509" r="2"></circle><circle cx="635" cy="502" r="2"></circle><circle cx="637" cy="499" r="2"></circle><circle cx="640" cy="494" r="2"></circle><circle cx="642" cy="486" r="2"></circle><circle cx="644" cy="482" r="2"></circle><circle cx="646" cy="482" r="2"></circle><circle cx="648" cy="480" r="2"></circle><circle cx="650" cy="480" r="2"></circle><circle cx="652" cy="479" r="2"></circle><circle cx="654" cy="477" r="2"></circle><circle cx="656" cy="472" r="2"></circle><circle cx="658" cy="468" r="2"></circle><circle cx="660" cy="466" r="2"></circle><circle cx="662" cy="466" r="2"></circle><circle cx="664" cy="466" r="2"></circle><circle cx="667" cy="469" r="2"></circle><circle cx="669" cy="471" r="2"></circle><circle cx="671" cy="471" r="2"></circle><circle cx="673" cy="474" r="2"></circle><circle cx="675" cy="474" r="2"></circle><circle cx="677" cy="475" r="2"></circle><circle cx="679" cy="480" r="2"></circle><circle cx="681" cy="482" r="2"></circle><circle cx="683" cy="485" r="2"></circle><circle cx="685" cy="483" r="2"></circle><circle cx="687" cy="482" r="2"></circle><circle cx="689" cy="480" r="2"></circle><circle cx="691" cy="477" r="2"></circle><circle cx="694" cy="479" r="2"></circle><circle cx="696" cy="460" r="2"></circle><circle cx="698" cy="455" r="2"></circle><circle cx="700" cy="458" r="2"></circle><circle cx="702" cy="458" r="2"></circle><circle cx="704" cy="460" r="2"></circle><circle cx="706" cy="461" r="2"></circle><circle cx="708" cy="463" r="2"></circle><circle cx="710" cy="464" r="2"></circle><circle cx="712" cy="466" r="2"></circle><circle cx="714" cy="471" r="2"></circle><circle cx="716" cy="472" r="2"></circle><circle cx="718" cy="474" r="2"></circle><circle cx="721" cy="475" r="2"></circle><circle cx="723" cy="475" r="2"></circle><circle cx="725" cy="477" r="2"></circle><circle cx="727" cy="475" r="2"></circle><circle cx="729" cy="479" r="2"></circle><circle cx="731" cy="480" r="2"></circle><circle cx="733" cy="480" r="2"></circle><circle cx="735" cy="482" r="2"></circle><circle cx="737" cy="482" r="2"></circle><circle cx="739" cy="483" r="2"></circle><circle cx="741" cy="485" r="2"></circle><circle cx="743" cy="486" r="2"></circle><circle cx="745" cy="486" r="2"></circle><circle cx="748" cy="486" r="2"></circle><circle cx="750" cy="490" r="2"></circle><circle cx="752" cy="491" r="2"></circle><circle cx="754" cy="491" r="2"></circle><circle cx="756" cy="493" r="2"></circle><circle cx="758" cy="483" r="2"></circle><circle cx="760" cy="482" r="2"></circle><circle cx="762" cy="482" r="2"></circle><circle cx="764" cy="482" r="2"></circle><circle cx="766" cy="463" r="2"></circle><circle cx="768" cy="466" r="2"></circle><circle cx="770" cy="455" r="2"></circle><circle cx="772" cy="452" r="2"></circle></g></g></g></g></g><g style="fill: #777;" class="SourcesFooter"><g style="fill: #777;" class="clickable"><text font-size="12.60" x="15.0" y="581.6"><tspan x="15" y="581.58">Source: Daniel E. Sichel (2017)</tspan></text></g><text font-size="12.60" x="649.0" y="581.6"><tspan x="649.024" y="581.58"><a target='_blank' style='fill: #777;' href='https://ourworldindata.org'>OurWorldInData.org</a> • <a style="fill: #777;" href="http://creativecommons.org/licenses/by-sa/4.0/deed.en_US" target="_blank">CC BY-SA</a></tspan></text></g></g></svg>