<svg xmlns="http://www.w3.org/2000/svg" version="1.1" style="font-family: 'Helvetica Neue', Helvetica, Arial, sans-serif; font-size: 18px; background-color: white; text-rendering: optimizeLegibility; -webkit-font-smoothing: antialiased;" width="850" height="600"><g class="ChartTab"><g class="HeaderView"><g opacity="0.8" transform="translate(778, 15) scale(0.27)"><a xmlns:xlink="http://www.w3.org/1999/xlink" xlink:href="https://ourworldindata.org" target="_blank"><g><rect x="0" y="0" fill="#1B2543" width="211.2" height="130.1"/><rect x="0" y="112.2" fill="#E63912" width="211.2" height="17.9"/><g><rect x="1.2" y="12.3" fill="none" width="210.2" height="99.2"/><path fill="#FFFFFF" d="M37.8,32.2c0,12.7-7.7,19.4-17.1,19.4c-9.7,0-16.6-7.5-16.6-18.7c0-11.7,7.3-19.3,17.1-19.3 C31.3,13.7,37.8,21.3,37.8,32.2z M9.2,32.8c0,7.9,4.3,14.9,11.8,14.9c7.5,0,11.8-6.9,11.8-15.3c0-7.3-3.8-14.9-11.8-14.9 C13.1,17.5,9.2,24.8,9.2,32.8z"/><path fill="#FFFFFF" d="M62.7,43.8c0,2.7,0.1,5.1,0.2,7.2h-4.3l-0.3-4.3h-0.1c-1.3,2.1-4,4.9-8.8,4.9c-4.2,0-9.1-2.3-9.1-11.6 V24.6h4.8v14.6c0,5,1.5,8.4,5.9,8.4c3.2,0,5.5-2.2,6.3-4.4c0.3-0.7,0.4-1.6,0.4-2.5V24.6h4.8V43.8z"/><path fill="#FFFFFF" d="M67.3,32.8c0-3.1-0.1-5.8-0.2-8.2h4.2l0.2,5.2h0.2c1.2-3.5,4.1-5.8,7.3-5.8c0.5,0,0.9,0.1,1.4,0.2v4.5 c-0.5-0.1-1-0.2-1.6-0.2c-3.4,0-5.8,2.6-6.5,6.2c-0.1,0.7-0.2,1.4-0.2,2.2V51h-4.8V32.8z"/><path fill="#FFFFFF" d="M95.4,51l-9.4-36.8h5l4.4,18.6c1.1,4.6,2.1,9.2,2.7,12.7h0.1c0.6-3.7,1.8-8,3-12.8l4.9-18.5h5l4.5,18.7 c1,4.4,2,8.7,2.6,12.6h0.1c0.8-4,1.8-8.1,3-12.7l4.9-18.5h4.9L120.6,51h-5L111,31.9c-1.1-4.7-1.9-8.3-2.4-12h-0.1 c-0.7,3.7-1.5,7.3-2.8,12L100.4,51H95.4z"/><path fill="#FFFFFF" d="M154.9,37.6c0,9.8-6.8,14-13.2,14c-7.2,0-12.7-5.2-12.7-13.6c0-8.8,5.8-14,13.1-14 C149.8,24,154.9,29.5,154.9,37.6z M133.9,37.9c0,5.8,3.3,10.1,8,10.1c4.6,0,8-4.3,8-10.3c0-4.5-2.2-10.1-7.9-10.1 C136.3,27.6,133.9,32.8,133.9,37.9z"/><path fill="#FFFFFF" d="M158.2,32.8c0-3.1-0.1-5.8-0.2-8.2h4.2l0.2,5.2h0.2c1.2-3.5,4.1-5.8,7.3-5.8c0.5,0,0.9,0.1,1.4,0.2v4.5 c-0.5-0.1-1-0.2-1.6-0.2c-3.4,0-5.8,2.6-6.5,6.2c-0.1,0.7-0.2,1.4-0.2,2.2V51h-4.8V32.8z"/><path fill="#FFFFFF" d="M173.5,12.3h4.8V51h-4.8V12.3z"/><path fill="#FFFFFF" d="M206.5,12.3v31.9c0,2.3,0.1,5,0.2,6.8h-4.3l-0.2-4.6H202c-1.5,2.9-4.7,5.2-9,5.2 c-6.4,0-11.3-5.4-11.3-13.4c-0.1-8.8,5.4-14.2,11.9-14.2c4,0,6.8,1.9,8,4h0.1V12.3H206.5z M201.7,35.4c0-0.6-0.1-1.4-0.2-2 c-0.7-3.1-3.3-5.6-6.9-5.6c-5,0-7.9,4.4-7.9,10.2c0,5.3,2.6,9.8,7.8,9.8c3.2,0,6.2-2.1,7.1-5.7c0.2-0.7,0.2-1.3,0.2-2.1V35.4z"/><path fill="#FFFFFF" d="M42.8,64c0.1,1.6-1.1,2.9-3.1,2.9c-1.7,0-2.9-1.3-2.9-2.9c0-1.7,1.3-3,3-3C41.7,61,42.8,62.3,42.8,64z M37.4,97.8V71.4h4.8v26.4H37.4z"/><path fill="#FFFFFF" d="M47.5,78.6c0-2.7-0.1-5-0.2-7.1h4.3l0.3,4.4h0.1c1.3-2.5,4.4-5,8.8-5c3.7,0,9.4,2.2,9.4,11.2v15.8h-4.8 V82.6c0-4.3-1.6-7.8-6.1-7.8c-3.2,0-5.6,2.2-6.5,4.9c-0.2,0.6-0.3,1.4-0.3,2.2v15.9h-4.8V78.6z"/><path fill="#FFFFFF" d="M84,61.6c2.9-0.4,6.3-0.8,10.1-0.8c6.8,0,11.7,1.6,14.9,4.6c3.3,3,5.2,7.3,5.2,13.2c0,6-1.9,10.9-5.3,14.3 c-3.4,3.4-9.1,5.3-16.3,5.3c-3.4,0-6.2-0.2-8.6-0.4V61.6z M88.8,94.1c1.2,0.2,3,0.3,4.8,0.3c10.2,0,15.7-5.7,15.7-15.6 c0.1-8.7-4.9-14.2-14.9-14.2c-2.5,0-4.3,0.2-5.6,0.5V94.1z"/><path fill="#FFFFFF" d="M132.1,97.8l-0.4-3.3h-0.2c-1.5,2.1-4.3,3.9-8.1,3.9c-5.4,0-8.1-3.8-8.1-7.6c0-6.4,5.7-9.9,15.9-9.8v-0.5 c0-2.2-0.6-6.1-6-6.1c-2.5,0-5,0.8-6.9,2l-1.1-3.2c2.2-1.4,5.4-2.3,8.7-2.3c8.1,0,10.1,5.5,10.1,10.8v9.9c0,2.3,0.1,4.5,0.4,6.3 H132.1z M131.4,84.4c-5.3-0.1-11.2,0.8-11.2,5.9c0,3.1,2.1,4.6,4.5,4.6c3.4,0,5.6-2.2,6.4-4.4c0.2-0.5,0.3-1,0.3-1.5V84.4z"/><path fill="#FFFFFF" d="M146.6,63.9v7.6h6.9v3.7h-6.9v14.2c0,3.3,0.9,5.1,3.6,5.1c1.3,0,2.2-0.2,2.8-0.3l0.2,3.6 c-0.9,0.4-2.4,0.7-4.3,0.7c-2.2,0-4-0.7-5.2-2c-1.4-1.4-1.9-3.8-1.9-6.9V75.1h-4.1v-3.7h4.1v-6.3L146.6,63.9z"/><path fill="#FFFFFF" d="M171.4,97.8l-0.4-3.3h-0.2c-1.5,2.1-4.3,3.9-8.1,3.9c-5.4,0-8.1-3.8-8.1-7.6c0-6.4,5.7-9.9,15.9-9.8v-0.5 c0-2.2-0.6-6.1-6-6.1c-2.5,0-5,0.8-6.9,2l-1.1-3.2c2.2-1.4,5.4-2.3,8.7-2.3c8.1,0,10.1,5.5,10.1,10.8v9.9c0,2.3,0.1,4.5,0.4,6.3 H171.4z M170.7,84.4c-5.3-0.1-11.2,0.8-11.2,5.9c0,3.1,2.1,4.6,4.5,4.6c3.4,0,5.6-2.2,6.4-4.4c0.2-0.5,0.3-1,0.3-1.5V84.4z"/></g></g></a></g><a href="https://ourworldindata.org/grapher/real-gdp-per-capita-PWT" target="_blank"><text font-size="25.20" x="15.0" y="35.2" fill="#555"><tspan x="15" y="35.160000000000004">GDP per capita</tspan></text></a><text font-size="14.40" x="15.0" y="53.7" fill="#666"><tspan x="15" y="53.72">Adjusted for price changes over time (inflation) and for price differences between countries (purchasing power) to</tspan><tspan x="15" y="69.56">allow comparisons.</tspan></text></g><g class="LineChart"><defs><clipPath id="boundsClip-453"><rect x="68.968" y="0" width="830" height="928.8"></rect></clipPath></defs><g class="AxisBoxView"><g class="HorizontalAxis"><text x="79" y="556.5" fill="#666" text-anchor="middle" font-size="16.2">1950</text><text x="178.4" y="556.5" fill="#666" text-anchor="middle" font-size="16.2">1960</text><text x="277.8" y="556.5" fill="#666" text-anchor="middle" font-size="16.2">1970</text><text x="377.2" y="556.5" fill="#666" text-anchor="middle" font-size="16.2">1980</text><text x="476.6" y="556.5" fill="#666" text-anchor="middle" font-size="16.2">1990</text><text x="576.1" y="556.5" fill="#666" text-anchor="middle" font-size="16.2">2000</text><text x="715.2" y="556.5" fill="#666" text-anchor="middle" font-size="16.2">2014</text></g><g class="VerticalAxis"><text x="73.97" y="535.3" fill="#666" dominant-baseline="middle" text-anchor="end" font-size="16.2">$0</text><text x="73.97" y="472.8" fill="#666" dominant-baseline="middle" text-anchor="end" font-size="16.2">$2,000</text><text x="73.97" y="410.3" fill="#666" dominant-baseline="middle" text-anchor="end" font-size="16.2">$4,000</text><text x="73.97" y="347.8" fill="#666" dominant-baseline="middle" text-anchor="end" font-size="16.2">$6,000</text><text x="73.97" y="285.4" fill="#666" dominant-baseline="middle" text-anchor="end" font-size="16.2">$8,000</text><text x="73.97" y="222.9" fill="#666" dominant-baseline="middle" text-anchor="end" font-size="16.2">$10,000</text><text x="73.97" y="160.4" fill="#666" dominant-baseline="middle" text-anchor="end" font-size="16.2">$12,000</text><text x="73.97" y="97.9" fill="#666" dominant-baseline="middle" text-anchor="end" font-size="16.2">$14,000</text></g><g class="AxisGridLines"><line x1="78.97" y1="535.3" x2="715.25" y2="535.3" stroke="#ccc"></line><line x1="78.97" y1="472.8" x2="715.25" y2="472.8" stroke="#ddd" stroke-dasharray="3,2"></line><line x1="78.97" y1="410.3" x2="715.25" y2="410.3" stroke="#ddd" stroke-dasharray="3,2"></line><line x1="78.97" y1="347.8" x2="715.25" y2="347.8" stroke="#ddd" stroke-dasharray="3,2"></line><line x1="78.97" y1="285.4" x2="715.25" y2="285.4" stroke="#ddd" stroke-dasharray="3,2"></line><line x1="78.97" y1="222.9" x2="715.25" y2="222.9" stroke="#ddd" stroke-dasharray="3,2"></line><line x1="78.97" y1="160.4" x2="715.25" y2="160.4" stroke="#ddd" stroke-dasharray="3,2"></line><line x1="78.97" y1="97.9" x2="715.25" y2="97.9" stroke="#ddd" stroke-dasharray="3,2"></line></g></g><g clip-path="url(#boundsClip-453)"><g class="HeightedLegend clickable"><g class="legendMark"><rect x="725.248" y="84.89999999999999" width="85.56" height="14.4" fill="#fff" opacity="0"></rect><rect x="725.248" y="90.85" width="10" height="2.5" fill="#34983f"></rect><text font-size="14.40" x="740.2" y="96.4" fill="#333"><tspan x="740.248" y="96.42">Costa Rica</tspan></text></g><g class="legendMark"><rect x="725.248" y="340.2" width="57.480000000000004" height="14.4" fill="#fff" opacity="0"></rect><rect x="725.248" y="346.15" width="10" height="2.5" fill="#ca2628"></rect><text font-size="14.40" x="740.2" y="351.7" fill="#333"><tspan x="740.248" y="351.71999999999997">Bolivia</tspan></text></g><g class="legendMark"><rect x="725.248" y="489" width="109.75200000000001" height="14.4" fill="#fff" opacity="0"></rect><rect x="725.248" y="494.95" width="10" height="2.5" fill="#3360a9"></rect><text font-size="14.40" x="740.2" y="500.5" fill="#333"><tspan x="740.248" y="500.52">Guinea-Bissau</tspan></text></g></g><g class="Lines"><rect x="79" y="92" width="636" height="443" fill="rgba(255,255,255,0)" opacity="0"></rect><g class="key-Costa-Rica_0"><path stroke="#34983f" stroke-linecap="round" d="M79 435L89 432L99 419L109 399L119 396L129 392L139 401L149 396L159 387L168 393L178 389L188 396L198 392L208 388L218 384L228 378L238 372L248 370L258 366L268 361L278 351L288 350L298 341L308 333L318 342L328 335L338 317L347 291L357 289L367 289L377 294L387 316L397 329L407 331L417 320L427 318L437 301L447 310L457 309L467 304L477 307L487 306L497 290L507 276L516 266L526 260L536 267L546 254L556 235L566 216L576 228L586 234L596 232L606 222L616 216L626 210L636 193L646 174L656 170L666 158L676 141L685 131L695 116L705 105L715 92" fill="none" stroke-width="1.5"></path><g fill="#34983f"><circle cx="79" cy="435" r="2"></circle><circle cx="89" cy="432" r="2"></circle><circle cx="99" cy="419" r="2"></circle><circle cx="109" cy="399" r="2"></circle><circle cx="119" cy="396" r="2"></circle><circle cx="129" cy="392" r="2"></circle><circle cx="139" cy="401" r="2"></circle><circle cx="149" cy="396" r="2"></circle><circle cx="159" cy="387" r="2"></circle><circle cx="168" cy="393" r="2"></circle><circle cx="178" cy="389" r="2"></circle><circle cx="188" cy="396" r="2"></circle><circle cx="198" cy="392" r="2"></circle><circle cx="208" cy="388" r="2"></circle><circle cx="218" cy="384" r="2"></circle><circle cx="228" cy="378" r="2"></circle><circle cx="238" cy="372" r="2"></circle><circle cx="248" cy="370" r="2"></circle><circle cx="258" cy="366" r="2"></circle><circle cx="268" cy="361" r="2"></circle><circle cx="278" cy="351" r="2"></circle><circle cx="288" cy="350" r="2"></circle><circle cx="298" cy="341" r="2"></circle><circle cx="308" cy="333" r="2"></circle><circle cx="318" cy="342" r="2"></circle><circle cx="328" cy="335" r="2"></circle><circle cx="338" cy="317" r="2"></circle><circle cx="347" cy="291" r="2"></circle><circle cx="357" cy="289" r="2"></circle><circle cx="367" cy="289" r="2"></circle><circle cx="377" cy="294" r="2"></circle><circle cx="387" cy="316" r="2"></circle><circle cx="397" cy="329" r="2"></circle><circle cx="407" cy="331" r="2"></circle><circle cx="417" cy="320" r="2"></circle><circle cx="427" cy="318" r="2"></circle><circle cx="437" cy="301" r="2"></circle><circle cx="447" cy="310" r="2"></circle><circle cx="457" cy="309" r="2"></circle><circle cx="467" cy="304" r="2"></circle><circle cx="477" cy="307" r="2"></circle><circle cx="487" cy="306" r="2"></circle><circle cx="497" cy="290" r="2"></circle><circle cx="507" cy="276" r="2"></circle><circle cx="516" cy="266" r="2"></circle><circle cx="526" cy="260" r="2"></circle><circle cx="536" cy="267" r="2"></circle><circle cx="546" cy="254" r="2"></circle><circle cx="556" cy="235" r="2"></circle><circle cx="566" cy="216" r="2"></circle><circle cx="576" cy="228" r="2"></circle><circle cx="586" cy="234" r="2"></circle><circle cx="596" cy="232" r="2"></circle><circle cx="606" cy="222" r="2"></circle><circle cx="616" cy="216" r="2"></circle><circle cx="626" cy="210" r="2"></circle><circle cx="636" cy="193" r="2"></circle><circle cx="646" cy="174" r="2"></circle><circle cx="656" cy="170" r="2"></circle><circle cx="666" cy="158" r="2"></circle><circle cx="676" cy="141" r="2"></circle><circle cx="685" cy="131" r="2"></circle><circle cx="695" cy="116" r="2"></circle><circle cx="705" cy="105" r="2"></circle><circle cx="715" cy="92" r="2"></circle></g></g><g class="key-Bolivia_0"><path stroke="#ca2628" stroke-linecap="round" d="M79 483L89 478L99 479L109 488L119 488L129 484L139 489L149 491L159 492L168 492L178 491L188 489L198 489L208 487L218 484L228 480L238 478L248 477L258 484L268 483L278 482L288 480L298 480L308 478L318 470L328 473L338 471L347 469L357 472L367 470L377 469L387 468L397 468L407 470L417 467L427 465L437 468L447 467L457 473L467 470L477 466L487 464L497 463L507 459L516 453L526 446L536 439L546 439L556 439L566 439L576 438L586 437L596 435L606 430L616 422L626 418L636 407L646 402L656 391L666 391L676 376L685 361L695 352L705 346L715 347" fill="none" stroke-width="1.5"></path><g fill="#ca2628"><circle cx="79" cy="483" r="2"></circle><circle cx="89" cy="478" r="2"></circle><circle cx="99" cy="479" r="2"></circle><circle cx="109" cy="488" r="2"></circle><circle cx="119" cy="488" r="2"></circle><circle cx="129" cy="484" r="2"></circle><circle cx="139" cy="489" r="2"></circle><circle cx="149" cy="491" r="2"></circle><circle cx="159" cy="492" r="2"></circle><circle cx="168" cy="492" r="2"></circle><circle cx="178" cy="491" r="2"></circle><circle cx="188" cy="489" r="2"></circle><circle cx="198" cy="489" r="2"></circle><circle cx="208" cy="487" r="2"></circle><circle cx="218" cy="484" r="2"></circle><circle cx="228" cy="480" r="2"></circle><circle cx="238" cy="478" r="2"></circle><circle cx="248" cy="477" r="2"></circle><circle cx="258" cy="484" r="2"></circle><circle cx="268" cy="483" r="2"></circle><circle cx="278" cy="482" r="2"></circle><circle cx="288" cy="480" r="2"></circle><circle cx="298" cy="480" r="2"></circle><circle cx="308" cy="478" r="2"></circle><circle cx="318" cy="470" r="2"></circle><circle cx="328" cy="473" r="2"></circle><circle cx="338" cy="471" r="2"></circle><circle cx="347" cy="469" r="2"></circle><circle cx="357" cy="472" r="2"></circle><circle cx="367" cy="470" r="2"></circle><circle cx="377" cy="469" r="2"></circle><circle cx="387" cy="468" r="2"></circle><circle cx="397" cy="468" r="2"></circle><circle cx="407" cy="470" r="2"></circle><circle cx="417" cy="467" r="2"></circle><circle cx="427" cy="465" r="2"></circle><circle cx="437" cy="468" r="2"></circle><circle cx="447" cy="467" r="2"></circle><circle cx="457" cy="473" r="2"></circle><circle cx="467" cy="470" r="2"></circle><circle cx="477" cy="466" r="2"></circle><circle cx="487" cy="464" r="2"></circle><circle cx="497" cy="463" r="2"></circle><circle cx="507" cy="459" r="2"></circle><circle cx="516" cy="453" r="2"></circle><circle cx="526" cy="446" r="2"></circle><circle cx="536" cy="439" r="2"></circle><circle cx="546" cy="439" r="2"></circle><circle cx="556" cy="439" r="2"></circle><circle cx="566" cy="439" r="2"></circle><circle cx="576" cy="438" r="2"></circle><circle cx="586" cy="437" r="2"></circle><circle cx="596" cy="435" r="2"></circle><circle cx="606" cy="430" r="2"></circle><circle cx="616" cy="422" r="2"></circle><circle cx="626" cy="418" r="2"></circle><circle cx="636" cy="407" r="2"></circle><circle cx="646" cy="402" r="2"></circle><circle cx="656" cy="391" r="2"></circle><circle cx="666" cy="391" r="2"></circle><circle cx="676" cy="376" r="2"></circle><circle cx="685" cy="361" r="2"></circle><circle cx="695" cy="352" r="2"></circle><circle cx="705" cy="346" r="2"></circle><circle cx="715" cy="347" r="2"></circle></g></g><g class="key-Guinea__002dBissau_0"><path stroke="#3360a9" stroke-linecap="round" d="M178 507L188 507L198 507L208 504L218 502L228 501L238 504L248 500L258 499L268 495L278 491L288 494L298 492L308 492L318 491L328 488L338 485L347 493L357 487L367 487L377 491L387 495L397 495L407 497L417 497L427 502L437 496L447 495L457 494L467 494L477 493L487 492L497 498L507 495L516 491L526 491L536 491L546 486L556 494L566 487L576 490L586 490L596 492L606 493L616 493L626 494L636 496L646 495L656 496L666 497L676 496L685 491L695 496L705 497L715 496" fill="none" stroke-width="1.5"></path><g fill="#3360a9"><circle cx="178" cy="507" r="2"></circle><circle cx="188" cy="507" r="2"></circle><circle cx="198" cy="507" r="2"></circle><circle cx="208" cy="504" r="2"></circle><circle cx="218" cy="502" r="2"></circle><circle cx="228" cy="501" r="2"></circle><circle cx="238" cy="504" r="2"></circle><circle cx="248" cy="500" r="2"></circle><circle cx="258" cy="499" r="2"></circle><circle cx="268" cy="495" r="2"></circle><circle cx="278" cy="491" r="2"></circle><circle cx="288" cy="494" r="2"></circle><circle cx="298" cy="492" r="2"></circle><circle cx="308" cy="492" r="2"></circle><circle cx="318" cy="491" r="2"></circle><circle cx="328" cy="488" r="2"></circle><circle cx="338" cy="485" r="2"></circle><circle cx="347" cy="493" r="2"></circle><circle cx="357" cy="487" r="2"></circle><circle cx="367" cy="487" r="2"></circle><circle cx="377" cy="491" r="2"></circle><circle cx="387" cy="495" r="2"></circle><circle cx="397" cy="495" r="2"></circle><circle cx="407" cy="497" r="2"></circle><circle cx="417" cy="497" r="2"></circle><circle cx="427" cy="502" r="2"></circle><circle cx="437" cy="496" r="2"></circle><circle cx="447" cy="495" r="2"></circle><circle cx="457" cy="494" r="2"></circle><circle cx="467" cy="494" r="2"></circle><circle cx="477" cy="493" r="2"></circle><circle cx="487" cy="492" r="2"></circle><circle cx="497" cy="498" r="2"></circle><circle cx="507" cy="495" r="2"></circle><circle cx="516" cy="491" r="2"></circle><circle cx="526" cy="491" r="2"></circle><circle cx="536" cy="491" r="2"></circle><circle cx="546" cy="486" r="2"></circle><circle cx="556" cy="494" r="2"></circle><circle cx="566" cy="487" r="2"></circle><circle cx="576" cy="490" r="2"></circle><circle cx="586" cy="490" r="2"></circle><circle cx="596" cy="492" r="2"></circle><circle cx="606" cy="493" r="2"></circle><circle cx="616" cy="493" r="2"></circle><circle cx="626" cy="494" r="2"></circle><circle cx="636" cy="496" r="2"></circle><circle cx="646" cy="495" r="2"></circle><circle cx="656" cy="496" r="2"></circle><circle cx="666" cy="497" r="2"></circle><circle cx="676" cy="496" r="2"></circle><circle cx="685" cy="491" r="2"></circle><circle cx="695" cy="496" r="2"></circle><circle cx="705" cy="497" r="2"></circle><circle cx="715" cy="496" r="2"></circle></g></g></g></g></g><g style="fill: #777;" class="SourcesFooter"><g style="fill: #777;" class="clickable"><text font-size="12.60" x="15.0" y="581.6"><tspan x="15" y="581.58">Source: Penn World Tables</tspan></text></g><text font-size="12.60" x="549.4" y="581.6"><tspan x="549.358" y="581.58"><a target='_blank' style='fill: #777;' href='https://ourworldindata.org/economic-growth'>OurWorldInData.org/economic-growth</a> • <a style="fill: #777;" href="http://creativecommons.org/licenses/by-sa/4.0/deed.en_US" target="_blank">CC BY-SA</a></tspan></text></g></g></svg>