<svg xmlns="http://www.w3.org/2000/svg" version="1.1" style="font-family: 'Helvetica Neue', Helvetica, Arial, sans-serif; font-size: 18px; background-color: white; text-rendering: optimizeLegibility; -webkit-font-smoothing: antialiased;" width="850" height="600"><g class="ChartTab"><g class="HeaderView"><g opacity="0.8" transform="translate(770, 15) scale(0.31)"><a xmlns:xlink="http://www.w3.org/1999/xlink" xlink:href="https://ourworldindata.org" target="_blank"><g><rect x="0" y="0" fill="#1B2543" width="211.2" height="130.1"/><rect x="0" y="112.2" fill="#E63912" width="211.2" height="17.9"/><g><rect x="1.2" y="12.3" fill="none" width="210.2" height="99.2"/><path fill="#FFFFFF" d="M37.8,32.2c0,12.7-7.7,19.4-17.1,19.4c-9.7,0-16.6-7.5-16.6-18.7c0-11.7,7.3-19.3,17.1-19.3 C31.3,13.7,37.8,21.3,37.8,32.2z M9.2,32.8c0,7.9,4.3,14.9,11.8,14.9c7.5,0,11.8-6.9,11.8-15.3c0-7.3-3.8-14.9-11.8-14.9 C13.1,17.5,9.2,24.8,9.2,32.8z"/><path fill="#FFFFFF" d="M62.7,43.8c0,2.7,0.1,5.1,0.2,7.2h-4.3l-0.3-4.3h-0.1c-1.3,2.1-4,4.9-8.8,4.9c-4.2,0-9.1-2.3-9.1-11.6 V24.6h4.8v14.6c0,5,1.5,8.4,5.9,8.4c3.2,0,5.5-2.2,6.3-4.4c0.3-0.7,0.4-1.6,0.4-2.5V24.6h4.8V43.8z"/><path fill="#FFFFFF" d="M67.3,32.8c0-3.1-0.1-5.8-0.2-8.2h4.2l0.2,5.2h0.2c1.2-3.5,4.1-5.8,7.3-5.8c0.5,0,0.9,0.1,1.4,0.2v4.5 c-0.5-0.1-1-0.2-1.6-0.2c-3.4,0-5.8,2.6-6.5,6.2c-0.1,0.7-0.2,1.4-0.2,2.2V51h-4.8V32.8z"/><path fill="#FFFFFF" d="M95.4,51l-9.4-36.8h5l4.4,18.6c1.1,4.6,2.1,9.2,2.7,12.7h0.1c0.6-3.7,1.8-8,3-12.8l4.9-18.5h5l4.5,18.7 c1,4.4,2,8.7,2.6,12.6h0.1c0.8-4,1.8-8.1,3-12.7l4.9-18.5h4.9L120.6,51h-5L111,31.9c-1.1-4.7-1.9-8.3-2.4-12h-0.1 c-0.7,3.7-1.5,7.3-2.8,12L100.4,51H95.4z"/><path fill="#FFFFFF" d="M154.9,37.6c0,9.8-6.8,14-13.2,14c-7.2,0-12.7-5.2-12.7-13.6c0-8.8,5.8-14,13.1-14 C149.8,24,154.9,29.5,154.9,37.6z M133.9,37.9c0,5.8,3.3,10.1,8,10.1c4.6,0,8-4.3,8-10.3c0-4.5-2.2-10.1-7.9-10.1 C136.3,27.6,133.9,32.8,133.9,37.9z"/><path fill="#FFFFFF" d="M158.2,32.8c0-3.1-0.1-5.8-0.2-8.2h4.2l0.2,5.2h0.2c1.2-3.5,4.1-5.8,7.3-5.8c0.5,0,0.9,0.1,1.4,0.2v4.5 c-0.5-0.1-1-0.2-1.6-0.2c-3.4,0-5.8,2.6-6.5,6.2c-0.1,0.7-0.2,1.4-0.2,2.2V51h-4.8V32.8z"/><path fill="#FFFFFF" d="M173.5,12.3h4.8V51h-4.8V12.3z"/><path fill="#FFFFFF" d="M206.5,12.3v31.9c0,2.3,0.1,5,0.2,6.8h-4.3l-0.2-4.6H202c-1.5,2.9-4.7,5.2-9,5.2 c-6.4,0-11.3-5.4-11.3-13.4c-0.1-8.8,5.4-14.2,11.9-14.2c4,0,6.8,1.9,8,4h0.1V12.3H206.5z M201.7,35.4c0-0.6-0.1-1.4-0.2-2 c-0.7-3.1-3.3-5.6-6.9-5.6c-5,0-7.9,4.4-7.9,10.2c0,5.3,2.6,9.8,7.8,9.8c3.2,0,6.2-2.1,7.1-5.7c0.2-0.7,0.2-1.3,0.2-2.1V35.4z"/><path fill="#FFFFFF" d="M42.8,64c0.1,1.6-1.1,2.9-3.1,2.9c-1.7,0-2.9-1.3-2.9-2.9c0-1.7,1.3-3,3-3C41.7,61,42.8,62.3,42.8,64z M37.4,97.8V71.4h4.8v26.4H37.4z"/><path fill="#FFFFFF" d="M47.5,78.6c0-2.7-0.1-5-0.2-7.1h4.3l0.3,4.4h0.1c1.3-2.5,4.4-5,8.8-5c3.7,0,9.4,2.2,9.4,11.2v15.8h-4.8 V82.6c0-4.3-1.6-7.8-6.1-7.8c-3.2,0-5.6,2.2-6.5,4.9c-0.2,0.6-0.3,1.4-0.3,2.2v15.9h-4.8V78.6z"/><path fill="#FFFFFF" d="M84,61.6c2.9-0.4,6.3-0.8,10.1-0.8c6.8,0,11.7,1.6,14.9,4.6c3.3,3,5.2,7.3,5.2,13.2c0,6-1.9,10.9-5.3,14.3 c-3.4,3.4-9.1,5.3-16.3,5.3c-3.4,0-6.2-0.2-8.6-0.4V61.6z M88.8,94.1c1.2,0.2,3,0.3,4.8,0.3c10.2,0,15.7-5.7,15.7-15.6 c0.1-8.7-4.9-14.2-14.9-14.2c-2.5,0-4.3,0.2-5.6,0.5V94.1z"/><path fill="#FFFFFF" d="M132.1,97.8l-0.4-3.3h-0.2c-1.5,2.1-4.3,3.9-8.1,3.9c-5.4,0-8.1-3.8-8.1-7.6c0-6.4,5.7-9.9,15.9-9.8v-0.5 c0-2.2-0.6-6.1-6-6.1c-2.5,0-5,0.8-6.9,2l-1.1-3.2c2.2-1.4,5.4-2.3,8.7-2.3c8.1,0,10.1,5.5,10.1,10.8v9.9c0,2.3,0.1,4.5,0.4,6.3 H132.1z M131.4,84.4c-5.3-0.1-11.2,0.8-11.2,5.9c0,3.1,2.1,4.6,4.5,4.6c3.4,0,5.6-2.2,6.4-4.4c0.2-0.5,0.3-1,0.3-1.5V84.4z"/><path fill="#FFFFFF" d="M146.6,63.9v7.6h6.9v3.7h-6.9v14.2c0,3.3,0.9,5.1,3.6,5.1c1.3,0,2.2-0.2,2.8-0.3l0.2,3.6 c-0.9,0.4-2.4,0.7-4.3,0.7c-2.2,0-4-0.7-5.2-2c-1.4-1.4-1.9-3.8-1.9-6.9V75.1h-4.1v-3.7h4.1v-6.3L146.6,63.9z"/><path fill="#FFFFFF" d="M171.4,97.8l-0.4-3.3h-0.2c-1.5,2.1-4.3,3.9-8.1,3.9c-5.4,0-8.1-3.8-8.1-7.6c0-6.4,5.7-9.9,15.9-9.8v-0.5 c0-2.2-0.6-6.1-6-6.1c-2.5,0-5,0.8-6.9,2l-1.1-3.2c2.2-1.4,5.4-2.3,8.7-2.3c8.1,0,10.1,5.5,10.1,10.8v9.9c0,2.3,0.1,4.5,0.4,6.3 H171.4z M170.7,84.4c-5.3-0.1-11.2,0.8-11.2,5.9c0,3.1,2.1,4.6,4.5,4.6c3.4,0,5.6-2.2,6.4-4.4c0.2-0.5,0.3-1,0.3-1.5V84.4z"/></g></g></a></g><a href="https://ourworldindata.org/grapher/registered-mobile-money-accounts-by-region" target="_blank"><text font-size="27.00" x="15.0" y="36.6" fill="#555"><tspan x="15" y="36.6">Registered mobile money accounts by region</tspan></text></a><text font-size="14.40" x="15.0" y="55.5" fill="#666"><tspan x="15" y="55.519999999999996">Regional number of cumulative registered mobile money accounts at the end of the year indicated. A mobile money</tspan><tspan x="15" y="71.36">service includes transferring money and making payments using the mobile phone. North America is not shown</tspan><tspan x="15" y="87.2">since mobile money accounts are not utilised across this region.</tspan></text></g><g class="StackedArea"><defs><clipPath id="boundsClip-903"><rect x="97.598" y="0" width="820" height="894.2"></rect></clipPath></defs><g class="AxisBoxView"><g class="HorizontalAxis"><text x="97.6" y="556.5" fill="#666" text-anchor="middle" font-size="16.2">2006</text><text x="215.8" y="556.5" fill="#666" text-anchor="middle" font-size="16.2">2008</text><text x="334.1" y="556.5" fill="#666" text-anchor="middle" font-size="16.2">2010</text><text x="452.4" y="556.5" fill="#666" text-anchor="middle" font-size="16.2">2012</text><text x="570.6" y="556.5" fill="#666" text-anchor="middle" font-size="16.2">2014</text><text x="688.9" y="556.5" fill="#666" text-anchor="middle" font-size="16.2">2016</text></g><g class="VerticalAxis"><text x="92.60" y="535.3" fill="#666" dominant-baseline="middle" text-anchor="end" font-size="16.2">0</text><text x="92.60" y="458.6" fill="#666" dominant-baseline="middle" text-anchor="end" font-size="16.2">100 million</text><text x="92.60" y="382" fill="#666" dominant-baseline="middle" text-anchor="end" font-size="16.2">200 million</text><text x="92.60" y="305.3" fill="#666" dominant-baseline="middle" text-anchor="end" font-size="16.2">300 million</text><text x="92.60" y="228.7" fill="#666" dominant-baseline="middle" text-anchor="end" font-size="16.2">400 million</text><text x="92.60" y="152" fill="#666" dominant-baseline="middle" text-anchor="end" font-size="16.2">500 million</text></g><g class="AxisGridLines"><line x1="97.60" y1="535.3" x2="688.86" y2="535.3" stroke="#ccc"></line><line x1="97.60" y1="458.6" x2="688.86" y2="458.6" stroke="#ddd" stroke-dasharray="3,2"></line><line x1="97.60" y1="382" x2="688.86" y2="382" stroke="#ddd" stroke-dasharray="3,2"></line><line x1="97.60" y1="305.3" x2="688.86" y2="305.3" stroke="#ddd" stroke-dasharray="3,2"></line><line x1="97.60" y1="228.7" x2="688.86" y2="228.7" stroke="#ddd" stroke-dasharray="3,2"></line><line x1="97.60" y1="152" x2="688.86" y2="152" stroke="#ddd" stroke-dasharray="3,2"></line></g><g class="AxisGridLines"><line x1="97.6" y1="535.30" x2="97.6" y2="109.40" stroke="#ddd" stroke-dasharray="3,2"></line><line x1="215.8" y1="535.30" x2="215.8" y2="109.40" stroke="#ddd" stroke-dasharray="3,2"></line><line x1="334.1" y1="535.30" x2="334.1" y2="109.40" stroke="#ddd" stroke-dasharray="3,2"></line><line x1="452.4" y1="535.30" x2="452.4" y2="109.40" stroke="#ddd" stroke-dasharray="3,2"></line><line x1="570.6" y1="535.30" x2="570.6" y2="109.40" stroke="#ddd" stroke-dasharray="3,2"></line><line x1="688.9" y1="535.30" x2="688.9" y2="109.40" stroke="#ddd" stroke-dasharray="3,2"></line></g></g><g clip-path="url(#boundsClip-903)"><g class="HeightedLegend clickable"><g class="legendMark"><rect x="693.856" y="98.45" width="140.42400000000004" height="29.900000000000002" fill="#fff" opacity="0"></rect><rect x="693.856" y="112.15" width="10" height="2.5" fill="#ffd53e"></rect><text font-size="14.40" x="708.9" y="110.0" fill="#333"><tspan x="708.856" y="109.97000000000001">Europe and Central</tspan><tspan x="708.856" y="125.81000000000002">Asia</tspan></text></g><g class="legendMark"><rect x="693.856" y="128.35" width="131.496" height="29.900000000000002" fill="#fff" opacity="0"></rect><rect x="693.856" y="142.04999999999998" width="10" height="2.5" fill="#ed6c2d"></rect><text font-size="14.40" x="708.9" y="139.9" fill="#333"><tspan x="708.856" y="139.87">Latin America and</tspan><tspan x="708.856" y="155.71">the Caribbean</tspan></text></g><g class="legendMark"><rect x="693.856" y="158.25" width="104.28000000000002" height="29.900000000000002" fill="#fff" opacity="0"></rect><rect x="693.856" y="171.95" width="10" height="2.5" fill="#818282"></rect><text font-size="14.40" x="708.9" y="169.8" fill="#333"><tspan x="708.856" y="169.77">East Asia and</tspan><tspan x="708.856" y="185.61">Pacific</tspan></text></g><g class="legendMark"><rect x="693.856" y="188.15" width="118.68" height="29.900000000000002" fill="#fff" opacity="0"></rect><rect x="693.856" y="201.85" width="10" height="2.5" fill="#34983f"></rect><text font-size="14.40" x="708.9" y="199.7" fill="#333"><tspan x="708.856" y="199.67000000000002">Middle East and</tspan><tspan x="708.856" y="215.51000000000002">North Africa</tspan></text></g><g class="legendMark"><rect x="693.856" y="252.5" width="84.98400000000001" height="14.4" fill="#fff" opacity="0"></rect><rect x="693.856" y="258.45" width="10" height="2.5" fill="#ca2628"></rect><text font-size="14.40" x="708.9" y="264.0" fill="#333"><tspan x="708.856" y="264.02">South Asia</tspan></text></g><g class="legendMark"><rect x="693.856" y="421.8" width="141.144" height="14.4" fill="#fff" opacity="0"></rect><rect x="693.856" y="427.75" width="10" height="2.5" fill="#3360a9"></rect><text font-size="14.40" x="708.9" y="433.3" fill="#333"><tspan x="708.856" y="433.32">Sub-Saharan Africa</tspan></text></g></g><g class="Areas"><rect x="97.598" y="109.4" width="591.258" height="425.9000000000001" opacity="0" fill="rgba(255,255,255,0)"></rect><path stroke-linecap="round" d="M97.6 535.1L393.2 494.8L452.4 474.1L511.5 443.9L570.6 403.4L629.7 355.9L688.9 322.7L688.856 535.3000000000001L97.598 535.3000000000001" fill="#3360a9" fill-opacity="0.7" class="Sub__002dSaharan-Africa_0-area"></path><path stroke-linecap="round" d="M97.6 535.1L393.2 489.8L452.4 459.5L511.5 411.6L570.6 351.8L629.7 262.3L688.9 196.8L688.9 322.7L629.7 355.9L570.6 403.4L511.5 443.9L452.4 474.1L393.2 494.8L97.6 535.1" fill="#ca2628" fill-opacity="0.7" class="South-Asia_0-area"></path><path stroke-linecap="round" d="M97.6 535.1L393.2 487.7L452.4 433.5L511.5 384.2L570.6 322.7L629.7 231.4L688.9 163L688.9 196.8L629.7 262.3L570.6 351.8L511.5 411.6L452.4 459.5L393.2 489.8L97.6 535.1" fill="#34983f" fill-opacity="0.7" class="Middle-East-and-North-Africa_0-area"></path><path stroke-linecap="round" d="M97.6 535.1L393.2 474.6L452.4 417.6L511.5 371.6L570.6 307.1L629.7 210.5L688.9 135L688.9 163L629.7 231.4L570.6 322.7L511.5 384.2L452.4 433.5L393.2 487.7L97.6 535.1" fill="#818282" fill-opacity="0.7" class="East-Asia-and-Pacific_0-area"></path><path stroke-linecap="round" d="M97.6 535.1L393.2 473.1L452.4 414.2L511.5 364.1L570.6 296.8L629.7 197.5L688.9 117.4L688.9 135L629.7 210.5L570.6 307.1L511.5 371.6L452.4 417.6L393.2 474.6L97.6 535.1" fill="#ed6c2d" fill-opacity="0.7" class="Latin-America-and-the-Caribbean_0-area"></path><path stroke-linecap="round" d="M97.6 535.1L393.2 468.7L452.4 408.7L511.5 357.8L570.6 289.8L629.7 189.5L688.9 109.4L688.9 117.4L629.7 197.5L570.6 296.8L511.5 364.1L452.4 414.2L393.2 473.1L97.6 535.1" fill="#ffd53e" fill-opacity="0.7" class="Europe-and-Central-Asia_0-area"></path><path stroke-linecap="round" d="M97.6 535.1L393.2 494.8L452.4 474.1L511.5 443.9L570.6 403.4L629.7 355.9L688.9 322.7" stroke="rgb(43, 80, 141)" stroke-opacity="0.7" stroke-width="0.5" fill="none" class="Sub__002dSaharan-Africa_0-border"></path><path stroke-linecap="round" d="M97.6 535.1L393.2 489.8L452.4 459.5L511.5 411.6L570.6 351.8L629.7 262.3L688.9 196.8" stroke="rgb(169, 32, 33)" stroke-opacity="0.7" stroke-width="0.5" fill="none" class="South-Asia_0-border"></path><path stroke-linecap="round" d="M97.6 535.1L393.2 487.7L452.4 433.5L511.5 384.2L570.6 322.7L629.7 231.4L688.9 163" stroke="rgb(44, 127, 53)" stroke-opacity="0.7" stroke-width="0.5" fill="none" class="Middle-East-and-North-Africa_0-border"></path><path stroke-linecap="round" d="M97.6 535.1L393.2 474.6L452.4 417.6L511.5 371.6L570.6 307.1L629.7 210.5L688.9 135" stroke="rgb(108, 109, 109)" stroke-opacity="0.7" stroke-width="0.5" fill="none" class="East-Asia-and-Pacific_0-border"></path><path stroke-linecap="round" d="M97.6 535.1L393.2 473.1L452.4 414.2L511.5 364.1L570.6 296.8L629.7 197.5L688.9 117.4" stroke="rgb(198, 90, 38)" stroke-opacity="0.7" stroke-width="0.5" fill="none" class="Latin-America-and-the-Caribbean_0-border"></path><path stroke-linecap="round" d="M97.6 535.1L393.2 468.7L452.4 408.7L511.5 357.8L570.6 289.8L629.7 189.5L688.9 109.4" stroke="rgb(213, 178, 52)" stroke-opacity="0.7" stroke-width="0.5" fill="none" class="Europe-and-Central-Asia_0-border"></path></g></g></g><g style="fill: #777;" class="SourcesFooter"><g style="fill: #777;" class="clickable"><text font-size="12.60" x="15.0" y="581.6"><tspan x="15" y="581.58">Source: GSMA (2017). Global Mobile Money Database.</tspan></text></g><text font-size="12.60" x="527.9" y="581.6"><tspan x="527.938" y="581.58"><a target='_blank' style='fill: #777;' href='https://ourworldindata.org/technology-adoption/'>OurWorldInData.org/technology-adoption/</a> • <a style="fill: #777;" href="http://creativecommons.org/licenses/by-sa/4.0/deed.en_US" target="_blank">CC BY-SA</a></tspan></text></g></g></svg>