<svg xmlns="http://www.w3.org/2000/svg" version="1.1" style="font-family: 'Helvetica Neue', Helvetica, Arial, sans-serif; font-size: 18px; background-color: white; text-rendering: optimizeLegibility; -webkit-font-smoothing: antialiased;" width="850" height="600"><g class="ChartTab"><g class="HeaderView"><g opacity="0.8" transform="translate(770, 15) scale(0.31)"><a xmlns:xlink="http://www.w3.org/1999/xlink" xlink:href="https://ourworldindata.org" target="_blank"><g><rect x="0" y="0" fill="#1B2543" width="211.2" height="130.1"/><rect x="0" y="112.2" fill="#E63912" width="211.2" height="17.9"/><g><rect x="1.2" y="12.3" fill="none" width="210.2" height="99.2"/><path fill="#FFFFFF" d="M37.8,32.2c0,12.7-7.7,19.4-17.1,19.4c-9.7,0-16.6-7.5-16.6-18.7c0-11.7,7.3-19.3,17.1-19.3 C31.3,13.7,37.8,21.3,37.8,32.2z M9.2,32.8c0,7.9,4.3,14.9,11.8,14.9c7.5,0,11.8-6.9,11.8-15.3c0-7.3-3.8-14.9-11.8-14.9 C13.1,17.5,9.2,24.8,9.2,32.8z"/><path fill="#FFFFFF" d="M62.7,43.8c0,2.7,0.1,5.1,0.2,7.2h-4.3l-0.3-4.3h-0.1c-1.3,2.1-4,4.9-8.8,4.9c-4.2,0-9.1-2.3-9.1-11.6 V24.6h4.8v14.6c0,5,1.5,8.4,5.9,8.4c3.2,0,5.5-2.2,6.3-4.4c0.3-0.7,0.4-1.6,0.4-2.5V24.6h4.8V43.8z"/><path fill="#FFFFFF" d="M67.3,32.8c0-3.1-0.1-5.8-0.2-8.2h4.2l0.2,5.2h0.2c1.2-3.5,4.1-5.8,7.3-5.8c0.5,0,0.9,0.1,1.4,0.2v4.5 c-0.5-0.1-1-0.2-1.6-0.2c-3.4,0-5.8,2.6-6.5,6.2c-0.1,0.7-0.2,1.4-0.2,2.2V51h-4.8V32.8z"/><path fill="#FFFFFF" d="M95.4,51l-9.4-36.8h5l4.4,18.6c1.1,4.6,2.1,9.2,2.7,12.7h0.1c0.6-3.7,1.8-8,3-12.8l4.9-18.5h5l4.5,18.7 c1,4.4,2,8.7,2.6,12.6h0.1c0.8-4,1.8-8.1,3-12.7l4.9-18.5h4.9L120.6,51h-5L111,31.9c-1.1-4.7-1.9-8.3-2.4-12h-0.1 c-0.7,3.7-1.5,7.3-2.8,12L100.4,51H95.4z"/><path fill="#FFFFFF" d="M154.9,37.6c0,9.8-6.8,14-13.2,14c-7.2,0-12.7-5.2-12.7-13.6c0-8.8,5.8-14,13.1-14 C149.8,24,154.9,29.5,154.9,37.6z M133.9,37.9c0,5.8,3.3,10.1,8,10.1c4.6,0,8-4.3,8-10.3c0-4.5-2.2-10.1-7.9-10.1 C136.3,27.6,133.9,32.8,133.9,37.9z"/><path fill="#FFFFFF" d="M158.2,32.8c0-3.1-0.1-5.8-0.2-8.2h4.2l0.2,5.2h0.2c1.2-3.5,4.1-5.8,7.3-5.8c0.5,0,0.9,0.1,1.4,0.2v4.5 c-0.5-0.1-1-0.2-1.6-0.2c-3.4,0-5.8,2.6-6.5,6.2c-0.1,0.7-0.2,1.4-0.2,2.2V51h-4.8V32.8z"/><path fill="#FFFFFF" d="M173.5,12.3h4.8V51h-4.8V12.3z"/><path fill="#FFFFFF" d="M206.5,12.3v31.9c0,2.3,0.1,5,0.2,6.8h-4.3l-0.2-4.6H202c-1.5,2.9-4.7,5.2-9,5.2 c-6.4,0-11.3-5.4-11.3-13.4c-0.1-8.8,5.4-14.2,11.9-14.2c4,0,6.8,1.9,8,4h0.1V12.3H206.5z M201.7,35.4c0-0.6-0.1-1.4-0.2-2 c-0.7-3.1-3.3-5.6-6.9-5.6c-5,0-7.9,4.4-7.9,10.2c0,5.3,2.6,9.8,7.8,9.8c3.2,0,6.2-2.1,7.1-5.7c0.2-0.7,0.2-1.3,0.2-2.1V35.4z"/><path fill="#FFFFFF" d="M42.8,64c0.1,1.6-1.1,2.9-3.1,2.9c-1.7,0-2.9-1.3-2.9-2.9c0-1.7,1.3-3,3-3C41.7,61,42.8,62.3,42.8,64z M37.4,97.8V71.4h4.8v26.4H37.4z"/><path fill="#FFFFFF" d="M47.5,78.6c0-2.7-0.1-5-0.2-7.1h4.3l0.3,4.4h0.1c1.3-2.5,4.4-5,8.8-5c3.7,0,9.4,2.2,9.4,11.2v15.8h-4.8 V82.6c0-4.3-1.6-7.8-6.1-7.8c-3.2,0-5.6,2.2-6.5,4.9c-0.2,0.6-0.3,1.4-0.3,2.2v15.9h-4.8V78.6z"/><path fill="#FFFFFF" d="M84,61.6c2.9-0.4,6.3-0.8,10.1-0.8c6.8,0,11.7,1.6,14.9,4.6c3.3,3,5.2,7.3,5.2,13.2c0,6-1.9,10.9-5.3,14.3 c-3.4,3.4-9.1,5.3-16.3,5.3c-3.4,0-6.2-0.2-8.6-0.4V61.6z M88.8,94.1c1.2,0.2,3,0.3,4.8,0.3c10.2,0,15.7-5.7,15.7-15.6 c0.1-8.7-4.9-14.2-14.9-14.2c-2.5,0-4.3,0.2-5.6,0.5V94.1z"/><path fill="#FFFFFF" d="M132.1,97.8l-0.4-3.3h-0.2c-1.5,2.1-4.3,3.9-8.1,3.9c-5.4,0-8.1-3.8-8.1-7.6c0-6.4,5.7-9.9,15.9-9.8v-0.5 c0-2.2-0.6-6.1-6-6.1c-2.5,0-5,0.8-6.9,2l-1.1-3.2c2.2-1.4,5.4-2.3,8.7-2.3c8.1,0,10.1,5.5,10.1,10.8v9.9c0,2.3,0.1,4.5,0.4,6.3 H132.1z M131.4,84.4c-5.3-0.1-11.2,0.8-11.2,5.9c0,3.1,2.1,4.6,4.5,4.6c3.4,0,5.6-2.2,6.4-4.4c0.2-0.5,0.3-1,0.3-1.5V84.4z"/><path fill="#FFFFFF" d="M146.6,63.9v7.6h6.9v3.7h-6.9v14.2c0,3.3,0.9,5.1,3.6,5.1c1.3,0,2.2-0.2,2.8-0.3l0.2,3.6 c-0.9,0.4-2.4,0.7-4.3,0.7c-2.2,0-4-0.7-5.2-2c-1.4-1.4-1.9-3.8-1.9-6.9V75.1h-4.1v-3.7h4.1v-6.3L146.6,63.9z"/><path fill="#FFFFFF" d="M171.4,97.8l-0.4-3.3h-0.2c-1.5,2.1-4.3,3.9-8.1,3.9c-5.4,0-8.1-3.8-8.1-7.6c0-6.4,5.7-9.9,15.9-9.8v-0.5 c0-2.2-0.6-6.1-6-6.1c-2.5,0-5,0.8-6.9,2l-1.1-3.2c2.2-1.4,5.4-2.3,8.7-2.3c8.1,0,10.1,5.5,10.1,10.8v9.9c0,2.3,0.1,4.5,0.4,6.3 H171.4z M170.7,84.4c-5.3-0.1-11.2,0.8-11.2,5.9c0,3.1,2.1,4.6,4.5,4.6c3.4,0,5.6-2.2,6.4-4.4c0.2-0.5,0.3-1,0.3-1.5V84.4z"/></g></g></a></g><a href="https://ourworldindata.org/grapher/resource-and-socioeconomic-change-per-capita" target="_blank"><text font-size="27.00" x="15.0" y="36.6" fill="#555"><tspan x="15" y="36.6">Resource and socioeconomic change per capita, China</tspan></text></a><text font-size="14.40" x="15.0" y="55.5" fill="#666"><tspan x="15" y="55.519999999999996">Change across various socioeconomic and environmental parameters over the past 50 years, measured in average</tspan><tspan x="15" y="71.36">per capita terms as an index relative to the year 1965 (i.e. values in 1965 =100).</tspan></text></g><g class="LineChart"><defs><clipPath id="boundsClip-929"><rect x="50.824" y="0" width="830" height="925.2"></rect></clipPath></defs><g class="AxisBoxView"><g class="HorizontalAxis"><text x="60.8" y="556.5" fill="#666" text-anchor="middle" font-size="16.2">1965</text><text x="121.6" y="556.5" fill="#666" text-anchor="middle" font-size="16.2">1970</text><text x="243.2" y="556.5" fill="#666" text-anchor="middle" font-size="16.2">1980</text><text x="364.9" y="556.5" fill="#666" text-anchor="middle" font-size="16.2">1990</text><text x="486.5" y="556.5" fill="#666" text-anchor="middle" font-size="16.2">2000</text><text x="608.1" y="556.5" fill="#666" text-anchor="middle" font-size="16.2">2010</text><text x="668.9" y="556.5" fill="#666" text-anchor="middle" font-size="16.2">2015</text></g><g class="VerticalAxis"><text x="55.82" y="535.3" fill="#666" dominant-baseline="middle" text-anchor="end" font-size="16.2">0</text><text x="55.82" y="452" fill="#666" dominant-baseline="middle" text-anchor="end" font-size="16.2">500</text><text x="55.82" y="368.8" fill="#666" dominant-baseline="middle" text-anchor="end" font-size="16.2">1,000</text><text x="55.82" y="285.5" fill="#666" dominant-baseline="middle" text-anchor="end" font-size="16.2">1,500</text><text x="55.82" y="202.3" fill="#666" dominant-baseline="middle" text-anchor="end" font-size="16.2">2,000</text><text x="55.82" y="119" fill="#666" dominant-baseline="middle" text-anchor="end" font-size="16.2">2,500</text></g><g class="AxisGridLines"><line x1="60.82" y1="535.3" x2="668.88" y2="535.3" stroke="#ccc"></line><line x1="60.82" y1="452" x2="668.88" y2="452" stroke="#ddd" stroke-dasharray="3,2"></line><line x1="60.82" y1="368.8" x2="668.88" y2="368.8" stroke="#ddd" stroke-dasharray="3,2"></line><line x1="60.82" y1="285.5" x2="668.88" y2="285.5" stroke="#ddd" stroke-dasharray="3,2"></line><line x1="60.82" y1="202.3" x2="668.88" y2="202.3" stroke="#ddd" stroke-dasharray="3,2"></line><line x1="60.82" y1="119" x2="668.88" y2="119" stroke="#ddd" stroke-dasharray="3,2"></line></g><g class="AxisGridLines"><line x1="121.6" y1="535.30" x2="121.6" y2="93.90" stroke="#ddd" stroke-dasharray="3,2"></line><line x1="243.2" y1="535.30" x2="243.2" y2="93.90" stroke="#ddd" stroke-dasharray="3,2"></line><line x1="364.9" y1="535.30" x2="364.9" y2="93.90" stroke="#ddd" stroke-dasharray="3,2"></line><line x1="486.5" y1="535.30" x2="486.5" y2="93.90" stroke="#ddd" stroke-dasharray="3,2"></line><line x1="608.1" y1="535.30" x2="608.1" y2="93.90" stroke="#ddd" stroke-dasharray="3,2"></line></g></g><g clip-path="url(#boundsClip-929)"><g class="HeightedLegend clickable"><g class="legendMark"><rect x="678.88" y="519.0999999999999" width="73.608" height="14.4" fill="#fff" opacity="0"></rect><rect x="678.88" y="525.05" width="10" height="2.5" fill="#3360a9"></rect><text font-size="14.40" x="693.9" y="530.6" fill="#333"><tspan x="693.88" y="530.6199999999999">Cropland</tspan></text></g><g class="legendMark"><rect x="678.88" y="504.69999999999993" width="118.53600000000002" height="14.4" fill="#fff" opacity="0"></rect><rect x="678.88" y="510.6499999999999" width="10" height="2.5" fill="#ca2628"></rect><text font-size="14.40" x="693.9" y="516.2" fill="#333"><tspan x="693.88" y="516.2199999999999">Agricultural land</tspan></text></g><g class="legendMark"><rect x="678.88" y="490.29999999999995" width="105.57600000000001" height="14.4" fill="#fff" opacity="0"></rect><rect x="678.88" y="496.24999999999994" width="10" height="2.5" fill="#34983f"></rect><text font-size="14.40" x="693.9" y="501.8" fill="#333"><tspan x="693.88" y="501.81999999999994">Caloric supply</tspan></text></g><g class="legendMark"><rect x="678.88" y="467.3" width="100.82400000000001" height="14.4" fill="#fff" opacity="0"></rect><rect x="678.88" y="473.25" width="10" height="2.5" fill="#f6a324"></rect><text font-size="14.40" x="693.9" y="478.8" fill="#333"><tspan x="693.88" y="478.82">Fishery catch</tspan></text></g><g class="legendMark"><rect x="678.88" y="415.7" width="133.08" height="14.4" fill="#fff" opacity="0"></rect><rect x="678.88" y="421.65" width="10" height="2.5" fill="#a652ba"></rect><text font-size="14.40" x="693.9" y="427.2" fill="#333"><tspan x="693.88" y="427.21999999999997">Meat consumption</tspan></text></g><g class="legendMark"><rect x="678.88" y="384.1" width="130.632" height="14.4" fill="#fff" opacity="0"></rect><rect x="678.88" y="390.05" width="10" height="2.5" fill="#2a939b"></rect><text font-size="14.40" x="693.9" y="395.6" fill="#333"><tspan x="693.88" y="395.62">Coal consumption</tspan></text></g><g class="legendMark"><rect x="678.88" y="338.5" width="111.912" height="14.4" fill="#fff" opacity="0"></rect><rect x="678.88" y="344.45" width="10" height="2.5" fill="#e6332e"></rect><text font-size="14.40" x="693.9" y="350.0" fill="#333"><tspan x="693.88" y="350.02">CO₂ emissions</tspan></text></g><g class="legendMark"><rect x="678.88" y="324.1" width="140.13600000000002" height="14.4" fill="#fff" opacity="0"></rect><rect x="678.88" y="330.05" width="10" height="2.5" fill="#9ecc8a"></rect><text font-size="14.40" x="693.9" y="335.6" fill="#333"><tspan x="693.88" y="335.62">Primary energy use</tspan></text></g><g class="legendMark"><rect x="678.88" y="221.10000000000002" width="156.12" height="14.4" fill="#fff" opacity="0"></rect><rect x="678.88" y="227.05" width="10" height="2.5" fill="#ffd53e"></rect><text font-size="14.40" x="693.9" y="232.6" fill="#333"><tspan x="693.88" y="232.62000000000003">Fertilizer consumption</tspan></text></g><g class="legendMark"><rect x="678.88" y="133.3" width="46.248000000000005" height="14.4" fill="#fff" opacity="0"></rect><rect x="678.88" y="139.25" width="10" height="2.5" fill="#b077b1"></rect><text font-size="14.40" x="693.9" y="144.8" fill="#333"><tspan x="693.88" y="144.82000000000002">GDP</tspan></text></g><g class="legendMark"><rect x="678.88" y="86.7" width="118.53600000000002" height="14.4" fill="#fff" opacity="0"></rect><rect x="678.88" y="92.65" width="10" height="2.5" fill="#7ec7ce"></rect><text font-size="14.40" x="693.9" y="98.2" fill="#333"><tspan x="693.88" y="98.22000000000001">Oil consumption</tspan></text></g></g><g class="Lines"><rect x="61" y="94" width="608" height="441" fill="rgba(255,255,255,0)" opacity="0"></rect><g class="key-China_0"><path stroke="#e6332e" stroke-linecap="round" d="M61 512L73 517L85 521L97 520L110 517L122 511L134 509L146 508L158 508L170 508L182 504L195 503L207 500L219 497L231 497L243 497L255 498L268 496L280 495L292 491L304 488L316 486L328 484L341 482L353 482L365 482L377 480L389 478L401 474L414 472L426 466L438 464L450 465L462 468L474 469L487 468L499 467L511 459L523 447L535 434L547 422L559 410L572 402L584 394L596 384L608 371L620 353L632 349L645 346L657 346" fill="none" stroke-width="1.5"></path></g><g class="key-China_1"><path stroke="#a652ba" stroke-linecap="round" d="M73 518L85 517L97 518L110 518L122 519L134 517L146 516L158 516L170 516L182 516L195 516L207 516L219 515L231 511L243 509L255 508L268 507L280 506L292 504L304 501L316 499L328 497L341 494L353 492L365 490L377 487L389 483L401 479L414 475L426 471L438 470L450 466L462 461L474 458L487 453L499 454L511 452L523 449L535 449L547 446L559 443L572 440L584 436L596 433L608 430L620 430L632 425L645 423" fill="none" stroke-width="1.5"></path></g><g class="key-China_10"><path stroke="#7ec7ce" stroke-linecap="round" d="M61 514L73 515L85 515L97 514L110 508L122 498L134 485L146 479L158 469L170 460L182 454L195 444L207 440L219 432L231 433L243 440L255 446L268 448L280 448L292 446L304 443L316 439L328 435L341 430L353 427L365 430L377 423L389 415L401 404L414 403L426 393L438 381L450 368L462 365L474 355L487 344L499 341L511 326L523 303L535 265L547 262L559 244L572 231L584 227L596 216L608 173L620 162L632 147L645 132L657 118L669 94" fill="none" stroke-width="1.5"></path></g><g class="key-China_2"><path stroke="#9ecc8a" stroke-linecap="round" d="M61 509L73 518L85 520L97 520L110 517L122 513L134 509L146 508L158 507L170 507L182 504L195 503L207 501L219 498L231 497L243 497L255 498L268 497L280 495L292 493L304 490L316 489L328 486L341 483L353 482L365 482L377 480L389 478L401 474L414 471L426 470L438 467L450 467L462 467L474 465L487 463L499 460L511 453L523 440L535 425L547 411L559 399L572 388L584 383L596 378L608 368L620 355L632 349L645 343L657 340L669 338" fill="none" stroke-width="1.5"></path></g><g class="key-China_3"><path stroke="#ca2628" stroke-linecap="round" d="M73 519L85 519L97 520L110 520L122 520L134 520L146 520L158 520L170 521L182 521L195 521L207 521L219 521L231 521L243 521L255 521L268 521L280 521L292 520L304 520L316 520L328 521L341 521L353 521L365 521L377 521L389 521L401 521L414 521L426 521L438 521L450 521L462 521L474 521L487 522L499 522L511 522L523 522L535 522L547 522L559 522L572 522L584 522L596 523L608 523L620 523L632 523L645 523L657 523" fill="none" stroke-width="1.5"></path></g><g class="key-China_4"><path stroke="#3360a9" stroke-linecap="round" d="M73 519L85 520L97 520L110 521L122 521L134 522L146 522L158 522L170 523L182 523L195 523L207 523L219 524L231 524L243 524L255 524L268 524L280 523L292 523L304 522L316 522L328 523L341 523L353 523L365 523L377 523L389 523L401 524L414 524L426 524L438 524L450 524L462 524L474 524L487 525L499 525L511 525L523 525L535 525L547 525L559 526L572 526L584 526L596 526L608 526L620 526L632 526L645 526L657 526" fill="none" stroke-width="1.5"></path></g><g class="key-China_5"><path stroke="#b077b1" stroke-linecap="round" d="M73 518L85 519L97 519L110 518L122 517L134 517L146 516L158 516L170 516L182 515L195 515L207 514L219 512L231 511L243 510L255 509L268 507L280 506L292 502L304 499L316 497L328 494L341 492L353 492L365 491L377 487L389 481L401 475L414 467L426 461L438 454L450 448L462 442L474 435L487 428L499 420L511 410L523 398L535 385L547 369L559 349L572 323L584 304L596 284L608 258L620 233L632 211L645 188L657 164L669 141" fill="none" stroke-width="1.5"></path></g><g class="key-China_6"><path stroke="#f6a324" stroke-linecap="round" d="M73 519L85 520L97 519L110 520L122 521L134 520L146 519L158 519L170 518L182 517L195 517L207 517L219 518L231 520L243 520L255 521L268 519L280 519L292 518L304 517L316 514L328 512L341 511L353 510L365 508L377 506L389 502L401 498L414 493L426 487L438 481L450 480L462 477L474 479L487 480L499 482L511 483L523 482L535 482L547 482L559 482L572 482L584 482L596 482L608 481L620 480L632 479L645 478L657 476L669 475" fill="none" stroke-width="1.5"></path></g><g class="key-China_7"><path stroke="#34983f" stroke-linecap="round" d="M73 518L85 519L97 519L110 519L122 518L134 518L146 518L158 518L170 518L182 518L195 518L207 518L219 516L231 516L243 516L255 515L268 514L280 513L292 513L304 513L316 513L328 513L341 513L353 513L365 512L377 513L389 513L401 512L414 511L426 511L438 511L450 510L462 510L474 510L487 510L499 509L511 509L523 509L535 509L547 509L559 509L572 509L584 508L596 508L608 507L620 507L632 507L645 507" fill="none" stroke-width="1.5"></path></g><g class="key-China_8"><path stroke="#ffd53e" stroke-linecap="round" d="M61 519L73 513L85 520L97 525L110 520L122 515L134 511L146 507L158 501L170 504L182 497L195 498L207 485L219 476L231 465L243 455L255 455L268 453L280 448L292 444L304 454L316 453L328 439L341 436L353 435L365 432L377 429L389 427L401 432L414 426L426 406L438 399L450 401L462 394L474 390L487 395L499 389L511 363L523 343L535 333L547 339L559 326L572 302L584 286L596 277L608 268L620 255L632 251L645 247L657 228" fill="none" stroke-width="1.5"></path></g><g class="key-China_9"><path stroke="#2a939b" stroke-linecap="round" d="M61 516L73 518L85 520L97 521L110 518L122 514L134 512L146 511L158 511L170 512L182 509L195 509L207 507L219 505L231 504L243 503L255 504L268 502L280 501L292 498L304 495L316 494L328 492L341 489L353 488L365 488L377 486L389 485L401 482L414 479L426 479L438 477L450 478L462 479L474 478L487 478L499 475L511 469L523 457L535 445L547 430L559 420L572 411L584 409L596 404L608 400L620 389L632 388L645 386L657 387L669 391" fill="none" stroke-width="1.5"></path></g></g></g></g><g style="fill: #777;" class="SourcesFooter"><g style="fill: #777;" class="clickable"><text font-size="12.60" x="15.0" y="581.6"><tspan x="15" y="581.58">Source: Global Change Indexes per capita - OWID based on various sources</tspan></text></g><text font-size="12.60" x="649.0" y="581.6"><tspan x="649.024" y="581.58"><a target='_blank' style='fill: #777;' href='https://ourworldindata.org'>OurWorldInData.org</a> • <a style="fill: #777;" href="http://creativecommons.org/licenses/by-sa/4.0/deed.en_US" target="_blank">CC BY-SA</a></tspan></text></g></g></svg>