<svg xmlns="http://www.w3.org/2000/svg" version="1.1" style="font-family: 'Helvetica Neue', Helvetica, Arial, sans-serif; font-size: 24px; background-color: white;" width="1200" height="630"><g class="ChartTab"><g class="StackedArea"><defs><clipPath id="boundsClip-1335"><rect x="117.41600000000001" y="0" width="1170" height="1130"></rect></clipPath></defs><g class="AxisBoxView"><g class="HorizontalAxis"><text x="117.4" y="600" fill="#666" text-anchor="middle" font-size="21.6">1990</text><text x="293.3" y="600" fill="#666" text-anchor="middle" font-size="21.6">1995</text><text x="469.2" y="600" fill="#666" text-anchor="middle" font-size="21.6">2000</text><text x="645.1" y="600" fill="#666" text-anchor="middle" font-size="21.6">2005</text><text x="821" y="600" fill="#666" text-anchor="middle" font-size="21.6">2010</text><text x="1032.1" y="600" fill="#666" text-anchor="middle" font-size="21.6">2016</text></g><g class="VerticalAxis"><text x="112.42" y="573.4" fill="#666" dominant-baseline="middle" text-anchor="end" font-size="21.6">0</text><text x="112.42" y="495" fill="#666" dominant-baseline="middle" text-anchor="end" font-size="21.6">200,000</text><text x="112.42" y="416.5" fill="#666" dominant-baseline="middle" text-anchor="end" font-size="21.6">400,000</text><text x="112.42" y="338.1" fill="#666" dominant-baseline="middle" text-anchor="end" font-size="21.6">600,000</text><text x="112.42" y="259.6" fill="#666" dominant-baseline="middle" text-anchor="end" font-size="21.6">800,000</text><text x="112.42" y="181.2" fill="#666" dominant-baseline="middle" text-anchor="end" font-size="21.6">1 million</text><text x="112.42" y="102.8" fill="#666" dominant-baseline="middle" text-anchor="end" font-size="21.6">1.2 million</text></g><g class="AxisGridLines"><line x1="117.42" y1="573.4" x2="1032.14" y2="573.4" stroke="#ccc"></line><line x1="117.42" y1="495" x2="1032.14" y2="495" stroke="#ddd" stroke-dasharray="3,2"></line><line x1="117.42" y1="416.5" x2="1032.14" y2="416.5" stroke="#ddd" stroke-dasharray="3,2"></line><line x1="117.42" y1="338.1" x2="1032.14" y2="338.1" stroke="#ddd" stroke-dasharray="3,2"></line><line x1="117.42" y1="259.6" x2="1032.14" y2="259.6" stroke="#ddd" stroke-dasharray="3,2"></line><line x1="117.42" y1="181.2" x2="1032.14" y2="181.2" stroke="#ddd" stroke-dasharray="3,2"></line><line x1="117.42" y1="102.8" x2="1032.14" y2="102.8" stroke="#ddd" stroke-dasharray="3,2"></line></g><g class="AxisGridLines"><line x1="117.4" y1="573.40" x2="117.4" y2="35.00" stroke="#ddd" stroke-dasharray="3,2"></line><line x1="293.3" y1="573.40" x2="293.3" y2="35.00" stroke="#ddd" stroke-dasharray="3,2"></line><line x1="469.2" y1="573.40" x2="469.2" y2="35.00" stroke="#ddd" stroke-dasharray="3,2"></line><line x1="645.1" y1="573.40" x2="645.1" y2="35.00" stroke="#ddd" stroke-dasharray="3,2"></line><line x1="821" y1="573.40" x2="821" y2="35.00" stroke="#ddd" stroke-dasharray="3,2"></line><line x1="997" y1="573.40" x2="997" y2="35.00" stroke="#ddd" stroke-dasharray="3,2"></line></g></g><g clip-path="url(#boundsClip-1335)"><g class="HeightedLegend clickable"><g class="legendMark"><rect x="1037.136" y="66.6" width="131.16000000000003" height="19.200000000000003" fill="#fff" opacity="0"></rect><rect x="1037.136" y="74.94999999999999" width="10" height="2.5" fill="#34983f"></rect><text font-size="19.20" x="1052.1" y="82.0" fill="#333"><tspan x="1052.136" y="81.96">70+ years old</tspan></text></g><g class="legendMark"><rect x="1037.136" y="159.3" width="147.86400000000003" height="19.200000000000003" fill="#fff" opacity="0"></rect><rect x="1037.136" y="167.65" width="10" height="2.5" fill="#9ecc8a"></rect><text font-size="19.20" x="1052.1" y="174.7" fill="#333"><tspan x="1052.136" y="174.66">50-69 years old</tspan></text></g><g class="legendMark"><rect x="1037.136" y="373" width="147.86400000000003" height="19.200000000000003" fill="#fff" opacity="0"></rect><rect x="1037.136" y="381.35" width="10" height="2.5" fill="#ffd53e"></rect><text font-size="19.20" x="1052.1" y="388.4" fill="#333"><tspan x="1052.136" y="388.36">15-49 years old</tspan></text></g><g class="legendMark"><rect x="1037.136" y="535.3" width="137.11200000000002" height="19.200000000000003" fill="#fff" opacity="0"></rect><rect x="1037.136" y="543.65" width="10" height="2.5" fill="#ca2628"></rect><text font-size="19.20" x="1052.1" y="550.7" fill="#333"><tspan x="1052.136" y="550.66">5-14 years old</tspan></text></g><g class="legendMark"><rect x="1037.136" y="555.6" width="94.10400000000001" height="19.200000000000003" fill="#fff" opacity="0"></rect><rect x="1037.136" y="563.95" width="10" height="2.5" fill="#3360a9"></rect><text font-size="19.20" x="1052.1" y="571.0" fill="#333"><tspan x="1052.136" y="570.96">Under-5s</tspan></text></g></g><g class="Areas"><rect x="117.41600000000001" y="35" width="914.7199999999999" height="538.4" opacity="0" fill="rgba(255,255,255,0)"></rect><path stroke-linecap="round" d="M117.4 535.6L152.6 536.6L187.8 537.7L223 539L258.1 540.1L293.3 541.4L328.5 542.7L363.7 543.8L398.9 544.9L434 545.9L469.2 546.9L504.4 547.7L539.6 548.6L574.8 549.3L610 549.9L645.1 550.4L680.3 550.8L715.5 551.1L750.7 551.6L785.9 552L821 552.7L856.2 553.2L891.4 553.6L926.6 554.3L961.8 555L997 556L1032.1 557L1032.136 573.4L117.41600000000001 573.4" fill="#3360a9" fill-opacity="0.7" class="World_0-area"></path><path stroke-linecap="round" d="M117.4 494.2L152.6 495.9L187.8 497.2L223 498.5L258.1 499.6L293.3 500.1L328.5 500.8L363.7 502.1L398.9 504.5L434 506.6L469.2 508.5L504.4 510.4L539.6 512.6L574.8 514.7L610 516.4L645.1 518.4L680.3 520.2L715.5 521.3L750.7 522.5L785.9 522.9L821 523.9L856.2 525.4L891.4 526.5L926.6 527.5L961.8 528.8L997 530.7L1032.1 532.7L1032.1 557L997 556L961.8 555L926.6 554.3L891.4 553.6L856.2 553.2L821 552.7L785.9 552L750.7 551.6L715.5 551.1L680.3 550.8L645.1 550.4L610 549.9L574.8 549.3L539.6 548.6L504.4 547.7L469.2 546.9L434 545.9L398.9 544.9L363.7 543.8L328.5 542.7L293.3 541.4L258.1 540.1L223 539L187.8 537.7L152.6 536.6L117.4 535.6" fill="#ca2628" fill-opacity="0.7" class="World_1-area"></path><path stroke-linecap="round" d="M117.4 242L152.6 237.9L187.8 232.4L223 224.7L258.1 216.8L293.3 212.1L328.5 208.3L363.7 205.3L398.9 204.3L434 201.2L469.2 199.2L504.4 195.6L539.6 191.9L574.8 191.8L610 193.4L645.1 193.5L680.3 193.5L715.5 194.6L750.7 197.1L785.9 201L821 206L856.2 210.4L891.4 214.8L926.6 220.1L961.8 224.6L997 228.6L1032.1 232.5L1032.1 532.7L997 530.7L961.8 528.8L926.6 527.5L891.4 526.5L856.2 525.4L821 523.9L785.9 522.9L750.7 522.5L715.5 521.3L680.3 520.2L645.1 518.4L610 516.4L574.8 514.7L539.6 512.6L504.4 510.4L469.2 508.5L434 506.6L398.9 504.5L363.7 502.1L328.5 500.8L293.3 500.1L258.1 499.6L223 498.5L187.8 497.2L152.6 495.9L117.4 494.2" fill="#ffd53e" fill-opacity="0.7" class="World_4-area"></path><path stroke-linecap="round" d="M117.4 168.8L152.6 163.6L187.8 156.4L223 146.6L258.1 136.9L293.3 131.4L328.5 127.3L363.7 123.4L398.9 121.4L434 115.5L469.2 110.4L504.4 103.8L539.6 97L574.8 93.4L610 91.6L645.1 89.2L680.3 87.8L715.5 86.7L750.7 87.3L785.9 89.5L821 92.1L856.2 94.3L891.4 96.1L926.6 99.3L961.8 101L997 103.1L1032.1 105.4L1032.1 232.5L997 228.6L961.8 224.6L926.6 220.1L891.4 214.8L856.2 210.4L821 206L785.9 201L750.7 197.1L715.5 194.6L680.3 193.5L645.1 193.5L610 193.4L574.8 191.8L539.6 191.9L504.4 195.6L469.2 199.2L434 201.2L398.9 204.3L363.7 205.3L328.5 208.3L293.3 212.1L258.1 216.8L223 224.7L187.8 232.4L152.6 237.9L117.4 242" fill="#9ecc8a" fill-opacity="0.7" class="World_2-area"></path><path stroke-linecap="round" d="M117.4 135.3L152.6 129.4L187.8 121.1L223 110.1L258.1 99.2L293.3 92.6L328.5 87.6L363.7 82.5L398.9 79.3L434 71.8L469.2 65.2L504.4 57L539.6 48.4L574.8 44L610 41.6L645.1 38.5L680.3 36.8L715.5 35L750.7 35L785.9 36.6L821 38.4L856.2 40.2L891.4 41.4L926.6 44.1L961.8 45L997 46.2L1032.1 47L1032.1 105.4L997 103.1L961.8 101L926.6 99.3L891.4 96.1L856.2 94.3L821 92.1L785.9 89.5L750.7 87.3L715.5 86.7L680.3 87.8L645.1 89.2L610 91.6L574.8 93.4L539.6 97L504.4 103.8L469.2 110.4L434 115.5L398.9 121.4L363.7 123.4L328.5 127.3L293.3 131.4L258.1 136.9L223 146.6L187.8 156.4L152.6 163.6L117.4 168.8" fill="#34983f" fill-opacity="0.7" class="World_3-area"></path><path stroke-linecap="round" d="M117.4 535.6L152.6 536.6L187.8 537.7L223 539L258.1 540.1L293.3 541.4L328.5 542.7L363.7 543.8L398.9 544.9L434 545.9L469.2 546.9L504.4 547.7L539.6 548.6L574.8 549.3L610 549.9L645.1 550.4L680.3 550.8L715.5 551.1L750.7 551.6L785.9 552L821 552.7L856.2 553.2L891.4 553.6L926.6 554.3L961.8 555L997 556L1032.1 557" stroke="rgb(43, 80, 141)" stroke-opacity="0.7" stroke-width="0.5" fill="none" class="World_0-border"></path><path stroke-linecap="round" d="M117.4 494.2L152.6 495.9L187.8 497.2L223 498.5L258.1 499.6L293.3 500.1L328.5 500.8L363.7 502.1L398.9 504.5L434 506.6L469.2 508.5L504.4 510.4L539.6 512.6L574.8 514.7L610 516.4L645.1 518.4L680.3 520.2L715.5 521.3L750.7 522.5L785.9 522.9L821 523.9L856.2 525.4L891.4 526.5L926.6 527.5L961.8 528.8L997 530.7L1032.1 532.7" stroke="rgb(169, 32, 33)" stroke-opacity="0.7" stroke-width="0.5" fill="none" class="World_1-border"></path><path stroke-linecap="round" d="M117.4 242L152.6 237.9L187.8 232.4L223 224.7L258.1 216.8L293.3 212.1L328.5 208.3L363.7 205.3L398.9 204.3L434 201.2L469.2 199.2L504.4 195.6L539.6 191.9L574.8 191.8L610 193.4L645.1 193.5L680.3 193.5L715.5 194.6L750.7 197.1L785.9 201L821 206L856.2 210.4L891.4 214.8L926.6 220.1L961.8 224.6L997 228.6L1032.1 232.5" stroke="rgb(213, 178, 52)" stroke-opacity="0.7" stroke-width="0.5" fill="none" class="World_4-border"></path><path stroke-linecap="round" d="M117.4 168.8L152.6 163.6L187.8 156.4L223 146.6L258.1 136.9L293.3 131.4L328.5 127.3L363.7 123.4L398.9 121.4L434 115.5L469.2 110.4L504.4 103.8L539.6 97L574.8 93.4L610 91.6L645.1 89.2L680.3 87.8L715.5 86.7L750.7 87.3L785.9 89.5L821 92.1L856.2 94.3L891.4 96.1L926.6 99.3L961.8 101L997 103.1L1032.1 105.4" stroke="rgb(132, 171, 115)" stroke-opacity="0.7" stroke-width="0.5" fill="none" class="World_2-border"></path><path stroke-linecap="round" d="M117.4 135.3L152.6 129.4L187.8 121.1L223 110.1L258.1 99.2L293.3 92.6L328.5 87.6L363.7 82.5L398.9 79.3L434 71.8L469.2 65.2L504.4 57L539.6 48.4L574.8 44L610 41.6L645.1 38.5L680.3 36.8L715.5 35L750.7 35L785.9 36.6L821 38.4L856.2 40.2L891.4 41.4L926.6 44.1L961.8 45L997 46.2L1032.1 47" stroke="rgb(44, 127, 53)" stroke-opacity="0.7" stroke-width="0.5" fill="none" class="World_3-border"></path></g></g></g></g></svg>