<svg xmlns="http://www.w3.org/2000/svg" version="1.1" style="font-family: 'Helvetica Neue', Helvetica, Arial, sans-serif; font-size: 18px; background-color: white; text-rendering: optimizeLegibility; -webkit-font-smoothing: antialiased;" width="850" height="600"><g class="ChartTab"><g class="HeaderView"><g opacity="0.8" transform="translate(778, 15) scale(0.27)"><a xmlns:xlink="http://www.w3.org/1999/xlink" xlink:href="https://ourworldindata.org" target="_blank"><g><rect x="0" y="0" fill="#1B2543" width="211.2" height="130.1"/><rect x="0" y="112.2" fill="#E63912" width="211.2" height="17.9"/><g><rect x="1.2" y="12.3" fill="none" width="210.2" height="99.2"/><path fill="#FFFFFF" d="M37.8,32.2c0,12.7-7.7,19.4-17.1,19.4c-9.7,0-16.6-7.5-16.6-18.7c0-11.7,7.3-19.3,17.1-19.3 C31.3,13.7,37.8,21.3,37.8,32.2z M9.2,32.8c0,7.9,4.3,14.9,11.8,14.9c7.5,0,11.8-6.9,11.8-15.3c0-7.3-3.8-14.9-11.8-14.9 C13.1,17.5,9.2,24.8,9.2,32.8z"/><path fill="#FFFFFF" d="M62.7,43.8c0,2.7,0.1,5.1,0.2,7.2h-4.3l-0.3-4.3h-0.1c-1.3,2.1-4,4.9-8.8,4.9c-4.2,0-9.1-2.3-9.1-11.6 V24.6h4.8v14.6c0,5,1.5,8.4,5.9,8.4c3.2,0,5.5-2.2,6.3-4.4c0.3-0.7,0.4-1.6,0.4-2.5V24.6h4.8V43.8z"/><path fill="#FFFFFF" d="M67.3,32.8c0-3.1-0.1-5.8-0.2-8.2h4.2l0.2,5.2h0.2c1.2-3.5,4.1-5.8,7.3-5.8c0.5,0,0.9,0.1,1.4,0.2v4.5 c-0.5-0.1-1-0.2-1.6-0.2c-3.4,0-5.8,2.6-6.5,6.2c-0.1,0.7-0.2,1.4-0.2,2.2V51h-4.8V32.8z"/><path fill="#FFFFFF" d="M95.4,51l-9.4-36.8h5l4.4,18.6c1.1,4.6,2.1,9.2,2.7,12.7h0.1c0.6-3.7,1.8-8,3-12.8l4.9-18.5h5l4.5,18.7 c1,4.4,2,8.7,2.6,12.6h0.1c0.8-4,1.8-8.1,3-12.7l4.9-18.5h4.9L120.6,51h-5L111,31.9c-1.1-4.7-1.9-8.3-2.4-12h-0.1 c-0.7,3.7-1.5,7.3-2.8,12L100.4,51H95.4z"/><path fill="#FFFFFF" d="M154.9,37.6c0,9.8-6.8,14-13.2,14c-7.2,0-12.7-5.2-12.7-13.6c0-8.8,5.8-14,13.1-14 C149.8,24,154.9,29.5,154.9,37.6z M133.9,37.9c0,5.8,3.3,10.1,8,10.1c4.6,0,8-4.3,8-10.3c0-4.5-2.2-10.1-7.9-10.1 C136.3,27.6,133.9,32.8,133.9,37.9z"/><path fill="#FFFFFF" d="M158.2,32.8c0-3.1-0.1-5.8-0.2-8.2h4.2l0.2,5.2h0.2c1.2-3.5,4.1-5.8,7.3-5.8c0.5,0,0.9,0.1,1.4,0.2v4.5 c-0.5-0.1-1-0.2-1.6-0.2c-3.4,0-5.8,2.6-6.5,6.2c-0.1,0.7-0.2,1.4-0.2,2.2V51h-4.8V32.8z"/><path fill="#FFFFFF" d="M173.5,12.3h4.8V51h-4.8V12.3z"/><path fill="#FFFFFF" d="M206.5,12.3v31.9c0,2.3,0.1,5,0.2,6.8h-4.3l-0.2-4.6H202c-1.5,2.9-4.7,5.2-9,5.2 c-6.4,0-11.3-5.4-11.3-13.4c-0.1-8.8,5.4-14.2,11.9-14.2c4,0,6.8,1.9,8,4h0.1V12.3H206.5z M201.7,35.4c0-0.6-0.1-1.4-0.2-2 c-0.7-3.1-3.3-5.6-6.9-5.6c-5,0-7.9,4.4-7.9,10.2c0,5.3,2.6,9.8,7.8,9.8c3.2,0,6.2-2.1,7.1-5.7c0.2-0.7,0.2-1.3,0.2-2.1V35.4z"/><path fill="#FFFFFF" d="M42.8,64c0.1,1.6-1.1,2.9-3.1,2.9c-1.7,0-2.9-1.3-2.9-2.9c0-1.7,1.3-3,3-3C41.7,61,42.8,62.3,42.8,64z M37.4,97.8V71.4h4.8v26.4H37.4z"/><path fill="#FFFFFF" d="M47.5,78.6c0-2.7-0.1-5-0.2-7.1h4.3l0.3,4.4h0.1c1.3-2.5,4.4-5,8.8-5c3.7,0,9.4,2.2,9.4,11.2v15.8h-4.8 V82.6c0-4.3-1.6-7.8-6.1-7.8c-3.2,0-5.6,2.2-6.5,4.9c-0.2,0.6-0.3,1.4-0.3,2.2v15.9h-4.8V78.6z"/><path fill="#FFFFFF" d="M84,61.6c2.9-0.4,6.3-0.8,10.1-0.8c6.8,0,11.7,1.6,14.9,4.6c3.3,3,5.2,7.3,5.2,13.2c0,6-1.9,10.9-5.3,14.3 c-3.4,3.4-9.1,5.3-16.3,5.3c-3.4,0-6.2-0.2-8.6-0.4V61.6z M88.8,94.1c1.2,0.2,3,0.3,4.8,0.3c10.2,0,15.7-5.7,15.7-15.6 c0.1-8.7-4.9-14.2-14.9-14.2c-2.5,0-4.3,0.2-5.6,0.5V94.1z"/><path fill="#FFFFFF" d="M132.1,97.8l-0.4-3.3h-0.2c-1.5,2.1-4.3,3.9-8.1,3.9c-5.4,0-8.1-3.8-8.1-7.6c0-6.4,5.7-9.9,15.9-9.8v-0.5 c0-2.2-0.6-6.1-6-6.1c-2.5,0-5,0.8-6.9,2l-1.1-3.2c2.2-1.4,5.4-2.3,8.7-2.3c8.1,0,10.1,5.5,10.1,10.8v9.9c0,2.3,0.1,4.5,0.4,6.3 H132.1z M131.4,84.4c-5.3-0.1-11.2,0.8-11.2,5.9c0,3.1,2.1,4.6,4.5,4.6c3.4,0,5.6-2.2,6.4-4.4c0.2-0.5,0.3-1,0.3-1.5V84.4z"/><path fill="#FFFFFF" d="M146.6,63.9v7.6h6.9v3.7h-6.9v14.2c0,3.3,0.9,5.1,3.6,5.1c1.3,0,2.2-0.2,2.8-0.3l0.2,3.6 c-0.9,0.4-2.4,0.7-4.3,0.7c-2.2,0-4-0.7-5.2-2c-1.4-1.4-1.9-3.8-1.9-6.9V75.1h-4.1v-3.7h4.1v-6.3L146.6,63.9z"/><path fill="#FFFFFF" d="M171.4,97.8l-0.4-3.3h-0.2c-1.5,2.1-4.3,3.9-8.1,3.9c-5.4,0-8.1-3.8-8.1-7.6c0-6.4,5.7-9.9,15.9-9.8v-0.5 c0-2.2-0.6-6.1-6-6.1c-2.5,0-5,0.8-6.9,2l-1.1-3.2c2.2-1.4,5.4-2.3,8.7-2.3c8.1,0,10.1,5.5,10.1,10.8v9.9c0,2.3,0.1,4.5,0.4,6.3 H171.4z M170.7,84.4c-5.3-0.1-11.2,0.8-11.2,5.9c0,3.1,2.1,4.6,4.5,4.6c3.4,0,5.6-2.2,6.4-4.4c0.2-0.5,0.3-1,0.3-1.5V84.4z"/></g></g></a></g><a href="https://ourworldindata.org/grapher/road-traffic-deaths-sdgs" target="_blank"><text font-size="25.20" x="15.0" y="35.2" fill="#555"><tspan x="15" y="35.160000000000004">Road traffic deaths</tspan></text></a><text font-size="14.40" x="15.0" y="53.7" fill="#666"><tspan x="15" y="53.72">Total number of deaths from road traffic incidents, including vehicle drivers or passengers, motorcyclists, cyclists and</tspan><tspan x="15" y="69.56">pedestrians. SDG Target 3.6 is to halve the global number of deaths from road incidents by 2020 (from 2010 levels).</tspan></text></g><g class="LineChart"><defs><clipPath id="boundsClip-3"><rect x="83.062" y="0" width="830" height="928.8"></rect></clipPath></defs><g class="AxisBoxView"><g class="HorizontalAxis"><text x="93.1" y="556.5" fill="#666" text-anchor="middle" font-size="16.2">1990</text><text x="222.2" y="556.5" fill="#666" text-anchor="middle" font-size="16.2">1995</text><text x="351.4" y="556.5" fill="#666" text-anchor="middle" font-size="16.2">2000</text><text x="480.6" y="556.5" fill="#666" text-anchor="middle" font-size="16.2">2005</text><text x="609.8" y="556.5" fill="#666" text-anchor="middle" font-size="16.2">2010</text><text x="764.8" y="556.5" fill="#666" text-anchor="middle" font-size="16.2">2016</text></g><g class="VerticalAxis"><text x="88.06" y="535.3" fill="#666" dominant-baseline="middle" text-anchor="end" font-size="16.2">0</text><text x="88.06" y="470.7" fill="#666" dominant-baseline="middle" text-anchor="end" font-size="16.2">200,000</text><text x="88.06" y="406.2" fill="#666" dominant-baseline="middle" text-anchor="end" font-size="16.2">400,000</text><text x="88.06" y="341.6" fill="#666" dominant-baseline="middle" text-anchor="end" font-size="16.2">600,000</text><text x="88.06" y="277" fill="#666" dominant-baseline="middle" text-anchor="end" font-size="16.2">800,000</text><text x="88.06" y="212.5" fill="#666" dominant-baseline="middle" text-anchor="end" font-size="16.2">1 million</text><text x="88.06" y="147.9" fill="#666" dominant-baseline="middle" text-anchor="end" font-size="16.2">1.2 million</text></g><g class="AxisGridLines"><line x1="93.06" y1="535.3" x2="764.76" y2="535.3" stroke="#ccc"></line><line x1="93.06" y1="470.7" x2="764.76" y2="470.7" stroke="#ddd" stroke-dasharray="3,2"></line><line x1="93.06" y1="406.2" x2="764.76" y2="406.2" stroke="#ddd" stroke-dasharray="3,2"></line><line x1="93.06" y1="341.6" x2="764.76" y2="341.6" stroke="#ddd" stroke-dasharray="3,2"></line><line x1="93.06" y1="277" x2="764.76" y2="277" stroke="#ddd" stroke-dasharray="3,2"></line><line x1="93.06" y1="212.5" x2="764.76" y2="212.5" stroke="#ddd" stroke-dasharray="3,2"></line><line x1="93.06" y1="147.9" x2="764.76" y2="147.9" stroke="#ddd" stroke-dasharray="3,2"></line></g></g><g clip-path="url(#boundsClip-3)"><g class="ComparisonLine"><defs><clipPath id="axisBounds-4"><rect x="93.062" y="92.1" width="671.703" height="443.2"></rect></clipPath></defs><path d="M93.1,319.6L99.8,319.6L106.5,319.6L113.2,319.6L119.9,319.6L126.6,319.6L133.4,319.6L140.1,319.6L146.8,319.6L153.5,319.6L160.2,319.6L166.9,319.6L173.7,319.6L180.4,319.6L187.1,319.6L193.8,319.6L200.5,319.6L207.3,319.6L214,319.6L220.7,319.6L227.4,319.6L234.1,319.6L240.8,319.6L247.6,319.6L254.3,319.6L261,319.6L267.7,319.6L274.4,319.6L281.1,319.6L287.9,319.6L294.6,319.6L301.3,319.6L308,319.6L314.7,319.6L321.4,319.6L328.2,319.6L334.9,319.6L341.6,319.6L348.3,319.6L355,319.6L361.7,319.6L368.5,319.6L375.2,319.6L381.9,319.6L388.6,319.6L395.3,319.6L402,319.6L408.8,319.6L415.5,319.6L422.2,319.6L428.9,319.6L435.6,319.6L442.3,319.6L449.1,319.6L455.8,319.6L462.5,319.6L469.2,319.6L475.9,319.6L482.6,319.6L489.4,319.6L496.1,319.6L502.8,319.6L509.5,319.6L516.2,319.6L523,319.6L529.7,319.6L536.4,319.6L543.1,319.6L549.8,319.6L556.5,319.6L563.3,319.6L570,319.6L576.7,319.6L583.4,319.6L590.1,319.6L596.8,319.6L603.6,319.6L610.3,319.6L617,319.6L623.7,319.6L630.4,319.6L637.1,319.6L643.9,319.6L650.6,319.6L657.3,319.6L664,319.6L670.7,319.6L677.4,319.6L684.2,319.6L690.9,319.6L697.6,319.6L704.3,319.6L711,319.6L717.7,319.6L724.5,319.6L731.2,319.6L737.9,319.6L744.6,319.6L751.3,319.6L758,319.6" clip-path="url(#axisBounds-4)" fill="none" stroke="#ccc"></path><text x="240.42" y="316.6" fill="#999" transform="rotate(0,428.9,316.6)" clip-path="url(#axisBounds-4)">SDG Target 3.6 (halving global road deaths by 2020)</text></g><g class="HeightedLegend clickable"><g class="legendMark"><rect x="764.765" y="95.15" width="70.235" height="13.5" fill="#fff" opacity="0"></rect><text font-size="13.50" x="769.8" y="106.0" fill="#3360a9"><tspan x="769.765" y="105.95">World</tspan></text></g></g><g class="Lines"><rect x="93" y="92" width="672" height="443" fill="rgba(255,255,255,0)" opacity="0"></rect><g class="key-World_0"><path stroke="#3360a9" stroke-linecap="round" d="M93 175L119 170L145 163L171 154L196 145L222 140L248 135L274 131L300 129L326 122L351 117L377 110L403 103L429 100L455 98L481 95L506 94L532 92L558 92L584 93L610 95L636 96L661 97L687 100L713 100L739 101L765 102" fill="none" stroke-width="1.5"></path><g fill="#3360a9"><circle cx="93" cy="175" r="2"></circle><circle cx="119" cy="170" r="2"></circle><circle cx="145" cy="163" r="2"></circle><circle cx="171" cy="154" r="2"></circle><circle cx="196" cy="145" r="2"></circle><circle cx="222" cy="140" r="2"></circle><circle cx="248" cy="135" r="2"></circle><circle cx="274" cy="131" r="2"></circle><circle cx="300" cy="129" r="2"></circle><circle cx="326" cy="122" r="2"></circle><circle cx="351" cy="117" r="2"></circle><circle cx="377" cy="110" r="2"></circle><circle cx="403" cy="103" r="2"></circle><circle cx="429" cy="100" r="2"></circle><circle cx="455" cy="98" r="2"></circle><circle cx="481" cy="95" r="2"></circle><circle cx="506" cy="94" r="2"></circle><circle cx="532" cy="92" r="2"></circle><circle cx="558" cy="92" r="2"></circle><circle cx="584" cy="93" r="2"></circle><circle cx="610" cy="95" r="2"></circle><circle cx="636" cy="96" r="2"></circle><circle cx="661" cy="97" r="2"></circle><circle cx="687" cy="100" r="2"></circle><circle cx="713" cy="100" r="2"></circle><circle cx="739" cy="101" r="2"></circle><circle cx="765" cy="102" r="2"></circle></g></g></g></g></g><g style="fill: #777;" class="SourcesFooter"><g style="fill: #777;" class="clickable"><text font-size="12.60" x="15.0" y="581.6"><tspan x="15" y="581.58">Source: IHME, Global Burden of Disease</tspan></text></g><text font-size="12.60" x="649.0" y="581.6"><tspan x="649.024" y="581.58"><a target='_blank' style='fill: #777;' href='https://ourworldindata.org'>OurWorldInData.org</a> • <a style="fill: #777;" href="http://creativecommons.org/licenses/by-sa/4.0/deed.en_US" target="_blank">CC BY-SA</a></tspan></text></g></g></svg>