<svg xmlns="http://www.w3.org/2000/svg" version="1.1" style="font-family: 'Helvetica Neue', Helvetica, Arial, sans-serif; font-size: 24px; background-color: white;" width="1200" height="630"><g class="ChartTab"><g class="LineChart"><defs><clipPath id="boundsClip-1453"><rect x="53.416000000000004" y="0" width="1180" height="1130"></rect></clipPath></defs><g class="AxisBoxView"><g class="HorizontalAxis"><text x="63.4" y="600" fill="#666" text-anchor="middle" font-size="21.6">1955</text><text x="145.1" y="600" fill="#666" text-anchor="middle" font-size="21.6">1960</text><text x="308.6" y="600" fill="#666" text-anchor="middle" font-size="21.6">1970</text><text x="472.1" y="600" fill="#666" text-anchor="middle" font-size="21.6">1980</text><text x="635.6" y="600" fill="#666" text-anchor="middle" font-size="21.6">1990</text><text x="799" y="600" fill="#666" text-anchor="middle" font-size="21.6">2000</text><text x="962.5" y="600" fill="#666" text-anchor="middle" font-size="21.6">2010</text><text x="1044.2" y="600" fill="#666" text-anchor="middle" font-size="21.6">2015</text></g><g class="VerticalAxis"><text x="58.42" y="573.4" fill="#666" dominant-baseline="middle" text-anchor="end" font-size="21.6">0%</text><text x="58.42" y="509.2" fill="#666" dominant-baseline="middle" text-anchor="end" font-size="21.6">10%</text><text x="58.42" y="444.9" fill="#666" dominant-baseline="middle" text-anchor="end" font-size="21.6">20%</text><text x="58.42" y="380.7" fill="#666" dominant-baseline="middle" text-anchor="end" font-size="21.6">30%</text><text x="58.42" y="316.4" fill="#666" dominant-baseline="middle" text-anchor="end" font-size="21.6">40%</text><text x="58.42" y="252.2" fill="#666" dominant-baseline="middle" text-anchor="end" font-size="21.6">50%</text><text x="58.42" y="187.9" fill="#666" dominant-baseline="middle" text-anchor="end" font-size="21.6">60%</text><text x="58.42" y="123.7" fill="#666" dominant-baseline="middle" text-anchor="end" font-size="21.6">70%</text><text x="58.42" y="59.4" fill="#666" dominant-baseline="middle" text-anchor="end" font-size="21.6">80%</text></g><g class="AxisGridLines"><line x1="63.42" y1="573.4" x2="1044.22" y2="573.4" stroke="#ccc"></line><line x1="63.42" y1="509.2" x2="1044.22" y2="509.2" stroke="#ddd" stroke-dasharray="3,2"></line><line x1="63.42" y1="444.9" x2="1044.22" y2="444.9" stroke="#ddd" stroke-dasharray="3,2"></line><line x1="63.42" y1="380.7" x2="1044.22" y2="380.7" stroke="#ddd" stroke-dasharray="3,2"></line><line x1="63.42" y1="316.4" x2="1044.22" y2="316.4" stroke="#ddd" stroke-dasharray="3,2"></line><line x1="63.42" y1="252.2" x2="1044.22" y2="252.2" stroke="#ddd" stroke-dasharray="3,2"></line><line x1="63.42" y1="187.9" x2="1044.22" y2="187.9" stroke="#ddd" stroke-dasharray="3,2"></line><line x1="63.42" y1="123.7" x2="1044.22" y2="123.7" stroke="#ddd" stroke-dasharray="3,2"></line><line x1="63.42" y1="59.4" x2="1044.22" y2="59.4" stroke="#ddd" stroke-dasharray="3,2"></line></g><g class="AxisGridLines"><line x1="145.1" y1="573.40" x2="145.1" y2="35.00" stroke="#ddd" stroke-dasharray="3,2"></line><line x1="308.6" y1="573.40" x2="308.6" y2="35.00" stroke="#ddd" stroke-dasharray="3,2"></line><line x1="472.1" y1="573.40" x2="472.1" y2="35.00" stroke="#ddd" stroke-dasharray="3,2"></line><line x1="635.6" y1="573.40" x2="635.6" y2="35.00" stroke="#ddd" stroke-dasharray="3,2"></line><line x1="799" y1="573.40" x2="799" y2="35.00" stroke="#ddd" stroke-dasharray="3,2"></line><line x1="962.5" y1="573.40" x2="962.5" y2="35.00" stroke="#ddd" stroke-dasharray="3,2"></line></g></g><g clip-path="url(#boundsClip-1453)"><g class="HeightedLegend clickable"><g class="legendMark"><rect x="1054.224" y="26" width="130.776" height="19.200000000000003" fill="#fff" opacity="0"></rect><rect x="1054.224" y="34.35" width="10" height="2.5" fill="#b077b1"></rect><text font-size="19.20" x="1069.2" y="41.4" fill="#333"><tspan x="1069.224" y="41.36">United States</tspan></text></g><g class="legendMark"><rect x="1054.224" y="96.69999999999999" width="67.608" height="19.200000000000003" fill="#fff" opacity="0"></rect><rect x="1054.224" y="105.04999999999998" width="10" height="2.5" fill="#2a939b"></rect><text font-size="19.20" x="1069.2" y="112.1" fill="#333"><tspan x="1069.224" y="112.05999999999999">Japan</tspan></text></g><g class="legendMark"><rect x="1054.224" y="134" width="122.32800000000002" height="19.200000000000003" fill="#fff" opacity="0"></rect><rect x="1054.224" y="142.35" width="10" height="2.5" fill="#cfcd1e"></rect><text font-size="19.20" x="1069.2" y="149.4" fill="#333"><tspan x="1069.224" y="149.35999999999999">South Korea</tspan></text></g><g class="legendMark"><rect x="1054.224" y="174.5" width="90.84000000000002" height="19.200000000000003" fill="#fff" opacity="0"></rect><rect x="1054.224" y="182.85" width="10" height="2.5" fill="#5eb77e"></rect><text font-size="19.20" x="1069.2" y="189.9" fill="#333"><tspan x="1069.224" y="189.85999999999999">Malaysia</tspan></text></g><g class="legendMark"><rect x="1054.224" y="193.7" width="77.01600000000002" height="19.200000000000003" fill="#fff" opacity="0"></rect><rect x="1054.224" y="202.04999999999998" width="10" height="2.5" fill="#34983f"></rect><text font-size="19.20" x="1069.2" y="209.1" fill="#333"><tspan x="1069.224" y="209.05999999999997">Taiwan</tspan></text></g><g class="legendMark"><rect x="1054.224" y="300.4" width="88.92000000000002" height="19.200000000000003" fill="#fff" opacity="0"></rect><rect x="1054.224" y="308.75" width="10" height="2.5" fill="#5eb77e"></rect><text font-size="19.20" x="1069.2" y="315.8" fill="#333"><tspan x="1069.224" y="315.76">Thailand</tspan></text></g><g class="legendMark"><rect x="1054.224" y="331.2" width="69.72" height="19.200000000000003" fill="#fff" opacity="0"></rect><rect x="1054.224" y="339.55" width="10" height="2.5" fill="#ed6c2d"></rect><text font-size="19.20" x="1069.2" y="346.6" fill="#333"><tspan x="1069.224" y="346.56">Kenya</tspan></text></g><g class="legendMark"><rect x="1054.224" y="350.4" width="85.84800000000001" height="19.200000000000003" fill="#fff" opacity="0"></rect><rect x="1054.224" y="358.75" width="10" height="2.5" fill="#ed6c2d"></rect><text font-size="19.20" x="1069.2" y="365.8" fill="#333"><tspan x="1069.224" y="365.76">Senegal</tspan></text></g><g class="legendMark"><rect x="1054.224" y="398.7" width="74.71200000000002" height="19.200000000000003" fill="#fff" opacity="0"></rect><rect x="1054.224" y="407.05" width="10" height="2.5" fill="#e6332e"></rect><text font-size="19.20" x="1069.2" y="414.1" fill="#333"><tspan x="1069.224" y="414.06">Malawi</tspan></text></g><g class="legendMark"><rect x="1054.224" y="457.09999999999997" width="84.69600000000001" height="19.200000000000003" fill="#fff" opacity="0"></rect><rect x="1054.224" y="465.45" width="10" height="2.5" fill="#d26e66"></rect><text font-size="19.20" x="1069.2" y="472.5" fill="#333"><tspan x="1069.224" y="472.46">Ethiopia</tspan></text></g></g><g class="Lines"><rect x="63" y="35" width="981" height="538" fill="rgba(255,255,255,0)" opacity="0"></rect><g class="key-Taiwan_0"><path stroke="#34983f" stroke-linecap="round" d="M194 362L211 361L227 356L243 348L260 345L276 338L292 334L309 328L325 331L341 329L358 325L374 332L390 333L407 333L423 326L439 325L456 317L472 309L488 305L505 297L521 294L538 295L554 290L570 288L587 285L603 273L619 266L636 259L652 255L668 250L685 241L701 239L717 234L734 228L750 228L766 225L783 219L799 215L815 209L832 204L848 200L864 198L881 197L897 196L913 196L930 194L946 189L963 189L979 191L995 190" fill="none" stroke-width="1.5"></path><g fill="#34983f"><circle cx="194" cy="362" r="2"></circle><circle cx="211" cy="361" r="2"></circle><circle cx="227" cy="356" r="2"></circle><circle cx="243" cy="348" r="2"></circle><circle cx="260" cy="345" r="2"></circle><circle cx="276" cy="338" r="2"></circle><circle cx="292" cy="334" r="2"></circle><circle cx="309" cy="328" r="2"></circle><circle cx="325" cy="331" r="2"></circle><circle cx="341" cy="329" r="2"></circle><circle cx="358" cy="325" r="2"></circle><circle cx="374" cy="332" r="2"></circle><circle cx="390" cy="333" r="2"></circle><circle cx="407" cy="333" r="2"></circle><circle cx="423" cy="326" r="2"></circle><circle cx="439" cy="325" r="2"></circle><circle cx="456" cy="317" r="2"></circle><circle cx="472" cy="309" r="2"></circle><circle cx="488" cy="305" r="2"></circle><circle cx="505" cy="297" r="2"></circle><circle cx="521" cy="294" r="2"></circle><circle cx="538" cy="295" r="2"></circle><circle cx="554" cy="290" r="2"></circle><circle cx="570" cy="288" r="2"></circle><circle cx="587" cy="285" r="2"></circle><circle cx="603" cy="273" r="2"></circle><circle cx="619" cy="266" r="2"></circle><circle cx="636" cy="259" r="2"></circle><circle cx="652" cy="255" r="2"></circle><circle cx="668" cy="250" r="2"></circle><circle cx="685" cy="241" r="2"></circle><circle cx="701" cy="239" r="2"></circle><circle cx="717" cy="234" r="2"></circle><circle cx="734" cy="228" r="2"></circle><circle cx="750" cy="228" r="2"></circle><circle cx="766" cy="225" r="2"></circle><circle cx="783" cy="219" r="2"></circle><circle cx="799" cy="215" r="2"></circle><circle cx="815" cy="209" r="2"></circle><circle cx="832" cy="204" r="2"></circle><circle cx="848" cy="200" r="2"></circle><circle cx="864" cy="198" r="2"></circle><circle cx="881" cy="197" r="2"></circle><circle cx="897" cy="196" r="2"></circle><circle cx="913" cy="196" r="2"></circle><circle cx="930" cy="194" r="2"></circle><circle cx="946" cy="189" r="2"></circle><circle cx="963" cy="189" r="2"></circle><circle cx="979" cy="191" r="2"></circle><circle cx="995" cy="190" r="2"></circle></g></g><g class="key-Thailand_0"><path stroke="#5eb77e" stroke-linecap="round" d="M145 485L162 485L178 484L194 483L211 482L227 481L243 480L260 479L276 478L292 477L309 476L325 471L341 467L358 463L374 458L390 455L407 451L423 448L439 450L456 440L472 439L488 435L505 417L521 427L538 437L554 430L570 422L587 413L603 424L619 428L636 424L652 409L668 413L685 398L701 396L717 381L734 376L750 370L766 363L783 350L799 356L815 346L832 353L848 345L864 333L881 333L897 333L913 331L930 328L946 313L963 307L979 310" fill="none" stroke-width="1.5"></path><g fill="#5eb77e"><circle cx="145" cy="485" r="2"></circle><circle cx="162" cy="485" r="2"></circle><circle cx="178" cy="484" r="2"></circle><circle cx="194" cy="483" r="2"></circle><circle cx="211" cy="482" r="2"></circle><circle cx="227" cy="481" r="2"></circle><circle cx="243" cy="480" r="2"></circle><circle cx="260" cy="479" r="2"></circle><circle cx="276" cy="478" r="2"></circle><circle cx="292" cy="477" r="2"></circle><circle cx="309" cy="476" r="2"></circle><circle cx="325" cy="471" r="2"></circle><circle cx="341" cy="467" r="2"></circle><circle cx="358" cy="463" r="2"></circle><circle cx="374" cy="458" r="2"></circle><circle cx="390" cy="455" r="2"></circle><circle cx="407" cy="451" r="2"></circle><circle cx="423" cy="448" r="2"></circle><circle cx="439" cy="450" r="2"></circle><circle cx="456" cy="440" r="2"></circle><circle cx="472" cy="439" r="2"></circle><circle cx="488" cy="435" r="2"></circle><circle cx="505" cy="417" r="2"></circle><circle cx="521" cy="427" r="2"></circle><circle cx="538" cy="437" r="2"></circle><circle cx="554" cy="430" r="2"></circle><circle cx="570" cy="422" r="2"></circle><circle cx="587" cy="413" r="2"></circle><circle cx="603" cy="424" r="2"></circle><circle cx="619" cy="428" r="2"></circle><circle cx="636" cy="424" r="2"></circle><circle cx="652" cy="409" r="2"></circle><circle cx="668" cy="413" r="2"></circle><circle cx="685" cy="398" r="2"></circle><circle cx="701" cy="396" r="2"></circle><circle cx="717" cy="381" r="2"></circle><circle cx="734" cy="376" r="2"></circle><circle cx="750" cy="370" r="2"></circle><circle cx="766" cy="363" r="2"></circle><circle cx="783" cy="350" r="2"></circle><circle cx="799" cy="356" r="2"></circle><circle cx="815" cy="346" r="2"></circle><circle cx="832" cy="353" r="2"></circle><circle cx="848" cy="345" r="2"></circle><circle cx="864" cy="333" r="2"></circle><circle cx="881" cy="333" r="2"></circle><circle cx="897" cy="333" r="2"></circle><circle cx="913" cy="331" r="2"></circle><circle cx="930" cy="328" r="2"></circle><circle cx="946" cy="313" r="2"></circle><circle cx="963" cy="307" r="2"></circle><circle cx="979" cy="310" r="2"></circle></g></g><g class="key-South-Korea_0"><path stroke="#cfcd1e" stroke-linecap="round" d="M63 500L194 403L211 395L227 387L243 383L260 381L276 375L292 370L309 360L325 350L341 366L358 374L374 375L390 372L407 381L423 370L439 361L456 349L472 330L488 324L505 311L521 304L538 297L554 284L570 282L587 286L603 283L619 277L636 268L652 261L668 252L685 236L701 227L717 219L734 210L750 200L766 186L783 179L799 178L815 170L832 165L848 163L864 158L881 153L897 147L913 142L930 142L946 142L963 144" fill="none" stroke-width="1.5"></path><g fill="#cfcd1e"><circle cx="63" cy="500" r="2"></circle><circle cx="194" cy="403" r="2"></circle><circle cx="211" cy="395" r="2"></circle><circle cx="227" cy="387" r="2"></circle><circle cx="243" cy="383" r="2"></circle><circle cx="260" cy="381" r="2"></circle><circle cx="276" cy="375" r="2"></circle><circle cx="292" cy="370" r="2"></circle><circle cx="309" cy="360" r="2"></circle><circle cx="325" cy="350" r="2"></circle><circle cx="341" cy="366" r="2"></circle><circle cx="358" cy="374" r="2"></circle><circle cx="374" cy="375" r="2"></circle><circle cx="390" cy="372" r="2"></circle><circle cx="407" cy="381" r="2"></circle><circle cx="423" cy="370" r="2"></circle><circle cx="439" cy="361" r="2"></circle><circle cx="456" cy="349" r="2"></circle><circle cx="472" cy="330" r="2"></circle><circle cx="488" cy="324" r="2"></circle><circle cx="505" cy="311" r="2"></circle><circle cx="521" cy="304" r="2"></circle><circle cx="538" cy="297" r="2"></circle><circle cx="554" cy="284" r="2"></circle><circle cx="570" cy="282" r="2"></circle><circle cx="587" cy="286" r="2"></circle><circle cx="603" cy="283" r="2"></circle><circle cx="619" cy="277" r="2"></circle><circle cx="636" cy="268" r="2"></circle><circle cx="652" cy="261" r="2"></circle><circle cx="668" cy="252" r="2"></circle><circle cx="685" cy="236" r="2"></circle><circle cx="701" cy="227" r="2"></circle><circle cx="717" cy="219" r="2"></circle><circle cx="734" cy="210" r="2"></circle><circle cx="750" cy="200" r="2"></circle><circle cx="766" cy="186" r="2"></circle><circle cx="783" cy="179" r="2"></circle><circle cx="799" cy="178" r="2"></circle><circle cx="815" cy="170" r="2"></circle><circle cx="832" cy="165" r="2"></circle><circle cx="848" cy="163" r="2"></circle><circle cx="864" cy="158" r="2"></circle><circle cx="881" cy="153" r="2"></circle><circle cx="897" cy="147" r="2"></circle><circle cx="913" cy="142" r="2"></circle><circle cx="930" cy="142" r="2"></circle><circle cx="946" cy="142" r="2"></circle><circle cx="963" cy="144" r="2"></circle></g></g><g class="key-Japan_0"><path stroke="#2a939b" stroke-linecap="round" d="M63 336L80 331L96 328L113 322L129 316L145 314L162 311L178 306L194 296L211 289L227 282L243 275L260 274L276 270L292 266L309 261L325 253L341 248L358 246L374 241L390 232L407 228L423 223L439 221L456 216L472 214L488 210L505 205L521 202L538 200L554 200L570 197L587 193L603 194L619 196L636 194L652 193L668 191L685 185L701 181L717 176L734 172L750 169L766 162L783 158L799 154L815 148L832 142L848 138L864 133L881 130L897 129L913 128L930 122L946 115L963 111L979 108L995 106" fill="none" stroke-width="1.5"></path><g fill="#2a939b"><circle cx="63" cy="336" r="2"></circle><circle cx="80" cy="331" r="2"></circle><circle cx="96" cy="328" r="2"></circle><circle cx="113" cy="322" r="2"></circle><circle cx="129" cy="316" r="2"></circle><circle cx="145" cy="314" r="2"></circle><circle cx="162" cy="311" r="2"></circle><circle cx="178" cy="306" r="2"></circle><circle cx="194" cy="296" r="2"></circle><circle cx="211" cy="289" r="2"></circle><circle cx="227" cy="282" r="2"></circle><circle cx="243" cy="275" r="2"></circle><circle cx="260" cy="274" r="2"></circle><circle cx="276" cy="270" r="2"></circle><circle cx="292" cy="266" r="2"></circle><circle cx="309" cy="261" r="2"></circle><circle cx="325" cy="253" r="2"></circle><circle cx="341" cy="248" r="2"></circle><circle cx="358" cy="246" r="2"></circle><circle cx="374" cy="241" r="2"></circle><circle cx="390" cy="232" r="2"></circle><circle cx="407" cy="228" r="2"></circle><circle cx="423" cy="223" r="2"></circle><circle cx="439" cy="221" r="2"></circle><circle cx="456" cy="216" r="2"></circle><circle cx="472" cy="214" r="2"></circle><circle cx="488" cy="210" r="2"></circle><circle cx="505" cy="205" r="2"></circle><circle cx="521" cy="202" r="2"></circle><circle cx="538" cy="200" r="2"></circle><circle cx="554" cy="200" r="2"></circle><circle cx="570" cy="197" r="2"></circle><circle cx="587" cy="193" r="2"></circle><circle cx="603" cy="194" r="2"></circle><circle cx="619" cy="196" r="2"></circle><circle cx="636" cy="194" r="2"></circle><circle cx="652" cy="193" r="2"></circle><circle cx="668" cy="191" r="2"></circle><circle cx="685" cy="185" r="2"></circle><circle cx="701" cy="181" r="2"></circle><circle cx="717" cy="176" r="2"></circle><circle cx="734" cy="172" r="2"></circle><circle cx="750" cy="169" r="2"></circle><circle cx="766" cy="162" r="2"></circle><circle cx="783" cy="158" r="2"></circle><circle cx="799" cy="154" r="2"></circle><circle cx="815" cy="148" r="2"></circle><circle cx="832" cy="142" r="2"></circle><circle cx="848" cy="138" r="2"></circle><circle cx="864" cy="133" r="2"></circle><circle cx="881" cy="130" r="2"></circle><circle cx="897" cy="129" r="2"></circle><circle cx="913" cy="128" r="2"></circle><circle cx="930" cy="122" r="2"></circle><circle cx="946" cy="115" r="2"></circle><circle cx="963" cy="111" r="2"></circle><circle cx="979" cy="108" r="2"></circle><circle cx="995" cy="106" r="2"></circle></g></g><g class="key-Ethiopia_0"><path stroke="#d26e66" stroke-linecap="round" d="M162 558L178 557L194 555L211 554L227 552L243 550L260 548L276 544L292 542L309 539L325 537L341 534L358 532L374 530L390 528L407 527L423 525L439 526L456 522L472 517L488 516L505 514L521 512L538 512L554 515L570 516L587 516L603 516L619 517L636 519L652 523L668 523L685 515L701 512L717 510L734 505L750 505L766 507L783 505L799 501L815 503L832 505L848 505L864 505L881 501L897 496L913 489L930 481L946 475L963 470L979 467" fill="none" stroke-width="1.5"></path><g fill="#d26e66"><circle cx="162" cy="558" r="2"></circle><circle cx="178" cy="557" r="2"></circle><circle cx="194" cy="555" r="2"></circle><circle cx="211" cy="554" r="2"></circle><circle cx="227" cy="552" r="2"></circle><circle cx="243" cy="550" r="2"></circle><circle cx="260" cy="548" r="2"></circle><circle cx="276" cy="544" r="2"></circle><circle cx="292" cy="542" r="2"></circle><circle cx="309" cy="539" r="2"></circle><circle cx="325" cy="537" r="2"></circle><circle cx="341" cy="534" r="2"></circle><circle cx="358" cy="532" r="2"></circle><circle cx="374" cy="530" r="2"></circle><circle cx="390" cy="528" r="2"></circle><circle cx="407" cy="527" r="2"></circle><circle cx="423" cy="525" r="2"></circle><circle cx="439" cy="526" r="2"></circle><circle cx="456" cy="522" r="2"></circle><circle cx="472" cy="517" r="2"></circle><circle cx="488" cy="516" r="2"></circle><circle cx="505" cy="514" r="2"></circle><circle cx="521" cy="512" r="2"></circle><circle cx="538" cy="512" r="2"></circle><circle cx="554" cy="515" r="2"></circle><circle cx="570" cy="516" r="2"></circle><circle cx="587" cy="516" r="2"></circle><circle cx="603" cy="516" r="2"></circle><circle cx="619" cy="517" r="2"></circle><circle cx="636" cy="519" r="2"></circle><circle cx="652" cy="523" r="2"></circle><circle cx="668" cy="523" r="2"></circle><circle cx="685" cy="515" r="2"></circle><circle cx="701" cy="512" r="2"></circle><circle cx="717" cy="510" r="2"></circle><circle cx="734" cy="505" r="2"></circle><circle cx="750" cy="505" r="2"></circle><circle cx="766" cy="507" r="2"></circle><circle cx="783" cy="505" r="2"></circle><circle cx="799" cy="501" r="2"></circle><circle cx="815" cy="503" r="2"></circle><circle cx="832" cy="505" r="2"></circle><circle cx="848" cy="505" r="2"></circle><circle cx="864" cy="505" r="2"></circle><circle cx="881" cy="501" r="2"></circle><circle cx="897" cy="496" r="2"></circle><circle cx="913" cy="489" r="2"></circle><circle cx="930" cy="481" r="2"></circle><circle cx="946" cy="475" r="2"></circle><circle cx="963" cy="470" r="2"></circle><circle cx="979" cy="467" r="2"></circle></g></g><g class="key-Kenya_0"><path stroke="#ed6c2d" stroke-linecap="round" d="M292 478L309 482L325 478L341 480L358 482L374 471L390 472L407 470L423 469L439 471L456 467L472 462L488 462L505 460L521 455L538 453L554 448L570 446L587 443L603 442L619 436L636 432L652 429L668 425L685 421L701 412L717 401L734 392L750 385L766 381L783 376L799 374L815 372L832 370L848 369L864 364L881 364L897 362L913 358L930 354L946 349L963 345L979 341" fill="none" stroke-width="1.5"></path><g fill="#ed6c2d"><circle cx="292" cy="478" r="2"></circle><circle cx="309" cy="482" r="2"></circle><circle cx="325" cy="478" r="2"></circle><circle cx="341" cy="480" r="2"></circle><circle cx="358" cy="482" r="2"></circle><circle cx="374" cy="471" r="2"></circle><circle cx="390" cy="472" r="2"></circle><circle cx="407" cy="470" r="2"></circle><circle cx="423" cy="469" r="2"></circle><circle cx="439" cy="471" r="2"></circle><circle cx="456" cy="467" r="2"></circle><circle cx="472" cy="462" r="2"></circle><circle cx="488" cy="462" r="2"></circle><circle cx="505" cy="460" r="2"></circle><circle cx="521" cy="455" r="2"></circle><circle cx="538" cy="453" r="2"></circle><circle cx="554" cy="448" r="2"></circle><circle cx="570" cy="446" r="2"></circle><circle cx="587" cy="443" r="2"></circle><circle cx="603" cy="442" r="2"></circle><circle cx="619" cy="436" r="2"></circle><circle cx="636" cy="432" r="2"></circle><circle cx="652" cy="429" r="2"></circle><circle cx="668" cy="425" r="2"></circle><circle cx="685" cy="421" r="2"></circle><circle cx="701" cy="412" r="2"></circle><circle cx="717" cy="401" r="2"></circle><circle cx="734" cy="392" r="2"></circle><circle cx="750" cy="385" r="2"></circle><circle cx="766" cy="381" r="2"></circle><circle cx="783" cy="376" r="2"></circle><circle cx="799" cy="374" r="2"></circle><circle cx="815" cy="372" r="2"></circle><circle cx="832" cy="370" r="2"></circle><circle cx="848" cy="369" r="2"></circle><circle cx="864" cy="364" r="2"></circle><circle cx="881" cy="364" r="2"></circle><circle cx="897" cy="362" r="2"></circle><circle cx="913" cy="358" r="2"></circle><circle cx="930" cy="354" r="2"></circle><circle cx="946" cy="349" r="2"></circle><circle cx="963" cy="345" r="2"></circle><circle cx="979" cy="341" r="2"></circle></g></g><g class="key-Malawi_0"><path stroke="#e6332e" stroke-linecap="round" d="M243 510L260 514L276 518L292 518L309 522L325 517L341 523L358 519L374 516L390 518L407 518L423 522L439 521L456 523L472 527L488 529L505 530L521 528L538 525L554 521L570 519L587 519L603 518L619 517L636 514L652 509L668 507L685 507L701 505L717 502L734 500L750 492L766 493L783 491L799 490L815 485L832 480L848 480L864 464L881 453L897 457L913 445L930 428L946 418L963 408" fill="none" stroke-width="1.5"></path><g fill="#e6332e"><circle cx="243" cy="510" r="2"></circle><circle cx="260" cy="514" r="2"></circle><circle cx="276" cy="518" r="2"></circle><circle cx="292" cy="518" r="2"></circle><circle cx="309" cy="522" r="2"></circle><circle cx="325" cy="517" r="2"></circle><circle cx="341" cy="523" r="2"></circle><circle cx="358" cy="519" r="2"></circle><circle cx="374" cy="516" r="2"></circle><circle cx="390" cy="518" r="2"></circle><circle cx="407" cy="518" r="2"></circle><circle cx="423" cy="522" r="2"></circle><circle cx="439" cy="521" r="2"></circle><circle cx="456" cy="523" r="2"></circle><circle cx="472" cy="527" r="2"></circle><circle cx="488" cy="529" r="2"></circle><circle cx="505" cy="530" r="2"></circle><circle cx="521" cy="528" r="2"></circle><circle cx="538" cy="525" r="2"></circle><circle cx="554" cy="521" r="2"></circle><circle cx="570" cy="519" r="2"></circle><circle cx="587" cy="519" r="2"></circle><circle cx="603" cy="518" r="2"></circle><circle cx="619" cy="517" r="2"></circle><circle cx="636" cy="514" r="2"></circle><circle cx="652" cy="509" r="2"></circle><circle cx="668" cy="507" r="2"></circle><circle cx="685" cy="507" r="2"></circle><circle cx="701" cy="505" r="2"></circle><circle cx="717" cy="502" r="2"></circle><circle cx="734" cy="500" r="2"></circle><circle cx="750" cy="492" r="2"></circle><circle cx="766" cy="493" r="2"></circle><circle cx="783" cy="491" r="2"></circle><circle cx="799" cy="490" r="2"></circle><circle cx="815" cy="485" r="2"></circle><circle cx="832" cy="480" r="2"></circle><circle cx="848" cy="480" r="2"></circle><circle cx="864" cy="464" r="2"></circle><circle cx="881" cy="453" r="2"></circle><circle cx="897" cy="457" r="2"></circle><circle cx="913" cy="445" r="2"></circle><circle cx="930" cy="428" r="2"></circle><circle cx="946" cy="418" r="2"></circle><circle cx="963" cy="408" r="2"></circle></g></g><g class="key-Malaysia_0"><path stroke="#5eb77e" stroke-linecap="round" d="M390 327L407 320L423 323L439 322L456 319L472 290L488 280L505 270L521 264L538 263L554 260L570 254L587 255L603 256L619 255L636 248L652 250L668 251L685 250L701 250L717 251L734 252L750 252L766 249L783 246L799 250L815 240L832 229L848 226L864 214L881 213L897 214L913 204L930 202L946 189L963 194L979 184" fill="none" stroke-width="1.5"></path><g fill="#5eb77e"><circle cx="390" cy="327" r="2"></circle><circle cx="407" cy="320" r="2"></circle><circle cx="423" cy="323" r="2"></circle><circle cx="439" cy="322" r="2"></circle><circle cx="456" cy="319" r="2"></circle><circle cx="472" cy="290" r="2"></circle><circle cx="488" cy="280" r="2"></circle><circle cx="505" cy="270" r="2"></circle><circle cx="521" cy="264" r="2"></circle><circle cx="538" cy="263" r="2"></circle><circle cx="554" cy="260" r="2"></circle><circle cx="570" cy="254" r="2"></circle><circle cx="587" cy="255" r="2"></circle><circle cx="603" cy="256" r="2"></circle><circle cx="619" cy="255" r="2"></circle><circle cx="636" cy="248" r="2"></circle><circle cx="652" cy="250" r="2"></circle><circle cx="668" cy="251" r="2"></circle><circle cx="685" cy="250" r="2"></circle><circle cx="701" cy="250" r="2"></circle><circle cx="717" cy="251" r="2"></circle><circle cx="734" cy="252" r="2"></circle><circle cx="750" cy="252" r="2"></circle><circle cx="766" cy="249" r="2"></circle><circle cx="783" cy="246" r="2"></circle><circle cx="799" cy="250" r="2"></circle><circle cx="815" cy="240" r="2"></circle><circle cx="832" cy="229" r="2"></circle><circle cx="848" cy="226" r="2"></circle><circle cx="864" cy="214" r="2"></circle><circle cx="881" cy="213" r="2"></circle><circle cx="897" cy="214" r="2"></circle><circle cx="913" cy="204" r="2"></circle><circle cx="930" cy="202" r="2"></circle><circle cx="946" cy="189" r="2"></circle><circle cx="963" cy="194" r="2"></circle><circle cx="979" cy="184" r="2"></circle></g></g><g class="key-Senegal_0"><path stroke="#ed6c2d" stroke-linecap="round" d="M309 448L325 439L341 439L358 441L374 449L390 439L407 439L423 442L439 433L456 432L472 428L488 424L505 420L521 420L538 419L554 418L570 414L587 410L603 406L619 403L636 402L652 401L668 400L685 402L701 403L717 399L734 398L750 394L766 386L783 379L799 375L815 374L832 370L848 364L864 360L881 355L897 352L913 349L930 348L946 350L963 351" fill="none" stroke-width="1.5"></path><g fill="#ed6c2d"><circle cx="309" cy="448" r="2"></circle><circle cx="325" cy="439" r="2"></circle><circle cx="341" cy="439" r="2"></circle><circle cx="358" cy="441" r="2"></circle><circle cx="374" cy="449" r="2"></circle><circle cx="390" cy="439" r="2"></circle><circle cx="407" cy="439" r="2"></circle><circle cx="423" cy="442" r="2"></circle><circle cx="439" cy="433" r="2"></circle><circle cx="456" cy="432" r="2"></circle><circle cx="472" cy="428" r="2"></circle><circle cx="488" cy="424" r="2"></circle><circle cx="505" cy="420" r="2"></circle><circle cx="521" cy="420" r="2"></circle><circle cx="538" cy="419" r="2"></circle><circle cx="554" cy="418" r="2"></circle><circle cx="570" cy="414" r="2"></circle><circle cx="587" cy="410" r="2"></circle><circle cx="603" cy="406" r="2"></circle><circle cx="619" cy="403" r="2"></circle><circle cx="636" cy="402" r="2"></circle><circle cx="652" cy="401" r="2"></circle><circle cx="668" cy="400" r="2"></circle><circle cx="685" cy="402" r="2"></circle><circle cx="701" cy="403" r="2"></circle><circle cx="717" cy="399" r="2"></circle><circle cx="734" cy="398" r="2"></circle><circle cx="750" cy="394" r="2"></circle><circle cx="766" cy="386" r="2"></circle><circle cx="783" cy="379" r="2"></circle><circle cx="799" cy="375" r="2"></circle><circle cx="815" cy="374" r="2"></circle><circle cx="832" cy="370" r="2"></circle><circle cx="848" cy="364" r="2"></circle><circle cx="864" cy="360" r="2"></circle><circle cx="881" cy="355" r="2"></circle><circle cx="897" cy="352" r="2"></circle><circle cx="913" cy="349" r="2"></circle><circle cx="930" cy="348" r="2"></circle><circle cx="946" cy="350" r="2"></circle><circle cx="963" cy="351" r="2"></circle></g></g><g class="key-United-States_0"><path stroke="#b077b1" stroke-linecap="round" d="M63 202L80 198L96 194L113 183L129 185L145 180L162 176L178 176L194 173L211 170L227 171L243 169L260 164L276 162L292 160L309 153L325 147L341 149L358 151L374 147L390 135L407 137L423 137L439 137L456 137L472 131L488 129L505 119L521 115L538 116L554 112L570 107L587 104L603 103L619 99L636 95L652 90L668 87L685 86L701 86L717 85L734 83L750 83L766 81L783 79L799 77L815 63L832 58L848 55L864 55L881 54L897 54L913 51L930 47L946 38L963 36L979 36L995 35L1012 35L1028 35L1044 36" fill="none" stroke-width="1.5"></path><g fill="#b077b1"><circle cx="63" cy="202" r="2"></circle><circle cx="80" cy="198" r="2"></circle><circle cx="96" cy="194" r="2"></circle><circle cx="113" cy="183" r="2"></circle><circle cx="129" cy="185" r="2"></circle><circle cx="145" cy="180" r="2"></circle><circle cx="162" cy="176" r="2"></circle><circle cx="178" cy="176" r="2"></circle><circle cx="194" cy="173" r="2"></circle><circle cx="211" cy="170" r="2"></circle><circle cx="227" cy="171" r="2"></circle><circle cx="243" cy="169" r="2"></circle><circle cx="260" cy="164" r="2"></circle><circle cx="276" cy="162" r="2"></circle><circle cx="292" cy="160" r="2"></circle><circle cx="309" cy="153" r="2"></circle><circle cx="325" cy="147" r="2"></circle><circle cx="341" cy="149" r="2"></circle><circle cx="358" cy="151" r="2"></circle><circle cx="374" cy="147" r="2"></circle><circle cx="390" cy="135" r="2"></circle><circle cx="407" cy="137" r="2"></circle><circle cx="423" cy="137" r="2"></circle><circle cx="439" cy="137" r="2"></circle><circle cx="456" cy="137" r="2"></circle><circle cx="472" cy="131" r="2"></circle><circle cx="488" cy="129" r="2"></circle><circle cx="505" cy="119" r="2"></circle><circle cx="521" cy="115" r="2"></circle><circle cx="538" cy="116" r="2"></circle><circle cx="554" cy="112" r="2"></circle><circle cx="570" cy="107" r="2"></circle><circle cx="587" cy="104" r="2"></circle><circle cx="603" cy="103" r="2"></circle><circle cx="619" cy="99" r="2"></circle><circle cx="636" cy="95" r="2"></circle><circle cx="652" cy="90" r="2"></circle><circle cx="668" cy="87" r="2"></circle><circle cx="685" cy="86" r="2"></circle><circle cx="701" cy="86" r="2"></circle><circle cx="717" cy="85" r="2"></circle><circle cx="734" cy="83" r="2"></circle><circle cx="750" cy="83" r="2"></circle><circle cx="766" cy="81" r="2"></circle><circle cx="783" cy="79" r="2"></circle><circle cx="799" cy="77" r="2"></circle><circle cx="815" cy="63" r="2"></circle><circle cx="832" cy="58" r="2"></circle><circle cx="848" cy="55" r="2"></circle><circle cx="864" cy="55" r="2"></circle><circle cx="881" cy="54" r="2"></circle><circle cx="897" cy="54" r="2"></circle><circle cx="913" cy="51" r="2"></circle><circle cx="930" cy="47" r="2"></circle><circle cx="946" cy="38" r="2"></circle><circle cx="963" cy="36" r="2"></circle><circle cx="979" cy="36" r="2"></circle><circle cx="995" cy="35" r="2"></circle><circle cx="1012" cy="35" r="2"></circle><circle cx="1028" cy="35" r="2"></circle><circle cx="1044" cy="36" r="2"></circle></g></g></g></g></g></g></svg>