<svg xmlns="http://www.w3.org/2000/svg" version="1.1" style="font-family: 'Helvetica Neue', Helvetica, Arial, sans-serif; font-size: 24px; background-color: white;" width="1200" height="630"><g class="ChartTab"><g class="LineChart"><defs><clipPath id="boundsClip-1479"><rect x="53.416000000000004" y="0" width="1180" height="1130"></rect></clipPath></defs><g class="AxisBoxView"><g class="HorizontalAxis"><text x="63.4" y="600" fill="#666" text-anchor="middle" font-size="21.6">1960</text><text x="251.6" y="600" fill="#666" text-anchor="middle" font-size="21.6">1970</text><text x="439.7" y="600" fill="#666" text-anchor="middle" font-size="21.6">1980</text><text x="627.8" y="600" fill="#666" text-anchor="middle" font-size="21.6">1990</text><text x="816" y="600" fill="#666" text-anchor="middle" font-size="21.6">2000</text><text x="1022.9" y="600" fill="#666" text-anchor="middle" font-size="21.6">2011</text></g><g class="VerticalAxis"><text x="58.42" y="573.4" fill="#666" dominant-baseline="middle" text-anchor="end" font-size="21.6">0%</text><text x="58.42" y="460.1" fill="#666" dominant-baseline="middle" text-anchor="end" font-size="21.6">10%</text><text x="58.42" y="346.7" fill="#666" dominant-baseline="middle" text-anchor="end" font-size="21.6">20%</text><text x="58.42" y="233.4" fill="#666" dominant-baseline="middle" text-anchor="end" font-size="21.6">30%</text><text x="58.42" y="120" fill="#666" dominant-baseline="middle" text-anchor="end" font-size="21.6">40%</text></g><g class="AxisGridLines"><line x1="63.42" y1="573.4" x2="1022.91" y2="573.4" stroke="#ccc"></line><line x1="63.42" y1="460.1" x2="1022.91" y2="460.1" stroke="#ddd" stroke-dasharray="3,2"></line><line x1="63.42" y1="346.7" x2="1022.91" y2="346.7" stroke="#ddd" stroke-dasharray="3,2"></line><line x1="63.42" y1="233.4" x2="1022.91" y2="233.4" stroke="#ddd" stroke-dasharray="3,2"></line><line x1="63.42" y1="120" x2="1022.91" y2="120" stroke="#ddd" stroke-dasharray="3,2"></line></g><g class="AxisGridLines"><line x1="63.4" y1="573.40" x2="63.4" y2="35.00" stroke="#ddd" stroke-dasharray="3,2"></line><line x1="251.6" y1="573.40" x2="251.6" y2="35.00" stroke="#ddd" stroke-dasharray="3,2"></line><line x1="439.7" y1="573.40" x2="439.7" y2="35.00" stroke="#ddd" stroke-dasharray="3,2"></line><line x1="627.8" y1="573.40" x2="627.8" y2="35.00" stroke="#ddd" stroke-dasharray="3,2"></line><line x1="816" y1="573.40" x2="816" y2="35.00" stroke="#ddd" stroke-dasharray="3,2"></line><line x1="1004.1" y1="573.40" x2="1004.1" y2="35.00" stroke="#ddd" stroke-dasharray="3,2"></line></g></g><g clip-path="url(#boundsClip-1479)"><g class="HeightedLegend clickable"><g class="legendMark"><rect x="1032.912" y="169.4" width="94.10400000000001" height="19.200000000000003" fill="#fff" opacity="0"></rect><rect x="1032.912" y="177.75" width="10" height="2.5" fill="#e6332e"></rect><text font-size="19.20" x="1047.9" y="184.8" fill="#333"><tspan x="1047.912" y="184.76000000000002">Germany</tspan></text></g><g class="legendMark"><rect x="1032.912" y="240.8" width="64.34400000000001" height="19.200000000000003" fill="#fff" opacity="0"></rect><rect x="1032.912" y="249.15" width="10" height="2.5" fill="#2a939b"></rect><text font-size="19.20" x="1047.9" y="256.2" fill="#333"><tspan x="1047.912" y="256.16">Spain</tspan></text></g><g class="legendMark"><rect x="1032.912" y="262.29999999999995" width="50.328" height="19.200000000000003" fill="#fff" opacity="0"></rect><rect x="1032.912" y="270.65" width="10" height="2.5" fill="#a652ba"></rect><text font-size="19.20" x="1047.9" y="277.7" fill="#333"><tspan x="1047.912" y="277.65999999999997">Italy</tspan></text></g><g class="legendMark"><rect x="1032.912" y="281.49999999999994" width="84.69600000000001" height="19.200000000000003" fill="#fff" opacity="0"></rect><rect x="1032.912" y="289.84999999999997" width="10" height="2.5" fill="#f6a324"></rect><text font-size="19.20" x="1047.9" y="296.9" fill="#333"><tspan x="1047.912" y="296.85999999999996">Sweden</tspan></text></g><g class="legendMark"><rect x="1032.912" y="340.5" width="74.90400000000001" height="19.200000000000003" fill="#fff" opacity="0"></rect><rect x="1032.912" y="348.85" width="10" height="2.5" fill="#34983f"></rect><text font-size="19.20" x="1047.9" y="355.9" fill="#333"><tspan x="1047.912" y="355.86">France</tspan></text></g><g class="legendMark"><rect x="1032.912" y="359.7" width="152.08800000000002" height="19.200000000000003" fill="#fff" opacity="0"></rect><rect x="1032.912" y="368.05" width="10" height="2.5" fill="#ca2628"></rect><text font-size="19.20" x="1047.9" y="375.1" fill="#333"><tspan x="1047.912" y="375.06">United Kingdom</tspan></text></g><g class="legendMark"><rect x="1032.912" y="396" width="130.776" height="19.200000000000003" fill="#fff" opacity="0"></rect><rect x="1032.912" y="404.35" width="10" height="2.5" fill="#3360a9"></rect><text font-size="19.20" x="1047.9" y="411.4" fill="#333"><tspan x="1047.912" y="411.36">United States</tspan></text></g></g><g class="Lines"><rect x="63" y="35" width="959" height="538" fill="rgba(255,255,255,0)" opacity="0"></rect><g class="key-United-States_0"><path stroke="#3360a9" stroke-linecap="round" d="M63 213L82 220L101 216L120 216L139 216L158 211L176 206L195 213L214 215L233 215L252 227L270 236L289 233L308 229L327 235L346 257L364 254L383 250L402 248L421 247L440 258L459 263L477 279L496 286L515 282L534 287L553 293L571 300L590 301L609 307L628 313L647 322L666 326L684 329L703 330L722 332L741 333L760 334L778 335L797 339L816 342L835 357L854 367L872 372L891 372L910 373L929 374L948 377L967 384L985 400L1004 406L1023 406" fill="none" stroke-width="1.5"></path><g fill="#3360a9"><circle cx="63" cy="213" r="2"></circle><circle cx="82" cy="220" r="2"></circle><circle cx="101" cy="216" r="2"></circle><circle cx="120" cy="216" r="2"></circle><circle cx="139" cy="216" r="2"></circle><circle cx="158" cy="211" r="2"></circle><circle cx="176" cy="206" r="2"></circle><circle cx="195" cy="213" r="2"></circle><circle cx="214" cy="215" r="2"></circle><circle cx="233" cy="215" r="2"></circle><circle cx="252" cy="227" r="2"></circle><circle cx="270" cy="236" r="2"></circle><circle cx="289" cy="233" r="2"></circle><circle cx="308" cy="229" r="2"></circle><circle cx="327" cy="235" r="2"></circle><circle cx="346" cy="257" r="2"></circle><circle cx="364" cy="254" r="2"></circle><circle cx="383" cy="250" r="2"></circle><circle cx="402" cy="248" r="2"></circle><circle cx="421" cy="247" r="2"></circle><circle cx="440" cy="258" r="2"></circle><circle cx="459" cy="263" r="2"></circle><circle cx="477" cy="279" r="2"></circle><circle cx="496" cy="286" r="2"></circle><circle cx="515" cy="282" r="2"></circle><circle cx="534" cy="287" r="2"></circle><circle cx="553" cy="293" r="2"></circle><circle cx="571" cy="300" r="2"></circle><circle cx="590" cy="301" r="2"></circle><circle cx="609" cy="307" r="2"></circle><circle cx="628" cy="313" r="2"></circle><circle cx="647" cy="322" r="2"></circle><circle cx="666" cy="326" r="2"></circle><circle cx="684" cy="329" r="2"></circle><circle cx="703" cy="330" r="2"></circle><circle cx="722" cy="332" r="2"></circle><circle cx="741" cy="333" r="2"></circle><circle cx="760" cy="334" r="2"></circle><circle cx="778" cy="335" r="2"></circle><circle cx="797" cy="339" r="2"></circle><circle cx="816" cy="342" r="2"></circle><circle cx="835" cy="357" r="2"></circle><circle cx="854" cy="367" r="2"></circle><circle cx="872" cy="372" r="2"></circle><circle cx="891" cy="372" r="2"></circle><circle cx="910" cy="373" r="2"></circle><circle cx="929" cy="374" r="2"></circle><circle cx="948" cy="377" r="2"></circle><circle cx="967" cy="384" r="2"></circle><circle cx="985" cy="400" r="2"></circle><circle cx="1004" cy="406" r="2"></circle><circle cx="1023" cy="406" r="2"></circle></g></g><g class="key-United-Kingdom_0"><path stroke="#ca2628" stroke-linecap="round" d="M63 68L82 68L101 74L120 79L139 75L158 75L176 76L195 86L214 91L233 91L252 97L270 105L289 117L308 120L327 122L346 138L364 145L383 146L402 151L421 156L440 168L459 187L477 199L496 211L515 219L534 222L553 230L571 233L590 238L609 236L628 244L647 261L666 275L684 284L703 287L722 287L741 290L760 295L778 293L797 304L816 312L835 318L854 327L872 335L891 341L910 348L929 351L948 352L967 359L985 369L1004 364L1023 359" fill="none" stroke-width="1.5"></path><g fill="#ca2628"><circle cx="63" cy="68" r="2"></circle><circle cx="82" cy="68" r="2"></circle><circle cx="101" cy="74" r="2"></circle><circle cx="120" cy="79" r="2"></circle><circle cx="139" cy="75" r="2"></circle><circle cx="158" cy="75" r="2"></circle><circle cx="176" cy="76" r="2"></circle><circle cx="195" cy="86" r="2"></circle><circle cx="214" cy="91" r="2"></circle><circle cx="233" cy="91" r="2"></circle><circle cx="252" cy="97" r="2"></circle><circle cx="270" cy="105" r="2"></circle><circle cx="289" cy="117" r="2"></circle><circle cx="308" cy="120" r="2"></circle><circle cx="327" cy="122" r="2"></circle><circle cx="346" cy="138" r="2"></circle><circle cx="364" cy="145" r="2"></circle><circle cx="383" cy="146" r="2"></circle><circle cx="402" cy="151" r="2"></circle><circle cx="421" cy="156" r="2"></circle><circle cx="440" cy="168" r="2"></circle><circle cx="459" cy="187" r="2"></circle><circle cx="477" cy="199" r="2"></circle><circle cx="496" cy="211" r="2"></circle><circle cx="515" cy="219" r="2"></circle><circle cx="534" cy="222" r="2"></circle><circle cx="553" cy="230" r="2"></circle><circle cx="571" cy="233" r="2"></circle><circle cx="590" cy="238" r="2"></circle><circle cx="609" cy="236" r="2"></circle><circle cx="628" cy="244" r="2"></circle><circle cx="647" cy="261" r="2"></circle><circle cx="666" cy="275" r="2"></circle><circle cx="684" cy="284" r="2"></circle><circle cx="703" cy="287" r="2"></circle><circle cx="722" cy="287" r="2"></circle><circle cx="741" cy="290" r="2"></circle><circle cx="760" cy="295" r="2"></circle><circle cx="778" cy="293" r="2"></circle><circle cx="797" cy="304" r="2"></circle><circle cx="816" cy="312" r="2"></circle><circle cx="835" cy="318" r="2"></circle><circle cx="854" cy="327" r="2"></circle><circle cx="872" cy="335" r="2"></circle><circle cx="891" cy="341" r="2"></circle><circle cx="910" cy="348" r="2"></circle><circle cx="929" cy="351" r="2"></circle><circle cx="948" cy="352" r="2"></circle><circle cx="967" cy="359" r="2"></circle><circle cx="985" cy="369" r="2"></circle><circle cx="1004" cy="364" r="2"></circle><circle cx="1023" cy="359" r="2"></circle></g></g><g class="key-Germany_0"><path stroke="#e6332e" stroke-linecap="round" d="M63 58L82 55L101 58L120 62L139 53L158 50L176 55L195 72L214 67L233 59L252 58L270 70L289 77L308 79L327 91L346 110L364 106L383 110L402 121L421 120L440 126L459 137L477 145L496 148L515 150L534 148L553 159L571 170L590 171L609 167L628 171L647 179" fill="none" stroke-width="1.5"></path><g fill="#e6332e"><circle cx="63" cy="58" r="2"></circle><circle cx="82" cy="55" r="2"></circle><circle cx="101" cy="58" r="2"></circle><circle cx="120" cy="62" r="2"></circle><circle cx="139" cy="53" r="2"></circle><circle cx="158" cy="50" r="2"></circle><circle cx="176" cy="55" r="2"></circle><circle cx="195" cy="72" r="2"></circle><circle cx="214" cy="67" r="2"></circle><circle cx="233" cy="59" r="2"></circle><circle cx="252" cy="58" r="2"></circle><circle cx="270" cy="70" r="2"></circle><circle cx="289" cy="77" r="2"></circle><circle cx="308" cy="79" r="2"></circle><circle cx="327" cy="91" r="2"></circle><circle cx="346" cy="110" r="2"></circle><circle cx="364" cy="106" r="2"></circle><circle cx="383" cy="110" r="2"></circle><circle cx="402" cy="121" r="2"></circle><circle cx="421" cy="120" r="2"></circle><circle cx="440" cy="126" r="2"></circle><circle cx="459" cy="137" r="2"></circle><circle cx="477" cy="145" r="2"></circle><circle cx="496" cy="148" r="2"></circle><circle cx="515" cy="150" r="2"></circle><circle cx="534" cy="148" r="2"></circle><circle cx="553" cy="159" r="2"></circle><circle cx="571" cy="170" r="2"></circle><circle cx="590" cy="171" r="2"></circle><circle cx="609" cy="167" r="2"></circle><circle cx="628" cy="171" r="2"></circle><circle cx="647" cy="179" r="2"></circle></g></g><g class="key-France_0"><path stroke="#34983f" stroke-linecap="round" d="M101 142L214 116L252 167L270 167L289 167L308 167L327 169L346 178L364 185L383 190L402 198L421 205L440 208L459 219L477 225L496 235L515 247L534 254L553 259L571 267L590 272L609 274L628 276L647 282L666 290L684 301L703 310L722 313L741 317L760 322L778 326L797 331L816 333L835 334L854 338L872 341L891 346L910 347L929 349L948 350" fill="none" stroke-width="1.5"></path><g fill="#34983f"><circle cx="101" cy="142" r="2"></circle><circle cx="214" cy="116" r="2"></circle><circle cx="252" cy="167" r="2"></circle><circle cx="270" cy="167" r="2"></circle><circle cx="289" cy="167" r="2"></circle><circle cx="308" cy="167" r="2"></circle><circle cx="327" cy="169" r="2"></circle><circle cx="346" cy="178" r="2"></circle><circle cx="364" cy="185" r="2"></circle><circle cx="383" cy="190" r="2"></circle><circle cx="402" cy="198" r="2"></circle><circle cx="421" cy="205" r="2"></circle><circle cx="440" cy="208" r="2"></circle><circle cx="459" cy="219" r="2"></circle><circle cx="477" cy="225" r="2"></circle><circle cx="496" cy="235" r="2"></circle><circle cx="515" cy="247" r="2"></circle><circle cx="534" cy="254" r="2"></circle><circle cx="553" cy="259" r="2"></circle><circle cx="571" cy="267" r="2"></circle><circle cx="590" cy="272" r="2"></circle><circle cx="609" cy="274" r="2"></circle><circle cx="628" cy="276" r="2"></circle><circle cx="647" cy="282" r="2"></circle><circle cx="666" cy="290" r="2"></circle><circle cx="684" cy="301" r="2"></circle><circle cx="703" cy="310" r="2"></circle><circle cx="722" cy="313" r="2"></circle><circle cx="741" cy="317" r="2"></circle><circle cx="760" cy="322" r="2"></circle><circle cx="778" cy="326" r="2"></circle><circle cx="797" cy="331" r="2"></circle><circle cx="816" cy="333" r="2"></circle><circle cx="835" cy="334" r="2"></circle><circle cx="854" cy="338" r="2"></circle><circle cx="872" cy="341" r="2"></circle><circle cx="891" cy="346" r="2"></circle><circle cx="910" cy="347" r="2"></circle><circle cx="929" cy="349" r="2"></circle><circle cx="948" cy="350" r="2"></circle></g></g><g class="key-Spain_0"><path stroke="#2a939b" stroke-linecap="round" d="M139 176L252 201L270 196L289 190L308 185L327 181L346 179L364 179L383 178L402 184L421 187L440 197L459 213L477 224L496 230L515 241L534 249L553 247L571 245L590 242L609 236L628 233L647 236L666 245L684 258L703 264L722 261L741 258L760 252L778 249L797 244L816 240L835 237L854 239L872 242L891 244L910 245L929 249L948 250" fill="none" stroke-width="1.5"></path><g fill="#2a939b"><circle cx="139" cy="176" r="2"></circle><circle cx="252" cy="201" r="2"></circle><circle cx="270" cy="196" r="2"></circle><circle cx="289" cy="190" r="2"></circle><circle cx="308" cy="185" r="2"></circle><circle cx="327" cy="181" r="2"></circle><circle cx="346" cy="179" r="2"></circle><circle cx="364" cy="179" r="2"></circle><circle cx="383" cy="178" r="2"></circle><circle cx="402" cy="184" r="2"></circle><circle cx="421" cy="187" r="2"></circle><circle cx="440" cy="197" r="2"></circle><circle cx="459" cy="213" r="2"></circle><circle cx="477" cy="224" r="2"></circle><circle cx="496" cy="230" r="2"></circle><circle cx="515" cy="241" r="2"></circle><circle cx="534" cy="249" r="2"></circle><circle cx="553" cy="247" r="2"></circle><circle cx="571" cy="245" r="2"></circle><circle cx="590" cy="242" r="2"></circle><circle cx="609" cy="236" r="2"></circle><circle cx="628" cy="233" r="2"></circle><circle cx="647" cy="236" r="2"></circle><circle cx="666" cy="245" r="2"></circle><circle cx="684" cy="258" r="2"></circle><circle cx="703" cy="264" r="2"></circle><circle cx="722" cy="261" r="2"></circle><circle cx="741" cy="258" r="2"></circle><circle cx="760" cy="252" r="2"></circle><circle cx="778" cy="249" r="2"></circle><circle cx="797" cy="244" r="2"></circle><circle cx="816" cy="240" r="2"></circle><circle cx="835" cy="237" r="2"></circle><circle cx="854" cy="239" r="2"></circle><circle cx="872" cy="242" r="2"></circle><circle cx="891" cy="244" r="2"></circle><circle cx="910" cy="245" r="2"></circle><circle cx="929" cy="249" r="2"></circle><circle cx="948" cy="250" r="2"></circle></g></g><g class="key-Sweden_0"><path stroke="#f6a324" stroke-linecap="round" d="M63 59L82 62L101 66L120 68L139 71L158 75L176 84L195 92L214 101L233 110L252 119L270 139L289 143L308 139L327 143L346 148L364 154L383 167L402 174L421 179L440 182L459 190L477 201L496 207L515 212L534 213L553 214L571 214L590 214L609 219L628 228L647 238L666 252L684 259L703 263L722 253L741 253L760 252L778 249L797 255L816 257L835 256L854 261L872 265L891 271L910 272L929 274L948 271L967 267L985 280L1004 282" fill="none" stroke-width="1.5"></path><g fill="#f6a324"><circle cx="63" cy="59" r="2"></circle><circle cx="82" cy="62" r="2"></circle><circle cx="101" cy="66" r="2"></circle><circle cx="120" cy="68" r="2"></circle><circle cx="139" cy="71" r="2"></circle><circle cx="158" cy="75" r="2"></circle><circle cx="176" cy="84" r="2"></circle><circle cx="195" cy="92" r="2"></circle><circle cx="214" cy="101" r="2"></circle><circle cx="233" cy="110" r="2"></circle><circle cx="252" cy="119" r="2"></circle><circle cx="270" cy="139" r="2"></circle><circle cx="289" cy="143" r="2"></circle><circle cx="308" cy="139" r="2"></circle><circle cx="327" cy="143" r="2"></circle><circle cx="346" cy="148" r="2"></circle><circle cx="364" cy="154" r="2"></circle><circle cx="383" cy="167" r="2"></circle><circle cx="402" cy="174" r="2"></circle><circle cx="421" cy="179" r="2"></circle><circle cx="440" cy="182" r="2"></circle><circle cx="459" cy="190" r="2"></circle><circle cx="477" cy="201" r="2"></circle><circle cx="496" cy="207" r="2"></circle><circle cx="515" cy="212" r="2"></circle><circle cx="534" cy="213" r="2"></circle><circle cx="553" cy="214" r="2"></circle><circle cx="571" cy="214" r="2"></circle><circle cx="590" cy="214" r="2"></circle><circle cx="609" cy="219" r="2"></circle><circle cx="628" cy="228" r="2"></circle><circle cx="647" cy="238" r="2"></circle><circle cx="666" cy="252" r="2"></circle><circle cx="684" cy="259" r="2"></circle><circle cx="703" cy="263" r="2"></circle><circle cx="722" cy="253" r="2"></circle><circle cx="741" cy="253" r="2"></circle><circle cx="760" cy="252" r="2"></circle><circle cx="778" cy="249" r="2"></circle><circle cx="797" cy="255" r="2"></circle><circle cx="816" cy="257" r="2"></circle><circle cx="835" cy="256" r="2"></circle><circle cx="854" cy="261" r="2"></circle><circle cx="872" cy="265" r="2"></circle><circle cx="891" cy="271" r="2"></circle><circle cx="910" cy="272" r="2"></circle><circle cx="929" cy="274" r="2"></circle><circle cx="948" cy="271" r="2"></circle><circle cx="967" cy="267" r="2"></circle><circle cx="985" cy="280" r="2"></circle><circle cx="1004" cy="282" r="2"></circle></g></g><g class="key-Italy_0"><path stroke="#a652ba" stroke-linecap="round" d="M63 214L82 201L101 188L120 172L139 169L158 176L176 173L195 169L214 162L233 154L252 145L270 146L289 145L308 146L327 144L346 144L364 151L383 150L402 152L421 151L440 148L459 154L477 161L496 171L515 189L534 199L553 205L571 211L590 211L609 212L628 213L647 219L666 224L684 227L703 228L722 229L741 235L760 236L778 236L797 239L816 245L835 247L854 248L872 248L891 250L910 250L929 254L948 253L967 256L985 263L1004 271L1023 272" fill="none" stroke-width="1.5"></path><g fill="#a652ba"><circle cx="63" cy="214" r="2"></circle><circle cx="82" cy="201" r="2"></circle><circle cx="101" cy="188" r="2"></circle><circle cx="120" cy="172" r="2"></circle><circle cx="139" cy="169" r="2"></circle><circle cx="158" cy="176" r="2"></circle><circle cx="176" cy="173" r="2"></circle><circle cx="195" cy="169" r="2"></circle><circle cx="214" cy="162" r="2"></circle><circle cx="233" cy="154" r="2"></circle><circle cx="252" cy="145" r="2"></circle><circle cx="270" cy="146" r="2"></circle><circle cx="289" cy="145" r="2"></circle><circle cx="308" cy="146" r="2"></circle><circle cx="327" cy="144" r="2"></circle><circle cx="346" cy="144" r="2"></circle><circle cx="364" cy="151" r="2"></circle><circle cx="383" cy="150" r="2"></circle><circle cx="402" cy="152" r="2"></circle><circle cx="421" cy="151" r="2"></circle><circle cx="440" cy="148" r="2"></circle><circle cx="459" cy="154" r="2"></circle><circle cx="477" cy="161" r="2"></circle><circle cx="496" cy="171" r="2"></circle><circle cx="515" cy="189" r="2"></circle><circle cx="534" cy="199" r="2"></circle><circle cx="553" cy="205" r="2"></circle><circle cx="571" cy="211" r="2"></circle><circle cx="590" cy="211" r="2"></circle><circle cx="609" cy="212" r="2"></circle><circle cx="628" cy="213" r="2"></circle><circle cx="647" cy="219" r="2"></circle><circle cx="666" cy="224" r="2"></circle><circle cx="684" cy="227" r="2"></circle><circle cx="703" cy="228" r="2"></circle><circle cx="722" cy="229" r="2"></circle><circle cx="741" cy="235" r="2"></circle><circle cx="760" cy="236" r="2"></circle><circle cx="778" cy="236" r="2"></circle><circle cx="797" cy="239" r="2"></circle><circle cx="816" cy="245" r="2"></circle><circle cx="835" cy="247" r="2"></circle><circle cx="854" cy="248" r="2"></circle><circle cx="872" cy="248" r="2"></circle><circle cx="891" cy="250" r="2"></circle><circle cx="910" cy="250" r="2"></circle><circle cx="929" cy="254" r="2"></circle><circle cx="948" cy="253" r="2"></circle><circle cx="967" cy="256" r="2"></circle><circle cx="985" cy="263" r="2"></circle><circle cx="1004" cy="271" r="2"></circle><circle cx="1023" cy="272" r="2"></circle></g></g></g></g></g></g></svg>