<svg xmlns="http://www.w3.org/2000/svg" version="1.1" style="font-family: 'Helvetica Neue', Helvetica, Arial, sans-serif; font-size: 18px; background-color: white; text-rendering: optimizeLegibility; -webkit-font-smoothing: antialiased;" width="850" height="600"><g class="ChartTab"><g class="HeaderView"><g opacity="0.8" transform="translate(778, 15) scale(0.27)"><a xmlns:xlink="http://www.w3.org/1999/xlink" xlink:href="https://ourworldindata.org" target="_blank"><g><rect x="0" y="0" fill="#1B2543" width="211.2" height="130.1"/><rect x="0" y="112.2" fill="#E63912" width="211.2" height="17.9"/><g><rect x="1.2" y="12.3" fill="none" width="210.2" height="99.2"/><path fill="#FFFFFF" d="M37.8,32.2c0,12.7-7.7,19.4-17.1,19.4c-9.7,0-16.6-7.5-16.6-18.7c0-11.7,7.3-19.3,17.1-19.3 C31.3,13.7,37.8,21.3,37.8,32.2z M9.2,32.8c0,7.9,4.3,14.9,11.8,14.9c7.5,0,11.8-6.9,11.8-15.3c0-7.3-3.8-14.9-11.8-14.9 C13.1,17.5,9.2,24.8,9.2,32.8z"/><path fill="#FFFFFF" d="M62.7,43.8c0,2.7,0.1,5.1,0.2,7.2h-4.3l-0.3-4.3h-0.1c-1.3,2.1-4,4.9-8.8,4.9c-4.2,0-9.1-2.3-9.1-11.6 V24.6h4.8v14.6c0,5,1.5,8.4,5.9,8.4c3.2,0,5.5-2.2,6.3-4.4c0.3-0.7,0.4-1.6,0.4-2.5V24.6h4.8V43.8z"/><path fill="#FFFFFF" d="M67.3,32.8c0-3.1-0.1-5.8-0.2-8.2h4.2l0.2,5.2h0.2c1.2-3.5,4.1-5.8,7.3-5.8c0.5,0,0.9,0.1,1.4,0.2v4.5 c-0.5-0.1-1-0.2-1.6-0.2c-3.4,0-5.8,2.6-6.5,6.2c-0.1,0.7-0.2,1.4-0.2,2.2V51h-4.8V32.8z"/><path fill="#FFFFFF" d="M95.4,51l-9.4-36.8h5l4.4,18.6c1.1,4.6,2.1,9.2,2.7,12.7h0.1c0.6-3.7,1.8-8,3-12.8l4.9-18.5h5l4.5,18.7 c1,4.4,2,8.7,2.6,12.6h0.1c0.8-4,1.8-8.1,3-12.7l4.9-18.5h4.9L120.6,51h-5L111,31.9c-1.1-4.7-1.9-8.3-2.4-12h-0.1 c-0.7,3.7-1.5,7.3-2.8,12L100.4,51H95.4z"/><path fill="#FFFFFF" d="M154.9,37.6c0,9.8-6.8,14-13.2,14c-7.2,0-12.7-5.2-12.7-13.6c0-8.8,5.8-14,13.1-14 C149.8,24,154.9,29.5,154.9,37.6z M133.9,37.9c0,5.8,3.3,10.1,8,10.1c4.6,0,8-4.3,8-10.3c0-4.5-2.2-10.1-7.9-10.1 C136.3,27.6,133.9,32.8,133.9,37.9z"/><path fill="#FFFFFF" d="M158.2,32.8c0-3.1-0.1-5.8-0.2-8.2h4.2l0.2,5.2h0.2c1.2-3.5,4.1-5.8,7.3-5.8c0.5,0,0.9,0.1,1.4,0.2v4.5 c-0.5-0.1-1-0.2-1.6-0.2c-3.4,0-5.8,2.6-6.5,6.2c-0.1,0.7-0.2,1.4-0.2,2.2V51h-4.8V32.8z"/><path fill="#FFFFFF" d="M173.5,12.3h4.8V51h-4.8V12.3z"/><path fill="#FFFFFF" d="M206.5,12.3v31.9c0,2.3,0.1,5,0.2,6.8h-4.3l-0.2-4.6H202c-1.5,2.9-4.7,5.2-9,5.2 c-6.4,0-11.3-5.4-11.3-13.4c-0.1-8.8,5.4-14.2,11.9-14.2c4,0,6.8,1.9,8,4h0.1V12.3H206.5z M201.7,35.4c0-0.6-0.1-1.4-0.2-2 c-0.7-3.1-3.3-5.6-6.9-5.6c-5,0-7.9,4.4-7.9,10.2c0,5.3,2.6,9.8,7.8,9.8c3.2,0,6.2-2.1,7.1-5.7c0.2-0.7,0.2-1.3,0.2-2.1V35.4z"/><path fill="#FFFFFF" d="M42.8,64c0.1,1.6-1.1,2.9-3.1,2.9c-1.7,0-2.9-1.3-2.9-2.9c0-1.7,1.3-3,3-3C41.7,61,42.8,62.3,42.8,64z M37.4,97.8V71.4h4.8v26.4H37.4z"/><path fill="#FFFFFF" d="M47.5,78.6c0-2.7-0.1-5-0.2-7.1h4.3l0.3,4.4h0.1c1.3-2.5,4.4-5,8.8-5c3.7,0,9.4,2.2,9.4,11.2v15.8h-4.8 V82.6c0-4.3-1.6-7.8-6.1-7.8c-3.2,0-5.6,2.2-6.5,4.9c-0.2,0.6-0.3,1.4-0.3,2.2v15.9h-4.8V78.6z"/><path fill="#FFFFFF" d="M84,61.6c2.9-0.4,6.3-0.8,10.1-0.8c6.8,0,11.7,1.6,14.9,4.6c3.3,3,5.2,7.3,5.2,13.2c0,6-1.9,10.9-5.3,14.3 c-3.4,3.4-9.1,5.3-16.3,5.3c-3.4,0-6.2-0.2-8.6-0.4V61.6z M88.8,94.1c1.2,0.2,3,0.3,4.8,0.3c10.2,0,15.7-5.7,15.7-15.6 c0.1-8.7-4.9-14.2-14.9-14.2c-2.5,0-4.3,0.2-5.6,0.5V94.1z"/><path fill="#FFFFFF" d="M132.1,97.8l-0.4-3.3h-0.2c-1.5,2.1-4.3,3.9-8.1,3.9c-5.4,0-8.1-3.8-8.1-7.6c0-6.4,5.7-9.9,15.9-9.8v-0.5 c0-2.2-0.6-6.1-6-6.1c-2.5,0-5,0.8-6.9,2l-1.1-3.2c2.2-1.4,5.4-2.3,8.7-2.3c8.1,0,10.1,5.5,10.1,10.8v9.9c0,2.3,0.1,4.5,0.4,6.3 H132.1z M131.4,84.4c-5.3-0.1-11.2,0.8-11.2,5.9c0,3.1,2.1,4.6,4.5,4.6c3.4,0,5.6-2.2,6.4-4.4c0.2-0.5,0.3-1,0.3-1.5V84.4z"/><path fill="#FFFFFF" d="M146.6,63.9v7.6h6.9v3.7h-6.9v14.2c0,3.3,0.9,5.1,3.6,5.1c1.3,0,2.2-0.2,2.8-0.3l0.2,3.6 c-0.9,0.4-2.4,0.7-4.3,0.7c-2.2,0-4-0.7-5.2-2c-1.4-1.4-1.9-3.8-1.9-6.9V75.1h-4.1v-3.7h4.1v-6.3L146.6,63.9z"/><path fill="#FFFFFF" d="M171.4,97.8l-0.4-3.3h-0.2c-1.5,2.1-4.3,3.9-8.1,3.9c-5.4,0-8.1-3.8-8.1-7.6c0-6.4,5.7-9.9,15.9-9.8v-0.5 c0-2.2-0.6-6.1-6-6.1c-2.5,0-5,0.8-6.9,2l-1.1-3.2c2.2-1.4,5.4-2.3,8.7-2.3c8.1,0,10.1,5.5,10.1,10.8v9.9c0,2.3,0.1,4.5,0.4,6.3 H171.4z M170.7,84.4c-5.3-0.1-11.2,0.8-11.2,5.9c0,3.1,2.1,4.6,4.5,4.6c3.4,0,5.6-2.2,6.4-4.4c0.2-0.5,0.3-1,0.3-1.5V84.4z"/></g></g></a></g><a href="https://ourworldindata.org/grapher/share-of-services-in-total-exports" target="_blank"><text font-size="25.20" x="15.0" y="35.2" fill="#555"><tspan x="15" y="35.160000000000004">Share of services in total exports</tspan></text></a><text font-size="14.40" x="15.0" y="53.7" fill="#666"><tspan x="15" y="53.72">Services refer to economic output of intangible commodities that may be produced, transferred, and consumed at the</tspan><tspan x="15" y="69.56">same time. The share of services in total exports comes from comparing trade in goods and services at current US</tspan><tspan x="15" y="85.4">dollars.</tspan></text></g><g class="LineChart"><defs><clipPath id="boundsClip-1"><rect x="51.634" y="0" width="830" height="897.8"></rect></clipPath></defs><g class="AxisBoxView"><g class="HorizontalAxis"><text x="61.6" y="556.5" fill="#666" text-anchor="middle" font-size="16.2">1979</text><text x="165.7" y="556.5" fill="#666" text-anchor="middle" font-size="16.2">1985</text><text x="252.5" y="556.5" fill="#666" text-anchor="middle" font-size="16.2">1990</text><text x="339.2" y="556.5" fill="#666" text-anchor="middle" font-size="16.2">1995</text><text x="426" y="556.5" fill="#666" text-anchor="middle" font-size="16.2">2000</text><text x="512.8" y="556.5" fill="#666" text-anchor="middle" font-size="16.2">2005</text><text x="599.5" y="556.5" fill="#666" text-anchor="middle" font-size="16.2">2010</text><text x="703.6" y="556.5" fill="#666" text-anchor="middle" font-size="16.2">2016</text></g><g class="VerticalAxis"><text x="56.63" y="535.3" fill="#666" dominant-baseline="middle" text-anchor="end" font-size="16.2">0%</text><text x="56.63" y="449.8" fill="#666" dominant-baseline="middle" text-anchor="end" font-size="16.2">20%</text><text x="56.63" y="364.2" fill="#666" dominant-baseline="middle" text-anchor="end" font-size="16.2">40%</text><text x="56.63" y="278.7" fill="#666" dominant-baseline="middle" text-anchor="end" font-size="16.2">60%</text><text x="56.63" y="193.1" fill="#666" dominant-baseline="middle" text-anchor="end" font-size="16.2">80%</text><text x="56.63" y="107.6" fill="#666" dominant-baseline="middle" text-anchor="end" font-size="16.2">100%</text></g><g class="AxisGridLines"><line x1="61.63" y1="535.3" x2="703.61" y2="535.3" stroke="#ccc"></line><line x1="61.63" y1="449.8" x2="703.61" y2="449.8" stroke="#ddd" stroke-dasharray="3,2"></line><line x1="61.63" y1="364.2" x2="703.61" y2="364.2" stroke="#ddd" stroke-dasharray="3,2"></line><line x1="61.63" y1="278.7" x2="703.61" y2="278.7" stroke="#ddd" stroke-dasharray="3,2"></line><line x1="61.63" y1="193.1" x2="703.61" y2="193.1" stroke="#ddd" stroke-dasharray="3,2"></line><line x1="61.63" y1="107.6" x2="703.61" y2="107.6" stroke="#ddd" stroke-dasharray="3,2"></line></g></g><g clip-path="url(#boundsClip-1)"><g class="HeightedLegend clickable"><g class="legendMark"><g class="indicator"><line x1="708.61" y1="193.6" x2="721.11" y2="193.6" stroke="#666" stroke-width="0.5"></line><line x1="721.11" y1="193.6" x2="721.11" y2="193.6" stroke="#666" stroke-width="0.5"></line><line x1="721.11" y1="193.6" x2="733.61" y2="193.6" stroke="#666" stroke-width="0.5"></line></g><rect x="703.61" y="186.85" width="107.36" height="13.5" fill="#fff" opacity="0"></rect><text font-size="13.50" x="738.6" y="197.7" fill="#e6332e"><tspan x="738.61" y="197.65">Cape Verde</tspan></text></g><g class="legendMark"><g class="indicator"><line x1="708.61" y1="343" x2="721.11" y2="343" stroke="#666" stroke-width="0.5"></line><line x1="721.11" y1="343" x2="721.11" y2="343" stroke="#666" stroke-width="0.5"></line><line x1="721.11" y1="343" x2="733.61" y2="343" stroke="#666" stroke-width="0.5"></line></g><rect x="703.61" y="336.25" width="131.39" height="13.5" fill="#fff" opacity="0"></rect><text font-size="13.50" x="738.6" y="347.1" fill="#2a939b"><tspan x="738.61" y="347.05">United Kingdom</tspan></text></g><g class="legendMark"><g class="indicator"><line x1="708.61" y1="397.9" x2="721.11" y2="397.9" stroke="#666" stroke-width="0.5"></line><line x1="721.11" y1="397.9" x2="721.11" y2="397.9" stroke="#666" stroke-width="0.5"></line><line x1="721.11" y1="397.9" x2="733.61" y2="397.9" stroke="#666" stroke-width="0.5"></line></g><rect x="703.61" y="391.15" width="84.005" height="13.5" fill="#fff" opacity="0"></rect><text font-size="13.50" x="738.6" y="401.9" fill="#a652ba"><tspan x="738.61" y="401.95">Sweden</tspan></text></g><g class="legendMark"><g class="indicator"><line x1="708.61" y1="433.7" x2="727.7766666666666" y2="433.7" stroke="#666" stroke-width="0.5"></line><line x1="727.7766666666666" y1="433.7" x2="727.7766666666666" y2="433.7" stroke="#666" stroke-width="0.5"></line><line x1="727.7766666666666" y1="433.7" x2="733.61" y2="433.7" stroke="#666" stroke-width="0.5"></line></g><rect x="703.61" y="426.95" width="70.235" height="13.5" fill="#fff" opacity="0"></rect><text font-size="13.50" x="738.6" y="437.8" fill="#f6a324"><tspan x="738.61" y="437.75">World</tspan></text></g><g class="legendMark"><g class="indicator"><line x1="708.61" y1="443.4" x2="721.11" y2="443.4" stroke="#666" stroke-width="0.5"></line><line x1="721.11" y1="443.4" x2="721.11" y2="449.2" stroke="#666" stroke-width="0.5"></line><line x1="721.11" y1="449.2" x2="733.61" y2="449.2" stroke="#666" stroke-width="0.5"></line></g><rect x="703.61" y="442.45" width="71.99000000000001" height="13.5" fill="#fff" opacity="0"></rect><text font-size="13.50" x="738.6" y="453.3" fill="#34983f"><tspan x="738.61" y="453.25">Japan</tspan></text></g><g class="legendMark"><g class="indicator"><line x1="708.61" y1="460.3" x2="714.4433333333334" y2="460.3" stroke="#666" stroke-width="0.5"></line><line x1="714.4433333333334" y1="460.3" x2="714.4433333333334" y2="464.7" stroke="#666" stroke-width="0.5"></line><line x1="714.4433333333334" y1="464.7" x2="733.61" y2="464.7" stroke="#666" stroke-width="0.5"></line></g><rect x="703.61" y="457.95" width="90.62" height="13.5" fill="#fff" opacity="0"></rect><text font-size="13.50" x="738.6" y="468.8" fill="#ca2628"><tspan x="738.61" y="468.75">Germany</tspan></text></g><g class="legendMark"><g class="indicator"><line x1="708.61" y1="494.7" x2="721.11" y2="494.7" stroke="#666" stroke-width="0.5"></line><line x1="721.11" y1="494.7" x2="721.11" y2="494.7" stroke="#666" stroke-width="0.5"></line><line x1="721.11" y1="494.7" x2="733.61" y2="494.7" stroke="#666" stroke-width="0.5"></line></g><rect x="703.61" y="487.95" width="70.37" height="13.5" fill="#fff" opacity="0"></rect><text font-size="13.50" x="738.6" y="498.8" fill="#3360a9"><tspan x="738.61" y="498.75">China</tspan></text></g></g><g class="Lines"><rect x="62" y="108" width="642" height="428" fill="rgba(255,255,255,0)" opacity="0"></rect><g class="key-Cape-Verde_0"><path stroke="#e6332e" stroke-linecap="round" d="M62 251L79 311L96 221L114 162L131 146L148 204L166 192L183 155L200 298L218 257L235 285L253 244L270 221L287 198L305 171L322 193L339 182L357 188L374 235L391 187L409 158L426 201L443 183L461 181L478 180L495 172L513 201L530 185L548 160L565 170L582 168L600 191L617 215L634 203L652 201L669 229L686 203L704 194" fill="none" stroke-width="1.5"></path><g fill="#e6332e"><circle cx="62" cy="251" r="2"></circle><circle cx="79" cy="311" r="2"></circle><circle cx="96" cy="221" r="2"></circle><circle cx="114" cy="162" r="2"></circle><circle cx="131" cy="146" r="2"></circle><circle cx="148" cy="204" r="2"></circle><circle cx="166" cy="192" r="2"></circle><circle cx="183" cy="155" r="2"></circle><circle cx="200" cy="298" r="2"></circle><circle cx="218" cy="257" r="2"></circle><circle cx="235" cy="285" r="2"></circle><circle cx="253" cy="244" r="2"></circle><circle cx="270" cy="221" r="2"></circle><circle cx="287" cy="198" r="2"></circle><circle cx="305" cy="171" r="2"></circle><circle cx="322" cy="193" r="2"></circle><circle cx="339" cy="182" r="2"></circle><circle cx="357" cy="188" r="2"></circle><circle cx="374" cy="235" r="2"></circle><circle cx="391" cy="187" r="2"></circle><circle cx="409" cy="158" r="2"></circle><circle cx="426" cy="201" r="2"></circle><circle cx="443" cy="183" r="2"></circle><circle cx="461" cy="181" r="2"></circle><circle cx="478" cy="180" r="2"></circle><circle cx="495" cy="172" r="2"></circle><circle cx="513" cy="201" r="2"></circle><circle cx="530" cy="185" r="2"></circle><circle cx="548" cy="160" r="2"></circle><circle cx="565" cy="170" r="2"></circle><circle cx="582" cy="168" r="2"></circle><circle cx="600" cy="191" r="2"></circle><circle cx="617" cy="215" r="2"></circle><circle cx="634" cy="203" r="2"></circle><circle cx="652" cy="201" r="2"></circle><circle cx="669" cy="229" r="2"></circle><circle cx="686" cy="203" r="2"></circle><circle cx="704" cy="194" r="2"></circle></g></g><g class="key-Sweden_0"><path stroke="#a652ba" stroke-linecap="round" d="M62 479L79 480L96 479L114 451L131 455L148 459L166 463L183 470L200 464L218 462L235 459L253 453L270 446L287 441L305 451L322 459L339 468L357 466L374 462L391 467L409 460L426 460L443 450L461 448L478 449L495 445L513 442L530 442L548 437L565 436L582 421L600 430L617 429L634 424L652 410L669 407L686 397L704 398" fill="none" stroke-width="1.5"></path><g fill="#a652ba"><circle cx="62" cy="479" r="2"></circle><circle cx="79" cy="480" r="2"></circle><circle cx="96" cy="479" r="2"></circle><circle cx="114" cy="451" r="2"></circle><circle cx="131" cy="455" r="2"></circle><circle cx="148" cy="459" r="2"></circle><circle cx="166" cy="463" r="2"></circle><circle cx="183" cy="470" r="2"></circle><circle cx="200" cy="464" r="2"></circle><circle cx="218" cy="462" r="2"></circle><circle cx="235" cy="459" r="2"></circle><circle cx="253" cy="453" r="2"></circle><circle cx="270" cy="446" r="2"></circle><circle cx="287" cy="441" r="2"></circle><circle cx="305" cy="451" r="2"></circle><circle cx="322" cy="459" r="2"></circle><circle cx="339" cy="468" r="2"></circle><circle cx="357" cy="466" r="2"></circle><circle cx="374" cy="462" r="2"></circle><circle cx="391" cy="467" r="2"></circle><circle cx="409" cy="460" r="2"></circle><circle cx="426" cy="460" r="2"></circle><circle cx="443" cy="450" r="2"></circle><circle cx="461" cy="448" r="2"></circle><circle cx="478" cy="449" r="2"></circle><circle cx="495" cy="445" r="2"></circle><circle cx="513" cy="442" r="2"></circle><circle cx="530" cy="442" r="2"></circle><circle cx="548" cy="437" r="2"></circle><circle cx="565" cy="436" r="2"></circle><circle cx="582" cy="421" r="2"></circle><circle cx="600" cy="430" r="2"></circle><circle cx="617" cy="429" r="2"></circle><circle cx="634" cy="424" r="2"></circle><circle cx="652" cy="410" r="2"></circle><circle cx="669" cy="407" r="2"></circle><circle cx="686" cy="397" r="2"></circle><circle cx="704" cy="398" r="2"></circle></g></g><g class="key-World_0"><path stroke="#f6a324" stroke-linecap="round" d="M62 462L79 463L96 460L114 455L131 455L148 456L166 454L183 448L200 449L218 451L235 451L253 448L270 446L287 442L305 441L322 444L339 448L357 447L374 444L391 441L409 441L426 445L443 441L461 439L478 444L495 444L513 447L530 448L548 446L565 448L582 438L600 447L617 450L634 449L652 447L669 443L686 436L704 434" fill="none" stroke-width="1.5"></path><g fill="#f6a324"><circle cx="62" cy="462" r="2"></circle><circle cx="79" cy="463" r="2"></circle><circle cx="96" cy="460" r="2"></circle><circle cx="114" cy="455" r="2"></circle><circle cx="131" cy="455" r="2"></circle><circle cx="148" cy="456" r="2"></circle><circle cx="166" cy="454" r="2"></circle><circle cx="183" cy="448" r="2"></circle><circle cx="200" cy="449" r="2"></circle><circle cx="218" cy="451" r="2"></circle><circle cx="235" cy="451" r="2"></circle><circle cx="253" cy="448" r="2"></circle><circle cx="270" cy="446" r="2"></circle><circle cx="287" cy="442" r="2"></circle><circle cx="305" cy="441" r="2"></circle><circle cx="322" cy="444" r="2"></circle><circle cx="339" cy="448" r="2"></circle><circle cx="357" cy="447" r="2"></circle><circle cx="374" cy="444" r="2"></circle><circle cx="391" cy="441" r="2"></circle><circle cx="409" cy="441" r="2"></circle><circle cx="426" cy="445" r="2"></circle><circle cx="443" cy="441" r="2"></circle><circle cx="461" cy="439" r="2"></circle><circle cx="478" cy="444" r="2"></circle><circle cx="495" cy="444" r="2"></circle><circle cx="513" cy="447" r="2"></circle><circle cx="530" cy="448" r="2"></circle><circle cx="548" cy="446" r="2"></circle><circle cx="565" cy="448" r="2"></circle><circle cx="582" cy="438" r="2"></circle><circle cx="600" cy="447" r="2"></circle><circle cx="617" cy="450" r="2"></circle><circle cx="634" cy="449" r="2"></circle><circle cx="652" cy="447" r="2"></circle><circle cx="669" cy="443" r="2"></circle><circle cx="686" cy="436" r="2"></circle><circle cx="704" cy="434" r="2"></circle></g></g><g class="key-Germany_0"><path stroke="#ca2628" stroke-linecap="round" d="M62 477L79 473L96 472L114 470L131 470L148 473L166 473L183 475L200 475L218 479L235 479L253 478L270 478L287 477L305 473L322 478L339 478L357 477L374 475L391 475L409 475L426 476L443 477L461 471L478 474L495 472L513 472L530 473L548 474L565 472L582 462L600 468L617 471L634 469L652 467L669 464L686 462L704 460" fill="none" stroke-width="1.5"></path><g fill="#ca2628"><circle cx="62" cy="477" r="2"></circle><circle cx="79" cy="473" r="2"></circle><circle cx="96" cy="472" r="2"></circle><circle cx="114" cy="470" r="2"></circle><circle cx="131" cy="470" r="2"></circle><circle cx="148" cy="473" r="2"></circle><circle cx="166" cy="473" r="2"></circle><circle cx="183" cy="475" r="2"></circle><circle cx="200" cy="475" r="2"></circle><circle cx="218" cy="479" r="2"></circle><circle cx="235" cy="479" r="2"></circle><circle cx="253" cy="478" r="2"></circle><circle cx="270" cy="478" r="2"></circle><circle cx="287" cy="477" r="2"></circle><circle cx="305" cy="473" r="2"></circle><circle cx="322" cy="478" r="2"></circle><circle cx="339" cy="478" r="2"></circle><circle cx="357" cy="477" r="2"></circle><circle cx="374" cy="475" r="2"></circle><circle cx="391" cy="475" r="2"></circle><circle cx="409" cy="475" r="2"></circle><circle cx="426" cy="476" r="2"></circle><circle cx="443" cy="477" r="2"></circle><circle cx="461" cy="471" r="2"></circle><circle cx="478" cy="474" r="2"></circle><circle cx="495" cy="472" r="2"></circle><circle cx="513" cy="472" r="2"></circle><circle cx="530" cy="473" r="2"></circle><circle cx="548" cy="474" r="2"></circle><circle cx="565" cy="472" r="2"></circle><circle cx="582" cy="462" r="2"></circle><circle cx="600" cy="468" r="2"></circle><circle cx="617" cy="471" r="2"></circle><circle cx="634" cy="469" r="2"></circle><circle cx="652" cy="467" r="2"></circle><circle cx="669" cy="464" r="2"></circle><circle cx="686" cy="462" r="2"></circle><circle cx="704" cy="460" r="2"></circle></g></g><g class="key-United-Kingdom_0"><path stroke="#2a939b" stroke-linecap="round" d="M62 423L79 429L96 429L114 432L131 433L148 436L166 434L183 425L200 427L218 429L235 433L253 434L270 435L287 427L305 427L322 427L339 429L357 425L374 422L391 410L409 401L426 406L443 399L461 393L478 383L495 375L513 373L530 375L548 358L565 367L582 354L600 368L617 373L634 366L652 358L669 352L686 345L704 343" fill="none" stroke-width="1.5"></path><g fill="#2a939b"><circle cx="62" cy="423" r="2"></circle><circle cx="79" cy="429" r="2"></circle><circle cx="96" cy="429" r="2"></circle><circle cx="114" cy="432" r="2"></circle><circle cx="131" cy="433" r="2"></circle><circle cx="148" cy="436" r="2"></circle><circle cx="166" cy="434" r="2"></circle><circle cx="183" cy="425" r="2"></circle><circle cx="200" cy="427" r="2"></circle><circle cx="218" cy="429" r="2"></circle><circle cx="235" cy="433" r="2"></circle><circle cx="253" cy="434" r="2"></circle><circle cx="270" cy="435" r="2"></circle><circle cx="287" cy="427" r="2"></circle><circle cx="305" cy="427" r="2"></circle><circle cx="322" cy="427" r="2"></circle><circle cx="339" cy="429" r="2"></circle><circle cx="357" cy="425" r="2"></circle><circle cx="374" cy="422" r="2"></circle><circle cx="391" cy="410" r="2"></circle><circle cx="409" cy="401" r="2"></circle><circle cx="426" cy="406" r="2"></circle><circle cx="443" cy="399" r="2"></circle><circle cx="461" cy="393" r="2"></circle><circle cx="478" cy="383" r="2"></circle><circle cx="495" cy="375" r="2"></circle><circle cx="513" cy="373" r="2"></circle><circle cx="530" cy="375" r="2"></circle><circle cx="548" cy="358" r="2"></circle><circle cx="565" cy="367" r="2"></circle><circle cx="582" cy="354" r="2"></circle><circle cx="600" cy="368" r="2"></circle><circle cx="617" cy="373" r="2"></circle><circle cx="634" cy="366" r="2"></circle><circle cx="652" cy="358" r="2"></circle><circle cx="669" cy="352" r="2"></circle><circle cx="686" cy="345" r="2"></circle><circle cx="704" cy="343" r="2"></circle></g></g><g class="key-China_0"><path stroke="#3360a9" stroke-linecap="round" d="M114 490L131 490L148 490L166 489L183 480L200 487L218 490L235 494L253 492L270 490L287 485L305 480L322 476L339 480L357 484L374 360L391 347L409 347L426 358L443 351L461 359L478 480L495 479L513 492L530 495L548 493L565 494L582 493L600 504L617 493L634 496L652 498L669 497L686 496L704 495" fill="none" stroke-width="1.5"></path><g fill="#3360a9"><circle cx="114" cy="490" r="2"></circle><circle cx="131" cy="490" r="2"></circle><circle cx="148" cy="490" r="2"></circle><circle cx="166" cy="489" r="2"></circle><circle cx="183" cy="480" r="2"></circle><circle cx="200" cy="487" r="2"></circle><circle cx="218" cy="490" r="2"></circle><circle cx="235" cy="494" r="2"></circle><circle cx="253" cy="492" r="2"></circle><circle cx="270" cy="490" r="2"></circle><circle cx="287" cy="485" r="2"></circle><circle cx="305" cy="480" r="2"></circle><circle cx="322" cy="476" r="2"></circle><circle cx="339" cy="480" r="2"></circle><circle cx="357" cy="484" r="2"></circle><circle cx="374" cy="360" r="2"></circle><circle cx="391" cy="347" r="2"></circle><circle cx="409" cy="347" r="2"></circle><circle cx="426" cy="358" r="2"></circle><circle cx="443" cy="351" r="2"></circle><circle cx="461" cy="359" r="2"></circle><circle cx="478" cy="480" r="2"></circle><circle cx="495" cy="479" r="2"></circle><circle cx="513" cy="492" r="2"></circle><circle cx="530" cy="495" r="2"></circle><circle cx="548" cy="493" r="2"></circle><circle cx="565" cy="494" r="2"></circle><circle cx="582" cy="493" r="2"></circle><circle cx="600" cy="504" r="2"></circle><circle cx="617" cy="493" r="2"></circle><circle cx="634" cy="496" r="2"></circle><circle cx="652" cy="498" r="2"></circle><circle cx="669" cy="497" r="2"></circle><circle cx="686" cy="496" r="2"></circle><circle cx="704" cy="495" r="2"></circle></g></g><g class="key-Japan_0"><path stroke="#34983f" stroke-linecap="round" d="M357 472L374 472L391 473L409 478L426 479L443 473L461 474L478 472L495 469L513 471L530 471L548 471L565 468L582 458L600 469L617 471L634 471L652 466L669 454L686 447L704 443" fill="none" stroke-width="1.5"></path><g fill="#34983f"><circle cx="357" cy="472" r="2"></circle><circle cx="374" cy="472" r="2"></circle><circle cx="391" cy="473" r="2"></circle><circle cx="409" cy="478" r="2"></circle><circle cx="426" cy="479" r="2"></circle><circle cx="443" cy="473" r="2"></circle><circle cx="461" cy="474" r="2"></circle><circle cx="478" cy="472" r="2"></circle><circle cx="495" cy="469" r="2"></circle><circle cx="513" cy="471" r="2"></circle><circle cx="530" cy="471" r="2"></circle><circle cx="548" cy="471" r="2"></circle><circle cx="565" cy="468" r="2"></circle><circle cx="582" cy="458" r="2"></circle><circle cx="600" cy="469" r="2"></circle><circle cx="617" cy="471" r="2"></circle><circle cx="634" cy="471" r="2"></circle><circle cx="652" cy="466" r="2"></circle><circle cx="669" cy="454" r="2"></circle><circle cx="686" cy="447" r="2"></circle><circle cx="704" cy="443" r="2"></circle></g></g></g></g></g><g style="fill: #777;" class="SourcesFooter"><g style="fill: #777;" class="clickable"><text font-size="12.60" x="15.0" y="581.6"><tspan x="15" y="581.58">Source: World Bank</tspan></text></g><text font-size="12.60" x="775.4" y="581.6"><tspan x="775.402" y="581.58"><a style="fill: #777;" class="cclogo" href="http://creativecommons.org/licenses/by-sa/4.0/deed.en_US" target="_blank">CC BY-SA</a></tspan></text></g></g></svg>