<svg xmlns="http://www.w3.org/2000/svg" version="1.1" style="font-family: 'Helvetica Neue', Helvetica, Arial, sans-serif; font-size: 18px; background-color: white; text-rendering: optimizeLegibility; -webkit-font-smoothing: antialiased;" width="850" height="600"><g class="ChartTab"><g class="HeaderView"><g opacity="0.8" transform="translate(778, 15) scale(0.27)"><a xmlns:xlink="http://www.w3.org/1999/xlink" xlink:href="https://ourworldindata.org" target="_blank"><g><rect x="0" y="0" fill="#1B2543" width="211.2" height="130.1"/><rect x="0" y="112.2" fill="#E63912" width="211.2" height="17.9"/><g><rect x="1.2" y="12.3" fill="none" width="210.2" height="99.2"/><path fill="#FFFFFF" d="M37.8,32.2c0,12.7-7.7,19.4-17.1,19.4c-9.7,0-16.6-7.5-16.6-18.7c0-11.7,7.3-19.3,17.1-19.3 C31.3,13.7,37.8,21.3,37.8,32.2z M9.2,32.8c0,7.9,4.3,14.9,11.8,14.9c7.5,0,11.8-6.9,11.8-15.3c0-7.3-3.8-14.9-11.8-14.9 C13.1,17.5,9.2,24.8,9.2,32.8z"/><path fill="#FFFFFF" d="M62.7,43.8c0,2.7,0.1,5.1,0.2,7.2h-4.3l-0.3-4.3h-0.1c-1.3,2.1-4,4.9-8.8,4.9c-4.2,0-9.1-2.3-9.1-11.6 V24.6h4.8v14.6c0,5,1.5,8.4,5.9,8.4c3.2,0,5.5-2.2,6.3-4.4c0.3-0.7,0.4-1.6,0.4-2.5V24.6h4.8V43.8z"/><path fill="#FFFFFF" d="M67.3,32.8c0-3.1-0.1-5.8-0.2-8.2h4.2l0.2,5.2h0.2c1.2-3.5,4.1-5.8,7.3-5.8c0.5,0,0.9,0.1,1.4,0.2v4.5 c-0.5-0.1-1-0.2-1.6-0.2c-3.4,0-5.8,2.6-6.5,6.2c-0.1,0.7-0.2,1.4-0.2,2.2V51h-4.8V32.8z"/><path fill="#FFFFFF" d="M95.4,51l-9.4-36.8h5l4.4,18.6c1.1,4.6,2.1,9.2,2.7,12.7h0.1c0.6-3.7,1.8-8,3-12.8l4.9-18.5h5l4.5,18.7 c1,4.4,2,8.7,2.6,12.6h0.1c0.8-4,1.8-8.1,3-12.7l4.9-18.5h4.9L120.6,51h-5L111,31.9c-1.1-4.7-1.9-8.3-2.4-12h-0.1 c-0.7,3.7-1.5,7.3-2.8,12L100.4,51H95.4z"/><path fill="#FFFFFF" d="M154.9,37.6c0,9.8-6.8,14-13.2,14c-7.2,0-12.7-5.2-12.7-13.6c0-8.8,5.8-14,13.1-14 C149.8,24,154.9,29.5,154.9,37.6z M133.9,37.9c0,5.8,3.3,10.1,8,10.1c4.6,0,8-4.3,8-10.3c0-4.5-2.2-10.1-7.9-10.1 C136.3,27.6,133.9,32.8,133.9,37.9z"/><path fill="#FFFFFF" d="M158.2,32.8c0-3.1-0.1-5.8-0.2-8.2h4.2l0.2,5.2h0.2c1.2-3.5,4.1-5.8,7.3-5.8c0.5,0,0.9,0.1,1.4,0.2v4.5 c-0.5-0.1-1-0.2-1.6-0.2c-3.4,0-5.8,2.6-6.5,6.2c-0.1,0.7-0.2,1.4-0.2,2.2V51h-4.8V32.8z"/><path fill="#FFFFFF" d="M173.5,12.3h4.8V51h-4.8V12.3z"/><path fill="#FFFFFF" d="M206.5,12.3v31.9c0,2.3,0.1,5,0.2,6.8h-4.3l-0.2-4.6H202c-1.5,2.9-4.7,5.2-9,5.2 c-6.4,0-11.3-5.4-11.3-13.4c-0.1-8.8,5.4-14.2,11.9-14.2c4,0,6.8,1.9,8,4h0.1V12.3H206.5z M201.7,35.4c0-0.6-0.1-1.4-0.2-2 c-0.7-3.1-3.3-5.6-6.9-5.6c-5,0-7.9,4.4-7.9,10.2c0,5.3,2.6,9.8,7.8,9.8c3.2,0,6.2-2.1,7.1-5.7c0.2-0.7,0.2-1.3,0.2-2.1V35.4z"/><path fill="#FFFFFF" d="M42.8,64c0.1,1.6-1.1,2.9-3.1,2.9c-1.7,0-2.9-1.3-2.9-2.9c0-1.7,1.3-3,3-3C41.7,61,42.8,62.3,42.8,64z M37.4,97.8V71.4h4.8v26.4H37.4z"/><path fill="#FFFFFF" d="M47.5,78.6c0-2.7-0.1-5-0.2-7.1h4.3l0.3,4.4h0.1c1.3-2.5,4.4-5,8.8-5c3.7,0,9.4,2.2,9.4,11.2v15.8h-4.8 V82.6c0-4.3-1.6-7.8-6.1-7.8c-3.2,0-5.6,2.2-6.5,4.9c-0.2,0.6-0.3,1.4-0.3,2.2v15.9h-4.8V78.6z"/><path fill="#FFFFFF" d="M84,61.6c2.9-0.4,6.3-0.8,10.1-0.8c6.8,0,11.7,1.6,14.9,4.6c3.3,3,5.2,7.3,5.2,13.2c0,6-1.9,10.9-5.3,14.3 c-3.4,3.4-9.1,5.3-16.3,5.3c-3.4,0-6.2-0.2-8.6-0.4V61.6z M88.8,94.1c1.2,0.2,3,0.3,4.8,0.3c10.2,0,15.7-5.7,15.7-15.6 c0.1-8.7-4.9-14.2-14.9-14.2c-2.5,0-4.3,0.2-5.6,0.5V94.1z"/><path fill="#FFFFFF" d="M132.1,97.8l-0.4-3.3h-0.2c-1.5,2.1-4.3,3.9-8.1,3.9c-5.4,0-8.1-3.8-8.1-7.6c0-6.4,5.7-9.9,15.9-9.8v-0.5 c0-2.2-0.6-6.1-6-6.1c-2.5,0-5,0.8-6.9,2l-1.1-3.2c2.2-1.4,5.4-2.3,8.7-2.3c8.1,0,10.1,5.5,10.1,10.8v9.9c0,2.3,0.1,4.5,0.4,6.3 H132.1z M131.4,84.4c-5.3-0.1-11.2,0.8-11.2,5.9c0,3.1,2.1,4.6,4.5,4.6c3.4,0,5.6-2.2,6.4-4.4c0.2-0.5,0.3-1,0.3-1.5V84.4z"/><path fill="#FFFFFF" d="M146.6,63.9v7.6h6.9v3.7h-6.9v14.2c0,3.3,0.9,5.1,3.6,5.1c1.3,0,2.2-0.2,2.8-0.3l0.2,3.6 c-0.9,0.4-2.4,0.7-4.3,0.7c-2.2,0-4-0.7-5.2-2c-1.4-1.4-1.9-3.8-1.9-6.9V75.1h-4.1v-3.7h4.1v-6.3L146.6,63.9z"/><path fill="#FFFFFF" d="M171.4,97.8l-0.4-3.3h-0.2c-1.5,2.1-4.3,3.9-8.1,3.9c-5.4,0-8.1-3.8-8.1-7.6c0-6.4,5.7-9.9,15.9-9.8v-0.5 c0-2.2-0.6-6.1-6-6.1c-2.5,0-5,0.8-6.9,2l-1.1-3.2c2.2-1.4,5.4-2.3,8.7-2.3c8.1,0,10.1,5.5,10.1,10.8v9.9c0,2.3,0.1,4.5,0.4,6.3 H171.4z M170.7,84.4c-5.3-0.1-11.2,0.8-11.2,5.9c0,3.1,2.1,4.6,4.5,4.6c3.4,0,5.6-2.2,6.4-4.4c0.2-0.5,0.3-1,0.3-1.5V84.4z"/></g></g></a></g><a href="https://ourworldindata.org/grapher/share-of-trained-teachers-vs-share-of-qualified-teachers-primary-schools" target="_blank"><text font-size="21.60" x="15.0" y="32.3" fill="#555"><tspan x="15" y="32.279999999999994">Share of trained teachers vs share of qualified teachers, primary schools,</tspan><tspan x="15" y="53.87999999999999">2015</tspan></text></a><text font-size="14.40" x="15.0" y="72.7" fill="#666"><tspan x="15" y="72.72">The horizontal axis shows the share of teachers who have received the minimum organized training required for teaching at the</tspan><tspan x="15" y="88.56">primary level in the given country. The vertical axis shows the share of teachers who have the minimum academic qualifications</tspan><tspan x="15" y="104.4">necessary to teach at the primary level in a given country. Qualifications are usually related to the subject(s) they teach.</tspan></text></g><g><g class="AxisBoxView"><g class="HorizontalAxis"><text font-size="12.60" x="149.9" y="554.0"><tspan x="149.855" y="553.98">Percentage of teachers in primary education who are trained, both sexes (%)</tspan></text><text x="190.6" y="533.9" fill="#666" text-anchor="middle" font-size="16.2">20%</text><text x="321.7" y="533.9" fill="#666" text-anchor="middle" font-size="16.2">40%</text><text x="452.8" y="533.9" fill="#666" text-anchor="middle" font-size="16.2">60%</text><text x="583.9" y="533.9" fill="#666" text-anchor="middle" font-size="16.2">80%</text><text x="715" y="533.9" fill="#666" text-anchor="middle" font-size="16.2">100%</text></g><g class="VerticalAxis"><text font-size="12.60" x="-531.1" y="25.1" transform="rotate(-90)"><tspan x="-531.117" y="25.080000000000002">Percentage of teachers in primary education who are qualified, both</tspan><tspan x="-531.117" y="38.940000000000005">sexes (%)</tspan></text><text x="92.93" y="512.7" fill="#666" dominant-baseline="middle" text-anchor="end" font-size="16.2">0%</text><text x="92.93" y="435.5" fill="#666" dominant-baseline="middle" text-anchor="end" font-size="16.2">20%</text><text x="92.93" y="358.3" fill="#666" dominant-baseline="middle" text-anchor="end" font-size="16.2">40%</text><text x="92.93" y="281" fill="#666" dominant-baseline="middle" text-anchor="end" font-size="16.2">60%</text><text x="92.93" y="203.8" fill="#666" dominant-baseline="middle" text-anchor="end" font-size="16.2">80%</text><text x="92.93" y="126.6" fill="#666" dominant-baseline="middle" text-anchor="end" font-size="16.2">100%</text></g><g class="AxisGridLines"><line x1="97.93" y1="512.7" x2="715.00" y2="512.7" stroke="#ccc"></line><line x1="97.93" y1="435.5" x2="715.00" y2="435.5" stroke="#ddd" stroke-dasharray="3,2"></line><line x1="97.93" y1="358.3" x2="715.00" y2="358.3" stroke="#ddd" stroke-dasharray="3,2"></line><line x1="97.93" y1="281" x2="715.00" y2="281" stroke="#ddd" stroke-dasharray="3,2"></line><line x1="97.93" y1="203.8" x2="715.00" y2="203.8" stroke="#ddd" stroke-dasharray="3,2"></line><line x1="97.93" y1="126.6" x2="715.00" y2="126.6" stroke="#ddd" stroke-dasharray="3,2"></line></g><g class="AxisGridLines"><line x1="190.6" y1="512.70" x2="190.6" y2="126.60" stroke="#ddd" stroke-dasharray="3,2"></line><line x1="321.7" y1="512.70" x2="321.7" y2="126.60" stroke="#ddd" stroke-dasharray="3,2"></line><line x1="452.8" y1="512.70" x2="452.8" y2="126.60" stroke="#ddd" stroke-dasharray="3,2"></line><line x1="583.9" y1="512.70" x2="583.9" y2="126.60" stroke="#ddd" stroke-dasharray="3,2"></line><line x1="715" y1="512.70" x2="715" y2="126.60" stroke="#ddd" stroke-dasharray="3,2"></line></g></g><g clip-path="url(#scatterBounds-915)" font-family="Arial Narrow, Arial, sans-serif" class="PointsWithLabels clickable"><rect x="97.934" y="126.6" width="617.066" height="386.09999999999997" fill="rgba(255,255,255,0)"></rect><defs><clipPath id="scatterBounds-915"><rect x="87.934" y="116.6" width="637.066" height="406.09999999999997"></rect></clipPath></defs><g class="key-Philippines_0"><circle cx="715.00" cy="128.00" r="17.84" fill="#d14e5b" opacity="0.8" stroke="#333" stroke-width="0.7"></circle></g><g class="key-Vietnam_0"><circle cx="715.00" cy="127.00" r="17.16" fill="#d14e5b" opacity="0.8" stroke="#fff" stroke-width="0.7"></circle></g><g class="key-Ethiopia_0"><circle cx="682.00" cy="302.00" r="16.94" fill="#5675c1" opacity="0.8" stroke="#333" stroke-width="0.7"></circle></g><g class="key-Egypt_0"><circle cx="536.00" cy="183.00" r="16.66" fill="#5675c1" opacity="0.8" stroke="#333" stroke-width="0.7"></circle></g><g class="key-Iran_0"><circle cx="715.00" cy="126.00" r="15.77" fill="#d14e5b" opacity="0.8" stroke="#fff" stroke-width="0.7"></circle></g><g class="key-Democratic-Republic-of-Congo_0"><circle cx="679.00" cy="126.00" r="15.25" fill="#5675c1" opacity="0.8" stroke="#fff" stroke-width="0.7"></circle></g><g class="key-Thailand_0"><circle cx="715.00" cy="126.00" r="15.13" fill="#d14e5b" opacity="0.8" stroke="#fff" stroke-width="0.7"></circle></g><g class="key-Tanzania_0"><circle cx="708.00" cy="130.00" r="12.69" fill="#5675c1" opacity="0.8" stroke="#fff" stroke-width="0.7"></circle></g><g class="key-Colombia_0"><circle cx="703.00" cy="148.00" r="12.56" fill="#69c487" opacity="0.8" stroke="#fff" stroke-width="0.7"></circle></g><g class="key-Ukraine_0"><circle cx="714.00" cy="185.00" r="12.11" fill="#ffd336" opacity="0.8" stroke="#333" stroke-width="0.7"></circle></g><g class="key-Morocco_0"><circle cx="715.00" cy="126.00" r="10.44" fill="#5675c1" opacity="0.8" stroke="#fff" stroke-width="0.7"></circle></g><g class="key-Nepal_0"><circle cx="678.00" cy="150.00" r="10.22" fill="#d14e5b" opacity="0.8" stroke="#fff" stroke-width="0.7"></circle></g><g class="key-Malaysia_0"><circle cx="706.00" cy="126.00" r="9.94" fill="#d14e5b" opacity="0.8" stroke="#fff" stroke-width="0.7"></circle></g><g class="key-Saudi-Arabia_0"><circle cx="715.00" cy="126.00" r="9.87" fill="#d14e5b" opacity="0.8" stroke="#fff" stroke-width="0.7"></circle></g><g class="key-Ghana_0"><circle cx="418.00" cy="301.00" r="9.33" fill="#5675c1" opacity="0.8" stroke="#333" stroke-width="0.7"></circle></g><g class="key-Mozambique_0"><circle cx="649.00" cy="165.00" r="9.14" fill="#5675c1" opacity="0.8" stroke="#333" stroke-width="0.7"></circle></g><g class="key-Madagascar_0"><circle cx="168.00" cy="129.00" r="8.69" fill="#5675c1" opacity="0.8" stroke="#333" stroke-width="0.7"></circle></g><g class="key-Sri-Lanka_0"><circle cx="585.00" cy="154.00" r="8.48" fill="#d14e5b" opacity="0.8" stroke="#fff" stroke-width="0.7"></circle></g><g class="key-Cote-d__0027Ivoire_0"><circle cx="616.00" cy="171.00" r="8.41" fill="#5675c1" opacity="0.8" stroke="#fff" stroke-width="0.7"></circle></g><g class="key-Cameroon_0"><circle cx="575.00" cy="290.00" r="8.39" fill="#5675c1" opacity="0.8" stroke="#333" stroke-width="0.7"></circle></g><g class="key-Burkina-Faso_0"><circle cx="620.00" cy="182.00" r="7.81" fill="#5675c1" opacity="0.8" stroke="#fff" stroke-width="0.7"></circle></g><g class="key-Niger_0"><circle cx="387.00" cy="126.00" r="7.65" fill="#5675c1" opacity="0.8" stroke="#333" stroke-width="0.7"></circle></g><g class="key-Kazakhstan_0"><circle cx="715.00" cy="126.00" r="7.50" fill="#d14e5b" opacity="0.8" stroke="#fff" stroke-width="0.7"></circle></g><g class="key-Cambodia_0"><circle cx="715.00" cy="126.00" r="7.09" fill="#d14e5b" opacity="0.8" stroke="#fff" stroke-width="0.7"></circle></g><g class="key-Zambia_0"><circle cx="666.00" cy="258.00" r="7.01" fill="#5675c1" opacity="0.8" stroke="#333" stroke-width="0.7"></circle></g><g class="key-Senegal_0"><circle cx="518.00" cy="126.00" r="6.81" fill="#5675c1" opacity="0.8" stroke="#333" stroke-width="0.7"></circle></g><g class="key-Zimbabwe_0"><circle cx="622.00" cy="225.00" r="6.78" fill="#5675c1" opacity="0.8" stroke="#333" stroke-width="0.7"></circle></g><g class="key-Cuba_0"><circle cx="715.00" cy="198.00" r="6.27" fill="#4d824b" opacity="0.8" stroke="#333" stroke-width="0.7"></circle></g><g class="key-Tunisia_0"><circle cx="715.00" cy="126.00" r="6.16" fill="#5675c1" opacity="0.8" stroke="#fff" stroke-width="0.7"></circle></g><g class="key-Guinea_0"><circle cx="551.00" cy="239.00" r="6.14" fill="#5675c1" opacity="0.8" stroke="#333" stroke-width="0.7"></circle></g><g class="key-Dominican-Republic_0"><circle cx="617.00" cy="198.00" r="6.02" fill="#4d824b" opacity="0.8" stroke="#333" stroke-width="0.7"></circle></g><g class="key-Serbia_0"><circle cx="424.00" cy="126.00" r="5.89" fill="#ffd336" opacity="0.8" stroke="#333" stroke-width="0.7"></circle></g><g class="key-Benin_0"><circle cx="502.00" cy="126.00" r="5.83" fill="#5675c1" opacity="0.8" stroke="#fff" stroke-width="0.7"></circle></g><g class="key-Belarus_0"><circle cx="711.00" cy="128.00" r="5.80" fill="#ffd336" opacity="0.8" stroke="#fff" stroke-width="0.7"></circle></g><g class="key-Burundi_0"><circle cx="663.00" cy="159.00" r="5.64" fill="#5675c1" opacity="0.8" stroke="#333" stroke-width="0.7"></circle></g><g class="key-United-Arab-Emirates_0"><circle cx="715.00" cy="126.00" r="5.43" fill="#d14e5b" opacity="0.8" stroke="#fff" stroke-width="0.7"></circle></g><g class="key-Hong-Kong_0"><circle cx="691.00" cy="126.00" r="5.15" fill="#d14e5b" opacity="0.8" stroke="#fff" stroke-width="0.7"></circle></g><g class="key-Tajikistan_0"><circle cx="715.00" cy="146.00" r="5.12" fill="#d14e5b" opacity="0.8" stroke="#fff" stroke-width="0.7"></circle></g><g class="key-Paraguay_0"><circle cx="663.00" cy="178.00" r="5.00" fill="#69c487" opacity="0.8" stroke="#fff" stroke-width="0.7"></circle></g><g class="key-Laos_0"><circle cx="703.00" cy="193.00" r="4.89" fill="#d14e5b" opacity="0.8" stroke="#fff" stroke-width="0.7"></circle></g><g class="key-Togo_0"><circle cx="558.00" cy="256.00" r="4.87" fill="#5675c1" opacity="0.8" stroke="#333" stroke-width="0.7"></circle></g><g class="key-Sierra-Leone_0"><circle cx="433.00" cy="312.00" r="4.82" fill="#5675c1" opacity="0.8" stroke="#333" stroke-width="0.7"></circle></g><g class="key-Eritrea_0"><circle cx="583.00" cy="127.00" r="4.65" fill="#5675c1" opacity="0.8" stroke="#333" stroke-width="0.7"></circle></g><g class="key-Kyrgyzstan_0"><circle cx="531.00" cy="228.00" r="4.56" fill="#d14e5b" opacity="0.8" stroke="#fff" stroke-width="0.7"></circle></g><g class="key-Panama_0"><circle cx="652.00" cy="126.00" r="3.87" fill="#4d824b" opacity="0.8" stroke="#fff" stroke-width="0.7"></circle></g><g class="key-Kuwait_0"><circle cx="580.00" cy="214.00" r="3.56" fill="#d14e5b" opacity="0.8" stroke="#333" stroke-width="0.7"></circle></g><g class="key-Mongolia_0"><circle cx="715.00" cy="134.00" r="3.53" fill="#d14e5b" opacity="0.8" stroke="#fff" stroke-width="0.7"></circle></g><g class="key-Jamaica_0"><circle cx="686.00" cy="143.00" r="3.47" fill="#4d824b" opacity="0.8" stroke="#fff" stroke-width="0.7"></circle></g><g class="key-Lesotho_0"><circle cx="556.00" cy="220.00" r="3.22" fill="#5675c1" opacity="0.8" stroke="#fff" stroke-width="0.7"></circle></g><g class="key-Botswana_0"><circle cx="706.00" cy="131.00" r="3.13" fill="#5675c1" opacity="0.8" stroke="#fff" stroke-width="0.7"></circle></g><g class="key-Gambia_0"><circle cx="610.00" cy="187.00" r="3.03" fill="#5675c1" opacity="0.8" stroke="#fff" stroke-width="0.7"></circle></g><g class="key-Bahrain_0"><circle cx="602.00" cy="141.00" r="2.75" fill="#d14e5b" opacity="0.8" stroke="#fff" stroke-width="0.7"></circle></g><g class="key-Mauritius_0"><circle cx="715.00" cy="126.00" r="2.72" fill="#5675c1" opacity="0.8" stroke="#fff" stroke-width="0.7"></circle></g><g class="key-Swaziland_0"><circle cx="578.00" cy="258.00" r="2.67" fill="#5675c1" opacity="0.8" stroke="#fff" stroke-width="0.7"></circle></g><g class="key-Djibouti_0"><circle cx="715.00" cy="126.00" r="2.48" fill="#5675c1" opacity="0.8" stroke="#fff" stroke-width="0.7"></circle></g><g class="key-Comoros_0"><circle cx="551.00" cy="222.00" r="2.39" fill="#5675c1" opacity="0.8" stroke="#fff" stroke-width="0.7"></circle></g><g class="key-Solomon-Islands_0"><circle cx="483.00" cy="247.00" r="2.24" fill="#a652ba" opacity="0.8" stroke="#fff" stroke-width="0.7"></circle></g><g class="key-Macao_0"><circle cx="637.00" cy="126.00" r="2.24" fill="#d14e5b" opacity="0.8" stroke="#fff" stroke-width="0.7"></circle></g><g class="key-Suriname_0"><circle cx="97.00" cy="149.00" r="2.21" fill="#69c487" opacity="0.8" stroke="#333" stroke-width="0.7"></circle></g><g class="key-Cape-Verde_0"><circle cx="688.00" cy="160.00" r="2.19" fill="#5675c1" opacity="0.8" stroke="#fff" stroke-width="0.7"></circle></g><g class="key-Brunei_0"><circle cx="632.00" cy="328.00" r="2.12" fill="#d14e5b" opacity="0.8" stroke="#333" stroke-width="0.7"></circle></g><g class="key-Belize_0"><circle cx="457.00" cy="401.00" r="2.05" fill="#4d824b" opacity="0.8" stroke="#333" stroke-width="0.7"></circle></g><g class="key-Maldives_0"><circle cx="623.00" cy="180.00" r="2.05" fill="#d14e5b" opacity="0.8" stroke="#333" stroke-width="0.7"></circle></g><g class="key-Barbados_0"><circle cx="715.00" cy="126.00" r="2.01" fill="#4d824b" opacity="0.8" stroke="#fff" stroke-width="0.7"></circle></g><g class="key-Saint-Vincent-and-the-Grenadines_0"><circle cx="558.00" cy="450.00" r="1.87" fill="#4d824b" opacity="0.8" stroke="#333" stroke-width="0.7"></circle></g><g class="key-Grenada_0"><circle cx="472.00" cy="324.00" r="1.87" fill="#4d824b" opacity="0.8" stroke="#333" stroke-width="0.7"></circle></g><g class="key-Tonga_0"><circle cx="695.00" cy="128.00" r="1.87" fill="#a652ba" opacity="0.8" stroke="#fff" stroke-width="0.7"></circle></g><g class="key-Andorra_0"><circle cx="715.00" cy="126.00" r="1.85" fill="#ffd336" opacity="0.8" stroke="#fff" stroke-width="0.7"></circle></g><g class="key-Seychelles_0"><circle cx="628.00" cy="217.00" r="1.85" fill="#5675c1" opacity="0.8" stroke="#fff" stroke-width="0.7"></circle></g><g class="key-Dominica_0"><circle cx="484.00" cy="262.00" r="1.84" fill="#4d824b" opacity="0.8" stroke="#333" stroke-width="0.7"></circle></g><g class="key-Bermuda_0"><circle cx="715.00" cy="126.00" r="1.83" fill="#4d824b" opacity="0.8" stroke="#fff" stroke-width="0.7"></circle></g><g class="key-Cayman-Islands_0"><circle cx="637.00" cy="172.00" r="1.83" fill="#4d824b" opacity="0.8" stroke="#fff" stroke-width="0.7"></circle></g><g class="key-Saint-Kitts-and-Nevis_0"><circle cx="507.00" cy="126.00" r="1.82" fill="#4d824b" opacity="0.8" stroke="#fff" stroke-width="0.7"></circle></g><g class="key-Turks-and-Caicos-Islands_0"><circle cx="652.00" cy="163.00" r="1.81" fill="#4d824b" opacity="0.8" stroke="#fff" stroke-width="0.7"></circle></g><g class="key-Palestine_0"><circle cx="715.00" cy="332.00" r="1.77" fill="#d14e5b" opacity="0.8" stroke="#333" stroke-width="0.7"></circle></g><g fill="#333" class="backgroundLabels"><text x="645.64" y="140.90" font-size="14.30">Philippines</text><text x="631.28" y="284.06" font-size="13.97">Ethiopia</text><text x="536.00" y="165.34" font-size="13.87">Egypt</text><text x="670.86" y="171.89" font-size="12.50">Ukraine</text><text x="418.00" y="290.67" font-size="11.88">Ghana</text><text x="581.03" y="154.86" font-size="11.84">Mozambique</text><text x="168.00" y="138.36" font-size="11.76">Madagascar</text><text x="575.00" y="280.61" font-size="11.70">Cameroon</text><text x="387.00" y="138.18" font-size="11.58">Niger</text><text x="666.00" y="249.99" font-size="11.48">Zambia</text><text x="518.00" y="138.05" font-size="11.45">Senegal</text><text x="622.00" y="217.22" font-size="11.45">Zimbabwe</text><text x="687.69" y="190.73" font-size="11.38">Cuba</text><text x="551.00" y="231.86" font-size="11.36">Guinea</text><text x="515.90" y="190.98" font-size="11.35">Dominican Republic</text><text x="424.00" y="137.93" font-size="11.33">Serbia</text><text x="663.00" y="152.36" font-size="11.30">Burundi</text><text x="558.00" y="250.13" font-size="11.22">Togo</text><text x="433.00" y="306.18" font-size="11.21">Sierra Leone</text><text x="583.00" y="137.79" font-size="11.19">Eritrea</text><text x="580.00" y="209.44" font-size="11.10">Kuwait</text><text x="97.00" y="145.79" font-size="11.02">Suriname</text><text x="632.00" y="324.88" font-size="11.01">Brunei</text><text x="457.00" y="397.95" font-size="11.01">Belize</text><text x="623.00" y="176.95" font-size="11.01">Maldives</text><text x="392.62" y="447.13" font-size="11.00">Saint Vincent and the Grenadines</text><text x="472.00" y="321.13" font-size="11.00">Grenada</text><text x="484.00" y="259.16" font-size="11.00">Dominica</text><text x="669.57" y="329.23" font-size="11.00">Palestine</text></g></g><g style="cursor: pointer;" class="ScatterColorLegend clickable"><g class="legendMark"><rect x="735" y="124.1" width="43.256" height="17.6" fill="#fff" opacity="0"></rect>,<rect x="735" y="129.6" width="6" height="6" fill="#5675c1"></rect>,<text font-size="12.60" x="746.0" y="136.7"><tspan x="746" y="136.67999999999998">Africa</tspan></text></g><g class="legendMark"><rect x="735" y="141.7" width="35.57" height="17.6" fill="#fff" opacity="0"></rect>,<rect x="735" y="147.2" width="6" height="6" fill="#d14e5b"></rect>,<text font-size="12.60" x="746.0" y="154.3"><tspan x="746" y="154.27999999999997">Asia</tspan></text></g><g class="legendMark"><rect x="735" y="159.3" width="51.824" height="17.6" fill="#fff" opacity="0"></rect>,<rect x="735" y="164.8" width="6" height="6" fill="#ffd336"></rect>,<text font-size="12.60" x="746.0" y="171.9"><tspan x="746" y="171.88">Europe</tspan></text></g><g class="legendMark"><rect x="735" y="176.9" width="91.64" height="17.6" fill="#fff" opacity="0"></rect>,<rect x="735" y="182.4" width="6" height="6" fill="#4d824b"></rect>,<text font-size="12.60" x="746.0" y="189.5"><tspan x="746" y="189.48">North America</tspan></text></g><g class="legendMark"><rect x="735" y="194.5" width="58.124" height="17.6" fill="#fff" opacity="0"></rect>,<rect x="735" y="200" width="6" height="6" fill="#a652ba"></rect>,<text font-size="12.60" x="746.0" y="207.1"><tspan x="746" y="207.07999999999998">Oceania</tspan></text></g><g class="legendMark"><rect x="735" y="212.1" width="93.908" height="17.6" fill="#fff" opacity="0"></rect>,<rect x="735" y="217.6" width="6" height="6" fill="#69c487"></rect>,<text font-size="12.60" x="746.0" y="224.7"><tspan x="746" y="224.67999999999998">South America</tspan></text></g></g></g><g style="fill: #777;" class="SourcesFooter"><g style="fill: #777;" class="clickable"><text font-size="12.60" x="15.0" y="581.6"><tspan x="15" y="581.58">Source: World Bank</tspan></text></g><text font-size="12.60" x="649.0" y="581.6"><tspan x="649.024" y="581.58"><a target='_blank' style='fill: #777;' href='https://ourworldindata.org'>OurWorldInData.org</a> • <a style="fill: #777;" href="http://creativecommons.org/licenses/by-sa/4.0/deed.en_US" target="_blank">CC BY-SA</a></tspan></text></g></g></svg>