<svg xmlns="http://www.w3.org/2000/svg" version="1.1" style="font-family: 'Helvetica Neue', Helvetica, Arial, sans-serif; font-size: 18px; background-color: white; text-rendering: optimizeLegibility; -webkit-font-smoothing: antialiased;" width="850" height="600"><g class="ChartTab"><g class="HeaderView"><g opacity="0.8" transform="translate(778, 15) scale(0.27)"><a xmlns:xlink="http://www.w3.org/1999/xlink" xlink:href="https://ourworldindata.org" target="_blank"><g><rect x="0" y="0" fill="#1B2543" width="211.2" height="130.1"/><rect x="0" y="112.2" fill="#E63912" width="211.2" height="17.9"/><g><rect x="1.2" y="12.3" fill="none" width="210.2" height="99.2"/><path fill="#FFFFFF" d="M37.8,32.2c0,12.7-7.7,19.4-17.1,19.4c-9.7,0-16.6-7.5-16.6-18.7c0-11.7,7.3-19.3,17.1-19.3 C31.3,13.7,37.8,21.3,37.8,32.2z M9.2,32.8c0,7.9,4.3,14.9,11.8,14.9c7.5,0,11.8-6.9,11.8-15.3c0-7.3-3.8-14.9-11.8-14.9 C13.1,17.5,9.2,24.8,9.2,32.8z"/><path fill="#FFFFFF" d="M62.7,43.8c0,2.7,0.1,5.1,0.2,7.2h-4.3l-0.3-4.3h-0.1c-1.3,2.1-4,4.9-8.8,4.9c-4.2,0-9.1-2.3-9.1-11.6 V24.6h4.8v14.6c0,5,1.5,8.4,5.9,8.4c3.2,0,5.5-2.2,6.3-4.4c0.3-0.7,0.4-1.6,0.4-2.5V24.6h4.8V43.8z"/><path fill="#FFFFFF" d="M67.3,32.8c0-3.1-0.1-5.8-0.2-8.2h4.2l0.2,5.2h0.2c1.2-3.5,4.1-5.8,7.3-5.8c0.5,0,0.9,0.1,1.4,0.2v4.5 c-0.5-0.1-1-0.2-1.6-0.2c-3.4,0-5.8,2.6-6.5,6.2c-0.1,0.7-0.2,1.4-0.2,2.2V51h-4.8V32.8z"/><path fill="#FFFFFF" d="M95.4,51l-9.4-36.8h5l4.4,18.6c1.1,4.6,2.1,9.2,2.7,12.7h0.1c0.6-3.7,1.8-8,3-12.8l4.9-18.5h5l4.5,18.7 c1,4.4,2,8.7,2.6,12.6h0.1c0.8-4,1.8-8.1,3-12.7l4.9-18.5h4.9L120.6,51h-5L111,31.9c-1.1-4.7-1.9-8.3-2.4-12h-0.1 c-0.7,3.7-1.5,7.3-2.8,12L100.4,51H95.4z"/><path fill="#FFFFFF" d="M154.9,37.6c0,9.8-6.8,14-13.2,14c-7.2,0-12.7-5.2-12.7-13.6c0-8.8,5.8-14,13.1-14 C149.8,24,154.9,29.5,154.9,37.6z M133.9,37.9c0,5.8,3.3,10.1,8,10.1c4.6,0,8-4.3,8-10.3c0-4.5-2.2-10.1-7.9-10.1 C136.3,27.6,133.9,32.8,133.9,37.9z"/><path fill="#FFFFFF" d="M158.2,32.8c0-3.1-0.1-5.8-0.2-8.2h4.2l0.2,5.2h0.2c1.2-3.5,4.1-5.8,7.3-5.8c0.5,0,0.9,0.1,1.4,0.2v4.5 c-0.5-0.1-1-0.2-1.6-0.2c-3.4,0-5.8,2.6-6.5,6.2c-0.1,0.7-0.2,1.4-0.2,2.2V51h-4.8V32.8z"/><path fill="#FFFFFF" d="M173.5,12.3h4.8V51h-4.8V12.3z"/><path fill="#FFFFFF" d="M206.5,12.3v31.9c0,2.3,0.1,5,0.2,6.8h-4.3l-0.2-4.6H202c-1.5,2.9-4.7,5.2-9,5.2 c-6.4,0-11.3-5.4-11.3-13.4c-0.1-8.8,5.4-14.2,11.9-14.2c4,0,6.8,1.9,8,4h0.1V12.3H206.5z M201.7,35.4c0-0.6-0.1-1.4-0.2-2 c-0.7-3.1-3.3-5.6-6.9-5.6c-5,0-7.9,4.4-7.9,10.2c0,5.3,2.6,9.8,7.8,9.8c3.2,0,6.2-2.1,7.1-5.7c0.2-0.7,0.2-1.3,0.2-2.1V35.4z"/><path fill="#FFFFFF" d="M42.8,64c0.1,1.6-1.1,2.9-3.1,2.9c-1.7,0-2.9-1.3-2.9-2.9c0-1.7,1.3-3,3-3C41.7,61,42.8,62.3,42.8,64z M37.4,97.8V71.4h4.8v26.4H37.4z"/><path fill="#FFFFFF" d="M47.5,78.6c0-2.7-0.1-5-0.2-7.1h4.3l0.3,4.4h0.1c1.3-2.5,4.4-5,8.8-5c3.7,0,9.4,2.2,9.4,11.2v15.8h-4.8 V82.6c0-4.3-1.6-7.8-6.1-7.8c-3.2,0-5.6,2.2-6.5,4.9c-0.2,0.6-0.3,1.4-0.3,2.2v15.9h-4.8V78.6z"/><path fill="#FFFFFF" d="M84,61.6c2.9-0.4,6.3-0.8,10.1-0.8c6.8,0,11.7,1.6,14.9,4.6c3.3,3,5.2,7.3,5.2,13.2c0,6-1.9,10.9-5.3,14.3 c-3.4,3.4-9.1,5.3-16.3,5.3c-3.4,0-6.2-0.2-8.6-0.4V61.6z M88.8,94.1c1.2,0.2,3,0.3,4.8,0.3c10.2,0,15.7-5.7,15.7-15.6 c0.1-8.7-4.9-14.2-14.9-14.2c-2.5,0-4.3,0.2-5.6,0.5V94.1z"/><path fill="#FFFFFF" d="M132.1,97.8l-0.4-3.3h-0.2c-1.5,2.1-4.3,3.9-8.1,3.9c-5.4,0-8.1-3.8-8.1-7.6c0-6.4,5.7-9.9,15.9-9.8v-0.5 c0-2.2-0.6-6.1-6-6.1c-2.5,0-5,0.8-6.9,2l-1.1-3.2c2.2-1.4,5.4-2.3,8.7-2.3c8.1,0,10.1,5.5,10.1,10.8v9.9c0,2.3,0.1,4.5,0.4,6.3 H132.1z M131.4,84.4c-5.3-0.1-11.2,0.8-11.2,5.9c0,3.1,2.1,4.6,4.5,4.6c3.4,0,5.6-2.2,6.4-4.4c0.2-0.5,0.3-1,0.3-1.5V84.4z"/><path fill="#FFFFFF" d="M146.6,63.9v7.6h6.9v3.7h-6.9v14.2c0,3.3,0.9,5.1,3.6,5.1c1.3,0,2.2-0.2,2.8-0.3l0.2,3.6 c-0.9,0.4-2.4,0.7-4.3,0.7c-2.2,0-4-0.7-5.2-2c-1.4-1.4-1.9-3.8-1.9-6.9V75.1h-4.1v-3.7h4.1v-6.3L146.6,63.9z"/><path fill="#FFFFFF" d="M171.4,97.8l-0.4-3.3h-0.2c-1.5,2.1-4.3,3.9-8.1,3.9c-5.4,0-8.1-3.8-8.1-7.6c0-6.4,5.7-9.9,15.9-9.8v-0.5 c0-2.2-0.6-6.1-6-6.1c-2.5,0-5,0.8-6.9,2l-1.1-3.2c2.2-1.4,5.4-2.3,8.7-2.3c8.1,0,10.1,5.5,10.1,10.8v9.9c0,2.3,0.1,4.5,0.4,6.3 H171.4z M170.7,84.4c-5.3-0.1-11.2,0.8-11.2,5.9c0,3.1,2.1,4.6,4.5,4.6c3.4,0,5.6-2.2,6.4-4.4c0.2-0.5,0.3-1,0.3-1.5V84.4z"/></g></g></a></g><a href="https://ourworldindata.org/grapher/share-of-total-expenditure-spent-on-food-vs-food-expenditure-per-person" target="_blank"><text font-size="21.60" x="15.0" y="32.3" fill="#555"><tspan x="15" y="32.279999999999994">Share of total expenditure spent on food vs. food expenditure per person,</tspan><tspan x="15" y="53.87999999999999">2016</tspan></text></a><text font-size="14.40" x="15.0" y="72.7" fill="#666"><tspan x="15" y="72.72">The share of total consumer expenditure per person spent on food versus the annual per capita spend on food, measured in</tspan><tspan x="15" y="88.56">US$.</tspan></text></g><g><g class="AxisBoxView"><g class="HorizontalAxis"><text font-size="12.60" x="246.1" y="554.0"><tspan x="246.119" y="553.98">Annual food expenditure per person (US$)</tspan></text><text x="75.2" y="533.9" fill="#666" text-anchor="middle" font-size="16.2">$258</text><text x="189.1" y="533.9" fill="#666" text-anchor="middle" font-size="16.2">$1,000</text><text x="266" y="533.9" fill="#666" text-anchor="middle" font-size="16.2">$1,500</text><text x="342.8" y="533.9" fill="#666" text-anchor="middle" font-size="16.2">$2,000</text><text x="419.6" y="533.9" fill="#666" text-anchor="middle" font-size="16.2">$2,500</text><text x="496.4" y="533.9" fill="#666" text-anchor="middle" font-size="16.2">$3,000</text><text x="573.2" y="533.9" fill="#666" text-anchor="middle" font-size="16.2">$3,500</text><text x="650" y="533.9" fill="#666" text-anchor="middle" font-size="16.2">$4,000</text><text x="715" y="533.9" fill="#666" text-anchor="middle" font-size="16.2">$4,423</text></g><g class="VerticalAxis"><text font-size="12.60" x="-446.5" y="25.1" transform="rotate(-90)"><tspan x="-446.50699999999995" y="25.080000000000002">Share of total expenditure spent on food</tspan></text><text x="70.16" y="512.7" fill="#666" dominant-baseline="middle" text-anchor="end" font-size="16.2">0%</text><text x="70.16" y="444.6" fill="#666" dominant-baseline="middle" text-anchor="end" font-size="16.2">10%</text><text x="70.16" y="376.6" fill="#666" dominant-baseline="middle" text-anchor="end" font-size="16.2">20%</text><text x="70.16" y="308.5" fill="#666" dominant-baseline="middle" text-anchor="end" font-size="16.2">30%</text><text x="70.16" y="240.4" fill="#666" dominant-baseline="middle" text-anchor="end" font-size="16.2">40%</text><text x="70.16" y="172.4" fill="#666" dominant-baseline="middle" text-anchor="end" font-size="16.2">50%</text></g><g class="AxisGridLines"><line x1="75.16" y1="512.7" x2="715.00" y2="512.7" stroke="#ccc"></line><line x1="75.16" y1="444.6" x2="715.00" y2="444.6" stroke="#ddd" stroke-dasharray="3,2"></line><line x1="75.16" y1="376.6" x2="715.00" y2="376.6" stroke="#ddd" stroke-dasharray="3,2"></line><line x1="75.16" y1="308.5" x2="715.00" y2="308.5" stroke="#ddd" stroke-dasharray="3,2"></line><line x1="75.16" y1="240.4" x2="715.00" y2="240.4" stroke="#ddd" stroke-dasharray="3,2"></line><line x1="75.16" y1="172.4" x2="715.00" y2="172.4" stroke="#ddd" stroke-dasharray="3,2"></line></g><g class="AxisGridLines"><line x1="112.3" y1="512.70" x2="112.3" y2="111.10" stroke="#ddd" stroke-dasharray="3,2"></line><line x1="189.1" y1="512.70" x2="189.1" y2="111.10" stroke="#ddd" stroke-dasharray="3,2"></line><line x1="266" y1="512.70" x2="266" y2="111.10" stroke="#ddd" stroke-dasharray="3,2"></line><line x1="342.8" y1="512.70" x2="342.8" y2="111.10" stroke="#ddd" stroke-dasharray="3,2"></line><line x1="419.6" y1="512.70" x2="419.6" y2="111.10" stroke="#ddd" stroke-dasharray="3,2"></line><line x1="496.4" y1="512.70" x2="496.4" y2="111.10" stroke="#ddd" stroke-dasharray="3,2"></line><line x1="573.2" y1="512.70" x2="573.2" y2="111.10" stroke="#ddd" stroke-dasharray="3,2"></line><line x1="650" y1="512.70" x2="650" y2="111.10" stroke="#ddd" stroke-dasharray="3,2"></line></g></g><g clip-path="url(#scatterBounds-917)" font-family="Arial Narrow, Arial, sans-serif" class="PointsWithLabels clickable"><rect x="75.162" y="111.1" width="639.838" height="401.59999999999997" fill="rgba(255,255,255,0)"></rect><defs><clipPath id="scatterBounds-917"><rect x="65.162" y="101.1" width="659.838" height="421.59999999999997"></rect></clipPath></defs><g class="key-China_0"><circle cx="144.00" cy="363.00" r="17.84" fill="#d14e5b" opacity="0.8" stroke="#333" stroke-width="0.7"></circle></g><g class="key-India_0"><circle cx="83.00" cy="308.00" r="17.29" fill="#d14e5b" opacity="0.8" stroke="#333" stroke-width="0.7"></circle></g><g class="key-United-States_0"><circle cx="405.00" cy="471.00" r="8.77" fill="#4d824b" opacity="0.8" stroke="#333" stroke-width="0.7"></circle></g><g class="key-Indonesia_0"><circle cx="133.00" cy="301.00" r="7.77" fill="#d14e5b" opacity="0.8" stroke="#333" stroke-width="0.7"></circle></g><g class="key-Brazil_0"><circle cx="163.00" cy="403.00" r="7.03" fill="#69c487" opacity="0.8" stroke="#333" stroke-width="0.7"></circle></g><g class="key-Pakistan_0"><circle cx="110.00" cy="226.00" r="6.75" fill="#d14e5b" opacity="0.8" stroke="#333" stroke-width="0.7"></circle></g><g class="key-Nigeria_0"><circle cx="193.00" cy="111.00" r="6.53" fill="#5675c1" opacity="0.8" stroke="#333" stroke-width="0.7"></circle></g><g class="key-Russia_0"><circle cx="236.00" cy="308.00" r="6.01" fill="#ffd336" opacity="0.8" stroke="#333" stroke-width="0.7"></circle></g><g class="key-Japan_0"><circle cx="499.00" cy="417.00" r="5.69" fill="#d14e5b" opacity="0.8" stroke="#333" stroke-width="0.7"></circle></g><g class="key-Mexico_0"><circle cx="240.00" cy="356.00" r="5.50" fill="#4d824b" opacity="0.8" stroke="#333" stroke-width="0.7"></circle></g><g class="key-Philippines_0"><circle cx="177.00" cy="226.00" r="5.08" fill="#d14e5b" opacity="0.8" stroke="#333" stroke-width="0.7"></circle></g><g class="key-Vietnam_0"><circle cx="129.00" cy="247.00" r="4.91" fill="#d14e5b" opacity="0.8" stroke="#333" stroke-width="0.7"></circle></g><g class="key-Egypt_0"><circle cx="177.00" cy="260.00" r="4.78" fill="#5675c1" opacity="0.8" stroke="#333" stroke-width="0.7"></circle></g><g class="key-Germany_0"><circle cx="380.00" cy="437.00" r="4.69" fill="#ffd336" opacity="0.8" stroke="#333" stroke-width="0.7"></circle></g><g class="key-Iran_0"><circle cx="127.00" cy="349.00" r="4.56" fill="#d14e5b" opacity="0.8" stroke="#fff" stroke-width="0.7"></circle></g><g class="key-Turkey_0"><circle cx="261.00" cy="369.00" r="4.53" fill="#d14e5b" opacity="0.8" stroke="#333" stroke-width="0.7"></circle></g><g class="key-Thailand_0"><circle cx="171.00" cy="335.00" r="4.40" fill="#d14e5b" opacity="0.8" stroke="#333" stroke-width="0.7"></circle></g><g class="key-France_0"><circle cx="454.00" cy="424.00" r="4.22" fill="#ffd336" opacity="0.8" stroke="#333" stroke-width="0.7"></circle></g><g class="key-United-Kingdom_0"><circle cx="341.00" cy="458.00" r="4.21" fill="#ffd336" opacity="0.8" stroke="#fff" stroke-width="0.7"></circle></g><g class="key-Italy_0"><circle cx="444.00" cy="417.00" r="4.15" fill="#ffd336" opacity="0.8" stroke="#fff" stroke-width="0.7"></circle></g><g class="key-South-Africa_0"><circle cx="129.00" cy="383.00" r="3.85" fill="#5675c1" opacity="0.8" stroke="#333" stroke-width="0.7"></circle></g><g class="key-South-Korea_0"><circle cx="294.00" cy="424.00" r="3.79" fill="#d14e5b" opacity="0.8" stroke="#333" stroke-width="0.7"></circle></g><g class="key-Colombia_0"><circle cx="134.00" cy="397.00" r="3.77" fill="#69c487" opacity="0.8" stroke="#fff" stroke-width="0.7"></circle></g><g class="key-Spain_0"><circle cx="364.00" cy="417.00" r="3.73" fill="#ffd336" opacity="0.8" stroke="#333" stroke-width="0.7"></circle></g><g class="key-Ukraine_0"><circle cx="118.00" cy="254.00" r="3.66" fill="#ffd336" opacity="0.8" stroke="#fff" stroke-width="0.7"></circle></g><g class="key-Kenya_0"><circle cx="132.00" cy="158.00" r="3.64" fill="#5675c1" opacity="0.8" stroke="#333" stroke-width="0.7"></circle></g><g class="key-Argentina_0"><circle cx="389.00" cy="322.00" r="3.56" fill="#69c487" opacity="0.8" stroke="#333" stroke-width="0.7"></circle></g><g class="key-Poland_0"><circle cx="217.00" cy="397.00" r="3.45" fill="#ffd336" opacity="0.8" stroke="#333" stroke-width="0.7"></circle></g><g class="key-Algeria_0"><circle cx="133.00" cy="260.00" r="3.41" fill="#5675c1" opacity="0.8" stroke="#333" stroke-width="0.7"></circle></g><g class="key-Canada_0"><circle cx="368.00" cy="451.00" r="3.34" fill="#4d824b" opacity="0.8" stroke="#333" stroke-width="0.7"></circle></g><g class="key-Morocco_0"><circle cx="144.00" cy="274.00" r="3.27" fill="#5675c1" opacity="0.8" stroke="#333" stroke-width="0.7"></circle></g><g class="key-Venezuela_0"><circle cx="75.00" cy="383.00" r="3.17" fill="#69c487" opacity="0.8" stroke="#333" stroke-width="0.7"></circle></g><g class="key-Peru_0"><circle cx="199.00" cy="335.00" r="3.16" fill="#69c487" opacity="0.8" stroke="#fff" stroke-width="0.7"></circle></g><g class="key-Malaysia_0"><circle cx="207.00" cy="369.00" r="3.15" fill="#d14e5b" opacity="0.8" stroke="#333" stroke-width="0.7"></circle></g><g class="key-Saudi-Arabia_0"><circle cx="291.00" cy="369.00" r="3.14" fill="#d14e5b" opacity="0.8" stroke="#fff" stroke-width="0.7"></circle></g><g class="key-Uzbekistan_0"><circle cx="92.00" cy="308.00" r="3.10" fill="#d14e5b" opacity="0.8" stroke="#333" stroke-width="0.7"></circle></g><g class="key-Australia_0"><circle cx="485.00" cy="444.00" r="2.90" fill="#a652ba" opacity="0.8" stroke="#333" stroke-width="0.7"></circle></g><g class="key-Taiwan_0"><circle cx="294.00" cy="417.00" r="2.90" fill="#d14e5b" opacity="0.8" stroke="#fff" stroke-width="0.7"></circle></g><g class="key-Romania_0"><circle cx="298.00" cy="308.00" r="2.83" fill="#ffd336" opacity="0.8" stroke="#333" stroke-width="0.7"></circle></g><g class="key-Cameroon_0"><circle cx="104.00" cy="206.00" r="2.81" fill="#5675c1" opacity="0.8" stroke="#333" stroke-width="0.7"></circle></g><g class="key-Chile_0"><circle cx="250.00" cy="403.00" r="2.67" fill="#69c487" opacity="0.8" stroke="#fff" stroke-width="0.7"></circle></g><g class="key-Netherlands_0"><circle cx="395.00" cy="431.00" r="2.63" fill="#ffd336" opacity="0.8" stroke="#fff" stroke-width="0.7"></circle></g><g class="key-Kazakhstan_0"><circle cx="303.00" cy="220.00" r="2.62" fill="#d14e5b" opacity="0.8" stroke="#333" stroke-width="0.7"></circle></g><g class="key-Guatemala_0"><circle cx="258.00" cy="233.00" r="2.58" fill="#4d824b" opacity="0.8" stroke="#333" stroke-width="0.7"></circle></g><g class="key-Ecuador_0"><circle cx="165.00" cy="363.00" r="2.56" fill="#69c487" opacity="0.8" stroke="#333" stroke-width="0.7"></circle></g><g class="key-Greece_0"><circle cx="380.00" cy="397.00" r="2.39" fill="#ffd336" opacity="0.8" stroke="#333" stroke-width="0.7"></circle></g><g class="key-Belgium_0"><circle cx="451.00" cy="424.00" r="2.35" fill="#ffd336" opacity="0.8" stroke="#fff" stroke-width="0.7"></circle></g><g class="key-Tunisia_0"><circle cx="130.00" cy="363.00" r="2.35" fill="#5675c1" opacity="0.8" stroke="#fff" stroke-width="0.7"></circle></g><g class="key-Portugal_0"><circle cx="390.00" cy="397.00" r="2.35" fill="#ffd336" opacity="0.8" stroke="#fff" stroke-width="0.7"></circle></g><g class="key-Czech-Republic_0"><circle cx="267.00" cy="397.00" r="2.34" fill="#ffd336" opacity="0.8" stroke="#333" stroke-width="0.7"></circle></g><g class="key-Bolivia_0"><circle cx="136.00" cy="315.00" r="2.33" fill="#69c487" opacity="0.8" stroke="#fff" stroke-width="0.7"></circle></g><g class="key-Dominican-Republic_0"><circle cx="248.00" cy="328.00" r="2.33" fill="#4d824b" opacity="0.8" stroke="#333" stroke-width="0.7"></circle></g><g class="key-Hungary_0"><circle cx="219.00" cy="390.00" r="2.31" fill="#ffd336" opacity="0.8" stroke="#fff" stroke-width="0.7"></circle></g><g class="key-Serbia_0"><circle cx="179.00" cy="349.00" r="2.31" fill="#ffd336" opacity="0.8" stroke="#fff" stroke-width="0.7"></circle></g><g class="key-Sweden_0"><circle cx="468.00" cy="424.00" r="2.29" fill="#ffd336" opacity="0.8" stroke="#fff" stroke-width="0.7"></circle></g><g class="key-Azerbaijan_0"><circle cx="173.00" cy="247.00" r="2.29" fill="#d14e5b" opacity="0.8" stroke="#fff" stroke-width="0.7"></circle></g><g class="key-Belarus_0"><circle cx="183.00" cy="267.00" r="2.29" fill="#ffd336" opacity="0.8" stroke="#fff" stroke-width="0.7"></circle></g><g class="key-Austria_0"><circle cx="384.00" cy="444.00" r="2.23" fill="#ffd336" opacity="0.8" stroke="#fff" stroke-width="0.7"></circle></g><g class="key-United-Arab-Emirates_0"><circle cx="488.00" cy="417.00" r="2.22" fill="#d14e5b" opacity="0.8" stroke="#fff" stroke-width="0.7"></circle></g><g class="key-Israel_0"><circle cx="545.00" cy="403.00" r="2.20" fill="#d14e5b" opacity="0.8" stroke="#333" stroke-width="0.7"></circle></g><g class="key-Switzerland_0"><circle cx="593.00" cy="451.00" r="2.20" fill="#ffd336" opacity="0.8" stroke="#333" stroke-width="0.7"></circle></g><g class="key-Bulgaria_0"><circle cx="170.00" cy="383.00" r="2.18" fill="#ffd336" opacity="0.8" stroke="#fff" stroke-width="0.7"></circle></g><g class="key-Hong-Kong_0"><circle cx="715.00" cy="417.00" r="2.17" fill="#d14e5b" opacity="0.8" stroke="#333" stroke-width="0.7"></circle></g><g class="key-Jordan_0"><circle cx="201.00" cy="308.00" r="2.14" fill="#d14e5b" opacity="0.8" stroke="#333" stroke-width="0.7"></circle></g><g class="key-Denmark_0"><circle cx="468.00" cy="437.00" r="2.08" fill="#ffd336" opacity="0.8" stroke="#fff" stroke-width="0.7"></circle></g><g class="key-Slovakia_0"><circle cx="278.00" cy="390.00" r="2.08" fill="#ffd336" opacity="0.8" stroke="#fff" stroke-width="0.7"></circle></g><g class="key-Finland_0"><circle cx="459.00" cy="431.00" r="2.07" fill="#ffd336" opacity="0.8" stroke="#fff" stroke-width="0.7"></circle></g><g class="key-Singapore_0"><circle cx="234.00" cy="465.00" r="2.07" fill="#d14e5b" opacity="0.8" stroke="#333" stroke-width="0.7"></circle></g><g class="key-Turkmenistan_0"><circle cx="287.00" cy="254.00" r="2.06" fill="#d14e5b" opacity="0.8" stroke="#333" stroke-width="0.7"></circle></g><g class="key-Norway_0"><circle cx="576.00" cy="431.00" r="2.05" fill="#ffd336" opacity="0.8" stroke="#333" stroke-width="0.7"></circle></g><g class="key-Costa-Rica_0"><circle cx="357.00" cy="335.00" r="2.04" fill="#4d824b" opacity="0.8" stroke="#333" stroke-width="0.7"></circle></g><g class="key-Ireland_0"><circle cx="338.00" cy="451.00" r="2.03" fill="#ffd336" opacity="0.8" stroke="#fff" stroke-width="0.7"></circle></g><g class="key-New-Zealand_0"><circle cx="519.00" cy="417.00" r="2.02" fill="#a652ba" opacity="0.8" stroke="#fff" stroke-width="0.7"></circle></g><g class="key-Croatia_0"><circle cx="368.00" cy="349.00" r="2.01" fill="#ffd336" opacity="0.8" stroke="#333" stroke-width="0.7"></circle></g><g class="key-Georgia_0"><circle cx="161.00" cy="301.00" r="2.01" fill="#d14e5b" opacity="0.8" stroke="#fff" stroke-width="0.7"></circle></g><g class="key-Bosnia-and-Herzegovina_0"><circle cx="223.00" cy="301.00" r="1.98" fill="#ffd336" opacity="0.8" stroke="#fff" stroke-width="0.7"></circle></g><g class="key-Uruguay_0"><circle cx="341.00" cy="383.00" r="1.96" fill="#69c487" opacity="0.8" stroke="#333" stroke-width="0.7"></circle></g><g class="key-Lithuania_0"><circle cx="375.00" cy="356.00" r="1.95" fill="#ffd336" opacity="0.8" stroke="#fff" stroke-width="0.7"></circle></g><g class="key-Kuwait_0"><circle cx="281.00" cy="390.00" r="1.93" fill="#d14e5b" opacity="0.8" stroke="#fff" stroke-width="0.7"></circle></g><g class="key-Latvia_0"><circle cx="283.00" cy="383.00" r="1.88" fill="#ffd336" opacity="0.8" stroke="#333" stroke-width="0.7"></circle></g><g class="key-Macedonia_0"><circle cx="205.00" cy="294.00" r="1.88" fill="#ffd336" opacity="0.8" stroke="#fff" stroke-width="0.7"></circle></g><g class="key-Slovenia_0"><circle cx="315.00" cy="410.00" r="1.87" fill="#ffd336" opacity="0.8" stroke="#333" stroke-width="0.7"></circle></g><g class="key-Qatar_0"><circle cx="276.00" cy="431.00" r="1.87" fill="#d14e5b" opacity="0.8" stroke="#fff" stroke-width="0.7"></circle></g><g class="key-Bahrain_0"><circle cx="242.00" cy="424.00" r="1.83" fill="#d14e5b" opacity="0.8" stroke="#333" stroke-width="0.7"></circle></g><g class="key-Estonia_0"><circle cx="335.00" cy="369.00" r="1.83" fill="#ffd336" opacity="0.8" stroke="#333" stroke-width="0.7"></circle></g><g class="key-Montenegro_0"><circle cx="215.00" cy="390.00" r="1.78" fill="#ffd336" opacity="0.8" stroke="#fff" stroke-width="0.7"></circle></g><g fill="#333" class="backgroundLabels"><text x="144.00" y="344.16" font-size="14.30">China</text><text x="83.00" y="289.71" font-size="14.10">India</text><text x="405.00" y="461.23" font-size="11.77">United States</text><text x="133.00" y="292.23" font-size="11.60">Indonesia</text><text x="163.00" y="394.97" font-size="11.48">Brazil</text><text x="110.00" y="218.25" font-size="11.44">Pakistan</text><text x="193.00" y="122.51" font-size="11.41">Nigeria</text><text x="236.00" y="300.99" font-size="11.34">Russia</text><text x="499.00" y="410.31" font-size="11.31">Japan</text><text x="240.00" y="349.50" font-size="11.28">Mexico</text><text x="177.00" y="219.92" font-size="11.24">Philippines</text><text x="129.00" y="241.09" font-size="11.22">Vietnam</text><text x="177.00" y="254.22" font-size="11.21">Egypt</text><text x="380.00" y="431.31" font-size="11.20">Germany</text><text x="261.00" y="363.47" font-size="11.18">Turkey</text><text x="171.00" y="329.60" font-size="11.17">Thailand</text><text x="454.00" y="418.78" font-size="11.15">France</text><text x="129.00" y="378.15" font-size="11.12">South Africa</text><text x="294.00" y="419.21" font-size="11.12">South Korea</text><text x="364.00" y="412.27" font-size="11.11">Spain</text><text x="132.00" y="153.36" font-size="11.11">Kenya</text><text x="389.00" y="317.44" font-size="11.10">Argentina</text><text x="217.00" y="392.55" font-size="11.09">Poland</text><text x="133.00" y="255.59" font-size="11.09">Algeria</text><text x="368.00" y="446.66" font-size="11.08">Canada</text><text x="144.00" y="269.73" font-size="11.08">Morocco</text><text x="75.00" y="378.83" font-size="11.07">Venezuela</text><text x="207.00" y="364.85" font-size="11.07">Malaysia</text><text x="92.00" y="303.90" font-size="11.07">Uzbekistan</text><text x="485.00" y="440.10" font-size="11.05">Australia</text><text x="298.00" y="304.17" font-size="11.05">Romania</text><text x="104.00" y="202.19" font-size="11.05">Cameroon</text><text x="303.00" y="216.38" font-size="11.04">Kazakhstan</text><text x="258.00" y="229.42" font-size="11.04">Guatemala</text><text x="165.00" y="359.44" font-size="11.04">Ecuador</text><text x="380.00" y="393.61" font-size="11.03">Greece</text><text x="267.00" y="393.66" font-size="11.02">Czech Republic</text><text x="248.00" y="324.67" font-size="11.02">Dominican Republic</text><text x="545.00" y="399.80" font-size="11.02">Israel</text><text x="593.00" y="447.80" font-size="11.02">Switzerland</text><text x="659.59" y="413.83" font-size="11.02">Hong Kong</text><text x="201.00" y="304.86" font-size="11.01">Jordan</text><text x="234.00" y="461.93" font-size="11.01">Singapore</text><text x="287.00" y="250.94" font-size="11.01">Turkmenistan</text><text x="576.00" y="427.95" font-size="11.01">Norway</text><text x="357.00" y="331.96" font-size="11.01">Costa Rica</text><text x="368.00" y="345.99" font-size="11.01">Croatia</text><text x="341.00" y="380.04" font-size="11.01">Uruguay</text><text x="283.00" y="380.12" font-size="11.00">Latvia</text><text x="315.00" y="407.13" font-size="11.00">Slovenia</text><text x="242.00" y="421.17" font-size="11.00">Bahrain</text><text x="335.00" y="366.17" font-size="11.00">Estonia</text></g></g><g style="cursor: pointer;" class="ScatterColorLegend clickable"><g class="legendMark"><rect x="735" y="108.6" width="43.256" height="17.6" fill="#fff" opacity="0"></rect>,<rect x="735" y="114.1" width="6" height="6" fill="#5675c1"></rect>,<text font-size="12.60" x="746.0" y="121.2"><tspan x="746" y="121.17999999999999">Africa</tspan></text></g><g class="legendMark"><rect x="735" y="126.19999999999999" width="35.57" height="17.6" fill="#fff" opacity="0"></rect>,<rect x="735" y="131.7" width="6" height="6" fill="#d14e5b"></rect>,<text font-size="12.60" x="746.0" y="138.8"><tspan x="746" y="138.77999999999997">Asia</tspan></text></g><g class="legendMark"><rect x="735" y="143.8" width="51.824" height="17.6" fill="#fff" opacity="0"></rect>,<rect x="735" y="149.3" width="6" height="6" fill="#ffd336"></rect>,<text font-size="12.60" x="746.0" y="156.4"><tspan x="746" y="156.38">Europe</tspan></text></g><g class="legendMark"><rect x="735" y="161.4" width="91.64" height="17.6" fill="#fff" opacity="0"></rect>,<rect x="735" y="166.9" width="6" height="6" fill="#4d824b"></rect>,<text font-size="12.60" x="746.0" y="174.0"><tspan x="746" y="173.98">North America</tspan></text></g><g class="legendMark"><rect x="735" y="179" width="58.124" height="17.6" fill="#fff" opacity="0"></rect>,<rect x="735" y="184.5" width="6" height="6" fill="#a652ba"></rect>,<text font-size="12.60" x="746.0" y="191.6"><tspan x="746" y="191.57999999999998">Oceania</tspan></text></g><g class="legendMark"><rect x="735" y="196.6" width="93.908" height="17.6" fill="#fff" opacity="0"></rect>,<rect x="735" y="202.1" width="6" height="6" fill="#69c487"></rect>,<text font-size="12.60" x="746.0" y="209.2"><tspan x="746" y="209.17999999999998">South America</tspan></text></g></g></g><g style="fill: #777;" class="SourcesFooter"><g style="fill: #777;" class="clickable"><text font-size="12.60" x="15.0" y="581.6"><tspan x="15" y="581.58">Source: United States Department for Agriculture (USDA)</tspan></text></g><text font-size="12.60" x="579.5" y="581.6"><tspan x="579.472" y="581.58"><a target='_blank' style='fill: #777;' href='https://ourworldindata.org/food-prices/'>OurWorldInData.org/food-prices/</a> • <a style="fill: #777;" href="http://creativecommons.org/licenses/by-sa/4.0/deed.en_US" target="_blank">CC BY-SA</a></tspan></text></g></g></svg>