<svg xmlns="http://www.w3.org/2000/svg" version="1.1" style="font-family: 'Helvetica Neue', Helvetica, Arial, sans-serif; font-size: 24px; background-color: white;" width="1200" height="630"><g class="ChartTab"><g class="LineChart"><defs><clipPath id="boundsClip-1451"><rect x="53.416000000000004" y="0" width="1180" height="1130"></rect></clipPath></defs><g class="AxisBoxView"><g class="HorizontalAxis"><text x="63.4" y="600" fill="#666" text-anchor="middle" font-size="21.6">1955</text><text x="145.1" y="600" fill="#666" text-anchor="middle" font-size="21.6">1960</text><text x="308.6" y="600" fill="#666" text-anchor="middle" font-size="21.6">1970</text><text x="472.1" y="600" fill="#666" text-anchor="middle" font-size="21.6">1980</text><text x="635.6" y="600" fill="#666" text-anchor="middle" font-size="21.6">1990</text><text x="799" y="600" fill="#666" text-anchor="middle" font-size="21.6">2000</text><text x="962.5" y="600" fill="#666" text-anchor="middle" font-size="21.6">2010</text><text x="1044.2" y="600" fill="#666" text-anchor="middle" font-size="21.6">2015</text></g><g class="VerticalAxis"><text x="58.42" y="573.4" fill="#666" dominant-baseline="middle" text-anchor="end" font-size="21.6">0%</text><text x="58.42" y="506.9" fill="#666" dominant-baseline="middle" text-anchor="end" font-size="21.6">5%</text><text x="58.42" y="440.5" fill="#666" dominant-baseline="middle" text-anchor="end" font-size="21.6">10%</text><text x="58.42" y="374" fill="#666" dominant-baseline="middle" text-anchor="end" font-size="21.6">15%</text><text x="58.42" y="307.5" fill="#666" dominant-baseline="middle" text-anchor="end" font-size="21.6">20%</text><text x="58.42" y="241.1" fill="#666" dominant-baseline="middle" text-anchor="end" font-size="21.6">25%</text><text x="58.42" y="174.6" fill="#666" dominant-baseline="middle" text-anchor="end" font-size="21.6">30%</text><text x="58.42" y="108.1" fill="#666" dominant-baseline="middle" text-anchor="end" font-size="21.6">35%</text><text x="58.42" y="41.6" fill="#666" dominant-baseline="middle" text-anchor="end" font-size="21.6">40%</text></g><g class="AxisGridLines"><line x1="63.42" y1="573.4" x2="1044.22" y2="573.4" stroke="#ccc"></line><line x1="63.42" y1="506.9" x2="1044.22" y2="506.9" stroke="#ddd" stroke-dasharray="3,2"></line><line x1="63.42" y1="440.5" x2="1044.22" y2="440.5" stroke="#ddd" stroke-dasharray="3,2"></line><line x1="63.42" y1="374" x2="1044.22" y2="374" stroke="#ddd" stroke-dasharray="3,2"></line><line x1="63.42" y1="307.5" x2="1044.22" y2="307.5" stroke="#ddd" stroke-dasharray="3,2"></line><line x1="63.42" y1="241.1" x2="1044.22" y2="241.1" stroke="#ddd" stroke-dasharray="3,2"></line><line x1="63.42" y1="174.6" x2="1044.22" y2="174.6" stroke="#ddd" stroke-dasharray="3,2"></line><line x1="63.42" y1="108.1" x2="1044.22" y2="108.1" stroke="#ddd" stroke-dasharray="3,2"></line><line x1="63.42" y1="41.6" x2="1044.22" y2="41.6" stroke="#ddd" stroke-dasharray="3,2"></line></g><g class="AxisGridLines"><line x1="145.1" y1="573.40" x2="145.1" y2="35.00" stroke="#ddd" stroke-dasharray="3,2"></line><line x1="308.6" y1="573.40" x2="308.6" y2="35.00" stroke="#ddd" stroke-dasharray="3,2"></line><line x1="472.1" y1="573.40" x2="472.1" y2="35.00" stroke="#ddd" stroke-dasharray="3,2"></line><line x1="635.6" y1="573.40" x2="635.6" y2="35.00" stroke="#ddd" stroke-dasharray="3,2"></line><line x1="799" y1="573.40" x2="799" y2="35.00" stroke="#ddd" stroke-dasharray="3,2"></line><line x1="962.5" y1="573.40" x2="962.5" y2="35.00" stroke="#ddd" stroke-dasharray="3,2"></line></g></g><g clip-path="url(#boundsClip-1451)"><g class="HeightedLegend clickable"><g class="legendMark"><rect x="1054.224" y="95.9" width="77.01600000000002" height="19.200000000000003" fill="#fff" opacity="0"></rect><rect x="1054.224" y="104.25" width="10" height="2.5" fill="#6bb537"></rect><text font-size="19.20" x="1069.2" y="111.3" fill="#333"><tspan x="1069.224" y="111.26">Taiwan</tspan></text></g><g class="legendMark"><rect x="1054.224" y="192.9" width="90.84000000000002" height="19.200000000000003" fill="#fff" opacity="0"></rect><rect x="1054.224" y="201.25" width="10" height="2.5" fill="#34983f"></rect><text font-size="19.20" x="1069.2" y="208.3" fill="#333"><tspan x="1069.224" y="208.26000000000002">Malaysia</tspan></text></g><g class="legendMark"><rect x="1054.224" y="215.5" width="122.32800000000002" height="19.200000000000003" fill="#fff" opacity="0"></rect><rect x="1054.224" y="223.85" width="10" height="2.5" fill="#9ecc8a"></rect><text font-size="19.20" x="1069.2" y="230.9" fill="#333"><tspan x="1069.224" y="230.85999999999999">South Korea</tspan></text></g><g class="legendMark"><rect x="1054.224" y="262" width="67.608" height="19.200000000000003" fill="#fff" opacity="0"></rect><rect x="1054.224" y="270.35" width="10" height="2.5" fill="#2a939b"></rect><text font-size="19.20" x="1069.2" y="277.4" fill="#333"><tspan x="1069.224" y="277.36">Japan</tspan></text></g><g class="legendMark"><rect x="1054.224" y="347.09999999999997" width="69.72" height="19.200000000000003" fill="#fff" opacity="0"></rect><rect x="1054.224" y="355.45" width="10" height="2.5" fill="#ca2628"></rect><text font-size="19.20" x="1069.2" y="362.5" fill="#333"><tspan x="1069.224" y="362.46">Kenya</tspan></text></g><g class="legendMark"><rect x="1054.224" y="366.29999999999995" width="130.776" height="19.200000000000003" fill="#fff" opacity="0"></rect><rect x="1054.224" y="374.65" width="10" height="2.5" fill="#a652ba"></rect><text font-size="19.20" x="1069.2" y="381.7" fill="#333"><tspan x="1069.224" y="381.65999999999997">United States</tspan></text></g><g class="legendMark"><rect x="1054.224" y="385.49999999999994" width="85.84800000000001" height="19.200000000000003" fill="#fff" opacity="0"></rect><rect x="1054.224" y="393.84999999999997" width="10" height="2.5" fill="#ed6c2d"></rect><text font-size="19.20" x="1069.2" y="400.9" fill="#333"><tspan x="1069.224" y="400.85999999999996">Senegal</tspan></text></g><g class="legendMark"><rect x="1054.224" y="432.2" width="84.69600000000001" height="19.200000000000003" fill="#fff" opacity="0"></rect><rect x="1054.224" y="440.55" width="10" height="2.5" fill="#f9bc8f"></rect><text font-size="19.20" x="1069.2" y="447.6" fill="#333"><tspan x="1069.224" y="447.56">Ethiopia</tspan></text></g><g class="legendMark"><rect x="1054.224" y="451.4" width="74.71200000000002" height="19.200000000000003" fill="#fff" opacity="0"></rect><rect x="1054.224" y="459.75" width="10" height="2.5" fill="#d26e66"></rect><text font-size="19.20" x="1069.2" y="466.8" fill="#333"><tspan x="1069.224" y="466.76">Malawi</tspan></text></g></g><g class="Lines"><rect x="63" y="35" width="981" height="538" fill="rgba(255,255,255,0)" opacity="0"></rect><g class="key-Senegal_0"><path stroke="#ed6c2d" stroke-linecap="round" d="M309 479L325 479L341 480L358 484L374 475L390 478L407 471L423 468L439 480L456 474L472 479L488 478L505 472L521 476L538 476L554 478L570 476L587 472L603 472L619 475L636 474L652 472L668 468L685 466L701 462L717 455L734 450L750 444L766 435L783 433L799 429L815 422L832 415L848 413L864 403L881 398L897 399L913 393L930 398L946 395L963 389" fill="none" stroke-width="1.5"></path><g fill="#ed6c2d"><circle cx="309" cy="479" r="2"></circle><circle cx="325" cy="479" r="2"></circle><circle cx="341" cy="480" r="2"></circle><circle cx="358" cy="484" r="2"></circle><circle cx="374" cy="475" r="2"></circle><circle cx="390" cy="478" r="2"></circle><circle cx="407" cy="471" r="2"></circle><circle cx="423" cy="468" r="2"></circle><circle cx="439" cy="480" r="2"></circle><circle cx="456" cy="474" r="2"></circle><circle cx="472" cy="479" r="2"></circle><circle cx="488" cy="478" r="2"></circle><circle cx="505" cy="472" r="2"></circle><circle cx="521" cy="476" r="2"></circle><circle cx="538" cy="476" r="2"></circle><circle cx="554" cy="478" r="2"></circle><circle cx="570" cy="476" r="2"></circle><circle cx="587" cy="472" r="2"></circle><circle cx="603" cy="472" r="2"></circle><circle cx="619" cy="475" r="2"></circle><circle cx="636" cy="474" r="2"></circle><circle cx="652" cy="472" r="2"></circle><circle cx="668" cy="468" r="2"></circle><circle cx="685" cy="466" r="2"></circle><circle cx="701" cy="462" r="2"></circle><circle cx="717" cy="455" r="2"></circle><circle cx="734" cy="450" r="2"></circle><circle cx="750" cy="444" r="2"></circle><circle cx="766" cy="435" r="2"></circle><circle cx="783" cy="433" r="2"></circle><circle cx="799" cy="429" r="2"></circle><circle cx="815" cy="422" r="2"></circle><circle cx="832" cy="415" r="2"></circle><circle cx="848" cy="413" r="2"></circle><circle cx="864" cy="403" r="2"></circle><circle cx="881" cy="398" r="2"></circle><circle cx="897" cy="399" r="2"></circle><circle cx="913" cy="393" r="2"></circle><circle cx="930" cy="398" r="2"></circle><circle cx="946" cy="395" r="2"></circle><circle cx="963" cy="389" r="2"></circle></g></g><g class="key-United-States_0"><path stroke="#a652ba" stroke-linecap="round" d="M63 129L80 128L96 132L113 153L129 145L145 151L162 159L178 155L194 155L211 155L227 148L243 143L260 151L276 153L292 153L309 167L325 177L341 175L358 169L374 176L390 203L407 199L423 195L439 192L456 191L472 204L488 209L505 228L521 236L538 232L554 237L570 245L587 253L603 254L619 261L636 268L652 278L668 284L685 286L701 288L717 290L734 292L750 293L766 294L783 298L799 302L815 320L832 332L848 337L864 337L881 338L897 339L913 343L930 351L946 370L963 377L979 377L995 377L1012 377L1028 377L1044 375" fill="none" stroke-width="1.5"></path><g fill="#a652ba"><circle cx="63" cy="129" r="2"></circle><circle cx="80" cy="128" r="2"></circle><circle cx="96" cy="132" r="2"></circle><circle cx="113" cy="153" r="2"></circle><circle cx="129" cy="145" r="2"></circle><circle cx="145" cy="151" r="2"></circle><circle cx="162" cy="159" r="2"></circle><circle cx="178" cy="155" r="2"></circle><circle cx="194" cy="155" r="2"></circle><circle cx="211" cy="155" r="2"></circle><circle cx="227" cy="148" r="2"></circle><circle cx="243" cy="143" r="2"></circle><circle cx="260" cy="151" r="2"></circle><circle cx="276" cy="153" r="2"></circle><circle cx="292" cy="153" r="2"></circle><circle cx="309" cy="167" r="2"></circle><circle cx="325" cy="177" r="2"></circle><circle cx="341" cy="175" r="2"></circle><circle cx="358" cy="169" r="2"></circle><circle cx="374" cy="176" r="2"></circle><circle cx="390" cy="203" r="2"></circle><circle cx="407" cy="199" r="2"></circle><circle cx="423" cy="195" r="2"></circle><circle cx="439" cy="192" r="2"></circle><circle cx="456" cy="191" r="2"></circle><circle cx="472" cy="204" r="2"></circle><circle cx="488" cy="209" r="2"></circle><circle cx="505" cy="228" r="2"></circle><circle cx="521" cy="236" r="2"></circle><circle cx="538" cy="232" r="2"></circle><circle cx="554" cy="237" r="2"></circle><circle cx="570" cy="245" r="2"></circle><circle cx="587" cy="253" r="2"></circle><circle cx="603" cy="254" r="2"></circle><circle cx="619" cy="261" r="2"></circle><circle cx="636" cy="268" r="2"></circle><circle cx="652" cy="278" r="2"></circle><circle cx="668" cy="284" r="2"></circle><circle cx="685" cy="286" r="2"></circle><circle cx="701" cy="288" r="2"></circle><circle cx="717" cy="290" r="2"></circle><circle cx="734" cy="292" r="2"></circle><circle cx="750" cy="293" r="2"></circle><circle cx="766" cy="294" r="2"></circle><circle cx="783" cy="298" r="2"></circle><circle cx="799" cy="302" r="2"></circle><circle cx="815" cy="320" r="2"></circle><circle cx="832" cy="332" r="2"></circle><circle cx="848" cy="337" r="2"></circle><circle cx="864" cy="337" r="2"></circle><circle cx="881" cy="338" r="2"></circle><circle cx="897" cy="339" r="2"></circle><circle cx="913" cy="343" r="2"></circle><circle cx="930" cy="351" r="2"></circle><circle cx="946" cy="370" r="2"></circle><circle cx="963" cy="377" r="2"></circle><circle cx="979" cy="377" r="2"></circle><circle cx="995" cy="377" r="2"></circle><circle cx="1012" cy="377" r="2"></circle><circle cx="1028" cy="377" r="2"></circle><circle cx="1044" cy="375" r="2"></circle></g></g><g class="key-Taiwan_0"><path stroke="#6bb537" stroke-linecap="round" d="M194 332L211 313L227 290L243 288L260 262L276 253L292 241L309 220L325 195L341 171L358 147L374 139L390 131L407 112L423 96L439 74L456 48L472 38L488 39L505 55L521 58L538 42L554 51L570 51L587 35L603 39L619 43L636 58L652 67L668 72L685 78L701 76L717 80L734 91L750 82L766 80L783 87L799 88L815 99L832 108L848 113L864 108L881 102L897 99L913 96L930 96L946 109L963 109L979 104L995 106" fill="none" stroke-width="1.5"></path><g fill="#6bb537"><circle cx="194" cy="332" r="2"></circle><circle cx="211" cy="313" r="2"></circle><circle cx="227" cy="290" r="2"></circle><circle cx="243" cy="288" r="2"></circle><circle cx="260" cy="262" r="2"></circle><circle cx="276" cy="253" r="2"></circle><circle cx="292" cy="241" r="2"></circle><circle cx="309" cy="220" r="2"></circle><circle cx="325" cy="195" r="2"></circle><circle cx="341" cy="171" r="2"></circle><circle cx="358" cy="147" r="2"></circle><circle cx="374" cy="139" r="2"></circle><circle cx="390" cy="131" r="2"></circle><circle cx="407" cy="112" r="2"></circle><circle cx="423" cy="96" r="2"></circle><circle cx="439" cy="74" r="2"></circle><circle cx="456" cy="48" r="2"></circle><circle cx="472" cy="38" r="2"></circle><circle cx="488" cy="39" r="2"></circle><circle cx="505" cy="55" r="2"></circle><circle cx="521" cy="58" r="2"></circle><circle cx="538" cy="42" r="2"></circle><circle cx="554" cy="51" r="2"></circle><circle cx="570" cy="51" r="2"></circle><circle cx="587" cy="35" r="2"></circle><circle cx="603" cy="39" r="2"></circle><circle cx="619" cy="43" r="2"></circle><circle cx="636" cy="58" r="2"></circle><circle cx="652" cy="67" r="2"></circle><circle cx="668" cy="72" r="2"></circle><circle cx="685" cy="78" r="2"></circle><circle cx="701" cy="76" r="2"></circle><circle cx="717" cy="80" r="2"></circle><circle cx="734" cy="91" r="2"></circle><circle cx="750" cy="82" r="2"></circle><circle cx="766" cy="80" r="2"></circle><circle cx="783" cy="87" r="2"></circle><circle cx="799" cy="88" r="2"></circle><circle cx="815" cy="99" r="2"></circle><circle cx="832" cy="108" r="2"></circle><circle cx="848" cy="113" r="2"></circle><circle cx="864" cy="108" r="2"></circle><circle cx="881" cy="102" r="2"></circle><circle cx="897" cy="99" r="2"></circle><circle cx="913" cy="96" r="2"></circle><circle cx="930" cy="96" r="2"></circle><circle cx="946" cy="109" r="2"></circle><circle cx="963" cy="109" r="2"></circle><circle cx="979" cy="104" r="2"></circle><circle cx="995" cy="106" r="2"></circle></g></g><g class="key-South-Korea_0"><path stroke="#9ecc8a" stroke-linecap="round" d="M63 468L194 419L211 419L227 391L243 391L260 358L276 334L292 329L309 338L325 333L341 328L358 304L374 277L390 253L407 217L423 201L439 176L456 168L472 184L488 200L505 199L521 183L538 161L554 161L570 147L587 119L603 108L619 107L636 104L652 96L668 109L685 128L701 133L717 133L734 144L750 160L766 205L783 212L799 203L815 212L832 213L848 211L864 212L881 220L897 228L913 233L930 233L946 233L963 225" fill="none" stroke-width="1.5"></path><g fill="#9ecc8a"><circle cx="63" cy="468" r="2"></circle><circle cx="194" cy="419" r="2"></circle><circle cx="211" cy="419" r="2"></circle><circle cx="227" cy="391" r="2"></circle><circle cx="243" cy="391" r="2"></circle><circle cx="260" cy="358" r="2"></circle><circle cx="276" cy="334" r="2"></circle><circle cx="292" cy="329" r="2"></circle><circle cx="309" cy="338" r="2"></circle><circle cx="325" cy="333" r="2"></circle><circle cx="341" cy="328" r="2"></circle><circle cx="358" cy="304" r="2"></circle><circle cx="374" cy="277" r="2"></circle><circle cx="390" cy="253" r="2"></circle><circle cx="407" cy="217" r="2"></circle><circle cx="423" cy="201" r="2"></circle><circle cx="439" cy="176" r="2"></circle><circle cx="456" cy="168" r="2"></circle><circle cx="472" cy="184" r="2"></circle><circle cx="488" cy="200" r="2"></circle><circle cx="505" cy="199" r="2"></circle><circle cx="521" cy="183" r="2"></circle><circle cx="538" cy="161" r="2"></circle><circle cx="554" cy="161" r="2"></circle><circle cx="570" cy="147" r="2"></circle><circle cx="587" cy="119" r="2"></circle><circle cx="603" cy="108" r="2"></circle><circle cx="619" cy="107" r="2"></circle><circle cx="636" cy="104" r="2"></circle><circle cx="652" cy="96" r="2"></circle><circle cx="668" cy="109" r="2"></circle><circle cx="685" cy="128" r="2"></circle><circle cx="701" cy="133" r="2"></circle><circle cx="717" cy="133" r="2"></circle><circle cx="734" cy="144" r="2"></circle><circle cx="750" cy="160" r="2"></circle><circle cx="766" cy="205" r="2"></circle><circle cx="783" cy="212" r="2"></circle><circle cx="799" cy="203" r="2"></circle><circle cx="815" cy="212" r="2"></circle><circle cx="832" cy="213" r="2"></circle><circle cx="848" cy="211" r="2"></circle><circle cx="864" cy="212" r="2"></circle><circle cx="881" cy="220" r="2"></circle><circle cx="897" cy="228" r="2"></circle><circle cx="913" cy="233" r="2"></circle><circle cx="930" cy="233" r="2"></circle><circle cx="946" cy="233" r="2"></circle><circle cx="963" cy="225" r="2"></circle></g></g><g class="key-Japan_0"><path stroke="#2a939b" stroke-linecap="round" d="M63 265L80 252L96 233L113 220L129 211L145 199L162 185L178 173L194 168L211 161L227 159L243 157L260 147L276 147L292 144L309 140L325 137L341 135L358 125L374 131L390 145L407 147L423 153L439 156L456 156L472 152L488 153L505 159L521 160L538 159L554 157L570 159L587 161L603 153L619 147L636 145L652 140L668 141L685 147L701 153L717 163L734 167L750 168L766 181L783 187L799 191L815 200L832 209L848 216L864 225L881 232L897 232L913 233L930 244L946 260L963 268L979 270L995 272" fill="none" stroke-width="1.5"></path><g fill="#2a939b"><circle cx="63" cy="265" r="2"></circle><circle cx="80" cy="252" r="2"></circle><circle cx="96" cy="233" r="2"></circle><circle cx="113" cy="220" r="2"></circle><circle cx="129" cy="211" r="2"></circle><circle cx="145" cy="199" r="2"></circle><circle cx="162" cy="185" r="2"></circle><circle cx="178" cy="173" r="2"></circle><circle cx="194" cy="168" r="2"></circle><circle cx="211" cy="161" r="2"></circle><circle cx="227" cy="159" r="2"></circle><circle cx="243" cy="157" r="2"></circle><circle cx="260" cy="147" r="2"></circle><circle cx="276" cy="147" r="2"></circle><circle cx="292" cy="144" r="2"></circle><circle cx="309" cy="140" r="2"></circle><circle cx="325" cy="137" r="2"></circle><circle cx="341" cy="135" r="2"></circle><circle cx="358" cy="125" r="2"></circle><circle cx="374" cy="131" r="2"></circle><circle cx="390" cy="145" r="2"></circle><circle cx="407" cy="147" r="2"></circle><circle cx="423" cy="153" r="2"></circle><circle cx="439" cy="156" r="2"></circle><circle cx="456" cy="156" r="2"></circle><circle cx="472" cy="152" r="2"></circle><circle cx="488" cy="153" r="2"></circle><circle cx="505" cy="159" r="2"></circle><circle cx="521" cy="160" r="2"></circle><circle cx="538" cy="159" r="2"></circle><circle cx="554" cy="157" r="2"></circle><circle cx="570" cy="159" r="2"></circle><circle cx="587" cy="161" r="2"></circle><circle cx="603" cy="153" r="2"></circle><circle cx="619" cy="147" r="2"></circle><circle cx="636" cy="145" r="2"></circle><circle cx="652" cy="140" r="2"></circle><circle cx="668" cy="141" r="2"></circle><circle cx="685" cy="147" r="2"></circle><circle cx="701" cy="153" r="2"></circle><circle cx="717" cy="163" r="2"></circle><circle cx="734" cy="167" r="2"></circle><circle cx="750" cy="168" r="2"></circle><circle cx="766" cy="181" r="2"></circle><circle cx="783" cy="187" r="2"></circle><circle cx="799" cy="191" r="2"></circle><circle cx="815" cy="200" r="2"></circle><circle cx="832" cy="209" r="2"></circle><circle cx="848" cy="216" r="2"></circle><circle cx="864" cy="225" r="2"></circle><circle cx="881" cy="232" r="2"></circle><circle cx="897" cy="232" r="2"></circle><circle cx="913" cy="233" r="2"></circle><circle cx="930" cy="244" r="2"></circle><circle cx="946" cy="260" r="2"></circle><circle cx="963" cy="268" r="2"></circle><circle cx="979" cy="270" r="2"></circle><circle cx="995" cy="272" r="2"></circle></g></g><g class="key-Malaysia_0"><path stroke="#34983f" stroke-linecap="round" d="M390 362L407 325L423 318L439 318L456 312L472 301L488 294L505 286L521 280L538 274L554 286L570 301L587 304L603 294L619 269L636 246L652 224L668 197L685 187L701 164L717 144L734 127L750 115L766 140L783 140L799 132L815 127L832 144L848 143L864 171L881 175L897 172L913 193L930 189L946 211L963 211L979 203" fill="none" stroke-width="1.5"></path><g fill="#34983f"><circle cx="390" cy="362" r="2"></circle><circle cx="407" cy="325" r="2"></circle><circle cx="423" cy="318" r="2"></circle><circle cx="439" cy="318" r="2"></circle><circle cx="456" cy="312" r="2"></circle><circle cx="472" cy="301" r="2"></circle><circle cx="488" cy="294" r="2"></circle><circle cx="505" cy="286" r="2"></circle><circle cx="521" cy="280" r="2"></circle><circle cx="538" cy="274" r="2"></circle><circle cx="554" cy="286" r="2"></circle><circle cx="570" cy="301" r="2"></circle><circle cx="587" cy="304" r="2"></circle><circle cx="603" cy="294" r="2"></circle><circle cx="619" cy="269" r="2"></circle><circle cx="636" cy="246" r="2"></circle><circle cx="652" cy="224" r="2"></circle><circle cx="668" cy="197" r="2"></circle><circle cx="685" cy="187" r="2"></circle><circle cx="701" cy="164" r="2"></circle><circle cx="717" cy="144" r="2"></circle><circle cx="734" cy="127" r="2"></circle><circle cx="750" cy="115" r="2"></circle><circle cx="766" cy="140" r="2"></circle><circle cx="783" cy="140" r="2"></circle><circle cx="799" cy="132" r="2"></circle><circle cx="815" cy="127" r="2"></circle><circle cx="832" cy="144" r="2"></circle><circle cx="848" cy="143" r="2"></circle><circle cx="864" cy="171" r="2"></circle><circle cx="881" cy="175" r="2"></circle><circle cx="897" cy="172" r="2"></circle><circle cx="913" cy="193" r="2"></circle><circle cx="930" cy="189" r="2"></circle><circle cx="946" cy="211" r="2"></circle><circle cx="963" cy="211" r="2"></circle><circle cx="979" cy="203" r="2"></circle></g></g><g class="key-Kenya_0"><path stroke="#ca2628" stroke-linecap="round" d="M292 514L309 510L325 506L341 510L358 508L374 508L390 514L407 512L423 514L439 512L456 512L472 511L488 510L505 508L521 506L538 506L554 503L570 499L587 495L603 492L619 487L636 483L652 478L668 471L685 463L701 455L717 442L734 434L750 425L766 415L783 406L799 402L815 397L832 390L848 383L864 377L881 367L897 366L913 363L930 361L946 361L963 358L979 357" fill="none" stroke-width="1.5"></path><g fill="#ca2628"><circle cx="292" cy="514" r="2"></circle><circle cx="309" cy="510" r="2"></circle><circle cx="325" cy="506" r="2"></circle><circle cx="341" cy="510" r="2"></circle><circle cx="358" cy="508" r="2"></circle><circle cx="374" cy="508" r="2"></circle><circle cx="390" cy="514" r="2"></circle><circle cx="407" cy="512" r="2"></circle><circle cx="423" cy="514" r="2"></circle><circle cx="439" cy="512" r="2"></circle><circle cx="456" cy="512" r="2"></circle><circle cx="472" cy="511" r="2"></circle><circle cx="488" cy="510" r="2"></circle><circle cx="505" cy="508" r="2"></circle><circle cx="521" cy="506" r="2"></circle><circle cx="538" cy="506" r="2"></circle><circle cx="554" cy="503" r="2"></circle><circle cx="570" cy="499" r="2"></circle><circle cx="587" cy="495" r="2"></circle><circle cx="603" cy="492" r="2"></circle><circle cx="619" cy="487" r="2"></circle><circle cx="636" cy="483" r="2"></circle><circle cx="652" cy="478" r="2"></circle><circle cx="668" cy="471" r="2"></circle><circle cx="685" cy="463" r="2"></circle><circle cx="701" cy="455" r="2"></circle><circle cx="717" cy="442" r="2"></circle><circle cx="734" cy="434" r="2"></circle><circle cx="750" cy="425" r="2"></circle><circle cx="766" cy="415" r="2"></circle><circle cx="783" cy="406" r="2"></circle><circle cx="799" cy="402" r="2"></circle><circle cx="815" cy="397" r="2"></circle><circle cx="832" cy="390" r="2"></circle><circle cx="848" cy="383" r="2"></circle><circle cx="864" cy="377" r="2"></circle><circle cx="881" cy="367" r="2"></circle><circle cx="897" cy="366" r="2"></circle><circle cx="913" cy="363" r="2"></circle><circle cx="930" cy="361" r="2"></circle><circle cx="946" cy="361" r="2"></circle><circle cx="963" cy="358" r="2"></circle><circle cx="979" cy="357" r="2"></circle></g></g><g class="key-Ethiopia_0"><path stroke="#f9bc8f" stroke-linecap="round" d="M162 554L178 554L194 554L211 551L227 550L243 548L260 546L276 547L292 546L309 544L325 543L341 543L358 543L374 546L390 547L407 548L423 550L439 551L456 548L472 547L488 548L505 548L521 548L538 548L554 548L570 547L587 546L603 544L619 544L636 546L652 548L668 550L685 540L701 539L717 535L734 532L750 530L766 528L783 526L799 522L815 519L832 516L848 514L864 508L881 500L897 492L913 487L930 478L946 470L963 458L979 442" fill="none" stroke-width="1.5"></path><g fill="#f9bc8f"><circle cx="162" cy="554" r="2"></circle><circle cx="178" cy="554" r="2"></circle><circle cx="194" cy="554" r="2"></circle><circle cx="211" cy="551" r="2"></circle><circle cx="227" cy="550" r="2"></circle><circle cx="243" cy="548" r="2"></circle><circle cx="260" cy="546" r="2"></circle><circle cx="276" cy="547" r="2"></circle><circle cx="292" cy="546" r="2"></circle><circle cx="309" cy="544" r="2"></circle><circle cx="325" cy="543" r="2"></circle><circle cx="341" cy="543" r="2"></circle><circle cx="358" cy="543" r="2"></circle><circle cx="374" cy="546" r="2"></circle><circle cx="390" cy="547" r="2"></circle><circle cx="407" cy="548" r="2"></circle><circle cx="423" cy="550" r="2"></circle><circle cx="439" cy="551" r="2"></circle><circle cx="456" cy="548" r="2"></circle><circle cx="472" cy="547" r="2"></circle><circle cx="488" cy="548" r="2"></circle><circle cx="505" cy="548" r="2"></circle><circle cx="521" cy="548" r="2"></circle><circle cx="538" cy="548" r="2"></circle><circle cx="554" cy="548" r="2"></circle><circle cx="570" cy="547" r="2"></circle><circle cx="587" cy="546" r="2"></circle><circle cx="603" cy="544" r="2"></circle><circle cx="619" cy="544" r="2"></circle><circle cx="636" cy="546" r="2"></circle><circle cx="652" cy="548" r="2"></circle><circle cx="668" cy="550" r="2"></circle><circle cx="685" cy="540" r="2"></circle><circle cx="701" cy="539" r="2"></circle><circle cx="717" cy="535" r="2"></circle><circle cx="734" cy="532" r="2"></circle><circle cx="750" cy="530" r="2"></circle><circle cx="766" cy="528" r="2"></circle><circle cx="783" cy="526" r="2"></circle><circle cx="799" cy="522" r="2"></circle><circle cx="815" cy="519" r="2"></circle><circle cx="832" cy="516" r="2"></circle><circle cx="848" cy="514" r="2"></circle><circle cx="864" cy="508" r="2"></circle><circle cx="881" cy="500" r="2"></circle><circle cx="897" cy="492" r="2"></circle><circle cx="913" cy="487" r="2"></circle><circle cx="930" cy="478" r="2"></circle><circle cx="946" cy="470" r="2"></circle><circle cx="963" cy="458" r="2"></circle><circle cx="979" cy="442" r="2"></circle></g></g><g class="key-Malawi_0"><path stroke="#d26e66" stroke-linecap="round" d="M243 498L260 506L276 506L292 504L309 503L325 504L341 494L358 500L374 498L390 491L407 496L423 495L439 487L456 488L472 496L488 512L505 515L521 508L538 508L554 504L570 498L587 514L603 514L619 514L636 511L652 511L668 511L685 516L701 516L717 518L734 515L750 516L766 516L783 512L799 512L815 516L832 512L848 507L864 503L881 496L897 486L913 474L930 464L946 460L963 452" fill="none" stroke-width="1.5"></path><g fill="#d26e66"><circle cx="243" cy="498" r="2"></circle><circle cx="260" cy="506" r="2"></circle><circle cx="276" cy="506" r="2"></circle><circle cx="292" cy="504" r="2"></circle><circle cx="309" cy="503" r="2"></circle><circle cx="325" cy="504" r="2"></circle><circle cx="341" cy="494" r="2"></circle><circle cx="358" cy="500" r="2"></circle><circle cx="374" cy="498" r="2"></circle><circle cx="390" cy="491" r="2"></circle><circle cx="407" cy="496" r="2"></circle><circle cx="423" cy="495" r="2"></circle><circle cx="439" cy="487" r="2"></circle><circle cx="456" cy="488" r="2"></circle><circle cx="472" cy="496" r="2"></circle><circle cx="488" cy="512" r="2"></circle><circle cx="505" cy="515" r="2"></circle><circle cx="521" cy="508" r="2"></circle><circle cx="538" cy="508" r="2"></circle><circle cx="554" cy="504" r="2"></circle><circle cx="570" cy="498" r="2"></circle><circle cx="587" cy="514" r="2"></circle><circle cx="603" cy="514" r="2"></circle><circle cx="619" cy="514" r="2"></circle><circle cx="636" cy="511" r="2"></circle><circle cx="652" cy="511" r="2"></circle><circle cx="668" cy="511" r="2"></circle><circle cx="685" cy="516" r="2"></circle><circle cx="701" cy="516" r="2"></circle><circle cx="717" cy="518" r="2"></circle><circle cx="734" cy="515" r="2"></circle><circle cx="750" cy="516" r="2"></circle><circle cx="766" cy="516" r="2"></circle><circle cx="783" cy="512" r="2"></circle><circle cx="799" cy="512" r="2"></circle><circle cx="815" cy="516" r="2"></circle><circle cx="832" cy="512" r="2"></circle><circle cx="848" cy="507" r="2"></circle><circle cx="864" cy="503" r="2"></circle><circle cx="881" cy="496" r="2"></circle><circle cx="897" cy="486" r="2"></circle><circle cx="913" cy="474" r="2"></circle><circle cx="930" cy="464" r="2"></circle><circle cx="946" cy="460" r="2"></circle><circle cx="963" cy="452" r="2"></circle></g></g></g></g></g></g></svg>