<svg xmlns="http://www.w3.org/2000/svg" version="1.1" style="font-family: 'Helvetica Neue', Helvetica, Arial, sans-serif; font-size: 24px; background-color: white;" width="1200" height="630"><g class="ChartTab"><g class="LineChart"><defs><clipPath id="boundsClip-1499"><rect x="53.416000000000004" y="0" width="1180" height="1130"></rect></clipPath></defs><g class="AxisBoxView"><g class="HorizontalAxis"><text x="63.4" y="600" fill="#666" text-anchor="middle" font-size="21.6">1973</text><text x="219.6" y="600" fill="#666" text-anchor="middle" font-size="21.6">1980</text><text x="442.8" y="600" fill="#666" text-anchor="middle" font-size="21.6">1990</text><text x="665.9" y="600" fill="#666" text-anchor="middle" font-size="21.6">2000</text><text x="889" y="600" fill="#666" text-anchor="middle" font-size="21.6">2010</text><text x="1022.9" y="600" fill="#666" text-anchor="middle" font-size="21.6">2016</text></g><g class="VerticalAxis"><text x="58.42" y="519.4" fill="#666" dominant-baseline="middle" text-anchor="end" font-size="21.6">70%</text><text x="58.42" y="429.4" fill="#666" dominant-baseline="middle" text-anchor="end" font-size="21.6">75%</text><text x="58.42" y="339.5" fill="#666" dominant-baseline="middle" text-anchor="end" font-size="21.6">80%</text><text x="58.42" y="249.5" fill="#666" dominant-baseline="middle" text-anchor="end" font-size="21.6">85%</text><text x="58.42" y="159.6" fill="#666" dominant-baseline="middle" text-anchor="end" font-size="21.6">90%</text><text x="58.42" y="69.6" fill="#666" dominant-baseline="middle" text-anchor="end" font-size="21.6">95%</text></g><g class="AxisGridLines"><line x1="63.42" y1="519.4" x2="1022.91" y2="519.4" stroke="#ddd" stroke-dasharray="3,2"></line><line x1="63.42" y1="429.4" x2="1022.91" y2="429.4" stroke="#ddd" stroke-dasharray="3,2"></line><line x1="63.42" y1="339.5" x2="1022.91" y2="339.5" stroke="#ddd" stroke-dasharray="3,2"></line><line x1="63.42" y1="249.5" x2="1022.91" y2="249.5" stroke="#ddd" stroke-dasharray="3,2"></line><line x1="63.42" y1="159.6" x2="1022.91" y2="159.6" stroke="#ddd" stroke-dasharray="3,2"></line><line x1="63.42" y1="69.6" x2="1022.91" y2="69.6" stroke="#ddd" stroke-dasharray="3,2"></line></g><g class="AxisGridLines"><line x1="219.6" y1="573.40" x2="219.6" y2="35.00" stroke="#ddd" stroke-dasharray="3,2"></line><line x1="442.8" y1="573.40" x2="442.8" y2="35.00" stroke="#ddd" stroke-dasharray="3,2"></line><line x1="665.9" y1="573.40" x2="665.9" y2="35.00" stroke="#ddd" stroke-dasharray="3,2"></line><line x1="889" y1="573.40" x2="889" y2="35.00" stroke="#ddd" stroke-dasharray="3,2"></line></g></g><g clip-path="url(#boundsClip-1499)"><g class="HeightedLegend clickable"><g class="legendMark"><rect x="1032.912" y="33" width="118.87200000000001" height="19.200000000000003" fill="#fff" opacity="0"></rect><rect x="1032.912" y="41.35" width="10" height="2.5" fill="#f6a324"></rect><text font-size="19.20" x="1047.9" y="48.4" fill="#333"><tspan x="1047.912" y="48.36">Netherlands</tspan></text></g><g class="legendMark"><rect x="1032.912" y="95" width="152.08800000000002" height="19.200000000000003" fill="#fff" opacity="0"></rect><rect x="1032.912" y="103.35" width="10" height="2.5" fill="#3360a9"></rect><text font-size="19.20" x="1047.9" y="110.4" fill="#333"><tspan x="1047.912" y="110.36">United Kingdom</tspan></text></g><g class="legendMark"><rect x="1032.912" y="256.79999999999995" width="74.90400000000001" height="19.200000000000003" fill="#fff" opacity="0"></rect><rect x="1032.912" y="265.15" width="10" height="2.5" fill="#7ec7ce"></rect><text font-size="19.20" x="1047.9" y="272.2" fill="#333"><tspan x="1047.912" y="272.15999999999997">France</tspan></text></g></g><g class="Lines"><rect x="63" y="35" width="959" height="538" fill="rgba(255,255,255,0)" opacity="0"></rect><g class="key-Netherlands_0"><path stroke="#f6a324" stroke-linecap="round" d="M63 106L108 228L130 150L153 129L175 103L197 75L220 82L242 118L264 103L287 117L309 115L331 163L354 122L376 137L398 144L420 88L443 104L465 82L487 102L510 90L532 114L577 132L599 114L621 76L644 74L666 112L688 87L711 110L733 158L755 121L778 66L800 69L822 54L844 35L867 52L889 69L911 46L934 84L956 75L978 62L1001 57L1023 43" fill="none" stroke-width="1.5"></path><g fill="#f6a324"><circle cx="63" cy="106" r="2"></circle><circle cx="108" cy="228" r="2"></circle><circle cx="130" cy="150" r="2"></circle><circle cx="153" cy="129" r="2"></circle><circle cx="175" cy="103" r="2"></circle><circle cx="197" cy="75" r="2"></circle><circle cx="220" cy="82" r="2"></circle><circle cx="242" cy="118" r="2"></circle><circle cx="264" cy="103" r="2"></circle><circle cx="287" cy="117" r="2"></circle><circle cx="309" cy="115" r="2"></circle><circle cx="331" cy="163" r="2"></circle><circle cx="354" cy="122" r="2"></circle><circle cx="376" cy="137" r="2"></circle><circle cx="398" cy="144" r="2"></circle><circle cx="420" cy="88" r="2"></circle><circle cx="443" cy="104" r="2"></circle><circle cx="465" cy="82" r="2"></circle><circle cx="487" cy="102" r="2"></circle><circle cx="510" cy="90" r="2"></circle><circle cx="532" cy="114" r="2"></circle><circle cx="577" cy="132" r="2"></circle><circle cx="599" cy="114" r="2"></circle><circle cx="621" cy="76" r="2"></circle><circle cx="644" cy="74" r="2"></circle><circle cx="666" cy="112" r="2"></circle><circle cx="688" cy="87" r="2"></circle><circle cx="711" cy="110" r="2"></circle><circle cx="733" cy="158" r="2"></circle><circle cx="755" cy="121" r="2"></circle><circle cx="778" cy="66" r="2"></circle><circle cx="800" cy="69" r="2"></circle><circle cx="822" cy="54" r="2"></circle><circle cx="844" cy="35" r="2"></circle><circle cx="867" cy="52" r="2"></circle><circle cx="889" cy="69" r="2"></circle><circle cx="911" cy="46" r="2"></circle><circle cx="934" cy="84" r="2"></circle><circle cx="956" cy="75" r="2"></circle><circle cx="978" cy="62" r="2"></circle><circle cx="1001" cy="57" r="2"></circle><circle cx="1023" cy="43" r="2"></circle></g></g><g class="key-France_0"><path stroke="#7ec7ce" stroke-linecap="round" d="M63 394L108 450L130 500L153 518L175 513L197 530L220 498L242 520L264 407L287 458L309 489L331 507L354 476L376 463L398 573L420 400L443 393L465 392L487 474L510 505L532 435L577 354L599 452L621 480L644 340L666 336L688 355L711 365L733 423L755 303L778 295L800 250L822 278L844 355L867 276L889 286L911 339L934 248L956 279L978 264L1001 241L1023 266" fill="none" stroke-width="1.5"></path><g fill="#7ec7ce"><circle cx="63" cy="394" r="2"></circle><circle cx="108" cy="450" r="2"></circle><circle cx="130" cy="500" r="2"></circle><circle cx="153" cy="518" r="2"></circle><circle cx="175" cy="513" r="2"></circle><circle cx="197" cy="530" r="2"></circle><circle cx="220" cy="498" r="2"></circle><circle cx="242" cy="520" r="2"></circle><circle cx="264" cy="407" r="2"></circle><circle cx="287" cy="458" r="2"></circle><circle cx="309" cy="489" r="2"></circle><circle cx="331" cy="507" r="2"></circle><circle cx="354" cy="476" r="2"></circle><circle cx="376" cy="463" r="2"></circle><circle cx="398" cy="573" r="2"></circle><circle cx="420" cy="400" r="2"></circle><circle cx="443" cy="393" r="2"></circle><circle cx="465" cy="392" r="2"></circle><circle cx="487" cy="474" r="2"></circle><circle cx="510" cy="505" r="2"></circle><circle cx="532" cy="435" r="2"></circle><circle cx="577" cy="354" r="2"></circle><circle cx="599" cy="452" r="2"></circle><circle cx="621" cy="480" r="2"></circle><circle cx="644" cy="340" r="2"></circle><circle cx="666" cy="336" r="2"></circle><circle cx="688" cy="355" r="2"></circle><circle cx="711" cy="365" r="2"></circle><circle cx="733" cy="423" r="2"></circle><circle cx="755" cy="303" r="2"></circle><circle cx="778" cy="295" r="2"></circle><circle cx="800" cy="250" r="2"></circle><circle cx="822" cy="278" r="2"></circle><circle cx="844" cy="355" r="2"></circle><circle cx="867" cy="276" r="2"></circle><circle cx="889" cy="286" r="2"></circle><circle cx="911" cy="339" r="2"></circle><circle cx="934" cy="248" r="2"></circle><circle cx="956" cy="279" r="2"></circle><circle cx="978" cy="264" r="2"></circle><circle cx="1001" cy="241" r="2"></circle><circle cx="1023" cy="266" r="2"></circle></g></g><g class="key-United-Kingdom_0"><path stroke="#3360a9" stroke-linecap="round" d="M63 250L108 268L130 270L153 278L175 238L197 241L220 223L242 277L264 229L287 264L309 239L331 235L354 242L376 234L398 347L420 191L443 239L465 230L487 259L510 228L532 213L577 224L599 233L621 243L644 283L666 216L688 197L711 217L733 206L755 151L778 187L800 192L822 169L844 217L867 179L889 158L911 168L934 139L956 163L978 104L1001 114L1023 105" fill="none" stroke-width="1.5"></path><g fill="#3360a9"><circle cx="63" cy="250" r="2"></circle><circle cx="108" cy="268" r="2"></circle><circle cx="130" cy="270" r="2"></circle><circle cx="153" cy="278" r="2"></circle><circle cx="175" cy="238" r="2"></circle><circle cx="197" cy="241" r="2"></circle><circle cx="220" cy="223" r="2"></circle><circle cx="242" cy="277" r="2"></circle><circle cx="264" cy="229" r="2"></circle><circle cx="287" cy="264" r="2"></circle><circle cx="309" cy="239" r="2"></circle><circle cx="331" cy="235" r="2"></circle><circle cx="354" cy="242" r="2"></circle><circle cx="376" cy="234" r="2"></circle><circle cx="398" cy="347" r="2"></circle><circle cx="420" cy="191" r="2"></circle><circle cx="443" cy="239" r="2"></circle><circle cx="465" cy="230" r="2"></circle><circle cx="487" cy="259" r="2"></circle><circle cx="510" cy="228" r="2"></circle><circle cx="532" cy="213" r="2"></circle><circle cx="577" cy="224" r="2"></circle><circle cx="599" cy="233" r="2"></circle><circle cx="621" cy="243" r="2"></circle><circle cx="644" cy="283" r="2"></circle><circle cx="666" cy="216" r="2"></circle><circle cx="688" cy="197" r="2"></circle><circle cx="711" cy="217" r="2"></circle><circle cx="733" cy="206" r="2"></circle><circle cx="755" cy="151" r="2"></circle><circle cx="778" cy="187" r="2"></circle><circle cx="800" cy="192" r="2"></circle><circle cx="822" cy="169" r="2"></circle><circle cx="844" cy="217" r="2"></circle><circle cx="867" cy="179" r="2"></circle><circle cx="889" cy="158" r="2"></circle><circle cx="911" cy="168" r="2"></circle><circle cx="934" cy="139" r="2"></circle><circle cx="956" cy="163" r="2"></circle><circle cx="978" cy="104" r="2"></circle><circle cx="1001" cy="114" r="2"></circle><circle cx="1023" cy="105" r="2"></circle></g></g></g></g></g></g></svg>