<svg xmlns="http://www.w3.org/2000/svg" version="1.1" style="font-family: 'Helvetica Neue', Helvetica, Arial, sans-serif; font-size: 18px; background-color: white; text-rendering: optimizeLegibility; -webkit-font-smoothing: antialiased;" width="850" height="600"><g class="ChartTab"><g class="HeaderView"><g opacity="0.8" transform="translate(778, 15) scale(0.27)"><a xmlns:xlink="http://www.w3.org/1999/xlink" xlink:href="https://ourworldindata.org" target="_blank"><g><rect x="0" y="0" fill="#1B2543" width="211.2" height="130.1"/><rect x="0" y="112.2" fill="#E63912" width="211.2" height="17.9"/><g><rect x="1.2" y="12.3" fill="none" width="210.2" height="99.2"/><path fill="#FFFFFF" d="M37.8,32.2c0,12.7-7.7,19.4-17.1,19.4c-9.7,0-16.6-7.5-16.6-18.7c0-11.7,7.3-19.3,17.1-19.3 C31.3,13.7,37.8,21.3,37.8,32.2z M9.2,32.8c0,7.9,4.3,14.9,11.8,14.9c7.5,0,11.8-6.9,11.8-15.3c0-7.3-3.8-14.9-11.8-14.9 C13.1,17.5,9.2,24.8,9.2,32.8z"/><path fill="#FFFFFF" d="M62.7,43.8c0,2.7,0.1,5.1,0.2,7.2h-4.3l-0.3-4.3h-0.1c-1.3,2.1-4,4.9-8.8,4.9c-4.2,0-9.1-2.3-9.1-11.6 V24.6h4.8v14.6c0,5,1.5,8.4,5.9,8.4c3.2,0,5.5-2.2,6.3-4.4c0.3-0.7,0.4-1.6,0.4-2.5V24.6h4.8V43.8z"/><path fill="#FFFFFF" d="M67.3,32.8c0-3.1-0.1-5.8-0.2-8.2h4.2l0.2,5.2h0.2c1.2-3.5,4.1-5.8,7.3-5.8c0.5,0,0.9,0.1,1.4,0.2v4.5 c-0.5-0.1-1-0.2-1.6-0.2c-3.4,0-5.8,2.6-6.5,6.2c-0.1,0.7-0.2,1.4-0.2,2.2V51h-4.8V32.8z"/><path fill="#FFFFFF" d="M95.4,51l-9.4-36.8h5l4.4,18.6c1.1,4.6,2.1,9.2,2.7,12.7h0.1c0.6-3.7,1.8-8,3-12.8l4.9-18.5h5l4.5,18.7 c1,4.4,2,8.7,2.6,12.6h0.1c0.8-4,1.8-8.1,3-12.7l4.9-18.5h4.9L120.6,51h-5L111,31.9c-1.1-4.7-1.9-8.3-2.4-12h-0.1 c-0.7,3.7-1.5,7.3-2.8,12L100.4,51H95.4z"/><path fill="#FFFFFF" d="M154.9,37.6c0,9.8-6.8,14-13.2,14c-7.2,0-12.7-5.2-12.7-13.6c0-8.8,5.8-14,13.1-14 C149.8,24,154.9,29.5,154.9,37.6z M133.9,37.9c0,5.8,3.3,10.1,8,10.1c4.6,0,8-4.3,8-10.3c0-4.5-2.2-10.1-7.9-10.1 C136.3,27.6,133.9,32.8,133.9,37.9z"/><path fill="#FFFFFF" d="M158.2,32.8c0-3.1-0.1-5.8-0.2-8.2h4.2l0.2,5.2h0.2c1.2-3.5,4.1-5.8,7.3-5.8c0.5,0,0.9,0.1,1.4,0.2v4.5 c-0.5-0.1-1-0.2-1.6-0.2c-3.4,0-5.8,2.6-6.5,6.2c-0.1,0.7-0.2,1.4-0.2,2.2V51h-4.8V32.8z"/><path fill="#FFFFFF" d="M173.5,12.3h4.8V51h-4.8V12.3z"/><path fill="#FFFFFF" d="M206.5,12.3v31.9c0,2.3,0.1,5,0.2,6.8h-4.3l-0.2-4.6H202c-1.5,2.9-4.7,5.2-9,5.2 c-6.4,0-11.3-5.4-11.3-13.4c-0.1-8.8,5.4-14.2,11.9-14.2c4,0,6.8,1.9,8,4h0.1V12.3H206.5z M201.7,35.4c0-0.6-0.1-1.4-0.2-2 c-0.7-3.1-3.3-5.6-6.9-5.6c-5,0-7.9,4.4-7.9,10.2c0,5.3,2.6,9.8,7.8,9.8c3.2,0,6.2-2.1,7.1-5.7c0.2-0.7,0.2-1.3,0.2-2.1V35.4z"/><path fill="#FFFFFF" d="M42.8,64c0.1,1.6-1.1,2.9-3.1,2.9c-1.7,0-2.9-1.3-2.9-2.9c0-1.7,1.3-3,3-3C41.7,61,42.8,62.3,42.8,64z M37.4,97.8V71.4h4.8v26.4H37.4z"/><path fill="#FFFFFF" d="M47.5,78.6c0-2.7-0.1-5-0.2-7.1h4.3l0.3,4.4h0.1c1.3-2.5,4.4-5,8.8-5c3.7,0,9.4,2.2,9.4,11.2v15.8h-4.8 V82.6c0-4.3-1.6-7.8-6.1-7.8c-3.2,0-5.6,2.2-6.5,4.9c-0.2,0.6-0.3,1.4-0.3,2.2v15.9h-4.8V78.6z"/><path fill="#FFFFFF" d="M84,61.6c2.9-0.4,6.3-0.8,10.1-0.8c6.8,0,11.7,1.6,14.9,4.6c3.3,3,5.2,7.3,5.2,13.2c0,6-1.9,10.9-5.3,14.3 c-3.4,3.4-9.1,5.3-16.3,5.3c-3.4,0-6.2-0.2-8.6-0.4V61.6z M88.8,94.1c1.2,0.2,3,0.3,4.8,0.3c10.2,0,15.7-5.7,15.7-15.6 c0.1-8.7-4.9-14.2-14.9-14.2c-2.5,0-4.3,0.2-5.6,0.5V94.1z"/><path fill="#FFFFFF" d="M132.1,97.8l-0.4-3.3h-0.2c-1.5,2.1-4.3,3.9-8.1,3.9c-5.4,0-8.1-3.8-8.1-7.6c0-6.4,5.7-9.9,15.9-9.8v-0.5 c0-2.2-0.6-6.1-6-6.1c-2.5,0-5,0.8-6.9,2l-1.1-3.2c2.2-1.4,5.4-2.3,8.7-2.3c8.1,0,10.1,5.5,10.1,10.8v9.9c0,2.3,0.1,4.5,0.4,6.3 H132.1z M131.4,84.4c-5.3-0.1-11.2,0.8-11.2,5.9c0,3.1,2.1,4.6,4.5,4.6c3.4,0,5.6-2.2,6.4-4.4c0.2-0.5,0.3-1,0.3-1.5V84.4z"/><path fill="#FFFFFF" d="M146.6,63.9v7.6h6.9v3.7h-6.9v14.2c0,3.3,0.9,5.1,3.6,5.1c1.3,0,2.2-0.2,2.8-0.3l0.2,3.6 c-0.9,0.4-2.4,0.7-4.3,0.7c-2.2,0-4-0.7-5.2-2c-1.4-1.4-1.9-3.8-1.9-6.9V75.1h-4.1v-3.7h4.1v-6.3L146.6,63.9z"/><path fill="#FFFFFF" d="M171.4,97.8l-0.4-3.3h-0.2c-1.5,2.1-4.3,3.9-8.1,3.9c-5.4,0-8.1-3.8-8.1-7.6c0-6.4,5.7-9.9,15.9-9.8v-0.5 c0-2.2-0.6-6.1-6-6.1c-2.5,0-5,0.8-6.9,2l-1.1-3.2c2.2-1.4,5.4-2.3,8.7-2.3c8.1,0,10.1,5.5,10.1,10.8v9.9c0,2.3,0.1,4.5,0.4,6.3 H171.4z M170.7,84.4c-5.3-0.1-11.2,0.8-11.2,5.9c0,3.1,2.1,4.6,4.5,4.6c3.4,0,5.6-2.2,6.4-4.4c0.2-0.5,0.3-1,0.3-1.5V84.4z"/></g></g></a></g><a href="https://ourworldindata.org/grapher/share-receiving-treatment-for-mental-health-vs-gdp-spent-on-healthcare" target="_blank"><text font-size="21.60" x="15.0" y="32.3" fill="#555"><tspan x="15" y="32.279999999999994">Share of people received any treatment for mental health vs. Share of GDP</tspan><tspan x="15" y="53.87999999999999">spent on healthcare, 2003</tspan></text></a><text font-size="14.40" x="15.0" y="72.7" fill="#666"><tspan x="15" y="72.72">Share of survey respondents who received any form of treatment for mental health and substance use disorders in the last 12</tspan><tspan x="15" y="88.56">months, versus the share of national gross domestic product (GDP) spent on healthcare.</tspan></text></g><g><g class="AxisBoxView"><g class="HorizontalAxis"><text font-size="12.60" x="268.2" y="554.0"><tspan x="268.23199999999997" y="553.98">Share of GDP spent on healthcare</tspan></text><text x="111.7" y="533.9" fill="#666" text-anchor="middle" font-size="16.2">4%</text><text x="233.6" y="533.9" fill="#666" text-anchor="middle" font-size="16.2">6%</text><text x="355.5" y="533.9" fill="#666" text-anchor="middle" font-size="16.2">8%</text><text x="477.3" y="533.9" fill="#666" text-anchor="middle" font-size="16.2">10%</text><text x="599.2" y="533.9" fill="#666" text-anchor="middle" font-size="16.2">12%</text></g><g class="VerticalAxis"><text font-size="12.60" x="-493.5" y="25.1" transform="rotate(-90)"><tspan x="-493.505" y="25.080000000000002">Share of people received any treatment for mental health</tspan></text><text x="70.16" y="512.7" fill="#666" dominant-baseline="middle" text-anchor="end" font-size="16.2">0%</text><text x="70.16" y="467.8" fill="#666" dominant-baseline="middle" text-anchor="end" font-size="16.2">2%</text><text x="70.16" y="423" fill="#666" dominant-baseline="middle" text-anchor="end" font-size="16.2">4%</text><text x="70.16" y="378.1" fill="#666" dominant-baseline="middle" text-anchor="end" font-size="16.2">6%</text><text x="70.16" y="333.2" fill="#666" dominant-baseline="middle" text-anchor="end" font-size="16.2">8%</text><text x="70.16" y="288.3" fill="#666" dominant-baseline="middle" text-anchor="end" font-size="16.2">10%</text><text x="70.16" y="243.5" fill="#666" dominant-baseline="middle" text-anchor="end" font-size="16.2">12%</text><text x="70.16" y="198.6" fill="#666" dominant-baseline="middle" text-anchor="end" font-size="16.2">14%</text><text x="70.16" y="153.7" fill="#666" dominant-baseline="middle" text-anchor="end" font-size="16.2">16%</text></g><g class="AxisGridLines"><line x1="75.16" y1="512.7" x2="715.00" y2="512.7" stroke="#ccc"></line><line x1="75.16" y1="467.8" x2="715.00" y2="467.8" stroke="#ddd" stroke-dasharray="3,2"></line><line x1="75.16" y1="423" x2="715.00" y2="423" stroke="#ddd" stroke-dasharray="3,2"></line><line x1="75.16" y1="378.1" x2="715.00" y2="378.1" stroke="#ddd" stroke-dasharray="3,2"></line><line x1="75.16" y1="333.2" x2="715.00" y2="333.2" stroke="#ddd" stroke-dasharray="3,2"></line><line x1="75.16" y1="288.3" x2="715.00" y2="288.3" stroke="#ddd" stroke-dasharray="3,2"></line><line x1="75.16" y1="243.5" x2="715.00" y2="243.5" stroke="#ddd" stroke-dasharray="3,2"></line><line x1="75.16" y1="198.6" x2="715.00" y2="198.6" stroke="#ddd" stroke-dasharray="3,2"></line><line x1="75.16" y1="153.7" x2="715.00" y2="153.7" stroke="#ddd" stroke-dasharray="3,2"></line></g><g class="AxisGridLines"><line x1="111.7" y1="512.70" x2="111.7" y2="111.10" stroke="#ddd" stroke-dasharray="3,2"></line><line x1="233.6" y1="512.70" x2="233.6" y2="111.10" stroke="#ddd" stroke-dasharray="3,2"></line><line x1="355.5" y1="512.70" x2="355.5" y2="111.10" stroke="#ddd" stroke-dasharray="3,2"></line><line x1="477.3" y1="512.70" x2="477.3" y2="111.10" stroke="#ddd" stroke-dasharray="3,2"></line><line x1="599.2" y1="512.70" x2="599.2" y2="111.10" stroke="#ddd" stroke-dasharray="3,2"></line></g></g><g clip-path="url(#scatterBounds-947)" font-family="Arial Narrow, Arial, sans-serif" class="PointsWithLabels clickable"><rect x="75.162" y="111.1" width="639.838" height="401.59999999999997" fill="rgba(255,255,255,0)"></rect><defs><clipPath id="scatterBounds-947"><rect x="65.162" y="101.1" width="659.838" height="421.59999999999997"></rect></clipPath></defs><g class="key-China_0"><circle cx="203.00" cy="436.00" r="17.84" fill="#d14e5b" opacity="0.8" stroke="#333" stroke-width="0.7"></circle></g><g class="key-United-States_0"><circle cx="715.00" cy="111.00" r="8.57" fill="#4d824b" opacity="0.8" stroke="#333" stroke-width="0.7"></circle></g><g class="key-Nigeria_0"><circle cx="75.00" cy="476.00" r="5.89" fill="#5675c1" opacity="0.8" stroke="#333" stroke-width="0.7"></circle></g><g class="key-Japan_0"><circle cx="355.00" cy="387.00" r="5.75" fill="#d14e5b" opacity="0.8" stroke="#333" stroke-width="0.7"></circle></g><g class="key-Mexico_0"><circle cx="239.00" cy="398.00" r="5.25" fill="#4d824b" opacity="0.8" stroke="#333" stroke-width="0.7"></circle></g><g class="key-Germany_0"><circle cx="526.00" cy="331.00" r="4.73" fill="#ffd336" opacity="0.8" stroke="#333" stroke-width="0.7"></circle></g><g class="key-France_0"><circle cx="453.00" cy="259.00" r="4.11" fill="#ffd336" opacity="0.8" stroke="#333" stroke-width="0.7"></circle></g><g class="key-Italy_0"><circle cx="398.00" cy="416.00" r="4.05" fill="#ffd336" opacity="0.8" stroke="#333" stroke-width="0.7"></circle></g><g class="key-Ukraine_0"><circle cx="130.00" cy="351.00" r="3.72" fill="#ffd336" opacity="0.8" stroke="#333" stroke-width="0.7"></circle></g><g class="key-South-Africa_0"><circle cx="392.00" cy="167.00" r="3.69" fill="#5675c1" opacity="0.8" stroke="#333" stroke-width="0.7"></circle></g><g class="key-Spain_0"><circle cx="325.00" cy="360.00" r="3.53" fill="#ffd336" opacity="0.8" stroke="#333" stroke-width="0.7"></circle></g><g class="key-Colombia_0"><circle cx="203.00" cy="389.00" r="3.52" fill="#69c487" opacity="0.8" stroke="#fff" stroke-width="0.7"></circle></g><g class="key-Netherlands_0"><circle cx="410.00" cy="268.00" r="2.48" fill="#ffd336" opacity="0.8" stroke="#fff" stroke-width="0.7"></circle></g><g class="key-Belgium_0"><circle cx="410.00" cy="268.00" r="2.18" fill="#ffd336" opacity="0.8" stroke="#333" stroke-width="0.7"></circle></g><g class="key-Israel_0"><circle cx="379.00" cy="315.00" r="1.94" fill="#d14e5b" opacity="0.8" stroke="#333" stroke-width="0.7"></circle></g><g class="key-New-Zealand_0"><circle cx="373.00" cy="203.00" r="1.79" fill="#a652ba" opacity="0.8" stroke="#333" stroke-width="0.7"></circle></g><g class="key-Lebanon_0"><circle cx="611.00" cy="414.00" r="1.78" fill="#d14e5b" opacity="0.8" stroke="#333" stroke-width="0.7"></circle></g><g fill="#333" class="backgroundLabels"><text x="203.00" y="417.16" font-size="14.30">China</text><text x="644.24" y="122.84" font-size="11.74">United States</text><text x="75.00" y="469.11" font-size="11.33">Nigeria</text><text x="355.00" y="380.25" font-size="11.31">Japan</text><text x="239.00" y="391.75" font-size="11.26">Mexico</text><text x="526.00" y="325.27" font-size="11.20">Germany</text><text x="453.00" y="253.89" font-size="11.14">France</text><text x="398.00" y="410.95" font-size="11.14">Italy</text><text x="130.00" y="346.28" font-size="11.11">Ukraine</text><text x="392.00" y="162.31" font-size="11.11">South Africa</text><text x="325.00" y="355.47" font-size="11.10">Spain</text><text x="410.00" y="264.82" font-size="11.02">Belgium</text><text x="379.00" y="312.06" font-size="11.01">Israel</text><text x="373.00" y="200.21" font-size="11.00">New Zealand</text><text x="611.00" y="411.22" font-size="11.00">Lebanon</text></g></g><g style="cursor: pointer;" class="ScatterColorLegend clickable"><g class="legendMark"><rect x="735" y="108.6" width="43.256" height="17.6" fill="#fff" opacity="0"></rect>,<rect x="735" y="114.1" width="6" height="6" fill="#5675c1"></rect>,<text font-size="12.60" x="746.0" y="121.2"><tspan x="746" y="121.17999999999999">Africa</tspan></text></g><g class="legendMark"><rect x="735" y="126.19999999999999" width="35.57" height="17.6" fill="#fff" opacity="0"></rect>,<rect x="735" y="131.7" width="6" height="6" fill="#d14e5b"></rect>,<text font-size="12.60" x="746.0" y="138.8"><tspan x="746" y="138.77999999999997">Asia</tspan></text></g><g class="legendMark"><rect x="735" y="143.8" width="51.824" height="17.6" fill="#fff" opacity="0"></rect>,<rect x="735" y="149.3" width="6" height="6" fill="#ffd336"></rect>,<text font-size="12.60" x="746.0" y="156.4"><tspan x="746" y="156.38">Europe</tspan></text></g><g class="legendMark"><rect x="735" y="161.4" width="91.64" height="17.6" fill="#fff" opacity="0"></rect>,<rect x="735" y="166.9" width="6" height="6" fill="#4d824b"></rect>,<text font-size="12.60" x="746.0" y="174.0"><tspan x="746" y="173.98">North America</tspan></text></g><g class="legendMark"><rect x="735" y="179" width="58.124" height="17.6" fill="#fff" opacity="0"></rect>,<rect x="735" y="184.5" width="6" height="6" fill="#a652ba"></rect>,<text font-size="12.60" x="746.0" y="191.6"><tspan x="746" y="191.57999999999998">Oceania</tspan></text></g><g class="legendMark"><rect x="735" y="196.6" width="93.908" height="17.6" fill="#fff" opacity="0"></rect>,<rect x="735" y="202.1" width="6" height="6" fill="#69c487"></rect>,<text font-size="12.60" x="746.0" y="209.2"><tspan x="746" y="209.17999999999998">South America</tspan></text></g></g></g><g style="fill: #777;" class="SourcesFooter"><g style="fill: #777;" class="clickable"><text font-size="12.60" x="15.0" y="581.6"><tspan x="15" y="581.58">Source: Wang et al. (2007)</tspan></text></g><text font-size="12.60" x="649.0" y="581.6"><tspan x="649.024" y="581.58"><a target='_blank' style='fill: #777;' href='https://ourworldindata.org'>OurWorldInData.org</a> • <a style="fill: #777;" href="http://creativecommons.org/licenses/by-sa/4.0/deed.en_US" target="_blank">CC BY-SA</a></tspan></text></g></g></svg>