<svg xmlns="http://www.w3.org/2000/svg" version="1.1" style="font-family: 'Helvetica Neue', Helvetica, Arial, sans-serif; font-size: 18px; background-color: white; text-rendering: optimizeLegibility; -webkit-font-smoothing: antialiased;" width="850" height="600"><g class="ChartTab"><g class="HeaderView"><g opacity="0.8" transform="translate(770, 15) scale(0.31)"><a xmlns:xlink="http://www.w3.org/1999/xlink" xlink:href="https://ourworldindata.org" target="_blank"><g><rect x="0" y="0" fill="#1B2543" width="211.2" height="130.1"/><rect x="0" y="112.2" fill="#E63912" width="211.2" height="17.9"/><g><rect x="1.2" y="12.3" fill="none" width="210.2" height="99.2"/><path fill="#FFFFFF" d="M37.8,32.2c0,12.7-7.7,19.4-17.1,19.4c-9.7,0-16.6-7.5-16.6-18.7c0-11.7,7.3-19.3,17.1-19.3 C31.3,13.7,37.8,21.3,37.8,32.2z M9.2,32.8c0,7.9,4.3,14.9,11.8,14.9c7.5,0,11.8-6.9,11.8-15.3c0-7.3-3.8-14.9-11.8-14.9 C13.1,17.5,9.2,24.8,9.2,32.8z"/><path fill="#FFFFFF" d="M62.7,43.8c0,2.7,0.1,5.1,0.2,7.2h-4.3l-0.3-4.3h-0.1c-1.3,2.1-4,4.9-8.8,4.9c-4.2,0-9.1-2.3-9.1-11.6 V24.6h4.8v14.6c0,5,1.5,8.4,5.9,8.4c3.2,0,5.5-2.2,6.3-4.4c0.3-0.7,0.4-1.6,0.4-2.5V24.6h4.8V43.8z"/><path fill="#FFFFFF" d="M67.3,32.8c0-3.1-0.1-5.8-0.2-8.2h4.2l0.2,5.2h0.2c1.2-3.5,4.1-5.8,7.3-5.8c0.5,0,0.9,0.1,1.4,0.2v4.5 c-0.5-0.1-1-0.2-1.6-0.2c-3.4,0-5.8,2.6-6.5,6.2c-0.1,0.7-0.2,1.4-0.2,2.2V51h-4.8V32.8z"/><path fill="#FFFFFF" d="M95.4,51l-9.4-36.8h5l4.4,18.6c1.1,4.6,2.1,9.2,2.7,12.7h0.1c0.6-3.7,1.8-8,3-12.8l4.9-18.5h5l4.5,18.7 c1,4.4,2,8.7,2.6,12.6h0.1c0.8-4,1.8-8.1,3-12.7l4.9-18.5h4.9L120.6,51h-5L111,31.9c-1.1-4.7-1.9-8.3-2.4-12h-0.1 c-0.7,3.7-1.5,7.3-2.8,12L100.4,51H95.4z"/><path fill="#FFFFFF" d="M154.9,37.6c0,9.8-6.8,14-13.2,14c-7.2,0-12.7-5.2-12.7-13.6c0-8.8,5.8-14,13.1-14 C149.8,24,154.9,29.5,154.9,37.6z M133.9,37.9c0,5.8,3.3,10.1,8,10.1c4.6,0,8-4.3,8-10.3c0-4.5-2.2-10.1-7.9-10.1 C136.3,27.6,133.9,32.8,133.9,37.9z"/><path fill="#FFFFFF" d="M158.2,32.8c0-3.1-0.1-5.8-0.2-8.2h4.2l0.2,5.2h0.2c1.2-3.5,4.1-5.8,7.3-5.8c0.5,0,0.9,0.1,1.4,0.2v4.5 c-0.5-0.1-1-0.2-1.6-0.2c-3.4,0-5.8,2.6-6.5,6.2c-0.1,0.7-0.2,1.4-0.2,2.2V51h-4.8V32.8z"/><path fill="#FFFFFF" d="M173.5,12.3h4.8V51h-4.8V12.3z"/><path fill="#FFFFFF" d="M206.5,12.3v31.9c0,2.3,0.1,5,0.2,6.8h-4.3l-0.2-4.6H202c-1.5,2.9-4.7,5.2-9,5.2 c-6.4,0-11.3-5.4-11.3-13.4c-0.1-8.8,5.4-14.2,11.9-14.2c4,0,6.8,1.9,8,4h0.1V12.3H206.5z M201.7,35.4c0-0.6-0.1-1.4-0.2-2 c-0.7-3.1-3.3-5.6-6.9-5.6c-5,0-7.9,4.4-7.9,10.2c0,5.3,2.6,9.8,7.8,9.8c3.2,0,6.2-2.1,7.1-5.7c0.2-0.7,0.2-1.3,0.2-2.1V35.4z"/><path fill="#FFFFFF" d="M42.8,64c0.1,1.6-1.1,2.9-3.1,2.9c-1.7,0-2.9-1.3-2.9-2.9c0-1.7,1.3-3,3-3C41.7,61,42.8,62.3,42.8,64z M37.4,97.8V71.4h4.8v26.4H37.4z"/><path fill="#FFFFFF" d="M47.5,78.6c0-2.7-0.1-5-0.2-7.1h4.3l0.3,4.4h0.1c1.3-2.5,4.4-5,8.8-5c3.7,0,9.4,2.2,9.4,11.2v15.8h-4.8 V82.6c0-4.3-1.6-7.8-6.1-7.8c-3.2,0-5.6,2.2-6.5,4.9c-0.2,0.6-0.3,1.4-0.3,2.2v15.9h-4.8V78.6z"/><path fill="#FFFFFF" d="M84,61.6c2.9-0.4,6.3-0.8,10.1-0.8c6.8,0,11.7,1.6,14.9,4.6c3.3,3,5.2,7.3,5.2,13.2c0,6-1.9,10.9-5.3,14.3 c-3.4,3.4-9.1,5.3-16.3,5.3c-3.4,0-6.2-0.2-8.6-0.4V61.6z M88.8,94.1c1.2,0.2,3,0.3,4.8,0.3c10.2,0,15.7-5.7,15.7-15.6 c0.1-8.7-4.9-14.2-14.9-14.2c-2.5,0-4.3,0.2-5.6,0.5V94.1z"/><path fill="#FFFFFF" d="M132.1,97.8l-0.4-3.3h-0.2c-1.5,2.1-4.3,3.9-8.1,3.9c-5.4,0-8.1-3.8-8.1-7.6c0-6.4,5.7-9.9,15.9-9.8v-0.5 c0-2.2-0.6-6.1-6-6.1c-2.5,0-5,0.8-6.9,2l-1.1-3.2c2.2-1.4,5.4-2.3,8.7-2.3c8.1,0,10.1,5.5,10.1,10.8v9.9c0,2.3,0.1,4.5,0.4,6.3 H132.1z M131.4,84.4c-5.3-0.1-11.2,0.8-11.2,5.9c0,3.1,2.1,4.6,4.5,4.6c3.4,0,5.6-2.2,6.4-4.4c0.2-0.5,0.3-1,0.3-1.5V84.4z"/><path fill="#FFFFFF" d="M146.6,63.9v7.6h6.9v3.7h-6.9v14.2c0,3.3,0.9,5.1,3.6,5.1c1.3,0,2.2-0.2,2.8-0.3l0.2,3.6 c-0.9,0.4-2.4,0.7-4.3,0.7c-2.2,0-4-0.7-5.2-2c-1.4-1.4-1.9-3.8-1.9-6.9V75.1h-4.1v-3.7h4.1v-6.3L146.6,63.9z"/><path fill="#FFFFFF" d="M171.4,97.8l-0.4-3.3h-0.2c-1.5,2.1-4.3,3.9-8.1,3.9c-5.4,0-8.1-3.8-8.1-7.6c0-6.4,5.7-9.9,15.9-9.8v-0.5 c0-2.2-0.6-6.1-6-6.1c-2.5,0-5,0.8-6.9,2l-1.1-3.2c2.2-1.4,5.4-2.3,8.7-2.3c8.1,0,10.1,5.5,10.1,10.8v9.9c0,2.3,0.1,4.5,0.4,6.3 H171.4z M170.7,84.4c-5.3-0.1-11.2,0.8-11.2,5.9c0,3.1,2.1,4.6,4.5,4.6c3.4,0,5.6-2.2,6.4-4.4c0.2-0.5,0.3-1,0.3-1.5V84.4z"/></g></g></a></g><a href="https://ourworldindata.org/grapher/stroke-deaths-by-age" target="_blank"><text font-size="27.00" x="15.0" y="36.6" fill="#555"><tspan x="15" y="36.6">Stroke deaths by age, World</tspan></text></a><text font-size="14.40" x="15.0" y="55.5" fill="#666"><tspan x="15" y="55.519999999999996">Annual number of deaths from cerebrovascular diseases (strokes), differentiated by age category.</tspan></text></g><g class="StackedArea"><defs><clipPath id="boundsClip-1287"><rect x="79.45400000000001" y="0" width="820" height="956.2"></rect></clipPath></defs><g class="AxisBoxView"><g class="HorizontalAxis"><text x="79.5" y="556.5" fill="#666" text-anchor="middle" font-size="16.2">1990</text><text x="201.7" y="556.5" fill="#666" text-anchor="middle" font-size="16.2">1995</text><text x="324" y="556.5" fill="#666" text-anchor="middle" font-size="16.2">2000</text><text x="446.3" y="556.5" fill="#666" text-anchor="middle" font-size="16.2">2005</text><text x="568.6" y="556.5" fill="#666" text-anchor="middle" font-size="16.2">2010</text><text x="715.4" y="556.5" fill="#666" text-anchor="middle" font-size="16.2">2016</text></g><g class="VerticalAxis"><text x="74.45" y="535.3" fill="#666" dominant-baseline="middle" text-anchor="end" font-size="16.2">0</text><text x="74.45" y="452.7" fill="#666" dominant-baseline="middle" text-anchor="end" font-size="16.2">1 million</text><text x="74.45" y="370" fill="#666" dominant-baseline="middle" text-anchor="end" font-size="16.2">2 million</text><text x="74.45" y="287.4" fill="#666" dominant-baseline="middle" text-anchor="end" font-size="16.2">3 million</text><text x="74.45" y="204.7" fill="#666" dominant-baseline="middle" text-anchor="end" font-size="16.2">4 million</text><text x="74.45" y="122.1" fill="#666" dominant-baseline="middle" text-anchor="end" font-size="16.2">5 million</text></g><g class="AxisGridLines"><line x1="79.45" y1="535.3" x2="715.35" y2="535.3" stroke="#ccc"></line><line x1="79.45" y1="452.7" x2="715.35" y2="452.7" stroke="#ddd" stroke-dasharray="3,2"></line><line x1="79.45" y1="370" x2="715.35" y2="370" stroke="#ddd" stroke-dasharray="3,2"></line><line x1="79.45" y1="287.4" x2="715.35" y2="287.4" stroke="#ddd" stroke-dasharray="3,2"></line><line x1="79.45" y1="204.7" x2="715.35" y2="204.7" stroke="#ddd" stroke-dasharray="3,2"></line><line x1="79.45" y1="122.1" x2="715.35" y2="122.1" stroke="#ddd" stroke-dasharray="3,2"></line></g><g class="AxisGridLines"><line x1="79.5" y1="535.30" x2="79.5" y2="78.40" stroke="#ddd" stroke-dasharray="3,2"></line><line x1="201.7" y1="535.30" x2="201.7" y2="78.40" stroke="#ddd" stroke-dasharray="3,2"></line><line x1="324" y1="535.30" x2="324" y2="78.40" stroke="#ddd" stroke-dasharray="3,2"></line><line x1="446.3" y1="535.30" x2="446.3" y2="78.40" stroke="#ddd" stroke-dasharray="3,2"></line><line x1="568.6" y1="535.30" x2="568.6" y2="78.40" stroke="#ddd" stroke-dasharray="3,2"></line><line x1="690.9" y1="535.30" x2="690.9" y2="78.40" stroke="#ddd" stroke-dasharray="3,2"></line></g></g><g clip-path="url(#boundsClip-1287)"><g class="HeightedLegend clickable"><g class="legendMark"><rect x="720.352" y="520.9000000000001" width="74.328" height="14.4" fill="#fff" opacity="0"></rect><rect x="720.352" y="526.8500000000001" width="10" height="2.5" fill="#3360a9"></rect><text font-size="14.40" x="735.4" y="532.4" fill="#333"><tspan x="735.352" y="532.4200000000001">Under-5s</tspan></text></g><g class="legendMark"><rect x="720.352" y="506.5000000000001" width="106.58400000000002" height="14.4" fill="#fff" opacity="0"></rect><rect x="720.352" y="512.4500000000002" width="10" height="2.5" fill="#ca2628"></rect><text font-size="14.40" x="735.4" y="518.0" fill="#333"><tspan x="735.352" y="518.0200000000001">5-14 years old</tspan></text></g><g class="legendMark"><rect x="720.352" y="492.1000000000001" width="114.64800000000001" height="14.4" fill="#fff" opacity="0"></rect><rect x="720.352" y="498.05000000000007" width="10" height="2.5" fill="#ffd53e"></rect><text font-size="14.40" x="735.4" y="503.6" fill="#333"><tspan x="735.352" y="503.62000000000006">15-49 years old</tspan></text></g><g class="legendMark"><rect x="720.352" y="423.1" width="114.64800000000001" height="14.4" fill="#fff" opacity="0"></rect><rect x="720.352" y="429.05" width="10" height="2.5" fill="#9ecc8a"></rect><text font-size="14.40" x="735.4" y="434.6" fill="#333"><tspan x="735.352" y="434.62">50-69 years old</tspan></text></g><g class="legendMark"><rect x="720.352" y="211.20000000000002" width="102.12" height="14.4" fill="#fff" opacity="0"></rect><rect x="720.352" y="217.15" width="10" height="2.5" fill="#34983f"></rect><text font-size="14.40" x="735.4" y="222.7" fill="#333"><tspan x="735.352" y="222.72000000000003">70+ years old</tspan></text></g></g><g class="Areas"><rect x="79.45400000000001" y="78.4" width="635.8979999999999" height="456.9000000000001" opacity="0" fill="rgba(255,255,255,0)"></rect><path stroke-linecap="round" d="M79.5 532.6L103.9 532.7L128.4 532.8L152.8 532.9L177.3 533L201.7 533.1L226.2 533.2L250.7 533.3L275.1 533.4L299.6 533.5L324 533.6L348.5 533.7L372.9 533.8L397.4 533.8L421.9 533.9L446.3 533.9L470.8 534L495.2 534L519.7 534.1L544.1 534.1L568.6 534.2L593.1 534.2L617.5 534.3L642 534.3L666.4 534.4L690.9 534.4L715.4 534.5L715.3519999999999 535.3000000000001L79.45400000000001 535.3000000000001" fill="#3360a9" fill-opacity="0.7" class="World_0-area"></path><path stroke-linecap="round" d="M79.5 531.6L103.9 531.8L128.4 531.9L152.8 532L177.3 532.2L201.7 532.3L226.2 532.3L250.7 532.5L275.1 532.6L299.6 532.7L324 532.8L348.5 532.9L372.9 533L397.4 533.1L421.9 533.2L446.3 533.3L470.8 533.4L495.2 533.4L519.7 533.5L544.1 533.5L568.6 533.6L593.1 533.7L617.5 533.7L642 533.8L666.4 533.9L690.9 534L715.4 534L715.4 534.5L690.9 534.4L666.4 534.4L642 534.3L617.5 534.3L593.1 534.2L568.6 534.2L544.1 534.1L519.7 534.1L495.2 534L470.8 534L446.3 533.9L421.9 533.9L397.4 533.8L372.9 533.8L348.5 533.7L324 533.6L299.6 533.5L275.1 533.4L250.7 533.3L226.2 533.2L201.7 533.1L177.3 533L152.8 532.9L128.4 532.8L103.9 532.7L79.5 532.6" fill="#ca2628" fill-opacity="0.7" class="World_1-area"></path><path stroke-linecap="round" d="M79.5 504.1L103.9 503.4L128.4 502.6L152.8 501.6L177.3 500.6L201.7 499.8L226.2 499.3L250.7 499L275.1 498.8L299.6 498.4L324 498.2L348.5 498L372.9 497.9L397.4 498.4L421.9 499L446.3 499.2L470.8 499.5L495.2 499.7L519.7 499.9L544.1 500.1L568.6 500.3L593.1 500.8L617.5 501L642 501.2L666.4 501.5L690.9 501.9L715.4 502.3L715.4 534L690.9 534L666.4 533.9L642 533.8L617.5 533.7L593.1 533.7L568.6 533.6L544.1 533.5L519.7 533.5L495.2 533.4L470.8 533.4L446.3 533.3L421.9 533.2L397.4 533.1L372.9 533L348.5 532.9L324 532.8L299.6 532.7L275.1 532.6L250.7 532.5L226.2 532.3L201.7 532.3L177.3 532.2L152.8 532L128.4 531.9L103.9 531.8L79.5 531.6" fill="#ffd53e" fill-opacity="0.7" class="World_2-area"></path><path stroke-linecap="round" d="M79.5 383.5L103.9 382.5L128.4 378.5L152.8 373.3L177.3 368.9L201.7 367.3L226.2 367.3L250.7 366.8L275.1 366.7L299.6 364.2L324 361.8L348.5 360.8L372.9 360.1L397.4 360.9L421.9 361.5L446.3 361.9L470.8 365.7L495.2 367.7L519.7 368.3L544.1 369.2L568.6 368.4L593.1 368.6L617.5 367L642 364.5L666.4 360.9L690.9 359.4L715.4 358.3L715.4 502.3L690.9 501.9L666.4 501.5L642 501.2L617.5 501L593.1 500.8L568.6 500.3L544.1 500.1L519.7 499.9L495.2 499.7L470.8 499.5L446.3 499.2L421.9 499L397.4 498.4L372.9 497.9L348.5 498L324 498.2L299.6 498.4L275.1 498.8L250.7 499L226.2 499.3L201.7 499.8L177.3 500.6L152.8 501.6L128.4 502.6L103.9 503.4L79.5 504.1" fill="#9ecc8a" fill-opacity="0.7" class="World_3-area"></path><path stroke-linecap="round" d="M79.5 178.9L103.9 175.5L128.4 166L152.8 152.5L177.3 141.4L201.7 136L226.2 134L250.7 130.4L275.1 125.3L299.6 115.5L324 106.8L348.5 99.1L372.9 90.7L397.4 93.4L421.9 95.6L446.3 93.5L470.8 100.8L495.2 102.5L519.7 100.9L544.1 100.3L568.6 97.3L593.1 99.5L617.5 97.5L642 94.9L666.4 88.8L690.9 85.1L715.4 78.4L715.4 358.3L690.9 359.4L666.4 360.9L642 364.5L617.5 367L593.1 368.6L568.6 368.4L544.1 369.2L519.7 368.3L495.2 367.7L470.8 365.7L446.3 361.9L421.9 361.5L397.4 360.9L372.9 360.1L348.5 360.8L324 361.8L299.6 364.2L275.1 366.7L250.7 366.8L226.2 367.3L201.7 367.3L177.3 368.9L152.8 373.3L128.4 378.5L103.9 382.5L79.5 383.5" fill="#34983f" fill-opacity="0.7" class="World_4-area"></path><path stroke-linecap="round" d="M79.5 532.6L103.9 532.7L128.4 532.8L152.8 532.9L177.3 533L201.7 533.1L226.2 533.2L250.7 533.3L275.1 533.4L299.6 533.5L324 533.6L348.5 533.7L372.9 533.8L397.4 533.8L421.9 533.9L446.3 533.9L470.8 534L495.2 534L519.7 534.1L544.1 534.1L568.6 534.2L593.1 534.2L617.5 534.3L642 534.3L666.4 534.4L690.9 534.4L715.4 534.5" stroke="rgb(43, 80, 141)" stroke-opacity="0.7" stroke-width="0.5" fill="none" class="World_0-border"></path><path stroke-linecap="round" d="M79.5 531.6L103.9 531.8L128.4 531.9L152.8 532L177.3 532.2L201.7 532.3L226.2 532.3L250.7 532.5L275.1 532.6L299.6 532.7L324 532.8L348.5 532.9L372.9 533L397.4 533.1L421.9 533.2L446.3 533.3L470.8 533.4L495.2 533.4L519.7 533.5L544.1 533.5L568.6 533.6L593.1 533.7L617.5 533.7L642 533.8L666.4 533.9L690.9 534L715.4 534" stroke="rgb(169, 32, 33)" stroke-opacity="0.7" stroke-width="0.5" fill="none" class="World_1-border"></path><path stroke-linecap="round" d="M79.5 504.1L103.9 503.4L128.4 502.6L152.8 501.6L177.3 500.6L201.7 499.8L226.2 499.3L250.7 499L275.1 498.8L299.6 498.4L324 498.2L348.5 498L372.9 497.9L397.4 498.4L421.9 499L446.3 499.2L470.8 499.5L495.2 499.7L519.7 499.9L544.1 500.1L568.6 500.3L593.1 500.8L617.5 501L642 501.2L666.4 501.5L690.9 501.9L715.4 502.3" stroke="rgb(213, 178, 52)" stroke-opacity="0.7" stroke-width="0.5" fill="none" class="World_2-border"></path><path stroke-linecap="round" d="M79.5 383.5L103.9 382.5L128.4 378.5L152.8 373.3L177.3 368.9L201.7 367.3L226.2 367.3L250.7 366.8L275.1 366.7L299.6 364.2L324 361.8L348.5 360.8L372.9 360.1L397.4 360.9L421.9 361.5L446.3 361.9L470.8 365.7L495.2 367.7L519.7 368.3L544.1 369.2L568.6 368.4L593.1 368.6L617.5 367L642 364.5L666.4 360.9L690.9 359.4L715.4 358.3" stroke="rgb(132, 171, 115)" stroke-opacity="0.7" stroke-width="0.5" fill="none" class="World_3-border"></path><path stroke-linecap="round" d="M79.5 178.9L103.9 175.5L128.4 166L152.8 152.5L177.3 141.4L201.7 136L226.2 134L250.7 130.4L275.1 125.3L299.6 115.5L324 106.8L348.5 99.1L372.9 90.7L397.4 93.4L421.9 95.6L446.3 93.5L470.8 100.8L495.2 102.5L519.7 100.9L544.1 100.3L568.6 97.3L593.1 99.5L617.5 97.5L642 94.9L666.4 88.8L690.9 85.1L715.4 78.4" stroke="rgb(44, 127, 53)" stroke-opacity="0.7" stroke-width="0.5" fill="none" class="World_4-border"></path></g></g></g><g style="fill: #777;" class="SourcesFooter"><g style="fill: #777;" class="clickable"><text font-size="12.60" x="15.0" y="581.6"><tspan x="15" y="581.58">Source: IHME, Global Burden of Disease (GBD)</tspan></text></g><text font-size="12.60" x="649.0" y="581.6"><tspan x="649.024" y="581.58"><a target='_blank' style='fill: #777;' href='https://ourworldindata.org'>OurWorldInData.org</a> • <a style="fill: #777;" href="http://creativecommons.org/licenses/by-sa/4.0/deed.en_US" target="_blank">CC BY-SA</a></tspan></text></g></g></svg>