<svg xmlns="http://www.w3.org/2000/svg" version="1.1" style="font-family: 'Helvetica Neue', Helvetica, Arial, sans-serif; font-size: 18px; background-color: white; text-rendering: optimizeLegibility; -webkit-font-smoothing: antialiased;" width="850" height="600"><g class="ChartTab"><g class="HeaderView"><g opacity="0.8" transform="translate(770, 15) scale(0.31)"><a xmlns:xlink="http://www.w3.org/1999/xlink" xlink:href="https://ourworldindata.org" target="_blank"><g><rect x="0" y="0" fill="#1B2543" width="211.2" height="130.1"/><rect x="0" y="112.2" fill="#E63912" width="211.2" height="17.9"/><g><rect x="1.2" y="12.3" fill="none" width="210.2" height="99.2"/><path fill="#FFFFFF" d="M37.8,32.2c0,12.7-7.7,19.4-17.1,19.4c-9.7,0-16.6-7.5-16.6-18.7c0-11.7,7.3-19.3,17.1-19.3 C31.3,13.7,37.8,21.3,37.8,32.2z M9.2,32.8c0,7.9,4.3,14.9,11.8,14.9c7.5,0,11.8-6.9,11.8-15.3c0-7.3-3.8-14.9-11.8-14.9 C13.1,17.5,9.2,24.8,9.2,32.8z"/><path fill="#FFFFFF" d="M62.7,43.8c0,2.7,0.1,5.1,0.2,7.2h-4.3l-0.3-4.3h-0.1c-1.3,2.1-4,4.9-8.8,4.9c-4.2,0-9.1-2.3-9.1-11.6 V24.6h4.8v14.6c0,5,1.5,8.4,5.9,8.4c3.2,0,5.5-2.2,6.3-4.4c0.3-0.7,0.4-1.6,0.4-2.5V24.6h4.8V43.8z"/><path fill="#FFFFFF" d="M67.3,32.8c0-3.1-0.1-5.8-0.2-8.2h4.2l0.2,5.2h0.2c1.2-3.5,4.1-5.8,7.3-5.8c0.5,0,0.9,0.1,1.4,0.2v4.5 c-0.5-0.1-1-0.2-1.6-0.2c-3.4,0-5.8,2.6-6.5,6.2c-0.1,0.7-0.2,1.4-0.2,2.2V51h-4.8V32.8z"/><path fill="#FFFFFF" d="M95.4,51l-9.4-36.8h5l4.4,18.6c1.1,4.6,2.1,9.2,2.7,12.7h0.1c0.6-3.7,1.8-8,3-12.8l4.9-18.5h5l4.5,18.7 c1,4.4,2,8.7,2.6,12.6h0.1c0.8-4,1.8-8.1,3-12.7l4.9-18.5h4.9L120.6,51h-5L111,31.9c-1.1-4.7-1.9-8.3-2.4-12h-0.1 c-0.7,3.7-1.5,7.3-2.8,12L100.4,51H95.4z"/><path fill="#FFFFFF" d="M154.9,37.6c0,9.8-6.8,14-13.2,14c-7.2,0-12.7-5.2-12.7-13.6c0-8.8,5.8-14,13.1-14 C149.8,24,154.9,29.5,154.9,37.6z M133.9,37.9c0,5.8,3.3,10.1,8,10.1c4.6,0,8-4.3,8-10.3c0-4.5-2.2-10.1-7.9-10.1 C136.3,27.6,133.9,32.8,133.9,37.9z"/><path fill="#FFFFFF" d="M158.2,32.8c0-3.1-0.1-5.8-0.2-8.2h4.2l0.2,5.2h0.2c1.2-3.5,4.1-5.8,7.3-5.8c0.5,0,0.9,0.1,1.4,0.2v4.5 c-0.5-0.1-1-0.2-1.6-0.2c-3.4,0-5.8,2.6-6.5,6.2c-0.1,0.7-0.2,1.4-0.2,2.2V51h-4.8V32.8z"/><path fill="#FFFFFF" d="M173.5,12.3h4.8V51h-4.8V12.3z"/><path fill="#FFFFFF" d="M206.5,12.3v31.9c0,2.3,0.1,5,0.2,6.8h-4.3l-0.2-4.6H202c-1.5,2.9-4.7,5.2-9,5.2 c-6.4,0-11.3-5.4-11.3-13.4c-0.1-8.8,5.4-14.2,11.9-14.2c4,0,6.8,1.9,8,4h0.1V12.3H206.5z M201.7,35.4c0-0.6-0.1-1.4-0.2-2 c-0.7-3.1-3.3-5.6-6.9-5.6c-5,0-7.9,4.4-7.9,10.2c0,5.3,2.6,9.8,7.8,9.8c3.2,0,6.2-2.1,7.1-5.7c0.2-0.7,0.2-1.3,0.2-2.1V35.4z"/><path fill="#FFFFFF" d="M42.8,64c0.1,1.6-1.1,2.9-3.1,2.9c-1.7,0-2.9-1.3-2.9-2.9c0-1.7,1.3-3,3-3C41.7,61,42.8,62.3,42.8,64z M37.4,97.8V71.4h4.8v26.4H37.4z"/><path fill="#FFFFFF" d="M47.5,78.6c0-2.7-0.1-5-0.2-7.1h4.3l0.3,4.4h0.1c1.3-2.5,4.4-5,8.8-5c3.7,0,9.4,2.2,9.4,11.2v15.8h-4.8 V82.6c0-4.3-1.6-7.8-6.1-7.8c-3.2,0-5.6,2.2-6.5,4.9c-0.2,0.6-0.3,1.4-0.3,2.2v15.9h-4.8V78.6z"/><path fill="#FFFFFF" d="M84,61.6c2.9-0.4,6.3-0.8,10.1-0.8c6.8,0,11.7,1.6,14.9,4.6c3.3,3,5.2,7.3,5.2,13.2c0,6-1.9,10.9-5.3,14.3 c-3.4,3.4-9.1,5.3-16.3,5.3c-3.4,0-6.2-0.2-8.6-0.4V61.6z M88.8,94.1c1.2,0.2,3,0.3,4.8,0.3c10.2,0,15.7-5.7,15.7-15.6 c0.1-8.7-4.9-14.2-14.9-14.2c-2.5,0-4.3,0.2-5.6,0.5V94.1z"/><path fill="#FFFFFF" d="M132.1,97.8l-0.4-3.3h-0.2c-1.5,2.1-4.3,3.9-8.1,3.9c-5.4,0-8.1-3.8-8.1-7.6c0-6.4,5.7-9.9,15.9-9.8v-0.5 c0-2.2-0.6-6.1-6-6.1c-2.5,0-5,0.8-6.9,2l-1.1-3.2c2.2-1.4,5.4-2.3,8.7-2.3c8.1,0,10.1,5.5,10.1,10.8v9.9c0,2.3,0.1,4.5,0.4,6.3 H132.1z M131.4,84.4c-5.3-0.1-11.2,0.8-11.2,5.9c0,3.1,2.1,4.6,4.5,4.6c3.4,0,5.6-2.2,6.4-4.4c0.2-0.5,0.3-1,0.3-1.5V84.4z"/><path fill="#FFFFFF" d="M146.6,63.9v7.6h6.9v3.7h-6.9v14.2c0,3.3,0.9,5.1,3.6,5.1c1.3,0,2.2-0.2,2.8-0.3l0.2,3.6 c-0.9,0.4-2.4,0.7-4.3,0.7c-2.2,0-4-0.7-5.2-2c-1.4-1.4-1.9-3.8-1.9-6.9V75.1h-4.1v-3.7h4.1v-6.3L146.6,63.9z"/><path fill="#FFFFFF" d="M171.4,97.8l-0.4-3.3h-0.2c-1.5,2.1-4.3,3.9-8.1,3.9c-5.4,0-8.1-3.8-8.1-7.6c0-6.4,5.7-9.9,15.9-9.8v-0.5 c0-2.2-0.6-6.1-6-6.1c-2.5,0-5,0.8-6.9,2l-1.1-3.2c2.2-1.4,5.4-2.3,8.7-2.3c8.1,0,10.1,5.5,10.1,10.8v9.9c0,2.3,0.1,4.5,0.4,6.3 H171.4z M170.7,84.4c-5.3-0.1-11.2,0.8-11.2,5.9c0,3.1,2.1,4.6,4.5,4.6c3.4,0,5.6-2.2,6.4-4.4c0.2-0.5,0.3-1,0.3-1.5V84.4z"/></g></g></a></g><a href="https://ourworldindata.org/grapher/suicide-death-rate-by-age" target="_blank"><text font-size="27.00" x="15.0" y="36.6" fill="#555"><tspan x="15" y="36.6">Suicide death rate by age (per 100,000), World</tspan></text></a><text font-size="14.40" x="15.0" y="55.5" fill="#666"><tspan x="15" y="55.519999999999996">Death rates from suicide measured per 100,000 individuals across various age categories. Also shown is the total</tspan><tspan x="15" y="71.36">death rate across all ages (not age-standardized) and the age-standardized death rate. Age-standardization</tspan><tspan x="15" y="87.2">assumes a constant population age &amp; structure to allow for comparisons between countries and with time without</tspan><tspan x="15" y="103.03999999999999">the effects of a changing age distribution within a population (e.g. aging).</tspan></text></g><g class="LineChart"><defs><clipPath id="boundsClip-1269"><rect x="28.144000000000005" y="0" width="830" height="863.2"></rect></clipPath></defs><g class="AxisBoxView"><g class="HorizontalAxis"><text x="38.1" y="556.5" fill="#666" text-anchor="middle" font-size="16.2">1990</text><text x="164.8" y="556.5" fill="#666" text-anchor="middle" font-size="16.2">1995</text><text x="291.4" y="556.5" fill="#666" text-anchor="middle" font-size="16.2">2000</text><text x="418.1" y="556.5" fill="#666" text-anchor="middle" font-size="16.2">2005</text><text x="544.7" y="556.5" fill="#666" text-anchor="middle" font-size="16.2">2010</text><text x="696.7" y="556.5" fill="#666" text-anchor="middle" font-size="16.2">2016</text></g><g class="VerticalAxis"><text x="33.14" y="535.3" fill="#666" dominant-baseline="middle" text-anchor="end" font-size="16.2">0</text><text x="33.14" y="481.5" fill="#666" dominant-baseline="middle" text-anchor="end" font-size="16.2">5</text><text x="33.14" y="427.7" fill="#666" dominant-baseline="middle" text-anchor="end" font-size="16.2">10</text><text x="33.14" y="373.9" fill="#666" dominant-baseline="middle" text-anchor="end" font-size="16.2">15</text><text x="33.14" y="320" fill="#666" dominant-baseline="middle" text-anchor="end" font-size="16.2">20</text><text x="33.14" y="266.2" fill="#666" dominant-baseline="middle" text-anchor="end" font-size="16.2">25</text><text x="33.14" y="212.4" fill="#666" dominant-baseline="middle" text-anchor="end" font-size="16.2">30</text><text x="33.14" y="158.6" fill="#666" dominant-baseline="middle" text-anchor="end" font-size="16.2">35</text></g><g class="AxisGridLines"><line x1="38.14" y1="535.3" x2="696.67" y2="535.3" stroke="#ccc"></line><line x1="38.14" y1="481.5" x2="696.67" y2="481.5" stroke="#ddd" stroke-dasharray="3,2"></line><line x1="38.14" y1="427.7" x2="696.67" y2="427.7" stroke="#ddd" stroke-dasharray="3,2"></line><line x1="38.14" y1="373.9" x2="696.67" y2="373.9" stroke="#ddd" stroke-dasharray="3,2"></line><line x1="38.14" y1="320" x2="696.67" y2="320" stroke="#ddd" stroke-dasharray="3,2"></line><line x1="38.14" y1="266.2" x2="696.67" y2="266.2" stroke="#ddd" stroke-dasharray="3,2"></line><line x1="38.14" y1="212.4" x2="696.67" y2="212.4" stroke="#ddd" stroke-dasharray="3,2"></line><line x1="38.14" y1="158.6" x2="696.67" y2="158.6" stroke="#ddd" stroke-dasharray="3,2"></line></g><g class="AxisGridLines"><line x1="38.1" y1="535.30" x2="38.1" y2="124.90" stroke="#ddd" stroke-dasharray="3,2"></line><line x1="164.8" y1="535.30" x2="164.8" y2="124.90" stroke="#ddd" stroke-dasharray="3,2"></line><line x1="291.4" y1="535.30" x2="291.4" y2="124.90" stroke="#ddd" stroke-dasharray="3,2"></line><line x1="418.1" y1="535.30" x2="418.1" y2="124.90" stroke="#ddd" stroke-dasharray="3,2"></line><line x1="544.7" y1="535.30" x2="544.7" y2="124.90" stroke="#ddd" stroke-dasharray="3,2"></line><line x1="671.3" y1="535.30" x2="671.3" y2="124.90" stroke="#ddd" stroke-dasharray="3,2"></line></g></g><g clip-path="url(#boundsClip-1269)"><g class="HeightedLegend clickable"><g class="legendMark"><rect x="706.672" y="233.5" width="102.12" height="14.4" fill="#fff" opacity="0"></rect><rect x="706.672" y="239.45" width="10" height="2.5" fill="#2a939b"></rect><text font-size="14.40" x="721.7" y="245.0" fill="#333"><tspan x="721.672" y="245.02">70+ years old</tspan></text></g><g class="legendMark"><rect x="706.672" y="350.1" width="114.64800000000001" height="14.4" fill="#fff" opacity="0"></rect><rect x="706.672" y="356.05" width="10" height="2.5" fill="#a652ba"></rect><text font-size="14.40" x="721.7" y="361.6" fill="#333"><tspan x="721.672" y="361.62">50-69 years old</tspan></text></g><g class="legendMark"><rect x="706.672" y="391.1" width="114.64800000000001" height="14.4" fill="#fff" opacity="0"></rect><rect x="706.672" y="397.05" width="10" height="2.5" fill="#f6a324"></rect><text font-size="14.40" x="721.7" y="402.6" fill="#333"><tspan x="721.672" y="402.62">15-49 years old</tspan></text></g><g class="legendMark"><rect x="706.672" y="408" width="128.32800000000003" height="14.4" fill="#fff" opacity="0"></rect><rect x="706.672" y="413.95" width="10" height="2.5" fill="#34983f"></rect><text font-size="14.40" x="721.7" y="419.5" fill="#333"><tspan x="721.672" y="419.52">Age-standardized</tspan></text></g><g class="legendMark"><rect x="706.672" y="422.4" width="66.40800000000002" height="14.4" fill="#fff" opacity="0"></rect><rect x="706.672" y="428.34999999999997" width="10" height="2.5" fill="#ca2628"></rect><text font-size="14.40" x="721.7" y="433.9" fill="#333"><tspan x="721.672" y="433.91999999999996">All ages</tspan></text></g><g class="legendMark"><rect x="706.672" y="521.3" width="106.58400000000002" height="14.4" fill="#fff" opacity="0"></rect><rect x="706.672" y="527.25" width="10" height="2.5" fill="#3360a9"></rect><text font-size="14.40" x="721.7" y="532.8" fill="#333"><tspan x="721.672" y="532.8199999999999">5-14 years old</tspan></text></g></g><g class="Lines"><rect x="38" y="125" width="659" height="410" fill="rgba(255,255,255,0)" opacity="0"></rect><g class="key-World_0"><path stroke="#ca2628" stroke-linecap="round" d="M38 379L64 378L89 376L114 374L140 372L165 373L190 376L215 379L241 381L266 383L291 385L317 388L342 389L367 390L393 392L418 394L443 397L469 400L494 403L519 406L545 409L570 411L595 413L621 414L646 415L671 416L697 416" fill="none" stroke-width="1.5"></path><g fill="#ca2628"><circle cx="38" cy="379" r="2"></circle><circle cx="64" cy="378" r="2"></circle><circle cx="89" cy="376" r="2"></circle><circle cx="114" cy="374" r="2"></circle><circle cx="140" cy="372" r="2"></circle><circle cx="165" cy="373" r="2"></circle><circle cx="190" cy="376" r="2"></circle><circle cx="215" cy="379" r="2"></circle><circle cx="241" cy="381" r="2"></circle><circle cx="266" cy="383" r="2"></circle><circle cx="291" cy="385" r="2"></circle><circle cx="317" cy="388" r="2"></circle><circle cx="342" cy="389" r="2"></circle><circle cx="367" cy="390" r="2"></circle><circle cx="393" cy="392" r="2"></circle><circle cx="418" cy="394" r="2"></circle><circle cx="443" cy="397" r="2"></circle><circle cx="469" cy="400" r="2"></circle><circle cx="494" cy="403" r="2"></circle><circle cx="519" cy="406" r="2"></circle><circle cx="545" cy="409" r="2"></circle><circle cx="570" cy="411" r="2"></circle><circle cx="595" cy="413" r="2"></circle><circle cx="621" cy="414" r="2"></circle><circle cx="646" cy="415" r="2"></circle><circle cx="671" cy="416" r="2"></circle><circle cx="697" cy="416" r="2"></circle></g></g><g class="key-World_1"><path stroke="#2a939b" stroke-linecap="round" d="M38 126L64 127L89 127L114 126L140 125L165 129L190 139L215 145L241 149L266 153L291 160L317 169L342 169L367 171L393 174L418 177L443 186L469 193L494 199L519 206L545 211L570 220L595 227L621 233L646 237L671 240L697 241" fill="none" stroke-width="1.5"></path><g fill="#2a939b"><circle cx="38" cy="126" r="2"></circle><circle cx="64" cy="127" r="2"></circle><circle cx="89" cy="127" r="2"></circle><circle cx="114" cy="126" r="2"></circle><circle cx="140" cy="125" r="2"></circle><circle cx="165" cy="129" r="2"></circle><circle cx="190" cy="139" r="2"></circle><circle cx="215" cy="145" r="2"></circle><circle cx="241" cy="149" r="2"></circle><circle cx="266" cy="153" r="2"></circle><circle cx="291" cy="160" r="2"></circle><circle cx="317" cy="169" r="2"></circle><circle cx="342" cy="169" r="2"></circle><circle cx="367" cy="171" r="2"></circle><circle cx="393" cy="174" r="2"></circle><circle cx="418" cy="177" r="2"></circle><circle cx="443" cy="186" r="2"></circle><circle cx="469" cy="193" r="2"></circle><circle cx="494" cy="199" r="2"></circle><circle cx="519" cy="206" r="2"></circle><circle cx="545" cy="211" r="2"></circle><circle cx="570" cy="220" r="2"></circle><circle cx="595" cy="227" r="2"></circle><circle cx="621" cy="233" r="2"></circle><circle cx="646" cy="237" r="2"></circle><circle cx="671" cy="240" r="2"></circle><circle cx="697" cy="241" r="2"></circle></g></g><g class="key-World_2"><path stroke="#a652ba" stroke-linecap="round" d="M38 280L64 279L89 276L114 271L140 268L165 271L190 278L215 283L241 287L266 288L291 291L317 296L342 299L367 300L393 302L418 306L443 314L469 320L494 326L519 332L545 337L570 341L595 346L621 349L646 352L671 355L697 357" fill="none" stroke-width="1.5"></path><g fill="#a652ba"><circle cx="38" cy="280" r="2"></circle><circle cx="64" cy="279" r="2"></circle><circle cx="89" cy="276" r="2"></circle><circle cx="114" cy="271" r="2"></circle><circle cx="140" cy="268" r="2"></circle><circle cx="165" cy="271" r="2"></circle><circle cx="190" cy="278" r="2"></circle><circle cx="215" cy="283" r="2"></circle><circle cx="241" cy="287" r="2"></circle><circle cx="266" cy="288" r="2"></circle><circle cx="291" cy="291" r="2"></circle><circle cx="317" cy="296" r="2"></circle><circle cx="342" cy="299" r="2"></circle><circle cx="367" cy="300" r="2"></circle><circle cx="393" cy="302" r="2"></circle><circle cx="418" cy="306" r="2"></circle><circle cx="443" cy="314" r="2"></circle><circle cx="469" cy="320" r="2"></circle><circle cx="494" cy="326" r="2"></circle><circle cx="519" cy="332" r="2"></circle><circle cx="545" cy="337" r="2"></circle><circle cx="570" cy="341" r="2"></circle><circle cx="595" cy="346" r="2"></circle><circle cx="621" cy="349" r="2"></circle><circle cx="646" cy="352" r="2"></circle><circle cx="671" cy="355" r="2"></circle><circle cx="697" cy="357" r="2"></circle></g></g><g class="key-World_3"><path stroke="#f6a324" stroke-linecap="round" d="M38 329L64 327L89 326L114 323L140 321L165 323L190 328L215 332L241 337L266 341L291 346L317 351L342 355L367 358L393 363L418 366L443 371L469 376L494 380L519 384L545 388L570 390L595 393L621 395L646 396L671 397L697 398" fill="none" stroke-width="1.5"></path><g fill="#f6a324"><circle cx="38" cy="329" r="2"></circle><circle cx="64" cy="327" r="2"></circle><circle cx="89" cy="326" r="2"></circle><circle cx="114" cy="323" r="2"></circle><circle cx="140" cy="321" r="2"></circle><circle cx="165" cy="323" r="2"></circle><circle cx="190" cy="328" r="2"></circle><circle cx="215" cy="332" r="2"></circle><circle cx="241" cy="337" r="2"></circle><circle cx="266" cy="341" r="2"></circle><circle cx="291" cy="346" r="2"></circle><circle cx="317" cy="351" r="2"></circle><circle cx="342" cy="355" r="2"></circle><circle cx="367" cy="358" r="2"></circle><circle cx="393" cy="363" r="2"></circle><circle cx="418" cy="366" r="2"></circle><circle cx="443" cy="371" r="2"></circle><circle cx="469" cy="376" r="2"></circle><circle cx="494" cy="380" r="2"></circle><circle cx="519" cy="384" r="2"></circle><circle cx="545" cy="388" r="2"></circle><circle cx="570" cy="390" r="2"></circle><circle cx="595" cy="393" r="2"></circle><circle cx="621" cy="395" r="2"></circle><circle cx="646" cy="396" r="2"></circle><circle cx="671" cy="397" r="2"></circle><circle cx="697" cy="398" r="2"></circle></g></g><g class="key-World_4"><path stroke="#3360a9" stroke-linecap="round" d="M38 523L64 523L89 523L114 524L140 524L165 524L190 523L215 524L241 524L266 524L291 524L317 524L342 525L367 525L393 525L418 526L443 526L469 527L494 527L519 527L545 527L570 527L595 528L621 528L646 528L671 528L697 529" fill="none" stroke-width="1.5"></path><g fill="#3360a9"><circle cx="38" cy="523" r="2"></circle><circle cx="64" cy="523" r="2"></circle><circle cx="89" cy="523" r="2"></circle><circle cx="114" cy="524" r="2"></circle><circle cx="140" cy="524" r="2"></circle><circle cx="165" cy="524" r="2"></circle><circle cx="190" cy="523" r="2"></circle><circle cx="215" cy="524" r="2"></circle><circle cx="241" cy="524" r="2"></circle><circle cx="266" cy="524" r="2"></circle><circle cx="291" cy="524" r="2"></circle><circle cx="317" cy="524" r="2"></circle><circle cx="342" cy="525" r="2"></circle><circle cx="367" cy="525" r="2"></circle><circle cx="393" cy="525" r="2"></circle><circle cx="418" cy="526" r="2"></circle><circle cx="443" cy="526" r="2"></circle><circle cx="469" cy="527" r="2"></circle><circle cx="494" cy="527" r="2"></circle><circle cx="519" cy="527" r="2"></circle><circle cx="545" cy="527" r="2"></circle><circle cx="570" cy="527" r="2"></circle><circle cx="595" cy="528" r="2"></circle><circle cx="621" cy="528" r="2"></circle><circle cx="646" cy="528" r="2"></circle><circle cx="671" cy="528" r="2"></circle><circle cx="697" cy="529" r="2"></circle></g></g><g class="key-World_5"><path stroke="#34983f" stroke-linecap="round" d="M38 357L64 356L89 355L114 353L140 351L165 353L190 357L215 361L241 364L266 367L291 370L317 374L342 377L367 379L393 381L418 384L443 389L469 393L494 397L519 400L545 404L570 407L595 409L621 411L646 413L671 414L697 415" fill="none" stroke-width="1.5"></path><g fill="#34983f"><circle cx="38" cy="357" r="2"></circle><circle cx="64" cy="356" r="2"></circle><circle cx="89" cy="355" r="2"></circle><circle cx="114" cy="353" r="2"></circle><circle cx="140" cy="351" r="2"></circle><circle cx="165" cy="353" r="2"></circle><circle cx="190" cy="357" r="2"></circle><circle cx="215" cy="361" r="2"></circle><circle cx="241" cy="364" r="2"></circle><circle cx="266" cy="367" r="2"></circle><circle cx="291" cy="370" r="2"></circle><circle cx="317" cy="374" r="2"></circle><circle cx="342" cy="377" r="2"></circle><circle cx="367" cy="379" r="2"></circle><circle cx="393" cy="381" r="2"></circle><circle cx="418" cy="384" r="2"></circle><circle cx="443" cy="389" r="2"></circle><circle cx="469" cy="393" r="2"></circle><circle cx="494" cy="397" r="2"></circle><circle cx="519" cy="400" r="2"></circle><circle cx="545" cy="404" r="2"></circle><circle cx="570" cy="407" r="2"></circle><circle cx="595" cy="409" r="2"></circle><circle cx="621" cy="411" r="2"></circle><circle cx="646" cy="413" r="2"></circle><circle cx="671" cy="414" r="2"></circle><circle cx="697" cy="415" r="2"></circle></g></g></g></g></g><g style="fill: #777;" class="SourcesFooter"><g style="fill: #777;" class="clickable"><text font-size="12.60" x="15.0" y="581.6"><tspan x="15" y="581.58">Source: IHME, Global Burden of Disease (GBD)</tspan></text></g><text font-size="12.60" x="602.7" y="581.6"><tspan x="602.656" y="581.58"><a target='_blank' style='fill: #777;' href='https://ourworldindata.org/suicide/'>OurWorldInData.org/suicide/</a> • <a style="fill: #777;" href="http://creativecommons.org/licenses/by-sa/4.0/deed.en_US" target="_blank">CC BY-SA</a></tspan></text></g></g></svg>