<svg xmlns="http://www.w3.org/2000/svg" version="1.1" style="font-family: 'Helvetica Neue', Helvetica, Arial, sans-serif; font-size: 18px; background-color: white; text-rendering: optimizeLegibility; -webkit-font-smoothing: antialiased;" width="850" height="600"><g class="ChartTab"><g class="HeaderView"><g opacity="0.8" transform="translate(770, 15) scale(0.31)"><a xmlns:xlink="http://www.w3.org/1999/xlink" xlink:href="https://ourworldindata.org" target="_blank"><g><rect x="0" y="0" fill="#1B2543" width="211.2" height="130.1"/><rect x="0" y="112.2" fill="#E63912" width="211.2" height="17.9"/><g><rect x="1.2" y="12.3" fill="none" width="210.2" height="99.2"/><path fill="#FFFFFF" d="M37.8,32.2c0,12.7-7.7,19.4-17.1,19.4c-9.7,0-16.6-7.5-16.6-18.7c0-11.7,7.3-19.3,17.1-19.3 C31.3,13.7,37.8,21.3,37.8,32.2z M9.2,32.8c0,7.9,4.3,14.9,11.8,14.9c7.5,0,11.8-6.9,11.8-15.3c0-7.3-3.8-14.9-11.8-14.9 C13.1,17.5,9.2,24.8,9.2,32.8z"/><path fill="#FFFFFF" d="M62.7,43.8c0,2.7,0.1,5.1,0.2,7.2h-4.3l-0.3-4.3h-0.1c-1.3,2.1-4,4.9-8.8,4.9c-4.2,0-9.1-2.3-9.1-11.6 V24.6h4.8v14.6c0,5,1.5,8.4,5.9,8.4c3.2,0,5.5-2.2,6.3-4.4c0.3-0.7,0.4-1.6,0.4-2.5V24.6h4.8V43.8z"/><path fill="#FFFFFF" d="M67.3,32.8c0-3.1-0.1-5.8-0.2-8.2h4.2l0.2,5.2h0.2c1.2-3.5,4.1-5.8,7.3-5.8c0.5,0,0.9,0.1,1.4,0.2v4.5 c-0.5-0.1-1-0.2-1.6-0.2c-3.4,0-5.8,2.6-6.5,6.2c-0.1,0.7-0.2,1.4-0.2,2.2V51h-4.8V32.8z"/><path fill="#FFFFFF" d="M95.4,51l-9.4-36.8h5l4.4,18.6c1.1,4.6,2.1,9.2,2.7,12.7h0.1c0.6-3.7,1.8-8,3-12.8l4.9-18.5h5l4.5,18.7 c1,4.4,2,8.7,2.6,12.6h0.1c0.8-4,1.8-8.1,3-12.7l4.9-18.5h4.9L120.6,51h-5L111,31.9c-1.1-4.7-1.9-8.3-2.4-12h-0.1 c-0.7,3.7-1.5,7.3-2.8,12L100.4,51H95.4z"/><path fill="#FFFFFF" d="M154.9,37.6c0,9.8-6.8,14-13.2,14c-7.2,0-12.7-5.2-12.7-13.6c0-8.8,5.8-14,13.1-14 C149.8,24,154.9,29.5,154.9,37.6z M133.9,37.9c0,5.8,3.3,10.1,8,10.1c4.6,0,8-4.3,8-10.3c0-4.5-2.2-10.1-7.9-10.1 C136.3,27.6,133.9,32.8,133.9,37.9z"/><path fill="#FFFFFF" d="M158.2,32.8c0-3.1-0.1-5.8-0.2-8.2h4.2l0.2,5.2h0.2c1.2-3.5,4.1-5.8,7.3-5.8c0.5,0,0.9,0.1,1.4,0.2v4.5 c-0.5-0.1-1-0.2-1.6-0.2c-3.4,0-5.8,2.6-6.5,6.2c-0.1,0.7-0.2,1.4-0.2,2.2V51h-4.8V32.8z"/><path fill="#FFFFFF" d="M173.5,12.3h4.8V51h-4.8V12.3z"/><path fill="#FFFFFF" d="M206.5,12.3v31.9c0,2.3,0.1,5,0.2,6.8h-4.3l-0.2-4.6H202c-1.5,2.9-4.7,5.2-9,5.2 c-6.4,0-11.3-5.4-11.3-13.4c-0.1-8.8,5.4-14.2,11.9-14.2c4,0,6.8,1.9,8,4h0.1V12.3H206.5z M201.7,35.4c0-0.6-0.1-1.4-0.2-2 c-0.7-3.1-3.3-5.6-6.9-5.6c-5,0-7.9,4.4-7.9,10.2c0,5.3,2.6,9.8,7.8,9.8c3.2,0,6.2-2.1,7.1-5.7c0.2-0.7,0.2-1.3,0.2-2.1V35.4z"/><path fill="#FFFFFF" d="M42.8,64c0.1,1.6-1.1,2.9-3.1,2.9c-1.7,0-2.9-1.3-2.9-2.9c0-1.7,1.3-3,3-3C41.7,61,42.8,62.3,42.8,64z M37.4,97.8V71.4h4.8v26.4H37.4z"/><path fill="#FFFFFF" d="M47.5,78.6c0-2.7-0.1-5-0.2-7.1h4.3l0.3,4.4h0.1c1.3-2.5,4.4-5,8.8-5c3.7,0,9.4,2.2,9.4,11.2v15.8h-4.8 V82.6c0-4.3-1.6-7.8-6.1-7.8c-3.2,0-5.6,2.2-6.5,4.9c-0.2,0.6-0.3,1.4-0.3,2.2v15.9h-4.8V78.6z"/><path fill="#FFFFFF" d="M84,61.6c2.9-0.4,6.3-0.8,10.1-0.8c6.8,0,11.7,1.6,14.9,4.6c3.3,3,5.2,7.3,5.2,13.2c0,6-1.9,10.9-5.3,14.3 c-3.4,3.4-9.1,5.3-16.3,5.3c-3.4,0-6.2-0.2-8.6-0.4V61.6z M88.8,94.1c1.2,0.2,3,0.3,4.8,0.3c10.2,0,15.7-5.7,15.7-15.6 c0.1-8.7-4.9-14.2-14.9-14.2c-2.5,0-4.3,0.2-5.6,0.5V94.1z"/><path fill="#FFFFFF" d="M132.1,97.8l-0.4-3.3h-0.2c-1.5,2.1-4.3,3.9-8.1,3.9c-5.4,0-8.1-3.8-8.1-7.6c0-6.4,5.7-9.9,15.9-9.8v-0.5 c0-2.2-0.6-6.1-6-6.1c-2.5,0-5,0.8-6.9,2l-1.1-3.2c2.2-1.4,5.4-2.3,8.7-2.3c8.1,0,10.1,5.5,10.1,10.8v9.9c0,2.3,0.1,4.5,0.4,6.3 H132.1z M131.4,84.4c-5.3-0.1-11.2,0.8-11.2,5.9c0,3.1,2.1,4.6,4.5,4.6c3.4,0,5.6-2.2,6.4-4.4c0.2-0.5,0.3-1,0.3-1.5V84.4z"/><path fill="#FFFFFF" d="M146.6,63.9v7.6h6.9v3.7h-6.9v14.2c0,3.3,0.9,5.1,3.6,5.1c1.3,0,2.2-0.2,2.8-0.3l0.2,3.6 c-0.9,0.4-2.4,0.7-4.3,0.7c-2.2,0-4-0.7-5.2-2c-1.4-1.4-1.9-3.8-1.9-6.9V75.1h-4.1v-3.7h4.1v-6.3L146.6,63.9z"/><path fill="#FFFFFF" d="M171.4,97.8l-0.4-3.3h-0.2c-1.5,2.1-4.3,3.9-8.1,3.9c-5.4,0-8.1-3.8-8.1-7.6c0-6.4,5.7-9.9,15.9-9.8v-0.5 c0-2.2-0.6-6.1-6-6.1c-2.5,0-5,0.8-6.9,2l-1.1-3.2c2.2-1.4,5.4-2.3,8.7-2.3c8.1,0,10.1,5.5,10.1,10.8v9.9c0,2.3,0.1,4.5,0.4,6.3 H171.4z M170.7,84.4c-5.3-0.1-11.2,0.8-11.2,5.9c0,3.1,2.1,4.6,4.5,4.6c3.4,0,5.6-2.2,6.4-4.4c0.2-0.5,0.3-1,0.3-1.5V84.4z"/></g></g></a></g><a href="https://ourworldindata.org/grapher/suicide-deaths-by-age" target="_blank"><text font-size="27.00" x="15.0" y="36.6" fill="#555"><tspan x="15" y="36.6">Suicide deaths by age, World</tspan></text></a><text font-size="14.40" x="15.0" y="55.5" fill="#666"><tspan x="15" y="55.519999999999996">Annual number of deaths from suicide/self-harm by age group.</tspan></text></g><g class="StackedArea"><defs><clipPath id="boundsClip-1273"><rect x="78.968" y="0" width="820" height="956.2"></rect></clipPath></defs><g class="AxisBoxView"><g class="HorizontalAxis"><text x="79" y="556.5" fill="#666" text-anchor="middle" font-size="16.2">1990</text><text x="201.3" y="556.5" fill="#666" text-anchor="middle" font-size="16.2">1995</text><text x="323.7" y="556.5" fill="#666" text-anchor="middle" font-size="16.2">2000</text><text x="446.1" y="556.5" fill="#666" text-anchor="middle" font-size="16.2">2005</text><text x="568.5" y="556.5" fill="#666" text-anchor="middle" font-size="16.2">2010</text><text x="715.4" y="556.5" fill="#666" text-anchor="middle" font-size="16.2">2016</text></g><g class="VerticalAxis"><text x="73.97" y="535.3" fill="#666" dominant-baseline="middle" text-anchor="end" font-size="16.2">0</text><text x="73.97" y="429.2" fill="#666" dominant-baseline="middle" text-anchor="end" font-size="16.2">200,000</text><text x="73.97" y="323" fill="#666" dominant-baseline="middle" text-anchor="end" font-size="16.2">400,000</text><text x="73.97" y="216.9" fill="#666" dominant-baseline="middle" text-anchor="end" font-size="16.2">600,000</text><text x="73.97" y="110.7" fill="#666" dominant-baseline="middle" text-anchor="end" font-size="16.2">800,000</text></g><g class="AxisGridLines"><line x1="78.97" y1="535.3" x2="715.35" y2="535.3" stroke="#ccc"></line><line x1="78.97" y1="429.2" x2="715.35" y2="429.2" stroke="#ddd" stroke-dasharray="3,2"></line><line x1="78.97" y1="323" x2="715.35" y2="323" stroke="#ddd" stroke-dasharray="3,2"></line><line x1="78.97" y1="216.9" x2="715.35" y2="216.9" stroke="#ddd" stroke-dasharray="3,2"></line><line x1="78.97" y1="110.7" x2="715.35" y2="110.7" stroke="#ddd" stroke-dasharray="3,2"></line></g><g class="AxisGridLines"><line x1="79" y1="535.30" x2="79" y2="78.40" stroke="#ddd" stroke-dasharray="3,2"></line><line x1="201.3" y1="535.30" x2="201.3" y2="78.40" stroke="#ddd" stroke-dasharray="3,2"></line><line x1="323.7" y1="535.30" x2="323.7" y2="78.40" stroke="#ddd" stroke-dasharray="3,2"></line><line x1="446.1" y1="535.30" x2="446.1" y2="78.40" stroke="#ddd" stroke-dasharray="3,2"></line><line x1="568.5" y1="535.30" x2="568.5" y2="78.40" stroke="#ddd" stroke-dasharray="3,2"></line><line x1="690.9" y1="535.30" x2="690.9" y2="78.40" stroke="#ddd" stroke-dasharray="3,2"></line></g></g><g clip-path="url(#boundsClip-1273)"><g class="HeightedLegend clickable"><g class="legendMark"><rect x="720.352" y="123.8" width="102.12" height="14.4" fill="#fff" opacity="0"></rect><rect x="720.352" y="129.75" width="10" height="2.5" fill="#34983f"></rect><text font-size="14.40" x="735.4" y="135.3" fill="#333"><tspan x="735.352" y="135.32">70+ years old</tspan></text></g><g class="legendMark"><rect x="720.352" y="209.5" width="114.64800000000001" height="14.4" fill="#fff" opacity="0"></rect><rect x="720.352" y="215.45" width="10" height="2.5" fill="#ffd53e"></rect><text font-size="14.40" x="735.4" y="221.0" fill="#333"><tspan x="735.352" y="221.02">50-69 years old</tspan></text></g><g class="legendMark"><rect x="720.352" y="394.8" width="114.64800000000001" height="14.4" fill="#fff" opacity="0"></rect><rect x="720.352" y="400.75" width="10" height="2.5" fill="#ca2628"></rect><text font-size="14.40" x="735.4" y="406.3" fill="#333"><tspan x="735.352" y="406.32">15-49 years old</tspan></text></g><g class="legendMark"><rect x="720.352" y="526" width="106.58400000000002" height="14.4" fill="#fff" opacity="0"></rect><rect x="720.352" y="531.95" width="10" height="2.5" fill="#3360a9"></rect><text font-size="14.40" x="735.4" y="537.5" fill="#333"><tspan x="735.352" y="537.52">5-14 years old</tspan></text></g></g><g class="Areas"><rect x="78.968" y="78.4" width="636.384" height="456.9000000000001" opacity="0" fill="rgba(255,255,255,0)"></rect><path stroke-linecap="round" d="M79 528.4L103.4 528.5L127.9 528.5L152.4 528.5L176.9 528.5L201.3 528.3L225.8 528.2L250.3 528.1L274.8 528.1L299.3 528.2L323.7 528.3L348.2 528.6L372.7 528.9L397.2 529.2L421.6 529.4L446.1 529.7L470.6 530L495.1 530.2L519.5 530.4L544 530.4L568.5 530.5L593 530.6L617.4 530.7L641.9 530.8L666.4 530.8L690.9 531L715.4 531.1L715.352 535.3000000000001L78.968 535.3000000000001" fill="#3360a9" fill-opacity="0.7" class="World_3-area"></path><path stroke-linecap="round" d="M79 254.8L103.4 248.4L127.9 241.1L152.4 231.8L176.9 223.3L201.3 220.5L225.8 221.5L250.3 223.1L274.8 225.2L299.3 226.9L323.7 229.6L348.2 233.5L372.7 235.4L397.2 237.3L421.6 240.1L446.1 242.9L470.6 247.9L495.1 252.5L519.5 256.6L544 261.3L568.5 265.3L593 267.6L617.4 269.6L641.9 271.4L666.4 272L690.9 272.1L715.4 273L715.4 531.1L690.9 531L666.4 530.8L641.9 530.8L617.4 530.7L593 530.6L568.5 530.5L544 530.4L519.5 530.4L495.1 530.2L470.6 530L446.1 529.7L421.6 529.4L397.2 529.2L372.7 528.9L348.2 528.6L323.7 528.3L299.3 528.2L274.8 528.1L250.3 528.1L225.8 528.2L201.3 528.3L176.9 528.5L152.4 528.5L127.9 528.5L103.4 528.5L79 528.4" fill="#ca2628" fill-opacity="0.7" class="World_2-area"></path><path stroke-linecap="round" d="M79 169.4L103.4 161.3L127.9 151.4L152.4 139L176.9 127.9L201.3 124.7L225.8 127L250.3 128.8L274.8 130.3L299.3 130.1L323.7 131.5L348.2 135.1L372.7 135.5L397.2 134.5L421.6 135.1L446.1 136.5L470.6 142.5L495.1 147.5L519.5 151.5L544 156.4L568.5 159.7L593 161.8L617.4 163L641.9 163.6L666.4 162.5L690.9 161L715.4 160.4L715.4 273L690.9 272.1L666.4 272L641.9 271.4L617.4 269.6L593 267.6L568.5 265.3L544 261.3L519.5 256.6L495.1 252.5L470.6 247.9L446.1 242.9L421.6 240.1L397.2 237.3L372.7 235.4L348.2 233.5L323.7 229.6L299.3 226.9L274.8 225.2L250.3 223.1L225.8 221.5L201.3 220.5L176.9 223.3L152.4 231.8L127.9 241.1L103.4 248.4L79 254.8" fill="#ffd53e" fill-opacity="0.7" class="World_1-area"></path><path stroke-linecap="round" d="M79 128.8L103.4 119.6L127.9 108.6L152.4 95L176.9 82.5L201.3 78.4L225.8 80.5L250.3 81.6L274.8 82.2L299.3 81L323.7 81.8L348.2 85.1L372.7 84.3L397.2 82.1L421.6 81.7L446.1 82.1L470.6 88L495.1 92.6L519.5 96.1L544 100.6L568.5 103.3L593 105.7L617.4 107L641.9 107.6L666.4 105.9L690.9 103.7L715.4 101.6L715.4 160.4L690.9 161L666.4 162.5L641.9 163.6L617.4 163L593 161.8L568.5 159.7L544 156.4L519.5 151.5L495.1 147.5L470.6 142.5L446.1 136.5L421.6 135.1L397.2 134.5L372.7 135.5L348.2 135.1L323.7 131.5L299.3 130.1L274.8 130.3L250.3 128.8L225.8 127L201.3 124.7L176.9 127.9L152.4 139L127.9 151.4L103.4 161.3L79 169.4" fill="#34983f" fill-opacity="0.7" class="World_0-area"></path><path stroke-linecap="round" d="M79 528.4L103.4 528.5L127.9 528.5L152.4 528.5L176.9 528.5L201.3 528.3L225.8 528.2L250.3 528.1L274.8 528.1L299.3 528.2L323.7 528.3L348.2 528.6L372.7 528.9L397.2 529.2L421.6 529.4L446.1 529.7L470.6 530L495.1 530.2L519.5 530.4L544 530.4L568.5 530.5L593 530.6L617.4 530.7L641.9 530.8L666.4 530.8L690.9 531L715.4 531.1" stroke="rgb(43, 80, 141)" stroke-opacity="0.7" stroke-width="0.5" fill="none" class="World_3-border"></path><path stroke-linecap="round" d="M79 254.8L103.4 248.4L127.9 241.1L152.4 231.8L176.9 223.3L201.3 220.5L225.8 221.5L250.3 223.1L274.8 225.2L299.3 226.9L323.7 229.6L348.2 233.5L372.7 235.4L397.2 237.3L421.6 240.1L446.1 242.9L470.6 247.9L495.1 252.5L519.5 256.6L544 261.3L568.5 265.3L593 267.6L617.4 269.6L641.9 271.4L666.4 272L690.9 272.1L715.4 273" stroke="rgb(169, 32, 33)" stroke-opacity="0.7" stroke-width="0.5" fill="none" class="World_2-border"></path><path stroke-linecap="round" d="M79 169.4L103.4 161.3L127.9 151.4L152.4 139L176.9 127.9L201.3 124.7L225.8 127L250.3 128.8L274.8 130.3L299.3 130.1L323.7 131.5L348.2 135.1L372.7 135.5L397.2 134.5L421.6 135.1L446.1 136.5L470.6 142.5L495.1 147.5L519.5 151.5L544 156.4L568.5 159.7L593 161.8L617.4 163L641.9 163.6L666.4 162.5L690.9 161L715.4 160.4" stroke="rgb(213, 178, 52)" stroke-opacity="0.7" stroke-width="0.5" fill="none" class="World_1-border"></path><path stroke-linecap="round" d="M79 128.8L103.4 119.6L127.9 108.6L152.4 95L176.9 82.5L201.3 78.4L225.8 80.5L250.3 81.6L274.8 82.2L299.3 81L323.7 81.8L348.2 85.1L372.7 84.3L397.2 82.1L421.6 81.7L446.1 82.1L470.6 88L495.1 92.6L519.5 96.1L544 100.6L568.5 103.3L593 105.7L617.4 107L641.9 107.6L666.4 105.9L690.9 103.7L715.4 101.6" stroke="rgb(44, 127, 53)" stroke-opacity="0.7" stroke-width="0.5" fill="none" class="World_0-border"></path></g></g></g><g style="fill: #777;" class="SourcesFooter"><g style="fill: #777;" class="clickable"><text font-size="12.60" x="15.0" y="581.6"><tspan x="15" y="581.58">Source: IHME, Global Burden of Disease (GBD)</tspan></text></g><text font-size="12.60" x="602.7" y="581.6"><tspan x="602.656" y="581.58"><a target='_blank' style='fill: #777;' href='https://ourworldindata.org/suicide/'>OurWorldInData.org/suicide/</a> • <a style="fill: #777;" href="http://creativecommons.org/licenses/by-sa/4.0/deed.en_US" target="_blank">CC BY-SA</a></tspan></text></g></g></svg>