<svg xmlns="http://www.w3.org/2000/svg" version="1.1" style="font-family: 'Helvetica Neue', Helvetica, Arial, sans-serif; font-size: 18px; background-color: white; text-rendering: optimizeLegibility; -webkit-font-smoothing: antialiased;" width="850" height="600"><g class="ChartTab"><g class="HeaderView"><g opacity="0.8" transform="translate(778, 15) scale(0.27)"><a xmlns:xlink="http://www.w3.org/1999/xlink" xlink:href="https://ourworldindata.org" target="_blank"><g><rect x="0" y="0" fill="#1B2543" width="211.2" height="130.1"/><rect x="0" y="112.2" fill="#E63912" width="211.2" height="17.9"/><g><rect x="1.2" y="12.3" fill="none" width="210.2" height="99.2"/><path fill="#FFFFFF" d="M37.8,32.2c0,12.7-7.7,19.4-17.1,19.4c-9.7,0-16.6-7.5-16.6-18.7c0-11.7,7.3-19.3,17.1-19.3 C31.3,13.7,37.8,21.3,37.8,32.2z M9.2,32.8c0,7.9,4.3,14.9,11.8,14.9c7.5,0,11.8-6.9,11.8-15.3c0-7.3-3.8-14.9-11.8-14.9 C13.1,17.5,9.2,24.8,9.2,32.8z"/><path fill="#FFFFFF" d="M62.7,43.8c0,2.7,0.1,5.1,0.2,7.2h-4.3l-0.3-4.3h-0.1c-1.3,2.1-4,4.9-8.8,4.9c-4.2,0-9.1-2.3-9.1-11.6 V24.6h4.8v14.6c0,5,1.5,8.4,5.9,8.4c3.2,0,5.5-2.2,6.3-4.4c0.3-0.7,0.4-1.6,0.4-2.5V24.6h4.8V43.8z"/><path fill="#FFFFFF" d="M67.3,32.8c0-3.1-0.1-5.8-0.2-8.2h4.2l0.2,5.2h0.2c1.2-3.5,4.1-5.8,7.3-5.8c0.5,0,0.9,0.1,1.4,0.2v4.5 c-0.5-0.1-1-0.2-1.6-0.2c-3.4,0-5.8,2.6-6.5,6.2c-0.1,0.7-0.2,1.4-0.2,2.2V51h-4.8V32.8z"/><path fill="#FFFFFF" d="M95.4,51l-9.4-36.8h5l4.4,18.6c1.1,4.6,2.1,9.2,2.7,12.7h0.1c0.6-3.7,1.8-8,3-12.8l4.9-18.5h5l4.5,18.7 c1,4.4,2,8.7,2.6,12.6h0.1c0.8-4,1.8-8.1,3-12.7l4.9-18.5h4.9L120.6,51h-5L111,31.9c-1.1-4.7-1.9-8.3-2.4-12h-0.1 c-0.7,3.7-1.5,7.3-2.8,12L100.4,51H95.4z"/><path fill="#FFFFFF" d="M154.9,37.6c0,9.8-6.8,14-13.2,14c-7.2,0-12.7-5.2-12.7-13.6c0-8.8,5.8-14,13.1-14 C149.8,24,154.9,29.5,154.9,37.6z M133.9,37.9c0,5.8,3.3,10.1,8,10.1c4.6,0,8-4.3,8-10.3c0-4.5-2.2-10.1-7.9-10.1 C136.3,27.6,133.9,32.8,133.9,37.9z"/><path fill="#FFFFFF" d="M158.2,32.8c0-3.1-0.1-5.8-0.2-8.2h4.2l0.2,5.2h0.2c1.2-3.5,4.1-5.8,7.3-5.8c0.5,0,0.9,0.1,1.4,0.2v4.5 c-0.5-0.1-1-0.2-1.6-0.2c-3.4,0-5.8,2.6-6.5,6.2c-0.1,0.7-0.2,1.4-0.2,2.2V51h-4.8V32.8z"/><path fill="#FFFFFF" d="M173.5,12.3h4.8V51h-4.8V12.3z"/><path fill="#FFFFFF" d="M206.5,12.3v31.9c0,2.3,0.1,5,0.2,6.8h-4.3l-0.2-4.6H202c-1.5,2.9-4.7,5.2-9,5.2 c-6.4,0-11.3-5.4-11.3-13.4c-0.1-8.8,5.4-14.2,11.9-14.2c4,0,6.8,1.9,8,4h0.1V12.3H206.5z M201.7,35.4c0-0.6-0.1-1.4-0.2-2 c-0.7-3.1-3.3-5.6-6.9-5.6c-5,0-7.9,4.4-7.9,10.2c0,5.3,2.6,9.8,7.8,9.8c3.2,0,6.2-2.1,7.1-5.7c0.2-0.7,0.2-1.3,0.2-2.1V35.4z"/><path fill="#FFFFFF" d="M42.8,64c0.1,1.6-1.1,2.9-3.1,2.9c-1.7,0-2.9-1.3-2.9-2.9c0-1.7,1.3-3,3-3C41.7,61,42.8,62.3,42.8,64z M37.4,97.8V71.4h4.8v26.4H37.4z"/><path fill="#FFFFFF" d="M47.5,78.6c0-2.7-0.1-5-0.2-7.1h4.3l0.3,4.4h0.1c1.3-2.5,4.4-5,8.8-5c3.7,0,9.4,2.2,9.4,11.2v15.8h-4.8 V82.6c0-4.3-1.6-7.8-6.1-7.8c-3.2,0-5.6,2.2-6.5,4.9c-0.2,0.6-0.3,1.4-0.3,2.2v15.9h-4.8V78.6z"/><path fill="#FFFFFF" d="M84,61.6c2.9-0.4,6.3-0.8,10.1-0.8c6.8,0,11.7,1.6,14.9,4.6c3.3,3,5.2,7.3,5.2,13.2c0,6-1.9,10.9-5.3,14.3 c-3.4,3.4-9.1,5.3-16.3,5.3c-3.4,0-6.2-0.2-8.6-0.4V61.6z M88.8,94.1c1.2,0.2,3,0.3,4.8,0.3c10.2,0,15.7-5.7,15.7-15.6 c0.1-8.7-4.9-14.2-14.9-14.2c-2.5,0-4.3,0.2-5.6,0.5V94.1z"/><path fill="#FFFFFF" d="M132.1,97.8l-0.4-3.3h-0.2c-1.5,2.1-4.3,3.9-8.1,3.9c-5.4,0-8.1-3.8-8.1-7.6c0-6.4,5.7-9.9,15.9-9.8v-0.5 c0-2.2-0.6-6.1-6-6.1c-2.5,0-5,0.8-6.9,2l-1.1-3.2c2.2-1.4,5.4-2.3,8.7-2.3c8.1,0,10.1,5.5,10.1,10.8v9.9c0,2.3,0.1,4.5,0.4,6.3 H132.1z M131.4,84.4c-5.3-0.1-11.2,0.8-11.2,5.9c0,3.1,2.1,4.6,4.5,4.6c3.4,0,5.6-2.2,6.4-4.4c0.2-0.5,0.3-1,0.3-1.5V84.4z"/><path fill="#FFFFFF" d="M146.6,63.9v7.6h6.9v3.7h-6.9v14.2c0,3.3,0.9,5.1,3.6,5.1c1.3,0,2.2-0.2,2.8-0.3l0.2,3.6 c-0.9,0.4-2.4,0.7-4.3,0.7c-2.2,0-4-0.7-5.2-2c-1.4-1.4-1.9-3.8-1.9-6.9V75.1h-4.1v-3.7h4.1v-6.3L146.6,63.9z"/><path fill="#FFFFFF" d="M171.4,97.8l-0.4-3.3h-0.2c-1.5,2.1-4.3,3.9-8.1,3.9c-5.4,0-8.1-3.8-8.1-7.6c0-6.4,5.7-9.9,15.9-9.8v-0.5 c0-2.2-0.6-6.1-6-6.1c-2.5,0-5,0.8-6.9,2l-1.1-3.2c2.2-1.4,5.4-2.3,8.7-2.3c8.1,0,10.1,5.5,10.1,10.8v9.9c0,2.3,0.1,4.5,0.4,6.3 H171.4z M170.7,84.4c-5.3-0.1-11.2,0.8-11.2,5.9c0,3.1,2.1,4.6,4.5,4.6c3.4,0,5.6-2.2,6.4-4.4c0.2-0.5,0.3-1,0.3-1.5V84.4z"/></g></g></a></g><a href="https://ourworldindata.org/grapher/suicide-deaths-by-age" target="_blank"><text font-size="25.20" x="15.0" y="35.2" fill="#555"><tspan x="15" y="35.160000000000004">Suicide deaths by age, World</tspan></text></a><text font-size="14.40" x="15.0" y="53.7" fill="#666"><tspan x="15" y="53.72">Annual number of deaths from suicide/self-harm by age group.</tspan></text></g><g class="StackedArea"><defs><clipPath id="boundsClip-1077"><rect x="78.968" y="0" width="820" height="959.8"></rect></clipPath></defs><g class="AxisBoxView"><g class="HorizontalAxis"><text x="79" y="556.5" fill="#666" text-anchor="middle" font-size="16.2">1990</text><text x="201.3" y="556.5" fill="#666" text-anchor="middle" font-size="16.2">1995</text><text x="323.7" y="556.5" fill="#666" text-anchor="middle" font-size="16.2">2000</text><text x="446.1" y="556.5" fill="#666" text-anchor="middle" font-size="16.2">2005</text><text x="568.5" y="556.5" fill="#666" text-anchor="middle" font-size="16.2">2010</text><text x="715.4" y="556.5" fill="#666" text-anchor="middle" font-size="16.2">2016</text></g><g class="VerticalAxis"><text x="73.97" y="535.3" fill="#666" dominant-baseline="middle" text-anchor="end" font-size="16.2">0</text><text x="73.97" y="428.7" fill="#666" dominant-baseline="middle" text-anchor="end" font-size="16.2">200,000</text><text x="73.97" y="322.2" fill="#666" dominant-baseline="middle" text-anchor="end" font-size="16.2">400,000</text><text x="73.97" y="215.6" fill="#666" dominant-baseline="middle" text-anchor="end" font-size="16.2">600,000</text><text x="73.97" y="109.1" fill="#666" dominant-baseline="middle" text-anchor="end" font-size="16.2">800,000</text></g><g class="AxisGridLines"><line x1="78.97" y1="535.3" x2="715.35" y2="535.3" stroke="#ccc"></line><line x1="78.97" y1="428.7" x2="715.35" y2="428.7" stroke="#ddd" stroke-dasharray="3,2"></line><line x1="78.97" y1="322.2" x2="715.35" y2="322.2" stroke="#ddd" stroke-dasharray="3,2"></line><line x1="78.97" y1="215.6" x2="715.35" y2="215.6" stroke="#ddd" stroke-dasharray="3,2"></line><line x1="78.97" y1="109.1" x2="715.35" y2="109.1" stroke="#ddd" stroke-dasharray="3,2"></line></g></g><g clip-path="url(#boundsClip-1077)"><g class="HeightedLegend clickable"><g class="legendMark"><rect x="720.352" y="122.2" width="102.12" height="14.4" fill="#fff" opacity="0"></rect><rect x="720.352" y="128.15" width="10" height="2.5" fill="#34983f"></rect><text font-size="14.40" x="735.4" y="133.7" fill="#333"><tspan x="735.352" y="133.72">70+ years old</tspan></text></g><g class="legendMark"><rect x="720.352" y="208.20000000000002" width="114.64800000000001" height="14.4" fill="#fff" opacity="0"></rect><rect x="720.352" y="214.15" width="10" height="2.5" fill="#ffd53e"></rect><text font-size="14.40" x="735.4" y="219.7" fill="#333"><tspan x="735.352" y="219.72000000000003">50-69 years old</tspan></text></g><g class="legendMark"><rect x="720.352" y="394.3" width="114.64800000000001" height="14.4" fill="#fff" opacity="0"></rect><rect x="720.352" y="400.25" width="10" height="2.5" fill="#ca2628"></rect><text font-size="14.40" x="735.4" y="405.8" fill="#333"><tspan x="735.352" y="405.82">15-49 years old</tspan></text></g><g class="legendMark"><rect x="720.352" y="526" width="106.58400000000002" height="14.4" fill="#fff" opacity="0"></rect><rect x="720.352" y="531.95" width="10" height="2.5" fill="#3360a9"></rect><text font-size="14.40" x="735.4" y="537.5" fill="#333"><tspan x="735.352" y="537.52">5-14 years old</tspan></text></g></g><g class="Areas"><rect x="78.968" y="76.6" width="636.384" height="458.69999999999993" opacity="0" fill="rgba(255,255,255,0)"></rect><path stroke-linecap="round" d="M79 528.3L103.4 528.5L127.9 528.5L152.4 528.5L176.9 528.4L201.3 528.3L225.8 528.1L250.3 528.1L274.8 528.1L299.3 528.2L323.7 528.3L348.2 528.6L372.7 528.9L397.2 529.1L421.6 529.3L446.1 529.7L470.6 530L495.1 530.2L519.5 530.4L544 530.4L568.5 530.5L593 530.6L617.4 530.7L641.9 530.8L666.4 530.8L690.9 530.9L715.4 531.1L715.352 535.3L78.968 535.3" fill="#3360a9" fill-opacity="0.7" class="World_3-area"></path><path stroke-linecap="round" d="M79 253.7L103.4 247.3L127.9 239.9L152.4 230.6L176.9 222.1L201.3 219.2L225.8 220.2L250.3 221.9L274.8 224L299.3 225.7L323.7 228.4L348.2 232.3L372.7 234.2L397.2 236.1L421.6 239L446.1 241.7L470.6 246.8L495.1 251.4L519.5 255.5L544 260.3L568.5 264.2L593 266.5L617.4 268.6L641.9 270.3L666.4 270.9L690.9 271.1L715.4 272L715.4 531.1L690.9 530.9L666.4 530.8L641.9 530.8L617.4 530.7L593 530.6L568.5 530.5L544 530.4L519.5 530.4L495.1 530.2L470.6 530L446.1 529.7L421.6 529.3L397.2 529.1L372.7 528.9L348.2 528.6L323.7 528.3L299.3 528.2L274.8 528.1L250.3 528.1L225.8 528.1L201.3 528.3L176.9 528.4L152.4 528.5L127.9 528.5L103.4 528.5L79 528.3" fill="#ca2628" fill-opacity="0.7" class="World_2-area"></path><path stroke-linecap="round" d="M79 168L103.4 159.9L127.9 149.9L152.4 137.5L176.9 126.3L201.3 123.1L225.8 125.4L250.3 127.2L274.8 128.7L299.3 128.5L323.7 129.9L348.2 133.5L372.7 133.9L397.2 132.9L421.6 133.5L446.1 134.9L470.6 141L495.1 145.9L519.5 150L544 154.9L568.5 158.3L593 160.3L617.4 161.6L641.9 162.2L666.4 161L690.9 159.5L715.4 158.9L715.4 272L690.9 271.1L666.4 270.9L641.9 270.3L617.4 268.6L593 266.5L568.5 264.2L544 260.3L519.5 255.5L495.1 251.4L470.6 246.8L446.1 241.7L421.6 239L397.2 236.1L372.7 234.2L348.2 232.3L323.7 228.4L299.3 225.7L274.8 224L250.3 221.9L225.8 220.2L201.3 219.2L176.9 222.1L152.4 230.6L127.9 239.9L103.4 247.3L79 253.7" fill="#ffd53e" fill-opacity="0.7" class="World_1-area"></path><path stroke-linecap="round" d="M79 127.2L103.4 118L127.9 106.9L152.4 93.3L176.9 80.7L201.3 76.6L225.8 78.7L250.3 79.8L274.8 80.4L299.3 79.2L323.7 80L348.2 83.4L372.7 82.5L397.2 80.3L421.6 79.9L446.1 80.3L470.6 86.3L495.1 90.8L519.5 94.4L544 98.9L568.5 101.6L593 104.1L617.4 105.3L641.9 105.9L666.4 104.2L690.9 102L715.4 99.9L715.4 158.9L690.9 159.5L666.4 161L641.9 162.2L617.4 161.6L593 160.3L568.5 158.3L544 154.9L519.5 150L495.1 145.9L470.6 141L446.1 134.9L421.6 133.5L397.2 132.9L372.7 133.9L348.2 133.5L323.7 129.9L299.3 128.5L274.8 128.7L250.3 127.2L225.8 125.4L201.3 123.1L176.9 126.3L152.4 137.5L127.9 149.9L103.4 159.9L79 168" fill="#34983f" fill-opacity="0.7" class="World_0-area"></path><path stroke-linecap="round" d="M79 528.3L103.4 528.5L127.9 528.5L152.4 528.5L176.9 528.4L201.3 528.3L225.8 528.1L250.3 528.1L274.8 528.1L299.3 528.2L323.7 528.3L348.2 528.6L372.7 528.9L397.2 529.1L421.6 529.3L446.1 529.7L470.6 530L495.1 530.2L519.5 530.4L544 530.4L568.5 530.5L593 530.6L617.4 530.7L641.9 530.8L666.4 530.8L690.9 530.9L715.4 531.1" stroke="rgb(43, 80, 141)" stroke-opacity="0.7" stroke-width="0.5" fill="none" class="World_3-border"></path><path stroke-linecap="round" d="M79 253.7L103.4 247.3L127.9 239.9L152.4 230.6L176.9 222.1L201.3 219.2L225.8 220.2L250.3 221.9L274.8 224L299.3 225.7L323.7 228.4L348.2 232.3L372.7 234.2L397.2 236.1L421.6 239L446.1 241.7L470.6 246.8L495.1 251.4L519.5 255.5L544 260.3L568.5 264.2L593 266.5L617.4 268.6L641.9 270.3L666.4 270.9L690.9 271.1L715.4 272" stroke="rgb(169, 32, 33)" stroke-opacity="0.7" stroke-width="0.5" fill="none" class="World_2-border"></path><path stroke-linecap="round" d="M79 168L103.4 159.9L127.9 149.9L152.4 137.5L176.9 126.3L201.3 123.1L225.8 125.4L250.3 127.2L274.8 128.7L299.3 128.5L323.7 129.9L348.2 133.5L372.7 133.9L397.2 132.9L421.6 133.5L446.1 134.9L470.6 141L495.1 145.9L519.5 150L544 154.9L568.5 158.3L593 160.3L617.4 161.6L641.9 162.2L666.4 161L690.9 159.5L715.4 158.9" stroke="rgb(213, 178, 52)" stroke-opacity="0.7" stroke-width="0.5" fill="none" class="World_1-border"></path><path stroke-linecap="round" d="M79 127.2L103.4 118L127.9 106.9L152.4 93.3L176.9 80.7L201.3 76.6L225.8 78.7L250.3 79.8L274.8 80.4L299.3 79.2L323.7 80L348.2 83.4L372.7 82.5L397.2 80.3L421.6 79.9L446.1 80.3L470.6 86.3L495.1 90.8L519.5 94.4L544 98.9L568.5 101.6L593 104.1L617.4 105.3L641.9 105.9L666.4 104.2L690.9 102L715.4 99.9" stroke="rgb(44, 127, 53)" stroke-opacity="0.7" stroke-width="0.5" fill="none" class="World_0-border"></path></g></g></g><g style="fill: #777;" class="SourcesFooter"><g style="fill: #777;" class="clickable"><text font-size="12.60" x="15.0" y="581.6"><tspan x="15" y="581.58">Source: IHME, Global Burden of Disease (GBD)</tspan></text></g><text font-size="12.60" x="602.7" y="581.6"><tspan x="602.656" y="581.58"><a target='_blank' style='fill: #777;' href='https://ourworldindata.org/suicide/'>OurWorldInData.org/suicide/</a> • <a style="fill: #777;" href="http://creativecommons.org/licenses/by-sa/4.0/deed.en_US" target="_blank">CC BY-SA</a></tspan></text></g></g></svg>