<svg xmlns="http://www.w3.org/2000/svg" version="1.1" style="font-family: 'Helvetica Neue', Helvetica, Arial, sans-serif; font-size: 18px; background-color: white; text-rendering: optimizeLegibility; -webkit-font-smoothing: antialiased;" width="850" height="600"><g class="ChartTab"><g class="HeaderView"><g opacity="0.8" transform="translate(778, 15) scale(0.27)"><a xmlns:xlink="http://www.w3.org/1999/xlink" xlink:href="https://ourworldindata.org" target="_blank"><g><rect x="0" y="0" fill="#1B2543" width="211.2" height="130.1"/><rect x="0" y="112.2" fill="#E63912" width="211.2" height="17.9"/><g><rect x="1.2" y="12.3" fill="none" width="210.2" height="99.2"/><path fill="#FFFFFF" d="M37.8,32.2c0,12.7-7.7,19.4-17.1,19.4c-9.7,0-16.6-7.5-16.6-18.7c0-11.7,7.3-19.3,17.1-19.3 C31.3,13.7,37.8,21.3,37.8,32.2z M9.2,32.8c0,7.9,4.3,14.9,11.8,14.9c7.5,0,11.8-6.9,11.8-15.3c0-7.3-3.8-14.9-11.8-14.9 C13.1,17.5,9.2,24.8,9.2,32.8z"/><path fill="#FFFFFF" d="M62.7,43.8c0,2.7,0.1,5.1,0.2,7.2h-4.3l-0.3-4.3h-0.1c-1.3,2.1-4,4.9-8.8,4.9c-4.2,0-9.1-2.3-9.1-11.6 V24.6h4.8v14.6c0,5,1.5,8.4,5.9,8.4c3.2,0,5.5-2.2,6.3-4.4c0.3-0.7,0.4-1.6,0.4-2.5V24.6h4.8V43.8z"/><path fill="#FFFFFF" d="M67.3,32.8c0-3.1-0.1-5.8-0.2-8.2h4.2l0.2,5.2h0.2c1.2-3.5,4.1-5.8,7.3-5.8c0.5,0,0.9,0.1,1.4,0.2v4.5 c-0.5-0.1-1-0.2-1.6-0.2c-3.4,0-5.8,2.6-6.5,6.2c-0.1,0.7-0.2,1.4-0.2,2.2V51h-4.8V32.8z"/><path fill="#FFFFFF" d="M95.4,51l-9.4-36.8h5l4.4,18.6c1.1,4.6,2.1,9.2,2.7,12.7h0.1c0.6-3.7,1.8-8,3-12.8l4.9-18.5h5l4.5,18.7 c1,4.4,2,8.7,2.6,12.6h0.1c0.8-4,1.8-8.1,3-12.7l4.9-18.5h4.9L120.6,51h-5L111,31.9c-1.1-4.7-1.9-8.3-2.4-12h-0.1 c-0.7,3.7-1.5,7.3-2.8,12L100.4,51H95.4z"/><path fill="#FFFFFF" d="M154.9,37.6c0,9.8-6.8,14-13.2,14c-7.2,0-12.7-5.2-12.7-13.6c0-8.8,5.8-14,13.1-14 C149.8,24,154.9,29.5,154.9,37.6z M133.9,37.9c0,5.8,3.3,10.1,8,10.1c4.6,0,8-4.3,8-10.3c0-4.5-2.2-10.1-7.9-10.1 C136.3,27.6,133.9,32.8,133.9,37.9z"/><path fill="#FFFFFF" d="M158.2,32.8c0-3.1-0.1-5.8-0.2-8.2h4.2l0.2,5.2h0.2c1.2-3.5,4.1-5.8,7.3-5.8c0.5,0,0.9,0.1,1.4,0.2v4.5 c-0.5-0.1-1-0.2-1.6-0.2c-3.4,0-5.8,2.6-6.5,6.2c-0.1,0.7-0.2,1.4-0.2,2.2V51h-4.8V32.8z"/><path fill="#FFFFFF" d="M173.5,12.3h4.8V51h-4.8V12.3z"/><path fill="#FFFFFF" d="M206.5,12.3v31.9c0,2.3,0.1,5,0.2,6.8h-4.3l-0.2-4.6H202c-1.5,2.9-4.7,5.2-9,5.2 c-6.4,0-11.3-5.4-11.3-13.4c-0.1-8.8,5.4-14.2,11.9-14.2c4,0,6.8,1.9,8,4h0.1V12.3H206.5z M201.7,35.4c0-0.6-0.1-1.4-0.2-2 c-0.7-3.1-3.3-5.6-6.9-5.6c-5,0-7.9,4.4-7.9,10.2c0,5.3,2.6,9.8,7.8,9.8c3.2,0,6.2-2.1,7.1-5.7c0.2-0.7,0.2-1.3,0.2-2.1V35.4z"/><path fill="#FFFFFF" d="M42.8,64c0.1,1.6-1.1,2.9-3.1,2.9c-1.7,0-2.9-1.3-2.9-2.9c0-1.7,1.3-3,3-3C41.7,61,42.8,62.3,42.8,64z M37.4,97.8V71.4h4.8v26.4H37.4z"/><path fill="#FFFFFF" d="M47.5,78.6c0-2.7-0.1-5-0.2-7.1h4.3l0.3,4.4h0.1c1.3-2.5,4.4-5,8.8-5c3.7,0,9.4,2.2,9.4,11.2v15.8h-4.8 V82.6c0-4.3-1.6-7.8-6.1-7.8c-3.2,0-5.6,2.2-6.5,4.9c-0.2,0.6-0.3,1.4-0.3,2.2v15.9h-4.8V78.6z"/><path fill="#FFFFFF" d="M84,61.6c2.9-0.4,6.3-0.8,10.1-0.8c6.8,0,11.7,1.6,14.9,4.6c3.3,3,5.2,7.3,5.2,13.2c0,6-1.9,10.9-5.3,14.3 c-3.4,3.4-9.1,5.3-16.3,5.3c-3.4,0-6.2-0.2-8.6-0.4V61.6z M88.8,94.1c1.2,0.2,3,0.3,4.8,0.3c10.2,0,15.7-5.7,15.7-15.6 c0.1-8.7-4.9-14.2-14.9-14.2c-2.5,0-4.3,0.2-5.6,0.5V94.1z"/><path fill="#FFFFFF" d="M132.1,97.8l-0.4-3.3h-0.2c-1.5,2.1-4.3,3.9-8.1,3.9c-5.4,0-8.1-3.8-8.1-7.6c0-6.4,5.7-9.9,15.9-9.8v-0.5 c0-2.2-0.6-6.1-6-6.1c-2.5,0-5,0.8-6.9,2l-1.1-3.2c2.2-1.4,5.4-2.3,8.7-2.3c8.1,0,10.1,5.5,10.1,10.8v9.9c0,2.3,0.1,4.5,0.4,6.3 H132.1z M131.4,84.4c-5.3-0.1-11.2,0.8-11.2,5.9c0,3.1,2.1,4.6,4.5,4.6c3.4,0,5.6-2.2,6.4-4.4c0.2-0.5,0.3-1,0.3-1.5V84.4z"/><path fill="#FFFFFF" d="M146.6,63.9v7.6h6.9v3.7h-6.9v14.2c0,3.3,0.9,5.1,3.6,5.1c1.3,0,2.2-0.2,2.8-0.3l0.2,3.6 c-0.9,0.4-2.4,0.7-4.3,0.7c-2.2,0-4-0.7-5.2-2c-1.4-1.4-1.9-3.8-1.9-6.9V75.1h-4.1v-3.7h4.1v-6.3L146.6,63.9z"/><path fill="#FFFFFF" d="M171.4,97.8l-0.4-3.3h-0.2c-1.5,2.1-4.3,3.9-8.1,3.9c-5.4,0-8.1-3.8-8.1-7.6c0-6.4,5.7-9.9,15.9-9.8v-0.5 c0-2.2-0.6-6.1-6-6.1c-2.5,0-5,0.8-6.9,2l-1.1-3.2c2.2-1.4,5.4-2.3,8.7-2.3c8.1,0,10.1,5.5,10.1,10.8v9.9c0,2.3,0.1,4.5,0.4,6.3 H171.4z M170.7,84.4c-5.3-0.1-11.2,0.8-11.2,5.9c0,3.1,2.1,4.6,4.5,4.6c3.4,0,5.6-2.2,6.4-4.4c0.2-0.5,0.3-1,0.3-1.5V84.4z"/></g></g></a></g><a href="https://ourworldindata.org/grapher/the-number-of-deaths-from-tetanus-by-world-region" target="_blank"><text font-size="25.20" x="15.0" y="35.2" fill="#555"><tspan x="15" y="35.160000000000004">The number of deaths from tetanus by world region</tspan></text></a><text font-size="14.40" x="15.0" y="53.7" fill="#666"><tspan x="15" y="53.72">These include deaths at any age and of both sexes.</tspan></text></g><g class="StackedArea"><defs><clipPath id="boundsClip-1187"><rect x="78.968" y="0" width="820" height="959.8"></rect></clipPath></defs><g class="AxisBoxView"><g class="HorizontalAxis"><text x="79" y="556.5" fill="#666" text-anchor="middle" font-size="16.2">1990</text><text x="200.5" y="556.5" fill="#666" text-anchor="middle" font-size="16.2">1995</text><text x="322" y="556.5" fill="#666" text-anchor="middle" font-size="16.2">2000</text><text x="443.5" y="556.5" fill="#666" text-anchor="middle" font-size="16.2">2005</text><text x="565" y="556.5" fill="#666" text-anchor="middle" font-size="16.2">2010</text><text x="686.6" y="556.5" fill="#666" text-anchor="middle" font-size="16.2">2015</text></g><g class="VerticalAxis"><text x="73.97" y="535.3" fill="#666" dominant-baseline="middle" text-anchor="end" font-size="16.2">0</text><text x="73.97" y="466.4" fill="#666" dominant-baseline="middle" text-anchor="end" font-size="16.2">50,000</text><text x="73.97" y="397.6" fill="#666" dominant-baseline="middle" text-anchor="end" font-size="16.2">100,000</text><text x="73.97" y="328.7" fill="#666" dominant-baseline="middle" text-anchor="end" font-size="16.2">150,000</text><text x="73.97" y="259.8" fill="#666" dominant-baseline="middle" text-anchor="end" font-size="16.2">200,000</text><text x="73.97" y="191" fill="#666" dominant-baseline="middle" text-anchor="end" font-size="16.2">250,000</text><text x="73.97" y="122.1" fill="#666" dominant-baseline="middle" text-anchor="end" font-size="16.2">300,000</text></g><g class="AxisGridLines"><line x1="78.97" y1="535.3" x2="686.55" y2="535.3" stroke="#ccc"></line><line x1="78.97" y1="466.4" x2="686.55" y2="466.4" stroke="#ddd" stroke-dasharray="3,2"></line><line x1="78.97" y1="397.6" x2="686.55" y2="397.6" stroke="#ddd" stroke-dasharray="3,2"></line><line x1="78.97" y1="328.7" x2="686.55" y2="328.7" stroke="#ddd" stroke-dasharray="3,2"></line><line x1="78.97" y1="259.8" x2="686.55" y2="259.8" stroke="#ddd" stroke-dasharray="3,2"></line><line x1="78.97" y1="191" x2="686.55" y2="191" stroke="#ddd" stroke-dasharray="3,2"></line><line x1="78.97" y1="122.1" x2="686.55" y2="122.1" stroke="#ddd" stroke-dasharray="3,2"></line></g></g><g clip-path="url(#boundsClip-1187)"><g class="HeightedLegend clickable"><g class="legendMark"><rect x="691.552" y="520.9" width="136.24800000000002" height="14.4" fill="#fff" opacity="0"></rect><rect x="691.552" y="526.85" width="10" height="2.5" fill="#3360a9"></rect><text font-size="14.40" x="706.6" y="532.4" fill="#333"><tspan x="706.552" y="532.42">East Asia &amp; Pacific</tspan></text></g><g class="legendMark"><rect x="691.552" y="491" width="143.448" height="29.900000000000002" fill="#fff" opacity="0"></rect><rect x="691.552" y="504.7" width="10" height="2.5" fill="#2a939b"></rect><text font-size="14.40" x="706.6" y="502.5" fill="#333"><tspan x="706.552" y="502.52">Middle East &amp; North</tspan><tspan x="706.552" y="518.36">Africa</tspan></text></g><g class="legendMark"><rect x="691.552" y="476.6" width="84.98400000000001" height="14.4" fill="#fff" opacity="0"></rect><rect x="691.552" y="482.55" width="10" height="2.5" fill="#e6332e"></rect><text font-size="14.40" x="706.6" y="488.1" fill="#333"><tspan x="706.552" y="488.12">South Asia</tspan></text></g><g class="legendMark"><rect x="691.552" y="446.70000000000005" width="125.88000000000001" height="29.900000000000002" fill="#fff" opacity="0"></rect><rect x="691.552" y="460.40000000000003" width="10" height="2.5" fill="#ca2628"></rect><text font-size="14.40" x="706.6" y="458.2" fill="#333"><tspan x="706.552" y="458.22">Europe &amp; Central</tspan><tspan x="706.552" y="474.06">Asia</tspan></text></g><g class="legendMark"><rect x="691.552" y="432.30000000000007" width="141.144" height="14.4" fill="#fff" opacity="0"></rect><rect x="691.552" y="438.25000000000006" width="10" height="2.5" fill="#ffd53e"></rect><text font-size="14.40" x="706.6" y="443.8" fill="#333"><tspan x="706.552" y="443.82000000000005">Sub-Saharan Africa</tspan></text></g><g class="legendMark"><rect x="691.552" y="402.4000000000001" width="116.95200000000001" height="29.900000000000002" fill="#fff" opacity="0"></rect><rect x="691.552" y="416.1000000000001" width="10" height="2.5" fill="#9ecc8a"></rect><text font-size="14.40" x="706.6" y="413.9" fill="#333"><tspan x="706.552" y="413.9200000000001">Latin America &amp;</tspan><tspan x="706.552" y="429.76000000000005">Caribbean</tspan></text></g><g class="legendMark"><rect x="691.552" y="388.0000000000001" width="107.16000000000001" height="14.4" fill="#fff" opacity="0"></rect><rect x="691.552" y="393.9500000000001" width="10" height="2.5" fill="#34983f"></rect><text font-size="14.40" x="706.6" y="399.5" fill="#333"><tspan x="706.552" y="399.5200000000001">North America</tspan></text></g></g><g class="Areas"><rect x="78.968" y="76.6" width="607.5840000000001" height="458.69999999999993" opacity="0" fill="rgba(255,255,255,0)"></rect><path stroke-linecap="round" d="M79 456.2L103.3 464.3L127.6 471.9L151.9 479.2L176.2 485.8L200.5 491.1L224.8 496.6L249.1 500.7L273.4 503.4L297.7 506L322 507.8L346.3 510.2L370.6 512.3L394.9 514.8L419.2 516.6L443.5 518.8L467.8 520.4L492.1 522L516.4 522.9L540.7 524L565 525.1L589.3 526L613.6 526.9L637.9 527.7L662.2 528.2L686.6 528.8L686.552 535.3L78.968 535.3" fill="#3360a9" fill-opacity="0.7" class="East-Asia-__0026-Pacific_0-area"></path><path stroke-linecap="round" d="M79 449.7L103.3 459.1L127.6 467.4L151.9 475.3L176.2 482.4L200.5 487.9L224.8 493.9L249.1 498.4L273.4 501.4L297.7 504.2L322 506.3L346.3 508.8L370.6 511.1L394.9 513.6L419.2 515.6L443.5 517.8L467.8 519.5L492.1 521.1L516.4 522.1L540.7 523.3L565 524.4L589.3 525.3L613.6 526.2L637.9 527.1L662.2 527.6L686.6 528.2L686.6 528.8L662.2 528.2L637.9 527.7L613.6 526.9L589.3 526L565 525.1L540.7 524L516.4 522.9L492.1 522L467.8 520.4L443.5 518.8L419.2 516.6L394.9 514.8L370.6 512.3L346.3 510.2L322 507.8L297.7 506L273.4 503.4L249.1 500.7L224.8 496.6L200.5 491.1L176.2 485.8L151.9 479.2L127.6 471.9L103.3 464.3L79 456.2" fill="#2a939b" fill-opacity="0.7" class="Middle-East-__0026-North-Africa_0-area"></path><path stroke-linecap="round" d="M79 196.8L103.3 231.8L127.6 257.7L151.9 278.9L176.2 297.1L200.5 313.9L224.8 331L249.1 346.7L273.4 359.4L297.7 370.3L322 381.8L346.3 395L370.6 407.9L394.9 422.2L419.2 436.5L443.5 449.4L467.8 459.9L492.1 469.1L516.4 476.2L540.7 483.5L565 489.8L589.3 495.1L613.6 499.8L637.9 503.7L662.2 507.2L686.6 510.4L686.6 528.2L662.2 527.6L637.9 527.1L613.6 526.2L589.3 525.3L565 524.4L540.7 523.3L516.4 522.1L492.1 521.1L467.8 519.5L443.5 517.8L419.2 515.6L394.9 513.6L370.6 511.1L346.3 508.8L322 506.3L297.7 504.2L273.4 501.4L249.1 498.4L224.8 493.9L200.5 487.9L176.2 482.4L151.9 475.3L127.6 467.4L103.3 459.1L79 449.7" fill="#e6332e" fill-opacity="0.7" class="South-Asia_0-area"></path><path stroke-linecap="round" d="M79 193.1L103.3 228.9L127.6 255.2L151.9 276.5L176.2 294.8L200.5 311.5L224.8 328.8L249.1 344.8L273.4 357.7L297.7 369.2L322 381L346.3 394.4L370.6 407.4L394.9 421.9L419.2 436.3L443.5 449.2L467.8 459.8L492.1 469L516.4 476L540.7 483.4L565 489.7L589.3 495L613.6 499.7L637.9 503.6L662.2 507.1L686.6 510.3L686.6 510.4L662.2 507.2L637.9 503.7L613.6 499.8L589.3 495.1L565 489.8L540.7 483.5L516.4 476.2L492.1 469.1L467.8 459.9L443.5 449.4L419.2 436.5L394.9 422.2L370.6 407.9L346.3 395L322 381.8L297.7 370.3L273.4 359.4L249.1 346.7L224.8 331L200.5 313.9L176.2 297.1L151.9 278.9L127.6 257.7L103.3 231.8L79 196.8" fill="#ca2628" fill-opacity="0.7" class="Europe-__0026-Central-Asia_0-area"></path><path stroke-linecap="round" d="M79 83.2L103.3 125.1L127.6 156.2L151.9 181.4L176.2 202.5L200.5 220.3L224.8 239.9L249.1 257.9L273.4 273.5L297.7 288.6L322 304.3L346.3 323.6L370.6 341.6L394.9 360.9L419.2 380.4L443.5 397.5L467.8 411.7L492.1 424.1L516.4 433.6L540.7 443.3L565 451.7L589.3 459.3L613.6 466.2L637.9 471.7L662.2 476.9L686.6 481.7L686.6 510.3L662.2 507.1L637.9 503.6L613.6 499.7L589.3 495L565 489.7L540.7 483.4L516.4 476L492.1 469L467.8 459.8L443.5 449.2L419.2 436.3L394.9 421.9L370.6 407.4L346.3 394.4L322 381L297.7 369.2L273.4 357.7L249.1 344.8L224.8 328.8L200.5 311.5L176.2 294.8L151.9 276.5L127.6 255.2L103.3 228.9L79 193.1" fill="#ffd53e" fill-opacity="0.7" class="Sub__002dSaharan-Africa_0-area"></path><path stroke-linecap="round" d="M79 76.7L103.3 119.3L127.6 151.1L151.9 176.9L176.2 198.6L200.5 216.8L224.8 236.9L249.1 255.2L273.4 271L297.7 286.4L322 302.4L346.3 321.8L370.6 339.9L394.9 359.5L419.2 379.1L443.5 396.2L467.8 410.6L492.1 423.1L516.4 432.7L540.7 442.5L565 451L589.3 458.6L613.6 465.6L637.9 471.1L662.2 476.4L686.6 481.2L686.6 481.7L662.2 476.9L637.9 471.7L613.6 466.2L589.3 459.3L565 451.7L540.7 443.3L516.4 433.6L492.1 424.1L467.8 411.7L443.5 397.5L419.2 380.4L394.9 360.9L370.6 341.6L346.3 323.6L322 304.3L297.7 288.6L273.4 273.5L249.1 257.9L224.8 239.9L200.5 220.3L176.2 202.5L151.9 181.4L127.6 156.2L103.3 125.1L79 83.2" fill="#9ecc8a" fill-opacity="0.7" class="Latin-America-__0026-Caribbean_0-area"></path><path stroke-linecap="round" d="M79 76.6L103.3 119.3L127.6 151.1L151.9 176.9L176.2 198.5L200.5 216.8L224.8 236.9L249.1 255.2L273.4 271L297.7 286.4L322 302.3L346.3 321.8L370.6 339.9L394.9 359.4L419.2 379.1L443.5 396.2L467.8 410.6L492.1 423.1L516.4 432.7L540.7 442.4L565 450.9L589.3 458.6L613.6 465.6L637.9 471.1L662.2 476.4L686.6 481.2L686.6 481.2L662.2 476.4L637.9 471.1L613.6 465.6L589.3 458.6L565 451L540.7 442.5L516.4 432.7L492.1 423.1L467.8 410.6L443.5 396.2L419.2 379.1L394.9 359.5L370.6 339.9L346.3 321.8L322 302.4L297.7 286.4L273.4 271L249.1 255.2L224.8 236.9L200.5 216.8L176.2 198.6L151.9 176.9L127.6 151.1L103.3 119.3L79 76.7" fill="#34983f" fill-opacity="0.7" class="North-America_0-area"></path><path stroke-linecap="round" d="M79 456.2L103.3 464.3L127.6 471.9L151.9 479.2L176.2 485.8L200.5 491.1L224.8 496.6L249.1 500.7L273.4 503.4L297.7 506L322 507.8L346.3 510.2L370.6 512.3L394.9 514.8L419.2 516.6L443.5 518.8L467.8 520.4L492.1 522L516.4 522.9L540.7 524L565 525.1L589.3 526L613.6 526.9L637.9 527.7L662.2 528.2L686.6 528.8" stroke="rgb(43, 80, 141)" stroke-opacity="0.7" stroke-width="0.5" fill="none" class="East-Asia-__0026-Pacific_0-border"></path><path stroke-linecap="round" d="M79 449.7L103.3 459.1L127.6 467.4L151.9 475.3L176.2 482.4L200.5 487.9L224.8 493.9L249.1 498.4L273.4 501.4L297.7 504.2L322 506.3L346.3 508.8L370.6 511.1L394.9 513.6L419.2 515.6L443.5 517.8L467.8 519.5L492.1 521.1L516.4 522.1L540.7 523.3L565 524.4L589.3 525.3L613.6 526.2L637.9 527.1L662.2 527.6L686.6 528.2" stroke="rgb(35, 123, 130)" stroke-opacity="0.7" stroke-width="0.5" fill="none" class="Middle-East-__0026-North-Africa_0-border"></path><path stroke-linecap="round" d="M79 196.8L103.3 231.8L127.6 257.7L151.9 278.9L176.2 297.1L200.5 313.9L224.8 331L249.1 346.7L273.4 359.4L297.7 370.3L322 381.8L346.3 395L370.6 407.9L394.9 422.2L419.2 436.5L443.5 449.4L467.8 459.9L492.1 469.1L516.4 476.2L540.7 483.5L565 489.8L589.3 495.1L613.6 499.8L637.9 503.7L662.2 507.2L686.6 510.4" stroke="rgb(192, 43, 38)" stroke-opacity="0.7" stroke-width="0.5" fill="none" class="South-Asia_0-border"></path><path stroke-linecap="round" d="M79 193.1L103.3 228.9L127.6 255.2L151.9 276.5L176.2 294.8L200.5 311.5L224.8 328.8L249.1 344.8L273.4 357.7L297.7 369.2L322 381L346.3 394.4L370.6 407.4L394.9 421.9L419.2 436.3L443.5 449.2L467.8 459.8L492.1 469L516.4 476L540.7 483.4L565 489.7L589.3 495L613.6 499.7L637.9 503.6L662.2 507.1L686.6 510.3" stroke="rgb(169, 32, 33)" stroke-opacity="0.7" stroke-width="0.5" fill="none" class="Europe-__0026-Central-Asia_0-border"></path><path stroke-linecap="round" d="M79 83.2L103.3 125.1L127.6 156.2L151.9 181.4L176.2 202.5L200.5 220.3L224.8 239.9L249.1 257.9L273.4 273.5L297.7 288.6L322 304.3L346.3 323.6L370.6 341.6L394.9 360.9L419.2 380.4L443.5 397.5L467.8 411.7L492.1 424.1L516.4 433.6L540.7 443.3L565 451.7L589.3 459.3L613.6 466.2L637.9 471.7L662.2 476.9L686.6 481.7" stroke="rgb(213, 178, 52)" stroke-opacity="0.7" stroke-width="0.5" fill="none" class="Sub__002dSaharan-Africa_0-border"></path><path stroke-linecap="round" d="M79 76.7L103.3 119.3L127.6 151.1L151.9 176.9L176.2 198.6L200.5 216.8L224.8 236.9L249.1 255.2L273.4 271L297.7 286.4L322 302.4L346.3 321.8L370.6 339.9L394.9 359.5L419.2 379.1L443.5 396.2L467.8 410.6L492.1 423.1L516.4 432.7L540.7 442.5L565 451L589.3 458.6L613.6 465.6L637.9 471.1L662.2 476.4L686.6 481.2" stroke="rgb(132, 171, 115)" stroke-opacity="0.7" stroke-width="0.5" fill="none" class="Latin-America-__0026-Caribbean_0-border"></path><path stroke-linecap="round" d="M79 76.6L103.3 119.3L127.6 151.1L151.9 176.9L176.2 198.5L200.5 216.8L224.8 236.9L249.1 255.2L273.4 271L297.7 286.4L322 302.3L346.3 321.8L370.6 339.9L394.9 359.4L419.2 379.1L443.5 396.2L467.8 410.6L492.1 423.1L516.4 432.7L540.7 442.4L565 450.9L589.3 458.6L613.6 465.6L637.9 471.1L662.2 476.4L686.6 481.2" stroke="rgb(44, 127, 53)" stroke-opacity="0.7" stroke-width="0.5" fill="none" class="North-America_0-border"></path></g></g></g><g style="fill: #777;" class="SourcesFooter"><g style="fill: #777;" class="clickable"><text font-size="12.60" x="15.0" y="581.6"><tspan x="15" y="581.58">Source: Global Burden of Disease Study (2016)</tspan></text></g><text font-size="12.60" x="649.0" y="581.6"><tspan x="649.024" y="581.58"><a target='_blank' style='fill: #777;' href='https://ourworldindata.org'>OurWorldInData.org</a> • <a style="fill: #777;" href="http://creativecommons.org/licenses/by-sa/4.0/deed.en_US" target="_blank">CC BY-SA</a></tspan></text></g></g></svg>