<svg xmlns="http://www.w3.org/2000/svg" version="1.1" style="font-family: 'Helvetica Neue', Helvetica, Arial, sans-serif; font-size: 18px; background-color: white; text-rendering: optimizeLegibility; -webkit-font-smoothing: antialiased;" width="850" height="600"><g class="ChartTab"><g class="HeaderView"><g opacity="0.8" transform="translate(778, 15) scale(0.27)"><a xmlns:xlink="http://www.w3.org/1999/xlink" xlink:href="https://ourworldindata.org" target="_blank"><g><rect x="0" y="0" fill="#1B2543" width="211.2" height="130.1"/><rect x="0" y="112.2" fill="#E63912" width="211.2" height="17.9"/><g><rect x="1.2" y="12.3" fill="none" width="210.2" height="99.2"/><path fill="#FFFFFF" d="M37.8,32.2c0,12.7-7.7,19.4-17.1,19.4c-9.7,0-16.6-7.5-16.6-18.7c0-11.7,7.3-19.3,17.1-19.3 C31.3,13.7,37.8,21.3,37.8,32.2z M9.2,32.8c0,7.9,4.3,14.9,11.8,14.9c7.5,0,11.8-6.9,11.8-15.3c0-7.3-3.8-14.9-11.8-14.9 C13.1,17.5,9.2,24.8,9.2,32.8z"/><path fill="#FFFFFF" d="M62.7,43.8c0,2.7,0.1,5.1,0.2,7.2h-4.3l-0.3-4.3h-0.1c-1.3,2.1-4,4.9-8.8,4.9c-4.2,0-9.1-2.3-9.1-11.6 V24.6h4.8v14.6c0,5,1.5,8.4,5.9,8.4c3.2,0,5.5-2.2,6.3-4.4c0.3-0.7,0.4-1.6,0.4-2.5V24.6h4.8V43.8z"/><path fill="#FFFFFF" d="M67.3,32.8c0-3.1-0.1-5.8-0.2-8.2h4.2l0.2,5.2h0.2c1.2-3.5,4.1-5.8,7.3-5.8c0.5,0,0.9,0.1,1.4,0.2v4.5 c-0.5-0.1-1-0.2-1.6-0.2c-3.4,0-5.8,2.6-6.5,6.2c-0.1,0.7-0.2,1.4-0.2,2.2V51h-4.8V32.8z"/><path fill="#FFFFFF" d="M95.4,51l-9.4-36.8h5l4.4,18.6c1.1,4.6,2.1,9.2,2.7,12.7h0.1c0.6-3.7,1.8-8,3-12.8l4.9-18.5h5l4.5,18.7 c1,4.4,2,8.7,2.6,12.6h0.1c0.8-4,1.8-8.1,3-12.7l4.9-18.5h4.9L120.6,51h-5L111,31.9c-1.1-4.7-1.9-8.3-2.4-12h-0.1 c-0.7,3.7-1.5,7.3-2.8,12L100.4,51H95.4z"/><path fill="#FFFFFF" d="M154.9,37.6c0,9.8-6.8,14-13.2,14c-7.2,0-12.7-5.2-12.7-13.6c0-8.8,5.8-14,13.1-14 C149.8,24,154.9,29.5,154.9,37.6z M133.9,37.9c0,5.8,3.3,10.1,8,10.1c4.6,0,8-4.3,8-10.3c0-4.5-2.2-10.1-7.9-10.1 C136.3,27.6,133.9,32.8,133.9,37.9z"/><path fill="#FFFFFF" d="M158.2,32.8c0-3.1-0.1-5.8-0.2-8.2h4.2l0.2,5.2h0.2c1.2-3.5,4.1-5.8,7.3-5.8c0.5,0,0.9,0.1,1.4,0.2v4.5 c-0.5-0.1-1-0.2-1.6-0.2c-3.4,0-5.8,2.6-6.5,6.2c-0.1,0.7-0.2,1.4-0.2,2.2V51h-4.8V32.8z"/><path fill="#FFFFFF" d="M173.5,12.3h4.8V51h-4.8V12.3z"/><path fill="#FFFFFF" d="M206.5,12.3v31.9c0,2.3,0.1,5,0.2,6.8h-4.3l-0.2-4.6H202c-1.5,2.9-4.7,5.2-9,5.2 c-6.4,0-11.3-5.4-11.3-13.4c-0.1-8.8,5.4-14.2,11.9-14.2c4,0,6.8,1.9,8,4h0.1V12.3H206.5z M201.7,35.4c0-0.6-0.1-1.4-0.2-2 c-0.7-3.1-3.3-5.6-6.9-5.6c-5,0-7.9,4.4-7.9,10.2c0,5.3,2.6,9.8,7.8,9.8c3.2,0,6.2-2.1,7.1-5.7c0.2-0.7,0.2-1.3,0.2-2.1V35.4z"/><path fill="#FFFFFF" d="M42.8,64c0.1,1.6-1.1,2.9-3.1,2.9c-1.7,0-2.9-1.3-2.9-2.9c0-1.7,1.3-3,3-3C41.7,61,42.8,62.3,42.8,64z M37.4,97.8V71.4h4.8v26.4H37.4z"/><path fill="#FFFFFF" d="M47.5,78.6c0-2.7-0.1-5-0.2-7.1h4.3l0.3,4.4h0.1c1.3-2.5,4.4-5,8.8-5c3.7,0,9.4,2.2,9.4,11.2v15.8h-4.8 V82.6c0-4.3-1.6-7.8-6.1-7.8c-3.2,0-5.6,2.2-6.5,4.9c-0.2,0.6-0.3,1.4-0.3,2.2v15.9h-4.8V78.6z"/><path fill="#FFFFFF" d="M84,61.6c2.9-0.4,6.3-0.8,10.1-0.8c6.8,0,11.7,1.6,14.9,4.6c3.3,3,5.2,7.3,5.2,13.2c0,6-1.9,10.9-5.3,14.3 c-3.4,3.4-9.1,5.3-16.3,5.3c-3.4,0-6.2-0.2-8.6-0.4V61.6z M88.8,94.1c1.2,0.2,3,0.3,4.8,0.3c10.2,0,15.7-5.7,15.7-15.6 c0.1-8.7-4.9-14.2-14.9-14.2c-2.5,0-4.3,0.2-5.6,0.5V94.1z"/><path fill="#FFFFFF" d="M132.1,97.8l-0.4-3.3h-0.2c-1.5,2.1-4.3,3.9-8.1,3.9c-5.4,0-8.1-3.8-8.1-7.6c0-6.4,5.7-9.9,15.9-9.8v-0.5 c0-2.2-0.6-6.1-6-6.1c-2.5,0-5,0.8-6.9,2l-1.1-3.2c2.2-1.4,5.4-2.3,8.7-2.3c8.1,0,10.1,5.5,10.1,10.8v9.9c0,2.3,0.1,4.5,0.4,6.3 H132.1z M131.4,84.4c-5.3-0.1-11.2,0.8-11.2,5.9c0,3.1,2.1,4.6,4.5,4.6c3.4,0,5.6-2.2,6.4-4.4c0.2-0.5,0.3-1,0.3-1.5V84.4z"/><path fill="#FFFFFF" d="M146.6,63.9v7.6h6.9v3.7h-6.9v14.2c0,3.3,0.9,5.1,3.6,5.1c1.3,0,2.2-0.2,2.8-0.3l0.2,3.6 c-0.9,0.4-2.4,0.7-4.3,0.7c-2.2,0-4-0.7-5.2-2c-1.4-1.4-1.9-3.8-1.9-6.9V75.1h-4.1v-3.7h4.1v-6.3L146.6,63.9z"/><path fill="#FFFFFF" d="M171.4,97.8l-0.4-3.3h-0.2c-1.5,2.1-4.3,3.9-8.1,3.9c-5.4,0-8.1-3.8-8.1-7.6c0-6.4,5.7-9.9,15.9-9.8v-0.5 c0-2.2-0.6-6.1-6-6.1c-2.5,0-5,0.8-6.9,2l-1.1-3.2c2.2-1.4,5.4-2.3,8.7-2.3c8.1,0,10.1,5.5,10.1,10.8v9.9c0,2.3,0.1,4.5,0.4,6.3 H171.4z M170.7,84.4c-5.3-0.1-11.2,0.8-11.2,5.9c0,3.1,2.1,4.6,4.5,4.6c3.4,0,5.6-2.2,6.4-4.4c0.2-0.5,0.3-1,0.3-1.5V84.4z"/></g></g></a></g><a href="https://ourworldindata.org/grapher/the-two-germanies-planning-and-capitalism-195089---gdp-per-capita-in-1990-international-dollars" target="_blank"><text font-size="21.60" x="15.0" y="32.3" fill="#555"><tspan x="15" y="32.279999999999994">The two Germanies: Planning and capitalism (1950–89) - GDP per capita in</tspan><tspan x="15" y="53.87999999999999">1990 international dollars</tspan></text></a><text font-size="14.40" x="15.0" y="72.7" fill="#666"><tspan x="15" y="72.72">Figure 1.10 of 'The Economy' online textbook</tspan></text></g><g class="LineChart"><defs><clipPath id="boundsClip-1"><rect x="78.04" y="0" width="830" height="867.0000000000001"></rect></clipPath></defs><g class="AxisBoxView"><g class="HorizontalAxis"><text x="88" y="529.1" fill="#666" text-anchor="middle" font-size="16.2">1950</text><text x="167.8" y="529.1" fill="#666" text-anchor="middle" font-size="16.2">1955</text><text x="247.5" y="529.1" fill="#666" text-anchor="middle" font-size="16.2">1960</text><text x="327.2" y="529.1" fill="#666" text-anchor="middle" font-size="16.2">1965</text><text x="406.9" y="529.1" fill="#666" text-anchor="middle" font-size="16.2">1970</text><text x="486.6" y="529.1" fill="#666" text-anchor="middle" font-size="16.2">1975</text><text x="566.3" y="529.1" fill="#666" text-anchor="middle" font-size="16.2">1980</text><text x="646" y="529.1" fill="#666" text-anchor="middle" font-size="16.2">1985</text><text x="709.8" y="529.1" fill="#666" text-anchor="middle" font-size="16.2">1989</text></g><g class="VerticalAxis"><text x="83.04" y="204" fill="#666" dominant-baseline="middle" text-anchor="end" font-size="16.2">$10,000</text><text x="83.04" y="-220.1" fill="#666" dominant-baseline="middle" text-anchor="end" font-size="16.2">$100,000</text></g><g class="AxisGridLines"><line x1="88.04" y1="204" x2="709.82" y2="204" stroke="#ddd" stroke-dasharray="3,2"></line><line x1="88.04" y1="-220.1" x2="709.82" y2="-220.1" stroke="#ddd" stroke-dasharray="3,2"></line></g></g><g clip-path="url(#boundsClip-1)"><g class="HeightedLegend clickable"><g class="legendMark"><g class="indicator"><line x1="714.8199999999999" y1="95.6" x2="737.3199999999999" y2="95.6" stroke="#666" stroke-width="0.5"></line><line x1="737.3199999999999" y1="95.6" x2="737.3199999999999" y2="95.6" stroke="#666" stroke-width="0.5"></line><line x1="737.3199999999999" y1="95.6" x2="739.8199999999999" y2="95.6" stroke="#666" stroke-width="0.5"></line></g><rect x="709.8199999999999" y="88.85" width="125.18" height="13.5" fill="#fff" opacity="0"></rect><text font-size="13.50" x="744.8" y="99.6" fill="#f6a324"><tspan x="744.8199999999999" y="99.64999999999999">West Germany</tspan></text></g><g class="legendMark"><g class="indicator"><line x1="714.8199999999999" y1="96.3" x2="727.3199999999999" y2="96.3" stroke="#666" stroke-width="0.5"></line><line x1="727.3199999999999" y1="96.3" x2="727.3199999999999" y2="111.1" stroke="#666" stroke-width="0.5"></line><line x1="727.3199999999999" y1="111.1" x2="739.8199999999999" y2="111.1" stroke="#666" stroke-width="0.5"></line></g><rect x="709.8199999999999" y="104.35" width="71.99000000000001" height="13.5" fill="#fff" opacity="0"></rect><text font-size="13.50" x="744.8" y="115.1" fill="#34983f"><tspan x="744.8199999999999" y="115.14999999999999">Japan</tspan></text></g><g class="legendMark"><g class="indicator"><line x1="714.8199999999999" y1="177" x2="727.3199999999999" y2="177" stroke="#666" stroke-width="0.5"></line><line x1="727.3199999999999" y1="177" x2="727.3199999999999" y2="177" stroke="#666" stroke-width="0.5"></line><line x1="727.3199999999999" y1="177" x2="739.8199999999999" y2="177" stroke="#666" stroke-width="0.5"></line></g><rect x="709.8199999999999" y="170.25" width="69.695" height="13.5" fill="#fff" opacity="0"></rect><text font-size="13.50" x="744.8" y="181.1" fill="#ca2628"><tspan x="744.8199999999999" y="181.05">Spain</tspan></text></g><g class="legendMark"><g class="indicator"><line x1="714.8199999999999" y1="235.7" x2="727.3199999999999" y2="235.7" stroke="#666" stroke-width="0.5"></line><line x1="727.3199999999999" y1="235.7" x2="727.3199999999999" y2="235.7" stroke="#666" stroke-width="0.5"></line><line x1="727.3199999999999" y1="235.7" x2="739.8199999999999" y2="235.7" stroke="#666" stroke-width="0.5"></line></g><rect x="709.8199999999999" y="228.95" width="121.53500000000001" height="13.5" fill="#fff" opacity="0"></rect><text font-size="13.50" x="744.8" y="239.8" fill="#3360a9"><tspan x="744.8199999999999" y="239.75">East Germany</tspan></text></g></g><g class="Lines"><rect x="88" y="96" width="622" height="412" fill="rgba(255,255,255,0)" opacity="0"></rect><g class="key-East-Germany_0"><path stroke="#3360a9" stroke-linecap="round" d="M88 440L104 432L120 425L136 418L152 412L168 405L184 399L200 393L216 387L232 382L248 376L263 374L279 367L295 362L311 358L327 351L343 346L359 340L375 332L391 327L407 323L423 319L439 312L455 306L471 297L487 289L503 285L519 279L534 276L550 271L566 267L582 263L598 264L614 260L630 254L646 248L662 245L678 243L694 241L710 236" fill="none" stroke-width="1.5"></path><g fill="#3360a9"><circle cx="88" cy="440" r="2"></circle><circle cx="104" cy="432" r="2"></circle><circle cx="120" cy="425" r="2"></circle><circle cx="136" cy="418" r="2"></circle><circle cx="152" cy="412" r="2"></circle><circle cx="168" cy="405" r="2"></circle><circle cx="184" cy="399" r="2"></circle><circle cx="200" cy="393" r="2"></circle><circle cx="216" cy="387" r="2"></circle><circle cx="232" cy="382" r="2"></circle><circle cx="248" cy="376" r="2"></circle><circle cx="263" cy="374" r="2"></circle><circle cx="279" cy="367" r="2"></circle><circle cx="295" cy="362" r="2"></circle><circle cx="311" cy="358" r="2"></circle><circle cx="327" cy="351" r="2"></circle><circle cx="343" cy="346" r="2"></circle><circle cx="359" cy="340" r="2"></circle><circle cx="375" cy="332" r="2"></circle><circle cx="391" cy="327" r="2"></circle><circle cx="407" cy="323" r="2"></circle><circle cx="423" cy="319" r="2"></circle><circle cx="439" cy="312" r="2"></circle><circle cx="455" cy="306" r="2"></circle><circle cx="471" cy="297" r="2"></circle><circle cx="487" cy="289" r="2"></circle><circle cx="503" cy="285" r="2"></circle><circle cx="519" cy="279" r="2"></circle><circle cx="534" cy="276" r="2"></circle><circle cx="550" cy="271" r="2"></circle><circle cx="566" cy="267" r="2"></circle><circle cx="582" cy="263" r="2"></circle><circle cx="598" cy="264" r="2"></circle><circle cx="614" cy="260" r="2"></circle><circle cx="630" cy="254" r="2"></circle><circle cx="646" cy="248" r="2"></circle><circle cx="662" cy="245" r="2"></circle><circle cx="678" cy="243" r="2"></circle><circle cx="694" cy="241" r="2"></circle><circle cx="710" cy="236" r="2"></circle></g></g><g class="key-Japan_0"><path stroke="#34983f" stroke-linecap="round" d="M88 508L104 489L120 472L136 461L152 453L168 440L184 429L200 418L216 409L232 395L248 373L263 354L279 340L295 327L311 309L327 300L343 283L359 266L375 246L391 226L407 209L423 203L439 191L455 179L471 184L487 181L503 176L519 170L534 162L550 153L566 150L582 145L598 141L614 138L630 132L646 125L662 121L678 115L694 104L710 96" fill="none" stroke-width="1.5"></path><g fill="#34983f"><circle cx="88" cy="508" r="2"></circle><circle cx="104" cy="489" r="2"></circle><circle cx="120" cy="472" r="2"></circle><circle cx="136" cy="461" r="2"></circle><circle cx="152" cy="453" r="2"></circle><circle cx="168" cy="440" r="2"></circle><circle cx="184" cy="429" r="2"></circle><circle cx="200" cy="418" r="2"></circle><circle cx="216" cy="409" r="2"></circle><circle cx="232" cy="395" r="2"></circle><circle cx="248" cy="373" r="2"></circle><circle cx="263" cy="354" r="2"></circle><circle cx="279" cy="340" r="2"></circle><circle cx="295" cy="327" r="2"></circle><circle cx="311" cy="309" r="2"></circle><circle cx="327" cy="300" r="2"></circle><circle cx="343" cy="283" r="2"></circle><circle cx="359" cy="266" r="2"></circle><circle cx="375" cy="246" r="2"></circle><circle cx="391" cy="226" r="2"></circle><circle cx="407" cy="209" r="2"></circle><circle cx="423" cy="203" r="2"></circle><circle cx="439" cy="191" r="2"></circle><circle cx="455" cy="179" r="2"></circle><circle cx="471" cy="184" r="2"></circle><circle cx="487" cy="181" r="2"></circle><circle cx="503" cy="176" r="2"></circle><circle cx="519" cy="170" r="2"></circle><circle cx="534" cy="162" r="2"></circle><circle cx="550" cy="153" r="2"></circle><circle cx="566" cy="150" r="2"></circle><circle cx="582" cy="145" r="2"></circle><circle cx="598" cy="141" r="2"></circle><circle cx="614" cy="138" r="2"></circle><circle cx="630" cy="132" r="2"></circle><circle cx="646" cy="125" r="2"></circle><circle cx="662" cy="121" r="2"></circle><circle cx="678" cy="115" r="2"></circle><circle cx="694" cy="104" r="2"></circle><circle cx="710" cy="96" r="2"></circle></g></g><g class="key-Spain_0"><path stroke="#ca2628" stroke-linecap="round" d="M88 484L104 468L120 455L136 457L152 446L168 440L184 427L200 423L216 417L232 423L248 421L263 401L279 382L295 366L311 351L327 341L343 330L359 320L375 311L391 297L407 289L423 280L439 267L455 253L471 242L487 237L503 232L519 227L534 223L550 222L566 219L582 220L598 218L614 214L630 212L646 209L662 204L678 195L694 186L710 177" fill="none" stroke-width="1.5"></path><g fill="#ca2628"><circle cx="88" cy="484" r="2"></circle><circle cx="104" cy="468" r="2"></circle><circle cx="120" cy="455" r="2"></circle><circle cx="136" cy="457" r="2"></circle><circle cx="152" cy="446" r="2"></circle><circle cx="168" cy="440" r="2"></circle><circle cx="184" cy="427" r="2"></circle><circle cx="200" cy="423" r="2"></circle><circle cx="216" cy="417" r="2"></circle><circle cx="232" cy="423" r="2"></circle><circle cx="248" cy="421" r="2"></circle><circle cx="263" cy="401" r="2"></circle><circle cx="279" cy="382" r="2"></circle><circle cx="295" cy="366" r="2"></circle><circle cx="311" cy="351" r="2"></circle><circle cx="327" cy="341" r="2"></circle><circle cx="343" cy="330" r="2"></circle><circle cx="359" cy="320" r="2"></circle><circle cx="375" cy="311" r="2"></circle><circle cx="391" cy="297" r="2"></circle><circle cx="407" cy="289" r="2"></circle><circle cx="423" cy="280" r="2"></circle><circle cx="439" cy="267" r="2"></circle><circle cx="455" cy="253" r="2"></circle><circle cx="471" cy="242" r="2"></circle><circle cx="487" cy="237" r="2"></circle><circle cx="503" cy="232" r="2"></circle><circle cx="519" cy="227" r="2"></circle><circle cx="534" cy="223" r="2"></circle><circle cx="550" cy="222" r="2"></circle><circle cx="566" cy="219" r="2"></circle><circle cx="582" cy="220" r="2"></circle><circle cx="598" cy="218" r="2"></circle><circle cx="614" cy="214" r="2"></circle><circle cx="630" cy="212" r="2"></circle><circle cx="646" cy="209" r="2"></circle><circle cx="662" cy="204" r="2"></circle><circle cx="678" cy="195" r="2"></circle><circle cx="694" cy="186" r="2"></circle><circle cx="710" cy="177" r="2"></circle></g></g><g class="key-West-Germany_0"><path stroke="#f6a324" stroke-linecap="round" d="M88 360L104 345L120 330L136 316L152 305L168 285L184 274L200 266L216 260L232 248L248 235L263 229L279 223L295 220L311 210L327 202L343 199L359 200L375 190L391 179L407 172L423 168L439 161L455 154L471 153L487 155L503 145L519 139L534 134L550 126L566 125L582 125L598 127L614 123L630 117L646 113L662 109L678 106L694 100L710 96" fill="none" stroke-width="1.5"></path><g fill="#f6a324"><circle cx="88" cy="360" r="2"></circle><circle cx="104" cy="345" r="2"></circle><circle cx="120" cy="330" r="2"></circle><circle cx="136" cy="316" r="2"></circle><circle cx="152" cy="305" r="2"></circle><circle cx="168" cy="285" r="2"></circle><circle cx="184" cy="274" r="2"></circle><circle cx="200" cy="266" r="2"></circle><circle cx="216" cy="260" r="2"></circle><circle cx="232" cy="248" r="2"></circle><circle cx="248" cy="235" r="2"></circle><circle cx="263" cy="229" r="2"></circle><circle cx="279" cy="223" r="2"></circle><circle cx="295" cy="220" r="2"></circle><circle cx="311" cy="210" r="2"></circle><circle cx="327" cy="202" r="2"></circle><circle cx="343" cy="199" r="2"></circle><circle cx="359" cy="200" r="2"></circle><circle cx="375" cy="190" r="2"></circle><circle cx="391" cy="179" r="2"></circle><circle cx="407" cy="172" r="2"></circle><circle cx="423" cy="168" r="2"></circle><circle cx="439" cy="161" r="2"></circle><circle cx="455" cy="154" r="2"></circle><circle cx="471" cy="153" r="2"></circle><circle cx="487" cy="155" r="2"></circle><circle cx="503" cy="145" r="2"></circle><circle cx="519" cy="139" r="2"></circle><circle cx="534" cy="134" r="2"></circle><circle cx="550" cy="126" r="2"></circle><circle cx="566" cy="125" r="2"></circle><circle cx="582" cy="125" r="2"></circle><circle cx="598" cy="127" r="2"></circle><circle cx="614" cy="123" r="2"></circle><circle cx="630" cy="117" r="2"></circle><circle cx="646" cy="113" r="2"></circle><circle cx="662" cy="109" r="2"></circle><circle cx="678" cy="106" r="2"></circle><circle cx="694" cy="100" r="2"></circle><circle cx="710" cy="96" r="2"></circle></g></g></g></g></g><g style="fill: #777;" class="SourcesFooter"><g style="fill: #777;" class="clickable"><text font-size="12.60" x="15.0" y="554.2"><tspan x="15" y="554.1800000000001">Source: Maddison (2001) and 'The 2015 Total Economy Database'</tspan></text></g><text font-size="12.60" x="15.0" y="568.8"><tspan x="15" y="568.7800000000001">Note: The units of measurement is '1990 international dollar' which is used to compare Purchasing Power Parity and GDP across countries</tspan><tspan x="15" y="582.6400000000001">overtime.</tspan></text><text font-size="12.60" x="775.4" y="554.2"><tspan x="775.402" y="554.1800000000001"><a style="fill: #777;" class="cclogo" href="http://creativecommons.org/licenses/by-sa/4.0/deed.en_US" target="_blank">CC BY-SA</a></tspan></text></g></g></svg>