<svg xmlns="http://www.w3.org/2000/svg" version="1.1" style="font-family: 'Helvetica Neue', Helvetica, Arial, sans-serif; font-size: 18px; background-color: white; text-rendering: optimizeLegibility; -webkit-font-smoothing: antialiased;" width="850" height="600"><g class="ChartTab"><g class="HeaderView"><g opacity="0.8" transform="translate(778, 15) scale(0.27)"><a xmlns:xlink="http://www.w3.org/1999/xlink" xlink:href="https://ourworldindata.org" target="_blank"><g><rect x="0" y="0" fill="#1B2543" width="211.2" height="130.1"/><rect x="0" y="112.2" fill="#E63912" width="211.2" height="17.9"/><g><rect x="1.2" y="12.3" fill="none" width="210.2" height="99.2"/><path fill="#FFFFFF" d="M37.8,32.2c0,12.7-7.7,19.4-17.1,19.4c-9.7,0-16.6-7.5-16.6-18.7c0-11.7,7.3-19.3,17.1-19.3 C31.3,13.7,37.8,21.3,37.8,32.2z M9.2,32.8c0,7.9,4.3,14.9,11.8,14.9c7.5,0,11.8-6.9,11.8-15.3c0-7.3-3.8-14.9-11.8-14.9 C13.1,17.5,9.2,24.8,9.2,32.8z"/><path fill="#FFFFFF" d="M62.7,43.8c0,2.7,0.1,5.1,0.2,7.2h-4.3l-0.3-4.3h-0.1c-1.3,2.1-4,4.9-8.8,4.9c-4.2,0-9.1-2.3-9.1-11.6 V24.6h4.8v14.6c0,5,1.5,8.4,5.9,8.4c3.2,0,5.5-2.2,6.3-4.4c0.3-0.7,0.4-1.6,0.4-2.5V24.6h4.8V43.8z"/><path fill="#FFFFFF" d="M67.3,32.8c0-3.1-0.1-5.8-0.2-8.2h4.2l0.2,5.2h0.2c1.2-3.5,4.1-5.8,7.3-5.8c0.5,0,0.9,0.1,1.4,0.2v4.5 c-0.5-0.1-1-0.2-1.6-0.2c-3.4,0-5.8,2.6-6.5,6.2c-0.1,0.7-0.2,1.4-0.2,2.2V51h-4.8V32.8z"/><path fill="#FFFFFF" d="M95.4,51l-9.4-36.8h5l4.4,18.6c1.1,4.6,2.1,9.2,2.7,12.7h0.1c0.6-3.7,1.8-8,3-12.8l4.9-18.5h5l4.5,18.7 c1,4.4,2,8.7,2.6,12.6h0.1c0.8-4,1.8-8.1,3-12.7l4.9-18.5h4.9L120.6,51h-5L111,31.9c-1.1-4.7-1.9-8.3-2.4-12h-0.1 c-0.7,3.7-1.5,7.3-2.8,12L100.4,51H95.4z"/><path fill="#FFFFFF" d="M154.9,37.6c0,9.8-6.8,14-13.2,14c-7.2,0-12.7-5.2-12.7-13.6c0-8.8,5.8-14,13.1-14 C149.8,24,154.9,29.5,154.9,37.6z M133.9,37.9c0,5.8,3.3,10.1,8,10.1c4.6,0,8-4.3,8-10.3c0-4.5-2.2-10.1-7.9-10.1 C136.3,27.6,133.9,32.8,133.9,37.9z"/><path fill="#FFFFFF" d="M158.2,32.8c0-3.1-0.1-5.8-0.2-8.2h4.2l0.2,5.2h0.2c1.2-3.5,4.1-5.8,7.3-5.8c0.5,0,0.9,0.1,1.4,0.2v4.5 c-0.5-0.1-1-0.2-1.6-0.2c-3.4,0-5.8,2.6-6.5,6.2c-0.1,0.7-0.2,1.4-0.2,2.2V51h-4.8V32.8z"/><path fill="#FFFFFF" d="M173.5,12.3h4.8V51h-4.8V12.3z"/><path fill="#FFFFFF" d="M206.5,12.3v31.9c0,2.3,0.1,5,0.2,6.8h-4.3l-0.2-4.6H202c-1.5,2.9-4.7,5.2-9,5.2 c-6.4,0-11.3-5.4-11.3-13.4c-0.1-8.8,5.4-14.2,11.9-14.2c4,0,6.8,1.9,8,4h0.1V12.3H206.5z M201.7,35.4c0-0.6-0.1-1.4-0.2-2 c-0.7-3.1-3.3-5.6-6.9-5.6c-5,0-7.9,4.4-7.9,10.2c0,5.3,2.6,9.8,7.8,9.8c3.2,0,6.2-2.1,7.1-5.7c0.2-0.7,0.2-1.3,0.2-2.1V35.4z"/><path fill="#FFFFFF" d="M42.8,64c0.1,1.6-1.1,2.9-3.1,2.9c-1.7,0-2.9-1.3-2.9-2.9c0-1.7,1.3-3,3-3C41.7,61,42.8,62.3,42.8,64z M37.4,97.8V71.4h4.8v26.4H37.4z"/><path fill="#FFFFFF" d="M47.5,78.6c0-2.7-0.1-5-0.2-7.1h4.3l0.3,4.4h0.1c1.3-2.5,4.4-5,8.8-5c3.7,0,9.4,2.2,9.4,11.2v15.8h-4.8 V82.6c0-4.3-1.6-7.8-6.1-7.8c-3.2,0-5.6,2.2-6.5,4.9c-0.2,0.6-0.3,1.4-0.3,2.2v15.9h-4.8V78.6z"/><path fill="#FFFFFF" d="M84,61.6c2.9-0.4,6.3-0.8,10.1-0.8c6.8,0,11.7,1.6,14.9,4.6c3.3,3,5.2,7.3,5.2,13.2c0,6-1.9,10.9-5.3,14.3 c-3.4,3.4-9.1,5.3-16.3,5.3c-3.4,0-6.2-0.2-8.6-0.4V61.6z M88.8,94.1c1.2,0.2,3,0.3,4.8,0.3c10.2,0,15.7-5.7,15.7-15.6 c0.1-8.7-4.9-14.2-14.9-14.2c-2.5,0-4.3,0.2-5.6,0.5V94.1z"/><path fill="#FFFFFF" d="M132.1,97.8l-0.4-3.3h-0.2c-1.5,2.1-4.3,3.9-8.1,3.9c-5.4,0-8.1-3.8-8.1-7.6c0-6.4,5.7-9.9,15.9-9.8v-0.5 c0-2.2-0.6-6.1-6-6.1c-2.5,0-5,0.8-6.9,2l-1.1-3.2c2.2-1.4,5.4-2.3,8.7-2.3c8.1,0,10.1,5.5,10.1,10.8v9.9c0,2.3,0.1,4.5,0.4,6.3 H132.1z M131.4,84.4c-5.3-0.1-11.2,0.8-11.2,5.9c0,3.1,2.1,4.6,4.5,4.6c3.4,0,5.6-2.2,6.4-4.4c0.2-0.5,0.3-1,0.3-1.5V84.4z"/><path fill="#FFFFFF" d="M146.6,63.9v7.6h6.9v3.7h-6.9v14.2c0,3.3,0.9,5.1,3.6,5.1c1.3,0,2.2-0.2,2.8-0.3l0.2,3.6 c-0.9,0.4-2.4,0.7-4.3,0.7c-2.2,0-4-0.7-5.2-2c-1.4-1.4-1.9-3.8-1.9-6.9V75.1h-4.1v-3.7h4.1v-6.3L146.6,63.9z"/><path fill="#FFFFFF" d="M171.4,97.8l-0.4-3.3h-0.2c-1.5,2.1-4.3,3.9-8.1,3.9c-5.4,0-8.1-3.8-8.1-7.6c0-6.4,5.7-9.9,15.9-9.8v-0.5 c0-2.2-0.6-6.1-6-6.1c-2.5,0-5,0.8-6.9,2l-1.1-3.2c2.2-1.4,5.4-2.3,8.7-2.3c8.1,0,10.1,5.5,10.1,10.8v9.9c0,2.3,0.1,4.5,0.4,6.3 H171.4z M170.7,84.4c-5.3-0.1-11.2,0.8-11.2,5.9c0,3.1,2.1,4.6,4.5,4.6c3.4,0,5.6-2.2,6.4-4.4c0.2-0.5,0.3-1,0.3-1.5V84.4z"/></g></g></a></g><a href="https://ourworldindata.org/grapher/top-10-share-of-net-personal-wealth-wid-2018" target="_blank"><text font-size="25.20" x="15.0" y="35.2" fill="#555"><tspan x="15" y="35.160000000000004">Top 10% share of net personal wealth (WID 2018)</tspan></text></a></g><g class="LineChart"><defs><clipPath id="boundsClip-1"><rect x="42.562" y="0" width="830" height="973"></rect></clipPath></defs><g class="AxisBoxView"><g class="HorizontalAxis"><text x="52.6" y="556.5" fill="#666" text-anchor="middle" font-size="16.2">1807</text><text x="187.2" y="556.5" fill="#666" text-anchor="middle" font-size="16.2">1850</text><text x="343.7" y="556.5" fill="#666" text-anchor="middle" font-size="16.2">1900</text><text x="500.2" y="556.5" fill="#666" text-anchor="middle" font-size="16.2">1950</text><text x="656.7" y="556.5" fill="#666" text-anchor="middle" font-size="16.2">2000</text><text x="703.6" y="556.5" fill="#666" text-anchor="middle" font-size="16.2">2015</text></g><g class="VerticalAxis"><text x="47.56" y="535.3" fill="#666" dominant-baseline="middle" text-anchor="end" font-size="16.2">0%</text><text x="47.56" y="435.3" fill="#666" dominant-baseline="middle" text-anchor="end" font-size="16.2">20%</text><text x="47.56" y="335.2" fill="#666" dominant-baseline="middle" text-anchor="end" font-size="16.2">40%</text><text x="47.56" y="235.2" fill="#666" dominant-baseline="middle" text-anchor="end" font-size="16.2">60%</text><text x="47.56" y="135.2" fill="#666" dominant-baseline="middle" text-anchor="end" font-size="16.2">80%</text></g><g class="AxisGridLines"><line x1="52.56" y1="535.3" x2="703.61" y2="535.3" stroke="#ccc"></line><line x1="52.56" y1="435.3" x2="703.61" y2="435.3" stroke="#ddd" stroke-dasharray="3,2"></line><line x1="52.56" y1="335.2" x2="703.61" y2="335.2" stroke="#ddd" stroke-dasharray="3,2"></line><line x1="52.56" y1="235.2" x2="703.61" y2="235.2" stroke="#ddd" stroke-dasharray="3,2"></line><line x1="52.56" y1="135.2" x2="703.61" y2="135.2" stroke="#ddd" stroke-dasharray="3,2"></line></g></g><g clip-path="url(#boundsClip-1)"><g class="HeightedLegend clickable"><g class="legendMark"><g class="indicator"><line x1="708.61" y1="174.3" x2="727.7766666666666" y2="174.3" stroke="#666" stroke-width="0.5"></line><line x1="727.7766666666666" y1="174.3" x2="727.7766666666666" y2="174.3" stroke="#666" stroke-width="0.5"></line><line x1="727.7766666666666" y1="174.3" x2="733.61" y2="174.3" stroke="#666" stroke-width="0.5"></line></g><rect x="703.61" y="167.55" width="116.405" height="13.5" fill="#fff" opacity="0"></rect><text font-size="13.50" x="738.6" y="178.4" fill="#a652ba"><tspan x="738.61" y="178.35000000000002">United States</tspan></text></g><g class="legendMark"><g class="indicator"><line x1="708.61" y1="178.6" x2="721.11" y2="178.6" stroke="#666" stroke-width="0.5"></line><line x1="721.11" y1="178.6" x2="721.11" y2="189.8" stroke="#666" stroke-width="0.5"></line><line x1="721.11" y1="189.8" x2="733.61" y2="189.8" stroke="#666" stroke-width="0.5"></line></g><rect x="703.61" y="183.05" width="76.31" height="13.5" fill="#fff" opacity="0"></rect><text font-size="13.50" x="738.6" y="193.9" fill="#f6a324"><tspan x="738.61" y="193.85000000000002">Russia</tspan></text></g><g class="legendMark"><g class="indicator"><line x1="708.61" y1="198.2" x2="714.4433333333334" y2="198.2" stroke="#666" stroke-width="0.5"></line><line x1="714.4433333333334" y1="198.2" x2="714.4433333333334" y2="205.3" stroke="#666" stroke-width="0.5"></line><line x1="714.4433333333334" y1="205.3" x2="733.61" y2="205.3" stroke="#666" stroke-width="0.5"></line></g><rect x="703.61" y="198.55" width="70.37" height="13.5" fill="#fff" opacity="0"></rect><text font-size="13.50" x="738.6" y="209.4" fill="#34983f"><tspan x="738.61" y="209.35000000000002">China</tspan></text></g><g class="legendMark"><g class="indicator"><line x1="708.61" y1="258.8" x2="721.11" y2="258.8" stroke="#666" stroke-width="0.5"></line><line x1="721.11" y1="258.8" x2="721.11" y2="258.8" stroke="#666" stroke-width="0.5"></line><line x1="721.11" y1="258.8" x2="733.61" y2="258.8" stroke="#666" stroke-width="0.5"></line></g><rect x="703.61" y="252.05" width="77.12" height="13.5" fill="#fff" opacity="0"></rect><text font-size="13.50" x="738.6" y="262.9" fill="#ca2628"><tspan x="738.61" y="262.85">France</tspan></text></g><g class="legendMark"><g class="indicator"><line x1="708.61" y1="275.6" x2="721.11" y2="275.6" stroke="#666" stroke-width="0.5"></line><line x1="721.11" y1="275.6" x2="721.11" y2="275.6" stroke="#666" stroke-width="0.5"></line><line x1="721.11" y1="275.6" x2="733.61" y2="275.6" stroke="#666" stroke-width="0.5"></line></g><rect x="703.61" y="268.85" width="131.39" height="13.5" fill="#fff" opacity="0"></rect><text font-size="13.50" x="738.6" y="279.7" fill="#3360a9"><tspan x="738.61" y="279.65000000000003">United Kingdom</tspan></text></g></g><g class="Lines"><rect x="53" y="70" width="651" height="465" fill="rgba(255,255,255,0)" opacity="0"></rect><g class="key-China_0"><path stroke="#34983f" stroke-linecap="round" d="M588 331L591 331L594 331L597 331L600 331L603 331L607 331L610 331L613 331L616 331L619 331L622 331L625 331L629 331L632 331L635 331L638 331L641 331L644 320L647 312L650 306L654 301L657 297L660 293L663 290L666 290L669 282L672 274L675 266L679 256L682 251L685 244L688 221L691 202L694 203L697 202L701 202L704 198" fill="none" stroke-width="1.5"></path><g fill="#34983f"><circle cx="588" cy="331" r="2"></circle><circle cx="591" cy="331" r="2"></circle><circle cx="594" cy="331" r="2"></circle><circle cx="597" cy="331" r="2"></circle><circle cx="600" cy="331" r="2"></circle><circle cx="603" cy="331" r="2"></circle><circle cx="607" cy="331" r="2"></circle><circle cx="610" cy="331" r="2"></circle><circle cx="613" cy="331" r="2"></circle><circle cx="616" cy="331" r="2"></circle><circle cx="619" cy="331" r="2"></circle><circle cx="622" cy="331" r="2"></circle><circle cx="625" cy="331" r="2"></circle><circle cx="629" cy="331" r="2"></circle><circle cx="632" cy="331" r="2"></circle><circle cx="635" cy="331" r="2"></circle><circle cx="638" cy="331" r="2"></circle><circle cx="641" cy="331" r="2"></circle><circle cx="644" cy="320" r="2"></circle><circle cx="647" cy="312" r="2"></circle><circle cx="650" cy="306" r="2"></circle><circle cx="654" cy="301" r="2"></circle><circle cx="657" cy="297" r="2"></circle><circle cx="660" cy="293" r="2"></circle><circle cx="663" cy="290" r="2"></circle><circle cx="666" cy="290" r="2"></circle><circle cx="669" cy="282" r="2"></circle><circle cx="672" cy="274" r="2"></circle><circle cx="675" cy="266" r="2"></circle><circle cx="679" cy="256" r="2"></circle><circle cx="682" cy="251" r="2"></circle><circle cx="685" cy="244" r="2"></circle><circle cx="688" cy="221" r="2"></circle><circle cx="691" cy="202" r="2"></circle><circle cx="694" cy="203" r="2"></circle><circle cx="697" cy="202" r="2"></circle><circle cx="701" cy="202" r="2"></circle><circle cx="704" cy="198" r="2"></circle></g></g><g class="key-France_0"><path stroke="#ca2628" stroke-linecap="round" d="M53 140L84 111L115 123L147 136L178 102L209 120L240 131L272 122L303 119L350 115L353 110L356 106L359 105L366 110L372 110L375 112L378 108L381 109L384 111L388 111L391 114L394 114L397 114L400 116L403 119L406 124L409 127L413 130L416 133L419 134L422 142L425 142L428 136L434 134L438 134L441 141L444 145L447 145L453 149L456 152L460 153L463 162L466 157L469 173L472 169L475 164L478 153L481 156L485 167L488 186L491 191L494 186L497 178L500 174L503 185L506 174L510 171L513 181L516 182L519 185L522 182L525 189L528 182L532 180L538 182L544 171L547 177L550 188L553 199L557 223L560 241L563 244L566 249L569 250L572 251L575 257L578 261L582 265L585 269L588 273L591 276L594 277L597 281L600 284L603 285L607 285L610 285L613 282L616 283L619 283L622 281L625 284L629 282L632 280L635 279L638 279L641 280L644 265L647 259L650 254L654 251L657 250L660 255L663 262L666 266L669 270L672 273L675 271L679 267L682 269L685 265L688 256L691 260L694 263L697 261L701 259" fill="none" stroke-width="1.5"></path><g fill="#ca2628"><circle cx="53" cy="140" r="2"></circle><circle cx="84" cy="111" r="2"></circle><circle cx="115" cy="123" r="2"></circle><circle cx="147" cy="136" r="2"></circle><circle cx="178" cy="102" r="2"></circle><circle cx="209" cy="120" r="2"></circle><circle cx="240" cy="131" r="2"></circle><circle cx="272" cy="122" r="2"></circle><circle cx="303" cy="119" r="2"></circle><circle cx="350" cy="115" r="2"></circle><circle cx="353" cy="110" r="2"></circle><circle cx="356" cy="106" r="2"></circle><circle cx="359" cy="105" r="2"></circle><circle cx="366" cy="110" r="2"></circle><circle cx="372" cy="110" r="2"></circle><circle cx="375" cy="112" r="2"></circle><circle cx="378" cy="108" r="2"></circle><circle cx="381" cy="109" r="2"></circle><circle cx="384" cy="111" r="2"></circle><circle cx="388" cy="111" r="2"></circle><circle cx="391" cy="114" r="2"></circle><circle cx="394" cy="114" r="2"></circle><circle cx="397" cy="114" r="2"></circle><circle cx="400" cy="116" r="2"></circle><circle cx="403" cy="119" r="2"></circle><circle cx="406" cy="124" r="2"></circle><circle cx="409" cy="127" r="2"></circle><circle cx="413" cy="130" r="2"></circle><circle cx="416" cy="133" r="2"></circle><circle cx="419" cy="134" r="2"></circle><circle cx="422" cy="142" r="2"></circle><circle cx="425" cy="142" r="2"></circle><circle cx="428" cy="136" r="2"></circle><circle cx="434" cy="134" r="2"></circle><circle cx="438" cy="134" r="2"></circle><circle cx="441" cy="141" r="2"></circle><circle cx="444" cy="145" r="2"></circle><circle cx="447" cy="145" r="2"></circle><circle cx="453" cy="149" r="2"></circle><circle cx="456" cy="152" r="2"></circle><circle cx="460" cy="153" r="2"></circle><circle cx="463" cy="162" r="2"></circle><circle cx="466" cy="157" r="2"></circle><circle cx="469" cy="173" r="2"></circle><circle cx="472" cy="169" r="2"></circle><circle cx="475" cy="164" r="2"></circle><circle cx="478" cy="153" r="2"></circle><circle cx="481" cy="156" r="2"></circle><circle cx="485" cy="167" r="2"></circle><circle cx="488" cy="186" r="2"></circle><circle cx="491" cy="191" r="2"></circle><circle cx="494" cy="186" r="2"></circle><circle cx="497" cy="178" r="2"></circle><circle cx="500" cy="174" r="2"></circle><circle cx="503" cy="185" r="2"></circle><circle cx="506" cy="174" r="2"></circle><circle cx="510" cy="171" r="2"></circle><circle cx="513" cy="181" r="2"></circle><circle cx="516" cy="182" r="2"></circle><circle cx="519" cy="185" r="2"></circle><circle cx="522" cy="182" r="2"></circle><circle cx="525" cy="189" r="2"></circle><circle cx="528" cy="182" r="2"></circle><circle cx="532" cy="180" r="2"></circle><circle cx="538" cy="182" r="2"></circle><circle cx="544" cy="171" r="2"></circle><circle cx="547" cy="177" r="2"></circle><circle cx="550" cy="188" r="2"></circle><circle cx="553" cy="199" r="2"></circle><circle cx="557" cy="223" r="2"></circle><circle cx="560" cy="241" r="2"></circle><circle cx="563" cy="244" r="2"></circle><circle cx="566" cy="249" r="2"></circle><circle cx="569" cy="250" r="2"></circle><circle cx="572" cy="251" r="2"></circle><circle cx="575" cy="257" r="2"></circle><circle cx="578" cy="261" r="2"></circle><circle cx="582" cy="265" r="2"></circle><circle cx="585" cy="269" r="2"></circle><circle cx="588" cy="273" r="2"></circle><circle cx="591" cy="276" r="2"></circle><circle cx="594" cy="277" r="2"></circle><circle cx="597" cy="281" r="2"></circle><circle cx="600" cy="284" r="2"></circle><circle cx="603" cy="285" r="2"></circle><circle cx="607" cy="285" r="2"></circle><circle cx="610" cy="285" r="2"></circle><circle cx="613" cy="282" r="2"></circle><circle cx="616" cy="283" r="2"></circle><circle cx="619" cy="283" r="2"></circle><circle cx="622" cy="281" r="2"></circle><circle cx="625" cy="284" r="2"></circle><circle cx="629" cy="282" r="2"></circle><circle cx="632" cy="280" r="2"></circle><circle cx="635" cy="279" r="2"></circle><circle cx="638" cy="279" r="2"></circle><circle cx="641" cy="280" r="2"></circle><circle cx="644" cy="265" r="2"></circle><circle cx="647" cy="259" r="2"></circle><circle cx="650" cy="254" r="2"></circle><circle cx="654" cy="251" r="2"></circle><circle cx="657" cy="250" r="2"></circle><circle cx="660" cy="255" r="2"></circle><circle cx="663" cy="262" r="2"></circle><circle cx="666" cy="266" r="2"></circle><circle cx="669" cy="270" r="2"></circle><circle cx="672" cy="273" r="2"></circle><circle cx="675" cy="271" r="2"></circle><circle cx="679" cy="267" r="2"></circle><circle cx="682" cy="269" r="2"></circle><circle cx="685" cy="265" r="2"></circle><circle cx="688" cy="256" r="2"></circle><circle cx="691" cy="260" r="2"></circle><circle cx="694" cy="263" r="2"></circle><circle cx="697" cy="261" r="2"></circle><circle cx="701" cy="259" r="2"></circle></g></g><g class="key-Russia_0"><path stroke="#f6a324" stroke-linecap="round" d="M641 273L644 263L647 237L650 223L654 207L657 212L660 202L663 214L666 202L669 200L672 207L675 216L679 216L682 203L685 221L688 205L691 194L694 196L697 196L701 193L704 179" fill="none" stroke-width="1.5"></path><g fill="#f6a324"><circle cx="641" cy="273" r="2"></circle><circle cx="644" cy="263" r="2"></circle><circle cx="647" cy="237" r="2"></circle><circle cx="650" cy="223" r="2"></circle><circle cx="654" cy="207" r="2"></circle><circle cx="657" cy="212" r="2"></circle><circle cx="660" cy="202" r="2"></circle><circle cx="663" cy="214" r="2"></circle><circle cx="666" cy="202" r="2"></circle><circle cx="669" cy="200" r="2"></circle><circle cx="672" cy="207" r="2"></circle><circle cx="675" cy="216" r="2"></circle><circle cx="679" cy="216" r="2"></circle><circle cx="682" cy="203" r="2"></circle><circle cx="685" cy="221" r="2"></circle><circle cx="688" cy="205" r="2"></circle><circle cx="691" cy="194" r="2"></circle><circle cx="694" cy="196" r="2"></circle><circle cx="697" cy="196" r="2"></circle><circle cx="701" cy="193" r="2"></circle><circle cx="704" cy="179" r="2"></circle></g></g><g class="key-United-Kingdom_0"><path stroke="#3360a9" stroke-linecap="round" d="M328 70L331 71L334 71L337 72L341 72L344 72L347 71L350 72L353 73L356 73L359 73L362 72L366 74L369 75L372 74L375 76L378 72L381 71L384 72L388 70L403 93L406 95L409 94L413 91L416 94L419 96L422 94L425 99L428 95L431 102L434 100L438 105L441 106L444 107L447 103L450 105L453 106L456 109L460 108L463 110L466 114L469 116L472 121L488 118L491 120L494 120L497 126L500 136L503 144L506 148L510 151L513 152L516 159L519 165L522 173L525 175L528 177L532 183L535 188L538 198L541 196L544 193L547 194L550 204L553 202L557 198L560 212L563 213L566 218L569 205L572 218L575 230L578 242L582 230L585 247L588 241L591 265L594 275L597 269L600 279L603 282L607 302L610 292L613 291L616 283L619 294L622 293L625 305L629 307L632 295L635 286L638 288L641 301L644 293L647 277L650 276L654 285L657 282L660 284L663 281L666 284L672 279L675 275L685 265L694 276" fill="none" stroke-width="1.5"></path><g fill="#3360a9"><circle cx="328" cy="70" r="2"></circle><circle cx="331" cy="71" r="2"></circle><circle cx="334" cy="71" r="2"></circle><circle cx="337" cy="72" r="2"></circle><circle cx="341" cy="72" r="2"></circle><circle cx="344" cy="72" r="2"></circle><circle cx="347" cy="71" r="2"></circle><circle cx="350" cy="72" r="2"></circle><circle cx="353" cy="73" r="2"></circle><circle cx="356" cy="73" r="2"></circle><circle cx="359" cy="73" r="2"></circle><circle cx="362" cy="72" r="2"></circle><circle cx="366" cy="74" r="2"></circle><circle cx="369" cy="75" r="2"></circle><circle cx="372" cy="74" r="2"></circle><circle cx="375" cy="76" r="2"></circle><circle cx="378" cy="72" r="2"></circle><circle cx="381" cy="71" r="2"></circle><circle cx="384" cy="72" r="2"></circle><circle cx="388" cy="70" r="2"></circle><circle cx="403" cy="93" r="2"></circle><circle cx="406" cy="95" r="2"></circle><circle cx="409" cy="94" r="2"></circle><circle cx="413" cy="91" r="2"></circle><circle cx="416" cy="94" r="2"></circle><circle cx="419" cy="96" r="2"></circle><circle cx="422" cy="94" r="2"></circle><circle cx="425" cy="99" r="2"></circle><circle cx="428" cy="95" r="2"></circle><circle cx="431" cy="102" r="2"></circle><circle cx="434" cy="100" r="2"></circle><circle cx="438" cy="105" r="2"></circle><circle cx="441" cy="106" r="2"></circle><circle cx="444" cy="107" r="2"></circle><circle cx="447" cy="103" r="2"></circle><circle cx="450" cy="105" r="2"></circle><circle cx="453" cy="106" r="2"></circle><circle cx="456" cy="109" r="2"></circle><circle cx="460" cy="108" r="2"></circle><circle cx="463" cy="110" r="2"></circle><circle cx="466" cy="114" r="2"></circle><circle cx="469" cy="116" r="2"></circle><circle cx="472" cy="121" r="2"></circle><circle cx="488" cy="118" r="2"></circle><circle cx="491" cy="120" r="2"></circle><circle cx="494" cy="120" r="2"></circle><circle cx="497" cy="126" r="2"></circle><circle cx="500" cy="136" r="2"></circle><circle cx="503" cy="144" r="2"></circle><circle cx="506" cy="148" r="2"></circle><circle cx="510" cy="151" r="2"></circle><circle cx="513" cy="152" r="2"></circle><circle cx="516" cy="159" r="2"></circle><circle cx="519" cy="165" r="2"></circle><circle cx="522" cy="173" r="2"></circle><circle cx="525" cy="175" r="2"></circle><circle cx="528" cy="177" r="2"></circle><circle cx="532" cy="183" r="2"></circle><circle cx="535" cy="188" r="2"></circle><circle cx="538" cy="198" r="2"></circle><circle cx="541" cy="196" r="2"></circle><circle cx="544" cy="193" r="2"></circle><circle cx="547" cy="194" r="2"></circle><circle cx="550" cy="204" r="2"></circle><circle cx="553" cy="202" r="2"></circle><circle cx="557" cy="198" r="2"></circle><circle cx="560" cy="212" r="2"></circle><circle cx="563" cy="213" r="2"></circle><circle cx="566" cy="218" r="2"></circle><circle cx="569" cy="205" r="2"></circle><circle cx="572" cy="218" r="2"></circle><circle cx="575" cy="230" r="2"></circle><circle cx="578" cy="242" r="2"></circle><circle cx="582" cy="230" r="2"></circle><circle cx="585" cy="247" r="2"></circle><circle cx="588" cy="241" r="2"></circle><circle cx="591" cy="265" r="2"></circle><circle cx="594" cy="275" r="2"></circle><circle cx="597" cy="269" r="2"></circle><circle cx="600" cy="279" r="2"></circle><circle cx="603" cy="282" r="2"></circle><circle cx="607" cy="302" r="2"></circle><circle cx="610" cy="292" r="2"></circle><circle cx="613" cy="291" r="2"></circle><circle cx="616" cy="283" r="2"></circle><circle cx="619" cy="294" r="2"></circle><circle cx="622" cy="293" r="2"></circle><circle cx="625" cy="305" r="2"></circle><circle cx="629" cy="307" r="2"></circle><circle cx="632" cy="295" r="2"></circle><circle cx="635" cy="286" r="2"></circle><circle cx="638" cy="288" r="2"></circle><circle cx="641" cy="301" r="2"></circle><circle cx="644" cy="293" r="2"></circle><circle cx="647" cy="277" r="2"></circle><circle cx="650" cy="276" r="2"></circle><circle cx="654" cy="285" r="2"></circle><circle cx="657" cy="282" r="2"></circle><circle cx="660" cy="284" r="2"></circle><circle cx="663" cy="281" r="2"></circle><circle cx="666" cy="284" r="2"></circle><circle cx="672" cy="279" r="2"></circle><circle cx="675" cy="275" r="2"></circle><circle cx="685" cy="265" r="2"></circle><circle cx="694" cy="276" r="2"></circle></g></g><g class="key-United-States_0"><path stroke="#a652ba" stroke-linecap="round" d="M384 143L388 144L391 145L394 144L397 144L400 142L403 135L406 145L409 145L413 139L416 137L419 130L422 124L425 119L428 114L431 113L434 113L438 112L441 113L444 111L447 112L450 120L453 127L456 124L460 134L463 135L466 134L469 150L472 162L475 171L478 169L481 180L485 176L488 178L491 185L494 192L497 196L500 194L503 194L506 195L510 199L513 197L516 195L519 193L522 191L525 191L528 187L532 186L535 185L538 182L541 183L544 183L547 186L550 179L553 191L557 177L560 189L563 182L566 189L569 185L572 201L575 199L578 206L582 210L585 212L588 215L591 209L594 210L597 211L600 218L603 222L607 225L610 226L613 228L616 227L619 219L622 222L625 221L629 218L632 210L635 208L638 212L641 206L644 208L647 200L650 201L654 192L657 191L660 203L663 196L666 196L669 192L672 198L675 191L679 186L682 175L685 171L688 169L691 169L694 167L697 169L701 174" fill="none" stroke-width="1.5"></path><g fill="#a652ba"><circle cx="384" cy="143" r="2"></circle><circle cx="388" cy="144" r="2"></circle><circle cx="391" cy="145" r="2"></circle><circle cx="394" cy="144" r="2"></circle><circle cx="397" cy="144" r="2"></circle><circle cx="400" cy="142" r="2"></circle><circle cx="403" cy="135" r="2"></circle><circle cx="406" cy="145" r="2"></circle><circle cx="409" cy="145" r="2"></circle><circle cx="413" cy="139" r="2"></circle><circle cx="416" cy="137" r="2"></circle><circle cx="419" cy="130" r="2"></circle><circle cx="422" cy="124" r="2"></circle><circle cx="425" cy="119" r="2"></circle><circle cx="428" cy="114" r="2"></circle><circle cx="431" cy="113" r="2"></circle><circle cx="434" cy="113" r="2"></circle><circle cx="438" cy="112" r="2"></circle><circle cx="441" cy="113" r="2"></circle><circle cx="444" cy="111" r="2"></circle><circle cx="447" cy="112" r="2"></circle><circle cx="450" cy="120" r="2"></circle><circle cx="453" cy="127" r="2"></circle><circle cx="456" cy="124" r="2"></circle><circle cx="460" cy="134" r="2"></circle><circle cx="463" cy="135" r="2"></circle><circle cx="466" cy="134" r="2"></circle><circle cx="469" cy="150" r="2"></circle><circle cx="472" cy="162" r="2"></circle><circle cx="475" cy="171" r="2"></circle><circle cx="478" cy="169" r="2"></circle><circle cx="481" cy="180" r="2"></circle><circle cx="485" cy="176" r="2"></circle><circle cx="488" cy="178" r="2"></circle><circle cx="491" cy="185" r="2"></circle><circle cx="494" cy="192" r="2"></circle><circle cx="497" cy="196" r="2"></circle><circle cx="500" cy="194" r="2"></circle><circle cx="503" cy="194" r="2"></circle><circle cx="506" cy="195" r="2"></circle><circle cx="510" cy="199" r="2"></circle><circle cx="513" cy="197" r="2"></circle><circle cx="516" cy="195" r="2"></circle><circle cx="519" cy="193" r="2"></circle><circle cx="522" cy="191" r="2"></circle><circle cx="525" cy="191" r="2"></circle><circle cx="528" cy="187" r="2"></circle><circle cx="532" cy="186" r="2"></circle><circle cx="535" cy="185" r="2"></circle><circle cx="538" cy="182" r="2"></circle><circle cx="541" cy="183" r="2"></circle><circle cx="544" cy="183" r="2"></circle><circle cx="547" cy="186" r="2"></circle><circle cx="550" cy="179" r="2"></circle><circle cx="553" cy="191" r="2"></circle><circle cx="557" cy="177" r="2"></circle><circle cx="560" cy="189" r="2"></circle><circle cx="563" cy="182" r="2"></circle><circle cx="566" cy="189" r="2"></circle><circle cx="569" cy="185" r="2"></circle><circle cx="572" cy="201" r="2"></circle><circle cx="575" cy="199" r="2"></circle><circle cx="578" cy="206" r="2"></circle><circle cx="582" cy="210" r="2"></circle><circle cx="585" cy="212" r="2"></circle><circle cx="588" cy="215" r="2"></circle><circle cx="591" cy="209" r="2"></circle><circle cx="594" cy="210" r="2"></circle><circle cx="597" cy="211" r="2"></circle><circle cx="600" cy="218" r="2"></circle><circle cx="603" cy="222" r="2"></circle><circle cx="607" cy="225" r="2"></circle><circle cx="610" cy="226" r="2"></circle><circle cx="613" cy="228" r="2"></circle><circle cx="616" cy="227" r="2"></circle><circle cx="619" cy="219" r="2"></circle><circle cx="622" cy="222" r="2"></circle><circle cx="625" cy="221" r="2"></circle><circle cx="629" cy="218" r="2"></circle><circle cx="632" cy="210" r="2"></circle><circle cx="635" cy="208" r="2"></circle><circle cx="638" cy="212" r="2"></circle><circle cx="641" cy="206" r="2"></circle><circle cx="644" cy="208" r="2"></circle><circle cx="647" cy="200" r="2"></circle><circle cx="650" cy="201" r="2"></circle><circle cx="654" cy="192" r="2"></circle><circle cx="657" cy="191" r="2"></circle><circle cx="660" cy="203" r="2"></circle><circle cx="663" cy="196" r="2"></circle><circle cx="666" cy="196" r="2"></circle><circle cx="669" cy="192" r="2"></circle><circle cx="672" cy="198" r="2"></circle><circle cx="675" cy="191" r="2"></circle><circle cx="679" cy="186" r="2"></circle><circle cx="682" cy="175" r="2"></circle><circle cx="685" cy="171" r="2"></circle><circle cx="688" cy="169" r="2"></circle><circle cx="691" cy="169" r="2"></circle><circle cx="694" cy="167" r="2"></circle><circle cx="697" cy="169" r="2"></circle><circle cx="701" cy="174" r="2"></circle></g></g></g></g></g><g style="fill: #777;" class="SourcesFooter"><g style="fill: #777;" class="clickable"><text font-size="12.60" x="15.0" y="581.6"><tspan x="15" y="581.58">Source: World Inequality Database (2018)</tspan></text></g><text font-size="12.60" x="775.4" y="581.6"><tspan x="775.402" y="581.58"><a style="fill: #777;" class="cclogo" href="http://creativecommons.org/licenses/by-sa/4.0/deed.en_US" target="_blank">CC BY-SA</a></tspan></text></g></g></svg>