<svg xmlns="http://www.w3.org/2000/svg" version="1.1" style="font-family: 'Helvetica Neue', Helvetica, Arial, sans-serif; font-size: 18px; background-color: white; text-rendering: optimizeLegibility; -webkit-font-smoothing: antialiased;" width="850" height="600"><g class="ChartTab"><g class="HeaderView"><g opacity="0.8" transform="translate(778, 15) scale(0.27)"><a xmlns:xlink="http://www.w3.org/1999/xlink" xlink:href="https://ourworldindata.org" target="_blank"><g><rect x="0" y="0" fill="#1B2543" width="211.2" height="130.1"/><rect x="0" y="112.2" fill="#E63912" width="211.2" height="17.9"/><g><rect x="1.2" y="12.3" fill="none" width="210.2" height="99.2"/><path fill="#FFFFFF" d="M37.8,32.2c0,12.7-7.7,19.4-17.1,19.4c-9.7,0-16.6-7.5-16.6-18.7c0-11.7,7.3-19.3,17.1-19.3 C31.3,13.7,37.8,21.3,37.8,32.2z M9.2,32.8c0,7.9,4.3,14.9,11.8,14.9c7.5,0,11.8-6.9,11.8-15.3c0-7.3-3.8-14.9-11.8-14.9 C13.1,17.5,9.2,24.8,9.2,32.8z"/><path fill="#FFFFFF" d="M62.7,43.8c0,2.7,0.1,5.1,0.2,7.2h-4.3l-0.3-4.3h-0.1c-1.3,2.1-4,4.9-8.8,4.9c-4.2,0-9.1-2.3-9.1-11.6 V24.6h4.8v14.6c0,5,1.5,8.4,5.9,8.4c3.2,0,5.5-2.2,6.3-4.4c0.3-0.7,0.4-1.6,0.4-2.5V24.6h4.8V43.8z"/><path fill="#FFFFFF" d="M67.3,32.8c0-3.1-0.1-5.8-0.2-8.2h4.2l0.2,5.2h0.2c1.2-3.5,4.1-5.8,7.3-5.8c0.5,0,0.9,0.1,1.4,0.2v4.5 c-0.5-0.1-1-0.2-1.6-0.2c-3.4,0-5.8,2.6-6.5,6.2c-0.1,0.7-0.2,1.4-0.2,2.2V51h-4.8V32.8z"/><path fill="#FFFFFF" d="M95.4,51l-9.4-36.8h5l4.4,18.6c1.1,4.6,2.1,9.2,2.7,12.7h0.1c0.6-3.7,1.8-8,3-12.8l4.9-18.5h5l4.5,18.7 c1,4.4,2,8.7,2.6,12.6h0.1c0.8-4,1.8-8.1,3-12.7l4.9-18.5h4.9L120.6,51h-5L111,31.9c-1.1-4.7-1.9-8.3-2.4-12h-0.1 c-0.7,3.7-1.5,7.3-2.8,12L100.4,51H95.4z"/><path fill="#FFFFFF" d="M154.9,37.6c0,9.8-6.8,14-13.2,14c-7.2,0-12.7-5.2-12.7-13.6c0-8.8,5.8-14,13.1-14 C149.8,24,154.9,29.5,154.9,37.6z M133.9,37.9c0,5.8,3.3,10.1,8,10.1c4.6,0,8-4.3,8-10.3c0-4.5-2.2-10.1-7.9-10.1 C136.3,27.6,133.9,32.8,133.9,37.9z"/><path fill="#FFFFFF" d="M158.2,32.8c0-3.1-0.1-5.8-0.2-8.2h4.2l0.2,5.2h0.2c1.2-3.5,4.1-5.8,7.3-5.8c0.5,0,0.9,0.1,1.4,0.2v4.5 c-0.5-0.1-1-0.2-1.6-0.2c-3.4,0-5.8,2.6-6.5,6.2c-0.1,0.7-0.2,1.4-0.2,2.2V51h-4.8V32.8z"/><path fill="#FFFFFF" d="M173.5,12.3h4.8V51h-4.8V12.3z"/><path fill="#FFFFFF" d="M206.5,12.3v31.9c0,2.3,0.1,5,0.2,6.8h-4.3l-0.2-4.6H202c-1.5,2.9-4.7,5.2-9,5.2 c-6.4,0-11.3-5.4-11.3-13.4c-0.1-8.8,5.4-14.2,11.9-14.2c4,0,6.8,1.9,8,4h0.1V12.3H206.5z M201.7,35.4c0-0.6-0.1-1.4-0.2-2 c-0.7-3.1-3.3-5.6-6.9-5.6c-5,0-7.9,4.4-7.9,10.2c0,5.3,2.6,9.8,7.8,9.8c3.2,0,6.2-2.1,7.1-5.7c0.2-0.7,0.2-1.3,0.2-2.1V35.4z"/><path fill="#FFFFFF" d="M42.8,64c0.1,1.6-1.1,2.9-3.1,2.9c-1.7,0-2.9-1.3-2.9-2.9c0-1.7,1.3-3,3-3C41.7,61,42.8,62.3,42.8,64z M37.4,97.8V71.4h4.8v26.4H37.4z"/><path fill="#FFFFFF" d="M47.5,78.6c0-2.7-0.1-5-0.2-7.1h4.3l0.3,4.4h0.1c1.3-2.5,4.4-5,8.8-5c3.7,0,9.4,2.2,9.4,11.2v15.8h-4.8 V82.6c0-4.3-1.6-7.8-6.1-7.8c-3.2,0-5.6,2.2-6.5,4.9c-0.2,0.6-0.3,1.4-0.3,2.2v15.9h-4.8V78.6z"/><path fill="#FFFFFF" d="M84,61.6c2.9-0.4,6.3-0.8,10.1-0.8c6.8,0,11.7,1.6,14.9,4.6c3.3,3,5.2,7.3,5.2,13.2c0,6-1.9,10.9-5.3,14.3 c-3.4,3.4-9.1,5.3-16.3,5.3c-3.4,0-6.2-0.2-8.6-0.4V61.6z M88.8,94.1c1.2,0.2,3,0.3,4.8,0.3c10.2,0,15.7-5.7,15.7-15.6 c0.1-8.7-4.9-14.2-14.9-14.2c-2.5,0-4.3,0.2-5.6,0.5V94.1z"/><path fill="#FFFFFF" d="M132.1,97.8l-0.4-3.3h-0.2c-1.5,2.1-4.3,3.9-8.1,3.9c-5.4,0-8.1-3.8-8.1-7.6c0-6.4,5.7-9.9,15.9-9.8v-0.5 c0-2.2-0.6-6.1-6-6.1c-2.5,0-5,0.8-6.9,2l-1.1-3.2c2.2-1.4,5.4-2.3,8.7-2.3c8.1,0,10.1,5.5,10.1,10.8v9.9c0,2.3,0.1,4.5,0.4,6.3 H132.1z M131.4,84.4c-5.3-0.1-11.2,0.8-11.2,5.9c0,3.1,2.1,4.6,4.5,4.6c3.4,0,5.6-2.2,6.4-4.4c0.2-0.5,0.3-1,0.3-1.5V84.4z"/><path fill="#FFFFFF" d="M146.6,63.9v7.6h6.9v3.7h-6.9v14.2c0,3.3,0.9,5.1,3.6,5.1c1.3,0,2.2-0.2,2.8-0.3l0.2,3.6 c-0.9,0.4-2.4,0.7-4.3,0.7c-2.2,0-4-0.7-5.2-2c-1.4-1.4-1.9-3.8-1.9-6.9V75.1h-4.1v-3.7h4.1v-6.3L146.6,63.9z"/><path fill="#FFFFFF" d="M171.4,97.8l-0.4-3.3h-0.2c-1.5,2.1-4.3,3.9-8.1,3.9c-5.4,0-8.1-3.8-8.1-7.6c0-6.4,5.7-9.9,15.9-9.8v-0.5 c0-2.2-0.6-6.1-6-6.1c-2.5,0-5,0.8-6.9,2l-1.1-3.2c2.2-1.4,5.4-2.3,8.7-2.3c8.1,0,10.1,5.5,10.1,10.8v9.9c0,2.3,0.1,4.5,0.4,6.3 H171.4z M170.7,84.4c-5.3-0.1-11.2,0.8-11.2,5.9c0,3.1,2.1,4.6,4.5,4.6c3.4,0,5.6-2.2,6.4-4.4c0.2-0.5,0.3-1,0.3-1.5V84.4z"/></g></g></a></g><a href="https://ourworldindata.org/grapher/top-MRTs-on-individual-income" target="_blank"><text font-size="25.20" x="15.0" y="35.2" fill="#555"><tspan x="15" y="35.160000000000004">Top marginal income tax rates, selected countries</tspan></text></a><text font-size="14.40" x="15.0" y="53.7" fill="#666"><tspan x="15" y="53.72">Top marginal tax rate of the income tax (i.e. the maximum rate of taxation applied to the highest part of income)</tspan></text></g><g class="LabelledSlopes"><rect x="15" y="76.6" width="820" height="494.9" fill="rgba(0,0,0,0)" opacity="0"></rect><g class="gridlines"><line x1="242.677" y1="521.5" x2="607.3229999999999" y2="521.5" stroke="#eee" stroke-dasharray="3,2"></line><line x1="242.677" y1="422.6333333333333" x2="607.3229999999999" y2="422.6333333333333" stroke="#eee" stroke-dasharray="3,2"></line><line x1="242.677" y1="323.76666666666665" x2="607.3229999999999" y2="323.76666666666665" stroke="#eee" stroke-dasharray="3,2"></line><line x1="242.677" y1="224.90000000000003" x2="607.3229999999999" y2="224.90000000000003" stroke="#eee" stroke-dasharray="3,2"></line><line x1="242.677" y1="126.03333333333336" x2="607.3229999999999" y2="126.03333333333336" stroke="#eee" stroke-dasharray="3,2"></line></g><g font-size="0.8em" class="axis"><text x="15" y="521.5" fill="#666" dominant-baseline="middle" text-anchor="start">0%</text><text x="15" y="422.6333333333333" fill="#666" dominant-baseline="middle" text-anchor="start">20%</text><text x="15" y="323.76666666666665" fill="#666" dominant-baseline="middle" text-anchor="start">40%</text><text x="15" y="224.90000000000003" fill="#666" dominant-baseline="middle" text-anchor="start">60%</text><text x="15" y="126.03333333333336" fill="#666" dominant-baseline="middle" text-anchor="start">80%</text></g><g font-size="0.8em" class="axis"><text x="835" y="521.5" fill="#666" dominant-baseline="middle" text-anchor="end">0%</text><text x="835" y="422.6333333333333" fill="#666" dominant-baseline="middle" text-anchor="end">20%</text><text x="835" y="323.76666666666665" fill="#666" dominant-baseline="middle" text-anchor="end">40%</text><text x="835" y="224.90000000000003" fill="#666" dominant-baseline="middle" text-anchor="end">60%</text><text x="835" y="126.03333333333336" fill="#666" dominant-baseline="middle" text-anchor="end">80%</text></g><line x1="242.677" y1="521.5" x2="242.677" y2="76.6" stroke="#333"></line><line x1="607.3229999999999" y1="521.5" x2="607.3229999999999" y2="76.6" stroke="#333"></line><text x="242.677" y="545.9" text-anchor="middle" fill="#666" font-size="18">1979</text><text x="607.3229999999999" y="545.9" text-anchor="middle" fill="#666" font-size="18">2002</text><g class="slopes"><g class="slope"><circle cx="242.677" cy="234.7866666666667" r="2" fill="#ff7f0e" opacity="0.5"></circle><line x1="242.677" y1="234.7866666666667" x2="607.3229999999999" y2="294.1066666666667" stroke="#ff7f0e" stroke-width="1" opacity="0.5"></line><circle cx="607.3229999999999" cy="294.1066666666667" r="2" fill="#ff7f0e" opacity="0.5"></circle></g><g class="slope"><text font-size="11.70" x="207.2" y="401.4" text-anchor="end" fill="#333"><tspan x="207.16" y="401.4266666666667">Hong Kong</tspan></text><text x="234.677" y="401.4266666666667" text-anchor="end" font-size="11.700000000000001" fill="#333">25%</text><circle cx="242.677" cy="397.9166666666667" r="2" fill="#d14e5b" opacity="0.5"></circle><line x1="242.677" y1="397.9166666666667" x2="607.3229999999999" y2="442.40666666666664" stroke="#d14e5b" stroke-width="1" opacity="0.5"></line><circle cx="607.3229999999999" cy="442.40666666666664" r="2" fill="#d14e5b" opacity="0.5"></circle><text x="615.3229999999999" y="445.91666666666663" dominant-baseline="middle" font-size="11.700000000000001" fill="#333">16%</text><text font-size="11.70" x="642.8" y="445.9" fill="labelColor"><tspan x="642.8399999999999" y="445.91666666666663">Hong Kong</tspan></text></g><g class="slope"><circle cx="242.677" cy="249.61666666666667" r="2" fill="#d14e5b" opacity="0.5"></circle><line x1="242.677" y1="249.61666666666667" x2="607.3229999999999" y2="392.97333333333336" stroke="#d14e5b" stroke-width="1.0002167420018517" opacity="0.5"></line><circle cx="607.3229999999999" cy="392.97333333333336" r="2" fill="#d14e5b" opacity="0.5"></circle></g><g class="slope"><circle cx="242.677" cy="274.33333333333337" r="2" fill="#5675c1" opacity="0.5"></circle><line x1="242.677" y1="274.33333333333337" x2="607.3229999999999" y2="397.9166666666667" stroke="#5675c1" stroke-width="1.0008452938072214" opacity="0.5"></line><circle cx="607.3229999999999" cy="397.9166666666667" r="2" fill="#5675c1" opacity="0.5"></circle></g><g class="slope"><circle cx="242.677" cy="175.4666666666667" r="2" fill="#4d824b" opacity="0.5"></circle><line x1="242.677" y1="175.4666666666667" x2="607.3229999999999" y2="348.48333333333335" stroke="#4d824b" stroke-width="1.0008669680074067" opacity="0.5"></line><circle cx="607.3229999999999" cy="348.48333333333335" r="2" fill="#4d824b" opacity="0.5"></circle></g><g class="slope"><circle cx="242.677" cy="224.90000000000003" r="2" fill="#a652ba" opacity="0.5"></circle><line x1="242.677" y1="224.90000000000003" x2="607.3229999999999" y2="328.71000000000004" stroke="#a652ba" stroke-width="1.0017339360148134" opacity="0.5"></line><circle cx="607.3229999999999" cy="328.71000000000004" r="2" fill="#a652ba" opacity="0.5"></circle></g><g class="slope"><circle cx="242.677" cy="150.75" r="2" fill="#5675c1" opacity="0.5"></circle><line x1="242.677" y1="150.75" x2="607.3229999999999" y2="397.9166666666667" stroke="#5675c1" stroke-width="1.002189094218702" opacity="0.5"></line><circle cx="607.3229999999999" cy="397.9166666666667" r="2" fill="#5675c1" opacity="0.5"></circle></g><g class="slope"><circle cx="242.677" cy="130.9766666666667" r="2" fill="#4d824b" opacity="0.5"></circle><line x1="242.677" y1="130.9766666666667" x2="607.3229999999999" y2="358.37" stroke="#4d824b" stroke-width="1.0029260170249976" opacity="0.5"></line><circle cx="607.3229999999999" cy="358.37" r="2" fill="#4d824b" opacity="0.5"></circle></g><g class="slope"><circle cx="242.677" cy="195.24000000000007" r="2" fill="#d14e5b" opacity="0.5"></circle><line x1="242.677" y1="195.24000000000007" x2="607.3229999999999" y2="274.33333333333337" stroke="#d14e5b" stroke-width="1.0041171010219732" opacity="0.5"></line><circle cx="607.3229999999999" cy="274.33333333333337" r="2" fill="#d14e5b" opacity="0.5"></circle></g><g class="slope"><circle cx="242.677" cy="224.90000000000003" r="2" fill="#d14e5b" opacity="0.5"></circle><line x1="242.677" y1="224.90000000000003" x2="607.3229999999999" y2="383.0866666666667" stroke="#d14e5b" stroke-width="1.0057870114494396" opacity="0.5"></line><circle cx="607.3229999999999" cy="383.0866666666667" r="2" fill="#d14e5b" opacity="0.5"></circle></g><g class="slope"><circle cx="242.677" cy="170.52333333333337" r="2" fill="#ffd336" opacity="0.5"></circle><line x1="242.677" y1="170.52333333333337" x2="607.3229999999999" y2="338.5966666666667" stroke="#ffd336" stroke-width="1.0082361960703634" opacity="0.5"></line><circle cx="607.3229999999999" cy="338.5966666666667" r="2" fill="#ffd336" opacity="0.5"></circle></g><g class="slope"><circle cx="242.677" cy="234.7866666666667" r="2" fill="#4d824b" opacity="0.5"></circle><line x1="242.677" y1="234.7866666666667" x2="607.3229999999999" y2="397.9166666666667" stroke="#4d824b" stroke-width="1.0082578702705487" opacity="0.5"></line><circle cx="607.3229999999999" cy="397.9166666666667" r="2" fill="#4d824b" opacity="0.5"></circle><text x="615.3229999999999" y="401.4266666666667" dominant-baseline="middle" font-size="11.700000000000001" fill="#333">25%</text><text font-size="11.70" x="642.8" y="401.4" fill="labelColor"><tspan x="642.8399999999999" y="401.4266666666667">Jamaica</tspan></text></g><g class="slope"><circle cx="242.677" cy="215.01333333333338" r="2" fill="#a652ba" opacity="0.5"></circle><line x1="242.677" y1="215.01333333333338" x2="607.3229999999999" y2="289.1633333333333" stroke="#a652ba" stroke-width="1.0093199060796219" opacity="0.5"></line><circle cx="607.3229999999999" cy="289.1633333333333" r="2" fill="#a652ba" opacity="0.5"></circle></g><g class="slope"><text font-size="11.70" x="207.2" y="327.3" text-anchor="end" fill="#333"><tspan x="207.16" y="327.27666666666664">Guatemala</tspan></text><text x="234.677" y="327.27666666666664" text-anchor="end" font-size="11.700000000000001" fill="#333">40%</text><circle cx="242.677" cy="323.76666666666665" r="2" fill="#4d824b" opacity="0.5"></circle><line x1="242.677" y1="323.76666666666665" x2="607.3229999999999" y2="368.25666666666666" stroke="#4d824b" stroke-width="1.0095142152842818" opacity="0.5"></line><circle cx="607.3229999999999" cy="368.25666666666666" r="2" fill="#4d824b" opacity="0.5"></circle></g><g class="slope"><circle cx="242.677" cy="150.75" r="2" fill="#ffd336" opacity="0.5"></circle><line x1="242.677" y1="150.75" x2="607.3229999999999" y2="284.22" stroke="#ffd336" stroke-width="1.01040361608888" opacity="0.5"></line><circle cx="607.3229999999999" cy="284.22" r="2" fill="#ffd336" opacity="0.5"></circle></g><g class="slope"><text font-size="11.70" x="207.2" y="302.6" text-anchor="end" fill="#333"><tspan x="207.16" y="302.56">Argentina</tspan></text><text x="234.677" y="302.56" text-anchor="end" font-size="11.700000000000001" fill="#333">45%</text><circle cx="242.677" cy="299.05" r="2" fill="#69c487" opacity="0.5"></circle><line x1="242.677" y1="299.05" x2="607.3229999999999" y2="348.48333333333335" stroke="#69c487" stroke-width="1.0111405388951757" opacity="0.5"></line><circle cx="607.3229999999999" cy="348.48333333333335" r="2" fill="#69c487" opacity="0.5"></circle></g><g class="slope"><circle cx="242.677" cy="160.63666666666666" r="2" fill="#ffd336" opacity="0.5"></circle><line x1="242.677" y1="160.63666666666666" x2="607.3229999999999" y2="229.84333333333336" stroke="#ffd336" stroke-width="1.0147384561259136" opacity="0.5"></line><circle cx="607.3229999999999" cy="229.84333333333336" r="2" fill="#ffd336" opacity="0.5"></circle><text x="615.3229999999999" y="233.35333333333335" dominant-baseline="middle" font-size="11.700000000000001" fill="#333">59%</text><text font-size="11.70" x="642.8" y="233.4" fill="labelColor"><tspan x="642.8399999999999" y="233.35333333333335">Denmark</tspan></text></g><g class="slope"><circle cx="242.677" cy="224.90000000000003" r="2" fill="#69c487" opacity="0.5"></circle><line x1="242.677" y1="224.90000000000003" x2="607.3229999999999" y2="308.93666666666667" stroke="#69c487" stroke-width="1.0162870127065433" opacity="0.5"></line><circle cx="607.3229999999999" cy="308.93666666666667" r="2" fill="#69c487" opacity="0.5"></circle></g><g class="slope"><circle cx="242.677" cy="175.4666666666667" r="2" fill="#4d824b" opacity="0.5"></circle><line x1="242.677" y1="175.4666666666667" x2="607.3229999999999" y2="328.71000000000004" stroke="#4d824b" stroke-width="1.0212407161814636" opacity="0.5"></line><circle cx="607.3229999999999" cy="328.71000000000004" r="2" fill="#4d824b" opacity="0.5"></circle></g><g class="slope"><circle cx="242.677" cy="284.22" r="2" fill="#69c487" opacity="0.5"></circle><line x1="242.677" y1="284.22" x2="607.3229999999999" y2="457.2366666666667" stroke="#69c487" stroke-width="1.0234081361999805" opacity="0.5"></line><circle cx="607.3229999999999" cy="457.2366666666667" r="2" fill="#69c487" opacity="0.5"></circle><text x="615.3229999999999" y="460.74666666666667" dominant-baseline="middle" font-size="11.700000000000001" fill="#333">13%</text><text font-size="11.70" x="642.8" y="460.7" fill="labelColor"><tspan x="642.8399999999999" y="460.74666666666667">Bolivia</tspan></text></g><g class="slope"><circle cx="242.677" cy="244.67333333333335" r="2" fill="#69c487" opacity="0.5"></circle><line x1="242.677" y1="244.67333333333335" x2="607.3229999999999" y2="348.48333333333335" stroke="#69c487" stroke-width="1.0257056014196082" opacity="0.5"></line><circle cx="607.3229999999999" cy="348.48333333333335" r="2" fill="#69c487" opacity="0.5"></circle></g><g class="slope"><circle cx="242.677" cy="249.61666666666667" r="2" fill="#69c487" opacity="0.5"></circle><line x1="242.677" y1="249.61666666666667" x2="607.3229999999999" y2="383.0866666666667" stroke="#69c487" stroke-width="1.0266592662277554" opacity="0.5"></line><circle cx="607.3229999999999" cy="383.0866666666667" r="2" fill="#69c487" opacity="0.5"></circle></g><g class="slope"><circle cx="242.677" cy="200.18333333333334" r="2" fill="#ffd336" opacity="0.5"></circle><line x1="242.677" y1="200.18333333333334" x2="607.3229999999999" y2="313.88" stroke="#ffd336" stroke-width="1.0292537330125204" opacity="0.5"></line><circle cx="607.3229999999999" cy="313.88" r="2" fill="#ffd336" opacity="0.5"></circle></g><g class="slope"><circle cx="242.677" cy="91.43" r="2" fill="#ffd336" opacity="0.5"></circle><line x1="242.677" y1="91.43" x2="607.3229999999999" y2="244.67333333333335" stroke="#ffd336" stroke-width="1.0293329955625976" opacity="0.5"></line><circle cx="607.3229999999999" cy="244.67333333333335" r="2" fill="#ffd336" opacity="0.5"></circle><text x="615.3229999999999" y="248.18333333333334" dominant-baseline="middle" font-size="11.700000000000001" fill="#333">56%</text><text font-size="11.70" x="642.8" y="248.2" fill="labelColor"><tspan x="642.8399999999999" y="248.18333333333334">Sweden</tspan></text></g><g class="slope"><circle cx="242.677" cy="224.90000000000003" r="2" fill="#ffd336" opacity="0.5"></circle><line x1="242.677" y1="224.90000000000003" x2="607.3229999999999" y2="323.76666666666665" stroke="#ffd336" stroke-width="1.0320778162740472" opacity="0.5"></line><circle cx="607.3229999999999" cy="323.76666666666665" r="2" fill="#ffd336" opacity="0.5"></circle></g><g class="slope"><circle cx="242.677" cy="224.90000000000003" r="2" fill="#ffd336" opacity="0.5"></circle><line x1="242.677" y1="224.90000000000003" x2="607.3229999999999" y2="323.76666666666665" stroke="#ffd336" stroke-width="1.0320778162740472" opacity="0.5"></line><circle cx="607.3229999999999" cy="323.76666666666665" r="2" fill="#ffd336" opacity="0.5"></circle></g><g class="slope"><circle cx="242.677" cy="175.4666666666667" r="2" fill="#d14e5b" opacity="0.5"></circle><line x1="242.677" y1="175.4666666666667" x2="607.3229999999999" y2="363.31333333333333" stroke="#d14e5b" stroke-width="1.040625882410875" opacity="0.5"></line><circle cx="607.3229999999999" cy="363.31333333333333" r="2" fill="#d14e5b" opacity="0.5"></circle></g><g class="slope"><circle cx="242.677" cy="165.57999999999998" r="2" fill="#ffd336" opacity="0.5"></circle><line x1="242.677" y1="165.57999999999998" x2="607.3229999999999" y2="264.4466666666667" stroke="#ffd336" stroke-width="1.040747496348114" opacity="0.5"></line><circle cx="607.3229999999999" cy="264.4466666666667" r="2" fill="#ffd336" opacity="0.5"></circle></g><g class="slope"><circle cx="242.677" cy="145.80666666666667" r="2" fill="#ffd336" opacity="0.5"></circle><line x1="242.677" y1="145.80666666666667" x2="607.3229999999999" y2="264.4466666666667" stroke="#ffd336" stroke-width="1.0429149163666307" opacity="0.5"></line><circle cx="607.3229999999999" cy="264.4466666666667" r="2" fill="#ffd336" opacity="0.5"></circle></g><g class="slope"><circle cx="242.677" cy="106.25999999999999" r="2" fill="#ffd336" opacity="0.5"></circle><line x1="242.677" y1="106.25999999999999" x2="607.3229999999999" y2="323.76666666666665" stroke="#ffd336" stroke-width="1.0429149163666307" opacity="0.5"></line><circle cx="607.3229999999999" cy="323.76666666666665" r="2" fill="#ffd336" opacity="0.5"></circle></g><g class="slope"><circle cx="242.677" cy="215.01333333333338" r="2" fill="#ffd336" opacity="0.5"></circle><line x1="242.677" y1="215.01333333333338" x2="607.3229999999999" y2="274.33333333333337" stroke="#ffd336" stroke-width="1.0537520164592142" opacity="0.5"></line><circle cx="607.3229999999999" cy="274.33333333333337" r="2" fill="#ffd336" opacity="0.5"></circle></g><g class="slope"><text font-size="11.70" x="207.2" y="129.5" text-anchor="end" fill="#333"><tspan x="207.16000000000003" y="129.54333333333335">Egypt</tspan></text><text x="234.677" y="129.54333333333335" text-anchor="end" font-size="11.700000000000001" fill="#333">80%</text><circle cx="242.677" cy="126.03333333333336" r="2" fill="#5675c1" opacity="0.5"></circle><line x1="242.677" y1="126.03333333333336" x2="607.3229999999999" y2="323.76666666666665" stroke="#5675c1" stroke-width="1.0971004168295484" opacity="0.5"></line><circle cx="607.3229999999999" cy="323.76666666666665" r="2" fill="#5675c1" opacity="0.5"></circle></g><g class="slope"><circle cx="242.677" cy="249.61666666666667" r="2" fill="#4d824b" opacity="0.5"></circle><line x1="242.677" y1="249.61666666666667" x2="607.3229999999999" y2="323.76666666666665" stroke="#4d824b" stroke-width="1.0971004168295484" opacity="0.5"></line><circle cx="607.3229999999999" cy="323.76666666666665" r="2" fill="#4d824b" opacity="0.5"></circle></g><g class="slope"><circle cx="242.677" cy="224.90000000000003" r="2" fill="#d14e5b" opacity="0.5"></circle><line x1="242.677" y1="224.90000000000003" x2="607.3229999999999" y2="338.5966666666667" stroke="#d14e5b" stroke-width="1.1006766598601008" opacity="0.5"></line><circle cx="607.3229999999999" cy="338.5966666666667" r="2" fill="#d14e5b" opacity="0.5"></circle></g><g class="slope"><circle cx="242.677" cy="76.60000000000002" r="2" fill="#d14e5b" opacity="0.5"></circle><line x1="242.677" y1="76.60000000000002" x2="607.3229999999999" y2="348.48333333333335" stroke="#d14e5b" stroke-width="1.1079375169221317" opacity="0.5"></line><circle cx="607.3229999999999" cy="348.48333333333335" r="2" fill="#d14e5b" opacity="0.5"></circle></g><g class="slope"><text font-size="11.70" x="207.2" y="114.7" text-anchor="end" fill="#333"><tspan x="207.16" y="114.71333333333332">United Kingdom</tspan></text><text x="234.677" y="114.71333333333332" text-anchor="end" font-size="11.700000000000001" fill="#333">83%</text><circle cx="242.677" cy="111.20333333333332" r="2" fill="#ffd336" opacity="0.5"></circle><line x1="242.677" y1="111.20333333333332" x2="607.3229999999999" y2="323.76666666666665" stroke="#ffd336" stroke-width="1.1556339135690117" opacity="0.5"></line><circle cx="607.3229999999999" cy="323.76666666666665" r="2" fill="#ffd336" opacity="0.5"></circle><text x="615.3229999999999" y="327.27666666666664" dominant-baseline="middle" font-size="11.700000000000001" fill="#333">40%</text><text font-size="11.70" x="642.8" y="327.3" fill="labelColor"><tspan x="642.8399999999999" y="327.27666666666664">United Kingdom</tspan></text></g><g class="slope"><circle cx="242.677" cy="150.75" r="2" fill="#d14e5b" opacity="0.5"></circle><line x1="242.677" y1="150.75" x2="607.3229999999999" y2="299.05" stroke="#d14e5b" stroke-width="1.1816297975516996" opacity="0.5"></line><circle cx="607.3229999999999" cy="299.05" r="2" fill="#d14e5b" opacity="0.5"></circle><text x="615.3229999999999" y="302.56" dominant-baseline="middle" font-size="11.700000000000001" fill="#333">45%</text><text font-size="11.70" x="642.8" y="302.6" fill="labelColor"><tspan x="642.8399999999999" y="302.56">Turkey</tspan></text></g><g class="slope"><text font-size="11.70" x="207.2" y="198.8" text-anchor="end" fill="#333"><tspan x="207.16000000000003" y="198.75000000000006">Spain</tspan></text><text x="234.677" y="198.75000000000006" text-anchor="end" font-size="11.700000000000001" fill="#333">66%</text><circle cx="242.677" cy="195.24000000000007" r="2" fill="#ffd336" opacity="0.5"></circle><line x1="242.677" y1="195.24000000000007" x2="607.3229999999999" y2="284.22" stroke="#ffd336" stroke-width="1.1896492516202115" opacity="0.5"></line><circle cx="607.3229999999999" cy="284.22" r="2" fill="#ffd336" opacity="0.5"></circle></g><g class="slope"><text font-size="11.70" x="207.2" y="85.1" text-anchor="end" fill="#333"><tspan x="207.16000000000003" y="85.05333333333336">South Korea</tspan></text><text x="234.677" y="85.05333333333336" text-anchor="end" font-size="11.700000000000001" fill="#333">89%</text><circle cx="242.677" cy="81.54333333333335" r="2" fill="#d14e5b" opacity="0.5"></circle><line x1="242.677" y1="81.54333333333335" x2="607.3229999999999" y2="343.53999999999996" stroke="#d14e5b" stroke-width="1.203195626735941" opacity="0.5"></line><circle cx="607.3229999999999" cy="343.53999999999996" r="2" fill="#d14e5b" opacity="0.5"></circle></g><g class="slope"><circle cx="242.677" cy="249.61666666666667" r="2" fill="#d14e5b" opacity="0.5"></circle><line x1="242.677" y1="249.61666666666667" x2="607.3229999999999" y2="348.48333333333335" stroke="#d14e5b" stroke-width="1.2331516471828612" opacity="0.5"></line><circle cx="607.3229999999999" cy="348.48333333333335" r="2" fill="#d14e5b" opacity="0.5"></circle></g><g class="slope"><text font-size="11.70" x="207.2" y="277.8" text-anchor="end" fill="#333"><tspan x="207.16" y="277.84333333333336">Indonesia</tspan></text><text x="234.677" y="277.84333333333336" text-anchor="end" font-size="11.700000000000001" fill="#333">50%</text><circle cx="242.677" cy="274.33333333333337" r="2" fill="#d14e5b" opacity="0.5"></circle><line x1="242.677" y1="274.33333333333337" x2="607.3229999999999" y2="348.48333333333335" stroke="#d14e5b" stroke-width="1.2683911874089195" opacity="0.5"></line><circle cx="607.3229999999999" cy="348.48333333333335" r="2" fill="#d14e5b" opacity="0.5"></circle><text x="615.3229999999999" y="351.99333333333334" dominant-baseline="middle" font-size="11.700000000000001" fill="#333">35%</text><text font-size="11.70" x="642.8" y="352.0" fill="labelColor"><tspan x="642.8399999999999" y="351.99333333333334">Indonesia</tspan></text></g><g class="slope"><text font-size="11.70" x="207.2" y="169.1" text-anchor="end" fill="#333"><tspan x="207.16" y="169.08999999999997">Italy</tspan></text><text x="234.677" y="169.08999999999997" text-anchor="end" font-size="11.700000000000001" fill="#333">72%</text><circle cx="242.677" cy="165.57999999999998" r="2" fill="#ffd336" opacity="0.5"></circle><line x1="242.677" y1="165.57999999999998" x2="607.3229999999999" y2="264.4466666666667" stroke="#ffd336" stroke-width="1.2878333784590181" opacity="0.5"></line><circle cx="607.3229999999999" cy="264.4466666666667" r="2" fill="#ffd336" opacity="0.5"></circle></g><g class="slope"><text font-size="11.70" x="207.2" y="248.2" text-anchor="end" fill="#333"><tspan x="207.16" y="248.18333333333334">Germany</tspan></text><text x="234.677" y="248.18333333333334" text-anchor="end" font-size="11.700000000000001" fill="#333">56%</text><circle cx="242.677" cy="244.67333333333335" r="2" fill="#ffd336" opacity="0.5"></circle><line x1="242.677" y1="244.67333333333335" x2="607.3229999999999" y2="279.2766666666667" stroke="#ffd336" stroke-width="1.324679518773802" opacity="0.5"></line><circle cx="607.3229999999999" cy="279.2766666666667" r="2" fill="#ffd336" opacity="0.5"></circle></g><g class="slope"><circle cx="242.677" cy="224.90000000000003" r="2" fill="#ffd336" opacity="0.5"></circle><line x1="242.677" y1="224.90000000000003" x2="607.3229999999999" y2="274.33333333333337" stroke="#ffd336" stroke-width="1.4649332681720177" opacity="0.5"></line><circle cx="607.3229999999999" cy="274.33333333333337" r="2" fill="#ffd336" opacity="0.5"></circle></g><g class="slope"><text font-size="11.70" x="207.2" y="154.3" text-anchor="end" fill="#333"><tspan x="207.16" y="154.26">Japan</tspan></text><text x="234.677" y="154.26" text-anchor="end" font-size="11.700000000000001" fill="#333">75%</text><circle cx="242.677" cy="150.75" r="2" fill="#d14e5b" opacity="0.5"></circle><line x1="242.677" y1="150.75" x2="607.3229999999999" y2="274.33333333333337" stroke="#d14e5b" stroke-width="1.5847699209958064" opacity="0.5"></line><circle cx="607.3229999999999" cy="274.33333333333337" r="2" fill="#d14e5b" opacity="0.5"></circle><text x="615.3229999999999" y="277.84333333333336" dominant-baseline="middle" font-size="11.700000000000001" fill="#333">50%</text><text font-size="11.70" x="642.8" y="277.8" fill="labelColor"><tspan x="642.8399999999999" y="277.84333333333336">Japan</tspan></text></g><g class="slope"><text font-size="11.70" x="207.2" y="228.4" text-anchor="end" fill="#333"><tspan x="207.16" y="228.41000000000003">India</tspan></text><text x="234.677" y="228.41000000000003" text-anchor="end" font-size="11.700000000000001" fill="#333">60%</text><circle cx="242.677" cy="224.90000000000003" r="2" fill="#d14e5b" opacity="0.5"></circle><line x1="242.677" y1="224.90000000000003" x2="607.3229999999999" y2="373.20000000000005" stroke="#d14e5b" stroke-width="4" opacity="0.5"></line><circle cx="607.3229999999999" cy="373.20000000000005" r="2" fill="#d14e5b" opacity="0.5"></circle><text x="615.3229999999999" y="376.71000000000004" dominant-baseline="middle" font-size="11.700000000000001" fill="#333">30%</text><text font-size="11.70" x="642.8" y="376.7" fill="labelColor"><tspan x="642.8399999999999" y="376.71000000000004">India</tspan></text></g></g></g><g style="fill: #777;" class="SourcesFooter"><g style="fill: #777;" class="clickable"><text font-size="12.60" x="15.0" y="581.6"><tspan x="15" y="581.58">Source: Reynolds (2008)</tspan></text></g><text font-size="12.60" x="597.6" y="581.6"><tspan x="597.616" y="581.58"><a target='_blank' style='fill: #777;' href='https://ourworldindata.org/taxation/'>OurWorldInData.org/taxation/</a> • <a style="fill: #777;" href="http://creativecommons.org/licenses/by-sa/4.0/deed.en_US" target="_blank">CC BY-SA</a></tspan></text></g></g></svg>