<svg xmlns="http://www.w3.org/2000/svg" version="1.1" style="font-family: 'Helvetica Neue', Helvetica, Arial, sans-serif; font-size: 18px; background-color: white; text-rendering: optimizeLegibility; -webkit-font-smoothing: antialiased;" width="850" height="600"><g class="ChartTab"><g class="HeaderView"><g opacity="0.8" transform="translate(770, 15) scale(0.31)"><a xmlns:xlink="http://www.w3.org/1999/xlink" xlink:href="https://ourworldindata.org" target="_blank"><g><rect x="0" y="0" fill="#1B2543" width="211.2" height="130.1"/><rect x="0" y="112.2" fill="#E63912" width="211.2" height="17.9"/><g><rect x="1.2" y="12.3" fill="none" width="210.2" height="99.2"/><path fill="#FFFFFF" d="M37.8,32.2c0,12.7-7.7,19.4-17.1,19.4c-9.7,0-16.6-7.5-16.6-18.7c0-11.7,7.3-19.3,17.1-19.3 C31.3,13.7,37.8,21.3,37.8,32.2z M9.2,32.8c0,7.9,4.3,14.9,11.8,14.9c7.5,0,11.8-6.9,11.8-15.3c0-7.3-3.8-14.9-11.8-14.9 C13.1,17.5,9.2,24.8,9.2,32.8z"/><path fill="#FFFFFF" d="M62.7,43.8c0,2.7,0.1,5.1,0.2,7.2h-4.3l-0.3-4.3h-0.1c-1.3,2.1-4,4.9-8.8,4.9c-4.2,0-9.1-2.3-9.1-11.6 V24.6h4.8v14.6c0,5,1.5,8.4,5.9,8.4c3.2,0,5.5-2.2,6.3-4.4c0.3-0.7,0.4-1.6,0.4-2.5V24.6h4.8V43.8z"/><path fill="#FFFFFF" d="M67.3,32.8c0-3.1-0.1-5.8-0.2-8.2h4.2l0.2,5.2h0.2c1.2-3.5,4.1-5.8,7.3-5.8c0.5,0,0.9,0.1,1.4,0.2v4.5 c-0.5-0.1-1-0.2-1.6-0.2c-3.4,0-5.8,2.6-6.5,6.2c-0.1,0.7-0.2,1.4-0.2,2.2V51h-4.8V32.8z"/><path fill="#FFFFFF" d="M95.4,51l-9.4-36.8h5l4.4,18.6c1.1,4.6,2.1,9.2,2.7,12.7h0.1c0.6-3.7,1.8-8,3-12.8l4.9-18.5h5l4.5,18.7 c1,4.4,2,8.7,2.6,12.6h0.1c0.8-4,1.8-8.1,3-12.7l4.9-18.5h4.9L120.6,51h-5L111,31.9c-1.1-4.7-1.9-8.3-2.4-12h-0.1 c-0.7,3.7-1.5,7.3-2.8,12L100.4,51H95.4z"/><path fill="#FFFFFF" d="M154.9,37.6c0,9.8-6.8,14-13.2,14c-7.2,0-12.7-5.2-12.7-13.6c0-8.8,5.8-14,13.1-14 C149.8,24,154.9,29.5,154.9,37.6z M133.9,37.9c0,5.8,3.3,10.1,8,10.1c4.6,0,8-4.3,8-10.3c0-4.5-2.2-10.1-7.9-10.1 C136.3,27.6,133.9,32.8,133.9,37.9z"/><path fill="#FFFFFF" d="M158.2,32.8c0-3.1-0.1-5.8-0.2-8.2h4.2l0.2,5.2h0.2c1.2-3.5,4.1-5.8,7.3-5.8c0.5,0,0.9,0.1,1.4,0.2v4.5 c-0.5-0.1-1-0.2-1.6-0.2c-3.4,0-5.8,2.6-6.5,6.2c-0.1,0.7-0.2,1.4-0.2,2.2V51h-4.8V32.8z"/><path fill="#FFFFFF" d="M173.5,12.3h4.8V51h-4.8V12.3z"/><path fill="#FFFFFF" d="M206.5,12.3v31.9c0,2.3,0.1,5,0.2,6.8h-4.3l-0.2-4.6H202c-1.5,2.9-4.7,5.2-9,5.2 c-6.4,0-11.3-5.4-11.3-13.4c-0.1-8.8,5.4-14.2,11.9-14.2c4,0,6.8,1.9,8,4h0.1V12.3H206.5z M201.7,35.4c0-0.6-0.1-1.4-0.2-2 c-0.7-3.1-3.3-5.6-6.9-5.6c-5,0-7.9,4.4-7.9,10.2c0,5.3,2.6,9.8,7.8,9.8c3.2,0,6.2-2.1,7.1-5.7c0.2-0.7,0.2-1.3,0.2-2.1V35.4z"/><path fill="#FFFFFF" d="M42.8,64c0.1,1.6-1.1,2.9-3.1,2.9c-1.7,0-2.9-1.3-2.9-2.9c0-1.7,1.3-3,3-3C41.7,61,42.8,62.3,42.8,64z M37.4,97.8V71.4h4.8v26.4H37.4z"/><path fill="#FFFFFF" d="M47.5,78.6c0-2.7-0.1-5-0.2-7.1h4.3l0.3,4.4h0.1c1.3-2.5,4.4-5,8.8-5c3.7,0,9.4,2.2,9.4,11.2v15.8h-4.8 V82.6c0-4.3-1.6-7.8-6.1-7.8c-3.2,0-5.6,2.2-6.5,4.9c-0.2,0.6-0.3,1.4-0.3,2.2v15.9h-4.8V78.6z"/><path fill="#FFFFFF" d="M84,61.6c2.9-0.4,6.3-0.8,10.1-0.8c6.8,0,11.7,1.6,14.9,4.6c3.3,3,5.2,7.3,5.2,13.2c0,6-1.9,10.9-5.3,14.3 c-3.4,3.4-9.1,5.3-16.3,5.3c-3.4,0-6.2-0.2-8.6-0.4V61.6z M88.8,94.1c1.2,0.2,3,0.3,4.8,0.3c10.2,0,15.7-5.7,15.7-15.6 c0.1-8.7-4.9-14.2-14.9-14.2c-2.5,0-4.3,0.2-5.6,0.5V94.1z"/><path fill="#FFFFFF" d="M132.1,97.8l-0.4-3.3h-0.2c-1.5,2.1-4.3,3.9-8.1,3.9c-5.4,0-8.1-3.8-8.1-7.6c0-6.4,5.7-9.9,15.9-9.8v-0.5 c0-2.2-0.6-6.1-6-6.1c-2.5,0-5,0.8-6.9,2l-1.1-3.2c2.2-1.4,5.4-2.3,8.7-2.3c8.1,0,10.1,5.5,10.1,10.8v9.9c0,2.3,0.1,4.5,0.4,6.3 H132.1z M131.4,84.4c-5.3-0.1-11.2,0.8-11.2,5.9c0,3.1,2.1,4.6,4.5,4.6c3.4,0,5.6-2.2,6.4-4.4c0.2-0.5,0.3-1,0.3-1.5V84.4z"/><path fill="#FFFFFF" d="M146.6,63.9v7.6h6.9v3.7h-6.9v14.2c0,3.3,0.9,5.1,3.6,5.1c1.3,0,2.2-0.2,2.8-0.3l0.2,3.6 c-0.9,0.4-2.4,0.7-4.3,0.7c-2.2,0-4-0.7-5.2-2c-1.4-1.4-1.9-3.8-1.9-6.9V75.1h-4.1v-3.7h4.1v-6.3L146.6,63.9z"/><path fill="#FFFFFF" d="M171.4,97.8l-0.4-3.3h-0.2c-1.5,2.1-4.3,3.9-8.1,3.9c-5.4,0-8.1-3.8-8.1-7.6c0-6.4,5.7-9.9,15.9-9.8v-0.5 c0-2.2-0.6-6.1-6-6.1c-2.5,0-5,0.8-6.9,2l-1.1-3.2c2.2-1.4,5.4-2.3,8.7-2.3c8.1,0,10.1,5.5,10.1,10.8v9.9c0,2.3,0.1,4.5,0.4,6.3 H171.4z M170.7,84.4c-5.3-0.1-11.2,0.8-11.2,5.9c0,3.1,2.1,4.6,4.5,4.6c3.4,0,5.6-2.2,6.4-4.4c0.2-0.5,0.3-1,0.3-1.5V84.4z"/></g></g></a></g><a href="https://ourworldindata.org/grapher/total-population-by-broad-age-group-1950-2100" target="_blank"><text font-size="27.00" x="15.0" y="36.6" fill="#555"><tspan x="15" y="36.6">Total population by broad age group, 1950-2100</tspan></text></a></g><g class="StackedArea"><defs><clipPath id="boundsClip-1461"><rect x="88.526" y="0" width="820" height="963"></rect></clipPath></defs><g class="AxisBoxView"><g class="HorizontalAxis"><text x="88.5" y="556.5" fill="#666" text-anchor="middle" font-size="16.2">1950</text><text x="130.1" y="556.5" fill="#666" text-anchor="middle" font-size="16.2">1960</text><text x="213.3" y="556.5" fill="#666" text-anchor="middle" font-size="16.2">1980</text><text x="296.4" y="556.5" fill="#666" text-anchor="middle" font-size="16.2">2000</text><text x="379.6" y="556.5" fill="#666" text-anchor="middle" font-size="16.2">2020</text><text x="462.7" y="556.5" fill="#666" text-anchor="middle" font-size="16.2">2040</text><text x="545.9" y="556.5" fill="#666" text-anchor="middle" font-size="16.2">2060</text><text x="629" y="556.5" fill="#666" text-anchor="middle" font-size="16.2">2080</text><text x="712.2" y="556.5" fill="#666" text-anchor="middle" font-size="16.2">2100</text></g><g class="VerticalAxis"><text x="83.53" y="535.3" fill="#666" dominant-baseline="middle" text-anchor="end" font-size="16.2">0</text><text x="83.53" y="453.2" fill="#666" dominant-baseline="middle" text-anchor="end" font-size="16.2">2 million</text><text x="83.53" y="371.1" fill="#666" dominant-baseline="middle" text-anchor="end" font-size="16.2">4 million</text><text x="83.53" y="289" fill="#666" dominant-baseline="middle" text-anchor="end" font-size="16.2">6 million</text><text x="83.53" y="206.9" fill="#666" dominant-baseline="middle" text-anchor="end" font-size="16.2">8 million</text><text x="83.53" y="124.8" fill="#666" dominant-baseline="middle" text-anchor="end" font-size="16.2">10 million</text></g><g class="AxisGridLines"><line x1="88.53" y1="535.3" x2="712.18" y2="535.3" stroke="#ccc"></line><line x1="88.53" y1="453.2" x2="712.18" y2="453.2" stroke="#ddd" stroke-dasharray="3,2"></line><line x1="88.53" y1="371.1" x2="712.18" y2="371.1" stroke="#ddd" stroke-dasharray="3,2"></line><line x1="88.53" y1="289" x2="712.18" y2="289" stroke="#ddd" stroke-dasharray="3,2"></line><line x1="88.53" y1="206.9" x2="712.18" y2="206.9" stroke="#ddd" stroke-dasharray="3,2"></line><line x1="88.53" y1="124.8" x2="712.18" y2="124.8" stroke="#ddd" stroke-dasharray="3,2"></line></g><g class="AxisGridLines"><line x1="130.1" y1="535.30" x2="130.1" y2="75.00" stroke="#ddd" stroke-dasharray="3,2"></line><line x1="213.3" y1="535.30" x2="213.3" y2="75.00" stroke="#ddd" stroke-dasharray="3,2"></line><line x1="296.4" y1="535.30" x2="296.4" y2="75.00" stroke="#ddd" stroke-dasharray="3,2"></line><line x1="379.6" y1="535.30" x2="379.6" y2="75.00" stroke="#ddd" stroke-dasharray="3,2"></line><line x1="462.7" y1="535.30" x2="462.7" y2="75.00" stroke="#ddd" stroke-dasharray="3,2"></line><line x1="545.9" y1="535.30" x2="545.9" y2="75.00" stroke="#ddd" stroke-dasharray="3,2"></line><line x1="629" y1="535.30" x2="629" y2="75.00" stroke="#ddd" stroke-dasharray="3,2"></line><line x1="712.2" y1="535.30" x2="712.2" y2="75.00" stroke="#ddd" stroke-dasharray="3,2"></line></g></g><g clip-path="url(#boundsClip-1461)"><g class="HeightedLegend clickable"><g class="legendMark"><rect x="717.184" y="108.1" width="89.88000000000001" height="14.4" fill="#fff" opacity="0"></rect><rect x="717.184" y="114.05" width="10" height="2.5" fill="#34983f"></rect><text font-size="14.40" x="732.2" y="119.6" fill="#333"><tspan x="732.184" y="119.62">World - 70+</tspan></text></g><g class="legendMark"><rect x="717.184" y="269.6" width="117.81600000000002" height="14.4" fill="#fff" opacity="0"></rect><rect x="717.184" y="275.55" width="10" height="2.5" fill="#9ecc8a"></rect><text font-size="14.40" x="732.2" y="281.1" fill="#333"><tspan x="732.184" y="281.12">World - 25 to 60</tspan></text></g><g class="legendMark"><rect x="717.184" y="418.8" width="117.81600000000002" height="14.4" fill="#fff" opacity="0"></rect><rect x="717.184" y="424.75" width="10" height="2.5" fill="#ffd53e"></rect><text font-size="14.40" x="732.2" y="430.3" fill="#333"><tspan x="732.184" y="430.32">World - 15 to 24</tspan></text></g><g class="legendMark"><rect x="717.184" y="473.90000000000003" width="109.75200000000001" height="14.4" fill="#fff" opacity="0"></rect><rect x="717.184" y="479.85" width="10" height="2.5" fill="#ca2628"></rect><text font-size="14.40" x="732.2" y="485.4" fill="#333"><tspan x="732.184" y="485.42">World - 5 to 14</tspan></text></g><g class="legendMark"><rect x="717.184" y="514.6999999999999" width="101.68800000000002" height="14.4" fill="#fff" opacity="0"></rect><rect x="717.184" y="520.65" width="10" height="2.5" fill="#3360a9"></rect><text font-size="14.40" x="732.2" y="526.2" fill="#333"><tspan x="732.184" y="526.2199999999999">World - 0 to 4</tspan></text></g></g><g class="Areas"><rect x="88.526" y="75" width="623.658" height="460.29999999999995" opacity="0" fill="rgba(255,255,255,0)"></rect><path stroke-linecap="round" d="M88.5 521.4L92.7 520.7L96.8 520L101 519.5L105.2 519.1L109.3 518.8L113.5 518.3L117.6 518.1L121.8 518L125.9 517.8L130.1 517.6L134.3 517.5L138.4 517.1L142.6 516.7L146.7 516.2L150.9 515.7L155 515.1L159.2 514.7L163.4 514.4L167.5 514.1L171.7 513.8L175.8 513.5L180 513.3L184.2 513.2L188.3 513.1L192.5 513L196.6 512.9L200.8 513L204.9 513L209.1 513L213.3 512.9L217.4 512.7L221.6 512.4L225.7 512L229.9 511.6L234 511.1L238.2 510.4L242.4 509.9L246.5 509.4L250.7 509.1L254.8 508.9L259 508.6L263.2 508.7L267.3 509L271.5 509.3L275.6 509.6L279.8 510.1L283.9 510.3L288.1 510.4L292.3 510.4L296.4 510.4L300.6 510.3L304.7 510.2L308.9 510.1L313 510L317.2 509.9L321.4 509.6L325.5 509.4L329.7 509.2L333.8 509L338 508.8L342.1 508.6L346.3 508.4L350.5 508.1L354.6 507.9L358.8 507.8L362.9 507.6L367.1 507.5L371.3 507.5L375.4 507.5L379.6 507.5L383.7 507.5L387.9 507.6L392 507.6L396.2 507.6L400.4 507.7L404.5 507.7L408.7 507.7L412.8 507.7L417 507.7L421.1 507.7L425.3 507.6L429.5 507.6L433.6 507.6L437.8 507.5L441.9 507.5L446.1 507.4L450.2 507.3L454.4 507.2L458.6 507.1L462.7 507.1L466.9 507L471 506.9L475.2 506.8L479.4 506.8L483.5 506.7L487.7 506.7L491.8 506.7L496 506.6L500.1 506.6L504.3 506.6L508.5 506.6L512.6 506.6L516.8 506.7L520.9 506.7L525.1 506.7L529.2 506.7L533.4 506.8L537.6 506.8L541.7 506.8L545.9 506.9L550 506.9L554.2 506.9L558.3 506.9L562.5 507L566.7 507L570.8 507L575 507L579.1 507L583.3 507L587.5 507L591.6 507L595.8 507L599.9 507L604.1 507L608.2 507L612.4 507L616.6 507.1L620.7 507.1L624.9 507.1L629 507.2L633.2 507.2L637.3 507.3L641.5 507.3L645.7 507.4L649.8 507.4L654 507.5L658.1 507.6L662.3 507.6L666.4 507.7L670.6 507.8L674.8 507.8L678.9 507.9L683.1 508L687.2 508L691.4 508.1L695.6 508.2L699.7 508.2L703.9 508.3L708 508.4L712.2 508.4L712.184 535.3L88.526 535.3" fill="#3360a9" fill-opacity="0.7" class="World_0-area"></path><path stroke-linecap="round" d="M88.5 499.7L92.7 498.7L96.8 497.7L101 496.8L105.2 495.9L109.3 495L113.5 493.9L117.6 492.7L121.8 491.6L125.9 490.5L130.1 489.3L134.3 488.2L138.4 487L142.6 485.8L146.7 484.7L150.9 483.6L155 482.4L159.2 481.3L163.4 480.4L167.5 479.4L171.7 478.5L175.8 477.4L180 476.4L184.2 475.4L188.3 474.5L192.5 473.7L196.6 473L200.8 472.3L204.9 471.8L209.1 471.3L213.3 470.8L217.4 470.2L221.6 469.7L225.7 469.1L229.9 468.5L234 467.9L238.2 467L242.4 466.1L246.5 465.2L250.7 464.4L254.8 463.6L259 462.7L263.2 461.9L267.3 461.3L271.5 460.7L275.6 460.3L279.8 460L283.9 459.7L288.1 459.5L292.3 459.4L296.4 459.5L300.6 459.5L304.7 459.6L308.9 459.9L313 460.1L317.2 460.3L321.4 460.2L325.5 460.1L329.7 459.9L333.8 459.7L338 459.4L342.1 458.9L346.3 458.4L350.5 457.8L354.6 457.2L358.8 456.7L362.9 456L367.1 455.5L371.3 455L375.4 454.6L379.6 454.2L383.7 453.8L387.9 453.5L392 453.2L396.2 453L400.4 452.9L404.5 452.8L408.7 452.7L412.8 452.7L417 452.8L421.1 452.8L425.3 452.8L429.5 452.7L433.6 452.7L437.8 452.7L441.9 452.7L446.1 452.6L450.2 452.5L454.4 452.4L458.6 452.2L462.7 452.1L466.9 451.9L471 451.6L475.2 451.4L479.4 451.2L483.5 451.1L487.7 450.8L491.8 450.6L496 450.5L500.1 450.3L504.3 450.2L508.5 450.1L512.6 449.9L516.8 449.9L520.9 449.8L525.1 449.8L529.2 449.8L533.4 449.8L537.6 449.8L541.7 449.8L545.9 449.9L550 449.9L554.2 450L558.3 450.1L562.5 450.1L566.7 450.2L570.8 450.2L575 450.3L579.1 450.3L583.3 450.4L587.5 450.5L591.6 450.5L595.8 450.5L599.9 450.5L604.1 450.5L608.2 450.6L612.4 450.6L616.6 450.6L620.7 450.6L624.9 450.7L629 450.8L633.2 450.8L637.3 450.9L641.5 451L645.7 451.1L649.8 451.2L654 451.3L658.1 451.4L662.3 451.6L666.4 451.7L670.6 451.9L674.8 452.1L678.9 452.2L683.1 452.4L687.2 452.6L691.4 452.8L695.6 453L699.7 453.2L703.9 453.4L708 453.6L712.2 453.8L712.2 508.4L708 508.4L703.9 508.3L699.7 508.2L695.6 508.2L691.4 508.1L687.2 508L683.1 508L678.9 507.9L674.8 507.8L670.6 507.8L666.4 507.7L662.3 507.6L658.1 507.6L654 507.5L649.8 507.4L645.7 507.4L641.5 507.3L637.3 507.3L633.2 507.2L629 507.2L624.9 507.1L620.7 507.1L616.6 507.1L612.4 507L608.2 507L604.1 507L599.9 507L595.8 507L591.6 507L587.5 507L583.3 507L579.1 507L575 507L570.8 507L566.7 507L562.5 507L558.3 506.9L554.2 506.9L550 506.9L545.9 506.9L541.7 506.8L537.6 506.8L533.4 506.8L529.2 506.7L525.1 506.7L520.9 506.7L516.8 506.7L512.6 506.6L508.5 506.6L504.3 506.6L500.1 506.6L496 506.6L491.8 506.7L487.7 506.7L483.5 506.7L479.4 506.8L475.2 506.8L471 506.9L466.9 507L462.7 507.1L458.6 507.1L454.4 507.2L450.2 507.3L446.1 507.4L441.9 507.5L437.8 507.5L433.6 507.6L429.5 507.6L425.3 507.6L421.1 507.7L417 507.7L412.8 507.7L408.7 507.7L404.5 507.7L400.4 507.7L396.2 507.6L392 507.6L387.9 507.6L383.7 507.5L379.6 507.5L375.4 507.5L371.3 507.5L367.1 507.5L362.9 507.6L358.8 507.8L354.6 507.9L350.5 508.1L346.3 508.4L342.1 508.6L338 508.8L333.8 509L329.7 509.2L325.5 509.4L321.4 509.6L317.2 509.9L313 510L308.9 510.1L304.7 510.2L300.6 510.3L296.4 510.4L292.3 510.4L288.1 510.4L283.9 510.3L279.8 510.1L275.6 509.6L271.5 509.3L267.3 509L263.2 508.7L259 508.6L254.8 508.9L250.7 509.1L246.5 509.4L242.4 509.9L238.2 510.4L234 511.1L229.9 511.6L225.7 512L221.6 512.4L217.4 512.7L213.3 512.9L209.1 513L204.9 513L200.8 513L196.6 512.9L192.5 513L188.3 513.1L184.2 513.2L180 513.3L175.8 513.5L171.7 513.8L167.5 514.1L163.4 514.4L159.2 514.7L155 515.1L150.9 515.7L146.7 516.2L142.6 516.7L138.4 517.1L134.3 517.5L130.1 517.6L125.9 517.8L121.8 518L117.6 518.1L113.5 518.3L109.3 518.8L105.2 519.1L101 519.5L96.8 520L92.7 520.7L88.5 521.4" fill="#ca2628" fill-opacity="0.7" class="World_1-area"></path><path stroke-linecap="round" d="M88.5 480.8L92.7 479.6L96.8 478.4L101 477.3L105.2 476.2L109.3 475L113.5 473.8L117.6 472.5L121.8 471.2L125.9 469.9L130.1 468.5L134.3 467.2L138.4 465.7L142.6 464.1L146.7 462.5L150.9 460.8L155 458.9L159.2 456.9L163.4 455L167.5 453L171.7 451.1L175.8 449.2L180 447.4L184.2 445.6L188.3 444L192.5 442.5L196.6 441.1L200.8 439.8L204.9 438.6L209.1 437.4L213.3 436.2L217.4 434.9L221.6 433.6L225.7 432.1L229.9 430.7L234 429.3L238.2 427.8L242.4 426.3L246.5 424.8L250.7 423.5L254.8 422.3L259 421.1L263.2 420.1L267.3 419.2L271.5 418.5L275.6 417.8L279.8 417.2L283.9 416.6L288.1 416L292.3 415.5L296.4 414.9L300.6 414.3L304.7 413.5L308.9 412.9L313 412.2L317.2 411.6L321.4 411L325.5 410.4L329.7 409.9L333.8 409.5L338 409.2L342.1 408.8L346.3 408.5L350.5 408.3L354.6 408L358.8 407.7L362.9 407.2L367.1 406.8L371.3 406.3L375.4 405.8L379.6 405.3L383.7 404.7L387.9 404.1L392 403.5L396.2 402.9L400.4 402.4L404.5 401.8L408.7 401.3L412.8 400.8L417 400.4L421.1 400L425.3 399.6L429.5 399.2L433.6 398.9L437.8 398.6L441.9 398.5L446.1 398.2L450.2 398L454.4 397.8L458.6 397.7L462.7 397.6L466.9 397.4L471 397.2L475.2 397.1L479.4 396.9L483.5 396.8L487.7 396.5L491.8 396.3L496 396L500.1 395.8L504.3 395.6L508.5 395.3L512.6 395.1L516.8 394.8L520.9 394.6L525.1 394.5L529.2 394.3L533.4 394.1L537.6 394L541.7 393.9L545.9 393.8L550 393.7L554.2 393.6L558.3 393.6L562.5 393.6L566.7 393.6L570.8 393.6L575 393.6L579.1 393.6L583.3 393.7L587.5 393.8L591.6 393.8L595.8 393.8L599.9 393.9L604.1 394L608.2 394.1L612.4 394.1L616.6 394.2L620.7 394.3L624.9 394.4L629 394.5L633.2 394.5L637.3 394.6L641.5 394.7L645.7 394.8L649.8 395L654 395.1L658.1 395.2L662.3 395.3L666.4 395.5L670.6 395.7L674.8 395.9L678.9 396L683.1 396.3L687.2 396.5L691.4 396.8L695.6 397L699.7 397.2L703.9 397.5L708 397.8L712.2 398.2L712.2 453.8L708 453.6L703.9 453.4L699.7 453.2L695.6 453L691.4 452.8L687.2 452.6L683.1 452.4L678.9 452.2L674.8 452.1L670.6 451.9L666.4 451.7L662.3 451.6L658.1 451.4L654 451.3L649.8 451.2L645.7 451.1L641.5 451L637.3 450.9L633.2 450.8L629 450.8L624.9 450.7L620.7 450.6L616.6 450.6L612.4 450.6L608.2 450.6L604.1 450.5L599.9 450.5L595.8 450.5L591.6 450.5L587.5 450.5L583.3 450.4L579.1 450.3L575 450.3L570.8 450.2L566.7 450.2L562.5 450.1L558.3 450.1L554.2 450L550 449.9L545.9 449.9L541.7 449.8L537.6 449.8L533.4 449.8L529.2 449.8L525.1 449.8L520.9 449.8L516.8 449.9L512.6 449.9L508.5 450.1L504.3 450.2L500.1 450.3L496 450.5L491.8 450.6L487.7 450.8L483.5 451.1L479.4 451.2L475.2 451.4L471 451.6L466.9 451.9L462.7 452.1L458.6 452.2L454.4 452.4L450.2 452.5L446.1 452.6L441.9 452.7L437.8 452.7L433.6 452.7L429.5 452.7L425.3 452.8L421.1 452.8L417 452.8L412.8 452.7L408.7 452.7L404.5 452.8L400.4 452.9L396.2 453L392 453.2L387.9 453.5L383.7 453.8L379.6 454.2L375.4 454.6L371.3 455L367.1 455.5L362.9 456L358.8 456.7L354.6 457.2L350.5 457.8L346.3 458.4L342.1 458.9L338 459.4L333.8 459.7L329.7 459.9L325.5 460.1L321.4 460.2L317.2 460.3L313 460.1L308.9 459.9L304.7 459.6L300.6 459.5L296.4 459.5L292.3 459.4L288.1 459.5L283.9 459.7L279.8 460L275.6 460.3L271.5 460.7L267.3 461.3L263.2 461.9L259 462.7L254.8 463.6L250.7 464.4L246.5 465.2L242.4 466.1L238.2 467L234 467.9L229.9 468.5L225.7 469.1L221.6 469.7L217.4 470.2L213.3 470.8L209.1 471.3L204.9 471.8L200.8 472.3L196.6 473L192.5 473.7L188.3 474.5L184.2 475.4L180 476.4L175.8 477.4L171.7 478.5L167.5 479.4L163.4 480.4L159.2 481.3L155 482.4L150.9 483.6L146.7 484.7L142.6 485.8L138.4 487L134.3 488.2L130.1 489.3L125.9 490.5L121.8 491.6L117.6 492.7L113.5 493.9L109.3 495L105.2 495.9L101 496.8L96.8 497.7L92.7 498.7L88.5 499.7" fill="#ffd53e" fill-opacity="0.7" class="World_2-area"></path><path stroke-linecap="round" d="M88.5 434.7L92.7 432.8L96.8 431L101 429.2L105.2 427.3L109.3 425.4L113.5 423.5L117.6 421.5L121.8 419.4L125.9 417.3L130.1 415L134.3 412.8L138.4 410.5L142.6 408.1L146.7 405.6L150.9 402.9L155 400.3L159.2 397.5L163.4 394.7L167.5 391.7L171.7 388.8L175.8 385.9L180 382.9L184.2 380L188.3 377L192.5 374L196.6 371.2L200.8 368.3L204.9 365.4L209.1 362.5L213.3 359.5L217.4 356.5L221.6 353.4L225.7 350.3L229.9 347L234 343.6L238.2 340.1L242.4 336.5L246.5 332.8L250.7 329.1L254.8 325.6L259 322.2L263.2 318.8L267.3 315.6L271.5 312.4L275.6 309.3L279.8 306.3L283.9 303.4L288.1 300.5L292.3 297.7L296.4 294.8L300.6 291.9L304.7 289L308.9 286.1L313 283.2L317.2 280.2L321.4 277.3L325.5 274.4L329.7 271.4L333.8 268.4L338 265.3L342.1 262.2L346.3 259.1L350.5 255.9L354.6 252.8L358.8 249.7L362.9 246.8L367.1 243.9L371.3 241L375.4 238.3L379.6 235.6L383.7 233.1L387.9 230.7L392 228.4L396.2 226.1L400.4 223.8L404.5 221.6L408.7 219.5L412.8 217.3L417 215.3L421.1 213.2L425.3 211.3L429.5 209.5L433.6 207.7L437.8 205.9L441.9 204.2L446.1 202.6L450.2 201L454.4 199.4L458.6 197.8L462.7 196.3L466.9 194.8L471 193.3L475.2 191.9L479.4 190.4L483.5 188.9L487.7 187.4L491.8 185.9L496 184.4L500.1 183L504.3 181.6L508.5 180.3L512.6 179.1L516.8 178L520.9 177L525.1 176L529.2 175.2L533.4 174.5L537.6 173.8L541.7 173.2L545.9 172.5L550 171.8L554.2 171.1L558.3 170.4L562.5 169.6L566.7 168.8L570.8 167.9L575 167.1L579.1 166.2L583.3 165.3L587.5 164.5L591.6 163.6L595.8 162.8L599.9 162L604.1 161.3L608.2 160.7L612.4 160L616.6 159.5L620.7 158.9L624.9 158.5L629 158.1L633.2 157.7L637.3 157.4L641.5 157.2L645.7 157L649.8 156.8L654 156.6L658.1 156.4L662.3 156.3L666.4 156.2L670.6 156.1L674.8 156L678.9 155.8L683.1 155.7L687.2 155.7L691.4 155.7L695.6 155.5L699.7 155.4L703.9 155.4L708 155.4L712.2 155.5L712.2 398.2L708 397.8L703.9 397.5L699.7 397.2L695.6 397L691.4 396.8L687.2 396.5L683.1 396.3L678.9 396L674.8 395.9L670.6 395.7L666.4 395.5L662.3 395.3L658.1 395.2L654 395.1L649.8 395L645.7 394.8L641.5 394.7L637.3 394.6L633.2 394.5L629 394.5L624.9 394.4L620.7 394.3L616.6 394.2L612.4 394.1L608.2 394.1L604.1 394L599.9 393.9L595.8 393.8L591.6 393.8L587.5 393.8L583.3 393.7L579.1 393.6L575 393.6L570.8 393.6L566.7 393.6L562.5 393.6L558.3 393.6L554.2 393.6L550 393.7L545.9 393.8L541.7 393.9L537.6 394L533.4 394.1L529.2 394.3L525.1 394.5L520.9 394.6L516.8 394.8L512.6 395.1L508.5 395.3L504.3 395.6L500.1 395.8L496 396L491.8 396.3L487.7 396.5L483.5 396.8L479.4 396.9L475.2 397.1L471 397.2L466.9 397.4L462.7 397.6L458.6 397.7L454.4 397.8L450.2 398L446.1 398.2L441.9 398.5L437.8 398.6L433.6 398.9L429.5 399.2L425.3 399.6L421.1 400L417 400.4L412.8 400.8L408.7 401.3L404.5 401.8L400.4 402.4L396.2 402.9L392 403.5L387.9 404.1L383.7 404.7L379.6 405.3L375.4 405.8L371.3 406.3L367.1 406.8L362.9 407.2L358.8 407.7L354.6 408L350.5 408.3L346.3 408.5L342.1 408.8L338 409.2L333.8 409.5L329.7 409.9L325.5 410.4L321.4 411L317.2 411.6L313 412.2L308.9 412.9L304.7 413.5L300.6 414.3L296.4 414.9L292.3 415.5L288.1 416L283.9 416.6L279.8 417.2L275.6 417.8L271.5 418.5L267.3 419.2L263.2 420.1L259 421.1L254.8 422.3L250.7 423.5L246.5 424.8L242.4 426.3L238.2 427.8L234 429.3L229.9 430.7L225.7 432.1L221.6 433.6L217.4 434.9L213.3 436.2L209.1 437.4L204.9 438.6L200.8 439.8L196.6 441.1L192.5 442.5L188.3 444L184.2 445.6L180 447.4L175.8 449.2L171.7 451.1L167.5 453L163.4 455L159.2 456.9L155 458.9L150.9 460.8L146.7 462.5L142.6 464.1L138.4 465.7L134.3 467.2L130.1 468.5L125.9 469.9L121.8 471.2L117.6 472.5L113.5 473.8L109.3 475L105.2 476.2L101 477.3L96.8 478.4L92.7 479.6L88.5 480.8" fill="#9ecc8a" fill-opacity="0.7" class="World_3-area"></path><path stroke-linecap="round" d="M88.5 431.6L92.7 429.7L96.8 427.8L101 425.9L105.2 424L109.3 422.1L113.5 420.1L117.6 418L121.8 415.9L125.9 413.7L130.1 411.4L134.3 409.1L138.4 406.7L142.6 404.2L146.7 401.6L150.9 398.9L155 396.1L159.2 393.2L163.4 390.2L167.5 387.2L171.7 384.1L175.8 381L180 377.9L184.2 374.8L188.3 371.7L192.5 368.6L196.6 365.5L200.8 362.4L204.9 359.4L209.1 356.2L213.3 353.1L217.4 349.8L221.6 346.5L225.7 343.1L229.9 339.7L234 336.1L238.2 332.4L242.4 328.7L246.5 324.9L250.7 321.1L254.8 319.5L259 316L263.2 312.6L267.3 309.2L271.5 305.9L275.6 302.5L279.8 299.3L283.9 296.2L288.1 293L292.3 289.9L296.4 286.7L300.6 283.7L304.7 280.6L308.9 277.5L313 274.4L317.2 271.2L321.4 268.1L325.5 265L329.7 261.8L333.8 258.5L338 255.2L342.1 252L346.3 248.7L350.5 245.4L354.6 242.1L358.8 233.6L362.9 230.2L367.1 226.8L371.3 223.4L375.4 220.1L379.6 216.8L383.7 213.6L387.9 210.4L392 207.3L396.2 204.2L400.4 201.1L404.5 198.1L408.7 195.1L412.8 192.1L417 189.2L421.1 186.3L425.3 183.5L429.5 180.7L433.6 177.9L437.8 175.2L441.9 172.5L446.1 169.8L450.2 167.1L454.4 164.5L458.6 161.9L462.7 159.4L466.9 156.9L471 154.4L475.2 152L479.4 149.6L483.5 147.2L487.7 144.9L491.8 142.6L496 140.4L500.1 138.2L504.3 136.1L508.5 134L512.6 131.9L516.8 129.9L520.9 128L525.1 126.1L529.2 124.2L533.4 122.4L537.6 120.6L541.7 118.9L545.9 117.2L550 115.6L554.2 114L558.3 112.4L562.5 110.9L566.7 109.4L570.8 107.9L575 106.5L579.1 105L583.3 103.7L587.5 102.3L591.6 101L595.8 99.7L599.9 98.4L604.1 97.2L608.2 96L612.4 94.8L616.6 93.7L620.7 92.6L624.9 91.5L629 90.5L633.2 89.4L637.3 88.5L641.5 87.5L645.7 86.6L649.8 85.7L654 84.8L658.1 83.9L662.3 83.1L666.4 82.3L670.6 81.5L674.8 80.7L678.9 80L683.1 79.3L687.2 78.6L691.4 77.9L695.6 77.3L699.7 76.7L703.9 76.1L708 75.5L712.2 75L712.2 155.5L708 155.4L703.9 155.4L699.7 155.4L695.6 155.5L691.4 155.7L687.2 155.7L683.1 155.7L678.9 155.8L674.8 156L670.6 156.1L666.4 156.2L662.3 156.3L658.1 156.4L654 156.6L649.8 156.8L645.7 157L641.5 157.2L637.3 157.4L633.2 157.7L629 158.1L624.9 158.5L620.7 158.9L616.6 159.5L612.4 160L608.2 160.7L604.1 161.3L599.9 162L595.8 162.8L591.6 163.6L587.5 164.5L583.3 165.3L579.1 166.2L575 167.1L570.8 167.9L566.7 168.8L562.5 169.6L558.3 170.4L554.2 171.1L550 171.8L545.9 172.5L541.7 173.2L537.6 173.8L533.4 174.5L529.2 175.2L525.1 176L520.9 177L516.8 178L512.6 179.1L508.5 180.3L504.3 181.6L500.1 183L496 184.4L491.8 185.9L487.7 187.4L483.5 188.9L479.4 190.4L475.2 191.9L471 193.3L466.9 194.8L462.7 196.3L458.6 197.8L454.4 199.4L450.2 201L446.1 202.6L441.9 204.2L437.8 205.9L433.6 207.7L429.5 209.5L425.3 211.3L421.1 213.2L417 215.3L412.8 217.3L408.7 219.5L404.5 221.6L400.4 223.8L396.2 226.1L392 228.4L387.9 230.7L383.7 233.1L379.6 235.6L375.4 238.3L371.3 241L367.1 243.9L362.9 246.8L358.8 249.7L354.6 252.8L350.5 255.9L346.3 259.1L342.1 262.2L338 265.3L333.8 268.4L329.7 271.4L325.5 274.4L321.4 277.3L317.2 280.2L313 283.2L308.9 286.1L304.7 289L300.6 291.9L296.4 294.8L292.3 297.7L288.1 300.5L283.9 303.4L279.8 306.3L275.6 309.3L271.5 312.4L267.3 315.6L263.2 318.8L259 322.2L254.8 325.6L250.7 329.1L246.5 332.8L242.4 336.5L238.2 340.1L234 343.6L229.9 347L225.7 350.3L221.6 353.4L217.4 356.5L213.3 359.5L209.1 362.5L204.9 365.4L200.8 368.3L196.6 371.2L192.5 374L188.3 377L184.2 380L180 382.9L175.8 385.9L171.7 388.8L167.5 391.7L163.4 394.7L159.2 397.5L155 400.3L150.9 402.9L146.7 405.6L142.6 408.1L138.4 410.5L134.3 412.8L130.1 415L125.9 417.3L121.8 419.4L117.6 421.5L113.5 423.5L109.3 425.4L105.2 427.3L101 429.2L96.8 431L92.7 432.8L88.5 434.7" fill="#34983f" fill-opacity="0.7" class="World_4-area"></path><path stroke-linecap="round" d="M88.5 521.4L92.7 520.7L96.8 520L101 519.5L105.2 519.1L109.3 518.8L113.5 518.3L117.6 518.1L121.8 518L125.9 517.8L130.1 517.6L134.3 517.5L138.4 517.1L142.6 516.7L146.7 516.2L150.9 515.7L155 515.1L159.2 514.7L163.4 514.4L167.5 514.1L171.7 513.8L175.8 513.5L180 513.3L184.2 513.2L188.3 513.1L192.5 513L196.6 512.9L200.8 513L204.9 513L209.1 513L213.3 512.9L217.4 512.7L221.6 512.4L225.7 512L229.9 511.6L234 511.1L238.2 510.4L242.4 509.9L246.5 509.4L250.7 509.1L254.8 508.9L259 508.6L263.2 508.7L267.3 509L271.5 509.3L275.6 509.6L279.8 510.1L283.9 510.3L288.1 510.4L292.3 510.4L296.4 510.4L300.6 510.3L304.7 510.2L308.9 510.1L313 510L317.2 509.9L321.4 509.6L325.5 509.4L329.7 509.2L333.8 509L338 508.8L342.1 508.6L346.3 508.4L350.5 508.1L354.6 507.9L358.8 507.8L362.9 507.6L367.1 507.5L371.3 507.5L375.4 507.5L379.6 507.5L383.7 507.5L387.9 507.6L392 507.6L396.2 507.6L400.4 507.7L404.5 507.7L408.7 507.7L412.8 507.7L417 507.7L421.1 507.7L425.3 507.6L429.5 507.6L433.6 507.6L437.8 507.5L441.9 507.5L446.1 507.4L450.2 507.3L454.4 507.2L458.6 507.1L462.7 507.1L466.9 507L471 506.9L475.2 506.8L479.4 506.8L483.5 506.7L487.7 506.7L491.8 506.7L496 506.6L500.1 506.6L504.3 506.6L508.5 506.6L512.6 506.6L516.8 506.7L520.9 506.7L525.1 506.7L529.2 506.7L533.4 506.8L537.6 506.8L541.7 506.8L545.9 506.9L550 506.9L554.2 506.9L558.3 506.9L562.5 507L566.7 507L570.8 507L575 507L579.1 507L583.3 507L587.5 507L591.6 507L595.8 507L599.9 507L604.1 507L608.2 507L612.4 507L616.6 507.1L620.7 507.1L624.9 507.1L629 507.2L633.2 507.2L637.3 507.3L641.5 507.3L645.7 507.4L649.8 507.4L654 507.5L658.1 507.6L662.3 507.6L666.4 507.7L670.6 507.8L674.8 507.8L678.9 507.9L683.1 508L687.2 508L691.4 508.1L695.6 508.2L699.7 508.2L703.9 508.3L708 508.4L712.2 508.4" stroke="rgb(43, 80, 141)" stroke-opacity="0.7" stroke-width="0.5" fill="none" class="World_0-border"></path><path stroke-linecap="round" d="M88.5 499.7L92.7 498.7L96.8 497.7L101 496.8L105.2 495.9L109.3 495L113.5 493.9L117.6 492.7L121.8 491.6L125.9 490.5L130.1 489.3L134.3 488.2L138.4 487L142.6 485.8L146.7 484.7L150.9 483.6L155 482.4L159.2 481.3L163.4 480.4L167.5 479.4L171.7 478.5L175.8 477.4L180 476.4L184.2 475.4L188.3 474.5L192.5 473.7L196.6 473L200.8 472.3L204.9 471.8L209.1 471.3L213.3 470.8L217.4 470.2L221.6 469.7L225.7 469.1L229.9 468.5L234 467.9L238.2 467L242.4 466.1L246.5 465.2L250.7 464.4L254.8 463.6L259 462.7L263.2 461.9L267.3 461.3L271.5 460.7L275.6 460.3L279.8 460L283.9 459.7L288.1 459.5L292.3 459.4L296.4 459.5L300.6 459.5L304.7 459.6L308.9 459.9L313 460.1L317.2 460.3L321.4 460.2L325.5 460.1L329.7 459.9L333.8 459.7L338 459.4L342.1 458.9L346.3 458.4L350.5 457.8L354.6 457.2L358.8 456.7L362.9 456L367.1 455.5L371.3 455L375.4 454.6L379.6 454.2L383.7 453.8L387.9 453.5L392 453.2L396.2 453L400.4 452.9L404.5 452.8L408.7 452.7L412.8 452.7L417 452.8L421.1 452.8L425.3 452.8L429.5 452.7L433.6 452.7L437.8 452.7L441.9 452.7L446.1 452.6L450.2 452.5L454.4 452.4L458.6 452.2L462.7 452.1L466.9 451.9L471 451.6L475.2 451.4L479.4 451.2L483.5 451.1L487.7 450.8L491.8 450.6L496 450.5L500.1 450.3L504.3 450.2L508.5 450.1L512.6 449.9L516.8 449.9L520.9 449.8L525.1 449.8L529.2 449.8L533.4 449.8L537.6 449.8L541.7 449.8L545.9 449.9L550 449.9L554.2 450L558.3 450.1L562.5 450.1L566.7 450.2L570.8 450.2L575 450.3L579.1 450.3L583.3 450.4L587.5 450.5L591.6 450.5L595.8 450.5L599.9 450.5L604.1 450.5L608.2 450.6L612.4 450.6L616.6 450.6L620.7 450.6L624.9 450.7L629 450.8L633.2 450.8L637.3 450.9L641.5 451L645.7 451.1L649.8 451.2L654 451.3L658.1 451.4L662.3 451.6L666.4 451.7L670.6 451.9L674.8 452.1L678.9 452.2L683.1 452.4L687.2 452.6L691.4 452.8L695.6 453L699.7 453.2L703.9 453.4L708 453.6L712.2 453.8" stroke="rgb(169, 32, 33)" stroke-opacity="0.7" stroke-width="0.5" fill="none" class="World_1-border"></path><path stroke-linecap="round" d="M88.5 480.8L92.7 479.6L96.8 478.4L101 477.3L105.2 476.2L109.3 475L113.5 473.8L117.6 472.5L121.8 471.2L125.9 469.9L130.1 468.5L134.3 467.2L138.4 465.7L142.6 464.1L146.7 462.5L150.9 460.8L155 458.9L159.2 456.9L163.4 455L167.5 453L171.7 451.1L175.8 449.2L180 447.4L184.2 445.6L188.3 444L192.5 442.5L196.6 441.1L200.8 439.8L204.9 438.6L209.1 437.4L213.3 436.2L217.4 434.9L221.6 433.6L225.7 432.1L229.9 430.7L234 429.3L238.2 427.8L242.4 426.3L246.5 424.8L250.7 423.5L254.8 422.3L259 421.1L263.2 420.1L267.3 419.2L271.5 418.5L275.6 417.8L279.8 417.2L283.9 416.6L288.1 416L292.3 415.5L296.4 414.9L300.6 414.3L304.7 413.5L308.9 412.9L313 412.2L317.2 411.6L321.4 411L325.5 410.4L329.7 409.9L333.8 409.5L338 409.2L342.1 408.8L346.3 408.5L350.5 408.3L354.6 408L358.8 407.7L362.9 407.2L367.1 406.8L371.3 406.3L375.4 405.8L379.6 405.3L383.7 404.7L387.9 404.1L392 403.5L396.2 402.9L400.4 402.4L404.5 401.8L408.7 401.3L412.8 400.8L417 400.4L421.1 400L425.3 399.6L429.5 399.2L433.6 398.9L437.8 398.6L441.9 398.5L446.1 398.2L450.2 398L454.4 397.8L458.6 397.7L462.7 397.6L466.9 397.4L471 397.2L475.2 397.1L479.4 396.9L483.5 396.8L487.7 396.5L491.8 396.3L496 396L500.1 395.8L504.3 395.6L508.5 395.3L512.6 395.1L516.8 394.8L520.9 394.6L525.1 394.5L529.2 394.3L533.4 394.1L537.6 394L541.7 393.9L545.9 393.8L550 393.7L554.2 393.6L558.3 393.6L562.5 393.6L566.7 393.6L570.8 393.6L575 393.6L579.1 393.6L583.3 393.7L587.5 393.8L591.6 393.8L595.8 393.8L599.9 393.9L604.1 394L608.2 394.1L612.4 394.1L616.6 394.2L620.7 394.3L624.9 394.4L629 394.5L633.2 394.5L637.3 394.6L641.5 394.7L645.7 394.8L649.8 395L654 395.1L658.1 395.2L662.3 395.3L666.4 395.5L670.6 395.7L674.8 395.9L678.9 396L683.1 396.3L687.2 396.5L691.4 396.8L695.6 397L699.7 397.2L703.9 397.5L708 397.8L712.2 398.2" stroke="rgb(213, 178, 52)" stroke-opacity="0.7" stroke-width="0.5" fill="none" class="World_2-border"></path><path stroke-linecap="round" d="M88.5 434.7L92.7 432.8L96.8 431L101 429.2L105.2 427.3L109.3 425.4L113.5 423.5L117.6 421.5L121.8 419.4L125.9 417.3L130.1 415L134.3 412.8L138.4 410.5L142.6 408.1L146.7 405.6L150.9 402.9L155 400.3L159.2 397.5L163.4 394.7L167.5 391.7L171.7 388.8L175.8 385.9L180 382.9L184.2 380L188.3 377L192.5 374L196.6 371.2L200.8 368.3L204.9 365.4L209.1 362.5L213.3 359.5L217.4 356.5L221.6 353.4L225.7 350.3L229.9 347L234 343.6L238.2 340.1L242.4 336.5L246.5 332.8L250.7 329.1L254.8 325.6L259 322.2L263.2 318.8L267.3 315.6L271.5 312.4L275.6 309.3L279.8 306.3L283.9 303.4L288.1 300.5L292.3 297.7L296.4 294.8L300.6 291.9L304.7 289L308.9 286.1L313 283.2L317.2 280.2L321.4 277.3L325.5 274.4L329.7 271.4L333.8 268.4L338 265.3L342.1 262.2L346.3 259.1L350.5 255.9L354.6 252.8L358.8 249.7L362.9 246.8L367.1 243.9L371.3 241L375.4 238.3L379.6 235.6L383.7 233.1L387.9 230.7L392 228.4L396.2 226.1L400.4 223.8L404.5 221.6L408.7 219.5L412.8 217.3L417 215.3L421.1 213.2L425.3 211.3L429.5 209.5L433.6 207.7L437.8 205.9L441.9 204.2L446.1 202.6L450.2 201L454.4 199.4L458.6 197.8L462.7 196.3L466.9 194.8L471 193.3L475.2 191.9L479.4 190.4L483.5 188.9L487.7 187.4L491.8 185.9L496 184.4L500.1 183L504.3 181.6L508.5 180.3L512.6 179.1L516.8 178L520.9 177L525.1 176L529.2 175.2L533.4 174.5L537.6 173.8L541.7 173.2L545.9 172.5L550 171.8L554.2 171.1L558.3 170.4L562.5 169.6L566.7 168.8L570.8 167.9L575 167.1L579.1 166.2L583.3 165.3L587.5 164.5L591.6 163.6L595.8 162.8L599.9 162L604.1 161.3L608.2 160.7L612.4 160L616.6 159.5L620.7 158.9L624.9 158.5L629 158.1L633.2 157.7L637.3 157.4L641.5 157.2L645.7 157L649.8 156.8L654 156.6L658.1 156.4L662.3 156.3L666.4 156.2L670.6 156.1L674.8 156L678.9 155.8L683.1 155.7L687.2 155.7L691.4 155.7L695.6 155.5L699.7 155.4L703.9 155.4L708 155.4L712.2 155.5" stroke="rgb(132, 171, 115)" stroke-opacity="0.7" stroke-width="0.5" fill="none" class="World_3-border"></path><path stroke-linecap="round" d="M88.5 431.6L92.7 429.7L96.8 427.8L101 425.9L105.2 424L109.3 422.1L113.5 420.1L117.6 418L121.8 415.9L125.9 413.7L130.1 411.4L134.3 409.1L138.4 406.7L142.6 404.2L146.7 401.6L150.9 398.9L155 396.1L159.2 393.2L163.4 390.2L167.5 387.2L171.7 384.1L175.8 381L180 377.9L184.2 374.8L188.3 371.7L192.5 368.6L196.6 365.5L200.8 362.4L204.9 359.4L209.1 356.2L213.3 353.1L217.4 349.8L221.6 346.5L225.7 343.1L229.9 339.7L234 336.1L238.2 332.4L242.4 328.7L246.5 324.9L250.7 321.1L254.8 319.5L259 316L263.2 312.6L267.3 309.2L271.5 305.9L275.6 302.5L279.8 299.3L283.9 296.2L288.1 293L292.3 289.9L296.4 286.7L300.6 283.7L304.7 280.6L308.9 277.5L313 274.4L317.2 271.2L321.4 268.1L325.5 265L329.7 261.8L333.8 258.5L338 255.2L342.1 252L346.3 248.7L350.5 245.4L354.6 242.1L358.8 233.6L362.9 230.2L367.1 226.8L371.3 223.4L375.4 220.1L379.6 216.8L383.7 213.6L387.9 210.4L392 207.3L396.2 204.2L400.4 201.1L404.5 198.1L408.7 195.1L412.8 192.1L417 189.2L421.1 186.3L425.3 183.5L429.5 180.7L433.6 177.9L437.8 175.2L441.9 172.5L446.1 169.8L450.2 167.1L454.4 164.5L458.6 161.9L462.7 159.4L466.9 156.9L471 154.4L475.2 152L479.4 149.6L483.5 147.2L487.7 144.9L491.8 142.6L496 140.4L500.1 138.2L504.3 136.1L508.5 134L512.6 131.9L516.8 129.9L520.9 128L525.1 126.1L529.2 124.2L533.4 122.4L537.6 120.6L541.7 118.9L545.9 117.2L550 115.6L554.2 114L558.3 112.4L562.5 110.9L566.7 109.4L570.8 107.9L575 106.5L579.1 105L583.3 103.7L587.5 102.3L591.6 101L595.8 99.7L599.9 98.4L604.1 97.2L608.2 96L612.4 94.8L616.6 93.7L620.7 92.6L624.9 91.5L629 90.5L633.2 89.4L637.3 88.5L641.5 87.5L645.7 86.6L649.8 85.7L654 84.8L658.1 83.9L662.3 83.1L666.4 82.3L670.6 81.5L674.8 80.7L678.9 80L683.1 79.3L687.2 78.6L691.4 77.9L695.6 77.3L699.7 76.7L703.9 76.1L708 75.5L712.2 75" stroke="rgb(44, 127, 53)" stroke-opacity="0.7" stroke-width="0.5" fill="none" class="World_4-border"></path></g></g></g><g style="fill: #777;" class="SourcesFooter"><g style="fill: #777;" class="clickable"><text font-size="12.60" x="15.0" y="581.6"><tspan x="15" y="581.58">Source: UN Population Division (2015)</tspan></text></g><text font-size="12.60" x="649.0" y="581.6"><tspan x="649.024" y="581.58"><a target='_blank' style='fill: #777;' href='https://ourworldindata.org'>OurWorldInData.org</a> • <a style="fill: #777;" href="http://creativecommons.org/licenses/by-sa/4.0/deed.en_US" target="_blank">CC BY-SA</a></tspan></text></g></g></svg>