<svg xmlns="http://www.w3.org/2000/svg" version="1.1" style="font-family: 'Helvetica Neue', Helvetica, Arial, sans-serif; font-size: 18px; background-color: white; text-rendering: optimizeLegibility; -webkit-font-smoothing: antialiased;" width="850" height="600"><g class="ChartTab"><g class="HeaderView"><g opacity="0.8" transform="translate(778, 15) scale(0.27)"><a xmlns:xlink="http://www.w3.org/1999/xlink" xlink:href="https://ourworldindata.org" target="_blank"><g><rect x="0" y="0" fill="#1B2543" width="211.2" height="130.1"/><rect x="0" y="112.2" fill="#E63912" width="211.2" height="17.9"/><g><rect x="1.2" y="12.3" fill="none" width="210.2" height="99.2"/><path fill="#FFFFFF" d="M37.8,32.2c0,12.7-7.7,19.4-17.1,19.4c-9.7,0-16.6-7.5-16.6-18.7c0-11.7,7.3-19.3,17.1-19.3 C31.3,13.7,37.8,21.3,37.8,32.2z M9.2,32.8c0,7.9,4.3,14.9,11.8,14.9c7.5,0,11.8-6.9,11.8-15.3c0-7.3-3.8-14.9-11.8-14.9 C13.1,17.5,9.2,24.8,9.2,32.8z"/><path fill="#FFFFFF" d="M62.7,43.8c0,2.7,0.1,5.1,0.2,7.2h-4.3l-0.3-4.3h-0.1c-1.3,2.1-4,4.9-8.8,4.9c-4.2,0-9.1-2.3-9.1-11.6 V24.6h4.8v14.6c0,5,1.5,8.4,5.9,8.4c3.2,0,5.5-2.2,6.3-4.4c0.3-0.7,0.4-1.6,0.4-2.5V24.6h4.8V43.8z"/><path fill="#FFFFFF" d="M67.3,32.8c0-3.1-0.1-5.8-0.2-8.2h4.2l0.2,5.2h0.2c1.2-3.5,4.1-5.8,7.3-5.8c0.5,0,0.9,0.1,1.4,0.2v4.5 c-0.5-0.1-1-0.2-1.6-0.2c-3.4,0-5.8,2.6-6.5,6.2c-0.1,0.7-0.2,1.4-0.2,2.2V51h-4.8V32.8z"/><path fill="#FFFFFF" d="M95.4,51l-9.4-36.8h5l4.4,18.6c1.1,4.6,2.1,9.2,2.7,12.7h0.1c0.6-3.7,1.8-8,3-12.8l4.9-18.5h5l4.5,18.7 c1,4.4,2,8.7,2.6,12.6h0.1c0.8-4,1.8-8.1,3-12.7l4.9-18.5h4.9L120.6,51h-5L111,31.9c-1.1-4.7-1.9-8.3-2.4-12h-0.1 c-0.7,3.7-1.5,7.3-2.8,12L100.4,51H95.4z"/><path fill="#FFFFFF" d="M154.9,37.6c0,9.8-6.8,14-13.2,14c-7.2,0-12.7-5.2-12.7-13.6c0-8.8,5.8-14,13.1-14 C149.8,24,154.9,29.5,154.9,37.6z M133.9,37.9c0,5.8,3.3,10.1,8,10.1c4.6,0,8-4.3,8-10.3c0-4.5-2.2-10.1-7.9-10.1 C136.3,27.6,133.9,32.8,133.9,37.9z"/><path fill="#FFFFFF" d="M158.2,32.8c0-3.1-0.1-5.8-0.2-8.2h4.2l0.2,5.2h0.2c1.2-3.5,4.1-5.8,7.3-5.8c0.5,0,0.9,0.1,1.4,0.2v4.5 c-0.5-0.1-1-0.2-1.6-0.2c-3.4,0-5.8,2.6-6.5,6.2c-0.1,0.7-0.2,1.4-0.2,2.2V51h-4.8V32.8z"/><path fill="#FFFFFF" d="M173.5,12.3h4.8V51h-4.8V12.3z"/><path fill="#FFFFFF" d="M206.5,12.3v31.9c0,2.3,0.1,5,0.2,6.8h-4.3l-0.2-4.6H202c-1.5,2.9-4.7,5.2-9,5.2 c-6.4,0-11.3-5.4-11.3-13.4c-0.1-8.8,5.4-14.2,11.9-14.2c4,0,6.8,1.9,8,4h0.1V12.3H206.5z M201.7,35.4c0-0.6-0.1-1.4-0.2-2 c-0.7-3.1-3.3-5.6-6.9-5.6c-5,0-7.9,4.4-7.9,10.2c0,5.3,2.6,9.8,7.8,9.8c3.2,0,6.2-2.1,7.1-5.7c0.2-0.7,0.2-1.3,0.2-2.1V35.4z"/><path fill="#FFFFFF" d="M42.8,64c0.1,1.6-1.1,2.9-3.1,2.9c-1.7,0-2.9-1.3-2.9-2.9c0-1.7,1.3-3,3-3C41.7,61,42.8,62.3,42.8,64z M37.4,97.8V71.4h4.8v26.4H37.4z"/><path fill="#FFFFFF" d="M47.5,78.6c0-2.7-0.1-5-0.2-7.1h4.3l0.3,4.4h0.1c1.3-2.5,4.4-5,8.8-5c3.7,0,9.4,2.2,9.4,11.2v15.8h-4.8 V82.6c0-4.3-1.6-7.8-6.1-7.8c-3.2,0-5.6,2.2-6.5,4.9c-0.2,0.6-0.3,1.4-0.3,2.2v15.9h-4.8V78.6z"/><path fill="#FFFFFF" d="M84,61.6c2.9-0.4,6.3-0.8,10.1-0.8c6.8,0,11.7,1.6,14.9,4.6c3.3,3,5.2,7.3,5.2,13.2c0,6-1.9,10.9-5.3,14.3 c-3.4,3.4-9.1,5.3-16.3,5.3c-3.4,0-6.2-0.2-8.6-0.4V61.6z M88.8,94.1c1.2,0.2,3,0.3,4.8,0.3c10.2,0,15.7-5.7,15.7-15.6 c0.1-8.7-4.9-14.2-14.9-14.2c-2.5,0-4.3,0.2-5.6,0.5V94.1z"/><path fill="#FFFFFF" d="M132.1,97.8l-0.4-3.3h-0.2c-1.5,2.1-4.3,3.9-8.1,3.9c-5.4,0-8.1-3.8-8.1-7.6c0-6.4,5.7-9.9,15.9-9.8v-0.5 c0-2.2-0.6-6.1-6-6.1c-2.5,0-5,0.8-6.9,2l-1.1-3.2c2.2-1.4,5.4-2.3,8.7-2.3c8.1,0,10.1,5.5,10.1,10.8v9.9c0,2.3,0.1,4.5,0.4,6.3 H132.1z M131.4,84.4c-5.3-0.1-11.2,0.8-11.2,5.9c0,3.1,2.1,4.6,4.5,4.6c3.4,0,5.6-2.2,6.4-4.4c0.2-0.5,0.3-1,0.3-1.5V84.4z"/><path fill="#FFFFFF" d="M146.6,63.9v7.6h6.9v3.7h-6.9v14.2c0,3.3,0.9,5.1,3.6,5.1c1.3,0,2.2-0.2,2.8-0.3l0.2,3.6 c-0.9,0.4-2.4,0.7-4.3,0.7c-2.2,0-4-0.7-5.2-2c-1.4-1.4-1.9-3.8-1.9-6.9V75.1h-4.1v-3.7h4.1v-6.3L146.6,63.9z"/><path fill="#FFFFFF" d="M171.4,97.8l-0.4-3.3h-0.2c-1.5,2.1-4.3,3.9-8.1,3.9c-5.4,0-8.1-3.8-8.1-7.6c0-6.4,5.7-9.9,15.9-9.8v-0.5 c0-2.2-0.6-6.1-6-6.1c-2.5,0-5,0.8-6.9,2l-1.1-3.2c2.2-1.4,5.4-2.3,8.7-2.3c8.1,0,10.1,5.5,10.1,10.8v9.9c0,2.3,0.1,4.5,0.4,6.3 H171.4z M170.7,84.4c-5.3-0.1-11.2,0.8-11.2,5.9c0,3.1,2.1,4.6,4.5,4.6c3.4,0,5.6-2.2,6.4-4.4c0.2-0.5,0.3-1,0.3-1.5V84.4z"/></g></g></a></g><a href="https://ourworldindata.org/grapher/total-tax-revenue-gdp-vs-govt-effectiveness" target="_blank"><text font-size="23.40" x="15.0" y="33.7" fill="#555"><tspan x="15" y="33.72">Total tax revenue (%GDP) vs Government effectiveness, 2013</tspan></text></a><text font-size="14.40" x="15.0" y="51.9" fill="#666"><tspan x="15" y="51.919999999999995">Total tax revenue includes social contributions, direct and indirect taxes. Government Effectiveness captures</tspan><tspan x="15" y="67.75999999999999">perceptions of the quality of public services, the quality of the civil service and the degree of its independence from</tspan><tspan x="15" y="83.6">political pressures, the quality of policy formulation and implementation, and the credibility of the government's</tspan><tspan x="15" y="99.44">commitment to such policies. The figures correspond to country scores in units of a standard normal distribution, i.e.</tspan><tspan x="15" y="115.28">ranging from approximately -2.5 to 2.5.</tspan></text></g><g><g class="AxisBoxView"><g class="HorizontalAxis"><text font-size="12.60" x="135.9" y="554.0"><tspan x="135.932" y="553.98">Government effectiveness (score scores in units of a standard normal distribution)</tspan></text><text x="100.3" y="533.9" fill="#666" text-anchor="middle" font-size="16.2">-1.5</text><text x="184.1" y="533.9" fill="#666" text-anchor="middle" font-size="16.2">-1</text><text x="267.9" y="533.9" fill="#666" text-anchor="middle" font-size="16.2">-0.5</text><text x="351.7" y="533.9" fill="#666" text-anchor="middle" font-size="16.2">0</text><text x="435.5" y="533.9" fill="#666" text-anchor="middle" font-size="16.2">0.5</text><text x="519.3" y="533.9" fill="#666" text-anchor="middle" font-size="16.2">1</text><text x="603.1" y="533.9" fill="#666" text-anchor="middle" font-size="16.2">1.5</text><text x="686.9" y="533.9" fill="#666" text-anchor="middle" font-size="16.2">2</text></g><g class="VerticalAxis"><text font-size="12.60" x="-420.7" y="25.1" transform="rotate(-90)"><tspan x="-420.73799999999994" y="25.080000000000002">Total tax revenue (%GDP)</tspan></text><text x="70.16" y="512.7" fill="#666" dominant-baseline="middle" text-anchor="end" font-size="16.2">0%</text><text x="70.16" y="442.7" fill="#666" dominant-baseline="middle" text-anchor="end" font-size="16.2">10%</text><text x="70.16" y="372.6" fill="#666" dominant-baseline="middle" text-anchor="end" font-size="16.2">20%</text><text x="70.16" y="302.6" fill="#666" dominant-baseline="middle" text-anchor="end" font-size="16.2">30%</text><text x="70.16" y="232.5" fill="#666" dominant-baseline="middle" text-anchor="end" font-size="16.2">40%</text><text x="70.16" y="162.5" fill="#666" dominant-baseline="middle" text-anchor="end" font-size="16.2">50%</text></g><g class="AxisGridLines"><line x1="75.16" y1="512.7" x2="715.00" y2="512.7" stroke="#ccc"></line><line x1="75.16" y1="442.7" x2="715.00" y2="442.7" stroke="#ddd" stroke-dasharray="3,2"></line><line x1="75.16" y1="372.6" x2="715.00" y2="372.6" stroke="#ddd" stroke-dasharray="3,2"></line><line x1="75.16" y1="302.6" x2="715.00" y2="302.6" stroke="#ddd" stroke-dasharray="3,2"></line><line x1="75.16" y1="232.5" x2="715.00" y2="232.5" stroke="#ddd" stroke-dasharray="3,2"></line><line x1="75.16" y1="162.5" x2="715.00" y2="162.5" stroke="#ddd" stroke-dasharray="3,2"></line></g><g class="AxisGridLines"><line x1="100.3" y1="512.70" x2="100.3" y2="136.80" stroke="#ddd" stroke-dasharray="3,2"></line><line x1="184.1" y1="512.70" x2="184.1" y2="136.80" stroke="#ddd" stroke-dasharray="3,2"></line><line x1="267.9" y1="512.70" x2="267.9" y2="136.80" stroke="#ddd" stroke-dasharray="3,2"></line><line x1="351.7" y1="512.70" x2="351.7" y2="136.80" stroke="#ccc"></line><line x1="435.5" y1="512.70" x2="435.5" y2="136.80" stroke="#ddd" stroke-dasharray="3,2"></line><line x1="519.3" y1="512.70" x2="519.3" y2="136.80" stroke="#ddd" stroke-dasharray="3,2"></line><line x1="603.1" y1="512.70" x2="603.1" y2="136.80" stroke="#ddd" stroke-dasharray="3,2"></line><line x1="686.9" y1="512.70" x2="686.9" y2="136.80" stroke="#ddd" stroke-dasharray="3,2"></line></g></g><g clip-path="url(#scatterBounds-1)" class="PointsWithLabels clickable"><rect x="75.162" y="136.8" width="639.838" height="375.9" fill="rgba(255,255,255,0)"></rect><defs><clipPath id="scatterBounds-1"><rect x="65.162" y="126.80000000000001" width="659.838" height="395.9"></rect></clipPath></defs><circle cx="346" cy="365" r="17.841241161527712" fill="#d14e5b" opacity="0.8"></circle><circle cx="603" cy="334" r="8.775821099373784" fill="#4d824b" opacity="0.8"></circle><circle cx="311" cy="433" r="7.777150478551356" fill="#d14e5b" opacity="0.8"></circle><circle cx="338" cy="280" r="7.039644855753264" fill="#69c487" opacity="0.8"></circle><circle cx="217" cy="434" r="6.756310496314162" fill="#d14e5b" opacity="0.8"></circle><circle cx="214" cy="453" r="6.242793434187825" fill="#d14e5b" opacity="0.8"></circle><circle cx="291" cy="296" r="6.019024573550496" fill="#ffd336" opacity="0.8"></circle><circle cx="619" cy="307" r="5.698266051250359" fill="#d14e5b" opacity="0.8"></circle><circle cx="403" cy="390" r="5.514954044450156" fill="#4d824b" opacity="0.8"></circle><circle cx="361" cy="422" r="5.091697517043938" fill="#d14e5b" opacity="0.8"></circle><circle cx="301" cy="379" r="4.919032337130521" fill="#d14e5b" opacity="0.8"></circle><circle cx="256" cy="426" r="4.864529958928034" fill="#5675c1" opacity="0.8"></circle><circle cx="606" cy="255" r="4.705818991859415" fill="#ffd336" opacity="0.8"></circle><circle cx="413" cy="307" r="4.544293782519236" fill="#d14e5b" opacity="0.8"></circle><circle cx="387" cy="381" r="4.411878114109173" fill="#d14e5b" opacity="0.8"></circle><circle cx="598" cy="197" r="4.238754504851152" fill="#ffd336" opacity="0.8"></circle><circle cx="598" cy="282" r="4.2221628851264645" fill="#ffd336" opacity="0.8"></circle><circle cx="427" cy="212" r="4.164391039873503" fill="#ffd336" opacity="0.8"></circle><circle cx="415" cy="319" r="3.8728935166777916" fill="#5675c1" opacity="0.8"></circle><circle cx="226" cy="435" r="3.8177899070810715" fill="#5675c1" opacity="0.8"></circle><circle cx="358" cy="371" r="3.7876816418332524" fill="#69c487" opacity="0.8"></circle><circle cx="543" cy="284" r="3.7531701930099675" fill="#ffd336" opacity="0.8"></circle><circle cx="242" cy="249" r="3.6800093223846835" fill="#ffd336" opacity="0.8"></circle><circle cx="272" cy="404" r="3.6555801899280977" fill="#5675c1" opacity="0.8"></circle><circle cx="303" cy="308" r="3.577061376135538" fill="#69c487" opacity="0.8"></circle><circle cx="470" cy="288" r="3.47375123366159" fill="#ffd336" opacity="0.8"></circle><circle cx="257" cy="427" r="3.428481019451777" fill="#5675c1" opacity="0.8"></circle><circle cx="255" cy="438" r="3.420877621400655" fill="#5675c1" opacity="0.8"></circle><circle cx="98" cy="469" r="3.393035405609433" fill="#5675c1" opacity="0.8"></circle><circle cx="648" cy="298" r="3.3605236109222476" fill="#4d824b" opacity="0.8"></circle><circle cx="112" cy="457" r="3.343447131880635" fill="#d14e5b" opacity="0.8"></circle><circle cx="345" cy="302" r="3.2884144909898723" fill="#5675c1" opacity="0.8"></circle><circle cx="196" cy="405" r="3.239047571588971" fill="#d14e5b" opacity="0.8"></circle><circle cx="327" cy="382" r="3.186361103758005" fill="#69c487" opacity="0.8"></circle><circle cx="536" cy="402" r="3.1758679205360507" fill="#d14e5b" opacity="0.8"></circle><circle cx="361" cy="504" r="3.1587483824338745" fill="#d14e5b" opacity="0.8"></circle><circle cx="195" cy="312" r="3.1247604246852605" fill="#d14e5b" opacity="0.8"></circle><circle cx="329" cy="413" r="3.0395120260210997" fill="#5675c1" opacity="0.8"></circle><circle cx="248" cy="352" r="2.9971537134595754" fill="#5675c1" opacity="0.8"></circle><circle cx="624" cy="318" r="2.926144743609856" fill="#a652ba" opacity="0.8"></circle><circle cx="159" cy="447" r="2.8999271055080396" fill="#5675c1" opacity="0.8"></circle><circle cx="312" cy="427" r="2.853137675592338" fill="#d14e5b" opacity="0.8"></circle><circle cx="339" cy="322" r="2.8508999185803128" fill="#ffd336" opacity="0.8"></circle><circle cx="199" cy="418" r="2.8335588532902882" fill="#5675c1" opacity="0.8"></circle><circle cx="143" cy="236" r="2.8254026524236298" fill="#5675c1" opacity="0.8"></circle><circle cx="237" cy="397" r="2.712248745063527" fill="#5675c1" opacity="0.8"></circle><circle cx="560" cy="385" r="2.693506613057137" fill="#69c487" opacity="0.8"></circle><circle cx="230" cy="407" r="2.6790673821494217" fill="#5675c1" opacity="0.8"></circle><circle cx="203" cy="403" r="2.6603293337223" fill="#5675c1" opacity="0.8"></circle><circle cx="647" cy="258" r="2.6582942802376297" fill="#ffd336" opacity="0.8"></circle><circle cx="261" cy="350" r="2.6490965413494245" fill="#d14e5b" opacity="0.8"></circle><circle cx="262" cy="379" r="2.6427870566841096" fill="#5675c1" opacity="0.8"></circle><circle cx="232" cy="434" r="2.6039298771893002" fill="#4d824b" opacity="0.8"></circle><circle cx="270" cy="376" r="2.583098623548526" fill="#69c487" opacity="0.8"></circle><circle cx="197" cy="431" r="2.5648436164251103" fill="#d14e5b" opacity="0.8"></circle><circle cx="265" cy="407" r="2.5493638340645712" fill="#5675c1" opacity="0.8"></circle><circle cx="281" cy="384" r="2.5099433273521083" fill="#5675c1" opacity="0.8"></circle><circle cx="153" cy="335" r="2.5041055292307197" fill="#5675c1" opacity="0.8"></circle><circle cx="113" cy="400" r="2.4485902936699797" fill="#5675c1" opacity="0.8"></circle><circle cx="358" cy="428" r="2.423207166694978" fill="#5675c1" opacity="0.8"></circle><circle cx="427" cy="278" r="2.415409841922244" fill="#ffd336" opacity="0.8"></circle><circle cx="278" cy="240" r="2.40573210379698" fill="#4d824b" opacity="0.8"></circle><circle cx="618" cy="200" r="2.3849814827042097" fill="#ffd336" opacity="0.8"></circle><circle cx="340" cy="308" r="2.3848882174946278" fill="#5675c1" opacity="0.8"></circle><circle cx="146" cy="388" r="2.3819703188799237" fill="#5675c1" opacity="0.8"></circle><circle cx="557" cy="276" r="2.3795776024705804" fill="#ffd336" opacity="0.8"></circle><circle cx="498" cy="273" r="2.3739825825501963" fill="#ffd336" opacity="0.8"></circle><circle cx="285" cy="290" r="2.3651755200375573" fill="#69c487" opacity="0.8"></circle><circle cx="95" cy="422" r="2.3641296270968923" fill="#4d824b" opacity="0.8"></circle><circle cx="269" cy="419" r="2.360213161394858" fill="#4d824b" opacity="0.8"></circle><circle cx="459" cy="240" r="2.34173370043941" fill="#ffd336" opacity="0.8"></circle><circle cx="334" cy="278" r="2.33683896936472" fill="#ffd336" opacity="0.8"></circle><circle cx="261" cy="390" r="2.325478665704701" fill="#5675c1" opacity="0.8"></circle><circle cx="668" cy="213" r="2.3224506433055563" fill="#ffd336" opacity="0.8"></circle><circle cx="275" cy="421" r="2.32183279341643" fill="#d14e5b" opacity="0.8"></circle><circle cx="193" cy="247" r="2.3200771286040855" fill="#ffd336" opacity="0.8"></circle><circle cx="614" cy="214" r="2.2666534161123773" fill="#ffd336" opacity="0.8"></circle><circle cx="547" cy="506" r="2.254690385028221" fill="#d14e5b" opacity="0.8"></circle><circle cx="227" cy="383" r="2.247666409640179" fill="#4d824b" opacity="0.8"></circle><circle cx="555" cy="299" r="2.234598877295937" fill="#d14e5b" opacity="0.8"></circle><circle cx="654" cy="323" r="2.2316382144473734" fill="#ffd336" opacity="0.8"></circle><circle cx="377" cy="321" r="2.210116788870414" fill="#ffd336" opacity="0.8"></circle><circle cx="232" cy="332" r="2.2089531949228105" fill="#a652ba" opacity="0.8"></circle><circle cx="171" cy="379" r="2.2013971938187873" fill="#d14e5b" opacity="0.8"></circle><circle cx="204" cy="420" r="2.1810160288253013" fill="#69c487" opacity="0.8"></circle><circle cx="333" cy="404" r="2.169007649751072" fill="#d14e5b" opacity="0.8"></circle><circle cx="103" cy="504" r="2.165434539087554" fill="#5675c1" opacity="0.8"></circle><circle cx="224" cy="407" r="2.1629074276058176" fill="#d14e5b" opacity="0.8"></circle><circle cx="131" cy="402" r="2.160422052264145" fill="#5675c1" opacity="0.8"></circle><circle cx="329" cy="400" r="2.154521063347934" fill="#4d824b" opacity="0.8"></circle><circle cx="149" cy="443" r="2.1519608837864217" fill="#5675c1" opacity="0.8"></circle><circle cx="215" cy="379" r="2.1404357551829247" fill="#4d824b" opacity="0.8"></circle><circle cx="682" cy="171" r="2.116990557975763" fill="#ffd336" opacity="0.8"></circle><circle cx="235" cy="325" r="2.111072652665901" fill="#d14e5b" opacity="0.8"></circle><circle cx="482" cy="305" r="2.1102775771163853" fill="#ffd336" opacity="0.8"></circle><circle cx="715" cy="213" r="2.106428555414388" fill="#ffd336" opacity="0.8"></circle><circle cx="699" cy="415" r="2.09993368571515" fill="#d14e5b" opacity="0.8"></circle><circle cx="664" cy="258" r="2.082812592238698" fill="#ffd336" opacity="0.8"></circle><circle cx="430" cy="356" r="2.075451459263252" fill="#4d824b" opacity="0.8"></circle><circle cx="75" cy="445" r="2.0646376733337126" fill="#5675c1" opacity="0.8"></circle><circle cx="597" cy="314" r="2.0626469770295723" fill="#ffd336" opacity="0.8"></circle><circle cx="644" cy="283" r="2.0557107072680467" fill="#a652ba" opacity="0.8"></circle><circle cx="121" cy="380" r="2.0467018225180365" fill="#5675c1" opacity="0.8"></circle><circle cx="149" cy="450" r="2.045311529234923" fill="#5675c1" opacity="0.8"></circle><circle cx="286" cy="404" r="2.0453036519349195" fill="#d14e5b" opacity="0.8"></circle><circle cx="441" cy="339" r="2.0427149674075973" fill="#d14e5b" opacity="0.8"></circle><circle cx="275" cy="238" r="2.0116945702006417" fill="#ffd336" opacity="0.8"></circle><circle cx="187" cy="418" r="2.009880740355627" fill="#5675c1" opacity="0.8"></circle><circle cx="405" cy="384" r="2.00837210026656" fill="#4d824b" opacity="0.8"></circle><circle cx="285" cy="292" r="1.9978054230076483" fill="#ffd336" opacity="0.8"></circle><circle cx="419" cy="308" r="1.9924291380370758" fill="#69c487" opacity="0.8"></circle><circle cx="489" cy="318" r="1.9851567570016568" fill="#ffd336" opacity="0.8"></circle><circle cx="295" cy="360" r="1.9828186187931258" fill="#ffd336" opacity="0.8"></circle><circle cx="362" cy="355" r="1.9757564510877648" fill="#d14e5b" opacity="0.8"></circle><circle cx="339" cy="508" r="1.966423675364989" fill="#d14e5b" opacity="0.8"></circle><circle cx="261" cy="325" r="1.9622251661398136" fill="#d14e5b" opacity="0.8"></circle><circle cx="349" cy="343" r="1.9553204081329223" fill="#4d824b" opacity="0.8"></circle><circle cx="385" cy="294" r="1.9334603642677541" fill="#5675c1" opacity="0.8"></circle><circle cx="278" cy="136" r="1.9235823622091957" fill="#5675c1" opacity="0.8"></circle><circle cx="499" cy="320" r="1.9227466514831975" fill="#ffd336" opacity="0.8"></circle><circle cx="413" cy="331" r="1.913583170034322" fill="#5675c1" opacity="0.8"></circle><circle cx="341" cy="342" r="1.9132562335469656" fill="#ffd336" opacity="0.8"></circle><circle cx="519" cy="267" r="1.9117742326706664" fill="#ffd336" opacity="0.8"></circle><circle cx="235" cy="413" r="1.9014145180918223" fill="#5675c1" opacity="0.8"></circle><circle cx="101" cy="459" r="1.8854093674439578" fill="#5675c1" opacity="0.8"></circle><circle cx="449" cy="505" r="1.8708667454116432" fill="#d14e5b" opacity="0.8"></circle><circle cx="516" cy="290" r="1.8684836044535469" fill="#ffd336" opacity="0.8"></circle><circle cx="497" cy="369" r="1.8673637357483448" fill="#5675c1" opacity="0.8"></circle><circle cx="276" cy="261" r="1.8621661448923716" fill="#5675c1" opacity="0.8"></circle><circle cx="179" cy="366" r="1.843581987259546" fill="#5675c1" opacity="0.8"></circle><circle cx="191" cy="335" r="1.839980481186292" fill="#a652ba" opacity="0.8"></circle><circle cx="88" cy="427" r="1.834305303725402" fill="#5675c1" opacity="0.8"></circle><circle cx="378" cy="255" r="1.824182996068211" fill="#ffd336" opacity="0.8"></circle><circle cx="208" cy="289" r="1.8208519407588006" fill="#a652ba" opacity="0.8"></circle><circle cx="352" cy="380" r="1.8181821797763533" fill="#69c487" opacity="0.8"></circle><circle cx="622" cy="324" r="1.8176170072132385" fill="#ffd336" opacity="0.8"></circle><circle cx="361" cy="387" r="1.8163535962296706" fill="#5675c1" opacity="0.8"></circle><circle cx="560" cy="283" r="1.810623184926578" fill="#ffd336" opacity="0.8"></circle><circle cx="496" cy="411" r="1.8064365190378746" fill="#4d824b" opacity="0.8"></circle><circle cx="600" cy="263" r="1.8049449000265656" fill="#ffd336" opacity="0.8"></circle><circle cx="320" cy="354" r="1.8048630201267668" fill="#4d824b" opacity="0.8"></circle><circle cx="304" cy="417" r="1.8047236552066215" fill="#d14e5b" opacity="0.8"></circle><circle cx="577" cy="333" r="1.801290081200719" fill="#4d824b" opacity="0.8"></circle><circle cx="316" cy="396" r="1.8001746429130414" fill="#a652ba" opacity="0.8"></circle><circle cx="374" cy="373" r="1.7955272173847188" fill="#a652ba" opacity="0.8"></circle><circle cx="513" cy="352" r="1.795126157545002" fill="#4d824b" opacity="0.8"></circle><circle cx="227" cy="413" r="1.7948593372682835" fill="#5675c1" opacity="0.8"></circle><circle cx="396" cy="386" r="1.7903548588426874" fill="#4d824b" opacity="0.8"></circle><circle cx="318" cy="394" r="1.7903254660051506" fill="#a652ba" opacity="0.8"></circle><circle cx="209" cy="406" r="1.7902598159426233" fill="#a652ba" opacity="0.8"></circle><circle cx="432" cy="382" r="1.789427845685577" fill="#4d824b" opacity="0.8"></circle><circle cx="408" cy="327" r="1.7891695693577387" fill="#5675c1" opacity="0.8"></circle><circle cx="471" cy="361" r="1.78789189084695" fill="#4d824b" opacity="0.8"></circle><circle cx="253" cy="396" r="1.7848565393392724" fill="#a652ba" opacity="0.8"></circle><circle cx="242" cy="408" r="1.7841398382183826" fill="#a652ba" opacity="0.8"></circle><circle cx="258" cy="427" r="1.7834973945434578" fill="#a652ba" opacity="0.8"></circle><text x="346" y="346.1587588384723" font-size="14.3" font-family="Arial Narrow, Arial, sans-serif" fill="#666">China</text><text x="603" y="324.2241789006262" font-size="11.773166237378986" font-family="Arial Narrow, Arial, sans-serif" fill="#666">United States</text><text x="311" y="424.22284952144867" font-size="11.600054362026198" font-family="Arial Narrow, Arial, sans-serif" fill="#666">Indonesia</text><text x="338" y="271.96035514424676" font-size="11.485622165130406" font-family="Arial Narrow, Arial, sans-serif" fill="#666">Brazil</text><text x="217" y="426.24368950368586" font-size="11.444688593348184" font-family="Arial Narrow, Arial, sans-serif" fill="#666">Pakistan</text><text x="214" y="445.75720656581217" font-size="11.374785416701721" font-family="Arial Narrow, Arial, sans-serif" fill="#666">Bangladesh</text><text x="291" y="288.9809754264495" font-size="11.34605227368576" font-family="Arial Narrow, Arial, sans-serif" fill="#666">Russia</text><text x="619" y="300.30173394874964" font-size="11.30669418283042" font-family="Arial Narrow, Arial, sans-serif" fill="#666">Japan</text><text x="403" y="383.4850459555498" font-size="11.28516884994304" font-family="Arial Narrow, Arial, sans-serif" fill="#666">Mexico</text><text x="301" y="373.08096766286945" font-size="11.22005579242115" font-family="Arial Narrow, Arial, sans-serif" fill="#666">Vietnam</text><text x="606" y="249.29418100814058" font-size="11.198565761912471" font-family="Arial Narrow, Arial, sans-serif" fill="#666">Germany</text><text x="413" y="301.4557062174808" font-size="11.182919306815785" font-family="Arial Narrow, Arial, sans-serif" fill="#666">Turkey</text><text x="598" y="191.76124549514884" font-size="11.154817066976277" font-family="Arial Narrow, Arial, sans-serif" fill="#666">France</text><text x="598" y="276.77783711487353" font-size="11.15334700766249" font-family="Arial Narrow, Arial, sans-serif" fill="#666">United Kingdom</text><text x="427" y="206.8356089601265" font-size="11.148273265411195" font-family="Arial Narrow, Arial, sans-serif" fill="#666">Italy</text><text x="415" y="314.1271064833222" font-size="11.123739012856845" font-family="Arial Narrow, Arial, sans-serif" fill="#666">South Africa</text><text x="358" y="366.2123183581667" font-size="11.116903200754889" font-family="Arial Narrow, Arial, sans-serif" fill="#666">Colombia</text><text x="543" y="279.24682980699004" font-size="11.114177913925104" font-family="Arial Narrow, Arial, sans-serif" fill="#666">Spain</text><text x="242" y="244.31999067761532" font-size="11.108483066351877" font-family="Arial Narrow, Arial, sans-serif" fill="#666">Ukraine</text><text x="272" y="399.3444198100719" font-size="11.106606466476286" font-family="Arial Narrow, Arial, sans-serif" fill="#666">Kenya</text><text x="303" y="303.42293862386447" font-size="11.100659447957502" font-family="Arial Narrow, Arial, sans-serif" fill="#666">Argentina</text><text x="470" y="283.5262487663384" font-size="11.093031446787446" font-family="Arial Narrow, Arial, sans-serif" fill="#666">Poland</text><text x="98" y="464.60696459439055" font-size="11.08722726671321" font-family="Arial Narrow, Arial, sans-serif" fill="#666">Sudan</text><text x="112" y="452.6565528681194" font-size="11.083729097638168" font-family="Arial Narrow, Arial, sans-serif" fill="#666">Afghanistan</text><text x="196" y="400.76095242841103" font-size="11.076532656031077" font-family="Arial Narrow, Arial, sans-serif" fill="#666">Nepal</text><text x="536" y="397.82413207946394" font-size="11.072288446850882" font-family="Arial Narrow, Arial, sans-serif" fill="#666">Malaysia</text><text x="361" y="499.8412516175661" font-size="11.071152806082054" font-family="Arial Narrow, Arial, sans-serif" fill="#666">Saudi Arabia</text><text x="195" y="307.87523957531477" font-size="11.068916372959082" font-family="Arial Narrow, Arial, sans-serif" fill="#666">Uzbekistan</text><text x="329" y="408.9604879739789" font-size="11.063413408938155" font-family="Arial Narrow, Arial, sans-serif" fill="#666">Ghana</text><text x="248" y="348.00284628654043" font-size="11.060735693653761" font-family="Arial Narrow, Arial, sans-serif" fill="#666">Mozambique</text><text x="339" y="318.1491000814197" font-size="11.051779012617791" font-family="Arial Narrow, Arial, sans-serif" fill="#666">Romania</text><text x="199" y="414.1664411467097" font-size="11.050746742127304" font-family="Arial Narrow, Arial, sans-serif" fill="#666">Cameroon</text><text x="143" y="232.17459734757637" font-size="11.050263401534371" font-family="Arial Narrow, Arial, sans-serif" fill="#666">Angola</text><text x="560" y="381.30649338694286" font-size="11.042640617309152" font-family="Arial Narrow, Arial, sans-serif" fill="#666">Chile</text><text x="262" y="375.3572129433159" font-size="11.039806330561623" font-family="Arial Narrow, Arial, sans-serif" fill="#666">Malawi</text><text x="153" y="331.49589447076926" font-size="11.032331655133317" font-family="Arial Narrow, Arial, sans-serif" fill="#666">Zimbabwe</text><text x="113" y="396.55140970633005" font-size="11.02945238467809" font-family="Arial Narrow, Arial, sans-serif" fill="#666">Chad</text><text x="427" y="274.58459015807773" font-size="11.027762315463516" font-family="Arial Narrow, Arial, sans-serif" fill="#666">Greece</text><text x="146" y="384.61802968112005" font-size="11.026082379114348" font-family="Arial Narrow, Arial, sans-serif" fill="#666">Guinea</text><text x="95" y="418.6358703729031" font-size="11.025195678135388" font-family="Arial Narrow, Arial, sans-serif" fill="#666">Haiti</text><text x="459" y="236.65826629956058" font-size="11.024092013912583" font-family="Arial Narrow, Arial, sans-serif" fill="#666">Hungary</text><text x="261" y="386.6745213342953" font-size="11.023297550169138" font-family="Arial Narrow, Arial, sans-serif" fill="#666">Benin</text><text x="668" y="209.67754935669444" font-size="11.023150167229135" font-family="Arial Narrow, Arial, sans-serif" fill="#666">Sweden</text><text x="193" y="243.67992287139592" font-size="11.023034775400848" font-family="Arial Narrow, Arial, sans-serif" fill="#666">Belarus</text><text x="614" y="210.73334658388762" font-size="11.020468720700341" font-family="Arial Narrow, Arial, sans-serif" fill="#666">Austria</text><text x="547" y="502.7453096149718" font-size="11.019902302263645" font-family="Arial Narrow, Arial, sans-serif" fill="#666">United Arab Emirates</text><text x="555" y="295.7654011227041" font-size="11.018957765782673" font-family="Arial Narrow, Arial, sans-serif" fill="#666">Israel</text><text x="232" y="328.7910468050772" font-size="11.017764401182127" font-family="Arial Narrow, Arial, sans-serif" fill="#666">Papua New Guinea</text><text x="103" y="500.8345654609125" font-size="11.015770877653125" font-family="Arial Narrow, Arial, sans-serif" fill="#666">Libya</text><text x="329" y="396.84547893665206" font-size="11.015277168716125" font-family="Arial Narrow, Arial, sans-serif" fill="#666">El Salvador</text><text x="149" y="439.84803911621356" font-size="11.01516171134223" font-family="Arial Narrow, Arial, sans-serif" fill="#666">Sierra Leone</text><text x="637.2847905549345" y="167.88300944202425" font-size="11.013598385484126" font-family="Arial Narrow, Arial, sans-serif" fill="#666">Denmark</text><text x="482" y="301.8897224228836" font-size="11.013301216265178" font-family="Arial Narrow, Arial, sans-serif" fill="#666">Slovakia</text><text x="648.5611691577382" y="411.90006631428486" font-size="11.012845162065908" font-family="Arial Narrow, Arial, sans-serif" fill="#666">Singapore</text><text x="664" y="254.91718740776128" font-size="11.012095230493756" font-family="Arial Narrow, Arial, sans-serif" fill="#666">Norway</text><text x="430" y="352.92454854073674" font-size="11.011774688196676" font-family="Arial Narrow, Arial, sans-serif" fill="#666">Costa Rica</text><text x="441" y="335.9572850325924" font-size="11.01036291592131" font-family="Arial Narrow, Arial, sans-serif" fill="#666">Georgia</text><text x="489" y="315.0148432429983" font-size="11.007935123610896" font-family="Arial Narrow, Arial, sans-serif" fill="#666">Lithuania</text><text x="278" y="147.80541474691603" font-size="11.005414746916008" font-family="Arial Narrow, Arial, sans-serif" fill="#666">Lesotho</text><text x="519" y="264.08822576732933" font-size="11.004940488031144" font-family="Arial Narrow, Arial, sans-serif" fill="#666">Slovenia</text><text x="449" y="502.12913325458834" font-size="11.003320071948863" font-family="Arial Narrow, Arial, sans-serif" fill="#666">Bahrain</text><text x="497" y="366.13263626425163" font-size="11.003182940827402" font-family="Arial Narrow, Arial, sans-serif" fill="#666">Mauritius</text><text x="276" y="258.1378338551076" font-size="11.002979946080817" font-family="Arial Narrow, Arial, sans-serif" fill="#666">Swaziland</text><text x="179" y="363.15641801274046" font-size="11.002258759898998" font-family="Arial Narrow, Arial, sans-serif" fill="#666">Djibouti</text><text x="378" y="252.1758170039318" font-size="11.001513668991347" font-family="Arial Narrow, Arial, sans-serif" fill="#666">Montenegro</text><text x="208" y="286.1791480592412" font-size="11.001386520223157" font-family="Arial Narrow, Arial, sans-serif" fill="#666">Solomon Islands</text><text x="513" y="349.204873842455" font-size="11.000412376548491" font-family="Arial Narrow, Arial, sans-serif" fill="#666">Saint Lucia</text></g><g style="cursor: pointer;" class="ScatterColorLegend clickable"><g class="legendMark"><rect x="735" y="134.3" width="43.256" height="17.6" fill="#fff" opacity="0"></rect>,<rect x="735" y="139.8" width="6" height="6" fill="#5675c1"></rect>,<text font-size="12.60" x="746.0" y="146.9"><tspan x="746" y="146.88">Africa</tspan></text></g><g class="legendMark"><rect x="735" y="151.9" width="35.57" height="17.6" fill="#fff" opacity="0"></rect>,<rect x="735" y="157.4" width="6" height="6" fill="#d14e5b"></rect>,<text font-size="12.60" x="746.0" y="164.5"><tspan x="746" y="164.48">Asia</tspan></text></g><g class="legendMark"><rect x="735" y="169.5" width="51.824" height="17.6" fill="#fff" opacity="0"></rect>,<rect x="735" y="175" width="6" height="6" fill="#ffd336"></rect>,<text font-size="12.60" x="746.0" y="182.1"><tspan x="746" y="182.07999999999998">Europe</tspan></text></g><g class="legendMark"><rect x="735" y="187.10000000000002" width="91.64" height="17.6" fill="#fff" opacity="0"></rect>,<rect x="735" y="192.60000000000002" width="6" height="6" fill="#4d824b"></rect>,<text font-size="12.60" x="746.0" y="199.7"><tspan x="746" y="199.68">North America</tspan></text></g><g class="legendMark"><rect x="735" y="204.70000000000002" width="58.124" height="17.6" fill="#fff" opacity="0"></rect>,<rect x="735" y="210.20000000000002" width="6" height="6" fill="#a652ba"></rect>,<text font-size="12.60" x="746.0" y="217.3"><tspan x="746" y="217.28">Oceania</tspan></text></g><g class="legendMark"><rect x="735" y="222.3" width="93.908" height="17.6" fill="#fff" opacity="0"></rect>,<rect x="735" y="227.8" width="6" height="6" fill="#69c487"></rect>,<text font-size="12.60" x="746.0" y="234.9"><tspan x="746" y="234.88">South America</tspan></text></g></g></g><g style="fill: #777;" class="SourcesFooter"><g style="fill: #777;" class="clickable"><text font-size="12.60" x="15.0" y="581.6"><tspan x="15" y="581.58">Source: ICTD, Worldbank via the Quality of Government dataset</tspan></text></g><text font-size="12.60" x="649.0" y="581.6"><tspan x="649.024" y="581.58"><a target='_blank' style='fill: #777;' href='https://ourworldindata.org'>OurWorldInData.org</a> • <a style="fill: #777;" href="http://creativecommons.org/licenses/by-sa/4.0/deed.en_US" target="_blank">CC BY-SA</a></tspan></text></g></g></svg>