<svg xmlns="http://www.w3.org/2000/svg" version="1.1" style="font-family: 'Helvetica Neue', Helvetica, Arial, sans-serif; font-size: 18px; background-color: white; text-rendering: optimizeLegibility; -webkit-font-smoothing: antialiased;" width="850" height="600"><g class="ChartTab"><g class="HeaderView"><g opacity="0.8" transform="translate(770, 15) scale(0.31)"><a xmlns:xlink="http://www.w3.org/1999/xlink" xlink:href="https://ourworldindata.org" target="_blank"><g><rect x="0" y="0" fill="#1B2543" width="211.2" height="130.1"/><rect x="0" y="112.2" fill="#E63912" width="211.2" height="17.9"/><g><rect x="1.2" y="12.3" fill="none" width="210.2" height="99.2"/><path fill="#FFFFFF" d="M37.8,32.2c0,12.7-7.7,19.4-17.1,19.4c-9.7,0-16.6-7.5-16.6-18.7c0-11.7,7.3-19.3,17.1-19.3 C31.3,13.7,37.8,21.3,37.8,32.2z M9.2,32.8c0,7.9,4.3,14.9,11.8,14.9c7.5,0,11.8-6.9,11.8-15.3c0-7.3-3.8-14.9-11.8-14.9 C13.1,17.5,9.2,24.8,9.2,32.8z"/><path fill="#FFFFFF" d="M62.7,43.8c0,2.7,0.1,5.1,0.2,7.2h-4.3l-0.3-4.3h-0.1c-1.3,2.1-4,4.9-8.8,4.9c-4.2,0-9.1-2.3-9.1-11.6 V24.6h4.8v14.6c0,5,1.5,8.4,5.9,8.4c3.2,0,5.5-2.2,6.3-4.4c0.3-0.7,0.4-1.6,0.4-2.5V24.6h4.8V43.8z"/><path fill="#FFFFFF" d="M67.3,32.8c0-3.1-0.1-5.8-0.2-8.2h4.2l0.2,5.2h0.2c1.2-3.5,4.1-5.8,7.3-5.8c0.5,0,0.9,0.1,1.4,0.2v4.5 c-0.5-0.1-1-0.2-1.6-0.2c-3.4,0-5.8,2.6-6.5,6.2c-0.1,0.7-0.2,1.4-0.2,2.2V51h-4.8V32.8z"/><path fill="#FFFFFF" d="M95.4,51l-9.4-36.8h5l4.4,18.6c1.1,4.6,2.1,9.2,2.7,12.7h0.1c0.6-3.7,1.8-8,3-12.8l4.9-18.5h5l4.5,18.7 c1,4.4,2,8.7,2.6,12.6h0.1c0.8-4,1.8-8.1,3-12.7l4.9-18.5h4.9L120.6,51h-5L111,31.9c-1.1-4.7-1.9-8.3-2.4-12h-0.1 c-0.7,3.7-1.5,7.3-2.8,12L100.4,51H95.4z"/><path fill="#FFFFFF" d="M154.9,37.6c0,9.8-6.8,14-13.2,14c-7.2,0-12.7-5.2-12.7-13.6c0-8.8,5.8-14,13.1-14 C149.8,24,154.9,29.5,154.9,37.6z M133.9,37.9c0,5.8,3.3,10.1,8,10.1c4.6,0,8-4.3,8-10.3c0-4.5-2.2-10.1-7.9-10.1 C136.3,27.6,133.9,32.8,133.9,37.9z"/><path fill="#FFFFFF" d="M158.2,32.8c0-3.1-0.1-5.8-0.2-8.2h4.2l0.2,5.2h0.2c1.2-3.5,4.1-5.8,7.3-5.8c0.5,0,0.9,0.1,1.4,0.2v4.5 c-0.5-0.1-1-0.2-1.6-0.2c-3.4,0-5.8,2.6-6.5,6.2c-0.1,0.7-0.2,1.4-0.2,2.2V51h-4.8V32.8z"/><path fill="#FFFFFF" d="M173.5,12.3h4.8V51h-4.8V12.3z"/><path fill="#FFFFFF" d="M206.5,12.3v31.9c0,2.3,0.1,5,0.2,6.8h-4.3l-0.2-4.6H202c-1.5,2.9-4.7,5.2-9,5.2 c-6.4,0-11.3-5.4-11.3-13.4c-0.1-8.8,5.4-14.2,11.9-14.2c4,0,6.8,1.9,8,4h0.1V12.3H206.5z M201.7,35.4c0-0.6-0.1-1.4-0.2-2 c-0.7-3.1-3.3-5.6-6.9-5.6c-5,0-7.9,4.4-7.9,10.2c0,5.3,2.6,9.8,7.8,9.8c3.2,0,6.2-2.1,7.1-5.7c0.2-0.7,0.2-1.3,0.2-2.1V35.4z"/><path fill="#FFFFFF" d="M42.8,64c0.1,1.6-1.1,2.9-3.1,2.9c-1.7,0-2.9-1.3-2.9-2.9c0-1.7,1.3-3,3-3C41.7,61,42.8,62.3,42.8,64z M37.4,97.8V71.4h4.8v26.4H37.4z"/><path fill="#FFFFFF" d="M47.5,78.6c0-2.7-0.1-5-0.2-7.1h4.3l0.3,4.4h0.1c1.3-2.5,4.4-5,8.8-5c3.7,0,9.4,2.2,9.4,11.2v15.8h-4.8 V82.6c0-4.3-1.6-7.8-6.1-7.8c-3.2,0-5.6,2.2-6.5,4.9c-0.2,0.6-0.3,1.4-0.3,2.2v15.9h-4.8V78.6z"/><path fill="#FFFFFF" d="M84,61.6c2.9-0.4,6.3-0.8,10.1-0.8c6.8,0,11.7,1.6,14.9,4.6c3.3,3,5.2,7.3,5.2,13.2c0,6-1.9,10.9-5.3,14.3 c-3.4,3.4-9.1,5.3-16.3,5.3c-3.4,0-6.2-0.2-8.6-0.4V61.6z M88.8,94.1c1.2,0.2,3,0.3,4.8,0.3c10.2,0,15.7-5.7,15.7-15.6 c0.1-8.7-4.9-14.2-14.9-14.2c-2.5,0-4.3,0.2-5.6,0.5V94.1z"/><path fill="#FFFFFF" d="M132.1,97.8l-0.4-3.3h-0.2c-1.5,2.1-4.3,3.9-8.1,3.9c-5.4,0-8.1-3.8-8.1-7.6c0-6.4,5.7-9.9,15.9-9.8v-0.5 c0-2.2-0.6-6.1-6-6.1c-2.5,0-5,0.8-6.9,2l-1.1-3.2c2.2-1.4,5.4-2.3,8.7-2.3c8.1,0,10.1,5.5,10.1,10.8v9.9c0,2.3,0.1,4.5,0.4,6.3 H132.1z M131.4,84.4c-5.3-0.1-11.2,0.8-11.2,5.9c0,3.1,2.1,4.6,4.5,4.6c3.4,0,5.6-2.2,6.4-4.4c0.2-0.5,0.3-1,0.3-1.5V84.4z"/><path fill="#FFFFFF" d="M146.6,63.9v7.6h6.9v3.7h-6.9v14.2c0,3.3,0.9,5.1,3.6,5.1c1.3,0,2.2-0.2,2.8-0.3l0.2,3.6 c-0.9,0.4-2.4,0.7-4.3,0.7c-2.2,0-4-0.7-5.2-2c-1.4-1.4-1.9-3.8-1.9-6.9V75.1h-4.1v-3.7h4.1v-6.3L146.6,63.9z"/><path fill="#FFFFFF" d="M171.4,97.8l-0.4-3.3h-0.2c-1.5,2.1-4.3,3.9-8.1,3.9c-5.4,0-8.1-3.8-8.1-7.6c0-6.4,5.7-9.9,15.9-9.8v-0.5 c0-2.2-0.6-6.1-6-6.1c-2.5,0-5,0.8-6.9,2l-1.1-3.2c2.2-1.4,5.4-2.3,8.7-2.3c8.1,0,10.1,5.5,10.1,10.8v9.9c0,2.3,0.1,4.5,0.4,6.3 H171.4z M170.7,84.4c-5.3-0.1-11.2,0.8-11.2,5.9c0,3.1,2.1,4.6,4.5,4.6c3.4,0,5.6-2.2,6.4-4.4c0.2-0.5,0.3-1,0.3-1.5V84.4z"/></g></g></a></g><a href="https://ourworldindata.org/grapher/total-cancer-deaths-by-type" target="_blank"><text font-size="27.00" x="15.0" y="36.6" fill="#555"><tspan x="15" y="36.6">Cancer deaths by type, World, 2016</tspan></text></a><text font-size="14.40" x="15.0" y="55.5" fill="#666"><tspan x="15" y="55.519999999999996">Total annual number of deaths from cancers across all ages and both sexes, broken down by cancer type. </tspan></text></g><g class="DiscreteBarChart"><rect x="15" y="78.4" width="810" height="478.1" opacity="0" fill="rgba(255,255,255,0)"></rect><g class="HorizontalAxis"><text x="252.2" y="556.5" fill="#666" text-anchor="middle" font-size="16.2">0</text><text x="311.3" y="556.5" fill="#666" text-anchor="middle" font-size="16.2">200,000</text><text x="429.5" y="556.5" fill="#666" text-anchor="middle" font-size="16.2">600,000</text><text x="547.7" y="556.5" fill="#666" text-anchor="middle" font-size="16.2">1 million</text><text x="725" y="556.5" fill="#666" text-anchor="middle" font-size="16.2">1.6 million</text></g><g class="AxisGridLines"><line x1="252.2" y1="535.30" x2="252.2" y2="78.40" stroke="#ccc"></line><line x1="311.3" y1="535.30" x2="311.3" y2="78.40" stroke="#ddd" stroke-dasharray="3,2"></line><line x1="370.4" y1="535.30" x2="370.4" y2="78.40" stroke="#ddd" stroke-dasharray="3,2"></line><line x1="429.5" y1="535.30" x2="429.5" y2="78.40" stroke="#ddd" stroke-dasharray="3,2"></line><line x1="488.6" y1="535.30" x2="488.6" y2="78.40" stroke="#ddd" stroke-dasharray="3,2"></line><line x1="547.7" y1="535.30" x2="547.7" y2="78.40" stroke="#ddd" stroke-dasharray="3,2"></line><line x1="606.8" y1="535.30" x2="606.8" y2="78.40" stroke="#ddd" stroke-dasharray="3,2"></line><line x1="665.9" y1="535.30" x2="665.9" y2="78.40" stroke="#ddd" stroke-dasharray="3,2"></line><line x1="725" y1="535.30" x2="725" y2="78.40" stroke="#ddd" stroke-dasharray="3,2"></line></g><g class="bar"><text x="247.15" y="86.34608695652175" fill="#666" dominant-baseline="middle" text-anchor="end" font-size="13.5">Tracheal, bronchus, and lung cancer</text><rect x="252.2" y="78.4" width="504.40000000000003" height="15.89217391304348" fill="#F2585B" opacity="0.85"></rect><text x="761.6" y="86.34608695652175" fill="#666" dominant-baseline="middle" text-anchor="start" font-size="13.5">1.71 million</text></g><g class="bar"><text x="247.15" y="106.21130434782609" fill="#666" dominant-baseline="middle" text-anchor="end" font-size="13.5">Stomach cancer</text><rect x="252.2" y="98.26521739130435" width="246.5" height="15.89217391304348" fill="#F2585B" opacity="0.85"></rect><text x="503.7" y="106.21130434782609" fill="#666" dominant-baseline="middle" text-anchor="start" font-size="13.5">834,170.98</text></g><g class="bar"><text x="247.15" y="126.07652173913044" fill="#666" dominant-baseline="middle" text-anchor="end" font-size="13.5">Colon and rectum cancer</text><rect x="252.2" y="118.1304347826087" width="245.10000000000002" height="15.89217391304348" fill="#F2585B" opacity="0.85"></rect><text x="502.3" y="126.07652173913044" fill="#666" dominant-baseline="middle" text-anchor="start" font-size="13.5">829,557.13</text></g><g class="bar"><text x="247.15" y="145.9417391304348" fill="#666" dominant-baseline="middle" text-anchor="end" font-size="13.5">Liver cancer</text><rect x="252.2" y="137.99565217391304" width="244.90000000000003" height="15.89217391304348" fill="#F2585B" opacity="0.85"></rect><text x="502.1" y="145.9417391304348" fill="#666" dominant-baseline="middle" text-anchor="start" font-size="13.5">828,944.65</text></g><g class="bar"><text x="247.15" y="165.80695652173915" fill="#666" dominant-baseline="middle" text-anchor="end" font-size="13.5">Breast cancer</text><rect x="252.2" y="157.8608695652174" width="161.2" height="15.89217391304348" fill="#F2585B" opacity="0.85"></rect><text x="418.4" y="165.80695652173915" fill="#666" dominant-baseline="middle" text-anchor="start" font-size="13.5">545,589.8</text></g><g class="bar"><text x="247.15" y="185.6721739130435" fill="#666" dominant-baseline="middle" text-anchor="end" font-size="13.5">Esophageal cancer</text><rect x="252.2" y="177.72608695652175" width="122.60000000000002" height="15.89217391304348" fill="#F2585B" opacity="0.85"></rect><text x="379.8" y="185.6721739130435" fill="#666" dominant-baseline="middle" text-anchor="start" font-size="13.5">414,890.49</text></g><g class="bar"><text x="247.15" y="205.53739130434786" fill="#666" dominant-baseline="middle" text-anchor="end" font-size="13.5">Pancreatic cancer</text><rect x="252.2" y="197.5913043478261" width="119.80000000000001" height="15.89217391304348" fill="#F2585B" opacity="0.85"></rect><text x="377" y="205.53739130434786" fill="#666" dominant-baseline="middle" text-anchor="start" font-size="13.5">405,498.92</text></g><g class="bar"><text x="247.15" y="225.40260869565222" fill="#666" dominant-baseline="middle" text-anchor="end" font-size="13.5">Prostate cancer</text><rect x="252.2" y="217.45652173913047" width="112.5" height="15.89217391304348" fill="#F2585B" opacity="0.85"></rect><text x="369.7" y="225.40260869565222" fill="#666" dominant-baseline="middle" text-anchor="start" font-size="13.5">380,915.57</text></g><g class="bar"><text x="247.15" y="245.26782608695657" fill="#666" dominant-baseline="middle" text-anchor="end" font-size="13.5">Cervical cancer</text><rect x="252.2" y="237.32173913043482" width="73" height="15.89217391304348" fill="#F2585B" opacity="0.85"></rect><text x="330.2" y="245.26782608695657" fill="#666" dominant-baseline="middle" text-anchor="start" font-size="13.5">247,160.2</text></g><g class="bar"><text x="247.15" y="265.1330434782609" fill="#666" dominant-baseline="middle" text-anchor="end" font-size="13.5">Brain and nervous system cancer</text><rect x="252.2" y="257.18695652173915" width="67" height="15.89217391304348" fill="#F2585B" opacity="0.85"></rect><text x="324.2" y="265.1330434782609" fill="#666" dominant-baseline="middle" text-anchor="start" font-size="13.5">227,038.63</text></g><g class="bar"><text x="247.15" y="284.99826086956523" fill="#666" dominant-baseline="middle" text-anchor="end" font-size="13.5">Bladder cancer</text><rect x="252.2" y="277.0521739130435" width="55" height="15.89217391304348" fill="#F2585B" opacity="0.85"></rect><text x="312.2" y="284.99826086956523" fill="#666" dominant-baseline="middle" text-anchor="start" font-size="13.5">186,198.61</text></g><g class="bar"><text x="247.15" y="304.86347826086956" fill="#666" dominant-baseline="middle" text-anchor="end" font-size="13.5">Lip and oral cavity cancer</text><rect x="252.2" y="296.9173913043478" width="52.10000000000002" height="15.89217391304348" fill="#F2585B" opacity="0.85"></rect><text x="309.3" y="304.86347826086956" fill="#666" dominant-baseline="middle" text-anchor="start" font-size="13.5">176,489.47</text></g><g class="bar"><text x="247.15" y="324.7286956521739" fill="#666" dominant-baseline="middle" text-anchor="end" font-size="13.5">Ovarian cancer</text><rect x="252.2" y="316.78260869565213" width="48.69999999999999" height="15.89217391304348" fill="#F2585B" opacity="0.85"></rect><text x="305.9" y="324.7286956521739" fill="#666" dominant-baseline="middle" text-anchor="start" font-size="13.5">165,040.9</text></g><g class="bar"><text x="247.15" y="344.5939130434782" fill="#666" dominant-baseline="middle" text-anchor="end" font-size="13.5">Gallbladder and biliary tract cancer</text><rect x="252.2" y="336.64782608695646" width="47.69999999999999" height="15.89217391304348" fill="#F2585B" opacity="0.85"></rect><text x="304.9" y="344.5939130434782" fill="#666" dominant-baseline="middle" text-anchor="start" font-size="13.5">161,559.97</text></g><g class="bar"><text x="247.15" y="364.45913043478254" fill="#666" dominant-baseline="middle" text-anchor="end" font-size="13.5">Kidney cancer</text><rect x="252.2" y="356.5130434782608" width="38.900000000000034" height="15.89217391304348" fill="#F2585B" opacity="0.85"></rect><text x="296.1" y="364.45913043478254" fill="#666" dominant-baseline="middle" text-anchor="start" font-size="13.5">131,799.62</text></g><g class="bar"><text x="247.15" y="384.32434782608686" fill="#666" dominant-baseline="middle" text-anchor="end" font-size="13.5">Other pharynx cancer</text><rect x="252.2" y="376.3782608695651" width="35" height="15.89217391304348" fill="#F2585B" opacity="0.85"></rect><text x="292.2" y="384.32434782608686" fill="#666" dominant-baseline="middle" text-anchor="start" font-size="13.5">118,629.99</text></g><g class="bar"><text x="247.15" y="404.1895652173912" fill="#666" dominant-baseline="middle" text-anchor="end" font-size="13.5">Larynx cancer</text><rect x="252.2" y="396.24347826086944" width="32.80000000000001" height="15.89217391304348" fill="#F2585B" opacity="0.85"></rect><text x="290" y="404.1895652173912" fill="#666" dominant-baseline="middle" text-anchor="start" font-size="13.5">111,043.78</text></g><g class="bar"><text x="247.15" y="424.0547826086955" fill="#666" dominant-baseline="middle" text-anchor="end" font-size="13.5">Uterine cancer</text><rect x="252.2" y="416.10869565217376" width="25.80000000000001" height="15.89217391304348" fill="#F2585B" opacity="0.85"></rect><text x="283" y="424.0547826086955" fill="#666" dominant-baseline="middle" text-anchor="start" font-size="13.5">87,525.54</text></g><g class="bar"><text x="247.15" y="443.91999999999985" fill="#666" dominant-baseline="middle" text-anchor="end" font-size="13.5">Nasopharynx cancer</text><rect x="252.2" y="435.9739130434781" width="18.80000000000001" height="15.89217391304348" fill="#F2585B" opacity="0.85"></rect><text x="276" y="443.91999999999985" fill="#666" dominant-baseline="middle" text-anchor="start" font-size="13.5">63,745.9</text></g><g class="bar"><text x="247.15" y="463.7852173913042" fill="#666" dominant-baseline="middle" text-anchor="end" font-size="13.5">Malignant skin melanoma</text><rect x="252.2" y="455.8391304347824" width="18.19999999999999" height="15.89217391304348" fill="#F2585B" opacity="0.85"></rect><text x="275.4" y="463.7852173913042" fill="#666" dominant-baseline="middle" text-anchor="start" font-size="13.5">61,679.78</text></g><g class="bar"><text x="247.15" y="483.6504347826085" fill="#666" dominant-baseline="middle" text-anchor="end" font-size="13.5">Non-melanoma skin cancer</text><rect x="252.2" y="475.70434782608675" width="15.600000000000023" height="15.89217391304348" fill="#F2585B" opacity="0.85"></rect><text x="272.8" y="483.6504347826085" fill="#666" dominant-baseline="middle" text-anchor="start" font-size="13.5">53,059.27</text></g><g class="bar"><text x="247.15" y="503.5156521739128" fill="#666" dominant-baseline="middle" text-anchor="end" font-size="13.5">Thyroid cancer</text><rect x="252.2" y="495.5695652173911" width="12.600000000000023" height="15.89217391304348" fill="#F2585B" opacity="0.85"></rect><text x="269.8" y="503.5156521739128" fill="#666" dominant-baseline="middle" text-anchor="start" font-size="13.5">42,861.25</text></g><g class="bar"><text x="247.15" y="523.3808695652172" fill="#666" dominant-baseline="middle" text-anchor="end" font-size="13.5">Testicular cancer</text><rect x="252.2" y="515.4347826086954" width="2.5" height="15.89217391304348" fill="#F2585B" opacity="0.85"></rect><text x="259.7" y="523.3808695652172" fill="#666" dominant-baseline="middle" text-anchor="start" font-size="13.5">8,650.92</text></g></g><g style="fill: #777;" class="SourcesFooter"><g style="fill: #777;" class="clickable"><text font-size="12.60" x="15.0" y="581.6"><tspan x="15" y="581.58">Source: IHME, Global Burden of Disease (GBD)</tspan></text></g><text font-size="12.60" x="649.0" y="581.6"><tspan x="649.024" y="581.58"><a target='_blank' style='fill: #777;' href='https://ourworldindata.org'>OurWorldInData.org</a> • <a style="fill: #777;" href="http://creativecommons.org/licenses/by-sa/4.0/deed.en_US" target="_blank">CC BY-SA</a></tspan></text></g></g></svg>