<svg xmlns="http://www.w3.org/2000/svg" version="1.1" style="font-family: 'Helvetica Neue', Helvetica, Arial, sans-serif; font-size: 18px; background-color: white; text-rendering: optimizeLegibility; -webkit-font-smoothing: antialiased;" width="850" height="600"><g class="ChartTab"><g class="HeaderView"><g opacity="0.8" transform="translate(778, 15) scale(0.27)"><a xmlns:xlink="http://www.w3.org/1999/xlink" xlink:href="https://ourworldindata.org" target="_blank"><g><rect x="0" y="0" fill="#1B2543" width="211.2" height="130.1"/><rect x="0" y="112.2" fill="#E63912" width="211.2" height="17.9"/><g><rect x="1.2" y="12.3" fill="none" width="210.2" height="99.2"/><path fill="#FFFFFF" d="M37.8,32.2c0,12.7-7.7,19.4-17.1,19.4c-9.7,0-16.6-7.5-16.6-18.7c0-11.7,7.3-19.3,17.1-19.3 C31.3,13.7,37.8,21.3,37.8,32.2z M9.2,32.8c0,7.9,4.3,14.9,11.8,14.9c7.5,0,11.8-6.9,11.8-15.3c0-7.3-3.8-14.9-11.8-14.9 C13.1,17.5,9.2,24.8,9.2,32.8z"/><path fill="#FFFFFF" d="M62.7,43.8c0,2.7,0.1,5.1,0.2,7.2h-4.3l-0.3-4.3h-0.1c-1.3,2.1-4,4.9-8.8,4.9c-4.2,0-9.1-2.3-9.1-11.6 V24.6h4.8v14.6c0,5,1.5,8.4,5.9,8.4c3.2,0,5.5-2.2,6.3-4.4c0.3-0.7,0.4-1.6,0.4-2.5V24.6h4.8V43.8z"/><path fill="#FFFFFF" d="M67.3,32.8c0-3.1-0.1-5.8-0.2-8.2h4.2l0.2,5.2h0.2c1.2-3.5,4.1-5.8,7.3-5.8c0.5,0,0.9,0.1,1.4,0.2v4.5 c-0.5-0.1-1-0.2-1.6-0.2c-3.4,0-5.8,2.6-6.5,6.2c-0.1,0.7-0.2,1.4-0.2,2.2V51h-4.8V32.8z"/><path fill="#FFFFFF" d="M95.4,51l-9.4-36.8h5l4.4,18.6c1.1,4.6,2.1,9.2,2.7,12.7h0.1c0.6-3.7,1.8-8,3-12.8l4.9-18.5h5l4.5,18.7 c1,4.4,2,8.7,2.6,12.6h0.1c0.8-4,1.8-8.1,3-12.7l4.9-18.5h4.9L120.6,51h-5L111,31.9c-1.1-4.7-1.9-8.3-2.4-12h-0.1 c-0.7,3.7-1.5,7.3-2.8,12L100.4,51H95.4z"/><path fill="#FFFFFF" d="M154.9,37.6c0,9.8-6.8,14-13.2,14c-7.2,0-12.7-5.2-12.7-13.6c0-8.8,5.8-14,13.1-14 C149.8,24,154.9,29.5,154.9,37.6z M133.9,37.9c0,5.8,3.3,10.1,8,10.1c4.6,0,8-4.3,8-10.3c0-4.5-2.2-10.1-7.9-10.1 C136.3,27.6,133.9,32.8,133.9,37.9z"/><path fill="#FFFFFF" d="M158.2,32.8c0-3.1-0.1-5.8-0.2-8.2h4.2l0.2,5.2h0.2c1.2-3.5,4.1-5.8,7.3-5.8c0.5,0,0.9,0.1,1.4,0.2v4.5 c-0.5-0.1-1-0.2-1.6-0.2c-3.4,0-5.8,2.6-6.5,6.2c-0.1,0.7-0.2,1.4-0.2,2.2V51h-4.8V32.8z"/><path fill="#FFFFFF" d="M173.5,12.3h4.8V51h-4.8V12.3z"/><path fill="#FFFFFF" d="M206.5,12.3v31.9c0,2.3,0.1,5,0.2,6.8h-4.3l-0.2-4.6H202c-1.5,2.9-4.7,5.2-9,5.2 c-6.4,0-11.3-5.4-11.3-13.4c-0.1-8.8,5.4-14.2,11.9-14.2c4,0,6.8,1.9,8,4h0.1V12.3H206.5z M201.7,35.4c0-0.6-0.1-1.4-0.2-2 c-0.7-3.1-3.3-5.6-6.9-5.6c-5,0-7.9,4.4-7.9,10.2c0,5.3,2.6,9.8,7.8,9.8c3.2,0,6.2-2.1,7.1-5.7c0.2-0.7,0.2-1.3,0.2-2.1V35.4z"/><path fill="#FFFFFF" d="M42.8,64c0.1,1.6-1.1,2.9-3.1,2.9c-1.7,0-2.9-1.3-2.9-2.9c0-1.7,1.3-3,3-3C41.7,61,42.8,62.3,42.8,64z M37.4,97.8V71.4h4.8v26.4H37.4z"/><path fill="#FFFFFF" d="M47.5,78.6c0-2.7-0.1-5-0.2-7.1h4.3l0.3,4.4h0.1c1.3-2.5,4.4-5,8.8-5c3.7,0,9.4,2.2,9.4,11.2v15.8h-4.8 V82.6c0-4.3-1.6-7.8-6.1-7.8c-3.2,0-5.6,2.2-6.5,4.9c-0.2,0.6-0.3,1.4-0.3,2.2v15.9h-4.8V78.6z"/><path fill="#FFFFFF" d="M84,61.6c2.9-0.4,6.3-0.8,10.1-0.8c6.8,0,11.7,1.6,14.9,4.6c3.3,3,5.2,7.3,5.2,13.2c0,6-1.9,10.9-5.3,14.3 c-3.4,3.4-9.1,5.3-16.3,5.3c-3.4,0-6.2-0.2-8.6-0.4V61.6z M88.8,94.1c1.2,0.2,3,0.3,4.8,0.3c10.2,0,15.7-5.7,15.7-15.6 c0.1-8.7-4.9-14.2-14.9-14.2c-2.5,0-4.3,0.2-5.6,0.5V94.1z"/><path fill="#FFFFFF" d="M132.1,97.8l-0.4-3.3h-0.2c-1.5,2.1-4.3,3.9-8.1,3.9c-5.4,0-8.1-3.8-8.1-7.6c0-6.4,5.7-9.9,15.9-9.8v-0.5 c0-2.2-0.6-6.1-6-6.1c-2.5,0-5,0.8-6.9,2l-1.1-3.2c2.2-1.4,5.4-2.3,8.7-2.3c8.1,0,10.1,5.5,10.1,10.8v9.9c0,2.3,0.1,4.5,0.4,6.3 H132.1z M131.4,84.4c-5.3-0.1-11.2,0.8-11.2,5.9c0,3.1,2.1,4.6,4.5,4.6c3.4,0,5.6-2.2,6.4-4.4c0.2-0.5,0.3-1,0.3-1.5V84.4z"/><path fill="#FFFFFF" d="M146.6,63.9v7.6h6.9v3.7h-6.9v14.2c0,3.3,0.9,5.1,3.6,5.1c1.3,0,2.2-0.2,2.8-0.3l0.2,3.6 c-0.9,0.4-2.4,0.7-4.3,0.7c-2.2,0-4-0.7-5.2-2c-1.4-1.4-1.9-3.8-1.9-6.9V75.1h-4.1v-3.7h4.1v-6.3L146.6,63.9z"/><path fill="#FFFFFF" d="M171.4,97.8l-0.4-3.3h-0.2c-1.5,2.1-4.3,3.9-8.1,3.9c-5.4,0-8.1-3.8-8.1-7.6c0-6.4,5.7-9.9,15.9-9.8v-0.5 c0-2.2-0.6-6.1-6-6.1c-2.5,0-5,0.8-6.9,2l-1.1-3.2c2.2-1.4,5.4-2.3,8.7-2.3c8.1,0,10.1,5.5,10.1,10.8v9.9c0,2.3,0.1,4.5,0.4,6.3 H171.4z M170.7,84.4c-5.3-0.1-11.2,0.8-11.2,5.9c0,3.1,2.1,4.6,4.5,4.6c3.4,0,5.6-2.2,6.4-4.4c0.2-0.5,0.3-1,0.3-1.5V84.4z"/></g></g></a></g><a href="https://ourworldindata.org/grapher/total-number-of-people-working-in-manufacturing-in-africa" target="_blank"><text font-size="25.20" x="15.0" y="35.2" fill="#555"><tspan x="15" y="35.160000000000004">Total number of people working in manufacturing in Africa</tspan></text></a><text font-size="14.40" x="15.0" y="53.7" fill="#666"><tspan x="15" y="53.72">The numbers are cited in thousands</tspan></text></g><g class="LineChart"><defs><clipPath id="boundsClip-1277"><rect x="50.824" y="0" width="830" height="959.8"></rect></clipPath></defs><g class="AxisBoxView"><g class="HorizontalAxis"><text x="60.8" y="556.5" fill="#666" text-anchor="middle" font-size="16.2">1960</text><text x="192.3" y="556.5" fill="#666" text-anchor="middle" font-size="16.2">1970</text><text x="323.7" y="556.5" fill="#666" text-anchor="middle" font-size="16.2">1980</text><text x="455.2" y="556.5" fill="#666" text-anchor="middle" font-size="16.2">1990</text><text x="586.6" y="556.5" fill="#666" text-anchor="middle" font-size="16.2">2000</text><text x="731.2" y="556.5" fill="#666" text-anchor="middle" font-size="16.2">2011</text></g><g class="VerticalAxis"><text x="55.82" y="535.3" fill="#666" dominant-baseline="middle" text-anchor="end" font-size="16.2">0</text><text x="55.82" y="454.1" fill="#666" dominant-baseline="middle" text-anchor="end" font-size="16.2">500</text><text x="55.82" y="372.9" fill="#666" dominant-baseline="middle" text-anchor="end" font-size="16.2">1,000</text><text x="55.82" y="291.7" fill="#666" dominant-baseline="middle" text-anchor="end" font-size="16.2">1,500</text><text x="55.82" y="210.5" fill="#666" dominant-baseline="middle" text-anchor="end" font-size="16.2">2,000</text><text x="55.82" y="129.3" fill="#666" dominant-baseline="middle" text-anchor="end" font-size="16.2">2,500</text></g><g class="AxisGridLines"><line x1="60.82" y1="535.3" x2="731.23" y2="535.3" stroke="#ccc"></line><line x1="60.82" y1="454.1" x2="731.23" y2="454.1" stroke="#ddd" stroke-dasharray="3,2"></line><line x1="60.82" y1="372.9" x2="731.23" y2="372.9" stroke="#ddd" stroke-dasharray="3,2"></line><line x1="60.82" y1="291.7" x2="731.23" y2="291.7" stroke="#ddd" stroke-dasharray="3,2"></line><line x1="60.82" y1="210.5" x2="731.23" y2="210.5" stroke="#ddd" stroke-dasharray="3,2"></line><line x1="60.82" y1="129.3" x2="731.23" y2="129.3" stroke="#ddd" stroke-dasharray="3,2"></line></g></g><g clip-path="url(#boundsClip-1277)"><g class="HeightedLegend clickable"><g class="legendMark"><rect x="741.232" y="520.9" width="78.504" height="14.4" fill="#fff" opacity="0"></rect><rect x="741.232" y="526.85" width="10" height="2.5" fill="#3360a9"></rect><text font-size="14.40" x="756.2" y="532.4" fill="#333"><tspan x="756.232" y="532.42">Botswana</tspan></text></g><g class="legendMark"><rect x="741.232" y="506.49999999999994" width="63.096000000000004" height="14.4" fill="#fff" opacity="0"></rect><rect x="741.232" y="512.4499999999999" width="10" height="2.5" fill="#ca2628"></rect><text font-size="14.40" x="756.2" y="518.0" fill="#333"><tspan x="756.232" y="518.02">Zambia</tspan></text></g><g class="legendMark"><rect x="741.232" y="485.3" width="59.784000000000006" height="14.4" fill="#fff" opacity="0"></rect><rect x="741.232" y="491.25" width="10" height="2.5" fill="#34983f"></rect><text font-size="14.40" x="756.2" y="496.8" fill="#333"><tspan x="756.232" y="496.82">Malawi</tspan></text></g><g class="legendMark"><rect x="741.232" y="458.3" width="68.136" height="14.4" fill="#fff" opacity="0"></rect><rect x="741.232" y="464.25" width="10" height="2.5" fill="#f6a324"></rect><text font-size="14.40" x="756.2" y="469.8" fill="#333"><tspan x="756.232" y="469.82">Senegal</tspan></text></g><g class="legendMark"><rect x="741.232" y="325.3" width="58.48800000000001" height="14.4" fill="#fff" opacity="0"></rect><rect x="741.232" y="331.25" width="10" height="2.5" fill="#a652ba"></rect><text font-size="14.40" x="756.2" y="336.8" fill="#333"><tspan x="756.232" y="336.82">Ghana</tspan></text></g><g class="legendMark"><rect x="741.232" y="241.3" width="93.76800000000001" height="14.4" fill="#fff" opacity="0"></rect><rect x="741.232" y="247.25" width="10" height="2.5" fill="#2a939b"></rect><text font-size="14.40" x="756.2" y="252.8" fill="#333"><tspan x="756.232" y="252.82000000000002">South Africa</tspan></text></g><g class="legendMark"><rect x="741.232" y="204.9" width="56.040000000000006" height="14.4" fill="#fff" opacity="0"></rect><rect x="741.232" y="210.85" width="10" height="2.5" fill="#e6332e"></rect><text font-size="14.40" x="756.2" y="216.4" fill="#333"><tspan x="756.232" y="216.42000000000002">Kenya</tspan></text></g><g class="legendMark"><rect x="741.232" y="147.3" width="60.648" height="14.4" fill="#fff" opacity="0"></rect><rect x="741.232" y="153.25" width="10" height="2.5" fill="#9ecc8a"></rect><text font-size="14.40" x="756.2" y="158.8" fill="#333"><tspan x="756.232" y="158.82000000000002">Nigeria</tspan></text></g><g class="legendMark"><rect x="741.232" y="69.39999999999999" width="67.272" height="14.4" fill="#fff" opacity="0"></rect><rect x="741.232" y="75.35" width="10" height="2.5" fill="#ffd53e"></rect><text font-size="14.40" x="756.2" y="80.9" fill="#333"><tspan x="756.232" y="80.92">Ethiopia</tspan></text></g></g><g class="Lines"><rect x="61" y="77" width="670" height="459" fill="rgba(255,255,255,0)" opacity="0"></rect><g class="key-Ethiopia_0"><path stroke="#ffd53e" stroke-linecap="round" d="M74 516L87 515L100 514L113 511L127 509L140 507L153 503L166 505L179 502L192 500L205 498L219 497L232 496L245 497L258 498L271 499L284 499L297 500L311 495L324 493L337 492L350 491L363 490L376 489L390 487L403 483L416 479L429 476L442 473L455 474L468 483L482 484L495 463L508 454L521 444L534 434L547 425L560 421L574 408L587 394L600 384L613 377L626 371L639 355L652 325L666 295L679 267L692 230L705 191L718 139L731 77" fill="none" stroke-width="1.5"></path><g fill="#ffd53e"><circle cx="74" cy="516" r="2"></circle><circle cx="87" cy="515" r="2"></circle><circle cx="100" cy="514" r="2"></circle><circle cx="113" cy="511" r="2"></circle><circle cx="127" cy="509" r="2"></circle><circle cx="140" cy="507" r="2"></circle><circle cx="153" cy="503" r="2"></circle><circle cx="166" cy="505" r="2"></circle><circle cx="179" cy="502" r="2"></circle><circle cx="192" cy="500" r="2"></circle><circle cx="205" cy="498" r="2"></circle><circle cx="219" cy="497" r="2"></circle><circle cx="232" cy="496" r="2"></circle><circle cx="245" cy="497" r="2"></circle><circle cx="258" cy="498" r="2"></circle><circle cx="271" cy="499" r="2"></circle><circle cx="284" cy="499" r="2"></circle><circle cx="297" cy="500" r="2"></circle><circle cx="311" cy="495" r="2"></circle><circle cx="324" cy="493" r="2"></circle><circle cx="337" cy="492" r="2"></circle><circle cx="350" cy="491" r="2"></circle><circle cx="363" cy="490" r="2"></circle><circle cx="376" cy="489" r="2"></circle><circle cx="390" cy="487" r="2"></circle><circle cx="403" cy="483" r="2"></circle><circle cx="416" cy="479" r="2"></circle><circle cx="429" cy="476" r="2"></circle><circle cx="442" cy="473" r="2"></circle><circle cx="455" cy="474" r="2"></circle><circle cx="468" cy="483" r="2"></circle><circle cx="482" cy="484" r="2"></circle><circle cx="495" cy="463" r="2"></circle><circle cx="508" cy="454" r="2"></circle><circle cx="521" cy="444" r="2"></circle><circle cx="534" cy="434" r="2"></circle><circle cx="547" cy="425" r="2"></circle><circle cx="560" cy="421" r="2"></circle><circle cx="574" cy="408" r="2"></circle><circle cx="587" cy="394" r="2"></circle><circle cx="600" cy="384" r="2"></circle><circle cx="613" cy="377" r="2"></circle><circle cx="626" cy="371" r="2"></circle><circle cx="639" cy="355" r="2"></circle><circle cx="652" cy="325" r="2"></circle><circle cx="666" cy="295" r="2"></circle><circle cx="679" cy="267" r="2"></circle><circle cx="692" cy="230" r="2"></circle><circle cx="705" cy="191" r="2"></circle><circle cx="718" cy="139" r="2"></circle><circle cx="731" cy="77" r="2"></circle></g></g><g class="key-Botswana_0"><path stroke="#3360a9" stroke-linecap="round" d="M113 535L127 535L140 535L153 535L166 535L179 535L192 535L205 535L219 535L232 535L245 535L258 535L271 535L284 535L297 535L311 535L324 535L337 535L350 534L363 534L376 534L390 534L403 534L416 533L429 533L442 532L455 531L468 531L482 532L495 532L508 531L521 531L534 531L547 531L560 531L574 530L587 529L600 529L613 529L626 529L639 529L652 530L666 530L679 528L692 529L705 529L718 528" fill="none" stroke-width="1.5"></path><g fill="#3360a9"><circle cx="113" cy="535" r="2"></circle><circle cx="127" cy="535" r="2"></circle><circle cx="140" cy="535" r="2"></circle><circle cx="153" cy="535" r="2"></circle><circle cx="166" cy="535" r="2"></circle><circle cx="179" cy="535" r="2"></circle><circle cx="192" cy="535" r="2"></circle><circle cx="205" cy="535" r="2"></circle><circle cx="219" cy="535" r="2"></circle><circle cx="232" cy="535" r="2"></circle><circle cx="245" cy="535" r="2"></circle><circle cx="258" cy="535" r="2"></circle><circle cx="271" cy="535" r="2"></circle><circle cx="284" cy="535" r="2"></circle><circle cx="297" cy="535" r="2"></circle><circle cx="311" cy="535" r="2"></circle><circle cx="324" cy="535" r="2"></circle><circle cx="337" cy="535" r="2"></circle><circle cx="350" cy="534" r="2"></circle><circle cx="363" cy="534" r="2"></circle><circle cx="376" cy="534" r="2"></circle><circle cx="390" cy="534" r="2"></circle><circle cx="403" cy="534" r="2"></circle><circle cx="416" cy="533" r="2"></circle><circle cx="429" cy="533" r="2"></circle><circle cx="442" cy="532" r="2"></circle><circle cx="455" cy="531" r="2"></circle><circle cx="468" cy="531" r="2"></circle><circle cx="482" cy="532" r="2"></circle><circle cx="495" cy="532" r="2"></circle><circle cx="508" cy="531" r="2"></circle><circle cx="521" cy="531" r="2"></circle><circle cx="534" cy="531" r="2"></circle><circle cx="547" cy="531" r="2"></circle><circle cx="560" cy="531" r="2"></circle><circle cx="574" cy="530" r="2"></circle><circle cx="587" cy="529" r="2"></circle><circle cx="600" cy="529" r="2"></circle><circle cx="613" cy="529" r="2"></circle><circle cx="626" cy="529" r="2"></circle><circle cx="639" cy="529" r="2"></circle><circle cx="652" cy="530" r="2"></circle><circle cx="666" cy="530" r="2"></circle><circle cx="679" cy="528" r="2"></circle><circle cx="692" cy="529" r="2"></circle><circle cx="705" cy="529" r="2"></circle><circle cx="718" cy="528" r="2"></circle></g></g><g class="key-Malawi_0"><path stroke="#34983f" stroke-linecap="round" d="M140 528L153 528L166 527L179 527L192 527L205 527L219 525L232 525L245 524L258 522L271 523L284 523L297 522L311 522L324 521L337 523L350 523L363 519L376 519L390 516L403 514L416 520L429 520L442 518L455 517L468 516L482 516L495 518L508 518L521 517L534 517L547 517L560 517L574 516L587 516L600 519L613 518L626 517L639 514L652 512L666 510L679 505L692 498L705 495L718 493" fill="none" stroke-width="1.5"></path><g fill="#34983f"><circle cx="140" cy="528" r="2"></circle><circle cx="153" cy="528" r="2"></circle><circle cx="166" cy="527" r="2"></circle><circle cx="179" cy="527" r="2"></circle><circle cx="192" cy="527" r="2"></circle><circle cx="205" cy="527" r="2"></circle><circle cx="219" cy="525" r="2"></circle><circle cx="232" cy="525" r="2"></circle><circle cx="245" cy="524" r="2"></circle><circle cx="258" cy="522" r="2"></circle><circle cx="271" cy="523" r="2"></circle><circle cx="284" cy="523" r="2"></circle><circle cx="297" cy="522" r="2"></circle><circle cx="311" cy="522" r="2"></circle><circle cx="324" cy="521" r="2"></circle><circle cx="337" cy="523" r="2"></circle><circle cx="350" cy="523" r="2"></circle><circle cx="363" cy="519" r="2"></circle><circle cx="376" cy="519" r="2"></circle><circle cx="390" cy="516" r="2"></circle><circle cx="403" cy="514" r="2"></circle><circle cx="416" cy="520" r="2"></circle><circle cx="429" cy="520" r="2"></circle><circle cx="442" cy="518" r="2"></circle><circle cx="455" cy="517" r="2"></circle><circle cx="468" cy="516" r="2"></circle><circle cx="482" cy="516" r="2"></circle><circle cx="495" cy="518" r="2"></circle><circle cx="508" cy="518" r="2"></circle><circle cx="521" cy="517" r="2"></circle><circle cx="534" cy="517" r="2"></circle><circle cx="547" cy="517" r="2"></circle><circle cx="560" cy="517" r="2"></circle><circle cx="574" cy="516" r="2"></circle><circle cx="587" cy="516" r="2"></circle><circle cx="600" cy="519" r="2"></circle><circle cx="613" cy="518" r="2"></circle><circle cx="626" cy="517" r="2"></circle><circle cx="639" cy="514" r="2"></circle><circle cx="652" cy="512" r="2"></circle><circle cx="666" cy="510" r="2"></circle><circle cx="679" cy="505" r="2"></circle><circle cx="692" cy="498" r="2"></circle><circle cx="705" cy="495" r="2"></circle><circle cx="718" cy="493" r="2"></circle></g></g><g class="key-Zambia_0"><path stroke="#ca2628" stroke-linecap="round" d="M127 532L140 531L153 531L166 530L179 530L192 529L205 528L219 527L232 527L245 525L258 525L271 526L284 525L297 525L311 525L324 525L337 524L350 524L363 523L376 523L390 522L403 523L416 522L429 521L442 521L455 520L468 522L482 522L495 523L508 524L521 524L534 523L547 523L560 523L574 523L587 523L600 522L613 521L626 520L639 520L652 519L666 518L679 517L692 517L705 516L718 515" fill="none" stroke-width="1.5"></path><g fill="#ca2628"><circle cx="127" cy="532" r="2"></circle><circle cx="140" cy="531" r="2"></circle><circle cx="153" cy="531" r="2"></circle><circle cx="166" cy="530" r="2"></circle><circle cx="179" cy="530" r="2"></circle><circle cx="192" cy="529" r="2"></circle><circle cx="205" cy="528" r="2"></circle><circle cx="219" cy="527" r="2"></circle><circle cx="232" cy="527" r="2"></circle><circle cx="245" cy="525" r="2"></circle><circle cx="258" cy="525" r="2"></circle><circle cx="271" cy="526" r="2"></circle><circle cx="284" cy="525" r="2"></circle><circle cx="297" cy="525" r="2"></circle><circle cx="311" cy="525" r="2"></circle><circle cx="324" cy="525" r="2"></circle><circle cx="337" cy="524" r="2"></circle><circle cx="350" cy="524" r="2"></circle><circle cx="363" cy="523" r="2"></circle><circle cx="376" cy="523" r="2"></circle><circle cx="390" cy="522" r="2"></circle><circle cx="403" cy="523" r="2"></circle><circle cx="416" cy="522" r="2"></circle><circle cx="429" cy="521" r="2"></circle><circle cx="442" cy="521" r="2"></circle><circle cx="455" cy="520" r="2"></circle><circle cx="468" cy="522" r="2"></circle><circle cx="482" cy="522" r="2"></circle><circle cx="495" cy="523" r="2"></circle><circle cx="508" cy="524" r="2"></circle><circle cx="521" cy="524" r="2"></circle><circle cx="534" cy="523" r="2"></circle><circle cx="547" cy="523" r="2"></circle><circle cx="560" cy="523" r="2"></circle><circle cx="574" cy="523" r="2"></circle><circle cx="587" cy="523" r="2"></circle><circle cx="600" cy="522" r="2"></circle><circle cx="613" cy="521" r="2"></circle><circle cx="626" cy="520" r="2"></circle><circle cx="639" cy="520" r="2"></circle><circle cx="652" cy="519" r="2"></circle><circle cx="666" cy="518" r="2"></circle><circle cx="679" cy="517" r="2"></circle><circle cx="692" cy="517" r="2"></circle><circle cx="705" cy="516" r="2"></circle><circle cx="718" cy="515" r="2"></circle></g></g><g class="key-Kenya_0"><path stroke="#e6332e" stroke-linecap="round" d="M179 513L192 511L205 510L219 510L232 509L245 508L258 510L271 509L284 508L297 507L311 507L324 505L337 502L350 500L363 498L376 495L390 491L403 488L416 484L429 481L442 476L455 470L468 464L482 456L495 444L508 433L521 414L534 400L547 386L560 372L574 358L587 347L600 331L613 316L626 302L639 282L652 262L666 252L679 238L692 226L705 223L718 218L731 212" fill="none" stroke-width="1.5"></path><g fill="#e6332e"><circle cx="179" cy="513" r="2"></circle><circle cx="192" cy="511" r="2"></circle><circle cx="205" cy="510" r="2"></circle><circle cx="219" cy="510" r="2"></circle><circle cx="232" cy="509" r="2"></circle><circle cx="245" cy="508" r="2"></circle><circle cx="258" cy="510" r="2"></circle><circle cx="271" cy="509" r="2"></circle><circle cx="284" cy="508" r="2"></circle><circle cx="297" cy="507" r="2"></circle><circle cx="311" cy="507" r="2"></circle><circle cx="324" cy="505" r="2"></circle><circle cx="337" cy="502" r="2"></circle><circle cx="350" cy="500" r="2"></circle><circle cx="363" cy="498" r="2"></circle><circle cx="376" cy="495" r="2"></circle><circle cx="390" cy="491" r="2"></circle><circle cx="403" cy="488" r="2"></circle><circle cx="416" cy="484" r="2"></circle><circle cx="429" cy="481" r="2"></circle><circle cx="442" cy="476" r="2"></circle><circle cx="455" cy="470" r="2"></circle><circle cx="468" cy="464" r="2"></circle><circle cx="482" cy="456" r="2"></circle><circle cx="495" cy="444" r="2"></circle><circle cx="508" cy="433" r="2"></circle><circle cx="521" cy="414" r="2"></circle><circle cx="534" cy="400" r="2"></circle><circle cx="547" cy="386" r="2"></circle><circle cx="560" cy="372" r="2"></circle><circle cx="574" cy="358" r="2"></circle><circle cx="587" cy="347" r="2"></circle><circle cx="600" cy="331" r="2"></circle><circle cx="613" cy="316" r="2"></circle><circle cx="626" cy="302" r="2"></circle><circle cx="639" cy="282" r="2"></circle><circle cx="652" cy="262" r="2"></circle><circle cx="666" cy="252" r="2"></circle><circle cx="679" cy="238" r="2"></circle><circle cx="692" cy="226" r="2"></circle><circle cx="705" cy="223" r="2"></circle><circle cx="718" cy="218" r="2"></circle><circle cx="731" cy="212" r="2"></circle></g></g><g class="key-South-Africa_0"><path stroke="#2a939b" stroke-linecap="round" d="M61 431L74 427L87 422L100 417L113 406L127 394L140 391L153 386L166 384L179 377L192 369L205 367L219 363L232 362L245 356L258 352L271 344L284 340L297 334L311 325L324 316L337 306L350 301L363 300L376 297L390 294L403 298L416 287L429 278L442 274L455 268L468 266L482 270L495 273L508 271L521 270L534 282L547 276L560 266L574 256L587 240L600 242L613 228L626 246L639 238L652 233L666 223L679 217L692 212L705 234L718 253L731 249" fill="none" stroke-width="1.5"></path><g fill="#2a939b"><circle cx="61" cy="431" r="2"></circle><circle cx="74" cy="427" r="2"></circle><circle cx="87" cy="422" r="2"></circle><circle cx="100" cy="417" r="2"></circle><circle cx="113" cy="406" r="2"></circle><circle cx="127" cy="394" r="2"></circle><circle cx="140" cy="391" r="2"></circle><circle cx="153" cy="386" r="2"></circle><circle cx="166" cy="384" r="2"></circle><circle cx="179" cy="377" r="2"></circle><circle cx="192" cy="369" r="2"></circle><circle cx="205" cy="367" r="2"></circle><circle cx="219" cy="363" r="2"></circle><circle cx="232" cy="362" r="2"></circle><circle cx="245" cy="356" r="2"></circle><circle cx="258" cy="352" r="2"></circle><circle cx="271" cy="344" r="2"></circle><circle cx="284" cy="340" r="2"></circle><circle cx="297" cy="334" r="2"></circle><circle cx="311" cy="325" r="2"></circle><circle cx="324" cy="316" r="2"></circle><circle cx="337" cy="306" r="2"></circle><circle cx="350" cy="301" r="2"></circle><circle cx="363" cy="300" r="2"></circle><circle cx="376" cy="297" r="2"></circle><circle cx="390" cy="294" r="2"></circle><circle cx="403" cy="298" r="2"></circle><circle cx="416" cy="287" r="2"></circle><circle cx="429" cy="278" r="2"></circle><circle cx="442" cy="274" r="2"></circle><circle cx="455" cy="268" r="2"></circle><circle cx="468" cy="266" r="2"></circle><circle cx="482" cy="270" r="2"></circle><circle cx="495" cy="273" r="2"></circle><circle cx="508" cy="271" r="2"></circle><circle cx="521" cy="270" r="2"></circle><circle cx="534" cy="282" r="2"></circle><circle cx="547" cy="276" r="2"></circle><circle cx="560" cy="266" r="2"></circle><circle cx="574" cy="256" r="2"></circle><circle cx="587" cy="240" r="2"></circle><circle cx="600" cy="242" r="2"></circle><circle cx="613" cy="228" r="2"></circle><circle cx="626" cy="246" r="2"></circle><circle cx="639" cy="238" r="2"></circle><circle cx="652" cy="233" r="2"></circle><circle cx="666" cy="223" r="2"></circle><circle cx="679" cy="217" r="2"></circle><circle cx="692" cy="212" r="2"></circle><circle cx="705" cy="234" r="2"></circle><circle cx="718" cy="253" r="2"></circle><circle cx="731" cy="249" r="2"></circle></g></g><g class="key-Ghana_0"><path stroke="#a652ba" stroke-linecap="round" d="M61 490L74 490L87 490L100 488L113 493L127 494L140 494L153 486L166 483L179 476L192 474L205 473L219 474L232 455L245 454L258 440L271 436L284 426L297 421L311 432L324 426L337 440L350 454L363 457L376 440L390 421L403 413L416 405L429 399L442 393L455 398L468 409L482 409L495 407L508 410L521 413L534 413L547 409L560 409L574 407L587 407L600 403L613 397L626 390L639 384L652 376L666 370L679 372L692 366L705 368L718 356L731 333" fill="none" stroke-width="1.5"></path><g fill="#a652ba"><circle cx="61" cy="490" r="2"></circle><circle cx="74" cy="490" r="2"></circle><circle cx="87" cy="490" r="2"></circle><circle cx="100" cy="488" r="2"></circle><circle cx="113" cy="493" r="2"></circle><circle cx="127" cy="494" r="2"></circle><circle cx="140" cy="494" r="2"></circle><circle cx="153" cy="486" r="2"></circle><circle cx="166" cy="483" r="2"></circle><circle cx="179" cy="476" r="2"></circle><circle cx="192" cy="474" r="2"></circle><circle cx="205" cy="473" r="2"></circle><circle cx="219" cy="474" r="2"></circle><circle cx="232" cy="455" r="2"></circle><circle cx="245" cy="454" r="2"></circle><circle cx="258" cy="440" r="2"></circle><circle cx="271" cy="436" r="2"></circle><circle cx="284" cy="426" r="2"></circle><circle cx="297" cy="421" r="2"></circle><circle cx="311" cy="432" r="2"></circle><circle cx="324" cy="426" r="2"></circle><circle cx="337" cy="440" r="2"></circle><circle cx="350" cy="454" r="2"></circle><circle cx="363" cy="457" r="2"></circle><circle cx="376" cy="440" r="2"></circle><circle cx="390" cy="421" r="2"></circle><circle cx="403" cy="413" r="2"></circle><circle cx="416" cy="405" r="2"></circle><circle cx="429" cy="399" r="2"></circle><circle cx="442" cy="393" r="2"></circle><circle cx="455" cy="398" r="2"></circle><circle cx="468" cy="409" r="2"></circle><circle cx="482" cy="409" r="2"></circle><circle cx="495" cy="407" r="2"></circle><circle cx="508" cy="410" r="2"></circle><circle cx="521" cy="413" r="2"></circle><circle cx="534" cy="413" r="2"></circle><circle cx="547" cy="409" r="2"></circle><circle cx="560" cy="409" r="2"></circle><circle cx="574" cy="407" r="2"></circle><circle cx="587" cy="407" r="2"></circle><circle cx="600" cy="403" r="2"></circle><circle cx="613" cy="397" r="2"></circle><circle cx="626" cy="390" r="2"></circle><circle cx="639" cy="384" r="2"></circle><circle cx="652" cy="376" r="2"></circle><circle cx="666" cy="370" r="2"></circle><circle cx="679" cy="372" r="2"></circle><circle cx="692" cy="366" r="2"></circle><circle cx="705" cy="368" r="2"></circle><circle cx="718" cy="356" r="2"></circle><circle cx="731" cy="333" r="2"></circle></g></g><g class="key-Nigeria_0"><path stroke="#9ecc8a" stroke-linecap="round" d="M61 443L74 428L87 406L100 378L113 360L127 311L140 300L153 325L166 336L179 299L192 279L205 313L219 289L232 259L245 295L258 268L271 238L284 251L297 243L311 253L324 236L337 241L350 235L363 349L376 387L390 349L403 357L416 350L429 325L442 322L455 312L468 292L482 304L495 313L508 317L521 329L534 328L547 328L560 343L574 337L587 335L600 327L613 312L626 306L639 285L652 268L666 251L679 232L692 214L705 198L718 182L731 155" fill="none" stroke-width="1.5"></path><g fill="#9ecc8a"><circle cx="61" cy="443" r="2"></circle><circle cx="74" cy="428" r="2"></circle><circle cx="87" cy="406" r="2"></circle><circle cx="100" cy="378" r="2"></circle><circle cx="113" cy="360" r="2"></circle><circle cx="127" cy="311" r="2"></circle><circle cx="140" cy="300" r="2"></circle><circle cx="153" cy="325" r="2"></circle><circle cx="166" cy="336" r="2"></circle><circle cx="179" cy="299" r="2"></circle><circle cx="192" cy="279" r="2"></circle><circle cx="205" cy="313" r="2"></circle><circle cx="219" cy="289" r="2"></circle><circle cx="232" cy="259" r="2"></circle><circle cx="245" cy="295" r="2"></circle><circle cx="258" cy="268" r="2"></circle><circle cx="271" cy="238" r="2"></circle><circle cx="284" cy="251" r="2"></circle><circle cx="297" cy="243" r="2"></circle><circle cx="311" cy="253" r="2"></circle><circle cx="324" cy="236" r="2"></circle><circle cx="337" cy="241" r="2"></circle><circle cx="350" cy="235" r="2"></circle><circle cx="363" cy="349" r="2"></circle><circle cx="376" cy="387" r="2"></circle><circle cx="390" cy="349" r="2"></circle><circle cx="403" cy="357" r="2"></circle><circle cx="416" cy="350" r="2"></circle><circle cx="429" cy="325" r="2"></circle><circle cx="442" cy="322" r="2"></circle><circle cx="455" cy="312" r="2"></circle><circle cx="468" cy="292" r="2"></circle><circle cx="482" cy="304" r="2"></circle><circle cx="495" cy="313" r="2"></circle><circle cx="508" cy="317" r="2"></circle><circle cx="521" cy="329" r="2"></circle><circle cx="534" cy="328" r="2"></circle><circle cx="547" cy="328" r="2"></circle><circle cx="560" cy="343" r="2"></circle><circle cx="574" cy="337" r="2"></circle><circle cx="587" cy="335" r="2"></circle><circle cx="600" cy="327" r="2"></circle><circle cx="613" cy="312" r="2"></circle><circle cx="626" cy="306" r="2"></circle><circle cx="639" cy="285" r="2"></circle><circle cx="652" cy="268" r="2"></circle><circle cx="666" cy="251" r="2"></circle><circle cx="679" cy="232" r="2"></circle><circle cx="692" cy="214" r="2"></circle><circle cx="705" cy="198" r="2"></circle><circle cx="718" cy="182" r="2"></circle><circle cx="731" cy="155" r="2"></circle></g></g><g class="key-Senegal_0"><path stroke="#f6a324" stroke-linecap="round" d="M192 526L205 526L219 525L232 525L245 524L258 523L271 522L284 521L297 523L311 521L324 521L337 520L350 519L363 519L376 518L390 517L403 516L416 514L429 513L442 511L455 511L468 509L482 508L495 507L508 506L521 503L534 501L547 499L560 496L574 496L587 494L600 489L613 487L626 485L639 482L652 479L666 480L679 475L692 475L705 471L718 466" fill="none" stroke-width="1.5"></path><g fill="#f6a324"><circle cx="192" cy="526" r="2"></circle><circle cx="205" cy="526" r="2"></circle><circle cx="219" cy="525" r="2"></circle><circle cx="232" cy="525" r="2"></circle><circle cx="245" cy="524" r="2"></circle><circle cx="258" cy="523" r="2"></circle><circle cx="271" cy="522" r="2"></circle><circle cx="284" cy="521" r="2"></circle><circle cx="297" cy="523" r="2"></circle><circle cx="311" cy="521" r="2"></circle><circle cx="324" cy="521" r="2"></circle><circle cx="337" cy="520" r="2"></circle><circle cx="350" cy="519" r="2"></circle><circle cx="363" cy="519" r="2"></circle><circle cx="376" cy="518" r="2"></circle><circle cx="390" cy="517" r="2"></circle><circle cx="403" cy="516" r="2"></circle><circle cx="416" cy="514" r="2"></circle><circle cx="429" cy="513" r="2"></circle><circle cx="442" cy="511" r="2"></circle><circle cx="455" cy="511" r="2"></circle><circle cx="468" cy="509" r="2"></circle><circle cx="482" cy="508" r="2"></circle><circle cx="495" cy="507" r="2"></circle><circle cx="508" cy="506" r="2"></circle><circle cx="521" cy="503" r="2"></circle><circle cx="534" cy="501" r="2"></circle><circle cx="547" cy="499" r="2"></circle><circle cx="560" cy="496" r="2"></circle><circle cx="574" cy="496" r="2"></circle><circle cx="587" cy="494" r="2"></circle><circle cx="600" cy="489" r="2"></circle><circle cx="613" cy="487" r="2"></circle><circle cx="626" cy="485" r="2"></circle><circle cx="639" cy="482" r="2"></circle><circle cx="652" cy="479" r="2"></circle><circle cx="666" cy="480" r="2"></circle><circle cx="679" cy="475" r="2"></circle><circle cx="692" cy="475" r="2"></circle><circle cx="705" cy="471" r="2"></circle><circle cx="718" cy="466" r="2"></circle></g></g></g></g></g><g style="fill: #777;" class="SourcesFooter"><g style="fill: #777;" class="clickable"><text font-size="12.60" x="15.0" y="581.6"><tspan x="15" y="581.58">Source: Groningen Growth and Development Centre (2017)</tspan></text></g><text font-size="12.60" x="649.0" y="581.6"><tspan x="649.024" y="581.58"><a target='_blank' style='fill: #777;' href='https://ourworldindata.org'>OurWorldInData.org</a> • <a style="fill: #777;" href="http://creativecommons.org/licenses/by-sa/4.0/deed.en_US" target="_blank">CC BY-SA</a></tspan></text></g></g></svg>