<svg xmlns="http://www.w3.org/2000/svg" version="1.1" style="font-family: 'Helvetica Neue', Helvetica, Arial, sans-serif; font-size: 18px; background-color: white; text-rendering: optimizeLegibility; -webkit-font-smoothing: antialiased;" width="850" height="600"><g class="ChartTab"><g class="HeaderView"><g opacity="0.8" transform="translate(770, 15) scale(0.31)"><a xmlns:xlink="http://www.w3.org/1999/xlink" xlink:href="https://ourworldindata.org" target="_blank"><g><rect x="0" y="0" fill="#1B2543" width="211.2" height="130.1"/><rect x="0" y="112.2" fill="#E63912" width="211.2" height="17.9"/><g><rect x="1.2" y="12.3" fill="none" width="210.2" height="99.2"/><path fill="#FFFFFF" d="M37.8,32.2c0,12.7-7.7,19.4-17.1,19.4c-9.7,0-16.6-7.5-16.6-18.7c0-11.7,7.3-19.3,17.1-19.3 C31.3,13.7,37.8,21.3,37.8,32.2z M9.2,32.8c0,7.9,4.3,14.9,11.8,14.9c7.5,0,11.8-6.9,11.8-15.3c0-7.3-3.8-14.9-11.8-14.9 C13.1,17.5,9.2,24.8,9.2,32.8z"/><path fill="#FFFFFF" d="M62.7,43.8c0,2.7,0.1,5.1,0.2,7.2h-4.3l-0.3-4.3h-0.1c-1.3,2.1-4,4.9-8.8,4.9c-4.2,0-9.1-2.3-9.1-11.6 V24.6h4.8v14.6c0,5,1.5,8.4,5.9,8.4c3.2,0,5.5-2.2,6.3-4.4c0.3-0.7,0.4-1.6,0.4-2.5V24.6h4.8V43.8z"/><path fill="#FFFFFF" d="M67.3,32.8c0-3.1-0.1-5.8-0.2-8.2h4.2l0.2,5.2h0.2c1.2-3.5,4.1-5.8,7.3-5.8c0.5,0,0.9,0.1,1.4,0.2v4.5 c-0.5-0.1-1-0.2-1.6-0.2c-3.4,0-5.8,2.6-6.5,6.2c-0.1,0.7-0.2,1.4-0.2,2.2V51h-4.8V32.8z"/><path fill="#FFFFFF" d="M95.4,51l-9.4-36.8h5l4.4,18.6c1.1,4.6,2.1,9.2,2.7,12.7h0.1c0.6-3.7,1.8-8,3-12.8l4.9-18.5h5l4.5,18.7 c1,4.4,2,8.7,2.6,12.6h0.1c0.8-4,1.8-8.1,3-12.7l4.9-18.5h4.9L120.6,51h-5L111,31.9c-1.1-4.7-1.9-8.3-2.4-12h-0.1 c-0.7,3.7-1.5,7.3-2.8,12L100.4,51H95.4z"/><path fill="#FFFFFF" d="M154.9,37.6c0,9.8-6.8,14-13.2,14c-7.2,0-12.7-5.2-12.7-13.6c0-8.8,5.8-14,13.1-14 C149.8,24,154.9,29.5,154.9,37.6z M133.9,37.9c0,5.8,3.3,10.1,8,10.1c4.6,0,8-4.3,8-10.3c0-4.5-2.2-10.1-7.9-10.1 C136.3,27.6,133.9,32.8,133.9,37.9z"/><path fill="#FFFFFF" d="M158.2,32.8c0-3.1-0.1-5.8-0.2-8.2h4.2l0.2,5.2h0.2c1.2-3.5,4.1-5.8,7.3-5.8c0.5,0,0.9,0.1,1.4,0.2v4.5 c-0.5-0.1-1-0.2-1.6-0.2c-3.4,0-5.8,2.6-6.5,6.2c-0.1,0.7-0.2,1.4-0.2,2.2V51h-4.8V32.8z"/><path fill="#FFFFFF" d="M173.5,12.3h4.8V51h-4.8V12.3z"/><path fill="#FFFFFF" d="M206.5,12.3v31.9c0,2.3,0.1,5,0.2,6.8h-4.3l-0.2-4.6H202c-1.5,2.9-4.7,5.2-9,5.2 c-6.4,0-11.3-5.4-11.3-13.4c-0.1-8.8,5.4-14.2,11.9-14.2c4,0,6.8,1.9,8,4h0.1V12.3H206.5z M201.7,35.4c0-0.6-0.1-1.4-0.2-2 c-0.7-3.1-3.3-5.6-6.9-5.6c-5,0-7.9,4.4-7.9,10.2c0,5.3,2.6,9.8,7.8,9.8c3.2,0,6.2-2.1,7.1-5.7c0.2-0.7,0.2-1.3,0.2-2.1V35.4z"/><path fill="#FFFFFF" d="M42.8,64c0.1,1.6-1.1,2.9-3.1,2.9c-1.7,0-2.9-1.3-2.9-2.9c0-1.7,1.3-3,3-3C41.7,61,42.8,62.3,42.8,64z M37.4,97.8V71.4h4.8v26.4H37.4z"/><path fill="#FFFFFF" d="M47.5,78.6c0-2.7-0.1-5-0.2-7.1h4.3l0.3,4.4h0.1c1.3-2.5,4.4-5,8.8-5c3.7,0,9.4,2.2,9.4,11.2v15.8h-4.8 V82.6c0-4.3-1.6-7.8-6.1-7.8c-3.2,0-5.6,2.2-6.5,4.9c-0.2,0.6-0.3,1.4-0.3,2.2v15.9h-4.8V78.6z"/><path fill="#FFFFFF" d="M84,61.6c2.9-0.4,6.3-0.8,10.1-0.8c6.8,0,11.7,1.6,14.9,4.6c3.3,3,5.2,7.3,5.2,13.2c0,6-1.9,10.9-5.3,14.3 c-3.4,3.4-9.1,5.3-16.3,5.3c-3.4,0-6.2-0.2-8.6-0.4V61.6z M88.8,94.1c1.2,0.2,3,0.3,4.8,0.3c10.2,0,15.7-5.7,15.7-15.6 c0.1-8.7-4.9-14.2-14.9-14.2c-2.5,0-4.3,0.2-5.6,0.5V94.1z"/><path fill="#FFFFFF" d="M132.1,97.8l-0.4-3.3h-0.2c-1.5,2.1-4.3,3.9-8.1,3.9c-5.4,0-8.1-3.8-8.1-7.6c0-6.4,5.7-9.9,15.9-9.8v-0.5 c0-2.2-0.6-6.1-6-6.1c-2.5,0-5,0.8-6.9,2l-1.1-3.2c2.2-1.4,5.4-2.3,8.7-2.3c8.1,0,10.1,5.5,10.1,10.8v9.9c0,2.3,0.1,4.5,0.4,6.3 H132.1z M131.4,84.4c-5.3-0.1-11.2,0.8-11.2,5.9c0,3.1,2.1,4.6,4.5,4.6c3.4,0,5.6-2.2,6.4-4.4c0.2-0.5,0.3-1,0.3-1.5V84.4z"/><path fill="#FFFFFF" d="M146.6,63.9v7.6h6.9v3.7h-6.9v14.2c0,3.3,0.9,5.1,3.6,5.1c1.3,0,2.2-0.2,2.8-0.3l0.2,3.6 c-0.9,0.4-2.4,0.7-4.3,0.7c-2.2,0-4-0.7-5.2-2c-1.4-1.4-1.9-3.8-1.9-6.9V75.1h-4.1v-3.7h4.1v-6.3L146.6,63.9z"/><path fill="#FFFFFF" d="M171.4,97.8l-0.4-3.3h-0.2c-1.5,2.1-4.3,3.9-8.1,3.9c-5.4,0-8.1-3.8-8.1-7.6c0-6.4,5.7-9.9,15.9-9.8v-0.5 c0-2.2-0.6-6.1-6-6.1c-2.5,0-5,0.8-6.9,2l-1.1-3.2c2.2-1.4,5.4-2.3,8.7-2.3c8.1,0,10.1,5.5,10.1,10.8v9.9c0,2.3,0.1,4.5,0.4,6.3 H171.4z M170.7,84.4c-5.3-0.1-11.2,0.8-11.2,5.9c0,3.1,2.1,4.6,4.5,4.6c3.4,0,5.6-2.2,6.4-4.4c0.2-0.5,0.3-1,0.3-1.5V84.4z"/></g></g></a></g><a href="https://ourworldindata.org/grapher/trade-openness-in-europe" target="_blank"><text font-size="27.00" x="15.0" y="36.6" fill="#555"><tspan x="15" y="36.6">Trade openness in Europe</tspan></text></a><text font-size="14.40" x="15.0" y="55.5" fill="#666"><tspan x="15" y="55.519999999999996">Shown is the sum of exports and imports as a share of GDP</tspan></text></g><g class="LineChart"><defs><clipPath id="boundsClip-1483"><rect x="42.562" y="0" width="830" height="956.2"></rect></clipPath></defs><g class="AxisBoxView"><g class="HorizontalAxis"><text x="52.6" y="556.5" fill="#666" text-anchor="middle" font-size="16.2">1815</text><text x="174.7" y="556.5" fill="#666" text-anchor="middle" font-size="16.2">1840</text><text x="272.4" y="556.5" fill="#666" text-anchor="middle" font-size="16.2">1860</text><text x="370.1" y="556.5" fill="#666" text-anchor="middle" font-size="16.2">1880</text><text x="467.8" y="556.5" fill="#666" text-anchor="middle" font-size="16.2">1900</text><text x="565.5" y="556.5" fill="#666" text-anchor="middle" font-size="16.2">1920</text><text x="663.2" y="556.5" fill="#666" text-anchor="middle" font-size="16.2">1940</text><text x="707.2" y="556.5" fill="#666" text-anchor="middle" font-size="16.2">1949</text></g><g class="VerticalAxis"><text x="47.56" y="535.3" fill="#666" dominant-baseline="middle" text-anchor="end" font-size="16.2">0%</text><text x="47.56" y="469.1" fill="#666" dominant-baseline="middle" text-anchor="end" font-size="16.2">10%</text><text x="47.56" y="402.9" fill="#666" dominant-baseline="middle" text-anchor="end" font-size="16.2">20%</text><text x="47.56" y="336.6" fill="#666" dominant-baseline="middle" text-anchor="end" font-size="16.2">30%</text><text x="47.56" y="270.4" fill="#666" dominant-baseline="middle" text-anchor="end" font-size="16.2">40%</text><text x="47.56" y="204.2" fill="#666" dominant-baseline="middle" text-anchor="end" font-size="16.2">50%</text><text x="47.56" y="138" fill="#666" dominant-baseline="middle" text-anchor="end" font-size="16.2">60%</text></g><g class="AxisGridLines"><line x1="52.56" y1="535.3" x2="707.18" y2="535.3" stroke="#ccc"></line><line x1="52.56" y1="469.1" x2="707.18" y2="469.1" stroke="#ddd" stroke-dasharray="3,2"></line><line x1="52.56" y1="402.9" x2="707.18" y2="402.9" stroke="#ddd" stroke-dasharray="3,2"></line><line x1="52.56" y1="336.6" x2="707.18" y2="336.6" stroke="#ddd" stroke-dasharray="3,2"></line><line x1="52.56" y1="270.4" x2="707.18" y2="270.4" stroke="#ddd" stroke-dasharray="3,2"></line><line x1="52.56" y1="204.2" x2="707.18" y2="204.2" stroke="#ddd" stroke-dasharray="3,2"></line><line x1="52.56" y1="138" x2="707.18" y2="138" stroke="#ddd" stroke-dasharray="3,2"></line></g><g class="AxisGridLines"><line x1="77" y1="535.30" x2="77" y2="78.40" stroke="#ddd" stroke-dasharray="3,2"></line><line x1="174.7" y1="535.30" x2="174.7" y2="78.40" stroke="#ddd" stroke-dasharray="3,2"></line><line x1="272.4" y1="535.30" x2="272.4" y2="78.40" stroke="#ddd" stroke-dasharray="3,2"></line><line x1="370.1" y1="535.30" x2="370.1" y2="78.40" stroke="#ddd" stroke-dasharray="3,2"></line><line x1="467.8" y1="535.30" x2="467.8" y2="78.40" stroke="#ddd" stroke-dasharray="3,2"></line><line x1="565.5" y1="535.30" x2="565.5" y2="78.40" stroke="#ddd" stroke-dasharray="3,2"></line><line x1="663.2" y1="535.30" x2="663.2" y2="78.40" stroke="#ddd" stroke-dasharray="3,2"></line></g></g><g clip-path="url(#boundsClip-1483)"><g class="HeightedLegend clickable"><g class="legendMark"><rect x="717.184" y="276.5" width="117.81600000000002" height="14.4" fill="#fff" opacity="0"></rect><rect x="717.184" y="282.45" width="10" height="2.5" fill="#2a939b"></rect><text font-size="14.40" x="732.2" y="288.0" fill="#333"><tspan x="732.184" y="288.02">United Kingdom</tspan></text></g><g class="legendMark"><rect x="717.184" y="336.1" width="67.272" height="14.4" fill="#fff" opacity="0"></rect><rect x="717.184" y="342.05" width="10" height="2.5" fill="#a652ba"></rect><text font-size="14.40" x="732.2" y="347.6" fill="#333"><tspan x="732.184" y="347.62">Sweden</tspan></text></g><g class="legendMark"><rect x="717.184" y="402.3" width="59.928000000000004" height="14.4" fill="#fff" opacity="0"></rect><rect x="717.184" y="408.25" width="10" height="2.5" fill="#f6a324"></rect><text font-size="14.40" x="732.2" y="413.8" fill="#333"><tspan x="732.184" y="413.82">France</tspan></text></g><g class="legendMark"><rect x="717.184" y="455.3" width="41.496" height="14.4" fill="#fff" opacity="0"></rect><rect x="717.184" y="461.25" width="10" height="2.5" fill="#34983f"></rect><text font-size="14.40" x="732.2" y="466.8" fill="#333"><tspan x="732.184" y="466.82">Italy</tspan></text></g><g class="legendMark"><rect x="717.184" y="469.7" width="74.328" height="14.4" fill="#fff" opacity="0"></rect><rect x="717.184" y="475.65" width="10" height="2.5" fill="#ca2628"></rect><text font-size="14.40" x="732.2" y="481.2" fill="#333"><tspan x="732.184" y="481.21999999999997">Germany</tspan></text></g><g class="legendMark"><rect x="717.184" y="488.40000000000003" width="52.008" height="14.4" fill="#fff" opacity="0"></rect><rect x="717.184" y="494.35" width="10" height="2.5" fill="#3360a9"></rect><text font-size="14.40" x="732.2" y="499.9" fill="#333"><tspan x="732.184" y="499.92">Spain</tspan></text></g></g><g class="Lines"><rect x="53" y="78" width="655" height="457" fill="rgba(255,255,255,0)" opacity="0"></rect><g class="key-Sweden_0"><path stroke="#a652ba" stroke-linecap="round" d="M277 376L282 383L287 383L292 376L297 357L302 363L307 337L312 337L316 337L321 323L326 317L331 290L336 290L341 284L346 297L351 297L355 284L360 317L365 323L370 277L375 290L380 264L385 257L390 264L395 251L399 264L404 244L409 231L414 211L419 224L424 231L429 237L434 251L439 257L443 270L448 264L453 264L458 270L463 270L468 264L473 290L478 264L483 264L487 264L492 264L497 264L502 270L507 297L512 297L517 304L522 270L526 251L531 257L536 284L541 191L546 237L551 337L556 350L561 284L566 237L570 370L575 337L580 323L585 310L590 317L595 310L600 297L605 297L610 290L614 317L619 337L624 363L629 357L634 337L639 337L644 330L649 290L653 317L658 310L663 376L668 410L673 416L678 429L683 449L688 443L693 363L697 310L702 323L707 343" fill="none" stroke-width="1.5"></path><g fill="#a652ba"><circle cx="277" cy="376" r="2"></circle><circle cx="282" cy="383" r="2"></circle><circle cx="287" cy="383" r="2"></circle><circle cx="292" cy="376" r="2"></circle><circle cx="297" cy="357" r="2"></circle><circle cx="302" cy="363" r="2"></circle><circle cx="307" cy="337" r="2"></circle><circle cx="312" cy="337" r="2"></circle><circle cx="316" cy="337" r="2"></circle><circle cx="321" cy="323" r="2"></circle><circle cx="326" cy="317" r="2"></circle><circle cx="331" cy="290" r="2"></circle><circle cx="336" cy="290" r="2"></circle><circle cx="341" cy="284" r="2"></circle><circle cx="346" cy="297" r="2"></circle><circle cx="351" cy="297" r="2"></circle><circle cx="355" cy="284" r="2"></circle><circle cx="360" cy="317" r="2"></circle><circle cx="365" cy="323" r="2"></circle><circle cx="370" cy="277" r="2"></circle><circle cx="375" cy="290" r="2"></circle><circle cx="380" cy="264" r="2"></circle><circle cx="385" cy="257" r="2"></circle><circle cx="390" cy="264" r="2"></circle><circle cx="395" cy="251" r="2"></circle><circle cx="399" cy="264" r="2"></circle><circle cx="404" cy="244" r="2"></circle><circle cx="409" cy="231" r="2"></circle><circle cx="414" cy="211" r="2"></circle><circle cx="419" cy="224" r="2"></circle><circle cx="424" cy="231" r="2"></circle><circle cx="429" cy="237" r="2"></circle><circle cx="434" cy="251" r="2"></circle><circle cx="439" cy="257" r="2"></circle><circle cx="443" cy="270" r="2"></circle><circle cx="448" cy="264" r="2"></circle><circle cx="453" cy="264" r="2"></circle><circle cx="458" cy="270" r="2"></circle><circle cx="463" cy="270" r="2"></circle><circle cx="468" cy="264" r="2"></circle><circle cx="473" cy="290" r="2"></circle><circle cx="478" cy="264" r="2"></circle><circle cx="483" cy="264" r="2"></circle><circle cx="487" cy="264" r="2"></circle><circle cx="492" cy="264" r="2"></circle><circle cx="497" cy="264" r="2"></circle><circle cx="502" cy="270" r="2"></circle><circle cx="507" cy="297" r="2"></circle><circle cx="512" cy="297" r="2"></circle><circle cx="517" cy="304" r="2"></circle><circle cx="522" cy="270" r="2"></circle><circle cx="526" cy="251" r="2"></circle><circle cx="531" cy="257" r="2"></circle><circle cx="536" cy="284" r="2"></circle><circle cx="541" cy="191" r="2"></circle><circle cx="546" cy="237" r="2"></circle><circle cx="551" cy="337" r="2"></circle><circle cx="556" cy="350" r="2"></circle><circle cx="561" cy="284" r="2"></circle><circle cx="566" cy="237" r="2"></circle><circle cx="570" cy="370" r="2"></circle><circle cx="575" cy="337" r="2"></circle><circle cx="580" cy="323" r="2"></circle><circle cx="585" cy="310" r="2"></circle><circle cx="590" cy="317" r="2"></circle><circle cx="595" cy="310" r="2"></circle><circle cx="600" cy="297" r="2"></circle><circle cx="605" cy="297" r="2"></circle><circle cx="610" cy="290" r="2"></circle><circle cx="614" cy="317" r="2"></circle><circle cx="619" cy="337" r="2"></circle><circle cx="624" cy="363" r="2"></circle><circle cx="629" cy="357" r="2"></circle><circle cx="634" cy="337" r="2"></circle><circle cx="639" cy="337" r="2"></circle><circle cx="644" cy="330" r="2"></circle><circle cx="649" cy="290" r="2"></circle><circle cx="653" cy="317" r="2"></circle><circle cx="658" cy="310" r="2"></circle><circle cx="663" cy="376" r="2"></circle><circle cx="668" cy="410" r="2"></circle><circle cx="673" cy="416" r="2"></circle><circle cx="678" cy="429" r="2"></circle><circle cx="683" cy="449" r="2"></circle><circle cx="688" cy="443" r="2"></circle><circle cx="693" cy="363" r="2"></circle><circle cx="697" cy="310" r="2"></circle><circle cx="702" cy="323" r="2"></circle><circle cx="707" cy="343" r="2"></circle></g></g><g class="key-Spain_0"><path stroke="#3360a9" stroke-linecap="round" d="M473 383L478 396L483 390L487 390L492 390L497 396L502 403L507 416L512 423L517 403L522 396L526 383L531 376L536 443L541 429L546 436L551 429L556 436L561 429L566 390L570 423L575 423L580 403L585 403L590 416L595 429L600 429L605 416L610 403L614 383L619 423L624 443L629 456L634 456L639 449L663 482L668 489L673 489L678 476L683 476L688 515L693 502L697 496L702 496L707 496" fill="none" stroke-width="1.5"></path><g fill="#3360a9"><circle cx="473" cy="383" r="2"></circle><circle cx="478" cy="396" r="2"></circle><circle cx="483" cy="390" r="2"></circle><circle cx="487" cy="390" r="2"></circle><circle cx="492" cy="390" r="2"></circle><circle cx="497" cy="396" r="2"></circle><circle cx="502" cy="403" r="2"></circle><circle cx="507" cy="416" r="2"></circle><circle cx="512" cy="423" r="2"></circle><circle cx="517" cy="403" r="2"></circle><circle cx="522" cy="396" r="2"></circle><circle cx="526" cy="383" r="2"></circle><circle cx="531" cy="376" r="2"></circle><circle cx="536" cy="443" r="2"></circle><circle cx="541" cy="429" r="2"></circle><circle cx="546" cy="436" r="2"></circle><circle cx="551" cy="429" r="2"></circle><circle cx="556" cy="436" r="2"></circle><circle cx="561" cy="429" r="2"></circle><circle cx="566" cy="390" r="2"></circle><circle cx="570" cy="423" r="2"></circle><circle cx="575" cy="423" r="2"></circle><circle cx="580" cy="403" r="2"></circle><circle cx="585" cy="403" r="2"></circle><circle cx="590" cy="416" r="2"></circle><circle cx="595" cy="429" r="2"></circle><circle cx="600" cy="429" r="2"></circle><circle cx="605" cy="416" r="2"></circle><circle cx="610" cy="403" r="2"></circle><circle cx="614" cy="383" r="2"></circle><circle cx="619" cy="423" r="2"></circle><circle cx="624" cy="443" r="2"></circle><circle cx="629" cy="456" r="2"></circle><circle cx="634" cy="456" r="2"></circle><circle cx="639" cy="449" r="2"></circle><circle cx="663" cy="482" r="2"></circle><circle cx="668" cy="489" r="2"></circle><circle cx="673" cy="489" r="2"></circle><circle cx="678" cy="476" r="2"></circle><circle cx="683" cy="476" r="2"></circle><circle cx="688" cy="515" r="2"></circle><circle cx="693" cy="502" r="2"></circle><circle cx="697" cy="496" r="2"></circle><circle cx="702" cy="496" r="2"></circle><circle cx="707" cy="496" r="2"></circle></g></g><g class="key-Italy_0"><path stroke="#34983f" stroke-linecap="round" d="M468 383L473 383L478 370L483 376L487 370L492 363L497 343L502 350L507 350L512 350L517 337L522 350L526 337L531 343L536 370L541 330L546 297L551 264L556 290L561 304L566 264L570 363L575 383L580 376L585 350L590 337L595 350L600 363L605 363L610 363L614 376L619 403L624 443L629 443L634 449L639 456L644 469L649 423L653 443L658 449L663 449L668 463L673 463" fill="none" stroke-width="1.5"></path><g fill="#34983f"><circle cx="468" cy="383" r="2"></circle><circle cx="473" cy="383" r="2"></circle><circle cx="478" cy="370" r="2"></circle><circle cx="483" cy="376" r="2"></circle><circle cx="487" cy="370" r="2"></circle><circle cx="492" cy="363" r="2"></circle><circle cx="497" cy="343" r="2"></circle><circle cx="502" cy="350" r="2"></circle><circle cx="507" cy="350" r="2"></circle><circle cx="512" cy="350" r="2"></circle><circle cx="517" cy="337" r="2"></circle><circle cx="522" cy="350" r="2"></circle><circle cx="526" cy="337" r="2"></circle><circle cx="531" cy="343" r="2"></circle><circle cx="536" cy="370" r="2"></circle><circle cx="541" cy="330" r="2"></circle><circle cx="546" cy="297" r="2"></circle><circle cx="551" cy="264" r="2"></circle><circle cx="556" cy="290" r="2"></circle><circle cx="561" cy="304" r="2"></circle><circle cx="566" cy="264" r="2"></circle><circle cx="570" cy="363" r="2"></circle><circle cx="575" cy="383" r="2"></circle><circle cx="580" cy="376" r="2"></circle><circle cx="585" cy="350" r="2"></circle><circle cx="590" cy="337" r="2"></circle><circle cx="595" cy="350" r="2"></circle><circle cx="600" cy="363" r="2"></circle><circle cx="605" cy="363" r="2"></circle><circle cx="610" cy="363" r="2"></circle><circle cx="614" cy="376" r="2"></circle><circle cx="619" cy="403" r="2"></circle><circle cx="624" cy="443" r="2"></circle><circle cx="629" cy="443" r="2"></circle><circle cx="634" cy="449" r="2"></circle><circle cx="639" cy="456" r="2"></circle><circle cx="644" cy="469" r="2"></circle><circle cx="649" cy="423" r="2"></circle><circle cx="653" cy="443" r="2"></circle><circle cx="658" cy="449" r="2"></circle><circle cx="663" cy="449" r="2"></circle><circle cx="668" cy="463" r="2"></circle><circle cx="673" cy="463" r="2"></circle></g></g><g class="key-Germany_0"><path stroke="#ca2628" stroke-linecap="round" d="M370 310L375 304L380 297L385 297L390 304L395 330L399 330L404 323L409 330L414 323L419 323L424 323L429 343L434 343L439 350L443 343L448 343L453 343L458 330L463 337L468 323L473 330L478 323L483 323L487 323L492 317L497 304L502 297L507 317L512 310L517 297L522 290L526 284L531 270L590 323L595 330L600 330L605 330L610 310L614 330L619 350L624 403L629 429L634 449L639 456L644 463L649 449L653 463" fill="none" stroke-width="1.5"></path><g fill="#ca2628"><circle cx="370" cy="310" r="2"></circle><circle cx="375" cy="304" r="2"></circle><circle cx="380" cy="297" r="2"></circle><circle cx="385" cy="297" r="2"></circle><circle cx="390" cy="304" r="2"></circle><circle cx="395" cy="330" r="2"></circle><circle cx="399" cy="330" r="2"></circle><circle cx="404" cy="323" r="2"></circle><circle cx="409" cy="330" r="2"></circle><circle cx="414" cy="323" r="2"></circle><circle cx="419" cy="323" r="2"></circle><circle cx="424" cy="323" r="2"></circle><circle cx="429" cy="343" r="2"></circle><circle cx="434" cy="343" r="2"></circle><circle cx="439" cy="350" r="2"></circle><circle cx="443" cy="343" r="2"></circle><circle cx="448" cy="343" r="2"></circle><circle cx="453" cy="343" r="2"></circle><circle cx="458" cy="330" r="2"></circle><circle cx="463" cy="337" r="2"></circle><circle cx="468" cy="323" r="2"></circle><circle cx="473" cy="330" r="2"></circle><circle cx="478" cy="323" r="2"></circle><circle cx="483" cy="323" r="2"></circle><circle cx="487" cy="323" r="2"></circle><circle cx="492" cy="317" r="2"></circle><circle cx="497" cy="304" r="2"></circle><circle cx="502" cy="297" r="2"></circle><circle cx="507" cy="317" r="2"></circle><circle cx="512" cy="310" r="2"></circle><circle cx="517" cy="297" r="2"></circle><circle cx="522" cy="290" r="2"></circle><circle cx="526" cy="284" r="2"></circle><circle cx="531" cy="270" r="2"></circle><circle cx="590" cy="323" r="2"></circle><circle cx="595" cy="330" r="2"></circle><circle cx="600" cy="330" r="2"></circle><circle cx="605" cy="330" r="2"></circle><circle cx="610" cy="310" r="2"></circle><circle cx="614" cy="330" r="2"></circle><circle cx="619" cy="350" r="2"></circle><circle cx="624" cy="403" r="2"></circle><circle cx="629" cy="429" r="2"></circle><circle cx="634" cy="449" r="2"></circle><circle cx="639" cy="456" r="2"></circle><circle cx="644" cy="463" r="2"></circle><circle cx="649" cy="449" r="2"></circle><circle cx="653" cy="463" r="2"></circle></g></g><g class="key-France_0"><path stroke="#f6a324" stroke-linecap="round" d="M53 482L57 476L62 482L67 476L72 476L77 469L82 476L87 476L92 489L97 476L101 456L106 476L111 476L116 476L121 476L126 482L131 489L136 476L141 476L145 476L150 476L155 469L160 476L165 469L170 463L175 463L180 463L185 463L189 463L194 456L199 456L204 456L209 469L214 476L219 456L224 449L228 443L233 443L238 423L243 436L248 423L253 410L258 410L263 410L268 390L272 403L277 396L282 403L287 383L292 370L297 357L302 363L307 363L312 376L316 370L321 376L326 357L331 343L336 337L341 350L346 350L351 330L355 350L360 343L365 310L370 317L375 323L380 337L385 337L390 343L395 343L399 337L404 343L409 343L414 343L419 350L424 350L429 357L434 370L439 376L443 363L448 370L453 370L458 370L463 357L468 357L473 357L478 357L483 357L487 357L492 343L497 330L502 330L507 343L512 337L517 317L522 330L526 337L531 330L566 244L570 323L575 343L580 310L585 284L590 297L595 290L600 304L605 323L610 330L614 343L619 376L624 410L629 410L634 416L639 416L644 423L649 410L653 410L707 410" fill="none" stroke-width="1.5"></path><g fill="#f6a324"><circle cx="53" cy="482" r="2"></circle><circle cx="57" cy="476" r="2"></circle><circle cx="62" cy="482" r="2"></circle><circle cx="67" cy="476" r="2"></circle><circle cx="72" cy="476" r="2"></circle><circle cx="77" cy="469" r="2"></circle><circle cx="82" cy="476" r="2"></circle><circle cx="87" cy="476" r="2"></circle><circle cx="92" cy="489" r="2"></circle><circle cx="97" cy="476" r="2"></circle><circle cx="101" cy="456" r="2"></circle><circle cx="106" cy="476" r="2"></circle><circle cx="111" cy="476" r="2"></circle><circle cx="116" cy="476" r="2"></circle><circle cx="121" cy="476" r="2"></circle><circle cx="126" cy="482" r="2"></circle><circle cx="131" cy="489" r="2"></circle><circle cx="136" cy="476" r="2"></circle><circle cx="141" cy="476" r="2"></circle><circle cx="145" cy="476" r="2"></circle><circle cx="150" cy="476" r="2"></circle><circle cx="155" cy="469" r="2"></circle><circle cx="160" cy="476" r="2"></circle><circle cx="165" cy="469" r="2"></circle><circle cx="170" cy="463" r="2"></circle><circle cx="175" cy="463" r="2"></circle><circle cx="180" cy="463" r="2"></circle><circle cx="185" cy="463" r="2"></circle><circle cx="189" cy="463" r="2"></circle><circle cx="194" cy="456" r="2"></circle><circle cx="199" cy="456" r="2"></circle><circle cx="204" cy="456" r="2"></circle><circle cx="209" cy="469" r="2"></circle><circle cx="214" cy="476" r="2"></circle><circle cx="219" cy="456" r="2"></circle><circle cx="224" cy="449" r="2"></circle><circle cx="228" cy="443" r="2"></circle><circle cx="233" cy="443" r="2"></circle><circle cx="238" cy="423" r="2"></circle><circle cx="243" cy="436" r="2"></circle><circle cx="248" cy="423" r="2"></circle><circle cx="253" cy="410" r="2"></circle><circle cx="258" cy="410" r="2"></circle><circle cx="263" cy="410" r="2"></circle><circle cx="268" cy="390" r="2"></circle><circle cx="272" cy="403" r="2"></circle><circle cx="277" cy="396" r="2"></circle><circle cx="282" cy="403" r="2"></circle><circle cx="287" cy="383" r="2"></circle><circle cx="292" cy="370" r="2"></circle><circle cx="297" cy="357" r="2"></circle><circle cx="302" cy="363" r="2"></circle><circle cx="307" cy="363" r="2"></circle><circle cx="312" cy="376" r="2"></circle><circle cx="316" cy="370" r="2"></circle><circle cx="321" cy="376" r="2"></circle><circle cx="326" cy="357" r="2"></circle><circle cx="331" cy="343" r="2"></circle><circle cx="336" cy="337" r="2"></circle><circle cx="341" cy="350" r="2"></circle><circle cx="346" cy="350" r="2"></circle><circle cx="351" cy="330" r="2"></circle><circle cx="355" cy="350" r="2"></circle><circle cx="360" cy="343" r="2"></circle><circle cx="365" cy="310" r="2"></circle><circle cx="370" cy="317" r="2"></circle><circle cx="375" cy="323" r="2"></circle><circle cx="380" cy="337" r="2"></circle><circle cx="385" cy="337" r="2"></circle><circle cx="390" cy="343" r="2"></circle><circle cx="395" cy="343" r="2"></circle><circle cx="399" cy="337" r="2"></circle><circle cx="404" cy="343" r="2"></circle><circle cx="409" cy="343" r="2"></circle><circle cx="414" cy="343" r="2"></circle><circle cx="419" cy="350" r="2"></circle><circle cx="424" cy="350" r="2"></circle><circle cx="429" cy="357" r="2"></circle><circle cx="434" cy="370" r="2"></circle><circle cx="439" cy="376" r="2"></circle><circle cx="443" cy="363" r="2"></circle><circle cx="448" cy="370" r="2"></circle><circle cx="453" cy="370" r="2"></circle><circle cx="458" cy="370" r="2"></circle><circle cx="463" cy="357" r="2"></circle><circle cx="468" cy="357" r="2"></circle><circle cx="473" cy="357" r="2"></circle><circle cx="478" cy="357" r="2"></circle><circle cx="483" cy="357" r="2"></circle><circle cx="487" cy="357" r="2"></circle><circle cx="492" cy="343" r="2"></circle><circle cx="497" cy="330" r="2"></circle><circle cx="502" cy="330" r="2"></circle><circle cx="507" cy="343" r="2"></circle><circle cx="512" cy="337" r="2"></circle><circle cx="517" cy="317" r="2"></circle><circle cx="522" cy="330" r="2"></circle><circle cx="526" cy="337" r="2"></circle><circle cx="531" cy="330" r="2"></circle><circle cx="566" cy="244" r="2"></circle><circle cx="570" cy="323" r="2"></circle><circle cx="575" cy="343" r="2"></circle><circle cx="580" cy="310" r="2"></circle><circle cx="585" cy="284" r="2"></circle><circle cx="590" cy="297" r="2"></circle><circle cx="595" cy="290" r="2"></circle><circle cx="600" cy="304" r="2"></circle><circle cx="605" cy="323" r="2"></circle><circle cx="610" cy="330" r="2"></circle><circle cx="614" cy="343" r="2"></circle><circle cx="619" cy="376" r="2"></circle><circle cx="624" cy="410" r="2"></circle><circle cx="629" cy="410" r="2"></circle><circle cx="634" cy="416" r="2"></circle><circle cx="639" cy="416" r="2"></circle><circle cx="644" cy="423" r="2"></circle><circle cx="649" cy="410" r="2"></circle><circle cx="653" cy="410" r="2"></circle><circle cx="707" cy="410" r="2"></circle></g></g><g class="key-United-Kingdom_0"><path stroke="#2a939b" stroke-linecap="round" d="M126 383L131 376L136 383L141 363L145 363L150 363L155 343L160 370L165 357L170 350L175 337L180 337L185 343L189 343L194 343L199 343L204 357L209 337L214 363L219 337L224 304L228 304L233 304L238 264L243 277L248 290L253 251L258 237L263 251L268 244L272 211L277 231L282 224L287 237L292 191L297 204L302 191L307 204L312 78L316 191L321 198L326 178L331 165L336 178L341 198L346 184L351 184L355 165L360 204L365 158L370 178L375 158L380 151L385 165L390 184L395 191L399 204L404 198L409 178L414 165L419 171L424 184L429 198L434 204L439 218L443 211L448 211L453 211L458 224L463 231L468 211L473 237L478 224L483 211L487 211L492 204L497 171L502 151L507 184L512 178L517 145L522 158L526 131L531 138L536 198L541 237L546 237L551 284L556 304L561 224L566 151L570 270L575 244L580 204L585 165L590 184L595 198L600 204L605 211L610 218L614 270L619 323L624 443L629 343L634 343L639 343L644 330L649 304L653 343L658 363L663 376L668 403L673 410L678 370L683 337L688 383L693 363L697 323L702 297L707 284" fill="none" stroke-width="1.5"></path><g fill="#2a939b"><circle cx="126" cy="383" r="2"></circle><circle cx="131" cy="376" r="2"></circle><circle cx="136" cy="383" r="2"></circle><circle cx="141" cy="363" r="2"></circle><circle cx="145" cy="363" r="2"></circle><circle cx="150" cy="363" r="2"></circle><circle cx="155" cy="343" r="2"></circle><circle cx="160" cy="370" r="2"></circle><circle cx="165" cy="357" r="2"></circle><circle cx="170" cy="350" r="2"></circle><circle cx="175" cy="337" r="2"></circle><circle cx="180" cy="337" r="2"></circle><circle cx="185" cy="343" r="2"></circle><circle cx="189" cy="343" r="2"></circle><circle cx="194" cy="343" r="2"></circle><circle cx="199" cy="343" r="2"></circle><circle cx="204" cy="357" r="2"></circle><circle cx="209" cy="337" r="2"></circle><circle cx="214" cy="363" r="2"></circle><circle cx="219" cy="337" r="2"></circle><circle cx="224" cy="304" r="2"></circle><circle cx="228" cy="304" r="2"></circle><circle cx="233" cy="304" r="2"></circle><circle cx="238" cy="264" r="2"></circle><circle cx="243" cy="277" r="2"></circle><circle cx="248" cy="290" r="2"></circle><circle cx="253" cy="251" r="2"></circle><circle cx="258" cy="237" r="2"></circle><circle cx="263" cy="251" r="2"></circle><circle cx="268" cy="244" r="2"></circle><circle cx="272" cy="211" r="2"></circle><circle cx="277" cy="231" r="2"></circle><circle cx="282" cy="224" r="2"></circle><circle cx="287" cy="237" r="2"></circle><circle cx="292" cy="191" r="2"></circle><circle cx="297" cy="204" r="2"></circle><circle cx="302" cy="191" r="2"></circle><circle cx="307" cy="204" r="2"></circle><circle cx="312" cy="78" r="2"></circle><circle cx="316" cy="191" r="2"></circle><circle cx="321" cy="198" r="2"></circle><circle cx="326" cy="178" r="2"></circle><circle cx="331" cy="165" r="2"></circle><circle cx="336" cy="178" r="2"></circle><circle cx="341" cy="198" r="2"></circle><circle cx="346" cy="184" r="2"></circle><circle cx="351" cy="184" r="2"></circle><circle cx="355" cy="165" r="2"></circle><circle cx="360" cy="204" r="2"></circle><circle cx="365" cy="158" r="2"></circle><circle cx="370" cy="178" r="2"></circle><circle cx="375" cy="158" r="2"></circle><circle cx="380" cy="151" r="2"></circle><circle cx="385" cy="165" r="2"></circle><circle cx="390" cy="184" r="2"></circle><circle cx="395" cy="191" r="2"></circle><circle cx="399" cy="204" r="2"></circle><circle cx="404" cy="198" r="2"></circle><circle cx="409" cy="178" r="2"></circle><circle cx="414" cy="165" r="2"></circle><circle cx="419" cy="171" r="2"></circle><circle cx="424" cy="184" r="2"></circle><circle cx="429" cy="198" r="2"></circle><circle cx="434" cy="204" r="2"></circle><circle cx="439" cy="218" r="2"></circle><circle cx="443" cy="211" r="2"></circle><circle cx="448" cy="211" r="2"></circle><circle cx="453" cy="211" r="2"></circle><circle cx="458" cy="224" r="2"></circle><circle cx="463" cy="231" r="2"></circle><circle cx="468" cy="211" r="2"></circle><circle cx="473" cy="237" r="2"></circle><circle cx="478" cy="224" r="2"></circle><circle cx="483" cy="211" r="2"></circle><circle cx="487" cy="211" r="2"></circle><circle cx="492" cy="204" r="2"></circle><circle cx="497" cy="171" r="2"></circle><circle cx="502" cy="151" r="2"></circle><circle cx="507" cy="184" r="2"></circle><circle cx="512" cy="178" r="2"></circle><circle cx="517" cy="145" r="2"></circle><circle cx="522" cy="158" r="2"></circle><circle cx="526" cy="131" r="2"></circle><circle cx="531" cy="138" r="2"></circle><circle cx="536" cy="198" r="2"></circle><circle cx="541" cy="237" r="2"></circle><circle cx="546" cy="237" r="2"></circle><circle cx="551" cy="284" r="2"></circle><circle cx="556" cy="304" r="2"></circle><circle cx="561" cy="224" r="2"></circle><circle cx="566" cy="151" r="2"></circle><circle cx="570" cy="270" r="2"></circle><circle cx="575" cy="244" r="2"></circle><circle cx="580" cy="204" r="2"></circle><circle cx="585" cy="165" r="2"></circle><circle cx="590" cy="184" r="2"></circle><circle cx="595" cy="198" r="2"></circle><circle cx="600" cy="204" r="2"></circle><circle cx="605" cy="211" r="2"></circle><circle cx="610" cy="218" r="2"></circle><circle cx="614" cy="270" r="2"></circle><circle cx="619" cy="323" r="2"></circle><circle cx="624" cy="443" r="2"></circle><circle cx="629" cy="343" r="2"></circle><circle cx="634" cy="343" r="2"></circle><circle cx="639" cy="343" r="2"></circle><circle cx="644" cy="330" r="2"></circle><circle cx="649" cy="304" r="2"></circle><circle cx="653" cy="343" r="2"></circle><circle cx="658" cy="363" r="2"></circle><circle cx="663" cy="376" r="2"></circle><circle cx="668" cy="403" r="2"></circle><circle cx="673" cy="410" r="2"></circle><circle cx="678" cy="370" r="2"></circle><circle cx="683" cy="337" r="2"></circle><circle cx="688" cy="383" r="2"></circle><circle cx="693" cy="363" r="2"></circle><circle cx="697" cy="323" r="2"></circle><circle cx="702" cy="297" r="2"></circle><circle cx="707" cy="284" r="2"></circle></g></g></g></g></g><g style="fill: #777;" class="SourcesFooter"><g style="fill: #777;" class="clickable"><text font-size="12.60" x="15.0" y="581.6"><tspan x="15" y="581.58">Source: International Historical Statistics - Brian Mitchell (2015)</tspan></text></g><text font-size="12.60" x="543.6" y="581.6"><tspan x="543.562" y="581.58"><a target='_blank' style='fill: #777;' href='https://ourworldindata.org/international-trade'>OurWorldInData.org/international-trade</a> • <a style="fill: #777;" href="http://creativecommons.org/licenses/by-sa/4.0/deed.en_US" target="_blank">CC BY-SA</a></tspan></text></g></g></svg>