<svg xmlns="http://www.w3.org/2000/svg" version="1.1" style="font-family: 'Helvetica Neue', Helvetica, Arial, sans-serif; font-size: 24px; background-color: white;" width="1200" height="630"><g class="ChartTab"><g class="LineChart"><defs><clipPath id="boundsClip-1879"><rect x="53.416000000000004" y="0" width="1180" height="1130"></rect></clipPath></defs><g class="AxisBoxView"><g class="HorizontalAxis"><text x="63.4" y="600" fill="#666" text-anchor="middle" font-size="21.6">1972</text><text x="133.5" y="600" fill="#666" text-anchor="middle" font-size="21.6">1975</text><text x="250.2" y="600" fill="#666" text-anchor="middle" font-size="21.6">1980</text><text x="367" y="600" fill="#666" text-anchor="middle" font-size="21.6">1985</text><text x="483.8" y="600" fill="#666" text-anchor="middle" font-size="21.6">1990</text><text x="600.5" y="600" fill="#666" text-anchor="middle" font-size="21.6">1995</text><text x="717.3" y="600" fill="#666" text-anchor="middle" font-size="21.6">2000</text><text x="834.1" y="600" fill="#666" text-anchor="middle" font-size="21.6">2005</text><text x="950.8" y="600" fill="#666" text-anchor="middle" font-size="21.6">2010</text><text x="1044.2" y="600" fill="#666" text-anchor="middle" font-size="21.6">2014</text></g><g class="VerticalAxis"><text x="58.42" y="573.4" fill="#666" dominant-baseline="middle" text-anchor="end" font-size="21.6">30%</text><text x="58.42" y="512.8" fill="#666" dominant-baseline="middle" text-anchor="end" font-size="21.6">32%</text><text x="58.42" y="452.3" fill="#666" dominant-baseline="middle" text-anchor="end" font-size="21.6">34%</text><text x="58.42" y="391.7" fill="#666" dominant-baseline="middle" text-anchor="end" font-size="21.6">36%</text><text x="58.42" y="331.2" fill="#666" dominant-baseline="middle" text-anchor="end" font-size="21.6">38%</text><text x="58.42" y="270.6" fill="#666" dominant-baseline="middle" text-anchor="end" font-size="21.6">40%</text><text x="58.42" y="210.1" fill="#666" dominant-baseline="middle" text-anchor="end" font-size="21.6">42%</text><text x="58.42" y="149.5" fill="#666" dominant-baseline="middle" text-anchor="end" font-size="21.6">44%</text><text x="58.42" y="88.9" fill="#666" dominant-baseline="middle" text-anchor="end" font-size="21.6">46%</text></g><g class="AxisGridLines"><line x1="63.42" y1="573.4" x2="1044.22" y2="573.4" stroke="#ddd" stroke-dasharray="3,2"></line><line x1="63.42" y1="512.8" x2="1044.22" y2="512.8" stroke="#ddd" stroke-dasharray="3,2"></line><line x1="63.42" y1="452.3" x2="1044.22" y2="452.3" stroke="#ddd" stroke-dasharray="3,2"></line><line x1="63.42" y1="391.7" x2="1044.22" y2="391.7" stroke="#ddd" stroke-dasharray="3,2"></line><line x1="63.42" y1="331.2" x2="1044.22" y2="331.2" stroke="#ddd" stroke-dasharray="3,2"></line><line x1="63.42" y1="270.6" x2="1044.22" y2="270.6" stroke="#ddd" stroke-dasharray="3,2"></line><line x1="63.42" y1="210.1" x2="1044.22" y2="210.1" stroke="#ddd" stroke-dasharray="3,2"></line><line x1="63.42" y1="149.5" x2="1044.22" y2="149.5" stroke="#ddd" stroke-dasharray="3,2"></line><line x1="63.42" y1="88.9" x2="1044.22" y2="88.9" stroke="#ddd" stroke-dasharray="3,2"></line></g><g class="AxisGridLines"><line x1="133.5" y1="573.40" x2="133.5" y2="35.00" stroke="#ddd" stroke-dasharray="3,2"></line><line x1="250.2" y1="573.40" x2="250.2" y2="35.00" stroke="#ddd" stroke-dasharray="3,2"></line><line x1="367" y1="573.40" x2="367" y2="35.00" stroke="#ddd" stroke-dasharray="3,2"></line><line x1="483.8" y1="573.40" x2="483.8" y2="35.00" stroke="#ddd" stroke-dasharray="3,2"></line><line x1="600.5" y1="573.40" x2="600.5" y2="35.00" stroke="#ddd" stroke-dasharray="3,2"></line><line x1="717.3" y1="573.40" x2="717.3" y2="35.00" stroke="#ddd" stroke-dasharray="3,2"></line><line x1="834.1" y1="573.40" x2="834.1" y2="35.00" stroke="#ddd" stroke-dasharray="3,2"></line><line x1="950.8" y1="573.40" x2="950.8" y2="35.00" stroke="#ddd" stroke-dasharray="3,2"></line></g></g><g clip-path="url(#boundsClip-1879)"><g class="HeightedLegend clickable"><g class="legendMark"><rect x="1054.224" y="540.1" width="130.776" height="19.200000000000003" fill="#fff" opacity="0"></rect><rect x="1054.224" y="548.45" width="10" height="2.5" fill="#3360a9"></rect><text font-size="19.20" x="1069.2" y="555.5" fill="#333"><tspan x="1069.224" y="555.46">United States</tspan></text></g></g><g class="Lines"><rect x="63" y="35" width="981" height="538" fill="rgba(255,255,255,0)" opacity="0"></rect><g class="key-United-States_0"><path stroke="#3360a9" stroke-linecap="round" d="M63 96L87 91L134 291L157 139L204 304L250 108L320 364L344 35L390 347L414 316L437 310L460 245L484 329L507 318L554 401L577 452L624 457L671 346L717 420L764 453L811 396L857 496L904 484L951 473L998 506L1044 550" fill="none" stroke-width="1.5"></path><g fill="#3360a9"><circle cx="63" cy="96" r="2"></circle><circle cx="87" cy="91" r="2"></circle><circle cx="134" cy="291" r="2"></circle><circle cx="157" cy="139" r="2"></circle><circle cx="204" cy="304" r="2"></circle><circle cx="250" cy="108" r="2"></circle><circle cx="320" cy="364" r="2"></circle><circle cx="344" cy="35" r="2"></circle><circle cx="390" cy="347" r="2"></circle><circle cx="414" cy="316" r="2"></circle><circle cx="437" cy="310" r="2"></circle><circle cx="460" cy="245" r="2"></circle><circle cx="484" cy="329" r="2"></circle><circle cx="507" cy="318" r="2"></circle><circle cx="554" cy="401" r="2"></circle><circle cx="577" cy="452" r="2"></circle><circle cx="624" cy="457" r="2"></circle><circle cx="671" cy="346" r="2"></circle><circle cx="717" cy="420" r="2"></circle><circle cx="764" cy="453" r="2"></circle><circle cx="811" cy="396" r="2"></circle><circle cx="857" cy="496" r="2"></circle><circle cx="904" cy="484" r="2"></circle><circle cx="951" cy="473" r="2"></circle><circle cx="998" cy="506" r="2"></circle><circle cx="1044" cy="550" r="2"></circle></g></g></g></g></g></g></svg>