<svg xmlns="http://www.w3.org/2000/svg" version="1.1" style="font-family: 'Helvetica Neue', Helvetica, Arial, sans-serif; font-size: 18px; background-color: white; text-rendering: optimizeLegibility; -webkit-font-smoothing: antialiased;" width="850" height="600"><g class="ChartTab"><g class="HeaderView"><g opacity="0.8" transform="translate(778, 15) scale(0.27)"><a xmlns:xlink="http://www.w3.org/1999/xlink" xlink:href="https://ourworldindata.org" target="_blank"><g><rect x="0" y="0" fill="#1B2543" width="211.2" height="130.1"/><rect x="0" y="112.2" fill="#E63912" width="211.2" height="17.9"/><g><rect x="1.2" y="12.3" fill="none" width="210.2" height="99.2"/><path fill="#FFFFFF" d="M37.8,32.2c0,12.7-7.7,19.4-17.1,19.4c-9.7,0-16.6-7.5-16.6-18.7c0-11.7,7.3-19.3,17.1-19.3 C31.3,13.7,37.8,21.3,37.8,32.2z M9.2,32.8c0,7.9,4.3,14.9,11.8,14.9c7.5,0,11.8-6.9,11.8-15.3c0-7.3-3.8-14.9-11.8-14.9 C13.1,17.5,9.2,24.8,9.2,32.8z"/><path fill="#FFFFFF" d="M62.7,43.8c0,2.7,0.1,5.1,0.2,7.2h-4.3l-0.3-4.3h-0.1c-1.3,2.1-4,4.9-8.8,4.9c-4.2,0-9.1-2.3-9.1-11.6 V24.6h4.8v14.6c0,5,1.5,8.4,5.9,8.4c3.2,0,5.5-2.2,6.3-4.4c0.3-0.7,0.4-1.6,0.4-2.5V24.6h4.8V43.8z"/><path fill="#FFFFFF" d="M67.3,32.8c0-3.1-0.1-5.8-0.2-8.2h4.2l0.2,5.2h0.2c1.2-3.5,4.1-5.8,7.3-5.8c0.5,0,0.9,0.1,1.4,0.2v4.5 c-0.5-0.1-1-0.2-1.6-0.2c-3.4,0-5.8,2.6-6.5,6.2c-0.1,0.7-0.2,1.4-0.2,2.2V51h-4.8V32.8z"/><path fill="#FFFFFF" d="M95.4,51l-9.4-36.8h5l4.4,18.6c1.1,4.6,2.1,9.2,2.7,12.7h0.1c0.6-3.7,1.8-8,3-12.8l4.9-18.5h5l4.5,18.7 c1,4.4,2,8.7,2.6,12.6h0.1c0.8-4,1.8-8.1,3-12.7l4.9-18.5h4.9L120.6,51h-5L111,31.9c-1.1-4.7-1.9-8.3-2.4-12h-0.1 c-0.7,3.7-1.5,7.3-2.8,12L100.4,51H95.4z"/><path fill="#FFFFFF" d="M154.9,37.6c0,9.8-6.8,14-13.2,14c-7.2,0-12.7-5.2-12.7-13.6c0-8.8,5.8-14,13.1-14 C149.8,24,154.9,29.5,154.9,37.6z M133.9,37.9c0,5.8,3.3,10.1,8,10.1c4.6,0,8-4.3,8-10.3c0-4.5-2.2-10.1-7.9-10.1 C136.3,27.6,133.9,32.8,133.9,37.9z"/><path fill="#FFFFFF" d="M158.2,32.8c0-3.1-0.1-5.8-0.2-8.2h4.2l0.2,5.2h0.2c1.2-3.5,4.1-5.8,7.3-5.8c0.5,0,0.9,0.1,1.4,0.2v4.5 c-0.5-0.1-1-0.2-1.6-0.2c-3.4,0-5.8,2.6-6.5,6.2c-0.1,0.7-0.2,1.4-0.2,2.2V51h-4.8V32.8z"/><path fill="#FFFFFF" d="M173.5,12.3h4.8V51h-4.8V12.3z"/><path fill="#FFFFFF" d="M206.5,12.3v31.9c0,2.3,0.1,5,0.2,6.8h-4.3l-0.2-4.6H202c-1.5,2.9-4.7,5.2-9,5.2 c-6.4,0-11.3-5.4-11.3-13.4c-0.1-8.8,5.4-14.2,11.9-14.2c4,0,6.8,1.9,8,4h0.1V12.3H206.5z M201.7,35.4c0-0.6-0.1-1.4-0.2-2 c-0.7-3.1-3.3-5.6-6.9-5.6c-5,0-7.9,4.4-7.9,10.2c0,5.3,2.6,9.8,7.8,9.8c3.2,0,6.2-2.1,7.1-5.7c0.2-0.7,0.2-1.3,0.2-2.1V35.4z"/><path fill="#FFFFFF" d="M42.8,64c0.1,1.6-1.1,2.9-3.1,2.9c-1.7,0-2.9-1.3-2.9-2.9c0-1.7,1.3-3,3-3C41.7,61,42.8,62.3,42.8,64z M37.4,97.8V71.4h4.8v26.4H37.4z"/><path fill="#FFFFFF" d="M47.5,78.6c0-2.7-0.1-5-0.2-7.1h4.3l0.3,4.4h0.1c1.3-2.5,4.4-5,8.8-5c3.7,0,9.4,2.2,9.4,11.2v15.8h-4.8 V82.6c0-4.3-1.6-7.8-6.1-7.8c-3.2,0-5.6,2.2-6.5,4.9c-0.2,0.6-0.3,1.4-0.3,2.2v15.9h-4.8V78.6z"/><path fill="#FFFFFF" d="M84,61.6c2.9-0.4,6.3-0.8,10.1-0.8c6.8,0,11.7,1.6,14.9,4.6c3.3,3,5.2,7.3,5.2,13.2c0,6-1.9,10.9-5.3,14.3 c-3.4,3.4-9.1,5.3-16.3,5.3c-3.4,0-6.2-0.2-8.6-0.4V61.6z M88.8,94.1c1.2,0.2,3,0.3,4.8,0.3c10.2,0,15.7-5.7,15.7-15.6 c0.1-8.7-4.9-14.2-14.9-14.2c-2.5,0-4.3,0.2-5.6,0.5V94.1z"/><path fill="#FFFFFF" d="M132.1,97.8l-0.4-3.3h-0.2c-1.5,2.1-4.3,3.9-8.1,3.9c-5.4,0-8.1-3.8-8.1-7.6c0-6.4,5.7-9.9,15.9-9.8v-0.5 c0-2.2-0.6-6.1-6-6.1c-2.5,0-5,0.8-6.9,2l-1.1-3.2c2.2-1.4,5.4-2.3,8.7-2.3c8.1,0,10.1,5.5,10.1,10.8v9.9c0,2.3,0.1,4.5,0.4,6.3 H132.1z M131.4,84.4c-5.3-0.1-11.2,0.8-11.2,5.9c0,3.1,2.1,4.6,4.5,4.6c3.4,0,5.6-2.2,6.4-4.4c0.2-0.5,0.3-1,0.3-1.5V84.4z"/><path fill="#FFFFFF" d="M146.6,63.9v7.6h6.9v3.7h-6.9v14.2c0,3.3,0.9,5.1,3.6,5.1c1.3,0,2.2-0.2,2.8-0.3l0.2,3.6 c-0.9,0.4-2.4,0.7-4.3,0.7c-2.2,0-4-0.7-5.2-2c-1.4-1.4-1.9-3.8-1.9-6.9V75.1h-4.1v-3.7h4.1v-6.3L146.6,63.9z"/><path fill="#FFFFFF" d="M171.4,97.8l-0.4-3.3h-0.2c-1.5,2.1-4.3,3.9-8.1,3.9c-5.4,0-8.1-3.8-8.1-7.6c0-6.4,5.7-9.9,15.9-9.8v-0.5 c0-2.2-0.6-6.1-6-6.1c-2.5,0-5,0.8-6.9,2l-1.1-3.2c2.2-1.4,5.4-2.3,8.7-2.3c8.1,0,10.1,5.5,10.1,10.8v9.9c0,2.3,0.1,4.5,0.4,6.3 H171.4z M170.7,84.4c-5.3-0.1-11.2,0.8-11.2,5.9c0,3.1,2.1,4.6,4.5,4.6c3.4,0,5.6-2.2,6.4-4.4c0.2-0.5,0.3-1,0.3-1.5V84.4z"/></g></g></a></g><a href="https://ourworldindata.org/grapher/urban-sanitation-facilities-vs-rural-sanitation-facilities" target="_blank"><text font-size="24.30" x="15.0" y="34.4" fill="#555"><tspan x="15" y="34.44">Urban sanitation facilities vs. rural sanitation facilities, 2015</tspan></text></a><text font-size="14.40" x="15.0" y="52.8" fill="#666"><tspan x="15" y="52.81999999999999">The share of the urban population with access to improved sanitation facilities versus the share of rural population</tspan><tspan x="15" y="68.66">with improved sanitation facilities. Improved sanitation facilities are likely to ensure hygienic separation of human</tspan><tspan x="15" y="84.5">excreta from human contact. They include flush/pour flush (to piped sewer system, septic tank, pit latrine), ventilated</tspan><tspan x="15" y="100.34">improved pit (VIP) latrine, pit latrine with slab, and composting toilet.</tspan></text></g><g><g class="AxisBoxView"><g class="HorizontalAxis"><text font-size="12.60" x="171.1" y="554.0"><tspan x="171.149" y="553.98">Improved sanitation facilities, rural (% of rural population with access)</tspan></text><text x="195.3" y="533.9" fill="#666" text-anchor="middle" font-size="16.2">20%</text><text x="325.2" y="533.9" fill="#666" text-anchor="middle" font-size="16.2">40%</text><text x="455.2" y="533.9" fill="#666" text-anchor="middle" font-size="16.2">60%</text><text x="585.1" y="533.9" fill="#666" text-anchor="middle" font-size="16.2">80%</text><text x="715" y="533.9" fill="#666" text-anchor="middle" font-size="16.2">100%</text></g><g class="VerticalAxis"><text font-size="12.60" x="-516.9" y="25.1" transform="rotate(-90)"><tspan x="-516.884" y="25.080000000000002">Improved sanitation facilities, urban (% of urban population with</tspan><tspan x="-516.884" y="38.940000000000005">access)</tspan></text><text x="92.93" y="512.7" fill="#666" dominant-baseline="middle" text-anchor="end" font-size="16.2">0%</text><text x="92.93" y="434.6" fill="#666" dominant-baseline="middle" text-anchor="end" font-size="16.2">20%</text><text x="92.93" y="356.5" fill="#666" dominant-baseline="middle" text-anchor="end" font-size="16.2">40%</text><text x="92.93" y="278.4" fill="#666" dominant-baseline="middle" text-anchor="end" font-size="16.2">60%</text><text x="92.93" y="200.3" fill="#666" dominant-baseline="middle" text-anchor="end" font-size="16.2">80%</text><text x="92.93" y="122.2" fill="#666" dominant-baseline="middle" text-anchor="end" font-size="16.2">100%</text></g><g class="AxisGridLines"><line x1="84.23" y1="512.7" x2="715.00" y2="512.7" stroke="#ccc"></line><line x1="84.23" y1="434.6" x2="715.00" y2="434.6" stroke="#ddd" stroke-dasharray="3,2"></line><line x1="84.23" y1="356.5" x2="715.00" y2="356.5" stroke="#ddd" stroke-dasharray="3,2"></line><line x1="84.23" y1="278.4" x2="715.00" y2="278.4" stroke="#ddd" stroke-dasharray="3,2"></line><line x1="84.23" y1="200.3" x2="715.00" y2="200.3" stroke="#ddd" stroke-dasharray="3,2"></line><line x1="84.23" y1="122.2" x2="715.00" y2="122.2" stroke="#ddd" stroke-dasharray="3,2"></line></g><g class="AxisGridLines"><line x1="195.3" y1="512.70" x2="195.3" y2="122.20" stroke="#ddd" stroke-dasharray="3,2"></line><line x1="325.2" y1="512.70" x2="325.2" y2="122.20" stroke="#ddd" stroke-dasharray="3,2"></line><line x1="455.2" y1="512.70" x2="455.2" y2="122.20" stroke="#ddd" stroke-dasharray="3,2"></line><line x1="585.1" y1="512.70" x2="585.1" y2="122.20" stroke="#ddd" stroke-dasharray="3,2"></line><line x1="715" y1="512.70" x2="715" y2="122.20" stroke="#ddd" stroke-dasharray="3,2"></line></g></g><g class="ComparisonLine"><defs><clipPath id="axisBounds-1405"><rect x="84.23400000000001" y="122.19999999999999" width="630.766" height="390.5"></rect></clipPath></defs><path d="M84.2,501.4L90.5,497.6L96.8,493.8L103.2,490L109.5,486.2L115.8,482.4L122.1,478.6L128.4,474.8L134.7,471L141,467.2L147.3,463.5L153.6,459.7L159.9,455.9L166.2,452.1L172.5,448.3L178.8,444.5L185.2,440.7L191.5,436.9L197.8,433.1L204.1,429.3L210.4,425.5L216.7,421.7L223,418L229.3,414.2L235.6,410.4L241.9,406.6L248.2,402.8L254.5,399L260.8,395.2L267.2,391.4L273.5,387.6L279.8,383.8L286.1,380L292.4,376.2L298.7,372.5L305,368.7L311.3,364.9L317.6,361.1L323.9,357.3L330.2,353.5L336.5,349.7L342.8,345.9L349.2,342.1L355.5,338.3L361.8,334.5L368.1,330.7L374.4,327L380.7,323.2L387,319.4L393.3,315.6L399.6,311.8L405.9,308L412.2,304.2L418.5,300.4L424.8,296.6L431.2,292.8L437.5,289L443.8,285.2L450.1,281.5L456.4,277.7L462.7,273.9L469,270.1L475.3,266.3L481.6,262.5L487.9,258.7L494.2,254.9L500.5,251.1L506.8,247.3L513.2,243.5L519.5,239.7L525.8,236L532.1,232.2L538.4,228.4L544.7,224.6L551,220.8L557.3,217L563.6,213.2L569.9,209.4L576.2,205.6L582.5,201.8L588.8,198L595.2,194.2L601.5,190.5L607.8,186.7L614.1,182.9L620.4,179.1L626.7,175.3L633,171.5L639.3,167.7L645.6,163.9L651.9,160.1L658.2,156.3L664.5,152.5L670.8,148.7L677.2,145L683.5,141.2L689.8,137.4L696.1,133.6L702.4,129.8L708.7,126" clip-path="url(#axisBounds-1405)" fill="none" stroke="#ccc"></path></g><g clip-path="url(#scatterBounds-1406)" font-family="Arial Narrow, Arial, sans-serif" class="PointsWithLabels clickable"><rect x="84.23400000000001" y="122.19999999999999" width="630.766" height="390.5" fill="rgba(255,255,255,0)"></rect><defs><clipPath id="scatterBounds-1406"><rect x="74.23400000000001" y="112.19999999999999" width="650.766" height="410.5"></rect></clipPath></defs><g class="key-China_0"><circle cx="479.00" cy="174.00" r="17.84" fill="#d14e5b" opacity="0.8" stroke="#333" stroke-width="0.7"></circle></g><g class="key-India_0"><circle cx="250.00" cy="268.00" r="17.29" fill="#d14e5b" opacity="0.8" stroke="#333" stroke-width="0.7"></circle></g><g class="key-United-States_0"><circle cx="715.00" cy="122.00" r="8.78" fill="#4d824b" opacity="0.8" stroke="#333" stroke-width="0.7"></circle></g><g class="key-Indonesia_0"><circle cx="374.00" cy="230.00" r="7.78" fill="#d14e5b" opacity="0.8" stroke="#333" stroke-width="0.7"></circle></g><g class="key-Brazil_0"><circle cx="399.00" cy="169.00" r="7.04" fill="#69c487" opacity="0.8" stroke="#333" stroke-width="0.7"></circle></g><g class="key-Pakistan_0"><circle cx="397.00" cy="188.00" r="6.76" fill="#d14e5b" opacity="0.8" stroke="#333" stroke-width="0.7"></circle></g><g class="key-Nigeria_0"><circle cx="230.00" cy="384.00" r="6.54" fill="#5675c1" opacity="0.8" stroke="#333" stroke-width="0.7"></circle></g><g class="key-Bangladesh_0"><circle cx="468.00" cy="287.00" r="6.24" fill="#d14e5b" opacity="0.8" stroke="#333" stroke-width="0.7"></circle></g><g class="key-Russia_0"><circle cx="446.00" cy="212.00" r="6.02" fill="#ffd336" opacity="0.8" stroke="#333" stroke-width="0.7"></circle></g><g class="key-Japan_0"><circle cx="715.00" cy="122.00" r="5.70" fill="#d14e5b" opacity="0.8" stroke="#fff" stroke-width="0.7"></circle></g><g class="key-Mexico_0"><circle cx="549.00" cy="169.00" r="5.51" fill="#4d824b" opacity="0.8" stroke="#333" stroke-width="0.7"></circle></g><g class="key-Philippines_0"><circle cx="525.00" cy="208.00" r="5.09" fill="#d14e5b" opacity="0.8" stroke="#333" stroke-width="0.7"></circle></g><g class="key-Vietnam_0"><circle cx="518.00" cy="144.00" r="4.92" fill="#d14e5b" opacity="0.8" stroke="#333" stroke-width="0.7"></circle></g><g class="key-Ethiopia_0"><circle cx="248.00" cy="406.00" r="4.86" fill="#5675c1" opacity="0.8" stroke="#333" stroke-width="0.7"></circle></g><g class="key-Egypt_0"><circle cx="670.00" cy="134.00" r="4.79" fill="#5675c1" opacity="0.8" stroke="#fff" stroke-width="0.7"></circle></g><g class="key-Germany_0"><circle cx="708.00" cy="124.00" r="4.71" fill="#ffd336" opacity="0.8" stroke="#fff" stroke-width="0.7"></circle></g><g class="key-Iran_0"><circle cx="600.00" cy="150.00" r="4.57" fill="#d14e5b" opacity="0.8" stroke="#333" stroke-width="0.7"></circle></g><g class="key-Turkey_0"><circle cx="620.00" cy="128.00" r="4.54" fill="#d14e5b" opacity="0.8" stroke="#fff" stroke-width="0.7"></circle></g><g class="key-Democratic-Republic-of-Congo_0"><circle cx="251.00" cy="401.00" r="4.44" fill="#5675c1" opacity="0.8" stroke="#fff" stroke-width="0.7"></circle></g><g class="key-Thailand_0"><circle cx="689.00" cy="161.00" r="4.41" fill="#d14e5b" opacity="0.8" stroke="#333" stroke-width="0.7"></circle></g><g class="key-France_0"><circle cx="707.00" cy="127.00" r="4.24" fill="#ffd336" opacity="0.8" stroke="#fff" stroke-width="0.7"></circle></g><g class="key-United-Kingdom_0"><circle cx="712.00" cy="125.00" r="4.22" fill="#ffd336" opacity="0.8" stroke="#fff" stroke-width="0.7"></circle></g><g class="key-Italy_0"><circle cx="712.00" cy="124.00" r="4.16" fill="#ffd336" opacity="0.8" stroke="#fff" stroke-width="0.7"></circle></g><g class="key-South-Africa_0"><circle cx="458.00" cy="240.00" r="3.87" fill="#5675c1" opacity="0.8" stroke="#333" stroke-width="0.7"></circle></g><g class="key-Tanzania_0"><circle cx="119.00" cy="390.00" r="3.82" fill="#5675c1" opacity="0.8" stroke="#333" stroke-width="0.7"></circle></g><g class="key-Myanmar_0"><circle cx="566.00" cy="183.00" r="3.82" fill="#d14e5b" opacity="0.8" stroke="#333" stroke-width="0.7"></circle></g><g class="key-South-Korea_0"><circle cx="715.00" cy="122.00" r="3.81" fill="#d14e5b" opacity="0.8" stroke="#fff" stroke-width="0.7"></circle></g><g class="key-Colombia_0"><circle cx="506.00" cy="180.00" r="3.79" fill="#69c487" opacity="0.8" stroke="#333" stroke-width="0.7"></circle></g><g class="key-Spain_0"><circle cx="715.00" cy="123.00" r="3.75" fill="#ffd336" opacity="0.8" stroke="#fff" stroke-width="0.7"></circle></g><g class="key-Ukraine_0"><circle cx="666.00" cy="132.00" r="3.68" fill="#ffd336" opacity="0.8" stroke="#fff" stroke-width="0.7"></circle></g><g class="key-Kenya_0"><circle cx="258.00" cy="390.00" r="3.66" fill="#5675c1" opacity="0.8" stroke="#fff" stroke-width="0.7"></circle></g><g class="key-Argentina_0"><circle cx="704.00" cy="137.00" r="3.58" fill="#69c487" opacity="0.8" stroke="#fff" stroke-width="0.7"></circle></g><g class="key-Poland_0"><circle cx="693.00" cy="132.00" r="3.47" fill="#ffd336" opacity="0.8" stroke="#fff" stroke-width="0.7"></circle></g><g class="key-Algeria_0"><circle cx="599.00" cy="162.00" r="3.43" fill="#5675c1" opacity="0.8" stroke="#333" stroke-width="0.7"></circle></g><g class="key-Uganda_0"><circle cx="177.00" cy="401.00" r="3.42" fill="#5675c1" opacity="0.8" stroke="#333" stroke-width="0.7"></circle></g><g class="key-Canada_0"><circle cx="708.00" cy="122.00" r="3.36" fill="#4d824b" opacity="0.8" stroke="#fff" stroke-width="0.7"></circle></g><g class="key-Iraq_0"><circle cx="609.00" cy="175.00" r="3.35" fill="#d14e5b" opacity="0.8" stroke="#fff" stroke-width="0.7"></circle></g><g class="key-Afghanistan_0"><circle cx="240.00" cy="336.00" r="3.34" fill="#d14e5b" opacity="0.8" stroke="#333" stroke-width="0.7"></circle></g><g class="key-Morocco_0"><circle cx="490.00" cy="184.00" r="3.29" fill="#5675c1" opacity="0.8" stroke="#fff" stroke-width="0.7"></circle></g><g class="key-Nepal_0"><circle cx="348.00" cy="294.00" r="3.24" fill="#d14e5b" opacity="0.8" stroke="#333" stroke-width="0.7"></circle></g><g class="key-Venezuela_0"><circle cx="519.00" cy="132.00" r="3.20" fill="#69c487" opacity="0.8" stroke="#fff" stroke-width="0.7"></circle></g><g class="key-Peru_0"><circle cx="411.00" cy="190.00" r="3.19" fill="#69c487" opacity="0.8" stroke="#fff" stroke-width="0.7"></circle></g><g class="key-Malaysia_0"><circle cx="688.00" cy="137.00" r="3.18" fill="#d14e5b" opacity="0.8" stroke="#fff" stroke-width="0.7"></circle></g><g class="key-Saudi-Arabia_0"><circle cx="715.00" cy="122.00" r="3.16" fill="#d14e5b" opacity="0.8" stroke="#fff" stroke-width="0.7"></circle></g><g class="key-Uzbekistan_0"><circle cx="715.00" cy="122.00" r="3.12" fill="#d14e5b" opacity="0.8" stroke="#fff" stroke-width="0.7"></circle></g><g class="key-Ghana_0"><circle cx="121.00" cy="433.00" r="3.04" fill="#5675c1" opacity="0.8" stroke="#333" stroke-width="0.7"></circle></g><g class="key-Mozambique_0"><circle cx="131.00" cy="347.00" r="3.00" fill="#5675c1" opacity="0.8" stroke="#333" stroke-width="0.7"></circle></g><g class="key-North-Korea_0"><circle cx="536.00" cy="169.00" r="2.98" fill="#d14e5b" opacity="0.8" stroke="#fff" stroke-width="0.7"></circle></g><g class="key-Australia_0"><circle cx="715.00" cy="122.00" r="2.93" fill="#a652ba" opacity="0.8" stroke="#fff" stroke-width="0.7"></circle></g><g class="key-Madagascar_0"><circle cx="121.00" cy="442.00" r="2.90" fill="#5675c1" opacity="0.8" stroke="#fff" stroke-width="0.7"></circle></g><g class="key-Syria_0"><circle cx="683.00" cy="137.00" r="2.86" fill="#d14e5b" opacity="0.8" stroke="#fff" stroke-width="0.7"></circle></g><g class="key-Sri-Lanka_0"><circle cx="693.00" cy="168.00" r="2.85" fill="#d14e5b" opacity="0.8" stroke="#fff" stroke-width="0.7"></circle></g><g class="key-Romania_0"><circle cx="476.00" cy="152.00" r="2.85" fill="#ffd336" opacity="0.8" stroke="#fff" stroke-width="0.7"></circle></g><g class="key-Cote-d__0027Ivoire_0"><circle cx="132.00" cy="384.00" r="2.84" fill="#5675c1" opacity="0.8" stroke="#fff" stroke-width="0.7"></circle></g><g class="key-Cameroon_0"><circle cx="239.00" cy="271.00" r="2.83" fill="#5675c1" opacity="0.8" stroke="#333" stroke-width="0.7"></circle></g><g class="key-Angola_0"><circle cx="211.00" cy="166.00" r="2.83" fill="#5675c1" opacity="0.8" stroke="#333" stroke-width="0.7"></circle></g><g class="key-Burkina-Faso_0"><circle cx="108.00" cy="315.00" r="2.71" fill="#5675c1" opacity="0.8" stroke="#333" stroke-width="0.7"></circle></g><g class="key-Chile_0"><circle cx="655.00" cy="122.00" r="2.69" fill="#69c487" opacity="0.8" stroke="#fff" stroke-width="0.7"></circle></g><g class="key-Niger_0"><circle cx="95.00" cy="364.00" r="2.68" fill="#5675c1" opacity="0.8" stroke="#333" stroke-width="0.7"></circle></g><g class="key-Mali_0"><circle cx="170.00" cy="366.00" r="2.66" fill="#5675c1" opacity="0.8" stroke="#333" stroke-width="0.7"></circle></g><g class="key-Netherlands_0"><circle cx="714.00" cy="132.00" r="2.66" fill="#ffd336" opacity="0.8" stroke="#fff" stroke-width="0.7"></circle></g><g class="key-Kazakhstan_0"><circle cx="702.00" cy="133.00" r="2.65" fill="#d14e5b" opacity="0.8" stroke="#fff" stroke-width="0.7"></circle></g><g class="key-Malawi_0"><circle cx="323.00" cy="328.00" r="2.64" fill="#5675c1" opacity="0.8" stroke="#333" stroke-width="0.7"></circle></g><g class="key-Guatemala_0"><circle cx="385.00" cy="210.00" r="2.60" fill="#4d824b" opacity="0.8" stroke="#333" stroke-width="0.7"></circle></g><g class="key-Ecuador_0"><circle cx="589.00" cy="173.00" r="2.58" fill="#69c487" opacity="0.8" stroke="#fff" stroke-width="0.7"></circle></g><g class="key-Cambodia_0"><circle cx="263.00" cy="168.00" r="2.56" fill="#d14e5b" opacity="0.8" stroke="#333" stroke-width="0.7"></circle></g><g class="key-Zambia_0"><circle cx="297.00" cy="295.00" r="2.55" fill="#5675c1" opacity="0.8" stroke="#333" stroke-width="0.7"></circle></g><g class="key-Senegal_0"><circle cx="285.00" cy="257.00" r="2.51" fill="#5675c1" opacity="0.8" stroke="#333" stroke-width="0.7"></circle></g><g class="key-Zimbabwe_0"><circle cx="265.00" cy="320.00" r="2.50" fill="#5675c1" opacity="0.8" stroke="#333" stroke-width="0.7"></circle></g><g class="key-Chad_0"><circle cx="107.00" cy="390.00" r="2.45" fill="#5675c1" opacity="0.8" stroke="#fff" stroke-width="0.7"></circle></g><g class="key-Rwanda_0"><circle cx="474.00" cy="284.00" r="2.42" fill="#5675c1" opacity="0.8" stroke="#fff" stroke-width="0.7"></circle></g><g class="key-Greece_0"><circle cx="702.00" cy="125.00" r="2.42" fill="#ffd336" opacity="0.8" stroke="#fff" stroke-width="0.7"></circle></g><g class="key-Cuba_0"><circle cx="644.00" cy="144.00" r="2.41" fill="#4d824b" opacity="0.8" stroke="#fff" stroke-width="0.7"></circle></g><g class="key-South-Sudan_0"><circle cx="94.00" cy="448.00" r="2.39" fill="#5675c1" opacity="0.8" stroke="#333" stroke-width="0.7"></circle></g><g class="key-Belgium_0"><circle cx="711.00" cy="124.00" r="2.39" fill="#ffd336" opacity="0.8" stroke="#fff" stroke-width="0.7"></circle></g><g class="key-Tunisia_0"><circle cx="583.00" cy="132.00" r="2.38" fill="#5675c1" opacity="0.8" stroke="#333" stroke-width="0.7"></circle></g><g class="key-Guinea_0"><circle cx="142.00" cy="379.00" r="2.38" fill="#5675c1" opacity="0.8" stroke="#fff" stroke-width="0.7"></circle></g><g class="key-Portugal_0"><circle cx="713.00" cy="123.00" r="2.38" fill="#ffd336" opacity="0.8" stroke="#fff" stroke-width="0.7"></circle></g><g class="key-Czech-Republic_0"><circle cx="709.00" cy="125.00" r="2.37" fill="#ffd336" opacity="0.8" stroke="#fff" stroke-width="0.7"></circle></g><g class="key-Bolivia_0"><circle cx="244.00" cy="275.00" r="2.37" fill="#69c487" opacity="0.8" stroke="#fff" stroke-width="0.7"></circle></g><g class="key-Haiti_0"><circle cx="190.00" cy="381.00" r="2.36" fill="#4d824b" opacity="0.8" stroke="#333" stroke-width="0.7"></circle></g><g class="key-Dominican-Republic_0"><circle cx="557.00" cy="176.00" r="2.36" fill="#4d824b" opacity="0.8" stroke="#fff" stroke-width="0.7"></circle></g><g class="key-Hungary_0"><circle cx="705.00" cy="130.00" r="2.34" fill="#ffd336" opacity="0.8" stroke="#fff" stroke-width="0.7"></circle></g><g class="key-Serbia_0"><circle cx="677.00" cy="129.00" r="2.34" fill="#ffd336" opacity="0.8" stroke="#fff" stroke-width="0.7"></circle></g><g class="key-Benin_0"><circle cx="112.00" cy="373.00" r="2.33" fill="#5675c1" opacity="0.8" stroke="#fff" stroke-width="0.7"></circle></g><g class="key-Sweden_0"><circle cx="712.00" cy="124.00" r="2.32" fill="#ffd336" opacity="0.8" stroke="#fff" stroke-width="0.7"></circle></g><g class="key-Azerbaijan_0"><circle cx="628.00" cy="155.00" r="2.32" fill="#d14e5b" opacity="0.8" stroke="#fff" stroke-width="0.7"></circle></g><g class="key-Belarus_0"><circle cx="683.00" cy="145.00" r="2.32" fill="#ffd336" opacity="0.8" stroke="#fff" stroke-width="0.7"></circle></g><g class="key-Burundi_0"><circle cx="381.00" cy="341.00" r="2.29" fill="#5675c1" opacity="0.8" stroke="#333" stroke-width="0.7"></circle></g><g class="key-Austria_0"><circle cx="715.00" cy="122.00" r="2.27" fill="#ffd336" opacity="0.8" stroke="#fff" stroke-width="0.7"></circle></g><g class="key-United-Arab-Emirates_0"><circle cx="683.00" cy="130.00" r="2.25" fill="#d14e5b" opacity="0.8" stroke="#fff" stroke-width="0.7"></circle></g><g class="key-Honduras_0"><circle cx="570.00" cy="174.00" r="2.25" fill="#4d824b" opacity="0.8" stroke="#fff" stroke-width="0.7"></circle></g><g class="key-Israel_0"><circle cx="715.00" cy="122.00" r="2.23" fill="#d14e5b" opacity="0.8" stroke="#fff" stroke-width="0.7"></circle></g><g class="key-Switzerland_0"><circle cx="713.00" cy="122.00" r="2.23" fill="#ffd336" opacity="0.8" stroke="#fff" stroke-width="0.7"></circle></g><g class="key-Bulgaria_0"><circle cx="609.00" cy="173.00" r="2.21" fill="#ffd336" opacity="0.8" stroke="#fff" stroke-width="0.7"></circle></g><g class="key-Papua-New-Guinea_0"><circle cx="151.00" cy="292.00" r="2.21" fill="#a652ba" opacity="0.8" stroke="#333" stroke-width="0.7"></circle></g><g class="key-Tajikistan_0"><circle cx="685.00" cy="146.00" r="2.20" fill="#d14e5b" opacity="0.8" stroke="#fff" stroke-width="0.7"></circle></g><g class="key-Paraguay_0"><circle cx="574.00" cy="139.00" r="2.18" fill="#69c487" opacity="0.8" stroke="#fff" stroke-width="0.7"></circle></g><g class="key-Jordan_0"><circle cx="707.00" cy="127.00" r="2.17" fill="#d14e5b" opacity="0.8" stroke="#fff" stroke-width="0.7"></circle></g><g class="key-Libya_0"><circle cx="687.00" cy="134.00" r="2.17" fill="#5675c1" opacity="0.8" stroke="#fff" stroke-width="0.7"></circle></g><g class="key-Laos_0"><circle cx="429.00" cy="143.00" r="2.16" fill="#d14e5b" opacity="0.8" stroke="#333" stroke-width="0.7"></circle></g><g class="key-Togo_0"><circle cx="84.00" cy="416.00" r="2.16" fill="#5675c1" opacity="0.8" stroke="#333" stroke-width="0.7"></circle></g><g class="key-El-Salvador_0"><circle cx="455.00" cy="190.00" r="2.15" fill="#4d824b" opacity="0.8" stroke="#333" stroke-width="0.7"></circle></g><g class="key-Sierra-Leone_0"><circle cx="110.00" cy="423.00" r="2.15" fill="#5675c1" opacity="0.8" stroke="#fff" stroke-width="0.7"></circle></g><g class="key-Nicaragua_0"><circle cx="427.00" cy="214.00" r="2.14" fill="#4d824b" opacity="0.8" stroke="#fff" stroke-width="0.7"></circle></g><g class="key-Eritrea_0"><circle cx="112.00" cy="338.00" r="2.12" fill="#5675c1" opacity="0.8" stroke="#fff" stroke-width="0.7"></circle></g><g class="key-Denmark_0"><circle cx="712.00" cy="123.00" r="2.12" fill="#ffd336" opacity="0.8" stroke="#fff" stroke-width="0.7"></circle></g><g class="key-Kyrgyzstan_0"><circle cx="686.00" cy="164.00" r="2.11" fill="#d14e5b" opacity="0.8" stroke="#fff" stroke-width="0.7"></circle></g><g class="key-Slovakia_0"><circle cx="703.00" cy="124.00" r="2.11" fill="#ffd336" opacity="0.8" stroke="#fff" stroke-width="0.7"></circle></g><g class="key-Finland_0"><circle cx="637.00" cy="124.00" r="2.11" fill="#ffd336" opacity="0.8" stroke="#fff" stroke-width="0.7"></circle></g><g class="key-Norway_0"><circle cx="704.00" cy="130.00" r="2.08" fill="#ffd336" opacity="0.8" stroke="#fff" stroke-width="0.7"></circle></g><g class="key-Costa-Rica_0"><circle cx="665.00" cy="140.00" r="2.08" fill="#4d824b" opacity="0.8" stroke="#fff" stroke-width="0.7"></circle></g><g class="key-Central-African-Republic_0"><circle cx="112.00" cy="342.00" r="2.06" fill="#5675c1" opacity="0.8" stroke="#fff" stroke-width="0.7"></circle></g><g class="key-Ireland_0"><circle cx="668.00" cy="164.00" r="2.06" fill="#ffd336" opacity="0.8" stroke="#fff" stroke-width="0.7"></circle></g><g class="key-Croatia_0"><circle cx="687.00" cy="130.00" r="2.05" fill="#ffd336" opacity="0.8" stroke="#fff" stroke-width="0.7"></circle></g><g class="key-Liberia_0"><circle cx="103.00" cy="403.00" r="2.05" fill="#5675c1" opacity="0.8" stroke="#333" stroke-width="0.7"></circle></g><g class="key-Congo_0"><circle cx="101.00" cy="434.00" r="2.05" fill="#5675c1" opacity="0.8" stroke="#fff" stroke-width="0.7"></circle></g><g class="key-Lebanon_0"><circle cx="589.00" cy="197.00" r="2.05" fill="#d14e5b" opacity="0.8" stroke="#333" stroke-width="0.7"></circle></g><g class="key-Georgia_0"><circle cx="558.00" cy="140.00" r="2.04" fill="#d14e5b" opacity="0.8" stroke="#fff" stroke-width="0.7"></circle></g><g class="key-Puerto-Rico_0"><circle cx="710.00" cy="124.00" r="2.01" fill="#4d824b" opacity="0.8" stroke="#fff" stroke-width="0.7"></circle></g><g class="key-Bosnia-and-Herzegovina_0"><circle cx="663.00" cy="126.00" r="2.01" fill="#ffd336" opacity="0.8" stroke="#fff" stroke-width="0.7"></circle></g><g class="key-Mauritania_0"><circle cx="155.00" cy="288.00" r="2.01" fill="#5675c1" opacity="0.8" stroke="#fff" stroke-width="0.7"></circle></g><g class="key-Panama_0"><circle cx="442.00" cy="186.00" r="2.01" fill="#4d824b" opacity="0.8" stroke="#fff" stroke-width="0.7"></circle></g><g class="key-Moldova_0"><circle cx="501.00" cy="169.00" r="2.00" fill="#ffd336" opacity="0.8" stroke="#fff" stroke-width="0.7"></circle></g><g class="key-Uruguay_0"><circle cx="666.00" cy="135.00" r="1.99" fill="#69c487" opacity="0.8" stroke="#fff" stroke-width="0.7"></circle></g><g class="key-Lithuania_0"><circle cx="603.00" cy="133.00" r="1.99" fill="#ffd336" opacity="0.8" stroke="#fff" stroke-width="0.7"></circle></g><g class="key-Albania_0"><circle cx="651.00" cy="139.00" r="1.98" fill="#ffd336" opacity="0.8" stroke="#fff" stroke-width="0.7"></circle></g><g class="key-Armenia_0"><circle cx="573.00" cy="137.00" r="1.98" fill="#d14e5b" opacity="0.8" stroke="#fff" stroke-width="0.7"></circle></g><g class="key-Kuwait_0"><circle cx="715.00" cy="122.00" r="1.97" fill="#d14e5b" opacity="0.8" stroke="#fff" stroke-width="0.7"></circle></g><g class="key-Oman_0"><circle cx="680.00" cy="132.00" r="1.97" fill="#d14e5b" opacity="0.8" stroke="#fff" stroke-width="0.7"></circle></g><g class="key-Mongolia_0"><circle cx="342.00" cy="253.00" r="1.96" fill="#d14e5b" opacity="0.8" stroke="#333" stroke-width="0.7"></circle></g><g class="key-Jamaica_0"><circle cx="611.00" cy="200.00" r="1.96" fill="#4d824b" opacity="0.8" stroke="#fff" stroke-width="0.7"></circle></g><g class="key-Namibia_0"><circle cx="174.00" cy="299.00" r="1.93" fill="#5675c1" opacity="0.8" stroke="#fff" stroke-width="0.7"></circle></g><g class="key-Lesotho_0"><circle cx="244.00" cy="367.00" r="1.92" fill="#5675c1" opacity="0.8" stroke="#333" stroke-width="0.7"></circle></g><g class="key-Latvia_0"><circle cx="594.00" cy="158.00" r="1.92" fill="#ffd336" opacity="0.8" stroke="#fff" stroke-width="0.7"></circle></g><g class="key-Botswana_0"><circle cx="345.00" cy="206.00" r="1.91" fill="#5675c1" opacity="0.8" stroke="#fff" stroke-width="0.7"></circle></g><g class="key-Macedonia_0"><circle cx="602.00" cy="133.00" r="1.91" fill="#ffd336" opacity="0.8" stroke="#fff" stroke-width="0.7"></circle></g><g class="key-Slovenia_0"><circle cx="709.00" cy="125.00" r="1.91" fill="#ffd336" opacity="0.8" stroke="#fff" stroke-width="0.7"></circle></g><g class="key-Qatar_0"><circle cx="702.00" cy="130.00" r="1.91" fill="#d14e5b" opacity="0.8" stroke="#fff" stroke-width="0.7"></circle></g><g class="key-Gambia_0"><circle cx="422.00" cy="272.00" r="1.90" fill="#5675c1" opacity="0.8" stroke="#333" stroke-width="0.7"></circle></g><g class="key-Guinea__002dBissau_0"><circle cx="120.00" cy="381.00" r="1.89" fill="#5675c1" opacity="0.8" stroke="#fff" stroke-width="0.7"></circle></g><g class="key-Gabon_0"><circle cx="270.00" cy="343.00" r="1.88" fill="#5675c1" opacity="0.8" stroke="#fff" stroke-width="0.7"></circle></g><g class="key-Bahrain_0"><circle cx="709.00" cy="125.00" r="1.87" fill="#d14e5b" opacity="0.8" stroke="#fff" stroke-width="0.7"></circle></g><g class="key-Trinidad-and-Tobago_0"><circle cx="659.00" cy="155.00" r="1.87" fill="#4d824b" opacity="0.8" stroke="#fff" stroke-width="0.7"></circle></g><g class="key-Estonia_0"><circle cx="692.00" cy="132.00" r="1.87" fill="#ffd336" opacity="0.8" stroke="#fff" stroke-width="0.7"></circle></g><g class="key-Mauritius_0"><circle cx="666.00" cy="146.00" r="1.87" fill="#5675c1" opacity="0.8" stroke="#fff" stroke-width="0.7"></circle></g><g class="key-Swaziland_0"><circle cx="429.00" cy="266.00" r="1.86" fill="#5675c1" opacity="0.8" stroke="#fff" stroke-width="0.7"></circle></g><g class="key-Cyprus_0"><circle cx="715.00" cy="122.00" r="1.86" fill="#ffd336" opacity="0.8" stroke="#fff" stroke-width="0.7"></circle></g><g class="key-Djibouti_0"><circle cx="98.00" cy="279.00" r="1.84" fill="#5675c1" opacity="0.8" stroke="#333" stroke-width="0.7"></circle></g><g class="key-Fiji_0"><circle cx="639.00" cy="148.00" r="1.84" fill="#a652ba" opacity="0.8" stroke="#fff" stroke-width="0.7"></circle></g><g class="key-Comoros_0"><circle cx="266.00" cy="324.00" r="1.83" fill="#5675c1" opacity="0.8" stroke="#fff" stroke-width="0.7"></circle></g><g class="key-Bhutan_0"><circle cx="280.00" cy="208.00" r="1.83" fill="#d14e5b" opacity="0.8" stroke="#333" stroke-width="0.7"></circle></g><g class="key-Equatorial-Guinea_0"><circle cx="526.00" cy="200.00" r="1.83" fill="#5675c1" opacity="0.8" stroke="#fff" stroke-width="0.7"></circle></g><g class="key-Guyana_0"><circle cx="598.00" cy="169.00" r="1.83" fill="#69c487" opacity="0.8" stroke="#fff" stroke-width="0.7"></circle></g><g class="key-Montenegro_0"><circle cx="664.00" cy="130.00" r="1.82" fill="#ffd336" opacity="0.8" stroke="#fff" stroke-width="0.7"></circle></g><g class="key-Solomon-Islands_0"><circle cx="162.00" cy="194.00" r="1.82" fill="#a652ba" opacity="0.8" stroke="#333" stroke-width="0.7"></circle></g><g class="key-Suriname_0"><circle cx="464.00" cy="167.00" r="1.82" fill="#69c487" opacity="0.8" stroke="#fff" stroke-width="0.7"></circle></g><g class="key-Luxembourg_0"><circle cx="705.00" cy="132.00" r="1.82" fill="#ffd336" opacity="0.8" stroke="#fff" stroke-width="0.7"></circle></g><g class="key-Cape-Verde_0"><circle cx="418.00" cy="194.00" r="1.82" fill="#5675c1" opacity="0.8" stroke="#fff" stroke-width="0.7"></circle></g><g class="key-Malta_0"><circle cx="715.00" cy="122.00" r="1.81" fill="#ffd336" opacity="0.8" stroke="#fff" stroke-width="0.7"></circle></g><g class="key-Bahamas_0"><circle cx="663.00" cy="153.00" r="1.81" fill="#4d824b" opacity="0.8" stroke="#fff" stroke-width="0.7"></circle></g><g class="key-Iceland_0"><circle cx="715.00" cy="127.00" r="1.80" fill="#ffd336" opacity="0.8" stroke="#fff" stroke-width="0.7"></circle></g><g class="key-Belize_0"><circle cx="638.00" cy="147.00" r="1.80" fill="#4d824b" opacity="0.8" stroke="#fff" stroke-width="0.7"></circle></g><g class="key-Maldives_0"><circle cx="704.00" cy="132.00" r="1.80" fill="#d14e5b" opacity="0.8" stroke="#fff" stroke-width="0.7"></circle></g><g class="key-French-Polynesia_0"><circle cx="705.00" cy="128.00" r="1.80" fill="#a652ba" opacity="0.8" stroke="#fff" stroke-width="0.7"></circle></g><g class="key-Barbados_0"><circle cx="690.00" cy="137.00" r="1.80" fill="#4d824b" opacity="0.8" stroke="#fff" stroke-width="0.7"></circle></g><g class="key-New-Caledonia_0"><circle cx="715.00" cy="122.00" r="1.80" fill="#a652ba" opacity="0.8" stroke="#fff" stroke-width="0.7"></circle></g><g class="key-Vanuatu_0"><circle cx="425.00" cy="258.00" r="1.80" fill="#a652ba" opacity="0.8" stroke="#333" stroke-width="0.7"></circle></g><g class="key-Guam_0"><circle cx="648.00" cy="162.00" r="1.80" fill="#a652ba" opacity="0.8" stroke="#fff" stroke-width="0.7"></circle></g><g class="key-Samoa_0"><circle cx="657.00" cy="148.00" r="1.80" fill="#a652ba" opacity="0.8" stroke="#fff" stroke-width="0.7"></circle></g><g class="key-Saint-Lucia_0"><circle cx="662.00" cy="181.00" r="1.80" fill="#4d824b" opacity="0.8" stroke="#fff" stroke-width="0.7"></circle></g><g class="key-Sao-Tome-and-Principe_0"><circle cx="216.00" cy="353.00" r="1.79" fill="#5675c1" opacity="0.8" stroke="#333" stroke-width="0.7"></circle></g><g class="key-Aruba_0"><circle cx="700.00" cy="131.00" r="1.79" fill="#4d824b" opacity="0.8" stroke="#fff" stroke-width="0.7"></circle></g><g class="key-Grenada_0"><circle cx="704.00" cy="132.00" r="1.79" fill="#4d824b" opacity="0.8" stroke="#fff" stroke-width="0.7"></circle></g><g class="key-Tonga_0"><circle cx="643.00" cy="131.00" r="1.79" fill="#a652ba" opacity="0.8" stroke="#fff" stroke-width="0.7"></circle></g><g class="key-Kiribati_0"><circle cx="264.00" cy="312.00" r="1.79" fill="#a652ba" opacity="0.8" stroke="#fff" stroke-width="0.7"></circle></g><g class="key-Andorra_0"><circle cx="715.00" cy="122.00" r="1.79" fill="#ffd336" opacity="0.8" stroke="#fff" stroke-width="0.7"></circle></g><g class="key-Seychelles_0"><circle cx="704.00" cy="128.00" r="1.79" fill="#5675c1" opacity="0.8" stroke="#fff" stroke-width="0.7"></circle></g><g class="key-American-Samoa_0"><circle cx="471.00" cy="268.00" r="1.79" fill="#a652ba" opacity="0.8" stroke="#333" stroke-width="0.7"></circle></g><g class="key-Northern-Mariana-Islands_0"><circle cx="583.00" cy="201.00" r="1.79" fill="#a652ba" opacity="0.8" stroke="#fff" stroke-width="0.7"></circle></g><g class="key-Greenland_0"><circle cx="715.00" cy="122.00" r="1.79" fill="#4d824b" opacity="0.8" stroke="#fff" stroke-width="0.7"></circle></g><g class="key-Marshall-Islands_0"><circle cx="430.00" cy="182.00" r="1.79" fill="#a652ba" opacity="0.8" stroke="#fff" stroke-width="0.7"></circle></g><g class="key-British-Virgin-Islands_0"><circle cx="698.00" cy="132.00" r="1.79" fill="#4d824b" opacity="0.8" stroke="#fff" stroke-width="0.7"></circle></g><g class="key-Palau_0"><circle cx="715.00" cy="122.00" r="1.78" fill="#a652ba" opacity="0.8" stroke="#fff" stroke-width="0.7"></circle></g><g class="key-Arab-World_0"><circle cx="626.00" cy="150.00" r="1.78" fill="#000" opacity="0.8" stroke="#fff" stroke-width="0.7"></circle></g><g class="key-Caribbean-small-states_0"><circle cx="627.00" cy="181.00" r="1.78" fill="#000" opacity="0.8" stroke="#fff" stroke-width="0.7"></circle></g><g class="key-Central-Europe-and-the-Baltics_0"><circle cx="638.00" cy="138.00" r="1.78" fill="#000" opacity="0.8" stroke="#fff" stroke-width="0.7"></circle></g><g class="key-Early__002ddemographic-dividend_0"><circle cx="348.00" cy="218.00" r="1.78" fill="#000" opacity="0.8" stroke="#fff" stroke-width="0.7"></circle></g><g class="key-East-Asia-__0026-Pacific_0"><circle cx="483.00" cy="172.00" r="1.78" fill="#000" opacity="0.8" stroke="#fff" stroke-width="0.7"></circle></g><g class="key-East-Asia-__0026-Pacific-__0028excluding-high-income__0029_0"><circle cx="478.00" cy="181.00" r="1.78" fill="#000" opacity="0.8" stroke="#fff" stroke-width="0.7"></circle></g><g class="key-East-Asia-__0026-Pacific-__0028IDA-__0026-IBRD__0029_0"><circle cx="477.00" cy="181.00" r="1.78" fill="#000" opacity="0.8" stroke="#fff" stroke-width="0.7"></circle></g><g class="key-Euro-area_0"><circle cx="706.00" cy="126.00" r="1.78" fill="#000" opacity="0.8" stroke="#fff" stroke-width="0.7"></circle></g><g class="key-Europe-__0026-Central-Asia_0"><circle cx="645.00" cy="143.00" r="1.78" fill="#000" opacity="0.8" stroke="#fff" stroke-width="0.7"></circle></g><g class="key-Europe-__0026-Central-Asia-__0028excluding-high-income__0029_0"><circle cx="593.00" cy="166.00" r="1.78" fill="#000" opacity="0.8" stroke="#fff" stroke-width="0.7"></circle></g><g class="key-Europe-__0026-Central-Asia-__0028IDA-__0026-IBRD__0029_0"><circle cx="603.00" cy="163.00" r="1.78" fill="#000" opacity="0.8" stroke="#fff" stroke-width="0.7"></circle></g><g class="key-European-Union_0"><circle cx="687.00" cy="127.00" r="1.78" fill="#000" opacity="0.8" stroke="#fff" stroke-width="0.7"></circle></g><g class="key-Heavily-indebted-poor-countries-__0028HIPC__0029_0"><circle cx="205.00" cy="363.00" r="1.78" fill="#000" opacity="0.8" stroke="#fff" stroke-width="0.7"></circle></g><g class="key-High-income_0"><circle cx="708.00" cy="124.00" r="1.78" fill="#000" opacity="0.8" stroke="#fff" stroke-width="0.7"></circle></g><g class="key-IBRD-only_0"><circle cx="400.00" cy="190.00" r="1.78" fill="#000" opacity="0.8" stroke="#fff" stroke-width="0.7"></circle></g><g class="key-IDA-__0026-IBRD-total_0"><circle cx="371.00" cy="212.00" r="1.78" fill="#000" opacity="0.8" stroke="#fff" stroke-width="0.7"></circle></g><g class="key-IDA-blend_0"><circle cx="332.00" cy="290.00" r="1.78" fill="#000" opacity="0.8" stroke="#fff" stroke-width="0.7"></circle></g><g class="key-IDA-only_0"><circle cx="288.00" cy="328.00" r="1.78" fill="#000" opacity="0.8" stroke="#fff" stroke-width="0.7"></circle></g><g class="key-IDA-total_0"><circle cx="302.00" cy="313.00" r="1.78" fill="#000" opacity="0.8" stroke="#fff" stroke-width="0.7"></circle></g><g class="key-Late__002ddemographic-dividend_0"><circle cx="505.00" cy="172.00" r="1.78" fill="#000" opacity="0.8" stroke="#fff" stroke-width="0.7"></circle></g><g class="key-Latin-America-__0026-Caribbean_0"><circle cx="482.00" cy="169.00" r="1.78" fill="#000" opacity="0.8" stroke="#fff" stroke-width="0.7"></circle></g><g class="key-Latin-America-__0026-Caribbean-__0028excluding-high-income__0029_0"><circle cx="476.00" cy="171.00" r="1.78" fill="#000" opacity="0.8" stroke="#fff" stroke-width="0.7"></circle></g><g class="key-Latin-America-__0026-Caribbean-__0028IDA-__0026-IBRD__0029_0"><circle cx="477.00" cy="170.00" r="1.78" fill="#000" opacity="0.8" stroke="#fff" stroke-width="0.7"></circle></g><g class="key-Least-developed-countries__003a-UN-classification_0"><circle cx="278.00" cy="328.00" r="1.78" fill="#000" opacity="0.8" stroke="#fff" stroke-width="0.7"></circle></g><g class="key-Low-__0026-middle-income_0"><circle cx="370.00" cy="212.00" r="1.78" fill="#000" opacity="0.8" stroke="#fff" stroke-width="0.7"></circle></g><g class="key-Low-income_0"><circle cx="216.00" cy="357.00" r="1.78" fill="#000" opacity="0.8" stroke="#fff" stroke-width="0.7"></circle></g><g class="key-Lower-middle-income_0"><circle cx="339.00" cy="247.00" r="1.78" fill="#000" opacity="0.8" stroke="#fff" stroke-width="0.7"></circle></g><g class="key-Middle-East-__0026-North-Africa_0"><circle cx="629.00" cy="148.00" r="1.78" fill="#000" opacity="0.8" stroke="#fff" stroke-width="0.7"></circle></g><g class="key-Middle-East-__0026-North-Africa-__0028excluding-high-income__0029_0"><circle cx="624.00" cy="154.00" r="1.78" fill="#000" opacity="0.8" stroke="#fff" stroke-width="0.7"></circle></g><g class="key-Middle-East-__0026-North-Africa-__0028IDA-__0026-IBRD__0029_0"><circle cx="624.00" cy="154.00" r="1.78" fill="#000" opacity="0.8" stroke="#fff" stroke-width="0.7"></circle></g><g class="key-Middle-income_0"><circle cx="395.00" cy="202.00" r="1.78" fill="#000" opacity="0.8" stroke="#fff" stroke-width="0.7"></circle></g><g class="key-North-America_0"><circle cx="714.00" cy="122.00" r="1.78" fill="#000" opacity="0.8" stroke="#fff" stroke-width="0.7"></circle></g><g class="key-OECD-members_0"><circle cx="685.00" cy="128.00" r="1.78" fill="#000" opacity="0.8" stroke="#fff" stroke-width="0.7"></circle></g><g class="key-Pacific-island-small-states_0"><circle cx="432.00" cy="175.00" r="1.78" fill="#000" opacity="0.8" stroke="#fff" stroke-width="0.7"></circle></g><g class="key-Post__002ddemographic-dividend_0"><circle cx="705.00" cy="124.00" r="1.78" fill="#000" opacity="0.8" stroke="#fff" stroke-width="0.7"></circle></g><g class="key-Pre__002ddemographic-dividend_0"><circle cx="207.00" cy="348.00" r="1.78" fill="#000" opacity="0.8" stroke="#fff" stroke-width="0.7"></circle></g><g class="key-Small-states_0"><circle cx="430.00" cy="212.00" r="1.78" fill="#000" opacity="0.8" stroke="#fff" stroke-width="0.7"></circle></g><g class="key-South-Asia_0"><circle cx="293.00" cy="260.00" r="1.78" fill="#000" opacity="0.8" stroke="#fff" stroke-width="0.7"></circle></g><g class="key-South-Asia-__0028IDA-__0026-IBRD__0029_0"><circle cx="293.00" cy="260.00" r="1.78" fill="#000" opacity="0.8" stroke="#fff" stroke-width="0.7"></circle></g><g class="key-Sub__002dSaharan-Africa_0"><circle cx="216.00" cy="355.00" r="1.78" fill="#000" opacity="0.8" stroke="#fff" stroke-width="0.7"></circle></g><g class="key-Sub__002dSaharan-Africa-__0028excluding-high-income__0029_0"><circle cx="216.00" cy="355.00" r="1.78" fill="#000" opacity="0.8" stroke="#fff" stroke-width="0.7"></circle></g><g class="key-Sub__002dSaharan-Africa-__0028IDA-__0026-IBRD__0029_0"><circle cx="216.00" cy="355.00" r="1.78" fill="#000" opacity="0.8" stroke="#fff" stroke-width="0.7"></circle></g><g class="key-Upper-middle-income_0"><circle cx="504.00" cy="171.00" r="1.78" fill="#000" opacity="0.8" stroke="#fff" stroke-width="0.7"></circle></g><g class="key-World_0"><circle cx="392.00" cy="191.00" r="1.78" fill="#000" opacity="0.8" stroke="#fff" stroke-width="0.7"></circle></g><g class="key-Micronesia-__0028country__0029_0"><circle cx="383.00" cy="180.00" r="1.78" fill="#a652ba" opacity="0.8" stroke="#fff" stroke-width="0.7"></circle></g><g class="key-United-States-Virgin-Islands_0"><circle cx="691.00" cy="136.00" r="1.78" fill="#4d824b" opacity="0.8" stroke="#fff" stroke-width="0.7"></circle></g><g class="key-Palestine_0"><circle cx="651.00" cy="149.00" r="1.78" fill="#d14e5b" opacity="0.8" stroke="#fff" stroke-width="0.7"></circle></g><g class="key-Fragile-and-conflict-affected-situations_0"><circle cx="290.00" cy="297.00" r="1.78" fill="#000" opacity="0.8" stroke="#fff" stroke-width="0.7"></circle></g><g class="key-Other-small-states_0"><circle cx="365.00" cy="220.00" r="1.78" fill="#000" opacity="0.8" stroke="#fff" stroke-width="0.7"></circle></g><g class="key-Timor_0"><circle cx="239.00" cy="243.00" r="1.78" fill="#d14e5b" opacity="0.8" stroke="#fff" stroke-width="0.7"></circle></g><g fill="#333" class="backgroundLabels"><text x="479.00" y="155.16" font-size="14.30">China</text><text x="250.00" y="249.71" font-size="14.10">India</text><text x="644.01" y="133.97" font-size="11.77">United States</text><text x="374.00" y="221.22" font-size="11.60">Indonesia</text><text x="399.00" y="160.96" font-size="11.49">Brazil</text><text x="397.00" y="180.24" font-size="11.44">Pakistan</text><text x="230.00" y="376.46" font-size="11.41">Nigeria</text><text x="468.00" y="279.76" font-size="11.37">Bangladesh</text><text x="446.00" y="204.98" font-size="11.35">Russia</text><text x="549.00" y="162.49" font-size="11.29">Mexico</text><text x="525.00" y="201.91" font-size="11.24">Philippines</text><text x="518.00" y="138.08" font-size="11.22">Vietnam</text><text x="248.00" y="400.14" font-size="11.21">Ethiopia</text><text x="600.00" y="144.43" font-size="11.19">Iran</text><text x="645.99" y="155.59" font-size="11.17">Thailand</text><text x="458.00" y="235.13" font-size="11.12">South Africa</text><text x="119.00" y="385.18" font-size="11.12">Tanzania</text><text x="566.00" y="178.18" font-size="11.12">Myanmar</text><text x="506.00" y="175.21" font-size="11.12">Colombia</text><text x="599.00" y="157.57" font-size="11.09">Algeria</text><text x="177.00" y="396.58" font-size="11.09">Uganda</text><text x="240.00" y="331.66" font-size="11.08">Afghanistan</text><text x="348.00" y="289.76" font-size="11.08">Nepal</text><text x="121.00" y="428.96" font-size="11.06">Ghana</text><text x="131.00" y="343.00" font-size="11.06">Mozambique</text><text x="239.00" y="267.17" font-size="11.05">Cameroon</text><text x="211.00" y="162.17" font-size="11.05">Angola</text><text x="108.00" y="311.29" font-size="11.04">Burkina Faso</text><text x="95.00" y="360.32" font-size="11.04">Niger</text><text x="170.00" y="362.34" font-size="11.04">Mali</text><text x="323.00" y="324.36" font-size="11.04">Malawi</text><text x="385.00" y="206.40" font-size="11.04">Guatemala</text><text x="263.00" y="164.44" font-size="11.04">Cambodia</text><text x="297.00" y="291.45" font-size="11.03">Zambia</text><text x="285.00" y="253.49" font-size="11.03">Senegal</text><text x="265.00" y="316.50" font-size="11.03">Zimbabwe</text><text x="94.00" y="444.61" font-size="11.03">South Sudan</text><text x="583.00" y="133.23" font-size="11.03">Tunisia</text><text x="190.00" y="377.64" font-size="11.03">Haiti</text><text x="381.00" y="337.71" font-size="11.02">Burundi</text><text x="151.00" y="288.79" font-size="11.02">Papua New Guinea</text><text x="429.00" y="139.84" font-size="11.02">Laos</text><text x="84.00" y="412.84" font-size="11.02">Togo</text><text x="455.00" y="186.85" font-size="11.02">El Salvador</text><text x="103.00" y="399.95" font-size="11.01">Liberia</text><text x="589.00" y="193.95" font-size="11.01">Lebanon</text><text x="342.00" y="250.04" font-size="11.01">Mongolia</text><text x="244.00" y="364.08" font-size="11.01">Lesotho</text><text x="422.00" y="269.10" font-size="11.00">Gambia</text><text x="98.00" y="276.16" font-size="11.00">Djibouti</text><text x="280.00" y="205.17" font-size="11.00">Bhutan</text><text x="162.00" y="191.18" font-size="11.00">Solomon Islands</text><text x="425.00" y="255.20" font-size="11.00">Vanuatu</text><text x="216.00" y="350.21" font-size="11.00">Sao Tome and Principe</text><text x="471.00" y="265.21" font-size="11.00">American Samoa</text></g></g><g style="cursor: pointer;" class="ScatterColorLegend clickable"><g class="legendMark"><rect x="735" y="119.69999999999999" width="43.256" height="17.6" fill="#fff" opacity="0"></rect>,<rect x="735" y="125.19999999999999" width="6" height="6" fill="#5675c1"></rect>,<text font-size="12.60" x="746.0" y="132.3"><tspan x="746" y="132.27999999999997">Africa</tspan></text></g><g class="legendMark"><rect x="735" y="137.29999999999998" width="35.57" height="17.6" fill="#fff" opacity="0"></rect>,<rect x="735" y="142.79999999999998" width="6" height="6" fill="#d14e5b"></rect>,<text font-size="12.60" x="746.0" y="149.9"><tspan x="746" y="149.87999999999997">Asia</tspan></text></g><g class="legendMark"><rect x="735" y="154.89999999999998" width="51.824" height="17.6" fill="#fff" opacity="0"></rect>,<rect x="735" y="160.39999999999998" width="6" height="6" fill="#ffd336"></rect>,<text font-size="12.60" x="746.0" y="167.5"><tspan x="746" y="167.47999999999996">Europe</tspan></text></g><g class="legendMark"><rect x="735" y="172.5" width="91.64" height="17.6" fill="#fff" opacity="0"></rect>,<rect x="735" y="178" width="6" height="6" fill="#4d824b"></rect>,<text font-size="12.60" x="746.0" y="185.1"><tspan x="746" y="185.07999999999998">North America</tspan></text></g><g class="legendMark"><rect x="735" y="190.1" width="58.124" height="17.6" fill="#fff" opacity="0"></rect>,<rect x="735" y="195.6" width="6" height="6" fill="#a652ba"></rect>,<text font-size="12.60" x="746.0" y="202.7"><tspan x="746" y="202.67999999999998">Oceania</tspan></text></g><g class="legendMark"><rect x="735" y="207.7" width="93.908" height="17.6" fill="#fff" opacity="0"></rect>,<rect x="735" y="213.2" width="6" height="6" fill="#69c487"></rect>,<text font-size="12.60" x="746.0" y="220.3"><tspan x="746" y="220.27999999999997">South America</tspan></text></g></g></g><g style="fill: #777;" class="SourcesFooter"><g style="fill: #777;" class="clickable"><text font-size="12.60" x="15.0" y="581.6"><tspan x="15" y="581.58">Source: World Bank – WDI</tspan></text></g><text font-size="12.60" x="449.7" y="581.6"><tspan x="449.692" y="581.58"><a target='_blank' style='fill: #777;' href='https://ourworldindata.org/water-access-resources-sanitation/'>OurWorldInData.org/water-access-resources-sanitation/</a> • <a style="fill: #777;" href="http://creativecommons.org/licenses/by-sa/4.0/deed.en_US" target="_blank">CC BY-SA</a></tspan></text></g></g></svg>