<svg xmlns="http://www.w3.org/2000/svg" version="1.1" style="font-family: 'Helvetica Neue', Helvetica, Arial, sans-serif; font-size: 18px; background-color: white; text-rendering: optimizeLegibility; -webkit-font-smoothing: antialiased;" width="850" height="600"><g class="ChartTab"><g class="HeaderView"><g opacity="0.8" transform="translate(778, 15) scale(0.27)"><a xmlns:xlink="http://www.w3.org/1999/xlink" xlink:href="https://ourworldindata.org" target="_blank"><g><rect x="0" y="0" fill="#1B2543" width="211.2" height="130.1"/><rect x="0" y="112.2" fill="#E63912" width="211.2" height="17.9"/><g><rect x="1.2" y="12.3" fill="none" width="210.2" height="99.2"/><path fill="#FFFFFF" d="M37.8,32.2c0,12.7-7.7,19.4-17.1,19.4c-9.7,0-16.6-7.5-16.6-18.7c0-11.7,7.3-19.3,17.1-19.3 C31.3,13.7,37.8,21.3,37.8,32.2z M9.2,32.8c0,7.9,4.3,14.9,11.8,14.9c7.5,0,11.8-6.9,11.8-15.3c0-7.3-3.8-14.9-11.8-14.9 C13.1,17.5,9.2,24.8,9.2,32.8z"/><path fill="#FFFFFF" d="M62.7,43.8c0,2.7,0.1,5.1,0.2,7.2h-4.3l-0.3-4.3h-0.1c-1.3,2.1-4,4.9-8.8,4.9c-4.2,0-9.1-2.3-9.1-11.6 V24.6h4.8v14.6c0,5,1.5,8.4,5.9,8.4c3.2,0,5.5-2.2,6.3-4.4c0.3-0.7,0.4-1.6,0.4-2.5V24.6h4.8V43.8z"/><path fill="#FFFFFF" d="M67.3,32.8c0-3.1-0.1-5.8-0.2-8.2h4.2l0.2,5.2h0.2c1.2-3.5,4.1-5.8,7.3-5.8c0.5,0,0.9,0.1,1.4,0.2v4.5 c-0.5-0.1-1-0.2-1.6-0.2c-3.4,0-5.8,2.6-6.5,6.2c-0.1,0.7-0.2,1.4-0.2,2.2V51h-4.8V32.8z"/><path fill="#FFFFFF" d="M95.4,51l-9.4-36.8h5l4.4,18.6c1.1,4.6,2.1,9.2,2.7,12.7h0.1c0.6-3.7,1.8-8,3-12.8l4.9-18.5h5l4.5,18.7 c1,4.4,2,8.7,2.6,12.6h0.1c0.8-4,1.8-8.1,3-12.7l4.9-18.5h4.9L120.6,51h-5L111,31.9c-1.1-4.7-1.9-8.3-2.4-12h-0.1 c-0.7,3.7-1.5,7.3-2.8,12L100.4,51H95.4z"/><path fill="#FFFFFF" d="M154.9,37.6c0,9.8-6.8,14-13.2,14c-7.2,0-12.7-5.2-12.7-13.6c0-8.8,5.8-14,13.1-14 C149.8,24,154.9,29.5,154.9,37.6z M133.9,37.9c0,5.8,3.3,10.1,8,10.1c4.6,0,8-4.3,8-10.3c0-4.5-2.2-10.1-7.9-10.1 C136.3,27.6,133.9,32.8,133.9,37.9z"/><path fill="#FFFFFF" d="M158.2,32.8c0-3.1-0.1-5.8-0.2-8.2h4.2l0.2,5.2h0.2c1.2-3.5,4.1-5.8,7.3-5.8c0.5,0,0.9,0.1,1.4,0.2v4.5 c-0.5-0.1-1-0.2-1.6-0.2c-3.4,0-5.8,2.6-6.5,6.2c-0.1,0.7-0.2,1.4-0.2,2.2V51h-4.8V32.8z"/><path fill="#FFFFFF" d="M173.5,12.3h4.8V51h-4.8V12.3z"/><path fill="#FFFFFF" d="M206.5,12.3v31.9c0,2.3,0.1,5,0.2,6.8h-4.3l-0.2-4.6H202c-1.5,2.9-4.7,5.2-9,5.2 c-6.4,0-11.3-5.4-11.3-13.4c-0.1-8.8,5.4-14.2,11.9-14.2c4,0,6.8,1.9,8,4h0.1V12.3H206.5z M201.7,35.4c0-0.6-0.1-1.4-0.2-2 c-0.7-3.1-3.3-5.6-6.9-5.6c-5,0-7.9,4.4-7.9,10.2c0,5.3,2.6,9.8,7.8,9.8c3.2,0,6.2-2.1,7.1-5.7c0.2-0.7,0.2-1.3,0.2-2.1V35.4z"/><path fill="#FFFFFF" d="M42.8,64c0.1,1.6-1.1,2.9-3.1,2.9c-1.7,0-2.9-1.3-2.9-2.9c0-1.7,1.3-3,3-3C41.7,61,42.8,62.3,42.8,64z M37.4,97.8V71.4h4.8v26.4H37.4z"/><path fill="#FFFFFF" d="M47.5,78.6c0-2.7-0.1-5-0.2-7.1h4.3l0.3,4.4h0.1c1.3-2.5,4.4-5,8.8-5c3.7,0,9.4,2.2,9.4,11.2v15.8h-4.8 V82.6c0-4.3-1.6-7.8-6.1-7.8c-3.2,0-5.6,2.2-6.5,4.9c-0.2,0.6-0.3,1.4-0.3,2.2v15.9h-4.8V78.6z"/><path fill="#FFFFFF" d="M84,61.6c2.9-0.4,6.3-0.8,10.1-0.8c6.8,0,11.7,1.6,14.9,4.6c3.3,3,5.2,7.3,5.2,13.2c0,6-1.9,10.9-5.3,14.3 c-3.4,3.4-9.1,5.3-16.3,5.3c-3.4,0-6.2-0.2-8.6-0.4V61.6z M88.8,94.1c1.2,0.2,3,0.3,4.8,0.3c10.2,0,15.7-5.7,15.7-15.6 c0.1-8.7-4.9-14.2-14.9-14.2c-2.5,0-4.3,0.2-5.6,0.5V94.1z"/><path fill="#FFFFFF" d="M132.1,97.8l-0.4-3.3h-0.2c-1.5,2.1-4.3,3.9-8.1,3.9c-5.4,0-8.1-3.8-8.1-7.6c0-6.4,5.7-9.9,15.9-9.8v-0.5 c0-2.2-0.6-6.1-6-6.1c-2.5,0-5,0.8-6.9,2l-1.1-3.2c2.2-1.4,5.4-2.3,8.7-2.3c8.1,0,10.1,5.5,10.1,10.8v9.9c0,2.3,0.1,4.5,0.4,6.3 H132.1z M131.4,84.4c-5.3-0.1-11.2,0.8-11.2,5.9c0,3.1,2.1,4.6,4.5,4.6c3.4,0,5.6-2.2,6.4-4.4c0.2-0.5,0.3-1,0.3-1.5V84.4z"/><path fill="#FFFFFF" d="M146.6,63.9v7.6h6.9v3.7h-6.9v14.2c0,3.3,0.9,5.1,3.6,5.1c1.3,0,2.2-0.2,2.8-0.3l0.2,3.6 c-0.9,0.4-2.4,0.7-4.3,0.7c-2.2,0-4-0.7-5.2-2c-1.4-1.4-1.9-3.8-1.9-6.9V75.1h-4.1v-3.7h4.1v-6.3L146.6,63.9z"/><path fill="#FFFFFF" d="M171.4,97.8l-0.4-3.3h-0.2c-1.5,2.1-4.3,3.9-8.1,3.9c-5.4,0-8.1-3.8-8.1-7.6c0-6.4,5.7-9.9,15.9-9.8v-0.5 c0-2.2-0.6-6.1-6-6.1c-2.5,0-5,0.8-6.9,2l-1.1-3.2c2.2-1.4,5.4-2.3,8.7-2.3c8.1,0,10.1,5.5,10.1,10.8v9.9c0,2.3,0.1,4.5,0.4,6.3 H171.4z M170.7,84.4c-5.3-0.1-11.2,0.8-11.2,5.9c0,3.1,2.1,4.6,4.5,4.6c3.4,0,5.6-2.2,6.4-4.4c0.2-0.5,0.3-1,0.3-1.5V84.4z"/></g></g></a></g><a href="https://ourworldindata.org/grapher/value-added-vs-share-of-emissions-usa" target="_blank"><text font-size="23.40" x="15.0" y="33.7" fill="#555"><tspan x="15" y="33.72">Contribution to value added vs. Share of CO₂ emissions in USA, 2009</tspan></text></a><text font-size="14.40" x="15.0" y="51.9" fill="#666"><tspan x="15" y="51.919999999999995">Contribution of individual sectors to net economic output versus its share of total national carbon dioxide (CO₂)</tspan><tspan x="15" y="67.75999999999999">emissions in 2009. Sectors which lie above the line contribute more to the value added than the emissions in the</tspan><tspan x="15" y="83.6">United States. Direct emissions of households are not included.</tspan></text></g><g><g class="AxisBoxView"><g class="HorizontalAxis"><text font-size="12.60" x="296.9" y="554.0"><tspan x="296.897" y="553.98">Share of CO₂ emissions</tspan></text><text x="75.2" y="533.9" fill="#666" text-anchor="middle" font-size="16.2">0%</text><text x="203.1" y="533.9" fill="#666" text-anchor="middle" font-size="16.2">10%</text><text x="331.1" y="533.9" fill="#666" text-anchor="middle" font-size="16.2">20%</text><text x="459.1" y="533.9" fill="#666" text-anchor="middle" font-size="16.2">30%</text><text x="587" y="533.9" fill="#666" text-anchor="middle" font-size="16.2">40%</text><text x="715" y="533.9" fill="#666" text-anchor="middle" font-size="16.2">50%</text></g><g class="VerticalAxis"><text font-size="12.60" x="-408.6" y="25.1" transform="rotate(-90)"><tspan x="-408.577" y="25.080000000000002">Contribution to value added</tspan></text><text x="70.16" y="512.7" fill="#666" dominant-baseline="middle" text-anchor="end" font-size="16.2">0%</text><text x="70.16" y="411" fill="#666" dominant-baseline="middle" text-anchor="end" font-size="16.2">5%</text><text x="70.16" y="309.3" fill="#666" dominant-baseline="middle" text-anchor="end" font-size="16.2">10%</text><text x="70.16" y="207.5" fill="#666" dominant-baseline="middle" text-anchor="end" font-size="16.2">15%</text><text x="70.16" y="105.8" fill="#666" dominant-baseline="middle" text-anchor="end" font-size="16.2">20%</text></g><g class="AxisGridLines"><line x1="75.16" y1="512.7" x2="715.00" y2="512.7" stroke="#ccc"></line><line x1="75.16" y1="411" x2="715.00" y2="411" stroke="#ddd" stroke-dasharray="3,2"></line><line x1="75.16" y1="309.3" x2="715.00" y2="309.3" stroke="#ddd" stroke-dasharray="3,2"></line><line x1="75.16" y1="207.5" x2="715.00" y2="207.5" stroke="#ddd" stroke-dasharray="3,2"></line><line x1="75.16" y1="105.8" x2="715.00" y2="105.8" stroke="#ddd" stroke-dasharray="3,2"></line></g><g class="AxisGridLines"><line x1="75.2" y1="512.70" x2="75.2" y2="105.80" stroke="#ccc"></line><line x1="203.1" y1="512.70" x2="203.1" y2="105.80" stroke="#ddd" stroke-dasharray="3,2"></line><line x1="331.1" y1="512.70" x2="331.1" y2="105.80" stroke="#ddd" stroke-dasharray="3,2"></line><line x1="459.1" y1="512.70" x2="459.1" y2="105.80" stroke="#ddd" stroke-dasharray="3,2"></line><line x1="587" y1="512.70" x2="587" y2="105.80" stroke="#ddd" stroke-dasharray="3,2"></line><line x1="715" y1="512.70" x2="715" y2="105.80" stroke="#ddd" stroke-dasharray="3,2"></line></g></g><g class="ComparisonLine"><defs><clipPath id="axisBounds-1461"><rect x="75.162" y="105.80000000000001" width="639.838" height="406.9"></rect></clipPath></defs><path d="M75.2,512.7L81.6,502.5L88,492.4L94.4,482.2L100.8,472L107.2,461.8L113.6,451.7L120,441.5L126.3,431.3L132.7,421.1L139.1,411L145.5,400.8L151.9,390.6L158.3,380.5L164.7,370.3L171.1,360.1L177.5,349.9L183.9,339.8L190.3,329.6L196.7,319.4L203.1,309.3L209.5,299.1L215.9,288.9L222.3,278.7L228.7,268.6L235.1,258.4L241.5,248.2L247.9,238L254.3,227.9L260.7,217.7L267.1,207.5L273.5,197.4L279.9,187.2L286.3,177L292.7,166.8L299.1,156.7L305.5,146.5L311.9,136.3L318.3,126.1L324.7,116L331.1,105.8L337.5,95.6L343.9,85.5L350.3,75.3L356.7,65.1L363.1,54.9L369.5,44.8L375.9,34.6L382.3,24.4L388.7,14.2L395.1,4.1L401.5,-6.1L407.9,-16.3L414.3,-26.4L420.7,-36.6L427.1,-46.8L433.5,-57L439.9,-67.1L446.3,-77.3L452.7,-87.5L459.1,-97.6L465.5,-107.8L471.9,-118L478.3,-128.2L484.7,-138.3L491.1,-148.5L497.5,-158.7L503.9,-168.9L510.3,-179L516.7,-189.2L523,-199.4L529.4,-209.5L535.8,-219.7L542.2,-229.9L548.6,-240.1L555,-250.2L561.4,-260.4L567.8,-270.6L574.2,-280.8L580.6,-290.9L587,-301.1L593.4,-311.3L599.8,-321.4L606.2,-331.6L612.6,-341.8L619,-352L625.4,-362.1L631.8,-372.3L638.2,-382.5L644.6,-392.7L651,-402.8L657.4,-413L663.8,-423.2L670.2,-433.3L676.6,-443.5L683,-453.7L689.4,-463.9L695.8,-474L702.2,-484.2L708.6,-494.4" clip-path="url(#axisBounds-1461)" fill="none" stroke="#ccc"></path></g><g clip-path="url(#scatterBounds-1462)" font-family="Arial Narrow, Arial, sans-serif" class="PointsWithLabels clickable"><rect x="75.162" y="105.80000000000001" width="639.838" height="406.9" fill="rgba(255,255,255,0)"></rect><defs><clipPath id="scatterBounds-1462"><rect x="65.162" y="95.80000000000001" width="659.838" height="426.9"></rect></clipPath></defs><g class="key-Electricity__002c-Gas-__0026-Water_0"><circle cx="695.00" cy="474.00" r="17.84" fill="#000" opacity="0.8" stroke="#333" stroke-width="0.7"></circle></g><g class="key-Public-Admin-__0026-Defence_0"><circle cx="153.00" cy="256.00" r="6.50" fill="#000" opacity="0.8" stroke="#333" stroke-width="0.7"></circle></g><g class="key-Rail-and-freight-transport_0"><circle cx="134.00" cy="488.00" r="5.70" fill="#000" opacity="0.8" stroke="#333" stroke-width="0.7"></circle></g><g class="key-Coke__002c-Refined-Petroleum-__0026-Nuclear-Fuel_0"><circle cx="132.00" cy="494.00" r="5.64" fill="#000" opacity="0.8" stroke="#fff" stroke-width="0.7"></circle></g><g class="key-Air-Transport_0"><circle cx="122.00" cy="504.00" r="5.16" fill="#000" opacity="0.8" stroke="#333" stroke-width="0.7"></circle></g><g class="key-Chemicals-__0026-Products_0"><circle cx="116.00" cy="484.00" r="4.83" fill="#000" opacity="0.8" stroke="#fff" stroke-width="0.7"></circle></g><g class="key-Mining-__0026-Quarrying_0"><circle cx="109.00" cy="478.00" r="4.48" fill="#000" opacity="0.8" stroke="#fff" stroke-width="0.7"></circle></g><g class="key-Other-Non__002dMetallic-Mineral_0"><circle cx="108.00" cy="506.00" r="4.41" fill="#000" opacity="0.8" stroke="#fff" stroke-width="0.7"></circle></g><g class="key-IT__002c-Research-__0026-Development_0"><circle cx="107.00" cy="240.00" r="4.34" fill="#000" opacity="0.8" stroke="#333" stroke-width="0.7"></circle></g><g class="key-Basic-__0026-Fabricated-Metals_0"><circle cx="105.00" cy="488.00" r="4.26" fill="#000" opacity="0.8" stroke="#fff" stroke-width="0.7"></circle></g><g class="key-Health-__0026-Social-Work_0"><circle cx="102.00" cy="362.00" r="4.03" fill="#000" opacity="0.8" stroke="#333" stroke-width="0.7"></circle></g><g class="key-Retail-Trade_0"><circle cx="99.00" cy="390.00" r="3.86" fill="#000" opacity="0.8" stroke="#333" stroke-width="0.7"></circle></g><g class="key-Food__002c-Beverages-__0026-Tobacco_0"><circle cx="94.00" cy="482.00" r="3.51" fill="#000" opacity="0.8" stroke="#fff" stroke-width="0.7"></circle></g><g class="key-Pulp__002c-Paper__002c-__0026-Printing_0"><circle cx="94.00" cy="488.00" r="3.51" fill="#000" opacity="0.8" stroke="#fff" stroke-width="0.7"></circle></g><g class="key-Hotels-__0026-Restaurants_0"><circle cx="94.00" cy="453.00" r="3.51" fill="#000" opacity="0.8" stroke="#333" stroke-width="0.7"></circle></g><g class="key-Water-Transport_0"><circle cx="91.00" cy="510.00" r="3.32" fill="#000" opacity="0.8" stroke="#fff" stroke-width="0.7"></circle></g><g class="key-Supporting-__0026-Auxiliary-Transport_0"><circle cx="91.00" cy="492.00" r="3.32" fill="#000" opacity="0.8" stroke="#fff" stroke-width="0.7"></circle></g><g class="key-Agriculture__002c-Forestry-__0026-Fishing_0"><circle cx="90.00" cy="492.00" r="3.22" fill="#000" opacity="0.8" stroke="#fff" stroke-width="0.7"></circle></g><g class="key-Other-Community__002c-Social-__0026-Personal-Services_0"><circle cx="90.00" cy="439.00" r="3.22" fill="#000" opacity="0.8" stroke="#333" stroke-width="0.7"></circle></g><g class="key-Leather-__0026-Footwear_0"><circle cx="75.00" cy="512.00" r="3.01" fill="#000" opacity="0.8" stroke="#fff" stroke-width="0.7"></circle></g><g class="key-Construction_0"><circle cx="88.00" cy="429.00" r="3.01" fill="#000" opacity="0.8" stroke="#fff" stroke-width="0.7"></circle></g><g class="key-Private-Households_0"><circle cx="75.00" cy="510.00" r="3.01" fill="#000" opacity="0.8" stroke="#fff" stroke-width="0.7"></circle></g><g class="key-Wholesale-__0026-Commission-Trade_0"><circle cx="84.00" cy="398.00" r="2.66" fill="#000" opacity="0.8" stroke="#fff" stroke-width="0.7"></circle></g><g class="key-Post-__0026-Telecommunications_0"><circle cx="84.00" cy="459.00" r="2.66" fill="#000" opacity="0.8" stroke="#fff" stroke-width="0.7"></circle></g><g class="key-Financial-Intermediation_0"><circle cx="84.00" cy="327.00" r="2.66" fill="#000" opacity="0.8" stroke="#333" stroke-width="0.7"></circle></g><g class="key-Transport-Equipment_0"><circle cx="81.00" cy="488.00" r="2.41" fill="#000" opacity="0.8" stroke="#fff" stroke-width="0.7"></circle></g><g class="key-Machinery_0"><circle cx="80.00" cy="496.00" r="2.27" fill="#000" opacity="0.8" stroke="#fff" stroke-width="0.7"></circle></g><g class="key-Education_0"><circle cx="80.00" cy="492.00" r="2.27" fill="#000" opacity="0.8" stroke="#fff" stroke-width="0.7"></circle></g><g class="key-Wood-__0026-Products_0"><circle cx="79.00" cy="510.00" r="2.12" fill="#000" opacity="0.8" stroke="#fff" stroke-width="0.7"></circle></g><g class="key-Electrical-__0026-Optical-Equipment_0"><circle cx="79.00" cy="472.00" r="2.12" fill="#000" opacity="0.8" stroke="#333" stroke-width="0.7"></circle></g><g class="key-Textiles-__0026-Products_0"><circle cx="77.00" cy="508.00" r="1.96" fill="#000" opacity="0.8" stroke="#fff" stroke-width="0.7"></circle></g><g class="key-Real-Estate-Activities_0"><circle cx="77.00" cy="270.00" r="1.96" fill="#000" opacity="0.8" stroke="#333" stroke-width="0.7"></circle></g><g class="key-Rubber-__0026-Plastics_0"><circle cx="76.00" cy="504.00" r="1.78" fill="#000" opacity="0.8" stroke="#fff" stroke-width="0.7"></circle></g><g class="key-Manufacturing__002c-Nec__002c-Recycling_0"><circle cx="76.00" cy="504.00" r="1.78" fill="#000" opacity="0.8" stroke="#fff" stroke-width="0.7"></circle></g><g class="key-Motor-vehicles-__0028manufacturing__002c-repair-__0026-fuel__0029_0"><circle cx="76.00" cy="494.00" r="1.78" fill="#000" opacity="0.8" stroke="#fff" stroke-width="0.7"></circle></g><g fill="#333" class="backgroundLabels"><text x="543.71" y="455.16" font-size="14.30">Electricity, Gas &amp; Water</text><text x="153.00" y="248.50" font-size="11.41">Public Admin &amp; Defence</text><text x="134.00" y="481.30" font-size="11.31">Rail and freight transport</text><text x="122.00" y="497.84" font-size="11.25">Air Transport</text><text x="107.00" y="234.66" font-size="11.16">IT, Research &amp; Development</text><text x="102.00" y="356.97" font-size="11.14">Health &amp; Social Work</text><text x="99.00" y="385.14" font-size="11.12">Retail Trade</text><text x="94.00" y="448.49" font-size="11.10">Hotels &amp; Restaurants</text><text x="90.00" y="434.78" font-size="11.08">Other Community, Social &amp; Personal Services</text><text x="84.00" y="323.34" font-size="11.04">Financial Intermediation</text><text x="79.00" y="468.88" font-size="11.01">Electrical &amp; Optical Equipment</text><text x="77.00" y="267.04" font-size="11.01">Real Estate Activities</text></g></g><g style="cursor: pointer;" class="ScatterColorLegend clickable"></g></g><g style="fill: #777;" class="SourcesFooter"><g style="fill: #777;" class="clickable"><text font-size="12.60" x="15.0" y="581.6"><tspan x="15" y="581.58">Source: (WIOD) World Input-Output Dataset</tspan></text></g><text font-size="12.60" x="649.0" y="581.6"><tspan x="649.024" y="581.58"><a target='_blank' style='fill: #777;' href='https://ourworldindata.org'>OurWorldInData.org</a> • <a style="fill: #777;" href="http://creativecommons.org/licenses/by-sa/4.0/deed.en_US" target="_blank">CC BY-SA</a></tspan></text></g></g></svg>