<svg xmlns="http://www.w3.org/2000/svg" version="1.1" style="font-family: 'Helvetica Neue', Helvetica, Arial, sans-serif; font-size: 18px; background-color: white; text-rendering: optimizeLegibility; -webkit-font-smoothing: antialiased;" width="850" height="600"><g class="ChartTab"><g class="HeaderView"><g opacity="0.8" transform="translate(778, 15) scale(0.27)"><a xmlns:xlink="http://www.w3.org/1999/xlink" xlink:href="https://ourworldindata.org" target="_blank"><g><rect x="0" y="0" fill="#1B2543" width="211.2" height="130.1"/><rect x="0" y="112.2" fill="#E63912" width="211.2" height="17.9"/><g><rect x="1.2" y="12.3" fill="none" width="210.2" height="99.2"/><path fill="#FFFFFF" d="M37.8,32.2c0,12.7-7.7,19.4-17.1,19.4c-9.7,0-16.6-7.5-16.6-18.7c0-11.7,7.3-19.3,17.1-19.3 C31.3,13.7,37.8,21.3,37.8,32.2z M9.2,32.8c0,7.9,4.3,14.9,11.8,14.9c7.5,0,11.8-6.9,11.8-15.3c0-7.3-3.8-14.9-11.8-14.9 C13.1,17.5,9.2,24.8,9.2,32.8z"/><path fill="#FFFFFF" d="M62.7,43.8c0,2.7,0.1,5.1,0.2,7.2h-4.3l-0.3-4.3h-0.1c-1.3,2.1-4,4.9-8.8,4.9c-4.2,0-9.1-2.3-9.1-11.6 V24.6h4.8v14.6c0,5,1.5,8.4,5.9,8.4c3.2,0,5.5-2.2,6.3-4.4c0.3-0.7,0.4-1.6,0.4-2.5V24.6h4.8V43.8z"/><path fill="#FFFFFF" d="M67.3,32.8c0-3.1-0.1-5.8-0.2-8.2h4.2l0.2,5.2h0.2c1.2-3.5,4.1-5.8,7.3-5.8c0.5,0,0.9,0.1,1.4,0.2v4.5 c-0.5-0.1-1-0.2-1.6-0.2c-3.4,0-5.8,2.6-6.5,6.2c-0.1,0.7-0.2,1.4-0.2,2.2V51h-4.8V32.8z"/><path fill="#FFFFFF" d="M95.4,51l-9.4-36.8h5l4.4,18.6c1.1,4.6,2.1,9.2,2.7,12.7h0.1c0.6-3.7,1.8-8,3-12.8l4.9-18.5h5l4.5,18.7 c1,4.4,2,8.7,2.6,12.6h0.1c0.8-4,1.8-8.1,3-12.7l4.9-18.5h4.9L120.6,51h-5L111,31.9c-1.1-4.7-1.9-8.3-2.4-12h-0.1 c-0.7,3.7-1.5,7.3-2.8,12L100.4,51H95.4z"/><path fill="#FFFFFF" d="M154.9,37.6c0,9.8-6.8,14-13.2,14c-7.2,0-12.7-5.2-12.7-13.6c0-8.8,5.8-14,13.1-14 C149.8,24,154.9,29.5,154.9,37.6z M133.9,37.9c0,5.8,3.3,10.1,8,10.1c4.6,0,8-4.3,8-10.3c0-4.5-2.2-10.1-7.9-10.1 C136.3,27.6,133.9,32.8,133.9,37.9z"/><path fill="#FFFFFF" d="M158.2,32.8c0-3.1-0.1-5.8-0.2-8.2h4.2l0.2,5.2h0.2c1.2-3.5,4.1-5.8,7.3-5.8c0.5,0,0.9,0.1,1.4,0.2v4.5 c-0.5-0.1-1-0.2-1.6-0.2c-3.4,0-5.8,2.6-6.5,6.2c-0.1,0.7-0.2,1.4-0.2,2.2V51h-4.8V32.8z"/><path fill="#FFFFFF" d="M173.5,12.3h4.8V51h-4.8V12.3z"/><path fill="#FFFFFF" d="M206.5,12.3v31.9c0,2.3,0.1,5,0.2,6.8h-4.3l-0.2-4.6H202c-1.5,2.9-4.7,5.2-9,5.2 c-6.4,0-11.3-5.4-11.3-13.4c-0.1-8.8,5.4-14.2,11.9-14.2c4,0,6.8,1.9,8,4h0.1V12.3H206.5z M201.7,35.4c0-0.6-0.1-1.4-0.2-2 c-0.7-3.1-3.3-5.6-6.9-5.6c-5,0-7.9,4.4-7.9,10.2c0,5.3,2.6,9.8,7.8,9.8c3.2,0,6.2-2.1,7.1-5.7c0.2-0.7,0.2-1.3,0.2-2.1V35.4z"/><path fill="#FFFFFF" d="M42.8,64c0.1,1.6-1.1,2.9-3.1,2.9c-1.7,0-2.9-1.3-2.9-2.9c0-1.7,1.3-3,3-3C41.7,61,42.8,62.3,42.8,64z M37.4,97.8V71.4h4.8v26.4H37.4z"/><path fill="#FFFFFF" d="M47.5,78.6c0-2.7-0.1-5-0.2-7.1h4.3l0.3,4.4h0.1c1.3-2.5,4.4-5,8.8-5c3.7,0,9.4,2.2,9.4,11.2v15.8h-4.8 V82.6c0-4.3-1.6-7.8-6.1-7.8c-3.2,0-5.6,2.2-6.5,4.9c-0.2,0.6-0.3,1.4-0.3,2.2v15.9h-4.8V78.6z"/><path fill="#FFFFFF" d="M84,61.6c2.9-0.4,6.3-0.8,10.1-0.8c6.8,0,11.7,1.6,14.9,4.6c3.3,3,5.2,7.3,5.2,13.2c0,6-1.9,10.9-5.3,14.3 c-3.4,3.4-9.1,5.3-16.3,5.3c-3.4,0-6.2-0.2-8.6-0.4V61.6z M88.8,94.1c1.2,0.2,3,0.3,4.8,0.3c10.2,0,15.7-5.7,15.7-15.6 c0.1-8.7-4.9-14.2-14.9-14.2c-2.5,0-4.3,0.2-5.6,0.5V94.1z"/><path fill="#FFFFFF" d="M132.1,97.8l-0.4-3.3h-0.2c-1.5,2.1-4.3,3.9-8.1,3.9c-5.4,0-8.1-3.8-8.1-7.6c0-6.4,5.7-9.9,15.9-9.8v-0.5 c0-2.2-0.6-6.1-6-6.1c-2.5,0-5,0.8-6.9,2l-1.1-3.2c2.2-1.4,5.4-2.3,8.7-2.3c8.1,0,10.1,5.5,10.1,10.8v9.9c0,2.3,0.1,4.5,0.4,6.3 H132.1z M131.4,84.4c-5.3-0.1-11.2,0.8-11.2,5.9c0,3.1,2.1,4.6,4.5,4.6c3.4,0,5.6-2.2,6.4-4.4c0.2-0.5,0.3-1,0.3-1.5V84.4z"/><path fill="#FFFFFF" d="M146.6,63.9v7.6h6.9v3.7h-6.9v14.2c0,3.3,0.9,5.1,3.6,5.1c1.3,0,2.2-0.2,2.8-0.3l0.2,3.6 c-0.9,0.4-2.4,0.7-4.3,0.7c-2.2,0-4-0.7-5.2-2c-1.4-1.4-1.9-3.8-1.9-6.9V75.1h-4.1v-3.7h4.1v-6.3L146.6,63.9z"/><path fill="#FFFFFF" d="M171.4,97.8l-0.4-3.3h-0.2c-1.5,2.1-4.3,3.9-8.1,3.9c-5.4,0-8.1-3.8-8.1-7.6c0-6.4,5.7-9.9,15.9-9.8v-0.5 c0-2.2-0.6-6.1-6-6.1c-2.5,0-5,0.8-6.9,2l-1.1-3.2c2.2-1.4,5.4-2.3,8.7-2.3c8.1,0,10.1,5.5,10.1,10.8v9.9c0,2.3,0.1,4.5,0.4,6.3 H171.4z M170.7,84.4c-5.3-0.1-11.2,0.8-11.2,5.9c0,3.1,2.1,4.6,4.5,4.6c3.4,0,5.6-2.2,6.4-4.4c0.2-0.5,0.3-1,0.3-1.5V84.4z"/></g></g></a></g><a href="https://ourworldindata.org/grapher/value-added-growth-vs-emissions-growth-germany" target="_blank"><text font-size="23.40" x="15.0" y="33.7" fill="#555"><tspan x="15" y="33.72">Value added growth vs. CO₂ emissions growth in Germany, 1995-2009</tspan></text></a><text font-size="14.40" x="15.0" y="51.9" fill="#666"><tspan x="15" y="51.919999999999995">Gross domestic product (GDP) growth of individual sectors (adjusted for inflation) versus growth in carbon dioxide</tspan><tspan x="15" y="67.75999999999999">(CO₂) emissions over the period 1995-2009. Sectors in the top left quadrant have decoupled their emissions from</tspan><tspan x="15" y="83.6">economic growth - whilst their emissions fell, their economic value grew. Direct emissions of households are not</tspan><tspan x="15" y="99.44">included.</tspan></text></g><g><g class="AxisBoxView"><g class="HorizontalAxis"><text font-size="12.60" x="265.6" y="554.0"><tspan x="265.649" y="553.98">CO₂ emissions growth (1995-2009)</tspan></text><text x="89.6" y="533.9" fill="#666" text-anchor="middle" font-size="16.2">-100%</text><text x="245.9" y="533.9" fill="#666" text-anchor="middle" font-size="16.2">-50%</text><text x="402.3" y="533.9" fill="#666" text-anchor="middle" font-size="16.2">0%</text><text x="558.6" y="533.9" fill="#666" text-anchor="middle" font-size="16.2">50%</text><text x="715" y="533.9" fill="#666" text-anchor="middle" font-size="16.2">100%</text></g><g class="VerticalAxis"><text font-size="12.60" x="-431.4" y="25.1" transform="rotate(-90)"><tspan x="-431.447" y="25.080000000000002">Value added growth (1995-2009)</tspan></text><text x="84.58" y="512.7" fill="#666" dominant-baseline="middle" text-anchor="end" font-size="16.2">-100%</text><text x="84.58" y="451.5" fill="#666" dominant-baseline="middle" text-anchor="end" font-size="16.2">-50%</text><text x="84.58" y="390.4" fill="#666" dominant-baseline="middle" text-anchor="end" font-size="16.2">0%</text><text x="84.58" y="329.2" fill="#666" dominant-baseline="middle" text-anchor="end" font-size="16.2">50%</text><text x="84.58" y="268.1" fill="#666" dominant-baseline="middle" text-anchor="end" font-size="16.2">100%</text><text x="84.58" y="206.9" fill="#666" dominant-baseline="middle" text-anchor="end" font-size="16.2">150%</text><text x="84.58" y="145.8" fill="#666" dominant-baseline="middle" text-anchor="end" font-size="16.2">200%</text></g><g class="AxisGridLines"><line x1="89.58" y1="512.7" x2="715.00" y2="512.7" stroke="#ddd" stroke-dasharray="3,2"></line><line x1="89.58" y1="451.5" x2="715.00" y2="451.5" stroke="#ddd" stroke-dasharray="3,2"></line><line x1="89.58" y1="390.4" x2="715.00" y2="390.4" stroke="#ccc"></line><line x1="89.58" y1="329.2" x2="715.00" y2="329.2" stroke="#ddd" stroke-dasharray="3,2"></line><line x1="89.58" y1="268.1" x2="715.00" y2="268.1" stroke="#ddd" stroke-dasharray="3,2"></line><line x1="89.58" y1="206.9" x2="715.00" y2="206.9" stroke="#ddd" stroke-dasharray="3,2"></line><line x1="89.58" y1="145.8" x2="715.00" y2="145.8" stroke="#ddd" stroke-dasharray="3,2"></line></g><g class="AxisGridLines"><line x1="89.6" y1="512.70" x2="89.6" y2="121.30" stroke="#ddd" stroke-dasharray="3,2"></line><line x1="245.9" y1="512.70" x2="245.9" y2="121.30" stroke="#ddd" stroke-dasharray="3,2"></line><line x1="402.3" y1="512.70" x2="402.3" y2="121.30" stroke="#ccc"></line><line x1="558.6" y1="512.70" x2="558.6" y2="121.30" stroke="#ddd" stroke-dasharray="3,2"></line><line x1="715" y1="512.70" x2="715" y2="121.30" stroke="#ddd" stroke-dasharray="3,2"></line></g></g><g class="ComparisonLine"><defs><clipPath id="axisBounds-1435"><rect x="89.58000000000001" y="121.3" width="625.42" height="391.4"></rect></clipPath></defs><path d="M89.6,512.7L95.8,510.3L102.1,507.8L108.3,505.4L114.6,502.9L120.9,500.5L127.1,498L133.4,495.6L139.6,493.1L145.9,490.7L152.1,488.2L158.4,485.8L164.6,483.3L170.9,480.9L177.1,478.5L183.4,476L189.6,473.6L195.9,471.1L202.2,468.7L208.4,466.2L214.7,463.8L220.9,461.3L227.2,458.9L233.4,456.4L239.7,454L245.9,451.5L252.2,449.1L258.4,446.7L264.7,444.2L271,441.8L277.2,439.3L283.5,436.9L289.7,434.4L296,432L302.2,429.5L308.5,427.1L314.7,424.6L321,422.2L327.2,419.7L333.5,417.3L339.7,414.8L346,412.4L352.3,410L358.5,407.5L364.8,405.1L371,402.6L377.3,400.2L383.5,397.7L389.8,395.3L396,392.8L402.3,390.4L408.5,387.9L414.8,385.5L421.1,383L427.3,380.6L433.6,378.2L439.8,375.7L446.1,373.3L452.3,370.8L458.6,368.4L464.8,365.9L471.1,363.5L477.3,361L483.6,358.6L489.8,356.1L496.1,353.7L502.4,351.2L508.6,348.8L514.9,346.4L521.1,343.9L527.4,341.5L533.6,339L539.9,336.6L546.1,334.1L552.4,331.7L558.6,329.2L564.9,326.8L571.2,324.3L577.4,321.9L583.7,319.4L589.9,317L596.2,314.6L602.4,312.1L608.7,309.7L614.9,307.2L621.2,304.8L627.4,302.3L633.7,299.9L639.9,297.4L646.2,295L652.5,292.5L658.7,290.1L665,287.6L671.2,285.2L677.5,282.8L683.7,280.3L690,277.9L696.2,275.4L702.5,273L708.7,270.5" clip-path="url(#axisBounds-1435)" fill="none" stroke="#ccc"></path></g><g clip-path="url(#scatterBounds-1436)" font-family="Arial Narrow, Arial, sans-serif" class="PointsWithLabels clickable"><rect x="89.58000000000001" y="121.3" width="625.42" height="391.4" fill="rgba(255,255,255,0)"></rect><defs><clipPath id="scatterBounds-1436"><rect x="79.58000000000001" y="111.3" width="645.42" height="411.4"></rect></clipPath></defs><g class="key-Air-Transport_0"><circle cx="581.00" cy="341.00" r="17.84" fill="#000" opacity="0.8" stroke="#333" stroke-width="0.7"></circle></g><g class="key-Supporting-__0026-Auxiliary-Transport_0"><circle cx="551.00" cy="271.00" r="17.24" fill="#000" opacity="0.8" stroke="#333" stroke-width="0.7"></circle></g><g class="key-Other-Community__002c-Social-__0026-Personal-Services_0"><circle cx="489.00" cy="357.00" r="15.92" fill="#000" opacity="0.8" stroke="#333" stroke-width="0.7"></circle></g><g class="key-Post-__0026-Telecommunications_0"><circle cx="487.00" cy="405.00" r="15.87" fill="#000" opacity="0.8" stroke="#333" stroke-width="0.7"></circle></g><g class="key-Health-__0026-Social-Work_0"><circle cx="433.00" cy="329.00" r="14.64" fill="#000" opacity="0.8" stroke="#333" stroke-width="0.7"></circle></g><g class="key-Private-Households_0"><circle cx="402.00" cy="390.00" r="13.96" fill="#000" opacity="0.8" stroke="#fff" stroke-width="0.7"></circle></g><g class="key-Rail-and-freight-transport_0"><circle cx="404.00" cy="393.00" r="13.93" fill="#000" opacity="0.8" stroke="#fff" stroke-width="0.7"></circle></g><g class="key-Manufacturing__002c-Nec__002c-Recycling_0"><circle cx="393.00" cy="396.00" r="13.65" fill="#000" opacity="0.8" stroke="#fff" stroke-width="0.7"></circle></g><g class="key-Hotels-__0026-Restaurants_0"><circle cx="389.00" cy="347.00" r="13.55" fill="#000" opacity="0.8" stroke="#fff" stroke-width="0.7"></circle></g><g class="key-IT__002c-Research-__0026-Development_0"><circle cx="384.00" cy="322.00" r="13.43" fill="#000" opacity="0.8" stroke="#fff" stroke-width="0.7"></circle></g><g class="key-Coke__002c-Refined-Petroleum-__0026-Nuclear-Fuel_0"><circle cx="378.00" cy="289.00" r="13.28" fill="#000" opacity="0.8" stroke="#333" stroke-width="0.7"></circle></g><g class="key-Electricity__002c-Gas-__0026-Water_0"><circle cx="377.00" cy="316.00" r="13.25" fill="#000" opacity="0.8" stroke="#fff" stroke-width="0.7"></circle></g><g class="key-Financial-Intermediation_0"><circle cx="369.00" cy="379.00" r="13.04" fill="#000" opacity="0.8" stroke="#333" stroke-width="0.7"></circle></g><g class="key-Chemicals-__0026-Products_0"><circle cx="369.00" cy="385.00" r="13.03" fill="#000" opacity="0.8" stroke="#fff" stroke-width="0.7"></circle></g><g class="key-Wholesale-__0026-Commission-Trade_0"><circle cx="363.00" cy="384.00" r="12.88" fill="#000" opacity="0.8" stroke="#fff" stroke-width="0.7"></circle></g><g class="key-Real-Estate-Activities_0"><circle cx="363.00" cy="350.00" r="12.87" fill="#000" opacity="0.8" stroke="#fff" stroke-width="0.7"></circle></g><g class="key-Pulp__002c-Paper__002c-__0026-Printing_0"><circle cx="357.00" cy="411.00" r="12.71" fill="#000" opacity="0.8" stroke="#333" stroke-width="0.7"></circle></g><g class="key-Education_0"><circle cx="355.00" cy="356.00" r="12.65" fill="#000" opacity="0.8" stroke="#fff" stroke-width="0.7"></circle></g><g class="key-Transport-Equipment_0"><circle cx="338.00" cy="358.00" r="12.16" fill="#000" opacity="0.8" stroke="#fff" stroke-width="0.7"></circle></g><g class="key-Food__002c-Beverages-__0026-Tobacco_0"><circle cx="330.00" cy="404.00" r="11.94" fill="#000" opacity="0.8" stroke="#fff" stroke-width="0.7"></circle></g><g class="key-Other-Non__002dMetallic-Mineral_0"><circle cx="324.00" cy="435.00" r="11.77" fill="#000" opacity="0.8" stroke="#333" stroke-width="0.7"></circle></g><g class="key-Basic-__0026-Fabricated-Metals_0"><circle cx="318.00" cy="377.00" r="11.57" fill="#000" opacity="0.8" stroke="#fff" stroke-width="0.7"></circle></g><g class="key-Wood-__0026-Products_0"><circle cx="309.00" cy="435.00" r="11.29" fill="#000" opacity="0.8" stroke="#fff" stroke-width="0.7"></circle></g><g class="key-Machinery_0"><circle cx="298.00" cy="367.00" r="10.97" fill="#000" opacity="0.8" stroke="#333" stroke-width="0.7"></circle></g><g class="key-Rubber-__0026-Plastics_0"><circle cx="298.00" cy="392.00" r="10.95" fill="#000" opacity="0.8" stroke="#333" stroke-width="0.7"></circle></g><g class="key-Retail-Trade_0"><circle cx="286.00" cy="381.00" r="10.56" fill="#000" opacity="0.8" stroke="#fff" stroke-width="0.7"></circle></g><g class="key-Public-Admin-__0026-Defence_0"><circle cx="286.00" cy="381.00" r="10.56" fill="#000" opacity="0.8" stroke="#fff" stroke-width="0.7"></circle></g><g class="key-Electrical-__0026-Optical-Equipment_0"><circle cx="284.00" cy="376.00" r="10.51" fill="#000" opacity="0.8" stroke="#fff" stroke-width="0.7"></circle></g><g class="key-Agriculture__002c-Forestry-__0026-Fishing_0"><circle cx="283.00" cy="415.00" r="10.48" fill="#000" opacity="0.8" stroke="#fff" stroke-width="0.7"></circle></g><g class="key-Construction_0"><circle cx="270.00" cy="419.00" r="10.03" fill="#000" opacity="0.8" stroke="#333" stroke-width="0.7"></circle></g><g class="key-Mining-__0026-Quarrying_0"><circle cx="244.00" cy="463.00" r="9.07" fill="#000" opacity="0.8" stroke="#333" stroke-width="0.7"></circle></g><g class="key-Motor-vehicles-__0028manufacturing__002c-repair-__0026-fuel__0029_0"><circle cx="216.00" cy="360.00" r="7.90" fill="#000" opacity="0.8" stroke="#fff" stroke-width="0.7"></circle></g><g class="key-Water-Transport_0"><circle cx="209.00" cy="131.00" r="7.59" fill="#000" opacity="0.8" stroke="#333" stroke-width="0.7"></circle></g><g class="key-Textiles-__0026-Products_0"><circle cx="149.00" cy="440.00" r="3.98" fill="#000" opacity="0.8" stroke="#333" stroke-width="0.7"></circle></g><g class="key-Leather-__0026-Footwear_0"><circle cx="131.00" cy="433.00" r="1.78" fill="#000" opacity="0.8" stroke="#fff" stroke-width="0.7"></circle></g><g fill="#333" class="backgroundLabels"><text x="581.00" y="322.16" font-size="14.30">Air Transport</text><text x="347.68" y="252.76" font-size="14.08">Supporting &amp; Auxiliary Transport</text><text x="210.44" y="340.08" font-size="13.62">Other Community, Social &amp; Personal Services</text><text x="487.00" y="388.13" font-size="13.61">Post &amp; Telecommunications</text><text x="433.00" y="313.36" font-size="13.21">Health &amp; Social Work</text><text x="378.00" y="274.72" font-size="12.81">Coke, Refined Petroleum &amp; Nuclear Fuel</text><text x="369.00" y="364.96" font-size="12.75">Financial Intermediation</text><text x="357.00" y="397.29" font-size="12.66">Pulp, Paper, &amp; Printing</text><text x="324.00" y="422.23" font-size="12.42">Other Non-Metallic Mineral</text><text x="298.00" y="355.03" font-size="12.23">Machinery</text><text x="298.00" y="380.05" font-size="12.22">Rubber &amp; Plastics</text><text x="270.00" y="407.97" font-size="12.02">Construction</text><text x="244.00" y="452.93" font-size="11.83">Mining &amp; Quarrying</text><text x="209.00" y="132.87" font-size="11.57">Water Transport</text><text x="149.00" y="435.02" font-size="11.13">Textiles &amp; Products</text></g></g><g style="cursor: pointer;" class="ScatterColorLegend clickable"></g></g><g style="fill: #777;" class="SourcesFooter"><g style="fill: #777;" class="clickable"><text font-size="12.60" x="15.0" y="581.6"><tspan x="15" y="581.58">Source: (WIOD) World Input-Output Dataset</tspan></text></g><text font-size="12.60" x="649.0" y="581.6"><tspan x="649.024" y="581.58"><a target='_blank' style='fill: #777;' href='https://ourworldindata.org'>OurWorldInData.org</a> • <a style="fill: #777;" href="http://creativecommons.org/licenses/by-sa/4.0/deed.en_US" target="_blank">CC BY-SA</a></tspan></text></g></g></svg>