<svg xmlns="http://www.w3.org/2000/svg" version="1.1" style="font-family: 'Helvetica Neue', Helvetica, Arial, sans-serif; font-size: 18px; background-color: white; text-rendering: optimizeLegibility; -webkit-font-smoothing: antialiased;" width="850" height="600"><g class="ChartTab"><g class="HeaderView"><g opacity="0.8" transform="translate(778, 15) scale(0.27)"><a xmlns:xlink="http://www.w3.org/1999/xlink" xlink:href="https://ourworldindata.org" target="_blank"><g><rect x="0" y="0" fill="#1B2543" width="211.2" height="130.1"/><rect x="0" y="112.2" fill="#E63912" width="211.2" height="17.9"/><g><rect x="1.2" y="12.3" fill="none" width="210.2" height="99.2"/><path fill="#FFFFFF" d="M37.8,32.2c0,12.7-7.7,19.4-17.1,19.4c-9.7,0-16.6-7.5-16.6-18.7c0-11.7,7.3-19.3,17.1-19.3 C31.3,13.7,37.8,21.3,37.8,32.2z M9.2,32.8c0,7.9,4.3,14.9,11.8,14.9c7.5,0,11.8-6.9,11.8-15.3c0-7.3-3.8-14.9-11.8-14.9 C13.1,17.5,9.2,24.8,9.2,32.8z"/><path fill="#FFFFFF" d="M62.7,43.8c0,2.7,0.1,5.1,0.2,7.2h-4.3l-0.3-4.3h-0.1c-1.3,2.1-4,4.9-8.8,4.9c-4.2,0-9.1-2.3-9.1-11.6 V24.6h4.8v14.6c0,5,1.5,8.4,5.9,8.4c3.2,0,5.5-2.2,6.3-4.4c0.3-0.7,0.4-1.6,0.4-2.5V24.6h4.8V43.8z"/><path fill="#FFFFFF" d="M67.3,32.8c0-3.1-0.1-5.8-0.2-8.2h4.2l0.2,5.2h0.2c1.2-3.5,4.1-5.8,7.3-5.8c0.5,0,0.9,0.1,1.4,0.2v4.5 c-0.5-0.1-1-0.2-1.6-0.2c-3.4,0-5.8,2.6-6.5,6.2c-0.1,0.7-0.2,1.4-0.2,2.2V51h-4.8V32.8z"/><path fill="#FFFFFF" d="M95.4,51l-9.4-36.8h5l4.4,18.6c1.1,4.6,2.1,9.2,2.7,12.7h0.1c0.6-3.7,1.8-8,3-12.8l4.9-18.5h5l4.5,18.7 c1,4.4,2,8.7,2.6,12.6h0.1c0.8-4,1.8-8.1,3-12.7l4.9-18.5h4.9L120.6,51h-5L111,31.9c-1.1-4.7-1.9-8.3-2.4-12h-0.1 c-0.7,3.7-1.5,7.3-2.8,12L100.4,51H95.4z"/><path fill="#FFFFFF" d="M154.9,37.6c0,9.8-6.8,14-13.2,14c-7.2,0-12.7-5.2-12.7-13.6c0-8.8,5.8-14,13.1-14 C149.8,24,154.9,29.5,154.9,37.6z M133.9,37.9c0,5.8,3.3,10.1,8,10.1c4.6,0,8-4.3,8-10.3c0-4.5-2.2-10.1-7.9-10.1 C136.3,27.6,133.9,32.8,133.9,37.9z"/><path fill="#FFFFFF" d="M158.2,32.8c0-3.1-0.1-5.8-0.2-8.2h4.2l0.2,5.2h0.2c1.2-3.5,4.1-5.8,7.3-5.8c0.5,0,0.9,0.1,1.4,0.2v4.5 c-0.5-0.1-1-0.2-1.6-0.2c-3.4,0-5.8,2.6-6.5,6.2c-0.1,0.7-0.2,1.4-0.2,2.2V51h-4.8V32.8z"/><path fill="#FFFFFF" d="M173.5,12.3h4.8V51h-4.8V12.3z"/><path fill="#FFFFFF" d="M206.5,12.3v31.9c0,2.3,0.1,5,0.2,6.8h-4.3l-0.2-4.6H202c-1.5,2.9-4.7,5.2-9,5.2 c-6.4,0-11.3-5.4-11.3-13.4c-0.1-8.8,5.4-14.2,11.9-14.2c4,0,6.8,1.9,8,4h0.1V12.3H206.5z M201.7,35.4c0-0.6-0.1-1.4-0.2-2 c-0.7-3.1-3.3-5.6-6.9-5.6c-5,0-7.9,4.4-7.9,10.2c0,5.3,2.6,9.8,7.8,9.8c3.2,0,6.2-2.1,7.1-5.7c0.2-0.7,0.2-1.3,0.2-2.1V35.4z"/><path fill="#FFFFFF" d="M42.8,64c0.1,1.6-1.1,2.9-3.1,2.9c-1.7,0-2.9-1.3-2.9-2.9c0-1.7,1.3-3,3-3C41.7,61,42.8,62.3,42.8,64z M37.4,97.8V71.4h4.8v26.4H37.4z"/><path fill="#FFFFFF" d="M47.5,78.6c0-2.7-0.1-5-0.2-7.1h4.3l0.3,4.4h0.1c1.3-2.5,4.4-5,8.8-5c3.7,0,9.4,2.2,9.4,11.2v15.8h-4.8 V82.6c0-4.3-1.6-7.8-6.1-7.8c-3.2,0-5.6,2.2-6.5,4.9c-0.2,0.6-0.3,1.4-0.3,2.2v15.9h-4.8V78.6z"/><path fill="#FFFFFF" d="M84,61.6c2.9-0.4,6.3-0.8,10.1-0.8c6.8,0,11.7,1.6,14.9,4.6c3.3,3,5.2,7.3,5.2,13.2c0,6-1.9,10.9-5.3,14.3 c-3.4,3.4-9.1,5.3-16.3,5.3c-3.4,0-6.2-0.2-8.6-0.4V61.6z M88.8,94.1c1.2,0.2,3,0.3,4.8,0.3c10.2,0,15.7-5.7,15.7-15.6 c0.1-8.7-4.9-14.2-14.9-14.2c-2.5,0-4.3,0.2-5.6,0.5V94.1z"/><path fill="#FFFFFF" d="M132.1,97.8l-0.4-3.3h-0.2c-1.5,2.1-4.3,3.9-8.1,3.9c-5.4,0-8.1-3.8-8.1-7.6c0-6.4,5.7-9.9,15.9-9.8v-0.5 c0-2.2-0.6-6.1-6-6.1c-2.5,0-5,0.8-6.9,2l-1.1-3.2c2.2-1.4,5.4-2.3,8.7-2.3c8.1,0,10.1,5.5,10.1,10.8v9.9c0,2.3,0.1,4.5,0.4,6.3 H132.1z M131.4,84.4c-5.3-0.1-11.2,0.8-11.2,5.9c0,3.1,2.1,4.6,4.5,4.6c3.4,0,5.6-2.2,6.4-4.4c0.2-0.5,0.3-1,0.3-1.5V84.4z"/><path fill="#FFFFFF" d="M146.6,63.9v7.6h6.9v3.7h-6.9v14.2c0,3.3,0.9,5.1,3.6,5.1c1.3,0,2.2-0.2,2.8-0.3l0.2,3.6 c-0.9,0.4-2.4,0.7-4.3,0.7c-2.2,0-4-0.7-5.2-2c-1.4-1.4-1.9-3.8-1.9-6.9V75.1h-4.1v-3.7h4.1v-6.3L146.6,63.9z"/><path fill="#FFFFFF" d="M171.4,97.8l-0.4-3.3h-0.2c-1.5,2.1-4.3,3.9-8.1,3.9c-5.4,0-8.1-3.8-8.1-7.6c0-6.4,5.7-9.9,15.9-9.8v-0.5 c0-2.2-0.6-6.1-6-6.1c-2.5,0-5,0.8-6.9,2l-1.1-3.2c2.2-1.4,5.4-2.3,8.7-2.3c8.1,0,10.1,5.5,10.1,10.8v9.9c0,2.3,0.1,4.5,0.4,6.3 H171.4z M170.7,84.4c-5.3-0.1-11.2,0.8-11.2,5.9c0,3.1,2.1,4.6,4.5,4.6c3.4,0,5.6-2.2,6.4-4.4c0.2-0.5,0.3-1,0.3-1.5V84.4z"/></g></g></a></g><a href="https://ourworldindata.org/grapher/various-sources-of-the-total-value-of-exports-as-a-share-of-gdp" target="_blank"><text font-size="24.30" x="15.0" y="34.4" fill="#555"><tspan x="15" y="34.44">Various sources of merchandise trade as a share of GDP, Colombia</tspan></text></a><text font-size="14.40" x="15.0" y="52.8" fill="#666"><tspan x="15" y="52.81999999999999">Figure corresponds to various data sources detailing the total value of exports as a share of the country's GDP. See</tspan><tspan x="15" y="68.66">the Source tab for further details on each data series.</tspan></text></g><g class="LineChart"><defs><clipPath id="boundsClip-1"><rect x="42.562" y="0" width="830" height="930.5999999999999"></rect></clipPath></defs><g class="AxisBoxView"><g class="HorizontalAxis"><text x="52.6" y="556.5" fill="#666" text-anchor="middle" font-size="16.2">1955</text><text x="103.1" y="556.5" fill="#666" text-anchor="middle" font-size="16.2">1960</text><text x="204.2" y="556.5" fill="#666" text-anchor="middle" font-size="16.2">1970</text><text x="305.3" y="556.5" fill="#666" text-anchor="middle" font-size="16.2">1980</text><text x="406.4" y="556.5" fill="#666" text-anchor="middle" font-size="16.2">1990</text><text x="507.4" y="556.5" fill="#666" text-anchor="middle" font-size="16.2">2000</text><text x="608.5" y="556.5" fill="#666" text-anchor="middle" font-size="16.2">2010</text><text x="669.2" y="556.5" fill="#666" text-anchor="middle" font-size="16.2">2016</text></g><g class="VerticalAxis"><text x="47.56" y="486.6" fill="#666" dominant-baseline="middle" text-anchor="end" font-size="16.2">5%</text><text x="47.56" y="413.1" fill="#666" dominant-baseline="middle" text-anchor="end" font-size="16.2">10%</text><text x="47.56" y="339.6" fill="#666" dominant-baseline="middle" text-anchor="end" font-size="16.2">15%</text><text x="47.56" y="266.1" fill="#666" dominant-baseline="middle" text-anchor="end" font-size="16.2">20%</text><text x="47.56" y="192.5" fill="#666" dominant-baseline="middle" text-anchor="end" font-size="16.2">25%</text><text x="47.56" y="119" fill="#666" dominant-baseline="middle" text-anchor="end" font-size="16.2">30%</text></g><g class="AxisGridLines"><line x1="52.56" y1="486.6" x2="669.18" y2="486.6" stroke="#ddd" stroke-dasharray="3,2"></line><line x1="52.56" y1="413.1" x2="669.18" y2="413.1" stroke="#ddd" stroke-dasharray="3,2"></line><line x1="52.56" y1="339.6" x2="669.18" y2="339.6" stroke="#ddd" stroke-dasharray="3,2"></line><line x1="52.56" y1="266.1" x2="669.18" y2="266.1" stroke="#ddd" stroke-dasharray="3,2"></line><line x1="52.56" y1="192.5" x2="669.18" y2="192.5" stroke="#ddd" stroke-dasharray="3,2"></line><line x1="52.56" y1="119" x2="669.18" y2="119" stroke="#ddd" stroke-dasharray="3,2"></line></g></g><g clip-path="url(#boundsClip-1)"><g class="HeightedLegend clickable"><g class="legendMark"><g class="indicator"><line x1="674.185" y1="328.4" x2="686.685" y2="328.4" stroke="#666" stroke-width="0.5"></line><line x1="686.685" y1="328.4" x2="686.685" y2="328.4" stroke="#666" stroke-width="0.5"></line><line x1="686.685" y1="328.4" x2="699.185" y2="328.4" stroke="#666" stroke-width="0.5"></line></g><rect x="669.185" y="321.65" width="70.37" height="13.5" fill="#fff" opacity="0"></rect><text font-size="13.50" x="704.2" y="332.4" fill="#34983f"><tspan x="704.185" y="332.45">CEPII</tspan></text></g><g class="legendMark"><g class="indicator"><line x1="674.185" y1="345.7" x2="696.685" y2="345.7" stroke="#666" stroke-width="0.5"></line><line x1="696.685" y1="345.7" x2="696.685" y2="345.7" stroke="#666" stroke-width="0.5"></line><line x1="696.685" y1="345.7" x2="699.185" y2="345.7" stroke="#666" stroke-width="0.5"></line></g><rect x="669.185" y="338.95" width="165.815" height="13.5" fill="#fff" opacity="0"></rect><text font-size="13.50" x="704.2" y="349.8" fill="#9ecc8a"><tspan x="704.185" y="349.75">NBER-United Nations</tspan></text></g><g class="legendMark"><g class="indicator"><line x1="674.185" y1="347.5" x2="686.685" y2="347.5" stroke="#666" stroke-width="0.5"></line><line x1="686.685" y1="347.5" x2="686.685" y2="361.2" stroke="#666" stroke-width="0.5"></line><line x1="686.685" y1="361.2" x2="699.185" y2="361.2" stroke="#666" stroke-width="0.5"></line></g><rect x="669.185" y="354.45" width="67.94" height="13.5" fill="#fff" opacity="0"></rect><text font-size="13.50" x="704.2" y="365.3" fill="#ffd53e"><tspan x="704.185" y="365.25">COW</tspan></text></g><g class="legendMark"><g class="indicator"><line x1="674.185" y1="383.8" x2="696.685" y2="383.8" stroke="#666" stroke-width="0.5"></line><line x1="696.685" y1="383.8" x2="696.685" y2="383.8" stroke="#666" stroke-width="0.5"></line><line x1="696.685" y1="383.8" x2="699.185" y2="383.8" stroke="#666" stroke-width="0.5"></line></g><rect x="669.185" y="377.05" width="74.015" height="13.5" fill="#fff" opacity="0"></rect><text font-size="13.50" x="704.2" y="387.9" fill="#ca2628"><tspan x="704.185" y="387.85">OECD</tspan></text></g><g class="legendMark"><g class="indicator"><line x1="674.185" y1="388.5" x2="691.685" y2="388.5" stroke="#666" stroke-width="0.5"></line><line x1="691.685" y1="388.5" x2="691.685" y2="399.3" stroke="#666" stroke-width="0.5"></line><line x1="691.685" y1="399.3" x2="699.185" y2="399.3" stroke="#666" stroke-width="0.5"></line></g><rect x="669.185" y="392.55" width="104.93" height="13.5" fill="#fff" opacity="0"></rect><text font-size="13.50" x="704.2" y="403.4" fill="#e6332e"><tspan x="704.185" y="403.35">World Bank</tspan></text></g><g class="legendMark"><g class="indicator"><line x1="674.185" y1="396.7" x2="686.685" y2="396.7" stroke="#666" stroke-width="0.5"></line><line x1="686.685" y1="396.7" x2="686.685" y2="414.8" stroke="#666" stroke-width="0.5"></line><line x1="686.685" y1="414.8" x2="699.185" y2="414.8" stroke="#666" stroke-width="0.5"></line></g><rect x="669.185" y="408.05" width="58.22" height="13.5" fill="#fff" opacity="0"></rect><text font-size="13.50" x="704.2" y="418.9" fill="#2a939b"><tspan x="704.185" y="418.85">IMF</tspan></text></g><g class="legendMark"><g class="indicator"><line x1="674.185" y1="398.5" x2="681.685" y2="398.5" stroke="#666" stroke-width="0.5"></line><line x1="681.685" y1="398.5" x2="681.685" y2="430.3" stroke="#666" stroke-width="0.5"></line><line x1="681.685" y1="430.3" x2="699.185" y2="430.3" stroke="#666" stroke-width="0.5"></line></g><rect x="669.185" y="423.55" width="66.455" height="13.5" fill="#fff" opacity="0"></rect><text font-size="13.50" x="704.2" y="434.4" fill="#3360a9"><tspan x="704.185" y="434.35">WTO</tspan></text></g></g><g class="Lines"><rect x="53" y="91" width="617" height="444" fill="rgba(255,255,255,0)" opacity="0"></rect><g class="key-Colombia_2"><path stroke="#e6332e" stroke-linecap="round" d="M184 410L194 406L204 399L214 418L224 394L235 380L245 383L255 371L265 349L275 359L285 361L295 379L305 385L315 433L326 443L336 447L346 396L356 406L366 336L376 331L386 360L396 336L406 302L417 293L427 343L437 364L447 397L457 392L467 394L477 394L487 389L497 355L507 358L518 368L528 374L538 346L548 344L558 342L568 333L578 344L588 328L598 346L609 351L619 305L629 315L639 327L649 339L659 368L669 389" fill="none" stroke-width="1.5"></path><g fill="#e6332e"><circle cx="184" cy="410" r="2"></circle><circle cx="194" cy="406" r="2"></circle><circle cx="204" cy="399" r="2"></circle><circle cx="214" cy="418" r="2"></circle><circle cx="224" cy="394" r="2"></circle><circle cx="235" cy="380" r="2"></circle><circle cx="245" cy="383" r="2"></circle><circle cx="255" cy="371" r="2"></circle><circle cx="265" cy="349" r="2"></circle><circle cx="275" cy="359" r="2"></circle><circle cx="285" cy="361" r="2"></circle><circle cx="295" cy="379" r="2"></circle><circle cx="305" cy="385" r="2"></circle><circle cx="315" cy="433" r="2"></circle><circle cx="326" cy="443" r="2"></circle><circle cx="336" cy="447" r="2"></circle><circle cx="346" cy="396" r="2"></circle><circle cx="356" cy="406" r="2"></circle><circle cx="366" cy="336" r="2"></circle><circle cx="376" cy="331" r="2"></circle><circle cx="386" cy="360" r="2"></circle><circle cx="396" cy="336" r="2"></circle><circle cx="406" cy="302" r="2"></circle><circle cx="417" cy="293" r="2"></circle><circle cx="427" cy="343" r="2"></circle><circle cx="437" cy="364" r="2"></circle><circle cx="447" cy="397" r="2"></circle><circle cx="457" cy="392" r="2"></circle><circle cx="467" cy="394" r="2"></circle><circle cx="477" cy="394" r="2"></circle><circle cx="487" cy="389" r="2"></circle><circle cx="497" cy="355" r="2"></circle><circle cx="507" cy="358" r="2"></circle><circle cx="518" cy="368" r="2"></circle><circle cx="528" cy="374" r="2"></circle><circle cx="538" cy="346" r="2"></circle><circle cx="548" cy="344" r="2"></circle><circle cx="558" cy="342" r="2"></circle><circle cx="568" cy="333" r="2"></circle><circle cx="578" cy="344" r="2"></circle><circle cx="588" cy="328" r="2"></circle><circle cx="598" cy="346" r="2"></circle><circle cx="609" cy="351" r="2"></circle><circle cx="619" cy="305" r="2"></circle><circle cx="629" cy="315" r="2"></circle><circle cx="639" cy="327" r="2"></circle><circle cx="649" cy="339" r="2"></circle><circle cx="659" cy="368" r="2"></circle><circle cx="669" cy="389" r="2"></circle></g></g><g class="key-Colombia_6"><path stroke="#2a939b" stroke-linecap="round" d="M103 391L113 420L123 423L133 424L144 426L154 423L164 423L174 429L184 421L194 420L204 411L214 431L224 414L235 393L245 393L255 395L265 393L275 377L285 368L295 385L305 387L315 441L326 443L336 443L346 426L356 410L366 345L376 357L386 372L396 347L406 314L417 302L427 349L437 364L447 398L457 404L467 402L477 401L487 398L497 362L507 368L518 378L528 388L538 364L548 357L558 352L568 350L578 358L588 337L598 355L609 359L619 316L629 323L639 333L649 347L659 380L669 397" fill="none" stroke-width="1.5"></path><g fill="#2a939b"><circle cx="103" cy="391" r="2"></circle><circle cx="113" cy="420" r="2"></circle><circle cx="123" cy="423" r="2"></circle><circle cx="133" cy="424" r="2"></circle><circle cx="144" cy="426" r="2"></circle><circle cx="154" cy="423" r="2"></circle><circle cx="164" cy="423" r="2"></circle><circle cx="174" cy="429" r="2"></circle><circle cx="184" cy="421" r="2"></circle><circle cx="194" cy="420" r="2"></circle><circle cx="204" cy="411" r="2"></circle><circle cx="214" cy="431" r="2"></circle><circle cx="224" cy="414" r="2"></circle><circle cx="235" cy="393" r="2"></circle><circle cx="245" cy="393" r="2"></circle><circle cx="255" cy="395" r="2"></circle><circle cx="265" cy="393" r="2"></circle><circle cx="275" cy="377" r="2"></circle><circle cx="285" cy="368" r="2"></circle><circle cx="295" cy="385" r="2"></circle><circle cx="305" cy="387" r="2"></circle><circle cx="315" cy="441" r="2"></circle><circle cx="326" cy="443" r="2"></circle><circle cx="336" cy="443" r="2"></circle><circle cx="346" cy="426" r="2"></circle><circle cx="356" cy="410" r="2"></circle><circle cx="366" cy="345" r="2"></circle><circle cx="376" cy="357" r="2"></circle><circle cx="386" cy="372" r="2"></circle><circle cx="396" cy="347" r="2"></circle><circle cx="406" cy="314" r="2"></circle><circle cx="417" cy="302" r="2"></circle><circle cx="427" cy="349" r="2"></circle><circle cx="437" cy="364" r="2"></circle><circle cx="447" cy="398" r="2"></circle><circle cx="457" cy="404" r="2"></circle><circle cx="467" cy="402" r="2"></circle><circle cx="477" cy="401" r="2"></circle><circle cx="487" cy="398" r="2"></circle><circle cx="497" cy="362" r="2"></circle><circle cx="507" cy="368" r="2"></circle><circle cx="518" cy="378" r="2"></circle><circle cx="528" cy="388" r="2"></circle><circle cx="538" cy="364" r="2"></circle><circle cx="548" cy="357" r="2"></circle><circle cx="558" cy="352" r="2"></circle><circle cx="568" cy="350" r="2"></circle><circle cx="578" cy="358" r="2"></circle><circle cx="588" cy="337" r="2"></circle><circle cx="598" cy="355" r="2"></circle><circle cx="609" cy="359" r="2"></circle><circle cx="619" cy="316" r="2"></circle><circle cx="629" cy="323" r="2"></circle><circle cx="639" cy="333" r="2"></circle><circle cx="649" cy="347" r="2"></circle><circle cx="659" cy="380" r="2"></circle><circle cx="669" cy="397" r="2"></circle></g></g><g class="key-Colombia_7"><path stroke="#34983f" stroke-linecap="round" d="M53 381L63 406L73 374L83 322L93 343L103 372L113 397L123 408L133 404L144 417L154 397L164 401L174 410L184 411L194 413L204 399L214 421L224 407L235 393L245 380L255 369L265 364L275 362L285 363L295 360L305 369L315 423L326 436L336 438L346 424L356 398L366 326L376 339L386 353L396 336L406 305L417 302L427 333L437 363L447 397L457 386L467 389L477 389L487 379L497 345L507 349L518 354L528 359L538 330L548 316L558 319L568 319L578 329L588 296L598 346L609 351L619 312L629 314L639 328L649 328" fill="none" stroke-width="1.5"></path><g fill="#34983f"><circle cx="53" cy="381" r="2"></circle><circle cx="63" cy="406" r="2"></circle><circle cx="73" cy="374" r="2"></circle><circle cx="83" cy="322" r="2"></circle><circle cx="93" cy="343" r="2"></circle><circle cx="103" cy="372" r="2"></circle><circle cx="113" cy="397" r="2"></circle><circle cx="123" cy="408" r="2"></circle><circle cx="133" cy="404" r="2"></circle><circle cx="144" cy="417" r="2"></circle><circle cx="154" cy="397" r="2"></circle><circle cx="164" cy="401" r="2"></circle><circle cx="174" cy="410" r="2"></circle><circle cx="184" cy="411" r="2"></circle><circle cx="194" cy="413" r="2"></circle><circle cx="204" cy="399" r="2"></circle><circle cx="214" cy="421" r="2"></circle><circle cx="224" cy="407" r="2"></circle><circle cx="235" cy="393" r="2"></circle><circle cx="245" cy="380" r="2"></circle><circle cx="255" cy="369" r="2"></circle><circle cx="265" cy="364" r="2"></circle><circle cx="275" cy="362" r="2"></circle><circle cx="285" cy="363" r="2"></circle><circle cx="295" cy="360" r="2"></circle><circle cx="305" cy="369" r="2"></circle><circle cx="315" cy="423" r="2"></circle><circle cx="326" cy="436" r="2"></circle><circle cx="336" cy="438" r="2"></circle><circle cx="346" cy="424" r="2"></circle><circle cx="356" cy="398" r="2"></circle><circle cx="366" cy="326" r="2"></circle><circle cx="376" cy="339" r="2"></circle><circle cx="386" cy="353" r="2"></circle><circle cx="396" cy="336" r="2"></circle><circle cx="406" cy="305" r="2"></circle><circle cx="417" cy="302" r="2"></circle><circle cx="427" cy="333" r="2"></circle><circle cx="437" cy="363" r="2"></circle><circle cx="447" cy="397" r="2"></circle><circle cx="457" cy="386" r="2"></circle><circle cx="467" cy="389" r="2"></circle><circle cx="477" cy="389" r="2"></circle><circle cx="487" cy="379" r="2"></circle><circle cx="497" cy="345" r="2"></circle><circle cx="507" cy="349" r="2"></circle><circle cx="518" cy="354" r="2"></circle><circle cx="528" cy="359" r="2"></circle><circle cx="538" cy="330" r="2"></circle><circle cx="548" cy="316" r="2"></circle><circle cx="558" cy="319" r="2"></circle><circle cx="568" cy="319" r="2"></circle><circle cx="578" cy="329" r="2"></circle><circle cx="588" cy="296" r="2"></circle><circle cx="598" cy="346" r="2"></circle><circle cx="609" cy="351" r="2"></circle><circle cx="619" cy="312" r="2"></circle><circle cx="629" cy="314" r="2"></circle><circle cx="639" cy="328" r="2"></circle><circle cx="649" cy="328" r="2"></circle></g></g><g class="key-Colombia_5"><path stroke="#ffd53e" stroke-linecap="round" d="M53 400L63 414L73 402L83 356L93 378L103 391L113 420L123 423L133 424L144 425L154 423L164 423L174 429L184 420L194 419L204 411L214 431L224 414L235 393L245 392L255 396L265 394L275 377L285 368L295 385L305 387L315 442L326 444L336 443L346 427L356 412L366 345L376 358L386 372L396 347L406 315L417 303L427 351L437 364L447 398L457 403L467 402L477 401L487 398L497 362L507 367L518 376L528 387L538 361L548 354L558 349L568 346L578 354L588 335L598 355L609 358L619 313L629 320L639 333L649 348" fill="none" stroke-width="1.5"></path><g fill="#ffd53e"><circle cx="53" cy="400" r="2"></circle><circle cx="63" cy="414" r="2"></circle><circle cx="73" cy="402" r="2"></circle><circle cx="83" cy="356" r="2"></circle><circle cx="93" cy="378" r="2"></circle><circle cx="103" cy="391" r="2"></circle><circle cx="113" cy="420" r="2"></circle><circle cx="123" cy="423" r="2"></circle><circle cx="133" cy="424" r="2"></circle><circle cx="144" cy="425" r="2"></circle><circle cx="154" cy="423" r="2"></circle><circle cx="164" cy="423" r="2"></circle><circle cx="174" cy="429" r="2"></circle><circle cx="184" cy="420" r="2"></circle><circle cx="194" cy="419" r="2"></circle><circle cx="204" cy="411" r="2"></circle><circle cx="214" cy="431" r="2"></circle><circle cx="224" cy="414" r="2"></circle><circle cx="235" cy="393" r="2"></circle><circle cx="245" cy="392" r="2"></circle><circle cx="255" cy="396" r="2"></circle><circle cx="265" cy="394" r="2"></circle><circle cx="275" cy="377" r="2"></circle><circle cx="285" cy="368" r="2"></circle><circle cx="295" cy="385" r="2"></circle><circle cx="305" cy="387" r="2"></circle><circle cx="315" cy="442" r="2"></circle><circle cx="326" cy="444" r="2"></circle><circle cx="336" cy="443" r="2"></circle><circle cx="346" cy="427" r="2"></circle><circle cx="356" cy="412" r="2"></circle><circle cx="366" cy="345" r="2"></circle><circle cx="376" cy="358" r="2"></circle><circle cx="386" cy="372" r="2"></circle><circle cx="396" cy="347" r="2"></circle><circle cx="406" cy="315" r="2"></circle><circle cx="417" cy="303" r="2"></circle><circle cx="427" cy="351" r="2"></circle><circle cx="437" cy="364" r="2"></circle><circle cx="447" cy="398" r="2"></circle><circle cx="457" cy="403" r="2"></circle><circle cx="467" cy="402" r="2"></circle><circle cx="477" cy="401" r="2"></circle><circle cx="487" cy="398" r="2"></circle><circle cx="497" cy="362" r="2"></circle><circle cx="507" cy="367" r="2"></circle><circle cx="518" cy="376" r="2"></circle><circle cx="528" cy="387" r="2"></circle><circle cx="538" cy="361" r="2"></circle><circle cx="548" cy="354" r="2"></circle><circle cx="558" cy="349" r="2"></circle><circle cx="568" cy="346" r="2"></circle><circle cx="578" cy="354" r="2"></circle><circle cx="588" cy="335" r="2"></circle><circle cx="598" cy="355" r="2"></circle><circle cx="609" cy="358" r="2"></circle><circle cx="619" cy="313" r="2"></circle><circle cx="629" cy="320" r="2"></circle><circle cx="639" cy="333" r="2"></circle><circle cx="649" cy="348" r="2"></circle></g></g><g class="key-Colombia_0"><path stroke="#9ecc8a" stroke-linecap="round" d="M123 415L133 410L144 421L154 400L164 401L174 410L184 412L194 409L204 398L214 421L224 410L235 393L245 386L255 367L265 363L275 352L285 385L295 360L305 365L315 425L326 433L336 432L346 421L356 399L366 322L376 329L386 352L396 332L406 301L417 293L427 334L437 360L447 403L457 385L467 388L477 385L487 379L497 339L507 346" fill="none" stroke-width="1.5"></path><g fill="#9ecc8a"><circle cx="123" cy="415" r="2"></circle><circle cx="133" cy="410" r="2"></circle><circle cx="144" cy="421" r="2"></circle><circle cx="154" cy="400" r="2"></circle><circle cx="164" cy="401" r="2"></circle><circle cx="174" cy="410" r="2"></circle><circle cx="184" cy="412" r="2"></circle><circle cx="194" cy="409" r="2"></circle><circle cx="204" cy="398" r="2"></circle><circle cx="214" cy="421" r="2"></circle><circle cx="224" cy="410" r="2"></circle><circle cx="235" cy="393" r="2"></circle><circle cx="245" cy="386" r="2"></circle><circle cx="255" cy="367" r="2"></circle><circle cx="265" cy="363" r="2"></circle><circle cx="275" cy="352" r="2"></circle><circle cx="285" cy="385" r="2"></circle><circle cx="295" cy="360" r="2"></circle><circle cx="305" cy="365" r="2"></circle><circle cx="315" cy="425" r="2"></circle><circle cx="326" cy="433" r="2"></circle><circle cx="336" cy="432" r="2"></circle><circle cx="346" cy="421" r="2"></circle><circle cx="356" cy="399" r="2"></circle><circle cx="366" cy="322" r="2"></circle><circle cx="376" cy="329" r="2"></circle><circle cx="386" cy="352" r="2"></circle><circle cx="396" cy="332" r="2"></circle><circle cx="406" cy="301" r="2"></circle><circle cx="417" cy="293" r="2"></circle><circle cx="427" cy="334" r="2"></circle><circle cx="437" cy="360" r="2"></circle><circle cx="447" cy="403" r="2"></circle><circle cx="457" cy="385" r="2"></circle><circle cx="467" cy="388" r="2"></circle><circle cx="477" cy="385" r="2"></circle><circle cx="487" cy="379" r="2"></circle><circle cx="497" cy="339" r="2"></circle><circle cx="507" cy="346" r="2"></circle></g></g><g class="key-Colombia_3"><path stroke="#ca2628" stroke-linecap="round" d="M619 331L629 343L639 361L649 365L659 384" fill="none" stroke-width="1.5"></path><g fill="#ca2628"><circle cx="619" cy="331" r="2"></circle><circle cx="629" cy="343" r="2"></circle><circle cx="639" cy="361" r="2"></circle><circle cx="649" cy="365" r="2"></circle><circle cx="659" cy="384" r="2"></circle></g></g><g class="key-Colombia_1"><path stroke="#3360a9" stroke-linecap="round" d="M103 391L113 420L123 423L133 425L144 426L154 424L164 424L174 429L184 421L194 421L204 412L214 431L224 423L235 394L245 381L255 396L265 381L275 379L285 370L295 381L305 387L315 442L326 446L336 446L346 427L356 410L366 345L376 373L386 371L396 348L406 313L417 302L427 354L437 373L447 409L457 400L467 400L477 401L487 398L497 363L507 368L518 376L528 381L538 357L548 356L558 348L568 340L578 348L588 333L598 354L609 357L619 311L629 321L639 333L649 347L659 380L669 399" fill="none" stroke-width="1.5"></path><g fill="#3360a9"><circle cx="103" cy="391" r="2"></circle><circle cx="113" cy="420" r="2"></circle><circle cx="123" cy="423" r="2"></circle><circle cx="133" cy="425" r="2"></circle><circle cx="144" cy="426" r="2"></circle><circle cx="154" cy="424" r="2"></circle><circle cx="164" cy="424" r="2"></circle><circle cx="174" cy="429" r="2"></circle><circle cx="184" cy="421" r="2"></circle><circle cx="194" cy="421" r="2"></circle><circle cx="204" cy="412" r="2"></circle><circle cx="214" cy="431" r="2"></circle><circle cx="224" cy="423" r="2"></circle><circle cx="235" cy="394" r="2"></circle><circle cx="245" cy="381" r="2"></circle><circle cx="255" cy="396" r="2"></circle><circle cx="265" cy="381" r="2"></circle><circle cx="275" cy="379" r="2"></circle><circle cx="285" cy="370" r="2"></circle><circle cx="295" cy="381" r="2"></circle><circle cx="305" cy="387" r="2"></circle><circle cx="315" cy="442" r="2"></circle><circle cx="326" cy="446" r="2"></circle><circle cx="336" cy="446" r="2"></circle><circle cx="346" cy="427" r="2"></circle><circle cx="356" cy="410" r="2"></circle><circle cx="366" cy="345" r="2"></circle><circle cx="376" cy="373" r="2"></circle><circle cx="386" cy="371" r="2"></circle><circle cx="396" cy="348" r="2"></circle><circle cx="406" cy="313" r="2"></circle><circle cx="417" cy="302" r="2"></circle><circle cx="427" cy="354" r="2"></circle><circle cx="437" cy="373" r="2"></circle><circle cx="447" cy="409" r="2"></circle><circle cx="457" cy="400" r="2"></circle><circle cx="467" cy="400" r="2"></circle><circle cx="477" cy="401" r="2"></circle><circle cx="487" cy="398" r="2"></circle><circle cx="497" cy="363" r="2"></circle><circle cx="507" cy="368" r="2"></circle><circle cx="518" cy="376" r="2"></circle><circle cx="528" cy="381" r="2"></circle><circle cx="538" cy="357" r="2"></circle><circle cx="548" cy="356" r="2"></circle><circle cx="558" cy="348" r="2"></circle><circle cx="568" cy="340" r="2"></circle><circle cx="578" cy="348" r="2"></circle><circle cx="588" cy="333" r="2"></circle><circle cx="598" cy="354" r="2"></circle><circle cx="609" cy="357" r="2"></circle><circle cx="619" cy="311" r="2"></circle><circle cx="629" cy="321" r="2"></circle><circle cx="639" cy="333" r="2"></circle><circle cx="649" cy="347" r="2"></circle><circle cx="659" cy="380" r="2"></circle><circle cx="669" cy="399" r="2"></circle></g></g></g></g></g><g style="fill: #777;" class="SourcesFooter"><g style="fill: #777;" class="clickable"><text font-size="12.60" x="15.0" y="581.6"><tspan x="15" y="581.58">Source: Fouquin and Hugot (CEPII 2016) CEPII Two Centuries of Bilateral Trade and Gravity Data</tspan></text></g><text font-size="12.60" x="775.4" y="581.6"><tspan x="775.402" y="581.58"><a style="fill: #777;" class="cclogo" href="http://creativecommons.org/licenses/by-sa/4.0/deed.en_US" target="_blank">CC BY-SA</a></tspan></text></g></g></svg>