<svg xmlns="http://www.w3.org/2000/svg" version="1.1" style="font-family: 'Helvetica Neue', Helvetica, Arial, sans-serif; font-size: 18px; background-color: white; text-rendering: optimizeLegibility; -webkit-font-smoothing: antialiased;" width="850" height="600"><g class="ChartTab"><g class="HeaderView"><g opacity="0.8" transform="translate(778, 15) scale(0.27)"><a xmlns:xlink="http://www.w3.org/1999/xlink" xlink:href="https://ourworldindata.org" target="_blank"><g><rect x="0" y="0" fill="#1B2543" width="211.2" height="130.1"/><rect x="0" y="112.2" fill="#E63912" width="211.2" height="17.9"/><g><rect x="1.2" y="12.3" fill="none" width="210.2" height="99.2"/><path fill="#FFFFFF" d="M37.8,32.2c0,12.7-7.7,19.4-17.1,19.4c-9.7,0-16.6-7.5-16.6-18.7c0-11.7,7.3-19.3,17.1-19.3 C31.3,13.7,37.8,21.3,37.8,32.2z M9.2,32.8c0,7.9,4.3,14.9,11.8,14.9c7.5,0,11.8-6.9,11.8-15.3c0-7.3-3.8-14.9-11.8-14.9 C13.1,17.5,9.2,24.8,9.2,32.8z"/><path fill="#FFFFFF" d="M62.7,43.8c0,2.7,0.1,5.1,0.2,7.2h-4.3l-0.3-4.3h-0.1c-1.3,2.1-4,4.9-8.8,4.9c-4.2,0-9.1-2.3-9.1-11.6 V24.6h4.8v14.6c0,5,1.5,8.4,5.9,8.4c3.2,0,5.5-2.2,6.3-4.4c0.3-0.7,0.4-1.6,0.4-2.5V24.6h4.8V43.8z"/><path fill="#FFFFFF" d="M67.3,32.8c0-3.1-0.1-5.8-0.2-8.2h4.2l0.2,5.2h0.2c1.2-3.5,4.1-5.8,7.3-5.8c0.5,0,0.9,0.1,1.4,0.2v4.5 c-0.5-0.1-1-0.2-1.6-0.2c-3.4,0-5.8,2.6-6.5,6.2c-0.1,0.7-0.2,1.4-0.2,2.2V51h-4.8V32.8z"/><path fill="#FFFFFF" d="M95.4,51l-9.4-36.8h5l4.4,18.6c1.1,4.6,2.1,9.2,2.7,12.7h0.1c0.6-3.7,1.8-8,3-12.8l4.9-18.5h5l4.5,18.7 c1,4.4,2,8.7,2.6,12.6h0.1c0.8-4,1.8-8.1,3-12.7l4.9-18.5h4.9L120.6,51h-5L111,31.9c-1.1-4.7-1.9-8.3-2.4-12h-0.1 c-0.7,3.7-1.5,7.3-2.8,12L100.4,51H95.4z"/><path fill="#FFFFFF" d="M154.9,37.6c0,9.8-6.8,14-13.2,14c-7.2,0-12.7-5.2-12.7-13.6c0-8.8,5.8-14,13.1-14 C149.8,24,154.9,29.5,154.9,37.6z M133.9,37.9c0,5.8,3.3,10.1,8,10.1c4.6,0,8-4.3,8-10.3c0-4.5-2.2-10.1-7.9-10.1 C136.3,27.6,133.9,32.8,133.9,37.9z"/><path fill="#FFFFFF" d="M158.2,32.8c0-3.1-0.1-5.8-0.2-8.2h4.2l0.2,5.2h0.2c1.2-3.5,4.1-5.8,7.3-5.8c0.5,0,0.9,0.1,1.4,0.2v4.5 c-0.5-0.1-1-0.2-1.6-0.2c-3.4,0-5.8,2.6-6.5,6.2c-0.1,0.7-0.2,1.4-0.2,2.2V51h-4.8V32.8z"/><path fill="#FFFFFF" d="M173.5,12.3h4.8V51h-4.8V12.3z"/><path fill="#FFFFFF" d="M206.5,12.3v31.9c0,2.3,0.1,5,0.2,6.8h-4.3l-0.2-4.6H202c-1.5,2.9-4.7,5.2-9,5.2 c-6.4,0-11.3-5.4-11.3-13.4c-0.1-8.8,5.4-14.2,11.9-14.2c4,0,6.8,1.9,8,4h0.1V12.3H206.5z M201.7,35.4c0-0.6-0.1-1.4-0.2-2 c-0.7-3.1-3.3-5.6-6.9-5.6c-5,0-7.9,4.4-7.9,10.2c0,5.3,2.6,9.8,7.8,9.8c3.2,0,6.2-2.1,7.1-5.7c0.2-0.7,0.2-1.3,0.2-2.1V35.4z"/><path fill="#FFFFFF" d="M42.8,64c0.1,1.6-1.1,2.9-3.1,2.9c-1.7,0-2.9-1.3-2.9-2.9c0-1.7,1.3-3,3-3C41.7,61,42.8,62.3,42.8,64z M37.4,97.8V71.4h4.8v26.4H37.4z"/><path fill="#FFFFFF" d="M47.5,78.6c0-2.7-0.1-5-0.2-7.1h4.3l0.3,4.4h0.1c1.3-2.5,4.4-5,8.8-5c3.7,0,9.4,2.2,9.4,11.2v15.8h-4.8 V82.6c0-4.3-1.6-7.8-6.1-7.8c-3.2,0-5.6,2.2-6.5,4.9c-0.2,0.6-0.3,1.4-0.3,2.2v15.9h-4.8V78.6z"/><path fill="#FFFFFF" d="M84,61.6c2.9-0.4,6.3-0.8,10.1-0.8c6.8,0,11.7,1.6,14.9,4.6c3.3,3,5.2,7.3,5.2,13.2c0,6-1.9,10.9-5.3,14.3 c-3.4,3.4-9.1,5.3-16.3,5.3c-3.4,0-6.2-0.2-8.6-0.4V61.6z M88.8,94.1c1.2,0.2,3,0.3,4.8,0.3c10.2,0,15.7-5.7,15.7-15.6 c0.1-8.7-4.9-14.2-14.9-14.2c-2.5,0-4.3,0.2-5.6,0.5V94.1z"/><path fill="#FFFFFF" d="M132.1,97.8l-0.4-3.3h-0.2c-1.5,2.1-4.3,3.9-8.1,3.9c-5.4,0-8.1-3.8-8.1-7.6c0-6.4,5.7-9.9,15.9-9.8v-0.5 c0-2.2-0.6-6.1-6-6.1c-2.5,0-5,0.8-6.9,2l-1.1-3.2c2.2-1.4,5.4-2.3,8.7-2.3c8.1,0,10.1,5.5,10.1,10.8v9.9c0,2.3,0.1,4.5,0.4,6.3 H132.1z M131.4,84.4c-5.3-0.1-11.2,0.8-11.2,5.9c0,3.1,2.1,4.6,4.5,4.6c3.4,0,5.6-2.2,6.4-4.4c0.2-0.5,0.3-1,0.3-1.5V84.4z"/><path fill="#FFFFFF" d="M146.6,63.9v7.6h6.9v3.7h-6.9v14.2c0,3.3,0.9,5.1,3.6,5.1c1.3,0,2.2-0.2,2.8-0.3l0.2,3.6 c-0.9,0.4-2.4,0.7-4.3,0.7c-2.2,0-4-0.7-5.2-2c-1.4-1.4-1.9-3.8-1.9-6.9V75.1h-4.1v-3.7h4.1v-6.3L146.6,63.9z"/><path fill="#FFFFFF" d="M171.4,97.8l-0.4-3.3h-0.2c-1.5,2.1-4.3,3.9-8.1,3.9c-5.4,0-8.1-3.8-8.1-7.6c0-6.4,5.7-9.9,15.9-9.8v-0.5 c0-2.2-0.6-6.1-6-6.1c-2.5,0-5,0.8-6.9,2l-1.1-3.2c2.2-1.4,5.4-2.3,8.7-2.3c8.1,0,10.1,5.5,10.1,10.8v9.9c0,2.3,0.1,4.5,0.4,6.3 H171.4z M170.7,84.4c-5.3-0.1-11.2,0.8-11.2,5.9c0,3.1,2.1,4.6,4.5,4.6c3.4,0,5.6-2.2,6.4-4.4c0.2-0.5,0.3-1,0.3-1.5V84.4z"/></g></g></a></g><a href="https://ourworldindata.org/grapher/violent-deaths-in-conflicts-and-one-sided-violence-since-1989" target="_blank"><text font-size="25.20" x="15.0" y="35.2" fill="#555"><tspan x="15" y="35.160000000000004">Violent deaths in conflicts and one-sided violence since 1989</tspan></text></a><text font-size="14.40" x="15.0" y="53.7" fill="#666"><tspan x="15" y="53.72">The data refer to direct violent deaths. Deaths due to disease or famine caused by conflict are excluded. Extra-judicial</tspan><tspan x="15" y="69.56">killings in custody are also excluded. Only incidents involving more than 25 deaths are included. The spike in 1994</tspan><tspan x="15" y="85.4">reflects the high death toll of the Rwandan genocide.</tspan></text></g><g class="StackedArea"><defs><clipPath id="boundsClip-1"><rect x="78.968" y="0" width="820" height="843"></rect></clipPath></defs><g class="AxisBoxView"><g class="HorizontalAxis"><text x="79" y="529.1" fill="#666" text-anchor="middle" font-size="16.2">1989</text><text x="214.4" y="529.1" fill="#666" text-anchor="middle" font-size="16.2">1995</text><text x="327.3" y="529.1" fill="#666" text-anchor="middle" font-size="16.2">2000</text><text x="440.2" y="529.1" fill="#666" text-anchor="middle" font-size="16.2">2005</text><text x="553.1" y="529.1" fill="#666" text-anchor="middle" font-size="16.2">2010</text><text x="688.6" y="529.1" fill="#666" text-anchor="middle" font-size="16.2">2016</text></g><g class="VerticalAxis"><text x="73.97" y="507.9" fill="#666" dominant-baseline="middle" text-anchor="end" font-size="16.2">0</text><text x="73.97" y="434.8" fill="#666" dominant-baseline="middle" text-anchor="end" font-size="16.2">100,000</text><text x="73.97" y="361.7" fill="#666" dominant-baseline="middle" text-anchor="end" font-size="16.2">200,000</text><text x="73.97" y="288.6" fill="#666" dominant-baseline="middle" text-anchor="end" font-size="16.2">300,000</text><text x="73.97" y="215.5" fill="#666" dominant-baseline="middle" text-anchor="end" font-size="16.2">400,000</text><text x="73.97" y="142.4" fill="#666" dominant-baseline="middle" text-anchor="end" font-size="16.2">500,000</text></g><g class="AxisGridLines"><line x1="78.97" y1="507.9" x2="688.63" y2="507.9" stroke="#ccc"></line><line x1="78.97" y1="434.8" x2="688.63" y2="434.8" stroke="#ddd" stroke-dasharray="3,2"></line><line x1="78.97" y1="361.7" x2="688.63" y2="361.7" stroke="#ddd" stroke-dasharray="3,2"></line><line x1="78.97" y1="288.6" x2="688.63" y2="288.6" stroke="#ddd" stroke-dasharray="3,2"></line><line x1="78.97" y1="215.5" x2="688.63" y2="215.5" stroke="#ddd" stroke-dasharray="3,2"></line><line x1="78.97" y1="142.4" x2="688.63" y2="142.4" stroke="#ddd" stroke-dasharray="3,2"></line></g></g><g clip-path="url(#boundsClip-1)"><g class="HeightedLegend clickable"><g class="legendMark"><g class="indicator"><line x1="693.625" y1="434.8" x2="716.125" y2="434.8" stroke="#666" stroke-width="0.5"></line><line x1="716.125" y1="434.8" x2="716.125" y2="434.8" stroke="#666" stroke-width="0.5"></line><line x1="716.125" y1="434.8" x2="718.625" y2="434.8" stroke="#666" stroke-width="0.5"></line></g><rect x="688.625" y="420.75" width="97.505" height="28.1" fill="#fff" opacity="0"></rect><text font-size="13.50" x="723.6" y="431.6" fill="#ffd53e"><tspan x="723.625" y="431.55">One-sided</tspan><tspan x="723.625" y="446.40000000000003">violence</tspan></text></g><g class="legendMark"><g class="indicator"><line x1="693.625" y1="440.5" x2="706.125" y2="440.5" stroke="#666" stroke-width="0.5"></line><line x1="706.125" y1="440.5" x2="706.125" y2="457.6" stroke="#666" stroke-width="0.5"></line><line x1="706.125" y1="457.6" x2="718.625" y2="457.6" stroke="#666" stroke-width="0.5"></line></g><rect x="688.625" y="450.85" width="146.375" height="13.5" fill="#fff" opacity="0"></rect><text font-size="13.50" x="723.6" y="461.7" fill="#34983f"><tspan x="723.625" y="461.65000000000003">Non-state conflicts</tspan></text></g><g class="legendMark"><g class="indicator"><line x1="693.625" y1="475.9" x2="706.125" y2="475.9" stroke="#666" stroke-width="0.5"></line><line x1="706.125" y1="475.9" x2="706.125" y2="475.9" stroke="#666" stroke-width="0.5"></line><line x1="706.125" y1="475.9" x2="718.625" y2="475.9" stroke="#666" stroke-width="0.5"></line></g><rect x="688.625" y="469.15" width="108.17" height="13.5" fill="#fff" opacity="0"></rect><text font-size="13.50" x="723.6" y="479.9" fill="#3360a9"><tspan x="723.625" y="479.95">State-based</tspan></text></g></g><g class="Areas"><rect x="78.968" y="107.60000000000001" width="609.657" height="400.3" opacity="0" fill="rgba(255,255,255,0)"></rect><path stroke-linecap="round" d="M79 468.2L101.5 449.7L124.1 456.6L146.7 481.3L169.3 481L191.9 483.6L214.4 487.1L237 487.4L259.6 478.9L282.2 478.9L304.8 449L327.3 451.4L349.9 491.6L372.5 493.6L395.1 492.1L417.7 493.9L440.2 499L462.8 493.5L485.4 493.9L508 487L530.6 482.7L553.1 492.5L575.7 491.1L598.3 462.7L620.9 441.8L643.5 431.3L666 436.4L688.6 444L688.625 507.90000000000003L78.968 507.90000000000003" fill="#3360a9" fill-opacity="0.7" class="State__002dbased_0-area"></path><path stroke-linecap="round" d="M79 465.2L101.5 445.8L124.1 453.8L146.7 474.7L169.3 473.2L191.9 479.8L214.4 483.9L237 484.4L259.6 476.4L282.2 476.4L304.8 445.1L327.3 446.7L349.9 488.1L372.5 489.2L395.1 489.6L417.7 490.9L440.2 497.5L462.8 491.3L485.4 491.9L508 483.9L530.6 478.3L553.1 488.2L575.7 486.3L598.3 459.4L620.9 438.4L643.5 421.9L666 428.2L688.6 437.1L688.6 444L666 436.4L643.5 431.3L620.9 441.8L598.3 462.7L575.7 491.1L553.1 492.5L530.6 482.7L508 487L485.4 493.9L462.8 493.5L440.2 499L417.7 493.9L395.1 492.1L372.5 493.6L349.9 491.6L327.3 451.4L304.8 449L282.2 478.9L259.6 478.9L237 487.4L214.4 487.1L191.9 483.6L169.3 481L146.7 481.3L124.1 456.6L101.5 449.7L79 468.2" fill="#34983f" fill-opacity="0.7" class="Non__002dstate-conflicts_0-area"></path><path stroke-linecap="round" d="M79 459.3L101.5 438.7L124.1 447.3L146.7 467L169.3 467.5L191.9 107.6L214.4 469.3L237 455.8L259.6 463.4L282.2 463.7L304.8 436L327.3 441.7L349.9 482.9L372.5 480.3L395.1 481.5L417.7 485L440.2 494L462.8 488.2L485.4 488.5L508 481L530.6 474.2L553.1 485.8L575.7 482.2L598.3 456.7L620.9 431.7L643.5 411.8L666 420.9L688.6 432.5L688.6 437.1L666 428.2L643.5 421.9L620.9 438.4L598.3 459.4L575.7 486.3L553.1 488.2L530.6 478.3L508 483.9L485.4 491.9L462.8 491.3L440.2 497.5L417.7 490.9L395.1 489.6L372.5 489.2L349.9 488.1L327.3 446.7L304.8 445.1L282.2 476.4L259.6 476.4L237 484.4L214.4 483.9L191.9 479.8L169.3 473.2L146.7 474.7L124.1 453.8L101.5 445.8L79 465.2" fill="#ffd53e" fill-opacity="0.7" class="One__002dsided-violence_0-area"></path><path stroke-linecap="round" d="M79 468.2L101.5 449.7L124.1 456.6L146.7 481.3L169.3 481L191.9 483.6L214.4 487.1L237 487.4L259.6 478.9L282.2 478.9L304.8 449L327.3 451.4L349.9 491.6L372.5 493.6L395.1 492.1L417.7 493.9L440.2 499L462.8 493.5L485.4 493.9L508 487L530.6 482.7L553.1 492.5L575.7 491.1L598.3 462.7L620.9 441.8L643.5 431.3L666 436.4L688.6 444" stroke="rgb(43, 80, 141)" stroke-opacity="0.7" stroke-width="0.5" fill="none" class="State__002dbased_0-border"></path><path stroke-linecap="round" d="M79 465.2L101.5 445.8L124.1 453.8L146.7 474.7L169.3 473.2L191.9 479.8L214.4 483.9L237 484.4L259.6 476.4L282.2 476.4L304.8 445.1L327.3 446.7L349.9 488.1L372.5 489.2L395.1 489.6L417.7 490.9L440.2 497.5L462.8 491.3L485.4 491.9L508 483.9L530.6 478.3L553.1 488.2L575.7 486.3L598.3 459.4L620.9 438.4L643.5 421.9L666 428.2L688.6 437.1" stroke="rgb(44, 127, 53)" stroke-opacity="0.7" stroke-width="0.5" fill="none" class="Non__002dstate-conflicts_0-border"></path><path stroke-linecap="round" d="M79 459.3L101.5 438.7L124.1 447.3L146.7 467L169.3 467.5L191.9 107.6L214.4 469.3L237 455.8L259.6 463.4L282.2 463.7L304.8 436L327.3 441.7L349.9 482.9L372.5 480.3L395.1 481.5L417.7 485L440.2 494L462.8 488.2L485.4 488.5L508 481L530.6 474.2L553.1 485.8L575.7 482.2L598.3 456.7L620.9 431.7L643.5 411.8L666 420.9L688.6 432.5" stroke="rgb(213, 178, 52)" stroke-opacity="0.7" stroke-width="0.5" fill="none" class="One__002dsided-violence_0-border"></path></g></g></g><g style="fill: #777;" class="SourcesFooter"><g style="fill: #777;" class="clickable"><text font-size="12.60" x="15.0" y="554.2"><tspan x="15" y="554.1800000000001">Source: UCDP</tspan></text></g><text font-size="12.60" x="15.0" y="568.8"><tspan x="15" y="568.7800000000001">Note: State-based conflict is between at least two named organisations, where at least one was the government of a state. Non-state conflict is</tspan><tspan x="15" y="582.6400000000001">between two named non-state organisations. One-sided violence is that between an named organisation and civilians, such as genocides. </tspan></text><text font-size="12.60" x="649.0" y="554.2"><tspan x="649.024" y="554.1800000000001"><a target='_blank' style='fill: #777;' href='https://ourworldindata.org'>OurWorldInData.org</a> • <a style="fill: #777;" href="http://creativecommons.org/licenses/by-sa/4.0/deed.en_US" target="_blank">CC BY-SA</a></tspan></text></g></g></svg>