<svg xmlns="http://www.w3.org/2000/svg" version="1.1" style="font-family: 'Helvetica Neue', Helvetica, Arial, sans-serif; font-size: 24px; background-color: white;" width="1200" height="630"><g class="ChartTab"><g class="StackedArea"><defs><clipPath id="boundsClip-1963"><rect x="110.72000000000001" y="0" width="1170" height="1130"></rect></clipPath></defs><g class="AxisBoxView"><g class="HorizontalAxis"><text x="110.7" y="600" fill="#666" text-anchor="middle" font-size="21.6">1995</text><text x="355.8" y="600" fill="#666" text-anchor="middle" font-size="21.6">2000</text><text x="600.8" y="600" fill="#666" text-anchor="middle" font-size="21.6">2005</text><text x="845.9" y="600" fill="#666" text-anchor="middle" font-size="21.6">2010</text><text x="1041.9" y="600" fill="#666" text-anchor="middle" font-size="21.6">2014</text></g><g class="VerticalAxis"><text x="105.72" y="573.4" fill="#666" dominant-baseline="middle" text-anchor="end" font-size="21.6">$0</text><text x="105.72" y="460.9" fill="#666" dominant-baseline="middle" text-anchor="end" font-size="21.6">$50,000</text><text x="105.72" y="348.5" fill="#666" dominant-baseline="middle" text-anchor="end" font-size="21.6">$100,000</text><text x="105.72" y="236" fill="#666" dominant-baseline="middle" text-anchor="end" font-size="21.6">$150,000</text><text x="105.72" y="123.6" fill="#666" dominant-baseline="middle" text-anchor="end" font-size="21.6">$200,000</text></g><g class="AxisGridLines"><line x1="110.72" y1="573.4" x2="1041.93" y2="573.4" stroke="#ccc"></line><line x1="110.72" y1="460.9" x2="1041.93" y2="460.9" stroke="#ddd" stroke-dasharray="3,2"></line><line x1="110.72" y1="348.5" x2="1041.93" y2="348.5" stroke="#ddd" stroke-dasharray="3,2"></line><line x1="110.72" y1="236" x2="1041.93" y2="236" stroke="#ddd" stroke-dasharray="3,2"></line><line x1="110.72" y1="123.6" x2="1041.93" y2="123.6" stroke="#ddd" stroke-dasharray="3,2"></line></g><g class="AxisGridLines"><line x1="110.7" y1="573.40" x2="110.7" y2="35.00" stroke="#ddd" stroke-dasharray="3,2"></line><line x1="355.8" y1="573.40" x2="355.8" y2="35.00" stroke="#ddd" stroke-dasharray="3,2"></line><line x1="600.8" y1="573.40" x2="600.8" y2="35.00" stroke="#ddd" stroke-dasharray="3,2"></line><line x1="845.9" y1="573.40" x2="845.9" y2="35.00" stroke="#ddd" stroke-dasharray="3,2"></line></g></g><g clip-path="url(#boundsClip-1963)"><g class="HeightedLegend clickable"><g class="legendMark"><rect x="1046.9279999999999" y="533.9" width="112.53600000000002" height="39.50000000000001" fill="#fff" opacity="0"></rect><rect x="1046.9279999999999" y="552.4" width="10" height="2.5" fill="#3360a9"></rect><text font-size="19.20" x="1061.9" y="549.3" fill="#333"><tspan x="1061.9279999999999" y="549.26">Land (crop,</tspan><tspan x="1061.9279999999999" y="570.38">pasture)</tspan></text></g><g class="legendMark"><rect x="1046.9279999999999" y="494.4" width="109.27200000000002" height="39.50000000000001" fill="#fff" opacity="0"></rect><rect x="1046.9279999999999" y="512.9" width="10" height="2.5" fill="#2a939b"></rect><text font-size="19.20" x="1061.9" y="509.8" fill="#333"><tspan x="1061.9279999999999" y="509.76000000000005">Metals and</tspan><tspan x="1061.9279999999999" y="530.8800000000001">minerals</tspan></text></g><g class="legendMark"><rect x="1046.9279999999999" y="454.9" width="109.27200000000002" height="39.50000000000001" fill="#fff" opacity="0"></rect><rect x="1046.9279999999999" y="473.4" width="10" height="2.5" fill="#ca2628"></rect><text font-size="19.20" x="1061.9" y="470.3" fill="#333"><tspan x="1061.9279999999999" y="470.26">Net foreign</tspan><tspan x="1061.9279999999999" y="491.38">assets</tspan></text></g><g class="legendMark"><rect x="1046.9279999999999" y="415.4" width="106.96800000000002" height="39.50000000000001" fill="#fff" opacity="0"></rect><rect x="1046.9279999999999" y="433.9" width="10" height="2.5" fill="#ffd53e"></rect><text font-size="19.20" x="1061.9" y="430.8" fill="#333"><tspan x="1061.9279999999999" y="430.76">Forest,</tspan><tspan x="1061.9279999999999" y="451.88">non-timber</tspan></text></g><g class="legendMark"><rect x="1046.9279999999999" y="335.29999999999995" width="135.76800000000003" height="80.10000000000001" fill="#fff" opacity="0"></rect><rect x="1046.9279999999999" y="374.09999999999997" width="10" height="2.5" fill="#e6332e"></rect><text font-size="19.20" x="1061.9" y="350.7" fill="#333"><tspan x="1061.9279999999999" y="350.65999999999997">Fossil energy</tspan><tspan x="1061.9279999999999" y="371.78">resources (oil,</tspan><tspan x="1061.9279999999999" y="392.9">natural gas,</tspan><tspan x="1061.9279999999999" y="414.02">coal)</tspan></text></g><g class="legendMark"><rect x="1046.9279999999999" y="295.79999999999995" width="97.56000000000002" height="39.50000000000001" fill="#fff" opacity="0"></rect><rect x="1046.9279999999999" y="314.29999999999995" width="10" height="2.5" fill="rgb(207, 209, 100)"></rect><text font-size="19.20" x="1061.9" y="311.2" fill="#333"><tspan x="1061.9279999999999" y="311.15999999999997">Produced</tspan><tspan x="1061.9279999999999" y="332.28">capital</tspan></text></g><g class="legendMark"><rect x="1046.9279999999999" y="256.29999999999995" width="97.56000000000002" height="39.50000000000001" fill="#fff" opacity="0"></rect><rect x="1046.9279999999999" y="274.79999999999995" width="10" height="2.5" fill="#9ecc8a"></rect><text font-size="19.20" x="1061.9" y="271.7" fill="#333"><tspan x="1061.9279999999999" y="271.65999999999997">Protected</tspan><tspan x="1061.9279999999999" y="292.78">areas</tspan></text></g><g class="legendMark"><rect x="1046.9279999999999" y="237.09999999999997" width="133.656" height="19.200000000000003" fill="#fff" opacity="0"></rect><rect x="1046.9279999999999" y="245.44999999999996" width="10" height="2.5" fill="rgb(105, 178, 101)"></rect><text font-size="19.20" x="1061.9" y="252.5" fill="#333"><tspan x="1061.9279999999999" y="252.45999999999995">Forest, timber</tspan></text></g><g class="legendMark"><rect x="1046.9279999999999" y="217.89999999999995" width="138.072" height="19.200000000000003" fill="#fff" opacity="0"></rect><rect x="1046.9279999999999" y="226.24999999999994" width="10" height="2.5" fill="#34983f"></rect><text font-size="19.20" x="1061.9" y="233.3" fill="#333"><tspan x="1061.9279999999999" y="233.25999999999996">Human capital</tspan></text></g></g><g class="Areas"><rect x="110.72000000000001" y="35" width="931.2079999999999" height="538.4" opacity="0" fill="rgba(255,255,255,0)"></rect><path stroke-linecap="round" d="M110.7 567.4L355.8 568.4L600.8 564.6L845.9 558.1L1041.9 554.5L1041.9279999999999 573.4L110.72000000000001 573.4" fill="#3360a9" fill-opacity="0.7" class="Malaysia_8-area"></path><path stroke-linecap="round" d="M110.7 567.2L355.8 568.4L600.8 564.5L845.9 557.6L1041.9 552.7L1041.9 554.5L845.9 558.1L600.8 564.6L355.8 568.4L110.7 567.4" fill="#2a939b" fill-opacity="0.7" class="Malaysia_7-area"></path><path stroke-linecap="round" d="M110.7 559L355.8 560.1L600.8 549.9L845.9 541.2L1041.9 536.8L1041.9 552.7L845.9 557.6L600.8 564.5L355.8 568.4L110.7 567.2" fill="#e6332e" fill-opacity="0.7" class="Malaysia_6-area"></path><path stroke-linecap="round" d="M110.7 559L355.8 560.1L600.8 549.9L845.9 541L1041.9 536.8L1041.9 536.8L845.9 541.2L600.8 549.9L355.8 560.1L110.7 559" fill="#ca2628" fill-opacity="0.7" class="Malaysia_5-area"></path><path stroke-linecap="round" d="M110.7 550.7L355.8 552.8L600.8 543.5L845.9 534.8L1041.9 531L1041.9 536.8L845.9 541L600.8 549.9L355.8 560.1L110.7 559" fill="#ffd53e" fill-opacity="0.7" class="Malaysia_4-area"></path><path stroke-linecap="round" d="M110.7 500.9L355.8 499.2L600.8 493.5L845.9 479.4L1041.9 463.5L1041.9 531L845.9 534.8L600.8 543.5L355.8 552.8L110.7 550.7" fill="rgb(207, 209, 100)" fill-opacity="0.7" class="Malaysia_3-area"></path><path stroke-linecap="round" d="M110.7 496.1L355.8 495.1L600.8 487.5L845.9 471.5L1041.9 455.8L1041.9 463.5L845.9 479.4L600.8 493.5L355.8 499.2L110.7 500.9" fill="#9ecc8a" fill-opacity="0.7" class="Malaysia_2-area"></path><path stroke-linecap="round" d="M110.7 457.4L355.8 472.3L600.8 471.1L845.9 450.4L1041.9 441.5L1041.9 455.8L845.9 471.5L600.8 487.5L355.8 495.1L110.7 496.1" fill="rgb(105, 178, 101)" fill-opacity="0.7" class="Malaysia_1-area"></path><path stroke-linecap="round" d="M110.7 274.9L355.8 272.6L600.8 253L845.9 91.1L1041.9 35L1041.9 441.5L845.9 450.4L600.8 471.1L355.8 472.3L110.7 457.4" fill="#34983f" fill-opacity="0.7" class="Malaysia_0-area"></path><path stroke-linecap="round" d="M110.7 567.4L355.8 568.4L600.8 564.6L845.9 558.1L1041.9 554.5" stroke="rgb(43, 80, 141)" stroke-opacity="0.7" stroke-width="0.5" fill="none" class="Malaysia_8-border"></path><path stroke-linecap="round" d="M110.7 567.2L355.8 568.4L600.8 564.5L845.9 557.6L1041.9 552.7" stroke="rgb(35, 123, 130)" stroke-opacity="0.7" stroke-width="0.5" fill="none" class="Malaysia_7-border"></path><path stroke-linecap="round" d="M110.7 559L355.8 560.1L600.8 549.9L845.9 541.2L1041.9 536.8" stroke="rgb(192, 43, 38)" stroke-opacity="0.7" stroke-width="0.5" fill="none" class="Malaysia_6-border"></path><path stroke-linecap="round" d="M110.7 559L355.8 560.1L600.8 549.9L845.9 541L1041.9 536.8" stroke="rgb(169, 32, 33)" stroke-opacity="0.7" stroke-width="0.5" fill="none" class="Malaysia_5-border"></path><path stroke-linecap="round" d="M110.7 550.7L355.8 552.8L600.8 543.5L845.9 534.8L1041.9 531" stroke="rgb(213, 178, 52)" stroke-opacity="0.7" stroke-width="0.5" fill="none" class="Malaysia_4-border"></path><path stroke-linecap="round" d="M110.7 500.9L355.8 499.2L600.8 493.5L845.9 479.4L1041.9 463.5" stroke="rgb(173, 175, 84)" stroke-opacity="0.7" stroke-width="0.5" fill="none" class="Malaysia_3-border"></path><path stroke-linecap="round" d="M110.7 496.1L355.8 495.1L600.8 487.5L845.9 471.5L1041.9 455.8" stroke="rgb(132, 171, 115)" stroke-opacity="0.7" stroke-width="0.5" fill="none" class="Malaysia_2-border"></path><path stroke-linecap="round" d="M110.7 457.4L355.8 472.3L600.8 471.1L845.9 450.4L1041.9 441.5" stroke="rgb(88, 149, 85)" stroke-opacity="0.7" stroke-width="0.5" fill="none" class="Malaysia_1-border"></path><path stroke-linecap="round" d="M110.7 274.9L355.8 272.6L600.8 253L845.9 91.1L1041.9 35" stroke="rgb(44, 127, 53)" stroke-opacity="0.7" stroke-width="0.5" fill="none" class="Malaysia_0-border"></path></g></g></g></g></svg>