<svg xmlns="http://www.w3.org/2000/svg" version="1.1" style="font-family: 'Helvetica Neue', Helvetica, Arial, sans-serif; font-size: 18px; background-color: white; text-rendering: optimizeLegibility; -webkit-font-smoothing: antialiased;" width="850" height="600"><g class="ChartTab"><g class="HeaderView"><g opacity="0.8" transform="translate(770, 15) scale(0.31)"><a xmlns:xlink="http://www.w3.org/1999/xlink" xlink:href="https://ourworldindata.org" target="_blank"><g><rect x="0" y="0" fill="#1B2543" width="211.2" height="130.1"/><rect x="0" y="112.2" fill="#E63912" width="211.2" height="17.9"/><g><rect x="1.2" y="12.3" fill="none" width="210.2" height="99.2"/><path fill="#FFFFFF" d="M37.8,32.2c0,12.7-7.7,19.4-17.1,19.4c-9.7,0-16.6-7.5-16.6-18.7c0-11.7,7.3-19.3,17.1-19.3 C31.3,13.7,37.8,21.3,37.8,32.2z M9.2,32.8c0,7.9,4.3,14.9,11.8,14.9c7.5,0,11.8-6.9,11.8-15.3c0-7.3-3.8-14.9-11.8-14.9 C13.1,17.5,9.2,24.8,9.2,32.8z"/><path fill="#FFFFFF" d="M62.7,43.8c0,2.7,0.1,5.1,0.2,7.2h-4.3l-0.3-4.3h-0.1c-1.3,2.1-4,4.9-8.8,4.9c-4.2,0-9.1-2.3-9.1-11.6 V24.6h4.8v14.6c0,5,1.5,8.4,5.9,8.4c3.2,0,5.5-2.2,6.3-4.4c0.3-0.7,0.4-1.6,0.4-2.5V24.6h4.8V43.8z"/><path fill="#FFFFFF" d="M67.3,32.8c0-3.1-0.1-5.8-0.2-8.2h4.2l0.2,5.2h0.2c1.2-3.5,4.1-5.8,7.3-5.8c0.5,0,0.9,0.1,1.4,0.2v4.5 c-0.5-0.1-1-0.2-1.6-0.2c-3.4,0-5.8,2.6-6.5,6.2c-0.1,0.7-0.2,1.4-0.2,2.2V51h-4.8V32.8z"/><path fill="#FFFFFF" d="M95.4,51l-9.4-36.8h5l4.4,18.6c1.1,4.6,2.1,9.2,2.7,12.7h0.1c0.6-3.7,1.8-8,3-12.8l4.9-18.5h5l4.5,18.7 c1,4.4,2,8.7,2.6,12.6h0.1c0.8-4,1.8-8.1,3-12.7l4.9-18.5h4.9L120.6,51h-5L111,31.9c-1.1-4.7-1.9-8.3-2.4-12h-0.1 c-0.7,3.7-1.5,7.3-2.8,12L100.4,51H95.4z"/><path fill="#FFFFFF" d="M154.9,37.6c0,9.8-6.8,14-13.2,14c-7.2,0-12.7-5.2-12.7-13.6c0-8.8,5.8-14,13.1-14 C149.8,24,154.9,29.5,154.9,37.6z M133.9,37.9c0,5.8,3.3,10.1,8,10.1c4.6,0,8-4.3,8-10.3c0-4.5-2.2-10.1-7.9-10.1 C136.3,27.6,133.9,32.8,133.9,37.9z"/><path fill="#FFFFFF" d="M158.2,32.8c0-3.1-0.1-5.8-0.2-8.2h4.2l0.2,5.2h0.2c1.2-3.5,4.1-5.8,7.3-5.8c0.5,0,0.9,0.1,1.4,0.2v4.5 c-0.5-0.1-1-0.2-1.6-0.2c-3.4,0-5.8,2.6-6.5,6.2c-0.1,0.7-0.2,1.4-0.2,2.2V51h-4.8V32.8z"/><path fill="#FFFFFF" d="M173.5,12.3h4.8V51h-4.8V12.3z"/><path fill="#FFFFFF" d="M206.5,12.3v31.9c0,2.3,0.1,5,0.2,6.8h-4.3l-0.2-4.6H202c-1.5,2.9-4.7,5.2-9,5.2 c-6.4,0-11.3-5.4-11.3-13.4c-0.1-8.8,5.4-14.2,11.9-14.2c4,0,6.8,1.9,8,4h0.1V12.3H206.5z M201.7,35.4c0-0.6-0.1-1.4-0.2-2 c-0.7-3.1-3.3-5.6-6.9-5.6c-5,0-7.9,4.4-7.9,10.2c0,5.3,2.6,9.8,7.8,9.8c3.2,0,6.2-2.1,7.1-5.7c0.2-0.7,0.2-1.3,0.2-2.1V35.4z"/><path fill="#FFFFFF" d="M42.8,64c0.1,1.6-1.1,2.9-3.1,2.9c-1.7,0-2.9-1.3-2.9-2.9c0-1.7,1.3-3,3-3C41.7,61,42.8,62.3,42.8,64z M37.4,97.8V71.4h4.8v26.4H37.4z"/><path fill="#FFFFFF" d="M47.5,78.6c0-2.7-0.1-5-0.2-7.1h4.3l0.3,4.4h0.1c1.3-2.5,4.4-5,8.8-5c3.7,0,9.4,2.2,9.4,11.2v15.8h-4.8 V82.6c0-4.3-1.6-7.8-6.1-7.8c-3.2,0-5.6,2.2-6.5,4.9c-0.2,0.6-0.3,1.4-0.3,2.2v15.9h-4.8V78.6z"/><path fill="#FFFFFF" d="M84,61.6c2.9-0.4,6.3-0.8,10.1-0.8c6.8,0,11.7,1.6,14.9,4.6c3.3,3,5.2,7.3,5.2,13.2c0,6-1.9,10.9-5.3,14.3 c-3.4,3.4-9.1,5.3-16.3,5.3c-3.4,0-6.2-0.2-8.6-0.4V61.6z M88.8,94.1c1.2,0.2,3,0.3,4.8,0.3c10.2,0,15.7-5.7,15.7-15.6 c0.1-8.7-4.9-14.2-14.9-14.2c-2.5,0-4.3,0.2-5.6,0.5V94.1z"/><path fill="#FFFFFF" d="M132.1,97.8l-0.4-3.3h-0.2c-1.5,2.1-4.3,3.9-8.1,3.9c-5.4,0-8.1-3.8-8.1-7.6c0-6.4,5.7-9.9,15.9-9.8v-0.5 c0-2.2-0.6-6.1-6-6.1c-2.5,0-5,0.8-6.9,2l-1.1-3.2c2.2-1.4,5.4-2.3,8.7-2.3c8.1,0,10.1,5.5,10.1,10.8v9.9c0,2.3,0.1,4.5,0.4,6.3 H132.1z M131.4,84.4c-5.3-0.1-11.2,0.8-11.2,5.9c0,3.1,2.1,4.6,4.5,4.6c3.4,0,5.6-2.2,6.4-4.4c0.2-0.5,0.3-1,0.3-1.5V84.4z"/><path fill="#FFFFFF" d="M146.6,63.9v7.6h6.9v3.7h-6.9v14.2c0,3.3,0.9,5.1,3.6,5.1c1.3,0,2.2-0.2,2.8-0.3l0.2,3.6 c-0.9,0.4-2.4,0.7-4.3,0.7c-2.2,0-4-0.7-5.2-2c-1.4-1.4-1.9-3.8-1.9-6.9V75.1h-4.1v-3.7h4.1v-6.3L146.6,63.9z"/><path fill="#FFFFFF" d="M171.4,97.8l-0.4-3.3h-0.2c-1.5,2.1-4.3,3.9-8.1,3.9c-5.4,0-8.1-3.8-8.1-7.6c0-6.4,5.7-9.9,15.9-9.8v-0.5 c0-2.2-0.6-6.1-6-6.1c-2.5,0-5,0.8-6.9,2l-1.1-3.2c2.2-1.4,5.4-2.3,8.7-2.3c8.1,0,10.1,5.5,10.1,10.8v9.9c0,2.3,0.1,4.5,0.4,6.3 H171.4z M170.7,84.4c-5.3-0.1-11.2,0.8-11.2,5.9c0,3.1,2.1,4.6,4.5,4.6c3.4,0,5.6-2.2,6.4-4.4c0.2-0.5,0.3-1,0.3-1.5V84.4z"/></g></g></a></g><a href="https://ourworldindata.org/grapher/weekly-work-hours-vs-gdp-per-capita" target="_blank"><text font-size="27.00" x="15.0" y="36.6" fill="#555"><tspan x="15" y="36.6">Weekly Work Hours vs. GDP per capita, 1870 to 2000</tspan></text></a></g><g><g class="AxisBoxView"><g class="HorizontalAxis"><text font-size="12.60" x="272.2" y="554.0"><tspan x="272.201" y="553.98">Real GDP per capita in 2011US$</tspan></text><text x="74.4" y="533.9" fill="#666" text-anchor="middle" font-size="16.2">2,140</text><text x="387.5" y="533.9" fill="#666" text-anchor="middle" font-size="16.2">10,000</text><text x="855.3" y="533.9" fill="#666" text-anchor="middle" font-size="16.2">100,000</text><text x="715" y="533.9" fill="#666" text-anchor="middle" font-size="16.2">50,132</text></g><g class="VerticalAxis"><text font-size="12.60" x="-509.3" y="25.1" transform="rotate(-90)"><tspan x="-509.349" y="25.080000000000002">Weekly Work Hours – Full-time production workers in non-agricultural</tspan><tspan x="-509.349" y="38.940000000000005">activities</tspan></text><text x="83.05" y="512.7" fill="#666" dominant-baseline="middle" text-anchor="end" font-size="16.2">30 h</text><text x="83.05" y="460.8" fill="#666" dominant-baseline="middle" text-anchor="end" font-size="16.2">35 h</text><text x="83.05" y="409" fill="#666" dominant-baseline="middle" text-anchor="end" font-size="16.2">40 h</text><text x="83.05" y="357.1" fill="#666" dominant-baseline="middle" text-anchor="end" font-size="16.2">45 h</text><text x="83.05" y="305.3" fill="#666" dominant-baseline="middle" text-anchor="end" font-size="16.2">50 h</text><text x="83.05" y="253.4" fill="#666" dominant-baseline="middle" text-anchor="end" font-size="16.2">55 h</text><text x="83.05" y="201.5" fill="#666" dominant-baseline="middle" text-anchor="end" font-size="16.2">60 h</text><text x="83.05" y="149.7" fill="#666" dominant-baseline="middle" text-anchor="end" font-size="16.2">65 h</text><text x="83.05" y="97.8" fill="#666" dominant-baseline="middle" text-anchor="end" font-size="16.2">70 h</text></g><g class="AxisGridLines"><line x1="74.35" y1="512.7" x2="715.00" y2="512.7" stroke="#ddd" stroke-dasharray="3,2"></line><line x1="74.35" y1="460.8" x2="715.00" y2="460.8" stroke="#ddd" stroke-dasharray="3,2"></line><line x1="74.35" y1="409" x2="715.00" y2="409" stroke="#ddd" stroke-dasharray="3,2"></line><line x1="74.35" y1="357.1" x2="715.00" y2="357.1" stroke="#ddd" stroke-dasharray="3,2"></line><line x1="74.35" y1="305.3" x2="715.00" y2="305.3" stroke="#ddd" stroke-dasharray="3,2"></line><line x1="74.35" y1="253.4" x2="715.00" y2="253.4" stroke="#ddd" stroke-dasharray="3,2"></line><line x1="74.35" y1="201.5" x2="715.00" y2="201.5" stroke="#ddd" stroke-dasharray="3,2"></line><line x1="74.35" y1="149.7" x2="715.00" y2="149.7" stroke="#ddd" stroke-dasharray="3,2"></line><line x1="74.35" y1="97.8" x2="715.00" y2="97.8" stroke="#ddd" stroke-dasharray="3,2"></line></g><g class="AxisGridLines"><line x1="387.5" y1="512.70" x2="387.5" y2="75.00" stroke="#ddd" stroke-dasharray="3,2"></line><line x1="855.3" y1="512.70" x2="855.3" y2="75.00" stroke="#ddd" stroke-dasharray="3,2"></line></g></g><g clip-path="url(#scatterBounds-1)" class="PointsWithLabels clickable"><rect x="74.352" y="75" width="640.648" height="437.7" fill="rgba(255,255,255,0)"></rect><defs><clipPath id="scatterBounds-1"><rect x="64.352" y="65" width="660.648" height="457.7"></rect></clipPath></defs><g class="key-United-States_0"><circle cx="187" cy="180" r="1.4255654049694286" fill="#4d824b" stroke="#ccc" opacity="0.6"></circle><polyline stroke-linecap="round" stroke="#4d824b" points="187,180 241,191 254,201 292,210 344,219 398,326 383,437 473,384 507,406 565,421 608,418 653,412 697,406" fill="none" stroke-width="1.415077572595482" opacity="0.6"></polyline><polygon points="694.8849224274045,411.8849224274045 697,403.8849224274045 699.1150775725955,408.11507757259545" transform="rotate(82.23483468043233, 697, 406)" cx="697" cy="406" r="2.115077572595482" fill="#4d824b" stroke="#ccc" stroke-width="0.2" opacity="0.6"></polygon></g><g class="key-Germany_0"><circle cx="186" cy="122" r="1.4203316339670604" fill="#ffd336" stroke="#ccc" opacity="0.6"></circle><polyline stroke-linecap="round" stroke="#ffd336" points="186,122 202,136 242,148 284,160 325,232 346,346 389,320 338,323 477,350 546,369 600,392 624,419 657,410" fill="none" stroke-width="0.9047738379315973" opacity="0.6"></polyline><polygon points="655.3952261620684,416.3952261620684 657,408.3952261620684 658.6047738379316,411.6047738379316" transform="rotate(74.7448819321479, 657, 410)" cx="657" cy="410" r="1.6047738379315972" fill="#ffd336" stroke="#ccc" stroke-width="0.2" opacity="0.6"></polygon></g><g class="key-France_0"><circle cx="148" cy="138" r="1.4161852285969632" fill="#ffd336" stroke="#ccc" opacity="0.6"></circle><polyline stroke-linecap="round" stroke="#ffd336" points="148,138 173,139 196,140 235,140 274,180 335,326 324,419 355,359 427,347 515,359 567,401 604,410 635,453" fill="none" stroke-width="0.8133959524824235" opacity="0.6"></polyline><polygon points="633.4866040475176,459.4866040475176 635,451.4866040475176 636.5133959524825,454.5133959524824" transform="rotate(144.21102776636766, 635, 453)" cx="635" cy="453" r="1.5133959524824236" fill="#ffd336" stroke="#ccc" stroke-width="0.2" opacity="0.6"></polygon></g><g class="key-United-Kingdom_0"><circle cx="273" cy="233" r="1.3541638136090075" fill="#ffd336" stroke="#ccc" opacity="0.6"></circle><polyline stroke-linecap="round" stroke="#ffd336" points="273,233 279,236 306,239 327,243 343,243 356,336 383,319 404,349 448,360 493,388 530,409 579,384 621,404" fill="none" stroke-width="0.8126537089831614" opacity="0.6"></polyline><polygon points="619.4873462910168,410.4873462910168 621,402.4873462910168 622.5126537089832,405.5126537089831" transform="rotate(115.46334604311569, 621, 404)" cx="621" cy="404" r="1.5126537089831613" fill="#ffd336" stroke="#ccc" stroke-width="0.2" opacity="0.6"></polygon></g><g class="key-Italy_0"><circle cx="152" cy="167" r="1.3562858183170308" fill="#ffd336" stroke="#ccc" opacity="0.6"></circle><polyline stroke-linecap="round" stroke="#ffd336" points="152,167 158,166 171,164 190,162 234,176 272,317 275,320 298,328 405,384 506,378 567,383 611,413 643,425" fill="none" stroke-width="0.8045154782243242" opacity="0.6"></polyline><polygon points="641.4954845217757,431.49548452177567 643,423.49548452177567 644.5045154782243,426.50451547822433" transform="rotate(110.55604615912374, 643, 425)" cx="643" cy="425" r="1.5045154782243242" fill="#ffd336" stroke="#ccc" stroke-width="0.2" opacity="0.6"></polygon></g><g class="key-Spain_0"><circle cx="74" cy="152" r="1.2751218727123368" fill="#ffd336" stroke="#ccc" opacity="0.6"></circle><polyline stroke-linecap="round" stroke="#ffd336" points="74,152 141,173 137,193 153,210 181,235 244,320 150,336 490,409 554,420 607,456" fill="none" stroke-width="0.7258117371372679" opacity="0.6"></polyline><polygon points="605.5741882628628,462.5741882628627 607,454.5741882628627 608.4258117371373,457.4258117371373" transform="rotate(124.18612354174805, 607, 456)" cx="607" cy="456" r="1.4258117371372678" fill="#ffd336" stroke="#ccc" stroke-width="0.2" opacity="0.6"></polygon></g><g class="key-Canada_0"><circle cx="133" cy="230" r="1.1457062029061467" fill="#4d824b" stroke="#ccc" opacity="0.6"></circle><polyline stroke-linecap="round" stroke="#4d824b" points="133,230 147,211 202,192 243,174 329,223 356,315 334,334 430,385 467,401 532,412 592,424 623,429 659,415" fill="none" stroke-width="0.6729974670679282" opacity="0.6"></polyline><polygon points="657.6270025329321,421.62700253293207 659,413.62700253293207 660.372997467068,416.37299746706793" transform="rotate(68.74949507712174, 659, 415)" cx="659" cy="415" r="1.3729974670679281" fill="#4d824b" stroke="#ccc" stroke-width="0.2" opacity="0.6"></polygon></g><g class="key-Australia_0"><circle cx="282" cy="241" r="1.1115077572595482" fill="#a652ba" stroke="#ccc" opacity="0.6"></circle><polyline stroke-linecap="round" stroke="#a652ba" points="282,241 336,271 344,300 323,325 374,360 378,351 401,357 448,413 482,413 546,413 583,417 618,407 665,403" fill="none" stroke-width="0.5978025356849395" opacity="0.6"></polyline><polygon points="663.7021974643151,409.7021974643151 665,401.7021974643151 666.2978025356849,404.297802535685" transform="rotate(85.1354862857478, 665, 403)" cx="665" cy="403" r="1.2978025356849394" fill="#a652ba" stroke="#ccc" stroke-width="0.2" opacity="0.6"></polygon></g><g class="key-Netherlands_0"><circle cx="246" cy="149" r="1.1431099644133094" fill="#ffd336" stroke="#ccc" opacity="0.6"></circle><polyline stroke-linecap="round" stroke="#ffd336" points="246,149 257,166 274,181 283,196 323,216 392,325 376,320 403,313 543,356 585,400 617,471 671,472" fill="none" stroke-width="0.5724135572661664" opacity="0.6"></polyline><polygon points="669.7275864427338,478.7275864427338 671,470.7275864427338 672.2724135572662,473.27241355726613" transform="rotate(91.06091246412869, 671, 472)" cx="671" cy="472" r="1.2724135572661663" fill="#ffd336" stroke="#ccc" stroke-width="0.2" opacity="0.6"></polygon></g><g class="key-Belgium_0"><circle cx="221" cy="75" r="1.164306352802194" fill="#ffd336" stroke="#ccc" opacity="0.6"></circle><polyline stroke-linecap="round" stroke="#ffd336" points="221,75 247,105 270,134 287,158 312,206 349,323 340,326 414,383 500,410 563,424 598,444 637,441" fill="none" stroke-width="0.521970744126506" opacity="0.6"></polyline><polygon points="635.7780292558735,447.7780292558735 637,439.7780292558735 638.2219707441266,442.2219707441265" transform="rotate(85.60129537247138, 637, 441)" cx="637" cy="441" r="1.221970744126506" fill="#ffd336" stroke="#ccc" stroke-width="0.2" opacity="0.6"></polygon></g><g class="key-Sweden_0"><circle cx="86" cy="102" r="1.1511899653704665" fill="#ffd336" stroke="#ccc" opacity="0.6"></circle><polyline stroke-linecap="round" stroke="#ffd336" points="86,102 106,153 126,202 175,243 240,243 311,326 349,343 413,338 465,373 575,432 609,427 643,432" fill="none" stroke-width="0.5085722963512209" opacity="0.6"></polyline><polygon points="641.7914277036488,438.79142770364876 643,430.79142770364876 644.2085722963512,433.2085722963512" transform="rotate(98.36588695997705, 643, 432)" cx="643" cy="432" r="1.2085722963512209" fill="#ffd336" stroke="#ccc" stroke-width="0.2" opacity="0.6"></polygon></g><g class="key-Switzerland_0"><circle cx="306" cy="145" r="1.127643187358216" fill="#ffd336" stroke="#ccc" opacity="0.6"></circle><polyline stroke-linecap="round" stroke="#ffd336" points="306,145 342,169 411,192 452,211 489,239 529,320 513,343 539,331 604,345 687,369 715,392" fill="none" stroke-width="0.48416016047766675" opacity="0.6"></polyline><polygon points="713.8158398395224,398.8158398395223 715,390.8158398395223 716.1841601604777,393.18416016047763" transform="rotate(129.40066176316722, 715, 392)" cx="715" cy="392" r="1.1841601604776668" fill="#ffd336" stroke="#ccc" stroke-width="0.2" opacity="0.6"></polygon></g><g class="key-Denmark_0"><circle cx="180" cy="98" r="1.1137078948851542" fill="#ffd336" stroke="#ccc" opacity="0.6"></circle><polyline stroke-linecap="round" stroke="#ffd336" points="180,98 197,153 226,202 263,243 315,245 368,320 394,330 432,346 480,363 554,419 592,434 631,460 676,424" fill="none" stroke-width="0.46752411881009337" opacity="0.6"></polyline><polygon points="674.8324758811899,430.8324758811899 676,422.8324758811899 677.1675241188101,425.1675241188101" transform="rotate(51.34019218221512, 676, 424)" cx="676" cy="424" r="1.1675241188100933" fill="#ffd336" stroke="#ccc" stroke-width="0.2" opacity="0.6"></polygon></g><g class="key-Ireland_0"><circle cx="179" cy="162" r="1.146827480415217" fill="#ffd336" stroke="#ccc" opacity="0.6"></circle><polyline stroke-linecap="round" stroke="#ffd336" points="179,162 267,238 273,340 289,323 314,357 433,381 498,397 564,387 688,415" fill="none" stroke-width="0.4460485807943513" opacity="0.6"></polyline><polygon points="686.8539514192056,421.85395141920566 688,413.85395141920566 689.1460485807943,416.14604858079434" transform="rotate(102.72435655840648, 688, 415)" cx="688" cy="415" r="1.1460485807943512" fill="#ffd336" stroke="#ccc" stroke-width="0.2" opacity="0.6"></polygon></g><text x="615.7251508402214" y="405.3244339763334" font-size="14.3" font-family="Arial Narrow, Arial, sans-serif" fill="#666">United States</text><text x="637.9240078768801" y="462.8925150896635" font-size="11.673266391853188" font-family="Arial Narrow, Arial, sans-serif" fill="#666">France</text><text x="647.6816458878452" y="432.5801336931707" font-size="11.649032970457426" font-family="Arial Narrow, Arial, sans-serif" fill="#666">Italy</text><text x="615.5932011388168" y="477.67538094764643" font-size="11.165608455232702" font-family="Arial Narrow, Arial, sans-serif" fill="#666">Netherlands</text><text x="635.0742209297433" y="420.87652476222786" font-size="11.041902245682738" font-family="Arial Narrow, Arial, sans-serif" fill="#666">Denmark</text></g><g style="cursor: pointer;" class="ScatterColorLegend clickable"><g class="legendMark"><rect x="735" y="72.5" width="51.824" height="17.6" fill="#fff" opacity="0"></rect>,<rect x="735" y="78" width="6" height="6" fill="#ffd336"></rect>,<text font-size="12.60" x="746.0" y="85.1"><tspan x="746" y="85.08">Europe</tspan></text></g><g class="legendMark"><rect x="735" y="90.1" width="91.64" height="17.6" fill="#fff" opacity="0"></rect>,<rect x="735" y="95.6" width="6" height="6" fill="#4d824b"></rect>,<text font-size="12.60" x="746.0" y="102.7"><tspan x="746" y="102.67999999999999">North America</tspan></text></g><g class="legendMark"><rect x="735" y="107.7" width="58.124" height="17.6" fill="#fff" opacity="0"></rect>,<rect x="735" y="113.2" width="6" height="6" fill="#a652ba"></rect>,<text font-size="12.60" x="746.0" y="120.3"><tspan x="746" y="120.28">Oceania</tspan></text></g></g><line x1="735" y1="129.8" x2="830" y2="129.8" stroke="#ccc"></line><g class="clickable"><g class="ConnectedScatterLegend"><rect x="735" y="138.8" width="100" height="12.6" fill="#fff" opacity="0"></rect><text font-size="12.60" x="735.0" y="148.9" fill="#333"><tspan x="735" y="148.88">1870</tspan></text><text font-size="12.60" x="806.8" y="148.9" fill="#333"><tspan x="806.776" y="148.88">2000</tspan></text><line x1="768.224" y1="144.60000000000002" x2="801.776" y2="144.60000000000002" stroke="#666" stroke-width="1"></line><circle cx="768.224" cy="144.60000000000002" r="2" fill="#666" stroke="#ccc" stroke-width="0.2"></circle><circle cx="779.408" cy="144.60000000000002" r="2" fill="#666" stroke="#ccc" stroke-width="0.2"></circle><circle cx="790.592" cy="144.60000000000002" r="2" fill="#666" stroke="#ccc" stroke-width="0.2"></circle><polygon points="798.776,149.60000000000002 801.776,141.60000000000002 804.776,147.60000000000002" cx="801.776" cy="144.60000000000002" r="3" fill="#666" stroke="#ccc" stroke-width="0.2" transform="rotate(90, 801.776, 144.60000000000002)"></polygon></g></g></g><g style="fill: #777;" class="SourcesFooter"><g style="fill: #777;" class="clickable"><text font-size="12.60" x="15.0" y="581.6"><tspan x="15" y="581.58">Source: Huberman &amp; Minns (2007), Maddison Project Database (2018)</tspan></text></g><text font-size="12.60" x="649.0" y="581.6"><tspan x="649.024" y="581.58"><a target='_blank' style='fill: #777;' href='https://ourworldindata.org'>OurWorldInData.org</a> • <a style="fill: #777;" href="http://creativecommons.org/licenses/by-sa/4.0/deed.en_US" target="_blank">CC BY-SA</a></tspan></text></g></g></svg>