<svg xmlns="http://www.w3.org/2000/svg" version="1.1" style="font-family: 'Helvetica Neue', Helvetica, Arial, sans-serif; font-size: 18px; background-color: white; text-rendering: optimizeLegibility; -webkit-font-smoothing: antialiased;" width="850" height="600"><g class="ChartTab"><g class="HeaderView"><g opacity="0.8" transform="translate(778, 15) scale(0.27)"><a xmlns:xlink="http://www.w3.org/1999/xlink" xlink:href="https://ourworldindata.org" target="_blank"><g><rect x="0" y="0" fill="#1B2543" width="211.2" height="130.1"/><rect x="0" y="112.2" fill="#E63912" width="211.2" height="17.9"/><g><rect x="1.2" y="12.3" fill="none" width="210.2" height="99.2"/><path fill="#FFFFFF" d="M37.8,32.2c0,12.7-7.7,19.4-17.1,19.4c-9.7,0-16.6-7.5-16.6-18.7c0-11.7,7.3-19.3,17.1-19.3 C31.3,13.7,37.8,21.3,37.8,32.2z M9.2,32.8c0,7.9,4.3,14.9,11.8,14.9c7.5,0,11.8-6.9,11.8-15.3c0-7.3-3.8-14.9-11.8-14.9 C13.1,17.5,9.2,24.8,9.2,32.8z"/><path fill="#FFFFFF" d="M62.7,43.8c0,2.7,0.1,5.1,0.2,7.2h-4.3l-0.3-4.3h-0.1c-1.3,2.1-4,4.9-8.8,4.9c-4.2,0-9.1-2.3-9.1-11.6 V24.6h4.8v14.6c0,5,1.5,8.4,5.9,8.4c3.2,0,5.5-2.2,6.3-4.4c0.3-0.7,0.4-1.6,0.4-2.5V24.6h4.8V43.8z"/><path fill="#FFFFFF" d="M67.3,32.8c0-3.1-0.1-5.8-0.2-8.2h4.2l0.2,5.2h0.2c1.2-3.5,4.1-5.8,7.3-5.8c0.5,0,0.9,0.1,1.4,0.2v4.5 c-0.5-0.1-1-0.2-1.6-0.2c-3.4,0-5.8,2.6-6.5,6.2c-0.1,0.7-0.2,1.4-0.2,2.2V51h-4.8V32.8z"/><path fill="#FFFFFF" d="M95.4,51l-9.4-36.8h5l4.4,18.6c1.1,4.6,2.1,9.2,2.7,12.7h0.1c0.6-3.7,1.8-8,3-12.8l4.9-18.5h5l4.5,18.7 c1,4.4,2,8.7,2.6,12.6h0.1c0.8-4,1.8-8.1,3-12.7l4.9-18.5h4.9L120.6,51h-5L111,31.9c-1.1-4.7-1.9-8.3-2.4-12h-0.1 c-0.7,3.7-1.5,7.3-2.8,12L100.4,51H95.4z"/><path fill="#FFFFFF" d="M154.9,37.6c0,9.8-6.8,14-13.2,14c-7.2,0-12.7-5.2-12.7-13.6c0-8.8,5.8-14,13.1-14 C149.8,24,154.9,29.5,154.9,37.6z M133.9,37.9c0,5.8,3.3,10.1,8,10.1c4.6,0,8-4.3,8-10.3c0-4.5-2.2-10.1-7.9-10.1 C136.3,27.6,133.9,32.8,133.9,37.9z"/><path fill="#FFFFFF" d="M158.2,32.8c0-3.1-0.1-5.8-0.2-8.2h4.2l0.2,5.2h0.2c1.2-3.5,4.1-5.8,7.3-5.8c0.5,0,0.9,0.1,1.4,0.2v4.5 c-0.5-0.1-1-0.2-1.6-0.2c-3.4,0-5.8,2.6-6.5,6.2c-0.1,0.7-0.2,1.4-0.2,2.2V51h-4.8V32.8z"/><path fill="#FFFFFF" d="M173.5,12.3h4.8V51h-4.8V12.3z"/><path fill="#FFFFFF" d="M206.5,12.3v31.9c0,2.3,0.1,5,0.2,6.8h-4.3l-0.2-4.6H202c-1.5,2.9-4.7,5.2-9,5.2 c-6.4,0-11.3-5.4-11.3-13.4c-0.1-8.8,5.4-14.2,11.9-14.2c4,0,6.8,1.9,8,4h0.1V12.3H206.5z M201.7,35.4c0-0.6-0.1-1.4-0.2-2 c-0.7-3.1-3.3-5.6-6.9-5.6c-5,0-7.9,4.4-7.9,10.2c0,5.3,2.6,9.8,7.8,9.8c3.2,0,6.2-2.1,7.1-5.7c0.2-0.7,0.2-1.3,0.2-2.1V35.4z"/><path fill="#FFFFFF" d="M42.8,64c0.1,1.6-1.1,2.9-3.1,2.9c-1.7,0-2.9-1.3-2.9-2.9c0-1.7,1.3-3,3-3C41.7,61,42.8,62.3,42.8,64z M37.4,97.8V71.4h4.8v26.4H37.4z"/><path fill="#FFFFFF" d="M47.5,78.6c0-2.7-0.1-5-0.2-7.1h4.3l0.3,4.4h0.1c1.3-2.5,4.4-5,8.8-5c3.7,0,9.4,2.2,9.4,11.2v15.8h-4.8 V82.6c0-4.3-1.6-7.8-6.1-7.8c-3.2,0-5.6,2.2-6.5,4.9c-0.2,0.6-0.3,1.4-0.3,2.2v15.9h-4.8V78.6z"/><path fill="#FFFFFF" d="M84,61.6c2.9-0.4,6.3-0.8,10.1-0.8c6.8,0,11.7,1.6,14.9,4.6c3.3,3,5.2,7.3,5.2,13.2c0,6-1.9,10.9-5.3,14.3 c-3.4,3.4-9.1,5.3-16.3,5.3c-3.4,0-6.2-0.2-8.6-0.4V61.6z M88.8,94.1c1.2,0.2,3,0.3,4.8,0.3c10.2,0,15.7-5.7,15.7-15.6 c0.1-8.7-4.9-14.2-14.9-14.2c-2.5,0-4.3,0.2-5.6,0.5V94.1z"/><path fill="#FFFFFF" d="M132.1,97.8l-0.4-3.3h-0.2c-1.5,2.1-4.3,3.9-8.1,3.9c-5.4,0-8.1-3.8-8.1-7.6c0-6.4,5.7-9.9,15.9-9.8v-0.5 c0-2.2-0.6-6.1-6-6.1c-2.5,0-5,0.8-6.9,2l-1.1-3.2c2.2-1.4,5.4-2.3,8.7-2.3c8.1,0,10.1,5.5,10.1,10.8v9.9c0,2.3,0.1,4.5,0.4,6.3 H132.1z M131.4,84.4c-5.3-0.1-11.2,0.8-11.2,5.9c0,3.1,2.1,4.6,4.5,4.6c3.4,0,5.6-2.2,6.4-4.4c0.2-0.5,0.3-1,0.3-1.5V84.4z"/><path fill="#FFFFFF" d="M146.6,63.9v7.6h6.9v3.7h-6.9v14.2c0,3.3,0.9,5.1,3.6,5.1c1.3,0,2.2-0.2,2.8-0.3l0.2,3.6 c-0.9,0.4-2.4,0.7-4.3,0.7c-2.2,0-4-0.7-5.2-2c-1.4-1.4-1.9-3.8-1.9-6.9V75.1h-4.1v-3.7h4.1v-6.3L146.6,63.9z"/><path fill="#FFFFFF" d="M171.4,97.8l-0.4-3.3h-0.2c-1.5,2.1-4.3,3.9-8.1,3.9c-5.4,0-8.1-3.8-8.1-7.6c0-6.4,5.7-9.9,15.9-9.8v-0.5 c0-2.2-0.6-6.1-6-6.1c-2.5,0-5,0.8-6.9,2l-1.1-3.2c2.2-1.4,5.4-2.3,8.7-2.3c8.1,0,10.1,5.5,10.1,10.8v9.9c0,2.3,0.1,4.5,0.4,6.3 H171.4z M170.7,84.4c-5.3-0.1-11.2,0.8-11.2,5.9c0,3.1,2.1,4.6,4.5,4.6c3.4,0,5.6-2.2,6.4-4.4c0.2-0.5,0.3-1,0.3-1.5V84.4z"/></g></g></a></g><a href="https://ourworldindata.org/grapher/weekly-hours-dedicated-to-home-production-in-the-usa-by-employment-and-marriage-status" target="_blank"><text font-size="21.60" x="15.0" y="32.3" fill="#555"><tspan x="15" y="32.279999999999994">Hours per week spent in home production in the United States, by</tspan><tspan x="15" y="53.87999999999999">employment and marital status</tspan></text></a><text font-size="14.40" x="15.0" y="72.7" fill="#666"><tspan x="15" y="72.72">Hours per week spent in home production, by gender, employment, and marital status. For more details see the source tab.</tspan></text></g><g class="LineChart"><defs><clipPath id="boundsClip-1"><rect x="73.342" y="0" width="830" height="921.8000000000001"></rect></clipPath></defs><g class="AxisBoxView"><g class="HorizontalAxis"><text x="83.3" y="556.5" fill="#666" text-anchor="middle" font-size="16.2">1900</text><text x="183.2" y="556.5" fill="#666" text-anchor="middle" font-size="16.2">1920</text><text x="283.1" y="556.5" fill="#666" text-anchor="middle" font-size="16.2">1940</text><text x="382.9" y="556.5" fill="#666" text-anchor="middle" font-size="16.2">1960</text><text x="482.8" y="556.5" fill="#666" text-anchor="middle" font-size="16.2">1980</text><text x="607.6" y="556.5" fill="#666" text-anchor="middle" font-size="16.2">2005</text></g><g class="VerticalAxis"><text x="78.34" y="535.3" fill="#666" dominant-baseline="middle" text-anchor="end" font-size="16.2">0 hours</text><text x="78.34" y="462" fill="#666" dominant-baseline="middle" text-anchor="end" font-size="16.2">10 hours</text><text x="78.34" y="388.7" fill="#666" dominant-baseline="middle" text-anchor="end" font-size="16.2">20 hours</text><text x="78.34" y="315.5" fill="#666" dominant-baseline="middle" text-anchor="end" font-size="16.2">30 hours</text><text x="78.34" y="242.2" fill="#666" dominant-baseline="middle" text-anchor="end" font-size="16.2">40 hours</text><text x="78.34" y="168.9" fill="#666" dominant-baseline="middle" text-anchor="end" font-size="16.2">50 hours</text><text x="78.34" y="95.6" fill="#666" dominant-baseline="middle" text-anchor="end" font-size="16.2">60 hours</text></g><g class="AxisGridLines"><line x1="83.34" y1="535.3" x2="607.63" y2="535.3" stroke="#ccc"></line><line x1="83.34" y1="462" x2="607.63" y2="462" stroke="#ddd" stroke-dasharray="3,2"></line><line x1="83.34" y1="388.7" x2="607.63" y2="388.7" stroke="#ddd" stroke-dasharray="3,2"></line><line x1="83.34" y1="315.5" x2="607.63" y2="315.5" stroke="#ddd" stroke-dasharray="3,2"></line><line x1="83.34" y1="242.2" x2="607.63" y2="242.2" stroke="#ddd" stroke-dasharray="3,2"></line><line x1="83.34" y1="168.9" x2="607.63" y2="168.9" stroke="#ddd" stroke-dasharray="3,2"></line><line x1="83.34" y1="95.6" x2="607.63" y2="95.6" stroke="#ddd" stroke-dasharray="3,2"></line></g></g><g clip-path="url(#boundsClip-1)"><g class="HeightedLegend clickable"><g class="legendMark"><g class="indicator"><line x1="612.625" y1="248.8" x2="625.125" y2="248.8" stroke="#666" stroke-width="0.5"></line><line x1="625.125" y1="248.8" x2="625.125" y2="248.8" stroke="#666" stroke-width="0.5"></line><line x1="625.125" y1="248.8" x2="637.625" y2="248.8" stroke="#666" stroke-width="0.5"></line></g><rect x="607.625" y="242.05" width="168.92000000000002" height="13.5" fill="#fff" opacity="0"></rect><text font-size="13.50" x="642.6" y="252.9" fill="#9ecc8a"><tspan x="642.625" y="252.85000000000002">Nonemployed Women</tspan></text></g><g class="legendMark"><g class="indicator"><line x1="612.625" y1="320.6" x2="625.125" y2="320.6" stroke="#666" stroke-width="0.5"></line><line x1="625.125" y1="320.6" x2="625.125" y2="320.6" stroke="#666" stroke-width="0.5"></line><line x1="625.125" y1="320.6" x2="637.625" y2="320.6" stroke="#666" stroke-width="0.5"></line></g><rect x="607.625" y="313.85" width="167.97500000000002" height="13.5" fill="#fff" opacity="0"></rect><text font-size="13.50" x="642.6" y="324.7" fill="#e6332e"><tspan x="642.625" y="324.65000000000003">All Prime-Age Women</tspan></text></g><g class="legendMark"><g class="indicator"><line x1="612.625" y1="338.2" x2="625.125" y2="338.2" stroke="#666" stroke-width="0.5"></line><line x1="625.125" y1="338.2" x2="625.125" y2="338.2" stroke="#666" stroke-width="0.5"></line><line x1="625.125" y1="338.2" x2="637.625" y2="338.2" stroke="#666" stroke-width="0.5"></line></g><rect x="607.625" y="331.45" width="227.375" height="13.5" fill="#fff" opacity="0"></rect><text font-size="13.50" x="642.6" y="342.3" fill="#2a939b"><tspan x="642.625" y="342.25">Ever-Married Employed Women</tspan></text></g><g class="legendMark"><g class="indicator"><line x1="612.625" y1="355.8" x2="625.125" y2="355.8" stroke="#666" stroke-width="0.5"></line><line x1="625.125" y1="355.8" x2="625.125" y2="355.8" stroke="#666" stroke-width="0.5"></line><line x1="625.125" y1="355.8" x2="637.625" y2="355.8" stroke="#666" stroke-width="0.5"></line></g><rect x="607.625" y="349.05" width="164.33" height="13.5" fill="#fff" opacity="0"></rect><text font-size="13.50" x="642.6" y="359.9" fill="#a652ba"><tspan x="642.625" y="359.85">All Employed Women</tspan></text></g><g class="legendMark"><g class="indicator"><line x1="612.625" y1="379.9" x2="625.125" y2="379.9" stroke="#666" stroke-width="0.5"></line><line x1="625.125" y1="379.9" x2="625.125" y2="379.9" stroke="#666" stroke-width="0.5"></line><line x1="625.125" y1="379.9" x2="637.625" y2="379.9" stroke="#666" stroke-width="0.5"></line></g><rect x="607.625" y="373.15" width="148.67000000000002" height="13.5" fill="#fff" opacity="0"></rect><text font-size="13.50" x="642.6" y="383.9" fill="#f6a324"><tspan x="642.625" y="383.95">Nonemployed Men</tspan></text></g><g class="legendMark"><g class="indicator"><line x1="612.625" y1="402.7" x2="631.7916666666666" y2="402.7" stroke="#666" stroke-width="0.5"></line><line x1="631.7916666666666" y1="402.7" x2="631.7916666666666" y2="402.7" stroke="#666" stroke-width="0.5"></line><line x1="631.7916666666666" y1="402.7" x2="637.625" y2="402.7" stroke="#666" stroke-width="0.5"></line></g><rect x="607.625" y="395.95" width="187.01000000000002" height="13.5" fill="#fff" opacity="0"></rect><text font-size="13.50" x="642.6" y="406.8" fill="#34983f"><tspan x="642.625" y="406.75">Single Employed Women</tspan></text></g><g class="legendMark"><g class="indicator"><line x1="612.625" y1="412.2" x2="625.125" y2="412.2" stroke="#666" stroke-width="0.5"></line><line x1="625.125" y1="412.2" x2="625.125" y2="418.2" stroke="#666" stroke-width="0.5"></line><line x1="625.125" y1="418.2" x2="637.625" y2="418.2" stroke="#666" stroke-width="0.5"></line></g><rect x="607.625" y="411.45" width="147.72500000000002" height="13.5" fill="#fff" opacity="0"></rect><text font-size="13.50" x="642.6" y="422.3" fill="#ca2628"><tspan x="642.625" y="422.25">All Prime-Age Men</tspan></text></g><g class="legendMark"><g class="indicator"><line x1="612.625" y1="419.5" x2="618.4583333333334" y2="419.5" stroke="#666" stroke-width="0.5"></line><line x1="618.4583333333334" y1="419.5" x2="618.4583333333334" y2="433.7" stroke="#666" stroke-width="0.5"></line><line x1="618.4583333333334" y1="433.7" x2="637.625" y2="433.7" stroke="#666" stroke-width="0.5"></line></g><rect x="607.625" y="426.95" width="125.31500000000001" height="13.5" fill="#fff" opacity="0"></rect><text font-size="13.50" x="642.6" y="437.8" fill="#3360a9"><tspan x="642.625" y="437.75">Employed Men</tspan></text></g></g><g class="Lines"><rect x="83" y="96" width="524" height="440" fill="rgba(255,255,255,0)" opacity="0"></rect><g class="key-All-Prime__002dAge-Men_0"><path stroke="#ca2628" stroke-linecap="round" d="M83 507L133 506L183 507L233 491L283 479L333 469L383 459L408 453L458 447L508 433L598 409L603 411L608 412" fill="none" stroke-width="1.5"></path><g fill="#ca2628"><circle cx="83" cy="507" r="2"></circle><circle cx="133" cy="506" r="2"></circle><circle cx="183" cy="507" r="2"></circle><circle cx="233" cy="491" r="2"></circle><circle cx="283" cy="479" r="2"></circle><circle cx="333" cy="469" r="2"></circle><circle cx="383" cy="459" r="2"></circle><circle cx="408" cy="453" r="2"></circle><circle cx="458" cy="447" r="2"></circle><circle cx="508" cy="433" r="2"></circle><circle cx="598" cy="409" r="2"></circle><circle cx="603" cy="411" r="2"></circle><circle cx="608" cy="412" r="2"></circle></g></g><g class="key-Nonemployed-Men_0"><path stroke="#f6a324" stroke-linecap="round" d="M83 448L133 448L183 448L233 448L283 434L333 418L383 403L408 395L458 406L508 402L598 373L603 378L608 380" fill="none" stroke-width="1.5"></path><g fill="#f6a324"><circle cx="83" cy="448" r="2"></circle><circle cx="133" cy="448" r="2"></circle><circle cx="183" cy="448" r="2"></circle><circle cx="233" cy="448" r="2"></circle><circle cx="283" cy="434" r="2"></circle><circle cx="333" cy="418" r="2"></circle><circle cx="383" cy="403" r="2"></circle><circle cx="408" cy="395" r="2"></circle><circle cx="458" cy="406" r="2"></circle><circle cx="508" cy="402" r="2"></circle><circle cx="598" cy="373" r="2"></circle><circle cx="603" cy="378" r="2"></circle><circle cx="608" cy="380" r="2"></circle></g></g><g class="key-Employed-Men_0"><path stroke="#3360a9" stroke-linecap="round" d="M83 513L133 513L183 513L233 499L283 488L333 476L383 465L408 459L458 454L508 440L598 418L603 419L608 420" fill="none" stroke-width="1.5"></path><g fill="#3360a9"><circle cx="83" cy="513" r="2"></circle><circle cx="133" cy="513" r="2"></circle><circle cx="183" cy="513" r="2"></circle><circle cx="233" cy="499" r="2"></circle><circle cx="283" cy="488" r="2"></circle><circle cx="333" cy="476" r="2"></circle><circle cx="383" cy="465" r="2"></circle><circle cx="408" cy="459" r="2"></circle><circle cx="458" cy="454" r="2"></circle><circle cx="508" cy="440" r="2"></circle><circle cx="598" cy="418" r="2"></circle><circle cx="603" cy="419" r="2"></circle><circle cx="608" cy="420" r="2"></circle></g></g><g class="key-All-Prime__002dAge-Women_0"><path stroke="#e6332e" stroke-linecap="round" d="M83 192L133 201L183 209L233 219L283 228L333 231L383 233L408 236L458 300L508 327L598 318L603 318L608 321" fill="none" stroke-width="1.5"></path><g fill="#e6332e"><circle cx="83" cy="192" r="2"></circle><circle cx="133" cy="201" r="2"></circle><circle cx="183" cy="209" r="2"></circle><circle cx="233" cy="219" r="2"></circle><circle cx="283" cy="228" r="2"></circle><circle cx="333" cy="231" r="2"></circle><circle cx="383" cy="233" r="2"></circle><circle cx="408" cy="236" r="2"></circle><circle cx="458" cy="300" r="2"></circle><circle cx="508" cy="327" r="2"></circle><circle cx="598" cy="318" r="2"></circle><circle cx="603" cy="318" r="2"></circle><circle cx="608" cy="321" r="2"></circle></g></g><g class="key-Nonemployed-Women_0"><path stroke="#9ecc8a" stroke-linecap="round" d="M83 133L133 138L183 143L233 153L283 163L333 161L383 157L408 157L458 240L508 272L598 253L603 250L608 249" fill="none" stroke-width="1.5"></path><g fill="#9ecc8a"><circle cx="83" cy="133" r="2"></circle><circle cx="133" cy="138" r="2"></circle><circle cx="183" cy="143" r="2"></circle><circle cx="233" cy="153" r="2"></circle><circle cx="283" cy="163" r="2"></circle><circle cx="333" cy="161" r="2"></circle><circle cx="383" cy="157" r="2"></circle><circle cx="408" cy="157" r="2"></circle><circle cx="458" cy="240" r="2"></circle><circle cx="508" cy="272" r="2"></circle><circle cx="598" cy="253" r="2"></circle><circle cx="603" cy="250" r="2"></circle><circle cx="608" cy="249" r="2"></circle></g></g><g class="key-All-Employed-Women_0"><path stroke="#a652ba" stroke-linecap="round" d="M83 431L133 428L183 425L233 420L283 401L333 362L383 345L408 339L458 359L508 363L598 349L603 351L608 356" fill="none" stroke-width="1.5"></path><g fill="#a652ba"><circle cx="83" cy="431" r="2"></circle><circle cx="133" cy="428" r="2"></circle><circle cx="183" cy="425" r="2"></circle><circle cx="233" cy="420" r="2"></circle><circle cx="283" cy="401" r="2"></circle><circle cx="333" cy="362" r="2"></circle><circle cx="383" cy="345" r="2"></circle><circle cx="408" cy="339" r="2"></circle><circle cx="458" cy="359" r="2"></circle><circle cx="508" cy="363" r="2"></circle><circle cx="598" cy="349" r="2"></circle><circle cx="603" cy="351" r="2"></circle><circle cx="608" cy="356" r="2"></circle></g></g><g class="key-Single-Employed-Women_0"><path stroke="#34983f" stroke-linecap="round" d="M83 484L133 484L183 484L233 484L283 463L333 442L383 421L408 411L458 425L508 431L598 401L603 400L608 403" fill="none" stroke-width="1.5"></path><g fill="#34983f"><circle cx="83" cy="484" r="2"></circle><circle cx="133" cy="484" r="2"></circle><circle cx="183" cy="484" r="2"></circle><circle cx="233" cy="484" r="2"></circle><circle cx="283" cy="463" r="2"></circle><circle cx="333" cy="442" r="2"></circle><circle cx="383" cy="421" r="2"></circle><circle cx="408" cy="411" r="2"></circle><circle cx="458" cy="425" r="2"></circle><circle cx="508" cy="431" r="2"></circle><circle cx="598" cy="401" r="2"></circle><circle cx="603" cy="400" r="2"></circle><circle cx="608" cy="403" r="2"></circle></g></g><g class="key-Ever__002dMarried-Employed-Women_0"><path stroke="#2a939b" stroke-linecap="round" d="M83 337L133 341L183 345L233 350L283 345L333 328L383 324L408 324L458 351L508 342L598 332L603 334L608 338" fill="none" stroke-width="1.5"></path><g fill="#2a939b"><circle cx="83" cy="337" r="2"></circle><circle cx="133" cy="341" r="2"></circle><circle cx="183" cy="345" r="2"></circle><circle cx="233" cy="350" r="2"></circle><circle cx="283" cy="345" r="2"></circle><circle cx="333" cy="328" r="2"></circle><circle cx="383" cy="324" r="2"></circle><circle cx="408" cy="324" r="2"></circle><circle cx="458" cy="351" r="2"></circle><circle cx="508" cy="342" r="2"></circle><circle cx="598" cy="332" r="2"></circle><circle cx="603" cy="334" r="2"></circle><circle cx="608" cy="338" r="2"></circle></g></g></g></g></g><g style="fill: #777;" class="SourcesFooter"><g style="fill: #777;" class="clickable"><text font-size="12.60" x="15.0" y="581.6"><tspan x="15" y="581.58">Source: Ramey (2009)</tspan></text></g><text font-size="12.60" x="649.0" y="581.6"><tspan x="649.024" y="581.58"><a target='_blank' style='fill: #777;' href='https://ourworldindata.org'>OurWorldInData.org</a> • <a style="fill: #777;" href="http://creativecommons.org/licenses/by-sa/4.0/deed.en_US" target="_blank">CC BY-SA</a></tspan></text></g></g></svg>