<svg xmlns="http://www.w3.org/2000/svg" version="1.1" style="font-family: 'Helvetica Neue', Helvetica, Arial, sans-serif; font-size: 18px; background-color: white; text-rendering: optimizeLegibility; -webkit-font-smoothing: antialiased;" width="850" height="600"><g class="ChartTab"><g class="HeaderView"><g opacity="0.8" transform="translate(770, 15) scale(0.31)"><a xmlns:xlink="http://www.w3.org/1999/xlink" xlink:href="https://ourworldindata.org" target="_blank"><g><rect x="0" y="0" fill="#1B2543" width="211.2" height="130.1"/><rect x="0" y="112.2" fill="#E63912" width="211.2" height="17.9"/><g><rect x="1.2" y="12.3" fill="none" width="210.2" height="99.2"/><path fill="#FFFFFF" d="M37.8,32.2c0,12.7-7.7,19.4-17.1,19.4c-9.7,0-16.6-7.5-16.6-18.7c0-11.7,7.3-19.3,17.1-19.3 C31.3,13.7,37.8,21.3,37.8,32.2z M9.2,32.8c0,7.9,4.3,14.9,11.8,14.9c7.5,0,11.8-6.9,11.8-15.3c0-7.3-3.8-14.9-11.8-14.9 C13.1,17.5,9.2,24.8,9.2,32.8z"/><path fill="#FFFFFF" d="M62.7,43.8c0,2.7,0.1,5.1,0.2,7.2h-4.3l-0.3-4.3h-0.1c-1.3,2.1-4,4.9-8.8,4.9c-4.2,0-9.1-2.3-9.1-11.6 V24.6h4.8v14.6c0,5,1.5,8.4,5.9,8.4c3.2,0,5.5-2.2,6.3-4.4c0.3-0.7,0.4-1.6,0.4-2.5V24.6h4.8V43.8z"/><path fill="#FFFFFF" d="M67.3,32.8c0-3.1-0.1-5.8-0.2-8.2h4.2l0.2,5.2h0.2c1.2-3.5,4.1-5.8,7.3-5.8c0.5,0,0.9,0.1,1.4,0.2v4.5 c-0.5-0.1-1-0.2-1.6-0.2c-3.4,0-5.8,2.6-6.5,6.2c-0.1,0.7-0.2,1.4-0.2,2.2V51h-4.8V32.8z"/><path fill="#FFFFFF" d="M95.4,51l-9.4-36.8h5l4.4,18.6c1.1,4.6,2.1,9.2,2.7,12.7h0.1c0.6-3.7,1.8-8,3-12.8l4.9-18.5h5l4.5,18.7 c1,4.4,2,8.7,2.6,12.6h0.1c0.8-4,1.8-8.1,3-12.7l4.9-18.5h4.9L120.6,51h-5L111,31.9c-1.1-4.7-1.9-8.3-2.4-12h-0.1 c-0.7,3.7-1.5,7.3-2.8,12L100.4,51H95.4z"/><path fill="#FFFFFF" d="M154.9,37.6c0,9.8-6.8,14-13.2,14c-7.2,0-12.7-5.2-12.7-13.6c0-8.8,5.8-14,13.1-14 C149.8,24,154.9,29.5,154.9,37.6z M133.9,37.9c0,5.8,3.3,10.1,8,10.1c4.6,0,8-4.3,8-10.3c0-4.5-2.2-10.1-7.9-10.1 C136.3,27.6,133.9,32.8,133.9,37.9z"/><path fill="#FFFFFF" d="M158.2,32.8c0-3.1-0.1-5.8-0.2-8.2h4.2l0.2,5.2h0.2c1.2-3.5,4.1-5.8,7.3-5.8c0.5,0,0.9,0.1,1.4,0.2v4.5 c-0.5-0.1-1-0.2-1.6-0.2c-3.4,0-5.8,2.6-6.5,6.2c-0.1,0.7-0.2,1.4-0.2,2.2V51h-4.8V32.8z"/><path fill="#FFFFFF" d="M173.5,12.3h4.8V51h-4.8V12.3z"/><path fill="#FFFFFF" d="M206.5,12.3v31.9c0,2.3,0.1,5,0.2,6.8h-4.3l-0.2-4.6H202c-1.5,2.9-4.7,5.2-9,5.2 c-6.4,0-11.3-5.4-11.3-13.4c-0.1-8.8,5.4-14.2,11.9-14.2c4,0,6.8,1.9,8,4h0.1V12.3H206.5z M201.7,35.4c0-0.6-0.1-1.4-0.2-2 c-0.7-3.1-3.3-5.6-6.9-5.6c-5,0-7.9,4.4-7.9,10.2c0,5.3,2.6,9.8,7.8,9.8c3.2,0,6.2-2.1,7.1-5.7c0.2-0.7,0.2-1.3,0.2-2.1V35.4z"/><path fill="#FFFFFF" d="M42.8,64c0.1,1.6-1.1,2.9-3.1,2.9c-1.7,0-2.9-1.3-2.9-2.9c0-1.7,1.3-3,3-3C41.7,61,42.8,62.3,42.8,64z M37.4,97.8V71.4h4.8v26.4H37.4z"/><path fill="#FFFFFF" d="M47.5,78.6c0-2.7-0.1-5-0.2-7.1h4.3l0.3,4.4h0.1c1.3-2.5,4.4-5,8.8-5c3.7,0,9.4,2.2,9.4,11.2v15.8h-4.8 V82.6c0-4.3-1.6-7.8-6.1-7.8c-3.2,0-5.6,2.2-6.5,4.9c-0.2,0.6-0.3,1.4-0.3,2.2v15.9h-4.8V78.6z"/><path fill="#FFFFFF" d="M84,61.6c2.9-0.4,6.3-0.8,10.1-0.8c6.8,0,11.7,1.6,14.9,4.6c3.3,3,5.2,7.3,5.2,13.2c0,6-1.9,10.9-5.3,14.3 c-3.4,3.4-9.1,5.3-16.3,5.3c-3.4,0-6.2-0.2-8.6-0.4V61.6z M88.8,94.1c1.2,0.2,3,0.3,4.8,0.3c10.2,0,15.7-5.7,15.7-15.6 c0.1-8.7-4.9-14.2-14.9-14.2c-2.5,0-4.3,0.2-5.6,0.5V94.1z"/><path fill="#FFFFFF" d="M132.1,97.8l-0.4-3.3h-0.2c-1.5,2.1-4.3,3.9-8.1,3.9c-5.4,0-8.1-3.8-8.1-7.6c0-6.4,5.7-9.9,15.9-9.8v-0.5 c0-2.2-0.6-6.1-6-6.1c-2.5,0-5,0.8-6.9,2l-1.1-3.2c2.2-1.4,5.4-2.3,8.7-2.3c8.1,0,10.1,5.5,10.1,10.8v9.9c0,2.3,0.1,4.5,0.4,6.3 H132.1z M131.4,84.4c-5.3-0.1-11.2,0.8-11.2,5.9c0,3.1,2.1,4.6,4.5,4.6c3.4,0,5.6-2.2,6.4-4.4c0.2-0.5,0.3-1,0.3-1.5V84.4z"/><path fill="#FFFFFF" d="M146.6,63.9v7.6h6.9v3.7h-6.9v14.2c0,3.3,0.9,5.1,3.6,5.1c1.3,0,2.2-0.2,2.8-0.3l0.2,3.6 c-0.9,0.4-2.4,0.7-4.3,0.7c-2.2,0-4-0.7-5.2-2c-1.4-1.4-1.9-3.8-1.9-6.9V75.1h-4.1v-3.7h4.1v-6.3L146.6,63.9z"/><path fill="#FFFFFF" d="M171.4,97.8l-0.4-3.3h-0.2c-1.5,2.1-4.3,3.9-8.1,3.9c-5.4,0-8.1-3.8-8.1-7.6c0-6.4,5.7-9.9,15.9-9.8v-0.5 c0-2.2-0.6-6.1-6-6.1c-2.5,0-5,0.8-6.9,2l-1.1-3.2c2.2-1.4,5.4-2.3,8.7-2.3c8.1,0,10.1,5.5,10.1,10.8v9.9c0,2.3,0.1,4.5,0.4,6.3 H171.4z M170.7,84.4c-5.3-0.1-11.2,0.8-11.2,5.9c0,3.1,2.1,4.6,4.5,4.6c3.4,0,5.6-2.2,6.4-4.4c0.2-0.5,0.3-1,0.3-1.5V84.4z"/></g></g></a></g><a href="https://ourworldindata.org/grapher/world-population-1750-2015-and-un-projection-until-2100" target="_blank"><text font-size="22.50" x="15.0" y="33.0" fill="#555"><tspan x="15" y="33">World Population over the last 12,000 years and UN projection until 2100</tspan></text></a></g><g class="LineChart"><defs><clipPath id="boundsClip-1639"><rect x="74.152" y="0" width="830" height="933.8"></rect></clipPath></defs><g class="AxisBoxView"><g class="HorizontalAxis"><text x="84.2" y="541.9" fill="#666" text-anchor="middle" font-size="16.2">10000 BCE</text><text x="206.6" y="541.9" fill="#666" text-anchor="middle" font-size="16.2">8000 BCE</text><text x="329.1" y="541.9" fill="#666" text-anchor="middle" font-size="16.2">6000 BCE</text><text x="451.5" y="541.9" fill="#666" text-anchor="middle" font-size="16.2">4000 BCE</text><text x="574" y="541.9" fill="#666" text-anchor="middle" font-size="16.2">2000 BCE</text><text x="696.4" y="541.9" fill="#666" text-anchor="middle" font-size="16.2">0</text><text x="825" y="541.9" fill="#666" text-anchor="middle" font-size="16.2">2100</text></g><g class="VerticalAxis"><text x="79.15" y="520.7" fill="#666" dominant-baseline="middle" text-anchor="end" font-size="16.2">0</text><text x="79.15" y="441.2" fill="#666" dominant-baseline="middle" text-anchor="end" font-size="16.2">2 billion</text><text x="79.15" y="361.7" fill="#666" dominant-baseline="middle" text-anchor="end" font-size="16.2">4 billion</text><text x="79.15" y="282.2" fill="#666" dominant-baseline="middle" text-anchor="end" font-size="16.2">6 billion</text><text x="79.15" y="202.7" fill="#666" dominant-baseline="middle" text-anchor="end" font-size="16.2">8 billion</text><text x="79.15" y="123.2" fill="#666" dominant-baseline="middle" text-anchor="end" font-size="16.2">10 billion</text></g><g class="AxisGridLines"><line x1="84.15" y1="520.7" x2="825.00" y2="520.7" stroke="#ccc"></line><line x1="84.15" y1="441.2" x2="825.00" y2="441.2" stroke="#ddd" stroke-dasharray="3,2"></line><line x1="84.15" y1="361.7" x2="825.00" y2="361.7" stroke="#ddd" stroke-dasharray="3,2"></line><line x1="84.15" y1="282.2" x2="825.00" y2="282.2" stroke="#ddd" stroke-dasharray="3,2"></line><line x1="84.15" y1="202.7" x2="825.00" y2="202.7" stroke="#ddd" stroke-dasharray="3,2"></line><line x1="84.15" y1="123.2" x2="825.00" y2="123.2" stroke="#ddd" stroke-dasharray="3,2"></line></g><g class="AxisGridLines"><line x1="84.2" y1="520.70" x2="84.2" y2="75.00" stroke="#ddd" stroke-dasharray="3,2"></line><line x1="206.6" y1="520.70" x2="206.6" y2="75.00" stroke="#ddd" stroke-dasharray="3,2"></line><line x1="329.1" y1="520.70" x2="329.1" y2="75.00" stroke="#ddd" stroke-dasharray="3,2"></line><line x1="451.5" y1="520.70" x2="451.5" y2="75.00" stroke="#ddd" stroke-dasharray="3,2"></line><line x1="574" y1="520.70" x2="574" y2="75.00" stroke="#ddd" stroke-dasharray="3,2"></line><line x1="696.4" y1="520.70" x2="696.4" y2="75.00" stroke="#ccc"></line><line x1="818.9" y1="520.70" x2="818.9" y2="75.00" stroke="#ddd" stroke-dasharray="3,2"></line></g></g><g clip-path="url(#boundsClip-1639)"><g class="Lines"><rect x="84" y="75" width="741" height="446" fill="rgba(255,255,255,0)" opacity="0"></rect><g class="key-Our-World-In-Data_0"><path stroke="#3360a9" stroke-linecap="round" d="M84 521L145 521L207 521L268 520L329 520L390 520L452 520L513 519L574 518L635 516L697 513L703 513L709 513L715 513L721 512L727 512L733 512L739 512L745 511L752 510L758 509L764 507L770 505L776 505L782 505L788 502L794 499L801 497L804 488L807 481L810 471L813 455L813 455L813 454L813 454L813 454L813 453L813 453L813 452L813 452L813 452L813 451L813 451L814 450L814 450L814 450L814 449L814 449L814 448L814 448L814 447L814 447L814 446L814 446L814 445L814 444L814 443L814 442L814 441L815 440L815 439L815 438L815 437L815 436L815 435L815 434L815 433L815 432L815 432L815 431L815 430L815 429L815 429L815 428L815 428L815 427L816 427L816 426L816 425L816 424L816 422L816 420L816 419L816 417L816 415L816 413L816 411L816 409L816 407L816 405L816 403L816 401L817 399L817 396L817 394L817 391L817 389L817 386L817 383L817 380L817 377L817 374L817 371L817 368L817 365L817 362L817 359L817 356L818 353L818 350L818 347L818 344L818 341L818 338L818 335L818 331L818 328L818 324L818 321L818 317L818 313L818 310L818 306L818 303L818 299L819 296L819 293L819 290L819 286L819 283L819 280L819 277L819 274L819 271L819 268L819 265L819 262L819 258L819 255L819 252L819 249L820 245L820 242L820 239L820 235L820 232L820 229" fill="none" stroke-width="1.5"></path><g fill="#3360a9"><circle cx="84" cy="521" r="2"></circle><circle cx="145" cy="521" r="2"></circle><circle cx="207" cy="521" r="2"></circle><circle cx="268" cy="520" r="2"></circle><circle cx="329" cy="520" r="2"></circle><circle cx="390" cy="520" r="2"></circle><circle cx="452" cy="520" r="2"></circle><circle cx="513" cy="519" r="2"></circle><circle cx="574" cy="518" r="2"></circle><circle cx="635" cy="516" r="2"></circle><circle cx="697" cy="513" r="2"></circle><circle cx="703" cy="513" r="2"></circle><circle cx="709" cy="513" r="2"></circle><circle cx="715" cy="513" r="2"></circle><circle cx="721" cy="512" r="2"></circle><circle cx="727" cy="512" r="2"></circle><circle cx="733" cy="512" r="2"></circle><circle cx="739" cy="512" r="2"></circle><circle cx="745" cy="511" r="2"></circle><circle cx="752" cy="510" r="2"></circle><circle cx="758" cy="509" r="2"></circle><circle cx="764" cy="507" r="2"></circle><circle cx="770" cy="505" r="2"></circle><circle cx="776" cy="505" r="2"></circle><circle cx="782" cy="505" r="2"></circle><circle cx="788" cy="502" r="2"></circle><circle cx="794" cy="499" r="2"></circle><circle cx="801" cy="497" r="2"></circle><circle cx="804" cy="488" r="2"></circle><circle cx="807" cy="481" r="2"></circle><circle cx="810" cy="471" r="2"></circle><circle cx="813" cy="455" r="2"></circle><circle cx="813" cy="455" r="2"></circle><circle cx="813" cy="454" r="2"></circle><circle cx="813" cy="454" r="2"></circle><circle cx="813" cy="454" r="2"></circle><circle cx="813" cy="453" r="2"></circle><circle cx="813" cy="453" r="2"></circle><circle cx="813" cy="452" r="2"></circle><circle cx="813" cy="452" r="2"></circle><circle cx="813" cy="452" r="2"></circle><circle cx="813" cy="451" r="2"></circle><circle cx="813" cy="451" r="2"></circle><circle cx="814" cy="450" r="2"></circle><circle cx="814" cy="450" r="2"></circle><circle cx="814" cy="450" r="2"></circle><circle cx="814" cy="449" r="2"></circle><circle cx="814" cy="449" r="2"></circle><circle cx="814" cy="448" r="2"></circle><circle cx="814" cy="448" r="2"></circle><circle cx="814" cy="447" r="2"></circle><circle cx="814" cy="447" r="2"></circle><circle cx="814" cy="446" r="2"></circle><circle cx="814" cy="446" r="2"></circle><circle cx="814" cy="445" r="2"></circle><circle cx="814" cy="444" r="2"></circle><circle cx="814" cy="443" r="2"></circle><circle cx="814" cy="442" r="2"></circle><circle cx="814" cy="441" r="2"></circle><circle cx="815" cy="440" r="2"></circle><circle cx="815" cy="439" r="2"></circle><circle cx="815" cy="438" r="2"></circle><circle cx="815" cy="437" r="2"></circle><circle cx="815" cy="436" r="2"></circle><circle cx="815" cy="435" r="2"></circle><circle cx="815" cy="434" r="2"></circle><circle cx="815" cy="433" r="2"></circle><circle cx="815" cy="432" r="2"></circle><circle cx="815" cy="432" r="2"></circle><circle cx="815" cy="431" r="2"></circle><circle cx="815" cy="430" r="2"></circle><circle cx="815" cy="429" r="2"></circle><circle cx="815" cy="429" r="2"></circle><circle cx="815" cy="428" r="2"></circle><circle cx="815" cy="428" r="2"></circle><circle cx="815" cy="427" r="2"></circle><circle cx="816" cy="427" r="2"></circle><circle cx="816" cy="426" r="2"></circle><circle cx="816" cy="425" r="2"></circle><circle cx="816" cy="424" r="2"></circle><circle cx="816" cy="422" r="2"></circle><circle cx="816" cy="420" r="2"></circle><circle cx="816" cy="419" r="2"></circle><circle cx="816" cy="417" r="2"></circle><circle cx="816" cy="415" r="2"></circle><circle cx="816" cy="413" r="2"></circle><circle cx="816" cy="411" r="2"></circle><circle cx="816" cy="409" r="2"></circle><circle cx="816" cy="407" r="2"></circle><circle cx="816" cy="405" r="2"></circle><circle cx="816" cy="403" r="2"></circle><circle cx="816" cy="401" r="2"></circle><circle cx="817" cy="399" r="2"></circle><circle cx="817" cy="396" r="2"></circle><circle cx="817" cy="394" r="2"></circle><circle cx="817" cy="391" r="2"></circle><circle cx="817" cy="389" r="2"></circle><circle cx="817" cy="386" r="2"></circle><circle cx="817" cy="383" r="2"></circle><circle cx="817" cy="380" r="2"></circle><circle cx="817" cy="377" r="2"></circle><circle cx="817" cy="374" r="2"></circle><circle cx="817" cy="371" r="2"></circle><circle cx="817" cy="368" r="2"></circle><circle cx="817" cy="365" r="2"></circle><circle cx="817" cy="362" r="2"></circle><circle cx="817" cy="359" r="2"></circle><circle cx="817" cy="356" r="2"></circle><circle cx="818" cy="353" r="2"></circle><circle cx="818" cy="350" r="2"></circle><circle cx="818" cy="347" r="2"></circle><circle cx="818" cy="344" r="2"></circle><circle cx="818" cy="341" r="2"></circle><circle cx="818" cy="338" r="2"></circle><circle cx="818" cy="335" r="2"></circle><circle cx="818" cy="331" r="2"></circle><circle cx="818" cy="328" r="2"></circle><circle cx="818" cy="324" r="2"></circle><circle cx="818" cy="321" r="2"></circle><circle cx="818" cy="317" r="2"></circle><circle cx="818" cy="313" r="2"></circle><circle cx="818" cy="310" r="2"></circle><circle cx="818" cy="306" r="2"></circle><circle cx="818" cy="303" r="2"></circle><circle cx="818" cy="299" r="2"></circle><circle cx="819" cy="296" r="2"></circle><circle cx="819" cy="293" r="2"></circle><circle cx="819" cy="290" r="2"></circle><circle cx="819" cy="286" r="2"></circle><circle cx="819" cy="283" r="2"></circle><circle cx="819" cy="280" r="2"></circle><circle cx="819" cy="277" r="2"></circle><circle cx="819" cy="274" r="2"></circle><circle cx="819" cy="271" r="2"></circle><circle cx="819" cy="268" r="2"></circle><circle cx="819" cy="265" r="2"></circle><circle cx="819" cy="262" r="2"></circle><circle cx="819" cy="258" r="2"></circle><circle cx="819" cy="255" r="2"></circle><circle cx="819" cy="252" r="2"></circle><circle cx="819" cy="249" r="2"></circle><circle cx="820" cy="245" r="2"></circle><circle cx="820" cy="242" r="2"></circle><circle cx="820" cy="239" r="2"></circle><circle cx="820" cy="235" r="2"></circle><circle cx="820" cy="232" r="2"></circle><circle cx="820" cy="229" r="2"></circle></g></g><g class="key-World_1"><path stroke="#ca2628" stroke-linecap="round" d="M820 229L820 225L820 222L820 219L820 216L820 212L820 209L820 206L820 203L820 200L820 197L821 194L821 191L821 188L821 186L821 183L821 180L821 177L821 175L821 172L821 169L821 167L821 164L821 162L821 159L821 157L821 154L821 152L822 150L822 147L822 145L822 143L822 141L822 138L822 136L822 134L822 132L822 130L822 128L822 126L822 125L822 123L822 121L822 119L823 118L823 116L823 114L823 113L823 111L823 110L823 108L823 107L823 106L823 104L823 103L823 101L823 100L823 99L823 98L823 97L824 95L824 94L824 93L824 92L824 91L824 90L824 89L824 88L824 87L824 86L824 85L824 85L824 84L824 83L824 82L824 81L824 81L825 80L825 79L825 79L825 78L825 77L825 77L825 76L825 76L825 75" fill="none" stroke-width="1.5" stroke-dasharray="1,4"></path></g></g></g></g><g style="fill: #777;" class="SourcesFooter"><g style="fill: #777;" class="clickable"><text font-size="12.60" x="15.0" y="567.0"><tspan x="15" y="566.98">Source: World Population over 12000 years - various sources (2016), Medium Projection – UN Population Division (2015 revision)</tspan></text></g><text font-size="12.60" x="15.0" y="582.5"><tspan x="15" y="582.48"><a target='_blank' style='fill: #777;' href='https://ourworldindata.org/world-population-growth/'>OurWorldInData.org/world-population-growth/</a> • <a style="fill: #777;" href="http://creativecommons.org/licenses/by-sa/4.0/deed.en_US" target="_blank">CC BY-SA</a></tspan></text></g></g></svg>