<svg xmlns="http://www.w3.org/2000/svg" version="1.1" style="font-family: 'Helvetica Neue', Helvetica, Arial, sans-serif; font-size: 18px; background-color: white; text-rendering: optimizeLegibility; -webkit-font-smoothing: antialiased;" width="850" height="600"><g class="ChartTab"><g class="HeaderView"><g opacity="0.8" transform="translate(778, 15) scale(0.27)"><a xmlns:xlink="http://www.w3.org/1999/xlink" xlink:href="https://ourworldindata.org" target="_blank"><g><rect x="0" y="0" fill="#1B2543" width="211.2" height="130.1"/><rect x="0" y="112.2" fill="#E63912" width="211.2" height="17.9"/><g><rect x="1.2" y="12.3" fill="none" width="210.2" height="99.2"/><path fill="#FFFFFF" d="M37.8,32.2c0,12.7-7.7,19.4-17.1,19.4c-9.7,0-16.6-7.5-16.6-18.7c0-11.7,7.3-19.3,17.1-19.3 C31.3,13.7,37.8,21.3,37.8,32.2z M9.2,32.8c0,7.9,4.3,14.9,11.8,14.9c7.5,0,11.8-6.9,11.8-15.3c0-7.3-3.8-14.9-11.8-14.9 C13.1,17.5,9.2,24.8,9.2,32.8z"/><path fill="#FFFFFF" d="M62.7,43.8c0,2.7,0.1,5.1,0.2,7.2h-4.3l-0.3-4.3h-0.1c-1.3,2.1-4,4.9-8.8,4.9c-4.2,0-9.1-2.3-9.1-11.6 V24.6h4.8v14.6c0,5,1.5,8.4,5.9,8.4c3.2,0,5.5-2.2,6.3-4.4c0.3-0.7,0.4-1.6,0.4-2.5V24.6h4.8V43.8z"/><path fill="#FFFFFF" d="M67.3,32.8c0-3.1-0.1-5.8-0.2-8.2h4.2l0.2,5.2h0.2c1.2-3.5,4.1-5.8,7.3-5.8c0.5,0,0.9,0.1,1.4,0.2v4.5 c-0.5-0.1-1-0.2-1.6-0.2c-3.4,0-5.8,2.6-6.5,6.2c-0.1,0.7-0.2,1.4-0.2,2.2V51h-4.8V32.8z"/><path fill="#FFFFFF" d="M95.4,51l-9.4-36.8h5l4.4,18.6c1.1,4.6,2.1,9.2,2.7,12.7h0.1c0.6-3.7,1.8-8,3-12.8l4.9-18.5h5l4.5,18.7 c1,4.4,2,8.7,2.6,12.6h0.1c0.8-4,1.8-8.1,3-12.7l4.9-18.5h4.9L120.6,51h-5L111,31.9c-1.1-4.7-1.9-8.3-2.4-12h-0.1 c-0.7,3.7-1.5,7.3-2.8,12L100.4,51H95.4z"/><path fill="#FFFFFF" d="M154.9,37.6c0,9.8-6.8,14-13.2,14c-7.2,0-12.7-5.2-12.7-13.6c0-8.8,5.8-14,13.1-14 C149.8,24,154.9,29.5,154.9,37.6z M133.9,37.9c0,5.8,3.3,10.1,8,10.1c4.6,0,8-4.3,8-10.3c0-4.5-2.2-10.1-7.9-10.1 C136.3,27.6,133.9,32.8,133.9,37.9z"/><path fill="#FFFFFF" d="M158.2,32.8c0-3.1-0.1-5.8-0.2-8.2h4.2l0.2,5.2h0.2c1.2-3.5,4.1-5.8,7.3-5.8c0.5,0,0.9,0.1,1.4,0.2v4.5 c-0.5-0.1-1-0.2-1.6-0.2c-3.4,0-5.8,2.6-6.5,6.2c-0.1,0.7-0.2,1.4-0.2,2.2V51h-4.8V32.8z"/><path fill="#FFFFFF" d="M173.5,12.3h4.8V51h-4.8V12.3z"/><path fill="#FFFFFF" d="M206.5,12.3v31.9c0,2.3,0.1,5,0.2,6.8h-4.3l-0.2-4.6H202c-1.5,2.9-4.7,5.2-9,5.2 c-6.4,0-11.3-5.4-11.3-13.4c-0.1-8.8,5.4-14.2,11.9-14.2c4,0,6.8,1.9,8,4h0.1V12.3H206.5z M201.7,35.4c0-0.6-0.1-1.4-0.2-2 c-0.7-3.1-3.3-5.6-6.9-5.6c-5,0-7.9,4.4-7.9,10.2c0,5.3,2.6,9.8,7.8,9.8c3.2,0,6.2-2.1,7.1-5.7c0.2-0.7,0.2-1.3,0.2-2.1V35.4z"/><path fill="#FFFFFF" d="M42.8,64c0.1,1.6-1.1,2.9-3.1,2.9c-1.7,0-2.9-1.3-2.9-2.9c0-1.7,1.3-3,3-3C41.7,61,42.8,62.3,42.8,64z M37.4,97.8V71.4h4.8v26.4H37.4z"/><path fill="#FFFFFF" d="M47.5,78.6c0-2.7-0.1-5-0.2-7.1h4.3l0.3,4.4h0.1c1.3-2.5,4.4-5,8.8-5c3.7,0,9.4,2.2,9.4,11.2v15.8h-4.8 V82.6c0-4.3-1.6-7.8-6.1-7.8c-3.2,0-5.6,2.2-6.5,4.9c-0.2,0.6-0.3,1.4-0.3,2.2v15.9h-4.8V78.6z"/><path fill="#FFFFFF" d="M84,61.6c2.9-0.4,6.3-0.8,10.1-0.8c6.8,0,11.7,1.6,14.9,4.6c3.3,3,5.2,7.3,5.2,13.2c0,6-1.9,10.9-5.3,14.3 c-3.4,3.4-9.1,5.3-16.3,5.3c-3.4,0-6.2-0.2-8.6-0.4V61.6z M88.8,94.1c1.2,0.2,3,0.3,4.8,0.3c10.2,0,15.7-5.7,15.7-15.6 c0.1-8.7-4.9-14.2-14.9-14.2c-2.5,0-4.3,0.2-5.6,0.5V94.1z"/><path fill="#FFFFFF" d="M132.1,97.8l-0.4-3.3h-0.2c-1.5,2.1-4.3,3.9-8.1,3.9c-5.4,0-8.1-3.8-8.1-7.6c0-6.4,5.7-9.9,15.9-9.8v-0.5 c0-2.2-0.6-6.1-6-6.1c-2.5,0-5,0.8-6.9,2l-1.1-3.2c2.2-1.4,5.4-2.3,8.7-2.3c8.1,0,10.1,5.5,10.1,10.8v9.9c0,2.3,0.1,4.5,0.4,6.3 H132.1z M131.4,84.4c-5.3-0.1-11.2,0.8-11.2,5.9c0,3.1,2.1,4.6,4.5,4.6c3.4,0,5.6-2.2,6.4-4.4c0.2-0.5,0.3-1,0.3-1.5V84.4z"/><path fill="#FFFFFF" d="M146.6,63.9v7.6h6.9v3.7h-6.9v14.2c0,3.3,0.9,5.1,3.6,5.1c1.3,0,2.2-0.2,2.8-0.3l0.2,3.6 c-0.9,0.4-2.4,0.7-4.3,0.7c-2.2,0-4-0.7-5.2-2c-1.4-1.4-1.9-3.8-1.9-6.9V75.1h-4.1v-3.7h4.1v-6.3L146.6,63.9z"/><path fill="#FFFFFF" d="M171.4,97.8l-0.4-3.3h-0.2c-1.5,2.1-4.3,3.9-8.1,3.9c-5.4,0-8.1-3.8-8.1-7.6c0-6.4,5.7-9.9,15.9-9.8v-0.5 c0-2.2-0.6-6.1-6-6.1c-2.5,0-5,0.8-6.9,2l-1.1-3.2c2.2-1.4,5.4-2.3,8.7-2.3c8.1,0,10.1,5.5,10.1,10.8v9.9c0,2.3,0.1,4.5,0.4,6.3 H171.4z M170.7,84.4c-5.3-0.1-11.2,0.8-11.2,5.9c0,3.1,2.1,4.6,4.5,4.6c3.4,0,5.6-2.2,6.4-4.4c0.2-0.5,0.3-1,0.3-1.5V84.4z"/></g></g></a></g><a href="https://ourworldindata.org/grapher/younger-than-15-projection-until-2100-un" target="_blank"><text font-size="21.60" x="15.0" y="32.3" fill="#555"><tspan x="15" y="32.279999999999994">The UN projections of the future population younger than 15 years, by world</tspan><tspan x="15" y="53.87999999999999">region</tspan></text></a></g><g class="StackedArea"><defs><clipPath id="boundsClip-1"><rect x="106.67" y="0" width="820" height="952.8"></rect></clipPath></defs><g class="AxisBoxView"><g class="HorizontalAxis"><text x="106.7" y="556.5" fill="#666" text-anchor="middle" font-size="16.2">2015</text><text x="278.5" y="556.5" fill="#666" text-anchor="middle" font-size="16.2">2040</text><text x="415.9" y="556.5" fill="#666" text-anchor="middle" font-size="16.2">2060</text><text x="553.3" y="556.5" fill="#666" text-anchor="middle" font-size="16.2">2080</text><text x="690.8" y="556.5" fill="#666" text-anchor="middle" font-size="16.2">2100</text></g><g class="VerticalAxis"><text x="101.67" y="535.3" fill="#666" dominant-baseline="middle" text-anchor="end" font-size="16.2">0  </text><text x="101.67" y="426.6" fill="#666" dominant-baseline="middle" text-anchor="end" font-size="16.2">500 million  </text><text x="101.67" y="317.9" fill="#666" dominant-baseline="middle" text-anchor="end" font-size="16.2">1 billion  </text><text x="101.67" y="209.2" fill="#666" dominant-baseline="middle" text-anchor="end" font-size="16.2">1.5 billion  </text><text x="101.67" y="100.4" fill="#666" dominant-baseline="middle" text-anchor="end" font-size="16.2">2 billion  </text></g><g class="AxisGridLines"><line x1="106.67" y1="535.3" x2="690.78" y2="535.3" stroke="#ccc"></line><line x1="106.67" y1="426.6" x2="690.78" y2="426.6" stroke="#ddd" stroke-dasharray="3,2"></line><line x1="106.67" y1="317.9" x2="690.78" y2="317.9" stroke="#ddd" stroke-dasharray="3,2"></line><line x1="106.67" y1="209.2" x2="690.78" y2="209.2" stroke="#ddd" stroke-dasharray="3,2"></line><line x1="106.67" y1="100.4" x2="690.78" y2="100.4" stroke="#ddd" stroke-dasharray="3,2"></line></g></g><g clip-path="url(#boundsClip-1)"><g class="HeightedLegend clickable"><g class="legendMark"><g class="indicator"><line x1="695.785" y1="524.4" x2="718.285" y2="524.4" stroke="#666" stroke-width="0.5"></line><line x1="718.285" y1="524.4" x2="718.285" y2="521.2499999999999" stroke="#666" stroke-width="0.5"></line><line x1="718.285" y1="521.2499999999999" x2="720.785" y2="521.2499999999999" stroke="#666" stroke-width="0.5"></line></g><rect x="690.785" y="507.19999999999993" width="144.215" height="28.1" fill="#fff" opacity="0"></rect><text font-size="13.50" x="725.8" y="518.0" fill="#9ecc8a"><tspan x="725.785" y="517.9999999999999">Latin America and</tspan><tspan x="725.785" y="532.8499999999999">the Caribbean</tspan></text></g><g class="legendMark"><g class="indicator"><line x1="695.785" y1="512.3" x2="713.285" y2="512.3" stroke="#666" stroke-width="0.5"></line><line x1="713.285" y1="512.3" x2="713.285" y2="498.44999999999993" stroke="#666" stroke-width="0.5"></line><line x1="713.285" y1="498.44999999999993" x2="720.785" y2="498.44999999999993" stroke="#666" stroke-width="0.5"></line></g><rect x="690.785" y="491.69999999999993" width="85.49000000000001" height="13.5" fill="#fff" opacity="0"></rect><text font-size="13.50" x="725.8" y="502.5" fill="#a652ba"><tspan x="725.785" y="502.49999999999994">Oceania</tspan></text></g><g class="legendMark"><g class="indicator"><line x1="695.785" y1="500.5" x2="708.285" y2="500.5" stroke="#666" stroke-width="0.5"></line><line x1="708.285" y1="500.5" x2="708.285" y2="482.94999999999993" stroke="#666" stroke-width="0.5"></line><line x1="708.285" y1="482.94999999999993" x2="720.785" y2="482.94999999999993" stroke="#666" stroke-width="0.5"></line></g><rect x="690.785" y="476.19999999999993" width="78.74000000000001" height="13.5" fill="#fff" opacity="0"></rect><text font-size="13.50" x="725.8" y="487.0" fill="#ffd53e"><tspan x="725.785" y="486.99999999999994">Europe</tspan></text></g><g class="legendMark"><g class="indicator"><line x1="695.785" y1="481.4" x2="703.285" y2="481.4" stroke="#666" stroke-width="0.5"></line><line x1="703.285" y1="481.4" x2="703.285" y2="467.44999999999993" stroke="#666" stroke-width="0.5"></line><line x1="703.285" y1="467.44999999999993" x2="720.785" y2="467.44999999999993" stroke="#666" stroke-width="0.5"></line></g><rect x="690.785" y="460.69999999999993" width="140.97500000000002" height="13.5" fill="#fff" opacity="0"></rect><text font-size="13.50" x="725.8" y="471.5" fill="#34983f"><tspan x="725.785" y="471.49999999999994">Northern America</tspan></text></g><g class="legendMark"><g class="indicator"><line x1="695.785" y1="394" x2="708.285" y2="394" stroke="#666" stroke-width="0.5"></line><line x1="708.285" y1="394" x2="708.285" y2="394" stroke="#666" stroke-width="0.5"></line><line x1="708.285" y1="394" x2="720.785" y2="394" stroke="#666" stroke-width="0.5"></line></g><rect x="690.785" y="387.25" width="61.325" height="13.5" fill="#fff" opacity="0"></rect><text font-size="13.50" x="725.8" y="398.1" fill="#932834"><tspan x="725.785" y="398.05">Asia</tspan></text></g><g class="legendMark"><g class="indicator"><line x1="695.785" y1="210.7" x2="708.285" y2="210.7" stroke="#666" stroke-width="0.5"></line><line x1="708.285" y1="210.7" x2="708.285" y2="210.7" stroke="#666" stroke-width="0.5"></line><line x1="708.285" y1="210.7" x2="720.785" y2="210.7" stroke="#666" stroke-width="0.5"></line></g><rect x="690.785" y="203.95" width="69.56" height="13.5" fill="#fff" opacity="0"></rect><text font-size="13.50" x="725.8" y="214.8" fill="#3360a9"><tspan x="725.785" y="214.75">Africa</tspan></text></g></g><g class="Areas"><rect x="106.67" y="80.1" width="584.115" height="455.19999999999993" opacity="0" fill="rgba(255,255,255,0)"></rect><path stroke-linecap="round" d="M106.7 500.1L113.5 500.2L120.4 500.4L127.3 500.5L134.2 500.7L141 500.8L147.9 500.9L154.8 501L161.6 501.1L168.5 501.3L175.4 501.4L182.3 501.6L189.1 501.8L196 502L202.9 502.2L209.7 502.4L216.6 502.6L223.5 502.8L230.4 503L237.2 503.2L244.1 503.5L251 503.7L257.9 503.9L264.7 504.1L271.6 504.3L278.5 504.6L285.3 504.7L292.2 504.9L299.1 505.1L306 505.3L312.8 505.5L319.7 505.7L326.6 505.9L333.4 506.1L340.3 506.2L347.2 506.4L354.1 506.6L360.9 506.8L367.8 506.9L374.7 507.1L381.5 507.3L388.4 507.4L395.3 507.6L402.2 507.8L409 507.9L415.9 508.1L422.8 508.3L429.7 508.4L436.5 508.6L443.4 508.8L450.3 509L457.1 509.1L464 509.3L470.9 509.4L477.8 509.6L484.6 509.8L491.5 509.9L498.4 510L505.2 510.2L512.1 510.3L519 510.5L525.9 510.6L532.7 510.7L539.6 510.9L546.5 511L553.3 511.2L560.2 511.3L567.1 511.4L574 511.5L580.8 511.6L587.7 511.8L594.6 511.9L601.4 512L608.3 512.1L615.2 512.3L622.1 512.4L628.9 512.5L635.8 512.6L642.7 512.7L649.6 512.8L656.4 513L663.3 513.1L670.2 513.2L677 513.3L683.9 513.4L690.8 513.5L690.785 535.3L106.67 535.3" fill="#9ecc8a" fill-opacity="0.7" class="Latin-America-and-the-Caribbean_0-area"></path><path stroke-linecap="round" d="M106.7 498.1L113.5 498.2L120.4 498.3L127.3 498.4L134.2 498.5L141 498.6L147.9 498.7L154.8 498.8L161.6 498.9L168.5 499L175.4 499.2L182.3 499.3L189.1 499.5L196 499.7L202.9 499.9L209.7 500.1L216.6 500.3L223.5 500.5L230.4 500.7L237.2 500.9L244.1 501.1L251 501.3L257.9 501.6L264.7 501.8L271.6 502L278.5 502.2L285.3 502.4L292.2 502.5L299.1 502.7L306 502.9L312.8 503.1L319.7 503.3L326.6 503.4L333.4 503.6L340.3 503.8L347.2 503.9L354.1 504.1L360.9 504.2L367.8 504.4L374.7 504.6L381.5 504.7L388.4 504.9L395.3 505L402.2 505.2L409 505.4L415.9 505.6L422.8 505.7L429.7 505.9L436.5 506L443.4 506.2L450.3 506.4L457.1 506.5L464 506.7L470.9 506.8L477.8 507L484.6 507.2L491.5 507.3L498.4 507.4L505.2 507.6L512.1 507.7L519 507.9L525.9 508L532.7 508.1L539.6 508.3L546.5 508.4L553.3 508.5L560.2 508.7L567.1 508.8L574 508.9L580.8 509L587.7 509.2L594.6 509.3L601.4 509.4L608.3 509.5L615.2 509.6L622.1 509.8L628.9 509.9L635.8 510L642.7 510.1L649.6 510.2L656.4 510.4L663.3 510.5L670.2 510.6L677 510.7L683.9 510.8L690.8 511L690.8 513.5L683.9 513.4L677 513.3L670.2 513.2L663.3 513.1L656.4 513L649.6 512.8L642.7 512.7L635.8 512.6L628.9 512.5L622.1 512.4L615.2 512.3L608.3 512.1L601.4 512L594.6 511.9L587.7 511.8L580.8 511.6L574 511.5L567.1 511.4L560.2 511.3L553.3 511.2L546.5 511L539.6 510.9L532.7 510.7L525.9 510.6L519 510.5L512.1 510.3L505.2 510.2L498.4 510L491.5 509.9L484.6 509.8L477.8 509.6L470.9 509.4L464 509.3L457.1 509.1L450.3 509L443.4 508.8L436.5 508.6L429.7 508.4L422.8 508.3L415.9 508.1L409 507.9L402.2 507.8L395.3 507.6L388.4 507.4L381.5 507.3L374.7 507.1L367.8 506.9L360.9 506.8L354.1 506.6L347.2 506.4L340.3 506.2L333.4 506.1L326.6 505.9L319.7 505.7L312.8 505.5L306 505.3L299.1 505.1L292.2 504.9L285.3 504.7L278.5 504.6L271.6 504.3L264.7 504.1L257.9 503.9L251 503.7L244.1 503.5L237.2 503.2L230.4 503L223.5 502.8L216.6 502.6L209.7 502.4L202.9 502.2L196 502L189.1 501.8L182.3 501.6L175.4 501.4L168.5 501.3L161.6 501.1L154.8 501L147.9 500.9L141 500.8L134.2 500.7L127.3 500.5L120.4 500.4L113.5 500.2L106.7 500.1" fill="#a652ba" fill-opacity="0.7" class="Oceania_0-area"></path><path stroke-linecap="round" d="M106.7 472.7L113.5 472.7L120.4 472.7L127.3 472.7L134.2 472.7L141 472.8L147.9 472.9L154.8 473.1L161.6 473.3L168.5 473.5L175.4 473.8L182.3 474.1L189.1 474.5L196 474.9L202.9 475.3L209.7 475.7L216.6 476.1L223.5 476.5L230.4 476.9L237.2 477.3L244.1 477.7L251 478L257.9 478.3L264.7 478.6L271.6 478.9L278.5 479.2L285.3 479.4L292.2 479.6L299.1 479.7L306 479.9L312.8 480L319.7 480.1L326.6 480.2L333.4 480.4L340.3 480.5L347.2 480.6L354.1 480.7L360.9 480.9L367.8 481L374.7 481.2L381.5 481.4L388.4 481.6L395.3 481.8L402.2 482.1L409 482.3L415.9 482.6L422.8 482.8L429.7 483.1L436.5 483.4L443.4 483.6L450.3 483.9L457.1 484.2L464 484.4L470.9 484.6L477.8 484.8L484.6 485.1L491.5 485.3L498.4 485.4L505.2 485.6L512.1 485.8L519 485.9L525.9 486.1L532.7 486.2L539.6 486.3L546.5 486.5L553.3 486.6L560.2 486.7L567.1 486.8L574 487L580.8 487.1L587.7 487.3L594.6 487.4L601.4 487.6L608.3 487.7L615.2 487.9L622.1 488.1L628.9 488.3L635.8 488.4L642.7 488.6L649.6 488.8L656.4 489.1L663.3 489.2L670.2 489.4L677 489.6L683.9 489.8L690.8 490L690.8 511L683.9 510.8L677 510.7L670.2 510.6L663.3 510.5L656.4 510.4L649.6 510.2L642.7 510.1L635.8 510L628.9 509.9L622.1 509.8L615.2 509.6L608.3 509.5L601.4 509.4L594.6 509.3L587.7 509.2L580.8 509L574 508.9L567.1 508.8L560.2 508.7L553.3 508.5L546.5 508.4L539.6 508.3L532.7 508.1L525.9 508L519 507.9L512.1 507.7L505.2 507.6L498.4 507.4L491.5 507.3L484.6 507.2L477.8 507L470.9 506.8L464 506.7L457.1 506.5L450.3 506.4L443.4 506.2L436.5 506L429.7 505.9L422.8 505.7L415.9 505.6L409 505.4L402.2 505.2L395.3 505L388.4 504.9L381.5 504.7L374.7 504.6L367.8 504.4L360.9 504.2L354.1 504.1L347.2 503.9L340.3 503.8L333.4 503.6L326.6 503.4L319.7 503.3L312.8 503.1L306 502.9L299.1 502.7L292.2 502.5L285.3 502.4L278.5 502.2L271.6 502L264.7 501.8L257.9 501.6L251 501.3L244.1 501.1L237.2 500.9L230.4 500.7L223.5 500.5L216.6 500.3L209.7 500.1L202.9 499.9L196 499.7L189.1 499.5L182.3 499.3L175.4 499.2L168.5 499L161.6 498.9L154.8 498.8L147.9 498.7L141 498.6L134.2 498.5L127.3 498.4L120.4 498.3L113.5 498.2L106.7 498.1" fill="#ffd53e" fill-opacity="0.7" class="Europe_0-area"></path><path stroke-linecap="round" d="M106.7 458.1L113.5 458.1L120.4 458L127.3 458L134.2 458L141 458.1L147.9 458.1L154.8 458.2L161.6 458.4L168.5 458.6L175.4 458.9L182.3 459.1L189.1 459.3L196 459.6L202.9 460L209.7 460.3L216.6 460.6L223.5 460.9L230.4 461.3L237.2 461.6L244.1 462L251 462.3L257.9 462.5L264.7 462.8L271.6 463.1L278.5 463.4L285.3 463.5L292.2 463.7L299.1 463.8L306 464L312.8 464.1L319.7 464.2L326.6 464.3L333.4 464.4L340.3 464.5L347.2 464.6L354.1 464.6L360.9 464.7L367.8 464.8L374.7 465L381.5 465.1L388.4 465.3L395.3 465.4L402.2 465.6L409 465.8L415.9 466L422.8 466.2L429.7 466.4L436.5 466.6L443.4 466.9L450.3 467.1L457.1 467.3L464 467.5L470.9 467.7L477.8 467.9L484.6 468.2L491.5 468.3L498.4 468.5L505.2 468.6L512.1 468.8L519 469L525.9 469.1L532.7 469.2L539.6 469.3L546.5 469.4L553.3 469.6L560.2 469.7L567.1 469.8L574 469.9L580.8 470L587.7 470.2L594.6 470.3L601.4 470.4L608.3 470.6L615.2 470.7L622.1 470.9L628.9 471.1L635.8 471.2L642.7 471.4L649.6 471.6L656.4 471.8L663.3 472L670.2 472.1L677 472.3L683.9 472.5L690.8 472.7L690.8 490L683.9 489.8L677 489.6L670.2 489.4L663.3 489.2L656.4 489.1L649.6 488.8L642.7 488.6L635.8 488.4L628.9 488.3L622.1 488.1L615.2 487.9L608.3 487.7L601.4 487.6L594.6 487.4L587.7 487.3L580.8 487.1L574 487L567.1 486.8L560.2 486.7L553.3 486.6L546.5 486.5L539.6 486.3L532.7 486.2L525.9 486.1L519 485.9L512.1 485.8L505.2 485.6L498.4 485.4L491.5 485.3L484.6 485.1L477.8 484.8L470.9 484.6L464 484.4L457.1 484.2L450.3 483.9L443.4 483.6L436.5 483.4L429.7 483.1L422.8 482.8L415.9 482.6L409 482.3L402.2 482.1L395.3 481.8L388.4 481.6L381.5 481.4L374.7 481.2L367.8 481L360.9 480.9L354.1 480.7L347.2 480.6L340.3 480.5L333.4 480.4L326.6 480.2L319.7 480.1L312.8 480L306 479.9L299.1 479.7L292.2 479.6L285.3 479.4L278.5 479.2L271.6 478.9L264.7 478.6L257.9 478.3L251 478L244.1 477.7L237.2 477.3L230.4 476.9L223.5 476.5L216.6 476.1L209.7 475.7L202.9 475.3L196 474.9L189.1 474.5L182.3 474.1L175.4 473.8L168.5 473.5L161.6 473.3L154.8 473.1L147.9 472.9L141 472.8L134.2 472.7L127.3 472.7L120.4 472.7L113.5 472.7L106.7 472.7" fill="#34983f" fill-opacity="0.7" class="Northern-America_0-area"></path><path stroke-linecap="round" d="M106.7 222.1L113.5 221.7L120.4 221.3L127.3 221.1L134.2 221.1L141 221.4L147.9 221.7L154.8 222.3L161.6 223.2L168.5 224.3L175.4 225.6L182.3 226.9L189.1 228.3L196 229.8L202.9 231.5L209.7 233.3L216.6 234.9L223.5 236.6L230.4 238.4L237.2 240.2L244.1 241.9L251 243.4L257.9 244.8L264.7 246.3L271.6 247.7L278.5 249L285.3 250.1L292.2 251.2L299.1 252.2L306 253.3L312.8 254.4L319.7 255.2L326.6 256L333.4 256.9L340.3 257.9L347.2 258.9L354.1 259.8L360.9 260.8L367.8 261.8L374.7 263L381.5 264.3L388.4 265.4L395.3 266.7L402.2 268L409 269.4L415.9 270.9L422.8 272.3L429.7 273.7L436.5 275.1L443.4 276.6L450.3 278.1L457.1 279.4L464 280.7L470.9 282L477.8 283.3L484.6 284.7L491.5 285.7L498.4 286.8L505.2 287.9L512.1 289L519 290.1L525.9 291L532.7 291.9L539.6 292.8L546.5 293.8L553.3 294.8L560.2 295.7L567.1 296.6L574 297.5L580.8 298.5L587.7 299.6L594.6 300.5L601.4 301.5L608.3 302.5L615.2 303.6L622.1 304.7L628.9 305.7L635.8 306.7L642.7 307.8L649.6 308.9L656.4 310.1L663.3 311.1L670.2 312.1L677 313.1L683.9 314.2L690.8 315.3L690.8 472.7L683.9 472.5L677 472.3L670.2 472.1L663.3 472L656.4 471.8L649.6 471.6L642.7 471.4L635.8 471.2L628.9 471.1L622.1 470.9L615.2 470.7L608.3 470.6L601.4 470.4L594.6 470.3L587.7 470.2L580.8 470L574 469.9L567.1 469.8L560.2 469.7L553.3 469.6L546.5 469.4L539.6 469.3L532.7 469.2L525.9 469.1L519 469L512.1 468.8L505.2 468.6L498.4 468.5L491.5 468.3L484.6 468.2L477.8 467.9L470.9 467.7L464 467.5L457.1 467.3L450.3 467.1L443.4 466.9L436.5 466.6L429.7 466.4L422.8 466.2L415.9 466L409 465.8L402.2 465.6L395.3 465.4L388.4 465.3L381.5 465.1L374.7 465L367.8 464.8L360.9 464.7L354.1 464.6L347.2 464.6L340.3 464.5L333.4 464.4L326.6 464.3L319.7 464.2L312.8 464.1L306 464L299.1 463.8L292.2 463.7L285.3 463.5L278.5 463.4L271.6 463.1L264.7 462.8L257.9 462.5L251 462.3L244.1 462L237.2 461.6L230.4 461.3L223.5 460.9L216.6 460.6L209.7 460.3L202.9 460L196 459.6L189.1 459.3L182.3 459.1L175.4 458.9L168.5 458.6L161.6 458.4L154.8 458.2L147.9 458.1L141 458.1L134.2 458L127.3 458L120.4 458L113.5 458.1L106.7 458.1" fill="#932834" fill-opacity="0.7" class="Asia_0-area"></path><path stroke-linecap="round" d="M106.7 115.5L113.5 112.6L120.4 109.8L127.3 107.3L134.2 105.1L141 103.1L147.9 101.3L154.8 99.7L161.6 98.4L168.5 97.4L175.4 96.7L182.3 95.9L189.1 95.4L196 95.1L202.9 95L209.7 95L216.6 94.6L223.5 94.3L230.4 94L237.2 93.9L244.1 93.7L251 93.1L257.9 92.5L264.7 91.9L271.6 91.3L278.5 90.8L285.3 89.8L292.2 88.8L299.1 88L306 87.2L312.8 86.4L319.7 85.4L326.6 84.4L333.4 83.6L340.3 82.9L347.2 82.4L354.1 81.7L360.9 81.1L367.8 80.7L374.7 80.5L381.5 80.4L388.4 80.2L395.3 80.1L402.2 80.2L409 80.4L415.9 80.8L422.8 81L429.7 81.2L436.5 81.5L443.4 82L450.3 82.5L457.1 82.7L464 83L470.9 83.4L477.8 83.8L484.6 84.3L491.5 84.5L498.4 84.7L505.2 85L512.1 85.4L519 85.9L525.9 86L532.7 86.3L539.6 86.6L546.5 87.1L553.3 87.7L560.2 88.1L567.1 88.5L574 89.1L580.8 89.8L587.7 90.6L594.6 91.2L601.4 91.9L608.3 92.8L615.2 93.8L622.1 94.9L628.9 95.7L635.8 96.7L642.7 97.7L649.6 98.9L656.4 100.2L663.3 101.1L670.2 102.2L677 103.4L683.9 104.6L690.8 106L690.8 315.3L683.9 314.2L677 313.1L670.2 312.1L663.3 311.1L656.4 310.1L649.6 308.9L642.7 307.8L635.8 306.7L628.9 305.7L622.1 304.7L615.2 303.6L608.3 302.5L601.4 301.5L594.6 300.5L587.7 299.6L580.8 298.5L574 297.5L567.1 296.6L560.2 295.7L553.3 294.8L546.5 293.8L539.6 292.8L532.7 291.9L525.9 291L519 290.1L512.1 289L505.2 287.9L498.4 286.8L491.5 285.7L484.6 284.7L477.8 283.3L470.9 282L464 280.7L457.1 279.4L450.3 278.1L443.4 276.6L436.5 275.1L429.7 273.7L422.8 272.3L415.9 270.9L409 269.4L402.2 268L395.3 266.7L388.4 265.4L381.5 264.3L374.7 263L367.8 261.8L360.9 260.8L354.1 259.8L347.2 258.9L340.3 257.9L333.4 256.9L326.6 256L319.7 255.2L312.8 254.4L306 253.3L299.1 252.2L292.2 251.2L285.3 250.1L278.5 249L271.6 247.7L264.7 246.3L257.9 244.8L251 243.4L244.1 241.9L237.2 240.2L230.4 238.4L223.5 236.6L216.6 234.9L209.7 233.3L202.9 231.5L196 229.8L189.1 228.3L182.3 226.9L175.4 225.6L168.5 224.3L161.6 223.2L154.8 222.3L147.9 221.7L141 221.4L134.2 221.1L127.3 221.1L120.4 221.3L113.5 221.7L106.7 222.1" fill="#3360a9" fill-opacity="0.7" class="Africa_0-area"></path><path stroke-linecap="round" d="M106.7 500.1L113.5 500.2L120.4 500.4L127.3 500.5L134.2 500.7L141 500.8L147.9 500.9L154.8 501L161.6 501.1L168.5 501.3L175.4 501.4L182.3 501.6L189.1 501.8L196 502L202.9 502.2L209.7 502.4L216.6 502.6L223.5 502.8L230.4 503L237.2 503.2L244.1 503.5L251 503.7L257.9 503.9L264.7 504.1L271.6 504.3L278.5 504.6L285.3 504.7L292.2 504.9L299.1 505.1L306 505.3L312.8 505.5L319.7 505.7L326.6 505.9L333.4 506.1L340.3 506.2L347.2 506.4L354.1 506.6L360.9 506.8L367.8 506.9L374.7 507.1L381.5 507.3L388.4 507.4L395.3 507.6L402.2 507.8L409 507.9L415.9 508.1L422.8 508.3L429.7 508.4L436.5 508.6L443.4 508.8L450.3 509L457.1 509.1L464 509.3L470.9 509.4L477.8 509.6L484.6 509.8L491.5 509.9L498.4 510L505.2 510.2L512.1 510.3L519 510.5L525.9 510.6L532.7 510.7L539.6 510.9L546.5 511L553.3 511.2L560.2 511.3L567.1 511.4L574 511.5L580.8 511.6L587.7 511.8L594.6 511.9L601.4 512L608.3 512.1L615.2 512.3L622.1 512.4L628.9 512.5L635.8 512.6L642.7 512.7L649.6 512.8L656.4 513L663.3 513.1L670.2 513.2L677 513.3L683.9 513.4L690.8 513.5" stroke="rgb(132, 171, 115)" stroke-opacity="0.7" stroke-width="0.5" fill="none" class="Latin-America-and-the-Caribbean_0-border"></path><path stroke-linecap="round" d="M106.7 498.1L113.5 498.2L120.4 498.3L127.3 498.4L134.2 498.5L141 498.6L147.9 498.7L154.8 498.8L161.6 498.9L168.5 499L175.4 499.2L182.3 499.3L189.1 499.5L196 499.7L202.9 499.9L209.7 500.1L216.6 500.3L223.5 500.5L230.4 500.7L237.2 500.9L244.1 501.1L251 501.3L257.9 501.6L264.7 501.8L271.6 502L278.5 502.2L285.3 502.4L292.2 502.5L299.1 502.7L306 502.9L312.8 503.1L319.7 503.3L326.6 503.4L333.4 503.6L340.3 503.8L347.2 503.9L354.1 504.1L360.9 504.2L367.8 504.4L374.7 504.6L381.5 504.7L388.4 504.9L395.3 505L402.2 505.2L409 505.4L415.9 505.6L422.8 505.7L429.7 505.9L436.5 506L443.4 506.2L450.3 506.4L457.1 506.5L464 506.7L470.9 506.8L477.8 507L484.6 507.2L491.5 507.3L498.4 507.4L505.2 507.6L512.1 507.7L519 507.9L525.9 508L532.7 508.1L539.6 508.3L546.5 508.4L553.3 508.5L560.2 508.7L567.1 508.8L574 508.9L580.8 509L587.7 509.2L594.6 509.3L601.4 509.4L608.3 509.5L615.2 509.6L622.1 509.8L628.9 509.9L635.8 510L642.7 510.1L649.6 510.2L656.4 510.4L663.3 510.5L670.2 510.6L677 510.7L683.9 510.8L690.8 511" stroke="rgb(139, 69, 156)" stroke-opacity="0.7" stroke-width="0.5" fill="none" class="Oceania_0-border"></path><path stroke-linecap="round" d="M106.7 472.7L113.5 472.7L120.4 472.7L127.3 472.7L134.2 472.7L141 472.8L147.9 472.9L154.8 473.1L161.6 473.3L168.5 473.5L175.4 473.8L182.3 474.1L189.1 474.5L196 474.9L202.9 475.3L209.7 475.7L216.6 476.1L223.5 476.5L230.4 476.9L237.2 477.3L244.1 477.7L251 478L257.9 478.3L264.7 478.6L271.6 478.9L278.5 479.2L285.3 479.4L292.2 479.6L299.1 479.7L306 479.9L312.8 480L319.7 480.1L326.6 480.2L333.4 480.4L340.3 480.5L347.2 480.6L354.1 480.7L360.9 480.9L367.8 481L374.7 481.2L381.5 481.4L388.4 481.6L395.3 481.8L402.2 482.1L409 482.3L415.9 482.6L422.8 482.8L429.7 483.1L436.5 483.4L443.4 483.6L450.3 483.9L457.1 484.2L464 484.4L470.9 484.6L477.8 484.8L484.6 485.1L491.5 485.3L498.4 485.4L505.2 485.6L512.1 485.8L519 485.9L525.9 486.1L532.7 486.2L539.6 486.3L546.5 486.5L553.3 486.6L560.2 486.7L567.1 486.8L574 487L580.8 487.1L587.7 487.3L594.6 487.4L601.4 487.6L608.3 487.7L615.2 487.9L622.1 488.1L628.9 488.3L635.8 488.4L642.7 488.6L649.6 488.8L656.4 489.1L663.3 489.2L670.2 489.4L677 489.6L683.9 489.8L690.8 490" stroke="rgb(213, 178, 52)" stroke-opacity="0.7" stroke-width="0.5" fill="none" class="Europe_0-border"></path><path stroke-linecap="round" d="M106.7 458.1L113.5 458.1L120.4 458L127.3 458L134.2 458L141 458.1L147.9 458.1L154.8 458.2L161.6 458.4L168.5 458.6L175.4 458.9L182.3 459.1L189.1 459.3L196 459.6L202.9 460L209.7 460.3L216.6 460.6L223.5 460.9L230.4 461.3L237.2 461.6L244.1 462L251 462.3L257.9 462.5L264.7 462.8L271.6 463.1L278.5 463.4L285.3 463.5L292.2 463.7L299.1 463.8L306 464L312.8 464.1L319.7 464.2L326.6 464.3L333.4 464.4L340.3 464.5L347.2 464.6L354.1 464.6L360.9 464.7L367.8 464.8L374.7 465L381.5 465.1L388.4 465.3L395.3 465.4L402.2 465.6L409 465.8L415.9 466L422.8 466.2L429.7 466.4L436.5 466.6L443.4 466.9L450.3 467.1L457.1 467.3L464 467.5L470.9 467.7L477.8 467.9L484.6 468.2L491.5 468.3L498.4 468.5L505.2 468.6L512.1 468.8L519 469L525.9 469.1L532.7 469.2L539.6 469.3L546.5 469.4L553.3 469.6L560.2 469.7L567.1 469.8L574 469.9L580.8 470L587.7 470.2L594.6 470.3L601.4 470.4L608.3 470.6L615.2 470.7L622.1 470.9L628.9 471.1L635.8 471.2L642.7 471.4L649.6 471.6L656.4 471.8L663.3 472L670.2 472.1L677 472.3L683.9 472.5L690.8 472.7" stroke="rgb(44, 127, 53)" stroke-opacity="0.7" stroke-width="0.5" fill="none" class="Northern-America_0-border"></path><path stroke-linecap="round" d="M106.7 222.1L113.5 221.7L120.4 221.3L127.3 221.1L134.2 221.1L141 221.4L147.9 221.7L154.8 222.3L161.6 223.2L168.5 224.3L175.4 225.6L182.3 226.9L189.1 228.3L196 229.8L202.9 231.5L209.7 233.3L216.6 234.9L223.5 236.6L230.4 238.4L237.2 240.2L244.1 241.9L251 243.4L257.9 244.8L264.7 246.3L271.6 247.7L278.5 249L285.3 250.1L292.2 251.2L299.1 252.2L306 253.3L312.8 254.4L319.7 255.2L326.6 256L333.4 256.9L340.3 257.9L347.2 258.9L354.1 259.8L360.9 260.8L367.8 261.8L374.7 263L381.5 264.3L388.4 265.4L395.3 266.7L402.2 268L409 269.4L415.9 270.9L422.8 272.3L429.7 273.7L436.5 275.1L443.4 276.6L450.3 278.1L457.1 279.4L464 280.7L470.9 282L477.8 283.3L484.6 284.7L491.5 285.7L498.4 286.8L505.2 287.9L512.1 289L519 290.1L525.9 291L532.7 291.9L539.6 292.8L546.5 293.8L553.3 294.8L560.2 295.7L567.1 296.6L574 297.5L580.8 298.5L587.7 299.6L594.6 300.5L601.4 301.5L608.3 302.5L615.2 303.6L622.1 304.7L628.9 305.7L635.8 306.7L642.7 307.8L649.6 308.9L656.4 310.1L663.3 311.1L670.2 312.1L677 313.1L683.9 314.2L690.8 315.3" stroke="rgb(123, 33, 44)" stroke-opacity="0.7" stroke-width="0.5" fill="none" class="Asia_0-border"></path><path stroke-linecap="round" d="M106.7 115.5L113.5 112.6L120.4 109.8L127.3 107.3L134.2 105.1L141 103.1L147.9 101.3L154.8 99.7L161.6 98.4L168.5 97.4L175.4 96.7L182.3 95.9L189.1 95.4L196 95.1L202.9 95L209.7 95L216.6 94.6L223.5 94.3L230.4 94L237.2 93.9L244.1 93.7L251 93.1L257.9 92.5L264.7 91.9L271.6 91.3L278.5 90.8L285.3 89.8L292.2 88.8L299.1 88L306 87.2L312.8 86.4L319.7 85.4L326.6 84.4L333.4 83.6L340.3 82.9L347.2 82.4L354.1 81.7L360.9 81.1L367.8 80.7L374.7 80.5L381.5 80.4L388.4 80.2L395.3 80.1L402.2 80.2L409 80.4L415.9 80.8L422.8 81L429.7 81.2L436.5 81.5L443.4 82L450.3 82.5L457.1 82.7L464 83L470.9 83.4L477.8 83.8L484.6 84.3L491.5 84.5L498.4 84.7L505.2 85L512.1 85.4L519 85.9L525.9 86L532.7 86.3L539.6 86.6L546.5 87.1L553.3 87.7L560.2 88.1L567.1 88.5L574 89.1L580.8 89.8L587.7 90.6L594.6 91.2L601.4 91.9L608.3 92.8L615.2 93.8L622.1 94.9L628.9 95.7L635.8 96.7L642.7 97.7L649.6 98.9L656.4 100.2L663.3 101.1L670.2 102.2L677 103.4L683.9 104.6L690.8 106" stroke="rgb(43, 80, 141)" stroke-opacity="0.7" stroke-width="0.5" fill="none" class="Africa_0-border"></path></g></g></g><g style="fill: #777;" class="SourcesFooter"><g style="fill: #777;" class="clickable"><text font-size="12.60" x="15.0" y="581.6"><tspan x="15" y="581.58">Source: UN Population Division (2017 Revision)</tspan></text></g><text font-size="12.60" x="649.0" y="581.6"><tspan x="649.024" y="581.58"><a target='_blank' style='fill: #777;' href='https://ourworldindata.org'>OurWorldInData.org</a> • <a style="fill: #777;" href="http://creativecommons.org/licenses/by-sa/4.0/deed.en_US" target="_blank">CC BY-SA</a></tspan></text></g></g></svg>