<svg xmlns="http://www.w3.org/2000/svg" version="1.1" style="font-family: 'Helvetica Neue', Helvetica, Arial, sans-serif; font-size: 24px; background-color: white;" width="1200" height="630"><g class="ChartTab"><g class="LineChart"><defs><clipPath id="boundsClip-197"><rect x="81.06400000000001" y="0" width="1180" height="1130"></rect></clipPath></defs><g class="AxisBoxView"><g class="HorizontalAxis"><text x="91.1" y="600" fill="#666" text-anchor="middle" font-size="21.6">1660</text><text x="208" y="600" fill="#666" text-anchor="middle" font-size="21.6">1700</text><text x="354.3" y="600" fill="#666" text-anchor="middle" font-size="21.6">1750</text><text x="500.5" y="600" fill="#666" text-anchor="middle" font-size="21.6">1800</text><text x="646.7" y="600" fill="#666" text-anchor="middle" font-size="21.6">1850</text><text x="792.9" y="600" fill="#666" text-anchor="middle" font-size="21.6">1900</text><text x="939.2" y="600" fill="#666" text-anchor="middle" font-size="21.6">1950</text><text x="1056.1" y="600" fill="#666" text-anchor="middle" font-size="21.6">1990</text></g><g class="VerticalAxis"><text x="86.06" y="573.4" fill="#666" dominant-baseline="middle" text-anchor="end" font-size="21.6">155 cm</text><text x="86.06" y="476.2" fill="#666" dominant-baseline="middle" text-anchor="end" font-size="21.6">160 cm</text><text x="86.06" y="379" fill="#666" dominant-baseline="middle" text-anchor="end" font-size="21.6">165 cm</text><text x="86.06" y="281.8" fill="#666" dominant-baseline="middle" text-anchor="end" font-size="21.6">170 cm</text><text x="86.06" y="184.7" fill="#666" dominant-baseline="middle" text-anchor="end" font-size="21.6">175 cm</text><text x="86.06" y="87.5" fill="#666" dominant-baseline="middle" text-anchor="end" font-size="21.6">180 cm</text></g><g class="AxisGridLines"><line x1="91.06" y1="573.4" x2="1056.13" y2="573.4" stroke="#ddd" stroke-dasharray="3,2"></line><line x1="91.06" y1="476.2" x2="1056.13" y2="476.2" stroke="#ddd" stroke-dasharray="3,2"></line><line x1="91.06" y1="379" x2="1056.13" y2="379" stroke="#ddd" stroke-dasharray="3,2"></line><line x1="91.06" y1="281.8" x2="1056.13" y2="281.8" stroke="#ddd" stroke-dasharray="3,2"></line><line x1="91.06" y1="184.7" x2="1056.13" y2="184.7" stroke="#ddd" stroke-dasharray="3,2"></line><line x1="91.06" y1="87.5" x2="1056.13" y2="87.5" stroke="#ddd" stroke-dasharray="3,2"></line></g><g class="AxisGridLines"><line x1="208" y1="573.40" x2="208" y2="35.00" stroke="#ddd" stroke-dasharray="3,2"></line><line x1="354.3" y1="573.40" x2="354.3" y2="35.00" stroke="#ddd" stroke-dasharray="3,2"></line><line x1="500.5" y1="573.40" x2="500.5" y2="35.00" stroke="#ddd" stroke-dasharray="3,2"></line><line x1="646.7" y1="573.40" x2="646.7" y2="35.00" stroke="#ddd" stroke-dasharray="3,2"></line><line x1="792.9" y1="573.40" x2="792.9" y2="35.00" stroke="#ddd" stroke-dasharray="3,2"></line><line x1="939.2" y1="573.40" x2="939.2" y2="35.00" stroke="#ddd" stroke-dasharray="3,2"></line></g></g><g clip-path="url(#boundsClip-197)"><g class="HeightedLegend clickable"><g class="legendMark"><rect x="1066.128" y="25.4" width="118.87200000000001" height="19.200000000000003" fill="#fff" opacity="0"></rect><rect x="1066.128" y="33.75" width="10" height="2.5" fill="#f6a324"></rect><text font-size="19.20" x="1081.1" y="40.8" fill="#333"><tspan x="1081.128" y="40.76">Netherlands</tspan></text></g><g class="legendMark"><rect x="1066.128" y="145.9" width="74.90400000000001" height="19.200000000000003" fill="#fff" opacity="0"></rect><rect x="1066.128" y="154.25" width="10" height="2.5" fill="#34983f"></rect><text font-size="19.20" x="1081.1" y="161.3" fill="#333"><tspan x="1081.128" y="161.26000000000002">France</tspan></text></g><g class="legendMark"><rect x="1066.128" y="213.9" width="63.00000000000001" height="19.200000000000003" fill="#fff" opacity="0"></rect><rect x="1066.128" y="222.25" width="10" height="2.5" fill="#ca2628"></rect><text font-size="19.20" x="1081.1" y="229.3" fill="#333"><tspan x="1081.128" y="229.26000000000002">Brazil</tspan></text></g><g class="legendMark"><rect x="1066.128" y="243.1" width="65.304" height="19.200000000000003" fill="#fff" opacity="0"></rect><rect x="1066.128" y="251.45" width="10" height="2.5" fill="#3360a9"></rect><text font-size="19.20" x="1081.1" y="258.5" fill="#333"><tspan x="1081.128" y="258.46000000000004">China</tspan></text></g></g><g class="Lines"><rect x="91" y="35" width="965" height="538" fill="rgba(255,255,255,0)" opacity="0"></rect><g class="key-France_0"><path stroke="#34983f" stroke-linecap="round" d="M91 426L120 453L150 447L179 450L237 379L267 402L296 354L325 338L354 356L530 400L559 400L588 399L618 393L647 375L676 371L705 369L734 362L764 358L793 344L822 325L851 311L881 284L910 249L939 220L968 187L998 183L1027 156" fill="none" stroke-width="1.5"></path><g fill="#34983f"><circle cx="91" cy="426" r="2"></circle><circle cx="120" cy="453" r="2"></circle><circle cx="150" cy="447" r="2"></circle><circle cx="179" cy="450" r="2"></circle><circle cx="237" cy="379" r="2"></circle><circle cx="267" cy="402" r="2"></circle><circle cx="296" cy="354" r="2"></circle><circle cx="325" cy="338" r="2"></circle><circle cx="354" cy="356" r="2"></circle><circle cx="530" cy="400" r="2"></circle><circle cx="559" cy="400" r="2"></circle><circle cx="588" cy="399" r="2"></circle><circle cx="618" cy="393" r="2"></circle><circle cx="647" cy="375" r="2"></circle><circle cx="676" cy="371" r="2"></circle><circle cx="705" cy="369" r="2"></circle><circle cx="734" cy="362" r="2"></circle><circle cx="764" cy="358" r="2"></circle><circle cx="793" cy="344" r="2"></circle><circle cx="822" cy="325" r="2"></circle><circle cx="851" cy="311" r="2"></circle><circle cx="881" cy="284" r="2"></circle><circle cx="910" cy="249" r="2"></circle><circle cx="939" cy="220" r="2"></circle><circle cx="968" cy="187" r="2"></circle><circle cx="998" cy="183" r="2"></circle><circle cx="1027" cy="156" r="2"></circle></g></g><g class="key-Netherlands_0"><path stroke="#f6a324" stroke-linecap="round" d="M384 292L413 309L442 367L471 381L530 360L559 377L588 395L618 389L647 373L676 350L705 338L734 311L764 294L793 264L822 231L851 214L881 202L910 136L939 113L968 45L998 43L1027 35" fill="none" stroke-width="1.5"></path><g fill="#f6a324"><circle cx="384" cy="292" r="2"></circle><circle cx="413" cy="309" r="2"></circle><circle cx="442" cy="367" r="2"></circle><circle cx="471" cy="381" r="2"></circle><circle cx="530" cy="360" r="2"></circle><circle cx="559" cy="377" r="2"></circle><circle cx="588" cy="395" r="2"></circle><circle cx="618" cy="389" r="2"></circle><circle cx="647" cy="373" r="2"></circle><circle cx="676" cy="350" r="2"></circle><circle cx="705" cy="338" r="2"></circle><circle cx="734" cy="311" r="2"></circle><circle cx="764" cy="294" r="2"></circle><circle cx="793" cy="264" r="2"></circle><circle cx="822" cy="231" r="2"></circle><circle cx="851" cy="214" r="2"></circle><circle cx="881" cy="202" r="2"></circle><circle cx="910" cy="136" r="2"></circle><circle cx="939" cy="113" r="2"></circle><circle cx="968" cy="45" r="2"></circle><circle cx="998" cy="43" r="2"></circle><circle cx="1027" cy="35" r="2"></circle></g></g><g class="key-Brazil_0"><path stroke="#ca2628" stroke-linecap="round" d="M530 393L559 393L588 383L618 387L647 389L676 379L705 350L734 358L764 338L793 330L822 350L851 348L881 340L910 338L939 317L968 301L998 251L1027 249L1056 224" fill="none" stroke-width="1.5"></path><g fill="#ca2628"><circle cx="530" cy="393" r="2"></circle><circle cx="559" cy="393" r="2"></circle><circle cx="588" cy="383" r="2"></circle><circle cx="618" cy="387" r="2"></circle><circle cx="647" cy="389" r="2"></circle><circle cx="676" cy="379" r="2"></circle><circle cx="705" cy="350" r="2"></circle><circle cx="734" cy="358" r="2"></circle><circle cx="764" cy="338" r="2"></circle><circle cx="793" cy="330" r="2"></circle><circle cx="822" cy="350" r="2"></circle><circle cx="851" cy="348" r="2"></circle><circle cx="881" cy="340" r="2"></circle><circle cx="910" cy="338" r="2"></circle><circle cx="939" cy="317" r="2"></circle><circle cx="968" cy="301" r="2"></circle><circle cx="998" cy="251" r="2"></circle><circle cx="1027" cy="249" r="2"></circle><circle cx="1056" cy="224" r="2"></circle></g></g><g class="key-China_0"><path stroke="#3360a9" stroke-linecap="round" d="M530 365L559 364L588 364L618 356L647 356L676 365L705 364L734 373L764 399L793 399L822 385L851 395L881 350L910 332L939 297L968 282L998 282L1027 253" fill="none" stroke-width="1.5"></path><g fill="#3360a9"><circle cx="530" cy="365" r="2"></circle><circle cx="559" cy="364" r="2"></circle><circle cx="588" cy="364" r="2"></circle><circle cx="618" cy="356" r="2"></circle><circle cx="647" cy="356" r="2"></circle><circle cx="676" cy="365" r="2"></circle><circle cx="705" cy="364" r="2"></circle><circle cx="734" cy="373" r="2"></circle><circle cx="764" cy="399" r="2"></circle><circle cx="793" cy="399" r="2"></circle><circle cx="822" cy="385" r="2"></circle><circle cx="851" cy="395" r="2"></circle><circle cx="881" cy="350" r="2"></circle><circle cx="910" cy="332" r="2"></circle><circle cx="939" cy="297" r="2"></circle><circle cx="968" cy="282" r="2"></circle><circle cx="998" cy="282" r="2"></circle><circle cx="1027" cy="253" r="2"></circle></g></g></g></g></g></g></svg>