<svg xmlns="http://www.w3.org/2000/svg" version="1.1" style="font-family: 'Helvetica Neue', Helvetica, Arial, sans-serif; font-size: 24px; background-color: white;" width="1200" height="630"><g class="ChartTab"><g><g class="AxisBoxView"><g class="HorizontalAxis"><text font-size="16.80" x="283.7" y="596.6"><tspan x="283.70400000000006" y="596.64">Health Expenditure and Financing (per capita) (OECDstat (2017))</tspan></text><text x="291.9" y="573.2" fill="#666" text-anchor="middle" font-size="21.6">$2,000</text><text x="515.1" y="573.2" fill="#666" text-anchor="middle" font-size="21.6">$4,000</text><text x="738.4" y="573.2" fill="#666" text-anchor="middle" font-size="21.6">$6,000</text><text x="961.7" y="573.2" fill="#666" text-anchor="middle" font-size="21.6">$8,000</text></g><g class="VerticalAxis"><text font-size="16.80" x="-414.4" y="28.4" transform="rotate(-90)"><tspan x="-414.352" y="28.439999999999998">Child mortality (per 1,000)</tspan></text><text x="78.09" y="496.5" fill="#666" dominant-baseline="middle" text-anchor="end" font-size="21.6">20</text><text x="78.09" y="441.2" fill="#666" dominant-baseline="middle" text-anchor="end" font-size="21.6">40</text><text x="78.09" y="385.9" fill="#666" dominant-baseline="middle" text-anchor="end" font-size="21.6">60</text><text x="78.09" y="330.6" fill="#666" dominant-baseline="middle" text-anchor="end" font-size="21.6">80</text><text x="78.09" y="275.3" fill="#666" dominant-baseline="middle" text-anchor="end" font-size="21.6">100</text><text x="78.09" y="220" fill="#666" dominant-baseline="middle" text-anchor="end" font-size="21.6">120</text><text x="78.09" y="164.7" fill="#666" dominant-baseline="middle" text-anchor="end" font-size="21.6">140</text><text x="78.09" y="109.4" fill="#666" dominant-baseline="middle" text-anchor="end" font-size="21.6">160</text><text x="78.09" y="54.1" fill="#666" dominant-baseline="middle" text-anchor="end" font-size="21.6">180</text></g><g class="AxisGridLines"><line x1="83.09" y1="496.5" x2="1041.46" y2="496.5" stroke="#ddd" stroke-dasharray="3,2"></line><line x1="83.09" y1="441.2" x2="1041.46" y2="441.2" stroke="#ddd" stroke-dasharray="3,2"></line><line x1="83.09" y1="385.9" x2="1041.46" y2="385.9" stroke="#ddd" stroke-dasharray="3,2"></line><line x1="83.09" y1="330.6" x2="1041.46" y2="330.6" stroke="#ddd" stroke-dasharray="3,2"></line><line x1="83.09" y1="275.3" x2="1041.46" y2="275.3" stroke="#ddd" stroke-dasharray="3,2"></line><line x1="83.09" y1="220" x2="1041.46" y2="220" stroke="#ddd" stroke-dasharray="3,2"></line><line x1="83.09" y1="164.7" x2="1041.46" y2="164.7" stroke="#ddd" stroke-dasharray="3,2"></line><line x1="83.09" y1="109.4" x2="1041.46" y2="109.4" stroke="#ddd" stroke-dasharray="3,2"></line><line x1="83.09" y1="54.1" x2="1041.46" y2="54.1" stroke="#ddd" stroke-dasharray="3,2"></line></g><g class="AxisGridLines"><line x1="291.9" y1="546.60" x2="291.9" y2="35.00" stroke="#ddd" stroke-dasharray="3,2"></line><line x1="515.1" y1="546.60" x2="515.1" y2="35.00" stroke="#ddd" stroke-dasharray="3,2"></line><line x1="738.4" y1="546.60" x2="738.4" y2="35.00" stroke="#ddd" stroke-dasharray="3,2"></line><line x1="961.7" y1="546.60" x2="961.7" y2="35.00" stroke="#ddd" stroke-dasharray="3,2"></line></g></g><g clip-path="url(#scatterBounds-361)" class="PointsWithLabels clickable"><rect x="83.088" y="35" width="958.3680000000002" height="511.6" fill="rgba(255,255,255,0)"></rect><defs><clipPath id="scatterBounds-361"><rect x="73.088" y="25" width="978.3680000000002" height="531.6"></rect></clipPath></defs><g class="key-Japan_0"><circle cx="138" cy="503" r="1.6424425102515516" fill="#e2e2e2" stroke="#ccc" opacity="0.6"></circle><polyline stroke-linecap="round" stroke="#ccc" points="138,503 142,506 149,508 152,510 158,512 169,515 172,517 178,519 187,521 195,522 206,524 212,526 220,527 226,528 227,530 238,531 240,532 247,533 250,533 252,534 256,534 263,534 272,535 281,535 292,535 287,536 288,536 300,537 304,538 316,538 328,539 337,540 341,540 350,540 359,541 369,541 374,541 383,542 393,542 407,542 426,543 484,542 499,543 509,543 510,544 507,544" fill="none" stroke-width="1.0072980031924086" opacity="0.6"></polyline><polygon points="505.2927019968076,550.2927019968076 507,542.2927019968076 508.7072980031924,545.7072980031925" transform="rotate(-90.0000007648485, 507, 544)" cx="507" cy="544" r="1.7072980031924088" fill="#e2e2e2" stroke="#ccc" stroke-width="0.2" opacity="0.6"></polygon></g><g class="key-Mexico_0"><circle cx="125" cy="423" r="1.5811117230678482" fill="#e2e2e2" stroke="#ccc" opacity="0.6"></circle><polyline stroke-linecap="round" stroke="#ccc" points="125,423 130,429 136,436 139,442 141,449 134,455 130,460 135,466 139,471 142,476 145,481 150,485 152,489 161,492 165,495 165,497 165,499 169,501 168,502 169,503 170,505 168,507 174,509 176,511 172,513 175,515" fill="none" stroke-width="0.9826264553416333" opacity="0.6"></polyline><polygon points="173.31737354465838,521.3173735446584 175,513.3173735446584 176.68262645534165,516.6826264553416" transform="rotate(123.69006857713717, 175, 515)" cx="175" cy="515" r="1.6826264553416332" fill="#e2e2e2" stroke="#ccc" stroke-width="0.2" opacity="0.6"></polygon></g><g class="key-Germany_0"><circle cx="204" cy="480" r="1.560317291480057" fill="#e2e2e2" stroke="#ccc" opacity="0.6"></circle><polyline stroke-linecap="round" stroke="#ccc" points="204,480 220,483 233,485 249,488 264,491 281,494 293,497 299,501 309,504 314,507 323,510 333,512 327,515 332,517 344,519 356,521 359,522 366,523 382,525 368,527 378,528 393,530 387,531 402,533 417,533 430,534 432,535 440,536 449,536 463,536 470,537 480,537 486,538 482,538 491,538 501,539 509,539 524,539 541,540 555,540 559,540 572,540 580,541 591,541 601,541" fill="none" stroke-width="0.8727243559712088" opacity="0.6"></polyline><polygon points="599.4272756440288,547.4272756440288 601,539.4272756440288 602.5727243559712,542.5727243559712" transform="rotate(90.0000007648485, 601, 541)" cx="601" cy="541" r="1.572724355971209" fill="#e2e2e2" stroke="#ccc" stroke-width="0.2" opacity="0.6"></polygon></g><g class="key-Turkey_0"><circle cx="87" cy="35" r="1.3857439383873322" fill="#e2e2e2" stroke="#ccc" opacity="0.6"></circle><polyline stroke-linecap="round" stroke="#ccc" points="87,35 84,129 87,146 89,162 89,179 89,195 91,212 87,229 88,245 88,261 83,277 87,292 89,306 91,320 92,333 96,345 99,357 100,368 102,379 98,389 98,399 104,408 109,417 116,426 126,434 132,442 133,449 139,456 142,463 146,469 152,475 161,480 166,485 165,490 165,494 163,499 165,502 164,506 169,509 171,512 177,514" fill="none" stroke-width="0.8505334918292047" opacity="0.6"></polyline><polygon points="175.4494665081708,520.4494665081708 177,512.4494665081708 178.55053349182919,515.5505334918291" transform="rotate(108.43494974443654, 177, 514)" cx="177" cy="514" r="1.5505334918292046" fill="#e2e2e2" stroke="#ccc" stroke-width="0.2" opacity="0.6"></polygon></g><g class="key-France_0"><circle cx="171" cy="501" r="1.4560324439129038" fill="#e2e2e2" stroke="#ccc" opacity="0.6"></circle><polyline stroke-linecap="round" stroke="#ccc" points="171,501 210,510 247,517 283,523 325,527 334,528 344,529 354,530 359,532 399,533 403,535 405,535 412,536 422,536 431,536 440,537 454,537 456,538 468,538 473,539 475,539 479,539 483,540 496,540 499,540 505,540 508,540 513,539 519,539 518,540" fill="none" stroke-width="0.8082499342953244" opacity="0.6"></polyline><polygon points="516.4917500657047,546.4917500657047 518,538.4917500657047 519.5082499342953,541.5082499342953" transform="rotate(-135.00000114727274, 518, 540)" cx="518" cy="540" r="1.5082499342953244" fill="#e2e2e2" stroke="#ccc" stroke-width="0.2" opacity="0.6"></polygon></g><g class="key-United-Kingdom_0"><circle cx="141" cy="493" r="1.476284429620324" fill="#e2e2e2" stroke="#ccc" opacity="0.6"></circle><polyline stroke-linecap="round" stroke="#ccc" points="141,493 145,494 149,496 153,498 163,500 168,502 171,504 171,506 175,508 177,510 182,512 186,514 185,516 194,518 195,519 197,520 201,521 209,522 215,523 216,524 218,526 227,527 241,529 247,530 256,531 259,531 263,532 263,532 273,533 288,533 296,533 314,534 329,534 346,534 359,535 371,535 382,535 391,535 397,536 413,536 407,537 410,538 414,538 478,539 485,539 487,540" fill="none" stroke-width="0.8059407800370038" opacity="0.6"></polyline><polygon points="485.494059219963,546.494059219963 487,538.494059219963 488.505940780037,541.505940780037" transform="rotate(116.56505216768471, 487, 540)" cx="487" cy="540" r="1.5059407800370037" fill="#e2e2e2" stroke="#ccc" stroke-width="0.2" opacity="0.6"></polygon></g><g class="key-Italy_0"><circle cx="279" cy="523" r="1.4810485476128323" fill="#e2e2e2" stroke="#ccc" opacity="0.6"></circle><polyline stroke-linecap="round" stroke="#ccc" points="279,523 286,524 302,525 313,526 311,527 308,528 307,529 312,531 318,532 332,533 338,534 345,535 365,536 377,537 382,538 380,538 396,539 405,539 415,540 406,540 416,540 411,540 415,540 412,541 402,541 390,541 396,541 398,542" fill="none" stroke-width="0.7978887356935569" opacity="0.6"></polyline><polygon points="396.50211126430645,548.5021112643064 398,540.5021112643064 399.49788873569355,543.4978887356936" transform="rotate(116.56505216768471, 398, 542)" cx="398" cy="542" r="1.4978887356935568" fill="#e2e2e2" stroke="#ccc" stroke-width="0.2" opacity="0.6"></polygon></g><g class="key-Spain_0"><circle cx="118" cy="471" r="1.3772670591284344" fill="#e2e2e2" stroke="#ccc" opacity="0.6"></circle><polyline stroke-linecap="round" stroke="#ccc" points="118,471 127,478 135,484 138,488 148,488 150,486 162,486 168,488 169,493 167,497 170,502 172,506 175,509 179,511 177,513 176,514 179,516 186,517 206,518 215,520 229,521 238,522 249,523 255,525 257,527 266,528 272,530 275,531 282,532 291,533 297,533 302,534 306,534 335,535 341,535 349,536 359,536 367,537 383,538 394,538 394,539 392,539 383,539 376,540 384,540 392,540" fill="none" stroke-width="0.73997335600995" opacity="0.6"></polyline><polygon points="390.56002664399006,546.56002664399 392,538.56002664399 393.43997335600994,541.4399733560099" transform="rotate(90.0000007648485, 392, 540)" cx="392" cy="540" r="1.43997335600995" fill="#e2e2e2" stroke="#ccc" stroke-width="0.2" opacity="0.6"></polygon></g><g class="key-Poland_0"><circle cx="116" cy="504" r="1.3985254898285475" fill="#e2e2e2" stroke="#ccc" opacity="0.6"></circle><polyline stroke-linecap="round" stroke="#ccc" points="116,504 117,505 121,506 123,507 125,509 128,511 136,515 138,518 140,522 150,524 152,526 159,527 167,528 169,529 173,530 176,530 182,531 192,532 208,533 217,534 218,535 221,536 222,537 231,537 236,537 239,537" fill="none" stroke-width="0.6998606380276153" opacity="0.6"></polyline><polygon points="237.6001393619724,543.6001393619724 239,535.6001393619724 240.39986063802763,538.3998606380277" transform="rotate(90.0000007648485, 239, 537)" cx="239" cy="537" r="1.3998606380276153" fill="#e2e2e2" stroke="#ccc" stroke-width="0.2" opacity="0.6"></polygon></g><g class="key-Canada_0"><circle cx="213" cy="491" r="1.3092444156994427" fill="#e2e2e2" stroke="#ccc" opacity="0.6"></circle><polyline stroke-linecap="round" stroke="#ccc" points="213,491 223,493 228,496 229,499 229,502 242,504 249,507 253,510 257,512 259,515 266,517 277,519 289,520 298,522 306,523 315,525 326,525 331,526 339,527 347,528 358,528 371,529 379,530 379,531 378,531 372,532 367,533 376,533 394,534 399,534 410,534 428,534 444,534 454,535 465,535 472,535 486,535 495,535 502,535 533,536 542,536 537,536 539,537 540,537 537,538 547,538" fill="none" stroke-width="0.6833783744753441" opacity="0.6"></polyline><polygon points="545.6166216255247,544.6166216255247 547,536.6166216255247 548.3833783744753,539.3833783744753" transform="rotate(90.0000007648485, 547, 538)" cx="547" cy="538" r="1.383378374475344" fill="#e2e2e2" stroke="#ccc" stroke-width="0.2" opacity="0.6"></polygon></g><g class="key-Australia_0"><circle cx="178" cy="492" r="1.2467187356751377" fill="#e2e2e2" stroke="#ccc" opacity="0.6"></circle><polyline stroke-linecap="round" stroke="#ccc" points="178,492 179,496 181,498 195,501 213,504 217,507 225,509 226,512 226,514 229,515 232,517 233,518 237,518 242,519 249,520 257,521 259,522 262,523 267,525 275,526 283,528 291,529 298,530 306,531 314,532 326,533 335,533 352,533 364,534 377,534 389,535 403,535 413,535 430,535 430,536 439,536 449,536 458,537 473,538 471,538 485,539 496,540 504,540 516,541 533,541" fill="none" stroke-width="0.6184680989260177" opacity="0.6"></polyline><polygon points="531.681531901074,547.681531901074 533,539.681531901074 534.318468098926,542.318468098926" transform="rotate(90.0000007648485, 533, 541)" cx="533" cy="541" r="1.3184680989260178" fill="#e2e2e2" stroke="#ccc" stroke-width="0.2" opacity="0.6"></polygon></g><g class="key-Chile_0"><circle cx="126" cy="515" r="1.2595600501507436" fill="#e2e2e2" stroke="#ccc" opacity="0.6"></circle><polyline stroke-linecap="round" stroke="#ccc" points="126,515 132,517 135,518 140,518 140,520 143,521 147,523 149,524 163,525 169,526 174,526 178,527 186,527 189,527 197,527 204,527 211,527 219,528 232,528 243,528 246,529" fill="none" stroke-width="0.5821557773728545" opacity="0.6"></polyline><polygon points="244.71784422262715,535.7178442226271 246,527.7178442226271 247.28215577737285,530.2821557773729" transform="rotate(108.43494974443654, 246, 529)" cx="246" cy="529" r="1.2821557773728545" fill="#e2e2e2" stroke="#ccc" stroke-width="0.2" opacity="0.6"></polygon></g><g class="key-Netherlands_0"><circle cx="209" cy="508" r="1.24851792890035" fill="#e2e2e2" stroke="#ccc" opacity="0.6"></circle><polyline stroke-linecap="round" stroke="#ccc" points="209,508 217,512 228,514 236,515 241,517 245,518 252,519 259,520 265,521 265,522 268,523 272,523 269,524 273,525 280,525 286,526 290,527 304,528 318,528 328,529 338,530 343,531 345,532 349,532 355,533 358,533 373,534 386,534 391,534 414,535 436,535 458,536 468,536 518,536 527,537 544,538 561,538 576,539 590,539 598,540 610,540 610,540 613,541 614,541" fill="none" stroke-width="0.5765285483005695" opacity="0.6"></polyline><polygon points="612.7234714516994,547.7234714516994 614,539.7234714516994 615.2765285483006,542.2765285483006" transform="rotate(90.0000007648485, 614, 541)" cx="614" cy="541" r="1.2765285483005697" fill="#e2e2e2" stroke="#ccc" stroke-width="0.2" opacity="0.6"></polygon></g><g class="key-Greece_0"><circle cx="193" cy="512" r="1.2247056176791837" fill="#e2e2e2" stroke="#ccc" opacity="0.6"></circle><polyline stroke-linecap="round" stroke="#ccc" points="193,512 210,515 210,517 209,518 222,520 237,521 256,522 259,523 261,525 264,526 268,527 278,528 271,530 300,531 315,533 328,534 331,535 368,536 383,537 395,538 419,538 403,538 387,538 347,538 314,538 302,538 293,539 291,539" fill="none" stroke-width="0.5364520043534609" opacity="0.6"></polyline><polygon points="289.76354799564655,545.7635479956465 291,537.7635479956465 292.23645200435345,540.2364520043534" transform="rotate(-90.0000007648485, 291, 539)" cx="291" cy="539" r="1.2364520043534608" fill="#e2e2e2" stroke="#ccc" stroke-width="0.2" opacity="0.6"></polygon></g><g class="key-Belgium_0"><circle cx="144" cy="485" r="1.221060804418872" fill="#e2e2e2" stroke="#ccc" opacity="0.6"></circle><polyline stroke-linecap="round" stroke="#ccc" points="144,485 149,488 156,491 168,494 173,497 197,500 209,503 221,505 230,507 234,509 235,511 246,513 253,515 258,516 258,518 263,519 271,520 279,521 288,522 293,523 301,524 315,525 323,526 324,527 325,529 329,530 342,532 346,533 356,534 372,535 384,535 392,536 402,536 437,537 450,537 452,538 456,538 467,538 484,538 504,539 504,539 513,539 515,540 522,540 526,540 528,540" fill="none" stroke-width="0.5312417376572096" opacity="0.6"></polyline><polygon points="526.7687582623428,546.7687582623428 528,538.7687582623428 529.2312417376572,541.2312417376572" transform="rotate(90.0000007648485, 528, 540)" cx="528" cy="540" r="1.2312417376572096" fill="#e2e2e2" stroke="#ccc" stroke-width="0.2" opacity="0.6"></polygon></g><g class="key-Portugal_0"><circle cx="95" cy="363" r="1.2126733203120899" fill="#e2e2e2" stroke="#ccc" opacity="0.6"></circle><polyline stroke-linecap="round" stroke="#ccc" points="95,363 99,376 109,391 117,406 120,419 134,431 134,442 130,453 133,462 134,469 147,475 152,480 154,484 149,488 149,492 159,495 172,498 176,501 189,504 187,507 191,511 209,514 214,517 217,520 217,522 242,525 254,526 260,528 267,529 280,530 309,531 312,533 317,535 324,536 340,537 345,538 340,539 344,540 353,540 360,540 364,541 350,541 335,541 326,541 326,541 327,541" fill="none" stroke-width="0.5303111156293905" opacity="0.6"></polyline><polygon points="325.7696888843706,547.7696888843706 327,539.7696888843706 328.2303111156294,542.2303111156293" transform="rotate(90.0000007648485, 327, 541)" cx="327" cy="541" r="1.2303111156293904" fill="#e2e2e2" stroke="#ccc" stroke-width="0.2" opacity="0.6"></polygon></g><g class="key-Czech-Republic_0"><circle cx="148" cy="511" r="1.2269123890728724" fill="#e2e2e2" stroke="#ccc" opacity="0.6"></circle><polyline stroke-linecap="round" stroke="#ccc" points="148,511 142,513 144,515 169,517 175,520 186,523 189,526 189,528 188,530 194,532 198,533 206,534 216,535 230,536 234,536 244,537 250,538 254,538 268,539 285,540 278,540 283,541 283,541 303,541 304,542 310,542" fill="none" stroke-width="0.5293458360084213" opacity="0.6"></polyline><polygon points="308.7706541639916,548.7706541639916 310,540.7706541639916 311.22934583600846,543.2293458360084" transform="rotate(90.0000007648485, 310, 542)" cx="310" cy="542" r="1.2293458360084213" fill="#e2e2e2" stroke="#ccc" stroke-width="0.2" opacity="0.6"></polygon></g><g class="key-Hungary_0"><circle cx="172" cy="501" r="1.2274070749362815" fill="#e2e2e2" stroke="#ccc" opacity="0.6"></circle><polyline stroke-linecap="round" stroke="#ccc" points="172,501 177,504 177,507 188,511 179,513 178,515 176,517 188,518 196,519 199,520 206,522 218,524 247,526 248,527 262,528 265,530 251,531 250,531 242,533 250,533 255,534 250,534 249,534 253,535 255,535" fill="none" stroke-width="0.5237464292061764" opacity="0.6"></polyline><polygon points="253.7762535707938,541.7762535707939 255,533.7762535707939 256.2237464292062,536.2237464292062" transform="rotate(90.0000007648485, 255, 535)" cx="255" cy="535" r="1.2237464292061764" fill="#e2e2e2" stroke="#ccc" stroke-width="0.2" opacity="0.6"></polygon></g><g class="key-Sweden_0"><circle cx="199" cy="514" r="1.206759298160311" fill="#e2e2e2" stroke="#ccc" opacity="0.6"></circle><polyline stroke-linecap="round" stroke="#ccc" points="199,514 209,516 215,517 219,519 230,521 241,523 250,524 266,525 270,527 275,527 286,528 290,529 295,529 297,530 300,530 293,530 291,531 300,531 303,531 309,531 312,532 307,533 312,535 313,536 309,537 314,538 324,539 325,540 339,540 352,540 365,540 394,540 413,540 424,541 429,541 439,541 448,542 454,542 460,543 465,543 464,543 575,543 582,543 592,543 602,543 616,543" fill="none" stroke-width="0.5203679355302537" opacity="0.6"></polyline><polygon points="614.7796320644698,549.7796320644698 616,541.7796320644698 617.2203679355302,544.2203679355302" transform="rotate(90.0000007648485, 616, 543)" cx="616" cy="543" r="1.2203679355302537" fill="#e2e2e2" stroke="#ccc" stroke-width="0.2" opacity="0.6"></polygon></g><g class="key-Austria_0"><circle cx="163" cy="471" r="1.2012913122004492" fill="#e2e2e2" stroke="#ccc" opacity="0.6"></circle><polyline stroke-linecap="round" stroke="#ccc" points="163,471 166,472 171,474 178,477 187,482 221,488 234,493 240,498 247,501 256,504 262,506 234,509 237,511 237,513 238,515 246,517 254,518 265,521 271,522 283,524 330,525 339,527 352,528 369,529 389,531 395,533 401,534 411,535 430,535 448,536 456,536 462,536 472,537 481,537 492,538 495,538 503,538 517,538 530,539 535,539 541,539 543,540 555,540 554,541 558,541 565,542" fill="none" stroke-width="0.5104525287786503" opacity="0.6"></polyline><polygon points="563.7895474712213,548.7895474712213 565,540.7895474712213 566.2104525287787,543.2104525287787" transform="rotate(98.13010318809667, 565, 542)" cx="565" cy="542" r="1.2104525287786503" fill="#e2e2e2" stroke="#ccc" stroke-width="0.2" opacity="0.6"></polygon></g><g class="key-Israel_0"><circle cx="145" cy="471" r="1.1505486336729729" fill="#e2e2e2" stroke="#ccc" opacity="0.6"></circle><polyline stroke-linecap="round" stroke="#ccc" points="145,471 155,486 164,491 177,496 191,499 192,502 192,504 193,505 204,507 232,509 193,512 187,514 195,515 202,517 210,518 207,519 203,521 214,522 220,524 238,526 240,527 248,529 254,530 256,531 250,531 262,532 269,533 263,534 261,535 265,535 272,536 275,537 282,537 288,538 288,538 294,539 301,539 307,540 320,540 327,540 324,540" fill="none" stroke-width="0.5046538396269464" opacity="0.6"></polyline><polygon points="322.7953461603731,546.795346160373 324,538.795346160373 325.204653839627,541.2046538396269" transform="rotate(-90.0000007648485, 324, 540)" cx="324" cy="540" r="1.2046538396269464" fill="#e2e2e2" stroke="#ccc" stroke-width="0.2" opacity="0.6"></polygon></g><g class="key-Switzerland_0"><circle cx="255" cy="501" r="1.1884224715236067" fill="#e2e2e2" stroke="#ccc" opacity="0.6"></circle><polyline stroke-linecap="round" stroke="#ccc" points="255,501 270,503 274,505 281,508 298,510 311,513 318,516 324,518 326,520 335,522 348,523 353,524 354,525 369,525 367,526 377,527 389,527 401,527 412,528 425,528 431,529 452,530 466,531 465,532 471,533 487,534 504,535 513,535 531,535 542,536 553,536 576,536 594,536 605,537 618,537 622,537 616,538 624,538 638,538 653,539 668,539 681,539 703,540 718,540 735,540 745,541" fill="none" stroke-width="0.5041141797209735" opacity="0.6"></polyline><polygon points="743.7958858202791,547.7958858202791 745,539.7958858202791 746.204114179721,542.204114179721" transform="rotate(95.71059395087858, 745, 541)" cx="745" cy="541" r="1.2041141797209736" fill="#e2e2e2" stroke="#ccc" stroke-width="0.2" opacity="0.6"></polygon></g><g class="key-Denmark_0"><circle cx="264" cy="505" r="1.1752308321630094" fill="#e2e2e2" stroke="#ccc" opacity="0.6"></circle><polyline stroke-linecap="round" stroke="#ccc" points="264,505 273,510 274,513 290,515 292,517 302,519 301,521 308,522 320,523 318,524 321,525 332,525 333,525 329,525 339,525 343,525 355,525 359,525 357,526 359,527 358,528 364,530 375,531 382,532 378,533 388,534 393,535 390,535 433,536 435,536 453,536 465,536 474,537 489,537 502,538 521,538 530,539 534,540 563,540 556,540 549,541 549,541 548,541 563,541 569,542" fill="none" stroke-width="0.48260687254553203" opacity="0.6"></polyline><polygon points="567.8173931274545,548.8173931274545 569,540.8173931274545 570.1826068725455,543.1826068725455" transform="rotate(99.46232305328793, 569, 542)" cx="569" cy="542" r="1.182606872545532" fill="#e2e2e2" stroke="#ccc" stroke-width="0.2" opacity="0.6"></polygon></g><g class="key-Finland_0"><circle cx="153" cy="507" r="1.1716327934805975" fill="#e2e2e2" stroke="#ccc" opacity="0.6"></circle><polyline stroke-linecap="round" stroke="#ccc" points="153,507 160,509 168,511 172,513 173,515 185,518 192,520 196,522 198,524 204,526 209,527 213,529 219,530 225,530 230,531 246,531 253,531 262,531 266,532 277,532 293,533 310,534 306,535 284,535 276,536 286,537 297,538 299,538 301,539 310,539 325,540 337,540 356,540 373,540 389,541 405,541 417,541 426,542 438,542 439,543 448,543 459,543 466,544 470,544 466,545 473,545" fill="none" stroke-width="0.4805577247636781" opacity="0.6"></polyline><polygon points="471.8194422752363,551.8194422752363 473,543.8194422752363 474.1805577247637,546.1805577247636" transform="rotate(90.0000007648485, 473, 545)" cx="473" cy="545" r="1.180557724763678" fill="#e2e2e2" stroke="#ccc" stroke-width="0.2" opacity="0.6"></polygon></g><g class="key-Norway_0"><circle cx="163" cy="507" r="1.163217585375496" fill="#e2e2e2" stroke="#ccc" opacity="0.6"></circle><polyline stroke-linecap="round" stroke="#ccc" points="163,507 174,508 187,510 196,512 200,514 215,516 224,518 236,520 258,521 253,523 262,523 267,524 273,524 286,524 285,523 294,523 300,523 307,523 305,524 304,526 349,527 365,530 374,531 376,533 381,535 388,536 407,536 451,537 474,537 495,538 515,538 530,538 571,539 585,539 597,540 607,540 609,541 622,541 643,542 655,542 653,543 670,543 682,543 689,544 708,544 730,544" fill="none" stroke-width="0.4759278915282019" opacity="0.6"></polyline><polygon points="728.8240721084718,550.8240721084718 730,542.8240721084718 731.1759278915282,545.1759278915282" transform="rotate(90.0000007648485, 730, 544)" cx="730" cy="544" r="1.1759278915282019" fill="#e2e2e2" stroke="#ccc" stroke-width="0.2" opacity="0.6"></polygon></g><g class="key-Ireland_0"><circle cx="127" cy="490" r="1.1519992937323953" fill="#e2e2e2" stroke="#ccc" opacity="0.6"></circle><polyline stroke-linecap="round" stroke="#ccc" points="127,490 140,491 144,492 148,493 157,494 162,496 160,499 161,502 172,505 179,509 193,512 188,515 188,517 187,519 188,521 192,522 190,523 190,523 191,524 190,525 197,526 209,528 219,529 224,530 230,531 240,531 249,531 264,531 272,531 289,531 322,532 355,532 380,533 402,535 421,536 458,537 464,538 490,539 540,539 577,540 580,540 556,540 567,540 590,541 598,541 596,541" fill="none" stroke-width="0.4719186445288507" opacity="0.6"></polyline><polygon points="594.8280813554711,547.8280813554711 596,539.8280813554711 597.1719186445288,542.1719186445288" transform="rotate(-90.0000007648485, 596, 541)" cx="596" cy="541" r="1.1719186445288508" fill="#e2e2e2" stroke="#ccc" stroke-width="0.2" opacity="0.6"></polygon></g><g class="key-New-Zealand_0"><circle cx="176" cy="494" r="1.1501636212904442" fill="#e2e2e2" stroke="#ccc" opacity="0.6"></circle><polyline stroke-linecap="round" stroke="#ccc" points="176,494 177,495 181,496 192,498 212,499 219,501 208,502 208,504 218,505 210,507 200,508 203,509 207,510 206,511 204,512 195,513 200,514 207,516 224,517 228,519 237,520 240,522 243,524 245,525 252,526 258,527 259,528 268,529 280,530 287,530 292,531 303,531 321,532 321,532 332,533 350,533 366,533 364,534 385,534 406,534 405,534 408,535 420,535 413,535 417,535 424,536" fill="none" stroke-width="0.4705270115487266" opacity="0.6"></polyline><polygon points="422.8294729884513,542.8294729884512 424,534.8294729884512 425.17052701154876,537.1705270115486" transform="rotate(98.13010318809667, 424, 536)" cx="424" cy="536" r="1.1705270115487267" fill="#e2e2e2" stroke="#ccc" stroke-width="0.2" opacity="0.6"></polygon></g><g class="key-Latvia_0"><circle cx="115" cy="486" r="1.1458853537271172" fill="#e2e2e2" stroke="#ccc" opacity="0.6"></circle><polyline stroke-linecap="round" stroke="#ccc" points="115,486 121,488 128,492 132,496 138,500 138,504 146,507 153,510 157,512 172,514 177,517 189,519 203,521 196,522 190,524 188,525 186,527 189,527 193,528 199,529 205,530" fill="none" stroke-width="0.44231812889477895" opacity="0.6"></polyline><polygon points="203.85768187110523,536.8576818711052 205,528.8576818711052 206.1423181288948,531.1423181288948" transform="rotate(99.46232305328793, 205, 530)" cx="205" cy="530" r="1.142318128894779" fill="#e2e2e2" stroke="#ccc" stroke-width="0.2" opacity="0.6"></polygon></g><g class="key-Slovenia_0"><circle cx="214" cy="531" r="1.1387397444302758" fill="#e2e2e2" stroke="#ccc" opacity="0.6"></circle><polyline stroke-linecap="round" stroke="#ccc" points="214,531 222,532 233,533 240,534 248,535 266,536 279,537 276,538 284,538 289,539 299,540 306,540 311,541 331,541 330,542 332,542 333,543 331,543 328,544 329,544 331,544" fill="none" stroke-width="0.43983040590173306" opacity="0.6"></polyline><polygon points="329.8601695940983,550.8601695940982 331,542.8601695940982 332.13983040590176,545.1398304059016" transform="rotate(90.0000007648485, 331, 544)" cx="331" cy="544" r="1.139830405901733" fill="#e2e2e2" stroke="#ccc" stroke-width="0.2" opacity="0.6"></polygon></g><g class="key-Estonia_0"><circle cx="152" cy="518" r="1.1303130406965685" fill="#e2e2e2" stroke="#ccc" opacity="0.6"></circle><polyline stroke-linecap="round" stroke="#ccc" points="152,518 152,521 151,523 156,525 166,528 177,530 185,531 197,533 211,535 221,536 218,537 217,539 216,540 224,541 232,542 241,543 248,543" fill="none" stroke-width="0.4297012836471171" opacity="0.6"></polyline><polygon points="246.8702987163529,549.8702987163529 248,541.8702987163529 249.12970128364714,544.1297012836471" transform="rotate(90.0000007648485, 248, 543)" cx="248" cy="543" r="1.1297012836471172" fill="#e2e2e2" stroke="#ccc" stroke-width="0.2" opacity="0.6"></polygon></g><g class="key-Luxembourg_0"><circle cx="438" cy="534" r="1.1149812484908417" fill="#e2e2e2" stroke="#ccc" opacity="0.6"></circle><polyline stroke-linecap="round" stroke="#ccc" points="438,534 445,535 458,536 483,536 521,537 582,538 640,539 686,540 708,540 761,541 759,542 740,542 736,543 753,544 788,544 783,545 696,545 717,546 714,546 713,546 823,546" fill="none" stroke-width="0.41702318936366667" opacity="0.6"></polyline><polygon points="821.8829768106364,552.8829768106364 823,544.8829768106364 824.1170231893637,547.1170231893637" transform="rotate(90.0000007648485, 823, 546)" cx="823" cy="546" r="1.1170231893636666" fill="#e2e2e2" stroke="#ccc" stroke-width="0.2" opacity="0.6"></polygon></g><g class="key-Iceland_0"><circle cx="144" cy="508" r="1.1115077572595482" fill="#e2e2e2" stroke="#ccc" opacity="0.6"></circle><polyline stroke-linecap="round" stroke="#ccc" points="144,508 161,509 163,511 160,513 177,514 185,516 184,518 192,520 208,521 232,523 227,524 235,526 245,527 255,528 250,529 261,530 285,531 307,532 321,532 313,533 303,534 305,534 301,535 304,536 305,536 308,537 319,538 326,538 366,539 390,540 405,540 408,541 434,541 459,542 466,542 467,543 462,543 480,544 480,544 474,544 448,545 447,545 452,545 466,546 473,546 483,546" fill="none" stroke-width="0.41370399857380985" opacity="0.6"></polyline><polygon points="481.8862960014262,552.8862960014262 483,544.8862960014262 484.11370399857384,547.1137039985738" transform="rotate(90.0000007648485, 483, 546)" cx="483" cy="546" r="1.1137039985738098" fill="#e2e2e2" stroke="#ccc" stroke-width="0.2" opacity="0.6"></polygon></g><text x="468.2766153889104" y="544" font-size="12.307804602587446" font-family="Arial Narrow, Arial, sans-serif" fill="#aaa">Japan</text><text x="179.1602514716892" y="523.8814383969698" font-size="12.2158748316872" font-family="Arial Narrow, Arial, sans-serif" fill="#aaa">Mexico</text><text x="402.4721359549996" y="546.6" font-size="11.63122511736643" font-family="Arial Narrow, Arial, sans-serif" fill="#aaa">Italy</text><text x="244" y="537" font-size="11.395299951573946" font-family="Arial Narrow, Arial, sans-serif" fill="#aaa">Poland</text><text x="332" y="541" font-size="11.108866268845825" font-family="Arial Narrow, Arial, sans-serif" fill="#aaa">Portugal</text><text x="569.9497474683059" y="546.6" font-size="11.085401153725625" font-family="Arial Narrow, Arial, sans-serif" fill="#aaa">Austria</text><text x="291.8565768829532" y="540" font-size="11.078948211039503" font-family="Arial Narrow, Arial, sans-serif" fill="#aaa">Israel</text><text x="209.93196961916072" y="536.3324775949726" font-size="11.020965316891505" font-family="Arial Narrow, Arial, sans-serif" fill="#aaa">Latvia</text><g class="key-United-States_0"><defs><marker id="key-United-States_0-arrow-361" fill="#4d824b" viewBox="0 -5 10 10" refX="5" refY="0" marker-width="4" marker-height="4" orient="auto"><path d="M0,-5L10,0L0,5"></path></marker><marker id="key-United-States_0-circle-361" viewBox="0 0 12 12" refX="4" refY="4" orient="auto" fill="#4d824b"><circle cx="4" cy="4" r="4"></circle></marker></defs><circle cx="230" cy="487" r="3.8920620580763856" fill="none" stroke="#4d824b" opacity="0.6"></circle><polyline stroke-linecap="round" stroke="#4d824b" points="230,487 237,489 248,492 257,494 263,497 270,499 286,502 302,504 311,506 320,508 332,510 346,512 360,513 374,514 392,515 411,516 426,517 444,518 471,518 496,519 525,520 546,521 567,522 584,523 595,524 608,525 620,526 634,527 653,527 674,528 697,528 731,528 776,529 816,529 841,529 860,529 880,530 900,530 912,530 936,531 953,531 962,531 973,532 979,532 1006,533 1041,533" fill="none" stroke-width="2.8920620580763856" opacity="1" marker-start="url(#key-United-States_0-circle-361)" marker-mid="url(#key-United-States_0-circle-361)" marker-end="url(#key-United-States_0-arrow-361)"></polyline></g><text x="207.03238026179588" y="485.62639436051313" font-size="9" font-family="Arial Narrow, Arial, sans-serif" fill="#333">1970</text><text x="237" y="489" font-size="9" font-family="Arial Narrow, Arial, sans-serif" fill="#333">1971</text><text x="228.50178068106953" y="501.3175895481497" font-size="9" font-family="Arial Narrow, Arial, sans-serif" fill="#333">1972</text><text x="271.79489539654435" y="494.3332719689847" font-size="9" font-family="Arial Narrow, Arial, sans-serif" fill="#333">1975</text><text x="266.77785177834477" y="511.385881819614" font-size="9" font-family="Arial Narrow, Arial, sans-serif" fill="#333">1976</text><text x="311.7899525055334" y="501.06279684041647" font-size="9" font-family="Arial Narrow, Arial, sans-serif" fill="#333">1978</text><text x="312.90443946055" y="519.4116928321124" font-size="9" font-family="Arial Narrow, Arial, sans-serif" fill="#333">1980</text><text x="346.7602859212697" y="507.0581415117469" font-size="9" font-family="Arial Narrow, Arial, sans-serif" fill="#333">1981</text><text x="374.3562352499396" y="509.0127065008463" font-size="9" font-family="Arial Narrow, Arial, sans-serif" fill="#333">1983</text><text x="392.570123709925" y="525.4927113663875" font-size="9" font-family="Arial Narrow, Arial, sans-serif" fill="#333">1985</text><text x="426.29361010975737" y="512.008628134125" font-size="9" font-family="Arial Narrow, Arial, sans-serif" fill="#333">1986</text><text x="425.53752469799053" y="527.4908424831559" font-size="9" font-family="Arial Narrow, Arial, sans-serif" fill="#333">1987</text><text x="452.72891631357425" y="527.498765889158" font-size="9" font-family="Arial Narrow, Arial, sans-serif" fill="#333">1988</text><text x="477.74386392884327" y="528.4990757001492" font-size="9" font-family="Arial Narrow, Arial, sans-serif" fill="#333">1989</text><text x="506.6549416974506" y="529.4965741688338" font-size="9" font-family="Arial Narrow, Arial, sans-serif" fill="#333">1990</text><text x="527.6401598082557" y="530.4960047936089" font-size="9" font-family="Arial Narrow, Arial, sans-serif" fill="#333">1991</text><text x="567.2378257470773" y="517.0056593113778" font-size="9" font-family="Arial Narrow, Arial, sans-serif" fill="#333">1992</text><text x="595.3562352499396" y="519.0127065008463" font-size="9" font-family="Arial Narrow, Arial, sans-serif" fill="#333">1994</text><text x="589.4247726007313" y="534.4827287912244" font-size="9" font-family="Arial Narrow, Arial, sans-serif" fill="#333">1995</text><text x="620.3987261114145" y="521.0159236073193" font-size="9" font-family="Arial Narrow, Arial, sans-serif" fill="#333">1996</text><text x="615.4565175055764" y="536.4852724275079" font-size="9" font-family="Arial Narrow, Arial, sans-serif" fill="#333">1997</text><text x="674.124960955801" y="523.0015617679594" font-size="9" font-family="Arial Narrow, Arial, sans-serif" fill="#333">1999</text><text x="678.7263929732336" y="537.4987091777247" font-size="9" font-family="Arial Narrow, Arial, sans-serif" fill="#333">2000</text><text x="731" y="537.5" font-size="9" font-family="Arial Narrow, Arial, sans-serif" fill="#333">2001</text><text x="757.7767139307431" y="538.4995994713015" font-size="9" font-family="Arial Narrow, Arial, sans-serif" fill="#333">2002</text><text x="816.0588194590018" y="524.0003459848463" font-size="9" font-family="Arial Narrow, Arial, sans-serif" fill="#333">2003</text><text x="841" y="538.5" font-size="9" font-family="Arial Narrow, Arial, sans-serif" fill="#333">2004</text><text x="861.7118369960373" y="539.4983571545474" font-size="9" font-family="Arial Narrow, Arial, sans-serif" fill="#333">2006</text><text x="900.124960955801" y="525.0015617679594" font-size="9" font-family="Arial Narrow, Arial, sans-serif" fill="#333">2007</text><text x="912" y="539.5" font-size="9" font-family="Arial Narrow, Arial, sans-serif" fill="#333">2008</text><text x="987.6885543667962" y="542.4977058957269" font-size="9" font-family="Arial Narrow, Arial, sans-serif" fill="#333">2014</text><text x="944.093" y="533" font-size="16.900000000000002" font-family="Arial Narrow, Arial, sans-serif" fill="#333">United States</text></g><g style="cursor: pointer;" class="ScatterColorLegend clickable"><g fill="#ccc" class="legendMark"><rect x="1061.4560000000001" y="32.5" width="45.76" height="21.799999999999997" fill="#fff" opacity="0"></rect>,<rect x="1061.4560000000001" y="39" width="8" height="8"></rect>,<text font-size="16.80" x="1074.5" y="48.4"><tspan x="1074.4560000000001" y="48.44">Asia</tspan></text></g><g fill="#ccc" class="legendMark"><rect x="1061.4560000000001" y="54.3" width="67.43199999999999" height="21.799999999999997" fill="#fff" opacity="0"></rect>,<rect x="1061.4560000000001" y="60.8" width="8" height="8"></rect>,<text font-size="16.80" x="1074.5" y="70.2"><tspan x="1074.4560000000001" y="70.24">Europe</tspan></text></g><g class="legendMark"><rect x="1061.4560000000001" y="76.1" width="120.51999999999998" height="21.799999999999997" fill="#fff" opacity="0"></rect>,<rect x="1061.4560000000001" y="82.6" width="8" height="8" fill="#4d824b"></rect>,<text font-size="16.80" x="1074.5" y="92.0"><tspan x="1074.4560000000001" y="92.03999999999999">North America</tspan></text></g><g fill="#ccc" class="legendMark"><rect x="1061.4560000000001" y="97.89999999999999" width="75.832" height="21.799999999999997" fill="#fff" opacity="0"></rect>,<rect x="1061.4560000000001" y="104.39999999999999" width="8" height="8"></rect>,<text font-size="16.80" x="1074.5" y="113.8"><tspan x="1074.4560000000001" y="113.83999999999999">Oceania</tspan></text></g><g fill="#ccc" class="legendMark"><rect x="1061.4560000000001" y="119.69999999999999" width="123.54399999999998" height="21.799999999999997" fill="#fff" opacity="0"></rect>,<rect x="1061.4560000000001" y="126.19999999999999" width="8" height="8"></rect>,<text font-size="16.80" x="1074.5" y="135.6"><tspan x="1074.4560000000001" y="135.64">South America</tspan></text></g></g><line x1="1061.4560000000001" y1="146" x2="1180" y2="146" stroke="#ccc"></line><g class="clickable"><g class="ConnectedScatterLegend"><rect x="1061.4560000000001" y="155" width="123.54399999999998" height="16.799999999999997" fill="#fff" opacity="0"></rect><text font-size="16.80" x="1061.5" y="168.4" fill="#333"><tspan x="1061.4560000000001" y="168.44">1970</tspan></text><text font-size="16.80" x="1147.4" y="168.4" fill="#333"><tspan x="1147.368" y="168.44">2015</tspan></text><line x1="1104.0880000000002" y1="162.9" x2="1142.368" y2="162.9" stroke="#666" stroke-width="1"></line><circle cx="1104.0880000000002" cy="162.9" r="2" fill="#666" stroke="#ccc" stroke-width="0.2"></circle><circle cx="1116.8480000000002" cy="162.9" r="2" fill="#666" stroke="#ccc" stroke-width="0.2"></circle><circle cx="1129.608" cy="162.9" r="2" fill="#666" stroke="#ccc" stroke-width="0.2"></circle><polygon points="1139.368,167.9 1142.368,159.9 1145.368,165.9" cx="1142.368" cy="162.9" r="3" fill="#666" stroke="#ccc" stroke-width="0.2" transform="rotate(90, 1142.368, 162.9)"></polygon></g></g><g class="scatterTooltip"><text font-size="18.00" x="1061.5" y="196.2"><tspan x="1061.4560000000001" y="196.20000000000002">United States</tspan></text><text font-size="15.60" x="1061.5" y="217.3"><tspan x="1061.4560000000001" y="217.28">1970</tspan></text><text font-size="13.20" x="1061.5" y="231.0"><tspan x="1061.4560000000001" y="230.95999999999998">Y Axis: 23.3 per</tspan><tspan x="1061.4560000000001" y="245.48">1,000</tspan></text><text font-size="13.20" x="1061.5" y="258.5"><tspan x="1061.4560000000001" y="258.46000000000004">X Axis: 1,452.59</tspan><tspan x="1061.4560000000001" y="272.98">2010 int-$</tspan></text><text font-size="15.60" x="1061.5" y="292.9"><tspan x="1061.4560000000001" y="292.88000000000005">2015</tspan></text><text font-size="13.20" x="1061.5" y="306.6"><tspan x="1061.4560000000001" y="306.56">Y Axis: 6.5 per 1,000</tspan></text><text font-size="13.20" x="1061.5" y="319.8"><tspan x="1061.4560000000001" y="319.76000000000005">X Axis: 8,714.9 2010</tspan><tspan x="1061.4560000000001" y="334.28000000000003">int-$</tspan></text></g></g></g></svg>