<svg xmlns="http://www.w3.org/2000/svg" version="1.1" style="font-family: 'Helvetica Neue', Helvetica, Arial, sans-serif; font-size: 24px; background-color: white;" width="1200" height="630"><g class="ChartTab"><g class="StackedArea"><defs><clipPath id="boundsClip-461"><rect x="75.512" y="0" width="1170" height="1130"></rect></clipPath></defs><g class="AxisBoxView"><g class="HorizontalAxis"><text x="75.5" y="600" fill="#666" text-anchor="middle" font-size="21.6">1885</text><text x="189.2" y="600" fill="#666" text-anchor="middle" font-size="21.6">1900</text><text x="340.7" y="600" fill="#666" text-anchor="middle" font-size="21.6">1920</text><text x="492.2" y="600" fill="#666" text-anchor="middle" font-size="21.6">1940</text><text x="643.8" y="600" fill="#666" text-anchor="middle" font-size="21.6">1960</text><text x="795.3" y="600" fill="#666" text-anchor="middle" font-size="21.6">1980</text><text x="946.9" y="600" fill="#666" text-anchor="middle" font-size="21.6">2000</text><text x="1030.2" y="600" fill="#666" text-anchor="middle" font-size="21.6">2011</text></g><g class="VerticalAxis"><text x="70.51" y="573.4" fill="#666" dominant-baseline="middle" text-anchor="end" font-size="21.6">0%</text><text x="70.51" y="465.7" fill="#666" dominant-baseline="middle" text-anchor="end" font-size="21.6">20%</text><text x="70.51" y="358.1" fill="#666" dominant-baseline="middle" text-anchor="end" font-size="21.6">40%</text><text x="70.51" y="250.4" fill="#666" dominant-baseline="middle" text-anchor="end" font-size="21.6">60%</text><text x="70.51" y="142.7" fill="#666" dominant-baseline="middle" text-anchor="end" font-size="21.6">80%</text><text x="70.51" y="35.1" fill="#666" dominant-baseline="middle" text-anchor="end" font-size="21.6">100%</text></g><g class="AxisGridLines"><line x1="75.51" y1="573.4" x2="1030.22" y2="573.4" stroke="#ccc"></line><line x1="75.51" y1="465.7" x2="1030.22" y2="465.7" stroke="#ddd" stroke-dasharray="3,2"></line><line x1="75.51" y1="358.1" x2="1030.22" y2="358.1" stroke="#ddd" stroke-dasharray="3,2"></line><line x1="75.51" y1="250.4" x2="1030.22" y2="250.4" stroke="#ddd" stroke-dasharray="3,2"></line><line x1="75.51" y1="142.7" x2="1030.22" y2="142.7" stroke="#ddd" stroke-dasharray="3,2"></line><line x1="75.51" y1="35.1" x2="1030.22" y2="35.1" stroke="#ddd" stroke-dasharray="3,2"></line></g><g class="AxisGridLines"><line x1="189.2" y1="573.40" x2="189.2" y2="35.00" stroke="#ddd" stroke-dasharray="3,2"></line><line x1="340.7" y1="573.40" x2="340.7" y2="35.00" stroke="#ddd" stroke-dasharray="3,2"></line><line x1="492.2" y1="573.40" x2="492.2" y2="35.00" stroke="#ddd" stroke-dasharray="3,2"></line><line x1="643.8" y1="573.40" x2="643.8" y2="35.00" stroke="#ddd" stroke-dasharray="3,2"></line><line x1="795.3" y1="573.40" x2="795.3" y2="35.00" stroke="#ddd" stroke-dasharray="3,2"></line><line x1="946.9" y1="573.40" x2="946.9" y2="35.00" stroke="#ddd" stroke-dasharray="3,2"></line></g></g><g clip-path="url(#boundsClip-461)"><g class="HeightedLegend clickable"><g class="legendMark"><rect x="1035.216" y="452.69999999999993" width="143.448" height="120.70000000000002" fill="#fff" opacity="0"></rect><rect x="1035.216" y="511.79999999999995" width="10" height="2.5" fill="#3360a9"></rect><text font-size="19.20" x="1050.2" y="468.1" fill="#333"><tspan x="1050.216" y="468.05999999999995">Share of</tspan><tspan x="1050.216" y="489.17999999999995">agriculture in</tspan><tspan x="1050.216" y="510.29999999999995">GDP at current</tspan><tspan x="1050.216" y="531.42">prices</tspan><tspan x="1050.216" y="552.54">(Herrendorf et</tspan><tspan x="1050.216" y="573.66">al. data)</tspan></text></g><g class="legendMark"><rect x="1035.216" y="331.99999999999994" width="149.78400000000002" height="120.70000000000002" fill="#fff" opacity="0"></rect><rect x="1035.216" y="391.09999999999997" width="10" height="2.5" fill="#34983f"></rect><text font-size="19.20" x="1050.2" y="347.4" fill="#333"><tspan x="1050.216" y="347.35999999999996">Share of</tspan><tspan x="1050.216" y="368.47999999999996">industry in GDP</tspan><tspan x="1050.216" y="389.59999999999997">at current</tspan><tspan x="1050.216" y="410.71999999999997">prices</tspan><tspan x="1050.216" y="431.84">(Herrendorf et</tspan><tspan x="1050.216" y="452.96">al. data)</tspan></text></g><g class="legendMark"><rect x="1035.216" y="162.84999999999997" width="143.448" height="120.70000000000002" fill="#fff" opacity="0"></rect><rect x="1035.216" y="221.95" width="10" height="2.5" fill="#ffd53e"></rect><text font-size="19.20" x="1050.2" y="178.2" fill="#333"><tspan x="1050.216" y="178.20999999999995">Share of</tspan><tspan x="1050.216" y="199.32999999999996">services in</tspan><tspan x="1050.216" y="220.44999999999996">GDP at current</tspan><tspan x="1050.216" y="241.56999999999996">prices</tspan><tspan x="1050.216" y="262.68999999999994">(Herrendorf et</tspan><tspan x="1050.216" y="283.80999999999995">al. data)</tspan></text></g></g><g class="Areas"><rect x="75.512" y="35" width="954.704" height="538.4" opacity="0" fill="rgba(255,255,255,0)"></rect><path stroke-linecap="round" d="M75.5 342.2L83.1 346.8L90.7 358L98.2 366.9L105.8 372.5L113.4 325.5L121 347.2L128.6 346.4L136.1 354.7L143.7 341.2L151.3 354.2L158.9 367.5L166.4 374.5L174 339.6L181.6 370.8L189.2 370.3L196.7 370.7L204.3 381.2L211.9 361.6L219.5 365.8L227.1 404L234.6 388.7L242.2 377.8L249.8 380.9L257.4 397.4L264.9 407.4L272.5 384.4L280.1 376.1L287.7 379.9L295.2 409.2L302.8 423.9L310.4 429.7L318 424.5L325.6 403.4L333.1 384.7L340.7 414.5L348.3 421L355.9 438.2L363.4 434.1L371 429.9L378.6 428.5L386.2 446.2L393.7 447.7L401.3 460.8L408.9 463.3L416.5 484.2L424.1 490L431.6 480L439.2 472.5L446.8 486.2L454.4 480.2L461.9 475.7L469.5 477.4L477.1 486.1L484.7 470L492.2 474.8L590.7 481.2L598.3 481.1L605.9 474.5L613.5 489.2L621.1 493.1L628.6 495.9L636.2 500.1L643.8 507.6L651.4 512L658.9 514.9L666.5 518.9L674.1 524.5L681.7 524.4L689.3 526.5L696.8 527.3L704.4 532.6L712 537.3L719.6 542.8L727.1 546.8L734.7 546.1L742.3 544.1L749.9 545.9L757.4 546.3L765 547.1L772.6 548.1L780.2 550.2L787.8 551.5L795.3 554.9L802.9 555.6L810.5 556.1L818.1 556.3L825.6 556.5L833.2 556.9L840.8 557.8L848.4 558.8L855.9 559.6L863.5 559.9L871.1 560.3L878.7 561.1L886.3 561.5L893.8 562.3L901.4 561.9L909 563L916.6 562.7L924.1 563.5L931.7 563L939.3 563.2L946.9 563.7L954.4 564L962 563.9L969.6 564.1L977.2 564.5L984.8 565.1L992.3 565.3L999.9 565.4L1007.5 565.3L1015.1 565.2L1022.6 565.1L1030.2 565.2L1030.216 573.4L75.512 573.4" fill="#3360a9" fill-opacity="0.7" class="Japan_2-area"></path><path stroke-linecap="round" d="M75.5 267.2L83.1 267L90.7 268.2L98.2 273.5L105.8 269.1L113.4 246.9L121 262.3L128.6 263.6L136.1 264.8L143.7 255.5L151.3 260.5L158.9 261L166.4 259.5L174 238.1L181.6 249.7L189.2 260.1L196.7 260L204.3 272L211.9 258.5L219.5 269.9L227.1 293.9L234.6 268.3L242.2 248.1L249.8 258.7L257.4 267.4L264.9 271L272.5 261.1L280.1 252.5L287.7 247.3L295.2 263.6L302.8 262.8L310.4 254.2L318 247.3L325.6 219.7L333.1 220.7L340.7 253.7L348.3 271.1L355.9 281L363.4 277.4L371 274.6L378.6 273.6L386.2 288L393.7 285L401.3 288.7L408.9 280.6L416.5 301.2L424.1 304.5L431.6 293.1L439.2 283.3L446.8 288.5L454.4 274.3L461.9 263.1L469.5 255.3L477.1 238.2L484.7 216.7L492.2 215.6L590.7 283.6L598.3 293.4L605.9 298.4L613.5 297.9L621.1 297.1L628.6 305.9L636.2 302.2L643.8 296.5L651.4 298.1L658.9 305.2L666.5 307.9L674.1 311.1L681.7 318.1L689.3 324.4L696.8 319.8L704.4 321.2L712 319.6L719.6 319.8L727.1 326L734.7 328.3L742.3 324.4L749.9 335.8L757.4 349.2L765 350.5L772.6 355.3L780.2 355.2L787.8 356.1L795.3 360.8L802.9 360.2L810.5 363.4L818.1 367.6L825.6 364.1L833.2 363.4L840.8 367.5L848.4 369.2L855.9 367.3L863.5 366.4L871.1 363.9L878.7 363.5L886.3 366.2L893.8 369.9L901.4 374.8L909 376.5L916.6 377.8L924.1 380.2L931.7 384.9L939.3 388.7L946.9 390.2L954.4 398.5L962 402.2L969.6 401.9L977.2 400.1L984.8 401L992.3 402.5L999.9 401.5L1007.5 405.1L1015.1 415L1022.6 405.9L1030.2 411.4L1030.2 565.2L1022.6 565.1L1015.1 565.2L1007.5 565.3L999.9 565.4L992.3 565.3L984.8 565.1L977.2 564.5L969.6 564.1L962 563.9L954.4 564L946.9 563.7L939.3 563.2L931.7 563L924.1 563.5L916.6 562.7L909 563L901.4 561.9L893.8 562.3L886.3 561.5L878.7 561.1L871.1 560.3L863.5 559.9L855.9 559.6L848.4 558.8L840.8 557.8L833.2 556.9L825.6 556.5L818.1 556.3L810.5 556.1L802.9 555.6L795.3 554.9L787.8 551.5L780.2 550.2L772.6 548.1L765 547.1L757.4 546.3L749.9 545.9L742.3 544.1L734.7 546.1L727.1 546.8L719.6 542.8L712 537.3L704.4 532.6L696.8 527.3L689.3 526.5L681.7 524.4L674.1 524.5L666.5 518.9L658.9 514.9L651.4 512L643.8 507.6L636.2 500.1L628.6 495.9L621.1 493.1L613.5 489.2L605.9 474.5L598.3 481.1L590.7 481.2L492.2 474.8L484.7 470L477.1 486.1L469.5 477.4L461.9 475.7L454.4 480.2L446.8 486.2L439.2 472.5L431.6 480L424.1 490L416.5 484.2L408.9 463.3L401.3 460.8L393.7 447.7L386.2 446.2L378.6 428.5L371 429.9L363.4 434.1L355.9 438.2L348.3 421L340.7 414.5L333.1 384.7L325.6 403.4L318 424.5L310.4 429.7L302.8 423.9L295.2 409.2L287.7 379.9L280.1 376.1L272.5 384.4L264.9 407.4L257.4 397.4L249.8 380.9L242.2 377.8L234.6 388.7L227.1 404L219.5 365.8L211.9 361.6L204.3 381.2L196.7 370.7L189.2 370.3L181.6 370.8L174 339.6L166.4 374.5L158.9 367.5L151.3 354.2L143.7 341.2L136.1 354.7L128.6 346.4L121 347.2L113.4 325.5L105.8 372.5L98.2 366.9L90.7 358L83.1 346.8L75.5 342.2" fill="#34983f" fill-opacity="0.7" class="Japan_1-area"></path><path stroke-linecap="round" d="M75.5 35.1L83.1 35.1L90.7 35.1L98.2 35.1L105.8 35.1L113.4 35.1L121 35.1L128.6 35.1L136.1 35.1L143.7 35.1L151.3 35.1L158.9 35.1L166.4 35.1L174 35.1L181.6 35.1L189.2 35.1L196.7 35.1L204.3 35.1L211.9 35.1L219.5 35.1L227.1 35.1L234.6 35.1L242.2 35.1L249.8 35.1L257.4 35L264.9 35.1L272.5 35.1L280.1 35.1L287.7 35.1L295.2 35.1L302.8 35.1L310.4 35L318 35.1L325.6 35.1L333.1 35.1L340.7 35.1L348.3 35.1L355.9 35L363.4 35.1L371 35.1L378.6 35.1L386.2 35.1L393.7 35.1L401.3 35.1L408.9 35L416.5 35.1L424.1 35L431.6 35.1L439.2 35.1L446.8 35.1L454.4 35.1L461.9 35.1L469.5 35.1L477.1 35.1L484.7 35.1L492.2 35.1L590.7 35.1L598.3 35.1L605.9 35.1L613.5 35.1L621.1 35.1L628.6 35.1L636.2 35.1L643.8 35.1L651.4 35.1L658.9 35.1L666.5 35L674.1 35.1L681.7 35.1L689.3 35.1L696.8 35.1L704.4 35.1L712 35.1L719.6 35.1L727.1 35.1L734.7 35.1L742.3 35.1L749.9 35.1L757.4 35.1L765 35.1L772.6 35.1L780.2 35.1L787.8 35.1L795.3 35.1L802.9 35.1L810.5 35L818.1 35.1L825.6 35.1L833.2 35.1L840.8 35.1L848.4 35.1L855.9 35.1L863.5 35L871.1 35.1L878.7 35.1L886.3 35.1L893.8 35.1L901.4 35.1L909 35.1L916.6 35.1L924.1 35L931.7 35.1L939.3 35.1L946.9 35L954.4 35.1L962 35.1L969.6 35L977.2 35.1L984.8 35.1L992.3 35.1L999.9 35.1L1007.5 35.1L1015.1 35.1L1022.6 35.1L1030.2 35.1L1030.2 411.4L1022.6 405.9L1015.1 415L1007.5 405.1L999.9 401.5L992.3 402.5L984.8 401L977.2 400.1L969.6 401.9L962 402.2L954.4 398.5L946.9 390.2L939.3 388.7L931.7 384.9L924.1 380.2L916.6 377.8L909 376.5L901.4 374.8L893.8 369.9L886.3 366.2L878.7 363.5L871.1 363.9L863.5 366.4L855.9 367.3L848.4 369.2L840.8 367.5L833.2 363.4L825.6 364.1L818.1 367.6L810.5 363.4L802.9 360.2L795.3 360.8L787.8 356.1L780.2 355.2L772.6 355.3L765 350.5L757.4 349.2L749.9 335.8L742.3 324.4L734.7 328.3L727.1 326L719.6 319.8L712 319.6L704.4 321.2L696.8 319.8L689.3 324.4L681.7 318.1L674.1 311.1L666.5 307.9L658.9 305.2L651.4 298.1L643.8 296.5L636.2 302.2L628.6 305.9L621.1 297.1L613.5 297.9L605.9 298.4L598.3 293.4L590.7 283.6L492.2 215.6L484.7 216.7L477.1 238.2L469.5 255.3L461.9 263.1L454.4 274.3L446.8 288.5L439.2 283.3L431.6 293.1L424.1 304.5L416.5 301.2L408.9 280.6L401.3 288.7L393.7 285L386.2 288L378.6 273.6L371 274.6L363.4 277.4L355.9 281L348.3 271.1L340.7 253.7L333.1 220.7L325.6 219.7L318 247.3L310.4 254.2L302.8 262.8L295.2 263.6L287.7 247.3L280.1 252.5L272.5 261.1L264.9 271L257.4 267.4L249.8 258.7L242.2 248.1L234.6 268.3L227.1 293.9L219.5 269.9L211.9 258.5L204.3 272L196.7 260L189.2 260.1L181.6 249.7L174 238.1L166.4 259.5L158.9 261L151.3 260.5L143.7 255.5L136.1 264.8L128.6 263.6L121 262.3L113.4 246.9L105.8 269.1L98.2 273.5L90.7 268.2L83.1 267L75.5 267.2" fill="#ffd53e" fill-opacity="0.7" class="Japan_0-area"></path><path stroke-linecap="round" d="M75.5 342.2L83.1 346.8L90.7 358L98.2 366.9L105.8 372.5L113.4 325.5L121 347.2L128.6 346.4L136.1 354.7L143.7 341.2L151.3 354.2L158.9 367.5L166.4 374.5L174 339.6L181.6 370.8L189.2 370.3L196.7 370.7L204.3 381.2L211.9 361.6L219.5 365.8L227.1 404L234.6 388.7L242.2 377.8L249.8 380.9L257.4 397.4L264.9 407.4L272.5 384.4L280.1 376.1L287.7 379.9L295.2 409.2L302.8 423.9L310.4 429.7L318 424.5L325.6 403.4L333.1 384.7L340.7 414.5L348.3 421L355.9 438.2L363.4 434.1L371 429.9L378.6 428.5L386.2 446.2L393.7 447.7L401.3 460.8L408.9 463.3L416.5 484.2L424.1 490L431.6 480L439.2 472.5L446.8 486.2L454.4 480.2L461.9 475.7L469.5 477.4L477.1 486.1L484.7 470L492.2 474.8L590.7 481.2L598.3 481.1L605.9 474.5L613.5 489.2L621.1 493.1L628.6 495.9L636.2 500.1L643.8 507.6L651.4 512L658.9 514.9L666.5 518.9L674.1 524.5L681.7 524.4L689.3 526.5L696.8 527.3L704.4 532.6L712 537.3L719.6 542.8L727.1 546.8L734.7 546.1L742.3 544.1L749.9 545.9L757.4 546.3L765 547.1L772.6 548.1L780.2 550.2L787.8 551.5L795.3 554.9L802.9 555.6L810.5 556.1L818.1 556.3L825.6 556.5L833.2 556.9L840.8 557.8L848.4 558.8L855.9 559.6L863.5 559.9L871.1 560.3L878.7 561.1L886.3 561.5L893.8 562.3L901.4 561.9L909 563L916.6 562.7L924.1 563.5L931.7 563L939.3 563.2L946.9 563.7L954.4 564L962 563.9L969.6 564.1L977.2 564.5L984.8 565.1L992.3 565.3L999.9 565.4L1007.5 565.3L1015.1 565.2L1022.6 565.1L1030.2 565.2" stroke="rgb(43, 80, 141)" stroke-opacity="0.7" stroke-width="0.5" fill="none" class="Japan_2-border"></path><path stroke-linecap="round" d="M75.5 267.2L83.1 267L90.7 268.2L98.2 273.5L105.8 269.1L113.4 246.9L121 262.3L128.6 263.6L136.1 264.8L143.7 255.5L151.3 260.5L158.9 261L166.4 259.5L174 238.1L181.6 249.7L189.2 260.1L196.7 260L204.3 272L211.9 258.5L219.5 269.9L227.1 293.9L234.6 268.3L242.2 248.1L249.8 258.7L257.4 267.4L264.9 271L272.5 261.1L280.1 252.5L287.7 247.3L295.2 263.6L302.8 262.8L310.4 254.2L318 247.3L325.6 219.7L333.1 220.7L340.7 253.7L348.3 271.1L355.9 281L363.4 277.4L371 274.6L378.6 273.6L386.2 288L393.7 285L401.3 288.7L408.9 280.6L416.5 301.2L424.1 304.5L431.6 293.1L439.2 283.3L446.8 288.5L454.4 274.3L461.9 263.1L469.5 255.3L477.1 238.2L484.7 216.7L492.2 215.6L590.7 283.6L598.3 293.4L605.9 298.4L613.5 297.9L621.1 297.1L628.6 305.9L636.2 302.2L643.8 296.5L651.4 298.1L658.9 305.2L666.5 307.9L674.1 311.1L681.7 318.1L689.3 324.4L696.8 319.8L704.4 321.2L712 319.6L719.6 319.8L727.1 326L734.7 328.3L742.3 324.4L749.9 335.8L757.4 349.2L765 350.5L772.6 355.3L780.2 355.2L787.8 356.1L795.3 360.8L802.9 360.2L810.5 363.4L818.1 367.6L825.6 364.1L833.2 363.4L840.8 367.5L848.4 369.2L855.9 367.3L863.5 366.4L871.1 363.9L878.7 363.5L886.3 366.2L893.8 369.9L901.4 374.8L909 376.5L916.6 377.8L924.1 380.2L931.7 384.9L939.3 388.7L946.9 390.2L954.4 398.5L962 402.2L969.6 401.9L977.2 400.1L984.8 401L992.3 402.5L999.9 401.5L1007.5 405.1L1015.1 415L1022.6 405.9L1030.2 411.4" stroke="rgb(44, 127, 53)" stroke-opacity="0.7" stroke-width="0.5" fill="none" class="Japan_1-border"></path><path stroke-linecap="round" d="M75.5 35.1L83.1 35.1L90.7 35.1L98.2 35.1L105.8 35.1L113.4 35.1L121 35.1L128.6 35.1L136.1 35.1L143.7 35.1L151.3 35.1L158.9 35.1L166.4 35.1L174 35.1L181.6 35.1L189.2 35.1L196.7 35.1L204.3 35.1L211.9 35.1L219.5 35.1L227.1 35.1L234.6 35.1L242.2 35.1L249.8 35.1L257.4 35L264.9 35.1L272.5 35.1L280.1 35.1L287.7 35.1L295.2 35.1L302.8 35.1L310.4 35L318 35.1L325.6 35.1L333.1 35.1L340.7 35.1L348.3 35.1L355.9 35L363.4 35.1L371 35.1L378.6 35.1L386.2 35.1L393.7 35.1L401.3 35.1L408.9 35L416.5 35.1L424.1 35L431.6 35.1L439.2 35.1L446.8 35.1L454.4 35.1L461.9 35.1L469.5 35.1L477.1 35.1L484.7 35.1L492.2 35.1L590.7 35.1L598.3 35.1L605.9 35.1L613.5 35.1L621.1 35.1L628.6 35.1L636.2 35.1L643.8 35.1L651.4 35.1L658.9 35.1L666.5 35L674.1 35.1L681.7 35.1L689.3 35.1L696.8 35.1L704.4 35.1L712 35.1L719.6 35.1L727.1 35.1L734.7 35.1L742.3 35.1L749.9 35.1L757.4 35.1L765 35.1L772.6 35.1L780.2 35.1L787.8 35.1L795.3 35.1L802.9 35.1L810.5 35L818.1 35.1L825.6 35.1L833.2 35.1L840.8 35.1L848.4 35.1L855.9 35.1L863.5 35L871.1 35.1L878.7 35.1L886.3 35.1L893.8 35.1L901.4 35.1L909 35.1L916.6 35.1L924.1 35L931.7 35.1L939.3 35.1L946.9 35L954.4 35.1L962 35.1L969.6 35L977.2 35.1L984.8 35.1L992.3 35.1L999.9 35.1L1007.5 35.1L1015.1 35.1L1022.6 35.1L1030.2 35.1" stroke="rgb(213, 178, 52)" stroke-opacity="0.7" stroke-width="0.5" fill="none" class="Japan_0-border"></path></g></g></g></g></svg>