<svg xmlns="http://www.w3.org/2000/svg" version="1.1" style="font-family: 'Helvetica Neue', Helvetica, Arial, sans-serif; font-size: 24px; background-color: white;" width="1200" height="630"><g class="ChartTab"><g><g class="AxisBoxView"><g class="HorizontalAxis"><text font-size="16.80" x="400.8" y="596.6"><tspan x="400.80000000000007" y="596.64">Share of women who are smoking</tspan></text><text x="270.2" y="573.2" fill="#666" text-anchor="middle" font-size="21.6">10%</text><text x="453.8" y="573.2" fill="#666" text-anchor="middle" font-size="21.6">20%</text><text x="637.5" y="573.2" fill="#666" text-anchor="middle" font-size="21.6">30%</text><text x="821.1" y="573.2" fill="#666" text-anchor="middle" font-size="21.6">40%</text><text x="1041.5" y="573.2" fill="#666" text-anchor="middle" font-size="21.6">52%</text></g><g class="VerticalAxis"><text font-size="16.80" x="-434.2" y="28.4" transform="rotate(-90)"><tspan x="-434.176" y="28.439999999999998">Share of men who are smoking</tspan></text><text x="85.22" y="546.6" fill="#666" dominant-baseline="middle" text-anchor="end" font-size="21.6">0%</text><text x="85.22" y="479.5" fill="#666" dominant-baseline="middle" text-anchor="end" font-size="21.6">10%</text><text x="85.22" y="412.3" fill="#666" dominant-baseline="middle" text-anchor="end" font-size="21.6">20%</text><text x="85.22" y="345.2" fill="#666" dominant-baseline="middle" text-anchor="end" font-size="21.6">30%</text><text x="85.22" y="278" fill="#666" dominant-baseline="middle" text-anchor="end" font-size="21.6">40%</text><text x="85.22" y="210.9" fill="#666" dominant-baseline="middle" text-anchor="end" font-size="21.6">50%</text><text x="85.22" y="143.8" fill="#666" dominant-baseline="middle" text-anchor="end" font-size="21.6">60%</text><text x="85.22" y="76.6" fill="#666" dominant-baseline="middle" text-anchor="end" font-size="21.6">70%</text></g><g class="AxisGridLines"><line x1="90.22" y1="546.6" x2="1041.46" y2="546.6" stroke="#ccc"></line><line x1="90.22" y1="479.5" x2="1041.46" y2="479.5" stroke="#ddd" stroke-dasharray="3,2"></line><line x1="90.22" y1="412.3" x2="1041.46" y2="412.3" stroke="#ddd" stroke-dasharray="3,2"></line><line x1="90.22" y1="345.2" x2="1041.46" y2="345.2" stroke="#ddd" stroke-dasharray="3,2"></line><line x1="90.22" y1="278" x2="1041.46" y2="278" stroke="#ddd" stroke-dasharray="3,2"></line><line x1="90.22" y1="210.9" x2="1041.46" y2="210.9" stroke="#ddd" stroke-dasharray="3,2"></line><line x1="90.22" y1="143.8" x2="1041.46" y2="143.8" stroke="#ddd" stroke-dasharray="3,2"></line><line x1="90.22" y1="76.6" x2="1041.46" y2="76.6" stroke="#ddd" stroke-dasharray="3,2"></line></g><g class="AxisGridLines"><line x1="270.2" y1="546.60" x2="270.2" y2="35.00" stroke="#ddd" stroke-dasharray="3,2"></line><line x1="453.8" y1="546.60" x2="453.8" y2="35.00" stroke="#ddd" stroke-dasharray="3,2"></line><line x1="637.5" y1="546.60" x2="637.5" y2="35.00" stroke="#ddd" stroke-dasharray="3,2"></line><line x1="821.1" y1="546.60" x2="821.1" y2="35.00" stroke="#ddd" stroke-dasharray="3,2"></line><line x1="1004.7" y1="546.60" x2="1004.7" y2="35.00" stroke="#ddd" stroke-dasharray="3,2"></line></g></g><g class="ComparisonLine"><defs><clipPath id="axisBounds-449"><rect x="90.21600000000001" y="35" width="951.2400000000001" height="511.6"></rect></clipPath></defs><path d="M90.2,545.3L99.7,541.8L109.2,538.3L118.8,534.8L128.3,531.3L137.8,527.9L147.3,524.4L156.8,520.9L166.3,517.4L175.8,514L185.3,510.5L194.9,507L204.4,503.5L213.9,500L223.4,496.6L232.9,493.1L242.4,489.6L251.9,486.1L261.4,482.7L271,479.2L280.5,475.7L290,472.2L299.5,468.7L309,465.3L318.5,461.8L328,458.3L337.5,454.8L347.1,451.4L356.6,447.9L366.1,444.4L375.6,440.9L385.1,437.4L394.6,434L404.1,430.5L413.6,427L423.2,423.5L432.7,420.1L442.2,416.6L451.7,413.1L461.2,409.6L470.7,406.1L480.2,402.7L489.7,399.2L499.2,395.7L508.8,392.2L518.3,388.8L527.8,385.3L537.3,381.8L546.8,378.3L556.3,374.8L565.8,371.4L575.3,367.9L584.9,364.4L594.4,360.9L603.9,357.5L613.4,354L622.9,350.5L632.4,347L641.9,343.5L651.4,340.1L661,336.6L670.5,333.1L680,329.6L689.5,326.2L699,322.7L708.5,319.2L718,315.7L727.5,312.2L737.1,308.8L746.6,305.3L756.1,301.8L765.6,298.3L775.1,294.9L784.6,291.4L794.1,287.9L803.6,284.4L813.2,280.9L822.7,277.5L832.2,274L841.7,270.5L851.2,267L860.7,263.6L870.2,260.1L879.7,256.6L889.3,253.1L898.8,249.6L908.3,246.2L917.8,242.7L927.3,239.2L936.8,235.7L946.3,232.3L955.8,228.8L965.4,225.3L974.9,221.8L984.4,218.3L993.9,214.9L1003.4,211.4L1012.9,207.9L1022.4,204.4L1031.9,201" clip-path="url(#axisBounds-449)" fill="none" stroke="#ccc"></path></g><g clip-path="url(#scatterBounds-450)" class="PointsWithLabels clickable"><rect x="90.21600000000001" y="35" width="951.2400000000001" height="511.6" fill="rgba(255,255,255,0)"></rect><defs><clipPath id="scatterBounds-450"><rect x="80.21600000000001" y="25" width="971.2400000000001" height="531.6"></rect></clipPath></defs><circle cx="119" cy="227" r="17.841241161527712" fill="#d14e5b" opacity="0.8"></circle><circle cx="121" cy="409" r="17.28535562710802" fill="#d14e5b" opacity="0.8"></circle><circle cx="362" cy="415" r="8.775817104587903" fill="#4d824b" opacity="0.8"></circle><circle cx="152" cy="35" r="7.777145661967232" fill="#d14e5b" opacity="0.8"></circle><circle cx="294" cy="417" r="7.039639309032276" fill="#69c487" opacity="0.8"></circle><circle cx="141" cy="265" r="6.756304632927075" fill="#d14e5b" opacity="0.8"></circle><circle cx="106" cy="429" r="6.54210325900536" fill="#5675c1" opacity="0.8"></circle><circle cx="99" cy="279" r="6.24278693313809" fill="#d14e5b" opacity="0.8"></circle><circle cx="505" cy="150" r="6.019017764580311" fill="#ffd336" opacity="0.8"></circle><circle cx="281" cy="320" r="5.698258763170171" fill="#d14e5b" opacity="0.8"></circle><circle cx="207" cy="407" r="5.51494645996873" fill="#4d824b" opacity="0.8"></circle><circle cx="242" cy="257" r="5.091689173986655" fill="#d14e5b" opacity="0.8"></circle><circle cx="110" cy="230" r="4.919023650165899" fill="#d14e5b" opacity="0.8"></circle><circle cx="95" cy="486" r="4.864521158708201" fill="#5675c1" opacity="0.8"></circle><circle cx="92" cy="211" r="4.793038804612376" fill="#5675c1" opacity="0.8"></circle><circle cx="606" cy="329" r="4.705809847942353" fill="#ffd336" opacity="0.8"></circle><circle cx="99" cy="402" r="4.570936740735436" fill="#d14e5b" opacity="0.8"></circle><circle cx="314" cy="281" r="4.544284265814453" fill="#d14e5b" opacity="0.8"></circle><circle cx="128" cy="268" r="4.411868272720039" fill="#d14e5b" opacity="0.8"></circle><circle cx="556" cy="346" r="4.238744210175434" fill="#ffd336" opacity="0.8"></circle><circle cx="424" cy="413" r="4.2221525451655335" fill="#ffd336" opacity="0.8"></circle><circle cx="448" cy="356" r="4.164380539564073" fill="#ffd336" opacity="0.8"></circle><circle cx="205" cy="335" r="3.8728821381582583" fill="#5675c1" opacity="0.8"></circle><circle cx="156" cy="362" r="3.817778348203045" fill="#5675c1" opacity="0.8"></circle><circle cx="204" cy="334" r="3.8167655050220617" fill="#d14e5b" opacity="0.8"></circle><circle cx="163" cy="212" r="3.806277576622059" fill="#d14e5b" opacity="0.8"></circle><circle cx="200" cy="439" r="3.787669982289866" fill="#69c487" opacity="0.8"></circle><circle cx="584" cy="336" r="3.7531584161790716" fill="#ffd336" opacity="0.8"></circle><circle cx="343" cy="214" r="3.6799972899519706" fill="#ffd336" opacity="0.8"></circle><circle cx="125" cy="381" r="3.6555680699637074" fill="#5675c1" opacity="0.8"></circle><circle cx="424" cy="348" r="3.577048967062818" fill="#69c487" opacity="0.8"></circle><circle cx="521" cy="329" r="3.473738425072731" fill="#ffd336" opacity="0.8"></circle><circle cx="139" cy="436" r="3.4208645993568094" fill="#5675c1" opacity="0.8"></circle><circle cx="310" cy="427" r="3.3605103373103127" fill="#4d824b" opacity="0.8"></circle><circle cx="112" cy="241" r="3.2884009051267262" fill="#5675c1" opacity="0.8"></circle><circle cx="290" cy="297" r="3.2390337642059803" fill="#d14e5b" opacity="0.8"></circle><circle cx="112" cy="257" r="3.175853819931084" fill="#d14e5b" opacity="0.8"></circle><circle cx="139" cy="359" r="3.158734200419138" fill="#d14e5b" opacity="0.8"></circle><circle cx="110" cy="379" r="3.1247460784824055" fill="#d14e5b" opacity="0.8"></circle><circle cx="93" cy="458" r="3.0394972523332906" fill="#5675c1" opacity="0.8"></circle><circle cx="194" cy="335" r="2.9971387185810285" fill="#5675c1" opacity="0.8"></circle><circle cx="327" cy="434" r="2.9261293639634696" fill="#a652ba" opacity="0.8"></circle><circle cx="93" cy="355" r="2.853121880918317" fill="#d14e5b" opacity="0.8"></circle><circle cx="503" cy="298" r="2.850884110858007" fill="#ffd336" opacity="0.8"></circle><circle cx="103" cy="252" r="2.833542943771554" fill="#5675c1" opacity="0.8"></circle><circle cx="169" cy="304" r="2.712232087920632" fill="#5675c1" opacity="0.8"></circle><circle cx="747" cy="278" r="2.6934898345436746" fill="#69c487" opacity="0.8"></circle><circle cx="90" cy="421" r="2.679050508998046" fill="#5675c1" opacity="0.8"></circle><circle cx="145" cy="299" r="2.6603123362599272" fill="#5675c1" opacity="0.8"></circle><circle cx="525" cy="370" r="2.6582772691712178" fill="#ffd336" opacity="0.8"></circle><circle cx="257" cy="251" r="2.649079468542404" fill="#d14e5b" opacity="0.8"></circle><circle cx="196" cy="376" r="2.6427699412809935" fill="#5675c1" opacity="0.8"></circle><circle cx="147" cy="452" r="2.5830810951073477" fill="#69c487" opacity="0.8"></circle><circle cx="138" cy="250" r="2.5648259579028014" fill="#d14e5b" opacity="0.8"></circle><circle cx="171" cy="368" r="2.549346063806881" fill="#5675c1" opacity="0.8"></circle><circle cx="99" cy="389" r="2.509925266452677" fill="#5675c1" opacity="0.8"></circle><circle cx="125" cy="337" r="2.50408742452745" fill="#5675c1" opacity="0.8"></circle><circle cx="687" cy="193" r="2.415391046148974" fill="#ffd336" opacity="0.8"></circle><circle cx="413" cy="192" r="2.405713229593983" fill="#4d824b" opacity="0.8"></circle><circle cx="453" cy="368" r="2.3849624382282357" fill="#ffd336" opacity="0.8"></circle><circle cx="338" cy="335" r="2.3795585131733343" fill="#ffd336" opacity="0.8"></circle><circle cx="619" cy="295" r="2.373963446635069" fill="#ffd336" opacity="0.8"></circle><circle cx="400" cy="341" r="2.3651563103026643" fill="#69c487" opacity="0.8"></circle><circle cx="132" cy="398" r="2.3641104085595437" fill="#4d824b" opacity="0.8"></circle><circle cx="259" cy="420" r="2.360193909827602" fill="#4d824b" opacity="0.8"></circle><circle cx="542" cy="331" r="2.341714291558913" fill="#ffd336" opacity="0.8"></circle><circle cx="815" cy="253" r="2.3368195184063385" fill="#ffd336" opacity="0.8"></circle><circle cx="104" cy="427" r="2.325459116415596" fill="#5675c1" opacity="0.8"></circle><circle cx="468" cy="409" r="2.32243106764732" fill="#ffd336" opacity="0.8"></circle><circle cx="93" cy="234" r="2.321813212369422" fill="#d14e5b" opacity="0.8"></circle><circle cx="281" cy="236" r="2.320057532229092" fill="#ffd336" opacity="0.8"></circle><circle cx="725" cy="308" r="2.266633342151247" fill="#ffd336" opacity="0.8"></circle><circle cx="125" cy="323" r="2.2476461605635656" fill="#4d824b" opacity="0.8"></circle><circle cx="441" cy="270" r="2.234578505997011" fill="#d14e5b" opacity="0.8"></circle><circle cx="448" cy="366" r="2.231617815261186" fill="#ffd336" opacity="0.8"></circle><circle cx="604" cy="261" r="2.2100961847573286" fill="#ffd336" opacity="0.8"></circle><circle cx="231" cy="356" r="2.180995141281449" fill="#69c487" opacity="0.8"></circle><circle cx="283" cy="75" r="2.168986643066345" fill="#d14e5b" opacity="0.8"></circle><circle cx="253" cy="166" r="2.1628863598985593" fill="#d14e5b" opacity="0.8"></circle><circle cx="306" cy="143" r="2.1519397057224463" fill="#5675c1" opacity="0.8"></circle><circle cx="387" cy="428" r="2.1169690198245834" fill="#ffd336" opacity="0.8"></circle><circle cx="152" cy="208" r="2.111051052414823" fill="#d14e5b" opacity="0.8"></circle><circle cx="409" cy="280" r="2.1102559684959603" fill="#ffd336" opacity="0.8"></circle><circle cx="426" cy="390" r="2.106406906189216" fill="#ffd336" opacity="0.8"></circle><circle cx="178" cy="358" r="2.0999119676403493" fill="#d14e5b" opacity="0.8"></circle><circle cx="492" cy="396" r="2.082790690640036" fill="#ffd336" opacity="0.8"></circle><circle cx="239" cy="422" r="2.0754294778412032" fill="#4d824b" opacity="0.8"></circle><circle cx="488" cy="396" r="2.0626248554176887" fill="#ffd336" opacity="0.8"></circle><circle cx="701" cy="282" r="2.0483815515456234" fill="#ffd336" opacity="0.8"></circle><circle cx="130" cy="361" r="2.04667952391095" fill="#5675c1" opacity="0.8"></circle><circle cx="117" cy="256" r="2.045289215066141" fill="#5675c1" opacity="0.8"></circle><circle cx="655" cy="241" r="2.045281337677906" fill="#d14e5b" opacity="0.8"></circle><circle cx="191" cy="159" r="2.0426926241192427" fill="#d14e5b" opacity="0.8"></circle><circle cx="637" cy="229" r="2.011671873290729" fill="#ffd336" opacity="0.8"></circle><circle cx="154" cy="251" r="2.0098580224352065" fill="#5675c1" opacity="0.8"></circle><circle cx="134" cy="475" r="2.0083493648422515" fill="#4d824b" opacity="0.8"></circle><circle cx="185" cy="239" r="1.9977825642524705" fill="#ffd336" opacity="0.8"></circle><circle cx="442" cy="367" r="1.9924062160357519" fill="#69c487" opacity="0.8"></circle><circle cx="494" cy="290" r="1.9851337489102983" fill="#ffd336" opacity="0.8"></circle><circle cx="226" cy="202" r="1.982795582890508" fill="#ffd336" opacity="0.8"></circle><circle cx="114" cy="195" r="1.975733330788573" fill="#d14e5b" opacity="0.8"></circle><circle cx="104" cy="405" r="1.966301294076711" fill="#d14e5b" opacity="0.8"></circle><circle cx="183" cy="226" r="1.9622018824582421" fill="#d14e5b" opacity="0.8"></circle><circle cx="194" cy="345" r="1.9552970402195398" fill="#4d824b" opacity="0.8"></circle><circle cx="295" cy="285" r="1.9334367257613703" fill="#5675c1" opacity="0.8"></circle><circle cx="93" cy="176" r="1.9235585994348507" fill="#5675c1" opacity="0.8"></circle><circle cx="532" cy="218" r="1.9227228781374772" fill="#ffd336" opacity="0.8"></circle><circle cx="418" cy="396" r="1.9117503196811947" fill="#ffd336" opacity="0.8"></circle><circle cx="226" cy="219" r="1.87084229752836" fill="#d14e5b" opacity="0.8"></circle><circle cx="543" cy="270" r="1.8684591246950784" fill="#ffd336" opacity="0.8"></circle><circle cx="147" cy="277" r="1.8673392409835214" fill="#5675c1" opacity="0.8"></circle><circle cx="126" cy="419" r="1.8621415802455736" fill="#5675c1" opacity="0.8"></circle><circle cx="314" cy="286" r="1.8399556138603401" fill="#a652ba" opacity="0.8"></circle><circle cx="196" cy="391" r="1.8342803578094542" fill="#5675c1" opacity="0.8"></circle><circle cx="479" cy="373" r="1.8175918273837344" fill="#ffd336" opacity="0.8"></circle><circle cx="150" cy="397" r="1.8163283985181995" fill="#5675c1" opacity="0.8"></circle><circle cx="457" cy="347" r="1.8105979057983848" fill="#ffd336" opacity="0.8"></circle><circle cx="143" cy="349" r="1.8105476512919603" fill="#d14e5b" opacity="0.8"></circle><circle cx="363" cy="432" r="1.80491953971752" fill="#ffd336" opacity="0.8"></circle><circle cx="103" cy="458" r="1.8012646683717601" fill="#4d824b" opacity="0.8"></circle><circle cx="433" cy="271" r="1.7955017213131677" fill="#a652ba" opacity="0.8"></circle><circle cx="325" cy="229" r="1.790299894340533" fill="#a652ba" opacity="0.8"></circle><circle cx="837" cy="117" r="1.7902342433211846" fill="#a652ba" opacity="0.8"></circle><circle cx="597" cy="296" r="1.7892406377985666" fill="#ffd336" opacity="0.8"></circle><circle cx="248" cy="257" r="1.7891439808362672" fill="#5675c1" opacity="0.8"></circle><circle cx="1041" cy="257" r="1.7841498431045673" fill="#a652ba" opacity="0.8"></circle><circle cx="534" cy="308" r="1.783471722989093" fill="#000" opacity="0.8"></circle><circle cx="149" cy="337" r="1.783471722989093" fill="#000" opacity="0.8"></circle><circle cx="142" cy="218" r="1.783471722989093" fill="#000" opacity="0.8"></circle><circle cx="132" cy="209" r="1.783471722989093" fill="#000" opacity="0.8"></circle><circle cx="132" cy="209" r="1.783471722989093" fill="#000" opacity="0.8"></circle><circle cx="542" cy="337" r="1.783471722989093" fill="#000" opacity="0.8"></circle><circle cx="458" cy="293" r="1.783471722989093" fill="#000" opacity="0.8"></circle><circle cx="387" cy="225" r="1.783471722989093" fill="#000" opacity="0.8"></circle><circle cx="398" cy="235" r="1.783471722989093" fill="#000" opacity="0.8"></circle><circle cx="525" cy="344" r="1.783471722989093" fill="#000" opacity="0.8"></circle><circle cx="411" cy="361" r="1.783471722989093" fill="#000" opacity="0.8"></circle><circle cx="173" cy="293" r="1.783471722989093" fill="#000" opacity="0.8"></circle><circle cx="165" cy="303" r="1.783471722989093" fill="#000" opacity="0.8"></circle><circle cx="124" cy="340" r="1.783471722989093" fill="#000" opacity="0.8"></circle><circle cx="134" cy="345" r="1.783471722989093" fill="#000" opacity="0.8"></circle><circle cx="186" cy="251" r="1.783471722989093" fill="#000" opacity="0.8"></circle><circle cx="277" cy="398" r="1.783471722989093" fill="#000" opacity="0.8"></circle><circle cx="261" cy="402" r="1.783471722989093" fill="#000" opacity="0.8"></circle><circle cx="275" cy="403" r="1.783471722989093" fill="#000" opacity="0.8"></circle><circle cx="143" cy="324" r="1.783471722989093" fill="#000" opacity="0.8"></circle><circle cx="161" cy="302" r="1.783471722989093" fill="#000" opacity="0.8"></circle><circle cx="134" cy="325" r="1.783471722989093" fill="#000" opacity="0.8"></circle><circle cx="162" cy="297" r="1.783471722989093" fill="#000" opacity="0.8"></circle><circle cx="356" cy="416" r="1.783471722989093" fill="#000" opacity="0.8"></circle><circle cx="392" cy="361" r="1.783471722989093" fill="#000" opacity="0.8"></circle><circle cx="406" cy="354" r="1.783471722989093" fill="#000" opacity="0.8"></circle><circle cx="124" cy="380" r="1.783471722989093" fill="#000" opacity="0.8"></circle><circle cx="124" cy="380" r="1.783471722989093" fill="#000" opacity="0.8"></circle><circle cx="133" cy="394" r="1.783471722989093" fill="#000" opacity="0.8"></circle><circle cx="133" cy="394" r="1.783471722989093" fill="#000" opacity="0.8"></circle><circle cx="133" cy="394" r="1.783471722989093" fill="#000" opacity="0.8"></circle><circle cx="191" cy="268" r="1.783471722989093" fill="#000" opacity="0.8"></circle><circle cx="203" cy="312" r="1.783471722989093" fill="#000" opacity="0.8"></circle><text x="119" y="208.1587588384723" font-size="14.3" font-family="Arial Narrow, Arial, sans-serif" fill="#666">China</text><text x="121" y="390.714644372892" font-size="14.095520362643075" font-family="Arial Narrow, Arial, sans-serif" fill="#666">India</text><text x="362" y="405.22418289541207" font-size="11.773165503136038" font-family="Arial Narrow, Arial, sans-serif" fill="#666">United States</text><text x="152" y="46.60005357748071" font-size="11.600053577480706" font-family="Arial Narrow, Arial, sans-serif" fill="#666">Indonesia</text><text x="294" y="408.9603606909677" font-size="11.485621347333405" font-family="Arial Narrow, Arial, sans-serif" fill="#666">Brazil</text><text x="141" y="257.2436953670729" font-size="11.444687763656779" font-family="Arial Narrow, Arial, sans-serif" fill="#666">Pakistan</text><text x="106" y="421.4578967409946" font-size="11.41485795141967" font-family="Arial Narrow, Arial, sans-serif" fill="#666">Nigeria</text><text x="99" y="271.75721306686194" font-size="11.374784566697972" font-family="Arial Narrow, Arial, sans-serif" fill="#666">Bangladesh</text><text x="505" y="142.9809822354197" font-size="11.346051415332784" font-family="Arial Narrow, Arial, sans-serif" fill="#666">Russia</text><text x="281" y="313.30174123682986" font-size="11.306693313040839" font-family="Arial Narrow, Arial, sans-serif" fill="#666">Japan</text><text x="207" y="400.48505354003123" font-size="11.285167973898666" font-family="Arial Narrow, Arial, sans-serif" fill="#666">Mexico</text><text x="242" y="250.90831082601335" font-size="11.238155759212201" font-family="Arial Narrow, Arial, sans-serif" fill="#666">Philippines</text><text x="110" y="224.0809763498341" font-size="11.220054897456336" font-family="Arial Narrow, Arial, sans-serif" fill="#666">Vietnam</text><text x="95" y="480.1354788412918" font-size="11.214470951428515" font-family="Arial Narrow, Arial, sans-serif" fill="#666">Ethiopia</text><text x="606" y="323.29419015205764" font-size="11.198564860703124" font-family="Arial Narrow, Arial, sans-serif" fill="#666">Germany</text><text x="99" y="396.4290632592646" font-size="11.185462496293537" font-family="Arial Narrow, Arial, sans-serif" fill="#666">Iran</text><text x="314" y="275.45571573418556" font-size="11.182918401059917" font-family="Arial Narrow, Arial, sans-serif" fill="#666">Turkey</text><text x="556" y="340.7612557898246" font-size="11.15481615305451" font-family="Arial Narrow, Arial, sans-serif" fill="#666">France</text><text x="448" y="350.8356194604359" font-size="11.148272349587941" font-family="Arial Narrow, Arial, sans-serif" fill="#666">Italy</text><text x="205" y="330.1271178618417" font-size="11.12373808990447" font-family="Arial Narrow, Arial, sans-serif" fill="#666">South Africa</text><text x="156" y="357.18222165179697" font-size="11.119300228578641" font-family="Arial Narrow, Arial, sans-serif" fill="#666">Tanzania</text><text x="163" y="207.19372242337795" font-size="11.118382019316556" font-family="Arial Narrow, Arial, sans-serif" fill="#666">South Korea</text><text x="200" y="434.21233001771014" font-size="11.116902275816177" font-family="Arial Narrow, Arial, sans-serif" fill="#666">Colombia</text><text x="343" y="209.32000271004802" font-size="11.108482138966457" font-family="Arial Narrow, Arial, sans-serif" fill="#666">Ukraine</text><text x="125" y="376.3444319300363" font-size="11.106605538545569" font-family="Arial Narrow, Arial, sans-serif" fill="#666">Kenya</text><text x="521" y="324.5262615749273" font-size="11.09303051491212" font-family="Arial Narrow, Arial, sans-serif" fill="#666">Poland</text><text x="310" y="422.6394896626897" font-size="11.08492699742549" font-family="Arial Narrow, Arial, sans-serif" fill="#666">Canada</text><text x="112" y="236.71159909487326" font-size="11.079906216993782" font-family="Arial Narrow, Arial, sans-serif" fill="#666">Morocco</text><text x="290" y="292.760966235794" font-size="11.076531719361562" font-family="Arial Narrow, Arial, sans-serif" fill="#666">Nepal</text><text x="93" y="453.96050274766674" font-size="11.063412468456473" font-family="Arial Narrow, Arial, sans-serif" fill="#666">Ghana</text><text x="93" y="351.1468781190817" font-size="11.051911735708964" font-family="Arial Narrow, Arial, sans-serif" fill="#666">Sri Lanka</text><text x="503" y="294.14911588914197" font-size="11.051778068755405" font-family="Arial Narrow, Arial, sans-serif" fill="#666">Romania</text><text x="169" y="300.28776791207935" font-size="11.043700643283392" font-family="Arial Narrow, Arial, sans-serif" fill="#666">Burkina Faso</text><text x="747" y="274.3065101654563" font-size="11.042639670791347" font-family="Arial Narrow, Arial, sans-serif" fill="#666">Chile</text><text x="145" y="295.33968766374005" font-size="11.040779578157897" font-family="Arial Narrow, Arial, sans-serif" fill="#666">Mali</text><text x="525" y="366.3417227308288" font-size="11.0406662327762" font-family="Arial Narrow, Arial, sans-serif" fill="#666">Netherlands</text><text x="196" y="372.357230058719" font-size="11.039805383220235" font-family="Arial Narrow, Arial, sans-serif" fill="#666">Malawi</text><text x="147" y="448.41691890489267" font-size="11.036538912063493" font-family="Arial Narrow, Arial, sans-serif" fill="#666">Ecuador</text><text x="125" y="333.4959125754726" font-size="11.032330705619954" font-family="Arial Narrow, Arial, sans-serif" fill="#666">Zimbabwe</text><text x="687" y="189.58460895385102" font-size="11.0277613646224" font-family="Arial Narrow, Arial, sans-serif" fill="#666">Greece</text><text x="413" y="188.59428677040603" font-size="11.027272765673196" font-family="Arial Narrow, Arial, sans-serif" fill="#666">Cuba</text><text x="453" y="364.61503756177177" font-size="11.026231743327793" font-family="Arial Narrow, Arial, sans-serif" fill="#666">Belgium</text><text x="338" y="331.6204414868267" font-size="11.025962120178974" font-family="Arial Narrow, Arial, sans-serif" fill="#666">Portugal</text><text x="619" y="291.62603655336494" font-size="11.025683604673482" font-family="Arial Narrow, Arial, sans-serif" fill="#666">Czech Republic</text><text x="400" y="337.63484368969733" font-size="11.025246524586786" font-family="Arial Narrow, Arial, sans-serif" fill="#666">Bolivia</text><text x="815" y="249.66318048159366" font-size="11.023851249978163" font-family="Arial Narrow, Arial, sans-serif" fill="#666">Serbia</text><text x="468" y="405.6775689323527" font-size="11.02314921504783" font-family="Arial Narrow, Arial, sans-serif" fill="#666">Sweden</text><text x="281" y="232.6799424677709" font-size="11.023033823186013" font-family="Arial Narrow, Arial, sans-serif" fill="#666">Belarus</text><text x="725" y="304.73336665784876" font-size="11.020467767739866" font-family="Arial Narrow, Arial, sans-serif" fill="#666">Austria</text><text x="125" y="319.7523538394364" font-size="11.019570178646386" font-family="Arial Narrow, Arial, sans-serif" fill="#666">Honduras</text><text x="441" y="266.76542149400296" font-size="11.018956812383145" font-family="Arial Narrow, Arial, sans-serif" fill="#666">Israel</text><text x="604" y="257.78990381524267" font-size="11.017817294381894" font-family="Arial Narrow, Arial, sans-serif" fill="#666">Bulgaria</text><text x="231" y="352.81900485871853" font-size="11.016479129434964" font-family="Arial Narrow, Arial, sans-serif" fill="#666">Paraguay</text><text x="283" y="71.83101335693365" font-size="11.01593210748392" font-family="Arial Narrow, Arial, sans-serif" fill="#666">Jordan</text><text x="253" y="162.83711364010145" font-size="11.015655378703656" font-family="Arial Narrow, Arial, sans-serif" fill="#666">Laos</text><text x="306" y="139.84806029427756" font-size="11.015160756839652" font-family="Arial Narrow, Arial, sans-serif" fill="#666">Sierra Leone</text><text x="387" y="424.8830309801754" font-size="11.01359743052728" font-family="Arial Narrow, Arial, sans-serif" fill="#666">Denmark</text><text x="426" y="386.8935930938108" font-size="11.013130298984597" font-family="Arial Narrow, Arial, sans-serif" fill="#666">Finland</text><text x="492" y="392.91720930936" font-size="11.012094275100127" font-family="Arial Narrow, Arial, sans-serif" fill="#666">Norway</text><text x="239" y="418.9245705221588" font-size="11.011773732709903" font-family="Arial Narrow, Arial, sans-serif" fill="#666">Costa Rica</text><text x="701" y="278.9516184484544" font-size="11.010605682940156" font-family="Arial Narrow, Arial, sans-serif" fill="#666">Croatia</text><text x="655" y="237.95471866232208" font-size="11.010472780685573" font-family="Arial Narrow, Arial, sans-serif" fill="#666">Lebanon</text><text x="191" y="155.95730737588076" font-size="11.010361960024307" font-family="Arial Narrow, Arial, sans-serif" fill="#666">Georgia</text><text x="637" y="225.98832812670926" font-size="11.009044905624375" font-family="Arial Narrow, Arial, sans-serif" fill="#666">Bosnia and Herzegovina</text><text x="185" y="236.00221743574753" font-size="11.00846173647407" font-family="Arial Narrow, Arial, sans-serif" fill="#666">Moldova</text><text x="226" y="199.0172044171095" font-size="11.0078370113965" font-family="Arial Narrow, Arial, sans-serif" fill="#666">Albania</text><text x="114" y="192.0242666692114" font-size="11.007544255496724" font-family="Arial Narrow, Arial, sans-serif" fill="#666">Armenia</text><text x="183" y="223.03779811754177" font-size="11.006986246156568" font-family="Arial Narrow, Arial, sans-serif" fill="#666">Mongolia</text><text x="93" y="173.07644140056516" font-size="11.005413789581175" font-family="Arial Narrow, Arial, sans-serif" fill="#666">Lesotho</text><text x="532" y="215.07727712186252" font-size="11.005380128260493" font-family="Arial Narrow, Arial, sans-serif" fill="#666">Latvia</text><text x="543" y="267.13154087530495" font-size="11.003225794026397" font-family="Arial Narrow, Arial, sans-serif" fill="#666">Estonia</text><text x="196" y="388.16571964219054" font-size="11.001900512436519" font-family="Arial Narrow, Arial, sans-serif" fill="#666">Comoros</text><text x="325" y="226.20970010565946" font-size="11.000231167286934" font-family="Arial Narrow, Arial, sans-serif" fill="#666">Tonga</text><text x="837" y="114.20976575667882" font-size="11.000228705684513" font-family="Arial Narrow, Arial, sans-serif" fill="#666">Kiribati</text><text x="1010.9699973755531" y="254.21585015689544" font-size="11.000000961335859" font-family="Arial Narrow, Arial, sans-serif" fill="#666">Nauru</text><text x="534" y="305.2165282770109" font-size="10.99997562673737" font-family="Arial Narrow, Arial, sans-serif" fill="#666">Central Europe and the Baltics</text><text x="398" y="232.2165282770109" font-size="10.99997562673737" font-family="Arial Narrow, Arial, sans-serif" fill="#666">Europe &amp; Central Asia (IDA &amp; IBRD)</text><text x="191" y="265.2165282770109" font-size="10.99997562673737" font-family="Arial Narrow, Arial, sans-serif" fill="#666">Upper middle income</text></g><g style="cursor: pointer;" class="ScatterColorLegend clickable"><g class="legendMark"><rect x="1061.4560000000001" y="32.5" width="56.007999999999996" height="21.799999999999997" fill="#fff" opacity="0"></rect>,<rect x="1061.4560000000001" y="39" width="8" height="8" fill="#5675c1"></rect>,<text font-size="16.80" x="1074.5" y="48.4"><tspan x="1074.4560000000001" y="48.44">Africa</tspan></text></g><g class="legendMark"><rect x="1061.4560000000001" y="54.3" width="45.76" height="21.799999999999997" fill="#fff" opacity="0"></rect>,<rect x="1061.4560000000001" y="60.8" width="8" height="8" fill="#d14e5b"></rect>,<text font-size="16.80" x="1074.5" y="70.2"><tspan x="1074.4560000000001" y="70.24">Asia</tspan></text></g><g class="legendMark"><rect x="1061.4560000000001" y="76.1" width="67.43199999999999" height="21.799999999999997" fill="#fff" opacity="0"></rect>,<rect x="1061.4560000000001" y="82.6" width="8" height="8" fill="#ffd336"></rect>,<text font-size="16.80" x="1074.5" y="92.0"><tspan x="1074.4560000000001" y="92.03999999999999">Europe</tspan></text></g><g class="legendMark"><rect x="1061.4560000000001" y="97.89999999999999" width="120.51999999999998" height="21.799999999999997" fill="#fff" opacity="0"></rect>,<rect x="1061.4560000000001" y="104.39999999999999" width="8" height="8" fill="#4d824b"></rect>,<text font-size="16.80" x="1074.5" y="113.8"><tspan x="1074.4560000000001" y="113.83999999999999">North America</tspan></text></g><g class="legendMark"><rect x="1061.4560000000001" y="119.69999999999999" width="75.832" height="21.799999999999997" fill="#fff" opacity="0"></rect>,<rect x="1061.4560000000001" y="126.19999999999999" width="8" height="8" fill="#a652ba"></rect>,<text font-size="16.80" x="1074.5" y="135.6"><tspan x="1074.4560000000001" y="135.64">Oceania</tspan></text></g><g class="legendMark"><rect x="1061.4560000000001" y="141.5" width="123.54399999999998" height="21.799999999999997" fill="#fff" opacity="0"></rect>,<rect x="1061.4560000000001" y="148" width="8" height="8" fill="#69c487"></rect>,<text font-size="16.80" x="1074.5" y="157.4"><tspan x="1074.4560000000001" y="157.44">South America</tspan></text></g></g></g></g></svg>