<svg xmlns="http://www.w3.org/2000/svg" version="1.1" style="font-family: 'Helvetica Neue', Helvetica, Arial, sans-serif; font-size: 24px; background-color: white;" width="1200" height="630"><g class="ChartTab"><g class="LineChart"><defs><clipPath id="boundsClip-543"><rect x="108.92800000000001" y="0" width="1180" height="1130"></rect></clipPath></defs><g class="AxisBoxView"><g class="HorizontalAxis"><text x="118.9" y="600" fill="#666" text-anchor="middle" font-size="21.6">1934</text><text x="194.2" y="600" fill="#666" text-anchor="middle" font-size="21.6">1940</text><text x="319.6" y="600" fill="#666" text-anchor="middle" font-size="21.6">1950</text><text x="445" y="600" fill="#666" text-anchor="middle" font-size="21.6">1960</text><text x="570.4" y="600" fill="#666" text-anchor="middle" font-size="21.6">1970</text><text x="695.8" y="600" fill="#666" text-anchor="middle" font-size="21.6">1980</text><text x="821.2" y="600" fill="#666" text-anchor="middle" font-size="21.6">1990</text><text x="946.7" y="600" fill="#666" text-anchor="middle" font-size="21.6">2000</text><text x="1109.7" y="600" fill="#666" text-anchor="middle" font-size="21.6">2013</text></g><g class="VerticalAxis"><text x="113.93" y="573.4" fill="#666" dominant-baseline="middle" text-anchor="end" font-size="21.6">0 kcal</text><text x="113.93" y="486.8" fill="#666" dominant-baseline="middle" text-anchor="end" font-size="21.6">500 kcal</text><text x="113.93" y="400.2" fill="#666" dominant-baseline="middle" text-anchor="end" font-size="21.6">1,000 kcal</text><text x="113.93" y="313.6" fill="#666" dominant-baseline="middle" text-anchor="end" font-size="21.6">1,500 kcal</text><text x="113.93" y="226.9" fill="#666" dominant-baseline="middle" text-anchor="end" font-size="21.6">2,000 kcal</text><text x="113.93" y="140.3" fill="#666" dominant-baseline="middle" text-anchor="end" font-size="21.6">2,500 kcal</text><text x="113.93" y="53.7" fill="#666" dominant-baseline="middle" text-anchor="end" font-size="21.6">3,000 kcal</text></g><g class="AxisGridLines"><line x1="118.93" y1="573.4" x2="1109.70" y2="573.4" stroke="#ccc"></line><line x1="118.93" y1="486.8" x2="1109.70" y2="486.8" stroke="#ddd" stroke-dasharray="3,2"></line><line x1="118.93" y1="400.2" x2="1109.70" y2="400.2" stroke="#ddd" stroke-dasharray="3,2"></line><line x1="118.93" y1="313.6" x2="1109.70" y2="313.6" stroke="#ddd" stroke-dasharray="3,2"></line><line x1="118.93" y1="226.9" x2="1109.70" y2="226.9" stroke="#ddd" stroke-dasharray="3,2"></line><line x1="118.93" y1="140.3" x2="1109.70" y2="140.3" stroke="#ddd" stroke-dasharray="3,2"></line><line x1="118.93" y1="53.7" x2="1109.70" y2="53.7" stroke="#ddd" stroke-dasharray="3,2"></line></g><g class="AxisGridLines"><line x1="194.2" y1="573.40" x2="194.2" y2="35.00" stroke="#ddd" stroke-dasharray="3,2"></line><line x1="319.6" y1="573.40" x2="319.6" y2="35.00" stroke="#ddd" stroke-dasharray="3,2"></line><line x1="445" y1="573.40" x2="445" y2="35.00" stroke="#ddd" stroke-dasharray="3,2"></line><line x1="570.4" y1="573.40" x2="570.4" y2="35.00" stroke="#ddd" stroke-dasharray="3,2"></line><line x1="695.8" y1="573.40" x2="695.8" y2="35.00" stroke="#ddd" stroke-dasharray="3,2"></line><line x1="821.2" y1="573.40" x2="821.2" y2="35.00" stroke="#ddd" stroke-dasharray="3,2"></line><line x1="946.7" y1="573.40" x2="946.7" y2="35.00" stroke="#ddd" stroke-dasharray="3,2"></line><line x1="1072.1" y1="573.40" x2="1072.1" y2="35.00" stroke="#ddd" stroke-dasharray="3,2"></line></g></g><g clip-path="url(#boundsClip-543)"><g class="HeightedLegend clickable"><g class="legendMark"><rect x="1119.696" y="25.4" width="65.304" height="19.200000000000003" fill="#fff" opacity="0"></rect><rect x="1119.696" y="33.75" width="10" height="2.5" fill="#3360a9"></rect><text font-size="19.20" x="1134.7" y="40.8" fill="#333"><tspan x="1134.696" y="40.76">China</tspan></text></g></g><g class="Lines"><rect x="119" y="35" width="991" height="538" fill="rgba(255,255,255,0)" opacity="0"></rect><g class="key-China_0"><path stroke="#3360a9" stroke-linecap="round" d="M119 187L269 222L282 207L345 251L357 248L370 245L382 226L395 218L407 219L420 218L433 275L445 322L458 324L470 305L483 294L495 282L508 259L520 248L533 256L545 266L558 270L570 251L583 251L596 253L608 241L621 242L633 239L646 245L658 238L671 213L683 211L696 199L708 196L721 168L734 156L746 151L759 151L771 152L784 149L796 153L809 155L821 138L834 150L846 146L859 132L871 121L884 106L897 105L909 100L922 93L934 94L947 86L959 85L972 82L984 82L997 78L1009 74L1022 74L1034 67L1047 58L1060 55L1072 46L1085 40L1097 37L1110 35" fill="none" stroke-width="1.5"></path><g fill="#3360a9"><circle cx="119" cy="187" r="2"></circle><circle cx="269" cy="222" r="2"></circle><circle cx="282" cy="207" r="2"></circle><circle cx="345" cy="251" r="2"></circle><circle cx="357" cy="248" r="2"></circle><circle cx="370" cy="245" r="2"></circle><circle cx="382" cy="226" r="2"></circle><circle cx="395" cy="218" r="2"></circle><circle cx="407" cy="219" r="2"></circle><circle cx="420" cy="218" r="2"></circle><circle cx="433" cy="275" r="2"></circle><circle cx="445" cy="322" r="2"></circle><circle cx="458" cy="324" r="2"></circle><circle cx="470" cy="305" r="2"></circle><circle cx="483" cy="294" r="2"></circle><circle cx="495" cy="282" r="2"></circle><circle cx="508" cy="259" r="2"></circle><circle cx="520" cy="248" r="2"></circle><circle cx="533" cy="256" r="2"></circle><circle cx="545" cy="266" r="2"></circle><circle cx="558" cy="270" r="2"></circle><circle cx="570" cy="251" r="2"></circle><circle cx="583" cy="251" r="2"></circle><circle cx="596" cy="253" r="2"></circle><circle cx="608" cy="241" r="2"></circle><circle cx="621" cy="242" r="2"></circle><circle cx="633" cy="239" r="2"></circle><circle cx="646" cy="245" r="2"></circle><circle cx="658" cy="238" r="2"></circle><circle cx="671" cy="213" r="2"></circle><circle cx="683" cy="211" r="2"></circle><circle cx="696" cy="199" r="2"></circle><circle cx="708" cy="196" r="2"></circle><circle cx="721" cy="168" r="2"></circle><circle cx="734" cy="156" r="2"></circle><circle cx="746" cy="151" r="2"></circle><circle cx="759" cy="151" r="2"></circle><circle cx="771" cy="152" r="2"></circle><circle cx="784" cy="149" r="2"></circle><circle cx="796" cy="153" r="2"></circle><circle cx="809" cy="155" r="2"></circle><circle cx="821" cy="138" r="2"></circle><circle cx="834" cy="150" r="2"></circle><circle cx="846" cy="146" r="2"></circle><circle cx="859" cy="132" r="2"></circle><circle cx="871" cy="121" r="2"></circle><circle cx="884" cy="106" r="2"></circle><circle cx="897" cy="105" r="2"></circle><circle cx="909" cy="100" r="2"></circle><circle cx="922" cy="93" r="2"></circle><circle cx="934" cy="94" r="2"></circle><circle cx="947" cy="86" r="2"></circle><circle cx="959" cy="85" r="2"></circle><circle cx="972" cy="82" r="2"></circle><circle cx="984" cy="82" r="2"></circle><circle cx="997" cy="78" r="2"></circle><circle cx="1009" cy="74" r="2"></circle><circle cx="1022" cy="74" r="2"></circle><circle cx="1034" cy="67" r="2"></circle><circle cx="1047" cy="58" r="2"></circle><circle cx="1060" cy="55" r="2"></circle><circle cx="1072" cy="46" r="2"></circle><circle cx="1085" cy="40" r="2"></circle><circle cx="1097" cy="37" r="2"></circle><circle cx="1110" cy="35" r="2"></circle></g></g></g></g></g></g></svg>