<svg xmlns="http://www.w3.org/2000/svg" version="1.1" style="font-family: 'Helvetica Neue', Helvetica, Arial, sans-serif; font-size: 24px; background-color: white;" width="1200" height="630"><g class="ChartTab"><g class="LineChart"><defs><clipPath id="boundsClip-567"><rect x="46.288000000000004" y="0" width="1180" height="1130"></rect></clipPath></defs><g class="AxisBoxView"><g class="HorizontalAxis"><text x="56.3" y="600" fill="#666" text-anchor="middle" font-size="21.6">1990</text><text x="253.9" y="600" fill="#666" text-anchor="middle" font-size="21.6">1995</text><text x="451.5" y="600" fill="#666" text-anchor="middle" font-size="21.6">2000</text><text x="649" y="600" fill="#666" text-anchor="middle" font-size="21.6">2005</text><text x="846.6" y="600" fill="#666" text-anchor="middle" font-size="21.6">2010</text><text x="1044.2" y="600" fill="#666" text-anchor="middle" font-size="21.6">2015</text></g><g class="VerticalAxis"><text x="51.29" y="573.4" fill="#666" dominant-baseline="middle" text-anchor="end" font-size="21.6">0</text><text x="51.29" y="507.7" fill="#666" dominant-baseline="middle" text-anchor="end" font-size="21.6">20</text><text x="51.29" y="442.1" fill="#666" dominant-baseline="middle" text-anchor="end" font-size="21.6">40</text><text x="51.29" y="376.4" fill="#666" dominant-baseline="middle" text-anchor="end" font-size="21.6">60</text><text x="51.29" y="310.8" fill="#666" dominant-baseline="middle" text-anchor="end" font-size="21.6">80</text><text x="51.29" y="245.1" fill="#666" dominant-baseline="middle" text-anchor="end" font-size="21.6">100</text><text x="51.29" y="179.4" fill="#666" dominant-baseline="middle" text-anchor="end" font-size="21.6">120</text><text x="51.29" y="113.8" fill="#666" dominant-baseline="middle" text-anchor="end" font-size="21.6">140</text><text x="51.29" y="48.1" fill="#666" dominant-baseline="middle" text-anchor="end" font-size="21.6">160</text></g><g class="AxisGridLines"><line x1="56.29" y1="573.4" x2="1044.22" y2="573.4" stroke="#ccc"></line><line x1="56.29" y1="507.7" x2="1044.22" y2="507.7" stroke="#ddd" stroke-dasharray="3,2"></line><line x1="56.29" y1="442.1" x2="1044.22" y2="442.1" stroke="#ddd" stroke-dasharray="3,2"></line><line x1="56.29" y1="376.4" x2="1044.22" y2="376.4" stroke="#ddd" stroke-dasharray="3,2"></line><line x1="56.29" y1="310.8" x2="1044.22" y2="310.8" stroke="#ddd" stroke-dasharray="3,2"></line><line x1="56.29" y1="245.1" x2="1044.22" y2="245.1" stroke="#ddd" stroke-dasharray="3,2"></line><line x1="56.29" y1="179.4" x2="1044.22" y2="179.4" stroke="#ddd" stroke-dasharray="3,2"></line><line x1="56.29" y1="113.8" x2="1044.22" y2="113.8" stroke="#ddd" stroke-dasharray="3,2"></line><line x1="56.29" y1="48.1" x2="1044.22" y2="48.1" stroke="#ddd" stroke-dasharray="3,2"></line></g><g class="AxisGridLines"><line x1="56.3" y1="573.40" x2="56.3" y2="35.00" stroke="#ddd" stroke-dasharray="3,2"></line><line x1="253.9" y1="573.40" x2="253.9" y2="35.00" stroke="#ddd" stroke-dasharray="3,2"></line><line x1="451.5" y1="573.40" x2="451.5" y2="35.00" stroke="#ddd" stroke-dasharray="3,2"></line><line x1="649" y1="573.40" x2="649" y2="35.00" stroke="#ddd" stroke-dasharray="3,2"></line><line x1="846.6" y1="573.40" x2="846.6" y2="35.00" stroke="#ddd" stroke-dasharray="3,2"></line><line x1="1044.2" y1="573.40" x2="1044.2" y2="35.00" stroke="#ddd" stroke-dasharray="3,2"></line></g></g><g clip-path="url(#boundsClip-567)"><g class="HeightedLegend clickable"><g class="legendMark"><rect x="1054.224" y="123.9" width="56.85600000000001" height="19.200000000000003" fill="#fff" opacity="0"></rect><rect x="1054.224" y="132.25" width="10" height="2.5" fill="#e6332e"></rect><text font-size="19.20" x="1069.2" y="139.3" fill="#333"><tspan x="1069.224" y="139.26000000000002">India</tspan></text></g><g class="legendMark"><rect x="1054.224" y="288" width="65.304" height="19.200000000000003" fill="#fff" opacity="0"></rect><rect x="1054.224" y="296.35" width="10" height="2.5" fill="#2a939b"></rect><text font-size="19.20" x="1069.2" y="303.4" fill="#333"><tspan x="1069.224" y="303.36">China</tspan></text></g><g class="legendMark"><rect x="1054.224" y="425.9" width="73.75200000000001" height="19.200000000000003" fill="#fff" opacity="0"></rect><rect x="1054.224" y="434.25" width="10" height="2.5" fill="#a652ba"></rect><text font-size="19.20" x="1069.2" y="441.3" fill="#333"><tspan x="1069.224" y="441.26">Turkey</tspan></text></g><g class="legendMark"><rect x="1054.224" y="462" width="63.00000000000001" height="19.200000000000003" fill="#fff" opacity="0"></rect><rect x="1054.224" y="470.35" width="10" height="2.5" fill="#f6a324"></rect><text font-size="19.20" x="1069.2" y="477.4" fill="#333"><tspan x="1069.224" y="477.36">Brazil</tspan></text></g><g class="legendMark"><rect x="1054.224" y="504.69999999999993" width="130.776" height="19.200000000000003" fill="#fff" opacity="0"></rect><rect x="1054.224" y="513.05" width="10" height="2.5" fill="#34983f"></rect><text font-size="19.20" x="1069.2" y="520.1" fill="#333"><tspan x="1069.224" y="520.06">United States</tspan></text></g><g class="legendMark"><rect x="1054.224" y="523.9" width="67.608" height="19.200000000000003" fill="#fff" opacity="0"></rect><rect x="1054.224" y="532.25" width="10" height="2.5" fill="#ca2628"></rect><text font-size="19.20" x="1069.2" y="539.3" fill="#333"><tspan x="1069.224" y="539.26">Japan</tspan></text></g><g class="legendMark"><rect x="1054.224" y="543.1" width="74.90400000000001" height="19.200000000000003" fill="#fff" opacity="0"></rect><rect x="1054.224" y="551.45" width="10" height="2.5" fill="#3360a9"></rect><text font-size="19.20" x="1069.2" y="558.5" fill="#333"><tspan x="1069.224" y="558.46">France</tspan></text></g></g><g class="Lines"><rect x="56" y="35" width="988" height="538" fill="rgba(255,255,255,0)" opacity="0"></rect><g class="key-China_0"><path stroke="#2a939b" stroke-linecap="round" d="M56 91L254 124L452 153L649 176L847 248L1044 298" fill="none" stroke-width="1.5"></path><g fill="#2a939b"><circle cx="56" cy="91" r="2"></circle><circle cx="254" cy="124" r="2"></circle><circle cx="452" cy="153" r="2"></circle><circle cx="649" cy="176" r="2"></circle><circle cx="847" cy="248" r="2"></circle><circle cx="1044" cy="298" r="2"></circle></g></g><g class="key-India_0"><path stroke="#e6332e" stroke-linecap="round" d="M56 35L254 45L452 65L649 104L847 130L1044 134" fill="none" stroke-width="1.5"></path><g fill="#e6332e"><circle cx="56" cy="35" r="2"></circle><circle cx="254" cy="45" r="2"></circle><circle cx="452" cy="65" r="2"></circle><circle cx="649" cy="104" r="2"></circle><circle cx="847" cy="130" r="2"></circle><circle cx="1044" cy="134" r="2"></circle></g></g><g class="key-Turkey_0"><path stroke="#a652ba" stroke-linecap="round" d="M56 285L254 324L452 370L649 413L847 439L1044 436" fill="none" stroke-width="1.5"></path><g fill="#a652ba"><circle cx="56" cy="285" r="2"></circle><circle cx="254" cy="324" r="2"></circle><circle cx="452" cy="370" r="2"></circle><circle cx="649" cy="413" r="2"></circle><circle cx="847" cy="439" r="2"></circle><circle cx="1044" cy="436" r="2"></circle></g></g><g class="key-Brazil_0"><path stroke="#f6a324" stroke-linecap="round" d="M56 373L254 383L452 399L649 439L847 472L1044 472" fill="none" stroke-width="1.5"></path><g fill="#f6a324"><circle cx="56" cy="373" r="2"></circle><circle cx="254" cy="383" r="2"></circle><circle cx="452" cy="399" r="2"></circle><circle cx="649" cy="439" r="2"></circle><circle cx="847" cy="472" r="2"></circle><circle cx="1044" cy="472" r="2"></circle></g></g><g class="key-Japan_0"><path stroke="#ca2628" stroke-linecap="round" d="M56 485L254 498L452 508L649 511L847 518L1044 518" fill="none" stroke-width="1.5"></path><g fill="#ca2628"><circle cx="56" cy="485" r="2"></circle><circle cx="254" cy="498" r="2"></circle><circle cx="452" cy="508" r="2"></circle><circle cx="649" cy="511" r="2"></circle><circle cx="847" cy="518" r="2"></circle><circle cx="1044" cy="518" r="2"></circle></g></g><g class="key-United-States_0"><path stroke="#34983f" stroke-linecap="round" d="M56 455L254 465L452 475L649 488L847 511L1044 514" fill="none" stroke-width="1.5"></path><g fill="#34983f"><circle cx="56" cy="455" r="2"></circle><circle cx="254" cy="465" r="2"></circle><circle cx="452" cy="475" r="2"></circle><circle cx="649" cy="488" r="2"></circle><circle cx="847" cy="511" r="2"></circle><circle cx="1044" cy="514" r="2"></circle></g></g><g class="key-France_0"><path stroke="#3360a9" stroke-linecap="round" d="M56 488L254 498L452 505L649 518L847 524L1044 524" fill="none" stroke-width="1.5"></path><g fill="#3360a9"><circle cx="56" cy="488" r="2"></circle><circle cx="254" cy="498" r="2"></circle><circle cx="452" cy="505" r="2"></circle><circle cx="649" cy="518" r="2"></circle><circle cx="847" cy="524" r="2"></circle><circle cx="1044" cy="524" r="2"></circle></g></g></g></g></g></g></svg>