<svg xmlns="http://www.w3.org/2000/svg" version="1.1" style="font-family: 'Helvetica Neue', Helvetica, Arial, sans-serif; font-size: 24px; background-color: white;" width="1200" height="630"><g class="ChartTab"><g class="StackedArea"><defs><clipPath id="boundsClip-45"><rect x="138.15200000000002" y="0" width="1170" height="1130"></rect></clipPath></defs><g class="AxisBoxView"><g class="HorizontalAxis"><text x="138.2" y="600" fill="#666" text-anchor="middle" font-size="21.6">1965</text><text x="234.9" y="600" fill="#666" text-anchor="middle" font-size="21.6">1970</text><text x="428.5" y="600" fill="#666" text-anchor="middle" font-size="21.6">1980</text><text x="622.1" y="600" fill="#666" text-anchor="middle" font-size="21.6">1990</text><text x="815.7" y="600" fill="#666" text-anchor="middle" font-size="21.6">2000</text><text x="1009.3" y="600" fill="#666" text-anchor="middle" font-size="21.6">2010</text><text x="1125.4" y="600" fill="#666" text-anchor="middle" font-size="21.6">2016</text></g><g class="VerticalAxis"><text x="133.15" y="573.4" fill="#666" dominant-baseline="middle" text-anchor="end" font-size="21.6">0 TWh</text><text x="133.15" y="486.2" fill="#666" dominant-baseline="middle" text-anchor="end" font-size="21.6">5,000 TWh</text><text x="133.15" y="399.1" fill="#666" dominant-baseline="middle" text-anchor="end" font-size="21.6">10,000 TWh</text><text x="133.15" y="311.9" fill="#666" dominant-baseline="middle" text-anchor="end" font-size="21.6">15,000 TWh</text><text x="133.15" y="224.7" fill="#666" dominant-baseline="middle" text-anchor="end" font-size="21.6">20,000 TWh</text><text x="133.15" y="137.6" fill="#666" dominant-baseline="middle" text-anchor="end" font-size="21.6">25,000 TWh</text><text x="133.15" y="50.4" fill="#666" dominant-baseline="middle" text-anchor="end" font-size="21.6">30,000 TWh</text></g><g class="AxisGridLines"><line x1="138.15" y1="573.4" x2="1125.45" y2="573.4" stroke="#ccc"></line><line x1="138.15" y1="486.2" x2="1125.45" y2="486.2" stroke="#ddd" stroke-dasharray="3,2"></line><line x1="138.15" y1="399.1" x2="1125.45" y2="399.1" stroke="#ddd" stroke-dasharray="3,2"></line><line x1="138.15" y1="311.9" x2="1125.45" y2="311.9" stroke="#ddd" stroke-dasharray="3,2"></line><line x1="138.15" y1="224.7" x2="1125.45" y2="224.7" stroke="#ddd" stroke-dasharray="3,2"></line><line x1="138.15" y1="137.6" x2="1125.45" y2="137.6" stroke="#ddd" stroke-dasharray="3,2"></line><line x1="138.15" y1="50.4" x2="1125.45" y2="50.4" stroke="#ddd" stroke-dasharray="3,2"></line></g><g class="AxisGridLines"><line x1="234.9" y1="573.40" x2="234.9" y2="35.00" stroke="#ddd" stroke-dasharray="3,2"></line><line x1="428.5" y1="573.40" x2="428.5" y2="35.00" stroke="#ddd" stroke-dasharray="3,2"></line><line x1="622.1" y1="573.40" x2="622.1" y2="35.00" stroke="#ddd" stroke-dasharray="3,2"></line><line x1="815.7" y1="573.40" x2="815.7" y2="35.00" stroke="#ddd" stroke-dasharray="3,2"></line><line x1="1009.3" y1="573.40" x2="1009.3" y2="35.00" stroke="#ddd" stroke-dasharray="3,2"></line></g></g><g clip-path="url(#boundsClip-45)"><g class="HeightedLegend clickable"><g class="legendMark"><rect x="1130.448" y="44.6" width="50.328" height="19.200000000000003" fill="#fff" opacity="0"></rect><rect x="1130.448" y="52.95" width="10" height="2.5" fill="#2a939b"></rect><text font-size="19.20" x="1145.4" y="60.0" fill="#333"><tspan x="1145.448" y="59.96">Gas</tspan></text></g><g class="legendMark"><rect x="1130.448" y="122.4" width="38.42400000000001" height="19.200000000000003" fill="#fff" opacity="0"></rect><rect x="1130.448" y="130.75" width="10" height="2.5" fill="#ed6c2d"></rect><text font-size="19.20" x="1145.4" y="137.8" fill="#333"><tspan x="1145.448" y="137.76000000000002">Oil</tspan></text></g><g class="legendMark"><rect x="1130.448" y="372.5" width="54.55200000000001" height="19.200000000000003" fill="#fff" opacity="0"></rect><rect x="1130.448" y="380.85" width="10" height="2.5" fill="#818282"></rect><text font-size="19.20" x="1145.4" y="387.9" fill="#333"><tspan x="1145.448" y="387.86">Coal</tspan></text></g></g><g class="Areas"><rect x="138.15200000000002" y="35" width="987.296" height="538.4" opacity="0" fill="rgba(255,255,255,0)"></rect><path stroke-linecap="round" d="M138.2 550.2L157.5 548.6L176.9 551.3L196.2 551.5L215.6 547L234.9 539.8L254.3 534.6L273.7 532.4L293 531.8L312.4 532.3L331.7 527.1L351.1 525.9L370.5 521.2L389.8 516.1L409.2 514.1L428.5 511.7L447.9 512L467.3 508.5L486.6 503.9L506 497.8L525.3 490.8L544.7 487.1L564 479.7L583.4 472.8L602.8 468L622.1 466.5L641.5 461.2L660.8 456L680.2 448.4L699.6 440.2L718.9 438.5L738.3 432.3L757.6 435.1L777 436.2L796.3 432.2L815.7 430.2L835.1 422.9L854.4 408.4L873.8 376.7L893.1 344.1L912.5 304.8L931.9 278.5L951.2 252.2L970.6 247.1L989.9 231.6L1009.3 218.8L1028.7 187.4L1048 182.5L1067.4 174.2L1086.7 177.1L1106.1 185.4L1125.4 190.7L1125.448 573.4L138.15200000000002 573.4" fill="#818282" fill-opacity="0.7" class="China_2-area"></path><path stroke-linecap="round" d="M138.2 548L157.5 545.7L176.9 548.5L196.2 548.4L215.6 542.8L234.9 534L254.3 526.8L273.7 523.4L293 520.9L312.4 519.7L331.7 513.2L351.1 510.1L370.5 504.5L389.8 497.6L409.2 495.6L428.5 494.1L447.9 495.4L467.3 492L486.6 487L506 480.3L525.3 472.6L544.7 467.7L564 459.2L583.4 450.7L602.8 444.9L622.1 443.6L641.5 436.5L660.8 429.2L680.2 418.8L699.6 410.1L718.9 406L738.3 396.7L757.6 396.2L777 396.2L796.3 389.8L815.7 384.8L835.1 376.4L854.4 358L873.8 320.6L893.1 278.5L912.5 238.2L931.9 206.9L951.2 177.1L970.6 170.5L989.9 152L1009.3 127.9L1028.7 93.1L1048 83.8L1067.4 71.1L1086.7 70.1L1106.1 71.5L1125.4 73.4L1125.4 190.7L1106.1 185.4L1086.7 177.1L1067.4 174.2L1048 182.5L1028.7 187.4L1009.3 218.8L989.9 231.6L970.6 247.1L951.2 252.2L931.9 278.5L912.5 304.8L893.1 344.1L873.8 376.7L854.4 408.4L835.1 422.9L815.7 430.2L796.3 432.2L777 436.2L757.6 435.1L738.3 432.3L718.9 438.5L699.6 440.2L680.2 448.4L660.8 456L641.5 461.2L622.1 466.5L602.8 468L583.4 472.8L564 479.7L544.7 487.1L525.3 490.8L506 497.8L486.6 503.9L467.3 508.5L447.9 512L428.5 511.7L409.2 514.1L389.8 516.1L370.5 521.2L351.1 525.9L331.7 527.1L312.4 532.3L293 531.8L273.7 532.4L254.3 534.6L234.9 539.8L215.6 547L196.2 551.5L176.9 551.3L157.5 548.6L138.2 550.2" fill="#ed6c2d" fill-opacity="0.7" class="China_0-area"></path><path stroke-linecap="round" d="M138.2 547.8L157.5 545.5L176.9 548.2L196.2 548.2L215.6 542.5L234.9 533.5L254.3 526.1L273.7 522.5L293 519.8L312.4 518.3L331.7 511.6L351.1 508.2L370.5 502.2L389.8 495L409.2 492.9L428.5 491.4L447.9 493L467.3 489.7L486.6 484.7L506 478L525.3 470.2L544.7 465.2L564 456.6L583.4 448L602.8 442.1L622.1 440.7L641.5 433.5L660.8 426.2L680.2 415.7L699.6 406.9L718.9 402.7L738.3 393.2L757.6 392.5L777 392.4L796.3 385.7L815.7 380.2L835.1 371.2L854.4 352.5L873.8 314.2L893.1 271L912.5 229.4L931.9 196L951.2 163.7L970.6 155.1L989.9 135.1L1009.3 107.6L1028.7 68.1L1048 56.2L1067.4 39.8L1086.7 35.7L1106.1 36L1125.4 35L1125.4 73.4L1106.1 71.5L1086.7 70.1L1067.4 71.1L1048 83.8L1028.7 93.1L1009.3 127.9L989.9 152L970.6 170.5L951.2 177.1L931.9 206.9L912.5 238.2L893.1 278.5L873.8 320.6L854.4 358L835.1 376.4L815.7 384.8L796.3 389.8L777 396.2L757.6 396.2L738.3 396.7L718.9 406L699.6 410.1L680.2 418.8L660.8 429.2L641.5 436.5L622.1 443.6L602.8 444.9L583.4 450.7L564 459.2L544.7 467.7L525.3 472.6L506 480.3L486.6 487L467.3 492L447.9 495.4L428.5 494.1L409.2 495.6L389.8 497.6L370.5 504.5L351.1 510.1L331.7 513.2L312.4 519.7L293 520.9L273.7 523.4L254.3 526.8L234.9 534L215.6 542.8L196.2 548.4L176.9 548.5L157.5 545.7L138.2 548" fill="#2a939b" fill-opacity="0.7" class="China_1-area"></path><path stroke-linecap="round" d="M138.2 550.2L157.5 548.6L176.9 551.3L196.2 551.5L215.6 547L234.9 539.8L254.3 534.6L273.7 532.4L293 531.8L312.4 532.3L331.7 527.1L351.1 525.9L370.5 521.2L389.8 516.1L409.2 514.1L428.5 511.7L447.9 512L467.3 508.5L486.6 503.9L506 497.8L525.3 490.8L544.7 487.1L564 479.7L583.4 472.8L602.8 468L622.1 466.5L641.5 461.2L660.8 456L680.2 448.4L699.6 440.2L718.9 438.5L738.3 432.3L757.6 435.1L777 436.2L796.3 432.2L815.7 430.2L835.1 422.9L854.4 408.4L873.8 376.7L893.1 344.1L912.5 304.8L931.9 278.5L951.2 252.2L970.6 247.1L989.9 231.6L1009.3 218.8L1028.7 187.4L1048 182.5L1067.4 174.2L1086.7 177.1L1106.1 185.4L1125.4 190.7" stroke="rgb(108, 109, 109)" stroke-opacity="0.7" stroke-width="0.5" fill="none" class="China_2-border"></path><path stroke-linecap="round" d="M138.2 548L157.5 545.7L176.9 548.5L196.2 548.4L215.6 542.8L234.9 534L254.3 526.8L273.7 523.4L293 520.9L312.4 519.7L331.7 513.2L351.1 510.1L370.5 504.5L389.8 497.6L409.2 495.6L428.5 494.1L447.9 495.4L467.3 492L486.6 487L506 480.3L525.3 472.6L544.7 467.7L564 459.2L583.4 450.7L602.8 444.9L622.1 443.6L641.5 436.5L660.8 429.2L680.2 418.8L699.6 410.1L718.9 406L738.3 396.7L757.6 396.2L777 396.2L796.3 389.8L815.7 384.8L835.1 376.4L854.4 358L873.8 320.6L893.1 278.5L912.5 238.2L931.9 206.9L951.2 177.1L970.6 170.5L989.9 152L1009.3 127.9L1028.7 93.1L1048 83.8L1067.4 71.1L1086.7 70.1L1106.1 71.5L1125.4 73.4" stroke="rgb(198, 90, 38)" stroke-opacity="0.7" stroke-width="0.5" fill="none" class="China_0-border"></path><path stroke-linecap="round" d="M138.2 547.8L157.5 545.5L176.9 548.2L196.2 548.2L215.6 542.5L234.9 533.5L254.3 526.1L273.7 522.5L293 519.8L312.4 518.3L331.7 511.6L351.1 508.2L370.5 502.2L389.8 495L409.2 492.9L428.5 491.4L447.9 493L467.3 489.7L486.6 484.7L506 478L525.3 470.2L544.7 465.2L564 456.6L583.4 448L602.8 442.1L622.1 440.7L641.5 433.5L660.8 426.2L680.2 415.7L699.6 406.9L718.9 402.7L738.3 393.2L757.6 392.5L777 392.4L796.3 385.7L815.7 380.2L835.1 371.2L854.4 352.5L873.8 314.2L893.1 271L912.5 229.4L931.9 196L951.2 163.7L970.6 155.1L989.9 135.1L1009.3 107.6L1028.7 68.1L1048 56.2L1067.4 39.8L1086.7 35.7L1106.1 36L1125.4 35" stroke="rgb(35, 123, 130)" stroke-opacity="0.7" stroke-width="0.5" fill="none" class="China_1-border"></path></g></g></g></g></svg>