<svg xmlns="http://www.w3.org/2000/svg" version="1.1" style="font-family: 'Helvetica Neue', Helvetica, Arial, sans-serif; font-size: 24px; background-color: white;" width="1200" height="630"><g class="ChartTab"><g class="LineChart"><defs><clipPath id="boundsClip-61"><rect x="75.23200000000001" y="0" width="1180" height="1130"></rect></clipPath></defs><g class="AxisBoxView"><g class="HorizontalAxis"><text x="85.2" y="600" fill="#666" text-anchor="middle" font-size="21.6">1961</text><text x="251.2" y="600" fill="#666" text-anchor="middle" font-size="21.6">1970</text><text x="435.6" y="600" fill="#666" text-anchor="middle" font-size="21.6">1980</text><text x="620.1" y="600" fill="#666" text-anchor="middle" font-size="21.6">1990</text><text x="804.5" y="600" fill="#666" text-anchor="middle" font-size="21.6">2000</text><text x="988.9" y="600" fill="#666" text-anchor="middle" font-size="21.6">2010</text><text x="1044.2" y="600" fill="#666" text-anchor="middle" font-size="21.6">2013</text></g><g class="VerticalAxis"><text x="80.23" y="573.4" fill="#666" dominant-baseline="middle" text-anchor="end" font-size="21.6">0 kg</text><text x="80.23" y="499.4" fill="#666" dominant-baseline="middle" text-anchor="end" font-size="21.6">20 kg</text><text x="80.23" y="425.4" fill="#666" dominant-baseline="middle" text-anchor="end" font-size="21.6">40 kg</text><text x="80.23" y="351.4" fill="#666" dominant-baseline="middle" text-anchor="end" font-size="21.6">60 kg</text><text x="80.23" y="277.4" fill="#666" dominant-baseline="middle" text-anchor="end" font-size="21.6">80 kg</text><text x="80.23" y="203.4" fill="#666" dominant-baseline="middle" text-anchor="end" font-size="21.6">100 kg</text><text x="80.23" y="129.5" fill="#666" dominant-baseline="middle" text-anchor="end" font-size="21.6">120 kg</text><text x="80.23" y="55.5" fill="#666" dominant-baseline="middle" text-anchor="end" font-size="21.6">140 kg</text></g><g class="AxisGridLines"><line x1="85.23" y1="573.4" x2="1044.22" y2="573.4" stroke="#ccc"></line><line x1="85.23" y1="499.4" x2="1044.22" y2="499.4" stroke="#ddd" stroke-dasharray="3,2"></line><line x1="85.23" y1="425.4" x2="1044.22" y2="425.4" stroke="#ddd" stroke-dasharray="3,2"></line><line x1="85.23" y1="351.4" x2="1044.22" y2="351.4" stroke="#ddd" stroke-dasharray="3,2"></line><line x1="85.23" y1="277.4" x2="1044.22" y2="277.4" stroke="#ddd" stroke-dasharray="3,2"></line><line x1="85.23" y1="203.4" x2="1044.22" y2="203.4" stroke="#ddd" stroke-dasharray="3,2"></line><line x1="85.23" y1="129.5" x2="1044.22" y2="129.5" stroke="#ddd" stroke-dasharray="3,2"></line><line x1="85.23" y1="55.5" x2="1044.22" y2="55.5" stroke="#ddd" stroke-dasharray="3,2"></line></g><g class="AxisGridLines"><line x1="251.2" y1="573.40" x2="251.2" y2="35.00" stroke="#ddd" stroke-dasharray="3,2"></line><line x1="435.6" y1="573.40" x2="435.6" y2="35.00" stroke="#ddd" stroke-dasharray="3,2"></line><line x1="620.1" y1="573.40" x2="620.1" y2="35.00" stroke="#ddd" stroke-dasharray="3,2"></line><line x1="804.5" y1="573.40" x2="804.5" y2="35.00" stroke="#ddd" stroke-dasharray="3,2"></line><line x1="988.9" y1="573.40" x2="988.9" y2="35.00" stroke="#ddd" stroke-dasharray="3,2"></line></g></g><g clip-path="url(#boundsClip-61)"><g class="HeightedLegend clickable"><g class="legendMark"><rect x="1054.224" y="25.4" width="96.21600000000001" height="19.200000000000003" fill="#fff" opacity="0"></rect><rect x="1054.224" y="33.75" width="10" height="2.5" fill="#f6a324"></rect><text font-size="19.20" x="1069.2" y="40.8" fill="#333"><tspan x="1069.224" y="40.76">Colombia</tspan></text></g><g class="legendMark"><rect x="1054.224" y="177.1" width="130.776" height="19.200000000000003" fill="#fff" opacity="0"></rect><rect x="1054.224" y="185.45" width="10" height="2.5" fill="#34983f"></rect><text font-size="19.20" x="1069.2" y="192.5" fill="#333"><tspan x="1069.224" y="192.46">United States</tspan></text></g><g class="legendMark"><rect x="1054.224" y="215.3" width="65.304" height="19.200000000000003" fill="#fff" opacity="0"></rect><rect x="1054.224" y="223.65" width="10" height="2.5" fill="#ca2628"></rect><text font-size="19.20" x="1069.2" y="230.7" fill="#333"><tspan x="1069.224" y="230.66">China</tspan></text></g><g class="legendMark"><rect x="1054.224" y="275.7" width="65.11200000000001" height="19.200000000000003" fill="#fff" opacity="0"></rect><rect x="1054.224" y="284.05" width="10" height="2.5" fill="#3360a9"></rect><text font-size="19.20" x="1069.2" y="291.1" fill="#333"><tspan x="1069.224" y="291.06">World</tspan></text></g></g><g class="Lines"><rect x="85" y="35" width="959" height="538" fill="rgba(255,255,255,0)" opacity="0"></rect><g class="key-Colombia_0"><path stroke="#f6a324" stroke-linecap="round" d="M85 234L104 235L122 242L141 242L159 246L177 249L196 227L214 247L233 233L251 222L270 245L288 240L307 225L325 238L343 221L362 226L380 234L399 223L417 220L436 220L454 227L473 275L491 251L509 283L528 278L546 265L565 246L583 243L602 223L620 281L639 260L657 179L675 203L694 218L712 174L731 225L749 211L768 258L786 170L805 135L823 127L841 121L860 130L878 121L897 126L915 75L934 78L952 82L971 119L989 93L1007 118L1026 86L1044 35" fill="none" stroke-width="1.5"></path><g fill="#f6a324"><circle cx="85" cy="234" r="2"></circle><circle cx="104" cy="235" r="2"></circle><circle cx="122" cy="242" r="2"></circle><circle cx="141" cy="242" r="2"></circle><circle cx="159" cy="246" r="2"></circle><circle cx="177" cy="249" r="2"></circle><circle cx="196" cy="227" r="2"></circle><circle cx="214" cy="247" r="2"></circle><circle cx="233" cy="233" r="2"></circle><circle cx="251" cy="222" r="2"></circle><circle cx="270" cy="245" r="2"></circle><circle cx="288" cy="240" r="2"></circle><circle cx="307" cy="225" r="2"></circle><circle cx="325" cy="238" r="2"></circle><circle cx="343" cy="221" r="2"></circle><circle cx="362" cy="226" r="2"></circle><circle cx="380" cy="234" r="2"></circle><circle cx="399" cy="223" r="2"></circle><circle cx="417" cy="220" r="2"></circle><circle cx="436" cy="220" r="2"></circle><circle cx="454" cy="227" r="2"></circle><circle cx="473" cy="275" r="2"></circle><circle cx="491" cy="251" r="2"></circle><circle cx="509" cy="283" r="2"></circle><circle cx="528" cy="278" r="2"></circle><circle cx="546" cy="265" r="2"></circle><circle cx="565" cy="246" r="2"></circle><circle cx="583" cy="243" r="2"></circle><circle cx="602" cy="223" r="2"></circle><circle cx="620" cy="281" r="2"></circle><circle cx="639" cy="260" r="2"></circle><circle cx="657" cy="179" r="2"></circle><circle cx="675" cy="203" r="2"></circle><circle cx="694" cy="218" r="2"></circle><circle cx="712" cy="174" r="2"></circle><circle cx="731" cy="225" r="2"></circle><circle cx="749" cy="211" r="2"></circle><circle cx="768" cy="258" r="2"></circle><circle cx="786" cy="170" r="2"></circle><circle cx="805" cy="135" r="2"></circle><circle cx="823" cy="127" r="2"></circle><circle cx="841" cy="121" r="2"></circle><circle cx="860" cy="130" r="2"></circle><circle cx="878" cy="121" r="2"></circle><circle cx="897" cy="126" r="2"></circle><circle cx="915" cy="75" r="2"></circle><circle cx="934" cy="78" r="2"></circle><circle cx="952" cy="82" r="2"></circle><circle cx="971" cy="119" r="2"></circle><circle cx="989" cy="93" r="2"></circle><circle cx="1007" cy="118" r="2"></circle><circle cx="1026" cy="86" r="2"></circle><circle cx="1044" cy="35" r="2"></circle></g></g><g class="key-China_0"><path stroke="#ca2628" stroke-linecap="round" d="M85 558L104 558L122 558L141 557L159 556L177 556L196 555L214 554L233 555L251 555L270 555L288 553L307 550L325 550L343 550L362 550L380 550L399 547L417 546L436 546L454 543L473 544L491 539L509 538L528 533L546 528L565 518L583 519L602 514L620 514L639 507L657 502L675 485L694 473L712 457L731 446L749 435L768 431L786 411L805 412L823 400L841 394L860 381L878 363L897 356L915 342L934 331L952 319L971 301L989 286L1007 260L1026 233L1044 225" fill="none" stroke-width="1.5"></path><g fill="#ca2628"><circle cx="85" cy="558" r="2"></circle><circle cx="104" cy="558" r="2"></circle><circle cx="122" cy="558" r="2"></circle><circle cx="141" cy="557" r="2"></circle><circle cx="159" cy="556" r="2"></circle><circle cx="177" cy="556" r="2"></circle><circle cx="196" cy="555" r="2"></circle><circle cx="214" cy="554" r="2"></circle><circle cx="233" cy="555" r="2"></circle><circle cx="251" cy="555" r="2"></circle><circle cx="270" cy="555" r="2"></circle><circle cx="288" cy="553" r="2"></circle><circle cx="307" cy="550" r="2"></circle><circle cx="325" cy="550" r="2"></circle><circle cx="343" cy="550" r="2"></circle><circle cx="362" cy="550" r="2"></circle><circle cx="380" cy="550" r="2"></circle><circle cx="399" cy="547" r="2"></circle><circle cx="417" cy="546" r="2"></circle><circle cx="436" cy="546" r="2"></circle><circle cx="454" cy="543" r="2"></circle><circle cx="473" cy="544" r="2"></circle><circle cx="491" cy="539" r="2"></circle><circle cx="509" cy="538" r="2"></circle><circle cx="528" cy="533" r="2"></circle><circle cx="546" cy="528" r="2"></circle><circle cx="565" cy="518" r="2"></circle><circle cx="583" cy="519" r="2"></circle><circle cx="602" cy="514" r="2"></circle><circle cx="620" cy="514" r="2"></circle><circle cx="639" cy="507" r="2"></circle><circle cx="657" cy="502" r="2"></circle><circle cx="675" cy="485" r="2"></circle><circle cx="694" cy="473" r="2"></circle><circle cx="712" cy="457" r="2"></circle><circle cx="731" cy="446" r="2"></circle><circle cx="749" cy="435" r="2"></circle><circle cx="768" cy="431" r="2"></circle><circle cx="786" cy="411" r="2"></circle><circle cx="805" cy="412" r="2"></circle><circle cx="823" cy="400" r="2"></circle><circle cx="841" cy="394" r="2"></circle><circle cx="860" cy="381" r="2"></circle><circle cx="878" cy="363" r="2"></circle><circle cx="897" cy="356" r="2"></circle><circle cx="915" cy="342" r="2"></circle><circle cx="934" cy="331" r="2"></circle><circle cx="952" cy="319" r="2"></circle><circle cx="971" cy="301" r="2"></circle><circle cx="989" cy="286" r="2"></circle><circle cx="1007" cy="260" r="2"></circle><circle cx="1026" cy="233" r="2"></circle><circle cx="1044" cy="225" r="2"></circle></g></g><g class="key-United-States_0"><path stroke="#34983f" stroke-linecap="round" d="M85 289L104 283L122 314L141 305L159 292L177 275L196 261L214 287L233 236L251 246L270 228L288 251L307 213L325 222L343 200L362 208L380 193L399 196L417 190L436 165L454 179L473 197L491 161L509 144L528 170L546 125L565 97L583 136L602 138L620 135L639 182L657 171L675 137L694 129L712 162L731 157L749 129L768 132L786 159L805 110L823 157L841 165L860 150L878 144L897 167L915 172L934 167L952 148L971 169L989 192L1007 212L1026 191L1044 187" fill="none" stroke-width="1.5"></path><g fill="#34983f"><circle cx="85" cy="289" r="2"></circle><circle cx="104" cy="283" r="2"></circle><circle cx="122" cy="314" r="2"></circle><circle cx="141" cy="305" r="2"></circle><circle cx="159" cy="292" r="2"></circle><circle cx="177" cy="275" r="2"></circle><circle cx="196" cy="261" r="2"></circle><circle cx="214" cy="287" r="2"></circle><circle cx="233" cy="236" r="2"></circle><circle cx="251" cy="246" r="2"></circle><circle cx="270" cy="228" r="2"></circle><circle cx="288" cy="251" r="2"></circle><circle cx="307" cy="213" r="2"></circle><circle cx="325" cy="222" r="2"></circle><circle cx="343" cy="200" r="2"></circle><circle cx="362" cy="208" r="2"></circle><circle cx="380" cy="193" r="2"></circle><circle cx="399" cy="196" r="2"></circle><circle cx="417" cy="190" r="2"></circle><circle cx="436" cy="165" r="2"></circle><circle cx="454" cy="179" r="2"></circle><circle cx="473" cy="197" r="2"></circle><circle cx="491" cy="161" r="2"></circle><circle cx="509" cy="144" r="2"></circle><circle cx="528" cy="170" r="2"></circle><circle cx="546" cy="125" r="2"></circle><circle cx="565" cy="97" r="2"></circle><circle cx="583" cy="136" r="2"></circle><circle cx="602" cy="138" r="2"></circle><circle cx="620" cy="135" r="2"></circle><circle cx="639" cy="182" r="2"></circle><circle cx="657" cy="171" r="2"></circle><circle cx="675" cy="137" r="2"></circle><circle cx="694" cy="129" r="2"></circle><circle cx="712" cy="162" r="2"></circle><circle cx="731" cy="157" r="2"></circle><circle cx="749" cy="129" r="2"></circle><circle cx="768" cy="132" r="2"></circle><circle cx="786" cy="159" r="2"></circle><circle cx="805" cy="110" r="2"></circle><circle cx="823" cy="157" r="2"></circle><circle cx="841" cy="165" r="2"></circle><circle cx="860" cy="150" r="2"></circle><circle cx="878" cy="144" r="2"></circle><circle cx="897" cy="167" r="2"></circle><circle cx="915" cy="172" r="2"></circle><circle cx="934" cy="167" r="2"></circle><circle cx="952" cy="148" r="2"></circle><circle cx="971" cy="169" r="2"></circle><circle cx="989" cy="192" r="2"></circle><circle cx="1007" cy="212" r="2"></circle><circle cx="1026" cy="191" r="2"></circle><circle cx="1044" cy="187" r="2"></circle></g></g><g class="key-World_0"><path stroke="#3360a9" stroke-linecap="round" d="M85 434L104 430L122 430L141 427L159 424L177 420L196 415L214 414L233 413L251 412L270 411L288 414L307 410L325 411L343 409L362 407L380 409L399 407L417 402L436 400L454 404L473 399L491 397L509 397L528 395L546 390L565 388L583 389L602 386L620 390L639 391L657 380L675 377L694 374L712 369L731 363L749 356L768 360L786 352L805 347L823 350L841 342L860 339L878 330L897 325L915 317L934 313L952 306L971 304L989 302L1007 294L1026 289L1044 285" fill="none" stroke-width="1.5"></path><g fill="#3360a9"><circle cx="85" cy="434" r="2"></circle><circle cx="104" cy="430" r="2"></circle><circle cx="122" cy="430" r="2"></circle><circle cx="141" cy="427" r="2"></circle><circle cx="159" cy="424" r="2"></circle><circle cx="177" cy="420" r="2"></circle><circle cx="196" cy="415" r="2"></circle><circle cx="214" cy="414" r="2"></circle><circle cx="233" cy="413" r="2"></circle><circle cx="251" cy="412" r="2"></circle><circle cx="270" cy="411" r="2"></circle><circle cx="288" cy="414" r="2"></circle><circle cx="307" cy="410" r="2"></circle><circle cx="325" cy="411" r="2"></circle><circle cx="343" cy="409" r="2"></circle><circle cx="362" cy="407" r="2"></circle><circle cx="380" cy="409" r="2"></circle><circle cx="399" cy="407" r="2"></circle><circle cx="417" cy="402" r="2"></circle><circle cx="436" cy="400" r="2"></circle><circle cx="454" cy="404" r="2"></circle><circle cx="473" cy="399" r="2"></circle><circle cx="491" cy="397" r="2"></circle><circle cx="509" cy="397" r="2"></circle><circle cx="528" cy="395" r="2"></circle><circle cx="546" cy="390" r="2"></circle><circle cx="565" cy="388" r="2"></circle><circle cx="583" cy="389" r="2"></circle><circle cx="602" cy="386" r="2"></circle><circle cx="620" cy="390" r="2"></circle><circle cx="639" cy="391" r="2"></circle><circle cx="657" cy="380" r="2"></circle><circle cx="675" cy="377" r="2"></circle><circle cx="694" cy="374" r="2"></circle><circle cx="712" cy="369" r="2"></circle><circle cx="731" cy="363" r="2"></circle><circle cx="749" cy="356" r="2"></circle><circle cx="768" cy="360" r="2"></circle><circle cx="786" cy="352" r="2"></circle><circle cx="805" cy="347" r="2"></circle><circle cx="823" cy="350" r="2"></circle><circle cx="841" cy="342" r="2"></circle><circle cx="860" cy="339" r="2"></circle><circle cx="878" cy="330" r="2"></circle><circle cx="897" cy="325" r="2"></circle><circle cx="915" cy="317" r="2"></circle><circle cx="934" cy="313" r="2"></circle><circle cx="952" cy="306" r="2"></circle><circle cx="971" cy="304" r="2"></circle><circle cx="989" cy="302" r="2"></circle><circle cx="1007" cy="294" r="2"></circle><circle cx="1026" cy="289" r="2"></circle><circle cx="1044" cy="285" r="2"></circle></g></g></g></g></g></g></svg>