<svg xmlns="http://www.w3.org/2000/svg" version="1.1" style="font-family: 'Helvetica Neue', Helvetica, Arial, sans-serif; font-size: 24px; background-color: white;" width="1200" height="630"><g class="ChartTab"><g class="LineChart"><defs><clipPath id="boundsClip-79"><rect x="76.528" y="0" width="1180" height="1130"></rect></clipPath></defs><g class="AxisBoxView"><g class="HorizontalAxis"><text x="86.5" y="600" fill="#666" text-anchor="middle" font-size="21.6">1960</text><text x="213.4" y="600" fill="#666" text-anchor="middle" font-size="21.6">1970</text><text x="340.2" y="600" fill="#666" text-anchor="middle" font-size="21.6">1980</text><text x="467.1" y="600" fill="#666" text-anchor="middle" font-size="21.6">1990</text><text x="594" y="600" fill="#666" text-anchor="middle" font-size="21.6">2000</text><text x="720.8" y="600" fill="#666" text-anchor="middle" font-size="21.6">2010</text><text x="796.9" y="600" fill="#666" text-anchor="middle" font-size="21.6">2016</text></g><g class="VerticalAxis"><text x="81.53" y="573.4" fill="#666" dominant-baseline="middle" text-anchor="end" font-size="21.6">$0</text><text x="81.53" y="491.5" fill="#666" dominant-baseline="middle" text-anchor="end" font-size="21.6">$1,000</text><text x="81.53" y="409.6" fill="#666" dominant-baseline="middle" text-anchor="end" font-size="21.6">$2,000</text><text x="81.53" y="327.6" fill="#666" dominant-baseline="middle" text-anchor="end" font-size="21.6">$3,000</text><text x="81.53" y="245.7" fill="#666" dominant-baseline="middle" text-anchor="end" font-size="21.6">$4,000</text><text x="81.53" y="163.8" fill="#666" dominant-baseline="middle" text-anchor="end" font-size="21.6">$5,000</text><text x="81.53" y="81.9" fill="#666" dominant-baseline="middle" text-anchor="end" font-size="21.6">$6,000</text></g><g class="AxisGridLines"><line x1="86.53" y1="573.4" x2="796.93" y2="573.4" stroke="#ccc"></line><line x1="86.53" y1="491.5" x2="796.93" y2="491.5" stroke="#ddd" stroke-dasharray="3,2"></line><line x1="86.53" y1="409.6" x2="796.93" y2="409.6" stroke="#ddd" stroke-dasharray="3,2"></line><line x1="86.53" y1="327.6" x2="796.93" y2="327.6" stroke="#ddd" stroke-dasharray="3,2"></line><line x1="86.53" y1="245.7" x2="796.93" y2="245.7" stroke="#ddd" stroke-dasharray="3,2"></line><line x1="86.53" y1="163.8" x2="796.93" y2="163.8" stroke="#ddd" stroke-dasharray="3,2"></line><line x1="86.53" y1="81.9" x2="796.93" y2="81.9" stroke="#ddd" stroke-dasharray="3,2"></line></g><g class="AxisGridLines"><line x1="86.5" y1="573.40" x2="86.5" y2="35.00" stroke="#ddd" stroke-dasharray="3,2"></line><line x1="213.4" y1="573.40" x2="213.4" y2="35.00" stroke="#ddd" stroke-dasharray="3,2"></line><line x1="340.2" y1="573.40" x2="340.2" y2="35.00" stroke="#ddd" stroke-dasharray="3,2"></line><line x1="467.1" y1="573.40" x2="467.1" y2="35.00" stroke="#ddd" stroke-dasharray="3,2"></line><line x1="594" y1="573.40" x2="594" y2="35.00" stroke="#ddd" stroke-dasharray="3,2"></line><line x1="720.8" y1="573.40" x2="720.8" y2="35.00" stroke="#ddd" stroke-dasharray="3,2"></line></g></g><g clip-path="url(#boundsClip-79)"><g class="HeightedLegend clickable"><g class="legendMark"><rect x="806.9279999999999" y="15.249999999999996" width="378.07200000000006" height="39.50000000000001" fill="#fff" opacity="0"></rect><rect x="806.9279999999999" y="33.75" width="10" height="2.5" fill="#ca2628"></rect><text font-size="19.20" x="821.9" y="30.6" fill="#333"><tspan x="821.9279999999999" y="30.610000000000003">GDP per capita, PPP (current international</tspan><tspan x="821.9279999999999" y="51.730000000000004">$)</tspan></text></g><g class="legendMark"><rect x="806.9279999999999" y="423.79999999999995" width="267.48" height="19.200000000000003" fill="#fff" opacity="0"></rect><rect x="806.9279999999999" y="432.15" width="10" height="2.5" fill="#ca2628"></rect><text font-size="19.20" x="821.9" y="439.2" fill="#333"><tspan x="821.9279999999999" y="439.15999999999997">GDP per capita (current US$)</tspan></text></g></g><g class="Lines"><rect x="87" y="35" width="710" height="538" fill="rgba(255,255,255,0)" opacity="0"></rect><g class="key-India_0"><path stroke="#ca2628" stroke-linecap="round" d="M87 567L99 567L112 566L125 565L137 564L150 564L163 566L175 566L188 565L201 565L213 564L226 564L239 563L251 562L264 560L277 561L290 560L302 558L315 557L328 555L340 552L353 552L366 551L378 550L391 551L404 549L416 548L429 546L442 545L454 545L467 544L480 549L493 548L505 549L518 545L531 543L543 541L556 540L569 540L581 538L594 537L607 537L619 535L632 529L645 523L657 516L670 509L683 490L695 492L708 484L721 463L734 454L746 455L759 454L772 445L784 441L797 433" fill="none" stroke-width="1.5"></path><g fill="#ca2628"><circle cx="87" cy="567" r="2"></circle><circle cx="99" cy="567" r="2"></circle><circle cx="112" cy="566" r="2"></circle><circle cx="125" cy="565" r="2"></circle><circle cx="137" cy="564" r="2"></circle><circle cx="150" cy="564" r="2"></circle><circle cx="163" cy="566" r="2"></circle><circle cx="175" cy="566" r="2"></circle><circle cx="188" cy="565" r="2"></circle><circle cx="201" cy="565" r="2"></circle><circle cx="213" cy="564" r="2"></circle><circle cx="226" cy="564" r="2"></circle><circle cx="239" cy="563" r="2"></circle><circle cx="251" cy="562" r="2"></circle><circle cx="264" cy="560" r="2"></circle><circle cx="277" cy="561" r="2"></circle><circle cx="290" cy="560" r="2"></circle><circle cx="302" cy="558" r="2"></circle><circle cx="315" cy="557" r="2"></circle><circle cx="328" cy="555" r="2"></circle><circle cx="340" cy="552" r="2"></circle><circle cx="353" cy="552" r="2"></circle><circle cx="366" cy="551" r="2"></circle><circle cx="378" cy="550" r="2"></circle><circle cx="391" cy="551" r="2"></circle><circle cx="404" cy="549" r="2"></circle><circle cx="416" cy="548" r="2"></circle><circle cx="429" cy="546" r="2"></circle><circle cx="442" cy="545" r="2"></circle><circle cx="454" cy="545" r="2"></circle><circle cx="467" cy="544" r="2"></circle><circle cx="480" cy="549" r="2"></circle><circle cx="493" cy="548" r="2"></circle><circle cx="505" cy="549" r="2"></circle><circle cx="518" cy="545" r="2"></circle><circle cx="531" cy="543" r="2"></circle><circle cx="543" cy="541" r="2"></circle><circle cx="556" cy="540" r="2"></circle><circle cx="569" cy="540" r="2"></circle><circle cx="581" cy="538" r="2"></circle><circle cx="594" cy="537" r="2"></circle><circle cx="607" cy="537" r="2"></circle><circle cx="619" cy="535" r="2"></circle><circle cx="632" cy="529" r="2"></circle><circle cx="645" cy="523" r="2"></circle><circle cx="657" cy="516" r="2"></circle><circle cx="670" cy="509" r="2"></circle><circle cx="683" cy="490" r="2"></circle><circle cx="695" cy="492" r="2"></circle><circle cx="708" cy="484" r="2"></circle><circle cx="721" cy="463" r="2"></circle><circle cx="734" cy="454" r="2"></circle><circle cx="746" cy="455" r="2"></circle><circle cx="759" cy="454" r="2"></circle><circle cx="772" cy="445" r="2"></circle><circle cx="784" cy="441" r="2"></circle><circle cx="797" cy="433" r="2"></circle></g></g><g class="key-India_1"><path stroke="#ca2628" stroke-linecap="round" d="M467 481L480 478L493 473L505 468L518 461L531 452L543 443L556 438L569 430L581 418L594 411L607 403L619 397L632 382L645 365L657 342L670 316L683 288L695 275L708 252L721 220L734 194L746 171L759 143L772 108L784 72L797 35" fill="none" stroke-width="1.5"></path><g fill="#ca2628"><circle cx="467" cy="481" r="2"></circle><circle cx="480" cy="478" r="2"></circle><circle cx="493" cy="473" r="2"></circle><circle cx="505" cy="468" r="2"></circle><circle cx="518" cy="461" r="2"></circle><circle cx="531" cy="452" r="2"></circle><circle cx="543" cy="443" r="2"></circle><circle cx="556" cy="438" r="2"></circle><circle cx="569" cy="430" r="2"></circle><circle cx="581" cy="418" r="2"></circle><circle cx="594" cy="411" r="2"></circle><circle cx="607" cy="403" r="2"></circle><circle cx="619" cy="397" r="2"></circle><circle cx="632" cy="382" r="2"></circle><circle cx="645" cy="365" r="2"></circle><circle cx="657" cy="342" r="2"></circle><circle cx="670" cy="316" r="2"></circle><circle cx="683" cy="288" r="2"></circle><circle cx="695" cy="275" r="2"></circle><circle cx="708" cy="252" r="2"></circle><circle cx="721" cy="220" r="2"></circle><circle cx="734" cy="194" r="2"></circle><circle cx="746" cy="171" r="2"></circle><circle cx="759" cy="143" r="2"></circle><circle cx="772" cy="108" r="2"></circle><circle cx="784" cy="72" r="2"></circle><circle cx="797" cy="35" r="2"></circle></g></g></g></g></g></g></svg>