<svg xmlns="http://www.w3.org/2000/svg" version="1.1" style="font-family: 'Helvetica Neue', Helvetica, Arial, sans-serif; font-size: 24px; background-color: white;" width="1200" height="630"><g class="ChartTab"><g><g class="AxisBoxView"><g class="HorizontalAxis"><text font-size="16.80" x="359.6" y="596.6"><tspan x="359.5560000000001" y="596.64">GDP per capita, PPP (current international $)</tspan></text><text x="205" y="573.2" fill="#666" text-anchor="middle" font-size="21.6">$1,000</text><text x="637.6" y="573.2" fill="#666" text-anchor="middle" font-size="21.6">$10,000</text></g><g class="VerticalAxis"><text font-size="16.80" x="-558.8" y="28.4" transform="rotate(-90)"><tspan x="-558.832" y="28.439999999999998">All staff compensation as % of total expenditure in primary public</tspan><tspan x="-558.832" y="46.919999999999995">institutions (%)</tspan></text><text x="103.12" y="546.6" fill="#666" dominant-baseline="middle" text-anchor="end" font-size="21.6">0%</text><text x="103.12" y="444.1" fill="#666" dominant-baseline="middle" text-anchor="end" font-size="21.6">20%</text><text x="103.12" y="341.7" fill="#666" dominant-baseline="middle" text-anchor="end" font-size="21.6">40%</text><text x="103.12" y="239.2" fill="#666" dominant-baseline="middle" text-anchor="end" font-size="21.6">60%</text><text x="103.12" y="136.8" fill="#666" dominant-baseline="middle" text-anchor="end" font-size="21.6">80%</text></g><g class="AxisGridLines"><line x1="108.12" y1="546.6" x2="1041.46" y2="546.6" stroke="#ccc"></line><line x1="108.12" y1="444.1" x2="1041.46" y2="444.1" stroke="#ddd" stroke-dasharray="3,2"></line><line x1="108.12" y1="341.7" x2="1041.46" y2="341.7" stroke="#ddd" stroke-dasharray="3,2"></line><line x1="108.12" y1="239.2" x2="1041.46" y2="239.2" stroke="#ddd" stroke-dasharray="3,2"></line><line x1="108.12" y1="136.8" x2="1041.46" y2="136.8" stroke="#ddd" stroke-dasharray="3,2"></line></g><g class="AxisGridLines"><line x1="205" y1="546.60" x2="205" y2="35.00" stroke="#ddd" stroke-dasharray="3,2"></line><line x1="637.6" y1="546.60" x2="637.6" y2="35.00" stroke="#ddd" stroke-dasharray="3,2"></line></g></g><g clip-path="url(#scatterBounds-99)" class="PointsWithLabels clickable"><rect x="108.116" y="35" width="933.3400000000001" height="511.6" fill="rgba(255,255,255,0)"></rect><defs><clipPath id="scatterBounds-99"><rect x="98.116" y="25" width="953.3400000000001" height="531.6"></rect></clipPath></defs><circle cx="933" cy="169" r="17.841241161527712" fill="#4d824b" opacity="0.8"></circle><circle cx="601" cy="226" r="15.70650089837656" fill="#d14e5b" opacity="0.8"></circle><circle cx="704" cy="214" r="14.179815248512655" fill="#69c487" opacity="0.8"></circle><circle cx="873" cy="163" r="11.471128310559335" fill="#d14e5b" opacity="0.8"></circle><circle cx="710" cy="66" r="10.875148204608092" fill="#4d824b" opacity="0.8"></circle><circle cx="483" cy="199" r="9.606992389777878" fill="#d14e5b" opacity="0.8"></circle><circle cx="214" cy="135" r="9.344452267034113" fill="#5675c1" opacity="0.8"></circle><circle cx="894" cy="164" r="9.3092208584949" fill="#ffd336" opacity="0.8"></circle><circle cx="742" cy="104" r="8.772804847357449" fill="#d14e5b" opacity="0.8"></circle><circle cx="690" cy="125" r="8.560096108190354" fill="#d14e5b" opacity="0.8"></circle><circle cx="108" cy="46" r="8.370749368635257" fill="#5675c1" opacity="0.8"></circle><circle cx="878" cy="183" r="8.17565732347796" fill="#ffd336" opacity="0.8"></circle><circle cx="877" cy="226" r="8.12882266345869" fill="#ffd336" opacity="0.8"></circle><circle cx="873" cy="140" r="8.035534664407177" fill="#ffd336" opacity="0.8"></circle><circle cx="668" cy="145" r="7.347711608874626" fill="#5675c1" opacity="0.8"></circle><circle cx="650" cy="87" r="7.077490403215667" fill="#69c487" opacity="0.8"></circle><circle cx="856" cy="162" r="7.061841938850012" fill="#ffd336" opacity="0.8"></circle><circle cx="751" cy="109" r="6.642018786784957" fill="#69c487" opacity="0.8"></circle><circle cx="777" cy="217" r="6.476673417995647" fill="#ffd336" opacity="0.8"></circle><circle cx="282" cy="156" r="6.0843606744038405" fill="#5675c1" opacity="0.8"></circle><circle cx="633" cy="213" r="5.709927823210448" fill="#69c487" opacity="0.8"></circle><circle cx="411" cy="98" r="5.276867072577933" fill="#5675c1" opacity="0.8"></circle><circle cx="894" cy="257" r="5.068400151194039" fill="#a652ba" opacity="0.8"></circle><circle cx="739" cy="148" r="4.989432605677952" fill="#ffd336" opacity="0.8"></circle><circle cx="604" cy="122" r="4.925263398208084" fill="#d14e5b" opacity="0.8"></circle><circle cx="384" cy="135" r="4.793478766780967" fill="#5675c1" opacity="0.8"></circle><circle cx="918" cy="168" r="4.465964982585639" fill="#ffd336" opacity="0.8"></circle><circle cx="267" cy="84" r="4.449529528315355" fill="#5675c1" opacity="0.8"></circle><circle cx="162" cy="124" r="4.338961845069771" fill="#5675c1" opacity="0.8"></circle><circle cx="319" cy="212" r="4.322293719803457" fill="#5675c1" opacity="0.8"></circle><circle cx="207" cy="82" r="4.266839712328971" fill="#5675c1" opacity="0.8"></circle><circle cx="621" cy="159" r="4.214617329015776" fill="#69c487" opacity="0.8"></circle><circle cx="898" cy="109" r="3.7351895193800204" fill="#ffd336" opacity="0.8"></circle><circle cx="826" cy="70" r="3.73022466360947" fill="#ffd336" opacity="0.8"></circle><circle cx="258" cy="251" r="3.723197902339444" fill="#5675c1" opacity="0.8"></circle><circle cx="828" cy="252" r="3.705281136017852" fill="#ffd336" opacity="0.8"></circle><circle cx="781" cy="204" r="3.6348078997753532" fill="#ffd336" opacity="0.8"></circle><circle cx="234" cy="147" r="3.6345207843030636" fill="#5675c1" opacity="0.8"></circle><circle cx="653" cy="196" r="3.6269301951028234" fill="#4d824b" opacity="0.8"></circle><circle cx="673" cy="133" r="3.61696181721524" fill="#ffd336" opacity="0.8"></circle><circle cx="905" cy="214" r="3.549426091992159" fill="#ffd336" opacity="0.8"></circle><circle cx="313" cy="138" r="3.4728008121907594" fill="#5675c1" opacity="0.8"></circle><circle cx="906" cy="171" r="3.4054313281846067" fill="#ffd336" opacity="0.8"></circle><circle cx="150" cy="163" r="3.403821193212904" fill="#5675c1" opacity="0.8"></circle><circle cx="950" cy="160" r="3.29487952752276" fill="#ffd336" opacity="0.8"></circle><circle cx="460" cy="35" r="3.2850326437022517" fill="#4d824b" opacity="0.8"></circle><circle cx="713" cy="198" r="3.268575654040993" fill="#ffd336" opacity="0.8"></circle><circle cx="836" cy="162" r="3.256757184319508" fill="#d14e5b" opacity="0.8"></circle><circle cx="574" cy="140" r="3.1028281189815363" fill="#69c487" opacity="0.8"></circle><circle cx="623" cy="94" r="3.05876460124082" fill="#d14e5b" opacity="0.8"></circle><circle cx="236" cy="147" r="3.03218051652628" fill="#5675c1" opacity="0.8"></circle><circle cx="238" cy="117" r="3.005220533851456" fill="#5675c1" opacity="0.8"></circle><circle cx="463" cy="153" r="2.9917780995698875" fill="#4d824b" opacity="0.8"></circle><circle cx="912" cy="177" r="2.9511002947327394" fill="#ffd336" opacity="0.8"></circle><circle cx="809" cy="261" r="2.935914409196245" fill="#ffd336" opacity="0.8"></circle><circle cx="892" cy="238" r="2.9189886160736496" fill="#ffd336" opacity="0.8"></circle><circle cx="967" cy="193" r="2.8339955378128874" fill="#ffd336" opacity="0.8"></circle><circle cx="683" cy="187" r="2.7935282749039794" fill="#4d824b" opacity="0.8"></circle><circle cx="912" cy="140" r="2.75895954743016" fill="#ffd336" opacity="0.8"></circle><circle cx="178" cy="38" r="2.7462578360328735" fill="#5675c1" opacity="0.8"></circle><circle cx="510" cy="443" r="2.6792124230821863" fill="#5675c1" opacity="0.8"></circle><circle cx="457" cy="221" r="2.588593243592951" fill="#ffd336" opacity="0.8"></circle><circle cx="769" cy="131" r="2.539220895337066" fill="#ffd336" opacity="0.8"></circle><circle cx="602" cy="91" r="2.321863878795573" fill="#5675c1" opacity="0.8"></circle><circle cx="743" cy="203" r="2.3150236505705033" fill="#ffd336" opacity="0.8"></circle><circle cx="829" cy="162" r="2.2657177348688458" fill="#ffd336" opacity="0.8"></circle><circle cx="295" cy="331" r="2.1971525319318563" fill="#5675c1" opacity="0.8"></circle><circle cx="263" cy="297" r="2.1473182411693856" fill="#5675c1" opacity="0.8"></circle><circle cx="721" cy="133" r="2.095601331245455" fill="#5675c1" opacity="0.8"></circle><circle cx="863" cy="150" r="2.0476724000383926" fill="#ffd336" opacity="0.8"></circle><circle cx="532" cy="137" r="1.9591702522924965" fill="#69c487" opacity="0.8"></circle><circle cx="1041" cy="178" r="1.8940537769066637" fill="#ffd336" opacity="0.8"></circle><circle cx="830" cy="116" r="1.8695145548699963" fill="#ffd336" opacity="0.8"></circle><circle cx="890" cy="176" r="1.843149062246701" fill="#ffd336" opacity="0.8"></circle><circle cx="632" cy="87" r="1.7841241161527712" fill="#4d824b" opacity="0.8"></circle><text x="933" y="150.1587588384723" font-size="14.3" font-family="Arial Narrow, Arial, sans-serif" fill="#666">United States</text><text x="601" y="209.29349910162344" font-size="13.550041978780637" font-family="Arial Narrow, Arial, sans-serif" fill="#666">Indonesia</text><text x="704" y="198.82018475148735" font-size="13.072237047494202" font-family="Arial Narrow, Arial, sans-serif" fill="#666">Brazil</text><text x="873" y="150.52887168944068" font-size="12.344640253924737" font-family="Arial Narrow, Arial, sans-serif" fill="#666">Japan</text><text x="710" y="54.124851795391905" font-size="12.205175151695864" font-family="Arial Narrow, Arial, sans-serif" fill="#666">Mexico</text><text x="483" y="188.39300761022213" font-size="11.933170345244003" font-family="Arial Narrow, Arial, sans-serif" fill="#666">Vietnam</text><text x="214" y="124.65554773296589" font-size="11.881066878126658" font-family="Arial Narrow, Arial, sans-serif" fill="#666">Ethiopia</text><text x="742" y="94.22719515264257" font-size="11.772611944422202" font-family="Arial Narrow, Arial, sans-serif" fill="#666">Turkey</text><text x="690" y="115.43990389180965" font-size="11.73400324193457" font-family="Arial Narrow, Arial, sans-serif" fill="#666">Thailand</text><text x="108" y="46.700432178765254" font-size="11.700432178765253" font-family="Arial Narrow, Arial, sans-serif" fill="#666">Democratic Republic of Congo</text><text x="878" y="173.82434267652204" font-size="11.66662788446293" font-family="Arial Narrow, Arial, sans-serif" fill="#666">France</text><text x="877" y="216.8711773365413" font-size="11.65863132921783" font-family="Arial Narrow, Arial, sans-serif" fill="#666">United Kingdom</text><text x="873" y="130.96446533559282" font-size="11.64284021269352" font-family="Arial Narrow, Arial, sans-serif" fill="#666">Italy</text><text x="668" y="136.65228839112538" font-size="11.532036748156147" font-family="Arial Narrow, Arial, sans-serif" fill="#666">South Africa</text><text x="650" y="78.92250959678434" font-size="11.491217034948221" font-family="Arial Narrow, Arial, sans-serif" fill="#666">Colombia</text><text x="777" y="209.52332658200436" font-size="11.40593775001542" font-family="Arial Narrow, Arial, sans-serif" fill="#666">Poland</text><text x="282" y="148.91563932559615" font-size="11.354333386248824" font-family="Arial Narrow, Arial, sans-serif" fill="#666">Uganda</text><text x="411" y="91.72313292742207" font-size="11.258262239725928" font-family="Arial Narrow, Arial, sans-serif" fill="#666">Ghana</text><text x="894" y="250.93159984880597" font-size="11.235677895531353" font-family="Arial Narrow, Arial, sans-serif" fill="#666">Australia</text><text x="739" y="142.01056739432204" font-size="11.227360608923808" font-family="Arial Narrow, Arial, sans-serif" fill="#666">Romania</text><text x="604" y="116.07473660179191" font-size="11.220698147671541" font-family="Arial Narrow, Arial, sans-serif" fill="#666">Sri Lanka</text><text x="384" y="129.20652123321904" font-size="11.207285841930705" font-family="Arial Narrow, Arial, sans-serif" fill="#666">Cameroon</text><text x="918" y="162.53403501741437" font-size="11.175528576516001" font-family="Arial Narrow, Arial, sans-serif" fill="#666">Netherlands</text><text x="267" y="78.55047047168463" font-size="11.17399411582543" font-family="Arial Narrow, Arial, sans-serif" fill="#666">Burkina Faso</text><text x="162" y="118.66103815493022" font-size="11.163818254999688" font-family="Arial Narrow, Arial, sans-serif" fill="#666">Niger</text><text x="319" y="206.67770628019653" font-size="11.162306448434398" font-family="Arial Narrow, Arial, sans-serif" fill="#666">Mali</text><text x="207" y="76.73316028767101" font-size="11.157318626920222" font-family="Arial Narrow, Arial, sans-serif" fill="#666">Malawi</text><text x="621" y="153.78538267098423" font-size="11.152680359622718" font-family="Arial Narrow, Arial, sans-serif" fill="#666">Ecuador</text><text x="898" y="104.26481048061999" font-size="11.112767906907242" font-family="Arial Narrow, Arial, sans-serif" fill="#666">Belgium</text><text x="826" y="65.26977533639052" font-size="11.112379766227411" font-family="Arial Narrow, Arial, sans-serif" fill="#666">Portugal</text><text x="258" y="246.27680209766055" font-size="11.111831313045059" font-family="Arial Narrow, Arial, sans-serif" fill="#666">Rwanda</text><text x="234" y="142.36547921569695" font-size="11.104998754409865" font-family="Arial Narrow, Arial, sans-serif" fill="#666">Guinea</text><text x="313" y="133.52719918780923" font-size="11.092962309211151" font-family="Arial Narrow, Arial, sans-serif" fill="#666">Benin</text><text x="150" y="158.5961788067871" font-size="11.087994961495642" font-family="Arial Narrow, Arial, sans-serif" fill="#666">Burundi</text><text x="460" y="46.07967435653735" font-size="11.079674356537353" font-family="Arial Narrow, Arial, sans-serif" fill="#666">Honduras</text><text x="836" y="157.7432428156805" font-size="11.077737333104096" font-family="Arial Narrow, Arial, sans-serif" fill="#666">Israel</text><text x="574" y="135.89717188101847" font-size="11.067486054249073" font-family="Arial Narrow, Arial, sans-serif" fill="#666">Paraguay</text><text x="463" y="149.0082219004301" font-size="11.060398556936411" font-family="Arial Narrow, Arial, sans-serif" fill="#666">Nicaragua</text><text x="809" y="257.06408559080376" font-size="11.056930837864387" font-family="Arial Narrow, Arial, sans-serif" fill="#666">Slovakia</text><text x="892" y="234.08101138392635" font-size="11.055893076847424" font-family="Arial Narrow, Arial, sans-serif" fill="#666">Finland</text><text x="967" y="189.16600446218712" font-size="11.050772659568041" font-family="Arial Narrow, Arial, sans-serif" fill="#666">Norway</text><text x="683" y="183.206471725096" font-size="11.048387871498932" font-family="Arial Narrow, Arial, sans-serif" fill="#666">Costa Rica</text><text x="510" y="439.32078757691784" font-size="11.041836383553326" font-family="Arial Narrow, Arial, sans-serif" fill="#666">Congo</text><text x="457" y="217.41140675640705" font-size="11.036837437055558" font-family="Arial Narrow, Arial, sans-serif" fill="#666">Moldova</text><text x="769" y="127.46077910466293" font-size="11.034186223710245" font-family="Arial Narrow, Arial, sans-serif" fill="#666">Lithuania</text><text x="602" y="87.67813612120443" font-size="11.023121629850385" font-family="Arial Narrow, Arial, sans-serif" fill="#666">Namibia</text><text x="743" y="199.6849763494295" font-size="11.022789486339384" font-family="Arial Narrow, Arial, sans-serif" fill="#666">Latvia</text><text x="295" y="327.80284746806814" font-size="11.017219911142265" font-family="Arial Narrow, Arial, sans-serif" fill="#666">Gambia</text><text x="263" y="293.8526817588306" font-size="11.01495269053835" font-family="Arial Narrow, Arial, sans-serif" fill="#666">Guinea-Bissau</text><text x="532" y="134.0408297477075" font-size="11.006861753740312" font-family="Arial Narrow, Arial, sans-serif" fill="#666">Guyana</text><text x="979.5963728991816" y="175.10594622309333" font-size="11.004234247458498" font-family="Arial Narrow, Arial, sans-serif" fill="#666">Luxembourg</text><text x="830" y="113.13048544513" font-size="11.003267107752274" font-family="Arial Narrow, Arial, sans-serif" fill="#666">Malta</text></g><g style="cursor: pointer;" class="ScatterColorLegend clickable"><g class="legendMark"><rect x="1061.4560000000001" y="32.5" width="56.007999999999996" height="21.799999999999997" fill="#fff" opacity="0"></rect>,<rect x="1061.4560000000001" y="39" width="8" height="8" fill="#5675c1"></rect>,<text font-size="16.80" x="1074.5" y="48.4"><tspan x="1074.4560000000001" y="48.44">Africa</tspan></text></g><g class="legendMark"><rect x="1061.4560000000001" y="54.3" width="45.76" height="21.799999999999997" fill="#fff" opacity="0"></rect>,<rect x="1061.4560000000001" y="60.8" width="8" height="8" fill="#d14e5b"></rect>,<text font-size="16.80" x="1074.5" y="70.2"><tspan x="1074.4560000000001" y="70.24">Asia</tspan></text></g><g class="legendMark"><rect x="1061.4560000000001" y="76.1" width="67.43199999999999" height="21.799999999999997" fill="#fff" opacity="0"></rect>,<rect x="1061.4560000000001" y="82.6" width="8" height="8" fill="#ffd336"></rect>,<text font-size="16.80" x="1074.5" y="92.0"><tspan x="1074.4560000000001" y="92.03999999999999">Europe</tspan></text></g><g class="legendMark"><rect x="1061.4560000000001" y="97.89999999999999" width="120.51999999999998" height="21.799999999999997" fill="#fff" opacity="0"></rect>,<rect x="1061.4560000000001" y="104.39999999999999" width="8" height="8" fill="#4d824b"></rect>,<text font-size="16.80" x="1074.5" y="113.8"><tspan x="1074.4560000000001" y="113.83999999999999">North America</tspan></text></g><g class="legendMark"><rect x="1061.4560000000001" y="119.69999999999999" width="75.832" height="21.799999999999997" fill="#fff" opacity="0"></rect>,<rect x="1061.4560000000001" y="126.19999999999999" width="8" height="8" fill="#a652ba"></rect>,<text font-size="16.80" x="1074.5" y="135.6"><tspan x="1074.4560000000001" y="135.64">Oceania</tspan></text></g><g class="legendMark"><rect x="1061.4560000000001" y="141.5" width="123.54399999999998" height="21.799999999999997" fill="#fff" opacity="0"></rect>,<rect x="1061.4560000000001" y="148" width="8" height="8" fill="#69c487"></rect>,<text font-size="16.80" x="1074.5" y="157.4"><tspan x="1074.4560000000001" y="157.44">South America</tspan></text></g></g></g></g></svg>