<svg xmlns="http://www.w3.org/2000/svg" version="1.1" style="font-family: 'Helvetica Neue', Helvetica, Arial, sans-serif; font-size: 24px; background-color: white;" width="1200" height="630"><g class="ChartTab"><g class="LineChart"><defs><clipPath id="boundsClip-133"><rect x="65.512" y="0" width="1180" height="1130"></rect></clipPath></defs><g class="AxisBoxView"><g class="HorizontalAxis"><text x="75.5" y="600" fill="#666" text-anchor="middle" font-size="21.6">1870</text><text x="132.8" y="600" fill="#666" text-anchor="middle" font-size="21.6">1880</text><text x="247.5" y="600" fill="#666" text-anchor="middle" font-size="21.6">1900</text><text x="362.2" y="600" fill="#666" text-anchor="middle" font-size="21.6">1920</text><text x="476.8" y="600" fill="#666" text-anchor="middle" font-size="21.6">1940</text><text x="591.5" y="600" fill="#666" text-anchor="middle" font-size="21.6">1960</text><text x="706.2" y="600" fill="#666" text-anchor="middle" font-size="21.6">1980</text><text x="820.8" y="600" fill="#666" text-anchor="middle" font-size="21.6">2000</text><text x="878.1" y="600" fill="#666" text-anchor="middle" font-size="21.6">2010</text></g><g class="VerticalAxis"><text x="70.51" y="573.4" fill="#666" dominant-baseline="middle" text-anchor="end" font-size="21.6">0%</text><text x="70.51" y="467.1" fill="#666" dominant-baseline="middle" text-anchor="end" font-size="21.6">20%</text><text x="70.51" y="360.8" fill="#666" dominant-baseline="middle" text-anchor="end" font-size="21.6">40%</text><text x="70.51" y="254.4" fill="#666" dominant-baseline="middle" text-anchor="end" font-size="21.6">60%</text><text x="70.51" y="148.1" fill="#666" dominant-baseline="middle" text-anchor="end" font-size="21.6">80%</text><text x="70.51" y="41.8" fill="#666" dominant-baseline="middle" text-anchor="end" font-size="21.6">100%</text></g><g class="AxisGridLines"><line x1="75.51" y1="573.4" x2="878.14" y2="573.4" stroke="#ccc"></line><line x1="75.51" y1="467.1" x2="878.14" y2="467.1" stroke="#ddd" stroke-dasharray="3,2"></line><line x1="75.51" y1="360.8" x2="878.14" y2="360.8" stroke="#ddd" stroke-dasharray="3,2"></line><line x1="75.51" y1="254.4" x2="878.14" y2="254.4" stroke="#ddd" stroke-dasharray="3,2"></line><line x1="75.51" y1="148.1" x2="878.14" y2="148.1" stroke="#ddd" stroke-dasharray="3,2"></line><line x1="75.51" y1="41.8" x2="878.14" y2="41.8" stroke="#ddd" stroke-dasharray="3,2"></line></g><g class="AxisGridLines"><line x1="132.8" y1="573.40" x2="132.8" y2="35.00" stroke="#ddd" stroke-dasharray="3,2"></line><line x1="247.5" y1="573.40" x2="247.5" y2="35.00" stroke="#ddd" stroke-dasharray="3,2"></line><line x1="362.2" y1="573.40" x2="362.2" y2="35.00" stroke="#ddd" stroke-dasharray="3,2"></line><line x1="476.8" y1="573.40" x2="476.8" y2="35.00" stroke="#ddd" stroke-dasharray="3,2"></line><line x1="591.5" y1="573.40" x2="591.5" y2="35.00" stroke="#ddd" stroke-dasharray="3,2"></line><line x1="706.2" y1="573.40" x2="706.2" y2="35.00" stroke="#ddd" stroke-dasharray="3,2"></line><line x1="820.8" y1="573.40" x2="820.8" y2="35.00" stroke="#ddd" stroke-dasharray="3,2"></line></g></g><g clip-path="url(#boundsClip-133)"><g class="HeightedLegend clickable"><g class="legendMark"><rect x="888.144" y="25.4" width="149.01600000000002" height="19.200000000000003" fill="#fff" opacity="0"></rect><rect x="888.144" y="33.75" width="10" height="2.5" fill="#ffd53e"></rect><text font-size="19.20" x="903.1" y="40.8" fill="#333"><tspan x="903.144" y="40.76">Eastern Europe</tspan></text></g><g class="legendMark"><rect x="888.144" y="44.6" width="296.85600000000005" height="19.200000000000003" fill="#fff" opacity="0"></rect><rect x="888.144" y="52.95" width="10" height="2.5" fill="#f07f59"></rect><text font-size="19.20" x="903.1" y="60.0" fill="#333"><tspan x="903.144" y="59.96">Latin America and the Caribbean</tspan></text></g><g class="legendMark"><rect x="888.144" y="63.800000000000004" width="201.43200000000004" height="19.200000000000003" fill="#fff" opacity="0"></rect><rect x="888.144" y="72.15" width="10" height="2.5" fill="#ca2628"></rect><text font-size="19.20" x="903.1" y="79.2" fill="#333"><tspan x="903.144" y="79.16">Advanced Economies</tspan></text></g><g class="legendMark"><rect x="888.144" y="98.69999999999999" width="260.1840000000001" height="19.200000000000003" fill="#fff" opacity="0"></rect><rect x="888.144" y="107.04999999999998" width="10" height="2.5" fill="#34983f"></rect><text font-size="19.20" x="903.1" y="114.1" fill="#333"><tspan x="903.144" y="114.05999999999999">Middle East and North Africa</tspan></text></g><g class="legendMark"><rect x="888.144" y="117.89999999999999" width="184.34400000000002" height="19.200000000000003" fill="#fff" opacity="0"></rect><rect x="888.144" y="126.25" width="10" height="2.5" fill="#b077b1"></rect><text font-size="19.20" x="903.1" y="133.3" fill="#333"><tspan x="903.144" y="133.26">Asia and the Pacific</tspan></text></g><g class="legendMark"><rect x="888.144" y="137.1" width="183.19200000000004" height="19.200000000000003" fill="#fff" opacity="0"></rect><rect x="888.144" y="145.45" width="10" height="2.5" fill="#3360a9"></rect><text font-size="19.20" x="903.1" y="152.5" fill="#333"><tspan x="903.144" y="152.46">Sub-Saharan Africa</tspan></text></g></g><g class="Lines"><rect x="76" y="35" width="803" height="538" fill="rgba(255,255,255,0)" opacity="0"></rect><g class="key-Asia-and-the-Pacific_0"><path stroke="#b077b1" stroke-linecap="round" d="M76 414L104 438L133 452L162 483L190 497L219 504L248 497L276 489L305 483L334 464L362 415L391 423L420 430L448 432L477 325L506 337L534 325L563 314L592 292L620 265L649 234L678 221L706 205L735 175L764 147L792 166L821 170L850 148L878 127" fill="none" stroke-width="1.5"></path><g fill="#b077b1"><circle cx="76" cy="414" r="2"></circle><circle cx="104" cy="438" r="2"></circle><circle cx="133" cy="452" r="2"></circle><circle cx="162" cy="483" r="2"></circle><circle cx="190" cy="497" r="2"></circle><circle cx="219" cy="504" r="2"></circle><circle cx="248" cy="497" r="2"></circle><circle cx="276" cy="489" r="2"></circle><circle cx="305" cy="483" r="2"></circle><circle cx="334" cy="464" r="2"></circle><circle cx="362" cy="415" r="2"></circle><circle cx="391" cy="423" r="2"></circle><circle cx="420" cy="430" r="2"></circle><circle cx="448" cy="432" r="2"></circle><circle cx="477" cy="325" r="2"></circle><circle cx="506" cy="337" r="2"></circle><circle cx="534" cy="325" r="2"></circle><circle cx="563" cy="314" r="2"></circle><circle cx="592" cy="292" r="2"></circle><circle cx="620" cy="265" r="2"></circle><circle cx="649" cy="234" r="2"></circle><circle cx="678" cy="221" r="2"></circle><circle cx="706" cy="205" r="2"></circle><circle cx="735" cy="175" r="2"></circle><circle cx="764" cy="147" r="2"></circle><circle cx="792" cy="166" r="2"></circle><circle cx="821" cy="170" r="2"></circle><circle cx="850" cy="148" r="2"></circle><circle cx="878" cy="127" r="2"></circle></g></g><g class="key-Advanced-Economies_0"><path stroke="#ca2628" stroke-linecap="round" d="M76 178L104 165L133 175L162 156L190 163L219 140L248 133L276 127L305 125L334 115L362 97L391 82L420 70L448 67L477 61L506 59L534 73L563 74L592 70L620 70L649 70L678 72L706 68L735 60L764 58L792 57L821 52L850 46L878 42" fill="none" stroke-width="1.5"></path><g fill="#ca2628"><circle cx="76" cy="178" r="2"></circle><circle cx="104" cy="165" r="2"></circle><circle cx="133" cy="175" r="2"></circle><circle cx="162" cy="156" r="2"></circle><circle cx="190" cy="163" r="2"></circle><circle cx="219" cy="140" r="2"></circle><circle cx="248" cy="133" r="2"></circle><circle cx="276" cy="127" r="2"></circle><circle cx="305" cy="125" r="2"></circle><circle cx="334" cy="115" r="2"></circle><circle cx="362" cy="97" r="2"></circle><circle cx="391" cy="82" r="2"></circle><circle cx="420" cy="70" r="2"></circle><circle cx="448" cy="67" r="2"></circle><circle cx="477" cy="61" r="2"></circle><circle cx="506" cy="59" r="2"></circle><circle cx="534" cy="73" r="2"></circle><circle cx="563" cy="74" r="2"></circle><circle cx="592" cy="70" r="2"></circle><circle cx="620" cy="70" r="2"></circle><circle cx="649" cy="70" r="2"></circle><circle cx="678" cy="72" r="2"></circle><circle cx="706" cy="68" r="2"></circle><circle cx="735" cy="60" r="2"></circle><circle cx="764" cy="58" r="2"></circle><circle cx="792" cy="57" r="2"></circle><circle cx="821" cy="52" r="2"></circle><circle cx="850" cy="46" r="2"></circle><circle cx="878" cy="42" r="2"></circle></g></g><g class="key-Eastern-Europe_0"><path stroke="#ffd53e" stroke-linecap="round" d="M76 212L104 212L133 207L162 206L190 198L219 184L248 209L276 225L305 214L334 212L362 196L391 171L420 153L448 141L477 144L506 142L534 141L563 136L592 129L620 131L649 120L678 104L706 89L735 81L764 67L792 44L821 41L850 37L878 35" fill="none" stroke-width="1.5"></path><g fill="#ffd53e"><circle cx="76" cy="212" r="2"></circle><circle cx="104" cy="212" r="2"></circle><circle cx="133" cy="207" r="2"></circle><circle cx="162" cy="206" r="2"></circle><circle cx="190" cy="198" r="2"></circle><circle cx="219" cy="184" r="2"></circle><circle cx="248" cy="209" r="2"></circle><circle cx="276" cy="225" r="2"></circle><circle cx="305" cy="214" r="2"></circle><circle cx="334" cy="212" r="2"></circle><circle cx="362" cy="196" r="2"></circle><circle cx="391" cy="171" r="2"></circle><circle cx="420" cy="153" r="2"></circle><circle cx="448" cy="141" r="2"></circle><circle cx="477" cy="144" r="2"></circle><circle cx="506" cy="142" r="2"></circle><circle cx="534" cy="141" r="2"></circle><circle cx="563" cy="136" r="2"></circle><circle cx="592" cy="129" r="2"></circle><circle cx="620" cy="131" r="2"></circle><circle cx="649" cy="120" r="2"></circle><circle cx="678" cy="104" r="2"></circle><circle cx="706" cy="89" r="2"></circle><circle cx="735" cy="81" r="2"></circle><circle cx="764" cy="67" r="2"></circle><circle cx="792" cy="44" r="2"></circle><circle cx="821" cy="41" r="2"></circle><circle cx="850" cy="37" r="2"></circle><circle cx="878" cy="35" r="2"></circle></g></g><g class="key-Latin-America-and-the-Caribbean_0"><path stroke="#f07f59" stroke-linecap="round" d="M76 428L104 421L133 413L162 398L190 377L219 356L248 291L276 240L305 156L334 165L362 141L391 134L420 131L448 136L477 137L506 130L534 120L563 114L592 109L620 105L649 95L678 94L706 85L735 66L764 50L792 49L821 47L850 45L878 35" fill="none" stroke-width="1.5"></path><g fill="#f07f59"><circle cx="76" cy="428" r="2"></circle><circle cx="104" cy="421" r="2"></circle><circle cx="133" cy="413" r="2"></circle><circle cx="162" cy="398" r="2"></circle><circle cx="190" cy="377" r="2"></circle><circle cx="219" cy="356" r="2"></circle><circle cx="248" cy="291" r="2"></circle><circle cx="276" cy="240" r="2"></circle><circle cx="305" cy="156" r="2"></circle><circle cx="334" cy="165" r="2"></circle><circle cx="362" cy="141" r="2"></circle><circle cx="391" cy="134" r="2"></circle><circle cx="420" cy="131" r="2"></circle><circle cx="448" cy="136" r="2"></circle><circle cx="477" cy="137" r="2"></circle><circle cx="506" cy="130" r="2"></circle><circle cx="534" cy="120" r="2"></circle><circle cx="563" cy="114" r="2"></circle><circle cx="592" cy="109" r="2"></circle><circle cx="620" cy="105" r="2"></circle><circle cx="649" cy="95" r="2"></circle><circle cx="678" cy="94" r="2"></circle><circle cx="706" cy="85" r="2"></circle><circle cx="735" cy="66" r="2"></circle><circle cx="764" cy="50" r="2"></circle><circle cx="792" cy="49" r="2"></circle><circle cx="821" cy="47" r="2"></circle><circle cx="850" cy="45" r="2"></circle><circle cx="878" cy="35" r="2"></circle></g></g><g class="key-Middle-East-and-North-Africa_0"><path stroke="#34983f" stroke-linecap="round" d="M76 444L104 439L133 455L162 469L190 473L219 476L248 416L276 384L305 373L334 386L362 396L391 394L420 380L448 375L477 390L506 393L534 391L563 387L592 381L620 373L649 359L678 323L706 299L735 270L764 237L792 200L821 167L850 145L878 108" fill="none" stroke-width="1.5"></path><g fill="#34983f"><circle cx="76" cy="444" r="2"></circle><circle cx="104" cy="439" r="2"></circle><circle cx="133" cy="455" r="2"></circle><circle cx="162" cy="469" r="2"></circle><circle cx="190" cy="473" r="2"></circle><circle cx="219" cy="476" r="2"></circle><circle cx="248" cy="416" r="2"></circle><circle cx="276" cy="384" r="2"></circle><circle cx="305" cy="373" r="2"></circle><circle cx="334" cy="386" r="2"></circle><circle cx="362" cy="396" r="2"></circle><circle cx="391" cy="394" r="2"></circle><circle cx="420" cy="380" r="2"></circle><circle cx="448" cy="375" r="2"></circle><circle cx="477" cy="390" r="2"></circle><circle cx="506" cy="393" r="2"></circle><circle cx="534" cy="391" r="2"></circle><circle cx="563" cy="387" r="2"></circle><circle cx="592" cy="381" r="2"></circle><circle cx="620" cy="373" r="2"></circle><circle cx="649" cy="359" r="2"></circle><circle cx="678" cy="323" r="2"></circle><circle cx="706" cy="299" r="2"></circle><circle cx="735" cy="270" r="2"></circle><circle cx="764" cy="237" r="2"></circle><circle cx="792" cy="200" r="2"></circle><circle cx="821" cy="167" r="2"></circle><circle cx="850" cy="145" r="2"></circle><circle cx="878" cy="108" r="2"></circle></g></g><g class="key-Sub__002dSaharan-Africa_0"><path stroke="#3360a9" stroke-linecap="round" d="M76 530L104 538L133 543L162 547L190 549L219 546L248 534L276 486L305 445L334 397L362 358L391 331L420 303L448 276L477 263L506 248L534 252L563 259L592 265L620 271L649 263L678 262L706 259L735 245L764 215L792 189L821 178L850 159L878 138" fill="none" stroke-width="1.5"></path><g fill="#3360a9"><circle cx="76" cy="530" r="2"></circle><circle cx="104" cy="538" r="2"></circle><circle cx="133" cy="543" r="2"></circle><circle cx="162" cy="547" r="2"></circle><circle cx="190" cy="549" r="2"></circle><circle cx="219" cy="546" r="2"></circle><circle cx="248" cy="534" r="2"></circle><circle cx="276" cy="486" r="2"></circle><circle cx="305" cy="445" r="2"></circle><circle cx="334" cy="397" r="2"></circle><circle cx="362" cy="358" r="2"></circle><circle cx="391" cy="331" r="2"></circle><circle cx="420" cy="303" r="2"></circle><circle cx="448" cy="276" r="2"></circle><circle cx="477" cy="263" r="2"></circle><circle cx="506" cy="248" r="2"></circle><circle cx="534" cy="252" r="2"></circle><circle cx="563" cy="259" r="2"></circle><circle cx="592" cy="265" r="2"></circle><circle cx="620" cy="271" r="2"></circle><circle cx="649" cy="263" r="2"></circle><circle cx="678" cy="262" r="2"></circle><circle cx="706" cy="259" r="2"></circle><circle cx="735" cy="245" r="2"></circle><circle cx="764" cy="215" r="2"></circle><circle cx="792" cy="189" r="2"></circle><circle cx="821" cy="178" r="2"></circle><circle cx="850" cy="159" r="2"></circle><circle cx="878" cy="138" r="2"></circle></g></g></g></g></g></g></svg>