<svg xmlns="http://www.w3.org/2000/svg" version="1.1" style="font-family: 'Helvetica Neue', Helvetica, Arial, sans-serif; font-size: 24px; background-color: white;" width="1200" height="630"><g class="ChartTab"><g class="LineChart"><defs><clipPath id="boundsClip-223"><rect x="40.24" y="0" width="1180" height="1130"></rect></clipPath></defs><g class="AxisBoxView"><g class="HorizontalAxis"><text x="50.2" y="600" fill="#666" text-anchor="middle" font-size="21.6">1970</text><text x="184.1" y="600" fill="#666" text-anchor="middle" font-size="21.6">1975</text><text x="318" y="600" fill="#666" text-anchor="middle" font-size="21.6">1980</text><text x="451.9" y="600" fill="#666" text-anchor="middle" font-size="21.6">1985</text><text x="585.8" y="600" fill="#666" text-anchor="middle" font-size="21.6">1990</text><text x="719.7" y="600" fill="#666" text-anchor="middle" font-size="21.6">1995</text><text x="853.6" y="600" fill="#666" text-anchor="middle" font-size="21.6">2000</text><text x="987.5" y="600" fill="#666" text-anchor="middle" font-size="21.6">2005</text><text x="1121.4" y="600" fill="#666" text-anchor="middle" font-size="21.6">2010</text><text x="1175" y="600" fill="#666" text-anchor="middle" font-size="21.6">2012</text></g><g class="VerticalAxis"><text x="45.24" y="573.4" fill="#666" dominant-baseline="middle" text-anchor="end" font-size="21.6">0</text><text x="45.24" y="465.7" fill="#666" dominant-baseline="middle" text-anchor="end" font-size="21.6">0.2</text><text x="45.24" y="358" fill="#666" dominant-baseline="middle" text-anchor="end" font-size="21.6">0.4</text><text x="45.24" y="250.4" fill="#666" dominant-baseline="middle" text-anchor="end" font-size="21.6">0.6</text><text x="45.24" y="142.7" fill="#666" dominant-baseline="middle" text-anchor="end" font-size="21.6">0.8</text><text x="45.24" y="35" fill="#666" dominant-baseline="middle" text-anchor="end" font-size="21.6">1</text></g><g class="AxisGridLines"><line x1="50.24" y1="573.4" x2="1175.00" y2="573.4" stroke="#ccc"></line><line x1="50.24" y1="465.7" x2="1175.00" y2="465.7" stroke="#ddd" stroke-dasharray="3,2"></line><line x1="50.24" y1="358" x2="1175.00" y2="358" stroke="#ddd" stroke-dasharray="3,2"></line><line x1="50.24" y1="250.4" x2="1175.00" y2="250.4" stroke="#ddd" stroke-dasharray="3,2"></line><line x1="50.24" y1="142.7" x2="1175.00" y2="142.7" stroke="#ddd" stroke-dasharray="3,2"></line><line x1="50.24" y1="35" x2="1175.00" y2="35" stroke="#ddd" stroke-dasharray="3,2"></line></g><g class="AxisGridLines"><line x1="50.2" y1="573.40" x2="50.2" y2="35.00" stroke="#ddd" stroke-dasharray="3,2"></line><line x1="184.1" y1="573.40" x2="184.1" y2="35.00" stroke="#ddd" stroke-dasharray="3,2"></line><line x1="318" y1="573.40" x2="318" y2="35.00" stroke="#ddd" stroke-dasharray="3,2"></line><line x1="451.9" y1="573.40" x2="451.9" y2="35.00" stroke="#ddd" stroke-dasharray="3,2"></line><line x1="585.8" y1="573.40" x2="585.8" y2="35.00" stroke="#ddd" stroke-dasharray="3,2"></line><line x1="719.7" y1="573.40" x2="719.7" y2="35.00" stroke="#ddd" stroke-dasharray="3,2"></line><line x1="853.6" y1="573.40" x2="853.6" y2="35.00" stroke="#ddd" stroke-dasharray="3,2"></line><line x1="987.5" y1="573.40" x2="987.5" y2="35.00" stroke="#ddd" stroke-dasharray="3,2"></line><line x1="1121.4" y1="573.40" x2="1121.4" y2="35.00" stroke="#ddd" stroke-dasharray="3,2"></line></g></g><g clip-path="url(#boundsClip-223)"><g class="Lines"><rect x="50" y="35" width="1125" height="538" fill="rgba(255,255,255,0)" opacity="0"></rect><g class="key-World_0"><path stroke="#c8c8c8" stroke-linecap="round" d="M50 35L77 38L104 42L131 40L157 44L184 48L211 58L238 70L265 83L291 87L318 90L345 98L372 110L398 118L425 136L452 143L479 154L506 172L532 200L559 200L586 204L613 214L639 218L666 225L693 237L720 241L747 247L773 250L800 257L827 269L854 279L880 283L907 292L934 294L961 291L988 295L1014 290L1041 297L1068 293L1095 269L1121 278L1148 289L1175 294" fill="none" stroke-width="1.5"></path><g fill="#c8c8c8"><circle cx="50" cy="35" r="2"></circle><circle cx="77" cy="38" r="2"></circle><circle cx="104" cy="42" r="2"></circle><circle cx="131" cy="40" r="2"></circle><circle cx="157" cy="44" r="2"></circle><circle cx="184" cy="48" r="2"></circle><circle cx="211" cy="58" r="2"></circle><circle cx="238" cy="70" r="2"></circle><circle cx="265" cy="83" r="2"></circle><circle cx="291" cy="87" r="2"></circle><circle cx="318" cy="90" r="2"></circle><circle cx="345" cy="98" r="2"></circle><circle cx="372" cy="110" r="2"></circle><circle cx="398" cy="118" r="2"></circle><circle cx="425" cy="136" r="2"></circle><circle cx="452" cy="143" r="2"></circle><circle cx="479" cy="154" r="2"></circle><circle cx="506" cy="172" r="2"></circle><circle cx="532" cy="200" r="2"></circle><circle cx="559" cy="200" r="2"></circle><circle cx="586" cy="204" r="2"></circle><circle cx="613" cy="214" r="2"></circle><circle cx="639" cy="218" r="2"></circle><circle cx="666" cy="225" r="2"></circle><circle cx="693" cy="237" r="2"></circle><circle cx="720" cy="241" r="2"></circle><circle cx="747" cy="247" r="2"></circle><circle cx="773" cy="250" r="2"></circle><circle cx="800" cy="257" r="2"></circle><circle cx="827" cy="269" r="2"></circle><circle cx="854" cy="279" r="2"></circle><circle cx="880" cy="283" r="2"></circle><circle cx="907" cy="292" r="2"></circle><circle cx="934" cy="294" r="2"></circle><circle cx="961" cy="291" r="2"></circle><circle cx="988" cy="295" r="2"></circle><circle cx="1014" cy="290" r="2"></circle><circle cx="1041" cy="297" r="2"></circle><circle cx="1068" cy="293" r="2"></circle><circle cx="1095" cy="269" r="2"></circle><circle cx="1121" cy="278" r="2"></circle><circle cx="1148" cy="289" r="2"></circle><circle cx="1175" cy="294" r="2"></circle></g></g><g class="key-World_1"><path stroke="#c8c8c8" stroke-linecap="round" d="M50 35L77 52L104 72L131 74L157 79L184 87L211 100L238 113L265 126L291 131L318 138L345 149L372 164L398 174L425 201L452 215L479 225L506 241L532 268L559 271L586 275L613 284L639 289L666 296L693 306L720 310L747 316L773 320L800 327L827 337L854 346L880 350L907 360L934 362L961 362L988 368L1014 368L1041 376L1068 376L1095 360L1121 369L1148 381L1175 392" fill="none" stroke-width="1.5"></path><g fill="#c8c8c8"><circle cx="50" cy="35" r="2"></circle><circle cx="77" cy="52" r="2"></circle><circle cx="104" cy="72" r="2"></circle><circle cx="131" cy="74" r="2"></circle><circle cx="157" cy="79" r="2"></circle><circle cx="184" cy="87" r="2"></circle><circle cx="211" cy="100" r="2"></circle><circle cx="238" cy="113" r="2"></circle><circle cx="265" cy="126" r="2"></circle><circle cx="291" cy="131" r="2"></circle><circle cx="318" cy="138" r="2"></circle><circle cx="345" cy="149" r="2"></circle><circle cx="372" cy="164" r="2"></circle><circle cx="398" cy="174" r="2"></circle><circle cx="425" cy="201" r="2"></circle><circle cx="452" cy="215" r="2"></circle><circle cx="479" cy="225" r="2"></circle><circle cx="506" cy="241" r="2"></circle><circle cx="532" cy="268" r="2"></circle><circle cx="559" cy="271" r="2"></circle><circle cx="586" cy="275" r="2"></circle><circle cx="613" cy="284" r="2"></circle><circle cx="639" cy="289" r="2"></circle><circle cx="666" cy="296" r="2"></circle><circle cx="693" cy="306" r="2"></circle><circle cx="720" cy="310" r="2"></circle><circle cx="747" cy="316" r="2"></circle><circle cx="773" cy="320" r="2"></circle><circle cx="800" cy="327" r="2"></circle><circle cx="827" cy="337" r="2"></circle><circle cx="854" cy="346" r="2"></circle><circle cx="880" cy="350" r="2"></circle><circle cx="907" cy="360" r="2"></circle><circle cx="934" cy="362" r="2"></circle><circle cx="961" cy="362" r="2"></circle><circle cx="988" cy="368" r="2"></circle><circle cx="1014" cy="368" r="2"></circle><circle cx="1041" cy="376" r="2"></circle><circle cx="1068" cy="376" r="2"></circle><circle cx="1095" cy="360" r="2"></circle><circle cx="1121" cy="369" r="2"></circle><circle cx="1148" cy="381" r="2"></circle><circle cx="1175" cy="392" r="2"></circle></g></g><g class="key-World_2"><path stroke="#ca2628" stroke-linecap="round" d="M50 35L77 45L104 56L131 57L157 61L184 67L211 79L238 92L265 105L291 109L318 114L345 124L372 138L398 147L425 169L452 180L479 190L506 207L532 235L559 236L586 240L613 249L639 255L666 261L693 273L720 276L747 283L773 287L800 293L827 304L854 313L880 318L907 328L934 330L961 328L988 334L1014 332L1041 339L1068 338L1095 318L1121 327L1148 339L1175 347" fill="none" stroke-width="1.5"></path><g fill="#ca2628"><circle cx="50" cy="35" r="2"></circle><circle cx="77" cy="45" r="2"></circle><circle cx="104" cy="56" r="2"></circle><circle cx="131" cy="57" r="2"></circle><circle cx="157" cy="61" r="2"></circle><circle cx="184" cy="67" r="2"></circle><circle cx="211" cy="79" r="2"></circle><circle cx="238" cy="92" r="2"></circle><circle cx="265" cy="105" r="2"></circle><circle cx="291" cy="109" r="2"></circle><circle cx="318" cy="114" r="2"></circle><circle cx="345" cy="124" r="2"></circle><circle cx="372" cy="138" r="2"></circle><circle cx="398" cy="147" r="2"></circle><circle cx="425" cy="169" r="2"></circle><circle cx="452" cy="180" r="2"></circle><circle cx="479" cy="190" r="2"></circle><circle cx="506" cy="207" r="2"></circle><circle cx="532" cy="235" r="2"></circle><circle cx="559" cy="236" r="2"></circle><circle cx="586" cy="240" r="2"></circle><circle cx="613" cy="249" r="2"></circle><circle cx="639" cy="255" r="2"></circle><circle cx="666" cy="261" r="2"></circle><circle cx="693" cy="273" r="2"></circle><circle cx="720" cy="276" r="2"></circle><circle cx="747" cy="283" r="2"></circle><circle cx="773" cy="287" r="2"></circle><circle cx="800" cy="293" r="2"></circle><circle cx="827" cy="304" r="2"></circle><circle cx="854" cy="313" r="2"></circle><circle cx="880" cy="318" r="2"></circle><circle cx="907" cy="328" r="2"></circle><circle cx="934" cy="330" r="2"></circle><circle cx="961" cy="328" r="2"></circle><circle cx="988" cy="334" r="2"></circle><circle cx="1014" cy="332" r="2"></circle><circle cx="1041" cy="339" r="2"></circle><circle cx="1068" cy="338" r="2"></circle><circle cx="1095" cy="318" r="2"></circle><circle cx="1121" cy="327" r="2"></circle><circle cx="1148" cy="339" r="2"></circle><circle cx="1175" cy="347" r="2"></circle></g></g></g></g></g></g></svg>