<svg xmlns="http://www.w3.org/2000/svg" version="1.1" style="font-family: 'Helvetica Neue', Helvetica, Arial, sans-serif; font-size: 24px; background-color: white;" width="1200" height="630"><g class="ChartTab"><g class="StackedArea"><defs><clipPath id="boundsClip-201"><rect x="111.36800000000001" y="0" width="1170" height="1130"></rect></clipPath></defs><g class="AxisBoxView"><g class="HorizontalAxis"><text x="111.4" y="600" fill="#666" text-anchor="middle" font-size="21.6">1991</text><text x="307.7" y="600" fill="#666" text-anchor="middle" font-size="21.6">1995</text><text x="553.2" y="600" fill="#666" text-anchor="middle" font-size="21.6">2000</text><text x="798.6" y="600" fill="#666" text-anchor="middle" font-size="21.6">2005</text><text x="1044" y="600" fill="#666" text-anchor="middle" font-size="21.6">2010</text></g><g class="VerticalAxis"><text x="106.37" y="573.4" fill="#666" dominant-baseline="middle" text-anchor="end" font-size="21.6">0</text><text x="106.37" y="467" fill="#666" dominant-baseline="middle" text-anchor="end" font-size="21.6">10 million</text><text x="106.37" y="360.5" fill="#666" dominant-baseline="middle" text-anchor="end" font-size="21.6">20 million</text><text x="106.37" y="254.1" fill="#666" dominant-baseline="middle" text-anchor="end" font-size="21.6">30 million</text><text x="106.37" y="147.6" fill="#666" dominant-baseline="middle" text-anchor="end" font-size="21.6">40 million</text><text x="106.37" y="41.2" fill="#666" dominant-baseline="middle" text-anchor="end" font-size="21.6">50 million</text></g><g class="AxisGridLines"><line x1="111.37" y1="573.4" x2="1044.04" y2="573.4" stroke="#ccc"></line><line x1="111.37" y1="467" x2="1044.04" y2="467" stroke="#ddd" stroke-dasharray="3,2"></line><line x1="111.37" y1="360.5" x2="1044.04" y2="360.5" stroke="#ddd" stroke-dasharray="3,2"></line><line x1="111.37" y1="254.1" x2="1044.04" y2="254.1" stroke="#ddd" stroke-dasharray="3,2"></line><line x1="111.37" y1="147.6" x2="1044.04" y2="147.6" stroke="#ddd" stroke-dasharray="3,2"></line><line x1="111.37" y1="41.2" x2="1044.04" y2="41.2" stroke="#ddd" stroke-dasharray="3,2"></line></g><g class="AxisGridLines"><line x1="307.7" y1="573.40" x2="307.7" y2="35.00" stroke="#ddd" stroke-dasharray="3,2"></line><line x1="553.2" y1="573.40" x2="553.2" y2="35.00" stroke="#ddd" stroke-dasharray="3,2"></line><line x1="798.6" y1="573.40" x2="798.6" y2="35.00" stroke="#ddd" stroke-dasharray="3,2"></line><line x1="1044" y1="573.40" x2="1044" y2="35.00" stroke="#ddd" stroke-dasharray="3,2"></line></g></g><g clip-path="url(#boundsClip-201)"><g class="HeightedLegend clickable"><g class="legendMark"><rect x="1049.04" y="23.849999999999998" width="121.17600000000002" height="39.50000000000001" fill="#fff" opacity="0"></rect><rect x="1049.04" y="42.35" width="10" height="2.5" fill="#c8c8c8"></rect><text font-size="19.20" x="1064.0" y="39.2" fill="#333"><tspan x="1064.04" y="39.209999999999994">International</tspan><tspan x="1064.04" y="60.33">bunkers</tspan></text></g><g class="legendMark"><rect x="1049.04" y="63.35000000000001" width="135.96000000000004" height="19.200000000000003" fill="#fff" opacity="0"></rect><rect x="1049.04" y="71.70000000000002" width="10" height="2.5" fill="#ffd53e"></rect><text font-size="19.20" x="1064.0" y="78.7" fill="#333"><tspan x="1064.04" y="78.71000000000001">Other sources</tspan></text></g><g class="legendMark"><rect x="1049.04" y="82.55000000000001" width="69.528" height="19.200000000000003" fill="#fff" opacity="0"></rect><rect x="1049.04" y="90.9" width="10" height="2.5" fill="#818282"></rect><text font-size="19.20" x="1064.0" y="97.9" fill="#333"><tspan x="1064.04" y="97.91000000000001">Waste</tspan></text></g><g class="legendMark"><rect x="1049.04" y="101.75000000000001" width="83.54400000000001" height="19.200000000000003" fill="#fff" opacity="0"></rect><rect x="1049.04" y="110.10000000000002" width="10" height="2.5" fill="#2a939b"></rect><text font-size="19.20" x="1064.0" y="117.1" fill="#333"><tspan x="1064.04" y="117.11000000000001">Industry</tspan></text></g><g class="legendMark"><rect x="1049.04" y="120.95000000000002" width="128.47200000000004" height="39.50000000000001" fill="#fff" opacity="0"></rect><rect x="1049.04" y="139.45000000000002" width="10" height="2.5" fill="#b077b1"></rect><text font-size="19.20" x="1064.0" y="136.3" fill="#333"><tspan x="1064.04" y="136.31000000000003">Residential &amp;</tspan><tspan x="1064.04" y="157.43000000000004">commercial</tspan></text></g><g class="legendMark"><rect x="1049.04" y="161.4" width="97.36800000000001" height="19.200000000000003" fill="#fff" opacity="0"></rect><rect x="1049.04" y="169.75" width="10" height="2.5" fill="#ed6c2d"></rect><text font-size="19.20" x="1064.0" y="176.8" fill="#333"><tspan x="1064.04" y="176.76000000000002">Transport</tspan></text></g><g class="legendMark"><rect x="1049.04" y="217.9" width="106.96800000000002" height="19.200000000000003" fill="#fff" opacity="0"></rect><rect x="1049.04" y="226.25" width="10" height="2.5" fill="#9ecc8a"></rect><text font-size="19.20" x="1064.0" y="233.3" fill="#333"><tspan x="1064.04" y="233.26000000000002">Agriculture</tspan></text></g><g class="legendMark"><rect x="1049.04" y="251.20000000000002" width="85.46400000000001" height="19.200000000000003" fill="#fff" opacity="0"></rect><rect x="1049.04" y="259.55" width="10" height="2.5" fill="#6bb537"></rect><text font-size="19.20" x="1064.0" y="266.6" fill="#333"><tspan x="1064.04" y="266.56000000000006">Forestry</tspan></text></g><g class="legendMark"><rect x="1049.04" y="276.85" width="94.48800000000001" height="39.50000000000001" fill="#fff" opacity="0"></rect><rect x="1049.04" y="295.35" width="10" height="2.5" fill="#34983f"></rect><text font-size="19.20" x="1064.0" y="292.2" fill="#333"><tspan x="1064.04" y="292.21000000000004">Land use</tspan><tspan x="1064.04" y="313.33000000000004">sources</tspan></text></g><g class="legendMark"><rect x="1049.04" y="440.09999999999997" width="76.05600000000001" height="19.200000000000003" fill="#fff" opacity="0"></rect><rect x="1049.04" y="448.45" width="10" height="2.5" fill="#3360a9"></rect><text font-size="19.20" x="1064.0" y="455.5" fill="#333"><tspan x="1064.04" y="455.46">Energy</tspan></text></g></g><g class="Areas"><rect x="111.36800000000001" y="35" width="932.6719999999999" height="538.4" opacity="0" fill="rgba(255,255,255,0)"></rect><path stroke-linecap="round" d="M111.4 414.2L160.5 414.1L209.5 413.1L258.6 411.9L307.7 407.2L356.8 402.3L405.9 400.6L455 397.8L504.1 398.7L553.2 393.6L602.2 393.3L651.3 388.9L700.4 378.8L749.5 367.5L798.6 360.4L847.7 351.5L896.8 342.5L945.9 334.9L995 337.8L1044 326.1L1044.04 573.4L111.36800000000001 573.4" fill="#3360a9" fill-opacity="0.7" class="World_9-area"></path><path stroke-linecap="round" d="M111.4 343.9L160.5 343.7L209.5 342.5L258.6 341.2L307.7 336.3L356.8 332.5L405.9 320.8L455 323.7L504.1 328.2L553.2 324.7L602.2 331.9L651.3 321L700.4 313.3L749.5 300.9L798.6 294.7L847.7 287.9L896.8 282.6L945.9 274.3L995 276L1044 267.1L1044 326.1L995 337.8L945.9 334.9L896.8 342.5L847.7 351.5L798.6 360.4L749.5 367.5L700.4 378.8L651.3 388.9L602.2 393.3L553.2 393.6L504.1 398.7L455 397.8L405.9 400.6L356.8 402.3L307.7 407.2L258.6 411.9L209.5 413.1L160.5 414.1L111.4 414.2" fill="#34983f" fill-opacity="0.7" class="World_8-area"></path><path stroke-linecap="round" d="M111.4 324.5L160.5 324.3L209.5 323.1L258.6 321.8L307.7 316.9L356.8 313.1L405.9 301.4L455 304.3L504.1 308.8L553.2 305.3L602.2 308.5L651.3 297.6L700.4 289.9L749.5 277.5L798.6 271.3L847.7 275.4L896.8 270.1L945.9 261.8L995 263.5L1044 254.5L1044 267.1L995 276L945.9 274.3L896.8 282.6L847.7 287.9L798.6 294.7L749.5 300.9L700.4 313.3L651.3 321L602.2 331.9L553.2 324.7L504.1 328.2L455 323.7L405.9 320.8L356.8 332.5L307.7 336.3L258.6 341.2L209.5 342.5L160.5 343.7L111.4 343.9" fill="#6bb537" fill-opacity="0.7" class="World_7-area"></path><path stroke-linecap="round" d="M111.4 276.1L160.5 276L209.5 275.3L258.6 273.5L307.7 268.2L356.8 264.2L405.9 252.7L455 255.2L504.1 259.3L553.2 255.9L602.2 258.8L651.3 247.8L700.4 239.9L749.5 226.3L798.6 219.6L847.7 223.1L896.8 216.9L945.9 208.4L995 210L1044 200.5L1044 254.5L995 263.5L945.9 261.8L896.8 270.1L847.7 275.4L798.6 271.3L749.5 277.5L700.4 289.9L651.3 297.6L602.2 308.5L553.2 305.3L504.1 308.8L455 304.3L405.9 301.4L356.8 313.1L307.7 316.9L258.6 321.8L209.5 323.1L160.5 324.3L111.4 324.5" fill="#9ecc8a" fill-opacity="0.7" class="World_6-area"></path><path stroke-linecap="round" d="M111.4 232.7L160.5 231.9L209.5 230.5L258.6 227.9L307.7 221.4L356.8 216.3L405.9 203.8L455 204.9L504.1 207.7L553.2 203.6L602.2 206L651.3 193.4L700.4 184.4L749.5 169.3L798.6 161.7L847.7 164.2L896.8 156.6L945.9 150.2L995 152.2L1044 141.5L1044 200.5L995 210L945.9 208.4L896.8 216.9L847.7 223.1L798.6 219.6L749.5 226.3L700.4 239.9L651.3 247.8L602.2 258.8L553.2 255.9L504.1 259.3L455 255.2L405.9 252.7L356.8 264.2L307.7 268.2L258.6 273.5L209.5 275.3L160.5 276L111.4 276.1" fill="#ed6c2d" fill-opacity="0.7" class="World_5-area"></path><path stroke-linecap="round" d="M111.4 192.4L160.5 193.9L209.5 191.8L258.6 190.5L307.7 183.5L356.8 177L405.9 166L455 169.4L504.1 171.4L553.2 167.2L602.2 169.1L651.3 156.6L700.4 146.5L749.5 130.6L798.6 122.9L847.7 125.7L896.8 118.1L945.9 110.3L995 113L1044 101.6L1044 141.5L995 152.2L945.9 150.2L896.8 156.6L847.7 164.2L798.6 161.7L749.5 169.3L700.4 184.4L651.3 193.4L602.2 206L553.2 203.6L504.1 207.7L455 204.9L405.9 203.8L356.8 216.3L307.7 221.4L258.6 227.9L209.5 230.5L160.5 231.9L111.4 232.7" fill="#b077b1" fill-opacity="0.7" class="World_4-area"></path><path stroke-linecap="round" d="M111.4 172.8L160.5 174L209.5 171.9L258.6 169.9L307.7 161.5L356.8 155.4L405.9 143.9L455 147.6L504.1 149.1L553.2 144.5L602.2 146L651.3 132.6L700.4 121L749.5 103.4L798.6 94.3L847.7 95.2L896.8 85.8L945.9 77.6L995 79.2L1044 64.7L1044 101.6L995 113L945.9 110.3L896.8 118.1L847.7 125.7L798.6 122.9L749.5 130.6L700.4 146.5L651.3 156.6L602.2 169.1L553.2 167.2L504.1 171.4L455 169.4L405.9 166L356.8 177L307.7 183.5L258.6 190.5L209.5 191.8L160.5 193.9L111.4 192.4" fill="#2a939b" fill-opacity="0.7" class="World_3-area"></path><path stroke-linecap="round" d="M111.4 160.2L160.5 161.3L209.5 159.1L258.6 157L307.7 148.4L356.8 142.3L405.9 130.7L455 134.3L504.1 135.7L553.2 130.9L602.2 132.3L651.3 118.7L700.4 106.8L749.5 89L798.6 79.8L847.7 80.4L896.8 70.9L945.9 62.4L995 64L1044 49.3L1044 64.7L995 79.2L945.9 77.6L896.8 85.8L847.7 95.2L798.6 94.3L749.5 103.4L700.4 121L651.3 132.6L602.2 146L553.2 144.5L504.1 149.1L455 147.6L405.9 143.9L356.8 155.4L307.7 161.5L258.6 169.9L209.5 171.9L160.5 174L111.4 172.8" fill="#818282" fill-opacity="0.7" class="World_2-area"></path><path stroke-linecap="round" d="M111.4 153.1L160.5 153.9L209.5 151.8L258.6 149.5L307.7 140.7L356.8 134.4L405.9 122.5L455 126L504.1 126.9L553.2 122L602.2 123.7L651.3 109.7L700.4 97.7L749.5 79.1L798.6 69.5L847.7 69.6L896.8 59.6L945.9 51.2L995 53.2L1044 37.8L1044 49.3L995 64L945.9 62.4L896.8 70.9L847.7 80.4L798.6 79.8L749.5 89L700.4 106.8L651.3 118.7L602.2 132.3L553.2 130.9L504.1 135.7L455 134.3L405.9 130.7L356.8 142.3L307.7 148.4L258.6 157L209.5 159.1L160.5 161.3L111.4 160.2" fill="#c8c8c8" fill-opacity="0.7" class="World_1-area"></path><path stroke-linecap="round" d="M111.4 150.3L160.5 150.9L209.5 149.2L258.6 146.7L307.7 138.2L356.8 131.8L405.9 118.6L455 123.1L504.1 124.4L553.2 119.6L602.2 121.2L651.3 106.9L700.4 95.1L749.5 76.5L798.6 66.8L847.7 66.5L896.8 56.7L945.9 48.6L995 50.3L1044 35L1044 37.8L995 53.2L945.9 51.2L896.8 59.6L847.7 69.6L798.6 69.5L749.5 79.1L700.4 97.7L651.3 109.7L602.2 123.7L553.2 122L504.1 126.9L455 126L405.9 122.5L356.8 134.4L307.7 140.7L258.6 149.5L209.5 151.8L160.5 153.9L111.4 153.1" fill="#ffd53e" fill-opacity="0.7" class="World_0-area"></path><path stroke-linecap="round" d="M111.4 414.2L160.5 414.1L209.5 413.1L258.6 411.9L307.7 407.2L356.8 402.3L405.9 400.6L455 397.8L504.1 398.7L553.2 393.6L602.2 393.3L651.3 388.9L700.4 378.8L749.5 367.5L798.6 360.4L847.7 351.5L896.8 342.5L945.9 334.9L995 337.8L1044 326.1" stroke="rgb(43, 80, 141)" stroke-opacity="0.7" stroke-width="0.5" fill="none" class="World_9-border"></path><path stroke-linecap="round" d="M111.4 343.9L160.5 343.7L209.5 342.5L258.6 341.2L307.7 336.3L356.8 332.5L405.9 320.8L455 323.7L504.1 328.2L553.2 324.7L602.2 331.9L651.3 321L700.4 313.3L749.5 300.9L798.6 294.7L847.7 287.9L896.8 282.6L945.9 274.3L995 276L1044 267.1" stroke="rgb(44, 127, 53)" stroke-opacity="0.7" stroke-width="0.5" fill="none" class="World_8-border"></path><path stroke-linecap="round" d="M111.4 324.5L160.5 324.3L209.5 323.1L258.6 321.8L307.7 316.9L356.8 313.1L405.9 301.4L455 304.3L504.1 308.8L553.2 305.3L602.2 308.5L651.3 297.6L700.4 289.9L749.5 277.5L798.6 271.3L847.7 275.4L896.8 270.1L945.9 261.8L995 263.5L1044 254.5" stroke="rgb(90, 151, 46)" stroke-opacity="0.7" stroke-width="0.5" fill="none" class="World_7-border"></path><path stroke-linecap="round" d="M111.4 276.1L160.5 276L209.5 275.3L258.6 273.5L307.7 268.2L356.8 264.2L405.9 252.7L455 255.2L504.1 259.3L553.2 255.9L602.2 258.8L651.3 247.8L700.4 239.9L749.5 226.3L798.6 219.6L847.7 223.1L896.8 216.9L945.9 208.4L995 210L1044 200.5" stroke="rgb(132, 171, 115)" stroke-opacity="0.7" stroke-width="0.5" fill="none" class="World_6-border"></path><path stroke-linecap="round" d="M111.4 232.7L160.5 231.9L209.5 230.5L258.6 227.9L307.7 221.4L356.8 216.3L405.9 203.8L455 204.9L504.1 207.7L553.2 203.6L602.2 206L651.3 193.4L700.4 184.4L749.5 169.3L798.6 161.7L847.7 164.2L896.8 156.6L945.9 150.2L995 152.2L1044 141.5" stroke="rgb(198, 90, 38)" stroke-opacity="0.7" stroke-width="0.5" fill="none" class="World_5-border"></path><path stroke-linecap="round" d="M111.4 192.4L160.5 193.9L209.5 191.8L258.6 190.5L307.7 183.5L356.8 177L405.9 166L455 169.4L504.1 171.4L553.2 167.2L602.2 169.1L651.3 156.6L700.4 146.5L749.5 130.6L798.6 122.9L847.7 125.7L896.8 118.1L945.9 110.3L995 113L1044 101.6" stroke="rgb(147, 100, 148)" stroke-opacity="0.7" stroke-width="0.5" fill="none" class="World_4-border"></path><path stroke-linecap="round" d="M111.4 172.8L160.5 174L209.5 171.9L258.6 169.9L307.7 161.5L356.8 155.4L405.9 143.9L455 147.6L504.1 149.1L553.2 144.5L602.2 146L651.3 132.6L700.4 121L749.5 103.4L798.6 94.3L847.7 95.2L896.8 85.8L945.9 77.6L995 79.2L1044 64.7" stroke="rgb(35, 123, 130)" stroke-opacity="0.7" stroke-width="0.5" fill="none" class="World_3-border"></path><path stroke-linecap="round" d="M111.4 160.2L160.5 161.3L209.5 159.1L258.6 157L307.7 148.4L356.8 142.3L405.9 130.7L455 134.3L504.1 135.7L553.2 130.9L602.2 132.3L651.3 118.7L700.4 106.8L749.5 89L798.6 79.8L847.7 80.4L896.8 70.9L945.9 62.4L995 64L1044 49.3" stroke="rgb(108, 109, 109)" stroke-opacity="0.7" stroke-width="0.5" fill="none" class="World_2-border"></path><path stroke-linecap="round" d="M111.4 153.1L160.5 153.9L209.5 151.8L258.6 149.5L307.7 140.7L356.8 134.4L405.9 122.5L455 126L504.1 126.9L553.2 122L602.2 123.7L651.3 109.7L700.4 97.7L749.5 79.1L798.6 69.5L847.7 69.6L896.8 59.6L945.9 51.2L995 53.2L1044 37.8" stroke="rgb(167, 167, 167)" stroke-opacity="0.7" stroke-width="0.5" fill="none" class="World_1-border"></path><path stroke-linecap="round" d="M111.4 150.3L160.5 150.9L209.5 149.2L258.6 146.7L307.7 138.2L356.8 131.8L405.9 118.6L455 123.1L504.1 124.4L553.2 119.6L602.2 121.2L651.3 106.9L700.4 95.1L749.5 76.5L798.6 66.8L847.7 66.5L896.8 56.7L945.9 48.6L995 50.3L1044 35" stroke="rgb(213, 178, 52)" stroke-opacity="0.7" stroke-width="0.5" fill="none" class="World_0-border"></path></g></g></g></g></svg>