<svg xmlns="http://www.w3.org/2000/svg" version="1.1" style="font-family: 'Helvetica Neue', Helvetica, Arial, sans-serif; font-size: 24px; background-color: white;" width="1200" height="630"><g class="ChartTab"><g class="LineChart"><defs><clipPath id="boundsClip-173"><rect x="87.328" y="0" width="1180" height="1130"></rect></clipPath></defs><g class="AxisBoxView"><g class="HorizontalAxis"><text x="97.3" y="600" fill="#666" text-anchor="middle" font-size="21.6">1820</text><text x="264" y="600" fill="#666" text-anchor="middle" font-size="21.6">1850</text><text x="541.7" y="600" fill="#666" text-anchor="middle" font-size="21.6">1900</text><text x="819.5" y="600" fill="#666" text-anchor="middle" font-size="21.6">1950</text><text x="1097.2" y="600" fill="#666" text-anchor="middle" font-size="21.6">2000</text><text x="1175" y="600" fill="#666" text-anchor="middle" font-size="21.6">2014</text></g><g class="VerticalAxis"><text x="92.33" y="573.4" fill="#666" dominant-baseline="middle" text-anchor="end" font-size="21.6">0 kg/$</text><text x="92.33" y="489.4" fill="#666" dominant-baseline="middle" text-anchor="end" font-size="21.6">0.1 kg/$</text><text x="92.33" y="405.3" fill="#666" dominant-baseline="middle" text-anchor="end" font-size="21.6">0.2 kg/$</text><text x="92.33" y="321.3" fill="#666" dominant-baseline="middle" text-anchor="end" font-size="21.6">0.3 kg/$</text><text x="92.33" y="237.3" fill="#666" dominant-baseline="middle" text-anchor="end" font-size="21.6">0.4 kg/$</text><text x="92.33" y="153.3" fill="#666" dominant-baseline="middle" text-anchor="end" font-size="21.6">0.5 kg/$</text><text x="92.33" y="69.2" fill="#666" dominant-baseline="middle" text-anchor="end" font-size="21.6">0.6 kg/$</text></g><g class="AxisGridLines"><line x1="97.33" y1="573.4" x2="1175.00" y2="573.4" stroke="#ccc"></line><line x1="97.33" y1="489.4" x2="1175.00" y2="489.4" stroke="#ddd" stroke-dasharray="3,2"></line><line x1="97.33" y1="405.3" x2="1175.00" y2="405.3" stroke="#ddd" stroke-dasharray="3,2"></line><line x1="97.33" y1="321.3" x2="1175.00" y2="321.3" stroke="#ddd" stroke-dasharray="3,2"></line><line x1="97.33" y1="237.3" x2="1175.00" y2="237.3" stroke="#ddd" stroke-dasharray="3,2"></line><line x1="97.33" y1="153.3" x2="1175.00" y2="153.3" stroke="#ddd" stroke-dasharray="3,2"></line><line x1="97.33" y1="69.2" x2="1175.00" y2="69.2" stroke="#ddd" stroke-dasharray="3,2"></line></g><g class="AxisGridLines"><line x1="264" y1="573.40" x2="264" y2="35.00" stroke="#ddd" stroke-dasharray="3,2"></line><line x1="541.7" y1="573.40" x2="541.7" y2="35.00" stroke="#ddd" stroke-dasharray="3,2"></line><line x1="819.5" y1="573.40" x2="819.5" y2="35.00" stroke="#ddd" stroke-dasharray="3,2"></line><line x1="1097.2" y1="573.40" x2="1097.2" y2="35.00" stroke="#ddd" stroke-dasharray="3,2"></line></g></g><g clip-path="url(#boundsClip-173)"><g class="Lines"><rect x="97" y="35" width="1078" height="538" fill="rgba(255,255,255,0)" opacity="0"></rect><g class="key-World_0"><path stroke="#3360a9" stroke-linecap="round" d="M97 551L375 439L542 222L614 196L764 135L820 54L825 35L831 53L836 57L842 82L847 59L853 45L858 40L864 50L870 49L875 43L881 65L886 66L892 74L897 72L903 77L908 70L914 81L920 83L925 79L931 64L936 69L942 81L947 66L953 73L958 99L964 91L970 97L975 108L981 92L986 106L992 125L997 141L1003 162L1008 161L1014 163L1020 166L1025 173L1031 171L1036 171L1042 176L1047 176L1053 187L1058 195L1064 199L1070 204L1075 209L1081 217L1086 225L1092 238L1097 244L1103 245L1108 249L1114 243L1119 245L1125 248L1131 253L1136 263L1142 262L1147 264L1153 265L1158 265L1164 269L1169 276L1175 283" fill="none" stroke-width="1.5"></path><g fill="#3360a9"><circle cx="97" cy="551" r="2"></circle><circle cx="375" cy="439" r="2"></circle><circle cx="542" cy="222" r="2"></circle><circle cx="614" cy="196" r="2"></circle><circle cx="764" cy="135" r="2"></circle><circle cx="820" cy="54" r="2"></circle><circle cx="825" cy="35" r="2"></circle><circle cx="831" cy="53" r="2"></circle><circle cx="836" cy="57" r="2"></circle><circle cx="842" cy="82" r="2"></circle><circle cx="847" cy="59" r="2"></circle><circle cx="853" cy="45" r="2"></circle><circle cx="858" cy="40" r="2"></circle><circle cx="864" cy="50" r="2"></circle><circle cx="870" cy="49" r="2"></circle><circle cx="875" cy="43" r="2"></circle><circle cx="881" cy="65" r="2"></circle><circle cx="886" cy="66" r="2"></circle><circle cx="892" cy="74" r="2"></circle><circle cx="897" cy="72" r="2"></circle><circle cx="903" cy="77" r="2"></circle><circle cx="908" cy="70" r="2"></circle><circle cx="914" cy="81" r="2"></circle><circle cx="920" cy="83" r="2"></circle><circle cx="925" cy="79" r="2"></circle><circle cx="931" cy="64" r="2"></circle><circle cx="936" cy="69" r="2"></circle><circle cx="942" cy="81" r="2"></circle><circle cx="947" cy="66" r="2"></circle><circle cx="953" cy="73" r="2"></circle><circle cx="958" cy="99" r="2"></circle><circle cx="964" cy="91" r="2"></circle><circle cx="970" cy="97" r="2"></circle><circle cx="975" cy="108" r="2"></circle><circle cx="981" cy="92" r="2"></circle><circle cx="986" cy="106" r="2"></circle><circle cx="992" cy="125" r="2"></circle><circle cx="997" cy="141" r="2"></circle><circle cx="1003" cy="162" r="2"></circle><circle cx="1008" cy="161" r="2"></circle><circle cx="1014" cy="163" r="2"></circle><circle cx="1020" cy="166" r="2"></circle><circle cx="1025" cy="173" r="2"></circle><circle cx="1031" cy="171" r="2"></circle><circle cx="1036" cy="171" r="2"></circle><circle cx="1042" cy="176" r="2"></circle><circle cx="1047" cy="176" r="2"></circle><circle cx="1053" cy="187" r="2"></circle><circle cx="1058" cy="195" r="2"></circle><circle cx="1064" cy="199" r="2"></circle><circle cx="1070" cy="204" r="2"></circle><circle cx="1075" cy="209" r="2"></circle><circle cx="1081" cy="217" r="2"></circle><circle cx="1086" cy="225" r="2"></circle><circle cx="1092" cy="238" r="2"></circle><circle cx="1097" cy="244" r="2"></circle><circle cx="1103" cy="245" r="2"></circle><circle cx="1108" cy="249" r="2"></circle><circle cx="1114" cy="243" r="2"></circle><circle cx="1119" cy="245" r="2"></circle><circle cx="1125" cy="248" r="2"></circle><circle cx="1131" cy="253" r="2"></circle><circle cx="1136" cy="263" r="2"></circle><circle cx="1142" cy="262" r="2"></circle><circle cx="1147" cy="264" r="2"></circle><circle cx="1153" cy="265" r="2"></circle><circle cx="1158" cy="265" r="2"></circle><circle cx="1164" cy="269" r="2"></circle><circle cx="1169" cy="276" r="2"></circle><circle cx="1175" cy="283" r="2"></circle></g></g></g></g></g></g></svg>