<svg xmlns="http://www.w3.org/2000/svg" version="1.1" style="font-family: 'Helvetica Neue', Helvetica, Arial, sans-serif; font-size: 24px; background-color: white;" width="1200" height="630"><g class="ChartTab"><g class="LineChart"><defs><clipPath id="boundsClip-415"><rect x="53.416000000000004" y="0" width="1180" height="1130"></rect></clipPath></defs><g class="AxisBoxView"><g class="HorizontalAxis"><text x="63.4" y="600" fill="#666" text-anchor="middle" font-size="21.6">1880</text><text x="251.1" y="600" fill="#666" text-anchor="middle" font-size="21.6">1890</text><text x="438.7" y="600" fill="#666" text-anchor="middle" font-size="21.6">1900</text><text x="626.3" y="600" fill="#666" text-anchor="middle" font-size="21.6">1910</text><text x="814" y="600" fill="#666" text-anchor="middle" font-size="21.6">1920</text><text x="1001.6" y="600" fill="#666" text-anchor="middle" font-size="21.6">1930</text></g><g class="VerticalAxis"><text x="58.42" y="573.4" fill="#666" dominant-baseline="middle" text-anchor="end" font-size="21.6">0%</text><text x="58.42" y="490.6" fill="#666" dominant-baseline="middle" text-anchor="end" font-size="21.6">5%</text><text x="58.42" y="407.7" fill="#666" dominant-baseline="middle" text-anchor="end" font-size="21.6">10%</text><text x="58.42" y="324.9" fill="#666" dominant-baseline="middle" text-anchor="end" font-size="21.6">15%</text><text x="58.42" y="242.1" fill="#666" dominant-baseline="middle" text-anchor="end" font-size="21.6">20%</text><text x="58.42" y="159.2" fill="#666" dominant-baseline="middle" text-anchor="end" font-size="21.6">25%</text><text x="58.42" y="76.4" fill="#666" dominant-baseline="middle" text-anchor="end" font-size="21.6">30%</text></g><g class="AxisGridLines"><line x1="63.42" y1="573.4" x2="1001.60" y2="573.4" stroke="#ccc"></line><line x1="63.42" y1="490.6" x2="1001.60" y2="490.6" stroke="#ddd" stroke-dasharray="3,2"></line><line x1="63.42" y1="407.7" x2="1001.60" y2="407.7" stroke="#ddd" stroke-dasharray="3,2"></line><line x1="63.42" y1="324.9" x2="1001.60" y2="324.9" stroke="#ddd" stroke-dasharray="3,2"></line><line x1="63.42" y1="242.1" x2="1001.60" y2="242.1" stroke="#ddd" stroke-dasharray="3,2"></line><line x1="63.42" y1="159.2" x2="1001.60" y2="159.2" stroke="#ddd" stroke-dasharray="3,2"></line><line x1="63.42" y1="76.4" x2="1001.60" y2="76.4" stroke="#ddd" stroke-dasharray="3,2"></line></g><g class="AxisGridLines"><line x1="63.4" y1="573.40" x2="63.4" y2="35.00" stroke="#ddd" stroke-dasharray="3,2"></line><line x1="251.1" y1="573.40" x2="251.1" y2="35.00" stroke="#ddd" stroke-dasharray="3,2"></line><line x1="438.7" y1="573.40" x2="438.7" y2="35.00" stroke="#ddd" stroke-dasharray="3,2"></line><line x1="626.3" y1="573.40" x2="626.3" y2="35.00" stroke="#ddd" stroke-dasharray="3,2"></line><line x1="814" y1="573.40" x2="814" y2="35.00" stroke="#ddd" stroke-dasharray="3,2"></line><line x1="1001.6" y1="573.40" x2="1001.6" y2="35.00" stroke="#ddd" stroke-dasharray="3,2"></line></g></g><g clip-path="url(#boundsClip-415)"><g class="HeightedLegend clickable"><g class="legendMark"><rect x="1011.5999999999999" y="457.79999999999995" width="173.40000000000003" height="19.200000000000003" fill="#fff" opacity="0"></rect><rect x="1011.5999999999999" y="466.15" width="10" height="2.5" fill="#34983f"></rect><text font-size="19.20" x="1026.6" y="473.2" fill="#333"><tspan x="1026.6" y="473.15999999999997">Child Labor - Boys</tspan></text></g><g class="legendMark"><rect x="1011.5999999999999" y="485.59999999999997" width="151.89600000000002" height="19.200000000000003" fill="#fff" opacity="0"></rect><rect x="1011.5999999999999" y="493.95" width="10" height="2.5" fill="#ca2628"></rect><text font-size="19.20" x="1026.6" y="501.0" fill="#333"><tspan x="1026.6" y="500.96">Child Labor - All</tspan></text></g><g class="legendMark"><rect x="1011.5999999999999" y="515.8" width="169.94400000000002" height="19.200000000000003" fill="#fff" opacity="0"></rect><rect x="1011.5999999999999" y="524.15" width="10" height="2.5" fill="#3360a9"></rect><text font-size="19.20" x="1026.6" y="531.2" fill="#333"><tspan x="1026.6" y="531.16">Child Labor - Girls</tspan></text></g></g><g class="Lines"><rect x="63" y="35" width="938" height="538" fill="rgba(255,255,255,0)" opacity="0"></rect><g class="key-United-States_0"><path stroke="#3360a9" stroke-linecap="round" d="M63 371L439 467L1002 525" fill="none" stroke-width="1.5"></path><g fill="#3360a9"><circle cx="63" cy="371" r="2"></circle><circle cx="439" cy="467" r="2"></circle><circle cx="1002" cy="525" r="2"></circle></g></g><g class="key-United-States_1"><path stroke="#ca2628" stroke-linecap="round" d="M63 194L439 300L1002 495" fill="none" stroke-width="1.5"></path><g fill="#ca2628"><circle cx="63" cy="194" r="2"></circle><circle cx="439" cy="300" r="2"></circle><circle cx="1002" cy="495" r="2"></circle></g></g><g class="key-United-States_2"><path stroke="#34983f" stroke-linecap="round" d="M63 35L439 141L1002 467" fill="none" stroke-width="1.5"></path><g fill="#34983f"><circle cx="63" cy="35" r="2"></circle><circle cx="439" cy="141" r="2"></circle><circle cx="1002" cy="467" r="2"></circle></g></g></g></g></g></g></svg>