<svg xmlns="http://www.w3.org/2000/svg" version="1.1" style="font-family: 'Helvetica Neue', Helvetica, Arial, sans-serif; font-size: 24px; background-color: white;" width="1200" height="630"><g class="ChartTab"><g class="LineChart"><defs><clipPath id="boundsClip-497"><rect x="46.288000000000004" y="0" width="1180" height="1130"></rect></clipPath></defs><g class="AxisBoxView"><g class="HorizontalAxis"><text x="56.3" y="600" fill="#666" text-anchor="middle" font-size="21.6">1950</text><text x="207.3" y="600" fill="#666" text-anchor="middle" font-size="21.6">1960</text><text x="358.4" y="600" fill="#666" text-anchor="middle" font-size="21.6">1970</text><text x="509.4" y="600" fill="#666" text-anchor="middle" font-size="21.6">1980</text><text x="660.4" y="600" fill="#666" text-anchor="middle" font-size="21.6">1990</text><text x="811.5" y="600" fill="#666" text-anchor="middle" font-size="21.6">2000</text><text x="962.5" y="600" fill="#666" text-anchor="middle" font-size="21.6">2010</text><text x="1022.9" y="600" fill="#666" text-anchor="middle" font-size="21.6">2014</text></g><g class="VerticalAxis"><text x="51.29" y="573.4" fill="#666" dominant-baseline="middle" text-anchor="end" font-size="21.6">$0</text><text x="51.29" y="468" fill="#666" dominant-baseline="middle" text-anchor="end" font-size="21.6">$10</text><text x="51.29" y="362.7" fill="#666" dominant-baseline="middle" text-anchor="end" font-size="21.6">$20</text><text x="51.29" y="257.3" fill="#666" dominant-baseline="middle" text-anchor="end" font-size="21.6">$30</text><text x="51.29" y="152" fill="#666" dominant-baseline="middle" text-anchor="end" font-size="21.6">$40</text><text x="51.29" y="46.6" fill="#666" dominant-baseline="middle" text-anchor="end" font-size="21.6">$50</text></g><g class="AxisGridLines"><line x1="56.29" y1="573.4" x2="1022.91" y2="573.4" stroke="#ccc"></line><line x1="56.29" y1="468" x2="1022.91" y2="468" stroke="#ddd" stroke-dasharray="3,2"></line><line x1="56.29" y1="362.7" x2="1022.91" y2="362.7" stroke="#ddd" stroke-dasharray="3,2"></line><line x1="56.29" y1="257.3" x2="1022.91" y2="257.3" stroke="#ddd" stroke-dasharray="3,2"></line><line x1="56.29" y1="152" x2="1022.91" y2="152" stroke="#ddd" stroke-dasharray="3,2"></line><line x1="56.29" y1="46.6" x2="1022.91" y2="46.6" stroke="#ddd" stroke-dasharray="3,2"></line></g><g class="AxisGridLines"><line x1="56.3" y1="573.40" x2="56.3" y2="35.00" stroke="#ddd" stroke-dasharray="3,2"></line><line x1="207.3" y1="573.40" x2="207.3" y2="35.00" stroke="#ddd" stroke-dasharray="3,2"></line><line x1="358.4" y1="573.40" x2="358.4" y2="35.00" stroke="#ddd" stroke-dasharray="3,2"></line><line x1="509.4" y1="573.40" x2="509.4" y2="35.00" stroke="#ddd" stroke-dasharray="3,2"></line><line x1="660.4" y1="573.40" x2="660.4" y2="35.00" stroke="#ddd" stroke-dasharray="3,2"></line><line x1="811.5" y1="573.40" x2="811.5" y2="35.00" stroke="#ddd" stroke-dasharray="3,2"></line><line x1="962.5" y1="573.40" x2="962.5" y2="35.00" stroke="#ddd" stroke-dasharray="3,2"></line></g></g><g clip-path="url(#boundsClip-497)"><g class="HeightedLegend clickable"><g class="legendMark"><rect x="1032.912" y="25.4" width="64.34400000000001" height="19.200000000000003" fill="#fff" opacity="0"></rect><rect x="1032.912" y="33.75" width="10" height="2.5" fill="#34983f"></rect><text font-size="19.20" x="1047.9" y="40.8" fill="#333"><tspan x="1047.912" y="40.76">Spain</tspan></text></g><g class="legendMark"><rect x="1032.912" y="57.300000000000004" width="152.08800000000002" height="19.200000000000003" fill="#fff" opacity="0"></rect><rect x="1032.912" y="65.65" width="10" height="2.5" fill="#ca2628"></rect><text font-size="19.20" x="1047.9" y="72.7" fill="#333"><tspan x="1047.912" y="72.66">United Kingdom</tspan></text></g><g class="legendMark"><rect x="1032.912" y="415" width="96.21600000000001" height="19.200000000000003" fill="#fff" opacity="0"></rect><rect x="1032.912" y="423.35" width="10" height="2.5" fill="#3360a9"></rect><text font-size="19.20" x="1047.9" y="430.4" fill="#333"><tspan x="1047.912" y="430.36">Colombia</tspan></text></g></g><g class="Lines"><rect x="56" y="35" width="967" height="538" fill="rgba(255,255,255,0)" opacity="0"></rect><g class="key-Colombia_0"><path stroke="#3360a9" stroke-linecap="round" d="M56 529L71 529L87 527L102 523L117 519L132 518L147 518L162 519L177 520L192 517L207 515L222 513L238 511L253 511L268 507L283 509L298 507L313 507L328 505L343 503L358 499L374 494L389 488L404 482L419 477L434 476L449 473L464 473L479 468L494 467L509 464L525 468L540 469L555 469L570 467L585 469L600 466L615 470L630 470L645 472L660 471L676 477L691 473L706 473L721 472L736 472L751 472L766 472L781 474L796 478L812 479L827 479L842 480L857 480L872 479L887 476L902 470L917 463L932 455L947 453L963 445L978 435L993 431L1008 427L1023 425" fill="none" stroke-width="1.5"></path><g fill="#3360a9"><circle cx="56" cy="529" r="2"></circle><circle cx="71" cy="529" r="2"></circle><circle cx="87" cy="527" r="2"></circle><circle cx="102" cy="523" r="2"></circle><circle cx="117" cy="519" r="2"></circle><circle cx="132" cy="518" r="2"></circle><circle cx="147" cy="518" r="2"></circle><circle cx="162" cy="519" r="2"></circle><circle cx="177" cy="520" r="2"></circle><circle cx="192" cy="517" r="2"></circle><circle cx="207" cy="515" r="2"></circle><circle cx="222" cy="513" r="2"></circle><circle cx="238" cy="511" r="2"></circle><circle cx="253" cy="511" r="2"></circle><circle cx="268" cy="507" r="2"></circle><circle cx="283" cy="509" r="2"></circle><circle cx="298" cy="507" r="2"></circle><circle cx="313" cy="507" r="2"></circle><circle cx="328" cy="505" r="2"></circle><circle cx="343" cy="503" r="2"></circle><circle cx="358" cy="499" r="2"></circle><circle cx="374" cy="494" r="2"></circle><circle cx="389" cy="488" r="2"></circle><circle cx="404" cy="482" r="2"></circle><circle cx="419" cy="477" r="2"></circle><circle cx="434" cy="476" r="2"></circle><circle cx="449" cy="473" r="2"></circle><circle cx="464" cy="473" r="2"></circle><circle cx="479" cy="468" r="2"></circle><circle cx="494" cy="467" r="2"></circle><circle cx="509" cy="464" r="2"></circle><circle cx="525" cy="468" r="2"></circle><circle cx="540" cy="469" r="2"></circle><circle cx="555" cy="469" r="2"></circle><circle cx="570" cy="467" r="2"></circle><circle cx="585" cy="469" r="2"></circle><circle cx="600" cy="466" r="2"></circle><circle cx="615" cy="470" r="2"></circle><circle cx="630" cy="470" r="2"></circle><circle cx="645" cy="472" r="2"></circle><circle cx="660" cy="471" r="2"></circle><circle cx="676" cy="477" r="2"></circle><circle cx="691" cy="473" r="2"></circle><circle cx="706" cy="473" r="2"></circle><circle cx="721" cy="472" r="2"></circle><circle cx="736" cy="472" r="2"></circle><circle cx="751" cy="472" r="2"></circle><circle cx="766" cy="472" r="2"></circle><circle cx="781" cy="474" r="2"></circle><circle cx="796" cy="478" r="2"></circle><circle cx="812" cy="479" r="2"></circle><circle cx="827" cy="479" r="2"></circle><circle cx="842" cy="480" r="2"></circle><circle cx="857" cy="480" r="2"></circle><circle cx="872" cy="479" r="2"></circle><circle cx="887" cy="476" r="2"></circle><circle cx="902" cy="470" r="2"></circle><circle cx="917" cy="463" r="2"></circle><circle cx="932" cy="455" r="2"></circle><circle cx="947" cy="453" r="2"></circle><circle cx="963" cy="445" r="2"></circle><circle cx="978" cy="435" r="2"></circle><circle cx="993" cy="431" r="2"></circle><circle cx="1008" cy="427" r="2"></circle><circle cx="1023" cy="425" r="2"></circle></g></g><g class="key-Spain_0"><path stroke="#34983f" stroke-linecap="round" d="M56 532L71 525L87 522L102 524L117 517L132 513L147 509L162 507L177 505L192 506L207 498L222 490L238 482L253 474L268 470L283 465L298 459L313 454L328 447L343 437L358 434L374 428L389 418L404 411L419 403L434 399L449 387L464 378L479 364L494 352L509 337L525 339L540 342L555 342L570 335L585 334L600 322L615 314L630 303L645 292L660 287L676 278L691 265L706 249L721 234L736 222L751 216L766 204L781 198L796 200L812 192L827 192L842 186L857 196L872 195L887 179L902 162L917 138L932 130L947 111L963 108L978 100L993 73L1008 51L1023 35" fill="none" stroke-width="1.5"></path><g fill="#34983f"><circle cx="56" cy="532" r="2"></circle><circle cx="71" cy="525" r="2"></circle><circle cx="87" cy="522" r="2"></circle><circle cx="102" cy="524" r="2"></circle><circle cx="117" cy="517" r="2"></circle><circle cx="132" cy="513" r="2"></circle><circle cx="147" cy="509" r="2"></circle><circle cx="162" cy="507" r="2"></circle><circle cx="177" cy="505" r="2"></circle><circle cx="192" cy="506" r="2"></circle><circle cx="207" cy="498" r="2"></circle><circle cx="222" cy="490" r="2"></circle><circle cx="238" cy="482" r="2"></circle><circle cx="253" cy="474" r="2"></circle><circle cx="268" cy="470" r="2"></circle><circle cx="283" cy="465" r="2"></circle><circle cx="298" cy="459" r="2"></circle><circle cx="313" cy="454" r="2"></circle><circle cx="328" cy="447" r="2"></circle><circle cx="343" cy="437" r="2"></circle><circle cx="358" cy="434" r="2"></circle><circle cx="374" cy="428" r="2"></circle><circle cx="389" cy="418" r="2"></circle><circle cx="404" cy="411" r="2"></circle><circle cx="419" cy="403" r="2"></circle><circle cx="434" cy="399" r="2"></circle><circle cx="449" cy="387" r="2"></circle><circle cx="464" cy="378" r="2"></circle><circle cx="479" cy="364" r="2"></circle><circle cx="494" cy="352" r="2"></circle><circle cx="509" cy="337" r="2"></circle><circle cx="525" cy="339" r="2"></circle><circle cx="540" cy="342" r="2"></circle><circle cx="555" cy="342" r="2"></circle><circle cx="570" cy="335" r="2"></circle><circle cx="585" cy="334" r="2"></circle><circle cx="600" cy="322" r="2"></circle><circle cx="615" cy="314" r="2"></circle><circle cx="630" cy="303" r="2"></circle><circle cx="645" cy="292" r="2"></circle><circle cx="660" cy="287" r="2"></circle><circle cx="676" cy="278" r="2"></circle><circle cx="691" cy="265" r="2"></circle><circle cx="706" cy="249" r="2"></circle><circle cx="721" cy="234" r="2"></circle><circle cx="736" cy="222" r="2"></circle><circle cx="751" cy="216" r="2"></circle><circle cx="766" cy="204" r="2"></circle><circle cx="781" cy="198" r="2"></circle><circle cx="796" cy="200" r="2"></circle><circle cx="812" cy="192" r="2"></circle><circle cx="827" cy="192" r="2"></circle><circle cx="842" cy="186" r="2"></circle><circle cx="857" cy="196" r="2"></circle><circle cx="872" cy="195" r="2"></circle><circle cx="887" cy="179" r="2"></circle><circle cx="902" cy="162" r="2"></circle><circle cx="917" cy="138" r="2"></circle><circle cx="932" cy="130" r="2"></circle><circle cx="947" cy="111" r="2"></circle><circle cx="963" cy="108" r="2"></circle><circle cx="978" cy="100" r="2"></circle><circle cx="993" cy="73" r="2"></circle><circle cx="1008" cy="51" r="2"></circle><circle cx="1023" cy="35" r="2"></circle></g></g><g class="key-United-Kingdom_0"><path stroke="#ca2628" stroke-linecap="round" d="M56 470L71 468L87 469L102 465L117 463L132 461L147 459L162 457L177 454L192 451L207 448L222 444L238 442L253 438L268 431L283 427L298 422L313 415L328 407L343 404L358 396L374 389L389 382L404 372L419 375L434 374L449 362L464 351L479 336L494 320L509 312L525 306L540 299L555 292L570 295L585 293L600 285L615 276L630 273L645 271L660 262L676 255L691 239L706 223L721 216L736 204L751 187L766 162L781 157L796 144L812 114L827 105L842 102L857 103L872 90L887 74L902 72L917 77L932 71L947 92L963 98L978 94L993 87L1008 65L1023 67" fill="none" stroke-width="1.5"></path><g fill="#ca2628"><circle cx="56" cy="470" r="2"></circle><circle cx="71" cy="468" r="2"></circle><circle cx="87" cy="469" r="2"></circle><circle cx="102" cy="465" r="2"></circle><circle cx="117" cy="463" r="2"></circle><circle cx="132" cy="461" r="2"></circle><circle cx="147" cy="459" r="2"></circle><circle cx="162" cy="457" r="2"></circle><circle cx="177" cy="454" r="2"></circle><circle cx="192" cy="451" r="2"></circle><circle cx="207" cy="448" r="2"></circle><circle cx="222" cy="444" r="2"></circle><circle cx="238" cy="442" r="2"></circle><circle cx="253" cy="438" r="2"></circle><circle cx="268" cy="431" r="2"></circle><circle cx="283" cy="427" r="2"></circle><circle cx="298" cy="422" r="2"></circle><circle cx="313" cy="415" r="2"></circle><circle cx="328" cy="407" r="2"></circle><circle cx="343" cy="404" r="2"></circle><circle cx="358" cy="396" r="2"></circle><circle cx="374" cy="389" r="2"></circle><circle cx="389" cy="382" r="2"></circle><circle cx="404" cy="372" r="2"></circle><circle cx="419" cy="375" r="2"></circle><circle cx="434" cy="374" r="2"></circle><circle cx="449" cy="362" r="2"></circle><circle cx="464" cy="351" r="2"></circle><circle cx="479" cy="336" r="2"></circle><circle cx="494" cy="320" r="2"></circle><circle cx="509" cy="312" r="2"></circle><circle cx="525" cy="306" r="2"></circle><circle cx="540" cy="299" r="2"></circle><circle cx="555" cy="292" r="2"></circle><circle cx="570" cy="295" r="2"></circle><circle cx="585" cy="293" r="2"></circle><circle cx="600" cy="285" r="2"></circle><circle cx="615" cy="276" r="2"></circle><circle cx="630" cy="273" r="2"></circle><circle cx="645" cy="271" r="2"></circle><circle cx="660" cy="262" r="2"></circle><circle cx="676" cy="255" r="2"></circle><circle cx="691" cy="239" r="2"></circle><circle cx="706" cy="223" r="2"></circle><circle cx="721" cy="216" r="2"></circle><circle cx="736" cy="204" r="2"></circle><circle cx="751" cy="187" r="2"></circle><circle cx="766" cy="162" r="2"></circle><circle cx="781" cy="157" r="2"></circle><circle cx="796" cy="144" r="2"></circle><circle cx="812" cy="114" r="2"></circle><circle cx="827" cy="105" r="2"></circle><circle cx="842" cy="102" r="2"></circle><circle cx="857" cy="103" r="2"></circle><circle cx="872" cy="90" r="2"></circle><circle cx="887" cy="74" r="2"></circle><circle cx="902" cy="72" r="2"></circle><circle cx="917" cy="77" r="2"></circle><circle cx="932" cy="71" r="2"></circle><circle cx="947" cy="92" r="2"></circle><circle cx="963" cy="98" r="2"></circle><circle cx="978" cy="94" r="2"></circle><circle cx="993" cy="87" r="2"></circle><circle cx="1008" cy="65" r="2"></circle><circle cx="1023" cy="67" r="2"></circle></g></g></g></g></g></g></svg>