<svg xmlns="http://www.w3.org/2000/svg" version="1.1" style="font-family: 'Helvetica Neue', Helvetica, Arial, sans-serif; font-size: 24px; background-color: white;" width="1200" height="630"><g class="ChartTab"><g><g class="AxisBoxView"><g class="HorizontalAxis"><text font-size="16.80" x="255.1" y="596.6"><tspan x="255.06000000000012" y="596.64">Life satisfaction in Cantril Ladder (World Happiness Report 2017) in 2015</tspan></text><text x="131.7" y="573.2" fill="#666" text-anchor="middle" font-size="21.6">3</text><text x="329.3" y="573.2" fill="#666" text-anchor="middle" font-size="21.6">4</text><text x="526.9" y="573.2" fill="#666" text-anchor="middle" font-size="21.6">5</text><text x="724.6" y="573.2" fill="#666" text-anchor="middle" font-size="21.6">6</text><text x="922.2" y="573.2" fill="#666" text-anchor="middle" font-size="21.6">7</text></g><g class="VerticalAxis"><text font-size="16.80" x="-516.7" y="28.4" transform="rotate(-90)"><tspan x="-516.664" y="28.439999999999998">Life Expectancy (1950-2015) – UN Pop Division 2015</tspan></text><text x="65.99" y="546.6" fill="#666" dominant-baseline="middle" text-anchor="end" font-size="21.6">40</text><text x="65.99" y="429.5" fill="#666" dominant-baseline="middle" text-anchor="end" font-size="21.6">50</text><text x="65.99" y="312.5" fill="#666" dominant-baseline="middle" text-anchor="end" font-size="21.6">60</text><text x="65.99" y="195.4" fill="#666" dominant-baseline="middle" text-anchor="end" font-size="21.6">70</text><text x="65.99" y="78.3" fill="#666" dominant-baseline="middle" text-anchor="end" font-size="21.6">80</text></g><g class="AxisGridLines"><line x1="70.99" y1="546.6" x2="1041.46" y2="546.6" stroke="#ddd" stroke-dasharray="3,2"></line><line x1="70.99" y1="429.5" x2="1041.46" y2="429.5" stroke="#ddd" stroke-dasharray="3,2"></line><line x1="70.99" y1="312.5" x2="1041.46" y2="312.5" stroke="#ddd" stroke-dasharray="3,2"></line><line x1="70.99" y1="195.4" x2="1041.46" y2="195.4" stroke="#ddd" stroke-dasharray="3,2"></line><line x1="70.99" y1="78.3" x2="1041.46" y2="78.3" stroke="#ddd" stroke-dasharray="3,2"></line></g><g class="AxisGridLines"><line x1="131.7" y1="546.60" x2="131.7" y2="35.00" stroke="#ddd" stroke-dasharray="3,2"></line><line x1="329.3" y1="546.60" x2="329.3" y2="35.00" stroke="#ddd" stroke-dasharray="3,2"></line><line x1="526.9" y1="546.60" x2="526.9" y2="35.00" stroke="#ddd" stroke-dasharray="3,2"></line><line x1="724.6" y1="546.60" x2="724.6" y2="35.00" stroke="#ddd" stroke-dasharray="3,2"></line><line x1="922.2" y1="546.60" x2="922.2" y2="35.00" stroke="#ddd" stroke-dasharray="3,2"></line></g></g><g clip-path="url(#scatterBounds-531)" class="PointsWithLabels clickable"><rect x="70.992" y="35" width="970.4640000000002" height="511.6" fill="rgba(255,255,255,0)"></rect><defs><clipPath id="scatterBounds-531"><rect x="60.992000000000004" y="25" width="990.4640000000002" height="531.6"></rect></clipPath></defs><circle cx="587" cy="132" r="17.841241161527712" fill="#d14e5b" opacity="0.8"></circle><circle cx="396" cy="224" r="17.285222350122034" fill="#d14e5b" opacity="0.8"></circle><circle cx="895" cy="91" r="8.772572578545233" fill="#4d824b" opacity="0.8"></circle><circle cx="535" cy="211" r="7.773233418242717" fill="#d14e5b" opacity="0.8"></circle><circle cx="832" cy="147" r="7.035133706624283" fill="#69c487" opacity="0.8"></circle><circle cx="492" cy="243" r="6.751541647708333" fill="#d14e5b" opacity="0.8"></circle><circle cx="513" cy="402" r="6.537132799280157" fill="#5675c1" opacity="0.8"></circle><circle cx="454" cy="183" r="6.23750558461099" fill="#d14e5b" opacity="0.8"></circle><circle cx="723" cy="197" r="6.013486064054674" fill="#ffd336" opacity="0.8"></circle><circle cx="700" cy="39" r="5.692337470937457" fill="#d14e5b" opacity="0.8"></circle><circle cx="771" cy="119" r="5.508784111306037" fill="#4d824b" opacity="0.8"></circle><circle cx="635" cy="218" r="5.084909759737343" fill="#d14e5b" opacity="0.8"></circle><circle cx="542" cy="129" r="4.911964416726709" fill="#d14e5b" opacity="0.8"></circle><circle cx="442" cy="276" r="4.857369765919709" fill="#5675c1" opacity="0.8"></circle><circle cx="480" cy="186" r="4.785763578291187" fill="#5675c1" opacity="0.8"></circle><circle cx="929" cy="71" r="4.698378747866944" fill="#ffd336" opacity="0.8"></circle><circle cx="477" cy="135" r="4.563253662749106" fill="#d14e5b" opacity="0.8"></circle><circle cx="628" cy="139" r="4.536549731478742" fill="#d14e5b" opacity="0.8"></circle><circle cx="310" cy="334" r="4.4347315514629635" fill="#5675c1" opacity="0.8"></circle><circle cx="764" cy="147" r="4.403869412042781" fill="#d14e5b" opacity="0.8"></circle><circle cx="795" cy="57" r="4.230376252723475" fill="#ffd336" opacity="0.8"></circle><circle cx="826" cy="73" r="4.213747708472569" fill="#ffd336" opacity="0.8"></circle><circle cx="694" cy="45" r="4.155845111353283" fill="#ffd336" opacity="0.8"></circle><circle cx="504" cy="346" r="3.8636312642535433" fill="#5675c1" opacity="0.8"></circle><circle cx="262" cy="265" r="3.808380496931346" fill="#5675c1" opacity="0.8"></circle><circle cx="373" cy="246" r="3.8073649141018575" fill="#d14e5b" opacity="0.8"></circle><circle cx="681" cy="61" r="3.7968485345128626" fill="#d14e5b" opacity="0.8"></circle><circle cx="801" cy="152" r="3.778190089973623" fill="#69c487" opacity="0.8"></circle><circle cx="799" cy="51" r="3.743582929533462" fill="#ffd336" opacity="0.8"></circle><circle cx="322" cy="187" r="3.670213452583606" fill="#ffd336" opacity="0.8"></circle><circle cx="400" cy="305" r="3.6457128744432854" fill="#5675c1" opacity="0.8"></circle><circle cx="862" cy="125" r="3.566958054077377" fill="#69c487" opacity="0.8"></circle><circle cx="725" cy="112" r="3.463321702309772" fill="#ffd336" opacity="0.8"></circle><circle cx="603" cy="143" r="3.417902552816177" fill="#5675c1" opacity="0.8"></circle><circle cx="376" cy="345" r="3.4102737656667172" fill="#5675c1" opacity="0.8"></circle><circle cx="356" cy="276" r="3.382337638313597" fill="#5675c1" opacity="0.8"></circle><circle cx="1003" cy="57" r="3.349714271625823" fill="#4d824b" opacity="0.8"></circle><circle cx="426" cy="204" r="3.342176411383234" fill="#d14e5b" opacity="0.8"></circle><circle cx="325" cy="314" r="3.3325783470912187" fill="#d14e5b" opacity="0.8"></circle><circle cx="559" cy="153" r="3.2773500508571556" fill="#5675c1" opacity="0.8"></circle><circle cx="489" cy="207" r="3.227802121010656" fill="#d14e5b" opacity="0.8"></circle><circle cx="639" cy="149" r="3.184595128257077" fill="#69c487" opacity="0.8"></circle><circle cx="641" cy="146" r="3.174916450261314" fill="#69c487" opacity="0.8"></circle><circle cx="788" cy="142" r="3.164382824361675" fill="#d14e5b" opacity="0.8"></circle><circle cx="792" cy="147" r="3.147196742097624" fill="#d14e5b" opacity="0.8"></circle><circle cx="719" cy="216" r="3.1130745649351277" fill="#d14e5b" opacity="0.8"></circle><circle cx="326" cy="300" r="3.027476629563082" fill="#5675c1" opacity="0.8"></circle><circle cx="437" cy="375" r="2.9849374127545594" fill="#5675c1" opacity="0.8"></circle><circle cx="983" cy="53" r="2.9136136784604045" fill="#a652ba" opacity="0.8"></circle><circle cx="248" cy="259" r="2.8872760064719585" fill="#5675c1" opacity="0.8"></circle><circle cx="222" cy="201" r="2.8433302802442912" fill="#d14e5b" opacity="0.8"></circle><circle cx="450" cy="141" r="2.8402669806405023" fill="#d14e5b" opacity="0.8"></circle><circle cx="680" cy="142" r="2.8380185439171304" fill="#ffd336" opacity="0.8"></circle><circle cx="417" cy="417" r="2.8264954791729244" fill="#5675c1" opacity="0.8"></circle><circle cx="534" cy="372" r="2.8205941566458277" fill="#5675c1" opacity="0.8"></circle><circle cx="288" cy="409" r="2.812398418684893" fill="#5675c1" opacity="0.8"></circle><circle cx="412" cy="334" r="2.69867188358345" fill="#5675c1" opacity="0.8"></circle><circle cx="829" cy="64" r="2.679830333956837" fill="#69c487" opacity="0.8"></circle><circle cx="264" cy="304" r="2.665313575338776" fill="#5675c1" opacity="0.8"></circle><circle cx="444" cy="345" r="2.6464736809001335" fill="#5675c1" opacity="0.8"></circle><circle cx="986" cy="63" r="2.6444274811505153" fill="#ffd336" opacity="0.8"></circle><circle cx="714" cy="205" r="2.63517915429803" fill="#d14e5b" opacity="0.8"></circle><circle cx="303" cy="300" r="2.6288347663198834" fill="#5675c1" opacity="0.8"></circle><circle cx="816" cy="177" r="2.589758954361868" fill="#4d824b" opacity="0.8"></circle><circle cx="717" cy="131" r="2.568807818388506" fill="#69c487" opacity="0.8"></circle><circle cx="361" cy="223" r="2.550446173442333" fill="#d14e5b" opacity="0.8"></circle><circle cx="495" cy="326" r="2.5348747823215563" fill="#5675c1" opacity="0.8"></circle><circle cx="451" cy="244" r="2.4952159409525585" fill="#5675c1" opacity="0.8"></circle><circle cx="270" cy="373" r="2.489342216663491" fill="#5675c1" opacity="0.8"></circle><circle cx="393" cy="416" r="2.433476862221427" fill="#5675c1" opacity="0.8"></circle><circle cx="227" cy="276" r="2.4079283565346237" fill="#5675c1" opacity="0.8"></circle><circle cx="650" cy="71" r="2.400079537967098" fill="#ffd336" opacity="0.8"></circle><circle cx="343" cy="369" r="2.372692796423711" fill="#5675c1" opacity="0.8"></circle><circle cx="903" cy="72" r="2.3694470342534357" fill="#ffd336" opacity="0.8"></circle><circle cx="552" cy="141" r="2.3693531353801003" fill="#5675c1" opacity="0.8"></circle><circle cx="231" cy="335" r="2.366415387065641" fill="#5675c1" opacity="0.8"></circle><circle cx="542" cy="72" r="2.36400635757858" fill="#ffd336" opacity="0.8"></circle><circle cx="844" cy="98" r="2.3583730644940424" fill="#ffd336" opacity="0.8"></circle><circle cx="691" cy="222" r="2.3495053924125324" fill="#69c487" opacity="0.8"></circle><circle cx="244" cy="285" r="2.348452271928258" fill="#4d824b" opacity="0.8"></circle><circle cx="539" cy="157" r="2.3445086853599695" fill="#4d824b" opacity="0.8"></circle><circle cx="596" cy="372" r="2.3318265415073163" fill="#5675c1" opacity="0.8"></circle><circle cx="595" cy="136" r="2.325900041811853" fill="#ffd336" opacity="0.8"></circle><circle cx="589" cy="141" r="2.320970753633084" fill="#ffd336" opacity="0.8"></circle><circle cx="255" cy="321" r="2.3095296884805046" fill="#5675c1" opacity="0.8"></circle><circle cx="979" cy="56" r="2.3064800070455496" fill="#ffd336" opacity="0.8"></circle><circle cx="555" cy="188" r="2.3058577308622437" fill="#d14e5b" opacity="0.8"></circle><circle cx="669" cy="182" r="2.3040894756278614" fill="#ffd336" opacity="0.8"></circle><circle cx="112" cy="358" r="2.27435549447937" fill="#5675c1" opacity="0.8"></circle><circle cx="937" cy="65" r="2.2502733715350427" fill="#ffd336" opacity="0.8"></circle><circle cx="836" cy="116" r="2.2382199381631374" fill="#d14e5b" opacity="0.8"></circle><circle cx="496" cy="162" r="2.2311424376198103" fill="#4d824b" opacity="0.8"></circle><circle cx="937" cy="53" r="2.2179744346059143" fill="#d14e5b" opacity="0.8"></circle><circle cx="1035" cy="46" r="2.2149908456635514" fill="#ffd336" opacity="0.8"></circle><circle cx="500" cy="148" r="2.1933009284299696" fill="#ffd336" opacity="0.8"></circle><circle cx="625" cy="35" r="2.1893150072125658" fill="#d14e5b" opacity="0.8"></circle><circle cx="551" cy="205" r="2.1845121330297563" fill="#d14e5b" opacity="0.8"></circle><circle cx="637" cy="163" r="2.1639670678411047" fill="#69c487" opacity="0.8"></circle><circle cx="606" cy="150" r="2.151860682379028" fill="#d14e5b" opacity="0.8"></circle><circle cx="648" cy="177" r="2.1482582004565334" fill="#5675c1" opacity="0.8"></circle><circle cx="283" cy="324" r="2.143204347221237" fill="#5675c1" opacity="0.8"></circle><circle cx="728" cy="164" r="2.137254413238061" fill="#4d824b" opacity="0.8"></circle><circle cx="508" cy="427" r="2.134672915245005" fill="#5675c1" opacity="0.8"></circle><circle cx="709" cy="142" r="2.1230511874014923" fill="#4d824b" opacity="0.8"></circle><circle cx="1023" cy="78" r="2.09940624060031" fill="#ffd336" opacity="0.8"></circle><circle cx="508" cy="191" r="2.093437215210202" fill="#d14e5b" opacity="0.8"></circle><circle cx="756" cy="125" r="2.092635249809096" fill="#ffd336" opacity="0.8"></circle><circle cx="1010" cy="72" r="2.0887528003374354" fill="#ffd336" opacity="0.8"></circle><circle cx="847" cy="47" r="2.0822012467362296" fill="#d14e5b" opacity="0.8"></circle><circle cx="683" cy="249" r="2.0785078187450408" fill="#d14e5b" opacity="0.8"></circle><circle cx="1041" cy="63" r="2.064929035864857" fill="#ffd336" opacity="0.8"></circle><circle cx="893" cy="87" r="2.057502164512244" fill="#4d824b" opacity="0.8"></circle><circle cx="71" cy="435" r="2.0465909562893247" fill="#5675c1" opacity="0.8"></circle><circle cx="888" cy="71" r="2.0445822142876304" fill="#ffd336" opacity="0.8"></circle><circle cx="1004" cy="59" r="2.0375827939822804" fill="#a652ba" opacity="0.8"></circle><circle cx="567" cy="113" r="2.0302089303735524" fill="#ffd336" opacity="0.8"></circle><circle cx="72" cy="308" r="2.0284912494821583" fill="#5675c1" opacity="0.8"></circle><circle cx="465" cy="296" r="2.027088134859708" fill="#5675c1" opacity="0.8"></circle><circle cx="560" cy="91" r="2.0270801848652384" fill="#d14e5b" opacity="0.8"></circle><circle cx="353" cy="141" r="2.024467580666783" fill="#d14e5b" opacity="0.8"></circle><circle cx="550" cy="121" r="1.9931557584994073" fill="#ffd336" opacity="0.8"></circle><circle cx="314" cy="279" r="1.9913246096480535" fill="#5675c1" opacity="0.8"></circle><circle cx="844" cy="109" r="1.9898015407285494" fill="#4d824b" opacity="0.8"></circle><circle cx="728" cy="180" r="1.9791331904526517" fill="#ffd336" opacity="0.8"></circle><circle cx="848" cy="113" r="1.9737047598942277" fill="#69c487" opacity="0.8"></circle><circle cx="667" cy="159" r="1.9663613922825238" fill="#ffd336" opacity="0.8"></circle><circle cx="449" cy="107" r="1.9640003203553738" fill="#ffd336" opacity="0.8"></circle><circle cx="398" cy="143" r="1.9568685527282343" fill="#d14e5b" opacity="0.8"></circle><circle cx="753" cy="145" r="1.9474430306498691" fill="#d14e5b" opacity="0.8"></circle><circle cx="523" cy="208" r="1.9432025093583924" fill="#d14e5b" opacity="0.8"></circle><circle cx="588" cy="132" r="1.936228265899042" fill="#4d824b" opacity="0.8"></circle><circle cx="442" cy="262" r="1.9141449516420936" fill="#5675c1" opacity="0.8"></circle><circle cx="291" cy="435" r="1.904164388581971" fill="#5675c1" opacity="0.8"></circle><circle cx="701" cy="149" r="1.903319952325259" fill="#ffd336" opacity="0.8"></circle><circle cx="282" cy="264" r="1.8940602943261768" fill="#5675c1" opacity="0.8"></circle><circle cx="522" cy="134" r="1.893729909339835" fill="#ffd336" opacity="0.8"></circle><circle cx="673" cy="77" r="1.8922322615856932" fill="#ffd336" opacity="0.8"></circle><circle cx="798" cy="102" r="1.8880658344110646" fill="#d14e5b" opacity="0.8"></circle><circle cx="459" cy="269" r="1.864421929175238" fill="#5675c1" opacity="0.8"></circle><circle cx="726" cy="120" r="1.8508830424885274" fill="#d14e5b" opacity="0.8"></circle><circle cx="651" cy="119" r="1.8484735682889422" fill="#ffd336" opacity="0.8"></circle><circle cx="647" cy="147" r="1.8473413019100302" fill="#5675c1" opacity="0.8"></circle><circle cx="613" cy="79" r="1.836052093545985" fill="#ffd336" opacity="0.8"></circle><circle cx="543" cy="208" r="1.8119531528230637" fill="#d14e5b" opacity="0.8"></circle><circle cx="551" cy="125" r="1.8036708424479904" fill="#ffd336" opacity="0.8"></circle><circle cx="863" cy="63" r="1.7970283360058972" fill="#ffd336" opacity="0.8"></circle><circle cx="845" cy="74" r="1.7899523955515084" fill="#ffd336" opacity="0.8"></circle><circle cx="1020" cy="51" r="1.7842069673605103" fill="#ffd336" opacity="0.8"></circle><circle cx="715" cy="197" r="1.7841241161527712" fill="#4d824b" opacity="0.8"></circle><circle cx="466" cy="164" r="1.762501967067357" fill="#d14e5b" opacity="0.8"></circle><circle cx="128" cy="271" r="1.762501967067357" fill="#d14e5b" opacity="0.8"></circle><text x="587" y="113.1587588384723" font-size="14.3" font-family="Arial Narrow, Arial, sans-serif" fill="#666">China</text><text x="396" y="205.71477764987796" font-size="14.095472113409267" font-family="Arial Narrow, Arial, sans-serif" fill="#666">India</text><text x="895" y="81.22742742145476" font-size="11.772569268567095" font-family="Arial Narrow, Arial, sans-serif" fill="#666">United States</text><text x="535" y="202.2267665817573" font-size="11.599416495236735" font-family="Arial Narrow, Arial, sans-serif" fill="#666">Indonesia</text><text x="832" y="138.9648662933757" font-size="11.484957263538087" font-family="Arial Narrow, Arial, sans-serif" fill="#666">Brazil</text><text x="492" y="235.24845835229166" font-size="11.444014021129298" font-family="Arial Narrow, Arial, sans-serif" fill="#666">Pakistan</text><text x="513" y="394.46286720071987" font-size="11.41417717021781" font-family="Arial Narrow, Arial, sans-serif" fill="#666">Nigeria</text><text x="454" y="175.762494415389" font-size="11.374094329737416" font-family="Arial Narrow, Arial, sans-serif" fill="#666">Bangladesh</text><text x="723" y="189.98651393594534" font-size="11.34535439846712" font-family="Arial Narrow, Arial, sans-serif" fill="#666">Russia</text><text x="700" y="46.305987009195285" font-size="11.305987009195285" font-family="Arial Narrow, Arial, sans-serif" fill="#666">Japan</text><text x="771" y="112.49121588869396" font-size="11.284456590911073" font-family="Arial Narrow, Arial, sans-serif" fill="#666">Mexico</text><text x="635" y="211.91509024026266" font-size="11.237433283172182" font-family="Arial Narrow, Arial, sans-serif" fill="#666">Philippines</text><text x="542" y="123.0880355832733" font-size="11.219328150317628" font-family="Arial Narrow, Arial, sans-serif" fill="#666">Vietnam</text><text x="442" y="270.1426302340803" font-size="11.21374288669593" font-family="Arial Narrow, Arial, sans-serif" fill="#666">Ethiopia</text><text x="929" y="65.30162125213306" font-size="11.19783304275237" font-family="Arial Narrow, Arial, sans-serif" fill="#666">Germany</text><text x="477" y="129.4367463372509" font-size="11.184727586694873" font-family="Arial Narrow, Arial, sans-serif" fill="#666">Iran</text><text x="628" y="133.46345026852126" font-size="11.182182891153822" font-family="Arial Narrow, Arial, sans-serif" fill="#666">Turkey</text><text x="310" y="328.56526844853704" font-size="11.172617374736367" font-family="Arial Narrow, Arial, sans-serif" fill="#666">Democratic Republic of Congo</text><text x="764" y="141.59613058795722" font-size="11.169760848784195" font-family="Arial Narrow, Arial, sans-serif" fill="#666">Thailand</text><text x="795" y="51.769623747276526" font-size="11.154074012111934" font-family="Arial Narrow, Arial, sans-serif" fill="#666">France</text><text x="826" y="67.78625229152743" font-size="11.152603605494111" font-family="Arial Narrow, Arial, sans-serif" fill="#666">United Kingdom</text><text x="504" y="341.13636873574643" font-size="11.122988615748893" font-family="Arial Narrow, Arial, sans-serif" fill="#666">South Africa</text><text x="262" y="260.19161950306864" font-size="11.118549707260561" font-family="Arial Narrow, Arial, sans-serif" fill="#666">Tanzania</text><text x="373" y="241.19263508589813" font-size="11.118468712600862" font-family="Arial Narrow, Arial, sans-serif" fill="#666">Myanmar</text><text x="322" y="182.3297865474164" font-size="11.107729065000388" font-family="Arial Narrow, Arial, sans-serif" fill="#666">Ukraine</text><text x="400" y="300.3542871255567" font-size="11.105852021774858" font-family="Arial Narrow, Arial, sans-serif" fill="#666">Kenya</text><text x="862" y="120.43304194592262" font-size="11.099903598262744" font-family="Arial Narrow, Arial, sans-serif" fill="#666">Argentina</text><text x="725" y="107.53667829769023" font-size="11.092273794964324" font-family="Arial Narrow, Arial, sans-serif" fill="#666">Poland</text><text x="376" y="340.5897262343333" font-size="11.08845539793759" font-family="Arial Narrow, Arial, sans-serif" fill="#666">Uganda</text><text x="356" y="271.6176623616864" font-size="11.086468243642585" font-family="Arial Narrow, Arial, sans-serif" fill="#666">Sudan</text><text x="1003" y="52.65028572837417" font-size="11.084168365363045" font-family="Arial Narrow, Arial, sans-serif" fill="#666">Canada</text><text x="325" y="309.6674216529088" font-size="11.082969248119097" font-family="Arial Narrow, Arial, sans-serif" fill="#666">Afghanistan</text><text x="559" y="148.72264994914283" font-size="11.07914640022262" font-family="Arial Narrow, Arial, sans-serif" fill="#666">Morocco</text><text x="489" y="202.77219787898935" font-size="11.07577110634033" font-family="Arial Narrow, Arial, sans-serif" fill="#666">Nepal</text><text x="639" y="144.8154048717429" font-size="11.072869736600673" font-family="Arial Narrow, Arial, sans-serif" fill="#666">Venezuela</text><text x="719" y="211.88692543506488" font-size="11.06815302390839" font-family="Arial Narrow, Arial, sans-serif" fill="#666">Uzbekistan</text><text x="326" y="295.97252337043693" font-size="11.062648759802773" font-family="Arial Narrow, Arial, sans-serif" fill="#666">Ghana</text><text x="437" y="371.01506258724544" font-size="11.05997041190355" font-family="Arial Narrow, Arial, sans-serif" fill="#666">Mozambique</text><text x="222" y="197.1566697197557" font-size="11.051327636301" font-family="Arial Narrow, Arial, sans-serif" fill="#666">Syria</text><text x="417" y="413.17350452082707" font-size="11.050328082167201" font-family="Arial Narrow, Arial, sans-serif" fill="#666">Cote d'Ivoire</text><text x="534" y="368.1794058433542" font-size="11.049979100470152" font-family="Arial Narrow, Arial, sans-serif" fill="#666">Cameroon</text><text x="288" y="405.1876015813151" font-size="11.049495645687177" font-family="Arial Narrow, Arial, sans-serif" fill="#666">Angola</text><text x="264" y="300.33468642466124" font-size="11.041058496381767" font-family="Arial Narrow, Arial, sans-serif" fill="#666">Niger</text><text x="444" y="341.35352631909984" font-size="11.04001052902321" font-family="Arial Narrow, Arial, sans-serif" fill="#666">Mali</text><text x="816" y="173.41024104563814" font-size="11.036900650726517" font-family="Arial Narrow, Arial, sans-serif" fill="#666">Guatemala</text><text x="717" y="127.4311921816115" font-size="11.0357688622967" font-family="Arial Narrow, Arial, sans-serif" fill="#666">Ecuador</text><text x="361" y="219.44955382655766" font-size="11.034784518336439" font-family="Arial Narrow, Arial, sans-serif" fill="#666">Cambodia</text><text x="495" y="322.46512521767846" font-size="11.033955289493582" font-family="Arial Narrow, Arial, sans-serif" fill="#666">Zambia</text><text x="451" y="240.50478405904744" font-size="11.03186626054491" font-family="Arial Narrow, Arial, sans-serif" fill="#666">Senegal</text><text x="270" y="369.5106577833365" font-size="11.031559662880271" font-family="Arial Narrow, Arial, sans-serif" fill="#666">Zimbabwe</text><text x="227" y="272.5920716434654" font-size="11.027384426538106" font-family="Arial Narrow, Arial, sans-serif" fill="#666">Rwanda</text><text x="650" y="67.5999204620329" font-size="11.02698924369613" font-family="Arial Narrow, Arial, sans-serif" fill="#666">Greece</text><text x="343" y="365.62730720357627" font-size="11.025620444631226" font-family="Arial Narrow, Arial, sans-serif" fill="#666">South Sudan</text><text x="552" y="137.6306468646199" font-size="11.025454601776483" font-family="Arial Narrow, Arial, sans-serif" fill="#666">Tunisia</text><text x="231" y="331.6335846129344" font-size="11.025308910459117" font-family="Arial Narrow, Arial, sans-serif" fill="#666">Guinea</text><text x="542" y="68.63599364242143" font-size="11.025189574701063" font-family="Arial Narrow, Arial, sans-serif" fill="#666">Portugal</text><text x="844" y="94.64162693550595" font-size="11.024910993476754" font-family="Arial Narrow, Arial, sans-serif" fill="#666">Czech Republic</text><text x="596" y="368.6681734584927" font-size="11.023607143601131" font-family="Arial Narrow, Arial, sans-serif" fill="#666">Somalia</text><text x="255" y="317.6904703115195" font-size="11.022523423593293" font-family="Arial Narrow, Arial, sans-serif" fill="#666">Benin</text><text x="555" y="184.69414226913776" font-size="11.022345949715044" font-family="Arial Narrow, Arial, sans-serif" fill="#666">Azerbaijan</text><text x="669" y="178.69591052437215" font-size="11.022260586744013" font-family="Arial Narrow, Arial, sans-serif" fill="#666">Belarus</text><text x="112" y="354.7256445055206" font-size="11.020834980206278" font-family="Arial Narrow, Arial, sans-serif" fill="#666">Burundi</text><text x="496" y="158.7688575623802" font-size="11.018796124919119" font-family="Arial Narrow, Arial, sans-serif" fill="#666">Honduras</text><text x="937" y="49.782025565394086" font-size="11.018182613925319" font-family="Arial Narrow, Arial, sans-serif" fill="#666">Israel</text><text x="500" y="144.80669907157002" font-size="11.01704282704218" font-family="Arial Narrow, Arial, sans-serif" fill="#666">Bulgaria</text><text x="625" y="46.01685989459591" font-size="11.016859894595909" font-family="Arial Narrow, Arial, sans-serif" fill="#666">Hong Kong</text><text x="637" y="159.8360329321589" font-size="11.01570434634042" font-family="Arial Narrow, Arial, sans-serif" fill="#666">Paraguay</text><text x="728" y="160.86274558676195" font-size="11.014501147311398" font-family="Arial Narrow, Arial, sans-serif" fill="#666">El Salvador</text><text x="508" y="423.865327084755" font-size="11.014385662660503" font-family="Arial Narrow, Arial, sans-serif" fill="#666">Sierra Leone</text><text x="709" y="138.8769488125985" font-size="11.013867487208408" font-family="Arial Narrow, Arial, sans-serif" fill="#666">Nicaragua</text><text x="978.2879428120963" y="74.90059375939968" font-size="11.012821967463982" font-family="Arial Narrow, Arial, sans-serif" fill="#666">Denmark</text><text x="847" y="46.01206856609544" font-size="11.012068566095436" font-family="Arial Narrow, Arial, sans-serif" fill="#666">Singapore</text><text x="683" y="245.92149218125496" font-size="11.011907640322654" font-family="Arial Narrow, Arial, sans-serif" fill="#666">Turkmenistan</text><text x="71" y="431.9534090437107" font-size="11.01052889782534" font-family="Arial Narrow, Arial, sans-serif" fill="#666">Central African Republic</text><text x="72" y="304.97150875051784" font-size="11.009756508021766" font-family="Arial Narrow, Arial, sans-serif" fill="#666">Liberia</text><text x="465" y="292.9729118651403" font-size="11.009696917844776" font-family="Arial Narrow, Arial, sans-serif" fill="#666">Congo</text><text x="560" y="87.97291981513476" font-size="11.009696580326557" font-family="Arial Narrow, Arial, sans-serif" fill="#666">Lebanon</text><text x="353" y="137.9755324193332" font-size="11.009585733515928" font-family="Arial Narrow, Arial, sans-serif" fill="#666">Georgia</text><text x="844" y="106.01019845927145" font-size="11.008128465826744" font-family="Arial Narrow, Arial, sans-serif" fill="#666">Panama</text><text x="728" y="177.02086680954736" font-size="11.00768506158691" font-family="Arial Narrow, Arial, sans-serif" fill="#666">Moldova</text><text x="449" y="104.03599967964465" font-size="11.007060189098546" font-family="Arial Narrow, Arial, sans-serif" fill="#666">Albania</text><text x="398" y="140.04313144727178" font-size="11.006767364119774" font-family="Arial Narrow, Arial, sans-serif" fill="#666">Armenia</text><text x="291" y="432.095835611418" font-size="11.00463639549721" font-family="Arial Narrow, Arial, sans-serif" fill="#666">Lesotho</text><text x="798" y="99.11193416558893" font-size="11.003997087427482" font-family="Arial Narrow, Arial, sans-serif" fill="#666">Qatar</text><text x="651" y="116.15152643171106" font-size="11.002447883660665" font-family="Arial Narrow, Arial, sans-serif" fill="#666">Estonia</text><text x="613" y="76.16394790645401" font-size="11.001968610218494" font-family="Arial Narrow, Arial, sans-serif" fill="#666">Cyprus</text><text x="128" y="268.23749803293265" font-size="10.999196949458687" font-family="Arial Narrow, Arial, sans-serif" fill="#666">Yemen</text></g><g style="cursor: pointer;" class="ScatterColorLegend clickable"><g class="legendMark"><rect x="1061.4560000000001" y="32.5" width="56.007999999999996" height="21.799999999999997" fill="#fff" opacity="0"></rect>,<rect x="1061.4560000000001" y="39" width="8" height="8" fill="#5675c1"></rect>,<text font-size="16.80" x="1074.5" y="48.4"><tspan x="1074.4560000000001" y="48.44">Africa</tspan></text></g><g class="legendMark"><rect x="1061.4560000000001" y="54.3" width="45.76" height="21.799999999999997" fill="#fff" opacity="0"></rect>,<rect x="1061.4560000000001" y="60.8" width="8" height="8" fill="#d14e5b"></rect>,<text font-size="16.80" x="1074.5" y="70.2"><tspan x="1074.4560000000001" y="70.24">Asia</tspan></text></g><g class="legendMark"><rect x="1061.4560000000001" y="76.1" width="67.43199999999999" height="21.799999999999997" fill="#fff" opacity="0"></rect>,<rect x="1061.4560000000001" y="82.6" width="8" height="8" fill="#ffd336"></rect>,<text font-size="16.80" x="1074.5" y="92.0"><tspan x="1074.4560000000001" y="92.03999999999999">Europe</tspan></text></g><g class="legendMark"><rect x="1061.4560000000001" y="97.89999999999999" width="120.51999999999998" height="21.799999999999997" fill="#fff" opacity="0"></rect>,<rect x="1061.4560000000001" y="104.39999999999999" width="8" height="8" fill="#4d824b"></rect>,<text font-size="16.80" x="1074.5" y="113.8"><tspan x="1074.4560000000001" y="113.83999999999999">North America</tspan></text></g><g class="legendMark"><rect x="1061.4560000000001" y="119.69999999999999" width="75.832" height="21.799999999999997" fill="#fff" opacity="0"></rect>,<rect x="1061.4560000000001" y="126.19999999999999" width="8" height="8" fill="#a652ba"></rect>,<text font-size="16.80" x="1074.5" y="135.6"><tspan x="1074.4560000000001" y="135.64">Oceania</tspan></text></g><g class="legendMark"><rect x="1061.4560000000001" y="141.5" width="123.54399999999998" height="21.799999999999997" fill="#fff" opacity="0"></rect>,<rect x="1061.4560000000001" y="148" width="8" height="8" fill="#69c487"></rect>,<text font-size="16.80" x="1074.5" y="157.4"><tspan x="1074.4560000000001" y="157.44">South America</tspan></text></g></g></g></g></svg>