<svg xmlns="http://www.w3.org/2000/svg" version="1.1" style="font-family: 'Helvetica Neue', Helvetica, Arial, sans-serif; font-size: 24px; background-color: white;" width="1200" height="630"><g class="ChartTab"><g class="LineChart"><defs><clipPath id="boundsClip-663"><rect x="41.32000000000001" y="0" width="1180" height="1130"></rect></clipPath></defs><g class="AxisBoxView"><g class="HorizontalAxis"><text x="51.3" y="600" fill="#666" text-anchor="middle" font-size="21.6">1960</text><text x="224.8" y="600" fill="#666" text-anchor="middle" font-size="21.6">1970</text><text x="398.3" y="600" fill="#666" text-anchor="middle" font-size="21.6">1980</text><text x="571.8" y="600" fill="#666" text-anchor="middle" font-size="21.6">1990</text><text x="745.3" y="600" fill="#666" text-anchor="middle" font-size="21.6">2000</text><text x="918.8" y="600" fill="#666" text-anchor="middle" font-size="21.6">2010</text><text x="1022.9" y="600" fill="#666" text-anchor="middle" font-size="21.6">2016</text></g><g class="VerticalAxis"><text x="46.32" y="573.4" fill="#666" dominant-baseline="middle" text-anchor="end" font-size="21.6">0%</text><text x="46.32" y="450.4" fill="#666" dominant-baseline="middle" text-anchor="end" font-size="21.6">2%</text><text x="46.32" y="327.4" fill="#666" dominant-baseline="middle" text-anchor="end" font-size="21.6">4%</text><text x="46.32" y="204.5" fill="#666" dominant-baseline="middle" text-anchor="end" font-size="21.6">6%</text><text x="46.32" y="81.5" fill="#666" dominant-baseline="middle" text-anchor="end" font-size="21.6">8%</text></g><g class="AxisGridLines"><line x1="51.32" y1="573.4" x2="1022.91" y2="573.4" stroke="#ccc"></line><line x1="51.32" y1="450.4" x2="1022.91" y2="450.4" stroke="#ddd" stroke-dasharray="3,2"></line><line x1="51.32" y1="327.4" x2="1022.91" y2="327.4" stroke="#ddd" stroke-dasharray="3,2"></line><line x1="51.32" y1="204.5" x2="1022.91" y2="204.5" stroke="#ddd" stroke-dasharray="3,2"></line><line x1="51.32" y1="81.5" x2="1022.91" y2="81.5" stroke="#ddd" stroke-dasharray="3,2"></line></g><g class="AxisGridLines"><line x1="51.3" y1="573.40" x2="51.3" y2="35.00" stroke="#ddd" stroke-dasharray="3,2"></line><line x1="224.8" y1="573.40" x2="224.8" y2="35.00" stroke="#ddd" stroke-dasharray="3,2"></line><line x1="398.3" y1="573.40" x2="398.3" y2="35.00" stroke="#ddd" stroke-dasharray="3,2"></line><line x1="571.8" y1="573.40" x2="571.8" y2="35.00" stroke="#ddd" stroke-dasharray="3,2"></line><line x1="745.3" y1="573.40" x2="745.3" y2="35.00" stroke="#ddd" stroke-dasharray="3,2"></line><line x1="918.8" y1="573.40" x2="918.8" y2="35.00" stroke="#ddd" stroke-dasharray="3,2"></line></g></g><g clip-path="url(#boundsClip-663)"><g class="HeightedLegend clickable"><g class="legendMark"><rect x="1032.912" y="231.9" width="73.75200000000001" height="19.200000000000003" fill="#fff" opacity="0"></rect><rect x="1032.912" y="240.25" width="10" height="2.5" fill="#f6a324"></rect><text font-size="19.20" x="1047.9" y="247.3" fill="#333"><tspan x="1047.912" y="247.26000000000002">Russia</tspan></text></g><g class="legendMark"><rect x="1032.912" y="361.4" width="130.776" height="19.200000000000003" fill="#fff" opacity="0"></rect><rect x="1032.912" y="369.75" width="10" height="2.5" fill="#34983f"></rect><text font-size="19.20" x="1047.9" y="376.8" fill="#333"><tspan x="1047.912" y="376.76">United States</tspan></text></g><g class="legendMark"><rect x="1032.912" y="450.4" width="152.08800000000002" height="19.200000000000003" fill="#fff" opacity="0"></rect><rect x="1032.912" y="458.75" width="10" height="2.5" fill="#ca2628"></rect><text font-size="19.20" x="1047.9" y="465.8" fill="#333"><tspan x="1047.912" y="465.76">United Kingdom</tspan></text></g><g class="legendMark"><rect x="1032.912" y="490.9" width="94.10400000000001" height="19.200000000000003" fill="#fff" opacity="0"></rect><rect x="1032.912" y="499.25" width="10" height="2.5" fill="#3360a9"></rect><text font-size="19.20" x="1047.9" y="506.3" fill="#333"><tspan x="1047.912" y="506.26">Germany</tspan></text></g></g><g class="Lines"><rect x="51" y="35" width="972" height="538" fill="rgba(255,255,255,0)" opacity="0"></rect><g class="key-United-States_0"><path stroke="#34983f" stroke-linecap="round" d="M51 60L69 52L86 41L103 70L121 114L138 145L155 94L173 35L190 47L208 82L225 117L242 179L260 201L277 236L294 232L312 252L329 275L346 276L364 288L381 288L398 277L416 248L433 181L450 212L468 221L485 208L502 197L520 210L537 230L555 243L572 259L589 294L607 287L624 307L641 331L659 350L676 367L693 376L711 388L728 395L745 393L763 392L780 374L797 352L815 341L832 337L849 339L867 337L884 314L902 288L919 287L936 292L954 313L971 338L988 358L1006 370L1023 371" fill="none" stroke-width="1.5"></path><g fill="#34983f"><circle cx="51" cy="60" r="2"></circle><circle cx="69" cy="52" r="2"></circle><circle cx="86" cy="41" r="2"></circle><circle cx="103" cy="70" r="2"></circle><circle cx="121" cy="114" r="2"></circle><circle cx="138" cy="145" r="2"></circle><circle cx="155" cy="94" r="2"></circle><circle cx="173" cy="35" r="2"></circle><circle cx="190" cy="47" r="2"></circle><circle cx="208" cy="82" r="2"></circle><circle cx="225" cy="117" r="2"></circle><circle cx="242" cy="179" r="2"></circle><circle cx="260" cy="201" r="2"></circle><circle cx="277" cy="236" r="2"></circle><circle cx="294" cy="232" r="2"></circle><circle cx="312" cy="252" r="2"></circle><circle cx="329" cy="275" r="2"></circle><circle cx="346" cy="276" r="2"></circle><circle cx="364" cy="288" r="2"></circle><circle cx="381" cy="288" r="2"></circle><circle cx="398" cy="277" r="2"></circle><circle cx="416" cy="248" r="2"></circle><circle cx="433" cy="181" r="2"></circle><circle cx="450" cy="212" r="2"></circle><circle cx="468" cy="221" r="2"></circle><circle cx="485" cy="208" r="2"></circle><circle cx="502" cy="197" r="2"></circle><circle cx="520" cy="210" r="2"></circle><circle cx="537" cy="230" r="2"></circle><circle cx="555" cy="243" r="2"></circle><circle cx="572" cy="259" r="2"></circle><circle cx="589" cy="294" r="2"></circle><circle cx="607" cy="287" r="2"></circle><circle cx="624" cy="307" r="2"></circle><circle cx="641" cy="331" r="2"></circle><circle cx="659" cy="350" r="2"></circle><circle cx="676" cy="367" r="2"></circle><circle cx="693" cy="376" r="2"></circle><circle cx="711" cy="388" r="2"></circle><circle cx="728" cy="395" r="2"></circle><circle cx="745" cy="393" r="2"></circle><circle cx="763" cy="392" r="2"></circle><circle cx="780" cy="374" r="2"></circle><circle cx="797" cy="352" r="2"></circle><circle cx="815" cy="341" r="2"></circle><circle cx="832" cy="337" r="2"></circle><circle cx="849" cy="339" r="2"></circle><circle cx="867" cy="337" r="2"></circle><circle cx="884" cy="314" r="2"></circle><circle cx="902" cy="288" r="2"></circle><circle cx="919" cy="287" r="2"></circle><circle cx="936" cy="292" r="2"></circle><circle cx="954" cy="313" r="2"></circle><circle cx="971" cy="338" r="2"></circle><circle cx="988" cy="358" r="2"></circle><circle cx="1006" cy="370" r="2"></circle><circle cx="1023" cy="371" r="2"></circle></g></g><g class="key-Russia_0"><path stroke="#f6a324" stroke-linecap="round" d="M607 281L624 297L641 275L659 323L676 325L693 307L711 393L728 370L745 355L763 339L780 325L797 331L815 355L832 353L849 359L867 367L884 365L902 314L919 337L936 361L954 343L971 330L988 321L1006 274L1023 242" fill="none" stroke-width="1.5"></path><g fill="#f6a324"><circle cx="607" cy="281" r="2"></circle><circle cx="624" cy="297" r="2"></circle><circle cx="641" cy="275" r="2"></circle><circle cx="659" cy="323" r="2"></circle><circle cx="676" cy="325" r="2"></circle><circle cx="693" cy="307" r="2"></circle><circle cx="711" cy="393" r="2"></circle><circle cx="728" cy="370" r="2"></circle><circle cx="745" cy="355" r="2"></circle><circle cx="763" cy="339" r="2"></circle><circle cx="780" cy="325" r="2"></circle><circle cx="797" cy="331" r="2"></circle><circle cx="815" cy="355" r="2"></circle><circle cx="832" cy="353" r="2"></circle><circle cx="849" cy="359" r="2"></circle><circle cx="867" cy="367" r="2"></circle><circle cx="884" cy="365" r="2"></circle><circle cx="902" cy="314" r="2"></circle><circle cx="919" cy="337" r="2"></circle><circle cx="936" cy="361" r="2"></circle><circle cx="954" cy="343" r="2"></circle><circle cx="971" cy="330" r="2"></circle><circle cx="988" cy="321" r="2"></circle><circle cx="1006" cy="274" r="2"></circle><circle cx="1023" cy="242" r="2"></circle></g></g><g class="key-Germany_0"><path stroke="#3360a9" stroke-linecap="round" d="M225 397L242 394L260 388L277 388L294 383L312 381L329 390L346 396L364 395L381 400L398 400L416 395L433 396L450 396L468 402L485 406L502 410L520 411L537 419L555 425L572 426L589 443L607 452L624 463L641 472L659 476L676 478L693 481L711 483L728 482L745 485L763 487L780 487L797 487L815 491L832 492L849 495L867 497L884 495L902 488L919 490L936 495L954 493L971 498L988 500L1006 501L1023 501" fill="none" stroke-width="1.5"></path><g fill="#3360a9"><circle cx="225" cy="397" r="2"></circle><circle cx="242" cy="394" r="2"></circle><circle cx="260" cy="388" r="2"></circle><circle cx="277" cy="388" r="2"></circle><circle cx="294" cy="383" r="2"></circle><circle cx="312" cy="381" r="2"></circle><circle cx="329" cy="390" r="2"></circle><circle cx="346" cy="396" r="2"></circle><circle cx="364" cy="395" r="2"></circle><circle cx="381" cy="400" r="2"></circle><circle cx="398" cy="400" r="2"></circle><circle cx="416" cy="395" r="2"></circle><circle cx="433" cy="396" r="2"></circle><circle cx="450" cy="396" r="2"></circle><circle cx="468" cy="402" r="2"></circle><circle cx="485" cy="406" r="2"></circle><circle cx="502" cy="410" r="2"></circle><circle cx="520" cy="411" r="2"></circle><circle cx="537" cy="419" r="2"></circle><circle cx="555" cy="425" r="2"></circle><circle cx="572" cy="426" r="2"></circle><circle cx="589" cy="443" r="2"></circle><circle cx="607" cy="452" r="2"></circle><circle cx="624" cy="463" r="2"></circle><circle cx="641" cy="472" r="2"></circle><circle cx="659" cy="476" r="2"></circle><circle cx="676" cy="478" r="2"></circle><circle cx="693" cy="481" r="2"></circle><circle cx="711" cy="483" r="2"></circle><circle cx="728" cy="482" r="2"></circle><circle cx="745" cy="485" r="2"></circle><circle cx="763" cy="487" r="2"></circle><circle cx="780" cy="487" r="2"></circle><circle cx="797" cy="487" r="2"></circle><circle cx="815" cy="491" r="2"></circle><circle cx="832" cy="492" r="2"></circle><circle cx="849" cy="495" r="2"></circle><circle cx="867" cy="497" r="2"></circle><circle cx="884" cy="495" r="2"></circle><circle cx="902" cy="488" r="2"></circle><circle cx="919" cy="490" r="2"></circle><circle cx="936" cy="495" r="2"></circle><circle cx="954" cy="493" r="2"></circle><circle cx="971" cy="498" r="2"></circle><circle cx="988" cy="500" r="2"></circle><circle cx="1006" cy="501" r="2"></circle><circle cx="1023" cy="501" r="2"></circle></g></g><g class="key-United-Kingdom_0"><path stroke="#ca2628" stroke-linecap="round" d="M51 183L69 193L86 192L103 199L121 211L138 219L155 230L173 231L190 247L208 271L225 288L242 294L260 289L277 304L294 295L312 280L329 289L346 303L364 313L381 316L398 297L416 299L433 278L450 277L468 271L485 281L502 295L520 316L537 342L555 351L572 354L589 347L607 361L624 376L641 387L659 414L676 421L693 431L711 434L728 438L745 441L763 439L780 435L797 431L815 435L832 438L849 441L867 441L884 433L902 423L919 426L936 431L954 438L971 445L988 452L1006 458L1023 460" fill="none" stroke-width="1.5"></path><g fill="#ca2628"><circle cx="51" cy="183" r="2"></circle><circle cx="69" cy="193" r="2"></circle><circle cx="86" cy="192" r="2"></circle><circle cx="103" cy="199" r="2"></circle><circle cx="121" cy="211" r="2"></circle><circle cx="138" cy="219" r="2"></circle><circle cx="155" cy="230" r="2"></circle><circle cx="173" cy="231" r="2"></circle><circle cx="190" cy="247" r="2"></circle><circle cx="208" cy="271" r="2"></circle><circle cx="225" cy="288" r="2"></circle><circle cx="242" cy="294" r="2"></circle><circle cx="260" cy="289" r="2"></circle><circle cx="277" cy="304" r="2"></circle><circle cx="294" cy="295" r="2"></circle><circle cx="312" cy="280" r="2"></circle><circle cx="329" cy="289" r="2"></circle><circle cx="346" cy="303" r="2"></circle><circle cx="364" cy="313" r="2"></circle><circle cx="381" cy="316" r="2"></circle><circle cx="398" cy="297" r="2"></circle><circle cx="416" cy="299" r="2"></circle><circle cx="433" cy="278" r="2"></circle><circle cx="450" cy="277" r="2"></circle><circle cx="468" cy="271" r="2"></circle><circle cx="485" cy="281" r="2"></circle><circle cx="502" cy="295" r="2"></circle><circle cx="520" cy="316" r="2"></circle><circle cx="537" cy="342" r="2"></circle><circle cx="555" cy="351" r="2"></circle><circle cx="572" cy="354" r="2"></circle><circle cx="589" cy="347" r="2"></circle><circle cx="607" cy="361" r="2"></circle><circle cx="624" cy="376" r="2"></circle><circle cx="641" cy="387" r="2"></circle><circle cx="659" cy="414" r="2"></circle><circle cx="676" cy="421" r="2"></circle><circle cx="693" cy="431" r="2"></circle><circle cx="711" cy="434" r="2"></circle><circle cx="728" cy="438" r="2"></circle><circle cx="745" cy="441" r="2"></circle><circle cx="763" cy="439" r="2"></circle><circle cx="780" cy="435" r="2"></circle><circle cx="797" cy="431" r="2"></circle><circle cx="815" cy="435" r="2"></circle><circle cx="832" cy="438" r="2"></circle><circle cx="849" cy="441" r="2"></circle><circle cx="867" cy="441" r="2"></circle><circle cx="884" cy="433" r="2"></circle><circle cx="902" cy="423" r="2"></circle><circle cx="919" cy="426" r="2"></circle><circle cx="936" cy="431" r="2"></circle><circle cx="954" cy="438" r="2"></circle><circle cx="971" cy="445" r="2"></circle><circle cx="988" cy="452" r="2"></circle><circle cx="1006" cy="458" r="2"></circle><circle cx="1023" cy="460" r="2"></circle></g></g></g></g></g></g></svg>