<svg xmlns="http://www.w3.org/2000/svg" version="1.1" style="font-family: 'Helvetica Neue', Helvetica, Arial, sans-serif; font-size: 24px; background-color: white;" width="1200" height="630"><g class="ChartTab"><g><g class="AxisBoxView"><g class="HorizontalAxis"><text font-size="16.80" x="407.0" y="596.6"><tspan x="407.0160000000001" y="596.64">Scientific publications per million</tspan></text><text x="281.1" y="573.2" fill="#666" text-anchor="middle" font-size="21.6">500</text><text x="461.9" y="573.2" fill="#666" text-anchor="middle" font-size="21.6">1,000</text><text x="642.6" y="573.2" fill="#666" text-anchor="middle" font-size="21.6">1,500</text><text x="823.3" y="573.2" fill="#666" text-anchor="middle" font-size="21.6">2,000</text><text x="1004.1" y="573.2" fill="#666" text-anchor="middle" font-size="21.6">2,500</text></g><g class="VerticalAxis"><text font-size="16.80" x="-429.5" y="28.4" transform="rotate(-90)"><tspan x="-429.472" y="28.439999999999998">Patent applications per million</tspan></text><text x="96.23" y="546.6" fill="#666" dominant-baseline="middle" text-anchor="end" font-size="21.6">0</text><text x="96.23" y="466" fill="#666" dominant-baseline="middle" text-anchor="end" font-size="21.6">500</text><text x="96.23" y="385.3" fill="#666" dominant-baseline="middle" text-anchor="end" font-size="21.6">1,000</text><text x="96.23" y="304.7" fill="#666" dominant-baseline="middle" text-anchor="end" font-size="21.6">1,500</text><text x="96.23" y="224.1" fill="#666" dominant-baseline="middle" text-anchor="end" font-size="21.6">2,000</text><text x="96.23" y="143.4" fill="#666" dominant-baseline="middle" text-anchor="end" font-size="21.6">2,500</text><text x="96.23" y="62.8" fill="#666" dominant-baseline="middle" text-anchor="end" font-size="21.6">3,000</text></g><g class="AxisGridLines"><line x1="101.23" y1="546.6" x2="1041.46" y2="546.6" stroke="#ccc"></line><line x1="101.23" y1="466" x2="1041.46" y2="466" stroke="#ddd" stroke-dasharray="3,2"></line><line x1="101.23" y1="385.3" x2="1041.46" y2="385.3" stroke="#ddd" stroke-dasharray="3,2"></line><line x1="101.23" y1="304.7" x2="1041.46" y2="304.7" stroke="#ddd" stroke-dasharray="3,2"></line><line x1="101.23" y1="224.1" x2="1041.46" y2="224.1" stroke="#ddd" stroke-dasharray="3,2"></line><line x1="101.23" y1="143.4" x2="1041.46" y2="143.4" stroke="#ddd" stroke-dasharray="3,2"></line><line x1="101.23" y1="62.8" x2="1041.46" y2="62.8" stroke="#ddd" stroke-dasharray="3,2"></line></g><g class="AxisGridLines"><line x1="281.1" y1="546.60" x2="281.1" y2="35.00" stroke="#ddd" stroke-dasharray="3,2"></line><line x1="461.9" y1="546.60" x2="461.9" y2="35.00" stroke="#ddd" stroke-dasharray="3,2"></line><line x1="642.6" y1="546.60" x2="642.6" y2="35.00" stroke="#ddd" stroke-dasharray="3,2"></line><line x1="823.3" y1="546.60" x2="823.3" y2="35.00" stroke="#ddd" stroke-dasharray="3,2"></line><line x1="1004.1" y1="546.60" x2="1004.1" y2="35.00" stroke="#ddd" stroke-dasharray="3,2"></line></g></g><g class="ComparisonLine"><defs><clipPath id="axisBounds-907"><rect x="101.232" y="35" width="940.2240000000002" height="511.6"></rect></clipPath></defs><path d="M101.2,546.2L110.6,542L120,537.8L129.4,533.6L138.8,529.4L148.2,525.3L157.6,521.1L167,516.9L176.4,512.7L185.9,508.5L195.3,504.3L204.7,500.1L214.1,495.9L223.5,491.7L232.9,487.5L242.3,483.3L251.7,479.1L261.1,474.9L270.5,470.7L279.9,466.5L289.3,462.3L298.7,458.1L308.1,453.9L317.5,449.7L326.9,445.6L336.3,441.4L345.7,437.2L355.1,433L364.5,428.8L373.9,424.6L383.3,420.4L392.7,416.2L402.1,412L411.5,407.8L420.9,403.6L430.3,399.4L439.7,395.2L449.1,391L458.5,386.8L467.9,382.6L477.3,378.4L486.7,374.2L496.1,370L505.5,365.8L514.9,361.7L524.3,357.5L533.7,353.3L543.1,349.1L552.5,344.9L561.9,340.7L571.3,336.5L580.7,332.3L590.1,328.1L599.6,323.9L609,319.7L618.4,315.5L627.8,311.3L637.2,307.1L646.6,302.9L656,298.7L665.4,294.5L674.8,290.3L684.2,286.1L693.6,282L703,277.8L712.4,273.6L721.8,269.4L731.2,265.2L740.6,261L750,256.8L759.4,252.6L768.8,248.4L778.2,244.2L787.6,240L797,235.8L806.4,231.6L815.8,227.4L825.2,223.2L834.6,219L844,214.8L853.4,210.6L862.8,206.4L872.2,202.2L881.6,198.1L891,193.9L900.4,189.7L909.8,185.5L919.2,181.3L928.6,177.1L938,172.9L947.4,168.7L956.8,164.5L966.2,160.3L975.6,156.1L985,151.9L994.4,147.7L1003.8,143.5L1013.2,139.3L1022.7,135.1L1032.1,130.9" clip-path="url(#axisBounds-907)" fill="none" stroke="#ccc"></path></g><g clip-path="url(#scatterBounds-908)" class="PointsWithLabels clickable"><rect x="101.232" y="35" width="940.2240000000002" height="511.6" fill="rgba(255,255,255,0)"></rect><defs><clipPath id="scatterBounds-908"><rect x="91.232" y="25" width="960.2240000000002" height="531.6"></rect></clipPath></defs><circle cx="207" cy="462" r="17.841241161527712" fill="#d14e5b" opacity="0.8"></circle><circle cx="126" cy="545" r="17.285345203900135" fill="#d14e5b" opacity="0.8"></circle><circle cx="572" cy="399" r="8.775563401920744" fill="#4d824b" opacity="0.8"></circle><circle cx="104" cy="546" r="7.776839766546485" fill="#d14e5b" opacity="0.8"></circle><circle cx="187" cy="542" r="7.039287041588335" fill="#69c487" opacity="0.8"></circle><circle cx="115" cy="546" r="6.75593225333367" fill="#d14e5b" opacity="0.8"></circle><circle cx="108" cy="546" r="6.541714668463675" fill="#5675c1" opacity="0.8"></circle><circle cx="104" cy="546" r="6.242374053726905" fill="#d14e5b" opacity="0.8"></circle><circle cx="189" cy="514" r="6.018585327994737" fill="#ffd336" opacity="0.8"></circle><circle cx="393" cy="202" r="5.697795896180204" fill="#d14e5b" opacity="0.8"></circle><circle cx="139" cy="545" r="5.514464766999057" fill="#4d824b" opacity="0.8"></circle><circle cx="103" cy="546" r="5.091159299108248" fill="#d14e5b" opacity="0.8"></circle><circle cx="107" cy="545" r="4.918471931163075" fill="#d14e5b" opacity="0.8"></circle><circle cx="137" cy="545" r="4.792470226259211" fill="#5675c1" opacity="0.8"></circle><circle cx="553" cy="451" r="4.705229104052141" fill="#ffd336" opacity="0.8"></circle><circle cx="254" cy="523" r="4.570336332833386" fill="#d14e5b" opacity="0.8"></circle><circle cx="245" cy="537" r="4.543679842670632" fill="#d14e5b" opacity="0.8"></circle><circle cx="146" cy="542" r="4.41124322553399" fill="#d14e5b" opacity="0.8"></circle><circle cx="497" cy="510" r="4.238090369633982" fill="#ffd336" opacity="0.8"></circle><circle cx="649" cy="508" r="4.221495828017751" fill="#ffd336" opacity="0.8"></circle><circle cx="498" cy="524" r="4.163713636717024" fill="#ffd336" opacity="0.8"></circle><circle cx="166" cy="544" r="3.8721594481175643" fill="#5675c1" opacity="0.8"></circle><circle cx="522" cy="35" r="3.8055409979811343" fill="#d14e5b" opacity="0.8"></circle><circle cx="134" cy="545" r="3.7869294400779543" fill="#69c487" opacity="0.8"></circle><circle cx="514" cy="536" r="3.7524104231514426" fill="#ffd336" opacity="0.8"></circle><circle cx="157" cy="536" r="3.6792330593930167" fill="#ffd336" opacity="0.8"></circle><circle cx="107" cy="546" r="3.654798278761316" fill="#5675c1" opacity="0.8"></circle><circle cx="168" cy="544" r="3.576260809437747" fill="#69c487" opacity="0.8"></circle><circle cx="373" cy="528" r="3.472924886602163" fill="#ffd336" opacity="0.8"></circle><circle cx="134" cy="546" r="3.427642904147344" fill="#5675c1" opacity="0.8"></circle><circle cx="105" cy="546" r="3.4200375000908516" fill="#5675c1" opacity="0.8"></circle><circle cx="104" cy="545" r="3.3921878646454884" fill="#5675c1" opacity="0.8"></circle><circle cx="694" cy="525" r="3.3596672557208347" fill="#4d824b" opacity="0.8"></circle><circle cx="127" cy="545" r="3.2875379856549607" fill="#5675c1" opacity="0.8"></circle><circle cx="106" cy="546" r="3.2381567709660817" fill="#d14e5b" opacity="0.8"></circle><circle cx="108" cy="546" r="3.1854545735687765" fill="#69c487" opacity="0.8"></circle><circle cx="316" cy="540" r="3.1749581972107888" fill="#d14e5b" opacity="0.8"></circle><circle cx="192" cy="544" r="3.157833405377175" fill="#d14e5b" opacity="0.8"></circle><circle cx="104" cy="545" r="3.123834851769031" fill="#d14e5b" opacity="0.8"></circle><circle cx="101" cy="546" r="2.9961862773219776" fill="#5675c1" opacity="0.8"></circle><circle cx="847" cy="525" r="2.9251524751364752" fill="#a652ba" opacity="0.8"></circle><circle cx="102" cy="546" r="2.898925369229073" fill="#5675c1" opacity="0.8"></circle><circle cx="112" cy="544" r="2.852118621182367" fill="#d14e5b" opacity="0.8"></circle><circle cx="302" cy="538" r="2.849880022020704" fill="#ffd336" opacity="0.8"></circle><circle cx="207" cy="543" r="2.692424058597586" fill="#69c487" opacity="0.8"></circle><circle cx="754" cy="524" r="2.657196715467319" fill="#ffd336" opacity="0.8"></circle><circle cx="119" cy="529" r="2.647994991442607" fill="#d14e5b" opacity="0.8"></circle><circle cx="103" cy="546" r="2.6416827573408748" fill="#5675c1" opacity="0.8"></circle><circle cx="102" cy="546" r="2.602808357771916" fill="#4d824b" opacity="0.8"></circle><circle cx="102" cy="546" r="2.563704259811193" fill="#d14e5b" opacity="0.8"></circle><circle cx="103" cy="546" r="2.548217264982088" fill="#5675c1" opacity="0.8"></circle><circle cx="475" cy="536" r="2.4141970734655587" fill="#ffd336" opacity="0.8"></circle><circle cx="149" cy="546" r="2.404514272309256" fill="#4d824b" opacity="0.8"></circle><circle cx="634" cy="536" r="2.383752659137928" fill="#ffd336" opacity="0.8"></circle><circle cx="238" cy="545" r="2.383659344099142" fill="#5675c1" opacity="0.8"></circle><circle cx="569" cy="536" r="2.3783458854146136" fill="#ffd336" opacity="0.8"></circle><circle cx="582" cy="531" r="2.372747856011566" fill="#ffd336" opacity="0.8"></circle><circle cx="101" cy="546" r="2.358970968723054" fill="#4d824b" opacity="0.8"></circle><circle cx="328" cy="536" r="2.340481352015581" fill="#ffd336" opacity="0.8"></circle><circle cx="361" cy="542" r="2.3355839044755577" fill="#ffd336" opacity="0.8"></circle><circle cx="829" cy="507" r="2.32118752798555" fill="#ffd336" opacity="0.8"></circle><circle cx="118" cy="543" r="2.320569330203795" fill="#d14e5b" opacity="0.8"></circle><circle cx="138" cy="521" r="2.3188126758342475" fill="#ffd336" opacity="0.8"></circle><circle cx="613" cy="505" r="2.265358130309748" fill="#ffd336" opacity="0.8"></circle><circle cx="167" cy="546" r="2.253387997717083" fill="#d14e5b" opacity="0.8"></circle><circle cx="101" cy="546" r="2.246359818051785" fill="#4d824b" opacity="0.8"></circle><circle cx="607" cy="522" r="2.2332843947067205" fill="#d14e5b" opacity="0.8"></circle><circle cx="1041" cy="516" r="2.230321931370324" fill="#ffd336" opacity="0.8"></circle><circle cx="233" cy="540" r="2.208787274949091" fill="#ffd336" opacity="0.8"></circle><circle cx="103" cy="546" r="2.2000622467208952" fill="#d14e5b" opacity="0.8"></circle><circle cx="165" cy="545" r="2.167652143631201" fill="#d14e5b" opacity="0.8"></circle><circle cx="102" cy="546" r="2.1390616038784604" fill="#4d824b" opacity="0.8"></circle><circle cx="904" cy="508" r="2.1156007361213334" fill="#ffd336" opacity="0.8"></circle><circle cx="104" cy="543" r="2.109678821039245" fill="#d14e5b" opacity="0.8"></circle><circle cx="416" cy="541" r="2.108883205081764" fill="#ffd336" opacity="0.8"></circle><circle cx="775" cy="499" r="2.1050315615292567" fill="#ffd336" opacity="0.8"></circle><circle cx="814" cy="512" r="2.098532246184303" fill="#d14e5b" opacity="0.8"></circle><circle cx="801" cy="511" r="2.081399302370889" fill="#ffd336" opacity="0.8"></circle><circle cx="121" cy="545" r="2.0740330150506323" fill="#4d824b" opacity="0.8"></circle><circle cx="640" cy="534" r="2.0612194804077135" fill="#ffd336" opacity="0.8"></circle><circle cx="689" cy="488" r="2.054278260383405" fill="#a652ba" opacity="0.8"></circle><circle cx="470" cy="537" r="2.046966133667697" fill="#ffd336" opacity="0.8"></circle><circle cx="172" cy="543" r="2.043863715544867" fill="#d14e5b" opacity="0.8"></circle><circle cx="145" cy="541" r="2.0412731563434594" fill="#d14e5b" opacity="0.8"></circle><circle cx="144" cy="546" r="2.010229923921617" fill="#ffd336" opacity="0.8"></circle><circle cx="115" cy="546" r="2.0069049668638144" fill="#4d824b" opacity="0.8"></circle><circle cx="123" cy="543" r="1.9963303252721365" fill="#ffd336" opacity="0.8"></circle><circle cx="367" cy="540" r="1.9836720154653777" fill="#ffd336" opacity="0.8"></circle><circle cx="170" cy="539" r="1.9742644633275008" fill="#d14e5b" opacity="0.8"></circle><circle cx="121" cy="539" r="1.960722627236638" fill="#d14e5b" opacity="0.8"></circle><circle cx="122" cy="545" r="1.953812429521759" fill="#4d824b" opacity="0.8"></circle><circle cx="317" cy="528" r="1.9212124893460452" fill="#ffd336" opacity="0.8"></circle><circle cx="128" cy="546" r="1.9120414831069634" fill="#5675c1" opacity="0.8"></circle><circle cx="177" cy="543" r="1.9117142768305477" fill="#ffd336" opacity="0.8"></circle><circle cx="224" cy="546" r="1.9061048658890103" fill="#d14e5b" opacity="0.8"></circle><circle cx="158" cy="546" r="1.8692890181488" fill="#d14e5b" opacity="0.8"></circle><circle cx="491" cy="543" r="1.8669038184536202" fill="#ffd336" opacity="0.8"></circle><circle cx="131" cy="546" r="1.8657829805238577" fill="#5675c1" opacity="0.8"></circle><circle cx="381" cy="546" r="1.8546084700721792" fill="#ffd336" opacity="0.8"></circle><circle cx="103" cy="546" r="1.8419803740321685" fill="#5675c1" opacity="0.8"></circle><circle cx="113" cy="546" r="1.8307590317365012" fill="#d14e5b" opacity="0.8"></circle><circle cx="212" cy="540" r="1.8225639698042613" fill="#ffd336" opacity="0.8"></circle><circle cx="587" cy="513" r="1.8159920037204673" fill="#ffd336" opacity="0.8"></circle><circle cx="321" cy="541" r="1.8089917674807932" fill="#ffd336" opacity="0.8"></circle><circle cx="207" cy="538" r="1.8089414674257431" fill="#d14e5b" opacity="0.8"></circle><circle cx="115" cy="546" r="1.8048012384962817" fill="#4d824b" opacity="0.8"></circle><circle cx="743" cy="530" r="1.8033082388552084" fill="#ffd336" opacity="0.8"></circle><circle cx="150" cy="544" r="1.7996500275799292" fill="#4d824b" opacity="0.8"></circle><circle cx="104" cy="519" r="1.788609440637773" fill="#a652ba" opacity="0.8"></circle><circle cx="427" cy="525" r="1.7841455557006638" fill="#ffd336" opacity="0.8"></circle><circle cx="210" cy="510" r="1.7818406286478934" fill="#000" opacity="0.8"></circle><circle cx="102" cy="546" r="1.7818406286478934" fill="#d14e5b" opacity="0.8"></circle><circle cx="134" cy="545" r="1.7818406286478934" fill="#000" opacity="0.8"></circle><circle cx="380" cy="534" r="1.7818406286478934" fill="#000" opacity="0.8"></circle><circle cx="129" cy="544" r="1.7818406286478934" fill="#000" opacity="0.8"></circle><circle cx="212" cy="464" r="1.7818406286478934" fill="#000" opacity="0.8"></circle><circle cx="179" cy="488" r="1.7818406286478934" fill="#000" opacity="0.8"></circle><circle cx="178" cy="489" r="1.7818406286478934" fill="#000" opacity="0.8"></circle><circle cx="538" cy="507" r="1.7818406286478934" fill="#000" opacity="0.8"></circle><circle cx="390" cy="519" r="1.7818406286478934" fill="#000" opacity="0.8"></circle><circle cx="205" cy="530" r="1.7818406286478934" fill="#000" opacity="0.8"></circle><circle cx="190" cy="530" r="1.7818406286478934" fill="#000" opacity="0.8"></circle><circle cx="532" cy="512" r="1.7818406286478934" fill="#000" opacity="0.8"></circle><circle cx="532" cy="430" r="1.7818406286478934" fill="#000" opacity="0.8"></circle><circle cx="164" cy="518" r="1.7818406286478934" fill="#000" opacity="0.8"></circle><circle cx="150" cy="525" r="1.7818406286478934" fill="#000" opacity="0.8"></circle><circle cx="198" cy="492" r="1.7818406286478934" fill="#000" opacity="0.8"></circle><circle cx="150" cy="544" r="1.7818406286478934" fill="#000" opacity="0.8"></circle><circle cx="150" cy="544" r="1.7818406286478934" fill="#000" opacity="0.8"></circle><circle cx="148" cy="544" r="1.7818406286478934" fill="#000" opacity="0.8"></circle><circle cx="148" cy="525" r="1.7818406286478934" fill="#000" opacity="0.8"></circle><circle cx="118" cy="545" r="1.7818406286478934" fill="#000" opacity="0.8"></circle><circle cx="170" cy="541" r="1.7818406286478934" fill="#000" opacity="0.8"></circle><circle cx="158" cy="540" r="1.7818406286478934" fill="#000" opacity="0.8"></circle><circle cx="158" cy="540" r="1.7818406286478934" fill="#000" opacity="0.8"></circle><circle cx="153" cy="523" r="1.7818406286478934" fill="#000" opacity="0.8"></circle><circle cx="584" cy="412" r="1.7818406286478934" fill="#000" opacity="0.8"></circle><circle cx="490" cy="438" r="1.7818406286478934" fill="#000" opacity="0.8"></circle><circle cx="532" cy="422" r="1.7818406286478934" fill="#000" opacity="0.8"></circle><circle cx="122" cy="545" r="1.7818406286478934" fill="#000" opacity="0.8"></circle><circle cx="122" cy="545" r="1.7818406286478934" fill="#000" opacity="0.8"></circle><circle cx="193" cy="497" r="1.7818406286478934" fill="#000" opacity="0.8"></circle><circle cx="110" cy="546" r="1.7818406286478934" fill="#000" opacity="0.8"></circle><text x="207" y="443.1587588384723" font-size="14.3" font-family="Arial Narrow, Arial, sans-serif" fill="#666">China</text><text x="126" y="526.7146547960999" font-size="14.095516589196535" font-family="Arial Narrow, Arial, sans-serif" fill="#666">India</text><text x="572" y="389.22443659807925" font-size="11.773118873187887" font-family="Arial Narrow, Arial, sans-serif" fill="#666">United States</text><text x="187" y="533.9607129584117" font-size="11.485569411074493" font-family="Arial Narrow, Arial, sans-serif" fill="#666">Brazil</text><text x="115" y="538.2440677466664" font-size="11.444635072013654" font-family="Arial Narrow, Arial, sans-serif" fill="#666">Pakistan</text><text x="189" y="506.98141467200526" font-size="11.345996903464469" font-family="Arial Narrow, Arial, sans-serif" fill="#666">Russia</text><text x="393" y="195.3022041038198" font-size="11.306638074862086" font-family="Arial Narrow, Arial, sans-serif" fill="#666">Japan</text><text x="553" y="445.29477089594786" font-size="11.19850762713285" font-family="Arial Narrow, Arial, sans-serif" fill="#666">Germany</text><text x="254" y="517.4296636671667" font-size="11.185405020933556" font-family="Arial Narrow, Arial, sans-serif" fill="#666">Iran</text><text x="245" y="531.4563201573294" font-size="11.18286087875146" font-family="Arial Narrow, Arial, sans-serif" fill="#666">Turkey</text><text x="497" y="504.761909630366" font-size="11.154758112150011" font-family="Arial Narrow, Arial, sans-serif" fill="#666">France</text><text x="649" y="502.77850417198226" font-size="11.153288025280721" font-family="Arial Narrow, Arial, sans-serif" fill="#666">United Kingdom</text><text x="498" y="518.836286363283" font-size="11.148214187924754" font-family="Arial Narrow, Arial, sans-serif" fill="#666">Italy</text><text x="522" y="46.11832330606024" font-size="11.11832330606024" font-family="Arial Narrow, Arial, sans-serif" fill="#666">South Korea</text><text x="514" y="531.2475895768486" font-size="11.114118197338945" font-family="Arial Narrow, Arial, sans-serif" fill="#666">Spain</text><text x="373" y="523.5270751133978" font-size="11.092971333821707" font-family="Arial Narrow, Arial, sans-serif" fill="#666">Poland</text><text x="694" y="520.6403327442791" font-size="11.084867666793585" font-family="Arial Narrow, Arial, sans-serif" fill="#666">Canada</text><text x="316" y="535.8250418027892" font-size="11.072227945068345" font-family="Arial Narrow, Arial, sans-serif" fill="#666">Malaysia</text><text x="847" y="521.0748475248636" font-size="11.056270303187679" font-family="Arial Narrow, Arial, sans-serif" fill="#666">Australia</text><text x="754" y="520.3428032845327" font-size="11.04060608536062" font-family="Arial Narrow, Arial, sans-serif" fill="#666">Netherlands</text><text x="475" y="532.5858029265345" font-size="11.02770097906169" font-family="Arial Narrow, Arial, sans-serif" fill="#666">Greece</text><text x="634" y="532.6162473408621" font-size="11.026171329539608" font-family="Arial Narrow, Arial, sans-serif" fill="#666">Belgium</text><text x="569" y="532.6216541145853" font-size="11.02590170141519" font-family="Arial Narrow, Arial, sans-serif" fill="#666">Portugal</text><text x="361" y="538.6644160955244" font-size="11.023790792260593" font-family="Arial Narrow, Arial, sans-serif" fill="#666">Serbia</text><text x="829" y="503.67881247201444" font-size="11.023088744374977" font-family="Arial Narrow, Arial, sans-serif" fill="#666">Sweden</text><text x="613" y="501.7346418696903" font-size="11.020407247583858" font-family="Arial Narrow, Arial, sans-serif" fill="#666">Austria</text><text x="607" y="518.7667156052933" font-size="11.01889626434412" font-family="Arial Narrow, Arial, sans-serif" fill="#666">Israel</text><text x="983.9228346447771" y="512.7696780686297" font-size="11.01875779058356" font-family="Arial Narrow, Arial, sans-serif" fill="#666">Switzerland</text><text x="904" y="504.88439926387866" font-size="11.013536783586765" font-family="Arial Narrow, Arial, sans-serif" fill="#666">Denmark</text><text x="416" y="537.8911167949183" font-size="11.013239608797532" font-family="Arial Narrow, Arial, sans-serif" fill="#666">Slovakia</text><text x="775" y="495.89496843847076" font-size="11.013069643423682" font-family="Arial Narrow, Arial, sans-serif" fill="#666">Finland</text><text x="689" y="484.9457217396166" font-size="11.010859022965306" font-family="Arial Narrow, Arial, sans-serif" fill="#666">New Zealand</text><text x="224" y="543.093895134111" font-size="11.004713822572134" font-family="Arial Narrow, Arial, sans-serif" fill="#666">Qatar</text><text x="427" y="522.2158544442993" font-size="11.000000801127998" font-family="Arial Narrow, Arial, sans-serif" fill="#666">Monaco</text><text x="212" y="461.2181593713521" font-size="10.999914728421464" font-family="Arial Narrow, Arial, sans-serif" fill="#666">East Asia &amp; Pacific</text><text x="179" y="485.2181593713521" font-size="10.999914728421464" font-family="Arial Narrow, Arial, sans-serif" fill="#666">East Asia &amp; Pacific (IDA &amp; IBRD)</text><text x="538" y="504.2181593713521" font-size="10.999914728421464" font-family="Arial Narrow, Arial, sans-serif" fill="#666">Euro area</text><text x="532" y="427.2181593713521" font-size="10.999914728421464" font-family="Arial Narrow, Arial, sans-serif" fill="#666">High income</text><text x="584" y="409.2181593713521" font-size="10.999914728421464" font-family="Arial Narrow, Arial, sans-serif" fill="#666">North America</text></g><g style="cursor: pointer;" class="ScatterColorLegend clickable"><g class="legendMark"><rect x="1061.4560000000001" y="32.5" width="56.007999999999996" height="21.799999999999997" fill="#fff" opacity="0"></rect>,<rect x="1061.4560000000001" y="39" width="8" height="8" fill="#5675c1"></rect>,<text font-size="16.80" x="1074.5" y="48.4"><tspan x="1074.4560000000001" y="48.44">Africa</tspan></text></g><g class="legendMark"><rect x="1061.4560000000001" y="54.3" width="45.76" height="21.799999999999997" fill="#fff" opacity="0"></rect>,<rect x="1061.4560000000001" y="60.8" width="8" height="8" fill="#d14e5b"></rect>,<text font-size="16.80" x="1074.5" y="70.2"><tspan x="1074.4560000000001" y="70.24">Asia</tspan></text></g><g class="legendMark"><rect x="1061.4560000000001" y="76.1" width="67.43199999999999" height="21.799999999999997" fill="#fff" opacity="0"></rect>,<rect x="1061.4560000000001" y="82.6" width="8" height="8" fill="#ffd336"></rect>,<text font-size="16.80" x="1074.5" y="92.0"><tspan x="1074.4560000000001" y="92.03999999999999">Europe</tspan></text></g><g class="legendMark"><rect x="1061.4560000000001" y="97.89999999999999" width="120.51999999999998" height="21.799999999999997" fill="#fff" opacity="0"></rect>,<rect x="1061.4560000000001" y="104.39999999999999" width="8" height="8" fill="#4d824b"></rect>,<text font-size="16.80" x="1074.5" y="113.8"><tspan x="1074.4560000000001" y="113.83999999999999">North America</tspan></text></g><g class="legendMark"><rect x="1061.4560000000001" y="119.69999999999999" width="75.832" height="21.799999999999997" fill="#fff" opacity="0"></rect>,<rect x="1061.4560000000001" y="126.19999999999999" width="8" height="8" fill="#a652ba"></rect>,<text font-size="16.80" x="1074.5" y="135.6"><tspan x="1074.4560000000001" y="135.64">Oceania</tspan></text></g><g class="legendMark"><rect x="1061.4560000000001" y="141.5" width="123.54399999999998" height="21.799999999999997" fill="#fff" opacity="0"></rect>,<rect x="1061.4560000000001" y="148" width="8" height="8" fill="#69c487"></rect>,<text font-size="16.80" x="1074.5" y="157.4"><tspan x="1074.4560000000001" y="157.44">South America</tspan></text></g></g></g></g></svg>