<svg xmlns="http://www.w3.org/2000/svg" version="1.1" style="font-family: 'Helvetica Neue', Helvetica, Arial, sans-serif; font-size: 24px; background-color: white;" width="1200" height="630"><g class="ChartTab"><g class="StackedArea"><defs><clipPath id="boundsClip-1589"><rect x="75.512" y="0" width="1170" height="1130"></rect></clipPath></defs><g class="AxisBoxView"><g class="HorizontalAxis"><text x="75.5" y="600" fill="#666" text-anchor="middle" font-size="21.6">1820</text><text x="223.8" y="600" fill="#666" text-anchor="middle" font-size="21.6">1850</text><text x="471" y="600" fill="#666" text-anchor="middle" font-size="21.6">1900</text><text x="718.1" y="600" fill="#666" text-anchor="middle" font-size="21.6">1950</text><text x="965.3" y="600" fill="#666" text-anchor="middle" font-size="21.6">2000</text><text x="1039.4" y="600" fill="#666" text-anchor="middle" font-size="21.6">2015</text></g><g class="VerticalAxis"><text x="70.51" y="573.4" fill="#666" dominant-baseline="middle" text-anchor="end" font-size="21.6">0%</text><text x="70.51" y="465.7" fill="#666" dominant-baseline="middle" text-anchor="end" font-size="21.6">20%</text><text x="70.51" y="358" fill="#666" dominant-baseline="middle" text-anchor="end" font-size="21.6">40%</text><text x="70.51" y="250.4" fill="#666" dominant-baseline="middle" text-anchor="end" font-size="21.6">60%</text><text x="70.51" y="142.7" fill="#666" dominant-baseline="middle" text-anchor="end" font-size="21.6">80%</text><text x="70.51" y="35" fill="#666" dominant-baseline="middle" text-anchor="end" font-size="21.6">100%</text></g><g class="AxisGridLines"><line x1="75.51" y1="573.4" x2="1039.43" y2="573.4" stroke="#ccc"></line><line x1="75.51" y1="465.7" x2="1039.43" y2="465.7" stroke="#ddd" stroke-dasharray="3,2"></line><line x1="75.51" y1="358" x2="1039.43" y2="358" stroke="#ddd" stroke-dasharray="3,2"></line><line x1="75.51" y1="250.4" x2="1039.43" y2="250.4" stroke="#ddd" stroke-dasharray="3,2"></line><line x1="75.51" y1="142.7" x2="1039.43" y2="142.7" stroke="#ddd" stroke-dasharray="3,2"></line><line x1="75.51" y1="35" x2="1039.43" y2="35" stroke="#ddd" stroke-dasharray="3,2"></line></g><g class="AxisGridLines"><line x1="223.8" y1="573.40" x2="223.8" y2="35.00" stroke="#ddd" stroke-dasharray="3,2"></line><line x1="471" y1="573.40" x2="471" y2="35.00" stroke="#ddd" stroke-dasharray="3,2"></line><line x1="718.1" y1="573.40" x2="718.1" y2="35.00" stroke="#ddd" stroke-dasharray="3,2"></line><line x1="965.3" y1="573.40" x2="965.3" y2="35.00" stroke="#ddd" stroke-dasharray="3,2"></line></g></g><g clip-path="url(#boundsClip-1589)"><g class="HeightedLegend clickable"><g class="legendMark"><rect x="1044.432" y="42.8" width="132.88800000000003" height="59.80000000000001" fill="#fff" opacity="0"></rect><rect x="1044.432" y="71.45" width="10" height="2.5" fill="#932834"></rect><text font-size="19.20" x="1059.4" y="58.2" fill="#333"><tspan x="1059.432" y="58.16">Share without</tspan><tspan x="1059.432" y="79.28">any formal</tspan><tspan x="1059.432" y="100.4">education</tspan></text></g><g class="legendMark"><rect x="1044.432" y="301.84999999999997" width="140.56800000000004" height="80.10000000000001" fill="#fff" opacity="0"></rect><rect x="1044.432" y="340.65" width="10" height="2.5" fill="#3360a9"></rect><text font-size="19.20" x="1059.4" y="317.2" fill="#333"><tspan x="1059.432" y="317.21">Share that has</tspan><tspan x="1059.432" y="338.33">at least some</tspan><tspan x="1059.432" y="359.45">formal basic</tspan><tspan x="1059.432" y="380.57">education</tspan></text></g></g><g class="Areas"><rect x="75.512" y="35" width="963.9200000000001" height="538.4" opacity="0" fill="rgba(255,255,255,0)"></rect><path stroke-linecap="round" d="M75.5 480.8L322.7 444.7L372.1 429.6L421.5 414L471 394.7L520.4 381.7L569.8 365.6L619.3 353.2L668.7 326.3L718.1 309.6L767.6 284.3L817 234.2L841.7 218.1L866.4 196.5L891.1 180.4L915.9 169.6L940.6 153.4L965.3 142.7L990 131.9L1014.7 121.1L1039.4 110.4L1039.432 573.4L75.512 573.4" fill="#3360a9" fill-opacity="0.7" class="World_1-area"></path><path stroke-linecap="round" d="M75.5 35L322.7 35L372.1 35L421.5 35L471 35L520.4 35L569.8 35L619.3 35L668.7 35L718.1 35L767.6 35L817 35L841.7 35L866.4 35L891.1 35L915.9 35L940.6 35L965.3 35L990 35L1014.7 35L1039.4 35L1039.4 110.4L1014.7 121.1L990 131.9L965.3 142.7L940.6 153.4L915.9 169.6L891.1 180.4L866.4 196.5L841.7 218.1L817 234.2L767.6 284.3L718.1 309.6L668.7 326.3L619.3 353.2L569.8 365.6L520.4 381.7L471 394.7L421.5 414L372.1 429.6L322.7 444.7L75.5 480.8" fill="#932834" fill-opacity="0.7" class="World_0-area"></path><path stroke-linecap="round" d="M75.5 480.8L322.7 444.7L372.1 429.6L421.5 414L471 394.7L520.4 381.7L569.8 365.6L619.3 353.2L668.7 326.3L718.1 309.6L767.6 284.3L817 234.2L841.7 218.1L866.4 196.5L891.1 180.4L915.9 169.6L940.6 153.4L965.3 142.7L990 131.9L1014.7 121.1L1039.4 110.4" stroke="rgb(43, 80, 141)" stroke-opacity="0.7" stroke-width="0.5" fill="none" class="World_1-border"></path><path stroke-linecap="round" d="M75.5 35L322.7 35L372.1 35L421.5 35L471 35L520.4 35L569.8 35L619.3 35L668.7 35L718.1 35L767.6 35L817 35L841.7 35L866.4 35L891.1 35L915.9 35L940.6 35L965.3 35L990 35L1014.7 35L1039.4 35" stroke="rgb(123, 33, 44)" stroke-opacity="0.7" stroke-width="0.5" fill="none" class="World_0-border"></path></g></g></g></g></svg>