<svg xmlns="http://www.w3.org/2000/svg" version="1.1" style="font-family: 'Helvetica Neue', Helvetica, Arial, sans-serif; font-size: 24px; background-color: white;" width="1200" height="630"><g class="ChartTab"><g class="LineChart"><defs><clipPath id="boundsClip-1399"><rect x="53.416000000000004" y="0" width="1180" height="1130"></rect></clipPath></defs><g class="AxisBoxView"><g class="HorizontalAxis"><text x="63.4" y="600" fill="#666" text-anchor="middle" font-size="21.6">1961</text><text x="248.3" y="600" fill="#666" text-anchor="middle" font-size="21.6">1970</text><text x="453.6" y="600" fill="#666" text-anchor="middle" font-size="21.6">1980</text><text x="659" y="600" fill="#666" text-anchor="middle" font-size="21.6">1990</text><text x="864.4" y="600" fill="#666" text-anchor="middle" font-size="21.6">2000</text><text x="1090.3" y="600" fill="#666" text-anchor="middle" font-size="21.6">2011</text></g><g class="VerticalAxis"><text x="58.42" y="573.4" fill="#666" dominant-baseline="middle" text-anchor="end" font-size="21.6">0%</text><text x="58.42" y="461.5" fill="#666" dominant-baseline="middle" text-anchor="end" font-size="21.6">20%</text><text x="58.42" y="349.5" fill="#666" dominant-baseline="middle" text-anchor="end" font-size="21.6">40%</text><text x="58.42" y="237.6" fill="#666" dominant-baseline="middle" text-anchor="end" font-size="21.6">60%</text><text x="58.42" y="125.7" fill="#666" dominant-baseline="middle" text-anchor="end" font-size="21.6">80%</text></g><g class="AxisGridLines"><line x1="63.42" y1="573.4" x2="1090.30" y2="573.4" stroke="#ccc"></line><line x1="63.42" y1="461.5" x2="1090.30" y2="461.5" stroke="#ddd" stroke-dasharray="3,2"></line><line x1="63.42" y1="349.5" x2="1090.30" y2="349.5" stroke="#ddd" stroke-dasharray="3,2"></line><line x1="63.42" y1="237.6" x2="1090.30" y2="237.6" stroke="#ddd" stroke-dasharray="3,2"></line><line x1="63.42" y1="125.7" x2="1090.30" y2="125.7" stroke="#ddd" stroke-dasharray="3,2"></line></g><g class="AxisGridLines"><line x1="248.3" y1="573.40" x2="248.3" y2="35.00" stroke="#ddd" stroke-dasharray="3,2"></line><line x1="453.6" y1="573.40" x2="453.6" y2="35.00" stroke="#ddd" stroke-dasharray="3,2"></line><line x1="659" y1="573.40" x2="659" y2="35.00" stroke="#ddd" stroke-dasharray="3,2"></line><line x1="864.4" y1="573.40" x2="864.4" y2="35.00" stroke="#ddd" stroke-dasharray="3,2"></line><line x1="1069.8" y1="573.40" x2="1069.8" y2="35.00" stroke="#ddd" stroke-dasharray="3,2"></line></g></g><g clip-path="url(#boundsClip-1399)"><g class="HeightedLegend clickable"><g class="legendMark"><rect x="1100.304" y="153" width="84.69600000000001" height="19.200000000000003" fill="#fff" opacity="0"></rect><rect x="1100.304" y="161.35" width="10" height="2.5" fill="#3360a9"></rect><text font-size="19.20" x="1115.3" y="168.4" fill="#333"><tspan x="1115.304" y="168.35999999999999">Ethiopia</tspan></text></g></g><g class="Lines"><rect x="63" y="35" width="1027" height="538" fill="rgba(255,255,255,0)" opacity="0"></rect><g class="key-Ethiopia_0"><path stroke="#3360a9" stroke-linecap="round" d="M63 35L84 37L105 38L125 40L146 43L166 45L187 47L207 51L228 53L248 56L269 58L289 60L310 62L330 64L351 65L372 65L392 66L413 65L433 69L454 74L474 75L495 76L515 77L536 78L556 76L577 75L597 76L618 76L639 75L659 73L680 69L700 68L721 79L741 82L762 85L782 90L803 92L823 91L844 94L864 98L885 98L906 98L926 98L947 101L967 107L988 116L1008 125L1029 134L1049 143L1070 153L1090 163" fill="none" stroke-width="1.5"></path><g fill="#3360a9"><circle cx="63" cy="35" r="2"></circle><circle cx="84" cy="37" r="2"></circle><circle cx="105" cy="38" r="2"></circle><circle cx="125" cy="40" r="2"></circle><circle cx="146" cy="43" r="2"></circle><circle cx="166" cy="45" r="2"></circle><circle cx="187" cy="47" r="2"></circle><circle cx="207" cy="51" r="2"></circle><circle cx="228" cy="53" r="2"></circle><circle cx="248" cy="56" r="2"></circle><circle cx="269" cy="58" r="2"></circle><circle cx="289" cy="60" r="2"></circle><circle cx="310" cy="62" r="2"></circle><circle cx="330" cy="64" r="2"></circle><circle cx="351" cy="65" r="2"></circle><circle cx="372" cy="65" r="2"></circle><circle cx="392" cy="66" r="2"></circle><circle cx="413" cy="65" r="2"></circle><circle cx="433" cy="69" r="2"></circle><circle cx="454" cy="74" r="2"></circle><circle cx="474" cy="75" r="2"></circle><circle cx="495" cy="76" r="2"></circle><circle cx="515" cy="77" r="2"></circle><circle cx="536" cy="78" r="2"></circle><circle cx="556" cy="76" r="2"></circle><circle cx="577" cy="75" r="2"></circle><circle cx="597" cy="76" r="2"></circle><circle cx="618" cy="76" r="2"></circle><circle cx="639" cy="75" r="2"></circle><circle cx="659" cy="73" r="2"></circle><circle cx="680" cy="69" r="2"></circle><circle cx="700" cy="68" r="2"></circle><circle cx="721" cy="79" r="2"></circle><circle cx="741" cy="82" r="2"></circle><circle cx="762" cy="85" r="2"></circle><circle cx="782" cy="90" r="2"></circle><circle cx="803" cy="92" r="2"></circle><circle cx="823" cy="91" r="2"></circle><circle cx="844" cy="94" r="2"></circle><circle cx="864" cy="98" r="2"></circle><circle cx="885" cy="98" r="2"></circle><circle cx="906" cy="98" r="2"></circle><circle cx="926" cy="98" r="2"></circle><circle cx="947" cy="101" r="2"></circle><circle cx="967" cy="107" r="2"></circle><circle cx="988" cy="116" r="2"></circle><circle cx="1008" cy="125" r="2"></circle><circle cx="1029" cy="134" r="2"></circle><circle cx="1049" cy="143" r="2"></circle><circle cx="1070" cy="153" r="2"></circle><circle cx="1090" cy="163" r="2"></circle></g></g></g></g></g></g></svg>