<svg xmlns="http://www.w3.org/2000/svg" version="1.1" style="font-family: 'Helvetica Neue', Helvetica, Arial, sans-serif; font-size: 24px; background-color: white;" width="1200" height="630"><g class="ChartTab"><g class="StackedArea"><defs><clipPath id="boundsClip-1613"><rect x="75.512" y="0" width="1170" height="1130"></rect></clipPath></defs><g class="AxisBoxView"><g class="HorizontalAxis"><text x="75.5" y="600" fill="#666" text-anchor="middle" font-size="21.6">1975</text><text x="199.8" y="600" fill="#666" text-anchor="middle" font-size="21.6">1980</text><text x="324.1" y="600" fill="#666" text-anchor="middle" font-size="21.6">1985</text><text x="448.5" y="600" fill="#666" text-anchor="middle" font-size="21.6">1990</text><text x="572.8" y="600" fill="#666" text-anchor="middle" font-size="21.6">1995</text><text x="697.1" y="600" fill="#666" text-anchor="middle" font-size="21.6">2000</text><text x="821.4" y="600" fill="#666" text-anchor="middle" font-size="21.6">2005</text><text x="945.7" y="600" fill="#666" text-anchor="middle" font-size="21.6">2010</text><text x="1045.2" y="600" fill="#666" text-anchor="middle" font-size="21.6">2014</text></g><g class="VerticalAxis"><text x="70.51" y="573.4" fill="#666" dominant-baseline="middle" text-anchor="end" font-size="21.6">0%</text><text x="70.51" y="465.7" fill="#666" dominant-baseline="middle" text-anchor="end" font-size="21.6">20%</text><text x="70.51" y="358" fill="#666" dominant-baseline="middle" text-anchor="end" font-size="21.6">40%</text><text x="70.51" y="250.4" fill="#666" dominant-baseline="middle" text-anchor="end" font-size="21.6">60%</text><text x="70.51" y="142.7" fill="#666" dominant-baseline="middle" text-anchor="end" font-size="21.6">80%</text><text x="70.51" y="35" fill="#666" dominant-baseline="middle" text-anchor="end" font-size="21.6">100%</text></g><g class="AxisGridLines"><line x1="75.51" y1="573.4" x2="1045.19" y2="573.4" stroke="#ccc"></line><line x1="75.51" y1="465.7" x2="1045.19" y2="465.7" stroke="#ddd" stroke-dasharray="3,2"></line><line x1="75.51" y1="358" x2="1045.19" y2="358" stroke="#ddd" stroke-dasharray="3,2"></line><line x1="75.51" y1="250.4" x2="1045.19" y2="250.4" stroke="#ddd" stroke-dasharray="3,2"></line><line x1="75.51" y1="142.7" x2="1045.19" y2="142.7" stroke="#ddd" stroke-dasharray="3,2"></line><line x1="75.51" y1="35" x2="1045.19" y2="35" stroke="#ddd" stroke-dasharray="3,2"></line></g><g class="AxisGridLines"><line x1="75.5" y1="573.40" x2="75.5" y2="35.00" stroke="#ddd" stroke-dasharray="3,2"></line><line x1="199.8" y1="573.40" x2="199.8" y2="35.00" stroke="#ddd" stroke-dasharray="3,2"></line><line x1="324.1" y1="573.40" x2="324.1" y2="35.00" stroke="#ddd" stroke-dasharray="3,2"></line><line x1="448.5" y1="573.40" x2="448.5" y2="35.00" stroke="#ddd" stroke-dasharray="3,2"></line><line x1="572.8" y1="573.40" x2="572.8" y2="35.00" stroke="#ddd" stroke-dasharray="3,2"></line><line x1="697.1" y1="573.40" x2="697.1" y2="35.00" stroke="#ddd" stroke-dasharray="3,2"></line><line x1="821.4" y1="573.40" x2="821.4" y2="35.00" stroke="#ddd" stroke-dasharray="3,2"></line><line x1="945.7" y1="573.40" x2="945.7" y2="35.00" stroke="#ddd" stroke-dasharray="3,2"></line></g></g><g clip-path="url(#boundsClip-1613)"><g class="HeightedLegend clickable"><g class="legendMark"><rect x="1050.192" y="51.5" width="123.09600000000002" height="19.200000000000003" fill="#fff" opacity="0"></rect><rect x="1050.192" y="59.85" width="10" height="2.5" fill="#f6a324"></rect><text font-size="19.20" x="1065.2" y="66.9" fill="#333"><tspan x="1065.192" y="66.86">Underweight</tspan></text></g><g class="legendMark"><rect x="1050.192" y="215.8" width="80.28000000000002" height="19.200000000000003" fill="#fff" opacity="0"></rect><rect x="1050.192" y="224.15" width="10" height="2.5" fill="#ed6c2d"></rect><text font-size="19.20" x="1065.2" y="231.2" fill="#333"><tspan x="1065.192" y="231.16">Healthy</tspan></text></g><g class="legendMark"><rect x="1050.192" y="448.75" width="134.80800000000002" height="39.50000000000001" fill="#fff" opacity="0"></rect><rect x="1050.192" y="467.25" width="10" height="2.5" fill="#ca2628"></rect><text font-size="19.20" x="1065.2" y="464.1" fill="#333"><tspan x="1065.192" y="464.11">Overweight or</tspan><tspan x="1065.192" y="485.23">Obese</tspan></text></g></g><g class="Areas"><rect x="75.512" y="35" width="969.6800000000001" height="538.4" opacity="0" fill="rgba(255,255,255,0)"></rect><path stroke-linecap="round" d="M75.5 451.2L100.4 449.6L125.2 447.4L150.1 445.8L175 444.2L199.8 442.6L224.7 440.5L249.6 438.8L274.4 437.2L299.3 435.4L324.1 433.4L349 431.8L373.9 429.6L398.7 428L423.6 425.9L448.5 423.9L473.3 422.1L498.2 420.5L523.1 418.5L547.9 416.7L572.8 414.6L597.6 412.4L622.5 410.3L647.4 408.1L672.2 405.4L697.1 403.3L722 400.6L746.8 397.9L771.7 395.2L796.6 392.5L821.4 389.8L846.3 387.1L871.1 383.9L896 380.7L920.9 378L945.7 375.1L970.6 372L995.5 369.3L1020.3 366.3L1045.2 363.6L1045.192 573.4L75.512 573.4" fill="#ca2628" fill-opacity="0.7" class="World_2-area"></path><path stroke-linecap="round" d="M75.5 113.6L100.4 113.1L125.2 112L150.1 111.5L175 110.9L199.8 110.4L224.7 109.8L249.6 108.8L274.4 108.2L299.3 107.8L324.1 107.1L349 106.6L373.9 106.1L398.7 105.5L423.6 105L448.5 104.4L473.3 103.9L498.2 103.4L523.1 102.8L547.9 102.3L572.8 101.8L597.6 100.7L622.5 100.1L647.4 99.6L672.2 99.1L697.1 98.5L722 97.5L746.8 96.9L771.7 95.8L796.6 95.3L821.4 94.2L846.3 93.7L871.1 92.6L896 91.5L920.9 91L945.7 90L970.6 89.4L995.5 88.3L1020.3 87.7L1045.2 87.2L1045.2 363.6L1020.3 366.3L995.5 369.3L970.6 372L945.7 375.1L920.9 378L896 380.7L871.1 383.9L846.3 387.1L821.4 389.8L796.6 392.5L771.7 395.2L746.8 397.9L722 400.6L697.1 403.3L672.2 405.4L647.4 408.1L622.5 410.3L597.6 412.4L572.8 414.6L547.9 416.7L523.1 418.5L498.2 420.5L473.3 422.1L448.5 423.9L423.6 425.9L398.7 428L373.9 429.6L349 431.8L324.1 433.4L299.3 435.4L274.4 437.2L249.6 438.8L224.7 440.5L199.8 442.6L175 444.2L150.1 445.8L125.2 447.4L100.4 449.6L75.5 451.2" fill="#ed6c2d" fill-opacity="0.7" class="World_1-area"></path><path stroke-linecap="round" d="M75.5 35L100.4 35L125.2 35L150.1 35L175 35L199.8 35L224.7 35L249.6 35L274.4 35L299.3 35L324.1 35L349 35L373.9 35L398.7 35L423.6 35L448.5 35L473.3 35L498.2 35L523.1 35L547.9 35L572.8 35L597.6 35L622.5 35L647.4 35L672.2 35L697.1 35L722 35L746.8 35L771.7 35L796.6 35L821.4 35L846.3 35L871.1 35L896 35L920.9 35L945.7 35L970.6 35L995.5 35L1020.3 35L1045.2 35L1045.2 87.2L1020.3 87.7L995.5 88.3L970.6 89.4L945.7 90L920.9 91L896 91.5L871.1 92.6L846.3 93.7L821.4 94.2L796.6 95.3L771.7 95.8L746.8 96.9L722 97.5L697.1 98.5L672.2 99.1L647.4 99.6L622.5 100.1L597.6 100.7L572.8 101.8L547.9 102.3L523.1 102.8L498.2 103.4L473.3 103.9L448.5 104.4L423.6 105L398.7 105.5L373.9 106.1L349 106.6L324.1 107.1L299.3 107.8L274.4 108.2L249.6 108.8L224.7 109.8L199.8 110.4L175 110.9L150.1 111.5L125.2 112L100.4 113.1L75.5 113.6" fill="#f6a324" fill-opacity="0.7" class="World_0-area"></path><path stroke-linecap="round" d="M75.5 451.2L100.4 449.6L125.2 447.4L150.1 445.8L175 444.2L199.8 442.6L224.7 440.5L249.6 438.8L274.4 437.2L299.3 435.4L324.1 433.4L349 431.8L373.9 429.6L398.7 428L423.6 425.9L448.5 423.9L473.3 422.1L498.2 420.5L523.1 418.5L547.9 416.7L572.8 414.6L597.6 412.4L622.5 410.3L647.4 408.1L672.2 405.4L697.1 403.3L722 400.6L746.8 397.9L771.7 395.2L796.6 392.5L821.4 389.8L846.3 387.1L871.1 383.9L896 380.7L920.9 378L945.7 375.1L970.6 372L995.5 369.3L1020.3 366.3L1045.2 363.6" stroke="rgb(169, 32, 33)" stroke-opacity="0.7" stroke-width="0.5" fill="none" class="World_2-border"></path><path stroke-linecap="round" d="M75.5 113.6L100.4 113.1L125.2 112L150.1 111.5L175 110.9L199.8 110.4L224.7 109.8L249.6 108.8L274.4 108.2L299.3 107.8L324.1 107.1L349 106.6L373.9 106.1L398.7 105.5L423.6 105L448.5 104.4L473.3 103.9L498.2 103.4L523.1 102.8L547.9 102.3L572.8 101.8L597.6 100.7L622.5 100.1L647.4 99.6L672.2 99.1L697.1 98.5L722 97.5L746.8 96.9L771.7 95.8L796.6 95.3L821.4 94.2L846.3 93.7L871.1 92.6L896 91.5L920.9 91L945.7 90L970.6 89.4L995.5 88.3L1020.3 87.7L1045.2 87.2" stroke="rgb(198, 90, 38)" stroke-opacity="0.7" stroke-width="0.5" fill="none" class="World_1-border"></path><path stroke-linecap="round" d="M75.5 35L100.4 35L125.2 35L150.1 35L175 35L199.8 35L224.7 35L249.6 35L274.4 35L299.3 35L324.1 35L349 35L373.9 35L398.7 35L423.6 35L448.5 35L473.3 35L498.2 35L523.1 35L547.9 35L572.8 35L597.6 35L622.5 35L647.4 35L672.2 35L697.1 35L722 35L746.8 35L771.7 35L796.6 35L821.4 35L846.3 35L871.1 35L896 35L920.9 35L945.7 35L970.6 35L995.5 35L1020.3 35L1045.2 35" stroke="rgb(206, 136, 30)" stroke-opacity="0.7" stroke-width="0.5" fill="none" class="World_0-border"></path></g></g></g></g></svg>