<svg xmlns="http://www.w3.org/2000/svg" version="1.1" style="font-family: 'Helvetica Neue', Helvetica, Arial, sans-serif; font-size: 24px; background-color: white;" width="1200" height="630"><g class="ChartTab"><g class="LineChart"><defs><clipPath id="boundsClip-1505"><rect x="53.416000000000004" y="0" width="1180" height="1130"></rect></clipPath></defs><g class="AxisBoxView"><g class="HorizontalAxis"><text x="63.4" y="600" fill="#666" text-anchor="middle" font-size="21.6">1981</text><text x="171.7" y="600" fill="#666" text-anchor="middle" font-size="21.6">1985</text><text x="307.1" y="600" fill="#666" text-anchor="middle" font-size="21.6">1990</text><text x="442.5" y="600" fill="#666" text-anchor="middle" font-size="21.6">1995</text><text x="577.8" y="600" fill="#666" text-anchor="middle" font-size="21.6">2000</text><text x="713.2" y="600" fill="#666" text-anchor="middle" font-size="21.6">2005</text><text x="848.6" y="600" fill="#666" text-anchor="middle" font-size="21.6">2010</text><text x="929.8" y="600" fill="#666" text-anchor="middle" font-size="21.6">2013</text></g><g class="VerticalAxis"><text x="58.42" y="573.4" fill="#666" dominant-baseline="middle" text-anchor="end" font-size="21.6">0%</text><text x="58.42" y="506.5" fill="#666" dominant-baseline="middle" text-anchor="end" font-size="21.6">10%</text><text x="58.42" y="439.6" fill="#666" dominant-baseline="middle" text-anchor="end" font-size="21.6">20%</text><text x="58.42" y="372.7" fill="#666" dominant-baseline="middle" text-anchor="end" font-size="21.6">30%</text><text x="58.42" y="305.7" fill="#666" dominant-baseline="middle" text-anchor="end" font-size="21.6">40%</text><text x="58.42" y="238.8" fill="#666" dominant-baseline="middle" text-anchor="end" font-size="21.6">50%</text><text x="58.42" y="171.9" fill="#666" dominant-baseline="middle" text-anchor="end" font-size="21.6">60%</text><text x="58.42" y="105" fill="#666" dominant-baseline="middle" text-anchor="end" font-size="21.6">70%</text><text x="58.42" y="38.1" fill="#666" dominant-baseline="middle" text-anchor="end" font-size="21.6">80%</text></g><g class="AxisGridLines"><line x1="63.42" y1="573.4" x2="929.79" y2="573.4" stroke="#ccc"></line><line x1="63.42" y1="506.5" x2="929.79" y2="506.5" stroke="#ddd" stroke-dasharray="3,2"></line><line x1="63.42" y1="439.6" x2="929.79" y2="439.6" stroke="#ddd" stroke-dasharray="3,2"></line><line x1="63.42" y1="372.7" x2="929.79" y2="372.7" stroke="#ddd" stroke-dasharray="3,2"></line><line x1="63.42" y1="305.7" x2="929.79" y2="305.7" stroke="#ddd" stroke-dasharray="3,2"></line><line x1="63.42" y1="238.8" x2="929.79" y2="238.8" stroke="#ddd" stroke-dasharray="3,2"></line><line x1="63.42" y1="171.9" x2="929.79" y2="171.9" stroke="#ddd" stroke-dasharray="3,2"></line><line x1="63.42" y1="105" x2="929.79" y2="105" stroke="#ddd" stroke-dasharray="3,2"></line><line x1="63.42" y1="38.1" x2="929.79" y2="38.1" stroke="#ddd" stroke-dasharray="3,2"></line></g><g class="AxisGridLines"><line x1="171.7" y1="573.40" x2="171.7" y2="35.00" stroke="#ddd" stroke-dasharray="3,2"></line><line x1="307.1" y1="573.40" x2="307.1" y2="35.00" stroke="#ddd" stroke-dasharray="3,2"></line><line x1="442.5" y1="573.40" x2="442.5" y2="35.00" stroke="#ddd" stroke-dasharray="3,2"></line><line x1="577.8" y1="573.40" x2="577.8" y2="35.00" stroke="#ddd" stroke-dasharray="3,2"></line><line x1="713.2" y1="573.40" x2="713.2" y2="35.00" stroke="#ddd" stroke-dasharray="3,2"></line><line x1="848.6" y1="573.40" x2="848.6" y2="35.00" stroke="#ddd" stroke-dasharray="3,2"></line></g></g><g clip-path="url(#boundsClip-1505)"><g class="HeightedLegend clickable"><g class="legendMark"><rect x="939.7919999999999" y="549.9" width="240.79200000000003" height="19.200000000000003" fill="#fff" opacity="0"></rect><rect x="939.7919999999999" y="558.25" width="10" height="2.5" fill="#7ec7ce"></rect><text font-size="19.20" x="954.8" y="565.3" fill="#333"><tspan x="954.7919999999999" y="565.26">Middle East &amp; North Africa</tspan></text></g><g class="legendMark"><rect x="939.7919999999999" y="530.6999999999999" width="205.65600000000003" height="19.200000000000003" fill="#fff" opacity="0"></rect><rect x="939.7919999999999" y="539.05" width="10" height="2.5" fill="#ffd53e"></rect><text font-size="19.20" x="954.8" y="546.1" fill="#333"><tspan x="954.7919999999999" y="546.06">Europe &amp; Central Asia</tspan></text></g><g class="legendMark"><rect x="939.7919999999999" y="511.4999999999999" width="176.66400000000002" height="19.200000000000003" fill="#fff" opacity="0"></rect><rect x="939.7919999999999" y="519.8499999999999" width="10" height="2.5" fill="#ca2628"></rect><text font-size="19.20" x="954.8" y="526.9" fill="#333"><tspan x="954.7919999999999" y="526.8599999999999">East Asia &amp; Pacific</tspan></text></g><g class="legendMark"><rect x="939.7919999999999" y="492.29999999999984" width="245.20800000000003" height="19.200000000000003" fill="#fff" opacity="0"></rect><rect x="939.7919999999999" y="500.64999999999986" width="10" height="2.5" fill="#34983f"></rect><text font-size="19.20" x="954.8" y="507.7" fill="#333"><tspan x="954.7919999999999" y="507.65999999999985">Latin America &amp; Caribbean</tspan></text></g><g class="legendMark"><rect x="939.7919999999999" y="473.09999999999985" width="65.11200000000001" height="19.200000000000003" fill="#fff" opacity="0"></rect><rect x="939.7919999999999" y="481.4499999999999" width="10" height="2.5" fill="#5B5B5B"></rect><text font-size="19.20" x="954.8" y="488.5" fill="#333"><tspan x="954.7919999999999" y="488.45999999999987">World</tspan></text></g><g class="legendMark"><rect x="939.7919999999999" y="453.89999999999986" width="108.31200000000001" height="19.200000000000003" fill="#fff" opacity="0"></rect><rect x="939.7919999999999" y="462.2499999999999" width="10" height="2.5" fill="#CDCD00"></rect><text font-size="19.20" x="954.8" y="469.3" fill="#333"><tspan x="954.7919999999999" y="469.2599999999999">South Asia</tspan></text></g><g class="legendMark"><rect x="939.7919999999999" y="289.5" width="183.19200000000004" height="19.200000000000003" fill="#fff" opacity="0"></rect><rect x="939.7919999999999" y="297.85" width="10" height="2.5" fill="#3360a9"></rect><text font-size="19.20" x="954.8" y="304.9" fill="#333"><tspan x="954.7919999999999" y="304.86">Sub-Saharan Africa</tspan></text></g></g><g class="Lines"><rect x="63" y="35" width="866" height="538" fill="rgba(255,255,255,0)" opacity="0"></rect><g class="key-Europe-__0026-Central-Asia_0"><path stroke="#ffd53e" stroke-linecap="round" d="M226 566L307 561L388 537L470 525L551 520L632 531L713 540L794 553L849 554L876 556L903 557L930 559" fill="none" stroke-width="1.5"></path><g fill="#ffd53e"><circle cx="226" cy="566" r="2"></circle><circle cx="307" cy="561" r="2"></circle><circle cx="388" cy="537" r="2"></circle><circle cx="470" cy="525" r="2"></circle><circle cx="551" cy="520" r="2"></circle><circle cx="632" cy="531" r="2"></circle><circle cx="713" cy="540" r="2"></circle><circle cx="794" cy="553" r="2"></circle><circle cx="849" cy="554" r="2"></circle><circle cx="876" cy="556" r="2"></circle><circle cx="903" cy="557" r="2"></circle><circle cx="930" cy="559" r="2"></circle></g></g><g class="key-World_0"><path stroke="#5B5B5B" stroke-linecap="round" d="M63 293L145 313L226 342L307 340L388 350L470 381L551 386L632 404L713 437L794 454L849 469L876 483L903 490L930 502" fill="none" stroke-width="1.5"></path><g fill="#5B5B5B"><circle cx="63" cy="293" r="2"></circle><circle cx="145" cy="313" r="2"></circle><circle cx="226" cy="342" r="2"></circle><circle cx="307" cy="340" r="2"></circle><circle cx="388" cy="350" r="2"></circle><circle cx="470" cy="381" r="2"></circle><circle cx="551" cy="386" r="2"></circle><circle cx="632" cy="404" r="2"></circle><circle cx="713" cy="437" r="2"></circle><circle cx="794" cy="454" r="2"></circle><circle cx="849" cy="469" r="2"></circle><circle cx="876" cy="483" r="2"></circle><circle cx="903" cy="490" r="2"></circle><circle cx="930" cy="502" r="2"></circle></g></g><g class="key-East-Asia-__0026-Pacific_0"><path stroke="#ca2628" stroke-linecap="round" d="M63 35L145 106L226 183L307 170L388 223L470 310L551 324L632 380L713 450L794 474L849 499L876 517L903 526L930 550" fill="none" stroke-width="1.5"></path><g fill="#ca2628"><circle cx="63" cy="35" r="2"></circle><circle cx="145" cy="106" r="2"></circle><circle cx="226" cy="183" r="2"></circle><circle cx="307" cy="170" r="2"></circle><circle cx="388" cy="223" r="2"></circle><circle cx="470" cy="310" r="2"></circle><circle cx="551" cy="324" r="2"></circle><circle cx="632" cy="380" r="2"></circle><circle cx="713" cy="450" r="2"></circle><circle cx="794" cy="474" r="2"></circle><circle cx="849" cy="499" r="2"></circle><circle cx="876" cy="517" r="2"></circle><circle cx="903" cy="526" r="2"></circle><circle cx="930" cy="550" r="2"></circle></g></g><g class="key-Latin-America-__0026-Caribbean_0"><path stroke="#34983f" stroke-linecap="round" d="M63 465L145 446L226 475L307 467L388 477L470 478L551 481L632 487L713 501L794 526L849 530L876 533L903 536L930 537" fill="none" stroke-width="1.5"></path><g fill="#34983f"><circle cx="63" cy="465" r="2"></circle><circle cx="145" cy="446" r="2"></circle><circle cx="226" cy="475" r="2"></circle><circle cx="307" cy="467" r="2"></circle><circle cx="388" cy="477" r="2"></circle><circle cx="470" cy="478" r="2"></circle><circle cx="551" cy="481" r="2"></circle><circle cx="632" cy="487" r="2"></circle><circle cx="713" cy="501" r="2"></circle><circle cx="794" cy="526" r="2"></circle><circle cx="849" cy="530" r="2"></circle><circle cx="876" cy="533" r="2"></circle><circle cx="903" cy="536" r="2"></circle><circle cx="930" cy="537" r="2"></circle></g></g><g class="key-South-Asia_0"><path stroke="#CDCD00" stroke-linecap="round" d="M63 208L145 224L226 251L307 275L388 274L470 304L632 316L713 348L794 377L849 409L876 441L903 456L930 472" fill="none" stroke-width="1.5"></path><g fill="#CDCD00"><circle cx="63" cy="208" r="2"></circle><circle cx="145" cy="224" r="2"></circle><circle cx="226" cy="251" r="2"></circle><circle cx="307" cy="275" r="2"></circle><circle cx="388" cy="274" r="2"></circle><circle cx="470" cy="304" r="2"></circle><circle cx="632" cy="316" r="2"></circle><circle cx="713" cy="348" r="2"></circle><circle cx="794" cy="377" r="2"></circle><circle cx="849" cy="409" r="2"></circle><circle cx="876" cy="441" r="2"></circle><circle cx="903" cy="456" r="2"></circle><circle cx="930" cy="472" r="2"></circle></g></g><g class="key-Middle-East-__0026-North-Africa_0"><path stroke="#7ec7ce" stroke-linecap="round" d="M145 518L226 517L307 533L388 536L470 541L551 548L713 553L794 560" fill="none" stroke-width="1.5"></path><g fill="#7ec7ce"><circle cx="145" cy="518" r="2"></circle><circle cx="226" cy="517" r="2"></circle><circle cx="307" cy="533" r="2"></circle><circle cx="388" cy="536" r="2"></circle><circle cx="470" cy="541" r="2"></circle><circle cx="551" cy="548" r="2"></circle><circle cx="713" cy="553" r="2"></circle><circle cx="794" cy="560" r="2"></circle></g></g><g class="key-Sub__002dSaharan-Africa_0"><path stroke="#3360a9" stroke-linecap="round" d="M307 210L388 182L470 187L551 191L632 202L713 239L794 259L849 268L876 279L903 288L930 299" fill="none" stroke-width="1.5"></path><g fill="#3360a9"><circle cx="307" cy="210" r="2"></circle><circle cx="388" cy="182" r="2"></circle><circle cx="470" cy="187" r="2"></circle><circle cx="551" cy="191" r="2"></circle><circle cx="632" cy="202" r="2"></circle><circle cx="713" cy="239" r="2"></circle><circle cx="794" cy="259" r="2"></circle><circle cx="849" cy="268" r="2"></circle><circle cx="876" cy="279" r="2"></circle><circle cx="903" cy="288" r="2"></circle><circle cx="930" cy="299" r="2"></circle></g></g></g></g></g></g></svg>