<svg xmlns="http://www.w3.org/2000/svg" version="1.1" style="font-family: 'Helvetica Neue', Helvetica, Arial, sans-serif; font-size: 24px; background-color: white;" width="1200" height="630"><g class="ChartTab"><g class="LineChart"><defs><clipPath id="boundsClip-1515"><rect x="53.416000000000004" y="0" width="1180" height="1130"></rect></clipPath></defs><g class="AxisBoxView"><g class="HorizontalAxis"><text x="63.4" y="600" fill="#666" text-anchor="middle" font-size="21.6">1990</text><text x="218.8" y="600" fill="#666" text-anchor="middle" font-size="21.6">1995</text><text x="374.3" y="600" fill="#666" text-anchor="middle" font-size="21.6">2000</text><text x="529.7" y="600" fill="#666" text-anchor="middle" font-size="21.6">2005</text><text x="685.1" y="600" fill="#666" text-anchor="middle" font-size="21.6">2010</text><text x="840.5" y="600" fill="#666" text-anchor="middle" font-size="21.6">2015</text></g><g class="VerticalAxis"><text x="58.42" y="573.4" fill="#666" dominant-baseline="middle" text-anchor="end" font-size="21.6">0%</text><text x="58.42" y="455" fill="#666" dominant-baseline="middle" text-anchor="end" font-size="21.6">20%</text><text x="58.42" y="336.6" fill="#666" dominant-baseline="middle" text-anchor="end" font-size="21.6">40%</text><text x="58.42" y="218.2" fill="#666" dominant-baseline="middle" text-anchor="end" font-size="21.6">60%</text><text x="58.42" y="99.8" fill="#666" dominant-baseline="middle" text-anchor="end" font-size="21.6">80%</text></g><g class="AxisGridLines"><line x1="63.42" y1="573.4" x2="840.51" y2="573.4" stroke="#ccc"></line><line x1="63.42" y1="455" x2="840.51" y2="455" stroke="#ddd" stroke-dasharray="3,2"></line><line x1="63.42" y1="336.6" x2="840.51" y2="336.6" stroke="#ddd" stroke-dasharray="3,2"></line><line x1="63.42" y1="218.2" x2="840.51" y2="218.2" stroke="#ddd" stroke-dasharray="3,2"></line><line x1="63.42" y1="99.8" x2="840.51" y2="99.8" stroke="#ddd" stroke-dasharray="3,2"></line></g><g class="AxisGridLines"><line x1="63.4" y1="573.40" x2="63.4" y2="35.00" stroke="#ddd" stroke-dasharray="3,2"></line><line x1="218.8" y1="573.40" x2="218.8" y2="35.00" stroke="#ddd" stroke-dasharray="3,2"></line><line x1="374.3" y1="573.40" x2="374.3" y2="35.00" stroke="#ddd" stroke-dasharray="3,2"></line><line x1="529.7" y1="573.40" x2="529.7" y2="35.00" stroke="#ddd" stroke-dasharray="3,2"></line><line x1="685.1" y1="573.40" x2="685.1" y2="35.00" stroke="#ddd" stroke-dasharray="3,2"></line><line x1="840.5" y1="573.40" x2="840.5" y2="35.00" stroke="#ddd" stroke-dasharray="3,2"></line></g></g><g clip-path="url(#boundsClip-1515)"><g class="HeightedLegend clickable"><g class="legendMark"><rect x="850.512" y="25.4" width="210.84000000000003" height="19.200000000000003" fill="#fff" opacity="0"></rect><rect x="850.512" y="33.75" width="10" height="2.5" fill="#f6a324"></rect><text font-size="19.20" x="865.5" y="40.8" fill="#333"><tspan x="865.512" y="40.76">Improved water source</tspan></text></g><g class="legendMark"><rect x="850.512" y="58.6" width="183.96000000000004" height="19.200000000000003" fill="#fff" opacity="0"></rect><rect x="850.512" y="66.95" width="10" height="2.5" fill="#34983f"></rect><text font-size="19.20" x="865.5" y="74.0" fill="#333"><tspan x="865.512" y="73.96000000000001">Access to electricity</tspan></text></g><g class="legendMark"><rect x="850.512" y="164.1" width="256.9200000000001" height="19.200000000000003" fill="#fff" opacity="0"></rect><rect x="850.512" y="172.45" width="10" height="2.5" fill="#ca2628"></rect><text font-size="19.20" x="865.5" y="179.5" fill="#333"><tspan x="865.512" y="179.46">Improved sanitation facilities</tspan></text></g><g class="legendMark"><rect x="850.512" y="224" width="334.48800000000006" height="19.200000000000003" fill="#fff" opacity="0"></rect><rect x="850.512" y="232.35" width="10" height="2.5" fill="#3360a9"></rect><text font-size="19.20" x="865.5" y="239.4" fill="#333"><tspan x="865.512" y="239.35999999999999">Clean cooking fuels and technologies</tspan></text></g></g><g class="Lines"><rect x="63" y="35" width="777" height="538" fill="rgba(255,255,255,0)" opacity="0"></rect><g class="key-World_0"><path stroke="#3360a9" stroke-linecap="round" d="M374 275L405 272L436 269L468 266L499 263L530 260L561 257L592 254L623 251L654 248L685 245L716 242L747 239L778 236L809 234" fill="none" stroke-width="1.5"></path><g fill="#3360a9"><circle cx="374" cy="275" r="2"></circle><circle cx="405" cy="272" r="2"></circle><circle cx="436" cy="269" r="2"></circle><circle cx="468" cy="266" r="2"></circle><circle cx="499" cy="263" r="2"></circle><circle cx="530" cy="260" r="2"></circle><circle cx="561" cy="257" r="2"></circle><circle cx="592" cy="254" r="2"></circle><circle cx="623" cy="251" r="2"></circle><circle cx="654" cy="248" r="2"></circle><circle cx="685" cy="245" r="2"></circle><circle cx="716" cy="242" r="2"></circle><circle cx="747" cy="239" r="2"></circle><circle cx="778" cy="236" r="2"></circle><circle cx="809" cy="234" r="2"></circle></g></g><g class="key-World_1"><path stroke="#f6a324" stroke-linecap="round" d="M63 123L95 120L126 116L157 112L188 108L219 104L250 100L281 96L312 93L343 89L374 85L405 82L436 78L468 74L499 71L530 67L561 64L592 60L623 57L654 53L685 50L716 47L747 44L778 40L809 37L841 35" fill="none" stroke-width="1.5"></path><g fill="#f6a324"><circle cx="63" cy="123" r="2"></circle><circle cx="95" cy="120" r="2"></circle><circle cx="126" cy="116" r="2"></circle><circle cx="157" cy="112" r="2"></circle><circle cx="188" cy="108" r="2"></circle><circle cx="219" cy="104" r="2"></circle><circle cx="250" cy="100" r="2"></circle><circle cx="281" cy="96" r="2"></circle><circle cx="312" cy="93" r="2"></circle><circle cx="343" cy="89" r="2"></circle><circle cx="374" cy="85" r="2"></circle><circle cx="405" cy="82" r="2"></circle><circle cx="436" cy="78" r="2"></circle><circle cx="468" cy="74" r="2"></circle><circle cx="499" cy="71" r="2"></circle><circle cx="530" cy="67" r="2"></circle><circle cx="561" cy="64" r="2"></circle><circle cx="592" cy="60" r="2"></circle><circle cx="623" cy="57" r="2"></circle><circle cx="654" cy="53" r="2"></circle><circle cx="685" cy="50" r="2"></circle><circle cx="716" cy="47" r="2"></circle><circle cx="747" cy="44" r="2"></circle><circle cx="778" cy="40" r="2"></circle><circle cx="809" cy="37" r="2"></circle><circle cx="841" cy="35" r="2"></circle></g></g><g class="key-World_2"><path stroke="#ca2628" stroke-linecap="round" d="M63 260L95 258L126 255L157 252L188 247L219 244L250 239L281 236L312 232L343 229L374 225L405 222L436 218L468 215L499 211L530 207L561 204L592 200L623 197L654 193L685 190L716 187L747 183L778 180L809 177L841 174" fill="none" stroke-width="1.5"></path><g fill="#ca2628"><circle cx="63" cy="260" r="2"></circle><circle cx="95" cy="258" r="2"></circle><circle cx="126" cy="255" r="2"></circle><circle cx="157" cy="252" r="2"></circle><circle cx="188" cy="247" r="2"></circle><circle cx="219" cy="244" r="2"></circle><circle cx="250" cy="239" r="2"></circle><circle cx="281" cy="236" r="2"></circle><circle cx="312" cy="232" r="2"></circle><circle cx="343" cy="229" r="2"></circle><circle cx="374" cy="225" r="2"></circle><circle cx="405" cy="222" r="2"></circle><circle cx="436" cy="218" r="2"></circle><circle cx="468" cy="215" r="2"></circle><circle cx="499" cy="211" r="2"></circle><circle cx="530" cy="207" r="2"></circle><circle cx="561" cy="204" r="2"></circle><circle cx="592" cy="200" r="2"></circle><circle cx="623" cy="197" r="2"></circle><circle cx="654" cy="193" r="2"></circle><circle cx="685" cy="190" r="2"></circle><circle cx="716" cy="187" r="2"></circle><circle cx="747" cy="183" r="2"></circle><circle cx="778" cy="180" r="2"></circle><circle cx="809" cy="177" r="2"></circle><circle cx="841" cy="174" r="2"></circle></g></g><g class="key-World_3"><path stroke="#34983f" stroke-linecap="round" d="M63 139L95 150L126 144L157 141L188 138L219 133L250 128L281 124L312 120L343 115L374 114L405 117L436 108L468 105L499 103L530 99L561 95L592 91L623 88L654 81L685 79L716 85L747 71L778 72L809 68" fill="none" stroke-width="1.5"></path><g fill="#34983f"><circle cx="63" cy="139" r="2"></circle><circle cx="95" cy="150" r="2"></circle><circle cx="126" cy="144" r="2"></circle><circle cx="157" cy="141" r="2"></circle><circle cx="188" cy="138" r="2"></circle><circle cx="219" cy="133" r="2"></circle><circle cx="250" cy="128" r="2"></circle><circle cx="281" cy="124" r="2"></circle><circle cx="312" cy="120" r="2"></circle><circle cx="343" cy="115" r="2"></circle><circle cx="374" cy="114" r="2"></circle><circle cx="405" cy="117" r="2"></circle><circle cx="436" cy="108" r="2"></circle><circle cx="468" cy="105" r="2"></circle><circle cx="499" cy="103" r="2"></circle><circle cx="530" cy="99" r="2"></circle><circle cx="561" cy="95" r="2"></circle><circle cx="592" cy="91" r="2"></circle><circle cx="623" cy="88" r="2"></circle><circle cx="654" cy="81" r="2"></circle><circle cx="685" cy="79" r="2"></circle><circle cx="716" cy="85" r="2"></circle><circle cx="747" cy="71" r="2"></circle><circle cx="778" cy="72" r="2"></circle><circle cx="809" cy="68" r="2"></circle></g></g></g></g></g></g></svg>