<svg xmlns="http://www.w3.org/2000/svg" version="1.1" style="font-family: 'Helvetica Neue', Helvetica, Arial, sans-serif; font-size: 24px; background-color: white;" width="1200" height="630"><g class="ChartTab"><g class="LineChart"><defs><clipPath id="boundsClip-1777"><rect x="64.43200000000002" y="0" width="1180" height="1130"></rect></clipPath></defs><g class="AxisBoxView"><g class="HorizontalAxis"><text x="74.4" y="600" fill="#666" text-anchor="middle" font-size="21.6">1980</text><text x="209.1" y="600" fill="#666" text-anchor="middle" font-size="21.6">1985</text><text x="343.8" y="600" fill="#666" text-anchor="middle" font-size="21.6">1990</text><text x="478.5" y="600" fill="#666" text-anchor="middle" font-size="21.6">1995</text><text x="613.2" y="600" fill="#666" text-anchor="middle" font-size="21.6">2000</text><text x="747.9" y="600" fill="#666" text-anchor="middle" font-size="21.6">2005</text><text x="882.6" y="600" fill="#666" text-anchor="middle" font-size="21.6">2010</text><text x="1044.2" y="600" fill="#666" text-anchor="middle" font-size="21.6">2016</text></g><g class="VerticalAxis"><text x="69.43" y="573.4" fill="#666" dominant-baseline="middle" text-anchor="end" font-size="21.6">0</text><text x="69.43" y="449.2" fill="#666" dominant-baseline="middle" text-anchor="end" font-size="21.6">1,000</text><text x="69.43" y="324.9" fill="#666" dominant-baseline="middle" text-anchor="end" font-size="21.6">2,000</text><text x="69.43" y="200.7" fill="#666" dominant-baseline="middle" text-anchor="end" font-size="21.6">3,000</text><text x="69.43" y="76.5" fill="#666" dominant-baseline="middle" text-anchor="end" font-size="21.6">4,000</text></g><g class="AxisGridLines"><line x1="74.43" y1="573.4" x2="1044.22" y2="573.4" stroke="#ccc"></line><line x1="74.43" y1="449.2" x2="1044.22" y2="449.2" stroke="#ddd" stroke-dasharray="3,2"></line><line x1="74.43" y1="324.9" x2="1044.22" y2="324.9" stroke="#ddd" stroke-dasharray="3,2"></line><line x1="74.43" y1="200.7" x2="1044.22" y2="200.7" stroke="#ddd" stroke-dasharray="3,2"></line><line x1="74.43" y1="76.5" x2="1044.22" y2="76.5" stroke="#ddd" stroke-dasharray="3,2"></line></g><g class="AxisGridLines"><line x1="74.4" y1="573.40" x2="74.4" y2="35.00" stroke="#ddd" stroke-dasharray="3,2"></line><line x1="209.1" y1="573.40" x2="209.1" y2="35.00" stroke="#ddd" stroke-dasharray="3,2"></line><line x1="343.8" y1="573.40" x2="343.8" y2="35.00" stroke="#ddd" stroke-dasharray="3,2"></line><line x1="478.5" y1="573.40" x2="478.5" y2="35.00" stroke="#ddd" stroke-dasharray="3,2"></line><line x1="613.2" y1="573.40" x2="613.2" y2="35.00" stroke="#ddd" stroke-dasharray="3,2"></line><line x1="747.9" y1="573.40" x2="747.9" y2="35.00" stroke="#ddd" stroke-dasharray="3,2"></line><line x1="882.6" y1="573.40" x2="882.6" y2="35.00" stroke="#ddd" stroke-dasharray="3,2"></line><line x1="1017.3" y1="573.40" x2="1017.3" y2="35.00" stroke="#ddd" stroke-dasharray="3,2"></line></g></g><g clip-path="url(#boundsClip-1777)"><g class="HeightedLegend clickable"><g class="legendMark"><rect x="1054.224" y="554.1999999999999" width="130.776" height="19.200000000000003" fill="#fff" opacity="0"></rect><rect x="1054.224" y="562.55" width="10" height="2.5" fill="#3360a9"></rect><text font-size="19.20" x="1069.2" y="569.6" fill="#333"><tspan x="1069.224" y="569.56">United States</tspan></text></g><g class="legendMark"><rect x="1054.224" y="534.9999999999999" width="75.864" height="19.200000000000003" fill="#fff" opacity="0"></rect><rect x="1054.224" y="543.3499999999999" width="10" height="2.5" fill="#ca2628"></rect><text font-size="19.20" x="1069.2" y="550.4" fill="#333"><tspan x="1069.224" y="550.3599999999999">Nigeria</tspan></text></g><g class="legendMark"><rect x="1054.224" y="515.7999999999998" width="116.95200000000001" height="19.200000000000003" fill="#fff" opacity="0"></rect><rect x="1054.224" y="524.1499999999999" width="10" height="2.5" fill="#34983f"></rect><text font-size="19.20" x="1069.2" y="531.2" fill="#333"><tspan x="1069.224" y="531.1599999999999">Afghanistan</tspan></text></g><g class="legendMark"><rect x="1054.224" y="496.5999999999998" width="88.92000000000002" height="19.200000000000003" fill="#fff" opacity="0"></rect><rect x="1054.224" y="504.9499999999998" width="10" height="2.5" fill="#f6a324"></rect><text font-size="19.20" x="1069.2" y="512.0" fill="#333"><tspan x="1069.224" y="511.95999999999987">Pakistan</tspan></text></g></g><g class="Lines"><rect x="74" y="35" width="970" height="538" fill="rgba(255,255,255,0)" opacity="0"></rect><g class="key-United-States_0"><path stroke="#3360a9" stroke-linecap="round" d="M74 572L101 573L128 572L155 572L182 572L209 573L236 572L263 573L290 573L317 573L344 573L371 573L398 573L425 573L452 573L479 573L506 573L532 573L559 573L586 573L613 573L640 573L667 573L694 573L721 573L748 573L775 573L802 573L829 573L856 573L883 573L910 573L937 573L963 573L990 573L1017 573L1044 573" fill="none" stroke-width="1.5"></path><g fill="#3360a9"><circle cx="74" cy="572" r="2"></circle><circle cx="101" cy="573" r="2"></circle><circle cx="128" cy="572" r="2"></circle><circle cx="155" cy="572" r="2"></circle><circle cx="182" cy="572" r="2"></circle><circle cx="209" cy="573" r="2"></circle><circle cx="236" cy="572" r="2"></circle><circle cx="263" cy="573" r="2"></circle><circle cx="290" cy="573" r="2"></circle><circle cx="317" cy="573" r="2"></circle><circle cx="344" cy="573" r="2"></circle><circle cx="371" cy="573" r="2"></circle><circle cx="398" cy="573" r="2"></circle><circle cx="425" cy="573" r="2"></circle><circle cx="452" cy="573" r="2"></circle><circle cx="479" cy="573" r="2"></circle><circle cx="506" cy="573" r="2"></circle><circle cx="532" cy="573" r="2"></circle><circle cx="559" cy="573" r="2"></circle><circle cx="586" cy="573" r="2"></circle><circle cx="613" cy="573" r="2"></circle><circle cx="640" cy="573" r="2"></circle><circle cx="667" cy="573" r="2"></circle><circle cx="694" cy="573" r="2"></circle><circle cx="721" cy="573" r="2"></circle><circle cx="748" cy="573" r="2"></circle><circle cx="775" cy="573" r="2"></circle><circle cx="802" cy="573" r="2"></circle><circle cx="829" cy="573" r="2"></circle><circle cx="856" cy="573" r="2"></circle><circle cx="883" cy="573" r="2"></circle><circle cx="910" cy="573" r="2"></circle><circle cx="937" cy="573" r="2"></circle><circle cx="963" cy="573" r="2"></circle><circle cx="990" cy="573" r="2"></circle><circle cx="1017" cy="573" r="2"></circle><circle cx="1044" cy="573" r="2"></circle></g></g><g class="key-Nigeria_0"><path stroke="#ca2628" stroke-linecap="round" d="M74 472L101 532L128 524L155 525L182 496L209 454L236 517L263 498L290 392L317 517L344 341L371 469L398 455L425 439L452 511L479 519L506 456L532 526L559 535L586 452L613 494L640 566L667 548L694 529L721 476L748 470L775 431L802 530L829 466L856 506L883 567L910 562L937 557L963 566L990 569L1017 573L1044 573" fill="none" stroke-width="1.5"></path><g fill="#ca2628"><circle cx="74" cy="472" r="2"></circle><circle cx="101" cy="532" r="2"></circle><circle cx="128" cy="524" r="2"></circle><circle cx="155" cy="525" r="2"></circle><circle cx="182" cy="496" r="2"></circle><circle cx="209" cy="454" r="2"></circle><circle cx="236" cy="517" r="2"></circle><circle cx="263" cy="498" r="2"></circle><circle cx="290" cy="392" r="2"></circle><circle cx="317" cy="517" r="2"></circle><circle cx="344" cy="341" r="2"></circle><circle cx="371" cy="469" r="2"></circle><circle cx="398" cy="455" r="2"></circle><circle cx="425" cy="439" r="2"></circle><circle cx="452" cy="511" r="2"></circle><circle cx="479" cy="519" r="2"></circle><circle cx="506" cy="456" r="2"></circle><circle cx="532" cy="526" r="2"></circle><circle cx="559" cy="535" r="2"></circle><circle cx="586" cy="452" r="2"></circle><circle cx="613" cy="494" r="2"></circle><circle cx="640" cy="566" r="2"></circle><circle cx="667" cy="548" r="2"></circle><circle cx="694" cy="529" r="2"></circle><circle cx="721" cy="476" r="2"></circle><circle cx="748" cy="470" r="2"></circle><circle cx="775" cy="431" r="2"></circle><circle cx="802" cy="530" r="2"></circle><circle cx="829" cy="466" r="2"></circle><circle cx="856" cy="506" r="2"></circle><circle cx="883" cy="567" r="2"></circle><circle cx="910" cy="562" r="2"></circle><circle cx="937" cy="557" r="2"></circle><circle cx="963" cy="566" r="2"></circle><circle cx="990" cy="569" r="2"></circle><circle cx="1017" cy="573" r="2"></circle><circle cx="1044" cy="573" r="2"></circle></g></g><g class="key-Afghanistan_0"><path stroke="#34983f" stroke-linecap="round" d="M74 464L101 469L128 401L155 326L182 505L209 327L236 344L263 495L290 535L317 567L344 567L371 573L479 573L532 571L559 566L586 555L613 559L640 572L667 572L694 572L721 573L748 572L775 570L802 571L829 570L856 569L883 570L910 563L937 568L963 571L990 570L1017 571L1044 572" fill="none" stroke-width="1.5"></path><g fill="#34983f"><circle cx="74" cy="464" r="2"></circle><circle cx="101" cy="469" r="2"></circle><circle cx="128" cy="401" r="2"></circle><circle cx="155" cy="326" r="2"></circle><circle cx="182" cy="505" r="2"></circle><circle cx="209" cy="327" r="2"></circle><circle cx="236" cy="344" r="2"></circle><circle cx="263" cy="495" r="2"></circle><circle cx="290" cy="535" r="2"></circle><circle cx="317" cy="567" r="2"></circle><circle cx="344" cy="567" r="2"></circle><circle cx="371" cy="573" r="2"></circle><circle cx="479" cy="573" r="2"></circle><circle cx="532" cy="571" r="2"></circle><circle cx="559" cy="566" r="2"></circle><circle cx="586" cy="555" r="2"></circle><circle cx="613" cy="559" r="2"></circle><circle cx="640" cy="572" r="2"></circle><circle cx="667" cy="572" r="2"></circle><circle cx="694" cy="572" r="2"></circle><circle cx="721" cy="573" r="2"></circle><circle cx="748" cy="572" r="2"></circle><circle cx="775" cy="570" r="2"></circle><circle cx="802" cy="571" r="2"></circle><circle cx="829" cy="570" r="2"></circle><circle cx="856" cy="569" r="2"></circle><circle cx="883" cy="570" r="2"></circle><circle cx="910" cy="563" r="2"></circle><circle cx="937" cy="568" r="2"></circle><circle cx="963" cy="571" r="2"></circle><circle cx="990" cy="570" r="2"></circle><circle cx="1017" cy="571" r="2"></circle><circle cx="1044" cy="572" r="2"></circle></g></g><g class="key-Pakistan_0"><path stroke="#f6a324" stroke-linecap="round" d="M74 203L101 35L128 138L155 462L182 500L209 305L236 494L263 423L290 457L317 473L344 477L371 431L398 444L425 349L452 508L479 510L506 531L532 431L559 531L586 504L613 549L640 559L667 562L694 561L721 567L748 570L775 568L802 569L829 559L856 562L883 556L910 549L937 564L963 556L990 533L1017 566L1044 571" fill="none" stroke-width="1.5"></path><g fill="#f6a324"><circle cx="74" cy="203" r="2"></circle><circle cx="101" cy="35" r="2"></circle><circle cx="128" cy="138" r="2"></circle><circle cx="155" cy="462" r="2"></circle><circle cx="182" cy="500" r="2"></circle><circle cx="209" cy="305" r="2"></circle><circle cx="236" cy="494" r="2"></circle><circle cx="263" cy="423" r="2"></circle><circle cx="290" cy="457" r="2"></circle><circle cx="317" cy="473" r="2"></circle><circle cx="344" cy="477" r="2"></circle><circle cx="371" cy="431" r="2"></circle><circle cx="398" cy="444" r="2"></circle><circle cx="425" cy="349" r="2"></circle><circle cx="452" cy="508" r="2"></circle><circle cx="479" cy="510" r="2"></circle><circle cx="506" cy="531" r="2"></circle><circle cx="532" cy="431" r="2"></circle><circle cx="559" cy="531" r="2"></circle><circle cx="586" cy="504" r="2"></circle><circle cx="613" cy="549" r="2"></circle><circle cx="640" cy="559" r="2"></circle><circle cx="667" cy="562" r="2"></circle><circle cx="694" cy="561" r="2"></circle><circle cx="721" cy="567" r="2"></circle><circle cx="748" cy="570" r="2"></circle><circle cx="775" cy="568" r="2"></circle><circle cx="802" cy="569" r="2"></circle><circle cx="829" cy="559" r="2"></circle><circle cx="856" cy="562" r="2"></circle><circle cx="883" cy="556" r="2"></circle><circle cx="910" cy="549" r="2"></circle><circle cx="937" cy="564" r="2"></circle><circle cx="963" cy="556" r="2"></circle><circle cx="990" cy="533" r="2"></circle><circle cx="1017" cy="566" r="2"></circle><circle cx="1044" cy="571" r="2"></circle></g></g></g></g></g></g></svg>