<svg xmlns="http://www.w3.org/2000/svg" version="1.1" style="font-family: 'Helvetica Neue', Helvetica, Arial, sans-serif; font-size: 24px; background-color: white;" width="1200" height="630"><g class="ChartTab"><g class="LabelledSlopes"><rect x="15" y="35" width="1170" height="580" fill="rgba(0,0,0,0)" opacity="0"></rect><g class="gridlines"><line x1="320.516" y1="565" x2="879.4840000000002" y2="565" stroke="#eee" stroke-dasharray="3,2"></line><line x1="320.516" y1="447.22222222222223" x2="879.4840000000002" y2="447.22222222222223" stroke="#eee" stroke-dasharray="3,2"></line><line x1="320.516" y1="329.44444444444446" x2="879.4840000000002" y2="329.44444444444446" stroke="#eee" stroke-dasharray="3,2"></line><line x1="320.516" y1="211.66666666666669" x2="879.4840000000002" y2="211.66666666666669" stroke="#eee" stroke-dasharray="3,2"></line><line x1="320.516" y1="93.88888888888891" x2="879.4840000000002" y2="93.88888888888891" stroke="#eee" stroke-dasharray="3,2"></line></g><g font-size="0.8em" class="axis"><text x="15" y="565" fill="#666" dominant-baseline="middle" text-anchor="start">0%</text><text x="15" y="447.22222222222223" fill="#666" dominant-baseline="middle" text-anchor="start">20%</text><text x="15" y="329.44444444444446" fill="#666" dominant-baseline="middle" text-anchor="start">40%</text><text x="15" y="211.66666666666669" fill="#666" dominant-baseline="middle" text-anchor="start">60%</text><text x="15" y="93.88888888888891" fill="#666" dominant-baseline="middle" text-anchor="start">80%</text></g><g font-size="0.8em" class="axis"><text x="1185" y="565" fill="#666" dominant-baseline="middle" text-anchor="end">0%</text><text x="1185" y="447.22222222222223" fill="#666" dominant-baseline="middle" text-anchor="end">20%</text><text x="1185" y="329.44444444444446" fill="#666" dominant-baseline="middle" text-anchor="end">40%</text><text x="1185" y="211.66666666666669" fill="#666" dominant-baseline="middle" text-anchor="end">60%</text><text x="1185" y="93.88888888888891" fill="#666" dominant-baseline="middle" text-anchor="end">80%</text></g><line x1="320.516" y1="565" x2="320.516" y2="35" stroke="#333"></line><line x1="879.4840000000002" y1="565" x2="879.4840000000002" y2="35" stroke="#333"></line><text x="320.516" y="594.2" text-anchor="middle" fill="#666" font-size="24">1979</text><text x="879.4840000000002" y="594.2" text-anchor="middle" fill="#666" font-size="24">2002</text><g class="slopes"><g class="slope"><circle cx="320.516" cy="223.4444444444444" r="2" fill="#ff7f0e" opacity="0.5"></circle><line x1="320.516" y1="223.4444444444444" x2="879.4840000000002" y2="294.11111111111114" stroke="#ff7f0e" stroke-width="1" opacity="0.5"></line><circle cx="879.4840000000002" cy="294.11111111111114" r="2" fill="#ff7f0e" opacity="0.5"></circle></g><g class="slope"><text font-size="15.60" x="277.2" y="422.5" text-anchor="end" fill="#333"><tspan x="277.16" y="422.4577777777778">Hong Kong</tspan></text><text x="312.516" y="422.4577777777778" text-anchor="end" font-size="15.600000000000001" fill="#333">25%</text><circle cx="320.516" cy="417.77777777777777" r="2" fill="#d14e5b" opacity="0.5"></circle><line x1="320.516" y1="417.77777777777777" x2="879.4840000000002" y2="470.77777777777777" stroke="#d14e5b" stroke-width="1" opacity="0.5"></line><circle cx="879.4840000000002" cy="470.77777777777777" r="2" fill="#d14e5b" opacity="0.5"></circle><text x="887.4840000000002" y="475.4577777777778" dominant-baseline="middle" font-size="15.600000000000001" fill="#333">16%</text><text font-size="15.60" x="922.8" y="475.5" fill="labelColor"><tspan x="922.8400000000001" y="475.4577777777778">Hong Kong</tspan></text></g><g class="slope"><circle cx="320.516" cy="241.1111111111111" r="2" fill="#d14e5b" opacity="0.5"></circle><line x1="320.516" y1="241.1111111111111" x2="879.4840000000002" y2="411.8888888888889" stroke="#d14e5b" stroke-width="1.0002167420018517" opacity="0.5"></line><circle cx="879.4840000000002" cy="411.8888888888889" r="2" fill="#d14e5b" opacity="0.5"></circle></g><g class="slope"><circle cx="320.516" cy="270.55555555555554" r="2" fill="#5675c1" opacity="0.5"></circle><line x1="320.516" y1="270.55555555555554" x2="879.4840000000002" y2="417.77777777777777" stroke="#5675c1" stroke-width="1.0008452938072214" opacity="0.5"></line><circle cx="879.4840000000002" cy="417.77777777777777" r="2" fill="#5675c1" opacity="0.5"></circle></g><g class="slope"><circle cx="320.516" cy="152.77777777777777" r="2" fill="#4d824b" opacity="0.5"></circle><line x1="320.516" y1="152.77777777777777" x2="879.4840000000002" y2="358.8888888888889" stroke="#4d824b" stroke-width="1.0008669680074067" opacity="0.5"></line><circle cx="879.4840000000002" cy="358.8888888888889" r="2" fill="#4d824b" opacity="0.5"></circle></g><g class="slope"><circle cx="320.516" cy="211.66666666666669" r="2" fill="#a652ba" opacity="0.5"></circle><line x1="320.516" y1="211.66666666666669" x2="879.4840000000002" y2="335.3333333333333" stroke="#a652ba" stroke-width="1.0017339360148134" opacity="0.5"></line><circle cx="879.4840000000002" cy="335.3333333333333" r="2" fill="#a652ba" opacity="0.5"></circle></g><g class="slope"><circle cx="320.516" cy="123.33333333333331" r="2" fill="#5675c1" opacity="0.5"></circle><line x1="320.516" y1="123.33333333333331" x2="879.4840000000002" y2="417.77777777777777" stroke="#5675c1" stroke-width="1.002189094218702" opacity="0.5"></line><circle cx="879.4840000000002" cy="417.77777777777777" r="2" fill="#5675c1" opacity="0.5"></circle></g><g class="slope"><circle cx="320.516" cy="99.77777777777777" r="2" fill="#4d824b" opacity="0.5"></circle><line x1="320.516" y1="99.77777777777777" x2="879.4840000000002" y2="370.6666666666667" stroke="#4d824b" stroke-width="1.0029260170249976" opacity="0.5"></line><circle cx="879.4840000000002" cy="370.6666666666667" r="2" fill="#4d824b" opacity="0.5"></circle></g><g class="slope"><circle cx="320.516" cy="176.33333333333337" r="2" fill="#d14e5b" opacity="0.5"></circle><line x1="320.516" y1="176.33333333333337" x2="879.4840000000002" y2="270.55555555555554" stroke="#d14e5b" stroke-width="1.0041171010219732" opacity="0.5"></line><circle cx="879.4840000000002" cy="270.55555555555554" r="2" fill="#d14e5b" opacity="0.5"></circle></g><g class="slope"><circle cx="320.516" cy="211.66666666666669" r="2" fill="#d14e5b" opacity="0.5"></circle><line x1="320.516" y1="211.66666666666669" x2="879.4840000000002" y2="400.1111111111111" stroke="#d14e5b" stroke-width="1.0057870114494396" opacity="0.5"></line><circle cx="879.4840000000002" cy="400.1111111111111" r="2" fill="#d14e5b" opacity="0.5"></circle></g><g class="slope"><circle cx="320.516" cy="146.8888888888889" r="2" fill="#ffd336" opacity="0.5"></circle><line x1="320.516" y1="146.8888888888889" x2="879.4840000000002" y2="347.1111111111111" stroke="#ffd336" stroke-width="1.0082361960703634" opacity="0.5"></line><circle cx="879.4840000000002" cy="347.1111111111111" r="2" fill="#ffd336" opacity="0.5"></circle></g><g class="slope"><circle cx="320.516" cy="223.4444444444444" r="2" fill="#4d824b" opacity="0.5"></circle><line x1="320.516" y1="223.4444444444444" x2="879.4840000000002" y2="417.77777777777777" stroke="#4d824b" stroke-width="1.0082578702705487" opacity="0.5"></line><circle cx="879.4840000000002" cy="417.77777777777777" r="2" fill="#4d824b" opacity="0.5"></circle><text x="887.4840000000002" y="422.4577777777778" dominant-baseline="middle" font-size="15.600000000000001" fill="#333">25%</text><text font-size="15.60" x="922.8" y="422.5" fill="labelColor"><tspan x="922.8400000000001" y="422.4577777777778">Jamaica</tspan></text></g><g class="slope"><circle cx="320.516" cy="199.8888888888889" r="2" fill="#a652ba" opacity="0.5"></circle><line x1="320.516" y1="199.8888888888889" x2="879.4840000000002" y2="288.22222222222223" stroke="#a652ba" stroke-width="1.0093199060796219" opacity="0.5"></line><circle cx="879.4840000000002" cy="288.22222222222223" r="2" fill="#a652ba" opacity="0.5"></circle></g><g class="slope"><text font-size="15.60" x="277.2" y="334.1" text-anchor="end" fill="#333"><tspan x="277.16" y="334.12444444444446">Guatemala</tspan></text><text x="312.516" y="334.12444444444446" text-anchor="end" font-size="15.600000000000001" fill="#333">40%</text><circle cx="320.516" cy="329.44444444444446" r="2" fill="#4d824b" opacity="0.5"></circle><line x1="320.516" y1="329.44444444444446" x2="879.4840000000002" y2="382.44444444444446" stroke="#4d824b" stroke-width="1.0095142152842818" opacity="0.5"></line><circle cx="879.4840000000002" cy="382.44444444444446" r="2" fill="#4d824b" opacity="0.5"></circle></g><g class="slope"><circle cx="320.516" cy="123.33333333333331" r="2" fill="#ffd336" opacity="0.5"></circle><line x1="320.516" y1="123.33333333333331" x2="879.4840000000002" y2="282.3333333333333" stroke="#ffd336" stroke-width="1.01040361608888" opacity="0.5"></line><circle cx="879.4840000000002" cy="282.3333333333333" r="2" fill="#ffd336" opacity="0.5"></circle></g><g class="slope"><text font-size="15.60" x="277.2" y="304.7" text-anchor="end" fill="#333"><tspan x="277.16" y="304.68">Argentina</tspan></text><text x="312.516" y="304.68" text-anchor="end" font-size="15.600000000000001" fill="#333">45%</text><circle cx="320.516" cy="300" r="2" fill="#69c487" opacity="0.5"></circle><line x1="320.516" y1="300" x2="879.4840000000002" y2="358.8888888888889" stroke="#69c487" stroke-width="1.0111405388951757" opacity="0.5"></line><circle cx="879.4840000000002" cy="358.8888888888889" r="2" fill="#69c487" opacity="0.5"></circle></g><g class="slope"><circle cx="320.516" cy="135.1111111111111" r="2" fill="#ffd336" opacity="0.5"></circle><line x1="320.516" y1="135.1111111111111" x2="879.4840000000002" y2="217.55555555555554" stroke="#ffd336" stroke-width="1.0147384561259136" opacity="0.5"></line><circle cx="879.4840000000002" cy="217.55555555555554" r="2" fill="#ffd336" opacity="0.5"></circle><text x="887.4840000000002" y="222.23555555555552" dominant-baseline="middle" font-size="15.600000000000001" fill="#333">59%</text><text font-size="15.60" x="922.8" y="222.2" fill="labelColor"><tspan x="922.8400000000001" y="222.23555555555552">Denmark</tspan></text></g><g class="slope"><circle cx="320.516" cy="211.66666666666669" r="2" fill="#69c487" opacity="0.5"></circle><line x1="320.516" y1="211.66666666666669" x2="879.4840000000002" y2="311.77777777777777" stroke="#69c487" stroke-width="1.0162870127065433" opacity="0.5"></line><circle cx="879.4840000000002" cy="311.77777777777777" r="2" fill="#69c487" opacity="0.5"></circle></g><g class="slope"><circle cx="320.516" cy="152.77777777777777" r="2" fill="#4d824b" opacity="0.5"></circle><line x1="320.516" y1="152.77777777777777" x2="879.4840000000002" y2="335.3333333333333" stroke="#4d824b" stroke-width="1.0212407161814636" opacity="0.5"></line><circle cx="879.4840000000002" cy="335.3333333333333" r="2" fill="#4d824b" opacity="0.5"></circle></g><g class="slope"><circle cx="320.516" cy="282.3333333333333" r="2" fill="#69c487" opacity="0.5"></circle><line x1="320.516" y1="282.3333333333333" x2="879.4840000000002" y2="488.44444444444446" stroke="#69c487" stroke-width="1.0234081361999805" opacity="0.5"></line><circle cx="879.4840000000002" cy="488.44444444444446" r="2" fill="#69c487" opacity="0.5"></circle><text x="887.4840000000002" y="493.12444444444446" dominant-baseline="middle" font-size="15.600000000000001" fill="#333">13%</text><text font-size="15.60" x="922.8" y="493.1" fill="labelColor"><tspan x="922.8400000000001" y="493.12444444444446">Bolivia</tspan></text></g><g class="slope"><circle cx="320.516" cy="235.22222222222223" r="2" fill="#69c487" opacity="0.5"></circle><line x1="320.516" y1="235.22222222222223" x2="879.4840000000002" y2="358.8888888888889" stroke="#69c487" stroke-width="1.0257056014196082" opacity="0.5"></line><circle cx="879.4840000000002" cy="358.8888888888889" r="2" fill="#69c487" opacity="0.5"></circle></g><g class="slope"><circle cx="320.516" cy="241.1111111111111" r="2" fill="#69c487" opacity="0.5"></circle><line x1="320.516" y1="241.1111111111111" x2="879.4840000000002" y2="400.1111111111111" stroke="#69c487" stroke-width="1.0266592662277554" opacity="0.5"></line><circle cx="879.4840000000002" cy="400.1111111111111" r="2" fill="#69c487" opacity="0.5"></circle></g><g class="slope"><circle cx="320.516" cy="182.22222222222223" r="2" fill="#ffd336" opacity="0.5"></circle><line x1="320.516" y1="182.22222222222223" x2="879.4840000000002" y2="317.66666666666663" stroke="#ffd336" stroke-width="1.0292537330125204" opacity="0.5"></line><circle cx="879.4840000000002" cy="317.66666666666663" r="2" fill="#ffd336" opacity="0.5"></circle></g><g class="slope"><circle cx="320.516" cy="52.66666666666663" r="2" fill="#ffd336" opacity="0.5"></circle><line x1="320.516" y1="52.66666666666663" x2="879.4840000000002" y2="235.22222222222223" stroke="#ffd336" stroke-width="1.0293329955625976" opacity="0.5"></line><circle cx="879.4840000000002" cy="235.22222222222223" r="2" fill="#ffd336" opacity="0.5"></circle><text x="887.4840000000002" y="239.9022222222222" dominant-baseline="middle" font-size="15.600000000000001" fill="#333">56%</text><text font-size="15.60" x="922.8" y="239.9" fill="labelColor"><tspan x="922.8400000000001" y="239.9022222222222">Sweden</tspan></text></g><g class="slope"><circle cx="320.516" cy="211.66666666666669" r="2" fill="#ffd336" opacity="0.5"></circle><line x1="320.516" y1="211.66666666666669" x2="879.4840000000002" y2="329.44444444444446" stroke="#ffd336" stroke-width="1.0320778162740472" opacity="0.5"></line><circle cx="879.4840000000002" cy="329.44444444444446" r="2" fill="#ffd336" opacity="0.5"></circle></g><g class="slope"><circle cx="320.516" cy="211.66666666666669" r="2" fill="#ffd336" opacity="0.5"></circle><line x1="320.516" y1="211.66666666666669" x2="879.4840000000002" y2="329.44444444444446" stroke="#ffd336" stroke-width="1.0320778162740472" opacity="0.5"></line><circle cx="879.4840000000002" cy="329.44444444444446" r="2" fill="#ffd336" opacity="0.5"></circle></g><g class="slope"><circle cx="320.516" cy="152.77777777777777" r="2" fill="#d14e5b" opacity="0.5"></circle><line x1="320.516" y1="152.77777777777777" x2="879.4840000000002" y2="376.55555555555554" stroke="#d14e5b" stroke-width="1.040625882410875" opacity="0.5"></line><circle cx="879.4840000000002" cy="376.55555555555554" r="2" fill="#d14e5b" opacity="0.5"></circle></g><g class="slope"><circle cx="320.516" cy="141" r="2" fill="#ffd336" opacity="0.5"></circle><line x1="320.516" y1="141" x2="879.4840000000002" y2="258.7777777777778" stroke="#ffd336" stroke-width="1.040747496348114" opacity="0.5"></line><circle cx="879.4840000000002" cy="258.7777777777778" r="2" fill="#ffd336" opacity="0.5"></circle></g><g class="slope"><circle cx="320.516" cy="117.44444444444446" r="2" fill="#ffd336" opacity="0.5"></circle><line x1="320.516" y1="117.44444444444446" x2="879.4840000000002" y2="258.7777777777778" stroke="#ffd336" stroke-width="1.0429149163666307" opacity="0.5"></line><circle cx="879.4840000000002" cy="258.7777777777778" r="2" fill="#ffd336" opacity="0.5"></circle></g><g class="slope"><circle cx="320.516" cy="70.33333333333331" r="2" fill="#ffd336" opacity="0.5"></circle><line x1="320.516" y1="70.33333333333331" x2="879.4840000000002" y2="329.44444444444446" stroke="#ffd336" stroke-width="1.0429149163666307" opacity="0.5"></line><circle cx="879.4840000000002" cy="329.44444444444446" r="2" fill="#ffd336" opacity="0.5"></circle></g><g class="slope"><circle cx="320.516" cy="199.8888888888889" r="2" fill="#ffd336" opacity="0.5"></circle><line x1="320.516" y1="199.8888888888889" x2="879.4840000000002" y2="270.55555555555554" stroke="#ffd336" stroke-width="1.0537520164592142" opacity="0.5"></line><circle cx="879.4840000000002" cy="270.55555555555554" r="2" fill="#ffd336" opacity="0.5"></circle></g><g class="slope"><text font-size="15.60" x="277.2" y="98.6" text-anchor="end" fill="#333"><tspan x="277.16" y="98.56888888888892">Egypt</tspan></text><text x="312.516" y="98.56888888888892" text-anchor="end" font-size="15.600000000000001" fill="#333">80%</text><circle cx="320.516" cy="93.88888888888891" r="2" fill="#5675c1" opacity="0.5"></circle><line x1="320.516" y1="93.88888888888891" x2="879.4840000000002" y2="329.44444444444446" stroke="#5675c1" stroke-width="1.0971004168295484" opacity="0.5"></line><circle cx="879.4840000000002" cy="329.44444444444446" r="2" fill="#5675c1" opacity="0.5"></circle></g><g class="slope"><circle cx="320.516" cy="241.1111111111111" r="2" fill="#4d824b" opacity="0.5"></circle><line x1="320.516" y1="241.1111111111111" x2="879.4840000000002" y2="329.44444444444446" stroke="#4d824b" stroke-width="1.0971004168295484" opacity="0.5"></line><circle cx="879.4840000000002" cy="329.44444444444446" r="2" fill="#4d824b" opacity="0.5"></circle></g><g class="slope"><circle cx="320.516" cy="211.66666666666669" r="2" fill="#d14e5b" opacity="0.5"></circle><line x1="320.516" y1="211.66666666666669" x2="879.4840000000002" y2="347.1111111111111" stroke="#d14e5b" stroke-width="1.1006766598601008" opacity="0.5"></line><circle cx="879.4840000000002" cy="347.1111111111111" r="2" fill="#d14e5b" opacity="0.5"></circle></g><g class="slope"><circle cx="320.516" cy="35" r="2" fill="#d14e5b" opacity="0.5"></circle><line x1="320.516" y1="35" x2="879.4840000000002" y2="358.8888888888889" stroke="#d14e5b" stroke-width="1.1079375169221317" opacity="0.5"></line><circle cx="879.4840000000002" cy="358.8888888888889" r="2" fill="#d14e5b" opacity="0.5"></circle></g><g class="slope"><text font-size="15.60" x="277.2" y="80.9" text-anchor="end" fill="#333"><tspan x="277.16" y="80.90222222222218">United Kingdom</tspan></text><text x="312.516" y="80.90222222222218" text-anchor="end" font-size="15.600000000000001" fill="#333">83%</text><circle cx="320.516" cy="76.22222222222217" r="2" fill="#ffd336" opacity="0.5"></circle><line x1="320.516" y1="76.22222222222217" x2="879.4840000000002" y2="329.44444444444446" stroke="#ffd336" stroke-width="1.1556339135690117" opacity="0.5"></line><circle cx="879.4840000000002" cy="329.44444444444446" r="2" fill="#ffd336" opacity="0.5"></circle><text x="887.4840000000002" y="334.12444444444446" dominant-baseline="middle" font-size="15.600000000000001" fill="#333">40%</text><text font-size="15.60" x="922.8" y="334.1" fill="labelColor"><tspan x="922.8400000000001" y="334.12444444444446">United Kingdom</tspan></text></g><g class="slope"><circle cx="320.516" cy="123.33333333333331" r="2" fill="#d14e5b" opacity="0.5"></circle><line x1="320.516" y1="123.33333333333331" x2="879.4840000000002" y2="300" stroke="#d14e5b" stroke-width="1.1816297975516996" opacity="0.5"></line><circle cx="879.4840000000002" cy="300" r="2" fill="#d14e5b" opacity="0.5"></circle><text x="887.4840000000002" y="304.68" dominant-baseline="middle" font-size="15.600000000000001" fill="#333">45%</text><text font-size="15.60" x="922.8" y="304.7" fill="labelColor"><tspan x="922.8400000000001" y="304.68">Turkey</tspan></text></g><g class="slope"><text font-size="15.60" x="277.2" y="181.0" text-anchor="end" fill="#333"><tspan x="277.16" y="181.01333333333335">Spain</tspan></text><text x="312.516" y="181.01333333333335" text-anchor="end" font-size="15.600000000000001" fill="#333">66%</text><circle cx="320.516" cy="176.33333333333337" r="2" fill="#ffd336" opacity="0.5"></circle><line x1="320.516" y1="176.33333333333337" x2="879.4840000000002" y2="282.3333333333333" stroke="#ffd336" stroke-width="1.1896492516202115" opacity="0.5"></line><circle cx="879.4840000000002" cy="282.3333333333333" r="2" fill="#ffd336" opacity="0.5"></circle></g><g class="slope"><text font-size="15.60" x="277.2" y="45.6" text-anchor="end" fill="#333"><tspan x="277.16" y="45.56888888888892">South Korea</tspan></text><text x="312.516" y="45.56888888888892" text-anchor="end" font-size="15.600000000000001" fill="#333">89%</text><circle cx="320.516" cy="40.888888888888914" r="2" fill="#d14e5b" opacity="0.5"></circle><line x1="320.516" y1="40.888888888888914" x2="879.4840000000002" y2="353" stroke="#d14e5b" stroke-width="1.203195626735941" opacity="0.5"></line><circle cx="879.4840000000002" cy="353" r="2" fill="#d14e5b" opacity="0.5"></circle></g><g class="slope"><circle cx="320.516" cy="241.1111111111111" r="2" fill="#d14e5b" opacity="0.5"></circle><line x1="320.516" y1="241.1111111111111" x2="879.4840000000002" y2="358.8888888888889" stroke="#d14e5b" stroke-width="1.2331516471828612" opacity="0.5"></line><circle cx="879.4840000000002" cy="358.8888888888889" r="2" fill="#d14e5b" opacity="0.5"></circle></g><g class="slope"><text font-size="15.60" x="277.2" y="275.2" text-anchor="end" fill="#333"><tspan x="277.16" y="275.23555555555555">Indonesia</tspan></text><text x="312.516" y="275.23555555555555" text-anchor="end" font-size="15.600000000000001" fill="#333">50%</text><circle cx="320.516" cy="270.55555555555554" r="2" fill="#d14e5b" opacity="0.5"></circle><line x1="320.516" y1="270.55555555555554" x2="879.4840000000002" y2="358.8888888888889" stroke="#d14e5b" stroke-width="1.2683911874089195" opacity="0.5"></line><circle cx="879.4840000000002" cy="358.8888888888889" r="2" fill="#d14e5b" opacity="0.5"></circle><text x="887.4840000000002" y="363.5688888888889" dominant-baseline="middle" font-size="15.600000000000001" fill="#333">35%</text><text font-size="15.60" x="922.8" y="363.6" fill="labelColor"><tspan x="922.8400000000001" y="363.5688888888889">Indonesia</tspan></text></g><g class="slope"><text font-size="15.60" x="277.2" y="145.7" text-anchor="end" fill="#333"><tspan x="277.16" y="145.67999999999998">Italy</tspan></text><text x="312.516" y="145.67999999999998" text-anchor="end" font-size="15.600000000000001" fill="#333">72%</text><circle cx="320.516" cy="141" r="2" fill="#ffd336" opacity="0.5"></circle><line x1="320.516" y1="141" x2="879.4840000000002" y2="258.7777777777778" stroke="#ffd336" stroke-width="1.2878333784590181" opacity="0.5"></line><circle cx="879.4840000000002" cy="258.7777777777778" r="2" fill="#ffd336" opacity="0.5"></circle></g><g class="slope"><text font-size="15.60" x="277.2" y="239.9" text-anchor="end" fill="#333"><tspan x="277.16" y="239.9022222222222">Germany</tspan></text><text x="312.516" y="239.9022222222222" text-anchor="end" font-size="15.600000000000001" fill="#333">56%</text><circle cx="320.516" cy="235.22222222222223" r="2" fill="#ffd336" opacity="0.5"></circle><line x1="320.516" y1="235.22222222222223" x2="879.4840000000002" y2="276.44444444444446" stroke="#ffd336" stroke-width="1.324679518773802" opacity="0.5"></line><circle cx="879.4840000000002" cy="276.44444444444446" r="2" fill="#ffd336" opacity="0.5"></circle></g><g class="slope"><circle cx="320.516" cy="211.66666666666669" r="2" fill="#ffd336" opacity="0.5"></circle><line x1="320.516" y1="211.66666666666669" x2="879.4840000000002" y2="270.55555555555554" stroke="#ffd336" stroke-width="1.4649332681720177" opacity="0.5"></line><circle cx="879.4840000000002" cy="270.55555555555554" r="2" fill="#ffd336" opacity="0.5"></circle></g><g class="slope"><text font-size="15.60" x="277.2" y="128.0" text-anchor="end" fill="#333"><tspan x="277.16" y="128.01333333333332">Japan</tspan></text><text x="312.516" y="128.01333333333332" text-anchor="end" font-size="15.600000000000001" fill="#333">75%</text><circle cx="320.516" cy="123.33333333333331" r="2" fill="#d14e5b" opacity="0.5"></circle><line x1="320.516" y1="123.33333333333331" x2="879.4840000000002" y2="270.55555555555554" stroke="#d14e5b" stroke-width="1.5847699209958064" opacity="0.5"></line><circle cx="879.4840000000002" cy="270.55555555555554" r="2" fill="#d14e5b" opacity="0.5"></circle><text x="887.4840000000002" y="275.23555555555555" dominant-baseline="middle" font-size="15.600000000000001" fill="#333">50%</text><text font-size="15.60" x="922.8" y="275.2" fill="labelColor"><tspan x="922.8400000000001" y="275.23555555555555">Japan</tspan></text></g><g class="slope"><text font-size="15.60" x="277.2" y="216.3" text-anchor="end" fill="#333"><tspan x="277.16" y="216.34666666666666">India</tspan></text><text x="312.516" y="216.34666666666666" text-anchor="end" font-size="15.600000000000001" fill="#333">60%</text><circle cx="320.516" cy="211.66666666666669" r="2" fill="#d14e5b" opacity="0.5"></circle><line x1="320.516" y1="211.66666666666669" x2="879.4840000000002" y2="388.33333333333337" stroke="#d14e5b" stroke-width="4" opacity="0.5"></line><circle cx="879.4840000000002" cy="388.33333333333337" r="2" fill="#d14e5b" opacity="0.5"></circle><text x="887.4840000000002" y="393.0133333333334" dominant-baseline="middle" font-size="15.600000000000001" fill="#333">30%</text><text font-size="15.60" x="922.8" y="393.0" fill="labelColor"><tspan x="922.8400000000001" y="393.0133333333334">India</tspan></text></g></g></g></g></svg>