<svg xmlns="http://www.w3.org/2000/svg" version="1.1" style="font-family: 'Helvetica Neue', Helvetica, Arial, sans-serif; font-size: 24px; background-color: white;" width="1200" height="630"><g class="ChartTab"><g class="LabelledSlopes"><rect x="15" y="35" width="1170" height="580" fill="rgba(0,0,0,0)" opacity="0"></rect><g class="gridlines"><line x1="324.65999999999997" y1="565" x2="875.3399999999999" y2="565" stroke="#eee" stroke-dasharray="3,2"></line><line x1="324.65999999999997" y1="441.90893165901474" x2="875.3399999999999" y2="441.90893165901474" stroke="#eee" stroke-dasharray="3,2"></line><line x1="324.65999999999997" y1="318.8178633180295" x2="875.3399999999999" y2="318.8178633180295" stroke="#eee" stroke-dasharray="3,2"></line><line x1="324.65999999999997" y1="195.72679497704428" x2="875.3399999999999" y2="195.72679497704428" stroke="#eee" stroke-dasharray="3,2"></line><line x1="324.65999999999997" y1="72.63572663605902" x2="875.3399999999999" y2="72.63572663605902" stroke="#eee" stroke-dasharray="3,2"></line></g><g font-size="0.8em" class="axis"><text x="15" y="565" fill="#666" dominant-baseline="middle" text-anchor="start">0%</text><text x="15" y="441.90893165901474" fill="#666" dominant-baseline="middle" text-anchor="start">2%</text><text x="15" y="318.8178633180295" fill="#666" dominant-baseline="middle" text-anchor="start">4%</text><text x="15" y="195.72679497704428" fill="#666" dominant-baseline="middle" text-anchor="start">6%</text><text x="15" y="72.63572663605902" fill="#666" dominant-baseline="middle" text-anchor="start">8%</text></g><g font-size="0.8em" class="axis"><text x="1185" y="565" fill="#666" dominant-baseline="middle" text-anchor="end">0%</text><text x="1185" y="441.90893165901474" fill="#666" dominant-baseline="middle" text-anchor="end">2%</text><text x="1185" y="318.8178633180295" fill="#666" dominant-baseline="middle" text-anchor="end">4%</text><text x="1185" y="195.72679497704428" fill="#666" dominant-baseline="middle" text-anchor="end">6%</text><text x="1185" y="72.63572663605902" fill="#666" dominant-baseline="middle" text-anchor="end">8%</text></g><line x1="324.65999999999997" y1="565" x2="324.65999999999997" y2="35" stroke="#333"></line><line x1="875.3399999999999" y1="565" x2="875.3399999999999" y2="35" stroke="#333"></line><text x="324.65999999999997" y="594.2" text-anchor="middle" fill="#666" font-size="24">1995</text><text x="875.3399999999999" y="594.2" text-anchor="middle" fill="#666" font-size="24">2010</text><g class="slopes"><g class="slope"><circle cx="324.65999999999997" cy="275.4941068612305" r="2" fill="#ff7f0e" opacity="0.5"></circle><line x1="324.65999999999997" y1="275.4941068612305" x2="875.3399999999999" y2="224.0835980395188" stroke="#ff7f0e" stroke-width="1" opacity="0.5"></line><circle cx="875.3399999999999" cy="224.0835980395188" r="2" fill="#ff7f0e" opacity="0.5"></circle></g><g class="slope"><circle cx="324.65999999999997" cy="218.46202494777543" r="2" fill="#ff7f0e" opacity="0.5"></circle><line x1="324.65999999999997" y1="218.46202494777543" x2="875.3399999999999" y2="233.02369354305165" stroke="#ff7f0e" stroke-width="1" opacity="0.5"></line><circle cx="875.3399999999999" cy="233.02369354305165" r="2" fill="#ff7f0e" opacity="0.5"></circle></g><g class="slope"><circle cx="324.65999999999997" cy="340.0673840727552" r="2" fill="#ff7f0e" opacity="0.5"></circle><line x1="324.65999999999997" y1="340.0673840727552" x2="875.3399999999999" y2="174.63390755278357" stroke="#ff7f0e" stroke-width="1" opacity="0.5"></line><circle cx="875.3399999999999" cy="174.63390755278357" r="2" fill="#ff7f0e" opacity="0.5"></circle></g><g class="slope"><circle cx="324.65999999999997" cy="334.14762144285675" r="2" fill="#ff7f0e" opacity="0.5"></circle><line x1="324.65999999999997" y1="334.14762144285675" x2="875.3399999999999" y2="224.83783569179553" stroke="#ff7f0e" stroke-width="1" opacity="0.5"></line><circle cx="875.3399999999999" cy="224.83783569179553" r="2" fill="#ff7f0e" opacity="0.5"></circle></g><g class="slope"><circle cx="324.65999999999997" cy="267.0863841960133" r="2" fill="#ff7f0e" opacity="0.5"></circle><line x1="324.65999999999997" y1="267.0863841960133" x2="875.3399999999999" y2="231.79677525240504" stroke="#ff7f0e" stroke-width="1" opacity="0.5"></line><circle cx="875.3399999999999" cy="231.79677525240504" r="2" fill="#ff7f0e" opacity="0.5"></circle></g><g class="slope"><circle cx="324.65999999999997" cy="266.4500048893539" r="2" fill="#ff7f0e" opacity="0.5"></circle><line x1="324.65999999999997" y1="266.4500048893539" x2="875.3399999999999" y2="227.912952446576" stroke="#ff7f0e" stroke-width="1" opacity="0.5"></line><circle cx="875.3399999999999" cy="227.912952446576" r="2" fill="#ff7f0e" opacity="0.5"></circle></g><g class="slope"><circle cx="324.65999999999997" cy="357.3059793087857" r="2" fill="#ffd336" opacity="0.5"></circle><line x1="324.65999999999997" y1="357.3059793087857" x2="875.3399999999999" y2="422.8685872358741" stroke="#ffd336" stroke-width="1" opacity="0.5"></line><circle cx="875.3399999999999" cy="422.8685872358741" r="2" fill="#ffd336" opacity="0.5"></circle></g><g class="slope"><circle cx="324.65999999999997" cy="265.81362558269393" r="2" fill="#ff7f0e" opacity="0.5"></circle><line x1="324.65999999999997" y1="265.81362558269393" x2="875.3399999999999" y2="231.06378497120022" stroke="#ff7f0e" stroke-width="1" opacity="0.5"></line><circle cx="875.3399999999999" cy="231.06378497120022" r="2" fill="#ff7f0e" opacity="0.5"></circle></g><g class="slope"><circle cx="324.65999999999997" cy="374.8547670867964" r="2" fill="#ff7f0e" opacity="0.5"></circle><line x1="324.65999999999997" y1="374.8547670867964" x2="875.3399999999999" y2="341.23275395320604" stroke="#ff7f0e" stroke-width="1" opacity="0.5"></line><circle cx="875.3399999999999" cy="341.23275395320604" r="2" fill="#ff7f0e" opacity="0.5"></circle></g><g class="slope"><circle cx="324.65999999999997" cy="271.74043887681927" r="2" fill="#ff7f0e" opacity="0.5"></circle><line x1="324.65999999999997" y1="271.74043887681927" x2="875.3399999999999" y2="232.60548130345427" stroke="#ff7f0e" stroke-width="1" opacity="0.5"></line><circle cx="875.3399999999999" cy="232.60548130345427" r="2" fill="#ff7f0e" opacity="0.5"></circle></g><g class="slope"><circle cx="324.65999999999997" cy="345.9871467026537" r="2" fill="#ff7f0e" opacity="0.5"></circle><line x1="324.65999999999997" y1="345.9871467026537" x2="875.3399999999999" y2="268.01264044710496" stroke="#ff7f0e" stroke-width="1" opacity="0.5"></line><circle cx="875.3399999999999" cy="268.01264044710496" r="2" fill="#ff7f0e" opacity="0.5"></circle></g><g class="slope"><circle cx="324.65999999999997" cy="345.9871467026537" r="2" fill="#ff7f0e" opacity="0.5"></circle><line x1="324.65999999999997" y1="345.9871467026537" x2="875.3399999999999" y2="277.8002243233335" stroke="#ff7f0e" stroke-width="1" opacity="0.5"></line><circle cx="875.3399999999999" cy="277.8002243233335" r="2" fill="#ff7f0e" opacity="0.5"></circle></g><g class="slope"><circle cx="324.65999999999997" cy="277.91777452337664" r="2" fill="#ff7f0e" opacity="0.5"></circle><line x1="324.65999999999997" y1="277.91777452337664" x2="875.3399999999999" y2="270.14333503547056" stroke="#ff7f0e" stroke-width="1" opacity="0.5"></line><circle cx="875.3399999999999" cy="270.14333503547056" r="2" fill="#ff7f0e" opacity="0.5"></circle></g><g class="slope"><circle cx="324.65999999999997" cy="414.8618243264568" r="2" fill="#ff7f0e" opacity="0.5"></circle><line x1="324.65999999999997" y1="414.8618243264568" x2="875.3399999999999" y2="314.0613208863559" stroke="#ff7f0e" stroke-width="1" opacity="0.5"></line><circle cx="875.3399999999999" cy="314.0613208863559" r="2" fill="#ff7f0e" opacity="0.5"></circle></g><g class="slope"><circle cx="324.65999999999997" cy="414.8618243264568" r="2" fill="#ff7f0e" opacity="0.5"></circle><line x1="324.65999999999997" y1="414.8618243264568" x2="875.3399999999999" y2="314.0613208863559" stroke="#ff7f0e" stroke-width="1" opacity="0.5"></line><circle cx="875.3399999999999" cy="314.0613208863559" r="2" fill="#ff7f0e" opacity="0.5"></circle></g><g class="slope"><circle cx="324.65999999999997" cy="280.17341480558366" r="2" fill="#ff7f0e" opacity="0.5"></circle><line x1="324.65999999999997" y1="280.17341480558366" x2="875.3399999999999" y2="235.73693000405405" stroke="#ff7f0e" stroke-width="1" opacity="0.5"></line><circle cx="875.3399999999999" cy="235.73693000405405" r="2" fill="#ff7f0e" opacity="0.5"></circle></g><g class="slope"><circle cx="324.65999999999997" cy="349.41953624118617" r="2" fill="#ff7f0e" opacity="0.5"></circle><line x1="324.65999999999997" y1="349.41953624118617" x2="875.3399999999999" y2="305.4667959715266" stroke="#ff7f0e" stroke-width="1" opacity="0.5"></line><circle cx="875.3399999999999" cy="305.4667959715266" r="2" fill="#ff7f0e" opacity="0.5"></circle></g><g class="slope"><circle cx="324.65999999999997" cy="333.5617046424939" r="2" fill="#ff7f0e" opacity="0.5"></circle><line x1="324.65999999999997" y1="333.5617046424939" x2="875.3399999999999" y2="263.5939796383606" stroke="#ff7f0e" stroke-width="1" opacity="0.5"></line><circle cx="875.3399999999999" cy="263.5939796383606" r="2" fill="#ff7f0e" opacity="0.5"></circle></g><g class="slope"><circle cx="324.65999999999997" cy="339.4457737432947" r="2" fill="#ff7f0e" opacity="0.5"></circle><line x1="324.65999999999997" y1="339.4457737432947" x2="875.3399999999999" y2="262.80157595558586" stroke="#ff7f0e" stroke-width="1" opacity="0.5"></line><circle cx="875.3399999999999" cy="262.80157595558586" r="2" fill="#ff7f0e" opacity="0.5"></circle></g><g class="slope"><circle cx="324.65999999999997" cy="499.48047375900944" r="2" fill="#ffd336" opacity="0.5"></circle><line x1="324.65999999999997" y1="499.48047375900944" x2="875.3399999999999" y2="483.7463552718585" stroke="#ffd336" stroke-width="1.0002552741468747" opacity="0.5"></line><circle cx="875.3399999999999" cy="483.7463552718585" r="2" fill="#ffd336" opacity="0.5"></circle><text x="883.3399999999999" y="488.4263552718585" dominant-baseline="middle" font-size="15.600000000000001" fill="#333">1.32%</text><text font-size="15.60" x="931.8" y="488.4" fill="labelColor"><tspan x="931.8" y="488.4263552718585">Monaco</tspan></text></g><g class="slope"><circle cx="324.65999999999997" cy="357.67155734946294" r="2" fill="#4d824b" opacity="0.5"></circle><line x1="324.65999999999997" y1="357.67155734946294" x2="875.3399999999999" y2="156.74323959616902" stroke="#4d824b" stroke-width="1.001501194242918" opacity="0.5"></line><circle cx="875.3399999999999" cy="156.74323959616902" r="2" fill="#4d824b" opacity="0.5"></circle></g><g class="slope"><circle cx="324.65999999999997" cy="273.4064792853638" r="2" fill="#ffd336" opacity="0.5"></circle><line x1="324.65999999999997" y1="273.4064792853638" x2="875.3399999999999" y2="121.52933174880565" stroke="#ffd336" stroke-width="1.006216375567949" opacity="0.5"></line><circle cx="875.3399999999999" cy="121.52933174880565" r="2" fill="#ffd336" opacity="0.5"></circle><text x="883.3399999999999" y="126.20933174880565" dominant-baseline="middle" font-size="15.600000000000001" fill="#333">7.21%</text><text font-size="15.60" x="931.8" y="126.2" fill="labelColor"><tspan x="931.8" y="126.20933174880565">Iceland</tspan></text></g><g class="slope"><circle cx="324.65999999999997" cy="217.07447477098924" r="2" fill="#5675c1" opacity="0.5"></circle><line x1="324.65999999999997" y1="217.07447477098924" x2="875.3399999999999" y2="187.90312556514107" stroke="#5675c1" stroke-width="1.0089471532505798" opacity="0.5"></line><circle cx="875.3399999999999" cy="187.90312556514107" r="2" fill="#5675c1" opacity="0.5"></circle></g><g class="slope"><circle cx="324.65999999999997" cy="211.59755401628553" r="2" fill="#a652ba" opacity="0.5"></circle><line x1="324.65999999999997" y1="211.59755401628553" x2="875.3399999999999" y2="133.4753433151455" stroke="#a652ba" stroke-width="1.0105030252820315" opacity="0.5"></line><circle cx="875.3399999999999" cy="133.4753433151455" r="2" fill="#a652ba" opacity="0.5"></circle></g><g class="slope"><text font-size="15.60" x="268.2" y="412.5" text-anchor="end" fill="#333"><tspan x="268.19999999999993" y="412.51978462257773">Gambia</tspan></text><text x="316.65999999999997" y="412.51978462257773" text-anchor="end" font-size="15.600000000000001" fill="#333">2.55%</text><circle cx="324.65999999999997" cy="407.8397846225777" r="2" fill="#5675c1" opacity="0.5"></circle><line x1="324.65999999999997" y1="407.8397846225777" x2="875.3399999999999" y2="309.3780143863281" stroke="#5675c1" stroke-width="1.010866877069958" opacity="0.5"></line><circle cx="875.3399999999999" cy="309.3780143863281" r="2" fill="#5675c1" opacity="0.5"></circle><text x="883.3399999999999" y="314.0580143863281" dominant-baseline="middle" font-size="15.600000000000001" fill="#333">4.15%</text><text font-size="15.60" x="931.8" y="314.1" fill="labelColor"><tspan x="931.8" y="314.0580143863281">Gambia</tspan></text></g><g class="slope"><circle cx="324.65999999999997" cy="342.861244622403" r="2" fill="#69c487" opacity="0.5"></circle><line x1="324.65999999999997" y1="342.861244622403" x2="875.3399999999999" y2="339.6473302965074" stroke="#69c487" stroke-width="1.0178416291195231" opacity="0.5"></line><circle cx="875.3399999999999" cy="339.6473302965074" r="2" fill="#69c487" opacity="0.5"></circle></g><g class="slope"><circle cx="324.65999999999997" cy="332.25202725457615" r="2" fill="#ffd336" opacity="0.5"></circle><line x1="324.65999999999997" y1="332.25202725457615" x2="875.3399999999999" y2="160.01501192216068" stroke="#ffd336" stroke-width="1.0198818218876224" opacity="0.5"></line><circle cx="875.3399999999999" cy="160.01501192216068" r="2" fill="#ffd336" opacity="0.5"></circle></g><g class="slope"><circle cx="324.65999999999997" cy="176.00084132324594" r="2" fill="#4d824b" opacity="0.5"></circle><line x1="324.65999999999997" y1="176.00084132324594" x2="875.3399999999999" y2="235.0593178847468" stroke="#4d824b" stroke-width="1.021616396935258" opacity="0.5"></line><circle cx="875.3399999999999" cy="235.0593178847468" r="2" fill="#4d824b" opacity="0.5"></circle></g><g class="slope"><circle cx="324.65999999999997" cy="297.16614655680365" r="2" fill="#d14e5b" opacity="0.5"></circle><line x1="324.65999999999997" y1="297.16614655680365" x2="875.3399999999999" y2="259.17531882961566" stroke="#d14e5b" stroke-width="1.0312850302735652" opacity="0.5"></line><circle cx="875.3399999999999" cy="259.17531882961566" r="2" fill="#d14e5b" opacity="0.5"></circle></g><g class="slope"><circle cx="324.65999999999997" cy="263.8737171260167" r="2" fill="#5675c1" opacity="0.5"></circle><line x1="324.65999999999997" y1="263.8737171260167" x2="875.3399999999999" y2="182.31665172174468" stroke="#5675c1" stroke-width="1.0343373177981239" opacity="0.5"></line><circle cx="875.3399999999999" cy="182.31665172174468" r="2" fill="#5675c1" opacity="0.5"></circle></g><g class="slope"><circle cx="324.65999999999997" cy="428.07780285394267" r="2" fill="#d14e5b" opacity="0.5"></circle><line x1="324.65999999999997" y1="428.07780285394267" x2="875.3399999999999" y2="464.57430796262554" stroke="#d14e5b" stroke-width="1.0362860475175173" opacity="0.5"></line><circle cx="875.3399999999999" cy="464.57430796262554" r="2" fill="#d14e5b" opacity="0.5"></circle></g><g class="slope"><circle cx="324.65999999999997" cy="191.23027605302968" r="2" fill="#ffd336" opacity="0.5"></circle><line x1="324.65999999999997" y1="191.23027605302968" x2="875.3399999999999" y2="224.83783569179553" stroke="#ffd336" stroke-width="1.0365234291360301" opacity="0.5"></line><circle cx="875.3399999999999" cy="224.83783569179553" r="2" fill="#ffd336" opacity="0.5"></circle></g><g class="slope"><text font-size="15.60" x="268.2" y="150.6" text-anchor="end" fill="#333"><tspan x="268.19999999999993" y="150.59060201290728">Finland</tspan></text><text x="316.65999999999997" y="150.59060201290728" text-anchor="end" font-size="15.600000000000001" fill="#333">6.81%</text><circle cx="324.65999999999997" cy="145.9106020129073" r="2" fill="#ffd336" opacity="0.5"></circle><line x1="324.65999999999997" y1="145.9106020129073" x2="875.3399999999999" y2="162.23310246502064" stroke="#ffd336" stroke-width="1.0438431402417114" opacity="0.5"></line><circle cx="875.3399999999999" cy="162.23310246502064" r="2" fill="#ffd336" opacity="0.5"></circle></g><g class="slope"><text font-size="15.60" x="268.2" y="338.8" text-anchor="end" fill="#333"><tspan x="268.19999999999993" y="338.82762144285675">Jamaica</tspan></text><text x="316.65999999999997" y="338.82762144285675" text-anchor="end" font-size="15.600000000000001" fill="#333">3.75%</text><circle cx="324.65999999999997" cy="334.14762144285675" r="2" fill="#4d824b" opacity="0.5"></circle><line x1="324.65999999999997" y1="334.14762144285675" x2="875.3399999999999" y2="174.63390755278357" stroke="#4d824b" stroke-width="1.0439542739582437" opacity="0.5"></line><circle cx="875.3399999999999" cy="174.63390755278357" r="2" fill="#4d824b" opacity="0.5"></circle><text x="883.3399999999999" y="179.31390755278355" dominant-baseline="middle" font-size="15.600000000000001" fill="#333">6.34%</text><text font-size="15.60" x="931.8" y="179.3" fill="labelColor"><tspan x="931.8" y="179.31390755278355">Jamaica</tspan></text></g><g class="slope"><text font-size="15.60" x="268.2" y="254.0" text-anchor="end" fill="#333"><tspan x="268.19999999999993" y="254.00989162688995">Australia</tspan></text><text x="316.65999999999997" y="254.00989162688995" text-anchor="end" font-size="15.600000000000001" fill="#333">5.13%</text><circle cx="324.65999999999997" cy="249.32989162688995" r="2" fill="#a652ba" opacity="0.5"></circle><line x1="324.65999999999997" y1="249.32989162688995" x2="875.3399999999999" y2="223.10039355145676" stroke="#a652ba" stroke-width="1.0493998260683246" opacity="0.5"></line><circle cx="875.3399999999999" cy="223.10039355145676" r="2" fill="#a652ba" opacity="0.5"></circle></g><g class="slope"><text font-size="15.60" x="276.9" y="470.9" text-anchor="end" fill="#333"><tspan x="276.936" y="470.9117276318705">Guatemala</tspan></text><text x="316.65999999999997" y="470.9117276318705" text-anchor="end" font-size="15.600000000000001" fill="#333">1.6%</text><circle cx="324.65999999999997" cy="466.2317276318705" r="2" fill="#4d824b" opacity="0.5"></circle><line x1="324.65999999999997" y1="466.2317276318705" x2="875.3399999999999" y2="392.4355579838051" stroke="#4d824b" stroke-width="1.0503961398370365" opacity="0.5"></line><circle cx="875.3399999999999" cy="392.4355579838051" r="2" fill="#4d824b" opacity="0.5"></circle></g><g class="slope"><circle cx="324.65999999999997" cy="437.8481599251721" r="2" fill="#d14e5b" opacity="0.5"></circle><line x1="324.65999999999997" y1="437.8481599251721" x2="875.3399999999999" y2="318.4024243886066" stroke="#d14e5b" stroke-width="1.0512478686405398" opacity="0.5"></line><circle cx="875.3399999999999" cy="318.4024243886066" r="2" fill="#d14e5b" opacity="0.5"></circle></g><g class="slope"><circle cx="324.65999999999997" cy="261.95963420323915" r="2" fill="#ffd336" opacity="0.5"></circle><line x1="324.65999999999997" y1="261.95963420323915" x2="875.3399999999999" y2="222.65234988548508" stroke="#ffd336" stroke-width="1.0515851594702152" opacity="0.5"></line><circle cx="875.3399999999999" cy="222.65234988548508" r="2" fill="#ffd336" opacity="0.5"></circle></g><g class="slope"><text font-size="15.60" x="290.0" y="446.7" text-anchor="end" fill="#333"><tspan x="290.03999999999996" y="446.7341782768058">Ecuador</tspan></text><text x="316.65999999999997" y="446.7341782768058" text-anchor="end" font-size="15.600000000000001" fill="#333">2%</text><circle cx="324.65999999999997" cy="442.05417827680577" r="2" fill="#69c487" opacity="0.5"></circle><line x1="324.65999999999997" y1="442.05417827680577" x2="875.3399999999999" y2="287.58780819956263" stroke="#69c487" stroke-width="1.054956511894938" opacity="0.5"></line><circle cx="875.3399999999999" cy="287.58780819956263" r="2" fill="#69c487" opacity="0.5"></circle><text x="883.3399999999999" y="292.26780819956264" dominant-baseline="middle" font-size="15.600000000000001" fill="#333">4.51%</text><text font-size="15.60" x="931.8" y="292.3" fill="labelColor"><tspan x="931.8" y="292.26780819956264">Ecuador</tspan></text></g><g class="slope"><circle cx="324.65999999999997" cy="91.29755090437516" r="2" fill="#ffd336" opacity="0.5"></circle><line x1="324.65999999999997" y1="91.29755090437516" x2="875.3399999999999" y2="149.5559641645247" stroke="#ffd336" stroke-width="1.054956511894938" opacity="0.5"></line><circle cx="875.3399999999999" cy="149.5559641645247" r="2" fill="#ffd336" opacity="0.5"></circle></g><g class="slope"><circle cx="324.65999999999997" cy="186.09924136940452" r="2" fill="#d14e5b" opacity="0.5"></circle><line x1="324.65999999999997" y1="186.09924136940452" x2="875.3399999999999" y2="206.27570385377413" stroke="#d14e5b" stroke-width="1.0583286422556766" opacity="0.5"></line><circle cx="875.3399999999999" cy="206.27570385377413" r="2" fill="#d14e5b" opacity="0.5"></circle></g><g class="slope"><text font-size="15.60" x="268.2" y="111.4" text-anchor="end" fill="#333"><tspan x="268.19999999999993" y="111.42612115874209">Denmark</tspan></text><text x="316.65999999999997" y="111.42612115874209" text-anchor="end" font-size="15.600000000000001" fill="#333">7.45%</text><circle cx="324.65999999999997" cy="106.74612115874208" r="2" fill="#ffd336" opacity="0.5"></circle><line x1="324.65999999999997" y1="106.74612115874208" x2="875.3399999999999" y2="35" stroke="#ffd336" stroke-width="1.0771832552013914" opacity="0.5"></line><circle cx="875.3399999999999" cy="35" r="2" fill="#ffd336" opacity="0.5"></circle><text x="883.3399999999999" y="39.68" dominant-baseline="middle" font-size="15.600000000000001" fill="#333">8.61%</text><text font-size="15.60" x="931.8" y="39.7" fill="labelColor"><tspan x="931.8" y="39.68">Denmark</tspan></text></g><g class="slope"><circle cx="324.65999999999997" cy="318.2731793303146" r="2" fill="#5675c1" opacity="0.5"></circle><line x1="324.65999999999997" y1="318.2731793303146" x2="875.3399999999999" y2="347.1454218980817" stroke="#5675c1" stroke-width="1.081295202713085" opacity="0.5"></line><circle cx="875.3399999999999" cy="347.1454218980817" r="2" fill="#5675c1" opacity="0.5"></circle></g><g class="slope"><circle cx="324.65999999999997" cy="402.4600911335692" r="2" fill="#69c487" opacity="0.5"></circle><line x1="324.65999999999997" y1="402.4600911335692" x2="875.3399999999999" y2="307.6682760005373" stroke="#69c487" stroke-width="1.0851234258464721" opacity="0.5"></line><circle cx="875.3399999999999" cy="307.6682760005373" r="2" fill="#69c487" opacity="0.5"></circle></g><g class="slope"><circle cx="324.65999999999997" cy="271.74043887681927" r="2" fill="#ffd336" opacity="0.5"></circle><line x1="324.65999999999997" y1="271.74043887681927" x2="875.3399999999999" y2="238.86837870465445" stroke="#ffd336" stroke-width="1.0859244776752368" opacity="0.5"></line><circle cx="875.3399999999999" cy="238.86837870465445" r="2" fill="#ffd336" opacity="0.5"></circle></g><g class="slope"><circle cx="324.65999999999997" cy="169.27698748912314" r="2" fill="#5675c1" opacity="0.5"></circle><line x1="324.65999999999997" y1="169.27698748912314" x2="875.3399999999999" y2="180.0443862520895" stroke="#5675c1" stroke-width="1.088296626854618" opacity="0.5"></line><circle cx="875.3399999999999" cy="180.0443862520895" r="2" fill="#5675c1" opacity="0.5"></circle></g><g class="slope"><circle cx="324.65999999999997" cy="359.59978562149007" r="2" fill="#d14e5b" opacity="0.5"></circle><line x1="324.65999999999997" y1="359.59978562149007" x2="875.3399999999999" y2="393.8652507363656" stroke="#d14e5b" stroke-width="1.097182878828538" opacity="0.5"></line><circle cx="875.3399999999999" cy="393.8652507363656" r="2" fill="#d14e5b" opacity="0.5"></circle></g><g class="slope"><circle cx="324.65999999999997" cy="256.50915527358626" r="2" fill="#5675c1" opacity="0.5"></circle><line x1="324.65999999999997" y1="256.50915527358626" x2="875.3399999999999" y2="146.16357485633944" stroke="#5675c1" stroke-width="1.099309644761816" opacity="0.5"></line><circle cx="875.3399999999999" cy="146.16357485633944" r="2" fill="#5675c1" opacity="0.5"></circle></g><g class="slope"><circle cx="324.65999999999997" cy="260.92320857230504" r="2" fill="#4d824b" opacity="0.5"></circle><line x1="324.65999999999997" y1="260.92320857230504" x2="875.3399999999999" y2="230.98806920135644" stroke="#4d824b" stroke-width="1.1105233701610713" opacity="0.5"></line><circle cx="875.3399999999999" cy="230.98806920135644" r="2" fill="#4d824b" opacity="0.5"></circle></g><g class="slope"><circle cx="324.65999999999997" cy="300.2311091812096" r="2" fill="#5675c1" opacity="0.5"></circle><line x1="324.65999999999997" y1="300.2311091812096" x2="875.3399999999999" y2="284.1911048533285" stroke="#5675c1" stroke-width="1.120362038085673" opacity="0.5"></line><circle cx="875.3399999999999" cy="284.1911048533285" r="2" fill="#5675c1" opacity="0.5"></circle></g><g class="slope"><circle cx="324.65999999999997" cy="219.84217963076344" r="2" fill="#69c487" opacity="0.5"></circle><line x1="324.65999999999997" y1="219.84217963076344" x2="875.3399999999999" y2="97.66876881196862" stroke="#69c487" stroke-width="1.1216367418142978" opacity="0.5"></line><circle cx="875.3399999999999" cy="97.66876881196862" r="2" fill="#69c487" opacity="0.5"></circle><text x="883.3399999999999" y="102.34876881196863" dominant-baseline="middle" font-size="15.600000000000001" fill="#333">7.59%</text><text font-size="15.60" x="931.8" y="102.3" fill="labelColor"><tspan x="931.8" y="102.34876881196863">Bolivia</tspan></text></g><g class="slope"><circle cx="324.65999999999997" cy="252.73272853742515" r="2" fill="#ffd336" opacity="0.5"></circle><line x1="324.65999999999997" y1="252.73272853742515" x2="875.3399999999999" y2="260.4074609214375" stroke="#ffd336" stroke-width="1.1327501134675246" opacity="0.5"></line><circle cx="875.3399999999999" cy="260.4074609214375" r="2" fill="#ffd336" opacity="0.5"></circle></g><g class="slope"><circle cx="324.65999999999997" cy="383.03509299130235" r="2" fill="#d14e5b" opacity="0.5"></circle><line x1="324.65999999999997" y1="383.03509299130235" x2="875.3399999999999" y2="459.2204620179157" stroke="#d14e5b" stroke-width="1.134194851782444" opacity="0.5"></line><circle cx="875.3399999999999" cy="459.2204620179157" r="2" fill="#d14e5b" opacity="0.5"></circle><text x="883.3399999999999" y="463.9004620179157" dominant-baseline="middle" font-size="15.600000000000001" fill="#333">1.72%</text><text font-size="15.60" x="931.8" y="463.9" fill="labelColor"><tspan x="931.8" y="463.9004620179157">Sri Lanka</tspan></text></g><g class="slope"><circle cx="324.65999999999997" cy="389.5004420352427" r="2" fill="#5675c1" opacity="0.5"></circle><line x1="324.65999999999997" y1="389.5004420352427" x2="875.3399999999999" y2="335.0406566662492" stroke="#5675c1" stroke-width="1.1377356831248786" opacity="0.5"></line><circle cx="875.3399999999999" cy="335.0406566662492" r="2" fill="#5675c1" opacity="0.5"></circle></g><g class="slope"><circle cx="324.65999999999997" cy="352.8519257797192" r="2" fill="#ffd336" opacity="0.5"></circle><line x1="324.65999999999997" y1="352.8519257797192" x2="875.3399999999999" y2="327.22128661879606" stroke="#ffd336" stroke-width="1.138306799294138" opacity="0.5"></line><circle cx="875.3399999999999" cy="327.22128661879606" r="2" fill="#ffd336" opacity="0.5"></circle></g><g class="slope"><circle cx="324.65999999999997" cy="289.7025085652287" r="2" fill="#69c487" opacity="0.5"></circle><line x1="324.65999999999997" y1="289.7025085652287" x2="875.3399999999999" y2="217.7127176246973" stroke="#69c487" stroke-width="1.138306799294138" opacity="0.5"></line><circle cx="875.3399999999999" cy="217.7127176246973" r="2" fill="#69c487" opacity="0.5"></circle></g><g class="slope"><circle cx="324.65999999999997" cy="265.4695883850659" r="2" fill="#ffd336" opacity="0.5"></circle><line x1="324.65999999999997" y1="265.4695883850659" x2="875.3399999999999" y2="191.75650065344547" stroke="#ffd336" stroke-width="1.1516098385641997" opacity="0.5"></line><circle cx="875.3399999999999" cy="191.75650065344547" r="2" fill="#ffd336" opacity="0.5"></circle><text x="883.3399999999999" y="196.43650065344545" dominant-baseline="middle" font-size="15.600000000000001" fill="#333">6.06%</text><text font-size="15.60" x="931.8" y="196.4" fill="labelColor"><tspan x="931.8" y="196.43650065344545">Ireland</tspan></text></g><g class="slope"><text font-size="15.60" x="268.2" y="185.9" text-anchor="end" fill="#333"><tspan x="268.19999999999993" y="185.901120834816">Sweden</tspan></text><text x="316.65999999999997" y="185.901120834816" text-anchor="end" font-size="15.600000000000001" fill="#333">6.24%</text><circle cx="324.65999999999997" cy="181.22112083481602" r="2" fill="#ffd336" opacity="0.5"></circle><line x1="324.65999999999997" y1="181.22112083481602" x2="875.3399999999999" y2="157.4466919229755" stroke="#ffd336" stroke-width="1.1520162545655583" opacity="0.5"></line><circle cx="875.3399999999999" cy="157.4466919229755" r="2" fill="#ffd336" opacity="0.5"></circle><text x="883.3399999999999" y="162.12669192297548" dominant-baseline="middle" font-size="15.600000000000001" fill="#333">6.62%</text><text font-size="15.60" x="931.8" y="162.1" fill="labelColor"><tspan x="931.8" y="162.12669192297548">Sweden</tspan></text></g><g class="slope"><circle cx="324.65999999999997" cy="265.81362558269393" r="2" fill="#ffd336" opacity="0.5"></circle><line x1="324.65999999999997" y1="265.81362558269393" x2="875.3399999999999" y2="270.14333503547056" stroke="#ffd336" stroke-width="1.1660902284272046" opacity="0.5"></line><circle cx="875.3399999999999" cy="270.14333503547056" r="2" fill="#ffd336" opacity="0.5"></circle></g><g class="slope"><circle cx="324.65999999999997" cy="279.2477748456417" r="2" fill="#ffd336" opacity="0.5"></circle><line x1="324.65999999999997" y1="279.2477748456417" x2="875.3399999999999" y2="223.32936038724137" stroke="#ffd336" stroke-width="1.210543715040111" opacity="0.5"></line><circle cx="875.3399999999999" cy="223.32936038724137" r="2" fill="#ffd336" opacity="0.5"></circle></g><g class="slope"><circle cx="324.65999999999997" cy="281.09905476552495" r="2" fill="#ffd336" opacity="0.5"></circle><line x1="324.65999999999997" y1="281.09905476552495" x2="875.3399999999999" y2="232.60548130345427" stroke="#ffd336" stroke-width="1.2216570866933378" opacity="0.5"></line><circle cx="875.3399999999999" cy="232.60548130345427" r="2" fill="#ffd336" opacity="0.5"></circle></g><g class="slope"><circle cx="324.65999999999997" cy="382.37224251239456" r="2" fill="#ffd336" opacity="0.5"></circle><line x1="324.65999999999997" y1="382.37224251239456" x2="875.3399999999999" y2="170.50789699864555" stroke="#ffd336" stroke-width="1.2216570866933378" opacity="0.5"></line><circle cx="875.3399999999999" cy="170.50789699864555" r="2" fill="#ffd336" opacity="0.5"></circle></g><g class="slope"><circle cx="324.65999999999997" cy="299.4020801958131" r="2" fill="#ffd336" opacity="0.5"></circle><line x1="324.65999999999997" y1="299.4020801958131" x2="875.3399999999999" y2="311.6859660482822" stroke="#ffd336" stroke-width="1.2372881550573176" opacity="0.5"></line><circle cx="875.3399999999999" cy="311.6859660482822" r="2" fill="#ffd336" opacity="0.5"></circle></g><g class="slope"><text font-size="15.60" x="268.2" y="234.4" text-anchor="end" fill="#333"><tspan x="268.19999999999993" y="234.43346194493492">Austria</tspan></text><text x="316.65999999999997" y="234.43346194493492" text-anchor="end" font-size="15.600000000000001" fill="#333">5.45%</text><circle cx="324.65999999999997" cy="229.75346194493494" r="2" fill="#ffd336" opacity="0.5"></circle><line x1="324.65999999999997" y1="229.75346194493494" x2="875.3399999999999" y2="213.09493608014225" stroke="#ffd336" stroke-width="1.277223944959471" opacity="0.5"></line><circle cx="875.3399999999999" cy="213.09493608014225" r="2" fill="#ffd336" opacity="0.5"></circle></g><g class="slope"><circle cx="324.65999999999997" cy="327.3062174086908" r="2" fill="#4d824b" opacity="0.5"></circle><line x1="324.65999999999997" y1="327.3062174086908" x2="875.3399999999999" y2="245.88825772110943" stroke="#4d824b" stroke-width="1.499491378024004" opacity="0.5"></line><circle cx="875.3399999999999" cy="245.88825772110943" r="2" fill="#4d824b" opacity="0.5"></circle><text x="883.3399999999999" y="250.5682577211094" dominant-baseline="middle" font-size="15.600000000000001" fill="#333">5.18%</text><text font-size="15.60" x="931.8" y="250.6" fill="labelColor"><tspan x="931.8" y="250.5682577211094">Mexico</tspan></text></g><g class="slope"><text font-size="15.60" x="268.2" y="376.2" text-anchor="end" fill="#333"><tspan x="268.19999999999993" y="376.2300818786811">Thailand</tspan></text><text x="316.65999999999997" y="376.2300818786811" text-anchor="end" font-size="15.600000000000001" fill="#333">3.14%</text><circle cx="324.65999999999997" cy="371.5500818786811" r="2" fill="#d14e5b" opacity="0.5"></circle><line x1="324.65999999999997" y1="371.5500818786811" x2="875.3399999999999" y2="348.9080879547693" stroke="#d14e5b" stroke-width="1.5178284412518281" opacity="0.5"></line><circle cx="875.3399999999999" cy="348.9080879547693" r="2" fill="#d14e5b" opacity="0.5"></circle></g><g class="slope"><text font-size="15.60" x="268.2" y="318.9" text-anchor="end" fill="#333"><tspan x="268.19999999999993" y="318.94473364981786">Iran</tspan></text><text x="316.65999999999997" y="318.94473364981786" text-anchor="end" font-size="15.600000000000001" fill="#333">4.07%</text><circle cx="324.65999999999997" cy="314.26473364981786" r="2" fill="#d14e5b" opacity="0.5"></circle><line x1="324.65999999999997" y1="314.26473364981786" x2="875.3399999999999" y2="327.0138752996595" stroke="#d14e5b" stroke-width="1.5550582362901373" opacity="0.5"></line><circle cx="875.3399999999999" cy="327.0138752996595" r="2" fill="#d14e5b" opacity="0.5"></circle></g><g class="slope"><circle cx="324.65999999999997" cy="284.09511016993343" r="2" fill="#ffd336" opacity="0.5"></circle><line x1="324.65999999999997" y1="284.09511016993343" x2="875.3399999999999" y2="314.061621695132" stroke="#ffd336" stroke-width="1.6124420196878564" opacity="0.5"></line><circle cx="875.3399999999999" cy="314.061621695132" r="2" fill="#ffd336" opacity="0.5"></circle></g><g class="slope"><circle cx="324.65999999999997" cy="298.4456843727721" r="2" fill="#ffd336" opacity="0.5"></circle><line x1="324.65999999999997" y1="298.4456843727721" x2="875.3399999999999" y2="254.0719585533401" stroke="#ffd336" stroke-width="1.6661919528224036" opacity="0.5"></line><circle cx="875.3399999999999" cy="254.0719585533401" r="2" fill="#ffd336" opacity="0.5"></circle></g><g class="slope"><text font-size="15.60" x="268.2" y="271.8" text-anchor="end" fill="#333"><tspan x="268.19999999999993" y="271.7663841960133">United Kingdom</tspan></text><text x="316.65999999999997" y="271.7663841960133" text-anchor="end" font-size="15.600000000000001" fill="#333">4.84%</text><circle cx="324.65999999999997" cy="267.0863841960133" r="2" fill="#ffd336" opacity="0.5"></circle><line x1="324.65999999999997" y1="267.0863841960133" x2="875.3399999999999" y2="207.62599776318945" stroke="#ffd336" stroke-width="1.7996198708270588" opacity="0.5"></line><circle cx="875.3399999999999" cy="207.62599776318945" r="2" fill="#ffd336" opacity="0.5"></circle></g><g class="slope"><circle cx="324.65999999999997" cy="291.12361726248673" r="2" fill="#ffd336" opacity="0.5"></circle><line x1="324.65999999999997" y1="291.12361726248673" x2="875.3399999999999" y2="268.14743212574604" stroke="#ffd336" stroke-width="1.974032347616782" opacity="0.5"></line><circle cx="875.3399999999999" cy="268.14743212574604" r="2" fill="#ffd336" opacity="0.5"></circle></g><g class="slope"><text font-size="15.60" x="268.2" y="396.2" text-anchor="end" fill="#333"><tspan x="268.19999999999993" y="396.19668255291344">Pakistan</tspan></text><text x="316.65999999999997" y="396.19668255291344" text-anchor="end" font-size="15.600000000000001" fill="#333">2.82%</text><circle cx="324.65999999999997" cy="391.51668255291344" r="2" fill="#d14e5b" opacity="0.5"></circle><line x1="324.65999999999997" y1="391.51668255291344" x2="875.3399999999999" y2="424.2564455582352" stroke="#d14e5b" stroke-width="2.197089385737277" opacity="0.5"></line><circle cx="875.3399999999999" cy="424.2564455582352" r="2" fill="#d14e5b" opacity="0.5"></circle><text x="883.3399999999999" y="428.9364455582352" dominant-baseline="middle" font-size="15.600000000000001" fill="#333">2.29%</text><text font-size="15.60" x="931.8" y="428.9" fill="labelColor"><tspan x="931.8" y="428.9364455582352">Pakistan</tspan></text></g><g class="slope"><text font-size="15.60" x="290.0" y="507.8" text-anchor="end" fill="#333"><tspan x="290.03999999999996" y="507.83104515337686">Indonesia</tspan></text><text x="316.65999999999997" y="507.83104515337686" text-anchor="end" font-size="15.600000000000001" fill="#333">1%</text><circle cx="324.65999999999997" cy="503.15104515337686" r="2" fill="#d14e5b" opacity="0.5"></circle><line x1="324.65999999999997" y1="503.15104515337686" x2="875.3399999999999" y2="391.8127077352457" stroke="#d14e5b" stroke-width="2.3777789171041754" opacity="0.5"></line><circle cx="875.3399999999999" cy="391.8127077352457" r="2" fill="#d14e5b" opacity="0.5"></circle><text x="883.3399999999999" y="396.4927077352457" dominant-baseline="middle" font-size="15.600000000000001" fill="#333">2.81%</text><text font-size="15.60" x="931.8" y="396.5" fill="labelColor"><tspan x="931.8" y="396.4927077352457">Indonesia</tspan></text></g><g class="slope"><circle cx="324.65999999999997" cy="298.3312009548801" r="2" fill="#ffd336" opacity="0.5"></circle><line x1="324.65999999999997" y1="298.3312009548801" x2="875.3399999999999" y2="296.37406569320325" stroke="#ffd336" stroke-width="2.477468083507949" opacity="0.5"></line><circle cx="875.3399999999999" cy="296.37406569320325" r="2" fill="#ffd336" opacity="0.5"></circle></g><g class="slope"><text font-size="15.60" x="268.2" y="297.8" text-anchor="end" fill="#333"><tspan x="268.19999999999993" y="297.7601362330133">Germany</tspan></text><text x="316.65999999999997" y="297.7601362330133" text-anchor="end" font-size="15.600000000000001" fill="#333">4.42%</text><circle cx="324.65999999999997" cy="293.0801362330133" r="2" fill="#ffd336" opacity="0.5"></circle><line x1="324.65999999999997" y1="293.0801362330133" x2="875.3399999999999" y2="262.578155740151" stroke="#ffd336" stroke-width="2.666395401612802" opacity="0.5"></line><circle cx="875.3399999999999" cy="262.578155740151" r="2" fill="#ffd336" opacity="0.5"></circle><text x="883.3399999999999" y="267.258155740151" dominant-baseline="middle" font-size="15.600000000000001" fill="#333">4.91%</text><text font-size="15.60" x="931.8" y="267.3" fill="labelColor"><tspan x="931.8" y="267.258155740151">Germany</tspan></text></g><g class="slope"><text font-size="15.60" x="268.2" y="213.8" text-anchor="end" fill="#333"><tspan x="268.19999999999993" y="213.79111269844347">France</tspan></text><text x="316.65999999999997" y="213.79111269844347" text-anchor="end" font-size="15.600000000000001" fill="#333">5.78%</text><circle cx="324.65999999999997" cy="209.1111126984435" r="2" fill="#ffd336" opacity="0.5"></circle><line x1="324.65999999999997" y1="209.1111126984435" x2="875.3399999999999" y2="215.47675463849077" stroke="#ffd336" stroke-width="3.3855416812930987" opacity="0.5"></line><circle cx="875.3399999999999" cy="215.47675463849077" r="2" fill="#ffd336" opacity="0.5"></circle><text x="883.3399999999999" y="220.15675463849075" dominant-baseline="middle" font-size="15.600000000000001" fill="#333">5.68%</text><text font-size="15.60" x="931.8" y="220.2" fill="labelColor"><tspan x="931.8" y="220.15675463849075">France</tspan></text></g><g class="slope"><text font-size="15.60" x="268.2" y="356.6" text-anchor="end" fill="#333"><tspan x="268.19999999999993" y="356.5761315742291">Japan</tspan></text><text x="316.65999999999997" y="356.5761315742291" text-anchor="end" font-size="15.600000000000001" fill="#333">3.46%</text><circle cx="324.65999999999997" cy="351.8961315742291" r="2" fill="#d14e5b" opacity="0.5"></circle><line x1="324.65999999999997" y1="351.8961315742291" x2="875.3399999999999" y2="341.23275395320604" stroke="#d14e5b" stroke-width="4" opacity="0.5"></line><circle cx="875.3399999999999" cy="341.23275395320604" r="2" fill="#d14e5b" opacity="0.5"></circle><text x="883.3399999999999" y="345.91275395320605" dominant-baseline="middle" font-size="15.600000000000001" fill="#333">3.64%</text><text font-size="15.60" x="931.8" y="345.9" fill="labelColor"><tspan x="931.8" y="345.91275395320605">Japan</tspan></text></g></g></g></g></svg>