<svg xmlns="http://www.w3.org/2000/svg" version="1.1" style="font-family: 'Helvetica Neue', Helvetica, Arial, sans-serif; font-size: 24px; background-color: white;" width="1200" height="630"><g class="ChartTab"><g class="LineChart"><defs><clipPath id="boundsClip-1871"><rect x="53.416000000000004" y="0" width="1180" height="1130"></rect></clipPath></defs><g class="AxisBoxView"><g class="HorizontalAxis"><text x="63.4" y="600" fill="#666" text-anchor="middle" font-size="21.6">1960</text><text x="238.6" y="600" fill="#666" text-anchor="middle" font-size="21.6">1970</text><text x="413.7" y="600" fill="#666" text-anchor="middle" font-size="21.6">1980</text><text x="588.8" y="600" fill="#666" text-anchor="middle" font-size="21.6">1990</text><text x="764" y="600" fill="#666" text-anchor="middle" font-size="21.6">2000</text><text x="939.1" y="600" fill="#666" text-anchor="middle" font-size="21.6">2010</text><text x="1044.2" y="600" fill="#666" text-anchor="middle" font-size="21.6">2016</text></g><g class="VerticalAxis"><text x="58.42" y="573.4" fill="#666" dominant-baseline="middle" text-anchor="end" font-size="21.6">0%</text><text x="58.42" y="491.4" fill="#666" dominant-baseline="middle" text-anchor="end" font-size="21.6">10%</text><text x="58.42" y="409.3" fill="#666" dominant-baseline="middle" text-anchor="end" font-size="21.6">20%</text><text x="58.42" y="327.3" fill="#666" dominant-baseline="middle" text-anchor="end" font-size="21.6">30%</text><text x="58.42" y="245.2" fill="#666" dominant-baseline="middle" text-anchor="end" font-size="21.6">40%</text><text x="58.42" y="163.2" fill="#666" dominant-baseline="middle" text-anchor="end" font-size="21.6">50%</text><text x="58.42" y="81.1" fill="#666" dominant-baseline="middle" text-anchor="end" font-size="21.6">60%</text></g><g class="AxisGridLines"><line x1="63.42" y1="573.4" x2="1044.22" y2="573.4" stroke="#ccc"></line><line x1="63.42" y1="491.4" x2="1044.22" y2="491.4" stroke="#ddd" stroke-dasharray="3,2"></line><line x1="63.42" y1="409.3" x2="1044.22" y2="409.3" stroke="#ddd" stroke-dasharray="3,2"></line><line x1="63.42" y1="327.3" x2="1044.22" y2="327.3" stroke="#ddd" stroke-dasharray="3,2"></line><line x1="63.42" y1="245.2" x2="1044.22" y2="245.2" stroke="#ddd" stroke-dasharray="3,2"></line><line x1="63.42" y1="163.2" x2="1044.22" y2="163.2" stroke="#ddd" stroke-dasharray="3,2"></line><line x1="63.42" y1="81.1" x2="1044.22" y2="81.1" stroke="#ddd" stroke-dasharray="3,2"></line></g><g class="AxisGridLines"><line x1="63.4" y1="573.40" x2="63.4" y2="35.00" stroke="#ddd" stroke-dasharray="3,2"></line><line x1="238.6" y1="573.40" x2="238.6" y2="35.00" stroke="#ddd" stroke-dasharray="3,2"></line><line x1="413.7" y1="573.40" x2="413.7" y2="35.00" stroke="#ddd" stroke-dasharray="3,2"></line><line x1="588.8" y1="573.40" x2="588.8" y2="35.00" stroke="#ddd" stroke-dasharray="3,2"></line><line x1="764" y1="573.40" x2="764" y2="35.00" stroke="#ddd" stroke-dasharray="3,2"></line><line x1="939.1" y1="573.40" x2="939.1" y2="35.00" stroke="#ddd" stroke-dasharray="3,2"></line></g></g><g clip-path="url(#boundsClip-1871)"><g class="HeightedLegend clickable"><g class="legendMark"><rect x="1054.224" y="87.6" width="65.11200000000001" height="19.200000000000003" fill="#fff" opacity="0"></rect><rect x="1054.224" y="95.94999999999999" width="10" height="2.5" fill="#818282"></rect><text font-size="19.20" x="1069.2" y="103.0" fill="#333"><tspan x="1069.224" y="102.96">World</tspan></text></g><g class="legendMark"><rect x="1054.224" y="237.20000000000002" width="56.85600000000001" height="19.200000000000003" fill="#fff" opacity="0"></rect><rect x="1054.224" y="245.55" width="10" height="2.5" fill="#f6a324"></rect><text font-size="19.20" x="1069.2" y="252.6" fill="#333"><tspan x="1069.224" y="252.56000000000003">India</tspan></text></g><g class="legendMark"><rect x="1054.224" y="259.7" width="65.304" height="19.200000000000003" fill="#fff" opacity="0"></rect><rect x="1054.224" y="268.05" width="10" height="2.5" fill="#932834"></rect><text font-size="19.20" x="1069.2" y="275.1" fill="#333"><tspan x="1069.224" y="275.06">China</tspan></text></g><g class="legendMark"><rect x="1054.224" y="334" width="130.776" height="19.200000000000003" fill="#fff" opacity="0"></rect><rect x="1054.224" y="342.35" width="10" height="2.5" fill="#3A5FCD"></rect><text font-size="19.20" x="1069.2" y="349.4" fill="#333"><tspan x="1069.224" y="349.36">United States</tspan></text></g></g><g class="Lines"><rect x="63" y="35" width="981" height="538" fill="rgba(255,255,255,0)" opacity="0"></rect><g class="key-World_0"><path stroke="#818282" stroke-linecap="round" d="M63 375L81 373L98 380L116 376L134 377L151 375L169 370L186 373L204 362L221 357L239 353L256 352L274 351L291 327L309 284L326 301L344 294L361 292L379 297L396 278L414 255L431 251L449 259L466 266L484 254L501 258L519 281L536 273L554 261L571 253L589 253L606 254L624 234L641 240L659 232L676 216L694 212L711 197L729 193L747 188L764 152L782 161L799 164L817 154L834 128L852 112L869 92L887 88L904 73L922 143L939 106L957 76L974 76L992 79L1009 81L1027 97" fill="none" stroke-width="1.5"></path><g fill="#818282"><circle cx="63" cy="375" r="2"></circle><circle cx="81" cy="373" r="2"></circle><circle cx="98" cy="380" r="2"></circle><circle cx="116" cy="376" r="2"></circle><circle cx="134" cy="377" r="2"></circle><circle cx="151" cy="375" r="2"></circle><circle cx="169" cy="370" r="2"></circle><circle cx="186" cy="373" r="2"></circle><circle cx="204" cy="362" r="2"></circle><circle cx="221" cy="357" r="2"></circle><circle cx="239" cy="353" r="2"></circle><circle cx="256" cy="352" r="2"></circle><circle cx="274" cy="351" r="2"></circle><circle cx="291" cy="327" r="2"></circle><circle cx="309" cy="284" r="2"></circle><circle cx="326" cy="301" r="2"></circle><circle cx="344" cy="294" r="2"></circle><circle cx="361" cy="292" r="2"></circle><circle cx="379" cy="297" r="2"></circle><circle cx="396" cy="278" r="2"></circle><circle cx="414" cy="255" r="2"></circle><circle cx="431" cy="251" r="2"></circle><circle cx="449" cy="259" r="2"></circle><circle cx="466" cy="266" r="2"></circle><circle cx="484" cy="254" r="2"></circle><circle cx="501" cy="258" r="2"></circle><circle cx="519" cy="281" r="2"></circle><circle cx="536" cy="273" r="2"></circle><circle cx="554" cy="261" r="2"></circle><circle cx="571" cy="253" r="2"></circle><circle cx="589" cy="253" r="2"></circle><circle cx="606" cy="254" r="2"></circle><circle cx="624" cy="234" r="2"></circle><circle cx="641" cy="240" r="2"></circle><circle cx="659" cy="232" r="2"></circle><circle cx="676" cy="216" r="2"></circle><circle cx="694" cy="212" r="2"></circle><circle cx="711" cy="197" r="2"></circle><circle cx="729" cy="193" r="2"></circle><circle cx="747" cy="188" r="2"></circle><circle cx="764" cy="152" r="2"></circle><circle cx="782" cy="161" r="2"></circle><circle cx="799" cy="164" r="2"></circle><circle cx="817" cy="154" r="2"></circle><circle cx="834" cy="128" r="2"></circle><circle cx="852" cy="112" r="2"></circle><circle cx="869" cy="92" r="2"></circle><circle cx="887" cy="88" r="2"></circle><circle cx="904" cy="73" r="2"></circle><circle cx="922" cy="143" r="2"></circle><circle cx="939" cy="106" r="2"></circle><circle cx="957" cy="76" r="2"></circle><circle cx="974" cy="76" r="2"></circle><circle cx="992" cy="79" r="2"></circle><circle cx="1009" cy="81" r="2"></circle><circle cx="1027" cy="97" r="2"></circle></g></g><g class="key-China_0"><path stroke="#932834" stroke-linecap="round" d="M63 502L81 513L98 516L116 517L134 519L151 517L169 518L186 522L204 522L221 529L239 533L256 533L274 526L291 508L309 489L326 495L344 501L361 505L379 494L396 482L414 472L431 451L449 411L466 425L484 417L501 401L519 410L536 366L554 324L571 363L589 371L606 354L624 322L641 267L659 274L676 288L694 290L711 298L729 304L747 294L764 247L782 253L799 220L817 142L834 79L852 57L869 35L887 59L904 106L922 208L939 172L957 158L974 179L992 191L1009 199L1027 241L1044 269" fill="none" stroke-width="1.5"></path><g fill="#932834"><circle cx="63" cy="502" r="2"></circle><circle cx="81" cy="513" r="2"></circle><circle cx="98" cy="516" r="2"></circle><circle cx="116" cy="517" r="2"></circle><circle cx="134" cy="519" r="2"></circle><circle cx="151" cy="517" r="2"></circle><circle cx="169" cy="518" r="2"></circle><circle cx="186" cy="522" r="2"></circle><circle cx="204" cy="522" r="2"></circle><circle cx="221" cy="529" r="2"></circle><circle cx="239" cy="533" r="2"></circle><circle cx="256" cy="533" r="2"></circle><circle cx="274" cy="526" r="2"></circle><circle cx="291" cy="508" r="2"></circle><circle cx="309" cy="489" r="2"></circle><circle cx="326" cy="495" r="2"></circle><circle cx="344" cy="501" r="2"></circle><circle cx="361" cy="505" r="2"></circle><circle cx="379" cy="494" r="2"></circle><circle cx="396" cy="482" r="2"></circle><circle cx="414" cy="472" r="2"></circle><circle cx="431" cy="451" r="2"></circle><circle cx="449" cy="411" r="2"></circle><circle cx="466" cy="425" r="2"></circle><circle cx="484" cy="417" r="2"></circle><circle cx="501" cy="401" r="2"></circle><circle cx="519" cy="410" r="2"></circle><circle cx="536" cy="366" r="2"></circle><circle cx="554" cy="324" r="2"></circle><circle cx="571" cy="363" r="2"></circle><circle cx="589" cy="371" r="2"></circle><circle cx="606" cy="354" r="2"></circle><circle cx="624" cy="322" r="2"></circle><circle cx="641" cy="267" r="2"></circle><circle cx="659" cy="274" r="2"></circle><circle cx="676" cy="288" r="2"></circle><circle cx="694" cy="290" r="2"></circle><circle cx="711" cy="298" r="2"></circle><circle cx="729" cy="304" r="2"></circle><circle cx="747" cy="294" r="2"></circle><circle cx="764" cy="247" r="2"></circle><circle cx="782" cy="253" r="2"></circle><circle cx="799" cy="220" r="2"></circle><circle cx="817" cy="142" r="2"></circle><circle cx="834" cy="79" r="2"></circle><circle cx="852" cy="57" r="2"></circle><circle cx="869" cy="35" r="2"></circle><circle cx="887" cy="59" r="2"></circle><circle cx="904" cy="106" r="2"></circle><circle cx="922" cy="208" r="2"></circle><circle cx="939" cy="172" r="2"></circle><circle cx="957" cy="158" r="2"></circle><circle cx="974" cy="179" r="2"></circle><circle cx="992" cy="191" r="2"></circle><circle cx="1009" cy="199" r="2"></circle><circle cx="1027" cy="241" r="2"></circle><circle cx="1044" cy="269" r="2"></circle></g></g><g class="key-India_0"><path stroke="#f6a324" stroke-linecap="round" d="M63 480L81 488L98 489L116 489L134 495L151 503L169 484L186 491L204 499L221 509L239 510L256 510L274 509L291 499L309 483L326 471L344 467L361 469L379 466L396 450L414 446L431 453L449 456L466 460L484 457L501 466L519 472L536 469L554 462L571 448L589 445L606 433L624 421L641 410L659 407L676 384L694 392L711 386L729 377L747 368L764 350L782 358L799 329L817 320L834 262L852 225L869 191L887 195L904 132L922 190L939 166L957 117L974 116L992 132L1009 171L1027 227L1044 247" fill="none" stroke-width="1.5"></path><g fill="#f6a324"><circle cx="63" cy="480" r="2"></circle><circle cx="81" cy="488" r="2"></circle><circle cx="98" cy="489" r="2"></circle><circle cx="116" cy="489" r="2"></circle><circle cx="134" cy="495" r="2"></circle><circle cx="151" cy="503" r="2"></circle><circle cx="169" cy="484" r="2"></circle><circle cx="186" cy="491" r="2"></circle><circle cx="204" cy="499" r="2"></circle><circle cx="221" cy="509" r="2"></circle><circle cx="239" cy="510" r="2"></circle><circle cx="256" cy="510" r="2"></circle><circle cx="274" cy="509" r="2"></circle><circle cx="291" cy="499" r="2"></circle><circle cx="309" cy="483" r="2"></circle><circle cx="326" cy="471" r="2"></circle><circle cx="344" cy="467" r="2"></circle><circle cx="361" cy="469" r="2"></circle><circle cx="379" cy="466" r="2"></circle><circle cx="396" cy="450" r="2"></circle><circle cx="414" cy="446" r="2"></circle><circle cx="431" cy="453" r="2"></circle><circle cx="449" cy="456" r="2"></circle><circle cx="466" cy="460" r="2"></circle><circle cx="484" cy="457" r="2"></circle><circle cx="501" cy="466" r="2"></circle><circle cx="519" cy="472" r="2"></circle><circle cx="536" cy="469" r="2"></circle><circle cx="554" cy="462" r="2"></circle><circle cx="571" cy="448" r="2"></circle><circle cx="589" cy="445" r="2"></circle><circle cx="606" cy="433" r="2"></circle><circle cx="624" cy="421" r="2"></circle><circle cx="641" cy="410" r="2"></circle><circle cx="659" cy="407" r="2"></circle><circle cx="676" cy="384" r="2"></circle><circle cx="694" cy="392" r="2"></circle><circle cx="711" cy="386" r="2"></circle><circle cx="729" cy="377" r="2"></circle><circle cx="747" cy="368" r="2"></circle><circle cx="764" cy="350" r="2"></circle><circle cx="782" cy="358" r="2"></circle><circle cx="799" cy="329" r="2"></circle><circle cx="817" cy="320" r="2"></circle><circle cx="834" cy="262" r="2"></circle><circle cx="852" cy="225" r="2"></circle><circle cx="869" cy="191" r="2"></circle><circle cx="887" cy="195" r="2"></circle><circle cx="904" cy="132" r="2"></circle><circle cx="922" cy="190" r="2"></circle><circle cx="939" cy="166" r="2"></circle><circle cx="957" cy="117" r="2"></circle><circle cx="974" cy="116" r="2"></circle><circle cx="992" cy="132" r="2"></circle><circle cx="1009" cy="171" r="2"></circle><circle cx="1027" cy="227" r="2"></circle><circle cx="1044" cy="247" r="2"></circle></g></g><g class="key-United-States_0"><path stroke="#3A5FCD" stroke-linecap="round" d="M63 498L81 500L98 500L116 500L134 498L151 498L169 495L186 494L204 491L221 491L239 485L256 485L274 481L291 466L309 439L326 446L344 442L361 439L379 434L396 423L414 409L431 414L449 430L466 437L484 430L501 437L519 435L536 426L554 417L571 415L589 411L606 412L624 410L641 409L659 401L676 390L694 388L711 382L729 387L747 383L764 368L782 386L799 392L817 389L834 374L852 364L869 353L887 344L904 328L922 370L939 342L957 320L974 321L992 325L1009 325L1027 344" fill="none" stroke-width="1.5"></path><g fill="#3A5FCD"><circle cx="63" cy="498" r="2"></circle><circle cx="81" cy="500" r="2"></circle><circle cx="98" cy="500" r="2"></circle><circle cx="116" cy="500" r="2"></circle><circle cx="134" cy="498" r="2"></circle><circle cx="151" cy="498" r="2"></circle><circle cx="169" cy="495" r="2"></circle><circle cx="186" cy="494" r="2"></circle><circle cx="204" cy="491" r="2"></circle><circle cx="221" cy="491" r="2"></circle><circle cx="239" cy="485" r="2"></circle><circle cx="256" cy="485" r="2"></circle><circle cx="274" cy="481" r="2"></circle><circle cx="291" cy="466" r="2"></circle><circle cx="309" cy="439" r="2"></circle><circle cx="326" cy="446" r="2"></circle><circle cx="344" cy="442" r="2"></circle><circle cx="361" cy="439" r="2"></circle><circle cx="379" cy="434" r="2"></circle><circle cx="396" cy="423" r="2"></circle><circle cx="414" cy="409" r="2"></circle><circle cx="431" cy="414" r="2"></circle><circle cx="449" cy="430" r="2"></circle><circle cx="466" cy="437" r="2"></circle><circle cx="484" cy="430" r="2"></circle><circle cx="501" cy="437" r="2"></circle><circle cx="519" cy="435" r="2"></circle><circle cx="536" cy="426" r="2"></circle><circle cx="554" cy="417" r="2"></circle><circle cx="571" cy="415" r="2"></circle><circle cx="589" cy="411" r="2"></circle><circle cx="606" cy="412" r="2"></circle><circle cx="624" cy="410" r="2"></circle><circle cx="641" cy="409" r="2"></circle><circle cx="659" cy="401" r="2"></circle><circle cx="676" cy="390" r="2"></circle><circle cx="694" cy="388" r="2"></circle><circle cx="711" cy="382" r="2"></circle><circle cx="729" cy="387" r="2"></circle><circle cx="747" cy="383" r="2"></circle><circle cx="764" cy="368" r="2"></circle><circle cx="782" cy="386" r="2"></circle><circle cx="799" cy="392" r="2"></circle><circle cx="817" cy="389" r="2"></circle><circle cx="834" cy="374" r="2"></circle><circle cx="852" cy="364" r="2"></circle><circle cx="869" cy="353" r="2"></circle><circle cx="887" cy="344" r="2"></circle><circle cx="904" cy="328" r="2"></circle><circle cx="922" cy="370" r="2"></circle><circle cx="939" cy="342" r="2"></circle><circle cx="957" cy="320" r="2"></circle><circle cx="974" cy="321" r="2"></circle><circle cx="992" cy="325" r="2"></circle><circle cx="1009" cy="325" r="2"></circle><circle cx="1027" cy="344" r="2"></circle></g></g></g></g></g></g></svg>