<svg xmlns="http://www.w3.org/2000/svg" version="1.1" style="font-family: 'Helvetica Neue', Helvetica, Arial, sans-serif; font-size: 24px; background-color: white;" width="1200" height="630"><g class="ChartTab"><g class="LineChart"><defs><clipPath id="boundsClip-49"><rect x="46.288000000000004" y="0" width="1180" height="1130"></rect></clipPath></defs><g class="AxisBoxView"><g class="HorizontalAxis"><text x="56.3" y="600" fill="#666" text-anchor="middle" font-size="21.6">1990</text><text x="239.5" y="600" fill="#666" text-anchor="middle" font-size="21.6">1995</text><text x="422.7" y="600" fill="#666" text-anchor="middle" font-size="21.6">2000</text><text x="605.9" y="600" fill="#666" text-anchor="middle" font-size="21.6">2005</text><text x="789.1" y="600" fill="#666" text-anchor="middle" font-size="21.6">2010</text><text x="1008.9" y="600" fill="#666" text-anchor="middle" font-size="21.6">2016</text></g><g class="VerticalAxis"><text x="51.29" y="445" fill="#666" dominant-baseline="middle" text-anchor="end" font-size="21.6">50</text><text x="51.29" y="313.9" fill="#666" dominant-baseline="middle" text-anchor="end" font-size="21.6">100</text><text x="51.29" y="182.7" fill="#666" dominant-baseline="middle" text-anchor="end" font-size="21.6">150</text><text x="51.29" y="51.6" fill="#666" dominant-baseline="middle" text-anchor="end" font-size="21.6">200</text></g><g class="AxisGridLines"><line x1="56.29" y1="445" x2="1008.90" y2="445" stroke="#ddd" stroke-dasharray="3,2"></line><line x1="56.29" y1="313.9" x2="1008.90" y2="313.9" stroke="#ddd" stroke-dasharray="3,2"></line><line x1="56.29" y1="182.7" x2="1008.90" y2="182.7" stroke="#ddd" stroke-dasharray="3,2"></line><line x1="56.29" y1="51.6" x2="1008.90" y2="51.6" stroke="#ddd" stroke-dasharray="3,2"></line></g><g class="AxisGridLines"><line x1="56.3" y1="573.40" x2="56.3" y2="35.00" stroke="#ddd" stroke-dasharray="3,2"></line><line x1="239.5" y1="573.40" x2="239.5" y2="35.00" stroke="#ddd" stroke-dasharray="3,2"></line><line x1="422.7" y1="573.40" x2="422.7" y2="35.00" stroke="#ddd" stroke-dasharray="3,2"></line><line x1="605.9" y1="573.40" x2="605.9" y2="35.00" stroke="#ddd" stroke-dasharray="3,2"></line><line x1="789.1" y1="573.40" x2="789.1" y2="35.00" stroke="#ddd" stroke-dasharray="3,2"></line><line x1="972.3" y1="573.40" x2="972.3" y2="35.00" stroke="#ddd" stroke-dasharray="3,2"></line></g></g><g clip-path="url(#boundsClip-49)"><g class="HeightedLegend clickable"><g class="legendMark"><rect x="1018.896" y="554.1999999999999" width="137.11200000000002" height="19.200000000000003" fill="#fff" opacity="0"></rect><rect x="1018.896" y="562.55" width="10" height="2.5" fill="#3360a9"></rect><text font-size="19.20" x="1033.9" y="569.6" fill="#333"><tspan x="1033.896" y="569.56">5-14 years old</tspan></text></g><g class="legendMark"><rect x="1018.896" y="534.9999999999999" width="94.10400000000001" height="19.200000000000003" fill="#fff" opacity="0"></rect><rect x="1018.896" y="543.3499999999999" width="10" height="2.5" fill="#ca2628"></rect><text font-size="19.20" x="1033.9" y="550.4" fill="#333"><tspan x="1033.896" y="550.3599999999999">Under-5s</tspan></text></g><g class="legendMark"><rect x="1018.896" y="515.7999999999998" width="147.86400000000003" height="19.200000000000003" fill="#fff" opacity="0"></rect><rect x="1018.896" y="524.1499999999999" width="10" height="2.5" fill="#34983f"></rect><text font-size="19.20" x="1033.9" y="531.2" fill="#333"><tspan x="1033.896" y="531.1599999999999">15-49 years old</tspan></text></g><g class="legendMark"><rect x="1018.896" y="496.5999999999998" width="83.54400000000001" height="19.200000000000003" fill="#fff" opacity="0"></rect><rect x="1018.896" y="504.9499999999998" width="10" height="2.5" fill="#f6a324"></rect><text font-size="19.20" x="1033.9" y="512.0" fill="#333"><tspan x="1033.896" y="511.95999999999987">All ages</tspan></text></g><g class="legendMark"><rect x="1018.896" y="477.39999999999975" width="166.104" height="19.200000000000003" fill="#fff" opacity="0"></rect><rect x="1018.896" y="485.7499999999998" width="10" height="2.5" fill="#a652ba"></rect><text font-size="19.20" x="1033.9" y="492.8" fill="#333"><tspan x="1033.896" y="492.75999999999976">Age-standardized</tspan></text></g><g class="legendMark"><rect x="1018.896" y="458.19999999999976" width="147.86400000000003" height="19.200000000000003" fill="#fff" opacity="0"></rect><rect x="1018.896" y="466.5499999999998" width="10" height="2.5" fill="#2a939b"></rect><text font-size="19.20" x="1033.9" y="473.6" fill="#333"><tspan x="1033.896" y="473.5599999999998">50-69 years old</tspan></text></g><g class="legendMark"><rect x="1018.896" y="353" width="131.16000000000003" height="19.200000000000003" fill="#fff" opacity="0"></rect><rect x="1018.896" y="361.35" width="10" height="2.5" fill="#e6332e"></rect><text font-size="19.20" x="1033.9" y="368.4" fill="#333"><tspan x="1033.896" y="368.36">70+ years old</tspan></text></g></g><g class="Lines"><rect x="56" y="35" width="953" height="538" fill="rgba(255,255,255,0)" opacity="0"></rect><g class="key-World_0"><path stroke="#ca2628" stroke-linecap="round" d="M56 543L93 544L130 545L166 546L203 547L240 548L276 549L313 550L349 551L386 551L423 552L459 552L496 553L533 554L569 555L606 556L643 557L679 558L716 559L752 560L789 561L826 562L862 562L899 563L936 564L972 565L1009 565" fill="none" stroke-width="1.5"></path><g fill="#ca2628"><circle cx="56" cy="543" r="2"></circle><circle cx="93" cy="544" r="2"></circle><circle cx="130" cy="545" r="2"></circle><circle cx="166" cy="546" r="2"></circle><circle cx="203" cy="547" r="2"></circle><circle cx="240" cy="548" r="2"></circle><circle cx="276" cy="549" r="2"></circle><circle cx="313" cy="550" r="2"></circle><circle cx="349" cy="551" r="2"></circle><circle cx="386" cy="551" r="2"></circle><circle cx="423" cy="552" r="2"></circle><circle cx="459" cy="552" r="2"></circle><circle cx="496" cy="553" r="2"></circle><circle cx="533" cy="554" r="2"></circle><circle cx="569" cy="555" r="2"></circle><circle cx="606" cy="556" r="2"></circle><circle cx="643" cy="557" r="2"></circle><circle cx="679" cy="558" r="2"></circle><circle cx="716" cy="559" r="2"></circle><circle cx="752" cy="560" r="2"></circle><circle cx="789" cy="561" r="2"></circle><circle cx="826" cy="562" r="2"></circle><circle cx="862" cy="562" r="2"></circle><circle cx="899" cy="563" r="2"></circle><circle cx="936" cy="564" r="2"></circle><circle cx="972" cy="565" r="2"></circle><circle cx="1009" cy="565" r="2"></circle></g></g><g class="key-World_1"><path stroke="#f6a324" stroke-linecap="round" d="M56 487L93 489L130 491L166 492L203 494L240 495L276 497L313 499L349 500L386 501L423 502L459 504L496 506L533 508L569 510L606 512L643 515L679 517L716 520L752 522L789 524L826 525L862 527L899 529L936 530L972 532L1009 533" fill="none" stroke-width="1.5"></path><g fill="#f6a324"><circle cx="56" cy="487" r="2"></circle><circle cx="93" cy="489" r="2"></circle><circle cx="130" cy="491" r="2"></circle><circle cx="166" cy="492" r="2"></circle><circle cx="203" cy="494" r="2"></circle><circle cx="240" cy="495" r="2"></circle><circle cx="276" cy="497" r="2"></circle><circle cx="313" cy="499" r="2"></circle><circle cx="349" cy="500" r="2"></circle><circle cx="386" cy="501" r="2"></circle><circle cx="423" cy="502" r="2"></circle><circle cx="459" cy="504" r="2"></circle><circle cx="496" cy="506" r="2"></circle><circle cx="533" cy="508" r="2"></circle><circle cx="569" cy="510" r="2"></circle><circle cx="606" cy="512" r="2"></circle><circle cx="643" cy="515" r="2"></circle><circle cx="679" cy="517" r="2"></circle><circle cx="716" cy="520" r="2"></circle><circle cx="752" cy="522" r="2"></circle><circle cx="789" cy="524" r="2"></circle><circle cx="826" cy="525" r="2"></circle><circle cx="862" cy="527" r="2"></circle><circle cx="899" cy="529" r="2"></circle><circle cx="936" cy="530" r="2"></circle><circle cx="972" cy="532" r="2"></circle><circle cx="1009" cy="533" r="2"></circle></g></g><g class="key-World_2"><path stroke="#e6332e" stroke-linecap="round" d="M56 35L93 51L130 66L166 80L203 96L240 108L276 123L313 137L349 149L386 161L423 172L459 185L496 198L533 214L569 230L606 244L643 260L679 274L716 286L752 298L789 308L826 318L862 328L899 337L936 347L972 356L1009 363" fill="none" stroke-width="1.5"></path><g fill="#e6332e"><circle cx="56" cy="35" r="2"></circle><circle cx="93" cy="51" r="2"></circle><circle cx="130" cy="66" r="2"></circle><circle cx="166" cy="80" r="2"></circle><circle cx="203" cy="96" r="2"></circle><circle cx="240" cy="108" r="2"></circle><circle cx="276" cy="123" r="2"></circle><circle cx="313" cy="137" r="2"></circle><circle cx="349" cy="149" r="2"></circle><circle cx="386" cy="161" r="2"></circle><circle cx="423" cy="172" r="2"></circle><circle cx="459" cy="185" r="2"></circle><circle cx="496" cy="198" r="2"></circle><circle cx="533" cy="214" r="2"></circle><circle cx="569" cy="230" r="2"></circle><circle cx="606" cy="244" r="2"></circle><circle cx="643" cy="260" r="2"></circle><circle cx="679" cy="274" r="2"></circle><circle cx="716" cy="286" r="2"></circle><circle cx="752" cy="298" r="2"></circle><circle cx="789" cy="308" r="2"></circle><circle cx="826" cy="318" r="2"></circle><circle cx="862" cy="328" r="2"></circle><circle cx="899" cy="337" r="2"></circle><circle cx="936" cy="347" r="2"></circle><circle cx="972" cy="356" r="2"></circle><circle cx="1009" cy="363" r="2"></circle></g></g><g class="key-World_3"><path stroke="#3360a9" stroke-linecap="round" d="M56 568L93 568L130 568L166 569L203 569L240 569L276 570L313 570L349 570L386 570L423 570L459 570L496 571L533 571L569 571L606 571L643 571L679 572L716 572L752 572L789 572L826 572L862 573L899 573L936 573L972 573L1009 573" fill="none" stroke-width="1.5"></path><g fill="#3360a9"><circle cx="56" cy="568" r="2"></circle><circle cx="93" cy="568" r="2"></circle><circle cx="130" cy="568" r="2"></circle><circle cx="166" cy="569" r="2"></circle><circle cx="203" cy="569" r="2"></circle><circle cx="240" cy="569" r="2"></circle><circle cx="276" cy="570" r="2"></circle><circle cx="313" cy="570" r="2"></circle><circle cx="349" cy="570" r="2"></circle><circle cx="386" cy="570" r="2"></circle><circle cx="423" cy="570" r="2"></circle><circle cx="459" cy="570" r="2"></circle><circle cx="496" cy="571" r="2"></circle><circle cx="533" cy="571" r="2"></circle><circle cx="569" cy="571" r="2"></circle><circle cx="606" cy="571" r="2"></circle><circle cx="643" cy="571" r="2"></circle><circle cx="679" cy="572" r="2"></circle><circle cx="716" cy="572" r="2"></circle><circle cx="752" cy="572" r="2"></circle><circle cx="789" cy="572" r="2"></circle><circle cx="826" cy="572" r="2"></circle><circle cx="862" cy="573" r="2"></circle><circle cx="899" cy="573" r="2"></circle><circle cx="936" cy="573" r="2"></circle><circle cx="972" cy="573" r="2"></circle><circle cx="1009" cy="573" r="2"></circle></g></g><g class="key-World_4"><path stroke="#34983f" stroke-linecap="round" d="M56 514L93 515L130 516L166 517L203 518L240 519L276 520L313 521L349 522L386 522L423 523L459 525L496 526L533 528L569 530L606 531L643 533L679 535L716 537L752 539L789 540L826 542L862 543L899 544L936 546L972 546L1009 547" fill="none" stroke-width="1.5"></path><g fill="#34983f"><circle cx="56" cy="514" r="2"></circle><circle cx="93" cy="515" r="2"></circle><circle cx="130" cy="516" r="2"></circle><circle cx="166" cy="517" r="2"></circle><circle cx="203" cy="518" r="2"></circle><circle cx="240" cy="519" r="2"></circle><circle cx="276" cy="520" r="2"></circle><circle cx="313" cy="521" r="2"></circle><circle cx="349" cy="522" r="2"></circle><circle cx="386" cy="522" r="2"></circle><circle cx="423" cy="523" r="2"></circle><circle cx="459" cy="525" r="2"></circle><circle cx="496" cy="526" r="2"></circle><circle cx="533" cy="528" r="2"></circle><circle cx="569" cy="530" r="2"></circle><circle cx="606" cy="531" r="2"></circle><circle cx="643" cy="533" r="2"></circle><circle cx="679" cy="535" r="2"></circle><circle cx="716" cy="537" r="2"></circle><circle cx="752" cy="539" r="2"></circle><circle cx="789" cy="540" r="2"></circle><circle cx="826" cy="542" r="2"></circle><circle cx="862" cy="543" r="2"></circle><circle cx="899" cy="544" r="2"></circle><circle cx="936" cy="546" r="2"></circle><circle cx="972" cy="546" r="2"></circle><circle cx="1009" cy="547" r="2"></circle></g></g><g class="key-World_5"><path stroke="#2a939b" stroke-linecap="round" d="M56 331L93 339L130 344L166 350L203 355L240 359L276 365L313 372L349 378L386 383L423 388L459 396L496 403L533 412L569 420L606 427L643 436L679 443L716 450L752 456L789 461L826 466L862 471L899 476L936 481L972 485L1009 489" fill="none" stroke-width="1.5"></path><g fill="#2a939b"><circle cx="56" cy="331" r="2"></circle><circle cx="93" cy="339" r="2"></circle><circle cx="130" cy="344" r="2"></circle><circle cx="166" cy="350" r="2"></circle><circle cx="203" cy="355" r="2"></circle><circle cx="240" cy="359" r="2"></circle><circle cx="276" cy="365" r="2"></circle><circle cx="313" cy="372" r="2"></circle><circle cx="349" cy="378" r="2"></circle><circle cx="386" cy="383" r="2"></circle><circle cx="423" cy="388" r="2"></circle><circle cx="459" cy="396" r="2"></circle><circle cx="496" cy="403" r="2"></circle><circle cx="533" cy="412" r="2"></circle><circle cx="569" cy="420" r="2"></circle><circle cx="606" cy="427" r="2"></circle><circle cx="643" cy="436" r="2"></circle><circle cx="679" cy="443" r="2"></circle><circle cx="716" cy="450" r="2"></circle><circle cx="752" cy="456" r="2"></circle><circle cx="789" cy="461" r="2"></circle><circle cx="826" cy="466" r="2"></circle><circle cx="862" cy="471" r="2"></circle><circle cx="899" cy="476" r="2"></circle><circle cx="936" cy="481" r="2"></circle><circle cx="972" cy="485" r="2"></circle><circle cx="1009" cy="489" r="2"></circle></g></g><g class="key-World_6"><path stroke="#a652ba" stroke-linecap="round" d="M56 458L93 461L130 464L166 467L203 470L240 472L276 476L313 478L349 481L386 483L423 485L459 488L496 491L533 494L569 498L606 501L643 505L679 509L716 512L752 515L789 517L826 520L862 522L899 525L936 527L972 529L1009 531" fill="none" stroke-width="1.5"></path><g fill="#a652ba"><circle cx="56" cy="458" r="2"></circle><circle cx="93" cy="461" r="2"></circle><circle cx="130" cy="464" r="2"></circle><circle cx="166" cy="467" r="2"></circle><circle cx="203" cy="470" r="2"></circle><circle cx="240" cy="472" r="2"></circle><circle cx="276" cy="476" r="2"></circle><circle cx="313" cy="478" r="2"></circle><circle cx="349" cy="481" r="2"></circle><circle cx="386" cy="483" r="2"></circle><circle cx="423" cy="485" r="2"></circle><circle cx="459" cy="488" r="2"></circle><circle cx="496" cy="491" r="2"></circle><circle cx="533" cy="494" r="2"></circle><circle cx="569" cy="498" r="2"></circle><circle cx="606" cy="501" r="2"></circle><circle cx="643" cy="505" r="2"></circle><circle cx="679" cy="509" r="2"></circle><circle cx="716" cy="512" r="2"></circle><circle cx="752" cy="515" r="2"></circle><circle cx="789" cy="517" r="2"></circle><circle cx="826" cy="520" r="2"></circle><circle cx="862" cy="522" r="2"></circle><circle cx="899" cy="525" r="2"></circle><circle cx="936" cy="527" r="2"></circle><circle cx="972" cy="529" r="2"></circle><circle cx="1009" cy="531" r="2"></circle></g></g></g></g></g></g></svg>