<svg xmlns="http://www.w3.org/2000/svg" version="1.1" style="font-family: 'Helvetica Neue', Helvetica, Arial, sans-serif; font-size: 24px; background-color: white;" width="1200" height="630"><g class="ChartTab"><g class="LineChart"><defs><clipPath id="boundsClip-1909"><rect x="113.46400000000001" y="0" width="1180" height="1130"></rect></clipPath></defs><g class="AxisBoxView"><g class="HorizontalAxis"><text x="123.5" y="600" fill="#666" text-anchor="middle" font-size="21.6">1960</text><text x="282.3" y="600" fill="#666" text-anchor="middle" font-size="21.6">1970</text><text x="441.2" y="600" fill="#666" text-anchor="middle" font-size="21.6">1980</text><text x="600.1" y="600" fill="#666" text-anchor="middle" font-size="21.6">1990</text><text x="758.9" y="600" fill="#666" text-anchor="middle" font-size="21.6">2000</text><text x="917.8" y="600" fill="#666" text-anchor="middle" font-size="21.6">2010</text><text x="1013.1" y="600" fill="#666" text-anchor="middle" font-size="21.6">2016</text></g><g class="VerticalAxis"><text x="118.46" y="573.4" fill="#666" dominant-baseline="middle" text-anchor="end" font-size="21.6">0</text><text x="118.46" y="506.6" fill="#666" dominant-baseline="middle" text-anchor="end" font-size="21.6">500 million</text><text x="118.46" y="439.7" fill="#666" dominant-baseline="middle" text-anchor="end" font-size="21.6">1 billion</text><text x="118.46" y="372.9" fill="#666" dominant-baseline="middle" text-anchor="end" font-size="21.6">1.5 billion</text><text x="118.46" y="306" fill="#666" dominant-baseline="middle" text-anchor="end" font-size="21.6">2 billion</text><text x="118.46" y="239.2" fill="#666" dominant-baseline="middle" text-anchor="end" font-size="21.6">2.5 billion</text><text x="118.46" y="172.3" fill="#666" dominant-baseline="middle" text-anchor="end" font-size="21.6">3 billion</text><text x="118.46" y="105.5" fill="#666" dominant-baseline="middle" text-anchor="end" font-size="21.6">3.5 billion</text><text x="118.46" y="38.6" fill="#666" dominant-baseline="middle" text-anchor="end" font-size="21.6">4 billion</text></g><g class="AxisGridLines"><line x1="123.46" y1="573.4" x2="1013.12" y2="573.4" stroke="#ccc"></line><line x1="123.46" y1="506.6" x2="1013.12" y2="506.6" stroke="#ddd" stroke-dasharray="3,2"></line><line x1="123.46" y1="439.7" x2="1013.12" y2="439.7" stroke="#ddd" stroke-dasharray="3,2"></line><line x1="123.46" y1="372.9" x2="1013.12" y2="372.9" stroke="#ddd" stroke-dasharray="3,2"></line><line x1="123.46" y1="306" x2="1013.12" y2="306" stroke="#ddd" stroke-dasharray="3,2"></line><line x1="123.46" y1="239.2" x2="1013.12" y2="239.2" stroke="#ddd" stroke-dasharray="3,2"></line><line x1="123.46" y1="172.3" x2="1013.12" y2="172.3" stroke="#ddd" stroke-dasharray="3,2"></line><line x1="123.46" y1="105.5" x2="1013.12" y2="105.5" stroke="#ddd" stroke-dasharray="3,2"></line><line x1="123.46" y1="38.6" x2="1013.12" y2="38.6" stroke="#ddd" stroke-dasharray="3,2"></line></g><g class="AxisGridLines"><line x1="123.5" y1="573.40" x2="123.5" y2="35.00" stroke="#ddd" stroke-dasharray="3,2"></line><line x1="282.3" y1="573.40" x2="282.3" y2="35.00" stroke="#ddd" stroke-dasharray="3,2"></line><line x1="441.2" y1="573.40" x2="441.2" y2="35.00" stroke="#ddd" stroke-dasharray="3,2"></line><line x1="600.1" y1="573.40" x2="600.1" y2="35.00" stroke="#ddd" stroke-dasharray="3,2"></line><line x1="758.9" y1="573.40" x2="758.9" y2="35.00" stroke="#ddd" stroke-dasharray="3,2"></line><line x1="917.8" y1="573.40" x2="917.8" y2="35.00" stroke="#ddd" stroke-dasharray="3,2"></line></g></g><g clip-path="url(#boundsClip-1909)"><g class="HeightedLegend clickable"><g class="legendMark"><rect x="1023.12" y="25.4" width="161.88000000000002" height="19.200000000000003" fill="#fff" opacity="0"></rect><rect x="1023.12" y="33.75" width="10" height="2.5" fill="#ca2628"></rect><text font-size="19.20" x="1038.1" y="40.8" fill="#333"><tspan x="1038.12" y="40.76">Urban population</tspan></text></g><g class="legendMark"><rect x="1023.12" y="110.6" width="155.35200000000003" height="19.200000000000003" fill="#fff" opacity="0"></rect><rect x="1023.12" y="118.94999999999999" width="10" height="2.5" fill="#3360a9"></rect><text font-size="19.20" x="1038.1" y="126.0" fill="#333"><tspan x="1038.12" y="125.96000000000001">Rural population</tspan></text></g></g><g class="Lines"><rect x="123" y="35" width="890" height="538" fill="rgba(255,255,255,0)" opacity="0"></rect><g class="key-World_0"><path stroke="#ca2628" stroke-linecap="round" d="M124 438L139 434L155 430L171 425L187 420L203 416L219 412L235 408L251 403L266 399L282 394L298 390L314 385L330 380L346 375L362 370L378 365L394 360L409 354L425 348L441 341L457 335L473 328L489 322L505 315L521 308L537 301L552 294L568 287L584 279L600 271L616 264L632 257L648 249L664 241L680 234L695 226L711 218L727 210L743 202L759 194L775 186L791 177L807 167L823 158L838 148L854 139L870 129L886 119L902 109L918 98L934 88L950 78L966 67L981 56L997 46L1013 35" fill="none" stroke-width="1.5"></path><g fill="#ca2628"><circle cx="124" cy="438" r="2"></circle><circle cx="139" cy="434" r="2"></circle><circle cx="155" cy="430" r="2"></circle><circle cx="171" cy="425" r="2"></circle><circle cx="187" cy="420" r="2"></circle><circle cx="203" cy="416" r="2"></circle><circle cx="219" cy="412" r="2"></circle><circle cx="235" cy="408" r="2"></circle><circle cx="251" cy="403" r="2"></circle><circle cx="266" cy="399" r="2"></circle><circle cx="282" cy="394" r="2"></circle><circle cx="298" cy="390" r="2"></circle><circle cx="314" cy="385" r="2"></circle><circle cx="330" cy="380" r="2"></circle><circle cx="346" cy="375" r="2"></circle><circle cx="362" cy="370" r="2"></circle><circle cx="378" cy="365" r="2"></circle><circle cx="394" cy="360" r="2"></circle><circle cx="409" cy="354" r="2"></circle><circle cx="425" cy="348" r="2"></circle><circle cx="441" cy="341" r="2"></circle><circle cx="457" cy="335" r="2"></circle><circle cx="473" cy="328" r="2"></circle><circle cx="489" cy="322" r="2"></circle><circle cx="505" cy="315" r="2"></circle><circle cx="521" cy="308" r="2"></circle><circle cx="537" cy="301" r="2"></circle><circle cx="552" cy="294" r="2"></circle><circle cx="568" cy="287" r="2"></circle><circle cx="584" cy="279" r="2"></circle><circle cx="600" cy="271" r="2"></circle><circle cx="616" cy="264" r="2"></circle><circle cx="632" cy="257" r="2"></circle><circle cx="648" cy="249" r="2"></circle><circle cx="664" cy="241" r="2"></circle><circle cx="680" cy="234" r="2"></circle><circle cx="695" cy="226" r="2"></circle><circle cx="711" cy="218" r="2"></circle><circle cx="727" cy="210" r="2"></circle><circle cx="743" cy="202" r="2"></circle><circle cx="759" cy="194" r="2"></circle><circle cx="775" cy="186" r="2"></circle><circle cx="791" cy="177" r="2"></circle><circle cx="807" cy="167" r="2"></circle><circle cx="823" cy="158" r="2"></circle><circle cx="838" cy="148" r="2"></circle><circle cx="854" cy="139" r="2"></circle><circle cx="870" cy="129" r="2"></circle><circle cx="886" cy="119" r="2"></circle><circle cx="902" cy="109" r="2"></circle><circle cx="918" cy="98" r="2"></circle><circle cx="934" cy="88" r="2"></circle><circle cx="950" cy="78" r="2"></circle><circle cx="966" cy="67" r="2"></circle><circle cx="981" cy="56" r="2"></circle><circle cx="997" cy="46" r="2"></circle><circle cx="1013" cy="35" r="2"></circle></g></g><g class="key-World_1"><path stroke="#3360a9" stroke-linecap="round" d="M124 305L139 303L155 301L171 297L187 293L203 288L219 283L235 278L251 273L266 268L282 262L298 257L314 251L330 246L346 241L362 236L378 231L394 227L409 222L425 219L441 215L457 211L473 207L489 202L505 198L521 194L537 190L552 185L568 181L584 176L600 172L616 168L632 164L648 160L664 157L680 153L695 150L711 146L727 143L743 140L759 138L775 136L791 134L807 133L823 132L838 130L854 129L870 128L886 127L902 126L918 125L934 125L950 124L966 123L981 122L997 121L1013 120" fill="none" stroke-width="1.5"></path><g fill="#3360a9"><circle cx="124" cy="305" r="2"></circle><circle cx="139" cy="303" r="2"></circle><circle cx="155" cy="301" r="2"></circle><circle cx="171" cy="297" r="2"></circle><circle cx="187" cy="293" r="2"></circle><circle cx="203" cy="288" r="2"></circle><circle cx="219" cy="283" r="2"></circle><circle cx="235" cy="278" r="2"></circle><circle cx="251" cy="273" r="2"></circle><circle cx="266" cy="268" r="2"></circle><circle cx="282" cy="262" r="2"></circle><circle cx="298" cy="257" r="2"></circle><circle cx="314" cy="251" r="2"></circle><circle cx="330" cy="246" r="2"></circle><circle cx="346" cy="241" r="2"></circle><circle cx="362" cy="236" r="2"></circle><circle cx="378" cy="231" r="2"></circle><circle cx="394" cy="227" r="2"></circle><circle cx="409" cy="222" r="2"></circle><circle cx="425" cy="219" r="2"></circle><circle cx="441" cy="215" r="2"></circle><circle cx="457" cy="211" r="2"></circle><circle cx="473" cy="207" r="2"></circle><circle cx="489" cy="202" r="2"></circle><circle cx="505" cy="198" r="2"></circle><circle cx="521" cy="194" r="2"></circle><circle cx="537" cy="190" r="2"></circle><circle cx="552" cy="185" r="2"></circle><circle cx="568" cy="181" r="2"></circle><circle cx="584" cy="176" r="2"></circle><circle cx="600" cy="172" r="2"></circle><circle cx="616" cy="168" r="2"></circle><circle cx="632" cy="164" r="2"></circle><circle cx="648" cy="160" r="2"></circle><circle cx="664" cy="157" r="2"></circle><circle cx="680" cy="153" r="2"></circle><circle cx="695" cy="150" r="2"></circle><circle cx="711" cy="146" r="2"></circle><circle cx="727" cy="143" r="2"></circle><circle cx="743" cy="140" r="2"></circle><circle cx="759" cy="138" r="2"></circle><circle cx="775" cy="136" r="2"></circle><circle cx="791" cy="134" r="2"></circle><circle cx="807" cy="133" r="2"></circle><circle cx="823" cy="132" r="2"></circle><circle cx="838" cy="130" r="2"></circle><circle cx="854" cy="129" r="2"></circle><circle cx="870" cy="128" r="2"></circle><circle cx="886" cy="127" r="2"></circle><circle cx="902" cy="126" r="2"></circle><circle cx="918" cy="125" r="2"></circle><circle cx="934" cy="125" r="2"></circle><circle cx="950" cy="124" r="2"></circle><circle cx="966" cy="123" r="2"></circle><circle cx="981" cy="122" r="2"></circle><circle cx="997" cy="121" r="2"></circle><circle cx="1013" cy="120" r="2"></circle></g></g></g></g></g></g></svg>