<svg xmlns="http://www.w3.org/2000/svg" version="1.1" style="font-family: 'Helvetica Neue', Helvetica, Arial, sans-serif; font-size: 24px; background-color: white;" width="1200" height="630"><g class="ChartTab"><g class="StackedArea"><defs><clipPath id="boundsClip-2039"><rect x="93.44000000000001" y="0" width="1170" height="1130"></rect></clipPath></defs><g class="AxisBoxView"><g class="HorizontalAxis"><text x="93.4" y="600" fill="#666" text-anchor="middle" font-size="21.6">1820</text><text x="238.7" y="600" fill="#666" text-anchor="middle" font-size="21.6">1850</text><text x="480.8" y="600" fill="#666" text-anchor="middle" font-size="21.6">1900</text><text x="722.8" y="600" fill="#666" text-anchor="middle" font-size="21.6">1950</text><text x="964.9" y="600" fill="#666" text-anchor="middle" font-size="21.6">2000</text><text x="1037.5" y="600" fill="#666" text-anchor="middle" font-size="21.6">2015</text></g><g class="VerticalAxis"><text x="88.44" y="573.4" fill="#666" dominant-baseline="middle" text-anchor="end" font-size="21.6">0</text><text x="88.44" y="500.1" fill="#666" dominant-baseline="middle" text-anchor="end" font-size="21.6">1 billion</text><text x="88.44" y="426.9" fill="#666" dominant-baseline="middle" text-anchor="end" font-size="21.6">2 billion</text><text x="88.44" y="353.6" fill="#666" dominant-baseline="middle" text-anchor="end" font-size="21.6">3 billion</text><text x="88.44" y="280.4" fill="#666" dominant-baseline="middle" text-anchor="end" font-size="21.6">4 billion</text><text x="88.44" y="207.1" fill="#666" dominant-baseline="middle" text-anchor="end" font-size="21.6">5 billion</text><text x="88.44" y="133.9" fill="#666" dominant-baseline="middle" text-anchor="end" font-size="21.6">6 billion</text><text x="88.44" y="60.6" fill="#666" dominant-baseline="middle" text-anchor="end" font-size="21.6">7 billion</text></g><g class="AxisGridLines"><line x1="93.44" y1="573.4" x2="1037.51" y2="573.4" stroke="#ccc"></line><line x1="93.44" y1="500.1" x2="1037.51" y2="500.1" stroke="#ddd" stroke-dasharray="3,2"></line><line x1="93.44" y1="426.9" x2="1037.51" y2="426.9" stroke="#ddd" stroke-dasharray="3,2"></line><line x1="93.44" y1="353.6" x2="1037.51" y2="353.6" stroke="#ddd" stroke-dasharray="3,2"></line><line x1="93.44" y1="280.4" x2="1037.51" y2="280.4" stroke="#ddd" stroke-dasharray="3,2"></line><line x1="93.44" y1="207.1" x2="1037.51" y2="207.1" stroke="#ddd" stroke-dasharray="3,2"></line><line x1="93.44" y1="133.9" x2="1037.51" y2="133.9" stroke="#ddd" stroke-dasharray="3,2"></line><line x1="93.44" y1="60.6" x2="1037.51" y2="60.6" stroke="#ddd" stroke-dasharray="3,2"></line></g><g class="AxisGridLines"><line x1="238.7" y1="573.40" x2="238.7" y2="35.00" stroke="#ddd" stroke-dasharray="3,2"></line><line x1="480.8" y1="573.40" x2="480.8" y2="35.00" stroke="#ddd" stroke-dasharray="3,2"></line><line x1="722.8" y1="573.40" x2="722.8" y2="35.00" stroke="#ddd" stroke-dasharray="3,2"></line><line x1="964.9" y1="573.40" x2="964.9" y2="35.00" stroke="#ddd" stroke-dasharray="3,2"></line></g></g><g clip-path="url(#boundsClip-2039)"><g class="HeightedLegend clickable"><g class="legendMark"><rect x="1042.512" y="238.34999999999997" width="125.59200000000001" height="80.10000000000001" fill="#fff" opacity="0"></rect><rect x="1042.512" y="277.15" width="10" height="2.5" fill="#34983f"></rect><text font-size="19.20" x="1057.5" y="253.7" fill="#333"><tspan x="1057.512" y="253.70999999999995">Number of</tspan><tspan x="1057.512" y="274.8299999999999">people not in</tspan><tspan x="1057.512" y="295.94999999999993">extreme</tspan><tspan x="1057.512" y="317.06999999999994">poverty</tspan></text></g><g class="legendMark"><rect x="1042.512" y="507.55" width="142.48800000000003" height="80.10000000000001" fill="#fff" opacity="0"></rect><rect x="1042.512" y="546.35" width="10" height="2.5" fill="#ca2628"></rect><text font-size="19.20" x="1057.5" y="522.9" fill="#333"><tspan x="1057.512" y="522.91">Number of</tspan><tspan x="1057.512" y="544.03">people living in</tspan><tspan x="1057.512" y="565.15">extreme</tspan><tspan x="1057.512" y="586.27">poverty</tspan></text></g></g><g class="Areas"><rect x="93.44000000000001" y="35" width="944.0719999999999" height="538.4" opacity="0" fill="rgba(255,255,255,0)"></rect><path stroke-linecap="round" d="M93.4 498.5L238.7 487.8L335.5 481.6L432.3 475.6L529.2 467.8L621.2 459.7L722.8 440.7L771.2 430.9L819.6 410.9L872.9 427.9L887.4 430.8L902 437.1L916.5 429.8L931 431.4L945.5 446.5L960 444.5L974.6 452.4L989.1 473.5L1003.6 481L1013.3 490.8L1018.1 500.9L1023 507.2L1037.5 521.7L1037.512 573.4L93.44000000000001 573.4" fill="#ca2628" fill-opacity="0.7" class="World_1-area"></path><path stroke-linecap="round" d="M93.4 494.1L238.7 480.9L335.5 470.9L432.3 459.3L529.2 445.2L621.2 423.6L722.8 388.8L771.2 351.7L819.6 303L872.9 242.4L887.4 224.3L902 204.6L916.5 184.4L931 165.4L945.5 147.4L960 130.3L974.6 113.2L989.1 95.8L1003.6 77.9L1013.3 65.7L1018.1 59.6L1023 53.5L1037.5 35L1037.5 521.7L1023 507.2L1018.1 500.9L1013.3 490.8L1003.6 481L989.1 473.5L974.6 452.4L960 444.5L945.5 446.5L931 431.4L916.5 429.8L902 437.1L887.4 430.8L872.9 427.9L819.6 410.9L771.2 430.9L722.8 440.7L621.2 459.7L529.2 467.8L432.3 475.6L335.5 481.6L238.7 487.8L93.4 498.5" fill="#34983f" fill-opacity="0.7" class="World_0-area"></path><path stroke-linecap="round" d="M93.4 498.5L238.7 487.8L335.5 481.6L432.3 475.6L529.2 467.8L621.2 459.7L722.8 440.7L771.2 430.9L819.6 410.9L872.9 427.9L887.4 430.8L902 437.1L916.5 429.8L931 431.4L945.5 446.5L960 444.5L974.6 452.4L989.1 473.5L1003.6 481L1013.3 490.8L1018.1 500.9L1023 507.2L1037.5 521.7" stroke="rgb(169, 32, 33)" stroke-opacity="0.7" stroke-width="0.5" fill="none" class="World_1-border"></path><path stroke-linecap="round" d="M93.4 494.1L238.7 480.9L335.5 470.9L432.3 459.3L529.2 445.2L621.2 423.6L722.8 388.8L771.2 351.7L819.6 303L872.9 242.4L887.4 224.3L902 204.6L916.5 184.4L931 165.4L945.5 147.4L960 130.3L974.6 113.2L989.1 95.8L1003.6 77.9L1013.3 65.7L1018.1 59.6L1023 53.5L1037.5 35" stroke="rgb(44, 127, 53)" stroke-opacity="0.7" stroke-width="0.5" fill="none" class="World_0-border"></path></g></g></g></g></svg>